<?xml version="1.0" encoding="UTF-8" standalone="no"?>
<!DOCTYPE svg PUBLIC "-//W3C//DTD SVG 1.1//EN"
 "http://www.w3.org/Graphics/SVG/1.1/DTD/svg11.dtd">
<!-- Generated by graphviz version 2.43.0 (0)
 -->
<!-- Title: use_banana_item Pages: 1 -->
<!--zoomable 279 -->

<svg id="main" version="1.1" xmlns="http://www.w3.org/2000/svg" xmlns:xlink="http://www.w3.org/1999/xlink" xml:space="preserve" onload="init(evt)">
<style type="text/css"><![CDATA[
.node, .edge {opacity: 0.7;}
.node.selected, .edge.selected {opacity: 1;}
.edge:hover path { stroke: red; }
.edge:hover polygon { stroke: red; fill: red; }
]]></style>

<defs>
  <circle id="rim" cx="0" cy="0" r="7"/>
  <circle id="rim2" cx="0" cy="0" r="3.5"/>
  <g id="zoomPlus">
    <use xlink:href="#rim" fill="#404040"><set attributeName="fill" to="#808080" begin="zoomplus.mouseover" end="zoomplus.mouseout"/></use>
    <path d="M-4,0h8M0,-4v8" fill="none" stroke="white" stroke-width="1.5" pointer-events="none"/>
  </g>
  <g id="zoomMin">
    <use xlink:href="#rim" fill="#404040"><set attributeName="fill" to="#808080" begin="zoomminus.mouseover" end="zoomminus.mouseout"/></use>
    <path d="M-4,0h8" fill="none" stroke="white" stroke-width="1.5" pointer-events="none"/>
  </g>
  <g id="arrowUp" transform="translate(30 24)">
    <use xlink:href="#rim"/>
    <path pointer-events="none" fill="none" stroke="white" stroke-width="1.5" d="M0,-3.0v7 M-2.5,-0.5L0,-3.0L2.5,-0.5"/>
  </g>
  <g id="arrowRight" transform="rotate(90) translate(36 -43)">
    <use xlink:href="#rim"/>
    <path pointer-events="none" fill="none" stroke="white" stroke-width="1.5" d="M0,-3.0v7 M-2.5,-0.5L0,-3.0L2.5,-0.5"/>
  </g>
  <g id="arrowDown" transform="rotate(180) translate(-30 -48)">
    <use xlink:href="#rim"/>
    <path pointer-events="none" fill="none" stroke="white" stroke-width="1.5" d="M0,-3.0v7 M-2.5,-0.5L0,-3.0L2.5,-0.5"/>
  </g>
  <g id="arrowLeft" transform="rotate(270) translate(-36 17)">
    <use xlink:href="#rim"/>
    <path pointer-events="none" fill="none" stroke="white" stroke-width="1.5" d="M0,-3.0v7 M-2.5,-0.5L0,-3.0L2.5,-0.5"/>
  </g>
  <g id="resetDef">
    <use xlink:href="#rim2" fill="#404040"><set attributeName="fill" to="#808080" begin="reset.mouseover" end="reset.mouseout"/></use>
  </g>
</defs>
<script type="application/ecmascript">
var viewWidth = 1628;
var viewHeight = 279;
var sectionId = 'dynsection-32';
</script>
<script type="application/ecmascript" xlink:href="svg.min.js"/>
<svg id="graph" class="graph">
<g id="viewport">
<title>use_banana_item</title>
<!-- Node1 -->
<g id="Node000001" class="node">
<title>Node1</title>
<g id="a_Node000001"><a xlink:title=" ">
<polygon fill="#999999" stroke="#666666" points="103,-104 0,-104 0,-85 103,-85 103,-104"/>
<text text-anchor="middle" x="51.5" y="-92" font-family="Helvetica,sans-Serif" font-size="10.00">use_banana_item</text>
</a>
</g>
</g>
<!-- Node2 -->
<g id="Node000002" class="node">
<title>Node2</title>
<g id="a_Node000002"><a xlink:href="actors_8c.html#a91fb2e4e37e7c72fea918fe2c1bb4eaf" target="_top" xlink:title=" ">
<polygon fill="white" stroke="#666666" points="285,-123 145,-123 145,-104 285,-104 285,-123"/>
<text text-anchor="middle" x="215" y="-111" font-family="Helvetica,sans-Serif" font-size="10.00">add_actor_to_empty_slot</text>
</a>
</g>
</g>
<!-- Node1&#45;&gt;Node2 -->
<g id="edge1_Node000001_Node000002" class="edge">
<title>Node1&#45;&gt;Node2</title>
<g id="a_edge1_Node000001_Node000002"><a xlink:title=" ">
<path fill="none" stroke="#63b8ff" d="M103.16,-100.46C113.18,-101.64 123.93,-102.9 134.64,-104.16"/>
<polygon fill="#63b8ff" stroke="#63b8ff" points="134.54,-107.68 144.88,-105.37 135.36,-100.72 134.54,-107.68"/>
</a>
</g>
</g>
<!-- Node25 -->
<g id="Node000025" class="node">
<title>Node25</title>
<g id="a_Node000025"><a xlink:href="math__util_8c.html#ad5bb0138c68b50f119d3cb7966f522b7" target="_top" xlink:title=" ">
<polygon fill="white" stroke="#666666" points="291,-86 139,-86 139,-67 291,-67 291,-86"/>
<text text-anchor="middle" x="215" y="-74" font-family="Helvetica,sans-Serif" font-size="10.00">mtxf_translate_vec3f_mat3</text>
</a>
</g>
</g>
<!-- Node1&#45;&gt;Node25 -->
<g id="edge27_Node000001_Node000025" class="edge">
<title>Node1&#45;&gt;Node25</title>
<g id="a_edge27_Node000001_Node000025"><a xlink:title=" ">
<path fill="none" stroke="#63b8ff" d="M103.16,-88.85C111.42,-87.93 120.18,-86.96 129.01,-85.97"/>
<polygon fill="#63b8ff" stroke="#63b8ff" points="129.43,-89.45 138.98,-84.86 128.65,-82.49 129.43,-89.45"/>
</a>
</g>
</g>
<!-- Node3 -->
<g id="Node000003" class="node">
<title>Node3</title>
<g id="a_Node000003"><a xlink:href="actors_8c.html#a39c023177b5a7686cdd1fc65b8b953e1" target="_top" xlink:title=" ">
<polygon fill="white" stroke="#666666" points="516,-160 454,-160 454,-141 516,-141 516,-160"/>
<text text-anchor="middle" x="485" y="-148" font-family="Helvetica,sans-Serif" font-size="10.00">actor_init</text>
</a>
</g>
</g>
<!-- Node2&#45;&gt;Node3 -->
<g id="edge2_Node000002_Node000003" class="edge">
<title>Node2&#45;&gt;Node3</title>
<g id="a_edge2_Node000002_Node000003"><a xlink:title=" ">
<path fill="none" stroke="#63b8ff" d="M285.02,-123.03C335.34,-129.98 401.81,-139.15 443.74,-144.94"/>
<polygon fill="#63b8ff" stroke="#63b8ff" points="443.46,-148.44 453.84,-146.34 444.42,-141.5 443.46,-148.44"/>
</a>
</g>
</g>
<!-- Node24 -->
<g id="Node000024" class="node">
<title>Node24</title>
<g id="a_Node000024"><a xlink:href="actors_8c.html#a0c9d11d8956bf92c32a5e9bafd7036e6" target="_top" xlink:title=" ">
<polygon fill="white" stroke="#666666" points="418,-98 327,-98 327,-79 418,-79 418,-98"/>
<text text-anchor="middle" x="372.5" y="-86" font-family="Helvetica,sans-Serif" font-size="10.00">func_8029E890</text>
</a>
</g>
</g>
<!-- Node2&#45;&gt;Node24 -->
<g id="edge23_Node000002_Node000024" class="edge">
<title>Node2&#45;&gt;Node24</title>
<g id="a_edge23_Node000002_Node000024"><a xlink:title=" ">
<path fill="none" stroke="#63b8ff" d="M275.23,-103.98C288.91,-101.78 303.4,-99.45 316.87,-97.28"/>
<polygon fill="#63b8ff" stroke="#63b8ff" points="317.63,-100.71 326.95,-95.66 316.52,-93.79 317.63,-100.71"/>
</a>
</g>
</g>
<!-- Node4 -->
<g id="Node000004" class="node">
<title>Node4</title>
<g id="a_Node000004"><a xlink:href="actors_8c.html#a1a9bccb586242555a9123ebd4ab70f2a" target="_top" xlink:title=" ">
<polygon fill="white" stroke="#666666" points="684,-122.5 552,-122.5 552,-92.5 684,-92.5 684,-122.5"/>
<text text-anchor="start" x="560" y="-110.5" font-family="Helvetica,sans-Serif" font-size="10.00">cleanup_red_and_green</text>
<text text-anchor="middle" x="618" y="-99.5" font-family="Helvetica,sans-Serif" font-size="10.00">_shells</text>
</a>
</g>
</g>
<!-- Node3&#45;&gt;Node4 -->
<g id="edge3_Node000003_Node000004" class="edge">
<title>Node3&#45;&gt;Node4</title>
<g id="a_edge3_Node000003_Node000004"><a xlink:title=" ">
<path fill="none" stroke="#63b8ff" d="M515.07,-140.96C528.74,-136.47 545.52,-130.96 561.48,-125.72"/>
<polygon fill="#63b8ff" stroke="#63b8ff" points="562.87,-128.95 571.28,-122.51 560.69,-122.3 562.87,-128.95"/>
</a>
</g>
</g>
<!-- Node16 -->
<g id="Node000016" class="node">
<title>Node16</title>
<g id="a_Node000016"><a xlink:href="collision_8c.html#ad72fef3ffe32191d73b1822f512ebf3f" target="_top" xlink:title=" ">
<polygon fill="white" stroke="#666666" points="665.5,-197 570.5,-197 570.5,-178 665.5,-178 665.5,-197"/>
<text text-anchor="middle" x="618" y="-185" font-family="Helvetica,sans-Serif" font-size="10.00">func_802AAAAC</text>
</a>
</g>
</g>
<!-- Node3&#45;&gt;Node16 -->
<g id="edge15_Node000003_Node000016" class="edge">
<title>Node3&#45;&gt;Node16</title>
<g id="a_edge15_Node000003_Node000016"><a xlink:title=" ">
<path fill="none" stroke="#63b8ff" d="M516.21,-159.27C527.44,-162.51 540.3,-166.19 552,-169.5 558.59,-171.36 565.55,-173.31 572.39,-175.21"/>
<polygon fill="#63b8ff" stroke="#63b8ff" points="571.66,-178.64 582.24,-177.94 573.54,-171.9 571.66,-178.64"/>
</a>
</g>
</g>
<!-- Node18 -->
<g id="Node000018" class="node">
<title>Node18</title>
<g id="a_Node000018"><a xlink:href="collision_8c.html#a365367628b7140a7a880beeecce9c305" target="_top" xlink:title=" ">
<polygon fill="white" stroke="#666666" points="665.5,-160 570.5,-160 570.5,-141 665.5,-141 665.5,-160"/>
<text text-anchor="middle" x="618" y="-148" font-family="Helvetica,sans-Serif" font-size="10.00">func_802ADDC8</text>
</a>
</g>
</g>
<!-- Node3&#45;&gt;Node18 -->
<g id="edge17_Node000003_Node000018" class="edge">
<title>Node3&#45;&gt;Node18</title>
<g id="a_edge17_Node000003_Node000018"><a xlink:title=" ">
<path fill="none" stroke="#63b8ff" d="M516.05,-150.5C529.13,-150.5 544.9,-150.5 560.04,-150.5"/>
<polygon fill="#63b8ff" stroke="#63b8ff" points="560.39,-154 570.39,-150.5 560.39,-147 560.39,-154"/>
</a>
</g>
</g>
<!-- Node22 -->
<g id="Node000022" class="node">
<title>Node22</title>
<g id="a_Node000022"><a xlink:href="math__util_8c.html#af7b470ed76fce07b8042a47c96e5690b" target="_top" xlink:title=" ">
<polygon fill="white" stroke="#666666" points="671.5,-271 564.5,-271 564.5,-252 671.5,-252 671.5,-271"/>
<text text-anchor="middle" x="618" y="-259" font-family="Helvetica,sans-Serif" font-size="10.00">vec3f_copy_return</text>
</a>
</g>
</g>
<!-- Node3&#45;&gt;Node22 -->
<g id="edge21_Node000003_Node000022" class="edge">
<title>Node3&#45;&gt;Node22</title>
<g id="a_edge21_Node000003_Node000022"><a xlink:title=" ">
<path fill="none" stroke="#63b8ff" d="M490.07,-160.05C498.65,-178.97 520.4,-221.32 552,-243.5 554.22,-245.05 556.56,-246.47 558.99,-247.77"/>
<polygon fill="#63b8ff" stroke="#63b8ff" points="557.57,-250.97 568.12,-251.96 560.49,-244.61 557.57,-250.97"/>
</a>
</g>
</g>
<!-- Node23 -->
<g id="Node000023" class="node">
<title>Node23</title>
<g id="a_Node000023"><a xlink:href="math__util_8c.html#a0e270ee67600c8c9c2f140c647d008a1" target="_top" xlink:title=" ">
<polygon fill="white" stroke="#666666" points="655,-234 581,-234 581,-215 655,-215 655,-234"/>
<text text-anchor="middle" x="618" y="-222" font-family="Helvetica,sans-Serif" font-size="10.00">vec3s_copy</text>
</a>
</g>
</g>
<!-- Node3&#45;&gt;Node23 -->
<g id="edge22_Node000003_Node000023" class="edge">
<title>Node3&#45;&gt;Node23</title>
<g id="a_edge22_Node000003_Node000023"><a xlink:title=" ">
<path fill="none" stroke="#63b8ff" d="M494.86,-160.29C506.71,-172.79 528.89,-194.27 552,-206.5 557.98,-209.67 564.57,-212.32 571.19,-214.53"/>
<polygon fill="#63b8ff" stroke="#63b8ff" points="570.27,-217.91 580.85,-217.46 572.3,-211.21 570.27,-217.91"/>
</a>
</g>
</g>
<!-- Node5 -->
<g id="Node000005" class="node">
<title>Node5</title>
<g id="a_Node000005"><a xlink:href="actors_8c.html#a694ec6ef7548b8618aeb35c038d3a9b9" target="_top" xlink:title=" ">
<polygon fill="white" stroke="#666666" points="837.5,-117 754.5,-117 754.5,-98 837.5,-98 837.5,-117"/>
<text text-anchor="middle" x="796" y="-105" font-family="Helvetica,sans-Serif" font-size="10.00">destroy_actor</text>
</a>
</g>
</g>
<!-- Node4&#45;&gt;Node5 -->
<g id="edge4_Node000004_Node000005" class="edge">
<title>Node4&#45;&gt;Node5</title>
<g id="a_edge4_Node000004_Node000005"><a xlink:title=" ">
<path fill="none" stroke="#63b8ff" d="M684.04,-107.5C703.95,-107.5 725.55,-107.5 744.35,-107.5"/>
<polygon fill="#63b8ff" stroke="#63b8ff" points="744.48,-111 754.48,-107.5 744.48,-104 744.48,-111"/>
</a>
</g>
</g>
<!-- Node15 -->
<g id="Node000015" class="node">
<title>Node15</title>
<g id="a_Node000015"><a xlink:href="code__80005FD0_8c.html#acb7b3d384c78d219f4b7040e78f6a2f2" target="_top" xlink:title=" ">
<polygon fill="white" stroke="#666666" points="872,-79.5 720,-79.5 720,-49.5 872,-49.5 872,-79.5"/>
<text text-anchor="start" x="728" y="-67.5" font-family="Helvetica,sans-Serif" font-size="10.00">remove_actor_in_unexpired</text>
<text text-anchor="middle" x="796" y="-56.5" font-family="Helvetica,sans-Serif" font-size="10.00">_actor_list</text>
</a>
</g>
</g>
<!-- Node4&#45;&gt;Node15 -->
<g id="edge14_Node000004_Node000015" class="edge">
<title>Node4&#45;&gt;Node15</title>
<g id="a_edge14_Node000004_Node000015"><a xlink:title=" ">
<path fill="none" stroke="#63b8ff" d="M680.56,-92.46C694.49,-89.06 709.4,-85.41 723.7,-81.92"/>
<polygon fill="#63b8ff" stroke="#63b8ff" points="724.59,-85.3 733.48,-79.53 722.93,-78.5 724.59,-85.3"/>
</a>
</g>
</g>
<!-- Node6 -->
<g id="Node000006" class="node">
<title>Node6</title>
<g id="a_Node000006"><a xlink:href="actors_8c.html#ad5a56c8f7eaf719223099cce9e38ec9f" target="_top" xlink:title=" ">
<polygon fill="white" stroke="#666666" points="1059,-74 908,-74 908,-55 1059,-55 1059,-74"/>
<text text-anchor="middle" x="983.5" y="-62" font-family="Helvetica,sans-Serif" font-size="10.00">play_sound_before_destroy</text>
</a>
</g>
</g>
<!-- Node5&#45;&gt;Node6 -->
<g id="edge5_Node000005_Node000006" class="edge">
<title>Node5&#45;&gt;Node6</title>
<g id="a_edge5_Node000005_Node000006"><a xlink:title=" ">
<path fill="none" stroke="#63b8ff" d="M837.71,-98.06C865.18,-91.69 901.67,-83.24 931.14,-76.41"/>
<polygon fill="#63b8ff" stroke="#63b8ff" points="932.29,-79.73 941.25,-74.06 930.71,-72.91 932.29,-79.73"/>
</a>
</g>
</g>
<!-- Node7 -->
<g id="Node000007" class="node">
<title>Node7</title>
<g id="a_Node000007"><a xlink:href="external_8c.html#ae72057869772019e4464c87d4e16c682" target="_top" xlink:title=" ">
<polygon fill="white" stroke="#666666" points="1187,-74 1095,-74 1095,-55 1187,-55 1187,-74"/>
<text text-anchor="middle" x="1141" y="-62" font-family="Helvetica,sans-Serif" font-size="10.00">func_800C99E0</text>
</a>
</g>
</g>
<!-- Node6&#45;&gt;Node7 -->
<g id="edge6_Node000006_Node000007" class="edge">
<title>Node6&#45;&gt;Node7</title>
<g id="a_edge6_Node000006_Node000007"><a xlink:title=" ">
<path fill="none" stroke="#63b8ff" d="M1059.06,-64.5C1067.61,-64.5 1076.21,-64.5 1084.45,-64.5"/>
<polygon fill="#63b8ff" stroke="#63b8ff" points="1084.66,-68 1094.66,-64.5 1084.66,-61 1084.66,-68"/>
</a>
</g>
</g>
<!-- Node8 -->
<g id="Node000008" class="node">
<title>Node8</title>
<g id="a_Node000008"><a xlink:href="external_8c.html#aeb87c527482a244173df36a1f3d4f446" target="_top" xlink:title=" ">
<polygon fill="white" stroke="#666666" points="1315,-93 1223,-93 1223,-74 1315,-74 1315,-93"/>
<text text-anchor="middle" x="1269" y="-81" font-family="Helvetica,sans-Serif" font-size="10.00">func_800C21E8</text>
</a>
</g>
</g>
<!-- Node7&#45;&gt;Node8 -->
<g id="edge7_Node000007_Node000008" class="edge">
<title>Node7&#45;&gt;Node8</title>
<g id="a_edge7_Node000007_Node000008"><a xlink:title=" ">
<path fill="none" stroke="#63b8ff" d="M1187.13,-71.31C1195.46,-72.56 1204.23,-73.88 1212.81,-75.18"/>
<polygon fill="#63b8ff" stroke="#63b8ff" points="1212.35,-78.65 1222.76,-76.68 1213.39,-71.73 1212.35,-78.65"/>
</a>
</g>
</g>
<!-- Node9 -->
<g id="Node000009" class="node">
<title>Node9</title>
<g id="a_Node000009"><a xlink:href="external_8c.html#a028d40421b90c38f68ebfd5acc626f2e" target="_top" xlink:title=" ">
<polygon fill="white" stroke="#666666" points="1315,-56 1223,-56 1223,-37 1315,-37 1315,-56"/>
<text text-anchor="middle" x="1269" y="-44" font-family="Helvetica,sans-Serif" font-size="10.00">func_800C5578</text>
</a>
</g>
</g>
<!-- Node7&#45;&gt;Node9 -->
<g id="edge8_Node000007_Node000009" class="edge">
<title>Node7&#45;&gt;Node9</title>
<g id="a_edge8_Node000007_Node000009"><a xlink:title=" ">
<path fill="none" stroke="#63b8ff" d="M1187.13,-58.05C1195.46,-56.86 1204.23,-55.61 1212.81,-54.38"/>
<polygon fill="#63b8ff" stroke="#63b8ff" points="1213.35,-57.84 1222.76,-52.96 1212.36,-50.91 1213.35,-57.84"/>
</a>
</g>
</g>
<!-- Node10 -->
<g id="Node000010" class="node">
<title>Node10</title>
<g id="a_Node000010"><a xlink:href="external_8c.html#ac0fb767de7e14a03f1bcfa53f0abd23b" target="_top" xlink:title=" ">
<polygon fill="white" stroke="#666666" points="1491,-93 1351,-93 1351,-74 1491,-74 1491,-93"/>
<text text-anchor="middle" x="1421" y="-81" font-family="Helvetica,sans-Serif" font-size="10.00">delete_sound_from_bank</text>
</a>
</g>
</g>
<!-- Node9&#45;&gt;Node10 -->
<g id="edge9_Node000009_Node000010" class="edge">
<title>Node9&#45;&gt;Node10</title>
<g id="a_edge9_Node000009_Node000010"><a xlink:title=" ">
<path fill="none" stroke="#63b8ff" d="M1308.63,-56.03C1327.8,-60.76 1351.16,-66.52 1371.52,-71.54"/>
<polygon fill="#63b8ff" stroke="#63b8ff" points="1370.69,-74.94 1381.24,-73.94 1372.37,-68.15 1370.69,-74.94"/>
</a>
</g>
</g>
<!-- Node12 -->
<g id="Node000012" class="node">
<title>Node12</title>
<g id="a_Node000012"><a xlink:href="external_8c.html#ab83bd36e63f0f1baddcb2482b5ad31b0" target="_top" xlink:title=" ">
<polygon fill="white" stroke="#666666" points="1467.5,-56 1374.5,-56 1374.5,-37 1467.5,-37 1467.5,-56"/>
<text text-anchor="middle" x="1421" y="-44" font-family="Helvetica,sans-Serif" font-size="10.00">func_800C41CC</text>
</a>
</g>
</g>
<!-- Node9&#45;&gt;Node12 -->
<g id="edge11_Node000009_Node000012" class="edge">
<title>Node9&#45;&gt;Node12</title>
<g id="a_edge11_Node000009_Node000012"><a xlink:title=" ">
<path fill="none" stroke="#63b8ff" d="M1315,-46.5C1330.37,-46.5 1347.74,-46.5 1363.86,-46.5"/>
<polygon fill="#63b8ff" stroke="#63b8ff" points="1364.25,-50 1374.25,-46.5 1364.25,-43 1364.25,-50"/>
</a>
</g>
</g>
<!-- Node13 -->
<g id="Node000013" class="node">
<title>Node13</title>
<g id="a_Node000013"><a xlink:href="port__eu_8c.html#aa89dfaecca46c6d071f08c1898d1f7c9" target="_top" xlink:title=" ">
<polygon fill="white" stroke="#666666" points="1467.5,-19 1374.5,-19 1374.5,0 1467.5,0 1467.5,-19"/>
<text text-anchor="middle" x="1421" y="-7" font-family="Helvetica,sans-Serif" font-size="10.00">func_800CBBE8</text>
</a>
</g>
</g>
<!-- Node9&#45;&gt;Node13 -->
<g id="edge12_Node000009_Node000013" class="edge">
<title>Node9&#45;&gt;Node13</title>
<g id="a_edge12_Node000009_Node000013"><a xlink:title=" ">
<path fill="none" stroke="#63b8ff" d="M1308.63,-36.97C1327.8,-32.24 1351.16,-26.48 1371.52,-21.46"/>
<polygon fill="#63b8ff" stroke="#63b8ff" points="1372.37,-24.85 1381.24,-19.06 1370.69,-18.06 1372.37,-24.85"/>
</a>
</g>
</g>
<!-- Node11 -->
<g id="Node000011" class="node">
<title>Node11</title>
<g id="a_Node000011"><a xlink:href="external_8c.html#a358ac55e8ab5262dcae8037334be06d7" target="_top" xlink:title=" ">
<polygon fill="white" stroke="#666666" points="1619.5,-93 1527.5,-93 1527.5,-74 1619.5,-74 1619.5,-93"/>
<text text-anchor="middle" x="1573.5" y="-81" font-family="Helvetica,sans-Serif" font-size="10.00">func_800C40F0</text>
</a>
</g>
</g>
<!-- Node10&#45;&gt;Node11 -->
<g id="edge10_Node000010_Node000011" class="edge">
<title>Node10&#45;&gt;Node11</title>
<g id="a_edge10_Node000010_Node000011"><a xlink:title=" ">
<path fill="none" stroke="#63b8ff" d="M1491.08,-83.5C1499.87,-83.5 1508.78,-83.5 1517.31,-83.5"/>
<polygon fill="#63b8ff" stroke="#63b8ff" points="1517.5,-87 1527.5,-83.5 1517.5,-80 1517.5,-87"/>
</a>
</g>
</g>
<!-- Node14 -->
<g id="Node000014" class="node">
<title>Node14</title>
<g id="a_Node000014"><a xlink:href="port__eu_8c.html#af361a20d2e08f30c53a237ca481ff734" target="_top" xlink:title=" ">
<polygon fill="white" stroke="#666666" points="1620,-19 1527,-19 1527,0 1620,0 1620,-19"/>
<text text-anchor="middle" x="1573.5" y="-7" font-family="Helvetica,sans-Serif" font-size="10.00">func_800CBB48</text>
</a>
</g>
</g>
<!-- Node13&#45;&gt;Node14 -->
<g id="edge13_Node000013_Node000014" class="edge">
<title>Node13&#45;&gt;Node14</title>
<g id="a_edge13_Node000013_Node000014"><a xlink:title=" ">
<path fill="none" stroke="#63b8ff" d="M1467.56,-9.5C1482.96,-9.5 1500.34,-9.5 1516.46,-9.5"/>
<polygon fill="#63b8ff" stroke="#63b8ff" points="1516.83,-13 1526.83,-9.5 1516.83,-6 1516.83,-13"/>
</a>
</g>
</g>
<!-- Node17 -->
<g id="Node000017" class="node">
<title>Node17</title>
<g id="a_Node000017"><a xlink:href="math__util_8c.html#a79fd07a0971ec96a3ff0801963a2fa7f" target="_top" xlink:title=" ">
<polygon fill="white" stroke="#666666" points="828,-265 764,-265 764,-246 828,-246 828,-265"/>
<text text-anchor="middle" x="796" y="-253" font-family="Helvetica,sans-Serif" font-size="10.00">vec3f_set</text>
</a>
</g>
</g>
<!-- Node16&#45;&gt;Node17 -->
<g id="edge16_Node000016_Node000017" class="edge">
<title>Node16&#45;&gt;Node17</title>
<g id="a_edge16_Node000016_Node000017"><a xlink:title=" ">
<path fill="none" stroke="#63b8ff" d="M661.31,-197.02C669.1,-199.55 676.97,-202.68 684,-206.5 702.55,-216.58 701.21,-227.88 720,-237.5 730.51,-242.88 742.68,-246.69 754.11,-249.37"/>
<polygon fill="#63b8ff" stroke="#63b8ff" points="753.41,-252.8 763.91,-251.45 754.86,-245.95 753.41,-252.8"/>
</a>
</g>
</g>
<!-- Node19 -->
<g id="Node000019" class="node">
<title>Node19</title>
<g id="a_Node000019"><a xlink:href="collision_8c.html#afce45acb8da354da0a5b501003be1aef" target="_top" xlink:title=" ">
<polygon fill="white" stroke="#666666" points="842.5,-191 749.5,-191 749.5,-172 842.5,-172 842.5,-191"/>
<text text-anchor="middle" x="796" y="-179" font-family="Helvetica,sans-Serif" font-size="10.00">func_802AAE4C</text>
</a>
</g>
</g>
<!-- Node18&#45;&gt;Node19 -->
<g id="edge18_Node000018_Node000019" class="edge">
<title>Node18&#45;&gt;Node19</title>
<g id="a_edge18_Node000018_Node000019"><a xlink:title=" ">
<path fill="none" stroke="#63b8ff" d="M665.7,-158.73C688.34,-162.71 715.68,-167.53 739.39,-171.7"/>
<polygon fill="#63b8ff" stroke="#63b8ff" points="738.84,-175.16 749.3,-173.45 740.06,-168.27 738.84,-175.16"/>
</a>
</g>
</g>
<!-- Node20 -->
<g id="Node000020" class="node">
<title>Node20</title>
<g id="a_Node000020"><a xlink:href="collision_8c.html#adcc608ea0eae3bf9a27ab79ec64b4899" target="_top" xlink:title=" ">
<polygon fill="white" stroke="#666666" points="842,-154 750,-154 750,-135 842,-135 842,-154"/>
<text text-anchor="middle" x="796" y="-142" font-family="Helvetica,sans-Serif" font-size="10.00">func_802AB288</text>
</a>
</g>
</g>
<!-- Node18&#45;&gt;Node20 -->
<g id="edge19_Node000018_Node000020" class="edge">
<title>Node18&#45;&gt;Node20</title>
<g id="a_edge19_Node000018_Node000020"><a xlink:title=" ">
<path fill="none" stroke="#63b8ff" d="M665.7,-148.91C688.41,-148.13 715.87,-147.2 739.63,-146.39"/>
<polygon fill="#63b8ff" stroke="#63b8ff" points="740.03,-149.88 749.9,-146.04 739.79,-142.88 740.03,-149.88"/>
</a>
</g>
</g>
<!-- Node21 -->
<g id="Node000021" class="node">
<title>Node21</title>
<g id="a_Node000021"><a xlink:href="collision_8c.html#ab440aa3fc960b7b4b5ad8e4bcaa06b00" target="_top" xlink:title=" ">
<polygon fill="white" stroke="#666666" points="842.5,-228 749.5,-228 749.5,-209 842.5,-209 842.5,-228"/>
<text text-anchor="middle" x="796" y="-216" font-family="Helvetica,sans-Serif" font-size="10.00">func_802AB6C4</text>
</a>
</g>
</g>
<!-- Node18&#45;&gt;Node21 -->
<g id="edge20_Node000018_Node000021" class="edge">
<title>Node18&#45;&gt;Node21</title>
<g id="a_edge20_Node000018_Node000021"><a xlink:title=" ">
<path fill="none" stroke="#63b8ff" d="M661.31,-160.02C669.1,-162.55 676.97,-165.68 684,-169.5 702.55,-179.58 701.21,-190.88 720,-200.5 726.09,-203.62 732.73,-206.21 739.46,-208.35"/>
<polygon fill="#63b8ff" stroke="#63b8ff" points="738.76,-211.79 749.34,-211.2 740.7,-205.07 738.76,-211.79"/>
</a>
</g>
</g>
<!-- Node24&#45;&gt;Node3 -->
<g id="edge24_Node000024_Node000003" class="edge">
<title>Node24&#45;&gt;Node3</title>
<g id="a_edge24_Node000024_Node000003"><a xlink:title=" ">
<path fill="none" stroke="#63b8ff" d="M390.77,-98.19C408.77,-108.29 437.2,-124.24 457.93,-135.87"/>
<polygon fill="#63b8ff" stroke="#63b8ff" points="456.42,-139.04 466.86,-140.88 459.85,-132.93 456.42,-139.04"/>
</a>
</g>
</g>
<!-- Node24&#45;&gt;Node6 -->
<g id="edge25_Node000024_Node000006" class="edge">
<title>Node24&#45;&gt;Node6</title>
<g id="a_edge25_Node000024_Node000006"><a xlink:title=" ">
<path fill="none" stroke="#63b8ff" d="M414.24,-78.97C499.33,-60.3 702.13,-22.26 872,-40.5 893.87,-42.85 917.77,-47.74 937.73,-52.5"/>
<polygon fill="#63b8ff" stroke="#63b8ff" points="936.94,-55.91 947.48,-54.89 938.6,-49.11 936.94,-55.91"/>
</a>
</g>
</g>
<!-- Node24&#45;&gt;Node15 -->
<g id="edge26_Node000024_Node000015" class="edge">
<title>Node24&#45;&gt;Node15</title>
<g id="a_edge26_Node000024_Node000015"><a xlink:title=" ">
<path fill="none" stroke="#63b8ff" d="M418.21,-85.95C487.3,-82.02 621.22,-74.39 709.37,-69.38"/>
<polygon fill="#63b8ff" stroke="#63b8ff" points="709.83,-72.86 719.62,-68.79 709.43,-65.87 709.83,-72.86"/>
</a>
</g>
</g>
</g>
</svg>

<g id="navigator" transform="translate(0 0)" fill="#404254">
  <rect fill="#f2f5e9" fill-opacity="0.5" stroke="#606060" stroke-width=".5" x="0" y="0" width="60" height="60"/>
  <use id="zoomplus" xlink:href="#zoomPlus" x="17" y="9" onmousedown="handleZoom(evt,'in')"/>
  <use id="zoomminus" xlink:href="#zoomMin" x="42" y="9" onmousedown="handleZoom(evt,'out')"/>
  <use id="reset" xlink:href="#resetDef" x="30" y="36" onmousedown="handleReset()"/>
   <use id="arrowup" xlink:href="#arrowUp" x="0" y="0" onmousedown="handlePan(0,-1)"/>
  <use id="arrowright" xlink:href="#arrowRight" x="0" y="0" onmousedown="handlePan(1,0)"/>
  <use id="arrowdown" xlink:href="#arrowDown" x="0" y="0" onmousedown="handlePan(0,1)"/>
  <use id="arrowleft" xlink:href="#arrowLeft" x="0" y="0" onmousedown="handlePan(-1,0)"/>
</g>
<svg viewBox="0 0 15 15" width="100%" height="30px" preserveAspectRatio="xMaxYMin meet">
 <g id="arrow_out" transform="scale(0.3 0.3)">
  <a xlink:href="actors__extended_8c_a78ba9cbef20b4e33a02f2d21004e0194_cgraph_org.svg" target="_base">
   <rect id="button" ry="5" rx="5" y="6" x="6" height="38" width="38"
        fill="#f2f5e9" fill-opacity="0.5" stroke="#606060" stroke-width="1.0"/>
   <path id="arrow"
     d="M 11.500037,31.436501 C 11.940474,20.09759 22.043105,11.32322 32.158766,21.979434 L 37.068811,17.246167 C 37.068811,17.246167 37.088388,32 37.088388,32 L 22.160133,31.978069 C 22.160133,31.978069 26.997745,27.140456 26.997745,27.140456 C 18.528582,18.264221 13.291696,25.230495 11.500037,31.436501 z"
     style="fill:#404040;"/>
  </a>
 </g>
</svg>

<style type='text/css'>
<![CDATA[
[data-mouse-over-selected='false'] { opacity: 0.7; }
[data-mouse-over-selected='true']  { opacity: 1.0; }
]]>
</style>
<script type="application/ecmascript"><![CDATA[
document.addEventListener('DOMContentLoaded', (event) => {
  highlightEdges();
  highlightAdjacentNodes();
});
]]></script>
</svg>
