<?xml version="1.0" encoding="UTF-8" standalone="no"?>
<!DOCTYPE svg PUBLIC "-//W3C//DTD SVG 1.1//EN"
 "http://www.w3.org/Graphics/SVG/1.1/DTD/svg11.dtd">
<!-- Generated by graphviz version 2.43.0 (0)
 -->
<!-- Title: place_palm_trees Pages: 1 -->
<!--zoomable 360 -->

<svg id="main" version="1.1" xmlns="http://www.w3.org/2000/svg" xmlns:xlink="http://www.w3.org/1999/xlink" xml:space="preserve" onload="init(evt)">
<style type="text/css"><![CDATA[
.node, .edge {opacity: 0.7;}
.node.selected, .edge.selected {opacity: 1;}
.edge:hover path { stroke: red; }
.edge:hover polygon { stroke: red; fill: red; }
]]></style>

<defs>
  <circle id="rim" cx="0" cy="0" r="7"/>
  <circle id="rim2" cx="0" cy="0" r="3.5"/>
  <g id="zoomPlus">
    <use xlink:href="#rim" fill="#404040"><set attributeName="fill" to="#808080" begin="zoomplus.mouseover" end="zoomplus.mouseout"/></use>
    <path d="M-4,0h8M0,-4v8" fill="none" stroke="white" stroke-width="1.5" pointer-events="none"/>
  </g>
  <g id="zoomMin">
    <use xlink:href="#rim" fill="#404040"><set attributeName="fill" to="#808080" begin="zoomminus.mouseover" end="zoomminus.mouseout"/></use>
    <path d="M-4,0h8" fill="none" stroke="white" stroke-width="1.5" pointer-events="none"/>
  </g>
  <g id="arrowUp" transform="translate(30 24)">
    <use xlink:href="#rim"/>
    <path pointer-events="none" fill="none" stroke="white" stroke-width="1.5" d="M0,-3.0v7 M-2.5,-0.5L0,-3.0L2.5,-0.5"/>
  </g>
  <g id="arrowRight" transform="rotate(90) translate(36 -43)">
    <use xlink:href="#rim"/>
    <path pointer-events="none" fill="none" stroke="white" stroke-width="1.5" d="M0,-3.0v7 M-2.5,-0.5L0,-3.0L2.5,-0.5"/>
  </g>
  <g id="arrowDown" transform="rotate(180) translate(-30 -48)">
    <use xlink:href="#rim"/>
    <path pointer-events="none" fill="none" stroke="white" stroke-width="1.5" d="M0,-3.0v7 M-2.5,-0.5L0,-3.0L2.5,-0.5"/>
  </g>
  <g id="arrowLeft" transform="rotate(270) translate(-36 17)">
    <use xlink:href="#rim"/>
    <path pointer-events="none" fill="none" stroke="white" stroke-width="1.5" d="M0,-3.0v7 M-2.5,-0.5L0,-3.0L2.5,-0.5"/>
  </g>
  <g id="resetDef">
    <use xlink:href="#rim2" fill="#404040"><set attributeName="fill" to="#808080" begin="reset.mouseover" end="reset.mouseout"/></use>
  </g>
</defs>
<script type="application/ecmascript">
var viewWidth = 1637;
var viewHeight = 360;
var sectionId = 'dynsection-88';
</script>
<script type="application/ecmascript" xlink:href="svg.min.js"/>
<svg id="graph" class="graph">
<g id="viewport">
<title>place_palm_trees</title>
<!-- Node1 -->
<g id="Node000001" class="node">
<title>Node1</title>
<g id="a_Node000001"><a xlink:title=" ">
<polygon fill="#999999" stroke="#666666" points="103,-94 0,-94 0,-75 103,-75 103,-94"/>
<text text-anchor="middle" x="51.5" y="-82" font-family="Helvetica,sans-Serif" font-size="10.00">place_palm_trees</text>
</a>
</g>
</g>
<!-- Node2 -->
<g id="Node000002" class="node">
<title>Node2</title>
<g id="a_Node000002"><a xlink:href="actors_8c.html#a91fb2e4e37e7c72fea918fe2c1bb4eaf" target="_top" xlink:title=" ">
<polygon fill="white" stroke="#666666" points="279,-225 139,-225 139,-206 279,-206 279,-225"/>
<text text-anchor="middle" x="209" y="-213" font-family="Helvetica,sans-Serif" font-size="10.00">add_actor_to_empty_slot</text>
</a>
</g>
</g>
<!-- Node1&#45;&gt;Node2 -->
<g id="edge1_Node000001_Node000002" class="edge">
<title>Node1&#45;&gt;Node2</title>
<g id="a_edge1_Node000001_Node000002"><a xlink:title=" ">
<path fill="none" stroke="#63b8ff" d="M63.93,-94.13C90.33,-116.37 155.77,-171.5 188.58,-199.14"/>
<polygon fill="#63b8ff" stroke="#63b8ff" points="186.65,-202.09 196.55,-205.85 191.16,-196.73 186.65,-202.09"/>
</a>
</g>
</g>
<!-- Node17 -->
<g id="Node000017" class="node">
<title>Node17</title>
<g id="a_Node000017"><a xlink:href="math__util_8c.html#a79fd07a0971ec96a3ff0801963a2fa7f" target="_top" xlink:title=" ">
<polygon fill="white" stroke="#666666" points="837,-169 773,-169 773,-150 837,-150 837,-169"/>
<text text-anchor="middle" x="805" y="-157" font-family="Helvetica,sans-Serif" font-size="10.00">vec3f_set</text>
</a>
</g>
</g>
<!-- Node1&#45;&gt;Node17 -->
<g id="edge32_Node000001_Node000017" class="edge">
<title>Node1&#45;&gt;Node17</title>
<g id="a_edge32_Node000001_Node000017"><a xlink:title=" ">
<path fill="none" stroke="#63b8ff" d="M99.95,-94.04C160.16,-105.3 267.34,-122.5 360,-122.5 360,-122.5 360,-122.5 485,-122.5 585.4,-122.5 702.4,-140.81 762.97,-151.67"/>
<polygon fill="#63b8ff" stroke="#63b8ff" points="762.43,-155.13 772.9,-153.47 763.68,-148.24 762.43,-155.13"/>
</a>
</g>
</g>
<!-- Node18 -->
<g id="Node000018" class="node">
<title>Node18</title>
<g id="a_Node000018"><a xlink:href="collision_8c.html#a365367628b7140a7a880beeecce9c305" target="_top" xlink:title=" ">
<polygon fill="white" stroke="#666666" points="674.5,-94 579.5,-94 579.5,-75 674.5,-75 674.5,-94"/>
<text text-anchor="middle" x="627" y="-82" font-family="Helvetica,sans-Serif" font-size="10.00">func_802ADDC8</text>
</a>
</g>
</g>
<!-- Node1&#45;&gt;Node18 -->
<g id="edge31_Node000001_Node000018" class="edge">
<title>Node1&#45;&gt;Node18</title>
<g id="a_edge31_Node000001_Node000018"><a xlink:title=" ">
<path fill="none" stroke="#63b8ff" d="M103.14,-84.5C209.85,-84.5 457.17,-84.5 569.13,-84.5"/>
<polygon fill="#63b8ff" stroke="#63b8ff" points="569.21,-88 579.21,-84.5 569.21,-81 569.21,-88"/>
</a>
</g>
</g>
<!-- Node25 -->
<g id="Node000025" class="node">
<title>Node25</title>
<g id="a_Node000025"><a xlink:href="actors_8c.html#a09d879c67b2c1430dd8ba2d5c9c136e1" target="_top" xlink:title=" ">
<polygon fill="white" stroke="#666666" points="255,-56 163,-56 163,-37 255,-37 255,-56"/>
<text text-anchor="middle" x="209" y="-44" font-family="Helvetica,sans-Serif" font-size="10.00">func_802976EC</text>
</a>
</g>
</g>
<!-- Node1&#45;&gt;Node25 -->
<g id="edge27_Node000001_Node000025" class="edge">
<title>Node1&#45;&gt;Node25</title>
<g id="a_edge27_Node000001_Node000025"><a xlink:title=" ">
<path fill="none" stroke="#63b8ff" d="M91.74,-74.91C112.26,-69.9 137.57,-63.71 159.33,-58.39"/>
<polygon fill="#63b8ff" stroke="#63b8ff" points="160.16,-61.79 169.04,-56.02 158.5,-54.99 160.16,-61.79"/>
</a>
</g>
</g>
<!-- Node29 -->
<g id="Node000029" class="node">
<title>Node29</title>
<g id="a_Node000029"><a xlink:href="math__util_8c.html#a9092c945c52b3a3481228b2724991e3c" target="_top" xlink:title=" ">
<polygon fill="white" stroke="#666666" points="241.5,-19 176.5,-19 176.5,0 241.5,0 241.5,-19"/>
<text text-anchor="middle" x="209" y="-7" font-family="Helvetica,sans-Serif" font-size="10.00">vec3s_set</text>
</a>
</g>
</g>
<!-- Node1&#45;&gt;Node29 -->
<g id="edge33_Node000001_Node000029" class="edge">
<title>Node1&#45;&gt;Node29</title>
<g id="a_edge33_Node000001_Node000029"><a xlink:title=" ">
<path fill="none" stroke="#63b8ff" d="M64.36,-74.84C80.38,-62.24 110.25,-40.3 139,-27.5 147.64,-23.65 157.26,-20.5 166.52,-17.97"/>
<polygon fill="#63b8ff" stroke="#63b8ff" points="167.52,-21.32 176.35,-15.46 165.8,-14.54 167.52,-21.32"/>
</a>
</g>
</g>
<!-- Node3 -->
<g id="Node000003" class="node">
<title>Node3</title>
<g id="a_Node000003"><a xlink:href="actors_8c.html#a39c023177b5a7686cdd1fc65b8b953e1" target="_top" xlink:title=" ">
<polygon fill="white" stroke="#666666" points="515,-225 453,-225 453,-206 515,-206 515,-225"/>
<text text-anchor="middle" x="484" y="-213" font-family="Helvetica,sans-Serif" font-size="10.00">actor_init</text>
</a>
</g>
</g>
<!-- Node2&#45;&gt;Node3 -->
<g id="edge2_Node000002_Node000003" class="edge">
<title>Node2&#45;&gt;Node3</title>
<g id="a_edge2_Node000002_Node000003"><a xlink:title=" ">
<path fill="none" stroke="#63b8ff" d="M279.24,-215.5C330.9,-215.5 399.7,-215.5 442.66,-215.5"/>
<polygon fill="#63b8ff" stroke="#63b8ff" points="442.74,-219 452.74,-215.5 442.74,-212 442.74,-219"/>
</a>
</g>
</g>
<!-- Node24 -->
<g id="Node000024" class="node">
<title>Node24</title>
<g id="a_Node000024"><a xlink:href="actors_8c.html#a0c9d11d8956bf92c32a5e9bafd7036e6" target="_top" xlink:title=" ">
<polygon fill="white" stroke="#666666" points="406.5,-288 315.5,-288 315.5,-269 406.5,-269 406.5,-288"/>
<text text-anchor="middle" x="361" y="-276" font-family="Helvetica,sans-Serif" font-size="10.00">func_8029E890</text>
</a>
</g>
</g>
<!-- Node2&#45;&gt;Node24 -->
<g id="edge23_Node000002_Node000024" class="edge">
<title>Node2&#45;&gt;Node24</title>
<g id="a_edge23_Node000002_Node000024"><a xlink:title=" ">
<path fill="none" stroke="#63b8ff" d="M232.78,-225.07C258,-235.66 298.86,-252.82 327.45,-264.83"/>
<polygon fill="#63b8ff" stroke="#63b8ff" points="326.43,-268.2 337,-268.84 329.14,-261.74 326.43,-268.2"/>
</a>
</g>
</g>
<!-- Node4 -->
<g id="Node000004" class="node">
<title>Node4</title>
<g id="a_Node000004"><a xlink:href="actors_8c.html#a1a9bccb586242555a9123ebd4ab70f2a" target="_top" xlink:title=" ">
<polygon fill="white" stroke="#666666" points="693,-292.5 561,-292.5 561,-262.5 693,-262.5 693,-292.5"/>
<text text-anchor="start" x="569" y="-280.5" font-family="Helvetica,sans-Serif" font-size="10.00">cleanup_red_and_green</text>
<text text-anchor="middle" x="627" y="-269.5" font-family="Helvetica,sans-Serif" font-size="10.00">_shells</text>
</a>
</g>
</g>
<!-- Node3&#45;&gt;Node4 -->
<g id="edge3_Node000003_Node000004" class="edge">
<title>Node3&#45;&gt;Node4</title>
<g id="a_edge3_Node000003_Node000004"><a xlink:title=" ">
<path fill="none" stroke="#63b8ff" d="M502.86,-225.13C518.09,-233.17 540.69,-244.71 561,-253.5 565.08,-255.27 569.35,-257.03 573.65,-258.74"/>
<polygon fill="#63b8ff" stroke="#63b8ff" points="572.49,-262.05 583.08,-262.41 575.03,-255.52 572.49,-262.05"/>
</a>
</g>
</g>
<!-- Node16 -->
<g id="Node000016" class="node">
<title>Node16</title>
<g id="a_Node000016"><a xlink:href="collision_8c.html#ad72fef3ffe32191d73b1822f512ebf3f" target="_top" xlink:title=" ">
<polygon fill="white" stroke="#666666" points="674.5,-170 579.5,-170 579.5,-151 674.5,-151 674.5,-170"/>
<text text-anchor="middle" x="627" y="-158" font-family="Helvetica,sans-Serif" font-size="10.00">func_802AAAAC</text>
</a>
</g>
</g>
<!-- Node3&#45;&gt;Node16 -->
<g id="edge15_Node000003_Node000016" class="edge">
<title>Node3&#45;&gt;Node16</title>
<g id="a_edge15_Node000003_Node000016"><a xlink:title=" ">
<path fill="none" stroke="#63b8ff" d="M503.08,-205.94C518.26,-198.16 540.67,-187.23 561,-179.5 566.99,-177.22 573.37,-175.06 579.7,-173.05"/>
<polygon fill="#63b8ff" stroke="#63b8ff" points="581.02,-176.31 589.56,-170.05 578.98,-169.62 581.02,-176.31"/>
</a>
</g>
</g>
<!-- Node3&#45;&gt;Node18 -->
<g id="edge17_Node000003_Node000018" class="edge">
<title>Node3&#45;&gt;Node18</title>
<g id="a_edge17_Node000003_Node000018"><a xlink:title=" ">
<path fill="none" stroke="#63b8ff" d="M494.73,-205.93C509.08,-191.87 536.84,-164.87 561,-142.5 576.29,-128.34 593.96,-112.62 607.01,-101.12"/>
<polygon fill="#63b8ff" stroke="#63b8ff" points="609.65,-103.46 614.85,-94.23 605.03,-98.2 609.65,-103.46"/>
</a>
</g>
</g>
<!-- Node22 -->
<g id="Node000022" class="node">
<title>Node22</title>
<g id="a_Node000022"><a xlink:href="math__util_8c.html#af7b470ed76fce07b8042a47c96e5690b" target="_top" xlink:title=" ">
<polygon fill="white" stroke="#666666" points="680.5,-244 573.5,-244 573.5,-225 680.5,-225 680.5,-244"/>
<text text-anchor="middle" x="627" y="-232" font-family="Helvetica,sans-Serif" font-size="10.00">vec3f_copy_return</text>
</a>
</g>
</g>
<!-- Node3&#45;&gt;Node22 -->
<g id="edge21_Node000003_Node000022" class="edge">
<title>Node3&#45;&gt;Node22</title>
<g id="a_edge21_Node000003_Node000022"><a xlink:title=" ">
<path fill="none" stroke="#63b8ff" d="M515.25,-219.58C529.25,-221.46 546.45,-223.78 563.07,-226.02"/>
<polygon fill="#63b8ff" stroke="#63b8ff" points="562.94,-229.53 573.31,-227.4 563.87,-222.6 562.94,-229.53"/>
</a>
</g>
</g>
<!-- Node23 -->
<g id="Node000023" class="node">
<title>Node23</title>
<g id="a_Node000023"><a xlink:href="math__util_8c.html#a0e270ee67600c8c9c2f140c647d008a1" target="_top" xlink:title=" ">
<polygon fill="white" stroke="#666666" points="664,-207 590,-207 590,-188 664,-188 664,-207"/>
<text text-anchor="middle" x="627" y="-195" font-family="Helvetica,sans-Serif" font-size="10.00">vec3s_copy</text>
</a>
</g>
</g>
<!-- Node3&#45;&gt;Node23 -->
<g id="edge22_Node000003_Node000023" class="edge">
<title>Node3&#45;&gt;Node23</title>
<g id="a_edge22_Node000003_Node000023"><a xlink:title=" ">
<path fill="none" stroke="#63b8ff" d="M515.25,-211.64C534.02,-209.24 558.53,-206.11 579.71,-203.41"/>
<polygon fill="#63b8ff" stroke="#63b8ff" points="580.33,-206.86 589.8,-202.12 579.44,-199.92 580.33,-206.86"/>
</a>
</g>
</g>
<!-- Node5 -->
<g id="Node000005" class="node">
<title>Node5</title>
<g id="a_Node000005"><a xlink:href="actors_8c.html#a694ec6ef7548b8618aeb35c038d3a9b9" target="_top" xlink:title=" ">
<polygon fill="white" stroke="#666666" points="846.5,-284 763.5,-284 763.5,-265 846.5,-265 846.5,-284"/>
<text text-anchor="middle" x="805" y="-272" font-family="Helvetica,sans-Serif" font-size="10.00">destroy_actor</text>
</a>
</g>
</g>
<!-- Node4&#45;&gt;Node5 -->
<g id="edge4_Node000004_Node000005" class="edge">
<title>Node4&#45;&gt;Node5</title>
<g id="a_edge4_Node000004_Node000005"><a xlink:title=" ">
<path fill="none" stroke="#63b8ff" d="M693.04,-276.39C712.95,-276.05 734.55,-275.68 753.35,-275.36"/>
<polygon fill="#63b8ff" stroke="#63b8ff" points="753.54,-278.86 763.48,-275.19 753.42,-271.86 753.54,-278.86"/>
</a>
</g>
</g>
<!-- Node15 -->
<g id="Node000015" class="node">
<title>Node15</title>
<g id="a_Node000015"><a xlink:href="code__80005FD0_8c.html#acb7b3d384c78d219f4b7040e78f6a2f2" target="_top" xlink:title=" ">
<polygon fill="white" stroke="#666666" points="881,-332.5 729,-332.5 729,-302.5 881,-302.5 881,-332.5"/>
<text text-anchor="start" x="737" y="-320.5" font-family="Helvetica,sans-Serif" font-size="10.00">remove_actor_in_unexpired</text>
<text text-anchor="middle" x="805" y="-309.5" font-family="Helvetica,sans-Serif" font-size="10.00">_actor_list</text>
</a>
</g>
</g>
<!-- Node4&#45;&gt;Node15 -->
<g id="edge14_Node000004_Node000015" class="edge">
<title>Node4&#45;&gt;Node15</title>
<g id="a_edge14_Node000004_Node000015"><a xlink:title=" ">
<path fill="none" stroke="#63b8ff" d="M693.04,-292.28C704.32,-294.85 716.15,-297.53 727.7,-300.16"/>
<polygon fill="#63b8ff" stroke="#63b8ff" points="727.23,-303.64 737.76,-302.45 728.79,-296.82 727.23,-303.64"/>
</a>
</g>
</g>
<!-- Node6 -->
<g id="Node000006" class="node">
<title>Node6</title>
<g id="a_Node000006"><a xlink:href="actors_8c.html#ad5a56c8f7eaf719223099cce9e38ec9f" target="_top" xlink:title=" ">
<polygon fill="white" stroke="#666666" points="1068,-327 917,-327 917,-308 1068,-308 1068,-327"/>
<text text-anchor="middle" x="992.5" y="-315" font-family="Helvetica,sans-Serif" font-size="10.00">play_sound_before_destroy</text>
</a>
</g>
</g>
<!-- Node5&#45;&gt;Node6 -->
<g id="edge5_Node000005_Node000006" class="edge">
<title>Node5&#45;&gt;Node6</title>
<g id="a_edge5_Node000005_Node000006"><a xlink:title=" ">
<path fill="none" stroke="#63b8ff" d="M846.71,-283.94C874.18,-290.31 910.67,-298.76 940.14,-305.59"/>
<polygon fill="#63b8ff" stroke="#63b8ff" points="939.71,-309.09 950.25,-307.94 941.29,-302.27 939.71,-309.09"/>
</a>
</g>
</g>
<!-- Node7 -->
<g id="Node000007" class="node">
<title>Node7</title>
<g id="a_Node000007"><a xlink:href="external_8c.html#ae72057869772019e4464c87d4e16c682" target="_top" xlink:title=" ">
<polygon fill="white" stroke="#666666" points="1196,-327 1104,-327 1104,-308 1196,-308 1196,-327"/>
<text text-anchor="middle" x="1150" y="-315" font-family="Helvetica,sans-Serif" font-size="10.00">func_800C99E0</text>
</a>
</g>
</g>
<!-- Node6&#45;&gt;Node7 -->
<g id="edge6_Node000006_Node000007" class="edge">
<title>Node6&#45;&gt;Node7</title>
<g id="a_edge6_Node000006_Node000007"><a xlink:title=" ">
<path fill="none" stroke="#63b8ff" d="M1068.06,-317.5C1076.61,-317.5 1085.21,-317.5 1093.45,-317.5"/>
<polygon fill="#63b8ff" stroke="#63b8ff" points="1093.66,-321 1103.66,-317.5 1093.66,-314 1093.66,-321"/>
</a>
</g>
</g>
<!-- Node8 -->
<g id="Node000008" class="node">
<title>Node8</title>
<g id="a_Node000008"><a xlink:href="external_8c.html#aeb87c527482a244173df36a1f3d4f446" target="_top" xlink:title=" ">
<polygon fill="white" stroke="#666666" points="1324,-346 1232,-346 1232,-327 1324,-327 1324,-346"/>
<text text-anchor="middle" x="1278" y="-334" font-family="Helvetica,sans-Serif" font-size="10.00">func_800C21E8</text>
</a>
</g>
</g>
<!-- Node7&#45;&gt;Node8 -->
<g id="edge7_Node000007_Node000008" class="edge">
<title>Node7&#45;&gt;Node8</title>
<g id="a_edge7_Node000007_Node000008"><a xlink:title=" ">
<path fill="none" stroke="#63b8ff" d="M1196.13,-324.31C1204.46,-325.56 1213.23,-326.88 1221.81,-328.18"/>
<polygon fill="#63b8ff" stroke="#63b8ff" points="1221.35,-331.65 1231.76,-329.68 1222.39,-324.73 1221.35,-331.65"/>
</a>
</g>
</g>
<!-- Node9 -->
<g id="Node000009" class="node">
<title>Node9</title>
<g id="a_Node000009"><a xlink:href="external_8c.html#a028d40421b90c38f68ebfd5acc626f2e" target="_top" xlink:title=" ">
<polygon fill="white" stroke="#666666" points="1324,-309 1232,-309 1232,-290 1324,-290 1324,-309"/>
<text text-anchor="middle" x="1278" y="-297" font-family="Helvetica,sans-Serif" font-size="10.00">func_800C5578</text>
</a>
</g>
</g>
<!-- Node7&#45;&gt;Node9 -->
<g id="edge8_Node000007_Node000009" class="edge">
<title>Node7&#45;&gt;Node9</title>
<g id="a_edge8_Node000007_Node000009"><a xlink:title=" ">
<path fill="none" stroke="#63b8ff" d="M1196.13,-311.05C1204.46,-309.86 1213.23,-308.61 1221.81,-307.38"/>
<polygon fill="#63b8ff" stroke="#63b8ff" points="1222.35,-310.84 1231.76,-305.96 1221.36,-303.91 1222.35,-310.84"/>
</a>
</g>
</g>
<!-- Node10 -->
<g id="Node000010" class="node">
<title>Node10</title>
<g id="a_Node000010"><a xlink:href="external_8c.html#ac0fb767de7e14a03f1bcfa53f0abd23b" target="_top" xlink:title=" ">
<polygon fill="white" stroke="#666666" points="1500,-346 1360,-346 1360,-327 1500,-327 1500,-346"/>
<text text-anchor="middle" x="1430" y="-334" font-family="Helvetica,sans-Serif" font-size="10.00">delete_sound_from_bank</text>
</a>
</g>
</g>
<!-- Node9&#45;&gt;Node10 -->
<g id="edge9_Node000009_Node000010" class="edge">
<title>Node9&#45;&gt;Node10</title>
<g id="a_edge9_Node000009_Node000010"><a xlink:title=" ">
<path fill="none" stroke="#63b8ff" d="M1317.63,-309.03C1336.8,-313.76 1360.16,-319.52 1380.52,-324.54"/>
<polygon fill="#63b8ff" stroke="#63b8ff" points="1379.69,-327.94 1390.24,-326.94 1381.37,-321.15 1379.69,-327.94"/>
</a>
</g>
</g>
<!-- Node12 -->
<g id="Node000012" class="node">
<title>Node12</title>
<g id="a_Node000012"><a xlink:href="external_8c.html#ab83bd36e63f0f1baddcb2482b5ad31b0" target="_top" xlink:title=" ">
<polygon fill="white" stroke="#666666" points="1476.5,-309 1383.5,-309 1383.5,-290 1476.5,-290 1476.5,-309"/>
<text text-anchor="middle" x="1430" y="-297" font-family="Helvetica,sans-Serif" font-size="10.00">func_800C41CC</text>
</a>
</g>
</g>
<!-- Node9&#45;&gt;Node12 -->
<g id="edge11_Node000009_Node000012" class="edge">
<title>Node9&#45;&gt;Node12</title>
<g id="a_edge11_Node000009_Node000012"><a xlink:title=" ">
<path fill="none" stroke="#63b8ff" d="M1324,-299.5C1339.37,-299.5 1356.74,-299.5 1372.86,-299.5"/>
<polygon fill="#63b8ff" stroke="#63b8ff" points="1373.25,-303 1383.25,-299.5 1373.25,-296 1373.25,-303"/>
</a>
</g>
</g>
<!-- Node13 -->
<g id="Node000013" class="node">
<title>Node13</title>
<g id="a_Node000013"><a xlink:href="port__eu_8c.html#aa89dfaecca46c6d071f08c1898d1f7c9" target="_top" xlink:title=" ">
<polygon fill="white" stroke="#666666" points="1476.5,-272 1383.5,-272 1383.5,-253 1476.5,-253 1476.5,-272"/>
<text text-anchor="middle" x="1430" y="-260" font-family="Helvetica,sans-Serif" font-size="10.00">func_800CBBE8</text>
</a>
</g>
</g>
<!-- Node9&#45;&gt;Node13 -->
<g id="edge12_Node000009_Node000013" class="edge">
<title>Node9&#45;&gt;Node13</title>
<g id="a_edge12_Node000009_Node000013"><a xlink:title=" ">
<path fill="none" stroke="#63b8ff" d="M1317.63,-289.97C1336.8,-285.24 1360.16,-279.48 1380.52,-274.46"/>
<polygon fill="#63b8ff" stroke="#63b8ff" points="1381.37,-277.85 1390.24,-272.06 1379.69,-271.06 1381.37,-277.85"/>
</a>
</g>
</g>
<!-- Node11 -->
<g id="Node000011" class="node">
<title>Node11</title>
<g id="a_Node000011"><a xlink:href="external_8c.html#a358ac55e8ab5262dcae8037334be06d7" target="_top" xlink:title=" ">
<polygon fill="white" stroke="#666666" points="1628.5,-346 1536.5,-346 1536.5,-327 1628.5,-327 1628.5,-346"/>
<text text-anchor="middle" x="1582.5" y="-334" font-family="Helvetica,sans-Serif" font-size="10.00">func_800C40F0</text>
</a>
</g>
</g>
<!-- Node10&#45;&gt;Node11 -->
<g id="edge10_Node000010_Node000011" class="edge">
<title>Node10&#45;&gt;Node11</title>
<g id="a_edge10_Node000010_Node000011"><a xlink:title=" ">
<path fill="none" stroke="#63b8ff" d="M1500.08,-336.5C1508.87,-336.5 1517.78,-336.5 1526.31,-336.5"/>
<polygon fill="#63b8ff" stroke="#63b8ff" points="1526.5,-340 1536.5,-336.5 1526.5,-333 1526.5,-340"/>
</a>
</g>
</g>
<!-- Node14 -->
<g id="Node000014" class="node">
<title>Node14</title>
<g id="a_Node000014"><a xlink:href="port__eu_8c.html#af361a20d2e08f30c53a237ca481ff734" target="_top" xlink:title=" ">
<polygon fill="white" stroke="#666666" points="1629,-272 1536,-272 1536,-253 1629,-253 1629,-272"/>
<text text-anchor="middle" x="1582.5" y="-260" font-family="Helvetica,sans-Serif" font-size="10.00">func_800CBB48</text>
</a>
</g>
</g>
<!-- Node13&#45;&gt;Node14 -->
<g id="edge13_Node000013_Node000014" class="edge">
<title>Node13&#45;&gt;Node14</title>
<g id="a_edge13_Node000013_Node000014"><a xlink:title=" ">
<path fill="none" stroke="#63b8ff" d="M1476.56,-262.5C1491.96,-262.5 1509.34,-262.5 1525.46,-262.5"/>
<polygon fill="#63b8ff" stroke="#63b8ff" points="1525.83,-266 1535.83,-262.5 1525.83,-259 1525.83,-266"/>
</a>
</g>
</g>
<!-- Node16&#45;&gt;Node17 -->
<g id="edge16_Node000016_Node000017" class="edge">
<title>Node16&#45;&gt;Node17</title>
<g id="a_edge16_Node000016_Node000017"><a xlink:title=" ">
<path fill="none" stroke="#63b8ff" d="M674.7,-160.23C702.12,-160.08 736.46,-159.88 762.86,-159.73"/>
<polygon fill="#63b8ff" stroke="#63b8ff" points="762.94,-163.23 772.92,-159.68 762.9,-156.23 762.94,-163.23"/>
</a>
</g>
</g>
<!-- Node19 -->
<g id="Node000019" class="node">
<title>Node19</title>
<g id="a_Node000019"><a xlink:href="collision_8c.html#afce45acb8da354da0a5b501003be1aef" target="_top" xlink:title=" ">
<polygon fill="white" stroke="#666666" points="851.5,-57 758.5,-57 758.5,-38 851.5,-38 851.5,-57"/>
<text text-anchor="middle" x="805" y="-45" font-family="Helvetica,sans-Serif" font-size="10.00">func_802AAE4C</text>
</a>
</g>
</g>
<!-- Node18&#45;&gt;Node19 -->
<g id="edge18_Node000018_Node000019" class="edge">
<title>Node18&#45;&gt;Node19</title>
<g id="a_edge18_Node000018_Node000019"><a xlink:title=" ">
<path fill="none" stroke="#63b8ff" d="M673.32,-74.97C696.33,-70.14 724.47,-64.22 748.74,-59.12"/>
<polygon fill="#63b8ff" stroke="#63b8ff" points="749.46,-62.54 758.52,-57.06 748.02,-55.69 749.46,-62.54"/>
</a>
</g>
</g>
<!-- Node20 -->
<g id="Node000020" class="node">
<title>Node20</title>
<g id="a_Node000020"><a xlink:href="collision_8c.html#adcc608ea0eae3bf9a27ab79ec64b4899" target="_top" xlink:title=" ">
<polygon fill="white" stroke="#666666" points="851,-131 759,-131 759,-112 851,-112 851,-131"/>
<text text-anchor="middle" x="805" y="-119" font-family="Helvetica,sans-Serif" font-size="10.00">func_802AB288</text>
</a>
</g>
</g>
<!-- Node18&#45;&gt;Node20 -->
<g id="edge19_Node000018_Node000020" class="edge">
<title>Node18&#45;&gt;Node20</title>
<g id="a_edge19_Node000018_Node000020"><a xlink:title=" ">
<path fill="none" stroke="#63b8ff" d="M673.32,-94.03C696.42,-98.88 724.69,-104.83 749.02,-109.94"/>
<polygon fill="#63b8ff" stroke="#63b8ff" points="748.32,-113.37 758.83,-112 749.76,-106.52 748.32,-113.37"/>
</a>
</g>
</g>
<!-- Node21 -->
<g id="Node000021" class="node">
<title>Node21</title>
<g id="a_Node000021"><a xlink:href="collision_8c.html#ab440aa3fc960b7b4b5ad8e4bcaa06b00" target="_top" xlink:title=" ">
<polygon fill="white" stroke="#666666" points="851.5,-94 758.5,-94 758.5,-75 851.5,-75 851.5,-94"/>
<text text-anchor="middle" x="805" y="-82" font-family="Helvetica,sans-Serif" font-size="10.00">func_802AB6C4</text>
</a>
</g>
</g>
<!-- Node18&#45;&gt;Node21 -->
<g id="edge20_Node000018_Node000021" class="edge">
<title>Node18&#45;&gt;Node21</title>
<g id="a_edge20_Node000018_Node000021"><a xlink:title=" ">
<path fill="none" stroke="#63b8ff" d="M674.7,-84.5C697.24,-84.5 724.44,-84.5 748.07,-84.5"/>
<polygon fill="#63b8ff" stroke="#63b8ff" points="748.3,-88 758.3,-84.5 748.3,-81 748.3,-88"/>
</a>
</g>
</g>
<!-- Node24&#45;&gt;Node3 -->
<g id="edge24_Node000024_Node000003" class="edge">
<title>Node24&#45;&gt;Node3</title>
<g id="a_edge24_Node000024_Node000003"><a xlink:title=" ">
<path fill="none" stroke="#63b8ff" d="M380.38,-268.93C400.37,-258.52 432.53,-241.78 455.52,-229.81"/>
<polygon fill="#63b8ff" stroke="#63b8ff" points="457.2,-232.88 464.45,-225.16 453.96,-226.67 457.2,-232.88"/>
</a>
</g>
</g>
<!-- Node24&#45;&gt;Node6 -->
<g id="edge25_Node000024_Node000006" class="edge">
<title>Node24&#45;&gt;Node6</title>
<g id="a_edge25_Node000024_Node000006"><a xlink:title=" ">
<path fill="none" stroke="#63b8ff" d="M385.36,-288.05C401.34,-294.21 423.14,-301.91 443,-306.5 633.26,-350.51 686.83,-362.34 881,-341.5 902.87,-339.15 926.77,-334.26 946.73,-329.5"/>
<polygon fill="#63b8ff" stroke="#63b8ff" points="947.6,-332.89 956.48,-327.11 945.94,-326.09 947.6,-332.89"/>
</a>
</g>
</g>
<!-- Node24&#45;&gt;Node15 -->
<g id="edge26_Node000024_Node000015" class="edge">
<title>Node24&#45;&gt;Node15</title>
<g id="a_edge26_Node000024_Node000015"><a xlink:title=" ">
<path fill="none" stroke="#63b8ff" d="M406.59,-284.29C446.88,-289.37 507.83,-296.68 561,-301.5 613.37,-306.25 672.21,-310.16 718.87,-312.93"/>
<polygon fill="#63b8ff" stroke="#63b8ff" points="718.75,-316.42 728.94,-313.52 719.16,-309.44 718.75,-316.42"/>
</a>
</g>
</g>
<!-- Node26 -->
<g id="Node000026" class="node">
<title>Node26</title>
<g id="a_Node000026"><a xlink:href="math__util_8c.html#aaa39a297477f56051975259f4bddd829" target="_top" xlink:title=" ">
<polygon fill="white" stroke="#666666" points="386,-56 336,-56 336,-37 386,-37 386,-56"/>
<text text-anchor="middle" x="361" y="-44" font-family="Helvetica,sans-Serif" font-size="10.00">atan2s</text>
</a>
</g>
</g>
<!-- Node25&#45;&gt;Node26 -->
<g id="edge28_Node000025_Node000026" class="edge">
<title>Node25&#45;&gt;Node26</title>
<g id="a_edge28_Node000025_Node000026"><a xlink:title=" ">
<path fill="none" stroke="#63b8ff" d="M255,-46.5C277.74,-46.5 304.88,-46.5 325.87,-46.5"/>
<polygon fill="#63b8ff" stroke="#63b8ff" points="325.94,-50 335.94,-46.5 325.94,-43 325.94,-50"/>
</a>
</g>
</g>
<!-- Node28 -->
<g id="Node000028" class="node">
<title>Node28</title>
<g id="a_Node000028"><a xlink:href="actors_8c.html#a6fd7dc3bc34357287535b6f06ab7d85c" target="_top" xlink:title=" ">
<polygon fill="white" stroke="#666666" points="407,-19 315,-19 315,0 407,0 407,-19"/>
<text text-anchor="middle" x="361" y="-7" font-family="Helvetica,sans-Serif" font-size="10.00">func_802976D8</text>
</a>
</g>
</g>
<!-- Node25&#45;&gt;Node28 -->
<g id="edge30_Node000025_Node000028" class="edge">
<title>Node25&#45;&gt;Node28</title>
<g id="a_edge30_Node000025_Node000028"><a xlink:title=" ">
<path fill="none" stroke="#63b8ff" d="M248.63,-36.97C267.8,-32.24 291.16,-26.48 311.52,-21.46"/>
<polygon fill="#63b8ff" stroke="#63b8ff" points="312.37,-24.85 321.24,-19.06 310.69,-18.06 312.37,-24.85"/>
</a>
</g>
</g>
<!-- Node27 -->
<g id="Node000027" class="node">
<title>Node27</title>
<g id="a_Node000027"><a xlink:href="math__util_8c.html#a0273b0ea0783a06996c28669a7438ed9" target="_top" xlink:title=" ">
<polygon fill="white" stroke="#666666" points="525,-56 443,-56 443,-37 525,-37 525,-56"/>
<text text-anchor="middle" x="484" y="-44" font-family="Helvetica,sans-Serif" font-size="10.00">atan2_lookup</text>
</a>
</g>
</g>
<!-- Node26&#45;&gt;Node27 -->
<g id="edge29_Node000026_Node000027" class="edge">
<title>Node26&#45;&gt;Node27</title>
<g id="a_edge29_Node000026_Node000027"><a xlink:title=" ">
<path fill="none" stroke="#63b8ff" d="M386.2,-46.5C399.43,-46.5 416.35,-46.5 432.33,-46.5"/>
<polygon fill="#63b8ff" stroke="#63b8ff" points="432.65,-50 442.65,-46.5 432.65,-43 432.65,-50"/>
</a>
</g>
</g>
</g>
</svg>

<g id="navigator" transform="translate(0 0)" fill="#404254">
  <rect fill="#f2f5e9" fill-opacity="0.5" stroke="#606060" stroke-width=".5" x="0" y="0" width="60" height="60"/>
  <use id="zoomplus" xlink:href="#zoomPlus" x="17" y="9" onmousedown="handleZoom(evt,'in')"/>
  <use id="zoomminus" xlink:href="#zoomMin" x="42" y="9" onmousedown="handleZoom(evt,'out')"/>
  <use id="reset" xlink:href="#resetDef" x="30" y="36" onmousedown="handleReset()"/>
   <use id="arrowup" xlink:href="#arrowUp" x="0" y="0" onmousedown="handlePan(0,-1)"/>
  <use id="arrowright" xlink:href="#arrowRight" x="0" y="0" onmousedown="handlePan(1,0)"/>
  <use id="arrowdown" xlink:href="#arrowDown" x="0" y="0" onmousedown="handlePan(0,1)"/>
  <use id="arrowleft" xlink:href="#arrowLeft" x="0" y="0" onmousedown="handlePan(-1,0)"/>
</g>
<svg viewBox="0 0 15 15" width="100%" height="30px" preserveAspectRatio="xMaxYMin meet">
 <g id="arrow_out" transform="scale(0.3 0.3)">
  <a xlink:href="actors_8h_ab3baf99245898ce2d23c039c198e5213_cgraph_org.svg" target="_base">
   <rect id="button" ry="5" rx="5" y="6" x="6" height="38" width="38"
        fill="#f2f5e9" fill-opacity="0.5" stroke="#606060" stroke-width="1.0"/>
   <path id="arrow"
     d="M 11.500037,31.436501 C 11.940474,20.09759 22.043105,11.32322 32.158766,21.979434 L 37.068811,17.246167 C 37.068811,17.246167 37.088388,32 37.088388,32 L 22.160133,31.978069 C 22.160133,31.978069 26.997745,27.140456 26.997745,27.140456 C 18.528582,18.264221 13.291696,25.230495 11.500037,31.436501 z"
     style="fill:#404040;"/>
  </a>
 </g>
</svg>

<style type='text/css'>
<![CDATA[
[data-mouse-over-selected='false'] { opacity: 0.7; }
[data-mouse-over-selected='true']  { opacity: 1.0; }
]]>
</style>
<script type="application/ecmascript"><![CDATA[
document.addEventListener('DOMContentLoaded', (event) => {
  highlightEdges();
  highlightAdjacentNodes();
});
]]></script>
</svg>
