<?xml version="1.0" encoding="UTF-8" standalone="no"?>
<!DOCTYPE svg PUBLIC "-//W3C//DTD SVG 1.1//EN"
 "http://www.w3.org/Graphics/SVG/1.1/DTD/svg11.dtd">
<!-- Generated by graphviz version 2.43.0 (0)
 -->
<!-- Title: func_8029ABD4 Pages: 1 -->
<!--zoomable 321 -->

<svg id="main" version="1.1" xmlns="http://www.w3.org/2000/svg" xmlns:xlink="http://www.w3.org/1999/xlink" xml:space="preserve" onload="init(evt)">
<style type="text/css"><![CDATA[
.node, .edge {opacity: 0.7;}
.node.selected, .edge.selected {opacity: 1;}
.edge:hover path { stroke: red; }
.edge:hover polygon { stroke: red; fill: red; }
]]></style>

<defs>
  <circle id="rim" cx="0" cy="0" r="7"/>
  <circle id="rim2" cx="0" cy="0" r="3.5"/>
  <g id="zoomPlus">
    <use xlink:href="#rim" fill="#404040"><set attributeName="fill" to="#808080" begin="zoomplus.mouseover" end="zoomplus.mouseout"/></use>
    <path d="M-4,0h8M0,-4v8" fill="none" stroke="white" stroke-width="1.5" pointer-events="none"/>
  </g>
  <g id="zoomMin">
    <use xlink:href="#rim" fill="#404040"><set attributeName="fill" to="#808080" begin="zoomminus.mouseover" end="zoomminus.mouseout"/></use>
    <path d="M-4,0h8" fill="none" stroke="white" stroke-width="1.5" pointer-events="none"/>
  </g>
  <g id="arrowUp" transform="translate(30 24)">
    <use xlink:href="#rim"/>
    <path pointer-events="none" fill="none" stroke="white" stroke-width="1.5" d="M0,-3.0v7 M-2.5,-0.5L0,-3.0L2.5,-0.5"/>
  </g>
  <g id="arrowRight" transform="rotate(90) translate(36 -43)">
    <use xlink:href="#rim"/>
    <path pointer-events="none" fill="none" stroke="white" stroke-width="1.5" d="M0,-3.0v7 M-2.5,-0.5L0,-3.0L2.5,-0.5"/>
  </g>
  <g id="arrowDown" transform="rotate(180) translate(-30 -48)">
    <use xlink:href="#rim"/>
    <path pointer-events="none" fill="none" stroke="white" stroke-width="1.5" d="M0,-3.0v7 M-2.5,-0.5L0,-3.0L2.5,-0.5"/>
  </g>
  <g id="arrowLeft" transform="rotate(270) translate(-36 17)">
    <use xlink:href="#rim"/>
    <path pointer-events="none" fill="none" stroke="white" stroke-width="1.5" d="M0,-3.0v7 M-2.5,-0.5L0,-3.0L2.5,-0.5"/>
  </g>
  <g id="resetDef">
    <use xlink:href="#rim2" fill="#404040"><set attributeName="fill" to="#808080" begin="reset.mouseover" end="reset.mouseout"/></use>
  </g>
</defs>
<script type="application/ecmascript">
var viewWidth = 1755;
var viewHeight = 321;
var sectionId = 'dynsection-47';
</script>
<script type="application/ecmascript" xlink:href="svg.min.js"/>
<svg id="graph" class="graph">
<g id="viewport">
<title>func_8029ABD4</title>
<!-- Node1 -->
<g id="Node000001" class="node">
<title>Node1</title>
<g id="a_Node000001"><a xlink:title=" ">
<polygon fill="#999999" stroke="#666666" points="94,-57 0,-57 0,-38 94,-38 94,-57"/>
<text text-anchor="middle" x="47" y="-45" font-family="Helvetica,sans-Serif" font-size="10.00">func_8029ABD4</text>
</a>
</g>
</g>
<!-- Node2 -->
<g id="Node000002" class="node">
<title>Node2</title>
<g id="a_Node000002"><a xlink:href="actors_8c.html#a22b9f8384d00a6e1d5d9a61a67be639d" target="_top" xlink:title=" ">
<polygon fill="white" stroke="#666666" points="242,-62.5 130,-62.5 130,-32.5 242,-32.5 242,-62.5"/>
<text text-anchor="start" x="138" y="-50.5" font-family="Helvetica,sans-Serif" font-size="10.00">allocate_actor_with</text>
<text text-anchor="middle" x="186" y="-39.5" font-family="Helvetica,sans-Serif" font-size="10.00">_new_position</text>
</a>
</g>
</g>
<!-- Node1&#45;&gt;Node2 -->
<g id="edge1_Node000001_Node000002" class="edge">
<title>Node1&#45;&gt;Node2</title>
<g id="a_edge1_Node000001_Node000002"><a xlink:title=" ">
<path fill="none" stroke="#63b8ff" d="M94,-47.5C102.27,-47.5 111.03,-47.5 119.72,-47.5"/>
<polygon fill="#63b8ff" stroke="#63b8ff" points="119.86,-51 129.86,-47.5 119.86,-44 119.86,-51"/>
</a>
</g>
</g>
<!-- Node3 -->
<g id="Node000003" class="node">
<title>Node3</title>
<g id="a_Node000003"><a xlink:href="actors_8c.html#a91fb2e4e37e7c72fea918fe2c1bb4eaf" target="_top" xlink:title=" ">
<polygon fill="white" stroke="#666666" points="418,-190 278,-190 278,-171 418,-171 418,-190"/>
<text text-anchor="middle" x="348" y="-178" font-family="Helvetica,sans-Serif" font-size="10.00">add_actor_to_empty_slot</text>
</a>
</g>
</g>
<!-- Node2&#45;&gt;Node3 -->
<g id="edge2_Node000002_Node000003" class="edge">
<title>Node2&#45;&gt;Node3</title>
<g id="a_edge2_Node000002_Node000003"><a xlink:title=" ">
<path fill="none" stroke="#63b8ff" d="M205.35,-62.76C235.67,-87.95 295.94,-138.05 327.18,-164.03"/>
<polygon fill="#63b8ff" stroke="#63b8ff" points="325.25,-166.97 335.18,-170.67 329.73,-161.59 325.25,-166.97"/>
</a>
</g>
</g>
<!-- Node18 -->
<g id="Node000018" class="node">
<title>Node18</title>
<g id="a_Node000018"><a xlink:href="math__util_8c.html#a79fd07a0971ec96a3ff0801963a2fa7f" target="_top" xlink:title=" ">
<polygon fill="white" stroke="#666666" points="955,-76 891,-76 891,-57 955,-57 955,-76"/>
<text text-anchor="middle" x="923" y="-64" font-family="Helvetica,sans-Serif" font-size="10.00">vec3f_set</text>
</a>
</g>
</g>
<!-- Node2&#45;&gt;Node18 -->
<g id="edge28_Node000002_Node000018" class="edge">
<title>Node2&#45;&gt;Node18</title>
<g id="a_edge28_Node000002_Node000018"><a xlink:title=" ">
<path fill="none" stroke="#63b8ff" d="M242.14,-47.5C304.4,-47.5 408.73,-47.5 498.5,-47.5 498.5,-47.5 498.5,-47.5 613,-47.5 709.08,-47.5 821.65,-56.77 880.83,-62.36"/>
<polygon fill="#63b8ff" stroke="#63b8ff" points="880.61,-65.85 890.9,-63.32 881.28,-58.88 880.61,-65.85"/>
</a>
</g>
</g>
<!-- Node26 -->
<g id="Node000026" class="node">
<title>Node26</title>
<g id="a_Node000026"><a xlink:href="math__util_8c.html#a9092c945c52b3a3481228b2724991e3c" target="_top" xlink:title=" ">
<polygon fill="white" stroke="#666666" points="380.5,-19 315.5,-19 315.5,0 380.5,0 380.5,-19"/>
<text text-anchor="middle" x="348" y="-7" font-family="Helvetica,sans-Serif" font-size="10.00">vec3s_set</text>
</a>
</g>
</g>
<!-- Node2&#45;&gt;Node26 -->
<g id="edge29_Node000002_Node000026" class="edge">
<title>Node2&#45;&gt;Node26</title>
<g id="a_edge29_Node000002_Node000026"><a xlink:title=" ">
<path fill="none" stroke="#63b8ff" d="M242.06,-34.42C262.75,-29.51 285.91,-24.01 305.2,-19.43"/>
<polygon fill="#63b8ff" stroke="#63b8ff" points="306.27,-22.77 315.19,-17.06 304.65,-15.96 306.27,-22.77"/>
</a>
</g>
</g>
<!-- Node4 -->
<g id="Node000004" class="node">
<title>Node4</title>
<g id="a_Node000004"><a xlink:href="actors_8c.html#a39c023177b5a7686cdd1fc65b8b953e1" target="_top" xlink:title=" ">
<polygon fill="white" stroke="#666666" points="643,-190 581,-190 581,-171 643,-171 643,-190"/>
<text text-anchor="middle" x="612" y="-178" font-family="Helvetica,sans-Serif" font-size="10.00">actor_init</text>
</a>
</g>
</g>
<!-- Node3&#45;&gt;Node4 -->
<g id="edge3_Node000003_Node000004" class="edge">
<title>Node3&#45;&gt;Node4</title>
<g id="a_edge3_Node000003_Node000004"><a xlink:title=" ">
<path fill="none" stroke="#63b8ff" d="M418.18,-180.5C466.85,-180.5 530.3,-180.5 570.86,-180.5"/>
<polygon fill="#63b8ff" stroke="#63b8ff" points="570.9,-184 580.9,-180.5 570.9,-177 570.9,-184"/>
</a>
</g>
</g>
<!-- Node25 -->
<g id="Node000025" class="node">
<title>Node25</title>
<g id="a_Node000025"><a xlink:href="actors_8c.html#a0c9d11d8956bf92c32a5e9bafd7036e6" target="_top" xlink:title=" ">
<polygon fill="white" stroke="#666666" points="545,-271 454,-271 454,-252 545,-252 545,-271"/>
<text text-anchor="middle" x="499.5" y="-259" font-family="Helvetica,sans-Serif" font-size="10.00">func_8029E890</text>
</a>
</g>
</g>
<!-- Node3&#45;&gt;Node25 -->
<g id="edge24_Node000003_Node000025" class="edge">
<title>Node3&#45;&gt;Node25</title>
<g id="a_edge24_Node000003_Node000025"><a xlink:title=" ">
<path fill="none" stroke="#63b8ff" d="M366.74,-190.11C392.7,-204.18 441.25,-230.48 471.62,-246.94"/>
<polygon fill="#63b8ff" stroke="#63b8ff" points="470.33,-250.22 480.79,-251.9 473.66,-244.06 470.33,-250.22"/>
</a>
</g>
</g>
<!-- Node5 -->
<g id="Node000005" class="node">
<title>Node5</title>
<g id="a_Node000005"><a xlink:href="actors_8c.html#a1a9bccb586242555a9123ebd4ab70f2a" target="_top" xlink:title=" ">
<polygon fill="white" stroke="#666666" points="811,-217.5 679,-217.5 679,-187.5 811,-187.5 811,-217.5"/>
<text text-anchor="start" x="687" y="-205.5" font-family="Helvetica,sans-Serif" font-size="10.00">cleanup_red_and_green</text>
<text text-anchor="middle" x="745" y="-194.5" font-family="Helvetica,sans-Serif" font-size="10.00">_shells</text>
</a>
</g>
</g>
<!-- Node4&#45;&gt;Node5 -->
<g id="edge4_Node000004_Node000005" class="edge">
<title>Node4&#45;&gt;Node5</title>
<g id="a_edge4_Node000004_Node000005"><a xlink:title=" ">
<path fill="none" stroke="#63b8ff" d="M643.05,-185.55C650.93,-186.87 659.79,-188.36 668.9,-189.89"/>
<polygon fill="#63b8ff" stroke="#63b8ff" points="668.4,-193.35 678.85,-191.56 669.56,-186.45 668.4,-193.35"/>
</a>
</g>
</g>
<!-- Node17 -->
<g id="Node000017" class="node">
<title>Node17</title>
<g id="a_Node000017"><a xlink:href="collision_8c.html#ad72fef3ffe32191d73b1822f512ebf3f" target="_top" xlink:title=" ">
<polygon fill="white" stroke="#666666" points="792.5,-132 697.5,-132 697.5,-113 792.5,-113 792.5,-132"/>
<text text-anchor="middle" x="745" y="-120" font-family="Helvetica,sans-Serif" font-size="10.00">func_802AAAAC</text>
</a>
</g>
</g>
<!-- Node4&#45;&gt;Node17 -->
<g id="edge16_Node000004_Node000017" class="edge">
<title>Node4&#45;&gt;Node17</title>
<g id="a_edge16_Node000004_Node000017"><a xlink:title=" ">
<path fill="none" stroke="#63b8ff" d="M626.56,-170.75C639.5,-161.83 659.81,-148.78 679,-140.5 683.47,-138.57 688.2,-136.79 692.99,-135.17"/>
<polygon fill="#63b8ff" stroke="#63b8ff" points="694.36,-138.41 702.84,-132.05 692.25,-131.73 694.36,-138.41"/>
</a>
</g>
</g>
<!-- Node19 -->
<g id="Node000019" class="node">
<title>Node19</title>
<g id="a_Node000019"><a xlink:href="collision_8c.html#a365367628b7140a7a880beeecce9c305" target="_top" xlink:title=" ">
<polygon fill="white" stroke="#666666" points="792.5,-169 697.5,-169 697.5,-150 792.5,-150 792.5,-169"/>
<text text-anchor="middle" x="745" y="-157" font-family="Helvetica,sans-Serif" font-size="10.00">func_802ADDC8</text>
</a>
</g>
</g>
<!-- Node4&#45;&gt;Node19 -->
<g id="edge18_Node000004_Node000019" class="edge">
<title>Node4&#45;&gt;Node19</title>
<g id="a_edge18_Node000004_Node000019"><a xlink:title=" ">
<path fill="none" stroke="#63b8ff" d="M643.05,-175.68C656.25,-173.57 672.2,-171.01 687.48,-168.56"/>
<polygon fill="#63b8ff" stroke="#63b8ff" points="688.07,-172.01 697.39,-166.97 686.96,-165.1 688.07,-172.01"/>
</a>
</g>
</g>
<!-- Node23 -->
<g id="Node000023" class="node">
<title>Node23</title>
<g id="a_Node000023"><a xlink:href="math__util_8c.html#af7b470ed76fce07b8042a47c96e5690b" target="_top" xlink:title=" ">
<polygon fill="white" stroke="#666666" points="798.5,-95 691.5,-95 691.5,-76 798.5,-76 798.5,-95"/>
<text text-anchor="middle" x="745" y="-83" font-family="Helvetica,sans-Serif" font-size="10.00">vec3f_copy_return</text>
</a>
</g>
</g>
<!-- Node4&#45;&gt;Node23 -->
<g id="edge22_Node000004_Node000023" class="edge">
<title>Node4&#45;&gt;Node23</title>
<g id="a_edge22_Node000004_Node000023"><a xlink:title=" ">
<path fill="none" stroke="#63b8ff" d="M618.58,-170.85C628.56,-154.46 651.06,-121.26 679,-103.5 681.58,-101.86 684.32,-100.36 687.15,-99"/>
<polygon fill="#63b8ff" stroke="#63b8ff" points="688.56,-102.2 696.42,-95.1 685.85,-95.75 688.56,-102.2"/>
</a>
</g>
</g>
<!-- Node24 -->
<g id="Node000024" class="node">
<title>Node24</title>
<g id="a_Node000024"><a xlink:href="math__util_8c.html#a0e270ee67600c8c9c2f140c647d008a1" target="_top" xlink:title=" ">
<polygon fill="white" stroke="#666666" points="782,-255 708,-255 708,-236 782,-236 782,-255"/>
<text text-anchor="middle" x="745" y="-243" font-family="Helvetica,sans-Serif" font-size="10.00">vec3s_copy</text>
</a>
</g>
</g>
<!-- Node4&#45;&gt;Node24 -->
<g id="edge23_Node000004_Node000024" class="edge">
<title>Node4&#45;&gt;Node24</title>
<g id="a_edge23_Node000004_Node000024"><a xlink:title=" ">
<path fill="none" stroke="#63b8ff" d="M624.44,-190.22C637.06,-200.51 658.34,-216.61 679,-226.5 685.06,-229.4 691.64,-231.95 698.23,-234.17"/>
<polygon fill="#63b8ff" stroke="#63b8ff" points="697.21,-237.52 707.8,-237.17 699.31,-230.84 697.21,-237.52"/>
</a>
</g>
</g>
<!-- Node6 -->
<g id="Node000006" class="node">
<title>Node6</title>
<g id="a_Node000006"><a xlink:href="actors_8c.html#a694ec6ef7548b8618aeb35c038d3a9b9" target="_top" xlink:title=" ">
<polygon fill="white" stroke="#666666" points="964.5,-244 881.5,-244 881.5,-225 964.5,-225 964.5,-244"/>
<text text-anchor="middle" x="923" y="-232" font-family="Helvetica,sans-Serif" font-size="10.00">destroy_actor</text>
</a>
</g>
</g>
<!-- Node5&#45;&gt;Node6 -->
<g id="edge5_Node000005_Node000006" class="edge">
<title>Node5&#45;&gt;Node6</title>
<g id="a_edge5_Node000005_Node000006"><a xlink:title=" ">
<path fill="none" stroke="#63b8ff" d="M811.04,-214.32C831.04,-217.96 852.75,-221.91 871.61,-225.34"/>
<polygon fill="#63b8ff" stroke="#63b8ff" points="871.02,-228.79 881.48,-227.13 872.27,-221.9 871.02,-228.79"/>
</a>
</g>
</g>
<!-- Node16 -->
<g id="Node000016" class="node">
<title>Node16</title>
<g id="a_Node000016"><a xlink:href="code__80005FD0_8c.html#acb7b3d384c78d219f4b7040e78f6a2f2" target="_top" xlink:title=" ">
<polygon fill="white" stroke="#666666" points="999,-293.5 847,-293.5 847,-263.5 999,-263.5 999,-293.5"/>
<text text-anchor="start" x="855" y="-281.5" font-family="Helvetica,sans-Serif" font-size="10.00">remove_actor_in_unexpired</text>
<text text-anchor="middle" x="923" y="-270.5" font-family="Helvetica,sans-Serif" font-size="10.00">_actor_list</text>
</a>
</g>
</g>
<!-- Node5&#45;&gt;Node16 -->
<g id="edge15_Node000005_Node000016" class="edge">
<title>Node5&#45;&gt;Node16</title>
<g id="a_edge15_Node000005_Node000016"><a xlink:title=" ">
<path fill="none" stroke="#63b8ff" d="M789.71,-217.52C796.96,-220.52 804.3,-223.87 811,-227.5 828.36,-236.9 829.44,-244.5 847,-253.5 851.28,-255.69 855.79,-257.75 860.39,-259.68"/>
<polygon fill="#63b8ff" stroke="#63b8ff" points="859.33,-263.02 869.92,-263.43 861.9,-256.51 859.33,-263.02"/>
</a>
</g>
</g>
<!-- Node7 -->
<g id="Node000007" class="node">
<title>Node7</title>
<g id="a_Node000007"><a xlink:href="actors_8c.html#ad5a56c8f7eaf719223099cce9e38ec9f" target="_top" xlink:title=" ">
<polygon fill="white" stroke="#666666" points="1186,-287 1035,-287 1035,-268 1186,-268 1186,-287"/>
<text text-anchor="middle" x="1110.5" y="-275" font-family="Helvetica,sans-Serif" font-size="10.00">play_sound_before_destroy</text>
</a>
</g>
</g>
<!-- Node6&#45;&gt;Node7 -->
<g id="edge6_Node000006_Node000007" class="edge">
<title>Node6&#45;&gt;Node7</title>
<g id="a_edge6_Node000006_Node000007"><a xlink:title=" ">
<path fill="none" stroke="#63b8ff" d="M964.71,-243.94C992.18,-250.31 1028.67,-258.76 1058.14,-265.59"/>
<polygon fill="#63b8ff" stroke="#63b8ff" points="1057.71,-269.09 1068.25,-267.94 1059.29,-262.27 1057.71,-269.09"/>
</a>
</g>
</g>
<!-- Node8 -->
<g id="Node000008" class="node">
<title>Node8</title>
<g id="a_Node000008"><a xlink:href="external_8c.html#ae72057869772019e4464c87d4e16c682" target="_top" xlink:title=" ">
<polygon fill="white" stroke="#666666" points="1314,-287 1222,-287 1222,-268 1314,-268 1314,-287"/>
<text text-anchor="middle" x="1268" y="-275" font-family="Helvetica,sans-Serif" font-size="10.00">func_800C99E0</text>
</a>
</g>
</g>
<!-- Node7&#45;&gt;Node8 -->
<g id="edge7_Node000007_Node000008" class="edge">
<title>Node7&#45;&gt;Node8</title>
<g id="a_edge7_Node000007_Node000008"><a xlink:title=" ">
<path fill="none" stroke="#63b8ff" d="M1186.06,-277.5C1194.61,-277.5 1203.21,-277.5 1211.45,-277.5"/>
<polygon fill="#63b8ff" stroke="#63b8ff" points="1211.66,-281 1221.66,-277.5 1211.66,-274 1211.66,-281"/>
</a>
</g>
</g>
<!-- Node9 -->
<g id="Node000009" class="node">
<title>Node9</title>
<g id="a_Node000009"><a xlink:href="external_8c.html#aeb87c527482a244173df36a1f3d4f446" target="_top" xlink:title=" ">
<polygon fill="white" stroke="#666666" points="1442,-306 1350,-306 1350,-287 1442,-287 1442,-306"/>
<text text-anchor="middle" x="1396" y="-294" font-family="Helvetica,sans-Serif" font-size="10.00">func_800C21E8</text>
</a>
</g>
</g>
<!-- Node8&#45;&gt;Node9 -->
<g id="edge8_Node000008_Node000009" class="edge">
<title>Node8&#45;&gt;Node9</title>
<g id="a_edge8_Node000008_Node000009"><a xlink:title=" ">
<path fill="none" stroke="#63b8ff" d="M1314.13,-284.31C1322.46,-285.56 1331.23,-286.88 1339.81,-288.18"/>
<polygon fill="#63b8ff" stroke="#63b8ff" points="1339.35,-291.65 1349.76,-289.68 1340.39,-284.73 1339.35,-291.65"/>
</a>
</g>
</g>
<!-- Node10 -->
<g id="Node000010" class="node">
<title>Node10</title>
<g id="a_Node000010"><a xlink:href="external_8c.html#a028d40421b90c38f68ebfd5acc626f2e" target="_top" xlink:title=" ">
<polygon fill="white" stroke="#666666" points="1442,-269 1350,-269 1350,-250 1442,-250 1442,-269"/>
<text text-anchor="middle" x="1396" y="-257" font-family="Helvetica,sans-Serif" font-size="10.00">func_800C5578</text>
</a>
</g>
</g>
<!-- Node8&#45;&gt;Node10 -->
<g id="edge9_Node000008_Node000010" class="edge">
<title>Node8&#45;&gt;Node10</title>
<g id="a_edge9_Node000008_Node000010"><a xlink:title=" ">
<path fill="none" stroke="#63b8ff" d="M1314.13,-271.05C1322.46,-269.86 1331.23,-268.61 1339.81,-267.38"/>
<polygon fill="#63b8ff" stroke="#63b8ff" points="1340.35,-270.84 1349.76,-265.96 1339.36,-263.91 1340.35,-270.84"/>
</a>
</g>
</g>
<!-- Node11 -->
<g id="Node000011" class="node">
<title>Node11</title>
<g id="a_Node000011"><a xlink:href="external_8c.html#ac0fb767de7e14a03f1bcfa53f0abd23b" target="_top" xlink:title=" ">
<polygon fill="white" stroke="#666666" points="1618,-306 1478,-306 1478,-287 1618,-287 1618,-306"/>
<text text-anchor="middle" x="1548" y="-294" font-family="Helvetica,sans-Serif" font-size="10.00">delete_sound_from_bank</text>
</a>
</g>
</g>
<!-- Node10&#45;&gt;Node11 -->
<g id="edge10_Node000010_Node000011" class="edge">
<title>Node10&#45;&gt;Node11</title>
<g id="a_edge10_Node000010_Node000011"><a xlink:title=" ">
<path fill="none" stroke="#63b8ff" d="M1435.63,-269.03C1454.8,-273.76 1478.16,-279.52 1498.52,-284.54"/>
<polygon fill="#63b8ff" stroke="#63b8ff" points="1497.69,-287.94 1508.24,-286.94 1499.37,-281.15 1497.69,-287.94"/>
</a>
</g>
</g>
<!-- Node13 -->
<g id="Node000013" class="node">
<title>Node13</title>
<g id="a_Node000013"><a xlink:href="external_8c.html#ab83bd36e63f0f1baddcb2482b5ad31b0" target="_top" xlink:title=" ">
<polygon fill="white" stroke="#666666" points="1594.5,-269 1501.5,-269 1501.5,-250 1594.5,-250 1594.5,-269"/>
<text text-anchor="middle" x="1548" y="-257" font-family="Helvetica,sans-Serif" font-size="10.00">func_800C41CC</text>
</a>
</g>
</g>
<!-- Node10&#45;&gt;Node13 -->
<g id="edge12_Node000010_Node000013" class="edge">
<title>Node10&#45;&gt;Node13</title>
<g id="a_edge12_Node000010_Node000013"><a xlink:title=" ">
<path fill="none" stroke="#63b8ff" d="M1442,-259.5C1457.37,-259.5 1474.74,-259.5 1490.86,-259.5"/>
<polygon fill="#63b8ff" stroke="#63b8ff" points="1491.25,-263 1501.25,-259.5 1491.25,-256 1491.25,-263"/>
</a>
</g>
</g>
<!-- Node14 -->
<g id="Node000014" class="node">
<title>Node14</title>
<g id="a_Node000014"><a xlink:href="port__eu_8c.html#aa89dfaecca46c6d071f08c1898d1f7c9" target="_top" xlink:title=" ">
<polygon fill="white" stroke="#666666" points="1594.5,-232 1501.5,-232 1501.5,-213 1594.5,-213 1594.5,-232"/>
<text text-anchor="middle" x="1548" y="-220" font-family="Helvetica,sans-Serif" font-size="10.00">func_800CBBE8</text>
</a>
</g>
</g>
<!-- Node10&#45;&gt;Node14 -->
<g id="edge13_Node000010_Node000014" class="edge">
<title>Node10&#45;&gt;Node14</title>
<g id="a_edge13_Node000010_Node000014"><a xlink:title=" ">
<path fill="none" stroke="#63b8ff" d="M1435.63,-249.97C1454.8,-245.24 1478.16,-239.48 1498.52,-234.46"/>
<polygon fill="#63b8ff" stroke="#63b8ff" points="1499.37,-237.85 1508.24,-232.06 1497.69,-231.06 1499.37,-237.85"/>
</a>
</g>
</g>
<!-- Node12 -->
<g id="Node000012" class="node">
<title>Node12</title>
<g id="a_Node000012"><a xlink:href="external_8c.html#a358ac55e8ab5262dcae8037334be06d7" target="_top" xlink:title=" ">
<polygon fill="white" stroke="#666666" points="1746.5,-306 1654.5,-306 1654.5,-287 1746.5,-287 1746.5,-306"/>
<text text-anchor="middle" x="1700.5" y="-294" font-family="Helvetica,sans-Serif" font-size="10.00">func_800C40F0</text>
</a>
</g>
</g>
<!-- Node11&#45;&gt;Node12 -->
<g id="edge11_Node000011_Node000012" class="edge">
<title>Node11&#45;&gt;Node12</title>
<g id="a_edge11_Node000011_Node000012"><a xlink:title=" ">
<path fill="none" stroke="#63b8ff" d="M1618.08,-296.5C1626.87,-296.5 1635.78,-296.5 1644.31,-296.5"/>
<polygon fill="#63b8ff" stroke="#63b8ff" points="1644.5,-300 1654.5,-296.5 1644.5,-293 1644.5,-300"/>
</a>
</g>
</g>
<!-- Node15 -->
<g id="Node000015" class="node">
<title>Node15</title>
<g id="a_Node000015"><a xlink:href="port__eu_8c.html#af361a20d2e08f30c53a237ca481ff734" target="_top" xlink:title=" ">
<polygon fill="white" stroke="#666666" points="1747,-232 1654,-232 1654,-213 1747,-213 1747,-232"/>
<text text-anchor="middle" x="1700.5" y="-220" font-family="Helvetica,sans-Serif" font-size="10.00">func_800CBB48</text>
</a>
</g>
</g>
<!-- Node14&#45;&gt;Node15 -->
<g id="edge14_Node000014_Node000015" class="edge">
<title>Node14&#45;&gt;Node15</title>
<g id="a_edge14_Node000014_Node000015"><a xlink:title=" ">
<path fill="none" stroke="#63b8ff" d="M1594.56,-222.5C1609.96,-222.5 1627.34,-222.5 1643.46,-222.5"/>
<polygon fill="#63b8ff" stroke="#63b8ff" points="1643.83,-226 1653.83,-222.5 1643.83,-219 1643.83,-226"/>
</a>
</g>
</g>
<!-- Node17&#45;&gt;Node18 -->
<g id="edge17_Node000017_Node000018" class="edge">
<title>Node17&#45;&gt;Node18</title>
<g id="a_edge17_Node000017_Node000018"><a xlink:title=" ">
<path fill="none" stroke="#63b8ff" d="M779.47,-112.97C789.62,-110.02 800.79,-106.69 811,-103.5 835.6,-95.81 863.09,-86.65 884.56,-79.37"/>
<polygon fill="#63b8ff" stroke="#63b8ff" points="885.93,-82.6 894.27,-76.06 883.67,-75.97 885.93,-82.6"/>
</a>
</g>
</g>
<!-- Node20 -->
<g id="Node000020" class="node">
<title>Node20</title>
<g id="a_Node000020"><a xlink:href="collision_8c.html#afce45acb8da354da0a5b501003be1aef" target="_top" xlink:title=" ">
<polygon fill="white" stroke="#666666" points="969.5,-206 876.5,-206 876.5,-187 969.5,-187 969.5,-206"/>
<text text-anchor="middle" x="923" y="-194" font-family="Helvetica,sans-Serif" font-size="10.00">func_802AAE4C</text>
</a>
</g>
</g>
<!-- Node19&#45;&gt;Node20 -->
<g id="edge19_Node000019_Node000020" class="edge">
<title>Node19&#45;&gt;Node20</title>
<g id="a_edge19_Node000019_Node000020"><a xlink:title=" ">
<path fill="none" stroke="#63b8ff" d="M791.32,-169.03C814.33,-173.86 842.47,-179.78 866.74,-184.88"/>
<polygon fill="#63b8ff" stroke="#63b8ff" points="866.02,-188.31 876.52,-186.94 867.46,-181.46 866.02,-188.31"/>
</a>
</g>
</g>
<!-- Node21 -->
<g id="Node000021" class="node">
<title>Node21</title>
<g id="a_Node000021"><a xlink:href="collision_8c.html#adcc608ea0eae3bf9a27ab79ec64b4899" target="_top" xlink:title=" ">
<polygon fill="white" stroke="#666666" points="969,-169 877,-169 877,-150 969,-150 969,-169"/>
<text text-anchor="middle" x="923" y="-157" font-family="Helvetica,sans-Serif" font-size="10.00">func_802AB288</text>
</a>
</g>
</g>
<!-- Node19&#45;&gt;Node21 -->
<g id="edge20_Node000019_Node000021" class="edge">
<title>Node19&#45;&gt;Node21</title>
<g id="a_edge20_Node000019_Node000021"><a xlink:title=" ">
<path fill="none" stroke="#63b8ff" d="M792.7,-159.5C815.41,-159.5 842.87,-159.5 866.63,-159.5"/>
<polygon fill="#63b8ff" stroke="#63b8ff" points="866.9,-163 876.9,-159.5 866.9,-156 866.9,-163"/>
</a>
</g>
</g>
<!-- Node22 -->
<g id="Node000022" class="node">
<title>Node22</title>
<g id="a_Node000022"><a xlink:href="collision_8c.html#ab440aa3fc960b7b4b5ad8e4bcaa06b00" target="_top" xlink:title=" ">
<polygon fill="white" stroke="#666666" points="969.5,-132 876.5,-132 876.5,-113 969.5,-113 969.5,-132"/>
<text text-anchor="middle" x="923" y="-120" font-family="Helvetica,sans-Serif" font-size="10.00">func_802AB6C4</text>
</a>
</g>
</g>
<!-- Node19&#45;&gt;Node22 -->
<g id="edge21_Node000019_Node000022" class="edge">
<title>Node19&#45;&gt;Node22</title>
<g id="a_edge21_Node000019_Node000022"><a xlink:title=" ">
<path fill="none" stroke="#63b8ff" d="M791.32,-149.97C814.33,-145.14 842.47,-139.22 866.74,-134.12"/>
<polygon fill="#63b8ff" stroke="#63b8ff" points="867.46,-137.54 876.52,-132.06 866.02,-130.69 867.46,-137.54"/>
</a>
</g>
</g>
<!-- Node25&#45;&gt;Node4 -->
<g id="edge25_Node000025_Node000004" class="edge">
<title>Node25&#45;&gt;Node4</title>
<g id="a_edge25_Node000025_Node000004"><a xlink:title=" ">
<path fill="none" stroke="#63b8ff" d="M513.61,-251.89C532.38,-238.13 567.14,-212.65 589.66,-196.15"/>
<polygon fill="#63b8ff" stroke="#63b8ff" points="591.91,-198.83 597.91,-190.1 587.77,-193.19 591.91,-198.83"/>
</a>
</g>
</g>
<!-- Node25&#45;&gt;Node7 -->
<g id="edge26_Node000025_Node000007" class="edge">
<title>Node25&#45;&gt;Node7</title>
<g id="a_edge26_Node000025_Node000007"><a xlink:title=" ">
<path fill="none" stroke="#63b8ff" d="M538.38,-271.07C551.77,-274.16 566.99,-277.34 581,-279.5 764.88,-307.88 814.09,-323.16 999,-302.5 1021.41,-300 1045.9,-294.72 1066.13,-289.66"/>
<polygon fill="#63b8ff" stroke="#63b8ff" points="1067.16,-293.01 1075.98,-287.13 1065.42,-286.23 1067.16,-293.01"/>
</a>
</g>
</g>
<!-- Node25&#45;&gt;Node16 -->
<g id="edge27_Node000025_Node000016" class="edge">
<title>Node25&#45;&gt;Node16</title>
<g id="a_edge27_Node000025_Node000016"><a xlink:title=" ">
<path fill="none" stroke="#63b8ff" d="M545.21,-263.3C614.3,-266.09 748.22,-271.49 836.37,-275.05"/>
<polygon fill="#63b8ff" stroke="#63b8ff" points="836.48,-278.55 846.62,-275.46 836.77,-271.56 836.48,-278.55"/>
</a>
</g>
</g>
</g>
</svg>

<g id="navigator" transform="translate(0 0)" fill="#404254">
  <rect fill="#f2f5e9" fill-opacity="0.5" stroke="#606060" stroke-width=".5" x="0" y="0" width="60" height="60"/>
  <use id="zoomplus" xlink:href="#zoomPlus" x="17" y="9" onmousedown="handleZoom(evt,'in')"/>
  <use id="zoomminus" xlink:href="#zoomMin" x="42" y="9" onmousedown="handleZoom(evt,'out')"/>
  <use id="reset" xlink:href="#resetDef" x="30" y="36" onmousedown="handleReset()"/>
   <use id="arrowup" xlink:href="#arrowUp" x="0" y="0" onmousedown="handlePan(0,-1)"/>
  <use id="arrowright" xlink:href="#arrowRight" x="0" y="0" onmousedown="handlePan(1,0)"/>
  <use id="arrowdown" xlink:href="#arrowDown" x="0" y="0" onmousedown="handlePan(0,1)"/>
  <use id="arrowleft" xlink:href="#arrowLeft" x="0" y="0" onmousedown="handlePan(-1,0)"/>
</g>
<svg viewBox="0 0 15 15" width="100%" height="30px" preserveAspectRatio="xMaxYMin meet">
 <g id="arrow_out" transform="scale(0.3 0.3)">
  <a xlink:href="actors_8c_a0d9197f8df1df3e8834fbaf37e9e2115_cgraph_org.svg" target="_base">
   <rect id="button" ry="5" rx="5" y="6" x="6" height="38" width="38"
        fill="#f2f5e9" fill-opacity="0.5" stroke="#606060" stroke-width="1.0"/>
   <path id="arrow"
     d="M 11.500037,31.436501 C 11.940474,20.09759 22.043105,11.32322 32.158766,21.979434 L 37.068811,17.246167 C 37.068811,17.246167 37.088388,32 37.088388,32 L 22.160133,31.978069 C 22.160133,31.978069 26.997745,27.140456 26.997745,27.140456 C 18.528582,18.264221 13.291696,25.230495 11.500037,31.436501 z"
     style="fill:#404040;"/>
  </a>
 </g>
</svg>

<style type='text/css'>
<![CDATA[
[data-mouse-over-selected='false'] { opacity: 0.7; }
[data-mouse-over-selected='true']  { opacity: 1.0; }
]]>
</style>
<script type="application/ecmascript"><![CDATA[
document.addEventListener('DOMContentLoaded', (event) => {
  highlightEdges();
  highlightAdjacentNodes();
});
]]></script>
</svg>
