<?xml version="1.0" encoding="UTF-8" standalone="no"?>
<!DOCTYPE svg PUBLIC "-//W3C//DTD SVG 1.1//EN"
 "http://www.w3.org/Graphics/SVG/1.1/DTD/svg11.dtd">
<!-- Generated by graphviz version 2.43.0 (0)
 -->
<!-- Title: func_802977B0 Pages: 1 -->
<svg width="1321pt" height="64pt"
 viewBox="0.00 0.00 1321.00 64.00" xmlns="http://www.w3.org/2000/svg" xmlns:xlink="http://www.w3.org/1999/xlink">
<g id="graph0" class="graph" transform="scale(1 1) rotate(0) translate(4 60)">
<title>func_802977B0</title>
<!-- Node1 -->
<g id="Node000001" class="node">
<title>Node1</title>
<g id="a_Node000001"><a xlink:title=" ">
<polygon fill="#999999" stroke="#666666" points="1313,-37 1221,-37 1221,-18 1313,-18 1313,-37"/>
<text text-anchor="middle" x="1267" y="-25" font-family="Helvetica,sans-Serif" font-size="10.00">func_802977B0</text>
</a>
</g>
</g>
<!-- Node2 -->
<g id="Node000002" class="node">
<title>Node2</title>
<g id="a_Node000002"><a xlink:href="actors_8c.html#ab378348cf5cc8d36da064f81611f90e3" target="_top" xlink:title=" ">
<polygon fill="white" stroke="#666666" points="1185,-56 1073,-56 1073,-37 1185,-37 1185,-56"/>
<text text-anchor="middle" x="1129" y="-44" font-family="Helvetica,sans-Serif" font-size="10.00">collision_yoshi_egg</text>
</a>
</g>
</g>
<!-- Node1&#45;&gt;Node2 -->
<g id="edge1_Node000001_Node000002" class="edge">
<title>Node1&#45;&gt;Node2</title>
<g id="a_edge1_Node000001_Node000002"><a xlink:title=" ">
<path fill="none" stroke="#63b8ff" d="M1210.59,-35.24C1202.15,-36.42 1193.45,-37.64 1185.02,-38.81"/>
<polygon fill="#63b8ff" stroke="#63b8ff" points="1211.29,-38.68 1220.71,-33.83 1210.33,-31.74 1211.29,-38.68"/>
</a>
</g>
</g>
<!-- Node11 -->
<g id="Node000011" class="node">
<title>Node11</title>
<g id="a_Node000011"><a xlink:href="actors_8c.html#a06219e130791db5c35462622f3578592" target="_top" xlink:title=" ">
<polygon fill="white" stroke="#666666" points="1175,-19 1083,-19 1083,0 1175,0 1175,-19"/>
<text text-anchor="middle" x="1129" y="-7" font-family="Helvetica,sans-Serif" font-size="10.00">func_8029F69C</text>
</a>
</g>
</g>
<!-- Node1&#45;&gt;Node11 -->
<g id="edge10_Node000001_Node000011" class="edge">
<title>Node1&#45;&gt;Node11</title>
<g id="a_edge10_Node000001_Node000011"><a xlink:title=" ">
<path fill="none" stroke="#63b8ff" d="M1210.53,-20.16C1198.74,-18.6 1186.43,-16.97 1175.09,-15.47"/>
<polygon fill="#63b8ff" stroke="#63b8ff" points="1210.34,-23.66 1220.71,-21.51 1211.26,-16.72 1210.34,-23.66"/>
</a>
</g>
</g>
<!-- Node3 -->
<g id="Node000003" class="node">
<title>Node3</title>
<g id="a_Node000003"><a xlink:href="actors_8c.html#a5d0cc071261caa5b76190cfee9c90189" target="_top" xlink:title=" ">
<polygon fill="white" stroke="#666666" points="1037,-37 945,-37 945,-18 1037,-18 1037,-37"/>
<text text-anchor="middle" x="991" y="-25" font-family="Helvetica,sans-Serif" font-size="10.00">func_802A0450</text>
</a>
</g>
</g>
<!-- Node2&#45;&gt;Node3 -->
<g id="edge2_Node000002_Node000003" class="edge">
<title>Node2&#45;&gt;Node3</title>
<g id="a_edge2_Node000002_Node000003"><a xlink:title=" ">
<path fill="none" stroke="#63b8ff" d="M1062.66,-37.37C1054.08,-36.17 1045.44,-34.97 1037.29,-33.83"/>
<polygon fill="#63b8ff" stroke="#63b8ff" points="1062.3,-40.85 1072.68,-38.77 1063.26,-33.92 1062.3,-40.85"/>
</a>
</g>
</g>
<!-- Node4 -->
<g id="Node000004" class="node">
<title>Node4</title>
<g id="a_Node000004"><a xlink:href="actors_8c.html#ad37e739a6957be6a447d5a26574710cc" target="_top" xlink:title=" ">
<polygon fill="white" stroke="#666666" points="909,-37 768,-37 768,-18 909,-18 909,-37"/>
<text text-anchor="middle" x="838.5" y="-25" font-family="Helvetica,sans-Serif" font-size="10.00">evaluate_player_collision</text>
</a>
</g>
</g>
<!-- Node3&#45;&gt;Node4 -->
<g id="edge3_Node000003_Node000004" class="edge">
<title>Node3&#45;&gt;Node4</title>
<g id="a_edge3_Node000003_Node000004"><a xlink:title=" ">
<path fill="none" stroke="#63b8ff" d="M934.57,-27.5C926.28,-27.5 917.66,-27.5 909.12,-27.5"/>
<polygon fill="#63b8ff" stroke="#63b8ff" points="934.85,-31 944.85,-27.5 934.85,-24 934.85,-31"/>
</a>
</g>
</g>
<!-- Node5 -->
<g id="Node000005" class="node">
<title>Node5</title>
<g id="a_Node000005"><a xlink:href="main_8c.html#afff87ffcbfee4f1f37d443110aa7b52a" target="_top" xlink:title=" ">
<polygon fill="white" stroke="#666666" points="732,-37 640,-37 640,-18 732,-18 732,-37"/>
<text text-anchor="middle" x="686" y="-25" font-family="Helvetica,sans-Serif" font-size="10.00">race_logic_loop</text>
</a>
</g>
</g>
<!-- Node4&#45;&gt;Node5 -->
<g id="edge4_Node000004_Node000005" class="edge">
<title>Node4&#45;&gt;Node5</title>
<g id="a_edge4_Node000004_Node000005"><a xlink:title=" ">
<path fill="none" stroke="#63b8ff" d="M757.98,-27.5C749.12,-27.5 740.35,-27.5 732.15,-27.5"/>
<polygon fill="#63b8ff" stroke="#63b8ff" points="757.98,-31 767.98,-27.5 757.98,-24 757.98,-31"/>
</a>
</g>
</g>
<!-- Node6 -->
<g id="Node000006" class="node">
<title>Node6</title>
<g id="a_Node000006"><a xlink:href="main_8c.html#ae04143ce8113cdafa007c642eb620bc8" target="_top" xlink:title=" ">
<polygon fill="white" stroke="#666666" points="604,-37 488,-37 488,-18 604,-18 604,-37"/>
<text text-anchor="middle" x="546" y="-25" font-family="Helvetica,sans-Serif" font-size="10.00">game_state_handler</text>
</a>
</g>
</g>
<!-- Node5&#45;&gt;Node6 -->
<g id="edge5_Node000005_Node000006" class="edge">
<title>Node5&#45;&gt;Node6</title>
<g id="a_edge5_Node000005_Node000006"><a xlink:title=" ">
<path fill="none" stroke="#63b8ff" d="M629.79,-27.5C621.43,-27.5 612.78,-27.5 604.38,-27.5"/>
<polygon fill="#63b8ff" stroke="#63b8ff" points="629.81,-31 639.81,-27.5 629.81,-24 629.81,-31"/>
</a>
</g>
</g>
<!-- Node7 -->
<g id="Node000007" class="node">
<title>Node7</title>
<g id="a_Node000007"><a xlink:href="main_8c.html#a633ed517e458daeb768f5361895dcac9" target="_top" xlink:title=" ">
<polygon fill="white" stroke="#666666" points="452,-37 339,-37 339,-18 452,-18 452,-37"/>
<text text-anchor="middle" x="395.5" y="-25" font-family="Helvetica,sans-Serif" font-size="10.00">thread5_game_loop</text>
</a>
</g>
</g>
<!-- Node6&#45;&gt;Node7 -->
<g id="edge6_Node000006_Node000007" class="edge">
<title>Node6&#45;&gt;Node7</title>
<g id="a_edge6_Node000006_Node000007"><a xlink:title=" ">
<path fill="none" stroke="#63b8ff" d="M477.42,-27.5C469.02,-27.5 460.5,-27.5 452.3,-27.5"/>
<polygon fill="#63b8ff" stroke="#63b8ff" points="477.59,-31 487.59,-27.5 477.59,-24 477.59,-31"/>
</a>
</g>
</g>
<!-- Node8 -->
<g id="Node000008" class="node">
<title>Node8</title>
<g id="a_Node000008"><a xlink:href="main_8c.html#a023b8f272e4efbd33f371e91ffff6b30" target="_top" xlink:title=" ">
<polygon fill="white" stroke="#666666" points="303,-37 217,-37 217,-18 303,-18 303,-37"/>
<text text-anchor="middle" x="260" y="-25" font-family="Helvetica,sans-Serif" font-size="10.00">thread3_video</text>
</a>
</g>
</g>
<!-- Node7&#45;&gt;Node8 -->
<g id="edge7_Node000007_Node000008" class="edge">
<title>Node7&#45;&gt;Node8</title>
<g id="a_edge7_Node000007_Node000008"><a xlink:title=" ">
<path fill="none" stroke="#63b8ff" d="M328.57,-27.5C319.94,-27.5 311.3,-27.5 303.21,-27.5"/>
<polygon fill="#63b8ff" stroke="#63b8ff" points="328.66,-31 338.66,-27.5 328.66,-24 328.66,-31"/>
</a>
</g>
</g>
<!-- Node9 -->
<g id="Node000009" class="node">
<title>Node9</title>
<g id="a_Node000009"><a xlink:href="main_8c.html#a1e35d2b842121e6aea373f09381616e5" target="_top" xlink:title=" ">
<polygon fill="white" stroke="#666666" points="181,-37 104,-37 104,-18 181,-18 181,-37"/>
<text text-anchor="middle" x="142.5" y="-25" font-family="Helvetica,sans-Serif" font-size="10.00">thread1_idle</text>
</a>
</g>
</g>
<!-- Node8&#45;&gt;Node9 -->
<g id="edge8_Node000008_Node000009" class="edge">
<title>Node8&#45;&gt;Node9</title>
<g id="a_edge8_Node000008_Node000009"><a xlink:title=" ">
<path fill="none" stroke="#63b8ff" d="M206.9,-27.5C198.2,-27.5 189.33,-27.5 181.09,-27.5"/>
<polygon fill="#63b8ff" stroke="#63b8ff" points="206.98,-31 216.98,-27.5 206.98,-24 206.98,-31"/>
</a>
</g>
</g>
<!-- Node10 -->
<g id="Node000010" class="node">
<title>Node10</title>
<g id="a_Node000010"><a xlink:href="main_8c.html#a4f87d43525fe95f60ea92bc8a3b70e62" target="_top" xlink:title=" ">
<polygon fill="white" stroke="#666666" points="68,-37 0,-37 0,-18 68,-18 68,-37"/>
<text text-anchor="middle" x="34" y="-25" font-family="Helvetica,sans-Serif" font-size="10.00">main_func</text>
</a>
</g>
</g>
<!-- Node9&#45;&gt;Node10 -->
<g id="edge9_Node000009_Node000010" class="edge">
<title>Node9&#45;&gt;Node10</title>
<g id="a_edge9_Node000009_Node000010"><a xlink:title=" ">
<path fill="none" stroke="#63b8ff" d="M93.95,-27.5C85.29,-27.5 76.44,-27.5 68.31,-27.5"/>
<polygon fill="#63b8ff" stroke="#63b8ff" points="93.95,-31 103.95,-27.5 93.95,-24 93.95,-31"/>
</a>
</g>
</g>
<!-- Node11&#45;&gt;Node3 -->
<g id="edge11_Node000011_Node000003" class="edge">
<title>Node11&#45;&gt;Node3</title>
<g id="a_edge11_Node000011_Node000003"><a xlink:title=" ">
<path fill="none" stroke="#63b8ff" d="M1072.53,-16.84C1060.74,-18.4 1048.43,-20.03 1037.09,-21.53"/>
<polygon fill="#63b8ff" stroke="#63b8ff" points="1073.26,-20.28 1082.71,-15.49 1072.34,-13.34 1073.26,-20.28"/>
</a>
</g>
</g>
</g>
</svg>
