<?xml version="1.0" encoding="UTF-8" standalone="no"?>
<!DOCTYPE svg PUBLIC "-//W3C//DTD SVG 1.1//EN"
 "http://www.w3.org/Graphics/SVG/1.1/DTD/svg11.dtd">
<!-- Generated by graphviz version 2.43.0 (0)
 -->
<!-- Title: is_collide_and_apply Pages: 1 -->
<svg width="1496pt" height="161pt"
 viewBox="0.00 0.00 1496.00 160.50" xmlns="http://www.w3.org/2000/svg" xmlns:xlink="http://www.w3.org/1999/xlink">
<g id="graph0" class="graph" transform="scale(1 1) rotate(0) translate(4 156.5)">
<title>is_collide_and_apply</title>
<!-- Node1 -->
<g id="Node000001" class="node">
<title>Node1</title>
<g id="a_Node000001"><a xlink:title=" ">
<polygon fill="#999999" stroke="#666666" points="1488,-93.5 1370,-93.5 1370,-74.5 1488,-74.5 1488,-93.5"/>
<text text-anchor="middle" x="1429" y="-81.5" font-family="Helvetica,sans-Serif" font-size="10.00">is_collide_and_apply</text>
</a>
</g>
</g>
<!-- Node2 -->
<g id="Node000002" class="node">
<title>Node2</title>
<g id="a_Node000002"><a xlink:href="actors_8c.html#a521e1559ccc69c0373aacf8108ffc70e" target="_top" xlink:title=" ">
<polygon fill="white" stroke="#666666" points="1327.5,-152.5 1219.5,-152.5 1219.5,-133.5 1327.5,-133.5 1327.5,-152.5"/>
<text text-anchor="middle" x="1273.5" y="-140.5" font-family="Helvetica,sans-Serif" font-size="10.00">collide_mario_sign</text>
</a>
</g>
</g>
<!-- Node1&#45;&gt;Node2 -->
<g id="edge1_Node000001_Node000002" class="edge">
<title>Node1&#45;&gt;Node2</title>
<g id="a_edge1_Node000001_Node000002"><a xlink:title=" ">
<path fill="none" stroke="#63b8ff" d="M1398.47,-97.95C1380.13,-106.34 1355.95,-116.92 1334,-125 1325.8,-128.02 1316.83,-130.93 1308.4,-133.5"/>
<polygon fill="#63b8ff" stroke="#63b8ff" points="1400.13,-101.03 1407.74,-93.66 1397.2,-94.68 1400.13,-101.03"/>
</a>
</g>
</g>
<!-- Node11 -->
<g id="Node000011" class="node">
<title>Node11</title>
<g id="a_Node000011"><a xlink:href="actors_8c.html#a967249b32b0a686ff3c3cf91c7572896" target="_top" xlink:title=" ">
<polygon fill="white" stroke="#666666" points="1334,-115.5 1213,-115.5 1213,-96.5 1334,-96.5 1334,-115.5"/>
<text text-anchor="middle" x="1273.5" y="-103.5" font-family="Helvetica,sans-Serif" font-size="10.00">collide_piranha_plant</text>
</a>
</g>
</g>
<!-- Node1&#45;&gt;Node11 -->
<g id="edge10_Node000001_Node000011" class="edge">
<title>Node1&#45;&gt;Node11</title>
<g id="a_edge10_Node000001_Node000011"><a xlink:title=" ">
<path fill="none" stroke="#63b8ff" d="M1359.96,-93.75C1351.36,-94.98 1342.61,-96.24 1334.15,-97.45"/>
<polygon fill="#63b8ff" stroke="#63b8ff" points="1360.57,-97.2 1369.97,-92.32 1359.57,-90.27 1360.57,-97.2"/>
</a>
</g>
</g>
<!-- Node12 -->
<g id="Node000012" class="node">
<title>Node12</title>
<g id="a_Node000012"><a xlink:href="actors_8c.html#a55dd52d90732891552d43874931866cb" target="_top" xlink:title=" ">
<polygon fill="white" stroke="#666666" points="1330,-78 1217,-78 1217,-48 1330,-48 1330,-78"/>
<text text-anchor="start" x="1225" y="-66" font-family="Helvetica,sans-Serif" font-size="10.00">evaluate_collision</text>
<text text-anchor="middle" x="1273.5" y="-55" font-family="Helvetica,sans-Serif" font-size="10.00">_player_palm_trees</text>
</a>
</g>
</g>
<!-- Node1&#45;&gt;Node12 -->
<g id="edge12_Node000001_Node000012" class="edge">
<title>Node1&#45;&gt;Node12</title>
<g id="a_edge12_Node000001_Node000012"><a xlink:title=" ">
<path fill="none" stroke="#63b8ff" d="M1360.04,-74.7C1350.03,-73.33 1339.8,-71.93 1330.08,-70.6"/>
<polygon fill="#63b8ff" stroke="#63b8ff" points="1359.59,-78.17 1369.97,-76.06 1360.53,-71.24 1359.59,-78.17"/>
</a>
</g>
</g>
<!-- Node17 -->
<g id="Node000017" class="node">
<title>Node17</title>
<g id="a_Node000017"><a xlink:href="actors_8c.html#addde1681b703bfc5db3a6ceac323ae43" target="_top" xlink:title=" ">
<polygon fill="white" stroke="#666666" points="1330,-30 1217,-30 1217,0 1330,0 1330,-30"/>
<text text-anchor="start" x="1225" y="-18" font-family="Helvetica,sans-Serif" font-size="10.00">proto_loading_actor</text>
<text text-anchor="middle" x="1273.5" y="-7" font-family="Helvetica,sans-Serif" font-size="10.00">_spawn_data</text>
</a>
</g>
</g>
<!-- Node1&#45;&gt;Node17 -->
<g id="edge19_Node000001_Node000017" class="edge">
<title>Node1&#45;&gt;Node17</title>
<g id="a_edge19_Node000001_Node000017"><a xlink:title=" ">
<path fill="none" stroke="#63b8ff" d="M1399.65,-69.85C1381.1,-60.74 1356.28,-48.81 1334,-39 1327.17,-35.99 1319.84,-32.91 1312.74,-30.01"/>
<polygon fill="#63b8ff" stroke="#63b8ff" points="1398.21,-73.04 1408.72,-74.33 1401.3,-66.77 1398.21,-73.04"/>
</a>
</g>
</g>
<!-- Node3 -->
<g id="Node000003" class="node">
<title>Node3</title>
<g id="a_Node000003"><a xlink:href="actors_8c.html#a074bb86cc794d40a8b569035fcb5bbe9" target="_top" xlink:title=" ">
<polygon fill="white" stroke="#666666" points="1177,-126 1047,-126 1047,-96 1177,-96 1177,-126"/>
<text text-anchor="start" x="1055" y="-114" font-family="Helvetica,sans-Serif" font-size="10.00">evaluate_collision</text>
<text text-anchor="middle" x="1112" y="-103" font-family="Helvetica,sans-Serif" font-size="10.00">_between_player_actor</text>
</a>
</g>
</g>
<!-- Node2&#45;&gt;Node3 -->
<g id="edge2_Node000002_Node000003" class="edge">
<title>Node2&#45;&gt;Node3</title>
<g id="a_edge2_Node000002_Node000003"><a xlink:title=" ">
<path fill="none" stroke="#63b8ff" d="M1214.96,-131.46C1202.66,-128.99 1189.6,-126.37 1177.07,-123.85"/>
<polygon fill="#63b8ff" stroke="#63b8ff" points="1214.58,-134.95 1225.08,-133.49 1215.96,-128.09 1214.58,-134.95"/>
</a>
</g>
</g>
<!-- Node4 -->
<g id="Node000004" class="node">
<title>Node4</title>
<g id="a_Node000004"><a xlink:href="actors_8c.html#a71dce0cfb896ad31897a760f69288cfc" target="_top" xlink:title=" ">
<polygon fill="white" stroke="#666666" points="1011,-124 880,-124 880,-94 1011,-94 1011,-124"/>
<text text-anchor="start" x="888" y="-112" font-family="Helvetica,sans-Serif" font-size="10.00">evaluate_player_actors</text>
<text text-anchor="middle" x="945.5" y="-101" font-family="Helvetica,sans-Serif" font-size="10.00">_collision</text>
</a>
</g>
</g>
<!-- Node3&#45;&gt;Node4 -->
<g id="edge3_Node000003_Node000004" class="edge">
<title>Node3&#45;&gt;Node4</title>
<g id="a_edge3_Node000003_Node000004"><a xlink:title=" ">
<path fill="none" stroke="#63b8ff" d="M1036.65,-110.1C1028.16,-109.99 1019.56,-109.89 1011.21,-109.79"/>
<polygon fill="#63b8ff" stroke="#63b8ff" points="1036.89,-113.6 1046.93,-110.22 1036.97,-106.6 1036.89,-113.6"/>
</a>
</g>
</g>
<!-- Node5 -->
<g id="Node000005" class="node">
<title>Node5</title>
<g id="a_Node000005"><a xlink:href="main_8c.html#afff87ffcbfee4f1f37d443110aa7b52a" target="_top" xlink:title=" ">
<polygon fill="white" stroke="#666666" points="844,-112.5 752,-112.5 752,-93.5 844,-93.5 844,-112.5"/>
<text text-anchor="middle" x="798" y="-100.5" font-family="Helvetica,sans-Serif" font-size="10.00">race_logic_loop</text>
</a>
</g>
</g>
<!-- Node4&#45;&gt;Node5 -->
<g id="edge4_Node000004_Node000005" class="edge">
<title>Node4&#45;&gt;Node5</title>
<g id="a_edge4_Node000004_Node000005"><a xlink:title=" ">
<path fill="none" stroke="#63b8ff" d="M869.68,-105.91C861.01,-105.56 852.39,-105.2 844.29,-104.87"/>
<polygon fill="#63b8ff" stroke="#63b8ff" points="869.7,-109.42 879.83,-106.33 869.99,-102.42 869.7,-109.42"/>
</a>
</g>
</g>
<!-- Node6 -->
<g id="Node000006" class="node">
<title>Node6</title>
<g id="a_Node000006"><a xlink:href="main_8c.html#ae04143ce8113cdafa007c642eb620bc8" target="_top" xlink:title=" ">
<polygon fill="white" stroke="#666666" points="604,-93.5 488,-93.5 488,-74.5 604,-74.5 604,-93.5"/>
<text text-anchor="middle" x="546" y="-81.5" font-family="Helvetica,sans-Serif" font-size="10.00">game_state_handler</text>
</a>
</g>
</g>
<!-- Node5&#45;&gt;Node6 -->
<g id="edge5_Node000005_Node000006" class="edge">
<title>Node5&#45;&gt;Node6</title>
<g id="a_edge5_Node000005_Node000006"><a xlink:title=" ">
<path fill="none" stroke="#63b8ff" d="M741.68,-98.8C700.87,-95.69 645.5,-91.49 604.24,-88.35"/>
<polygon fill="#63b8ff" stroke="#63b8ff" points="741.49,-102.29 751.73,-99.56 742.02,-95.31 741.49,-102.29"/>
</a>
</g>
</g>
<!-- Node7 -->
<g id="Node000007" class="node">
<title>Node7</title>
<g id="a_Node000007"><a xlink:href="main_8c.html#a633ed517e458daeb768f5361895dcac9" target="_top" xlink:title=" ">
<polygon fill="white" stroke="#666666" points="452,-93.5 339,-93.5 339,-74.5 452,-74.5 452,-93.5"/>
<text text-anchor="middle" x="395.5" y="-81.5" font-family="Helvetica,sans-Serif" font-size="10.00">thread5_game_loop</text>
</a>
</g>
</g>
<!-- Node6&#45;&gt;Node7 -->
<g id="edge6_Node000006_Node000007" class="edge">
<title>Node6&#45;&gt;Node7</title>
<g id="a_edge6_Node000006_Node000007"><a xlink:title=" ">
<path fill="none" stroke="#63b8ff" d="M477.42,-84C469.02,-84 460.5,-84 452.3,-84"/>
<polygon fill="#63b8ff" stroke="#63b8ff" points="477.59,-87.5 487.59,-84 477.59,-80.5 477.59,-87.5"/>
</a>
</g>
</g>
<!-- Node8 -->
<g id="Node000008" class="node">
<title>Node8</title>
<g id="a_Node000008"><a xlink:href="main_8c.html#a023b8f272e4efbd33f371e91ffff6b30" target="_top" xlink:title=" ">
<polygon fill="white" stroke="#666666" points="303,-93.5 217,-93.5 217,-74.5 303,-74.5 303,-93.5"/>
<text text-anchor="middle" x="260" y="-81.5" font-family="Helvetica,sans-Serif" font-size="10.00">thread3_video</text>
</a>
</g>
</g>
<!-- Node7&#45;&gt;Node8 -->
<g id="edge7_Node000007_Node000008" class="edge">
<title>Node7&#45;&gt;Node8</title>
<g id="a_edge7_Node000007_Node000008"><a xlink:title=" ">
<path fill="none" stroke="#63b8ff" d="M328.57,-84C319.94,-84 311.3,-84 303.21,-84"/>
<polygon fill="#63b8ff" stroke="#63b8ff" points="328.66,-87.5 338.66,-84 328.66,-80.5 328.66,-87.5"/>
</a>
</g>
</g>
<!-- Node9 -->
<g id="Node000009" class="node">
<title>Node9</title>
<g id="a_Node000009"><a xlink:href="main_8c.html#a1e35d2b842121e6aea373f09381616e5" target="_top" xlink:title=" ">
<polygon fill="white" stroke="#666666" points="181,-93.5 104,-93.5 104,-74.5 181,-74.5 181,-93.5"/>
<text text-anchor="middle" x="142.5" y="-81.5" font-family="Helvetica,sans-Serif" font-size="10.00">thread1_idle</text>
</a>
</g>
</g>
<!-- Node8&#45;&gt;Node9 -->
<g id="edge8_Node000008_Node000009" class="edge">
<title>Node8&#45;&gt;Node9</title>
<g id="a_edge8_Node000008_Node000009"><a xlink:title=" ">
<path fill="none" stroke="#63b8ff" d="M206.9,-84C198.2,-84 189.33,-84 181.09,-84"/>
<polygon fill="#63b8ff" stroke="#63b8ff" points="206.98,-87.5 216.98,-84 206.98,-80.5 206.98,-87.5"/>
</a>
</g>
</g>
<!-- Node10 -->
<g id="Node000010" class="node">
<title>Node10</title>
<g id="a_Node000010"><a xlink:href="main_8c.html#a4f87d43525fe95f60ea92bc8a3b70e62" target="_top" xlink:title=" ">
<polygon fill="white" stroke="#666666" points="68,-93.5 0,-93.5 0,-74.5 68,-74.5 68,-93.5"/>
<text text-anchor="middle" x="34" y="-81.5" font-family="Helvetica,sans-Serif" font-size="10.00">main_func</text>
</a>
</g>
</g>
<!-- Node9&#45;&gt;Node10 -->
<g id="edge9_Node000009_Node000010" class="edge">
<title>Node9&#45;&gt;Node10</title>
<g id="a_edge9_Node000009_Node000010"><a xlink:title=" ">
<path fill="none" stroke="#63b8ff" d="M93.95,-84C85.29,-84 76.44,-84 68.31,-84"/>
<polygon fill="#63b8ff" stroke="#63b8ff" points="93.95,-87.5 103.95,-84 93.95,-80.5 93.95,-87.5"/>
</a>
</g>
</g>
<!-- Node11&#45;&gt;Node3 -->
<g id="edge11_Node000011_Node000003" class="edge">
<title>Node11&#45;&gt;Node3</title>
<g id="a_edge11_Node000011_Node000003"><a xlink:title=" ">
<path fill="none" stroke="#63b8ff" d="M1202.49,-108.19C1194.07,-108.46 1185.51,-108.73 1177.18,-108.99"/>
<polygon fill="#63b8ff" stroke="#63b8ff" points="1202.77,-111.69 1212.65,-107.88 1202.55,-104.69 1202.77,-111.69"/>
</a>
</g>
</g>
<!-- Node13 -->
<g id="Node000013" class="node">
<title>Node13</title>
<g id="a_Node000013"><a xlink:href="actors_8c.html#a3f5880ec8c497fe310d631e9e4518d90" target="_top" xlink:title=" ">
<polygon fill="white" stroke="#666666" points="1171,-78 1053,-78 1053,-48 1171,-48 1171,-78"/>
<text text-anchor="start" x="1061" y="-66" font-family="Helvetica,sans-Serif" font-size="10.00">evaluate_collision</text>
<text text-anchor="middle" x="1112" y="-55" font-family="Helvetica,sans-Serif" font-size="10.00">_players_palm_trees</text>
</a>
</g>
</g>
<!-- Node12&#45;&gt;Node13 -->
<g id="edge13_Node000012_Node000013" class="edge">
<title>Node12&#45;&gt;Node13</title>
<g id="a_edge13_Node000012_Node000013"><a xlink:title=" ">
<path fill="none" stroke="#63b8ff" d="M1206.54,-63C1194.82,-63 1182.68,-63 1171.19,-63"/>
<polygon fill="#63b8ff" stroke="#63b8ff" points="1206.71,-66.5 1216.71,-63 1206.71,-59.5 1206.71,-66.5"/>
</a>
</g>
</g>
<!-- Node14 -->
<g id="Node000014" class="node">
<title>Node14</title>
<g id="a_Node000014"><a xlink:href="render__courses_8c.html#a428cc27389999396856d940f3c74b2bc" target="_top" xlink:title=" ">
<polygon fill="white" stroke="#666666" points="991.5,-74.5 899.5,-74.5 899.5,-55.5 991.5,-55.5 991.5,-74.5"/>
<text text-anchor="middle" x="945.5" y="-62.5" font-family="Helvetica,sans-Serif" font-size="10.00">func_802966A0</text>
</a>
</g>
</g>
<!-- Node13&#45;&gt;Node14 -->
<g id="edge14_Node000013_Node000014" class="edge">
<title>Node13&#45;&gt;Node14</title>
<g id="a_edge14_Node000013_Node000014"><a xlink:title=" ">
<path fill="none" stroke="#63b8ff" d="M1042.53,-63.83C1025.34,-64.04 1007.31,-64.26 991.58,-64.45"/>
<polygon fill="#63b8ff" stroke="#63b8ff" points="1042.58,-67.33 1052.54,-63.71 1042.5,-60.33 1042.58,-67.33"/>
</a>
</g>
</g>
<!-- Node14&#45;&gt;Node5 -->
<g id="edge18_Node000014_Node000005" class="edge">
<title>Node14&#45;&gt;Node5</title>
<g id="a_edge18_Node000014_Node000005"><a xlink:title=" ">
<path fill="none" stroke="#63b8ff" d="M897.85,-77.18C877.65,-82.46 854.35,-88.54 835.45,-93.48"/>
<polygon fill="#63b8ff" stroke="#63b8ff" points="898.99,-80.5 907.78,-74.59 897.22,-73.73 898.99,-80.5"/>
</a>
</g>
</g>
<!-- Node15 -->
<g id="Node000015" class="node">
<title>Node15</title>
<g id="a_Node000015"><a xlink:href="code__80280000_8c.html#a4d9b0156b64d7a67e4cb21cde391ca43" target="_top" xlink:title=" ">
<polygon fill="white" stroke="#666666" points="843.5,-74.5 752.5,-74.5 752.5,-55.5 843.5,-55.5 843.5,-74.5"/>
<text text-anchor="middle" x="798" y="-62.5" font-family="Helvetica,sans-Serif" font-size="10.00">func_80280000</text>
</a>
</g>
</g>
<!-- Node14&#45;&gt;Node15 -->
<g id="edge15_Node000014_Node000015" class="edge">
<title>Node14&#45;&gt;Node15</title>
<g id="a_edge15_Node000014_Node000015"><a xlink:title=" ">
<path fill="none" stroke="#63b8ff" d="M889.08,-65C874.08,-65 858.04,-65 843.71,-65"/>
<polygon fill="#63b8ff" stroke="#63b8ff" points="889.26,-68.5 899.26,-65 889.26,-61.5 889.26,-68.5"/>
</a>
</g>
</g>
<!-- Node16 -->
<g id="Node000016" class="node">
<title>Node16</title>
<g id="a_Node000016"><a xlink:href="code__80280000_8c.html#aa28a69be4eda3b8667366c6c7b556024" target="_top" xlink:title=" ">
<polygon fill="white" stroke="#666666" points="716,-74.5 640,-74.5 640,-55.5 716,-55.5 716,-74.5"/>
<text text-anchor="middle" x="678" y="-62.5" font-family="Helvetica,sans-Serif" font-size="10.00">credits_loop</text>
</a>
</g>
</g>
<!-- Node15&#45;&gt;Node16 -->
<g id="edge16_Node000015_Node000016" class="edge">
<title>Node15&#45;&gt;Node16</title>
<g id="a_edge16_Node000015_Node000016"><a xlink:title=" ">
<path fill="none" stroke="#63b8ff" d="M742.22,-65C733.46,-65 724.59,-65 716.36,-65"/>
<polygon fill="#63b8ff" stroke="#63b8ff" points="742.39,-68.5 752.39,-65 742.39,-61.5 742.39,-68.5"/>
</a>
</g>
</g>
<!-- Node16&#45;&gt;Node6 -->
<g id="edge17_Node000016_Node000006" class="edge">
<title>Node16&#45;&gt;Node6</title>
<g id="a_edge17_Node000016_Node000006"><a xlink:title=" ">
<path fill="none" stroke="#63b8ff" d="M629.83,-71.89C621.49,-73.11 612.72,-74.39 604.14,-75.65"/>
<polygon fill="#63b8ff" stroke="#63b8ff" points="630.36,-75.35 639.75,-70.44 629.35,-68.43 630.36,-75.35"/>
</a>
</g>
</g>
</g>
</svg>
