<?xml version="1.0" encoding="UTF-8" standalone="no"?>
<!DOCTYPE svg PUBLIC "-//W3C//DTD SVG 1.1//EN"
 "http://www.w3.org/Graphics/SVG/1.1/DTD/svg11.dtd">
<!-- Generated by graphviz version 2.43.0 (0)
 -->
<!-- Title: init_triple_shell Pages: 1 -->
<svg width="1669pt" height="250pt"
 viewBox="0.00 0.00 1669.00 249.85" xmlns="http://www.w3.org/2000/svg" xmlns:xlink="http://www.w3.org/1999/xlink">
<g id="graph0" class="graph" transform="scale(1 1) rotate(0) translate(4 245.85)">
<title>init_triple_shell</title>
<!-- Node1 -->
<g id="Node000001" class="node">
<title>Node1</title>
<g id="a_Node000001"><a xlink:title=" ">
<polygon fill="#999999" stroke="#666666" points="92,-74 0,-74 0,-55 92,-55 92,-74"/>
<text text-anchor="middle" x="46" y="-62" font-family="Helvetica,sans-Serif" font-size="10.00">init_triple_shell</text>
</a>
</g>
</g>
<!-- Node2 -->
<g id="Node000002" class="node">
<title>Node2</title>
<g id="a_Node000002"><a xlink:href="actors_8c.html#a91fb2e4e37e7c72fea918fe2c1bb4eaf" target="_top" xlink:title=" ">
<polygon fill="white" stroke="#666666" points="274,-150 134,-150 134,-131 274,-131 274,-150"/>
<text text-anchor="middle" x="204" y="-138" font-family="Helvetica,sans-Serif" font-size="10.00">add_actor_to_empty_slot</text>
</a>
</g>
</g>
<!-- Node1&#45;&gt;Node2 -->
<g id="edge1_Node000001_Node000002" class="edge">
<title>Node1&#45;&gt;Node2</title>
<g id="a_edge1_Node000001_Node000002"><a xlink:title=" ">
<path fill="none" stroke="#63b8ff" d="M66.76,-74.13C93.95,-87.37 143.09,-111.31 174.33,-126.53"/>
<polygon fill="#63b8ff" stroke="#63b8ff" points="172.88,-129.72 183.4,-130.95 175.95,-123.43 172.88,-129.72"/>
</a>
</g>
</g>
<!-- Node25 -->
<g id="Node000025" class="node">
<title>Node25</title>
<g id="a_Node000025"><a xlink:href="collision_8c.html#a0724869c38f177efa5357ac2205857d4" target="_top" xlink:title=" ">
<polygon fill="white" stroke="#666666" points="250.5,-93 157.5,-93 157.5,-74 250.5,-74 250.5,-93"/>
<text text-anchor="middle" x="204" y="-81" font-family="Helvetica,sans-Serif" font-size="10.00">func_802AD950</text>
</a>
</g>
</g>
<!-- Node1&#45;&gt;Node25 -->
<g id="edge27_Node000001_Node000025" class="edge">
<title>Node1&#45;&gt;Node25</title>
<g id="a_edge27_Node000001_Node000025"><a xlink:title=" ">
<path fill="none" stroke="#63b8ff" d="M92.12,-70C109.35,-72.09 129.2,-74.51 147.3,-76.72"/>
<polygon fill="#63b8ff" stroke="#63b8ff" points="147.09,-80.22 157.44,-77.95 147.94,-73.27 147.09,-80.22"/>
</a>
</g>
</g>
<!-- Node29 -->
<g id="Node000029" class="node">
<title>Node29</title>
<g id="a_Node000029"><a xlink:href="actors__extended_8c.html#a78e98c146f1f4dd6e3608016486172a4" target="_top" xlink:title=" ">
<polygon fill="white" stroke="#666666" points="250,-56 158,-56 158,-37 250,-37 250,-56"/>
<text text-anchor="middle" x="204" y="-44" font-family="Helvetica,sans-Serif" font-size="10.00">func_802B4E30</text>
</a>
</g>
</g>
<!-- Node1&#45;&gt;Node29 -->
<g id="edge31_Node000001_Node000029" class="edge">
<title>Node1&#45;&gt;Node29</title>
<g id="a_edge31_Node000001_Node000029"><a xlink:title=" ">
<path fill="none" stroke="#63b8ff" d="M92.12,-59.29C109.58,-57.28 129.74,-54.95 148.04,-52.84"/>
<polygon fill="#63b8ff" stroke="#63b8ff" points="148.45,-56.32 157.98,-51.69 147.64,-49.36 148.45,-56.32"/>
</a>
</g>
</g>
<!-- Node30 -->
<g id="Node000030" class="node">
<title>Node30</title>
<g id="a_Node000030"><a xlink:href="math__util_8c.html#ad5bb0138c68b50f119d3cb7966f522b7" target="_top" xlink:title=" ">
<polygon fill="white" stroke="#666666" points="280,-19 128,-19 128,0 280,0 280,-19"/>
<text text-anchor="middle" x="204" y="-7" font-family="Helvetica,sans-Serif" font-size="10.00">mtxf_translate_vec3f_mat3</text>
</a>
</g>
</g>
<!-- Node1&#45;&gt;Node30 -->
<g id="edge32_Node000001_Node000030" class="edge">
<title>Node1&#45;&gt;Node30</title>
<g id="a_edge32_Node000001_Node000030"><a xlink:title=" ">
<path fill="none" stroke="#63b8ff" d="M65.24,-54.93C81.39,-46.77 105.78,-35.16 128,-27.5 134.06,-25.41 140.49,-23.47 146.92,-21.7"/>
<polygon fill="#63b8ff" stroke="#63b8ff" points="148.2,-24.98 156.98,-19.06 146.42,-18.21 148.2,-24.98"/>
</a>
</g>
</g>
<!-- Node3 -->
<g id="Node000003" class="node">
<title>Node3</title>
<g id="a_Node000003"><a xlink:href="actors_8c.html#a39c023177b5a7686cdd1fc65b8b953e1" target="_top" xlink:title=" ">
<polygon fill="white" stroke="#666666" points="557,-138 495,-138 495,-119 557,-119 557,-138"/>
<text text-anchor="middle" x="526" y="-126" font-family="Helvetica,sans-Serif" font-size="10.00">actor_init</text>
</a>
</g>
</g>
<!-- Node2&#45;&gt;Node3 -->
<g id="edge2_Node000002_Node000003" class="edge">
<title>Node2&#45;&gt;Node3</title>
<g id="a_edge2_Node000002_Node000003"><a xlink:title=" ">
<path fill="none" stroke="#63b8ff" d="M274.04,-137.91C338.29,-135.5 431.84,-131.99 484.7,-130.01"/>
<polygon fill="#63b8ff" stroke="#63b8ff" points="484.84,-133.51 494.71,-129.64 484.58,-126.51 484.84,-133.51"/>
</a>
</g>
</g>
<!-- Node24 -->
<g id="Node000024" class="node">
<title>Node24</title>
<g id="a_Node000024"><a xlink:href="actors_8c.html#a0c9d11d8956bf92c32a5e9bafd7036e6" target="_top" xlink:title=" ">
<polygon fill="white" stroke="#666666" points="433,-212 342,-212 342,-193 433,-193 433,-212"/>
<text text-anchor="middle" x="387.5" y="-200" font-family="Helvetica,sans-Serif" font-size="10.00">func_8029E890</text>
</a>
</g>
</g>
<!-- Node2&#45;&gt;Node24 -->
<g id="edge23_Node000002_Node000024" class="edge">
<title>Node2&#45;&gt;Node24</title>
<g id="a_edge23_Node000002_Node000024"><a xlink:title=" ">
<path fill="none" stroke="#63b8ff" d="M232.96,-150.05C264,-160.66 314.27,-177.83 348.78,-189.62"/>
<polygon fill="#63b8ff" stroke="#63b8ff" points="347.91,-193.02 358.51,-192.94 350.17,-186.39 347.91,-193.02"/>
</a>
</g>
</g>
<!-- Node4 -->
<g id="Node000004" class="node">
<title>Node4</title>
<g id="a_Node000004"><a xlink:href="actors_8c.html#a1a9bccb586242555a9123ebd4ab70f2a" target="_top" xlink:title=" ">
<polygon fill="white" stroke="#666666" points="725,-186.5 593,-186.5 593,-156.5 725,-156.5 725,-186.5"/>
<text text-anchor="start" x="601" y="-174.5" font-family="Helvetica,sans-Serif" font-size="10.00">cleanup_red_and_green</text>
<text text-anchor="middle" x="659" y="-163.5" font-family="Helvetica,sans-Serif" font-size="10.00">_shells</text>
</a>
</g>
</g>
<!-- Node3&#45;&gt;Node4 -->
<g id="edge3_Node000003_Node000004" class="edge">
<title>Node3&#45;&gt;Node4</title>
<g id="a_edge3_Node000003_Node000004"><a xlink:title=" ">
<path fill="none" stroke="#63b8ff" d="M556.07,-138.04C569.74,-142.53 586.52,-148.04 602.48,-153.28"/>
<polygon fill="#63b8ff" stroke="#63b8ff" points="601.69,-156.7 612.28,-156.49 603.87,-150.05 601.69,-156.7"/>
</a>
</g>
</g>
<!-- Node16 -->
<g id="Node000016" class="node">
<title>Node16</title>
<g id="a_Node000016"><a xlink:href="collision_8c.html#ad72fef3ffe32191d73b1822f512ebf3f" target="_top" xlink:title=" ">
<polygon fill="white" stroke="#666666" points="706.5,-138 611.5,-138 611.5,-119 706.5,-119 706.5,-138"/>
<text text-anchor="middle" x="659" y="-126" font-family="Helvetica,sans-Serif" font-size="10.00">func_802AAAAC</text>
</a>
</g>
</g>
<!-- Node3&#45;&gt;Node16 -->
<g id="edge15_Node000003_Node000016" class="edge">
<title>Node3&#45;&gt;Node16</title>
<g id="a_edge15_Node000003_Node000016"><a xlink:title=" ">
<path fill="none" stroke="#63b8ff" d="M557.05,-128.5C570.13,-128.5 585.9,-128.5 601.04,-128.5"/>
<polygon fill="#63b8ff" stroke="#63b8ff" points="601.39,-132 611.39,-128.5 601.39,-125 601.39,-132"/>
</a>
</g>
</g>
<!-- Node18 -->
<g id="Node000018" class="node">
<title>Node18</title>
<g id="a_Node000018"><a xlink:href="collision_8c.html#a365367628b7140a7a880beeecce9c305" target="_top" xlink:title=" ">
<polygon fill="white" stroke="#666666" points="706.5,-101 611.5,-101 611.5,-82 706.5,-82 706.5,-101"/>
<text text-anchor="middle" x="659" y="-89" font-family="Helvetica,sans-Serif" font-size="10.00">func_802ADDC8</text>
</a>
</g>
</g>
<!-- Node3&#45;&gt;Node18 -->
<g id="edge17_Node000003_Node000018" class="edge">
<title>Node3&#45;&gt;Node18</title>
<g id="a_edge17_Node000003_Node000018"><a xlink:title=" ">
<path fill="none" stroke="#63b8ff" d="M557.05,-120.01C573.96,-115.24 595.37,-109.19 614.12,-103.89"/>
<polygon fill="#63b8ff" stroke="#63b8ff" points="615.26,-107.21 623.93,-101.12 613.35,-100.47 615.26,-107.21"/>
</a>
</g>
</g>
<!-- Node22 -->
<g id="Node000022" class="node">
<title>Node22</title>
<g id="a_Node000022"><a xlink:href="math__util_8c.html#af7b470ed76fce07b8042a47c96e5690b" target="_top" xlink:title=" ">
<polygon fill="white" stroke="#666666" points="712.5,-64 605.5,-64 605.5,-45 712.5,-45 712.5,-64"/>
<text text-anchor="middle" x="659" y="-52" font-family="Helvetica,sans-Serif" font-size="10.00">vec3f_copy_return</text>
</a>
</g>
</g>
<!-- Node3&#45;&gt;Node22 -->
<g id="edge21_Node000003_Node000022" class="edge">
<title>Node3&#45;&gt;Node22</title>
<g id="a_edge21_Node000003_Node000022"><a xlink:title=" ">
<path fill="none" stroke="#63b8ff" d="M535.93,-118.94C547.84,-106.73 570.1,-85.7 593,-73.5 597.19,-71.27 601.67,-69.27 606.26,-67.48"/>
<polygon fill="#63b8ff" stroke="#63b8ff" points="607.49,-70.76 615.74,-64.11 605.14,-64.16 607.49,-70.76"/>
</a>
</g>
</g>
<!-- Node23 -->
<g id="Node000023" class="node">
<title>Node23</title>
<g id="a_Node000023"><a xlink:href="math__util_8c.html#a0e270ee67600c8c9c2f140c647d008a1" target="_top" xlink:title=" ">
<polygon fill="white" stroke="#666666" points="696,-27 622,-27 622,-8 696,-8 696,-27"/>
<text text-anchor="middle" x="659" y="-15" font-family="Helvetica,sans-Serif" font-size="10.00">vec3s_copy</text>
</a>
</g>
</g>
<!-- Node3&#45;&gt;Node23 -->
<g id="edge22_Node000003_Node000023" class="edge">
<title>Node3&#45;&gt;Node23</title>
<g id="a_edge22_Node000003_Node000023"><a xlink:title=" ">
<path fill="none" stroke="#63b8ff" d="M531.07,-118.95C539.65,-100.03 561.4,-57.68 593,-35.5 598.73,-31.48 605.33,-28.35 612.08,-25.93"/>
<polygon fill="#63b8ff" stroke="#63b8ff" points="613.49,-29.15 622,-22.84 611.41,-22.47 613.49,-29.15"/>
</a>
</g>
</g>
<!-- Node5 -->
<g id="Node000005" class="node">
<title>Node5</title>
<g id="a_Node000005"><a xlink:href="actors_8c.html#a694ec6ef7548b8618aeb35c038d3a9b9" target="_top" xlink:title=" ">
<polygon fill="white" stroke="#666666" points="878.5,-178 795.5,-178 795.5,-159 878.5,-159 878.5,-178"/>
<text text-anchor="middle" x="837" y="-166" font-family="Helvetica,sans-Serif" font-size="10.00">destroy_actor</text>
</a>
</g>
</g>
<!-- Node4&#45;&gt;Node5 -->
<g id="edge4_Node000004_Node000005" class="edge">
<title>Node4&#45;&gt;Node5</title>
<g id="a_edge4_Node000004_Node000005"><a xlink:title=" ">
<path fill="none" stroke="#63b8ff" d="M725.04,-170.39C744.95,-170.05 766.55,-169.68 785.35,-169.36"/>
<polygon fill="#63b8ff" stroke="#63b8ff" points="785.54,-172.86 795.48,-169.19 785.42,-165.86 785.54,-172.86"/>
</a>
</g>
</g>
<!-- Node15 -->
<g id="Node000015" class="node">
<title>Node15</title>
<g id="a_Node000015"><a xlink:href="code__80005FD0_8c.html#acb7b3d384c78d219f4b7040e78f6a2f2" target="_top" xlink:title=" ">
<polygon fill="white" stroke="#666666" points="913,-226.5 761,-226.5 761,-196.5 913,-196.5 913,-226.5"/>
<text text-anchor="start" x="769" y="-214.5" font-family="Helvetica,sans-Serif" font-size="10.00">remove_actor_in_unexpired</text>
<text text-anchor="middle" x="837" y="-203.5" font-family="Helvetica,sans-Serif" font-size="10.00">_actor_list</text>
</a>
</g>
</g>
<!-- Node4&#45;&gt;Node15 -->
<g id="edge14_Node000004_Node000015" class="edge">
<title>Node4&#45;&gt;Node15</title>
<g id="a_edge14_Node000004_Node000015"><a xlink:title=" ">
<path fill="none" stroke="#63b8ff" d="M725.04,-186.28C736.32,-188.85 748.15,-191.53 759.7,-194.16"/>
<polygon fill="#63b8ff" stroke="#63b8ff" points="759.23,-197.64 769.76,-196.45 760.79,-190.82 759.23,-197.64"/>
</a>
</g>
</g>
<!-- Node6 -->
<g id="Node000006" class="node">
<title>Node6</title>
<g id="a_Node000006"><a xlink:href="actors_8c.html#ad5a56c8f7eaf719223099cce9e38ec9f" target="_top" xlink:title=" ">
<polygon fill="white" stroke="#666666" points="1100,-221 949,-221 949,-202 1100,-202 1100,-221"/>
<text text-anchor="middle" x="1024.5" y="-209" font-family="Helvetica,sans-Serif" font-size="10.00">play_sound_before_destroy</text>
</a>
</g>
</g>
<!-- Node5&#45;&gt;Node6 -->
<g id="edge5_Node000005_Node000006" class="edge">
<title>Node5&#45;&gt;Node6</title>
<g id="a_edge5_Node000005_Node000006"><a xlink:title=" ">
<path fill="none" stroke="#63b8ff" d="M878.71,-177.94C906.18,-184.31 942.67,-192.76 972.14,-199.59"/>
<polygon fill="#63b8ff" stroke="#63b8ff" points="971.71,-203.09 982.25,-201.94 973.29,-196.27 971.71,-203.09"/>
</a>
</g>
</g>
<!-- Node7 -->
<g id="Node000007" class="node">
<title>Node7</title>
<g id="a_Node000007"><a xlink:href="external_8c.html#ae72057869772019e4464c87d4e16c682" target="_top" xlink:title=" ">
<polygon fill="white" stroke="#666666" points="1228,-221 1136,-221 1136,-202 1228,-202 1228,-221"/>
<text text-anchor="middle" x="1182" y="-209" font-family="Helvetica,sans-Serif" font-size="10.00">func_800C99E0</text>
</a>
</g>
</g>
<!-- Node6&#45;&gt;Node7 -->
<g id="edge6_Node000006_Node000007" class="edge">
<title>Node6&#45;&gt;Node7</title>
<g id="a_edge6_Node000006_Node000007"><a xlink:title=" ">
<path fill="none" stroke="#63b8ff" d="M1100.06,-211.5C1108.61,-211.5 1117.21,-211.5 1125.45,-211.5"/>
<polygon fill="#63b8ff" stroke="#63b8ff" points="1125.66,-215 1135.66,-211.5 1125.66,-208 1125.66,-215"/>
</a>
</g>
</g>
<!-- Node8 -->
<g id="Node000008" class="node">
<title>Node8</title>
<g id="a_Node000008"><a xlink:href="external_8c.html#aeb87c527482a244173df36a1f3d4f446" target="_top" xlink:title=" ">
<polygon fill="white" stroke="#666666" points="1356,-240 1264,-240 1264,-221 1356,-221 1356,-240"/>
<text text-anchor="middle" x="1310" y="-228" font-family="Helvetica,sans-Serif" font-size="10.00">func_800C21E8</text>
</a>
</g>
</g>
<!-- Node7&#45;&gt;Node8 -->
<g id="edge7_Node000007_Node000008" class="edge">
<title>Node7&#45;&gt;Node8</title>
<g id="a_edge7_Node000007_Node000008"><a xlink:title=" ">
<path fill="none" stroke="#63b8ff" d="M1228.13,-218.31C1236.46,-219.56 1245.23,-220.88 1253.81,-222.18"/>
<polygon fill="#63b8ff" stroke="#63b8ff" points="1253.35,-225.65 1263.76,-223.68 1254.39,-218.73 1253.35,-225.65"/>
</a>
</g>
</g>
<!-- Node9 -->
<g id="Node000009" class="node">
<title>Node9</title>
<g id="a_Node000009"><a xlink:href="external_8c.html#a028d40421b90c38f68ebfd5acc626f2e" target="_top" xlink:title=" ">
<polygon fill="white" stroke="#666666" points="1356,-203 1264,-203 1264,-184 1356,-184 1356,-203"/>
<text text-anchor="middle" x="1310" y="-191" font-family="Helvetica,sans-Serif" font-size="10.00">func_800C5578</text>
</a>
</g>
</g>
<!-- Node7&#45;&gt;Node9 -->
<g id="edge8_Node000007_Node000009" class="edge">
<title>Node7&#45;&gt;Node9</title>
<g id="a_edge8_Node000007_Node000009"><a xlink:title=" ">
<path fill="none" stroke="#63b8ff" d="M1228.13,-205.05C1236.46,-203.86 1245.23,-202.61 1253.81,-201.38"/>
<polygon fill="#63b8ff" stroke="#63b8ff" points="1254.35,-204.84 1263.76,-199.96 1253.36,-197.91 1254.35,-204.84"/>
</a>
</g>
</g>
<!-- Node10 -->
<g id="Node000010" class="node">
<title>Node10</title>
<g id="a_Node000010"><a xlink:href="external_8c.html#ac0fb767de7e14a03f1bcfa53f0abd23b" target="_top" xlink:title=" ">
<polygon fill="white" stroke="#666666" points="1532,-240 1392,-240 1392,-221 1532,-221 1532,-240"/>
<text text-anchor="middle" x="1462" y="-228" font-family="Helvetica,sans-Serif" font-size="10.00">delete_sound_from_bank</text>
</a>
</g>
</g>
<!-- Node9&#45;&gt;Node10 -->
<g id="edge9_Node000009_Node000010" class="edge">
<title>Node9&#45;&gt;Node10</title>
<g id="a_edge9_Node000009_Node000010"><a xlink:title=" ">
<path fill="none" stroke="#63b8ff" d="M1349.63,-203.03C1368.8,-207.76 1392.16,-213.52 1412.52,-218.54"/>
<polygon fill="#63b8ff" stroke="#63b8ff" points="1411.69,-221.94 1422.24,-220.94 1413.37,-215.15 1411.69,-221.94"/>
</a>
</g>
</g>
<!-- Node12 -->
<g id="Node000012" class="node">
<title>Node12</title>
<g id="a_Node000012"><a xlink:href="external_8c.html#ab83bd36e63f0f1baddcb2482b5ad31b0" target="_top" xlink:title=" ">
<polygon fill="white" stroke="#666666" points="1508.5,-203 1415.5,-203 1415.5,-184 1508.5,-184 1508.5,-203"/>
<text text-anchor="middle" x="1462" y="-191" font-family="Helvetica,sans-Serif" font-size="10.00">func_800C41CC</text>
</a>
</g>
</g>
<!-- Node9&#45;&gt;Node12 -->
<g id="edge11_Node000009_Node000012" class="edge">
<title>Node9&#45;&gt;Node12</title>
<g id="a_edge11_Node000009_Node000012"><a xlink:title=" ">
<path fill="none" stroke="#63b8ff" d="M1356,-193.5C1371.37,-193.5 1388.74,-193.5 1404.86,-193.5"/>
<polygon fill="#63b8ff" stroke="#63b8ff" points="1405.25,-197 1415.25,-193.5 1405.25,-190 1405.25,-197"/>
</a>
</g>
</g>
<!-- Node13 -->
<g id="Node000013" class="node">
<title>Node13</title>
<g id="a_Node000013"><a xlink:href="port__eu_8c.html#aa89dfaecca46c6d071f08c1898d1f7c9" target="_top" xlink:title=" ">
<polygon fill="white" stroke="#666666" points="1508.5,-166 1415.5,-166 1415.5,-147 1508.5,-147 1508.5,-166"/>
<text text-anchor="middle" x="1462" y="-154" font-family="Helvetica,sans-Serif" font-size="10.00">func_800CBBE8</text>
</a>
</g>
</g>
<!-- Node9&#45;&gt;Node13 -->
<g id="edge12_Node000009_Node000013" class="edge">
<title>Node9&#45;&gt;Node13</title>
<g id="a_edge12_Node000009_Node000013"><a xlink:title=" ">
<path fill="none" stroke="#63b8ff" d="M1349.63,-183.97C1368.8,-179.24 1392.16,-173.48 1412.52,-168.46"/>
<polygon fill="#63b8ff" stroke="#63b8ff" points="1413.37,-171.85 1422.24,-166.06 1411.69,-165.06 1413.37,-171.85"/>
</a>
</g>
</g>
<!-- Node11 -->
<g id="Node000011" class="node">
<title>Node11</title>
<g id="a_Node000011"><a xlink:href="external_8c.html#a358ac55e8ab5262dcae8037334be06d7" target="_top" xlink:title=" ">
<polygon fill="white" stroke="#666666" points="1660.5,-240 1568.5,-240 1568.5,-221 1660.5,-221 1660.5,-240"/>
<text text-anchor="middle" x="1614.5" y="-228" font-family="Helvetica,sans-Serif" font-size="10.00">func_800C40F0</text>
</a>
</g>
</g>
<!-- Node10&#45;&gt;Node11 -->
<g id="edge10_Node000010_Node000011" class="edge">
<title>Node10&#45;&gt;Node11</title>
<g id="a_edge10_Node000010_Node000011"><a xlink:title=" ">
<path fill="none" stroke="#63b8ff" d="M1532.08,-230.5C1540.87,-230.5 1549.78,-230.5 1558.31,-230.5"/>
<polygon fill="#63b8ff" stroke="#63b8ff" points="1558.5,-234 1568.5,-230.5 1558.5,-227 1558.5,-234"/>
</a>
</g>
</g>
<!-- Node14 -->
<g id="Node000014" class="node">
<title>Node14</title>
<g id="a_Node000014"><a xlink:href="port__eu_8c.html#af361a20d2e08f30c53a237ca481ff734" target="_top" xlink:title=" ">
<polygon fill="white" stroke="#666666" points="1661,-166 1568,-166 1568,-147 1661,-147 1661,-166"/>
<text text-anchor="middle" x="1614.5" y="-154" font-family="Helvetica,sans-Serif" font-size="10.00">func_800CBB48</text>
</a>
</g>
</g>
<!-- Node13&#45;&gt;Node14 -->
<g id="edge13_Node000013_Node000014" class="edge">
<title>Node13&#45;&gt;Node14</title>
<g id="a_edge13_Node000013_Node000014"><a xlink:title=" ">
<path fill="none" stroke="#63b8ff" d="M1508.56,-156.5C1523.96,-156.5 1541.34,-156.5 1557.46,-156.5"/>
<polygon fill="#63b8ff" stroke="#63b8ff" points="1557.83,-160 1567.83,-156.5 1557.83,-153 1557.83,-160"/>
</a>
</g>
</g>
<!-- Node17 -->
<g id="Node000017" class="node">
<title>Node17</title>
<g id="a_Node000017"><a xlink:href="math__util_8c.html#a79fd07a0971ec96a3ff0801963a2fa7f" target="_top" xlink:title=" ">
<polygon fill="white" stroke="#666666" points="869,-141 805,-141 805,-122 869,-122 869,-141"/>
<text text-anchor="middle" x="837" y="-129" font-family="Helvetica,sans-Serif" font-size="10.00">vec3f_set</text>
</a>
</g>
</g>
<!-- Node16&#45;&gt;Node17 -->
<g id="edge16_Node000016_Node000017" class="edge">
<title>Node16&#45;&gt;Node17</title>
<g id="a_edge16_Node000016_Node000017"><a xlink:title=" ">
<path fill="none" stroke="#63b8ff" d="M706.7,-129.3C734.12,-129.76 768.46,-130.35 794.86,-130.8"/>
<polygon fill="#63b8ff" stroke="#63b8ff" points="794.86,-134.3 804.92,-130.97 794.98,-127.3 794.86,-134.3"/>
</a>
</g>
</g>
<!-- Node19 -->
<g id="Node000019" class="node">
<title>Node19</title>
<g id="a_Node000019"><a xlink:href="collision_8c.html#afce45acb8da354da0a5b501003be1aef" target="_top" xlink:title=" ">
<polygon fill="white" stroke="#666666" points="883.5,-104 790.5,-104 790.5,-85 883.5,-85 883.5,-104"/>
<text text-anchor="middle" x="837" y="-92" font-family="Helvetica,sans-Serif" font-size="10.00">func_802AAE4C</text>
</a>
</g>
</g>
<!-- Node18&#45;&gt;Node19 -->
<g id="edge18_Node000018_Node000019" class="edge">
<title>Node18&#45;&gt;Node19</title>
<g id="a_edge18_Node000018_Node000019"><a xlink:title=" ">
<path fill="none" stroke="#63b8ff" d="M706.7,-92.3C729.24,-92.68 756.44,-93.14 780.07,-93.55"/>
<polygon fill="#63b8ff" stroke="#63b8ff" points="780.24,-97.05 790.3,-93.72 780.36,-90.05 780.24,-97.05"/>
</a>
</g>
</g>
<!-- Node20 -->
<g id="Node000020" class="node">
<title>Node20</title>
<g id="a_Node000020"><a xlink:href="collision_8c.html#adcc608ea0eae3bf9a27ab79ec64b4899" target="_top" xlink:title=" ">
<polygon fill="white" stroke="#666666" points="883,-67 791,-67 791,-48 883,-48 883,-67"/>
<text text-anchor="middle" x="837" y="-55" font-family="Helvetica,sans-Serif" font-size="10.00">func_802AB288</text>
</a>
</g>
</g>
<!-- Node18&#45;&gt;Node20 -->
<g id="edge19_Node000018_Node000020" class="edge">
<title>Node18&#45;&gt;Node20</title>
<g id="a_edge19_Node000018_Node000020"><a xlink:title=" ">
<path fill="none" stroke="#63b8ff" d="M706.7,-82.48C729.51,-78.07 757.11,-72.74 780.95,-68.14"/>
<polygon fill="#63b8ff" stroke="#63b8ff" points="781.75,-71.54 790.9,-66.21 780.42,-64.67 781.75,-71.54"/>
</a>
</g>
</g>
<!-- Node21 -->
<g id="Node000021" class="node">
<title>Node21</title>
<g id="a_Node000021"><a xlink:href="collision_8c.html#ab440aa3fc960b7b4b5ad8e4bcaa06b00" target="_top" xlink:title=" ">
<polygon fill="white" stroke="#666666" points="883.5,-30 790.5,-30 790.5,-11 883.5,-11 883.5,-30"/>
<text text-anchor="middle" x="837" y="-18" font-family="Helvetica,sans-Serif" font-size="10.00">func_802AB6C4</text>
</a>
</g>
</g>
<!-- Node18&#45;&gt;Node21 -->
<g id="edge20_Node000018_Node000021" class="edge">
<title>Node18&#45;&gt;Node21</title>
<g id="a_edge20_Node000018_Node000021"><a xlink:title=" ">
<path fill="none" stroke="#63b8ff" d="M705.93,-81.92C712.55,-79.65 719.11,-76.88 725,-73.5 744.36,-62.4 741.45,-49.27 761,-38.5 766.99,-35.2 773.57,-32.5 780.28,-30.3"/>
<polygon fill="#63b8ff" stroke="#63b8ff" points="781.52,-33.58 790.13,-27.4 779.55,-26.86 781.52,-33.58"/>
</a>
</g>
</g>
<!-- Node24&#45;&gt;Node3 -->
<g id="edge24_Node000024_Node000003" class="edge">
<title>Node24&#45;&gt;Node3</title>
<g id="a_edge24_Node000024_Node000003"><a xlink:title=" ">
<path fill="none" stroke="#63b8ff" d="M406.07,-192.98C429.38,-180.34 470.78,-157.89 498.06,-143.1"/>
<polygon fill="#63b8ff" stroke="#63b8ff" points="499.95,-146.06 507.07,-138.22 496.61,-139.91 499.95,-146.06"/>
</a>
</g>
</g>
<!-- Node24&#45;&gt;Node6 -->
<g id="edge25_Node000024_Node000006" class="edge">
<title>Node24&#45;&gt;Node6</title>
<g id="a_edge25_Node000024_Node000006"><a xlink:title=" ">
<path fill="none" stroke="#63b8ff" d="M433.17,-210.41C523.83,-225.33 735.87,-254.51 913,-235.5 934.87,-233.15 958.77,-228.26 978.73,-223.5"/>
<polygon fill="#63b8ff" stroke="#63b8ff" points="979.6,-226.89 988.48,-221.11 977.94,-220.09 979.6,-226.89"/>
</a>
</g>
</g>
<!-- Node24&#45;&gt;Node15 -->
<g id="edge26_Node000024_Node000015" class="edge">
<title>Node24&#45;&gt;Node15</title>
<g id="a_edge26_Node000024_Node000015"><a xlink:title=" ">
<path fill="none" stroke="#63b8ff" d="M433.04,-203.4C506.95,-204.88 656.15,-207.88 750.8,-209.79"/>
<polygon fill="#63b8ff" stroke="#63b8ff" points="750.85,-213.29 760.92,-209.99 750.99,-206.29 750.85,-213.29"/>
</a>
</g>
</g>
<!-- Node26 -->
<g id="Node000026" class="node">
<title>Node26</title>
<g id="a_Node000026"><a xlink:href="collision_8c.html#a9ec62ee67d55805a587752d82d66abd8" target="_top" xlink:title=" ">
<polygon fill="white" stroke="#666666" points="459,-37.5 316,-37.5 316,-7.5 459,-7.5 459,-37.5"/>
<text text-anchor="start" x="324" y="-25.5" font-family="Helvetica,sans-Serif" font-size="10.00">is_colliding_with_drivable</text>
<text text-anchor="middle" x="387.5" y="-14.5" font-family="Helvetica,sans-Serif" font-size="10.00">_surface</text>
</a>
</g>
</g>
<!-- Node25&#45;&gt;Node26 -->
<g id="edge28_Node000025_Node000026" class="edge">
<title>Node25&#45;&gt;Node26</title>
<g id="a_edge28_Node000025_Node000026"><a xlink:title=" ">
<path fill="none" stroke="#63b8ff" d="M250.76,-74.44C260.55,-71.98 270.73,-69 280,-65.5 296.93,-59.12 299.39,-53.66 316,-46.5 320.19,-44.7 324.56,-42.93 328.98,-41.23"/>
<polygon fill="#63b8ff" stroke="#63b8ff" points="330.55,-44.39 338.71,-37.63 328.12,-37.82 330.55,-44.39"/>
</a>
</g>
</g>
<!-- Node27 -->
<g id="Node000027" class="node">
<title>Node27</title>
<g id="a_Node000027"><a xlink:href="collision_8c.html#aa77fc5aaa5aa3a6f71ad00bc71b04788" target="_top" xlink:title=" ">
<polygon fill="white" stroke="#666666" points="452,-112 323,-112 323,-93 452,-93 452,-112"/>
<text text-anchor="middle" x="387.5" y="-100" font-family="Helvetica,sans-Serif" font-size="10.00">is_colliding_with_wall1</text>
</a>
</g>
</g>
<!-- Node25&#45;&gt;Node27 -->
<g id="edge29_Node000025_Node000027" class="edge">
<title>Node25&#45;&gt;Node27</title>
<g id="a_edge29_Node000025_Node000027"><a xlink:title=" ">
<path fill="none" stroke="#63b8ff" d="M250.8,-88.29C269.57,-90.26 291.78,-92.58 312.73,-94.78"/>
<polygon fill="#63b8ff" stroke="#63b8ff" points="312.58,-98.28 322.89,-95.84 313.31,-91.32 312.58,-98.28"/>
</a>
</g>
</g>
<!-- Node28 -->
<g id="Node000028" class="node">
<title>Node28</title>
<g id="a_Node000028"><a xlink:href="collision_8c.html#a728bd4102d2ed3ba18d68d39b707c0f4" target="_top" xlink:title=" ">
<polygon fill="white" stroke="#666666" points="452,-75 323,-75 323,-56 452,-56 452,-75"/>
<text text-anchor="middle" x="387.5" y="-63" font-family="Helvetica,sans-Serif" font-size="10.00">is_colliding_with_wall2</text>
</a>
</g>
</g>
<!-- Node25&#45;&gt;Node28 -->
<g id="edge30_Node000025_Node000028" class="edge">
<title>Node25&#45;&gt;Node28</title>
<g id="a_edge30_Node000025_Node000028"><a xlink:title=" ">
<path fill="none" stroke="#63b8ff" d="M250.8,-78.96C269.57,-77.1 291.78,-74.89 312.73,-72.82"/>
<polygon fill="#63b8ff" stroke="#63b8ff" points="313.29,-76.28 322.89,-71.81 312.6,-69.31 313.29,-76.28"/>
</a>
</g>
</g>
</g>
</svg>
