<?xml version="1.0" encoding="UTF-8" standalone="no"?>
<!DOCTYPE svg PUBLIC "-//W3C//DTD SVG 1.1//EN"
 "http://www.w3.org/Graphics/SVG/1.1/DTD/svg11.dtd">
<!-- Generated by graphviz version 2.43.0 (0)
 -->
<!-- Title: func_802B30EC Pages: 1 -->
<svg width="2084pt" height="554pt"
 viewBox="0.00 0.00 2084.00 554.00" xmlns="http://www.w3.org/2000/svg" xmlns:xlink="http://www.w3.org/1999/xlink">
<g id="graph0" class="graph" transform="scale(1 1) rotate(0) translate(4 550)">
<title>func_802B30EC</title>
<!-- Node1 -->
<g id="Node000001" class="node">
<title>Node1</title>
<g id="a_Node000001"><a xlink:title=" ">
<polygon fill="#999999" stroke="#666666" points="92,-263 0,-263 0,-244 92,-244 92,-263"/>
<text text-anchor="middle" x="46" y="-251" font-family="Helvetica,sans-Serif" font-size="10.00">func_802B30EC</text>
</a>
</g>
</g>
<!-- Node2 -->
<g id="Node000002" class="node">
<title>Node2</title>
<g id="a_Node000002"><a xlink:href="effects_8c.html#ad4fd77ec7fb9afc1df9146f9884b11df" target="_top" xlink:title=" ">
<polygon fill="white" stroke="#666666" points="269,-282 128,-282 128,-263 269,-263 269,-282"/>
<text text-anchor="middle" x="198.5" y="-270" font-family="Helvetica,sans-Serif" font-size="10.00">can_player_not_use_item</text>
</a>
</g>
</g>
<!-- Node1&#45;&gt;Node2 -->
<g id="edge1_Node000001_Node000002" class="edge">
<title>Node1&#45;&gt;Node2</title>
<g id="a_edge1_Node000001_Node000002"><a xlink:title=" ">
<path fill="none" stroke="#63b8ff" d="M92.15,-259.2C100.33,-260.23 109.08,-261.34 117.9,-262.45"/>
<polygon fill="#63b8ff" stroke="#63b8ff" points="117.52,-265.93 127.88,-263.71 118.39,-258.99 117.52,-265.93"/>
</a>
</g>
</g>
<!-- Node3 -->
<g id="Node000003" class="node">
<title>Node3</title>
<g id="a_Node000003"><a xlink:href="actors__extended_8c.html#a6c53567ce07da53daa086cb9b09076a1" target="_top" xlink:title=" ">
<polygon fill="white" stroke="#666666" points="247.5,-245 149.5,-245 149.5,-226 247.5,-226 247.5,-245"/>
<text text-anchor="middle" x="198.5" y="-233" font-family="Helvetica,sans-Serif" font-size="10.00">player_use_item</text>
</a>
</g>
</g>
<!-- Node1&#45;&gt;Node3 -->
<g id="edge2_Node000001_Node000003" class="edge">
<title>Node1&#45;&gt;Node3</title>
<g id="a_edge2_Node000001_Node000003"><a xlink:title=" ">
<path fill="none" stroke="#63b8ff" d="M92.15,-248.1C107,-246.32 123.71,-244.32 139.38,-242.45"/>
<polygon fill="#63b8ff" stroke="#63b8ff" points="139.98,-245.9 149.5,-241.24 139.15,-238.95 139.98,-245.9"/>
</a>
</g>
</g>
<!-- Node4 -->
<g id="Node000004" class="node">
<title>Node4</title>
<g id="a_Node000004"><a xlink:href="update__objects_8c.html#abe0750bafe0e01a419bd8a8ad6b59bd5" target="_top" xlink:title=" ">
<polygon fill="white" stroke="#666666" points="418,-453 329,-453 329,-434 418,-434 418,-453"/>
<text text-anchor="middle" x="373.5" y="-441" font-family="Helvetica,sans-Serif" font-size="10.00">consume_item</text>
</a>
</g>
</g>
<!-- Node3&#45;&gt;Node4 -->
<g id="edge3_Node000003_Node000004" class="edge">
<title>Node3&#45;&gt;Node4</title>
<g id="a_edge3_Node000003_Node000004"><a xlink:title=" ">
<path fill="none" stroke="#63b8ff" d="M247.68,-241.92C255.54,-244.75 263.04,-248.78 269,-254.5 307.04,-290.99 278.93,-321.69 305,-367.5 317.96,-390.28 338.6,-412.2 353.64,-426.6"/>
<polygon fill="#63b8ff" stroke="#63b8ff" points="351.64,-429.52 361.34,-433.78 356.42,-424.4 351.64,-429.52"/>
</a>
</g>
</g>
<!-- Node11 -->
<g id="Node000011" class="node">
<title>Node11</title>
<g id="a_Node000011"><a xlink:href="actors__extended_8c.html#a88021e28f51eed86867e22b5aae7e252" target="_top" xlink:title=" ">
<polygon fill="white" stroke="#666666" points="442,-321 305,-321 305,-302 442,-302 442,-321"/>
<text text-anchor="middle" x="373.5" y="-309" font-family="Helvetica,sans-Serif" font-size="10.00">use_banana_bunch_item</text>
</a>
</g>
</g>
<!-- Node3&#45;&gt;Node11 -->
<g id="edge11_Node000003_Node000011" class="edge">
<title>Node3&#45;&gt;Node11</title>
<g id="a_edge11_Node000003_Node000011"><a xlink:title=" ">
<path fill="none" stroke="#63b8ff" d="M246.31,-245C254.14,-247.51 261.99,-250.63 269,-254.5 288,-264.99 286.4,-276.31 305,-287.5 312.05,-291.74 319.95,-295.39 327.81,-298.47"/>
<polygon fill="#63b8ff" stroke="#63b8ff" points="326.71,-301.8 337.31,-301.96 329.12,-295.23 326.71,-301.8"/>
</a>
</g>
</g>
<!-- Node35 -->
<g id="Node000035" class="node">
<title>Node35</title>
<g id="a_Node000035"><a xlink:href="actors__extended_8c.html#a78ba9cbef20b4e33a02f2d21004e0194" target="_top" xlink:title=" ">
<polygon fill="white" stroke="#666666" points="596.5,-282 493.5,-282 493.5,-263 596.5,-263 596.5,-282"/>
<text text-anchor="middle" x="545" y="-270" font-family="Helvetica,sans-Serif" font-size="10.00">use_banana_item</text>
</a>
</g>
</g>
<!-- Node3&#45;&gt;Node35 -->
<g id="edge35_Node000003_Node000035" class="edge">
<title>Node3&#45;&gt;Node35</title>
<g id="a_edge35_Node000003_Node000035"><a xlink:title=" ">
<path fill="none" stroke="#63b8ff" d="M247.51,-242.24C265.52,-244.67 286.18,-247.35 305,-249.5 365.51,-256.42 434.8,-262.94 483.14,-267.25"/>
<polygon fill="#63b8ff" stroke="#63b8ff" points="482.85,-270.74 493.12,-268.14 483.47,-263.77 482.85,-270.74"/>
</a>
</g>
</g>
<!-- Node37 -->
<g id="Node000037" class="node">
<title>Node37</title>
<g id="a_Node000037"><a xlink:href="actors__extended_8c.html#a888a459fc74d16fe20cb3d8b3bbb8256" target="_top" xlink:title=" ">
<polygon fill="white" stroke="#666666" points="431.5,-169 315.5,-169 315.5,-150 431.5,-150 431.5,-169"/>
<text text-anchor="middle" x="373.5" y="-157" font-family="Helvetica,sans-Serif" font-size="10.00">use_blue_shell_item</text>
</a>
</g>
</g>
<!-- Node3&#45;&gt;Node37 -->
<g id="edge38_Node000003_Node000037" class="edge">
<title>Node3&#45;&gt;Node37</title>
<g id="a_edge38_Node000003_Node000037"><a xlink:title=" ">
<path fill="none" stroke="#63b8ff" d="M217.5,-225.83C238.26,-214.86 273.59,-196.77 305,-183.5 314.18,-179.62 324.23,-175.82 333.71,-172.42"/>
<polygon fill="#63b8ff" stroke="#63b8ff" points="335.04,-175.67 343.31,-169.05 332.72,-169.06 335.04,-175.67"/>
</a>
</g>
</g>
<!-- Node38 -->
<g id="Node000038" class="node">
<title>Node38</title>
<g id="a_Node000038"><a xlink:href="actors__extended_8c.html#abfd4761b52386597862e72451a1a3d1d" target="_top" xlink:title=" ">
<polygon fill="white" stroke="#666666" points="600.5,-170 489.5,-170 489.5,-151 600.5,-151 600.5,-170"/>
<text text-anchor="middle" x="545" y="-158" font-family="Helvetica,sans-Serif" font-size="10.00">use_red_shell_item</text>
</a>
</g>
</g>
<!-- Node3&#45;&gt;Node38 -->
<g id="edge55_Node000003_Node000038" class="edge">
<title>Node3&#45;&gt;Node38</title>
<g id="a_edge55_Node000003_Node000038"><a xlink:title=" ">
<path fill="none" stroke="#63b8ff" d="M206.3,-225.87C221.32,-205.57 259.61,-158.79 305,-141.5 372.73,-115.7 458.89,-133.79 507.07,-147.99"/>
<polygon fill="#63b8ff" stroke="#63b8ff" points="506.17,-151.38 516.76,-150.95 508.22,-144.68 506.17,-151.38"/>
</a>
</g>
</g>
<!-- Node44 -->
<g id="Node000044" class="node">
<title>Node44</title>
<g id="a_Node000044"><a xlink:href="actors__extended_8c.html#a8ac8961d38b45f457d0f27d5f782a464" target="_top" xlink:title=" ">
<polygon fill="white" stroke="#666666" points="612,-245 478,-245 478,-226 612,-226 612,-245"/>
<text text-anchor="middle" x="545" y="-233" font-family="Helvetica,sans-Serif" font-size="10.00">use_fake_itembox_item</text>
</a>
</g>
</g>
<!-- Node3&#45;&gt;Node44 -->
<g id="edge47_Node000003_Node000044" class="edge">
<title>Node3&#45;&gt;Node44</title>
<g id="a_edge47_Node000003_Node000044"><a xlink:title=" ">
<path fill="none" stroke="#63b8ff" d="M247.76,-235.5C304.83,-235.5 400.53,-235.5 467.67,-235.5"/>
<polygon fill="#63b8ff" stroke="#63b8ff" points="467.78,-239 477.78,-235.5 467.78,-232 467.78,-239"/>
</a>
</g>
</g>
<!-- Node45 -->
<g id="Node000045" class="node">
<title>Node45</title>
<g id="a_Node000045"><a xlink:href="actors__extended_8c.html#ae852368698f0c547d9b5a29d2a4d9712" target="_top" xlink:title=" ">
<polygon fill="white" stroke="#666666" points="606.5,-207 483.5,-207 483.5,-188 606.5,-188 606.5,-207"/>
<text text-anchor="middle" x="545" y="-195" font-family="Helvetica,sans-Serif" font-size="10.00">use_green_shell_item</text>
</a>
</g>
</g>
<!-- Node3&#45;&gt;Node45 -->
<g id="edge50_Node000003_Node000045" class="edge">
<title>Node3&#45;&gt;Node45</title>
<g id="a_edge50_Node000003_Node000045"><a xlink:title=" ">
<path fill="none" stroke="#63b8ff" d="M247.76,-230.18C306.42,-223.71 405.87,-212.74 473.2,-205.31"/>
<polygon fill="#63b8ff" stroke="#63b8ff" points="473.75,-208.77 483.3,-204.2 472.98,-201.81 473.75,-208.77"/>
</a>
</g>
</g>
<!-- Node46 -->
<g id="Node000046" class="node">
<title>Node46</title>
<g id="a_Node000046"><a xlink:href="actors__extended_8c.html#a58a90bceb7852ff16b389f2bba53817f" target="_top" xlink:title=" ">
<polygon fill="white" stroke="#666666" points="425.5,-93 321.5,-93 321.5,-74 425.5,-74 425.5,-93"/>
<text text-anchor="middle" x="373.5" y="-81" font-family="Helvetica,sans-Serif" font-size="10.00">use_thunder_item</text>
</a>
</g>
</g>
<!-- Node3&#45;&gt;Node46 -->
<g id="edge56_Node000003_Node000046" class="edge">
<title>Node3&#45;&gt;Node46</title>
<g id="a_edge56_Node000003_Node000046"><a xlink:title=" ">
<path fill="none" stroke="#63b8ff" d="M204.84,-225.98C218.47,-202.48 256.9,-141.23 305,-107.5 311.02,-103.28 317.86,-99.73 324.82,-96.76"/>
<polygon fill="#63b8ff" stroke="#63b8ff" points="326.27,-99.95 334.32,-93.07 323.73,-93.43 326.27,-99.95"/>
</a>
</g>
</g>
<!-- Node53 -->
<g id="Node000053" class="node">
<title>Node53</title>
<g id="a_Node000053"><a xlink:href="actors__extended_8c.html#a47255ea9aa07316c48b95fd7a97ac40d" target="_top" xlink:title=" ">
<polygon fill="white" stroke="#666666" points="434,-358 313,-358 313,-339 434,-339 434,-358"/>
<text text-anchor="middle" x="373.5" y="-346" font-family="Helvetica,sans-Serif" font-size="10.00">use_triple_shell_item</text>
</a>
</g>
</g>
<!-- Node3&#45;&gt;Node53 -->
<g id="edge64_Node000003_Node000053" class="edge">
<title>Node3&#45;&gt;Node53</title>
<g id="a_edge64_Node000003_Node000053"><a xlink:title=" ">
<path fill="none" stroke="#63b8ff" d="M247.79,-242.85C255.45,-245.6 262.86,-249.36 269,-254.5 297.64,-278.51 276.28,-306.58 305,-330.5 306.54,-331.78 308.16,-332.97 309.84,-334.08"/>
<polygon fill="#63b8ff" stroke="#63b8ff" points="308.28,-337.21 318.73,-338.94 311.64,-331.07 308.28,-337.21"/>
</a>
</g>
</g>
<!-- Node5 -->
<g id="Node000005" class="node">
<title>Node5</title>
<g id="a_Node000005"><a xlink:href="update__objects_8c.html#a2c88cc32dff07c6af5fe74d00b9fa279" target="_top" xlink:title=" ">
<polygon fill="white" stroke="#666666" points="591,-396 499,-396 499,-377 591,-377 591,-396"/>
<text text-anchor="middle" x="545" y="-384" font-family="Helvetica,sans-Serif" font-size="10.00">func_800722A4</text>
</a>
</g>
</g>
<!-- Node4&#45;&gt;Node5 -->
<g id="edge4_Node000004_Node000005" class="edge">
<title>Node4&#45;&gt;Node5</title>
<g id="a_edge4_Node000004_Node000005"><a xlink:title=" ">
<path fill="none" stroke="#63b8ff" d="M402.87,-433.96C431.1,-424.47 474.61,-409.83 505.86,-399.33"/>
<polygon fill="#63b8ff" stroke="#63b8ff" points="507.17,-402.58 515.54,-396.07 504.94,-395.94 507.17,-402.58"/>
</a>
</g>
</g>
<!-- Node6 -->
<g id="Node000006" class="node">
<title>Node6</title>
<g id="a_Node000006"><a xlink:href="update__objects_8c.html#aaece45bd6baf5aaf797c872a6e105604" target="_top" xlink:title=" ">
<polygon fill="white" stroke="#666666" points="591,-546 499,-546 499,-527 591,-527 591,-546"/>
<text text-anchor="middle" x="545" y="-534" font-family="Helvetica,sans-Serif" font-size="10.00">func_800722CC</text>
</a>
</g>
</g>
<!-- Node4&#45;&gt;Node6 -->
<g id="edge5_Node000004_Node000006" class="edge">
<title>Node4&#45;&gt;Node6</title>
<g id="a_edge5_Node000004_Node000006"><a xlink:title=" ">
<path fill="none" stroke="#63b8ff" d="M384.85,-453C402.6,-468.82 440.57,-500.58 478,-518.5 482.03,-520.43 486.29,-522.18 490.64,-523.76"/>
<polygon fill="#63b8ff" stroke="#63b8ff" points="489.64,-527.12 500.23,-526.96 491.85,-520.48 489.64,-527.12"/>
</a>
</g>
</g>
<!-- Node7 -->
<g id="Node000007" class="node">
<title>Node7</title>
<g id="a_Node000007"><a xlink:href="update__objects_8c.html#ab7e91b1ebcbec57dfed6e185a2f67580" target="_top" xlink:title=" ">
<polygon fill="white" stroke="#666666" points="590.5,-509 499.5,-509 499.5,-490 590.5,-490 590.5,-509"/>
<text text-anchor="middle" x="545" y="-497" font-family="Helvetica,sans-Serif" font-size="10.00">func_80072354</text>
</a>
</g>
</g>
<!-- Node4&#45;&gt;Node7 -->
<g id="edge6_Node000004_Node000007" class="edge">
<title>Node4&#45;&gt;Node7</title>
<g id="a_edge6_Node000004_Node000007"><a xlink:title=" ">
<path fill="none" stroke="#63b8ff" d="M398.97,-453.16C419.82,-461.22 450.65,-472.77 478,-481.5 484.09,-483.44 490.53,-485.37 496.92,-487.19"/>
<polygon fill="#63b8ff" stroke="#63b8ff" points="496.26,-490.64 506.83,-489.96 498.15,-483.9 496.26,-490.64"/>
</a>
</g>
</g>
<!-- Node8 -->
<g id="Node000008" class="node">
<title>Node8</title>
<g id="a_Node000008"><a xlink:href="update__objects_8c.html#a6433786e30fbe8c3dc83f83c9f2c35f9" target="_top" xlink:title=" ">
<polygon fill="white" stroke="#666666" points="591,-472 499,-472 499,-453 591,-453 591,-472"/>
<text text-anchor="middle" x="545" y="-460" font-family="Helvetica,sans-Serif" font-size="10.00">func_800726CC</text>
</a>
</g>
</g>
<!-- Node4&#45;&gt;Node8 -->
<g id="edge7_Node000004_Node000008" class="edge">
<title>Node4&#45;&gt;Node8</title>
<g id="a_edge7_Node000004_Node000008"><a xlink:title=" ">
<path fill="none" stroke="#63b8ff" d="M418.15,-448.39C439.59,-450.8 465.65,-453.72 488.49,-456.28"/>
<polygon fill="#63b8ff" stroke="#63b8ff" points="488.4,-459.79 498.72,-457.42 489.18,-452.83 488.4,-459.79"/>
</a>
</g>
</g>
<!-- Node10 -->
<g id="Node000010" class="node">
<title>Node10</title>
<g id="a_Node000010"><a xlink:href="update__objects_8c.html#a4b4f00a7df0f9bc44914cd922c3cd51b" target="_top" xlink:title=" ">
<polygon fill="white" stroke="#666666" points="781.5,-434 666.5,-434 666.5,-415 781.5,-415 781.5,-434"/>
<text text-anchor="middle" x="724" y="-422" font-family="Helvetica,sans-Serif" font-size="10.00">set_object_unk_0CB</text>
</a>
</g>
</g>
<!-- Node4&#45;&gt;Node10 -->
<g id="edge10_Node000004_Node000010" class="edge">
<title>Node4&#45;&gt;Node10</title>
<g id="a_edge10_Node000004_Node000010"><a xlink:title=" ">
<path fill="none" stroke="#63b8ff" d="M418.28,-441.11C478.22,-437.85 586.36,-431.95 656.38,-428.13"/>
<polygon fill="#63b8ff" stroke="#63b8ff" points="656.63,-431.62 666.42,-427.58 656.24,-424.63 656.63,-431.62"/>
</a>
</g>
</g>
<!-- Node9 -->
<g id="Node000009" class="node">
<title>Node9</title>
<g id="a_Node000009"><a xlink:href="update__objects_8c.html#ad33541b9fed7857e59b2d745298f2d44" target="_top" xlink:title=" ">
<polygon fill="white" stroke="#666666" points="786.5,-482.5 661.5,-482.5 661.5,-452.5 786.5,-452.5 786.5,-482.5"/>
<text text-anchor="start" x="669.5" y="-470.5" font-family="Helvetica,sans-Serif" font-size="10.00">set_object_flag_status</text>
<text text-anchor="middle" x="724" y="-459.5" font-family="Helvetica,sans-Serif" font-size="10.00">_false</text>
</a>
</g>
</g>
<!-- Node8&#45;&gt;Node9 -->
<g id="edge8_Node000008_Node000009" class="edge">
<title>Node8&#45;&gt;Node9</title>
<g id="a_edge8_Node000008_Node000009"><a xlink:title=" ">
<path fill="none" stroke="#63b8ff" d="M591.12,-463.77C609.35,-464.29 630.83,-464.9 651.11,-465.47"/>
<polygon fill="#63b8ff" stroke="#63b8ff" points="651.17,-468.97 661.26,-465.76 651.37,-461.97 651.17,-468.97"/>
</a>
</g>
</g>
<!-- Node8&#45;&gt;Node10 -->
<g id="edge9_Node000008_Node000010" class="edge">
<title>Node8&#45;&gt;Node10</title>
<g id="a_edge9_Node000008_Node000010"><a xlink:title=" ">
<path fill="none" stroke="#63b8ff" d="M590.66,-452.91C614.34,-447.83 643.61,-441.54 668.6,-436.18"/>
<polygon fill="#63b8ff" stroke="#63b8ff" points="669.61,-439.54 678.66,-434.02 668.14,-432.7 669.61,-439.54"/>
</a>
</g>
</g>
<!-- Node12 -->
<g id="Node000012" class="node">
<title>Node12</title>
<g id="a_Node000012"><a xlink:href="actors_8c.html#a91fb2e4e37e7c72fea918fe2c1bb4eaf" target="_top" xlink:title=" ">
<polygon fill="white" stroke="#666666" points="794,-282 654,-282 654,-263 794,-263 794,-282"/>
<text text-anchor="middle" x="724" y="-270" font-family="Helvetica,sans-Serif" font-size="10.00">add_actor_to_empty_slot</text>
</a>
</g>
</g>
<!-- Node11&#45;&gt;Node12 -->
<g id="edge12_Node000011_Node000012" class="edge">
<title>Node11&#45;&gt;Node12</title>
<g id="a_edge12_Node000011_Node000012"><a xlink:title=" ">
<path fill="none" stroke="#63b8ff" d="M442.23,-307.34C489.83,-304.04 554.95,-298.77 612,-291.5 628.54,-289.39 646.38,-286.58 662.82,-283.77"/>
<polygon fill="#63b8ff" stroke="#63b8ff" points="663.6,-287.18 672.85,-282.02 662.4,-280.29 663.6,-287.18"/>
</a>
</g>
</g>
<!-- Node13 -->
<g id="Node000013" class="node">
<title>Node13</title>
<g id="a_Node000013"><a xlink:href="actors_8c.html#a39c023177b5a7686cdd1fc65b8b953e1" target="_top" xlink:title=" ">
<polygon fill="white" stroke="#666666" points="1101,-270 1039,-270 1039,-251 1101,-251 1101,-270"/>
<text text-anchor="middle" x="1070" y="-258" font-family="Helvetica,sans-Serif" font-size="10.00">actor_init</text>
</a>
</g>
</g>
<!-- Node12&#45;&gt;Node13 -->
<g id="edge13_Node000012_Node000013" class="edge">
<title>Node12&#45;&gt;Node13</title>
<g id="a_edge13_Node000012_Node000013"><a xlink:title=" ">
<path fill="none" stroke="#63b8ff" d="M794.2,-270.09C864.57,-267.63 971.21,-263.91 1028.76,-261.9"/>
<polygon fill="#63b8ff" stroke="#63b8ff" points="1029.05,-265.4 1038.92,-261.55 1028.8,-258.4 1029.05,-265.4"/>
</a>
</g>
</g>
<!-- Node34 -->
<g id="Node000034" class="node">
<title>Node34</title>
<g id="a_Node000034"><a xlink:href="actors_8c.html#adf454481afb7fd833f5ce3f01dea4bea" target="_top" xlink:title=" ">
<polygon fill="white" stroke="#666666" points="1003,-344 836,-344 836,-325 1003,-325 1003,-344"/>
<text text-anchor="middle" x="919.5" y="-332" font-family="Helvetica,sans-Serif" font-size="10.00">try_remove_destructable_item</text>
</a>
</g>
</g>
<!-- Node12&#45;&gt;Node34 -->
<g id="edge31_Node000012_Node000034" class="edge">
<title>Node12&#45;&gt;Node34</title>
<g id="a_edge31_Node000012_Node000034"><a xlink:title=" ">
<path fill="none" stroke="#63b8ff" d="M754.81,-282.05C788.05,-292.7 841.96,-309.98 878.76,-321.77"/>
<polygon fill="#63b8ff" stroke="#63b8ff" points="878.06,-325.22 888.66,-324.94 880.2,-318.55 878.06,-325.22"/>
</a>
</g>
</g>
<!-- Node14 -->
<g id="Node000014" class="node">
<title>Node14</title>
<g id="a_Node000014"><a xlink:href="actors_8c.html#a1a9bccb586242555a9123ebd4ab70f2a" target="_top" xlink:title=" ">
<polygon fill="white" stroke="#666666" points="1269,-318.5 1137,-318.5 1137,-288.5 1269,-288.5 1269,-318.5"/>
<text text-anchor="start" x="1145" y="-306.5" font-family="Helvetica,sans-Serif" font-size="10.00">cleanup_red_and_green</text>
<text text-anchor="middle" x="1203" y="-295.5" font-family="Helvetica,sans-Serif" font-size="10.00">_shells</text>
</a>
</g>
</g>
<!-- Node13&#45;&gt;Node14 -->
<g id="edge14_Node000013_Node000014" class="edge">
<title>Node13&#45;&gt;Node14</title>
<g id="a_edge14_Node000013_Node000014"><a xlink:title=" ">
<path fill="none" stroke="#63b8ff" d="M1100.07,-270.04C1113.74,-274.53 1130.52,-280.04 1146.48,-285.28"/>
<polygon fill="#63b8ff" stroke="#63b8ff" points="1145.69,-288.7 1156.28,-288.49 1147.87,-282.05 1145.69,-288.7"/>
</a>
</g>
</g>
<!-- Node26 -->
<g id="Node000026" class="node">
<title>Node26</title>
<g id="a_Node000026"><a xlink:href="collision_8c.html#ad72fef3ffe32191d73b1822f512ebf3f" target="_top" xlink:title=" ">
<polygon fill="white" stroke="#666666" points="1250.5,-196 1155.5,-196 1155.5,-177 1250.5,-177 1250.5,-196"/>
<text text-anchor="middle" x="1203" y="-184" font-family="Helvetica,sans-Serif" font-size="10.00">func_802AAAAC</text>
</a>
</g>
</g>
<!-- Node13&#45;&gt;Node26 -->
<g id="edge23_Node000013_Node000026" class="edge">
<title>Node13&#45;&gt;Node26</title>
<g id="a_edge23_Node000013_Node000026"><a xlink:title=" ">
<path fill="none" stroke="#63b8ff" d="M1079.93,-250.94C1091.84,-238.73 1114.1,-217.7 1137,-205.5 1141.19,-203.27 1145.67,-201.27 1150.26,-199.48"/>
<polygon fill="#63b8ff" stroke="#63b8ff" points="1151.49,-202.76 1159.74,-196.11 1149.14,-196.16 1151.49,-202.76"/>
</a>
</g>
</g>
<!-- Node28 -->
<g id="Node000028" class="node">
<title>Node28</title>
<g id="a_Node000028"><a xlink:href="collision_8c.html#a365367628b7140a7a880beeecce9c305" target="_top" xlink:title=" ">
<polygon fill="white" stroke="#666666" points="1250.5,-150 1155.5,-150 1155.5,-131 1250.5,-131 1250.5,-150"/>
<text text-anchor="middle" x="1203" y="-138" font-family="Helvetica,sans-Serif" font-size="10.00">func_802ADDC8</text>
</a>
</g>
</g>
<!-- Node13&#45;&gt;Node28 -->
<g id="edge25_Node000013_Node000028" class="edge">
<title>Node13&#45;&gt;Node28</title>
<g id="a_edge25_Node000013_Node000028"><a xlink:title=" ">
<path fill="none" stroke="#63b8ff" d="M1075.65,-250.85C1084.94,-232.5 1107.44,-192.29 1137,-168.5 1144.16,-162.74 1152.69,-157.95 1161.18,-154.06"/>
<polygon fill="#63b8ff" stroke="#63b8ff" points="1162.82,-157.17 1170.67,-150.05 1160.09,-150.72 1162.82,-157.17"/>
</a>
</g>
</g>
<!-- Node32 -->
<g id="Node000032" class="node">
<title>Node32</title>
<g id="a_Node000032"><a xlink:href="math__util_8c.html#af7b470ed76fce07b8042a47c96e5690b" target="_top" xlink:title=" ">
<polygon fill="white" stroke="#666666" points="1256.5,-270 1149.5,-270 1149.5,-251 1256.5,-251 1256.5,-270"/>
<text text-anchor="middle" x="1203" y="-258" font-family="Helvetica,sans-Serif" font-size="10.00">vec3f_copy_return</text>
</a>
</g>
</g>
<!-- Node13&#45;&gt;Node32 -->
<g id="edge29_Node000013_Node000032" class="edge">
<title>Node13&#45;&gt;Node32</title>
<g id="a_edge29_Node000013_Node000032"><a xlink:title=" ">
<path fill="none" stroke="#63b8ff" d="M1101.05,-260.5C1112.49,-260.5 1125.99,-260.5 1139.33,-260.5"/>
<polygon fill="#63b8ff" stroke="#63b8ff" points="1139.47,-264 1149.47,-260.5 1139.47,-257 1139.47,-264"/>
</a>
</g>
</g>
<!-- Node33 -->
<g id="Node000033" class="node">
<title>Node33</title>
<g id="a_Node000033"><a xlink:href="math__util_8c.html#a0e270ee67600c8c9c2f140c647d008a1" target="_top" xlink:title=" ">
<polygon fill="white" stroke="#666666" points="1240,-233 1166,-233 1166,-214 1240,-214 1240,-233"/>
<text text-anchor="middle" x="1203" y="-221" font-family="Helvetica,sans-Serif" font-size="10.00">vec3s_copy</text>
</a>
</g>
</g>
<!-- Node13&#45;&gt;Node33 -->
<g id="edge30_Node000013_Node000033" class="edge">
<title>Node13&#45;&gt;Node33</title>
<g id="a_edge30_Node000013_Node000033"><a xlink:title=" ">
<path fill="none" stroke="#63b8ff" d="M1101.05,-252.01C1117.96,-247.24 1139.37,-241.19 1158.12,-235.89"/>
<polygon fill="#63b8ff" stroke="#63b8ff" points="1159.26,-239.21 1167.93,-233.12 1157.35,-232.47 1159.26,-239.21"/>
</a>
</g>
</g>
<!-- Node15 -->
<g id="Node000015" class="node">
<title>Node15</title>
<g id="a_Node000015"><a xlink:href="actors_8c.html#a694ec6ef7548b8618aeb35c038d3a9b9" target="_top" xlink:title=" ">
<polygon fill="white" stroke="#666666" points="1422.5,-310 1339.5,-310 1339.5,-291 1422.5,-291 1422.5,-310"/>
<text text-anchor="middle" x="1381" y="-298" font-family="Helvetica,sans-Serif" font-size="10.00">destroy_actor</text>
</a>
</g>
</g>
<!-- Node14&#45;&gt;Node15 -->
<g id="edge15_Node000014_Node000015" class="edge">
<title>Node14&#45;&gt;Node15</title>
<g id="a_edge15_Node000014_Node000015"><a xlink:title=" ">
<path fill="none" stroke="#63b8ff" d="M1269.04,-302.39C1288.95,-302.05 1310.55,-301.68 1329.35,-301.36"/>
<polygon fill="#63b8ff" stroke="#63b8ff" points="1329.54,-304.86 1339.48,-301.19 1329.42,-297.86 1329.54,-304.86"/>
</a>
</g>
</g>
<!-- Node25 -->
<g id="Node000025" class="node">
<title>Node25</title>
<g id="a_Node000025"><a xlink:href="code__80005FD0_8c.html#acb7b3d384c78d219f4b7040e78f6a2f2" target="_top" xlink:title=" ">
<polygon fill="white" stroke="#666666" points="1457,-358.5 1305,-358.5 1305,-328.5 1457,-328.5 1457,-358.5"/>
<text text-anchor="start" x="1313" y="-346.5" font-family="Helvetica,sans-Serif" font-size="10.00">remove_actor_in_unexpired</text>
<text text-anchor="middle" x="1381" y="-335.5" font-family="Helvetica,sans-Serif" font-size="10.00">_actor_list</text>
</a>
</g>
</g>
<!-- Node14&#45;&gt;Node25 -->
<g id="edge22_Node000014_Node000025" class="edge">
<title>Node14&#45;&gt;Node25</title>
<g id="a_edge22_Node000014_Node000025"><a xlink:title=" ">
<path fill="none" stroke="#63b8ff" d="M1269.04,-318.28C1280.32,-320.85 1292.15,-323.53 1303.7,-326.16"/>
<polygon fill="#63b8ff" stroke="#63b8ff" points="1303.23,-329.64 1313.76,-328.45 1304.79,-322.82 1303.23,-329.64"/>
</a>
</g>
</g>
<!-- Node16 -->
<g id="Node000016" class="node">
<title>Node16</title>
<g id="a_Node000016"><a xlink:href="actors_8c.html#ad5a56c8f7eaf719223099cce9e38ec9f" target="_top" xlink:title=" ">
<polygon fill="white" stroke="#666666" points="1644,-353 1493,-353 1493,-334 1644,-334 1644,-353"/>
<text text-anchor="middle" x="1568.5" y="-341" font-family="Helvetica,sans-Serif" font-size="10.00">play_sound_before_destroy</text>
</a>
</g>
</g>
<!-- Node15&#45;&gt;Node16 -->
<g id="edge16_Node000015_Node000016" class="edge">
<title>Node15&#45;&gt;Node16</title>
<g id="a_edge16_Node000015_Node000016"><a xlink:title=" ">
<path fill="none" stroke="#63b8ff" d="M1422.71,-309.94C1450.18,-316.31 1486.67,-324.76 1516.14,-331.59"/>
<polygon fill="#63b8ff" stroke="#63b8ff" points="1515.71,-335.09 1526.25,-333.94 1517.29,-328.27 1515.71,-335.09"/>
</a>
</g>
</g>
<!-- Node17 -->
<g id="Node000017" class="node">
<title>Node17</title>
<g id="a_Node000017"><a xlink:href="external_8c.html#ae72057869772019e4464c87d4e16c682" target="_top" xlink:title=" ">
<polygon fill="white" stroke="#666666" points="1772,-353 1680,-353 1680,-334 1772,-334 1772,-353"/>
<text text-anchor="middle" x="1726" y="-341" font-family="Helvetica,sans-Serif" font-size="10.00">func_800C99E0</text>
</a>
</g>
</g>
<!-- Node16&#45;&gt;Node17 -->
<g id="edge17_Node000016_Node000017" class="edge">
<title>Node16&#45;&gt;Node17</title>
<g id="a_edge17_Node000016_Node000017"><a xlink:title=" ">
<path fill="none" stroke="#63b8ff" d="M1644.06,-343.5C1652.61,-343.5 1661.21,-343.5 1669.45,-343.5"/>
<polygon fill="#63b8ff" stroke="#63b8ff" points="1669.66,-347 1679.66,-343.5 1669.66,-340 1669.66,-347"/>
</a>
</g>
</g>
<!-- Node18 -->
<g id="Node000018" class="node">
<title>Node18</title>
<g id="a_Node000018"><a xlink:href="external_8c.html#aeb87c527482a244173df36a1f3d4f446" target="_top" xlink:title=" ">
<polygon fill="white" stroke="#666666" points="1900,-372 1808,-372 1808,-353 1900,-353 1900,-372"/>
<text text-anchor="middle" x="1854" y="-360" font-family="Helvetica,sans-Serif" font-size="10.00">func_800C21E8</text>
</a>
</g>
</g>
<!-- Node17&#45;&gt;Node18 -->
<g id="edge18_Node000017_Node000018" class="edge">
<title>Node17&#45;&gt;Node18</title>
<g id="a_edge18_Node000017_Node000018"><a xlink:title=" ">
<path fill="none" stroke="#63b8ff" d="M1772.13,-350.31C1780.46,-351.56 1789.23,-352.88 1797.81,-354.18"/>
<polygon fill="#63b8ff" stroke="#63b8ff" points="1797.35,-357.65 1807.76,-355.68 1798.39,-350.73 1797.35,-357.65"/>
</a>
</g>
</g>
<!-- Node19 -->
<g id="Node000019" class="node">
<title>Node19</title>
<g id="a_Node000019"><a xlink:href="external_8c.html#a028d40421b90c38f68ebfd5acc626f2e" target="_top" xlink:title=" ">
<polygon fill="#fff0f0" stroke="red" points="1900,-335 1808,-335 1808,-316 1900,-316 1900,-335"/>
<text text-anchor="middle" x="1854" y="-323" font-family="Helvetica,sans-Serif" font-size="10.00">func_800C5578</text>
</a>
</g>
</g>
<!-- Node17&#45;&gt;Node19 -->
<g id="edge19_Node000017_Node000019" class="edge">
<title>Node17&#45;&gt;Node19</title>
<g id="a_edge19_Node000017_Node000019"><a xlink:title=" ">
<path fill="none" stroke="#63b8ff" d="M1772.13,-337.05C1780.46,-335.86 1789.23,-334.61 1797.81,-333.38"/>
<polygon fill="#63b8ff" stroke="#63b8ff" points="1798.35,-336.84 1807.76,-331.96 1797.36,-329.91 1798.35,-336.84"/>
</a>
</g>
</g>
<!-- Node20 -->
<g id="Node000020" class="node">
<title>Node20</title>
<g id="a_Node000020"><a xlink:href="external_8c.html#ac0fb767de7e14a03f1bcfa53f0abd23b" target="_top" xlink:title=" ">
<polygon fill="#fff0f0" stroke="red" points="2076,-354 1936,-354 1936,-335 2076,-335 2076,-354"/>
<text text-anchor="middle" x="2006" y="-342" font-family="Helvetica,sans-Serif" font-size="10.00">delete_sound_from_bank</text>
</a>
</g>
</g>
<!-- Node19&#45;&gt;Node20 -->
<g id="edge20_Node000019_Node000020" class="edge">
<title>Node19&#45;&gt;Node20</title>
<g id="a_edge20_Node000019_Node000020"><a xlink:title=" ">
<path fill="none" stroke="#63b8ff" d="M1900,-331.2C1908.22,-332.24 1917.01,-333.35 1925.87,-334.48"/>
<polygon fill="#63b8ff" stroke="#63b8ff" points="1925.53,-337.96 1935.89,-335.75 1926.41,-331.02 1925.53,-337.96"/>
</a>
</g>
</g>
<!-- Node22 -->
<g id="Node000022" class="node">
<title>Node22</title>
<g id="a_Node000022"><a xlink:href="external_8c.html#ab83bd36e63f0f1baddcb2482b5ad31b0" target="_top" xlink:title=" ">
<polygon fill="white" stroke="#666666" points="2052.5,-317 1959.5,-317 1959.5,-298 2052.5,-298 2052.5,-317"/>
<text text-anchor="middle" x="2006" y="-305" font-family="Helvetica,sans-Serif" font-size="10.00">func_800C41CC</text>
</a>
</g>
</g>
<!-- Node19&#45;&gt;Node22 -->
<g id="edge21_Node000019_Node000022" class="edge">
<title>Node19&#45;&gt;Node22</title>
<g id="a_edge21_Node000019_Node000022"><a xlink:title=" ">
<path fill="none" stroke="#63b8ff" d="M1900,-320.1C1915.37,-318.26 1932.74,-316.17 1948.86,-314.24"/>
<polygon fill="#63b8ff" stroke="#63b8ff" points="1949.74,-317.66 1959.25,-312.99 1948.9,-310.71 1949.74,-317.66"/>
</a>
</g>
</g>
<!-- Node27 -->
<g id="Node000027" class="node">
<title>Node27</title>
<g id="a_Node000027"><a xlink:href="math__util_8c.html#a79fd07a0971ec96a3ff0801963a2fa7f" target="_top" xlink:title=" ">
<polygon fill="white" stroke="#666666" points="1413,-206 1349,-206 1349,-187 1413,-187 1413,-206"/>
<text text-anchor="middle" x="1381" y="-194" font-family="Helvetica,sans-Serif" font-size="10.00">vec3f_set</text>
</a>
</g>
</g>
<!-- Node26&#45;&gt;Node27 -->
<g id="edge24_Node000026_Node000027" class="edge">
<title>Node26&#45;&gt;Node27</title>
<g id="a_edge24_Node000026_Node000027"><a xlink:title=" ">
<path fill="none" stroke="#63b8ff" d="M1250.7,-189.15C1278.12,-190.71 1312.46,-192.66 1338.86,-194.16"/>
<polygon fill="#63b8ff" stroke="#63b8ff" points="1338.73,-197.66 1348.92,-194.73 1339.13,-190.67 1338.73,-197.66"/>
</a>
</g>
</g>
<!-- Node29 -->
<g id="Node000029" class="node">
<title>Node29</title>
<g id="a_Node000029"><a xlink:href="collision_8c.html#afce45acb8da354da0a5b501003be1aef" target="_top" xlink:title=" ">
<polygon fill="white" stroke="#666666" points="1427.5,-169 1334.5,-169 1334.5,-150 1427.5,-150 1427.5,-169"/>
<text text-anchor="middle" x="1381" y="-157" font-family="Helvetica,sans-Serif" font-size="10.00">func_802AAE4C</text>
</a>
</g>
</g>
<!-- Node28&#45;&gt;Node29 -->
<g id="edge26_Node000028_Node000029" class="edge">
<title>Node28&#45;&gt;Node29</title>
<g id="a_edge26_Node000028_Node000029"><a xlink:title=" ">
<path fill="none" stroke="#63b8ff" d="M1250.7,-145.54C1273.24,-147.97 1300.44,-150.91 1324.07,-153.46"/>
<polygon fill="#63b8ff" stroke="#63b8ff" points="1323.98,-156.97 1334.3,-154.57 1324.73,-150.01 1323.98,-156.97"/>
</a>
</g>
</g>
<!-- Node30 -->
<g id="Node000030" class="node">
<title>Node30</title>
<g id="a_Node000030"><a xlink:href="collision_8c.html#adcc608ea0eae3bf9a27ab79ec64b4899" target="_top" xlink:title=" ">
<polygon fill="white" stroke="#666666" points="1427,-132 1335,-132 1335,-113 1427,-113 1427,-132"/>
<text text-anchor="middle" x="1381" y="-120" font-family="Helvetica,sans-Serif" font-size="10.00">func_802AB288</text>
</a>
</g>
</g>
<!-- Node28&#45;&gt;Node30 -->
<g id="edge27_Node000028_Node000030" class="edge">
<title>Node28&#45;&gt;Node30</title>
<g id="a_edge27_Node000028_Node000030"><a xlink:title=" ">
<path fill="none" stroke="#63b8ff" d="M1250.7,-135.72C1273.51,-133.39 1301.11,-130.57 1324.95,-128.13"/>
<polygon fill="#63b8ff" stroke="#63b8ff" points="1325.31,-131.61 1334.9,-127.11 1324.6,-124.65 1325.31,-131.61"/>
</a>
</g>
</g>
<!-- Node31 -->
<g id="Node000031" class="node">
<title>Node31</title>
<g id="a_Node000031"><a xlink:href="collision_8c.html#ab440aa3fc960b7b4b5ad8e4bcaa06b00" target="_top" xlink:title=" ">
<polygon fill="white" stroke="#666666" points="1427.5,-95 1334.5,-95 1334.5,-76 1427.5,-76 1427.5,-95"/>
<text text-anchor="middle" x="1381" y="-83" font-family="Helvetica,sans-Serif" font-size="10.00">func_802AB6C4</text>
</a>
</g>
</g>
<!-- Node28&#45;&gt;Node31 -->
<g id="edge28_Node000028_Node000031" class="edge">
<title>Node28&#45;&gt;Node31</title>
<g id="a_edge28_Node000028_Node000031"><a xlink:title=" ">
<path fill="none" stroke="#63b8ff" d="M1228.69,-130.96C1249,-123.3 1278.64,-112.52 1305,-104.5 1312.86,-102.11 1321.24,-99.78 1329.45,-97.61"/>
<polygon fill="#63b8ff" stroke="#63b8ff" points="1330.52,-100.95 1339.33,-95.06 1328.77,-94.17 1330.52,-100.95"/>
</a>
</g>
</g>
<!-- Node34&#45;&gt;Node13 -->
<g id="edge32_Node000034_Node000013" class="edge">
<title>Node34&#45;&gt;Node13</title>
<g id="a_edge32_Node000034_Node000013"><a xlink:title=" ">
<path fill="none" stroke="#63b8ff" d="M939.61,-324.98C965.2,-312.23 1010.8,-289.5 1040.47,-274.72"/>
<polygon fill="#63b8ff" stroke="#63b8ff" points="1042.1,-277.81 1049.49,-270.22 1038.98,-271.55 1042.1,-277.81"/>
</a>
</g>
</g>
<!-- Node34&#45;&gt;Node16 -->
<g id="edge33_Node000034_Node000016" class="edge">
<title>Node34&#45;&gt;Node16</title>
<g id="a_edge33_Node000034_Node000016"><a xlink:title=" ">
<path fill="none" stroke="#63b8ff" d="M975.86,-344.03C1073.34,-359.44 1281.87,-386.3 1457,-367.5 1478.87,-365.15 1502.77,-360.26 1522.73,-355.5"/>
<polygon fill="#63b8ff" stroke="#63b8ff" points="1523.6,-358.89 1532.48,-353.11 1521.94,-352.09 1523.6,-358.89"/>
</a>
</g>
</g>
<!-- Node34&#45;&gt;Node25 -->
<g id="edge34_Node000034_Node000025" class="edge">
<title>Node34&#45;&gt;Node25</title>
<g id="a_edge34_Node000034_Node000025"><a xlink:title=" ">
<path fill="none" stroke="#63b8ff" d="M1003.18,-336.12C1085.53,-337.73 1211.37,-340.2 1294.64,-341.83"/>
<polygon fill="#63b8ff" stroke="#63b8ff" points="1294.77,-345.33 1304.83,-342.03 1294.9,-338.33 1294.77,-345.33"/>
</a>
</g>
</g>
<!-- Node35&#45;&gt;Node12 -->
<g id="edge36_Node000035_Node000012" class="edge">
<title>Node35&#45;&gt;Node12</title>
<g id="a_edge36_Node000035_Node000012"><a xlink:title=" ">
<path fill="none" stroke="#63b8ff" d="M596.72,-272.5C611.3,-272.5 627.57,-272.5 643.44,-272.5"/>
<polygon fill="#63b8ff" stroke="#63b8ff" points="643.8,-276 653.8,-272.5 643.8,-269 643.8,-276"/>
</a>
</g>
</g>
<!-- Node36 -->
<g id="Node000036" class="node">
<title>Node36</title>
<g id="a_Node000036"><a xlink:href="math__util_8c.html#ad5bb0138c68b50f119d3cb7966f522b7" target="_top" xlink:title=" ">
<polygon fill="white" stroke="#666666" points="800,-245 648,-245 648,-226 800,-226 800,-245"/>
<text text-anchor="middle" x="724" y="-233" font-family="Helvetica,sans-Serif" font-size="10.00">mtxf_translate_vec3f_mat3</text>
</a>
</g>
</g>
<!-- Node35&#45;&gt;Node36 -->
<g id="edge37_Node000035_Node000036" class="edge">
<title>Node35&#45;&gt;Node36</title>
<g id="a_edge37_Node000035_Node000036"><a xlink:title=" ">
<path fill="none" stroke="#63b8ff" d="M591.58,-262.97C614.72,-258.14 643.02,-252.22 667.42,-247.12"/>
<polygon fill="#63b8ff" stroke="#63b8ff" points="668.19,-250.53 677.27,-245.06 666.76,-243.68 668.19,-250.53"/>
</a>
</g>
</g>
<!-- Node37&#45;&gt;Node38 -->
<g id="edge39_Node000037_Node000038" class="edge">
<title>Node37&#45;&gt;Node38</title>
<g id="a_edge39_Node000037_Node000038"><a xlink:title=" ">
<path fill="none" stroke="#63b8ff" d="M431.88,-159.84C447.09,-159.93 463.61,-160.03 479.18,-160.12"/>
<polygon fill="#63b8ff" stroke="#63b8ff" points="479.23,-163.62 489.25,-160.18 479.27,-156.62 479.23,-163.62"/>
</a>
</g>
</g>
<!-- Node38&#45;&gt;Node12 -->
<g id="edge40_Node000038_Node000012" class="edge">
<title>Node38&#45;&gt;Node12</title>
<g id="a_edge40_Node000038_Node000012"><a xlink:title=" ">
<path fill="none" stroke="#63b8ff" d="M596.59,-170.13C602.15,-172.58 607.45,-175.65 612,-179.5 640.24,-203.37 619.24,-231.27 648,-254.5 649.56,-255.76 651.2,-256.94 652.9,-258.03"/>
<polygon fill="#63b8ff" stroke="#63b8ff" points="651.36,-261.18 661.82,-262.87 654.7,-255.03 651.36,-261.18"/>
</a>
</g>
</g>
<!-- Node38&#45;&gt;Node36 -->
<g id="edge46_Node000038_Node000036" class="edge">
<title>Node38&#45;&gt;Node36</title>
<g id="a_edge46_Node000038_Node000036"><a xlink:title=" ">
<path fill="none" stroke="#63b8ff" d="M590.99,-170.03C598.29,-172.53 605.56,-175.64 612,-179.5 631.68,-191.29 628.13,-205.03 648,-216.5 651.9,-218.75 656.07,-220.74 660.36,-222.49"/>
<polygon fill="#63b8ff" stroke="#63b8ff" points="659.32,-225.84 669.91,-225.97 661.72,-219.26 659.32,-225.84"/>
</a>
</g>
</g>
<!-- Node39 -->
<g id="Node000039" class="node">
<title>Node39</title>
<g id="a_Node000039"><a xlink:href="collision_8c.html#a0724869c38f177efa5357ac2205857d4" target="_top" xlink:title=" ">
<polygon fill="white" stroke="#666666" points="770.5,-207 677.5,-207 677.5,-188 770.5,-188 770.5,-207"/>
<text text-anchor="middle" x="724" y="-195" font-family="Helvetica,sans-Serif" font-size="10.00">func_802AD950</text>
</a>
</g>
</g>
<!-- Node38&#45;&gt;Node39 -->
<g id="edge41_Node000038_Node000039" class="edge">
<title>Node38&#45;&gt;Node39</title>
<g id="a_edge41_Node000038_Node000039"><a xlink:title=" ">
<path fill="none" stroke="#63b8ff" d="M591.58,-170.03C614.72,-174.86 643.02,-180.78 667.42,-185.88"/>
<polygon fill="#63b8ff" stroke="#63b8ff" points="666.76,-189.32 677.27,-187.94 668.19,-182.47 666.76,-189.32"/>
</a>
</g>
</g>
<!-- Node43 -->
<g id="Node000043" class="node">
<title>Node43</title>
<g id="a_Node000043"><a xlink:href="actors__extended_8c.html#a78e98c146f1f4dd6e3608016486172a4" target="_top" xlink:title=" ">
<polygon fill="white" stroke="#666666" points="770,-170 678,-170 678,-151 770,-151 770,-170"/>
<text text-anchor="middle" x="724" y="-158" font-family="Helvetica,sans-Serif" font-size="10.00">func_802B4E30</text>
</a>
</g>
</g>
<!-- Node38&#45;&gt;Node43 -->
<g id="edge45_Node000038_Node000043" class="edge">
<title>Node38&#45;&gt;Node43</title>
<g id="a_edge45_Node000038_Node000043"><a xlink:title=" ">
<path fill="none" stroke="#63b8ff" d="M600.55,-160.5C621.85,-160.5 646.24,-160.5 667.62,-160.5"/>
<polygon fill="#63b8ff" stroke="#63b8ff" points="667.85,-164 677.85,-160.5 667.85,-157 667.85,-164"/>
</a>
</g>
</g>
<!-- Node40 -->
<g id="Node000040" class="node">
<title>Node40</title>
<g id="a_Node000040"><a xlink:href="collision_8c.html#a9ec62ee67d55805a587752d82d66abd8" target="_top" xlink:title=" ">
<polygon fill="white" stroke="#666666" points="991,-244.5 848,-244.5 848,-214.5 991,-214.5 991,-244.5"/>
<text text-anchor="start" x="856" y="-232.5" font-family="Helvetica,sans-Serif" font-size="10.00">is_colliding_with_drivable</text>
<text text-anchor="middle" x="919.5" y="-221.5" font-family="Helvetica,sans-Serif" font-size="10.00">_surface</text>
</a>
</g>
</g>
<!-- Node39&#45;&gt;Node40 -->
<g id="edge42_Node000039_Node000040" class="edge">
<title>Node39&#45;&gt;Node40</title>
<g id="a_edge42_Node000039_Node000040"><a xlink:title=" ">
<path fill="none" stroke="#63b8ff" d="M770.86,-205.08C790.91,-208.4 815.04,-212.39 837.93,-216.18"/>
<polygon fill="#63b8ff" stroke="#63b8ff" points="837.56,-219.66 848,-217.84 838.7,-212.76 837.56,-219.66"/>
</a>
</g>
</g>
<!-- Node41 -->
<g id="Node000041" class="node">
<title>Node41</title>
<g id="a_Node000041"><a xlink:href="collision_8c.html#aa77fc5aaa5aa3a6f71ad00bc71b04788" target="_top" xlink:title=" ">
<polygon fill="white" stroke="#666666" points="984,-196 855,-196 855,-177 984,-177 984,-196"/>
<text text-anchor="middle" x="919.5" y="-184" font-family="Helvetica,sans-Serif" font-size="10.00">is_colliding_with_wall1</text>
</a>
</g>
</g>
<!-- Node39&#45;&gt;Node41 -->
<g id="edge43_Node000039_Node000041" class="edge">
<title>Node39&#45;&gt;Node41</title>
<g id="a_edge43_Node000039_Node000041"><a xlink:title=" ">
<path fill="none" stroke="#63b8ff" d="M770.86,-194.89C792.86,-193.64 819.77,-192.11 844.56,-190.7"/>
<polygon fill="#63b8ff" stroke="#63b8ff" points="844.89,-194.19 854.67,-190.13 844.49,-187.2 844.89,-194.19"/>
</a>
</g>
</g>
<!-- Node42 -->
<g id="Node000042" class="node">
<title>Node42</title>
<g id="a_Node000042"><a xlink:href="collision_8c.html#a728bd4102d2ed3ba18d68d39b707c0f4" target="_top" xlink:title=" ">
<polygon fill="white" stroke="#666666" points="984,-159 855,-159 855,-140 984,-140 984,-159"/>
<text text-anchor="middle" x="919.5" y="-147" font-family="Helvetica,sans-Serif" font-size="10.00">is_colliding_with_wall2</text>
</a>
</g>
</g>
<!-- Node39&#45;&gt;Node42 -->
<g id="edge44_Node000039_Node000042" class="edge">
<title>Node39&#45;&gt;Node42</title>
<g id="a_edge44_Node000039_Node000042"><a xlink:title=" ">
<path fill="none" stroke="#63b8ff" d="M766.77,-187.95C777.62,-185.34 789.28,-182.42 800,-179.5 816.14,-175.1 819.84,-172.82 836,-168.5 845.17,-166.05 854.96,-163.62 864.48,-161.37"/>
<polygon fill="#63b8ff" stroke="#63b8ff" points="865.31,-164.77 874.26,-159.09 863.72,-157.95 865.31,-164.77"/>
</a>
</g>
</g>
<!-- Node44&#45;&gt;Node12 -->
<g id="edge48_Node000044_Node000012" class="edge">
<title>Node44&#45;&gt;Node12</title>
<g id="a_edge48_Node000044_Node000012"><a xlink:title=" ">
<path fill="none" stroke="#63b8ff" d="M591.58,-245.03C614.72,-249.86 643.02,-255.78 667.42,-260.88"/>
<polygon fill="#63b8ff" stroke="#63b8ff" points="666.76,-264.32 677.27,-262.94 668.19,-257.47 666.76,-264.32"/>
</a>
</g>
</g>
<!-- Node44&#45;&gt;Node36 -->
<g id="edge49_Node000044_Node000036" class="edge">
<title>Node44&#45;&gt;Node36</title>
<g id="a_edge49_Node000044_Node000036"><a xlink:title=" ">
<path fill="none" stroke="#63b8ff" d="M612.16,-235.5C620.56,-235.5 629.24,-235.5 637.89,-235.5"/>
<polygon fill="#63b8ff" stroke="#63b8ff" points="637.99,-239 647.99,-235.5 637.99,-232 637.99,-239"/>
</a>
</g>
</g>
<!-- Node45&#45;&gt;Node12 -->
<g id="edge51_Node000045_Node000012" class="edge">
<title>Node45&#45;&gt;Node12</title>
<g id="a_edge51_Node000045_Node000012"><a xlink:title=" ">
<path fill="none" stroke="#63b8ff" d="M588.9,-207.05C596.9,-209.77 604.94,-213.21 612,-217.5 631.6,-229.43 628.06,-243.15 648,-254.5 651.22,-256.33 654.61,-257.97 658.11,-259.45"/>
<polygon fill="#63b8ff" stroke="#63b8ff" points="656.96,-262.76 667.56,-262.99 659.42,-256.2 656.96,-262.76"/>
</a>
</g>
</g>
<!-- Node45&#45;&gt;Node36 -->
<g id="edge54_Node000045_Node000036" class="edge">
<title>Node45&#45;&gt;Node36</title>
<g id="a_edge54_Node000045_Node000036"><a xlink:title=" ">
<path fill="none" stroke="#63b8ff" d="M590.66,-207.09C614.34,-212.17 643.61,-218.46 668.6,-223.82"/>
<polygon fill="#63b8ff" stroke="#63b8ff" points="668.14,-227.3 678.66,-225.98 669.61,-220.46 668.14,-227.3"/>
</a>
</g>
</g>
<!-- Node45&#45;&gt;Node39 -->
<g id="edge52_Node000045_Node000039" class="edge">
<title>Node45&#45;&gt;Node39</title>
<g id="a_edge52_Node000045_Node000039"><a xlink:title=" ">
<path fill="none" stroke="#63b8ff" d="M606.91,-197.5C626.49,-197.5 648.08,-197.5 667.27,-197.5"/>
<polygon fill="#63b8ff" stroke="#63b8ff" points="667.36,-201 677.36,-197.5 667.36,-194 667.36,-201"/>
</a>
</g>
</g>
<!-- Node45&#45;&gt;Node43 -->
<g id="edge53_Node000045_Node000043" class="edge">
<title>Node45&#45;&gt;Node43</title>
<g id="a_edge53_Node000045_Node000043"><a xlink:title=" ">
<path fill="none" stroke="#63b8ff" d="M591.58,-187.97C614.9,-183.1 643.46,-177.13 667.99,-172"/>
<polygon fill="#63b8ff" stroke="#63b8ff" points="668.81,-175.4 677.88,-169.93 667.37,-168.55 668.81,-175.4"/>
</a>
</g>
</g>
<!-- Node47 -->
<g id="Node000047" class="node">
<title>Node47</title>
<g id="a_Node000047"><a xlink:href="code__80091750_8c.html#ae51a0e8a87ee07bbd88e006d87343ada" target="_top" xlink:title=" ">
<polygon fill="white" stroke="#666666" points="591,-38 499,-38 499,-19 591,-19 591,-38"/>
<text text-anchor="middle" x="545" y="-26" font-family="Helvetica,sans-Serif" font-size="10.00">func_8009E5BC</text>
</a>
</g>
</g>
<!-- Node46&#45;&gt;Node47 -->
<g id="edge57_Node000046_Node000047" class="edge">
<title>Node46&#45;&gt;Node47</title>
<g id="a_edge57_Node000046_Node000047"><a xlink:title=" ">
<path fill="none" stroke="#63b8ff" d="M404.02,-73.92C432.01,-64.84 474.23,-51.14 504.98,-41.16"/>
<polygon fill="#63b8ff" stroke="#63b8ff" points="506.1,-44.48 514.53,-38.06 503.94,-37.82 506.1,-44.48"/>
</a>
</g>
</g>
<!-- Node49 -->
<g id="Node000049" class="node">
<title>Node49</title>
<g id="a_Node000049"><a xlink:href="external_8c.html#ab3e41422317f1d656be9e9b0d5947bb8" target="_top" xlink:title=" ">
<polygon fill="white" stroke="#666666" points="592,-93 498,-93 498,-74 592,-74 592,-93"/>
<text text-anchor="middle" x="545" y="-81" font-family="Helvetica,sans-Serif" font-size="10.00">func_800CAB4C</text>
</a>
</g>
</g>
<!-- Node46&#45;&gt;Node49 -->
<g id="edge59_Node000046_Node000049" class="edge">
<title>Node46&#45;&gt;Node49</title>
<g id="a_edge59_Node000046_Node000049"><a xlink:title=" ">
<path fill="none" stroke="#63b8ff" d="M425.82,-83.5C445.31,-83.5 467.63,-83.5 487.57,-83.5"/>
<polygon fill="#63b8ff" stroke="#63b8ff" points="487.76,-87 497.76,-83.5 487.76,-80 487.76,-87"/>
</a>
</g>
</g>
<!-- Node48 -->
<g id="Node000048" class="node">
<title>Node48</title>
<g id="a_Node000048"><a xlink:href="code__80091750_8c.html#ac9e3b8307dec167812d18d72a541bf1f" target="_top" xlink:title=" ">
<polygon fill="white" stroke="#666666" points="770,-19 678,-19 678,0 770,0 770,-19"/>
<text text-anchor="middle" x="724" y="-7" font-family="Helvetica,sans-Serif" font-size="10.00">func_8009E5FC</text>
</a>
</g>
</g>
<!-- Node47&#45;&gt;Node48 -->
<g id="edge58_Node000047_Node000048" class="edge">
<title>Node47&#45;&gt;Node48</title>
<g id="a_edge58_Node000047_Node000048"><a xlink:title=" ">
<path fill="none" stroke="#63b8ff" d="M591.12,-23.66C614.53,-21.14 643.31,-18.05 668.01,-15.4"/>
<polygon fill="#63b8ff" stroke="#63b8ff" points="668.39,-18.88 677.96,-14.33 667.64,-11.92 668.39,-18.88"/>
</a>
</g>
</g>
<!-- Node50 -->
<g id="Node000050" class="node">
<title>Node50</title>
<g id="a_Node000050"><a xlink:href="external_8c.html#ad79a8b3dfe27cebca94c2d9e2cc54d2b" target="_top" xlink:title=" ">
<polygon fill="white" stroke="#666666" points="770,-56 678,-56 678,-37 770,-37 770,-56"/>
<text text-anchor="middle" x="724" y="-44" font-family="Helvetica,sans-Serif" font-size="10.00">func_800C36C4</text>
</a>
</g>
</g>
<!-- Node49&#45;&gt;Node50 -->
<g id="edge60_Node000049_Node000050" class="edge">
<title>Node49&#45;&gt;Node50</title>
<g id="a_edge60_Node000049_Node000050"><a xlink:title=" ">
<path fill="none" stroke="#63b8ff" d="M591.58,-73.97C614.9,-69.1 643.46,-63.13 667.99,-58"/>
<polygon fill="#63b8ff" stroke="#63b8ff" points="668.81,-61.4 677.88,-55.93 667.37,-54.55 668.81,-61.4"/>
</a>
</g>
</g>
<!-- Node51 -->
<g id="Node000051" class="node">
<title>Node51</title>
<g id="a_Node000051"><a xlink:href="external_8c.html#a2be9efc97a92e19d02aaee90d676acc1" target="_top" xlink:title=" ">
<polygon fill="white" stroke="#666666" points="770,-93 678,-93 678,-74 770,-74 770,-93"/>
<text text-anchor="middle" x="724" y="-81" font-family="Helvetica,sans-Serif" font-size="10.00">func_800C9060</text>
</a>
</g>
</g>
<!-- Node49&#45;&gt;Node51 -->
<g id="edge61_Node000049_Node000051" class="edge">
<title>Node49&#45;&gt;Node51</title>
<g id="a_edge61_Node000049_Node000051"><a xlink:title=" ">
<path fill="none" stroke="#63b8ff" d="M592.04,-83.5C615.17,-83.5 643.36,-83.5 667.65,-83.5"/>
<polygon fill="#63b8ff" stroke="#63b8ff" points="667.8,-87 677.8,-83.5 667.8,-80 667.8,-87"/>
</a>
</g>
</g>
<!-- Node52 -->
<g id="Node000052" class="node">
<title>Node52</title>
<g id="a_Node000052"><a xlink:href="external_8c.html#a4227847f3da303aee53cf69d2760a595" target="_top" xlink:title=" ">
<polygon fill="white" stroke="#666666" points="955.5,-108 883.5,-108 883.5,-89 955.5,-89 955.5,-108"/>
<text text-anchor="middle" x="919.5" y="-96" font-family="Helvetica,sans-Serif" font-size="10.00">play_sound</text>
</a>
</g>
</g>
<!-- Node49&#45;&gt;Node52 -->
<g id="edge63_Node000049_Node000052" class="edge">
<title>Node49&#45;&gt;Node52</title>
<g id="a_edge63_Node000049_Node000052"><a xlink:title=" ">
<path fill="none" stroke="#63b8ff" d="M587.44,-93.01C605.88,-96.78 627.91,-100.64 648,-102.5 726.92,-109.79 819.33,-105.73 873.16,-102.12"/>
<polygon fill="#63b8ff" stroke="#63b8ff" points="873.66,-105.59 883.39,-101.4 873.17,-98.61 873.66,-105.59"/>
</a>
</g>
</g>
<!-- Node51&#45;&gt;Node52 -->
<g id="edge62_Node000051_Node000052" class="edge">
<title>Node51&#45;&gt;Node52</title>
<g id="a_edge62_Node000051_Node000052"><a xlink:title=" ">
<path fill="none" stroke="#63b8ff" d="M770.37,-87.02C801.38,-89.42 842.31,-92.59 873.29,-95"/>
<polygon fill="#63b8ff" stroke="#63b8ff" points="873.14,-98.49 883.38,-95.78 873.68,-91.52 873.14,-98.49"/>
</a>
</g>
</g>
<!-- Node53&#45;&gt;Node12 -->
<g id="edge65_Node000053_Node000012" class="edge">
<title>Node53&#45;&gt;Node12</title>
<g id="a_edge65_Node000053_Node000012"><a xlink:title=" ">
<path fill="none" stroke="#63b8ff" d="M434.15,-342.28C482.55,-336.5 552.3,-326.5 612,-311.5 638.8,-304.77 668.27,-294.26 690.11,-285.85"/>
<polygon fill="#63b8ff" stroke="#63b8ff" points="691.53,-289.05 699.57,-282.15 688.98,-282.53 691.53,-289.05"/>
</a>
</g>
</g>
</g>
</svg>
