<?xml version="1.0" encoding="UTF-8" standalone="no"?>
<!DOCTYPE svg PUBLIC "-//W3C//DTD SVG 1.1//EN"
 "http://www.w3.org/Graphics/SVG/1.1/DTD/svg11.dtd">
<!-- Generated by graphviz version 2.43.0 (0)
 -->
<!-- Title: place_palm_trees Pages: 1 -->
<!--zoomable 358 -->

<svg id="main" version="1.1" xmlns="http://www.w3.org/2000/svg" xmlns:xlink="http://www.w3.org/1999/xlink" xml:space="preserve" onload="init(evt)">
<style type="text/css"><![CDATA[
.node, .edge {opacity: 0.7;}
.node.selected, .edge.selected {opacity: 1;}
.edge:hover path { stroke: red; }
.edge:hover polygon { stroke: red; fill: red; }
]]></style>

<defs>
  <circle id="rim" cx="0" cy="0" r="7"/>
  <circle id="rim2" cx="0" cy="0" r="3.5"/>
  <g id="zoomPlus">
    <use xlink:href="#rim" fill="#404040"><set attributeName="fill" to="#808080" begin="zoomplus.mouseover" end="zoomplus.mouseout"/></use>
    <path d="M-4,0h8M0,-4v8" fill="none" stroke="white" stroke-width="1.5" pointer-events="none"/>
  </g>
  <g id="zoomMin">
    <use xlink:href="#rim" fill="#404040"><set attributeName="fill" to="#808080" begin="zoomminus.mouseover" end="zoomminus.mouseout"/></use>
    <path d="M-4,0h8" fill="none" stroke="white" stroke-width="1.5" pointer-events="none"/>
  </g>
  <g id="arrowUp" transform="translate(30 24)">
    <use xlink:href="#rim"/>
    <path pointer-events="none" fill="none" stroke="white" stroke-width="1.5" d="M0,-3.0v7 M-2.5,-0.5L0,-3.0L2.5,-0.5"/>
  </g>
  <g id="arrowRight" transform="rotate(90) translate(36 -43)">
    <use xlink:href="#rim"/>
    <path pointer-events="none" fill="none" stroke="white" stroke-width="1.5" d="M0,-3.0v7 M-2.5,-0.5L0,-3.0L2.5,-0.5"/>
  </g>
  <g id="arrowDown" transform="rotate(180) translate(-30 -48)">
    <use xlink:href="#rim"/>
    <path pointer-events="none" fill="none" stroke="white" stroke-width="1.5" d="M0,-3.0v7 M-2.5,-0.5L0,-3.0L2.5,-0.5"/>
  </g>
  <g id="arrowLeft" transform="rotate(270) translate(-36 17)">
    <use xlink:href="#rim"/>
    <path pointer-events="none" fill="none" stroke="white" stroke-width="1.5" d="M0,-3.0v7 M-2.5,-0.5L0,-3.0L2.5,-0.5"/>
  </g>
  <g id="resetDef">
    <use xlink:href="#rim2" fill="#404040"><set attributeName="fill" to="#808080" begin="reset.mouseover" end="reset.mouseout"/></use>
  </g>
</defs>
<script type="application/ecmascript">
var viewWidth = 1713;
var viewHeight = 358;
var sectionId = 'dynsection-74';
</script>
<script type="application/ecmascript" xlink:href="svg.min.js"/>
<svg id="graph" class="graph">
<g id="viewport">
<title>place_palm_trees</title>
<!-- Node1 -->
<g id="Node000001" class="node">
<title>Node1</title>
<g id="a_Node000001"><a xlink:title=" ">
<polygon fill="#999999" stroke="#666666" points="103,-94 0,-94 0,-75 103,-75 103,-94"/>
<text text-anchor="middle" x="51.5" y="-82" font-family="Helvetica,sans-Serif" font-size="10.00">place_palm_trees</text>
</a>
</g>
</g>
<!-- Node2 -->
<g id="Node000002" class="node">
<title>Node2</title>
<g id="a_Node000002"><a xlink:href="actors_8c.html#a91fb2e4e37e7c72fea918fe2c1bb4eaf" target="_top" xlink:title=" ">
<polygon fill="white" stroke="#666666" points="279,-225 139,-225 139,-206 279,-206 279,-225"/>
<text text-anchor="middle" x="209" y="-213" font-family="Helvetica,sans-Serif" font-size="10.00">add_actor_to_empty_slot</text>
</a>
</g>
</g>
<!-- Node1&#45;&gt;Node2 -->
<g id="edge1_Node000001_Node000002" class="edge">
<title>Node1&#45;&gt;Node2</title>
<g id="a_edge1_Node000001_Node000002"><a xlink:title=" ">
<path fill="none" stroke="#63b8ff" d="M63.93,-94.13C90.33,-116.37 155.77,-171.5 188.58,-199.14"/>
<polygon fill="#63b8ff" stroke="#63b8ff" points="186.65,-202.09 196.55,-205.85 191.16,-196.73 186.65,-202.09"/>
</a>
</g>
</g>
<!-- Node17 -->
<g id="Node000017" class="node">
<title>Node17</title>
<g id="a_Node000017"><a xlink:href="math__util_8c.html#a79fd07a0971ec96a3ff0801963a2fa7f" target="_top" xlink:title=" ">
<polygon fill="white" stroke="#666666" points="909,-169 845,-169 845,-150 909,-150 909,-169"/>
<text text-anchor="middle" x="877" y="-157" font-family="Helvetica,sans-Serif" font-size="10.00">vec3f_set</text>
</a>
</g>
</g>
<!-- Node1&#45;&gt;Node17 -->
<g id="edge32_Node000001_Node000017" class="edge">
<title>Node1&#45;&gt;Node17</title>
<g id="a_edge32_Node000001_Node000017"><a xlink:title=" ">
<path fill="none" stroke="#63b8ff" d="M103.16,-93.6C170.25,-104.84 292.35,-122.5 397.5,-122.5 397.5,-122.5 397.5,-122.5 560,-122.5 659.21,-122.5 774.76,-140.71 834.88,-151.58"/>
<polygon fill="#63b8ff" stroke="#63b8ff" points="834.28,-155.03 844.75,-153.39 835.54,-148.14 834.28,-155.03"/>
</a>
</g>
</g>
<!-- Node18 -->
<g id="Node000018" class="node">
<title>Node18</title>
<g id="a_Node000018"><a xlink:href="collision_8c.html#a365367628b7140a7a880beeecce9c305" target="_top" xlink:title=" ">
<polygon fill="white" stroke="#666666" points="749.5,-94 654.5,-94 654.5,-75 749.5,-75 749.5,-94"/>
<text text-anchor="middle" x="702" y="-82" font-family="Helvetica,sans-Serif" font-size="10.00">func_802ADDC8</text>
</a>
</g>
</g>
<!-- Node1&#45;&gt;Node18 -->
<g id="edge31_Node000001_Node000018" class="edge">
<title>Node1&#45;&gt;Node18</title>
<g id="a_edge31_Node000001_Node000018"><a xlink:title=" ">
<path fill="none" stroke="#63b8ff" d="M103.12,-84.5C222.14,-84.5 519.12,-84.5 644.13,-84.5"/>
<polygon fill="#63b8ff" stroke="#63b8ff" points="644.25,-88 654.25,-84.5 644.25,-81 644.25,-88"/>
</a>
</g>
</g>
<!-- Node25 -->
<g id="Node000025" class="node">
<title>Node25</title>
<g id="a_Node000025"><a xlink:href="actors_8c.html#a09d879c67b2c1430dd8ba2d5c9c136e1" target="_top" xlink:title=" ">
<polygon fill="white" stroke="#666666" points="255,-56 163,-56 163,-37 255,-37 255,-56"/>
<text text-anchor="middle" x="209" y="-44" font-family="Helvetica,sans-Serif" font-size="10.00">func_802976EC</text>
</a>
</g>
</g>
<!-- Node1&#45;&gt;Node25 -->
<g id="edge27_Node000001_Node000025" class="edge">
<title>Node1&#45;&gt;Node25</title>
<g id="a_edge27_Node000001_Node000025"><a xlink:title=" ">
<path fill="none" stroke="#63b8ff" d="M91.74,-74.91C112.26,-69.9 137.57,-63.71 159.33,-58.39"/>
<polygon fill="#63b8ff" stroke="#63b8ff" points="160.16,-61.79 169.04,-56.02 158.5,-54.99 160.16,-61.79"/>
</a>
</g>
</g>
<!-- Node29 -->
<g id="Node000029" class="node">
<title>Node29</title>
<g id="a_Node000029"><a xlink:href="math__util_8c.html#a9092c945c52b3a3481228b2724991e3c" target="_top" xlink:title=" ">
<polygon fill="white" stroke="#666666" points="241.5,-19 176.5,-19 176.5,0 241.5,0 241.5,-19"/>
<text text-anchor="middle" x="209" y="-7" font-family="Helvetica,sans-Serif" font-size="10.00">vec3s_set</text>
</a>
</g>
</g>
<!-- Node1&#45;&gt;Node29 -->
<g id="edge33_Node000001_Node000029" class="edge">
<title>Node1&#45;&gt;Node29</title>
<g id="a_edge33_Node000001_Node000029"><a xlink:title=" ">
<path fill="none" stroke="#63b8ff" d="M64.36,-74.84C80.38,-62.24 110.25,-40.3 139,-27.5 147.64,-23.65 157.26,-20.5 166.52,-17.97"/>
<polygon fill="#63b8ff" stroke="#63b8ff" points="167.52,-21.32 176.35,-15.46 165.8,-14.54 167.52,-21.32"/>
</a>
</g>
</g>
<!-- Node3 -->
<g id="Node000003" class="node">
<title>Node3</title>
<g id="a_Node000003"><a xlink:href="actors_8c.html#a39c023177b5a7686cdd1fc65b8b953e1" target="_top" xlink:title=" ">
<polygon fill="white" stroke="#666666" points="590,-225 528,-225 528,-206 590,-206 590,-225"/>
<text text-anchor="middle" x="559" y="-213" font-family="Helvetica,sans-Serif" font-size="10.00">actor_init</text>
</a>
</g>
</g>
<!-- Node2&#45;&gt;Node3 -->
<g id="edge2_Node000002_Node000003" class="edge">
<title>Node2&#45;&gt;Node3</title>
<g id="a_edge2_Node000002_Node000003"><a xlink:title=" ">
<path fill="none" stroke="#63b8ff" d="M279.17,-215.5C350.45,-215.5 459.16,-215.5 517.55,-215.5"/>
<polygon fill="#63b8ff" stroke="#63b8ff" points="517.85,-219 527.85,-215.5 517.85,-212 517.85,-219"/>
</a>
</g>
</g>
<!-- Node24 -->
<g id="Node000024" class="node">
<title>Node24</title>
<g id="a_Node000024"><a xlink:href="actors_8c.html#adf454481afb7fd833f5ce3f01dea4bea" target="_top" xlink:title=" ">
<polygon fill="white" stroke="#666666" points="482,-288 315,-288 315,-269 482,-269 482,-288"/>
<text text-anchor="middle" x="398.5" y="-276" font-family="Helvetica,sans-Serif" font-size="10.00">try_remove_destructable_item</text>
</a>
</g>
</g>
<!-- Node2&#45;&gt;Node24 -->
<g id="edge23_Node000002_Node000024" class="edge">
<title>Node2&#45;&gt;Node24</title>
<g id="a_edge23_Node000002_Node000024"><a xlink:title=" ">
<path fill="none" stroke="#63b8ff" d="M238.48,-225.07C270.78,-235.92 323.62,-253.68 359.44,-265.71"/>
<polygon fill="#63b8ff" stroke="#63b8ff" points="358.47,-269.08 369.06,-268.95 360.7,-262.44 358.47,-269.08"/>
</a>
</g>
</g>
<!-- Node4 -->
<g id="Node000004" class="node">
<title>Node4</title>
<g id="a_Node000004"><a xlink:href="actors_8c.html#a1a9bccb586242555a9123ebd4ab70f2a" target="_top" xlink:title=" ">
<polygon fill="white" stroke="#666666" points="768,-292.5 636,-292.5 636,-262.5 768,-262.5 768,-292.5"/>
<text text-anchor="start" x="644" y="-280.5" font-family="Helvetica,sans-Serif" font-size="10.00">cleanup_red_and_green</text>
<text text-anchor="middle" x="702" y="-269.5" font-family="Helvetica,sans-Serif" font-size="10.00">_shells</text>
</a>
</g>
</g>
<!-- Node3&#45;&gt;Node4 -->
<g id="edge3_Node000003_Node000004" class="edge">
<title>Node3&#45;&gt;Node4</title>
<g id="a_edge3_Node000003_Node000004"><a xlink:title=" ">
<path fill="none" stroke="#63b8ff" d="M577.86,-225.13C593.09,-233.17 615.69,-244.71 636,-253.5 640.08,-255.27 644.35,-257.03 648.65,-258.74"/>
<polygon fill="#63b8ff" stroke="#63b8ff" points="647.49,-262.05 658.08,-262.41 650.03,-255.52 647.49,-262.05"/>
</a>
</g>
</g>
<!-- Node16 -->
<g id="Node000016" class="node">
<title>Node16</title>
<g id="a_Node000016"><a xlink:href="collision_8c.html#ad72fef3ffe32191d73b1822f512ebf3f" target="_top" xlink:title=" ">
<polygon fill="white" stroke="#666666" points="749.5,-170 654.5,-170 654.5,-151 749.5,-151 749.5,-170"/>
<text text-anchor="middle" x="702" y="-158" font-family="Helvetica,sans-Serif" font-size="10.00">func_802AAAAC</text>
</a>
</g>
</g>
<!-- Node3&#45;&gt;Node16 -->
<g id="edge15_Node000003_Node000016" class="edge">
<title>Node3&#45;&gt;Node16</title>
<g id="a_edge15_Node000003_Node000016"><a xlink:title=" ">
<path fill="none" stroke="#63b8ff" d="M578.08,-205.94C593.26,-198.16 615.67,-187.23 636,-179.5 641.99,-177.22 648.37,-175.06 654.7,-173.05"/>
<polygon fill="#63b8ff" stroke="#63b8ff" points="656.02,-176.31 664.56,-170.05 653.98,-169.62 656.02,-176.31"/>
</a>
</g>
</g>
<!-- Node3&#45;&gt;Node18 -->
<g id="edge17_Node000003_Node000018" class="edge">
<title>Node3&#45;&gt;Node18</title>
<g id="a_edge17_Node000003_Node000018"><a xlink:title=" ">
<path fill="none" stroke="#63b8ff" d="M569.73,-205.93C584.08,-191.87 611.84,-164.87 636,-142.5 651.29,-128.34 668.96,-112.62 682.01,-101.12"/>
<polygon fill="#63b8ff" stroke="#63b8ff" points="684.65,-103.46 689.85,-94.23 680.03,-98.2 684.65,-103.46"/>
</a>
</g>
</g>
<!-- Node22 -->
<g id="Node000022" class="node">
<title>Node22</title>
<g id="a_Node000022"><a xlink:href="math__util_8c.html#af7b470ed76fce07b8042a47c96e5690b" target="_top" xlink:title=" ">
<polygon fill="white" stroke="#666666" points="755.5,-244 648.5,-244 648.5,-225 755.5,-225 755.5,-244"/>
<text text-anchor="middle" x="702" y="-232" font-family="Helvetica,sans-Serif" font-size="10.00">vec3f_copy_return</text>
</a>
</g>
</g>
<!-- Node3&#45;&gt;Node22 -->
<g id="edge21_Node000003_Node000022" class="edge">
<title>Node3&#45;&gt;Node22</title>
<g id="a_edge21_Node000003_Node000022"><a xlink:title=" ">
<path fill="none" stroke="#63b8ff" d="M590.25,-219.58C604.25,-221.46 621.45,-223.78 638.07,-226.02"/>
<polygon fill="#63b8ff" stroke="#63b8ff" points="637.94,-229.53 648.31,-227.4 638.87,-222.6 637.94,-229.53"/>
</a>
</g>
</g>
<!-- Node23 -->
<g id="Node000023" class="node">
<title>Node23</title>
<g id="a_Node000023"><a xlink:href="math__util_8c.html#a0e270ee67600c8c9c2f140c647d008a1" target="_top" xlink:title=" ">
<polygon fill="white" stroke="#666666" points="739,-207 665,-207 665,-188 739,-188 739,-207"/>
<text text-anchor="middle" x="702" y="-195" font-family="Helvetica,sans-Serif" font-size="10.00">vec3s_copy</text>
</a>
</g>
</g>
<!-- Node3&#45;&gt;Node23 -->
<g id="edge22_Node000003_Node000023" class="edge">
<title>Node3&#45;&gt;Node23</title>
<g id="a_edge22_Node000003_Node000023"><a xlink:title=" ">
<path fill="none" stroke="#63b8ff" d="M590.25,-211.64C609.02,-209.24 633.53,-206.11 654.71,-203.41"/>
<polygon fill="#63b8ff" stroke="#63b8ff" points="655.33,-206.86 664.8,-202.12 654.44,-199.92 655.33,-206.86"/>
</a>
</g>
</g>
<!-- Node5 -->
<g id="Node000005" class="node">
<title>Node5</title>
<g id="a_Node000005"><a xlink:href="code__80005FD0_8c.html#ad301b978cdd3c4cc190b10be050d51d8" target="_top" xlink:title=" ">
<polygon fill="white" stroke="#666666" points="950,-332.5 804,-332.5 804,-302.5 950,-302.5 950,-332.5"/>
<text text-anchor="start" x="812" y="-320.5" font-family="Helvetica,sans-Serif" font-size="10.00">delete_actor_in_unexpired</text>
<text text-anchor="middle" x="877" y="-309.5" font-family="Helvetica,sans-Serif" font-size="10.00">_actor_list</text>
</a>
</g>
</g>
<!-- Node4&#45;&gt;Node5 -->
<g id="edge4_Node000004_Node000005" class="edge">
<title>Node4&#45;&gt;Node5</title>
<g id="a_edge4_Node000004_Node000005"><a xlink:title=" ">
<path fill="none" stroke="#63b8ff" d="M767.91,-292.51C778.7,-295 789.97,-297.61 800.99,-300.16"/>
<polygon fill="#63b8ff" stroke="#63b8ff" points="800.48,-303.63 811.01,-302.47 802.06,-296.81 800.48,-303.63"/>
</a>
</g>
</g>
<!-- Node6 -->
<g id="Node000006" class="node">
<title>Node6</title>
<g id="a_Node000006"><a xlink:href="actors_8c.html#a694ec6ef7548b8618aeb35c038d3a9b9" target="_top" xlink:title=" ">
<polygon fill="white" stroke="#666666" points="918.5,-284 835.5,-284 835.5,-265 918.5,-265 918.5,-284"/>
<text text-anchor="middle" x="877" y="-272" font-family="Helvetica,sans-Serif" font-size="10.00">destroy_actor</text>
</a>
</g>
</g>
<!-- Node4&#45;&gt;Node6 -->
<g id="edge5_Node000004_Node000006" class="edge">
<title>Node4&#45;&gt;Node6</title>
<g id="a_edge5_Node000004_Node000006"><a xlink:title=" ">
<path fill="none" stroke="#63b8ff" d="M768.4,-276.37C787.2,-276.04 807.41,-275.69 825.19,-275.38"/>
<polygon fill="#63b8ff" stroke="#63b8ff" points="825.4,-278.88 835.34,-275.21 825.28,-271.88 825.4,-278.88"/>
</a>
</g>
</g>
<!-- Node7 -->
<g id="Node000007" class="node">
<title>Node7</title>
<g id="a_Node000007"><a xlink:href="actors_8c.html#a12dc3ccac4c7d8569eadac0af4fd6f9f" target="_top" xlink:title=" ">
<polygon fill="white" stroke="#666666" points="1144,-327 986,-327 986,-308 1144,-308 1144,-327"/>
<text text-anchor="middle" x="1065" y="-315" font-family="Helvetica,sans-Serif" font-size="10.00">play_sound_before_despawn</text>
</a>
</g>
</g>
<!-- Node6&#45;&gt;Node7 -->
<g id="edge6_Node000006_Node000007" class="edge">
<title>Node6&#45;&gt;Node7</title>
<g id="a_edge6_Node000006_Node000007"><a xlink:title=" ">
<path fill="none" stroke="#63b8ff" d="M918.82,-283.94C946.49,-290.33 983.27,-298.84 1012.89,-305.68"/>
<polygon fill="#63b8ff" stroke="#63b8ff" points="1012.1,-309.09 1022.63,-307.94 1013.68,-302.27 1012.1,-309.09"/>
</a>
</g>
</g>
<!-- Node8 -->
<g id="Node000008" class="node">
<title>Node8</title>
<g id="a_Node000008"><a xlink:href="external_8c.html#ae72057869772019e4464c87d4e16c682" target="_top" xlink:title=" ">
<polygon fill="white" stroke="#666666" points="1272,-327 1180,-327 1180,-308 1272,-308 1272,-327"/>
<text text-anchor="middle" x="1226" y="-315" font-family="Helvetica,sans-Serif" font-size="10.00">func_800C99E0</text>
</a>
</g>
</g>
<!-- Node7&#45;&gt;Node8 -->
<g id="edge7_Node000007_Node000008" class="edge">
<title>Node7&#45;&gt;Node8</title>
<g id="a_edge7_Node000007_Node000008"><a xlink:title=" ">
<path fill="none" stroke="#63b8ff" d="M1144.1,-317.5C1152.72,-317.5 1161.35,-317.5 1169.61,-317.5"/>
<polygon fill="#63b8ff" stroke="#63b8ff" points="1169.83,-321 1179.83,-317.5 1169.83,-314 1169.83,-321"/>
</a>
</g>
</g>
<!-- Node9 -->
<g id="Node000009" class="node">
<title>Node9</title>
<g id="a_Node000009"><a xlink:href="external_8c.html#aeb87c527482a244173df36a1f3d4f446" target="_top" xlink:title=" ">
<polygon fill="white" stroke="#666666" points="1400,-346 1308,-346 1308,-327 1400,-327 1400,-346"/>
<text text-anchor="middle" x="1354" y="-334" font-family="Helvetica,sans-Serif" font-size="10.00">func_800C21E8</text>
</a>
</g>
</g>
<!-- Node8&#45;&gt;Node9 -->
<g id="edge8_Node000008_Node000009" class="edge">
<title>Node8&#45;&gt;Node9</title>
<g id="a_edge8_Node000008_Node000009"><a xlink:title=" ">
<path fill="none" stroke="#63b8ff" d="M1272.13,-324.31C1280.46,-325.56 1289.23,-326.88 1297.81,-328.18"/>
<polygon fill="#63b8ff" stroke="#63b8ff" points="1297.35,-331.65 1307.76,-329.68 1298.39,-324.73 1297.35,-331.65"/>
</a>
</g>
</g>
<!-- Node10 -->
<g id="Node000010" class="node">
<title>Node10</title>
<g id="a_Node000010"><a xlink:href="external_8c.html#a028d40421b90c38f68ebfd5acc626f2e" target="_top" xlink:title=" ">
<polygon fill="white" stroke="#666666" points="1400,-309 1308,-309 1308,-290 1400,-290 1400,-309"/>
<text text-anchor="middle" x="1354" y="-297" font-family="Helvetica,sans-Serif" font-size="10.00">func_800C5578</text>
</a>
</g>
</g>
<!-- Node8&#45;&gt;Node10 -->
<g id="edge9_Node000008_Node000010" class="edge">
<title>Node8&#45;&gt;Node10</title>
<g id="a_edge9_Node000008_Node000010"><a xlink:title=" ">
<path fill="none" stroke="#63b8ff" d="M1272.13,-311.05C1280.46,-309.86 1289.23,-308.61 1297.81,-307.38"/>
<polygon fill="#63b8ff" stroke="#63b8ff" points="1298.35,-310.84 1307.76,-305.96 1297.36,-303.91 1298.35,-310.84"/>
</a>
</g>
</g>
<!-- Node11 -->
<g id="Node000011" class="node">
<title>Node11</title>
<g id="a_Node000011"><a xlink:href="external_8c.html#ac0fb767de7e14a03f1bcfa53f0abd23b" target="_top" xlink:title=" ">
<polygon fill="white" stroke="#666666" points="1576,-346 1436,-346 1436,-327 1576,-327 1576,-346"/>
<text text-anchor="middle" x="1506" y="-334" font-family="Helvetica,sans-Serif" font-size="10.00">delete_sound_from_bank</text>
</a>
</g>
</g>
<!-- Node10&#45;&gt;Node11 -->
<g id="edge10_Node000010_Node000011" class="edge">
<title>Node10&#45;&gt;Node11</title>
<g id="a_edge10_Node000010_Node000011"><a xlink:title=" ">
<path fill="none" stroke="#63b8ff" d="M1393.63,-309.03C1412.8,-313.76 1436.16,-319.52 1456.52,-324.54"/>
<polygon fill="#63b8ff" stroke="#63b8ff" points="1455.69,-327.94 1466.24,-326.94 1457.37,-321.15 1455.69,-327.94"/>
</a>
</g>
</g>
<!-- Node13 -->
<g id="Node000013" class="node">
<title>Node13</title>
<g id="a_Node000013"><a xlink:href="external_8c.html#ab83bd36e63f0f1baddcb2482b5ad31b0" target="_top" xlink:title=" ">
<polygon fill="white" stroke="#666666" points="1552.5,-309 1459.5,-309 1459.5,-290 1552.5,-290 1552.5,-309"/>
<text text-anchor="middle" x="1506" y="-297" font-family="Helvetica,sans-Serif" font-size="10.00">func_800C41CC</text>
</a>
</g>
</g>
<!-- Node10&#45;&gt;Node13 -->
<g id="edge12_Node000010_Node000013" class="edge">
<title>Node10&#45;&gt;Node13</title>
<g id="a_edge12_Node000010_Node000013"><a xlink:title=" ">
<path fill="none" stroke="#63b8ff" d="M1400,-299.5C1415.37,-299.5 1432.74,-299.5 1448.86,-299.5"/>
<polygon fill="#63b8ff" stroke="#63b8ff" points="1449.25,-303 1459.25,-299.5 1449.25,-296 1449.25,-303"/>
</a>
</g>
</g>
<!-- Node14 -->
<g id="Node000014" class="node">
<title>Node14</title>
<g id="a_Node000014"><a xlink:href="port__eu_8c.html#aa89dfaecca46c6d071f08c1898d1f7c9" target="_top" xlink:title=" ">
<polygon fill="white" stroke="#666666" points="1552.5,-272 1459.5,-272 1459.5,-253 1552.5,-253 1552.5,-272"/>
<text text-anchor="middle" x="1506" y="-260" font-family="Helvetica,sans-Serif" font-size="10.00">func_800CBBE8</text>
</a>
</g>
</g>
<!-- Node10&#45;&gt;Node14 -->
<g id="edge13_Node000010_Node000014" class="edge">
<title>Node10&#45;&gt;Node14</title>
<g id="a_edge13_Node000010_Node000014"><a xlink:title=" ">
<path fill="none" stroke="#63b8ff" d="M1393.63,-289.97C1412.8,-285.24 1436.16,-279.48 1456.52,-274.46"/>
<polygon fill="#63b8ff" stroke="#63b8ff" points="1457.37,-277.85 1466.24,-272.06 1455.69,-271.06 1457.37,-277.85"/>
</a>
</g>
</g>
<!-- Node12 -->
<g id="Node000012" class="node">
<title>Node12</title>
<g id="a_Node000012"><a xlink:href="external_8c.html#a358ac55e8ab5262dcae8037334be06d7" target="_top" xlink:title=" ">
<polygon fill="white" stroke="#666666" points="1704.5,-346 1612.5,-346 1612.5,-327 1704.5,-327 1704.5,-346"/>
<text text-anchor="middle" x="1658.5" y="-334" font-family="Helvetica,sans-Serif" font-size="10.00">func_800C40F0</text>
</a>
</g>
</g>
<!-- Node11&#45;&gt;Node12 -->
<g id="edge11_Node000011_Node000012" class="edge">
<title>Node11&#45;&gt;Node12</title>
<g id="a_edge11_Node000011_Node000012"><a xlink:title=" ">
<path fill="none" stroke="#63b8ff" d="M1576.08,-336.5C1584.87,-336.5 1593.78,-336.5 1602.31,-336.5"/>
<polygon fill="#63b8ff" stroke="#63b8ff" points="1602.5,-340 1612.5,-336.5 1602.5,-333 1602.5,-340"/>
</a>
</g>
</g>
<!-- Node15 -->
<g id="Node000015" class="node">
<title>Node15</title>
<g id="a_Node000015"><a xlink:href="port__eu_8c.html#af361a20d2e08f30c53a237ca481ff734" target="_top" xlink:title=" ">
<polygon fill="white" stroke="#666666" points="1705,-272 1612,-272 1612,-253 1705,-253 1705,-272"/>
<text text-anchor="middle" x="1658.5" y="-260" font-family="Helvetica,sans-Serif" font-size="10.00">func_800CBB48</text>
</a>
</g>
</g>
<!-- Node14&#45;&gt;Node15 -->
<g id="edge14_Node000014_Node000015" class="edge">
<title>Node14&#45;&gt;Node15</title>
<g id="a_edge14_Node000014_Node000015"><a xlink:title=" ">
<path fill="none" stroke="#63b8ff" d="M1552.56,-262.5C1567.96,-262.5 1585.34,-262.5 1601.46,-262.5"/>
<polygon fill="#63b8ff" stroke="#63b8ff" points="1601.83,-266 1611.83,-262.5 1601.83,-259 1601.83,-266"/>
</a>
</g>
</g>
<!-- Node16&#45;&gt;Node17 -->
<g id="edge16_Node000016_Node000017" class="edge">
<title>Node16&#45;&gt;Node17</title>
<g id="a_edge16_Node000016_Node000017"><a xlink:title=" ">
<path fill="none" stroke="#63b8ff" d="M749.82,-160.23C776.38,-160.08 809.31,-159.89 834.87,-159.74"/>
<polygon fill="#63b8ff" stroke="#63b8ff" points="835,-163.24 844.98,-159.68 834.96,-156.24 835,-163.24"/>
</a>
</g>
</g>
<!-- Node19 -->
<g id="Node000019" class="node">
<title>Node19</title>
<g id="a_Node000019"><a xlink:href="collision_8c.html#afce45acb8da354da0a5b501003be1aef" target="_top" xlink:title=" ">
<polygon fill="white" stroke="#666666" points="923.5,-131 830.5,-131 830.5,-112 923.5,-112 923.5,-131"/>
<text text-anchor="middle" x="877" y="-119" font-family="Helvetica,sans-Serif" font-size="10.00">func_802AAE4C</text>
</a>
</g>
</g>
<!-- Node18&#45;&gt;Node19 -->
<g id="edge18_Node000018_Node000019" class="edge">
<title>Node18&#45;&gt;Node19</title>
<g id="a_edge18_Node000018_Node000019"><a xlink:title=" ">
<path fill="none" stroke="#63b8ff" d="M747.55,-94.03C770.07,-98.84 797.58,-104.73 821.36,-109.81"/>
<polygon fill="#63b8ff" stroke="#63b8ff" points="820.79,-113.27 831.3,-111.94 822.25,-106.43 820.79,-113.27"/>
</a>
</g>
</g>
<!-- Node20 -->
<g id="Node000020" class="node">
<title>Node20</title>
<g id="a_Node000020"><a xlink:href="collision_8c.html#adcc608ea0eae3bf9a27ab79ec64b4899" target="_top" xlink:title=" ">
<polygon fill="white" stroke="#666666" points="923,-94 831,-94 831,-75 923,-75 923,-94"/>
<text text-anchor="middle" x="877" y="-82" font-family="Helvetica,sans-Serif" font-size="10.00">func_802AB288</text>
</a>
</g>
</g>
<!-- Node18&#45;&gt;Node20 -->
<g id="edge19_Node000018_Node000020" class="edge">
<title>Node18&#45;&gt;Node20</title>
<g id="a_edge19_Node000018_Node000020"><a xlink:title=" ">
<path fill="none" stroke="#63b8ff" d="M749.82,-84.5C771.68,-84.5 797.87,-84.5 820.71,-84.5"/>
<polygon fill="#63b8ff" stroke="#63b8ff" points="820.94,-88 830.94,-84.5 820.94,-81 820.94,-88"/>
</a>
</g>
</g>
<!-- Node21 -->
<g id="Node000021" class="node">
<title>Node21</title>
<g id="a_Node000021"><a xlink:href="collision_8c.html#ab440aa3fc960b7b4b5ad8e4bcaa06b00" target="_top" xlink:title=" ">
<polygon fill="white" stroke="#666666" points="923.5,-57 830.5,-57 830.5,-38 923.5,-38 923.5,-57"/>
<text text-anchor="middle" x="877" y="-45" font-family="Helvetica,sans-Serif" font-size="10.00">func_802AB6C4</text>
</a>
</g>
</g>
<!-- Node18&#45;&gt;Node21 -->
<g id="edge20_Node000018_Node000021" class="edge">
<title>Node18&#45;&gt;Node21</title>
<g id="a_edge20_Node000018_Node000021"><a xlink:title=" ">
<path fill="none" stroke="#63b8ff" d="M747.55,-74.97C770.07,-70.16 797.58,-64.27 821.36,-59.19"/>
<polygon fill="#63b8ff" stroke="#63b8ff" points="822.25,-62.57 831.3,-57.06 820.79,-55.73 822.25,-62.57"/>
</a>
</g>
</g>
<!-- Node24&#45;&gt;Node3 -->
<g id="edge24_Node000024_Node000003" class="edge">
<title>Node24&#45;&gt;Node3</title>
<g id="a_edge24_Node000024_Node000003"><a xlink:title=" ">
<path fill="none" stroke="#63b8ff" d="M423.57,-268.93C450.53,-258.22 494.4,-240.78 524.66,-228.75"/>
<polygon fill="#63b8ff" stroke="#63b8ff" points="525.96,-232 533.96,-225.05 523.38,-225.5 525.96,-232"/>
</a>
</g>
</g>
<!-- Node24&#45;&gt;Node5 -->
<g id="edge25_Node000024_Node000005" class="edge">
<title>Node24&#45;&gt;Node5</title>
<g id="a_edge25_Node000024_Node000005"><a xlink:title=" ">
<path fill="none" stroke="#63b8ff" d="M482.08,-287.15C527.48,-291.75 584.81,-297.31 636,-301.5 688.44,-305.8 747.4,-309.74 793.76,-312.64"/>
<polygon fill="#63b8ff" stroke="#63b8ff" points="793.56,-316.13 803.76,-313.26 793.99,-309.14 793.56,-316.13"/>
</a>
</g>
</g>
<!-- Node24&#45;&gt;Node7 -->
<g id="edge26_Node000024_Node000007" class="edge">
<title>Node24&#45;&gt;Node7</title>
<g id="a_edge26_Node000024_Node000007"><a xlink:title=" ">
<path fill="none" stroke="#63b8ff" d="M432.19,-288.02C455.84,-294.61 488.67,-303.12 518,-308.5 707.4,-343.24 758.48,-361.44 950,-341.5 972.73,-339.13 997.61,-334.18 1018.31,-329.38"/>
<polygon fill="#63b8ff" stroke="#63b8ff" points="1019.19,-332.77 1028.11,-327.05 1017.57,-325.96 1019.19,-332.77"/>
</a>
</g>
</g>
<!-- Node26 -->
<g id="Node000026" class="node">
<title>Node26</title>
<g id="a_Node000026"><a xlink:href="math__util_8c.html#aaa39a297477f56051975259f4bddd829" target="_top" xlink:title=" ">
<polygon fill="white" stroke="#666666" points="423.5,-56 373.5,-56 373.5,-37 423.5,-37 423.5,-56"/>
<text text-anchor="middle" x="398.5" y="-44" font-family="Helvetica,sans-Serif" font-size="10.00">atan2s</text>
</a>
</g>
</g>
<!-- Node25&#45;&gt;Node26 -->
<g id="edge28_Node000025_Node000026" class="edge">
<title>Node25&#45;&gt;Node26</title>
<g id="a_edge28_Node000025_Node000026"><a xlink:title=" ">
<path fill="none" stroke="#63b8ff" d="M255.39,-46.5C288.64,-46.5 333.08,-46.5 363.35,-46.5"/>
<polygon fill="#63b8ff" stroke="#63b8ff" points="363.42,-50 373.42,-46.5 363.42,-43 363.42,-50"/>
</a>
</g>
</g>
<!-- Node28 -->
<g id="Node000028" class="node">
<title>Node28</title>
<g id="a_Node000028"><a xlink:href="actors_8c.html#a6fd7dc3bc34357287535b6f06ab7d85c" target="_top" xlink:title=" ">
<polygon fill="white" stroke="#666666" points="444.5,-19 352.5,-19 352.5,0 444.5,0 444.5,-19"/>
<text text-anchor="middle" x="398.5" y="-7" font-family="Helvetica,sans-Serif" font-size="10.00">func_802976D8</text>
</a>
</g>
</g>
<!-- Node25&#45;&gt;Node28 -->
<g id="edge30_Node000025_Node000028" class="edge">
<title>Node25&#45;&gt;Node28</title>
<g id="a_edge30_Node000025_Node000028"><a xlink:title=" ">
<path fill="none" stroke="#63b8ff" d="M255.39,-37.54C281.55,-32.38 314.62,-25.85 342.28,-20.4"/>
<polygon fill="#63b8ff" stroke="#63b8ff" points="343.07,-23.81 352.2,-18.44 341.72,-16.94 343.07,-23.81"/>
</a>
</g>
</g>
<!-- Node27 -->
<g id="Node000027" class="node">
<title>Node27</title>
<g id="a_Node000027"><a xlink:href="math__util_8c.html#a0273b0ea0783a06996c28669a7438ed9" target="_top" xlink:title=" ">
<polygon fill="white" stroke="#666666" points="600,-56 518,-56 518,-37 600,-37 600,-56"/>
<text text-anchor="middle" x="559" y="-44" font-family="Helvetica,sans-Serif" font-size="10.00">atan2_lookup</text>
</a>
</g>
</g>
<!-- Node26&#45;&gt;Node27 -->
<g id="edge29_Node000026_Node000027" class="edge">
<title>Node26&#45;&gt;Node27</title>
<g id="a_edge29_Node000026_Node000027"><a xlink:title=" ">
<path fill="none" stroke="#63b8ff" d="M423.57,-46.5C445.86,-46.5 479.71,-46.5 507.87,-46.5"/>
<polygon fill="#63b8ff" stroke="#63b8ff" points="507.95,-50 517.95,-46.5 507.95,-43 507.95,-50"/>
</a>
</g>
</g>
</g>
</svg>

<g id="navigator" transform="translate(0 0)" fill="#404254">
  <rect fill="#f2f5e9" fill-opacity="0.5" stroke="#606060" stroke-width=".5" x="0" y="0" width="60" height="60"/>
  <use id="zoomplus" xlink:href="#zoomPlus" x="17" y="9" onmousedown="handleZoom(evt,'in')"/>
  <use id="zoomminus" xlink:href="#zoomMin" x="42" y="9" onmousedown="handleZoom(evt,'out')"/>
  <use id="reset" xlink:href="#resetDef" x="30" y="36" onmousedown="handleReset()"/>
   <use id="arrowup" xlink:href="#arrowUp" x="0" y="0" onmousedown="handlePan(0,-1)"/>
  <use id="arrowright" xlink:href="#arrowRight" x="0" y="0" onmousedown="handlePan(1,0)"/>
  <use id="arrowdown" xlink:href="#arrowDown" x="0" y="0" onmousedown="handlePan(0,1)"/>
  <use id="arrowleft" xlink:href="#arrowLeft" x="0" y="0" onmousedown="handlePan(-1,0)"/>
</g>
<svg viewBox="0 0 15 15" width="100%" height="30px" preserveAspectRatio="xMaxYMin meet">
 <g id="arrow_out" transform="scale(0.3 0.3)">
  <a xlink:href="actors_8h_ab3baf99245898ce2d23c039c198e5213_cgraph_org.svg" target="_base">
   <rect id="button" ry="5" rx="5" y="6" x="6" height="38" width="38"
        fill="#f2f5e9" fill-opacity="0.5" stroke="#606060" stroke-width="1.0"/>
   <path id="arrow"
     d="M 11.500037,31.436501 C 11.940474,20.09759 22.043105,11.32322 32.158766,21.979434 L 37.068811,17.246167 C 37.068811,17.246167 37.088388,32 37.088388,32 L 22.160133,31.978069 C 22.160133,31.978069 26.997745,27.140456 26.997745,27.140456 C 18.528582,18.264221 13.291696,25.230495 11.500037,31.436501 z"
     style="fill:#404040;"/>
  </a>
 </g>
</svg>

<style type='text/css'>
<![CDATA[
[data-mouse-over-selected='false'] { opacity: 0.7; }
[data-mouse-over-selected='true']  { opacity: 1.0; }
]]>
</style>
<script type="application/ecmascript"><![CDATA[
document.addEventListener('DOMContentLoaded', (event) => {
  highlightEdges();
  highlightAdjacentNodes();
});
]]></script>
</svg>
