<?xml version="1.0" encoding="UTF-8" standalone="no"?>
<!DOCTYPE svg PUBLIC "-//W3C//DTD SVG 1.1//EN"
 "http://www.w3.org/Graphics/SVG/1.1/DTD/svg11.dtd">
<!-- Generated by graphviz version 2.43.0 (0)
 -->
<!-- Title: place_piranha_plants Pages: 1 -->
<svg width="1710pt" height="317pt"
 viewBox="0.00 0.00 1710.00 316.85" xmlns="http://www.w3.org/2000/svg" xmlns:xlink="http://www.w3.org/1999/xlink">
<g id="graph0" class="graph" transform="scale(1 1) rotate(0) translate(4 312.85)">
<title>place_piranha_plants</title>
<!-- Node1 -->
<g id="Node000001" class="node">
<title>Node1</title>
<g id="a_Node000001"><a xlink:title=" ">
<polygon fill="#999999" stroke="#666666" points="120,-57 0,-57 0,-38 120,-38 120,-57"/>
<text text-anchor="middle" x="60" y="-45" font-family="Helvetica,sans-Serif" font-size="10.00">place_piranha_plants</text>
</a>
</g>
</g>
<!-- Node2 -->
<g id="Node000002" class="node">
<title>Node2</title>
<g id="a_Node000002"><a xlink:href="actors_8c.html#a91fb2e4e37e7c72fea918fe2c1bb4eaf" target="_top" xlink:title=" ">
<polygon fill="white" stroke="#666666" points="296,-187 156,-187 156,-168 296,-168 296,-187"/>
<text text-anchor="middle" x="226" y="-175" font-family="Helvetica,sans-Serif" font-size="10.00">add_actor_to_empty_slot</text>
</a>
</g>
</g>
<!-- Node1&#45;&gt;Node2 -->
<g id="edge1_Node000001_Node000002" class="edge">
<title>Node1&#45;&gt;Node2</title>
<g id="a_edge1_Node000001_Node000002"><a xlink:title=" ">
<path fill="none" stroke="#63b8ff" d="M73.06,-57.06C101.02,-79.22 170.5,-134.3 204.96,-161.62"/>
<polygon fill="#63b8ff" stroke="#63b8ff" points="202.91,-164.46 212.92,-167.93 207.26,-158.97 202.91,-164.46"/>
</a>
</g>
</g>
<!-- Node17 -->
<g id="Node000017" class="node">
<title>Node17</title>
<g id="a_Node000017"><a xlink:href="math__util_8c.html#a79fd07a0971ec96a3ff0801963a2fa7f" target="_top" xlink:title=" ">
<polygon fill="white" stroke="#666666" points="906,-76 842,-76 842,-57 906,-57 906,-76"/>
<text text-anchor="middle" x="874" y="-64" font-family="Helvetica,sans-Serif" font-size="10.00">vec3f_set</text>
</a>
</g>
</g>
<!-- Node1&#45;&gt;Node17 -->
<g id="edge27_Node000001_Node000017" class="edge">
<title>Node1&#45;&gt;Node17</title>
<g id="a_edge27_Node000001_Node000017"><a xlink:title=" ">
<path fill="none" stroke="#63b8ff" d="M120.11,-47.5C190.3,-47.5 310.94,-47.5 414.5,-47.5 414.5,-47.5 414.5,-47.5 567,-47.5 661.9,-47.5 773.04,-56.72 831.77,-62.31"/>
<polygon fill="#63b8ff" stroke="#63b8ff" points="831.47,-65.8 841.76,-63.28 832.15,-58.83 831.47,-65.8"/>
</a>
</g>
</g>
<!-- Node25 -->
<g id="Node000025" class="node">
<title>Node25</title>
<g id="a_Node000025"><a xlink:href="math__util_8c.html#a9092c945c52b3a3481228b2724991e3c" target="_top" xlink:title=" ">
<polygon fill="white" stroke="#666666" points="258.5,-19 193.5,-19 193.5,0 258.5,0 258.5,-19"/>
<text text-anchor="middle" x="226" y="-7" font-family="Helvetica,sans-Serif" font-size="10.00">vec3s_set</text>
</a>
</g>
</g>
<!-- Node1&#45;&gt;Node25 -->
<g id="edge28_Node000001_Node000025" class="edge">
<title>Node1&#45;&gt;Node25</title>
<g id="a_edge28_Node000001_Node000025"><a xlink:title=" ">
<path fill="none" stroke="#63b8ff" d="M102.38,-37.91C127.24,-32.15 158.75,-24.85 183.6,-19.09"/>
<polygon fill="#63b8ff" stroke="#63b8ff" points="184.51,-22.47 193.46,-16.81 182.93,-15.65 184.51,-22.47"/>
</a>
</g>
</g>
<!-- Node3 -->
<g id="Node000003" class="node">
<title>Node3</title>
<g id="a_Node000003"><a xlink:href="actors_8c.html#a39c023177b5a7686cdd1fc65b8b953e1" target="_top" xlink:title=" ">
<polygon fill="white" stroke="#666666" points="597,-187 535,-187 535,-168 597,-168 597,-187"/>
<text text-anchor="middle" x="566" y="-175" font-family="Helvetica,sans-Serif" font-size="10.00">actor_init</text>
</a>
</g>
</g>
<!-- Node2&#45;&gt;Node3 -->
<g id="edge2_Node000002_Node000003" class="edge">
<title>Node2&#45;&gt;Node3</title>
<g id="a_edge2_Node000002_Node000003"><a xlink:title=" ">
<path fill="none" stroke="#63b8ff" d="M296.21,-177.5C364.98,-177.5 468.09,-177.5 524.52,-177.5"/>
<polygon fill="#63b8ff" stroke="#63b8ff" points="524.83,-181 534.83,-177.5 524.83,-174 524.83,-181"/>
</a>
</g>
</g>
<!-- Node24 -->
<g id="Node000024" class="node">
<title>Node24</title>
<g id="a_Node000024"><a xlink:href="actors_8c.html#adf454481afb7fd833f5ce3f01dea4bea" target="_top" xlink:title=" ">
<polygon fill="white" stroke="#666666" points="499,-267 332,-267 332,-248 499,-248 499,-267"/>
<text text-anchor="middle" x="415.5" y="-255" font-family="Helvetica,sans-Serif" font-size="10.00">try_remove_destructable_item</text>
</a>
</g>
</g>
<!-- Node2&#45;&gt;Node24 -->
<g id="edge23_Node000002_Node000024" class="edge">
<title>Node2&#45;&gt;Node24</title>
<g id="a_edge23_Node000002_Node000024"><a xlink:title=" ">
<path fill="none" stroke="#63b8ff" d="M249.62,-187.15C282.79,-201.3 344.78,-227.75 382.58,-243.88"/>
<polygon fill="#63b8ff" stroke="#63b8ff" points="381.52,-247.24 392.09,-247.94 384.27,-240.8 381.52,-247.24"/>
</a>
</g>
</g>
<!-- Node4 -->
<g id="Node000004" class="node">
<title>Node4</title>
<g id="a_Node000004"><a xlink:href="actors_8c.html#a1a9bccb586242555a9123ebd4ab70f2a" target="_top" xlink:title=" ">
<polygon fill="white" stroke="#666666" points="765,-254.5 633,-254.5 633,-224.5 765,-224.5 765,-254.5"/>
<text text-anchor="start" x="641" y="-242.5" font-family="Helvetica,sans-Serif" font-size="10.00">cleanup_red_and_green</text>
<text text-anchor="middle" x="699" y="-231.5" font-family="Helvetica,sans-Serif" font-size="10.00">_shells</text>
</a>
</g>
</g>
<!-- Node3&#45;&gt;Node4 -->
<g id="edge3_Node000003_Node000004" class="edge">
<title>Node3&#45;&gt;Node4</title>
<g id="a_edge3_Node000003_Node000004"><a xlink:title=" ">
<path fill="none" stroke="#63b8ff" d="M582.08,-187.16C595.21,-195.33 614.92,-207.03 633,-215.5 636.8,-217.28 640.77,-219.02 644.79,-220.7"/>
<polygon fill="#63b8ff" stroke="#63b8ff" points="643.64,-224.01 654.23,-224.49 646.26,-217.51 643.64,-224.01"/>
</a>
</g>
</g>
<!-- Node16 -->
<g id="Node000016" class="node">
<title>Node16</title>
<g id="a_Node000016"><a xlink:href="collision_8c.html#ad72fef3ffe32191d73b1822f512ebf3f" target="_top" xlink:title=" ">
<polygon fill="white" stroke="#666666" points="746.5,-132 651.5,-132 651.5,-113 746.5,-113 746.5,-132"/>
<text text-anchor="middle" x="699" y="-120" font-family="Helvetica,sans-Serif" font-size="10.00">func_802AAAAC</text>
</a>
</g>
</g>
<!-- Node3&#45;&gt;Node16 -->
<g id="edge15_Node000003_Node000016" class="edge">
<title>Node3&#45;&gt;Node16</title>
<g id="a_edge15_Node000003_Node000016"><a xlink:title=" ">
<path fill="none" stroke="#63b8ff" d="M581.69,-167.91C594.73,-159.72 614.54,-148.1 633,-140.5 637.75,-138.54 642.78,-136.73 647.86,-135.07"/>
<polygon fill="#63b8ff" stroke="#63b8ff" points="649.09,-138.35 657.61,-132.06 647.03,-131.66 649.09,-138.35"/>
</a>
</g>
</g>
<!-- Node18 -->
<g id="Node000018" class="node">
<title>Node18</title>
<g id="a_Node000018"><a xlink:href="collision_8c.html#a365367628b7140a7a880beeecce9c305" target="_top" xlink:title=" ">
<polygon fill="white" stroke="#666666" points="746.5,-169 651.5,-169 651.5,-150 746.5,-150 746.5,-169"/>
<text text-anchor="middle" x="699" y="-157" font-family="Helvetica,sans-Serif" font-size="10.00">func_802ADDC8</text>
</a>
</g>
</g>
<!-- Node3&#45;&gt;Node18 -->
<g id="edge17_Node000003_Node000018" class="edge">
<title>Node3&#45;&gt;Node18</title>
<g id="a_edge17_Node000003_Node000018"><a xlink:title=" ">
<path fill="none" stroke="#63b8ff" d="M597.05,-173.37C610.25,-171.56 626.2,-169.37 641.48,-167.27"/>
<polygon fill="#63b8ff" stroke="#63b8ff" points="641.96,-170.73 651.39,-165.9 641.01,-163.8 641.96,-170.73"/>
</a>
</g>
</g>
<!-- Node22 -->
<g id="Node000022" class="node">
<title>Node22</title>
<g id="a_Node000022"><a xlink:href="math__util_8c.html#af7b470ed76fce07b8042a47c96e5690b" target="_top" xlink:title=" ">
<polygon fill="white" stroke="#666666" points="752.5,-95 645.5,-95 645.5,-76 752.5,-76 752.5,-95"/>
<text text-anchor="middle" x="699" y="-83" font-family="Helvetica,sans-Serif" font-size="10.00">vec3f_copy_return</text>
</a>
</g>
</g>
<!-- Node3&#45;&gt;Node22 -->
<g id="edge21_Node000003_Node000022" class="edge">
<title>Node3&#45;&gt;Node22</title>
<g id="a_edge21_Node000003_Node000022"><a xlink:title=" ">
<path fill="none" stroke="#63b8ff" d="M572.84,-167.98C583.05,-152.15 605.66,-120.5 633,-103.5 635.65,-101.85 638.45,-100.35 641.34,-98.99"/>
<polygon fill="#63b8ff" stroke="#63b8ff" points="642.92,-102.13 650.83,-95.07 640.25,-95.66 642.92,-102.13"/>
</a>
</g>
</g>
<!-- Node23 -->
<g id="Node000023" class="node">
<title>Node23</title>
<g id="a_Node000023"><a xlink:href="math__util_8c.html#a0e270ee67600c8c9c2f140c647d008a1" target="_top" xlink:title=" ">
<polygon fill="white" stroke="#666666" points="736,-206 662,-206 662,-187 736,-187 736,-206"/>
<text text-anchor="middle" x="699" y="-194" font-family="Helvetica,sans-Serif" font-size="10.00">vec3s_copy</text>
</a>
</g>
</g>
<!-- Node3&#45;&gt;Node23 -->
<g id="edge22_Node000003_Node000023" class="edge">
<title>Node3&#45;&gt;Node23</title>
<g id="a_edge22_Node000003_Node000023"><a xlink:title=" ">
<path fill="none" stroke="#63b8ff" d="M597.05,-181.86C613.17,-184.2 633.38,-187.13 651.47,-189.75"/>
<polygon fill="#63b8ff" stroke="#63b8ff" points="651.15,-193.24 661.55,-191.21 652.16,-186.31 651.15,-193.24"/>
</a>
</g>
</g>
<!-- Node5 -->
<g id="Node000005" class="node">
<title>Node5</title>
<g id="a_Node000005"><a xlink:href="code__80005FD0_8c.html#ad301b978cdd3c4cc190b10be050d51d8" target="_top" xlink:title=" ">
<polygon fill="white" stroke="#666666" points="947,-294.5 801,-294.5 801,-264.5 947,-264.5 947,-294.5"/>
<text text-anchor="start" x="809" y="-282.5" font-family="Helvetica,sans-Serif" font-size="10.00">delete_actor_in_unexpired</text>
<text text-anchor="middle" x="874" y="-271.5" font-family="Helvetica,sans-Serif" font-size="10.00">_actor_list</text>
</a>
</g>
</g>
<!-- Node4&#45;&gt;Node5 -->
<g id="edge4_Node000004_Node000005" class="edge">
<title>Node4&#45;&gt;Node5</title>
<g id="a_edge4_Node000004_Node000005"><a xlink:title=" ">
<path fill="none" stroke="#63b8ff" d="M764.91,-254.51C775.7,-257 786.97,-259.61 797.99,-262.16"/>
<polygon fill="#63b8ff" stroke="#63b8ff" points="797.48,-265.63 808.01,-264.47 799.06,-258.81 797.48,-265.63"/>
</a>
</g>
</g>
<!-- Node6 -->
<g id="Node000006" class="node">
<title>Node6</title>
<g id="a_Node000006"><a xlink:href="actors_8c.html#a694ec6ef7548b8618aeb35c038d3a9b9" target="_top" xlink:title=" ">
<polygon fill="white" stroke="#666666" points="915.5,-246 832.5,-246 832.5,-227 915.5,-227 915.5,-246"/>
<text text-anchor="middle" x="874" y="-234" font-family="Helvetica,sans-Serif" font-size="10.00">destroy_actor</text>
</a>
</g>
</g>
<!-- Node4&#45;&gt;Node6 -->
<g id="edge5_Node000004_Node000006" class="edge">
<title>Node4&#45;&gt;Node6</title>
<g id="a_edge5_Node000004_Node000006"><a xlink:title=" ">
<path fill="none" stroke="#63b8ff" d="M765.4,-238.37C784.2,-238.04 804.41,-237.69 822.19,-237.38"/>
<polygon fill="#63b8ff" stroke="#63b8ff" points="822.4,-240.88 832.34,-237.21 822.28,-233.88 822.4,-240.88"/>
</a>
</g>
</g>
<!-- Node7 -->
<g id="Node000007" class="node">
<title>Node7</title>
<g id="a_Node000007"><a xlink:href="actors_8c.html#a12dc3ccac4c7d8569eadac0af4fd6f9f" target="_top" xlink:title=" ">
<polygon fill="white" stroke="#666666" points="1141,-289 983,-289 983,-270 1141,-270 1141,-289"/>
<text text-anchor="middle" x="1062" y="-277" font-family="Helvetica,sans-Serif" font-size="10.00">play_sound_before_despawn</text>
</a>
</g>
</g>
<!-- Node6&#45;&gt;Node7 -->
<g id="edge6_Node000006_Node000007" class="edge">
<title>Node6&#45;&gt;Node7</title>
<g id="a_edge6_Node000006_Node000007"><a xlink:title=" ">
<path fill="none" stroke="#63b8ff" d="M915.82,-245.94C943.49,-252.33 980.27,-260.84 1009.89,-267.68"/>
<polygon fill="#63b8ff" stroke="#63b8ff" points="1009.1,-271.09 1019.63,-269.94 1010.68,-264.27 1009.1,-271.09"/>
</a>
</g>
</g>
<!-- Node8 -->
<g id="Node000008" class="node">
<title>Node8</title>
<g id="a_Node000008"><a xlink:href="external_8c.html#ae72057869772019e4464c87d4e16c682" target="_top" xlink:title=" ">
<polygon fill="white" stroke="#666666" points="1269,-289 1177,-289 1177,-270 1269,-270 1269,-289"/>
<text text-anchor="middle" x="1223" y="-277" font-family="Helvetica,sans-Serif" font-size="10.00">func_800C99E0</text>
</a>
</g>
</g>
<!-- Node7&#45;&gt;Node8 -->
<g id="edge7_Node000007_Node000008" class="edge">
<title>Node7&#45;&gt;Node8</title>
<g id="a_edge7_Node000007_Node000008"><a xlink:title=" ">
<path fill="none" stroke="#63b8ff" d="M1141.1,-279.5C1149.72,-279.5 1158.35,-279.5 1166.61,-279.5"/>
<polygon fill="#63b8ff" stroke="#63b8ff" points="1166.83,-283 1176.83,-279.5 1166.83,-276 1166.83,-283"/>
</a>
</g>
</g>
<!-- Node9 -->
<g id="Node000009" class="node">
<title>Node9</title>
<g id="a_Node000009"><a xlink:href="external_8c.html#aeb87c527482a244173df36a1f3d4f446" target="_top" xlink:title=" ">
<polygon fill="white" stroke="#666666" points="1397,-308 1305,-308 1305,-289 1397,-289 1397,-308"/>
<text text-anchor="middle" x="1351" y="-296" font-family="Helvetica,sans-Serif" font-size="10.00">func_800C21E8</text>
</a>
</g>
</g>
<!-- Node8&#45;&gt;Node9 -->
<g id="edge8_Node000008_Node000009" class="edge">
<title>Node8&#45;&gt;Node9</title>
<g id="a_edge8_Node000008_Node000009"><a xlink:title=" ">
<path fill="none" stroke="#63b8ff" d="M1269.13,-286.31C1277.46,-287.56 1286.23,-288.88 1294.81,-290.18"/>
<polygon fill="#63b8ff" stroke="#63b8ff" points="1294.35,-293.65 1304.76,-291.68 1295.39,-286.73 1294.35,-293.65"/>
</a>
</g>
</g>
<!-- Node10 -->
<g id="Node000010" class="node">
<title>Node10</title>
<g id="a_Node000010"><a xlink:href="external_8c.html#a028d40421b90c38f68ebfd5acc626f2e" target="_top" xlink:title=" ">
<polygon fill="white" stroke="#666666" points="1397,-271 1305,-271 1305,-252 1397,-252 1397,-271"/>
<text text-anchor="middle" x="1351" y="-259" font-family="Helvetica,sans-Serif" font-size="10.00">func_800C5578</text>
</a>
</g>
</g>
<!-- Node8&#45;&gt;Node10 -->
<g id="edge9_Node000008_Node000010" class="edge">
<title>Node8&#45;&gt;Node10</title>
<g id="a_edge9_Node000008_Node000010"><a xlink:title=" ">
<path fill="none" stroke="#63b8ff" d="M1269.13,-273.05C1277.46,-271.86 1286.23,-270.61 1294.81,-269.38"/>
<polygon fill="#63b8ff" stroke="#63b8ff" points="1295.35,-272.84 1304.76,-267.96 1294.36,-265.91 1295.35,-272.84"/>
</a>
</g>
</g>
<!-- Node11 -->
<g id="Node000011" class="node">
<title>Node11</title>
<g id="a_Node000011"><a xlink:href="external_8c.html#ac0fb767de7e14a03f1bcfa53f0abd23b" target="_top" xlink:title=" ">
<polygon fill="white" stroke="#666666" points="1573,-308 1433,-308 1433,-289 1573,-289 1573,-308"/>
<text text-anchor="middle" x="1503" y="-296" font-family="Helvetica,sans-Serif" font-size="10.00">delete_sound_from_bank</text>
</a>
</g>
</g>
<!-- Node10&#45;&gt;Node11 -->
<g id="edge10_Node000010_Node000011" class="edge">
<title>Node10&#45;&gt;Node11</title>
<g id="a_edge10_Node000010_Node000011"><a xlink:title=" ">
<path fill="none" stroke="#63b8ff" d="M1390.63,-271.03C1409.8,-275.76 1433.16,-281.52 1453.52,-286.54"/>
<polygon fill="#63b8ff" stroke="#63b8ff" points="1452.69,-289.94 1463.24,-288.94 1454.37,-283.15 1452.69,-289.94"/>
</a>
</g>
</g>
<!-- Node13 -->
<g id="Node000013" class="node">
<title>Node13</title>
<g id="a_Node000013"><a xlink:href="external_8c.html#ab83bd36e63f0f1baddcb2482b5ad31b0" target="_top" xlink:title=" ">
<polygon fill="white" stroke="#666666" points="1549.5,-271 1456.5,-271 1456.5,-252 1549.5,-252 1549.5,-271"/>
<text text-anchor="middle" x="1503" y="-259" font-family="Helvetica,sans-Serif" font-size="10.00">func_800C41CC</text>
</a>
</g>
</g>
<!-- Node10&#45;&gt;Node13 -->
<g id="edge12_Node000010_Node000013" class="edge">
<title>Node10&#45;&gt;Node13</title>
<g id="a_edge12_Node000010_Node000013"><a xlink:title=" ">
<path fill="none" stroke="#63b8ff" d="M1397,-261.5C1412.37,-261.5 1429.74,-261.5 1445.86,-261.5"/>
<polygon fill="#63b8ff" stroke="#63b8ff" points="1446.25,-265 1456.25,-261.5 1446.25,-258 1446.25,-265"/>
</a>
</g>
</g>
<!-- Node14 -->
<g id="Node000014" class="node">
<title>Node14</title>
<g id="a_Node000014"><a xlink:href="port__eu_8c.html#aa89dfaecca46c6d071f08c1898d1f7c9" target="_top" xlink:title=" ">
<polygon fill="white" stroke="#666666" points="1549.5,-234 1456.5,-234 1456.5,-215 1549.5,-215 1549.5,-234"/>
<text text-anchor="middle" x="1503" y="-222" font-family="Helvetica,sans-Serif" font-size="10.00">func_800CBBE8</text>
</a>
</g>
</g>
<!-- Node10&#45;&gt;Node14 -->
<g id="edge13_Node000010_Node000014" class="edge">
<title>Node10&#45;&gt;Node14</title>
<g id="a_edge13_Node000010_Node000014"><a xlink:title=" ">
<path fill="none" stroke="#63b8ff" d="M1390.63,-251.97C1409.8,-247.24 1433.16,-241.48 1453.52,-236.46"/>
<polygon fill="#63b8ff" stroke="#63b8ff" points="1454.37,-239.85 1463.24,-234.06 1452.69,-233.06 1454.37,-239.85"/>
</a>
</g>
</g>
<!-- Node12 -->
<g id="Node000012" class="node">
<title>Node12</title>
<g id="a_Node000012"><a xlink:href="external_8c.html#a358ac55e8ab5262dcae8037334be06d7" target="_top" xlink:title=" ">
<polygon fill="white" stroke="#666666" points="1701.5,-308 1609.5,-308 1609.5,-289 1701.5,-289 1701.5,-308"/>
<text text-anchor="middle" x="1655.5" y="-296" font-family="Helvetica,sans-Serif" font-size="10.00">func_800C40F0</text>
</a>
</g>
</g>
<!-- Node11&#45;&gt;Node12 -->
<g id="edge11_Node000011_Node000012" class="edge">
<title>Node11&#45;&gt;Node12</title>
<g id="a_edge11_Node000011_Node000012"><a xlink:title=" ">
<path fill="none" stroke="#63b8ff" d="M1573.08,-298.5C1581.87,-298.5 1590.78,-298.5 1599.31,-298.5"/>
<polygon fill="#63b8ff" stroke="#63b8ff" points="1599.5,-302 1609.5,-298.5 1599.5,-295 1599.5,-302"/>
</a>
</g>
</g>
<!-- Node15 -->
<g id="Node000015" class="node">
<title>Node15</title>
<g id="a_Node000015"><a xlink:href="port__eu_8c.html#af361a20d2e08f30c53a237ca481ff734" target="_top" xlink:title=" ">
<polygon fill="white" stroke="#666666" points="1702,-234 1609,-234 1609,-215 1702,-215 1702,-234"/>
<text text-anchor="middle" x="1655.5" y="-222" font-family="Helvetica,sans-Serif" font-size="10.00">func_800CBB48</text>
</a>
</g>
</g>
<!-- Node14&#45;&gt;Node15 -->
<g id="edge14_Node000014_Node000015" class="edge">
<title>Node14&#45;&gt;Node15</title>
<g id="a_edge14_Node000014_Node000015"><a xlink:title=" ">
<path fill="none" stroke="#63b8ff" d="M1549.56,-224.5C1564.96,-224.5 1582.34,-224.5 1598.46,-224.5"/>
<polygon fill="#63b8ff" stroke="#63b8ff" points="1598.83,-228 1608.83,-224.5 1598.83,-221 1598.83,-228"/>
</a>
</g>
</g>
<!-- Node16&#45;&gt;Node17 -->
<g id="edge16_Node000016_Node000017" class="edge">
<title>Node16&#45;&gt;Node17</title>
<g id="a_edge16_Node000016_Node000017"><a xlink:title=" ">
<path fill="none" stroke="#63b8ff" d="M733.83,-112.93C743.89,-110 754.91,-106.7 765,-103.5 788.97,-95.89 815.72,-86.74 836.6,-79.44"/>
<polygon fill="#63b8ff" stroke="#63b8ff" points="837.76,-82.73 846.04,-76.12 835.44,-76.13 837.76,-82.73"/>
</a>
</g>
</g>
<!-- Node19 -->
<g id="Node000019" class="node">
<title>Node19</title>
<g id="a_Node000019"><a xlink:href="collision_8c.html#afce45acb8da354da0a5b501003be1aef" target="_top" xlink:title=" ">
<polygon fill="white" stroke="#666666" points="920.5,-206 827.5,-206 827.5,-187 920.5,-187 920.5,-206"/>
<text text-anchor="middle" x="874" y="-194" font-family="Helvetica,sans-Serif" font-size="10.00">func_802AAE4C</text>
</a>
</g>
</g>
<!-- Node18&#45;&gt;Node19 -->
<g id="edge18_Node000018_Node000019" class="edge">
<title>Node18&#45;&gt;Node19</title>
<g id="a_edge18_Node000018_Node000019"><a xlink:title=" ">
<path fill="none" stroke="#63b8ff" d="M744.55,-169.03C767.07,-173.84 794.58,-179.73 818.36,-184.81"/>
<polygon fill="#63b8ff" stroke="#63b8ff" points="817.79,-188.27 828.3,-186.94 819.25,-181.43 817.79,-188.27"/>
</a>
</g>
</g>
<!-- Node20 -->
<g id="Node000020" class="node">
<title>Node20</title>
<g id="a_Node000020"><a xlink:href="collision_8c.html#adcc608ea0eae3bf9a27ab79ec64b4899" target="_top" xlink:title=" ">
<polygon fill="white" stroke="#666666" points="920,-169 828,-169 828,-150 920,-150 920,-169"/>
<text text-anchor="middle" x="874" y="-157" font-family="Helvetica,sans-Serif" font-size="10.00">func_802AB288</text>
</a>
</g>
</g>
<!-- Node18&#45;&gt;Node20 -->
<g id="edge19_Node000018_Node000020" class="edge">
<title>Node18&#45;&gt;Node20</title>
<g id="a_edge19_Node000018_Node000020"><a xlink:title=" ">
<path fill="none" stroke="#63b8ff" d="M746.82,-159.5C768.68,-159.5 794.87,-159.5 817.71,-159.5"/>
<polygon fill="#63b8ff" stroke="#63b8ff" points="817.94,-163 827.94,-159.5 817.94,-156 817.94,-163"/>
</a>
</g>
</g>
<!-- Node21 -->
<g id="Node000021" class="node">
<title>Node21</title>
<g id="a_Node000021"><a xlink:href="collision_8c.html#ab440aa3fc960b7b4b5ad8e4bcaa06b00" target="_top" xlink:title=" ">
<polygon fill="white" stroke="#666666" points="920.5,-132 827.5,-132 827.5,-113 920.5,-113 920.5,-132"/>
<text text-anchor="middle" x="874" y="-120" font-family="Helvetica,sans-Serif" font-size="10.00">func_802AB6C4</text>
</a>
</g>
</g>
<!-- Node18&#45;&gt;Node21 -->
<g id="edge20_Node000018_Node000021" class="edge">
<title>Node18&#45;&gt;Node21</title>
<g id="a_edge20_Node000018_Node000021"><a xlink:title=" ">
<path fill="none" stroke="#63b8ff" d="M744.55,-149.97C767.07,-145.16 794.58,-139.27 818.36,-134.19"/>
<polygon fill="#63b8ff" stroke="#63b8ff" points="819.25,-137.57 828.3,-132.06 817.79,-130.73 819.25,-137.57"/>
</a>
</g>
</g>
<!-- Node24&#45;&gt;Node3 -->
<g id="edge24_Node000024_Node000003" class="edge">
<title>Node24&#45;&gt;Node3</title>
<g id="a_edge24_Node000024_Node000003"><a xlink:title=" ">
<path fill="none" stroke="#63b8ff" d="M434.41,-247.85C460.17,-233.98 507.86,-208.28 537.93,-192.08"/>
<polygon fill="#63b8ff" stroke="#63b8ff" points="539.88,-195.01 547.02,-187.18 536.56,-188.85 539.88,-195.01"/>
</a>
</g>
</g>
<!-- Node24&#45;&gt;Node5 -->
<g id="edge25_Node000024_Node000005" class="edge">
<title>Node24&#45;&gt;Node5</title>
<g id="a_edge25_Node000024_Node000005"><a xlink:title=" ">
<path fill="none" stroke="#63b8ff" d="M499.17,-261.48C581.8,-265.47 708.11,-271.55 790.63,-275.53"/>
<polygon fill="#63b8ff" stroke="#63b8ff" points="790.56,-279.03 800.72,-276.02 790.9,-272.04 790.56,-279.03"/>
</a>
</g>
</g>
<!-- Node24&#45;&gt;Node7 -->
<g id="edge26_Node000024_Node000007" class="edge">
<title>Node24&#45;&gt;Node7</title>
<g id="a_edge26_Node000024_Node000007"><a xlink:title=" ">
<path fill="none" stroke="#63b8ff" d="M460.91,-267.06C552.1,-285.43 767.01,-322.24 947,-303.5 969.73,-301.13 994.61,-296.18 1015.31,-291.38"/>
<polygon fill="#63b8ff" stroke="#63b8ff" points="1016.19,-294.77 1025.11,-289.05 1014.57,-287.96 1016.19,-294.77"/>
</a>
</g>
</g>
</g>
</svg>
