<?xml version="1.0" encoding="UTF-8" standalone="no"?>
<!DOCTYPE svg PUBLIC "-//W3C//DTD SVG 1.1//EN"
 "http://www.w3.org/Graphics/SVG/1.1/DTD/svg11.dtd">
<!-- Generated by graphviz version 2.43.0 (0)
 -->
<!-- Title: init_kiwano_fruit Pages: 1 -->
<svg width="1611pt" height="279pt"
 viewBox="0.00 0.00 1611.00 279.00" xmlns="http://www.w3.org/2000/svg" xmlns:xlink="http://www.w3.org/1999/xlink">
<g id="graph0" class="graph" transform="scale(1 1) rotate(0) translate(4 275)">
<title>init_kiwano_fruit</title>
<!-- Node1 -->
<g id="Node000001" class="node">
<title>Node1</title>
<g id="a_Node000001"><a xlink:title=" ">
<polygon fill="#999999" stroke="#666666" points="98,-117 0,-117 0,-98 98,-98 98,-117"/>
<text text-anchor="middle" x="49" y="-105" font-family="Helvetica,sans-Serif" font-size="10.00">init_kiwano_fruit</text>
</a>
</g>
</g>
<!-- Node2 -->
<g id="Node000002" class="node">
<title>Node2</title>
<g id="a_Node000002"><a xlink:href="actors_8c.html#a91fb2e4e37e7c72fea918fe2c1bb4eaf" target="_top" xlink:title=" ">
<polygon fill="white" stroke="#666666" points="274,-117 134,-117 134,-98 274,-98 274,-117"/>
<text text-anchor="middle" x="204" y="-105" font-family="Helvetica,sans-Serif" font-size="10.00">add_actor_to_empty_slot</text>
</a>
</g>
</g>
<!-- Node1&#45;&gt;Node2 -->
<g id="edge1_Node000001_Node000002" class="edge">
<title>Node1&#45;&gt;Node2</title>
<g id="a_edge1_Node000001_Node000002"><a xlink:title=" ">
<path fill="none" stroke="#63b8ff" d="M98.41,-107.5C106.53,-107.5 115.13,-107.5 123.79,-107.5"/>
<polygon fill="#63b8ff" stroke="#63b8ff" points="123.94,-111 133.94,-107.5 123.94,-104 123.94,-111"/>
</a>
</g>
</g>
<!-- Node3 -->
<g id="Node000003" class="node">
<title>Node3</title>
<g id="a_Node000003"><a xlink:href="actors_8c.html#a39c023177b5a7686cdd1fc65b8b953e1" target="_top" xlink:title=" ">
<polygon fill="white" stroke="#666666" points="499,-160 437,-160 437,-141 499,-141 499,-160"/>
<text text-anchor="middle" x="468" y="-148" font-family="Helvetica,sans-Serif" font-size="10.00">actor_init</text>
</a>
</g>
</g>
<!-- Node2&#45;&gt;Node3 -->
<g id="edge2_Node000002_Node000003" class="edge">
<title>Node2&#45;&gt;Node3</title>
<g id="a_edge2_Node000002_Node000003"><a xlink:title=" ">
<path fill="none" stroke="#63b8ff" d="M263.15,-117.04C312.83,-125.2 383.02,-136.72 426.73,-143.89"/>
<polygon fill="#63b8ff" stroke="#63b8ff" points="426.27,-147.36 436.71,-145.53 427.4,-140.45 426.27,-147.36"/>
</a>
</g>
</g>
<!-- Node24 -->
<g id="Node000024" class="node">
<title>Node24</title>
<g id="a_Node000024"><a xlink:href="actors_8c.html#a0c9d11d8956bf92c32a5e9bafd7036e6" target="_top" xlink:title=" ">
<polygon fill="white" stroke="#666666" points="401,-98 310,-98 310,-79 401,-79 401,-98"/>
<text text-anchor="middle" x="355.5" y="-86" font-family="Helvetica,sans-Serif" font-size="10.00">func_8029E890</text>
</a>
</g>
</g>
<!-- Node2&#45;&gt;Node24 -->
<g id="edge23_Node000002_Node000024" class="edge">
<title>Node2&#45;&gt;Node24</title>
<g id="a_edge23_Node000002_Node000024"><a xlink:title=" ">
<path fill="none" stroke="#63b8ff" d="M274.06,-98.72C282.65,-97.63 291.35,-96.53 299.69,-95.47"/>
<polygon fill="#63b8ff" stroke="#63b8ff" points="300.17,-98.93 309.65,-94.2 299.29,-91.99 300.17,-98.93"/>
</a>
</g>
</g>
<!-- Node4 -->
<g id="Node000004" class="node">
<title>Node4</title>
<g id="a_Node000004"><a xlink:href="actors_8c.html#a1a9bccb586242555a9123ebd4ab70f2a" target="_top" xlink:title=" ">
<polygon fill="white" stroke="#666666" points="667,-122.5 535,-122.5 535,-92.5 667,-92.5 667,-122.5"/>
<text text-anchor="start" x="543" y="-110.5" font-family="Helvetica,sans-Serif" font-size="10.00">cleanup_red_and_green</text>
<text text-anchor="middle" x="601" y="-99.5" font-family="Helvetica,sans-Serif" font-size="10.00">_shells</text>
</a>
</g>
</g>
<!-- Node3&#45;&gt;Node4 -->
<g id="edge3_Node000003_Node000004" class="edge">
<title>Node3&#45;&gt;Node4</title>
<g id="a_edge3_Node000003_Node000004"><a xlink:title=" ">
<path fill="none" stroke="#63b8ff" d="M498.07,-140.96C511.74,-136.47 528.52,-130.96 544.48,-125.72"/>
<polygon fill="#63b8ff" stroke="#63b8ff" points="545.87,-128.95 554.28,-122.51 543.69,-122.3 545.87,-128.95"/>
</a>
</g>
</g>
<!-- Node16 -->
<g id="Node000016" class="node">
<title>Node16</title>
<g id="a_Node000016"><a xlink:href="collision_8c.html#ad72fef3ffe32191d73b1822f512ebf3f" target="_top" xlink:title=" ">
<polygon fill="white" stroke="#666666" points="648.5,-197 553.5,-197 553.5,-178 648.5,-178 648.5,-197"/>
<text text-anchor="middle" x="601" y="-185" font-family="Helvetica,sans-Serif" font-size="10.00">func_802AAAAC</text>
</a>
</g>
</g>
<!-- Node3&#45;&gt;Node16 -->
<g id="edge15_Node000003_Node000016" class="edge">
<title>Node3&#45;&gt;Node16</title>
<g id="a_edge15_Node000003_Node000016"><a xlink:title=" ">
<path fill="none" stroke="#63b8ff" d="M499.21,-159.27C510.44,-162.51 523.3,-166.19 535,-169.5 541.59,-171.36 548.55,-173.31 555.39,-175.21"/>
<polygon fill="#63b8ff" stroke="#63b8ff" points="554.66,-178.64 565.24,-177.94 556.54,-171.9 554.66,-178.64"/>
</a>
</g>
</g>
<!-- Node18 -->
<g id="Node000018" class="node">
<title>Node18</title>
<g id="a_Node000018"><a xlink:href="collision_8c.html#a365367628b7140a7a880beeecce9c305" target="_top" xlink:title=" ">
<polygon fill="white" stroke="#666666" points="648.5,-160 553.5,-160 553.5,-141 648.5,-141 648.5,-160"/>
<text text-anchor="middle" x="601" y="-148" font-family="Helvetica,sans-Serif" font-size="10.00">func_802ADDC8</text>
</a>
</g>
</g>
<!-- Node3&#45;&gt;Node18 -->
<g id="edge17_Node000003_Node000018" class="edge">
<title>Node3&#45;&gt;Node18</title>
<g id="a_edge17_Node000003_Node000018"><a xlink:title=" ">
<path fill="none" stroke="#63b8ff" d="M499.05,-150.5C512.13,-150.5 527.9,-150.5 543.04,-150.5"/>
<polygon fill="#63b8ff" stroke="#63b8ff" points="543.39,-154 553.39,-150.5 543.39,-147 543.39,-154"/>
</a>
</g>
</g>
<!-- Node22 -->
<g id="Node000022" class="node">
<title>Node22</title>
<g id="a_Node000022"><a xlink:href="math__util_8c.html#af7b470ed76fce07b8042a47c96e5690b" target="_top" xlink:title=" ">
<polygon fill="white" stroke="#666666" points="654.5,-271 547.5,-271 547.5,-252 654.5,-252 654.5,-271"/>
<text text-anchor="middle" x="601" y="-259" font-family="Helvetica,sans-Serif" font-size="10.00">vec3f_copy_return</text>
</a>
</g>
</g>
<!-- Node3&#45;&gt;Node22 -->
<g id="edge21_Node000003_Node000022" class="edge">
<title>Node3&#45;&gt;Node22</title>
<g id="a_edge21_Node000003_Node000022"><a xlink:title=" ">
<path fill="none" stroke="#63b8ff" d="M473.07,-160.05C481.65,-178.97 503.4,-221.32 535,-243.5 537.22,-245.05 539.56,-246.47 541.99,-247.77"/>
<polygon fill="#63b8ff" stroke="#63b8ff" points="540.57,-250.97 551.12,-251.96 543.49,-244.61 540.57,-250.97"/>
</a>
</g>
</g>
<!-- Node23 -->
<g id="Node000023" class="node">
<title>Node23</title>
<g id="a_Node000023"><a xlink:href="math__util_8c.html#a0e270ee67600c8c9c2f140c647d008a1" target="_top" xlink:title=" ">
<polygon fill="white" stroke="#666666" points="638,-234 564,-234 564,-215 638,-215 638,-234"/>
<text text-anchor="middle" x="601" y="-222" font-family="Helvetica,sans-Serif" font-size="10.00">vec3s_copy</text>
</a>
</g>
</g>
<!-- Node3&#45;&gt;Node23 -->
<g id="edge22_Node000003_Node000023" class="edge">
<title>Node3&#45;&gt;Node23</title>
<g id="a_edge22_Node000003_Node000023"><a xlink:title=" ">
<path fill="none" stroke="#63b8ff" d="M477.86,-160.29C489.71,-172.79 511.89,-194.27 535,-206.5 540.98,-209.67 547.57,-212.32 554.19,-214.53"/>
<polygon fill="#63b8ff" stroke="#63b8ff" points="553.27,-217.91 563.85,-217.46 555.3,-211.21 553.27,-217.91"/>
</a>
</g>
</g>
<!-- Node5 -->
<g id="Node000005" class="node">
<title>Node5</title>
<g id="a_Node000005"><a xlink:href="actors_8c.html#a694ec6ef7548b8618aeb35c038d3a9b9" target="_top" xlink:title=" ">
<polygon fill="white" stroke="#666666" points="820.5,-117 737.5,-117 737.5,-98 820.5,-98 820.5,-117"/>
<text text-anchor="middle" x="779" y="-105" font-family="Helvetica,sans-Serif" font-size="10.00">destroy_actor</text>
</a>
</g>
</g>
<!-- Node4&#45;&gt;Node5 -->
<g id="edge4_Node000004_Node000005" class="edge">
<title>Node4&#45;&gt;Node5</title>
<g id="a_edge4_Node000004_Node000005"><a xlink:title=" ">
<path fill="none" stroke="#63b8ff" d="M667.04,-107.5C686.95,-107.5 708.55,-107.5 727.35,-107.5"/>
<polygon fill="#63b8ff" stroke="#63b8ff" points="727.48,-111 737.48,-107.5 727.48,-104 727.48,-111"/>
</a>
</g>
</g>
<!-- Node15 -->
<g id="Node000015" class="node">
<title>Node15</title>
<g id="a_Node000015"><a xlink:href="code__80005FD0_8c.html#acb7b3d384c78d219f4b7040e78f6a2f2" target="_top" xlink:title=" ">
<polygon fill="white" stroke="#666666" points="855,-79.5 703,-79.5 703,-49.5 855,-49.5 855,-79.5"/>
<text text-anchor="start" x="711" y="-67.5" font-family="Helvetica,sans-Serif" font-size="10.00">remove_actor_in_unexpired</text>
<text text-anchor="middle" x="779" y="-56.5" font-family="Helvetica,sans-Serif" font-size="10.00">_actor_list</text>
</a>
</g>
</g>
<!-- Node4&#45;&gt;Node15 -->
<g id="edge14_Node000004_Node000015" class="edge">
<title>Node4&#45;&gt;Node15</title>
<g id="a_edge14_Node000004_Node000015"><a xlink:title=" ">
<path fill="none" stroke="#63b8ff" d="M663.56,-92.46C677.49,-89.06 692.4,-85.41 706.7,-81.92"/>
<polygon fill="#63b8ff" stroke="#63b8ff" points="707.59,-85.3 716.48,-79.53 705.93,-78.5 707.59,-85.3"/>
</a>
</g>
</g>
<!-- Node6 -->
<g id="Node000006" class="node">
<title>Node6</title>
<g id="a_Node000006"><a xlink:href="actors_8c.html#ad5a56c8f7eaf719223099cce9e38ec9f" target="_top" xlink:title=" ">
<polygon fill="white" stroke="#666666" points="1042,-74 891,-74 891,-55 1042,-55 1042,-74"/>
<text text-anchor="middle" x="966.5" y="-62" font-family="Helvetica,sans-Serif" font-size="10.00">play_sound_before_destroy</text>
</a>
</g>
</g>
<!-- Node5&#45;&gt;Node6 -->
<g id="edge5_Node000005_Node000006" class="edge">
<title>Node5&#45;&gt;Node6</title>
<g id="a_edge5_Node000005_Node000006"><a xlink:title=" ">
<path fill="none" stroke="#63b8ff" d="M820.71,-98.06C848.18,-91.69 884.67,-83.24 914.14,-76.41"/>
<polygon fill="#63b8ff" stroke="#63b8ff" points="915.29,-79.73 924.25,-74.06 913.71,-72.91 915.29,-79.73"/>
</a>
</g>
</g>
<!-- Node7 -->
<g id="Node000007" class="node">
<title>Node7</title>
<g id="a_Node000007"><a xlink:href="external_8c.html#ae72057869772019e4464c87d4e16c682" target="_top" xlink:title=" ">
<polygon fill="white" stroke="#666666" points="1170,-74 1078,-74 1078,-55 1170,-55 1170,-74"/>
<text text-anchor="middle" x="1124" y="-62" font-family="Helvetica,sans-Serif" font-size="10.00">func_800C99E0</text>
</a>
</g>
</g>
<!-- Node6&#45;&gt;Node7 -->
<g id="edge6_Node000006_Node000007" class="edge">
<title>Node6&#45;&gt;Node7</title>
<g id="a_edge6_Node000006_Node000007"><a xlink:title=" ">
<path fill="none" stroke="#63b8ff" d="M1042.06,-64.5C1050.61,-64.5 1059.21,-64.5 1067.45,-64.5"/>
<polygon fill="#63b8ff" stroke="#63b8ff" points="1067.66,-68 1077.66,-64.5 1067.66,-61 1067.66,-68"/>
</a>
</g>
</g>
<!-- Node8 -->
<g id="Node000008" class="node">
<title>Node8</title>
<g id="a_Node000008"><a xlink:href="external_8c.html#aeb87c527482a244173df36a1f3d4f446" target="_top" xlink:title=" ">
<polygon fill="white" stroke="#666666" points="1298,-93 1206,-93 1206,-74 1298,-74 1298,-93"/>
<text text-anchor="middle" x="1252" y="-81" font-family="Helvetica,sans-Serif" font-size="10.00">func_800C21E8</text>
</a>
</g>
</g>
<!-- Node7&#45;&gt;Node8 -->
<g id="edge7_Node000007_Node000008" class="edge">
<title>Node7&#45;&gt;Node8</title>
<g id="a_edge7_Node000007_Node000008"><a xlink:title=" ">
<path fill="none" stroke="#63b8ff" d="M1170.13,-71.31C1178.46,-72.56 1187.23,-73.88 1195.81,-75.18"/>
<polygon fill="#63b8ff" stroke="#63b8ff" points="1195.35,-78.65 1205.76,-76.68 1196.39,-71.73 1195.35,-78.65"/>
</a>
</g>
</g>
<!-- Node9 -->
<g id="Node000009" class="node">
<title>Node9</title>
<g id="a_Node000009"><a xlink:href="external_8c.html#a028d40421b90c38f68ebfd5acc626f2e" target="_top" xlink:title=" ">
<polygon fill="white" stroke="#666666" points="1298,-56 1206,-56 1206,-37 1298,-37 1298,-56"/>
<text text-anchor="middle" x="1252" y="-44" font-family="Helvetica,sans-Serif" font-size="10.00">func_800C5578</text>
</a>
</g>
</g>
<!-- Node7&#45;&gt;Node9 -->
<g id="edge8_Node000007_Node000009" class="edge">
<title>Node7&#45;&gt;Node9</title>
<g id="a_edge8_Node000007_Node000009"><a xlink:title=" ">
<path fill="none" stroke="#63b8ff" d="M1170.13,-58.05C1178.46,-56.86 1187.23,-55.61 1195.81,-54.38"/>
<polygon fill="#63b8ff" stroke="#63b8ff" points="1196.35,-57.84 1205.76,-52.96 1195.36,-50.91 1196.35,-57.84"/>
</a>
</g>
</g>
<!-- Node10 -->
<g id="Node000010" class="node">
<title>Node10</title>
<g id="a_Node000010"><a xlink:href="external_8c.html#ac0fb767de7e14a03f1bcfa53f0abd23b" target="_top" xlink:title=" ">
<polygon fill="white" stroke="#666666" points="1474,-93 1334,-93 1334,-74 1474,-74 1474,-93"/>
<text text-anchor="middle" x="1404" y="-81" font-family="Helvetica,sans-Serif" font-size="10.00">delete_sound_from_bank</text>
</a>
</g>
</g>
<!-- Node9&#45;&gt;Node10 -->
<g id="edge9_Node000009_Node000010" class="edge">
<title>Node9&#45;&gt;Node10</title>
<g id="a_edge9_Node000009_Node000010"><a xlink:title=" ">
<path fill="none" stroke="#63b8ff" d="M1291.63,-56.03C1310.8,-60.76 1334.16,-66.52 1354.52,-71.54"/>
<polygon fill="#63b8ff" stroke="#63b8ff" points="1353.69,-74.94 1364.24,-73.94 1355.37,-68.15 1353.69,-74.94"/>
</a>
</g>
</g>
<!-- Node12 -->
<g id="Node000012" class="node">
<title>Node12</title>
<g id="a_Node000012"><a xlink:href="external_8c.html#ab83bd36e63f0f1baddcb2482b5ad31b0" target="_top" xlink:title=" ">
<polygon fill="white" stroke="#666666" points="1450.5,-56 1357.5,-56 1357.5,-37 1450.5,-37 1450.5,-56"/>
<text text-anchor="middle" x="1404" y="-44" font-family="Helvetica,sans-Serif" font-size="10.00">func_800C41CC</text>
</a>
</g>
</g>
<!-- Node9&#45;&gt;Node12 -->
<g id="edge11_Node000009_Node000012" class="edge">
<title>Node9&#45;&gt;Node12</title>
<g id="a_edge11_Node000009_Node000012"><a xlink:title=" ">
<path fill="none" stroke="#63b8ff" d="M1298,-46.5C1313.37,-46.5 1330.74,-46.5 1346.86,-46.5"/>
<polygon fill="#63b8ff" stroke="#63b8ff" points="1347.25,-50 1357.25,-46.5 1347.25,-43 1347.25,-50"/>
</a>
</g>
</g>
<!-- Node13 -->
<g id="Node000013" class="node">
<title>Node13</title>
<g id="a_Node000013"><a xlink:href="port__eu_8c.html#aa89dfaecca46c6d071f08c1898d1f7c9" target="_top" xlink:title=" ">
<polygon fill="white" stroke="#666666" points="1450.5,-19 1357.5,-19 1357.5,0 1450.5,0 1450.5,-19"/>
<text text-anchor="middle" x="1404" y="-7" font-family="Helvetica,sans-Serif" font-size="10.00">func_800CBBE8</text>
</a>
</g>
</g>
<!-- Node9&#45;&gt;Node13 -->
<g id="edge12_Node000009_Node000013" class="edge">
<title>Node9&#45;&gt;Node13</title>
<g id="a_edge12_Node000009_Node000013"><a xlink:title=" ">
<path fill="none" stroke="#63b8ff" d="M1291.63,-36.97C1310.8,-32.24 1334.16,-26.48 1354.52,-21.46"/>
<polygon fill="#63b8ff" stroke="#63b8ff" points="1355.37,-24.85 1364.24,-19.06 1353.69,-18.06 1355.37,-24.85"/>
</a>
</g>
</g>
<!-- Node11 -->
<g id="Node000011" class="node">
<title>Node11</title>
<g id="a_Node000011"><a xlink:href="external_8c.html#a358ac55e8ab5262dcae8037334be06d7" target="_top" xlink:title=" ">
<polygon fill="white" stroke="#666666" points="1602.5,-93 1510.5,-93 1510.5,-74 1602.5,-74 1602.5,-93"/>
<text text-anchor="middle" x="1556.5" y="-81" font-family="Helvetica,sans-Serif" font-size="10.00">func_800C40F0</text>
</a>
</g>
</g>
<!-- Node10&#45;&gt;Node11 -->
<g id="edge10_Node000010_Node000011" class="edge">
<title>Node10&#45;&gt;Node11</title>
<g id="a_edge10_Node000010_Node000011"><a xlink:title=" ">
<path fill="none" stroke="#63b8ff" d="M1474.08,-83.5C1482.87,-83.5 1491.78,-83.5 1500.31,-83.5"/>
<polygon fill="#63b8ff" stroke="#63b8ff" points="1500.5,-87 1510.5,-83.5 1500.5,-80 1500.5,-87"/>
</a>
</g>
</g>
<!-- Node14 -->
<g id="Node000014" class="node">
<title>Node14</title>
<g id="a_Node000014"><a xlink:href="port__eu_8c.html#af361a20d2e08f30c53a237ca481ff734" target="_top" xlink:title=" ">
<polygon fill="white" stroke="#666666" points="1603,-19 1510,-19 1510,0 1603,0 1603,-19"/>
<text text-anchor="middle" x="1556.5" y="-7" font-family="Helvetica,sans-Serif" font-size="10.00">func_800CBB48</text>
</a>
</g>
</g>
<!-- Node13&#45;&gt;Node14 -->
<g id="edge13_Node000013_Node000014" class="edge">
<title>Node13&#45;&gt;Node14</title>
<g id="a_edge13_Node000013_Node000014"><a xlink:title=" ">
<path fill="none" stroke="#63b8ff" d="M1450.56,-9.5C1465.96,-9.5 1483.34,-9.5 1499.46,-9.5"/>
<polygon fill="#63b8ff" stroke="#63b8ff" points="1499.83,-13 1509.83,-9.5 1499.83,-6 1499.83,-13"/>
</a>
</g>
</g>
<!-- Node17 -->
<g id="Node000017" class="node">
<title>Node17</title>
<g id="a_Node000017"><a xlink:href="math__util_8c.html#a79fd07a0971ec96a3ff0801963a2fa7f" target="_top" xlink:title=" ">
<polygon fill="white" stroke="#666666" points="811,-265 747,-265 747,-246 811,-246 811,-265"/>
<text text-anchor="middle" x="779" y="-253" font-family="Helvetica,sans-Serif" font-size="10.00">vec3f_set</text>
</a>
</g>
</g>
<!-- Node16&#45;&gt;Node17 -->
<g id="edge16_Node000016_Node000017" class="edge">
<title>Node16&#45;&gt;Node17</title>
<g id="a_edge16_Node000016_Node000017"><a xlink:title=" ">
<path fill="none" stroke="#63b8ff" d="M644.31,-197.02C652.1,-199.55 659.97,-202.68 667,-206.5 685.55,-216.58 684.21,-227.88 703,-237.5 713.51,-242.88 725.68,-246.69 737.11,-249.37"/>
<polygon fill="#63b8ff" stroke="#63b8ff" points="736.41,-252.8 746.91,-251.45 737.86,-245.95 736.41,-252.8"/>
</a>
</g>
</g>
<!-- Node19 -->
<g id="Node000019" class="node">
<title>Node19</title>
<g id="a_Node000019"><a xlink:href="collision_8c.html#afce45acb8da354da0a5b501003be1aef" target="_top" xlink:title=" ">
<polygon fill="white" stroke="#666666" points="825.5,-191 732.5,-191 732.5,-172 825.5,-172 825.5,-191"/>
<text text-anchor="middle" x="779" y="-179" font-family="Helvetica,sans-Serif" font-size="10.00">func_802AAE4C</text>
</a>
</g>
</g>
<!-- Node18&#45;&gt;Node19 -->
<g id="edge18_Node000018_Node000019" class="edge">
<title>Node18&#45;&gt;Node19</title>
<g id="a_edge18_Node000018_Node000019"><a xlink:title=" ">
<path fill="none" stroke="#63b8ff" d="M648.7,-158.73C671.34,-162.71 698.68,-167.53 722.39,-171.7"/>
<polygon fill="#63b8ff" stroke="#63b8ff" points="721.84,-175.16 732.3,-173.45 723.06,-168.27 721.84,-175.16"/>
</a>
</g>
</g>
<!-- Node20 -->
<g id="Node000020" class="node">
<title>Node20</title>
<g id="a_Node000020"><a xlink:href="collision_8c.html#adcc608ea0eae3bf9a27ab79ec64b4899" target="_top" xlink:title=" ">
<polygon fill="white" stroke="#666666" points="825,-154 733,-154 733,-135 825,-135 825,-154"/>
<text text-anchor="middle" x="779" y="-142" font-family="Helvetica,sans-Serif" font-size="10.00">func_802AB288</text>
</a>
</g>
</g>
<!-- Node18&#45;&gt;Node20 -->
<g id="edge19_Node000018_Node000020" class="edge">
<title>Node18&#45;&gt;Node20</title>
<g id="a_edge19_Node000018_Node000020"><a xlink:title=" ">
<path fill="none" stroke="#63b8ff" d="M648.7,-148.91C671.41,-148.13 698.87,-147.2 722.63,-146.39"/>
<polygon fill="#63b8ff" stroke="#63b8ff" points="723.03,-149.88 732.9,-146.04 722.79,-142.88 723.03,-149.88"/>
</a>
</g>
</g>
<!-- Node21 -->
<g id="Node000021" class="node">
<title>Node21</title>
<g id="a_Node000021"><a xlink:href="collision_8c.html#ab440aa3fc960b7b4b5ad8e4bcaa06b00" target="_top" xlink:title=" ">
<polygon fill="white" stroke="#666666" points="825.5,-228 732.5,-228 732.5,-209 825.5,-209 825.5,-228"/>
<text text-anchor="middle" x="779" y="-216" font-family="Helvetica,sans-Serif" font-size="10.00">func_802AB6C4</text>
</a>
</g>
</g>
<!-- Node18&#45;&gt;Node21 -->
<g id="edge20_Node000018_Node000021" class="edge">
<title>Node18&#45;&gt;Node21</title>
<g id="a_edge20_Node000018_Node000021"><a xlink:title=" ">
<path fill="none" stroke="#63b8ff" d="M644.31,-160.02C652.1,-162.55 659.97,-165.68 667,-169.5 685.55,-179.58 684.21,-190.88 703,-200.5 709.09,-203.62 715.73,-206.21 722.46,-208.35"/>
<polygon fill="#63b8ff" stroke="#63b8ff" points="721.76,-211.79 732.34,-211.2 723.7,-205.07 721.76,-211.79"/>
</a>
</g>
</g>
<!-- Node24&#45;&gt;Node3 -->
<g id="edge24_Node000024_Node000003" class="edge">
<title>Node24&#45;&gt;Node3</title>
<g id="a_edge24_Node000024_Node000003"><a xlink:title=" ">
<path fill="none" stroke="#63b8ff" d="M373.77,-98.19C391.77,-108.29 420.2,-124.24 440.93,-135.87"/>
<polygon fill="#63b8ff" stroke="#63b8ff" points="439.42,-139.04 449.86,-140.88 442.85,-132.93 439.42,-139.04"/>
</a>
</g>
</g>
<!-- Node24&#45;&gt;Node6 -->
<g id="edge25_Node000024_Node000006" class="edge">
<title>Node24&#45;&gt;Node6</title>
<g id="a_edge25_Node000024_Node000006"><a xlink:title=" ">
<path fill="none" stroke="#63b8ff" d="M397.24,-78.97C482.33,-60.3 685.13,-22.26 855,-40.5 876.87,-42.85 900.77,-47.74 920.73,-52.5"/>
<polygon fill="#63b8ff" stroke="#63b8ff" points="919.94,-55.91 930.48,-54.89 921.6,-49.11 919.94,-55.91"/>
</a>
</g>
</g>
<!-- Node24&#45;&gt;Node15 -->
<g id="edge26_Node000024_Node000015" class="edge">
<title>Node24&#45;&gt;Node15</title>
<g id="a_edge26_Node000024_Node000015"><a xlink:title=" ">
<path fill="none" stroke="#63b8ff" d="M401.21,-85.95C470.3,-82.02 604.22,-74.39 692.37,-69.38"/>
<polygon fill="#63b8ff" stroke="#63b8ff" points="692.83,-72.86 702.62,-68.79 692.43,-65.87 692.83,-72.86"/>
</a>
</g>
</g>
</g>
</svg>
