<?xml version="1.0" encoding="UTF-8" standalone="no"?>
<!DOCTYPE svg PUBLIC "-//W3C//DTD SVG 1.1//EN"
 "http://www.w3.org/Graphics/SVG/1.1/DTD/svg11.dtd">
<!-- Generated by graphviz version 2.43.0 (0)
 -->
<!-- Title: actor_init Pages: 1 -->
<svg width="1174pt" height="243pt"
 viewBox="0.00 0.00 1174.00 243.00" xmlns="http://www.w3.org/2000/svg" xmlns:xlink="http://www.w3.org/1999/xlink">
<g id="graph0" class="graph" transform="scale(1 1) rotate(0) translate(4 239)">
<title>actor_init</title>
<!-- Node1 -->
<g id="Node000001" class="node">
<title>Node1</title>
<g id="a_Node000001"><a xlink:title=" ">
<polygon fill="#999999" stroke="#666666" points="62,-93 0,-93 0,-74 62,-74 62,-93"/>
<text text-anchor="middle" x="31" y="-81" font-family="Helvetica,sans-Serif" font-size="10.00">actor_init</text>
</a>
</g>
</g>
<!-- Node2 -->
<g id="Node000002" class="node">
<title>Node2</title>
<g id="a_Node000002"><a xlink:href="actors_8c.html#a1a9bccb586242555a9123ebd4ab70f2a" target="_top" xlink:title=" ">
<polygon fill="white" stroke="#666666" points="230,-178.5 98,-178.5 98,-148.5 230,-148.5 230,-178.5"/>
<text text-anchor="start" x="106" y="-166.5" font-family="Helvetica,sans-Serif" font-size="10.00">cleanup_red_and_green</text>
<text text-anchor="middle" x="164" y="-155.5" font-family="Helvetica,sans-Serif" font-size="10.00">_shells</text>
</a>
</g>
</g>
<!-- Node1&#45;&gt;Node2 -->
<g id="edge1_Node000001_Node000002" class="edge">
<title>Node1&#45;&gt;Node2</title>
<g id="a_edge1_Node000001_Node000002"><a xlink:title=" ">
<path fill="none" stroke="#63b8ff" d="M41.45,-93.42C53.56,-105.67 75.68,-126.46 98,-139.5 100.8,-141.14 103.74,-142.7 106.75,-144.18"/>
<polygon fill="#63b8ff" stroke="#63b8ff" points="105.38,-147.4 115.93,-148.37 108.29,-141.03 105.38,-147.4"/>
</a>
</g>
</g>
<!-- Node14 -->
<g id="Node000014" class="node">
<title>Node14</title>
<g id="a_Node000014"><a xlink:href="collision_8c.html#ad72fef3ffe32191d73b1822f512ebf3f" target="_top" xlink:title=" ">
<polygon fill="white" stroke="#666666" points="211.5,-130 116.5,-130 116.5,-111 211.5,-111 211.5,-130"/>
<text text-anchor="middle" x="164" y="-118" font-family="Helvetica,sans-Serif" font-size="10.00">func_802AAAAC</text>
</a>
</g>
</g>
<!-- Node1&#45;&gt;Node14 -->
<g id="edge13_Node000001_Node000014" class="edge">
<title>Node1&#45;&gt;Node14</title>
<g id="a_edge13_Node000001_Node000014"><a xlink:title=" ">
<path fill="none" stroke="#63b8ff" d="M62.21,-92.27C73.44,-95.51 86.3,-99.19 98,-102.5 104.59,-104.36 111.55,-106.31 118.39,-108.21"/>
<polygon fill="#63b8ff" stroke="#63b8ff" points="117.66,-111.64 128.24,-110.94 119.54,-104.9 117.66,-111.64"/>
</a>
</g>
</g>
<!-- Node16 -->
<g id="Node000016" class="node">
<title>Node16</title>
<g id="a_Node000016"><a xlink:href="collision_8c.html#a365367628b7140a7a880beeecce9c305" target="_top" xlink:title=" ">
<polygon fill="white" stroke="#666666" points="211.5,-93 116.5,-93 116.5,-74 211.5,-74 211.5,-93"/>
<text text-anchor="middle" x="164" y="-81" font-family="Helvetica,sans-Serif" font-size="10.00">func_802ADDC8</text>
</a>
</g>
</g>
<!-- Node1&#45;&gt;Node16 -->
<g id="edge15_Node000001_Node000016" class="edge">
<title>Node1&#45;&gt;Node16</title>
<g id="a_edge15_Node000001_Node000016"><a xlink:title=" ">
<path fill="none" stroke="#63b8ff" d="M62.05,-83.5C75.13,-83.5 90.9,-83.5 106.04,-83.5"/>
<polygon fill="#63b8ff" stroke="#63b8ff" points="106.39,-87 116.39,-83.5 106.39,-80 106.39,-87"/>
</a>
</g>
</g>
<!-- Node20 -->
<g id="Node000020" class="node">
<title>Node20</title>
<g id="a_Node000020"><a xlink:href="math__util_8c.html#af7b470ed76fce07b8042a47c96e5690b" target="_top" xlink:title=" ">
<polygon fill="white" stroke="#666666" points="217.5,-56 110.5,-56 110.5,-37 217.5,-37 217.5,-56"/>
<text text-anchor="middle" x="164" y="-44" font-family="Helvetica,sans-Serif" font-size="10.00">vec3f_copy_return</text>
</a>
</g>
</g>
<!-- Node1&#45;&gt;Node20 -->
<g id="edge19_Node000001_Node000020" class="edge">
<title>Node1&#45;&gt;Node20</title>
<g id="a_edge19_Node000001_Node000020"><a xlink:title=" ">
<path fill="none" stroke="#63b8ff" d="M62.05,-75.01C78.96,-70.24 100.37,-64.19 119.12,-58.89"/>
<polygon fill="#63b8ff" stroke="#63b8ff" points="120.26,-62.21 128.93,-56.12 118.35,-55.47 120.26,-62.21"/>
</a>
</g>
</g>
<!-- Node21 -->
<g id="Node000021" class="node">
<title>Node21</title>
<g id="a_Node000021"><a xlink:href="math__util_8c.html#a0e270ee67600c8c9c2f140c647d008a1" target="_top" xlink:title=" ">
<polygon fill="white" stroke="#666666" points="201,-19 127,-19 127,0 201,0 201,-19"/>
<text text-anchor="middle" x="164" y="-7" font-family="Helvetica,sans-Serif" font-size="10.00">vec3s_copy</text>
</a>
</g>
</g>
<!-- Node1&#45;&gt;Node21 -->
<g id="edge20_Node000001_Node000021" class="edge">
<title>Node1&#45;&gt;Node21</title>
<g id="a_edge20_Node000001_Node000021"><a xlink:title=" ">
<path fill="none" stroke="#63b8ff" d="M40.86,-73.71C52.71,-61.21 74.89,-39.73 98,-27.5 103.98,-24.33 110.57,-21.68 117.19,-19.47"/>
<polygon fill="#63b8ff" stroke="#63b8ff" points="118.3,-22.79 126.85,-16.54 116.27,-16.09 118.3,-22.79"/>
</a>
</g>
</g>
<!-- Node3 -->
<g id="Node000003" class="node">
<title>Node3</title>
<g id="a_Node000003"><a xlink:href="actors_8c.html#a694ec6ef7548b8618aeb35c038d3a9b9" target="_top" xlink:title=" ">
<polygon fill="white" stroke="#666666" points="383.5,-216 300.5,-216 300.5,-197 383.5,-197 383.5,-216"/>
<text text-anchor="middle" x="342" y="-204" font-family="Helvetica,sans-Serif" font-size="10.00">destroy_actor</text>
</a>
</g>
</g>
<!-- Node2&#45;&gt;Node3 -->
<g id="edge2_Node000002_Node000003" class="edge">
<title>Node2&#45;&gt;Node3</title>
<g id="a_edge2_Node000002_Node000003"><a xlink:title=" ">
<path fill="none" stroke="#63b8ff" d="M226.56,-178.54C248.01,-183.78 271.78,-189.59 292.07,-194.54"/>
<polygon fill="#63b8ff" stroke="#63b8ff" points="291.48,-198 302.03,-196.98 293.14,-191.2 291.48,-198"/>
</a>
</g>
</g>
<!-- Node13 -->
<g id="Node000013" class="node">
<title>Node13</title>
<g id="a_Node000013"><a xlink:href="code__80005FD0_8c.html#acb7b3d384c78d219f4b7040e78f6a2f2" target="_top" xlink:title=" ">
<polygon fill="white" stroke="#666666" points="418,-178.5 266,-178.5 266,-148.5 418,-148.5 418,-178.5"/>
<text text-anchor="start" x="274" y="-166.5" font-family="Helvetica,sans-Serif" font-size="10.00">remove_actor_in_unexpired</text>
<text text-anchor="middle" x="342" y="-155.5" font-family="Helvetica,sans-Serif" font-size="10.00">_actor_list</text>
</a>
</g>
</g>
<!-- Node2&#45;&gt;Node13 -->
<g id="edge12_Node000002_Node000013" class="edge">
<title>Node2&#45;&gt;Node13</title>
<g id="a_edge12_Node000002_Node000013"><a xlink:title=" ">
<path fill="none" stroke="#63b8ff" d="M230.04,-163.5C238.41,-163.5 247.08,-163.5 255.72,-163.5"/>
<polygon fill="#63b8ff" stroke="#63b8ff" points="255.83,-167 265.83,-163.5 255.83,-160 255.83,-167"/>
</a>
</g>
</g>
<!-- Node4 -->
<g id="Node000004" class="node">
<title>Node4</title>
<g id="a_Node000004"><a xlink:href="actors_8c.html#ad5a56c8f7eaf719223099cce9e38ec9f" target="_top" xlink:title=" ">
<polygon fill="white" stroke="#666666" points="605,-216 454,-216 454,-197 605,-197 605,-216"/>
<text text-anchor="middle" x="529.5" y="-204" font-family="Helvetica,sans-Serif" font-size="10.00">play_sound_before_destroy</text>
</a>
</g>
</g>
<!-- Node3&#45;&gt;Node4 -->
<g id="edge3_Node000003_Node000004" class="edge">
<title>Node3&#45;&gt;Node4</title>
<g id="a_edge3_Node000003_Node000004"><a xlink:title=" ">
<path fill="none" stroke="#63b8ff" d="M383.71,-206.5C401.4,-206.5 422.82,-206.5 443.7,-206.5"/>
<polygon fill="#63b8ff" stroke="#63b8ff" points="443.89,-210 453.89,-206.5 443.89,-203 443.89,-210"/>
</a>
</g>
</g>
<!-- Node5 -->
<g id="Node000005" class="node">
<title>Node5</title>
<g id="a_Node000005"><a xlink:href="external_8c.html#ae72057869772019e4464c87d4e16c682" target="_top" xlink:title=" ">
<polygon fill="white" stroke="#666666" points="733,-216 641,-216 641,-197 733,-197 733,-216"/>
<text text-anchor="middle" x="687" y="-204" font-family="Helvetica,sans-Serif" font-size="10.00">func_800C99E0</text>
</a>
</g>
</g>
<!-- Node4&#45;&gt;Node5 -->
<g id="edge4_Node000004_Node000005" class="edge">
<title>Node4&#45;&gt;Node5</title>
<g id="a_edge4_Node000004_Node000005"><a xlink:title=" ">
<path fill="none" stroke="#63b8ff" d="M605.06,-206.5C613.61,-206.5 622.21,-206.5 630.45,-206.5"/>
<polygon fill="#63b8ff" stroke="#63b8ff" points="630.66,-210 640.66,-206.5 630.66,-203 630.66,-210"/>
</a>
</g>
</g>
<!-- Node6 -->
<g id="Node000006" class="node">
<title>Node6</title>
<g id="a_Node000006"><a xlink:href="external_8c.html#aeb87c527482a244173df36a1f3d4f446" target="_top" xlink:title=" ">
<polygon fill="white" stroke="#666666" points="861,-235 769,-235 769,-216 861,-216 861,-235"/>
<text text-anchor="middle" x="815" y="-223" font-family="Helvetica,sans-Serif" font-size="10.00">func_800C21E8</text>
</a>
</g>
</g>
<!-- Node5&#45;&gt;Node6 -->
<g id="edge5_Node000005_Node000006" class="edge">
<title>Node5&#45;&gt;Node6</title>
<g id="a_edge5_Node000005_Node000006"><a xlink:title=" ">
<path fill="none" stroke="#63b8ff" d="M733.13,-213.31C741.46,-214.56 750.23,-215.88 758.81,-217.18"/>
<polygon fill="#63b8ff" stroke="#63b8ff" points="758.35,-220.65 768.76,-218.68 759.39,-213.73 758.35,-220.65"/>
</a>
</g>
</g>
<!-- Node7 -->
<g id="Node000007" class="node">
<title>Node7</title>
<g id="a_Node000007"><a xlink:href="external_8c.html#a028d40421b90c38f68ebfd5acc626f2e" target="_top" xlink:title=" ">
<polygon fill="white" stroke="#666666" points="861,-198 769,-198 769,-179 861,-179 861,-198"/>
<text text-anchor="middle" x="815" y="-186" font-family="Helvetica,sans-Serif" font-size="10.00">func_800C5578</text>
</a>
</g>
</g>
<!-- Node5&#45;&gt;Node7 -->
<g id="edge6_Node000005_Node000007" class="edge">
<title>Node5&#45;&gt;Node7</title>
<g id="a_edge6_Node000005_Node000007"><a xlink:title=" ">
<path fill="none" stroke="#63b8ff" d="M733.13,-200.05C741.46,-198.86 750.23,-197.61 758.81,-196.38"/>
<polygon fill="#63b8ff" stroke="#63b8ff" points="759.35,-199.84 768.76,-194.96 758.36,-192.91 759.35,-199.84"/>
</a>
</g>
</g>
<!-- Node8 -->
<g id="Node000008" class="node">
<title>Node8</title>
<g id="a_Node000008"><a xlink:href="external_8c.html#ac0fb767de7e14a03f1bcfa53f0abd23b" target="_top" xlink:title=" ">
<polygon fill="white" stroke="#666666" points="1037,-235 897,-235 897,-216 1037,-216 1037,-235"/>
<text text-anchor="middle" x="967" y="-223" font-family="Helvetica,sans-Serif" font-size="10.00">delete_sound_from_bank</text>
</a>
</g>
</g>
<!-- Node7&#45;&gt;Node8 -->
<g id="edge7_Node000007_Node000008" class="edge">
<title>Node7&#45;&gt;Node8</title>
<g id="a_edge7_Node000007_Node000008"><a xlink:title=" ">
<path fill="none" stroke="#63b8ff" d="M854.63,-198.03C873.8,-202.76 897.16,-208.52 917.52,-213.54"/>
<polygon fill="#63b8ff" stroke="#63b8ff" points="916.69,-216.94 927.24,-215.94 918.37,-210.15 916.69,-216.94"/>
</a>
</g>
</g>
<!-- Node10 -->
<g id="Node000010" class="node">
<title>Node10</title>
<g id="a_Node000010"><a xlink:href="external_8c.html#ab83bd36e63f0f1baddcb2482b5ad31b0" target="_top" xlink:title=" ">
<polygon fill="white" stroke="#666666" points="1013.5,-198 920.5,-198 920.5,-179 1013.5,-179 1013.5,-198"/>
<text text-anchor="middle" x="967" y="-186" font-family="Helvetica,sans-Serif" font-size="10.00">func_800C41CC</text>
</a>
</g>
</g>
<!-- Node7&#45;&gt;Node10 -->
<g id="edge9_Node000007_Node000010" class="edge">
<title>Node7&#45;&gt;Node10</title>
<g id="a_edge9_Node000007_Node000010"><a xlink:title=" ">
<path fill="none" stroke="#63b8ff" d="M861,-188.5C876.37,-188.5 893.74,-188.5 909.86,-188.5"/>
<polygon fill="#63b8ff" stroke="#63b8ff" points="910.25,-192 920.25,-188.5 910.25,-185 910.25,-192"/>
</a>
</g>
</g>
<!-- Node11 -->
<g id="Node000011" class="node">
<title>Node11</title>
<g id="a_Node000011"><a xlink:href="port__eu_8c.html#aa89dfaecca46c6d071f08c1898d1f7c9" target="_top" xlink:title=" ">
<polygon fill="white" stroke="#666666" points="1013.5,-161 920.5,-161 920.5,-142 1013.5,-142 1013.5,-161"/>
<text text-anchor="middle" x="967" y="-149" font-family="Helvetica,sans-Serif" font-size="10.00">func_800CBBE8</text>
</a>
</g>
</g>
<!-- Node7&#45;&gt;Node11 -->
<g id="edge10_Node000007_Node000011" class="edge">
<title>Node7&#45;&gt;Node11</title>
<g id="a_edge10_Node000007_Node000011"><a xlink:title=" ">
<path fill="none" stroke="#63b8ff" d="M854.63,-178.97C873.8,-174.24 897.16,-168.48 917.52,-163.46"/>
<polygon fill="#63b8ff" stroke="#63b8ff" points="918.37,-166.85 927.24,-161.06 916.69,-160.06 918.37,-166.85"/>
</a>
</g>
</g>
<!-- Node9 -->
<g id="Node000009" class="node">
<title>Node9</title>
<g id="a_Node000009"><a xlink:href="external_8c.html#a358ac55e8ab5262dcae8037334be06d7" target="_top" xlink:title=" ">
<polygon fill="white" stroke="#666666" points="1165.5,-235 1073.5,-235 1073.5,-216 1165.5,-216 1165.5,-235"/>
<text text-anchor="middle" x="1119.5" y="-223" font-family="Helvetica,sans-Serif" font-size="10.00">func_800C40F0</text>
</a>
</g>
</g>
<!-- Node8&#45;&gt;Node9 -->
<g id="edge8_Node000008_Node000009" class="edge">
<title>Node8&#45;&gt;Node9</title>
<g id="a_edge8_Node000008_Node000009"><a xlink:title=" ">
<path fill="none" stroke="#63b8ff" d="M1037.08,-225.5C1045.87,-225.5 1054.78,-225.5 1063.31,-225.5"/>
<polygon fill="#63b8ff" stroke="#63b8ff" points="1063.5,-229 1073.5,-225.5 1063.5,-222 1063.5,-229"/>
</a>
</g>
</g>
<!-- Node12 -->
<g id="Node000012" class="node">
<title>Node12</title>
<g id="a_Node000012"><a xlink:href="port__eu_8c.html#af361a20d2e08f30c53a237ca481ff734" target="_top" xlink:title=" ">
<polygon fill="white" stroke="#666666" points="1166,-161 1073,-161 1073,-142 1166,-142 1166,-161"/>
<text text-anchor="middle" x="1119.5" y="-149" font-family="Helvetica,sans-Serif" font-size="10.00">func_800CBB48</text>
</a>
</g>
</g>
<!-- Node11&#45;&gt;Node12 -->
<g id="edge11_Node000011_Node000012" class="edge">
<title>Node11&#45;&gt;Node12</title>
<g id="a_edge11_Node000011_Node000012"><a xlink:title=" ">
<path fill="none" stroke="#63b8ff" d="M1013.56,-151.5C1028.96,-151.5 1046.34,-151.5 1062.46,-151.5"/>
<polygon fill="#63b8ff" stroke="#63b8ff" points="1062.83,-155 1072.83,-151.5 1062.83,-148 1062.83,-155"/>
</a>
</g>
</g>
<!-- Node15 -->
<g id="Node000015" class="node">
<title>Node15</title>
<g id="a_Node000015"><a xlink:href="math__util_8c.html#a79fd07a0971ec96a3ff0801963a2fa7f" target="_top" xlink:title=" ">
<polygon fill="white" stroke="#666666" points="374,-130 310,-130 310,-111 374,-111 374,-130"/>
<text text-anchor="middle" x="342" y="-118" font-family="Helvetica,sans-Serif" font-size="10.00">vec3f_set</text>
</a>
</g>
</g>
<!-- Node14&#45;&gt;Node15 -->
<g id="edge14_Node000014_Node000015" class="edge">
<title>Node14&#45;&gt;Node15</title>
<g id="a_edge14_Node000014_Node000015"><a xlink:title=" ">
<path fill="none" stroke="#63b8ff" d="M211.7,-120.5C239.12,-120.5 273.46,-120.5 299.86,-120.5"/>
<polygon fill="#63b8ff" stroke="#63b8ff" points="299.92,-124 309.92,-120.5 299.92,-117 299.92,-124"/>
</a>
</g>
</g>
<!-- Node17 -->
<g id="Node000017" class="node">
<title>Node17</title>
<g id="a_Node000017"><a xlink:href="collision_8c.html#afce45acb8da354da0a5b501003be1aef" target="_top" xlink:title=" ">
<polygon fill="white" stroke="#666666" points="388.5,-93 295.5,-93 295.5,-74 388.5,-74 388.5,-93"/>
<text text-anchor="middle" x="342" y="-81" font-family="Helvetica,sans-Serif" font-size="10.00">func_802AAE4C</text>
</a>
</g>
</g>
<!-- Node16&#45;&gt;Node17 -->
<g id="edge16_Node000016_Node000017" class="edge">
<title>Node16&#45;&gt;Node17</title>
<g id="a_edge16_Node000016_Node000017"><a xlink:title=" ">
<path fill="none" stroke="#63b8ff" d="M211.7,-83.5C234.24,-83.5 261.44,-83.5 285.07,-83.5"/>
<polygon fill="#63b8ff" stroke="#63b8ff" points="285.3,-87 295.3,-83.5 285.3,-80 285.3,-87"/>
</a>
</g>
</g>
<!-- Node18 -->
<g id="Node000018" class="node">
<title>Node18</title>
<g id="a_Node000018"><a xlink:href="collision_8c.html#adcc608ea0eae3bf9a27ab79ec64b4899" target="_top" xlink:title=" ">
<polygon fill="white" stroke="#666666" points="388,-56 296,-56 296,-37 388,-37 388,-56"/>
<text text-anchor="middle" x="342" y="-44" font-family="Helvetica,sans-Serif" font-size="10.00">func_802AB288</text>
</a>
</g>
</g>
<!-- Node16&#45;&gt;Node18 -->
<g id="edge17_Node000016_Node000018" class="edge">
<title>Node16&#45;&gt;Node18</title>
<g id="a_edge17_Node000016_Node000018"><a xlink:title=" ">
<path fill="none" stroke="#63b8ff" d="M210.32,-73.97C233.42,-69.12 261.69,-63.17 286.02,-58.06"/>
<polygon fill="#63b8ff" stroke="#63b8ff" points="286.76,-61.48 295.83,-56 285.32,-54.63 286.76,-61.48"/>
</a>
</g>
</g>
<!-- Node19 -->
<g id="Node000019" class="node">
<title>Node19</title>
<g id="a_Node000019"><a xlink:href="collision_8c.html#ab440aa3fc960b7b4b5ad8e4bcaa06b00" target="_top" xlink:title=" ">
<polygon fill="white" stroke="#666666" points="388.5,-19 295.5,-19 295.5,0 388.5,0 388.5,-19"/>
<text text-anchor="middle" x="342" y="-7" font-family="Helvetica,sans-Serif" font-size="10.00">func_802AB6C4</text>
</a>
</g>
</g>
<!-- Node16&#45;&gt;Node19 -->
<g id="edge18_Node000016_Node000019" class="edge">
<title>Node16&#45;&gt;Node19</title>
<g id="a_edge18_Node000016_Node000019"><a xlink:title=" ">
<path fill="none" stroke="#63b8ff" d="M211.74,-73.89C218.11,-71.64 224.38,-68.88 230,-65.5 249.94,-53.51 245.86,-39.14 266,-27.5 272,-24.03 278.63,-21.23 285.41,-18.97"/>
<polygon fill="#63b8ff" stroke="#63b8ff" points="286.77,-22.22 295.37,-16.03 284.79,-15.51 286.77,-22.22"/>
</a>
</g>
</g>
</g>
</svg>
