<?xml version="1.0" encoding="UTF-8" standalone="no"?>
<!DOCTYPE svg PUBLIC "-//W3C//DTD SVG 1.1//EN"
 "http://www.w3.org/Graphics/SVG/1.1/DTD/svg11.dtd">
<!-- Generated by graphviz version 2.43.0 (0)
 -->
<!-- Title: destroy_a_banana_in_bunch_banana Pages: 1 -->
<svg width="605pt" height="137pt"
 viewBox="0.00 0.00 605.00 137.00" xmlns="http://www.w3.org/2000/svg" xmlns:xlink="http://www.w3.org/1999/xlink">
<g id="graph0" class="graph" transform="scale(1 1) rotate(0) translate(4 133)">
<title>destroy_a_banana_in_bunch_banana</title>
<!-- Node1 -->
<g id="Node000001" class="node">
<title>Node1</title>
<g id="a_Node000001"><a xlink:title=" ">
<polygon fill="#999999" stroke="#666666" points="120,-79.5 0,-79.5 0,-49.5 120,-49.5 120,-79.5"/>
<text text-anchor="start" x="8" y="-67.5" font-family="Helvetica,sans-Serif" font-size="10.00">destroy_a_banana_in</text>
<text text-anchor="middle" x="60" y="-56.5" font-family="Helvetica,sans-Serif" font-size="10.00">_bunch_banana</text>
</a>
</g>
</g>
<!-- Node2 -->
<g id="Node000002" class="node">
<title>Node2</title>
<g id="a_Node000002"><a xlink:href="external_8c.html#a2be9efc97a92e19d02aaee90d676acc1" target="_top" xlink:title=" ">
<polygon fill="white" stroke="#666666" points="248,-129 156,-129 156,-110 248,-110 248,-129"/>
<text text-anchor="middle" x="202" y="-117" font-family="Helvetica,sans-Serif" font-size="10.00">func_800C9060</text>
</a>
</g>
</g>
<!-- Node1&#45;&gt;Node2 -->
<g id="edge1_Node000001_Node000002" class="edge">
<title>Node1&#45;&gt;Node2</title>
<g id="a_edge1_Node000001_Node000002"><a xlink:title=" ">
<path fill="none" stroke="#63b8ff" d="M99.26,-79.53C120.41,-87.84 146.46,-98.07 166.91,-106.11"/>
<polygon fill="#63b8ff" stroke="#63b8ff" points="165.87,-109.46 176.45,-109.86 168.43,-102.94 165.87,-109.46"/>
</a>
</g>
</g>
<!-- Node4 -->
<g id="Node000004" class="node">
<title>Node4</title>
<g id="a_Node000004"><a xlink:href="actors__extended_8c.html#ab349562338ca47f2b524137864704d0e" target="_top" xlink:title=" ">
<polygon fill="white" stroke="#666666" points="248,-74 156,-74 156,-55 248,-55 248,-74"/>
<text text-anchor="middle" x="202" y="-62" font-family="Helvetica,sans-Serif" font-size="10.00">func_802B0464</text>
</a>
</g>
</g>
<!-- Node1&#45;&gt;Node4 -->
<g id="edge3_Node000001_Node000004" class="edge">
<title>Node1&#45;&gt;Node4</title>
<g id="a_edge3_Node000001_Node000004"><a xlink:title=" ">
<path fill="none" stroke="#63b8ff" d="M120.37,-64.5C128.85,-64.5 137.54,-64.5 145.93,-64.5"/>
<polygon fill="#63b8ff" stroke="#63b8ff" points="145.98,-68 155.98,-64.5 145.98,-61 145.98,-68"/>
</a>
</g>
</g>
<!-- Node8 -->
<g id="Node000008" class="node">
<title>Node8</title>
<g id="a_Node000008"><a xlink:href="actors__extended_8c.html#a2f342036a9e04bb583aa7cf9c08edae9" target="_top" xlink:title=" ">
<polygon fill="white" stroke="#666666" points="248,-19 156,-19 156,0 248,0 248,-19"/>
<text text-anchor="middle" x="202" y="-7" font-family="Helvetica,sans-Serif" font-size="10.00">func_802B04E8</text>
</a>
</g>
</g>
<!-- Node1&#45;&gt;Node8 -->
<g id="edge8_Node000001_Node000008" class="edge">
<title>Node1&#45;&gt;Node8</title>
<g id="a_edge8_Node000001_Node000008"><a xlink:title=" ">
<path fill="none" stroke="#63b8ff" d="M99.26,-49.47C120.41,-41.16 146.46,-30.93 166.91,-22.89"/>
<polygon fill="#63b8ff" stroke="#63b8ff" points="168.43,-26.06 176.45,-19.14 165.87,-19.54 168.43,-26.06"/>
</a>
</g>
</g>
<!-- Node3 -->
<g id="Node000003" class="node">
<title>Node3</title>
<g id="a_Node000003"><a xlink:href="external_8c.html#a4227847f3da303aee53cf69d2760a595" target="_top" xlink:title=" ">
<polygon fill="white" stroke="#666666" points="366,-129 294,-129 294,-110 366,-110 366,-129"/>
<text text-anchor="middle" x="330" y="-117" font-family="Helvetica,sans-Serif" font-size="10.00">play_sound</text>
</a>
</g>
</g>
<!-- Node2&#45;&gt;Node3 -->
<g id="edge2_Node000002_Node000003" class="edge">
<title>Node2&#45;&gt;Node3</title>
<g id="a_edge2_Node000002_Node000003"><a xlink:title=" ">
<path fill="none" stroke="#63b8ff" d="M248.13,-119.5C259.59,-119.5 271.92,-119.5 283.4,-119.5"/>
<polygon fill="#63b8ff" stroke="#63b8ff" points="283.66,-123 293.66,-119.5 283.66,-116 283.66,-123"/>
</a>
</g>
</g>
<!-- Node4&#45;&gt;Node4 -->
<g id="edge7_Node000004_Node000004" class="edge">
<title>Node4&#45;&gt;Node4</title>
<g id="a_edge7_Node000004_Node000004"><a xlink:title=" ">
<path fill="none" stroke="#63b8ff" d="M182.27,-74.08C172.67,-82.73 179.25,-92 202,-92 216.22,-92 224.12,-88.38 225.7,-83.55"/>
<polygon fill="#63b8ff" stroke="#63b8ff" points="228.83,-81.95 221.73,-74.08 222.37,-84.66 228.83,-81.95"/>
</a>
</g>
</g>
<!-- Node5 -->
<g id="Node000005" class="node">
<title>Node5</title>
<g id="a_Node000005"><a xlink:href="actors__extended_8c.html#a093f702b462b6657ba7ab789941ef800" target="_top" xlink:title=" ">
<polygon fill="white" stroke="#666666" points="376,-47 284,-47 284,-28 376,-28 376,-47"/>
<text text-anchor="middle" x="330" y="-35" font-family="Helvetica,sans-Serif" font-size="10.00">func_802B039C</text>
</a>
</g>
</g>
<!-- Node4&#45;&gt;Node5 -->
<g id="edge4_Node000004_Node000005" class="edge">
<title>Node4&#45;&gt;Node5</title>
<g id="a_edge4_Node000004_Node000005"><a xlink:title=" ">
<path fill="none" stroke="#63b8ff" d="M247.42,-54.98C256.17,-53.11 265.45,-51.12 274.49,-49.18"/>
<polygon fill="#63b8ff" stroke="#63b8ff" points="275.51,-52.54 284.55,-47.02 274.04,-45.7 275.51,-52.54"/>
</a>
</g>
</g>
<!-- Node6 -->
<g id="Node000006" class="node">
<title>Node6</title>
<g id="a_Node000006"><a xlink:href="math__util_8c.html#a151b63b8adf9af7e4054b3b84bd226dc" target="_top" xlink:title=" ">
<polygon fill="white" stroke="#666666" points="484,-47 412,-47 412,-28 484,-28 484,-47"/>
<text text-anchor="middle" x="448" y="-35" font-family="Helvetica,sans-Serif" font-size="10.00">random_int</text>
</a>
</g>
</g>
<!-- Node5&#45;&gt;Node6 -->
<g id="edge5_Node000005_Node000006" class="edge">
<title>Node5&#45;&gt;Node6</title>
<g id="a_edge5_Node000005_Node000006"><a xlink:title=" ">
<path fill="none" stroke="#63b8ff" d="M376.18,-37.5C384.59,-37.5 393.38,-37.5 401.8,-37.5"/>
<polygon fill="#63b8ff" stroke="#63b8ff" points="401.82,-41 411.82,-37.5 401.82,-34 401.82,-41"/>
</a>
</g>
</g>
<!-- Node7 -->
<g id="Node000007" class="node">
<title>Node7</title>
<g id="a_Node000007"><a xlink:href="math__util_8c.html#a062850863585005ad1d0a75d9ff70693" target="_top" xlink:title=" ">
<polygon fill="white" stroke="#666666" points="597,-47 520,-47 520,-28 597,-28 597,-47"/>
<text text-anchor="middle" x="558.5" y="-35" font-family="Helvetica,sans-Serif" font-size="10.00">random_u16</text>
</a>
</g>
</g>
<!-- Node6&#45;&gt;Node7 -->
<g id="edge6_Node000006_Node000007" class="edge">
<title>Node6&#45;&gt;Node7</title>
<g id="a_edge6_Node000006_Node000007"><a xlink:title=" ">
<path fill="none" stroke="#63b8ff" d="M484.23,-37.5C492.32,-37.5 501.06,-37.5 509.59,-37.5"/>
<polygon fill="#63b8ff" stroke="#63b8ff" points="509.83,-41 519.83,-37.5 509.83,-34 509.83,-41"/>
</a>
</g>
</g>
<!-- Node8&#45;&gt;Node5 -->
<g id="edge9_Node000008_Node000005" class="edge">
<title>Node8&#45;&gt;Node5</title>
<g id="a_edge9_Node000008_Node000005"><a xlink:title=" ">
<path fill="none" stroke="#63b8ff" d="M246.01,-19.06C255.74,-21.22 266.18,-23.54 276.26,-25.78"/>
<polygon fill="#63b8ff" stroke="#63b8ff" points="275.66,-29.23 286.18,-27.99 277.18,-22.4 275.66,-29.23"/>
</a>
</g>
</g>
<!-- Node8&#45;&gt;Node8 -->
<g id="edge10_Node000008_Node000008" class="edge">
<title>Node8&#45;&gt;Node8</title>
<g id="a_edge10_Node000008_Node000008"><a xlink:title=" ">
<path fill="none" stroke="#63b8ff" d="M182.27,-19.08C172.67,-27.73 179.25,-37 202,-37 216.22,-37 224.12,-33.38 225.7,-28.55"/>
<polygon fill="#63b8ff" stroke="#63b8ff" points="228.83,-26.95 221.73,-19.08 222.37,-29.66 228.83,-26.95"/>
</a>
</g>
</g>
</g>
</svg>
