<?xml version="1.0" encoding="UTF-8" standalone="no"?>
<!DOCTYPE svg PUBLIC "-//W3C//DTD SVG 1.1//EN"
 "http://www.w3.org/Graphics/SVG/1.1/DTD/svg11.dtd">
<!-- Generated by graphviz version 2.43.0 (0)
 -->
<!-- Title: init_triple_shell Pages: 1 -->
<svg width="1693pt" height="250pt"
 viewBox="0.00 0.00 1693.00 249.99" xmlns="http://www.w3.org/2000/svg" xmlns:xlink="http://www.w3.org/1999/xlink">
<g id="graph0" class="graph" transform="scale(1 1) rotate(0) translate(4 245.99)">
<title>init_triple_shell</title>
<!-- Node1 -->
<g id="Node000001" class="node">
<title>Node1</title>
<g id="a_Node000001"><a xlink:title=" ">
<polygon fill="#999999" stroke="#666666" points="92,-74 0,-74 0,-55 92,-55 92,-74"/>
<text text-anchor="middle" x="46" y="-62" font-family="Helvetica,sans-Serif" font-size="10.00">init_triple_shell</text>
</a>
</g>
</g>
<!-- Node2 -->
<g id="Node000002" class="node">
<title>Node2</title>
<g id="a_Node000002"><a xlink:href="actors_8c.html#a91fb2e4e37e7c72fea918fe2c1bb4eaf" target="_top" xlink:title=" ">
<polygon fill="white" stroke="#666666" points="274,-150 134,-150 134,-131 274,-131 274,-150"/>
<text text-anchor="middle" x="204" y="-138" font-family="Helvetica,sans-Serif" font-size="10.00">add_actor_to_empty_slot</text>
</a>
</g>
</g>
<!-- Node1&#45;&gt;Node2 -->
<g id="edge1_Node000001_Node000002" class="edge">
<title>Node1&#45;&gt;Node2</title>
<g id="a_edge1_Node000001_Node000002"><a xlink:title=" ">
<path fill="none" stroke="#63b8ff" d="M66.76,-74.13C93.95,-87.37 143.09,-111.31 174.33,-126.53"/>
<polygon fill="#63b8ff" stroke="#63b8ff" points="172.88,-129.72 183.4,-130.95 175.95,-123.43 172.88,-129.72"/>
</a>
</g>
</g>
<!-- Node25 -->
<g id="Node000025" class="node">
<title>Node25</title>
<g id="a_Node000025"><a xlink:href="collision_8c.html#a0724869c38f177efa5357ac2205857d4" target="_top" xlink:title=" ">
<polygon fill="white" stroke="#666666" points="250.5,-93 157.5,-93 157.5,-74 250.5,-74 250.5,-93"/>
<text text-anchor="middle" x="204" y="-81" font-family="Helvetica,sans-Serif" font-size="10.00">func_802AD950</text>
</a>
</g>
</g>
<!-- Node1&#45;&gt;Node25 -->
<g id="edge27_Node000001_Node000025" class="edge">
<title>Node1&#45;&gt;Node25</title>
<g id="a_edge27_Node000001_Node000025"><a xlink:title=" ">
<path fill="none" stroke="#63b8ff" d="M92.12,-70C109.35,-72.09 129.2,-74.51 147.3,-76.72"/>
<polygon fill="#63b8ff" stroke="#63b8ff" points="147.09,-80.22 157.44,-77.95 147.94,-73.27 147.09,-80.22"/>
</a>
</g>
</g>
<!-- Node29 -->
<g id="Node000029" class="node">
<title>Node29</title>
<g id="a_Node000029"><a xlink:href="actors__extended_8c.html#a78e98c146f1f4dd6e3608016486172a4" target="_top" xlink:title=" ">
<polygon fill="white" stroke="#666666" points="250,-56 158,-56 158,-37 250,-37 250,-56"/>
<text text-anchor="middle" x="204" y="-44" font-family="Helvetica,sans-Serif" font-size="10.00">func_802B4E30</text>
</a>
</g>
</g>
<!-- Node1&#45;&gt;Node29 -->
<g id="edge31_Node000001_Node000029" class="edge">
<title>Node1&#45;&gt;Node29</title>
<g id="a_edge31_Node000001_Node000029"><a xlink:title=" ">
<path fill="none" stroke="#63b8ff" d="M92.12,-59.29C109.58,-57.28 129.74,-54.95 148.04,-52.84"/>
<polygon fill="#63b8ff" stroke="#63b8ff" points="148.45,-56.32 157.98,-51.69 147.64,-49.36 148.45,-56.32"/>
</a>
</g>
</g>
<!-- Node30 -->
<g id="Node000030" class="node">
<title>Node30</title>
<g id="a_Node000030"><a xlink:href="math__util_8c.html#ad5bb0138c68b50f119d3cb7966f522b7" target="_top" xlink:title=" ">
<polygon fill="white" stroke="#666666" points="280,-19 128,-19 128,0 280,0 280,-19"/>
<text text-anchor="middle" x="204" y="-7" font-family="Helvetica,sans-Serif" font-size="10.00">mtxf_translate_vec3f_mat3</text>
</a>
</g>
</g>
<!-- Node1&#45;&gt;Node30 -->
<g id="edge32_Node000001_Node000030" class="edge">
<title>Node1&#45;&gt;Node30</title>
<g id="a_edge32_Node000001_Node000030"><a xlink:title=" ">
<path fill="none" stroke="#63b8ff" d="M65.24,-54.93C81.39,-46.77 105.78,-35.16 128,-27.5 134.06,-25.41 140.49,-23.47 146.92,-21.7"/>
<polygon fill="#63b8ff" stroke="#63b8ff" points="148.2,-24.98 156.98,-19.06 146.42,-18.21 148.2,-24.98"/>
</a>
</g>
</g>
<!-- Node3 -->
<g id="Node000003" class="node">
<title>Node3</title>
<g id="a_Node000003"><a xlink:href="actors_8c.html#a39c023177b5a7686cdd1fc65b8b953e1" target="_top" xlink:title=" ">
<polygon fill="white" stroke="#666666" points="581,-138 519,-138 519,-119 581,-119 581,-138"/>
<text text-anchor="middle" x="550" y="-126" font-family="Helvetica,sans-Serif" font-size="10.00">actor_init</text>
</a>
</g>
</g>
<!-- Node2&#45;&gt;Node3 -->
<g id="edge2_Node000002_Node000003" class="edge">
<title>Node2&#45;&gt;Node3</title>
<g id="a_edge2_Node000002_Node000003"><a xlink:title=" ">
<path fill="none" stroke="#63b8ff" d="M274.2,-138.09C344.57,-135.63 451.21,-131.91 508.76,-129.9"/>
<polygon fill="#63b8ff" stroke="#63b8ff" points="509.05,-133.4 518.92,-129.55 508.8,-126.4 509.05,-133.4"/>
</a>
</g>
</g>
<!-- Node24 -->
<g id="Node000024" class="node">
<title>Node24</title>
<g id="a_Node000024"><a xlink:href="actors_8c.html#adf454481afb7fd833f5ce3f01dea4bea" target="_top" xlink:title=" ">
<polygon fill="white" stroke="#666666" points="483,-212 316,-212 316,-193 483,-193 483,-212"/>
<text text-anchor="middle" x="399.5" y="-200" font-family="Helvetica,sans-Serif" font-size="10.00">try_remove_destructable_item</text>
</a>
</g>
</g>
<!-- Node2&#45;&gt;Node24 -->
<g id="edge23_Node000002_Node000024" class="edge">
<title>Node2&#45;&gt;Node24</title>
<g id="a_edge23_Node000002_Node000024"><a xlink:title=" ">
<path fill="none" stroke="#63b8ff" d="M234.81,-150.05C268.05,-160.7 321.96,-177.98 358.76,-189.77"/>
<polygon fill="#63b8ff" stroke="#63b8ff" points="358.06,-193.22 368.66,-192.94 360.2,-186.55 358.06,-193.22"/>
</a>
</g>
</g>
<!-- Node4 -->
<g id="Node000004" class="node">
<title>Node4</title>
<g id="a_Node000004"><a xlink:href="actors_8c.html#a1a9bccb586242555a9123ebd4ab70f2a" target="_top" xlink:title=" ">
<polygon fill="white" stroke="#666666" points="749,-186.5 617,-186.5 617,-156.5 749,-156.5 749,-186.5"/>
<text text-anchor="start" x="625" y="-174.5" font-family="Helvetica,sans-Serif" font-size="10.00">cleanup_red_and_green</text>
<text text-anchor="middle" x="683" y="-163.5" font-family="Helvetica,sans-Serif" font-size="10.00">_shells</text>
</a>
</g>
</g>
<!-- Node3&#45;&gt;Node4 -->
<g id="edge3_Node000003_Node000004" class="edge">
<title>Node3&#45;&gt;Node4</title>
<g id="a_edge3_Node000003_Node000004"><a xlink:title=" ">
<path fill="none" stroke="#63b8ff" d="M580.07,-138.04C593.74,-142.53 610.52,-148.04 626.48,-153.28"/>
<polygon fill="#63b8ff" stroke="#63b8ff" points="625.69,-156.7 636.28,-156.49 627.87,-150.05 625.69,-156.7"/>
</a>
</g>
</g>
<!-- Node16 -->
<g id="Node000016" class="node">
<title>Node16</title>
<g id="a_Node000016"><a xlink:href="collision_8c.html#ad72fef3ffe32191d73b1822f512ebf3f" target="_top" xlink:title=" ">
<polygon fill="white" stroke="#666666" points="730.5,-138 635.5,-138 635.5,-119 730.5,-119 730.5,-138"/>
<text text-anchor="middle" x="683" y="-126" font-family="Helvetica,sans-Serif" font-size="10.00">func_802AAAAC</text>
</a>
</g>
</g>
<!-- Node3&#45;&gt;Node16 -->
<g id="edge15_Node000003_Node000016" class="edge">
<title>Node3&#45;&gt;Node16</title>
<g id="a_edge15_Node000003_Node000016"><a xlink:title=" ">
<path fill="none" stroke="#63b8ff" d="M581.05,-128.5C594.13,-128.5 609.9,-128.5 625.04,-128.5"/>
<polygon fill="#63b8ff" stroke="#63b8ff" points="625.39,-132 635.39,-128.5 625.39,-125 625.39,-132"/>
</a>
</g>
</g>
<!-- Node18 -->
<g id="Node000018" class="node">
<title>Node18</title>
<g id="a_Node000018"><a xlink:href="collision_8c.html#a365367628b7140a7a880beeecce9c305" target="_top" xlink:title=" ">
<polygon fill="white" stroke="#666666" points="730.5,-101 635.5,-101 635.5,-82 730.5,-82 730.5,-101"/>
<text text-anchor="middle" x="683" y="-89" font-family="Helvetica,sans-Serif" font-size="10.00">func_802ADDC8</text>
</a>
</g>
</g>
<!-- Node3&#45;&gt;Node18 -->
<g id="edge17_Node000003_Node000018" class="edge">
<title>Node3&#45;&gt;Node18</title>
<g id="a_edge17_Node000003_Node000018"><a xlink:title=" ">
<path fill="none" stroke="#63b8ff" d="M581.05,-120.01C597.96,-115.24 619.37,-109.19 638.12,-103.89"/>
<polygon fill="#63b8ff" stroke="#63b8ff" points="639.26,-107.21 647.93,-101.12 637.35,-100.47 639.26,-107.21"/>
</a>
</g>
</g>
<!-- Node22 -->
<g id="Node000022" class="node">
<title>Node22</title>
<g id="a_Node000022"><a xlink:href="math__util_8c.html#af7b470ed76fce07b8042a47c96e5690b" target="_top" xlink:title=" ">
<polygon fill="white" stroke="#666666" points="736.5,-64 629.5,-64 629.5,-45 736.5,-45 736.5,-64"/>
<text text-anchor="middle" x="683" y="-52" font-family="Helvetica,sans-Serif" font-size="10.00">vec3f_copy_return</text>
</a>
</g>
</g>
<!-- Node3&#45;&gt;Node22 -->
<g id="edge21_Node000003_Node000022" class="edge">
<title>Node3&#45;&gt;Node22</title>
<g id="a_edge21_Node000003_Node000022"><a xlink:title=" ">
<path fill="none" stroke="#63b8ff" d="M559.93,-118.94C571.84,-106.73 594.1,-85.7 617,-73.5 621.19,-71.27 625.67,-69.27 630.26,-67.48"/>
<polygon fill="#63b8ff" stroke="#63b8ff" points="631.49,-70.76 639.74,-64.11 629.14,-64.16 631.49,-70.76"/>
</a>
</g>
</g>
<!-- Node23 -->
<g id="Node000023" class="node">
<title>Node23</title>
<g id="a_Node000023"><a xlink:href="math__util_8c.html#a0e270ee67600c8c9c2f140c647d008a1" target="_top" xlink:title=" ">
<polygon fill="white" stroke="#666666" points="720,-27 646,-27 646,-8 720,-8 720,-27"/>
<text text-anchor="middle" x="683" y="-15" font-family="Helvetica,sans-Serif" font-size="10.00">vec3s_copy</text>
</a>
</g>
</g>
<!-- Node3&#45;&gt;Node23 -->
<g id="edge22_Node000003_Node000023" class="edge">
<title>Node3&#45;&gt;Node23</title>
<g id="a_edge22_Node000003_Node000023"><a xlink:title=" ">
<path fill="none" stroke="#63b8ff" d="M555.07,-118.95C563.65,-100.03 585.4,-57.68 617,-35.5 622.73,-31.48 629.33,-28.35 636.08,-25.93"/>
<polygon fill="#63b8ff" stroke="#63b8ff" points="637.49,-29.15 646,-22.84 635.41,-22.47 637.49,-29.15"/>
</a>
</g>
</g>
<!-- Node5 -->
<g id="Node000005" class="node">
<title>Node5</title>
<g id="a_Node000005"><a xlink:href="actors_8c.html#a694ec6ef7548b8618aeb35c038d3a9b9" target="_top" xlink:title=" ">
<polygon fill="white" stroke="#666666" points="902.5,-178 819.5,-178 819.5,-159 902.5,-159 902.5,-178"/>
<text text-anchor="middle" x="861" y="-166" font-family="Helvetica,sans-Serif" font-size="10.00">destroy_actor</text>
</a>
</g>
</g>
<!-- Node4&#45;&gt;Node5 -->
<g id="edge4_Node000004_Node000005" class="edge">
<title>Node4&#45;&gt;Node5</title>
<g id="a_edge4_Node000004_Node000005"><a xlink:title=" ">
<path fill="none" stroke="#63b8ff" d="M749.04,-170.39C768.95,-170.05 790.55,-169.68 809.35,-169.36"/>
<polygon fill="#63b8ff" stroke="#63b8ff" points="809.54,-172.86 819.48,-169.19 809.42,-165.86 809.54,-172.86"/>
</a>
</g>
</g>
<!-- Node15 -->
<g id="Node000015" class="node">
<title>Node15</title>
<g id="a_Node000015"><a xlink:href="code__80005FD0_8c.html#acb7b3d384c78d219f4b7040e78f6a2f2" target="_top" xlink:title=" ">
<polygon fill="white" stroke="#666666" points="937,-226.5 785,-226.5 785,-196.5 937,-196.5 937,-226.5"/>
<text text-anchor="start" x="793" y="-214.5" font-family="Helvetica,sans-Serif" font-size="10.00">remove_actor_in_unexpired</text>
<text text-anchor="middle" x="861" y="-203.5" font-family="Helvetica,sans-Serif" font-size="10.00">_actor_list</text>
</a>
</g>
</g>
<!-- Node4&#45;&gt;Node15 -->
<g id="edge14_Node000004_Node000015" class="edge">
<title>Node4&#45;&gt;Node15</title>
<g id="a_edge14_Node000004_Node000015"><a xlink:title=" ">
<path fill="none" stroke="#63b8ff" d="M749.04,-186.28C760.32,-188.85 772.15,-191.53 783.7,-194.16"/>
<polygon fill="#63b8ff" stroke="#63b8ff" points="783.23,-197.64 793.76,-196.45 784.79,-190.82 783.23,-197.64"/>
</a>
</g>
</g>
<!-- Node6 -->
<g id="Node000006" class="node">
<title>Node6</title>
<g id="a_Node000006"><a xlink:href="actors_8c.html#ad5a56c8f7eaf719223099cce9e38ec9f" target="_top" xlink:title=" ">
<polygon fill="white" stroke="#666666" points="1124,-221 973,-221 973,-202 1124,-202 1124,-221"/>
<text text-anchor="middle" x="1048.5" y="-209" font-family="Helvetica,sans-Serif" font-size="10.00">play_sound_before_destroy</text>
</a>
</g>
</g>
<!-- Node5&#45;&gt;Node6 -->
<g id="edge5_Node000005_Node000006" class="edge">
<title>Node5&#45;&gt;Node6</title>
<g id="a_edge5_Node000005_Node000006"><a xlink:title=" ">
<path fill="none" stroke="#63b8ff" d="M902.71,-177.94C930.18,-184.31 966.67,-192.76 996.14,-199.59"/>
<polygon fill="#63b8ff" stroke="#63b8ff" points="995.71,-203.09 1006.25,-201.94 997.29,-196.27 995.71,-203.09"/>
</a>
</g>
</g>
<!-- Node7 -->
<g id="Node000007" class="node">
<title>Node7</title>
<g id="a_Node000007"><a xlink:href="external_8c.html#ae72057869772019e4464c87d4e16c682" target="_top" xlink:title=" ">
<polygon fill="white" stroke="#666666" points="1252,-221 1160,-221 1160,-202 1252,-202 1252,-221"/>
<text text-anchor="middle" x="1206" y="-209" font-family="Helvetica,sans-Serif" font-size="10.00">func_800C99E0</text>
</a>
</g>
</g>
<!-- Node6&#45;&gt;Node7 -->
<g id="edge6_Node000006_Node000007" class="edge">
<title>Node6&#45;&gt;Node7</title>
<g id="a_edge6_Node000006_Node000007"><a xlink:title=" ">
<path fill="none" stroke="#63b8ff" d="M1124.06,-211.5C1132.61,-211.5 1141.21,-211.5 1149.45,-211.5"/>
<polygon fill="#63b8ff" stroke="#63b8ff" points="1149.66,-215 1159.66,-211.5 1149.66,-208 1149.66,-215"/>
</a>
</g>
</g>
<!-- Node8 -->
<g id="Node000008" class="node">
<title>Node8</title>
<g id="a_Node000008"><a xlink:href="external_8c.html#aeb87c527482a244173df36a1f3d4f446" target="_top" xlink:title=" ">
<polygon fill="white" stroke="#666666" points="1380,-240 1288,-240 1288,-221 1380,-221 1380,-240"/>
<text text-anchor="middle" x="1334" y="-228" font-family="Helvetica,sans-Serif" font-size="10.00">func_800C21E8</text>
</a>
</g>
</g>
<!-- Node7&#45;&gt;Node8 -->
<g id="edge7_Node000007_Node000008" class="edge">
<title>Node7&#45;&gt;Node8</title>
<g id="a_edge7_Node000007_Node000008"><a xlink:title=" ">
<path fill="none" stroke="#63b8ff" d="M1252.13,-218.31C1260.46,-219.56 1269.23,-220.88 1277.81,-222.18"/>
<polygon fill="#63b8ff" stroke="#63b8ff" points="1277.35,-225.65 1287.76,-223.68 1278.39,-218.73 1277.35,-225.65"/>
</a>
</g>
</g>
<!-- Node9 -->
<g id="Node000009" class="node">
<title>Node9</title>
<g id="a_Node000009"><a xlink:href="external_8c.html#a028d40421b90c38f68ebfd5acc626f2e" target="_top" xlink:title=" ">
<polygon fill="white" stroke="#666666" points="1380,-203 1288,-203 1288,-184 1380,-184 1380,-203"/>
<text text-anchor="middle" x="1334" y="-191" font-family="Helvetica,sans-Serif" font-size="10.00">func_800C5578</text>
</a>
</g>
</g>
<!-- Node7&#45;&gt;Node9 -->
<g id="edge8_Node000007_Node000009" class="edge">
<title>Node7&#45;&gt;Node9</title>
<g id="a_edge8_Node000007_Node000009"><a xlink:title=" ">
<path fill="none" stroke="#63b8ff" d="M1252.13,-205.05C1260.46,-203.86 1269.23,-202.61 1277.81,-201.38"/>
<polygon fill="#63b8ff" stroke="#63b8ff" points="1278.35,-204.84 1287.76,-199.96 1277.36,-197.91 1278.35,-204.84"/>
</a>
</g>
</g>
<!-- Node10 -->
<g id="Node000010" class="node">
<title>Node10</title>
<g id="a_Node000010"><a xlink:href="external_8c.html#ac0fb767de7e14a03f1bcfa53f0abd23b" target="_top" xlink:title=" ">
<polygon fill="white" stroke="#666666" points="1556,-240 1416,-240 1416,-221 1556,-221 1556,-240"/>
<text text-anchor="middle" x="1486" y="-228" font-family="Helvetica,sans-Serif" font-size="10.00">delete_sound_from_bank</text>
</a>
</g>
</g>
<!-- Node9&#45;&gt;Node10 -->
<g id="edge9_Node000009_Node000010" class="edge">
<title>Node9&#45;&gt;Node10</title>
<g id="a_edge9_Node000009_Node000010"><a xlink:title=" ">
<path fill="none" stroke="#63b8ff" d="M1373.63,-203.03C1392.8,-207.76 1416.16,-213.52 1436.52,-218.54"/>
<polygon fill="#63b8ff" stroke="#63b8ff" points="1435.69,-221.94 1446.24,-220.94 1437.37,-215.15 1435.69,-221.94"/>
</a>
</g>
</g>
<!-- Node12 -->
<g id="Node000012" class="node">
<title>Node12</title>
<g id="a_Node000012"><a xlink:href="external_8c.html#ab83bd36e63f0f1baddcb2482b5ad31b0" target="_top" xlink:title=" ">
<polygon fill="white" stroke="#666666" points="1532.5,-203 1439.5,-203 1439.5,-184 1532.5,-184 1532.5,-203"/>
<text text-anchor="middle" x="1486" y="-191" font-family="Helvetica,sans-Serif" font-size="10.00">func_800C41CC</text>
</a>
</g>
</g>
<!-- Node9&#45;&gt;Node12 -->
<g id="edge11_Node000009_Node000012" class="edge">
<title>Node9&#45;&gt;Node12</title>
<g id="a_edge11_Node000009_Node000012"><a xlink:title=" ">
<path fill="none" stroke="#63b8ff" d="M1380,-193.5C1395.37,-193.5 1412.74,-193.5 1428.86,-193.5"/>
<polygon fill="#63b8ff" stroke="#63b8ff" points="1429.25,-197 1439.25,-193.5 1429.25,-190 1429.25,-197"/>
</a>
</g>
</g>
<!-- Node13 -->
<g id="Node000013" class="node">
<title>Node13</title>
<g id="a_Node000013"><a xlink:href="port__eu_8c.html#aa89dfaecca46c6d071f08c1898d1f7c9" target="_top" xlink:title=" ">
<polygon fill="white" stroke="#666666" points="1532.5,-166 1439.5,-166 1439.5,-147 1532.5,-147 1532.5,-166"/>
<text text-anchor="middle" x="1486" y="-154" font-family="Helvetica,sans-Serif" font-size="10.00">func_800CBBE8</text>
</a>
</g>
</g>
<!-- Node9&#45;&gt;Node13 -->
<g id="edge12_Node000009_Node000013" class="edge">
<title>Node9&#45;&gt;Node13</title>
<g id="a_edge12_Node000009_Node000013"><a xlink:title=" ">
<path fill="none" stroke="#63b8ff" d="M1373.63,-183.97C1392.8,-179.24 1416.16,-173.48 1436.52,-168.46"/>
<polygon fill="#63b8ff" stroke="#63b8ff" points="1437.37,-171.85 1446.24,-166.06 1435.69,-165.06 1437.37,-171.85"/>
</a>
</g>
</g>
<!-- Node11 -->
<g id="Node000011" class="node">
<title>Node11</title>
<g id="a_Node000011"><a xlink:href="external_8c.html#a358ac55e8ab5262dcae8037334be06d7" target="_top" xlink:title=" ">
<polygon fill="white" stroke="#666666" points="1684.5,-240 1592.5,-240 1592.5,-221 1684.5,-221 1684.5,-240"/>
<text text-anchor="middle" x="1638.5" y="-228" font-family="Helvetica,sans-Serif" font-size="10.00">func_800C40F0</text>
</a>
</g>
</g>
<!-- Node10&#45;&gt;Node11 -->
<g id="edge10_Node000010_Node000011" class="edge">
<title>Node10&#45;&gt;Node11</title>
<g id="a_edge10_Node000010_Node000011"><a xlink:title=" ">
<path fill="none" stroke="#63b8ff" d="M1556.08,-230.5C1564.87,-230.5 1573.78,-230.5 1582.31,-230.5"/>
<polygon fill="#63b8ff" stroke="#63b8ff" points="1582.5,-234 1592.5,-230.5 1582.5,-227 1582.5,-234"/>
</a>
</g>
</g>
<!-- Node14 -->
<g id="Node000014" class="node">
<title>Node14</title>
<g id="a_Node000014"><a xlink:href="port__eu_8c.html#af361a20d2e08f30c53a237ca481ff734" target="_top" xlink:title=" ">
<polygon fill="white" stroke="#666666" points="1685,-166 1592,-166 1592,-147 1685,-147 1685,-166"/>
<text text-anchor="middle" x="1638.5" y="-154" font-family="Helvetica,sans-Serif" font-size="10.00">func_800CBB48</text>
</a>
</g>
</g>
<!-- Node13&#45;&gt;Node14 -->
<g id="edge13_Node000013_Node000014" class="edge">
<title>Node13&#45;&gt;Node14</title>
<g id="a_edge13_Node000013_Node000014"><a xlink:title=" ">
<path fill="none" stroke="#63b8ff" d="M1532.56,-156.5C1547.96,-156.5 1565.34,-156.5 1581.46,-156.5"/>
<polygon fill="#63b8ff" stroke="#63b8ff" points="1581.83,-160 1591.83,-156.5 1581.83,-153 1581.83,-160"/>
</a>
</g>
</g>
<!-- Node17 -->
<g id="Node000017" class="node">
<title>Node17</title>
<g id="a_Node000017"><a xlink:href="math__util_8c.html#a79fd07a0971ec96a3ff0801963a2fa7f" target="_top" xlink:title=" ">
<polygon fill="white" stroke="#666666" points="893,-141 829,-141 829,-122 893,-122 893,-141"/>
<text text-anchor="middle" x="861" y="-129" font-family="Helvetica,sans-Serif" font-size="10.00">vec3f_set</text>
</a>
</g>
</g>
<!-- Node16&#45;&gt;Node17 -->
<g id="edge16_Node000016_Node000017" class="edge">
<title>Node16&#45;&gt;Node17</title>
<g id="a_edge16_Node000016_Node000017"><a xlink:title=" ">
<path fill="none" stroke="#63b8ff" d="M730.7,-129.3C758.12,-129.76 792.46,-130.35 818.86,-130.8"/>
<polygon fill="#63b8ff" stroke="#63b8ff" points="818.86,-134.3 828.92,-130.97 818.98,-127.3 818.86,-134.3"/>
</a>
</g>
</g>
<!-- Node19 -->
<g id="Node000019" class="node">
<title>Node19</title>
<g id="a_Node000019"><a xlink:href="collision_8c.html#afce45acb8da354da0a5b501003be1aef" target="_top" xlink:title=" ">
<polygon fill="white" stroke="#666666" points="907.5,-104 814.5,-104 814.5,-85 907.5,-85 907.5,-104"/>
<text text-anchor="middle" x="861" y="-92" font-family="Helvetica,sans-Serif" font-size="10.00">func_802AAE4C</text>
</a>
</g>
</g>
<!-- Node18&#45;&gt;Node19 -->
<g id="edge18_Node000018_Node000019" class="edge">
<title>Node18&#45;&gt;Node19</title>
<g id="a_edge18_Node000018_Node000019"><a xlink:title=" ">
<path fill="none" stroke="#63b8ff" d="M730.7,-92.3C753.24,-92.68 780.44,-93.14 804.07,-93.55"/>
<polygon fill="#63b8ff" stroke="#63b8ff" points="804.24,-97.05 814.3,-93.72 804.36,-90.05 804.24,-97.05"/>
</a>
</g>
</g>
<!-- Node20 -->
<g id="Node000020" class="node">
<title>Node20</title>
<g id="a_Node000020"><a xlink:href="collision_8c.html#adcc608ea0eae3bf9a27ab79ec64b4899" target="_top" xlink:title=" ">
<polygon fill="white" stroke="#666666" points="907,-67 815,-67 815,-48 907,-48 907,-67"/>
<text text-anchor="middle" x="861" y="-55" font-family="Helvetica,sans-Serif" font-size="10.00">func_802AB288</text>
</a>
</g>
</g>
<!-- Node18&#45;&gt;Node20 -->
<g id="edge19_Node000018_Node000020" class="edge">
<title>Node18&#45;&gt;Node20</title>
<g id="a_edge19_Node000018_Node000020"><a xlink:title=" ">
<path fill="none" stroke="#63b8ff" d="M730.7,-82.48C753.51,-78.07 781.11,-72.74 804.95,-68.14"/>
<polygon fill="#63b8ff" stroke="#63b8ff" points="805.75,-71.54 814.9,-66.21 804.42,-64.67 805.75,-71.54"/>
</a>
</g>
</g>
<!-- Node21 -->
<g id="Node000021" class="node">
<title>Node21</title>
<g id="a_Node000021"><a xlink:href="collision_8c.html#ab440aa3fc960b7b4b5ad8e4bcaa06b00" target="_top" xlink:title=" ">
<polygon fill="white" stroke="#666666" points="907.5,-30 814.5,-30 814.5,-11 907.5,-11 907.5,-30"/>
<text text-anchor="middle" x="861" y="-18" font-family="Helvetica,sans-Serif" font-size="10.00">func_802AB6C4</text>
</a>
</g>
</g>
<!-- Node18&#45;&gt;Node21 -->
<g id="edge20_Node000018_Node000021" class="edge">
<title>Node18&#45;&gt;Node21</title>
<g id="a_edge20_Node000018_Node000021"><a xlink:title=" ">
<path fill="none" stroke="#63b8ff" d="M729.93,-81.92C736.55,-79.65 743.11,-76.88 749,-73.5 768.36,-62.4 765.45,-49.27 785,-38.5 790.99,-35.2 797.57,-32.5 804.28,-30.3"/>
<polygon fill="#63b8ff" stroke="#63b8ff" points="805.52,-33.58 814.13,-27.4 803.55,-26.86 805.52,-33.58"/>
</a>
</g>
</g>
<!-- Node24&#45;&gt;Node3 -->
<g id="edge24_Node000024_Node000003" class="edge">
<title>Node24&#45;&gt;Node3</title>
<g id="a_edge24_Node000024_Node000003"><a xlink:title=" ">
<path fill="none" stroke="#63b8ff" d="M419.61,-192.98C445.2,-180.23 490.8,-157.5 520.47,-142.72"/>
<polygon fill="#63b8ff" stroke="#63b8ff" points="522.1,-145.81 529.49,-138.22 518.98,-139.55 522.1,-145.81"/>
</a>
</g>
</g>
<!-- Node24&#45;&gt;Node6 -->
<g id="edge25_Node000024_Node000006" class="edge">
<title>Node24&#45;&gt;Node6</title>
<g id="a_edge25_Node000024_Node000006"><a xlink:title=" ">
<path fill="none" stroke="#63b8ff" d="M455.86,-212.03C553.34,-227.44 761.87,-254.3 937,-235.5 958.87,-233.15 982.77,-228.26 1002.73,-223.5"/>
<polygon fill="#63b8ff" stroke="#63b8ff" points="1003.6,-226.89 1012.48,-221.11 1001.94,-220.09 1003.6,-226.89"/>
</a>
</g>
</g>
<!-- Node24&#45;&gt;Node15 -->
<g id="edge26_Node000024_Node000015" class="edge">
<title>Node24&#45;&gt;Node15</title>
<g id="a_edge26_Node000024_Node000015"><a xlink:title=" ">
<path fill="none" stroke="#63b8ff" d="M483.18,-204.12C565.53,-205.73 691.37,-208.2 774.64,-209.83"/>
<polygon fill="#63b8ff" stroke="#63b8ff" points="774.77,-213.33 784.83,-210.03 774.9,-206.33 774.77,-213.33"/>
</a>
</g>
</g>
<!-- Node26 -->
<g id="Node000026" class="node">
<title>Node26</title>
<g id="a_Node000026"><a xlink:href="collision_8c.html#a9ec62ee67d55805a587752d82d66abd8" target="_top" xlink:title=" ">
<polygon fill="white" stroke="#666666" points="471,-37.5 328,-37.5 328,-7.5 471,-7.5 471,-37.5"/>
<text text-anchor="start" x="336" y="-25.5" font-family="Helvetica,sans-Serif" font-size="10.00">is_colliding_with_drivable</text>
<text text-anchor="middle" x="399.5" y="-14.5" font-family="Helvetica,sans-Serif" font-size="10.00">_surface</text>
</a>
</g>
</g>
<!-- Node25&#45;&gt;Node26 -->
<g id="edge28_Node000025_Node000026" class="edge">
<title>Node25&#45;&gt;Node26</title>
<g id="a_edge28_Node000025_Node000026"><a xlink:title=" ">
<path fill="none" stroke="#63b8ff" d="M250.76,-74.44C260.55,-71.98 270.73,-69 280,-65.5 296.93,-59.12 299.23,-53.28 316,-46.5 321.01,-44.47 326.26,-42.54 331.58,-40.71"/>
<polygon fill="#63b8ff" stroke="#63b8ff" points="332.78,-44 341.18,-37.54 330.59,-37.35 332.78,-44"/>
</a>
</g>
</g>
<!-- Node27 -->
<g id="Node000027" class="node">
<title>Node27</title>
<g id="a_Node000027"><a xlink:href="collision_8c.html#aa77fc5aaa5aa3a6f71ad00bc71b04788" target="_top" xlink:title=" ">
<polygon fill="white" stroke="#666666" points="464,-112 335,-112 335,-93 464,-93 464,-112"/>
<text text-anchor="middle" x="399.5" y="-100" font-family="Helvetica,sans-Serif" font-size="10.00">is_colliding_with_wall1</text>
</a>
</g>
</g>
<!-- Node25&#45;&gt;Node27 -->
<g id="edge29_Node000025_Node000027" class="edge">
<title>Node25&#45;&gt;Node27</title>
<g id="a_edge29_Node000025_Node000027"><a xlink:title=" ">
<path fill="none" stroke="#63b8ff" d="M250.86,-88C272.86,-90.16 299.77,-92.81 324.56,-95.24"/>
<polygon fill="#63b8ff" stroke="#63b8ff" points="324.38,-98.74 334.67,-96.23 325.06,-91.77 324.38,-98.74"/>
</a>
</g>
</g>
<!-- Node28 -->
<g id="Node000028" class="node">
<title>Node28</title>
<g id="a_Node000028"><a xlink:href="collision_8c.html#a728bd4102d2ed3ba18d68d39b707c0f4" target="_top" xlink:title=" ">
<polygon fill="white" stroke="#666666" points="464,-75 335,-75 335,-56 464,-56 464,-75"/>
<text text-anchor="middle" x="399.5" y="-63" font-family="Helvetica,sans-Serif" font-size="10.00">is_colliding_with_wall2</text>
</a>
</g>
</g>
<!-- Node25&#45;&gt;Node28 -->
<g id="edge30_Node000025_Node000028" class="edge">
<title>Node25&#45;&gt;Node28</title>
<g id="a_edge30_Node000025_Node000028"><a xlink:title=" ">
<path fill="none" stroke="#63b8ff" d="M250.86,-79.23C272.86,-77.19 299.77,-74.68 324.56,-72.38"/>
<polygon fill="#63b8ff" stroke="#63b8ff" points="325.04,-75.85 334.67,-71.44 324.39,-68.88 325.04,-75.85"/>
</a>
</g>
</g>
</g>
</svg>
