<?xml version="1.0" encoding="UTF-8" standalone="no"?>
<!DOCTYPE svg PUBLIC "-//W3C//DTD SVG 1.1//EN"
 "http://www.w3.org/Graphics/SVG/1.1/DTD/svg11.dtd">
<!-- Generated by graphviz version 2.43.0 (0)
 -->
<!-- Title: check_player_use_item Pages: 1 -->
<svg width="2123pt" height="554pt"
 viewBox="0.00 0.00 2123.00 554.00" xmlns="http://www.w3.org/2000/svg" xmlns:xlink="http://www.w3.org/1999/xlink">
<g id="graph0" class="graph" transform="scale(1 1) rotate(0) translate(4 550)">
<title>check_player_use_item</title>
<!-- Node1 -->
<g id="Node000001" class="node">
<title>Node1</title>
<g id="a_Node000001"><a xlink:title=" ">
<polygon fill="#999999" stroke="#666666" points="131,-263 0,-263 0,-244 131,-244 131,-263"/>
<text text-anchor="middle" x="65.5" y="-251" font-family="Helvetica,sans-Serif" font-size="10.00">check_player_use_item</text>
</a>
</g>
</g>
<!-- Node2 -->
<g id="Node000002" class="node">
<title>Node2</title>
<g id="a_Node000002"><a xlink:href="effects_8c.html#ad4fd77ec7fb9afc1df9146f9884b11df" target="_top" xlink:title=" ">
<polygon fill="white" stroke="#666666" points="308,-282 167,-282 167,-263 308,-263 308,-282"/>
<text text-anchor="middle" x="237.5" y="-270" font-family="Helvetica,sans-Serif" font-size="10.00">can_player_not_use_item</text>
</a>
</g>
</g>
<!-- Node1&#45;&gt;Node2 -->
<g id="edge1_Node000001_Node000002" class="edge">
<title>Node1&#45;&gt;Node2</title>
<g id="a_edge1_Node000001_Node000002"><a xlink:title=" ">
<path fill="none" stroke="#63b8ff" d="M131.25,-260.74C139.62,-261.67 148.26,-262.64 156.83,-263.6"/>
<polygon fill="#63b8ff" stroke="#63b8ff" points="156.5,-267.08 166.83,-264.71 157.28,-260.12 156.5,-267.08"/>
</a>
</g>
</g>
<!-- Node3 -->
<g id="Node000003" class="node">
<title>Node3</title>
<g id="a_Node000003"><a xlink:href="actors__extended_8c.html#a6c53567ce07da53daa086cb9b09076a1" target="_top" xlink:title=" ">
<polygon fill="white" stroke="#666666" points="286.5,-245 188.5,-245 188.5,-226 286.5,-226 286.5,-245"/>
<text text-anchor="middle" x="237.5" y="-233" font-family="Helvetica,sans-Serif" font-size="10.00">player_use_item</text>
</a>
</g>
</g>
<!-- Node1&#45;&gt;Node3 -->
<g id="edge2_Node000001_Node000003" class="edge">
<title>Node1&#45;&gt;Node3</title>
<g id="a_edge2_Node000001_Node000003"><a xlink:title=" ">
<path fill="none" stroke="#63b8ff" d="M131.25,-246.64C146.65,-245.01 163,-243.28 178.09,-241.68"/>
<polygon fill="#63b8ff" stroke="#63b8ff" points="178.74,-245.14 188.32,-240.6 178.01,-238.17 178.74,-245.14"/>
</a>
</g>
</g>
<!-- Node4 -->
<g id="Node000004" class="node">
<title>Node4</title>
<g id="a_Node000004"><a xlink:href="update__objects_8c.html#abe0750bafe0e01a419bd8a8ad6b59bd5" target="_top" xlink:title=" ">
<polygon fill="white" stroke="#666666" points="457,-453 368,-453 368,-434 457,-434 457,-453"/>
<text text-anchor="middle" x="412.5" y="-441" font-family="Helvetica,sans-Serif" font-size="10.00">consume_item</text>
</a>
</g>
</g>
<!-- Node3&#45;&gt;Node4 -->
<g id="edge3_Node000003_Node000004" class="edge">
<title>Node3&#45;&gt;Node4</title>
<g id="a_edge3_Node000003_Node000004"><a xlink:title=" ">
<path fill="none" stroke="#63b8ff" d="M286.68,-241.92C294.54,-244.75 302.04,-248.78 308,-254.5 346.04,-290.99 317.93,-321.69 344,-367.5 356.96,-390.28 377.6,-412.2 392.64,-426.6"/>
<polygon fill="#63b8ff" stroke="#63b8ff" points="390.64,-429.52 400.34,-433.78 395.42,-424.4 390.64,-429.52"/>
</a>
</g>
</g>
<!-- Node11 -->
<g id="Node000011" class="node">
<title>Node11</title>
<g id="a_Node000011"><a xlink:href="actors__extended_8c.html#a88021e28f51eed86867e22b5aae7e252" target="_top" xlink:title=" ">
<polygon fill="white" stroke="#666666" points="481,-321 344,-321 344,-302 481,-302 481,-321"/>
<text text-anchor="middle" x="412.5" y="-309" font-family="Helvetica,sans-Serif" font-size="10.00">use_banana_bunch_item</text>
</a>
</g>
</g>
<!-- Node3&#45;&gt;Node11 -->
<g id="edge11_Node000003_Node000011" class="edge">
<title>Node3&#45;&gt;Node11</title>
<g id="a_edge11_Node000003_Node000011"><a xlink:title=" ">
<path fill="none" stroke="#63b8ff" d="M285.31,-245C293.14,-247.51 300.99,-250.63 308,-254.5 327,-264.99 325.4,-276.31 344,-287.5 351.05,-291.74 358.95,-295.39 366.81,-298.47"/>
<polygon fill="#63b8ff" stroke="#63b8ff" points="365.71,-301.8 376.31,-301.96 368.12,-295.23 365.71,-301.8"/>
</a>
</g>
</g>
<!-- Node35 -->
<g id="Node000035" class="node">
<title>Node35</title>
<g id="a_Node000035"><a xlink:href="actors__extended_8c.html#a78ba9cbef20b4e33a02f2d21004e0194" target="_top" xlink:title=" ">
<polygon fill="white" stroke="#666666" points="635.5,-282 532.5,-282 532.5,-263 635.5,-263 635.5,-282"/>
<text text-anchor="middle" x="584" y="-270" font-family="Helvetica,sans-Serif" font-size="10.00">use_banana_item</text>
</a>
</g>
</g>
<!-- Node3&#45;&gt;Node35 -->
<g id="edge35_Node000003_Node000035" class="edge">
<title>Node3&#45;&gt;Node35</title>
<g id="a_edge35_Node000003_Node000035"><a xlink:title=" ">
<path fill="none" stroke="#63b8ff" d="M286.51,-242.24C304.52,-244.67 325.18,-247.35 344,-249.5 404.51,-256.42 473.8,-262.94 522.14,-267.25"/>
<polygon fill="#63b8ff" stroke="#63b8ff" points="521.85,-270.74 532.12,-268.14 522.47,-263.77 521.85,-270.74"/>
</a>
</g>
</g>
<!-- Node37 -->
<g id="Node000037" class="node">
<title>Node37</title>
<g id="a_Node000037"><a xlink:href="actors__extended_8c.html#a888a459fc74d16fe20cb3d8b3bbb8256" target="_top" xlink:title=" ">
<polygon fill="white" stroke="#666666" points="470.5,-169 354.5,-169 354.5,-150 470.5,-150 470.5,-169"/>
<text text-anchor="middle" x="412.5" y="-157" font-family="Helvetica,sans-Serif" font-size="10.00">use_blue_shell_item</text>
</a>
</g>
</g>
<!-- Node3&#45;&gt;Node37 -->
<g id="edge38_Node000003_Node000037" class="edge">
<title>Node3&#45;&gt;Node37</title>
<g id="a_edge38_Node000003_Node000037"><a xlink:title=" ">
<path fill="none" stroke="#63b8ff" d="M256.5,-225.83C277.26,-214.86 312.59,-196.77 344,-183.5 353.18,-179.62 363.23,-175.82 372.71,-172.42"/>
<polygon fill="#63b8ff" stroke="#63b8ff" points="374.04,-175.67 382.31,-169.05 371.72,-169.06 374.04,-175.67"/>
</a>
</g>
</g>
<!-- Node38 -->
<g id="Node000038" class="node">
<title>Node38</title>
<g id="a_Node000038"><a xlink:href="actors__extended_8c.html#abfd4761b52386597862e72451a1a3d1d" target="_top" xlink:title=" ">
<polygon fill="white" stroke="#666666" points="639.5,-170 528.5,-170 528.5,-151 639.5,-151 639.5,-170"/>
<text text-anchor="middle" x="584" y="-158" font-family="Helvetica,sans-Serif" font-size="10.00">use_red_shell_item</text>
</a>
</g>
</g>
<!-- Node3&#45;&gt;Node38 -->
<g id="edge55_Node000003_Node000038" class="edge">
<title>Node3&#45;&gt;Node38</title>
<g id="a_edge55_Node000003_Node000038"><a xlink:title=" ">
<path fill="none" stroke="#63b8ff" d="M245.3,-225.87C260.32,-205.57 298.61,-158.79 344,-141.5 411.73,-115.7 497.89,-133.79 546.07,-147.99"/>
<polygon fill="#63b8ff" stroke="#63b8ff" points="545.17,-151.38 555.76,-150.95 547.22,-144.68 545.17,-151.38"/>
</a>
</g>
</g>
<!-- Node44 -->
<g id="Node000044" class="node">
<title>Node44</title>
<g id="a_Node000044"><a xlink:href="actors__extended_8c.html#a8ac8961d38b45f457d0f27d5f782a464" target="_top" xlink:title=" ">
<polygon fill="white" stroke="#666666" points="651,-245 517,-245 517,-226 651,-226 651,-245"/>
<text text-anchor="middle" x="584" y="-233" font-family="Helvetica,sans-Serif" font-size="10.00">use_fake_itembox_item</text>
</a>
</g>
</g>
<!-- Node3&#45;&gt;Node44 -->
<g id="edge47_Node000003_Node000044" class="edge">
<title>Node3&#45;&gt;Node44</title>
<g id="a_edge47_Node000003_Node000044"><a xlink:title=" ">
<path fill="none" stroke="#63b8ff" d="M286.76,-235.5C343.83,-235.5 439.53,-235.5 506.67,-235.5"/>
<polygon fill="#63b8ff" stroke="#63b8ff" points="506.78,-239 516.78,-235.5 506.78,-232 506.78,-239"/>
</a>
</g>
</g>
<!-- Node45 -->
<g id="Node000045" class="node">
<title>Node45</title>
<g id="a_Node000045"><a xlink:href="actors__extended_8c.html#ae852368698f0c547d9b5a29d2a4d9712" target="_top" xlink:title=" ">
<polygon fill="white" stroke="#666666" points="645.5,-207 522.5,-207 522.5,-188 645.5,-188 645.5,-207"/>
<text text-anchor="middle" x="584" y="-195" font-family="Helvetica,sans-Serif" font-size="10.00">use_green_shell_item</text>
</a>
</g>
</g>
<!-- Node3&#45;&gt;Node45 -->
<g id="edge50_Node000003_Node000045" class="edge">
<title>Node3&#45;&gt;Node45</title>
<g id="a_edge50_Node000003_Node000045"><a xlink:title=" ">
<path fill="none" stroke="#63b8ff" d="M286.76,-230.18C345.42,-223.71 444.87,-212.74 512.2,-205.31"/>
<polygon fill="#63b8ff" stroke="#63b8ff" points="512.75,-208.77 522.3,-204.2 511.98,-201.81 512.75,-208.77"/>
</a>
</g>
</g>
<!-- Node46 -->
<g id="Node000046" class="node">
<title>Node46</title>
<g id="a_Node000046"><a xlink:href="actors__extended_8c.html#a58a90bceb7852ff16b389f2bba53817f" target="_top" xlink:title=" ">
<polygon fill="white" stroke="#666666" points="464.5,-93 360.5,-93 360.5,-74 464.5,-74 464.5,-93"/>
<text text-anchor="middle" x="412.5" y="-81" font-family="Helvetica,sans-Serif" font-size="10.00">use_thunder_item</text>
</a>
</g>
</g>
<!-- Node3&#45;&gt;Node46 -->
<g id="edge56_Node000003_Node000046" class="edge">
<title>Node3&#45;&gt;Node46</title>
<g id="a_edge56_Node000003_Node000046"><a xlink:title=" ">
<path fill="none" stroke="#63b8ff" d="M243.84,-225.98C257.47,-202.48 295.9,-141.23 344,-107.5 350.02,-103.28 356.86,-99.73 363.82,-96.76"/>
<polygon fill="#63b8ff" stroke="#63b8ff" points="365.27,-99.95 373.32,-93.07 362.73,-93.43 365.27,-99.95"/>
</a>
</g>
</g>
<!-- Node53 -->
<g id="Node000053" class="node">
<title>Node53</title>
<g id="a_Node000053"><a xlink:href="actors__extended_8c.html#a47255ea9aa07316c48b95fd7a97ac40d" target="_top" xlink:title=" ">
<polygon fill="white" stroke="#666666" points="473,-358 352,-358 352,-339 473,-339 473,-358"/>
<text text-anchor="middle" x="412.5" y="-346" font-family="Helvetica,sans-Serif" font-size="10.00">use_triple_shell_item</text>
</a>
</g>
</g>
<!-- Node3&#45;&gt;Node53 -->
<g id="edge64_Node000003_Node000053" class="edge">
<title>Node3&#45;&gt;Node53</title>
<g id="a_edge64_Node000003_Node000053"><a xlink:title=" ">
<path fill="none" stroke="#63b8ff" d="M286.79,-242.85C294.45,-245.6 301.86,-249.36 308,-254.5 336.64,-278.51 315.28,-306.58 344,-330.5 345.54,-331.78 347.16,-332.97 348.84,-334.08"/>
<polygon fill="#63b8ff" stroke="#63b8ff" points="347.28,-337.21 357.73,-338.94 350.64,-331.07 347.28,-337.21"/>
</a>
</g>
</g>
<!-- Node5 -->
<g id="Node000005" class="node">
<title>Node5</title>
<g id="a_Node000005"><a xlink:href="update__objects_8c.html#a2c88cc32dff07c6af5fe74d00b9fa279" target="_top" xlink:title=" ">
<polygon fill="white" stroke="#666666" points="630,-396 538,-396 538,-377 630,-377 630,-396"/>
<text text-anchor="middle" x="584" y="-384" font-family="Helvetica,sans-Serif" font-size="10.00">func_800722A4</text>
</a>
</g>
</g>
<!-- Node4&#45;&gt;Node5 -->
<g id="edge4_Node000004_Node000005" class="edge">
<title>Node4&#45;&gt;Node5</title>
<g id="a_edge4_Node000004_Node000005"><a xlink:title=" ">
<path fill="none" stroke="#63b8ff" d="M441.87,-433.96C470.1,-424.47 513.61,-409.83 544.86,-399.33"/>
<polygon fill="#63b8ff" stroke="#63b8ff" points="546.17,-402.58 554.54,-396.07 543.94,-395.94 546.17,-402.58"/>
</a>
</g>
</g>
<!-- Node6 -->
<g id="Node000006" class="node">
<title>Node6</title>
<g id="a_Node000006"><a xlink:href="update__objects_8c.html#aaece45bd6baf5aaf797c872a6e105604" target="_top" xlink:title=" ">
<polygon fill="white" stroke="#666666" points="630,-546 538,-546 538,-527 630,-527 630,-546"/>
<text text-anchor="middle" x="584" y="-534" font-family="Helvetica,sans-Serif" font-size="10.00">func_800722CC</text>
</a>
</g>
</g>
<!-- Node4&#45;&gt;Node6 -->
<g id="edge5_Node000004_Node000006" class="edge">
<title>Node4&#45;&gt;Node6</title>
<g id="a_edge5_Node000004_Node000006"><a xlink:title=" ">
<path fill="none" stroke="#63b8ff" d="M423.85,-453C441.6,-468.82 479.57,-500.58 517,-518.5 521.03,-520.43 525.29,-522.18 529.64,-523.76"/>
<polygon fill="#63b8ff" stroke="#63b8ff" points="528.64,-527.12 539.23,-526.96 530.85,-520.48 528.64,-527.12"/>
</a>
</g>
</g>
<!-- Node7 -->
<g id="Node000007" class="node">
<title>Node7</title>
<g id="a_Node000007"><a xlink:href="update__objects_8c.html#ab7e91b1ebcbec57dfed6e185a2f67580" target="_top" xlink:title=" ">
<polygon fill="white" stroke="#666666" points="629.5,-509 538.5,-509 538.5,-490 629.5,-490 629.5,-509"/>
<text text-anchor="middle" x="584" y="-497" font-family="Helvetica,sans-Serif" font-size="10.00">func_80072354</text>
</a>
</g>
</g>
<!-- Node4&#45;&gt;Node7 -->
<g id="edge6_Node000004_Node000007" class="edge">
<title>Node4&#45;&gt;Node7</title>
<g id="a_edge6_Node000004_Node000007"><a xlink:title=" ">
<path fill="none" stroke="#63b8ff" d="M437.97,-453.16C458.82,-461.22 489.65,-472.77 517,-481.5 523.09,-483.44 529.53,-485.37 535.92,-487.19"/>
<polygon fill="#63b8ff" stroke="#63b8ff" points="535.26,-490.64 545.83,-489.96 537.15,-483.9 535.26,-490.64"/>
</a>
</g>
</g>
<!-- Node8 -->
<g id="Node000008" class="node">
<title>Node8</title>
<g id="a_Node000008"><a xlink:href="update__objects_8c.html#a6433786e30fbe8c3dc83f83c9f2c35f9" target="_top" xlink:title=" ">
<polygon fill="white" stroke="#666666" points="630,-472 538,-472 538,-453 630,-453 630,-472"/>
<text text-anchor="middle" x="584" y="-460" font-family="Helvetica,sans-Serif" font-size="10.00">func_800726CC</text>
</a>
</g>
</g>
<!-- Node4&#45;&gt;Node8 -->
<g id="edge7_Node000004_Node000008" class="edge">
<title>Node4&#45;&gt;Node8</title>
<g id="a_edge7_Node000004_Node000008"><a xlink:title=" ">
<path fill="none" stroke="#63b8ff" d="M457.15,-448.39C478.59,-450.8 504.65,-453.72 527.49,-456.28"/>
<polygon fill="#63b8ff" stroke="#63b8ff" points="527.4,-459.79 537.72,-457.42 528.18,-452.83 527.4,-459.79"/>
</a>
</g>
</g>
<!-- Node10 -->
<g id="Node000010" class="node">
<title>Node10</title>
<g id="a_Node000010"><a xlink:href="update__objects_8c.html#a4b4f00a7df0f9bc44914cd922c3cd51b" target="_top" xlink:title=" ">
<polygon fill="white" stroke="#666666" points="820.5,-434 705.5,-434 705.5,-415 820.5,-415 820.5,-434"/>
<text text-anchor="middle" x="763" y="-422" font-family="Helvetica,sans-Serif" font-size="10.00">set_object_unk_0CB</text>
</a>
</g>
</g>
<!-- Node4&#45;&gt;Node10 -->
<g id="edge10_Node000004_Node000010" class="edge">
<title>Node4&#45;&gt;Node10</title>
<g id="a_edge10_Node000004_Node000010"><a xlink:title=" ">
<path fill="none" stroke="#63b8ff" d="M457.28,-441.11C517.22,-437.85 625.36,-431.95 695.38,-428.13"/>
<polygon fill="#63b8ff" stroke="#63b8ff" points="695.63,-431.62 705.42,-427.58 695.24,-424.63 695.63,-431.62"/>
</a>
</g>
</g>
<!-- Node9 -->
<g id="Node000009" class="node">
<title>Node9</title>
<g id="a_Node000009"><a xlink:href="update__objects_8c.html#ad33541b9fed7857e59b2d745298f2d44" target="_top" xlink:title=" ">
<polygon fill="white" stroke="#666666" points="825.5,-482.5 700.5,-482.5 700.5,-452.5 825.5,-452.5 825.5,-482.5"/>
<text text-anchor="start" x="708.5" y="-470.5" font-family="Helvetica,sans-Serif" font-size="10.00">set_object_flag_status</text>
<text text-anchor="middle" x="763" y="-459.5" font-family="Helvetica,sans-Serif" font-size="10.00">_false</text>
</a>
</g>
</g>
<!-- Node8&#45;&gt;Node9 -->
<g id="edge8_Node000008_Node000009" class="edge">
<title>Node8&#45;&gt;Node9</title>
<g id="a_edge8_Node000008_Node000009"><a xlink:title=" ">
<path fill="none" stroke="#63b8ff" d="M630.12,-463.77C648.35,-464.29 669.83,-464.9 690.11,-465.47"/>
<polygon fill="#63b8ff" stroke="#63b8ff" points="690.17,-468.97 700.26,-465.76 690.37,-461.97 690.17,-468.97"/>
</a>
</g>
</g>
<!-- Node8&#45;&gt;Node10 -->
<g id="edge9_Node000008_Node000010" class="edge">
<title>Node8&#45;&gt;Node10</title>
<g id="a_edge9_Node000008_Node000010"><a xlink:title=" ">
<path fill="none" stroke="#63b8ff" d="M629.66,-452.91C653.34,-447.83 682.61,-441.54 707.6,-436.18"/>
<polygon fill="#63b8ff" stroke="#63b8ff" points="708.61,-439.54 717.66,-434.02 707.14,-432.7 708.61,-439.54"/>
</a>
</g>
</g>
<!-- Node12 -->
<g id="Node000012" class="node">
<title>Node12</title>
<g id="a_Node000012"><a xlink:href="actors_8c.html#a91fb2e4e37e7c72fea918fe2c1bb4eaf" target="_top" xlink:title=" ">
<polygon fill="white" stroke="#666666" points="833,-282 693,-282 693,-263 833,-263 833,-282"/>
<text text-anchor="middle" x="763" y="-270" font-family="Helvetica,sans-Serif" font-size="10.00">add_actor_to_empty_slot</text>
</a>
</g>
</g>
<!-- Node11&#45;&gt;Node12 -->
<g id="edge12_Node000011_Node000012" class="edge">
<title>Node11&#45;&gt;Node12</title>
<g id="a_edge12_Node000011_Node000012"><a xlink:title=" ">
<path fill="none" stroke="#63b8ff" d="M481.23,-307.34C528.83,-304.04 593.95,-298.77 651,-291.5 667.54,-289.39 685.38,-286.58 701.82,-283.77"/>
<polygon fill="#63b8ff" stroke="#63b8ff" points="702.6,-287.18 711.85,-282.02 701.4,-280.29 702.6,-287.18"/>
</a>
</g>
</g>
<!-- Node13 -->
<g id="Node000013" class="node">
<title>Node13</title>
<g id="a_Node000013"><a xlink:href="actors_8c.html#a39c023177b5a7686cdd1fc65b8b953e1" target="_top" xlink:title=" ">
<polygon fill="white" stroke="#666666" points="1140,-270 1078,-270 1078,-251 1140,-251 1140,-270"/>
<text text-anchor="middle" x="1109" y="-258" font-family="Helvetica,sans-Serif" font-size="10.00">actor_init</text>
</a>
</g>
</g>
<!-- Node12&#45;&gt;Node13 -->
<g id="edge13_Node000012_Node000013" class="edge">
<title>Node12&#45;&gt;Node13</title>
<g id="a_edge13_Node000012_Node000013"><a xlink:title=" ">
<path fill="none" stroke="#63b8ff" d="M833.2,-270.09C903.57,-267.63 1010.21,-263.91 1067.76,-261.9"/>
<polygon fill="#63b8ff" stroke="#63b8ff" points="1068.05,-265.4 1077.92,-261.55 1067.8,-258.4 1068.05,-265.4"/>
</a>
</g>
</g>
<!-- Node34 -->
<g id="Node000034" class="node">
<title>Node34</title>
<g id="a_Node000034"><a xlink:href="actors_8c.html#adf454481afb7fd833f5ce3f01dea4bea" target="_top" xlink:title=" ">
<polygon fill="white" stroke="#666666" points="1042,-344 875,-344 875,-325 1042,-325 1042,-344"/>
<text text-anchor="middle" x="958.5" y="-332" font-family="Helvetica,sans-Serif" font-size="10.00">try_remove_destructable_item</text>
</a>
</g>
</g>
<!-- Node12&#45;&gt;Node34 -->
<g id="edge31_Node000012_Node000034" class="edge">
<title>Node12&#45;&gt;Node34</title>
<g id="a_edge31_Node000012_Node000034"><a xlink:title=" ">
<path fill="none" stroke="#63b8ff" d="M793.81,-282.05C827.05,-292.7 880.96,-309.98 917.76,-321.77"/>
<polygon fill="#63b8ff" stroke="#63b8ff" points="917.06,-325.22 927.66,-324.94 919.2,-318.55 917.06,-325.22"/>
</a>
</g>
</g>
<!-- Node14 -->
<g id="Node000014" class="node">
<title>Node14</title>
<g id="a_Node000014"><a xlink:href="actors_8c.html#a1a9bccb586242555a9123ebd4ab70f2a" target="_top" xlink:title=" ">
<polygon fill="white" stroke="#666666" points="1308,-318.5 1176,-318.5 1176,-288.5 1308,-288.5 1308,-318.5"/>
<text text-anchor="start" x="1184" y="-306.5" font-family="Helvetica,sans-Serif" font-size="10.00">cleanup_red_and_green</text>
<text text-anchor="middle" x="1242" y="-295.5" font-family="Helvetica,sans-Serif" font-size="10.00">_shells</text>
</a>
</g>
</g>
<!-- Node13&#45;&gt;Node14 -->
<g id="edge14_Node000013_Node000014" class="edge">
<title>Node13&#45;&gt;Node14</title>
<g id="a_edge14_Node000013_Node000014"><a xlink:title=" ">
<path fill="none" stroke="#63b8ff" d="M1139.07,-270.04C1152.74,-274.53 1169.52,-280.04 1185.48,-285.28"/>
<polygon fill="#63b8ff" stroke="#63b8ff" points="1184.69,-288.7 1195.28,-288.49 1186.87,-282.05 1184.69,-288.7"/>
</a>
</g>
</g>
<!-- Node26 -->
<g id="Node000026" class="node">
<title>Node26</title>
<g id="a_Node000026"><a xlink:href="collision_8c.html#ad72fef3ffe32191d73b1822f512ebf3f" target="_top" xlink:title=" ">
<polygon fill="white" stroke="#666666" points="1289.5,-196 1194.5,-196 1194.5,-177 1289.5,-177 1289.5,-196"/>
<text text-anchor="middle" x="1242" y="-184" font-family="Helvetica,sans-Serif" font-size="10.00">func_802AAAAC</text>
</a>
</g>
</g>
<!-- Node13&#45;&gt;Node26 -->
<g id="edge23_Node000013_Node000026" class="edge">
<title>Node13&#45;&gt;Node26</title>
<g id="a_edge23_Node000013_Node000026"><a xlink:title=" ">
<path fill="none" stroke="#63b8ff" d="M1118.93,-250.94C1130.84,-238.73 1153.1,-217.7 1176,-205.5 1180.19,-203.27 1184.67,-201.27 1189.26,-199.48"/>
<polygon fill="#63b8ff" stroke="#63b8ff" points="1190.49,-202.76 1198.74,-196.11 1188.14,-196.16 1190.49,-202.76"/>
</a>
</g>
</g>
<!-- Node28 -->
<g id="Node000028" class="node">
<title>Node28</title>
<g id="a_Node000028"><a xlink:href="collision_8c.html#a365367628b7140a7a880beeecce9c305" target="_top" xlink:title=" ">
<polygon fill="white" stroke="#666666" points="1289.5,-150 1194.5,-150 1194.5,-131 1289.5,-131 1289.5,-150"/>
<text text-anchor="middle" x="1242" y="-138" font-family="Helvetica,sans-Serif" font-size="10.00">func_802ADDC8</text>
</a>
</g>
</g>
<!-- Node13&#45;&gt;Node28 -->
<g id="edge25_Node000013_Node000028" class="edge">
<title>Node13&#45;&gt;Node28</title>
<g id="a_edge25_Node000013_Node000028"><a xlink:title=" ">
<path fill="none" stroke="#63b8ff" d="M1114.65,-250.85C1123.94,-232.5 1146.44,-192.29 1176,-168.5 1183.16,-162.74 1191.69,-157.95 1200.18,-154.06"/>
<polygon fill="#63b8ff" stroke="#63b8ff" points="1201.82,-157.17 1209.67,-150.05 1199.09,-150.72 1201.82,-157.17"/>
</a>
</g>
</g>
<!-- Node32 -->
<g id="Node000032" class="node">
<title>Node32</title>
<g id="a_Node000032"><a xlink:href="math__util_8c.html#af7b470ed76fce07b8042a47c96e5690b" target="_top" xlink:title=" ">
<polygon fill="white" stroke="#666666" points="1295.5,-270 1188.5,-270 1188.5,-251 1295.5,-251 1295.5,-270"/>
<text text-anchor="middle" x="1242" y="-258" font-family="Helvetica,sans-Serif" font-size="10.00">vec3f_copy_return</text>
</a>
</g>
</g>
<!-- Node13&#45;&gt;Node32 -->
<g id="edge29_Node000013_Node000032" class="edge">
<title>Node13&#45;&gt;Node32</title>
<g id="a_edge29_Node000013_Node000032"><a xlink:title=" ">
<path fill="none" stroke="#63b8ff" d="M1140.05,-260.5C1151.49,-260.5 1164.99,-260.5 1178.33,-260.5"/>
<polygon fill="#63b8ff" stroke="#63b8ff" points="1178.47,-264 1188.47,-260.5 1178.47,-257 1178.47,-264"/>
</a>
</g>
</g>
<!-- Node33 -->
<g id="Node000033" class="node">
<title>Node33</title>
<g id="a_Node000033"><a xlink:href="math__util_8c.html#a0e270ee67600c8c9c2f140c647d008a1" target="_top" xlink:title=" ">
<polygon fill="white" stroke="#666666" points="1279,-233 1205,-233 1205,-214 1279,-214 1279,-233"/>
<text text-anchor="middle" x="1242" y="-221" font-family="Helvetica,sans-Serif" font-size="10.00">vec3s_copy</text>
</a>
</g>
</g>
<!-- Node13&#45;&gt;Node33 -->
<g id="edge30_Node000013_Node000033" class="edge">
<title>Node13&#45;&gt;Node33</title>
<g id="a_edge30_Node000013_Node000033"><a xlink:title=" ">
<path fill="none" stroke="#63b8ff" d="M1140.05,-252.01C1156.96,-247.24 1178.37,-241.19 1197.12,-235.89"/>
<polygon fill="#63b8ff" stroke="#63b8ff" points="1198.26,-239.21 1206.93,-233.12 1196.35,-232.47 1198.26,-239.21"/>
</a>
</g>
</g>
<!-- Node15 -->
<g id="Node000015" class="node">
<title>Node15</title>
<g id="a_Node000015"><a xlink:href="actors_8c.html#a694ec6ef7548b8618aeb35c038d3a9b9" target="_top" xlink:title=" ">
<polygon fill="white" stroke="#666666" points="1461.5,-310 1378.5,-310 1378.5,-291 1461.5,-291 1461.5,-310"/>
<text text-anchor="middle" x="1420" y="-298" font-family="Helvetica,sans-Serif" font-size="10.00">destroy_actor</text>
</a>
</g>
</g>
<!-- Node14&#45;&gt;Node15 -->
<g id="edge15_Node000014_Node000015" class="edge">
<title>Node14&#45;&gt;Node15</title>
<g id="a_edge15_Node000014_Node000015"><a xlink:title=" ">
<path fill="none" stroke="#63b8ff" d="M1308.04,-302.39C1327.95,-302.05 1349.55,-301.68 1368.35,-301.36"/>
<polygon fill="#63b8ff" stroke="#63b8ff" points="1368.54,-304.86 1378.48,-301.19 1368.42,-297.86 1368.54,-304.86"/>
</a>
</g>
</g>
<!-- Node25 -->
<g id="Node000025" class="node">
<title>Node25</title>
<g id="a_Node000025"><a xlink:href="code__80005FD0_8c.html#acb7b3d384c78d219f4b7040e78f6a2f2" target="_top" xlink:title=" ">
<polygon fill="white" stroke="#666666" points="1496,-358.5 1344,-358.5 1344,-328.5 1496,-328.5 1496,-358.5"/>
<text text-anchor="start" x="1352" y="-346.5" font-family="Helvetica,sans-Serif" font-size="10.00">remove_actor_in_unexpired</text>
<text text-anchor="middle" x="1420" y="-335.5" font-family="Helvetica,sans-Serif" font-size="10.00">_actor_list</text>
</a>
</g>
</g>
<!-- Node14&#45;&gt;Node25 -->
<g id="edge22_Node000014_Node000025" class="edge">
<title>Node14&#45;&gt;Node25</title>
<g id="a_edge22_Node000014_Node000025"><a xlink:title=" ">
<path fill="none" stroke="#63b8ff" d="M1308.04,-318.28C1319.32,-320.85 1331.15,-323.53 1342.7,-326.16"/>
<polygon fill="#63b8ff" stroke="#63b8ff" points="1342.23,-329.64 1352.76,-328.45 1343.79,-322.82 1342.23,-329.64"/>
</a>
</g>
</g>
<!-- Node16 -->
<g id="Node000016" class="node">
<title>Node16</title>
<g id="a_Node000016"><a xlink:href="actors_8c.html#ad5a56c8f7eaf719223099cce9e38ec9f" target="_top" xlink:title=" ">
<polygon fill="white" stroke="#666666" points="1683,-353 1532,-353 1532,-334 1683,-334 1683,-353"/>
<text text-anchor="middle" x="1607.5" y="-341" font-family="Helvetica,sans-Serif" font-size="10.00">play_sound_before_destroy</text>
</a>
</g>
</g>
<!-- Node15&#45;&gt;Node16 -->
<g id="edge16_Node000015_Node000016" class="edge">
<title>Node15&#45;&gt;Node16</title>
<g id="a_edge16_Node000015_Node000016"><a xlink:title=" ">
<path fill="none" stroke="#63b8ff" d="M1461.71,-309.94C1489.18,-316.31 1525.67,-324.76 1555.14,-331.59"/>
<polygon fill="#63b8ff" stroke="#63b8ff" points="1554.71,-335.09 1565.25,-333.94 1556.29,-328.27 1554.71,-335.09"/>
</a>
</g>
</g>
<!-- Node17 -->
<g id="Node000017" class="node">
<title>Node17</title>
<g id="a_Node000017"><a xlink:href="external_8c.html#ae72057869772019e4464c87d4e16c682" target="_top" xlink:title=" ">
<polygon fill="white" stroke="#666666" points="1811,-353 1719,-353 1719,-334 1811,-334 1811,-353"/>
<text text-anchor="middle" x="1765" y="-341" font-family="Helvetica,sans-Serif" font-size="10.00">func_800C99E0</text>
</a>
</g>
</g>
<!-- Node16&#45;&gt;Node17 -->
<g id="edge17_Node000016_Node000017" class="edge">
<title>Node16&#45;&gt;Node17</title>
<g id="a_edge17_Node000016_Node000017"><a xlink:title=" ">
<path fill="none" stroke="#63b8ff" d="M1683.06,-343.5C1691.61,-343.5 1700.21,-343.5 1708.45,-343.5"/>
<polygon fill="#63b8ff" stroke="#63b8ff" points="1708.66,-347 1718.66,-343.5 1708.66,-340 1708.66,-347"/>
</a>
</g>
</g>
<!-- Node18 -->
<g id="Node000018" class="node">
<title>Node18</title>
<g id="a_Node000018"><a xlink:href="external_8c.html#aeb87c527482a244173df36a1f3d4f446" target="_top" xlink:title=" ">
<polygon fill="white" stroke="#666666" points="1939,-372 1847,-372 1847,-353 1939,-353 1939,-372"/>
<text text-anchor="middle" x="1893" y="-360" font-family="Helvetica,sans-Serif" font-size="10.00">func_800C21E8</text>
</a>
</g>
</g>
<!-- Node17&#45;&gt;Node18 -->
<g id="edge18_Node000017_Node000018" class="edge">
<title>Node17&#45;&gt;Node18</title>
<g id="a_edge18_Node000017_Node000018"><a xlink:title=" ">
<path fill="none" stroke="#63b8ff" d="M1811.13,-350.31C1819.46,-351.56 1828.23,-352.88 1836.81,-354.18"/>
<polygon fill="#63b8ff" stroke="#63b8ff" points="1836.35,-357.65 1846.76,-355.68 1837.39,-350.73 1836.35,-357.65"/>
</a>
</g>
</g>
<!-- Node19 -->
<g id="Node000019" class="node">
<title>Node19</title>
<g id="a_Node000019"><a xlink:href="external_8c.html#a028d40421b90c38f68ebfd5acc626f2e" target="_top" xlink:title=" ">
<polygon fill="#fff0f0" stroke="red" points="1939,-335 1847,-335 1847,-316 1939,-316 1939,-335"/>
<text text-anchor="middle" x="1893" y="-323" font-family="Helvetica,sans-Serif" font-size="10.00">func_800C5578</text>
</a>
</g>
</g>
<!-- Node17&#45;&gt;Node19 -->
<g id="edge19_Node000017_Node000019" class="edge">
<title>Node17&#45;&gt;Node19</title>
<g id="a_edge19_Node000017_Node000019"><a xlink:title=" ">
<path fill="none" stroke="#63b8ff" d="M1811.13,-337.05C1819.46,-335.86 1828.23,-334.61 1836.81,-333.38"/>
<polygon fill="#63b8ff" stroke="#63b8ff" points="1837.35,-336.84 1846.76,-331.96 1836.36,-329.91 1837.35,-336.84"/>
</a>
</g>
</g>
<!-- Node20 -->
<g id="Node000020" class="node">
<title>Node20</title>
<g id="a_Node000020"><a xlink:href="external_8c.html#ac0fb767de7e14a03f1bcfa53f0abd23b" target="_top" xlink:title=" ">
<polygon fill="#fff0f0" stroke="red" points="2115,-354 1975,-354 1975,-335 2115,-335 2115,-354"/>
<text text-anchor="middle" x="2045" y="-342" font-family="Helvetica,sans-Serif" font-size="10.00">delete_sound_from_bank</text>
</a>
</g>
</g>
<!-- Node19&#45;&gt;Node20 -->
<g id="edge20_Node000019_Node000020" class="edge">
<title>Node19&#45;&gt;Node20</title>
<g id="a_edge20_Node000019_Node000020"><a xlink:title=" ">
<path fill="none" stroke="#63b8ff" d="M1939,-331.2C1947.22,-332.24 1956.01,-333.35 1964.87,-334.48"/>
<polygon fill="#63b8ff" stroke="#63b8ff" points="1964.53,-337.96 1974.89,-335.75 1965.41,-331.02 1964.53,-337.96"/>
</a>
</g>
</g>
<!-- Node22 -->
<g id="Node000022" class="node">
<title>Node22</title>
<g id="a_Node000022"><a xlink:href="external_8c.html#ab83bd36e63f0f1baddcb2482b5ad31b0" target="_top" xlink:title=" ">
<polygon fill="white" stroke="#666666" points="2091.5,-317 1998.5,-317 1998.5,-298 2091.5,-298 2091.5,-317"/>
<text text-anchor="middle" x="2045" y="-305" font-family="Helvetica,sans-Serif" font-size="10.00">func_800C41CC</text>
</a>
</g>
</g>
<!-- Node19&#45;&gt;Node22 -->
<g id="edge21_Node000019_Node000022" class="edge">
<title>Node19&#45;&gt;Node22</title>
<g id="a_edge21_Node000019_Node000022"><a xlink:title=" ">
<path fill="none" stroke="#63b8ff" d="M1939,-320.1C1954.37,-318.26 1971.74,-316.17 1987.86,-314.24"/>
<polygon fill="#63b8ff" stroke="#63b8ff" points="1988.74,-317.66 1998.25,-312.99 1987.9,-310.71 1988.74,-317.66"/>
</a>
</g>
</g>
<!-- Node27 -->
<g id="Node000027" class="node">
<title>Node27</title>
<g id="a_Node000027"><a xlink:href="math__util_8c.html#a79fd07a0971ec96a3ff0801963a2fa7f" target="_top" xlink:title=" ">
<polygon fill="white" stroke="#666666" points="1452,-206 1388,-206 1388,-187 1452,-187 1452,-206"/>
<text text-anchor="middle" x="1420" y="-194" font-family="Helvetica,sans-Serif" font-size="10.00">vec3f_set</text>
</a>
</g>
</g>
<!-- Node26&#45;&gt;Node27 -->
<g id="edge24_Node000026_Node000027" class="edge">
<title>Node26&#45;&gt;Node27</title>
<g id="a_edge24_Node000026_Node000027"><a xlink:title=" ">
<path fill="none" stroke="#63b8ff" d="M1289.7,-189.15C1317.12,-190.71 1351.46,-192.66 1377.86,-194.16"/>
<polygon fill="#63b8ff" stroke="#63b8ff" points="1377.73,-197.66 1387.92,-194.73 1378.13,-190.67 1377.73,-197.66"/>
</a>
</g>
</g>
<!-- Node29 -->
<g id="Node000029" class="node">
<title>Node29</title>
<g id="a_Node000029"><a xlink:href="collision_8c.html#afce45acb8da354da0a5b501003be1aef" target="_top" xlink:title=" ">
<polygon fill="white" stroke="#666666" points="1466.5,-169 1373.5,-169 1373.5,-150 1466.5,-150 1466.5,-169"/>
<text text-anchor="middle" x="1420" y="-157" font-family="Helvetica,sans-Serif" font-size="10.00">func_802AAE4C</text>
</a>
</g>
</g>
<!-- Node28&#45;&gt;Node29 -->
<g id="edge26_Node000028_Node000029" class="edge">
<title>Node28&#45;&gt;Node29</title>
<g id="a_edge26_Node000028_Node000029"><a xlink:title=" ">
<path fill="none" stroke="#63b8ff" d="M1289.7,-145.54C1312.24,-147.97 1339.44,-150.91 1363.07,-153.46"/>
<polygon fill="#63b8ff" stroke="#63b8ff" points="1362.98,-156.97 1373.3,-154.57 1363.73,-150.01 1362.98,-156.97"/>
</a>
</g>
</g>
<!-- Node30 -->
<g id="Node000030" class="node">
<title>Node30</title>
<g id="a_Node000030"><a xlink:href="collision_8c.html#adcc608ea0eae3bf9a27ab79ec64b4899" target="_top" xlink:title=" ">
<polygon fill="white" stroke="#666666" points="1466,-132 1374,-132 1374,-113 1466,-113 1466,-132"/>
<text text-anchor="middle" x="1420" y="-120" font-family="Helvetica,sans-Serif" font-size="10.00">func_802AB288</text>
</a>
</g>
</g>
<!-- Node28&#45;&gt;Node30 -->
<g id="edge27_Node000028_Node000030" class="edge">
<title>Node28&#45;&gt;Node30</title>
<g id="a_edge27_Node000028_Node000030"><a xlink:title=" ">
<path fill="none" stroke="#63b8ff" d="M1289.7,-135.72C1312.51,-133.39 1340.11,-130.57 1363.95,-128.13"/>
<polygon fill="#63b8ff" stroke="#63b8ff" points="1364.31,-131.61 1373.9,-127.11 1363.6,-124.65 1364.31,-131.61"/>
</a>
</g>
</g>
<!-- Node31 -->
<g id="Node000031" class="node">
<title>Node31</title>
<g id="a_Node000031"><a xlink:href="collision_8c.html#ab440aa3fc960b7b4b5ad8e4bcaa06b00" target="_top" xlink:title=" ">
<polygon fill="white" stroke="#666666" points="1466.5,-95 1373.5,-95 1373.5,-76 1466.5,-76 1466.5,-95"/>
<text text-anchor="middle" x="1420" y="-83" font-family="Helvetica,sans-Serif" font-size="10.00">func_802AB6C4</text>
</a>
</g>
</g>
<!-- Node28&#45;&gt;Node31 -->
<g id="edge28_Node000028_Node000031" class="edge">
<title>Node28&#45;&gt;Node31</title>
<g id="a_edge28_Node000028_Node000031"><a xlink:title=" ">
<path fill="none" stroke="#63b8ff" d="M1267.69,-130.96C1288,-123.3 1317.64,-112.52 1344,-104.5 1351.86,-102.11 1360.24,-99.78 1368.45,-97.61"/>
<polygon fill="#63b8ff" stroke="#63b8ff" points="1369.52,-100.95 1378.33,-95.06 1367.77,-94.17 1369.52,-100.95"/>
</a>
</g>
</g>
<!-- Node34&#45;&gt;Node13 -->
<g id="edge32_Node000034_Node000013" class="edge">
<title>Node34&#45;&gt;Node13</title>
<g id="a_edge32_Node000034_Node000013"><a xlink:title=" ">
<path fill="none" stroke="#63b8ff" d="M978.61,-324.98C1004.2,-312.23 1049.8,-289.5 1079.47,-274.72"/>
<polygon fill="#63b8ff" stroke="#63b8ff" points="1081.1,-277.81 1088.49,-270.22 1077.98,-271.55 1081.1,-277.81"/>
</a>
</g>
</g>
<!-- Node34&#45;&gt;Node16 -->
<g id="edge33_Node000034_Node000016" class="edge">
<title>Node34&#45;&gt;Node16</title>
<g id="a_edge33_Node000034_Node000016"><a xlink:title=" ">
<path fill="none" stroke="#63b8ff" d="M1014.86,-344.03C1112.34,-359.44 1320.87,-386.3 1496,-367.5 1517.87,-365.15 1541.77,-360.26 1561.73,-355.5"/>
<polygon fill="#63b8ff" stroke="#63b8ff" points="1562.6,-358.89 1571.48,-353.11 1560.94,-352.09 1562.6,-358.89"/>
</a>
</g>
</g>
<!-- Node34&#45;&gt;Node25 -->
<g id="edge34_Node000034_Node000025" class="edge">
<title>Node34&#45;&gt;Node25</title>
<g id="a_edge34_Node000034_Node000025"><a xlink:title=" ">
<path fill="none" stroke="#63b8ff" d="M1042.18,-336.12C1124.53,-337.73 1250.37,-340.2 1333.64,-341.83"/>
<polygon fill="#63b8ff" stroke="#63b8ff" points="1333.77,-345.33 1343.83,-342.03 1333.9,-338.33 1333.77,-345.33"/>
</a>
</g>
</g>
<!-- Node35&#45;&gt;Node12 -->
<g id="edge36_Node000035_Node000012" class="edge">
<title>Node35&#45;&gt;Node12</title>
<g id="a_edge36_Node000035_Node000012"><a xlink:title=" ">
<path fill="none" stroke="#63b8ff" d="M635.72,-272.5C650.3,-272.5 666.57,-272.5 682.44,-272.5"/>
<polygon fill="#63b8ff" stroke="#63b8ff" points="682.8,-276 692.8,-272.5 682.8,-269 682.8,-276"/>
</a>
</g>
</g>
<!-- Node36 -->
<g id="Node000036" class="node">
<title>Node36</title>
<g id="a_Node000036"><a xlink:href="math__util_8c.html#ad5bb0138c68b50f119d3cb7966f522b7" target="_top" xlink:title=" ">
<polygon fill="white" stroke="#666666" points="839,-245 687,-245 687,-226 839,-226 839,-245"/>
<text text-anchor="middle" x="763" y="-233" font-family="Helvetica,sans-Serif" font-size="10.00">mtxf_translate_vec3f_mat3</text>
</a>
</g>
</g>
<!-- Node35&#45;&gt;Node36 -->
<g id="edge37_Node000035_Node000036" class="edge">
<title>Node35&#45;&gt;Node36</title>
<g id="a_edge37_Node000035_Node000036"><a xlink:title=" ">
<path fill="none" stroke="#63b8ff" d="M630.58,-262.97C653.72,-258.14 682.02,-252.22 706.42,-247.12"/>
<polygon fill="#63b8ff" stroke="#63b8ff" points="707.19,-250.53 716.27,-245.06 705.76,-243.68 707.19,-250.53"/>
</a>
</g>
</g>
<!-- Node37&#45;&gt;Node38 -->
<g id="edge39_Node000037_Node000038" class="edge">
<title>Node37&#45;&gt;Node38</title>
<g id="a_edge39_Node000037_Node000038"><a xlink:title=" ">
<path fill="none" stroke="#63b8ff" d="M470.88,-159.84C486.09,-159.93 502.61,-160.03 518.18,-160.12"/>
<polygon fill="#63b8ff" stroke="#63b8ff" points="518.23,-163.62 528.25,-160.18 518.27,-156.62 518.23,-163.62"/>
</a>
</g>
</g>
<!-- Node38&#45;&gt;Node12 -->
<g id="edge40_Node000038_Node000012" class="edge">
<title>Node38&#45;&gt;Node12</title>
<g id="a_edge40_Node000038_Node000012"><a xlink:title=" ">
<path fill="none" stroke="#63b8ff" d="M635.59,-170.13C641.15,-172.58 646.45,-175.65 651,-179.5 679.24,-203.37 658.24,-231.27 687,-254.5 688.56,-255.76 690.2,-256.94 691.9,-258.03"/>
<polygon fill="#63b8ff" stroke="#63b8ff" points="690.36,-261.18 700.82,-262.87 693.7,-255.03 690.36,-261.18"/>
</a>
</g>
</g>
<!-- Node38&#45;&gt;Node36 -->
<g id="edge46_Node000038_Node000036" class="edge">
<title>Node38&#45;&gt;Node36</title>
<g id="a_edge46_Node000038_Node000036"><a xlink:title=" ">
<path fill="none" stroke="#63b8ff" d="M629.99,-170.03C637.29,-172.53 644.56,-175.64 651,-179.5 670.68,-191.29 667.13,-205.03 687,-216.5 690.9,-218.75 695.07,-220.74 699.36,-222.49"/>
<polygon fill="#63b8ff" stroke="#63b8ff" points="698.32,-225.84 708.91,-225.97 700.72,-219.26 698.32,-225.84"/>
</a>
</g>
</g>
<!-- Node39 -->
<g id="Node000039" class="node">
<title>Node39</title>
<g id="a_Node000039"><a xlink:href="collision_8c.html#a0724869c38f177efa5357ac2205857d4" target="_top" xlink:title=" ">
<polygon fill="white" stroke="#666666" points="809.5,-207 716.5,-207 716.5,-188 809.5,-188 809.5,-207"/>
<text text-anchor="middle" x="763" y="-195" font-family="Helvetica,sans-Serif" font-size="10.00">func_802AD950</text>
</a>
</g>
</g>
<!-- Node38&#45;&gt;Node39 -->
<g id="edge41_Node000038_Node000039" class="edge">
<title>Node38&#45;&gt;Node39</title>
<g id="a_edge41_Node000038_Node000039"><a xlink:title=" ">
<path fill="none" stroke="#63b8ff" d="M630.58,-170.03C653.72,-174.86 682.02,-180.78 706.42,-185.88"/>
<polygon fill="#63b8ff" stroke="#63b8ff" points="705.76,-189.32 716.27,-187.94 707.19,-182.47 705.76,-189.32"/>
</a>
</g>
</g>
<!-- Node43 -->
<g id="Node000043" class="node">
<title>Node43</title>
<g id="a_Node000043"><a xlink:href="actors__extended_8c.html#a78e98c146f1f4dd6e3608016486172a4" target="_top" xlink:title=" ">
<polygon fill="white" stroke="#666666" points="809,-170 717,-170 717,-151 809,-151 809,-170"/>
<text text-anchor="middle" x="763" y="-158" font-family="Helvetica,sans-Serif" font-size="10.00">func_802B4E30</text>
</a>
</g>
</g>
<!-- Node38&#45;&gt;Node43 -->
<g id="edge45_Node000038_Node000043" class="edge">
<title>Node38&#45;&gt;Node43</title>
<g id="a_edge45_Node000038_Node000043"><a xlink:title=" ">
<path fill="none" stroke="#63b8ff" d="M639.55,-160.5C660.85,-160.5 685.24,-160.5 706.62,-160.5"/>
<polygon fill="#63b8ff" stroke="#63b8ff" points="706.85,-164 716.85,-160.5 706.85,-157 706.85,-164"/>
</a>
</g>
</g>
<!-- Node40 -->
<g id="Node000040" class="node">
<title>Node40</title>
<g id="a_Node000040"><a xlink:href="collision_8c.html#a9ec62ee67d55805a587752d82d66abd8" target="_top" xlink:title=" ">
<polygon fill="white" stroke="#666666" points="1030,-244.5 887,-244.5 887,-214.5 1030,-214.5 1030,-244.5"/>
<text text-anchor="start" x="895" y="-232.5" font-family="Helvetica,sans-Serif" font-size="10.00">is_colliding_with_drivable</text>
<text text-anchor="middle" x="958.5" y="-221.5" font-family="Helvetica,sans-Serif" font-size="10.00">_surface</text>
</a>
</g>
</g>
<!-- Node39&#45;&gt;Node40 -->
<g id="edge42_Node000039_Node000040" class="edge">
<title>Node39&#45;&gt;Node40</title>
<g id="a_edge42_Node000039_Node000040"><a xlink:title=" ">
<path fill="none" stroke="#63b8ff" d="M809.86,-205.08C829.91,-208.4 854.04,-212.39 876.93,-216.18"/>
<polygon fill="#63b8ff" stroke="#63b8ff" points="876.56,-219.66 887,-217.84 877.7,-212.76 876.56,-219.66"/>
</a>
</g>
</g>
<!-- Node41 -->
<g id="Node000041" class="node">
<title>Node41</title>
<g id="a_Node000041"><a xlink:href="collision_8c.html#aa77fc5aaa5aa3a6f71ad00bc71b04788" target="_top" xlink:title=" ">
<polygon fill="white" stroke="#666666" points="1023,-196 894,-196 894,-177 1023,-177 1023,-196"/>
<text text-anchor="middle" x="958.5" y="-184" font-family="Helvetica,sans-Serif" font-size="10.00">is_colliding_with_wall1</text>
</a>
</g>
</g>
<!-- Node39&#45;&gt;Node41 -->
<g id="edge43_Node000039_Node000041" class="edge">
<title>Node39&#45;&gt;Node41</title>
<g id="a_edge43_Node000039_Node000041"><a xlink:title=" ">
<path fill="none" stroke="#63b8ff" d="M809.86,-194.89C831.86,-193.64 858.77,-192.11 883.56,-190.7"/>
<polygon fill="#63b8ff" stroke="#63b8ff" points="883.89,-194.19 893.67,-190.13 883.49,-187.2 883.89,-194.19"/>
</a>
</g>
</g>
<!-- Node42 -->
<g id="Node000042" class="node">
<title>Node42</title>
<g id="a_Node000042"><a xlink:href="collision_8c.html#a728bd4102d2ed3ba18d68d39b707c0f4" target="_top" xlink:title=" ">
<polygon fill="white" stroke="#666666" points="1023,-159 894,-159 894,-140 1023,-140 1023,-159"/>
<text text-anchor="middle" x="958.5" y="-147" font-family="Helvetica,sans-Serif" font-size="10.00">is_colliding_with_wall2</text>
</a>
</g>
</g>
<!-- Node39&#45;&gt;Node42 -->
<g id="edge44_Node000039_Node000042" class="edge">
<title>Node39&#45;&gt;Node42</title>
<g id="a_edge44_Node000039_Node000042"><a xlink:title=" ">
<path fill="none" stroke="#63b8ff" d="M805.77,-187.95C816.62,-185.34 828.28,-182.42 839,-179.5 855.14,-175.1 858.84,-172.82 875,-168.5 884.17,-166.05 893.96,-163.62 903.48,-161.37"/>
<polygon fill="#63b8ff" stroke="#63b8ff" points="904.31,-164.77 913.26,-159.09 902.72,-157.95 904.31,-164.77"/>
</a>
</g>
</g>
<!-- Node44&#45;&gt;Node12 -->
<g id="edge48_Node000044_Node000012" class="edge">
<title>Node44&#45;&gt;Node12</title>
<g id="a_edge48_Node000044_Node000012"><a xlink:title=" ">
<path fill="none" stroke="#63b8ff" d="M630.58,-245.03C653.72,-249.86 682.02,-255.78 706.42,-260.88"/>
<polygon fill="#63b8ff" stroke="#63b8ff" points="705.76,-264.32 716.27,-262.94 707.19,-257.47 705.76,-264.32"/>
</a>
</g>
</g>
<!-- Node44&#45;&gt;Node36 -->
<g id="edge49_Node000044_Node000036" class="edge">
<title>Node44&#45;&gt;Node36</title>
<g id="a_edge49_Node000044_Node000036"><a xlink:title=" ">
<path fill="none" stroke="#63b8ff" d="M651.16,-235.5C659.56,-235.5 668.24,-235.5 676.89,-235.5"/>
<polygon fill="#63b8ff" stroke="#63b8ff" points="676.99,-239 686.99,-235.5 676.99,-232 676.99,-239"/>
</a>
</g>
</g>
<!-- Node45&#45;&gt;Node12 -->
<g id="edge51_Node000045_Node000012" class="edge">
<title>Node45&#45;&gt;Node12</title>
<g id="a_edge51_Node000045_Node000012"><a xlink:title=" ">
<path fill="none" stroke="#63b8ff" d="M627.9,-207.05C635.9,-209.77 643.94,-213.21 651,-217.5 670.6,-229.43 667.06,-243.15 687,-254.5 690.22,-256.33 693.61,-257.97 697.11,-259.45"/>
<polygon fill="#63b8ff" stroke="#63b8ff" points="695.96,-262.76 706.56,-262.99 698.42,-256.2 695.96,-262.76"/>
</a>
</g>
</g>
<!-- Node45&#45;&gt;Node36 -->
<g id="edge54_Node000045_Node000036" class="edge">
<title>Node45&#45;&gt;Node36</title>
<g id="a_edge54_Node000045_Node000036"><a xlink:title=" ">
<path fill="none" stroke="#63b8ff" d="M629.66,-207.09C653.34,-212.17 682.61,-218.46 707.6,-223.82"/>
<polygon fill="#63b8ff" stroke="#63b8ff" points="707.14,-227.3 717.66,-225.98 708.61,-220.46 707.14,-227.3"/>
</a>
</g>
</g>
<!-- Node45&#45;&gt;Node39 -->
<g id="edge52_Node000045_Node000039" class="edge">
<title>Node45&#45;&gt;Node39</title>
<g id="a_edge52_Node000045_Node000039"><a xlink:title=" ">
<path fill="none" stroke="#63b8ff" d="M645.91,-197.5C665.49,-197.5 687.08,-197.5 706.27,-197.5"/>
<polygon fill="#63b8ff" stroke="#63b8ff" points="706.36,-201 716.36,-197.5 706.36,-194 706.36,-201"/>
</a>
</g>
</g>
<!-- Node45&#45;&gt;Node43 -->
<g id="edge53_Node000045_Node000043" class="edge">
<title>Node45&#45;&gt;Node43</title>
<g id="a_edge53_Node000045_Node000043"><a xlink:title=" ">
<path fill="none" stroke="#63b8ff" d="M630.58,-187.97C653.9,-183.1 682.46,-177.13 706.99,-172"/>
<polygon fill="#63b8ff" stroke="#63b8ff" points="707.81,-175.4 716.88,-169.93 706.37,-168.55 707.81,-175.4"/>
</a>
</g>
</g>
<!-- Node47 -->
<g id="Node000047" class="node">
<title>Node47</title>
<g id="a_Node000047"><a xlink:href="code__80091750_8c.html#ae51a0e8a87ee07bbd88e006d87343ada" target="_top" xlink:title=" ">
<polygon fill="white" stroke="#666666" points="630,-38 538,-38 538,-19 630,-19 630,-38"/>
<text text-anchor="middle" x="584" y="-26" font-family="Helvetica,sans-Serif" font-size="10.00">func_8009E5BC</text>
</a>
</g>
</g>
<!-- Node46&#45;&gt;Node47 -->
<g id="edge57_Node000046_Node000047" class="edge">
<title>Node46&#45;&gt;Node47</title>
<g id="a_edge57_Node000046_Node000047"><a xlink:title=" ">
<path fill="none" stroke="#63b8ff" d="M443.02,-73.92C471.01,-64.84 513.23,-51.14 543.98,-41.16"/>
<polygon fill="#63b8ff" stroke="#63b8ff" points="545.1,-44.48 553.53,-38.06 542.94,-37.82 545.1,-44.48"/>
</a>
</g>
</g>
<!-- Node49 -->
<g id="Node000049" class="node">
<title>Node49</title>
<g id="a_Node000049"><a xlink:href="external_8c.html#ab3e41422317f1d656be9e9b0d5947bb8" target="_top" xlink:title=" ">
<polygon fill="white" stroke="#666666" points="631,-93 537,-93 537,-74 631,-74 631,-93"/>
<text text-anchor="middle" x="584" y="-81" font-family="Helvetica,sans-Serif" font-size="10.00">func_800CAB4C</text>
</a>
</g>
</g>
<!-- Node46&#45;&gt;Node49 -->
<g id="edge59_Node000046_Node000049" class="edge">
<title>Node46&#45;&gt;Node49</title>
<g id="a_edge59_Node000046_Node000049"><a xlink:title=" ">
<path fill="none" stroke="#63b8ff" d="M464.82,-83.5C484.31,-83.5 506.63,-83.5 526.57,-83.5"/>
<polygon fill="#63b8ff" stroke="#63b8ff" points="526.76,-87 536.76,-83.5 526.76,-80 526.76,-87"/>
</a>
</g>
</g>
<!-- Node48 -->
<g id="Node000048" class="node">
<title>Node48</title>
<g id="a_Node000048"><a xlink:href="code__80091750_8c.html#ac9e3b8307dec167812d18d72a541bf1f" target="_top" xlink:title=" ">
<polygon fill="white" stroke="#666666" points="809,-19 717,-19 717,0 809,0 809,-19"/>
<text text-anchor="middle" x="763" y="-7" font-family="Helvetica,sans-Serif" font-size="10.00">func_8009E5FC</text>
</a>
</g>
</g>
<!-- Node47&#45;&gt;Node48 -->
<g id="edge58_Node000047_Node000048" class="edge">
<title>Node47&#45;&gt;Node48</title>
<g id="a_edge58_Node000047_Node000048"><a xlink:title=" ">
<path fill="none" stroke="#63b8ff" d="M630.12,-23.66C653.53,-21.14 682.31,-18.05 707.01,-15.4"/>
<polygon fill="#63b8ff" stroke="#63b8ff" points="707.39,-18.88 716.96,-14.33 706.64,-11.92 707.39,-18.88"/>
</a>
</g>
</g>
<!-- Node50 -->
<g id="Node000050" class="node">
<title>Node50</title>
<g id="a_Node000050"><a xlink:href="external_8c.html#ad79a8b3dfe27cebca94c2d9e2cc54d2b" target="_top" xlink:title=" ">
<polygon fill="white" stroke="#666666" points="809,-56 717,-56 717,-37 809,-37 809,-56"/>
<text text-anchor="middle" x="763" y="-44" font-family="Helvetica,sans-Serif" font-size="10.00">func_800C36C4</text>
</a>
</g>
</g>
<!-- Node49&#45;&gt;Node50 -->
<g id="edge60_Node000049_Node000050" class="edge">
<title>Node49&#45;&gt;Node50</title>
<g id="a_edge60_Node000049_Node000050"><a xlink:title=" ">
<path fill="none" stroke="#63b8ff" d="M630.58,-73.97C653.9,-69.1 682.46,-63.13 706.99,-58"/>
<polygon fill="#63b8ff" stroke="#63b8ff" points="707.81,-61.4 716.88,-55.93 706.37,-54.55 707.81,-61.4"/>
</a>
</g>
</g>
<!-- Node51 -->
<g id="Node000051" class="node">
<title>Node51</title>
<g id="a_Node000051"><a xlink:href="external_8c.html#a2be9efc97a92e19d02aaee90d676acc1" target="_top" xlink:title=" ">
<polygon fill="white" stroke="#666666" points="809,-93 717,-93 717,-74 809,-74 809,-93"/>
<text text-anchor="middle" x="763" y="-81" font-family="Helvetica,sans-Serif" font-size="10.00">func_800C9060</text>
</a>
</g>
</g>
<!-- Node49&#45;&gt;Node51 -->
<g id="edge61_Node000049_Node000051" class="edge">
<title>Node49&#45;&gt;Node51</title>
<g id="a_edge61_Node000049_Node000051"><a xlink:title=" ">
<path fill="none" stroke="#63b8ff" d="M631.04,-83.5C654.17,-83.5 682.36,-83.5 706.65,-83.5"/>
<polygon fill="#63b8ff" stroke="#63b8ff" points="706.8,-87 716.8,-83.5 706.8,-80 706.8,-87"/>
</a>
</g>
</g>
<!-- Node52 -->
<g id="Node000052" class="node">
<title>Node52</title>
<g id="a_Node000052"><a xlink:href="external_8c.html#a4227847f3da303aee53cf69d2760a595" target="_top" xlink:title=" ">
<polygon fill="white" stroke="#666666" points="994.5,-108 922.5,-108 922.5,-89 994.5,-89 994.5,-108"/>
<text text-anchor="middle" x="958.5" y="-96" font-family="Helvetica,sans-Serif" font-size="10.00">play_sound</text>
</a>
</g>
</g>
<!-- Node49&#45;&gt;Node52 -->
<g id="edge63_Node000049_Node000052" class="edge">
<title>Node49&#45;&gt;Node52</title>
<g id="a_edge63_Node000049_Node000052"><a xlink:title=" ">
<path fill="none" stroke="#63b8ff" d="M626.44,-93.01C644.88,-96.78 666.91,-100.64 687,-102.5 765.92,-109.79 858.33,-105.73 912.16,-102.12"/>
<polygon fill="#63b8ff" stroke="#63b8ff" points="912.66,-105.59 922.39,-101.4 912.17,-98.61 912.66,-105.59"/>
</a>
</g>
</g>
<!-- Node51&#45;&gt;Node52 -->
<g id="edge62_Node000051_Node000052" class="edge">
<title>Node51&#45;&gt;Node52</title>
<g id="a_edge62_Node000051_Node000052"><a xlink:title=" ">
<path fill="none" stroke="#63b8ff" d="M809.37,-87.02C840.38,-89.42 881.31,-92.59 912.29,-95"/>
<polygon fill="#63b8ff" stroke="#63b8ff" points="912.14,-98.49 922.38,-95.78 912.68,-91.52 912.14,-98.49"/>
</a>
</g>
</g>
<!-- Node53&#45;&gt;Node12 -->
<g id="edge65_Node000053_Node000012" class="edge">
<title>Node53&#45;&gt;Node12</title>
<g id="a_edge65_Node000053_Node000012"><a xlink:title=" ">
<path fill="none" stroke="#63b8ff" d="M473.15,-342.28C521.55,-336.5 591.3,-326.5 651,-311.5 677.8,-304.77 707.27,-294.26 729.11,-285.85"/>
<polygon fill="#63b8ff" stroke="#63b8ff" points="730.53,-289.05 738.57,-282.15 727.98,-282.53 730.53,-289.05"/>
</a>
</g>
</g>
</g>
</svg>
