<?xml version="1.0" encoding="UTF-8" standalone="no"?>
<!DOCTYPE svg PUBLIC "-//W3C//DTD SVG 1.1//EN"
 "http://www.w3.org/Graphics/SVG/1.1/DTD/svg11.dtd">
<!-- Generated by graphviz version 2.43.0 (0)
 -->
<!-- Title: func_802A0350 Pages: 1 -->
<!--zoomable 267 -->

<svg id="main" version="1.1" xmlns="http://www.w3.org/2000/svg" xmlns:xlink="http://www.w3.org/1999/xlink" xml:space="preserve" onload="init(evt)">
<style type="text/css"><![CDATA[
.node, .edge {opacity: 0.7;}
.node.selected, .edge.selected {opacity: 1;}
.edge:hover path { stroke: red; }
.edge:hover polygon { stroke: red; fill: red; }
]]></style>

<defs>
  <circle id="rim" cx="0" cy="0" r="7"/>
  <circle id="rim2" cx="0" cy="0" r="3.5"/>
  <g id="zoomPlus">
    <use xlink:href="#rim" fill="#404040"><set attributeName="fill" to="#808080" begin="zoomplus.mouseover" end="zoomplus.mouseout"/></use>
    <path d="M-4,0h8M0,-4v8" fill="none" stroke="white" stroke-width="1.5" pointer-events="none"/>
  </g>
  <g id="zoomMin">
    <use xlink:href="#rim" fill="#404040"><set attributeName="fill" to="#808080" begin="zoomminus.mouseover" end="zoomminus.mouseout"/></use>
    <path d="M-4,0h8" fill="none" stroke="white" stroke-width="1.5" pointer-events="none"/>
  </g>
  <g id="arrowUp" transform="translate(30 24)">
    <use xlink:href="#rim"/>
    <path pointer-events="none" fill="none" stroke="white" stroke-width="1.5" d="M0,-3.0v7 M-2.5,-0.5L0,-3.0L2.5,-0.5"/>
  </g>
  <g id="arrowRight" transform="rotate(90) translate(36 -43)">
    <use xlink:href="#rim"/>
    <path pointer-events="none" fill="none" stroke="white" stroke-width="1.5" d="M0,-3.0v7 M-2.5,-0.5L0,-3.0L2.5,-0.5"/>
  </g>
  <g id="arrowDown" transform="rotate(180) translate(-30 -48)">
    <use xlink:href="#rim"/>
    <path pointer-events="none" fill="none" stroke="white" stroke-width="1.5" d="M0,-3.0v7 M-2.5,-0.5L0,-3.0L2.5,-0.5"/>
  </g>
  <g id="arrowLeft" transform="rotate(270) translate(-36 17)">
    <use xlink:href="#rim"/>
    <path pointer-events="none" fill="none" stroke="white" stroke-width="1.5" d="M0,-3.0v7 M-2.5,-0.5L0,-3.0L2.5,-0.5"/>
  </g>
  <g id="resetDef">
    <use xlink:href="#rim2" fill="#404040"><set attributeName="fill" to="#808080" begin="reset.mouseover" end="reset.mouseout"/></use>
  </g>
</defs>
<script type="application/ecmascript">
var viewWidth = 989;
var viewHeight = 267;
var sectionId = 'dynsection-61';
</script>
<script type="application/ecmascript" xlink:href="svg.min.js"/>
<svg id="graph" class="graph">
<g id="viewport">
<title>func_802A0350</title>
<!-- Node1 -->
<g id="Node000001" class="node">
<title>Node1</title>
<g id="a_Node000001"><a xlink:title=" ">
<polygon fill="#999999" stroke="#666666" points="92,-140 0,-140 0,-121 92,-121 92,-140"/>
<text text-anchor="middle" x="46" y="-128" font-family="Helvetica,sans-Serif" font-size="10.00">func_802A0350</text>
</a>
</g>
</g>
<!-- Node2 -->
<g id="Node000002" class="node">
<title>Node2</title>
<g id="a_Node000002"><a xlink:href="actors_8c.html#a53268aa601911d56424ff08fb3395bcb" target="_top" xlink:title=" ">
<polygon fill="white" stroke="#666666" points="247,-124.5 128,-124.5 128,-94.5 247,-94.5 247,-124.5"/>
<text text-anchor="start" x="136" y="-112.5" font-family="Helvetica,sans-Serif" font-size="10.00">destroy_destructable</text>
<text text-anchor="middle" x="187.5" y="-101.5" font-family="Helvetica,sans-Serif" font-size="10.00">_actor</text>
</a>
</g>
</g>
<!-- Node1&#45;&gt;Node2 -->
<g id="edge1_Node000001_Node000002" class="edge">
<title>Node1&#45;&gt;Node2</title>
<g id="a_edge1_Node000001_Node000002"><a xlink:title=" ">
<path fill="none" stroke="#63b8ff" d="M92.29,-123.68C100.47,-122.45 109.16,-121.14 117.83,-119.84"/>
<polygon fill="#63b8ff" stroke="#63b8ff" points="118.59,-123.26 127.96,-118.31 117.55,-116.34 118.59,-123.26"/>
</a>
</g>
</g>
<!-- Node21 -->
<g id="Node000021" class="node">
<title>Node21</title>
<g id="a_Node000021"><a xlink:href="external_8c.html#acb60983213d09ee795e80ca3c8b5975e" target="_top" xlink:title=" ">
<polygon fill="white" stroke="#666666" points="405,-204 313,-204 313,-185 405,-185 405,-204"/>
<text text-anchor="middle" x="359" y="-192" font-family="Helvetica,sans-Serif" font-size="10.00">func_800C98B8</text>
</a>
</g>
</g>
<!-- Node1&#45;&gt;Node21 -->
<g id="edge23_Node000001_Node000021" class="edge">
<title>Node1&#45;&gt;Node21</title>
<g id="a_edge23_Node000001_Node000021"><a xlink:title=" ">
<path fill="none" stroke="#63b8ff" d="M60.88,-140.09C76.45,-150.3 102.82,-166 128,-173.5 186,-190.78 255.55,-194.98 302.88,-195.52"/>
<polygon fill="#63b8ff" stroke="#63b8ff" points="302.9,-199.02 312.92,-195.59 302.95,-192.02 302.9,-199.02"/>
</a>
</g>
</g>
<!-- Node22 -->
<g id="Node000022" class="node">
<title>Node22</title>
<g id="a_Node000022"><a xlink:href="actors_8c.html#a4b5c574a62c1fa09822c3be36c9fe247" target="_top" xlink:title=" ">
<polygon fill="white" stroke="#666666" points="233.5,-76 141.5,-76 141.5,-57 233.5,-57 233.5,-76"/>
<text text-anchor="middle" x="187.5" y="-64" font-family="Helvetica,sans-Serif" font-size="10.00">func_8029FCA4</text>
</a>
</g>
</g>
<!-- Node1&#45;&gt;Node22 -->
<g id="edge25_Node000001_Node000022" class="edge">
<title>Node1&#45;&gt;Node22</title>
<g id="a_edge25_Node000001_Node000022"><a xlink:title=" ">
<path fill="none" stroke="#63b8ff" d="M62.08,-120.96C78.02,-111.16 104.1,-95.9 128,-85.5 133.02,-83.32 138.37,-81.24 143.72,-79.33"/>
<polygon fill="#63b8ff" stroke="#63b8ff" points="144.96,-82.61 153.29,-76.06 142.69,-75.98 144.96,-82.61"/>
</a>
</g>
</g>
<!-- Node23 -->
<g id="Node000023" class="node">
<title>Node23</title>
<g id="a_Node000023"><a xlink:href="actors_8c.html#acd2980ed4c1c875919300053577d6f2c" target="_top" xlink:title=" ">
<polygon fill="white" stroke="#666666" points="233.5,-164 141.5,-164 141.5,-145 233.5,-145 233.5,-164"/>
<text text-anchor="middle" x="187.5" y="-152" font-family="Helvetica,sans-Serif" font-size="10.00">func_802A00E8</text>
</a>
</g>
</g>
<!-- Node1&#45;&gt;Node23 -->
<g id="edge26_Node000001_Node000023" class="edge">
<title>Node1&#45;&gt;Node23</title>
<g id="a_edge26_Node000001_Node000023"><a xlink:title=" ">
<path fill="none" stroke="#63b8ff" d="M92.29,-138.29C104.72,-140.43 118.34,-142.77 131.26,-145"/>
<polygon fill="#63b8ff" stroke="#63b8ff" points="130.99,-148.5 141.44,-146.75 132.17,-141.6 130.99,-148.5"/>
</a>
</g>
</g>
<!-- Node3 -->
<g id="Node000003" class="node">
<title>Node3</title>
<g id="a_Node000003"><a xlink:href="actors__extended_8c.html#a72ea66924941d84ae27c5e244e946842" target="_top" xlink:title=" ">
<polygon fill="white" stroke="#666666" points="419,-166.5 299,-166.5 299,-136.5 419,-136.5 419,-166.5"/>
<text text-anchor="start" x="307" y="-154.5" font-family="Helvetica,sans-Serif" font-size="10.00">destroy_a_banana_in</text>
<text text-anchor="middle" x="359" y="-143.5" font-family="Helvetica,sans-Serif" font-size="10.00">_bunch_banana</text>
</a>
</g>
</g>
<!-- Node2&#45;&gt;Node3 -->
<g id="edge2_Node000002_Node000003" class="edge">
<title>Node2&#45;&gt;Node3</title>
<g id="a_edge2_Node000002_Node000003"><a xlink:title=" ">
<path fill="none" stroke="#63b8ff" d="M247.31,-124.07C260.69,-127.39 275.04,-130.94 288.81,-134.36"/>
<polygon fill="#63b8ff" stroke="#63b8ff" points="288.17,-137.8 298.72,-136.81 289.86,-131.01 288.17,-137.8"/>
</a>
</g>
</g>
<!-- Node11 -->
<g id="Node000011" class="node">
<title>Node11</title>
<g id="a_Node000011"><a xlink:href="external_8c.html#a73831bcbe259500206651a0b4702be9f" target="_top" xlink:title=" ">
<polygon fill="white" stroke="#666666" points="405,-118 313,-118 313,-99 405,-99 405,-118"/>
<text text-anchor="middle" x="359" y="-106" font-family="Helvetica,sans-Serif" font-size="10.00">func_800C9EF4</text>
</a>
</g>
</g>
<!-- Node2&#45;&gt;Node11 -->
<g id="edge13_Node000002_Node000011" class="edge">
<title>Node2&#45;&gt;Node11</title>
<g id="a_edge13_Node000002_Node000011"><a xlink:title=" ">
<path fill="none" stroke="#63b8ff" d="M247.31,-109.15C265.29,-109.05 285,-108.93 302.74,-108.83"/>
<polygon fill="#63b8ff" stroke="#63b8ff" points="302.95,-112.32 312.93,-108.77 302.91,-105.33 302.95,-112.32"/>
</a>
</g>
</g>
<!-- Node19 -->
<g id="Node000019" class="node">
<title>Node19</title>
<g id="a_Node000019"><a xlink:href="code__80005FD0_8c.html#acb7b3d384c78d219f4b7040e78f6a2f2" target="_top" xlink:title=" ">
<polygon fill="white" stroke="#666666" points="435,-80.5 283,-80.5 283,-50.5 435,-50.5 435,-80.5"/>
<text text-anchor="start" x="291" y="-68.5" font-family="Helvetica,sans-Serif" font-size="10.00">remove_actor_in_unexpired</text>
<text text-anchor="middle" x="359" y="-57.5" font-family="Helvetica,sans-Serif" font-size="10.00">_actor_list</text>
</a>
</g>
</g>
<!-- Node2&#45;&gt;Node19 -->
<g id="edge21_Node000002_Node000019" class="edge">
<title>Node2&#45;&gt;Node19</title>
<g id="a_edge21_Node000002_Node000019"><a xlink:title=" ">
<path fill="none" stroke="#63b8ff" d="M246.36,-94.48C260.46,-90.82 275.67,-86.87 290.19,-83.1"/>
<polygon fill="#63b8ff" stroke="#63b8ff" points="291.32,-86.43 300.11,-80.53 289.56,-79.65 291.32,-86.43"/>
</a>
</g>
</g>
<!-- Node20 -->
<g id="Node000020" class="node">
<title>Node20</title>
<g id="a_Node000020"><a xlink:href="actors__extended_8c.html#a1edd6e4f2545082e3782c4ce50933c7c" target="_top" xlink:title=" ">
<polygon fill="white" stroke="#666666" points="417,-32.5 301,-32.5 301,-2.5 417,-2.5 417,-32.5"/>
<text text-anchor="start" x="309" y="-20.5" font-family="Helvetica,sans-Serif" font-size="10.00">triple_shell_actor</text>
<text text-anchor="middle" x="359" y="-9.5" font-family="Helvetica,sans-Serif" font-size="10.00">_collide_with_player</text>
</a>
</g>
</g>
<!-- Node2&#45;&gt;Node20 -->
<g id="edge22_Node000002_Node000020" class="edge">
<title>Node2&#45;&gt;Node20</title>
<g id="a_edge22_Node000002_Node000020"><a xlink:title=" ">
<path fill="none" stroke="#63b8ff" d="M232.3,-94.39C237.47,-91.79 242.5,-88.83 247,-85.5 267.31,-70.47 262.11,-55.71 283,-41.5 285.71,-39.65 288.58,-37.94 291.54,-36.36"/>
<polygon fill="#63b8ff" stroke="#63b8ff" points="293.17,-39.46 300.67,-31.98 290.14,-33.15 293.17,-39.46"/>
</a>
</g>
</g>
<!-- Node4 -->
<g id="Node000004" class="node">
<title>Node4</title>
<g id="a_Node000004"><a xlink:href="external_8c.html#a2be9efc97a92e19d02aaee90d676acc1" target="_top" xlink:title=" ">
<polygon fill="white" stroke="#666666" points="563,-240 471,-240 471,-221 563,-221 563,-240"/>
<text text-anchor="middle" x="517" y="-228" font-family="Helvetica,sans-Serif" font-size="10.00">func_800C9060</text>
</a>
</g>
</g>
<!-- Node3&#45;&gt;Node4 -->
<g id="edge3_Node000003_Node000004" class="edge">
<title>Node3&#45;&gt;Node4</title>
<g id="a_edge3_Node000003_Node000004"><a xlink:title=" ">
<path fill="none" stroke="#63b8ff" d="M415.01,-166.51C421.97,-169.36 428.81,-172.68 435,-176.5 454.25,-188.4 452.11,-200.04 471,-212.5 473.15,-213.92 475.43,-215.26 477.78,-216.51"/>
<polygon fill="#63b8ff" stroke="#63b8ff" points="476.51,-219.78 487.04,-220.94 479.53,-213.47 476.51,-219.78"/>
</a>
</g>
</g>
<!-- Node6 -->
<g id="Node000006" class="node">
<title>Node6</title>
<g id="a_Node000006"><a xlink:href="actors__extended_8c.html#ab349562338ca47f2b524137864704d0e" target="_top" xlink:title=" ">
<polygon fill="white" stroke="#666666" points="563,-185 471,-185 471,-166 563,-166 563,-185"/>
<text text-anchor="middle" x="517" y="-173" font-family="Helvetica,sans-Serif" font-size="10.00">func_802B0464</text>
</a>
</g>
</g>
<!-- Node3&#45;&gt;Node6 -->
<g id="edge5_Node000003_Node000006" class="edge">
<title>Node3&#45;&gt;Node6</title>
<g id="a_edge5_Node000003_Node000006"><a xlink:title=" ">
<path fill="none" stroke="#63b8ff" d="M419.42,-160.64C433.01,-162.73 447.39,-164.94 460.79,-167.01"/>
<polygon fill="#63b8ff" stroke="#63b8ff" points="460.4,-170.49 470.82,-168.55 461.47,-163.57 460.4,-170.49"/>
</a>
</g>
</g>
<!-- Node10 -->
<g id="Node000010" class="node">
<title>Node10</title>
<g id="a_Node000010"><a xlink:href="actors__extended_8c.html#a2f342036a9e04bb583aa7cf9c08edae9" target="_top" xlink:title=" ">
<polygon fill="white" stroke="#666666" points="563,-130 471,-130 471,-111 563,-111 563,-130"/>
<text text-anchor="middle" x="517" y="-118" font-family="Helvetica,sans-Serif" font-size="10.00">func_802B04E8</text>
</a>
</g>
</g>
<!-- Node3&#45;&gt;Node10 -->
<g id="edge10_Node000003_Node000010" class="edge">
<title>Node3&#45;&gt;Node10</title>
<g id="a_edge10_Node000003_Node000010"><a xlink:title=" ">
<path fill="none" stroke="#63b8ff" d="M419.42,-139.69C433.01,-136.99 447.39,-134.13 460.79,-131.47"/>
<polygon fill="#63b8ff" stroke="#63b8ff" points="461.69,-134.86 470.82,-129.48 460.33,-127.99 461.69,-134.86"/>
</a>
</g>
</g>
<!-- Node5 -->
<g id="Node000005" class="node">
<title>Node5</title>
<g id="a_Node000005"><a xlink:href="external_8c.html#a4227847f3da303aee53cf69d2760a595" target="_top" xlink:title=" ">
<polygon fill="white" stroke="#666666" points="705,-259 633,-259 633,-240 705,-240 705,-259"/>
<text text-anchor="middle" x="669" y="-247" font-family="Helvetica,sans-Serif" font-size="10.00">play_sound</text>
</a>
</g>
</g>
<!-- Node4&#45;&gt;Node5 -->
<g id="edge4_Node000004_Node000005" class="edge">
<title>Node4&#45;&gt;Node5</title>
<g id="a_edge4_Node000004_Node000005"><a xlink:title=" ">
<path fill="none" stroke="#63b8ff" d="M563,-236.2C581.79,-238.58 603.58,-241.34 622.43,-243.73"/>
<polygon fill="#63b8ff" stroke="#63b8ff" points="622.2,-247.23 632.56,-245.01 623.08,-240.28 622.2,-247.23"/>
</a>
</g>
</g>
<!-- Node6&#45;&gt;Node6 -->
<g id="edge9_Node000006_Node000006" class="edge">
<title>Node6&#45;&gt;Node6</title>
<g id="a_edge9_Node000006_Node000006"><a xlink:title=" ">
<path fill="none" stroke="#63b8ff" d="M493.57,-185.08C482.18,-193.73 489.98,-203 517,-203 534.73,-203 544.19,-199.01 545.37,-193.82"/>
<polygon fill="#63b8ff" stroke="#63b8ff" points="548.4,-192.06 540.43,-185.08 542.31,-195.51 548.4,-192.06"/>
</a>
</g>
</g>
<!-- Node7 -->
<g id="Node000007" class="node">
<title>Node7</title>
<g id="a_Node000007"><a xlink:href="actors__extended_8c.html#a093f702b462b6657ba7ab789941ef800" target="_top" xlink:title=" ">
<polygon fill="white" stroke="#666666" points="715,-157 623,-157 623,-138 715,-138 715,-157"/>
<text text-anchor="middle" x="669" y="-145" font-family="Helvetica,sans-Serif" font-size="10.00">func_802B039C</text>
</a>
</g>
</g>
<!-- Node6&#45;&gt;Node7 -->
<g id="edge6_Node000006_Node000007" class="edge">
<title>Node6&#45;&gt;Node7</title>
<g id="a_edge6_Node000006_Node000007"><a xlink:title=" ">
<path fill="none" stroke="#63b8ff" d="M563,-167.1C578.66,-164.18 596.39,-160.87 612.77,-157.81"/>
<polygon fill="#63b8ff" stroke="#63b8ff" points="613.58,-161.22 622.77,-155.94 612.3,-154.34 613.58,-161.22"/>
</a>
</g>
</g>
<!-- Node8 -->
<g id="Node000008" class="node">
<title>Node8</title>
<g id="a_Node000008"><a xlink:href="math__util_8c.html#a151b63b8adf9af7e4054b3b84bd226dc" target="_top" xlink:title=" ">
<polygon fill="white" stroke="#666666" points="857.5,-157 785.5,-157 785.5,-138 857.5,-138 857.5,-157"/>
<text text-anchor="middle" x="821.5" y="-145" font-family="Helvetica,sans-Serif" font-size="10.00">random_int</text>
</a>
</g>
</g>
<!-- Node7&#45;&gt;Node8 -->
<g id="edge7_Node000007_Node000008" class="edge">
<title>Node7&#45;&gt;Node8</title>
<g id="a_edge7_Node000007_Node000008"><a xlink:title=" ">
<path fill="none" stroke="#63b8ff" d="M715.15,-147.5C734.15,-147.5 756.21,-147.5 775.21,-147.5"/>
<polygon fill="#63b8ff" stroke="#63b8ff" points="775.42,-151 785.42,-147.5 775.42,-144 775.42,-151"/>
</a>
</g>
</g>
<!-- Node9 -->
<g id="Node000009" class="node">
<title>Node9</title>
<g id="a_Node000009"><a xlink:href="math__util_8c.html#a062850863585005ad1d0a75d9ff70693" target="_top" xlink:title=" ">
<polygon fill="white" stroke="#666666" points="981,-157 904,-157 904,-138 981,-138 981,-157"/>
<text text-anchor="middle" x="942.5" y="-145" font-family="Helvetica,sans-Serif" font-size="10.00">random_u16</text>
</a>
</g>
</g>
<!-- Node8&#45;&gt;Node9 -->
<g id="edge8_Node000008_Node000009" class="edge">
<title>Node8&#45;&gt;Node9</title>
<g id="a_edge8_Node000008_Node000009"><a xlink:title=" ">
<path fill="none" stroke="#63b8ff" d="M857.56,-147.5C868.8,-147.5 881.45,-147.5 893.46,-147.5"/>
<polygon fill="#63b8ff" stroke="#63b8ff" points="893.79,-151 903.79,-147.5 893.79,-144 893.79,-151"/>
</a>
</g>
</g>
<!-- Node10&#45;&gt;Node7 -->
<g id="edge11_Node000010_Node000007" class="edge">
<title>Node10&#45;&gt;Node7</title>
<g id="a_edge11_Node000010_Node000007"><a xlink:title=" ">
<path fill="none" stroke="#63b8ff" d="M563,-128.6C578.66,-131.42 596.39,-134.61 612.77,-137.56"/>
<polygon fill="#63b8ff" stroke="#63b8ff" points="612.31,-141.03 622.77,-139.36 613.55,-134.14 612.31,-141.03"/>
</a>
</g>
</g>
<!-- Node10&#45;&gt;Node10 -->
<g id="edge12_Node000010_Node000010" class="edge">
<title>Node10&#45;&gt;Node10</title>
<g id="a_edge12_Node000010_Node000010"><a xlink:title=" ">
<path fill="none" stroke="#63b8ff" d="M493.57,-130.08C482.18,-138.73 489.98,-148 517,-148 534.73,-148 544.19,-144.01 545.37,-138.82"/>
<polygon fill="#63b8ff" stroke="#63b8ff" points="548.4,-137.06 540.43,-130.08 542.31,-140.51 548.4,-137.06"/>
</a>
</g>
</g>
<!-- Node12 -->
<g id="Node000012" class="node">
<title>Node12</title>
<g id="a_Node000012"><a xlink:href="external_8c.html#aeb87c527482a244173df36a1f3d4f446" target="_top" xlink:title=" ">
<polygon fill="white" stroke="#666666" points="563,-93 471,-93 471,-74 563,-74 563,-93"/>
<text text-anchor="middle" x="517" y="-81" font-family="Helvetica,sans-Serif" font-size="10.00">func_800C21E8</text>
</a>
</g>
</g>
<!-- Node11&#45;&gt;Node12 -->
<g id="edge14_Node000011_Node000012" class="edge">
<title>Node11&#45;&gt;Node12</title>
<g id="a_edge14_Node000011_Node000012"><a xlink:title=" ">
<path fill="none" stroke="#63b8ff" d="M405.12,-101.27C422.58,-98.47 442.74,-95.24 461.04,-92.31"/>
<polygon fill="#63b8ff" stroke="#63b8ff" points="461.66,-95.75 470.98,-90.71 460.55,-88.84 461.66,-95.75"/>
</a>
</g>
</g>
<!-- Node13 -->
<g id="Node000013" class="node">
<title>Node13</title>
<g id="a_Node000013"><a xlink:href="external_8c.html#a028d40421b90c38f68ebfd5acc626f2e" target="_top" xlink:title=" ">
<polygon fill="white" stroke="#666666" points="563,-56 471,-56 471,-37 563,-37 563,-56"/>
<text text-anchor="middle" x="517" y="-44" font-family="Helvetica,sans-Serif" font-size="10.00">func_800C5578</text>
</a>
</g>
</g>
<!-- Node11&#45;&gt;Node13 -->
<g id="edge15_Node000011_Node000013" class="edge">
<title>Node11&#45;&gt;Node13</title>
<g id="a_edge15_Node000011_Node000013"><a xlink:title=" ">
<path fill="none" stroke="#63b8ff" d="M405.26,-99.68C415.27,-97 425.67,-93.64 435,-89.5 452.57,-81.69 454.07,-74.61 471,-65.5 474.33,-63.71 477.87,-61.96 481.44,-60.3"/>
<polygon fill="#63b8ff" stroke="#63b8ff" points="483.12,-63.38 490.85,-56.13 480.29,-56.98 483.12,-63.38"/>
</a>
</g>
</g>
<!-- Node14 -->
<g id="Node000014" class="node">
<title>Node14</title>
<g id="a_Node000014"><a xlink:href="external_8c.html#ac0fb767de7e14a03f1bcfa53f0abd23b" target="_top" xlink:title=" ">
<polygon fill="white" stroke="#666666" points="739,-93 599,-93 599,-74 739,-74 739,-93"/>
<text text-anchor="middle" x="669" y="-81" font-family="Helvetica,sans-Serif" font-size="10.00">delete_sound_from_bank</text>
</a>
</g>
</g>
<!-- Node13&#45;&gt;Node14 -->
<g id="edge16_Node000013_Node000014" class="edge">
<title>Node13&#45;&gt;Node14</title>
<g id="a_edge16_Node000013_Node000014"><a xlink:title=" ">
<path fill="none" stroke="#63b8ff" d="M556.63,-56.03C575.8,-60.76 599.16,-66.52 619.52,-71.54"/>
<polygon fill="#63b8ff" stroke="#63b8ff" points="618.69,-74.94 629.24,-73.94 620.37,-68.15 618.69,-74.94"/>
</a>
</g>
</g>
<!-- Node16 -->
<g id="Node000016" class="node">
<title>Node16</title>
<g id="a_Node000016"><a xlink:href="external_8c.html#ab83bd36e63f0f1baddcb2482b5ad31b0" target="_top" xlink:title=" ">
<polygon fill="white" stroke="#666666" points="715.5,-56 622.5,-56 622.5,-37 715.5,-37 715.5,-56"/>
<text text-anchor="middle" x="669" y="-44" font-family="Helvetica,sans-Serif" font-size="10.00">func_800C41CC</text>
</a>
</g>
</g>
<!-- Node13&#45;&gt;Node16 -->
<g id="edge18_Node000013_Node000016" class="edge">
<title>Node13&#45;&gt;Node16</title>
<g id="a_edge18_Node000013_Node000016"><a xlink:title=" ">
<path fill="none" stroke="#63b8ff" d="M563,-46.5C578.37,-46.5 595.74,-46.5 611.86,-46.5"/>
<polygon fill="#63b8ff" stroke="#63b8ff" points="612.25,-50 622.25,-46.5 612.25,-43 612.25,-50"/>
</a>
</g>
</g>
<!-- Node17 -->
<g id="Node000017" class="node">
<title>Node17</title>
<g id="a_Node000017"><a xlink:href="port__eu_8c.html#aa89dfaecca46c6d071f08c1898d1f7c9" target="_top" xlink:title=" ">
<polygon fill="white" stroke="#666666" points="715.5,-19 622.5,-19 622.5,0 715.5,0 715.5,-19"/>
<text text-anchor="middle" x="669" y="-7" font-family="Helvetica,sans-Serif" font-size="10.00">func_800CBBE8</text>
</a>
</g>
</g>
<!-- Node13&#45;&gt;Node17 -->
<g id="edge19_Node000013_Node000017" class="edge">
<title>Node13&#45;&gt;Node17</title>
<g id="a_edge19_Node000013_Node000017"><a xlink:title=" ">
<path fill="none" stroke="#63b8ff" d="M556.63,-36.97C575.8,-32.24 599.16,-26.48 619.52,-21.46"/>
<polygon fill="#63b8ff" stroke="#63b8ff" points="620.37,-24.85 629.24,-19.06 618.69,-18.06 620.37,-24.85"/>
</a>
</g>
</g>
<!-- Node15 -->
<g id="Node000015" class="node">
<title>Node15</title>
<g id="a_Node000015"><a xlink:href="external_8c.html#a358ac55e8ab5262dcae8037334be06d7" target="_top" xlink:title=" ">
<polygon fill="white" stroke="#666666" points="867.5,-93 775.5,-93 775.5,-74 867.5,-74 867.5,-93"/>
<text text-anchor="middle" x="821.5" y="-81" font-family="Helvetica,sans-Serif" font-size="10.00">func_800C40F0</text>
</a>
</g>
</g>
<!-- Node14&#45;&gt;Node15 -->
<g id="edge17_Node000014_Node000015" class="edge">
<title>Node14&#45;&gt;Node15</title>
<g id="a_edge17_Node000014_Node000015"><a xlink:title=" ">
<path fill="none" stroke="#63b8ff" d="M739.08,-83.5C747.87,-83.5 756.78,-83.5 765.31,-83.5"/>
<polygon fill="#63b8ff" stroke="#63b8ff" points="765.5,-87 775.5,-83.5 765.5,-80 765.5,-87"/>
</a>
</g>
</g>
<!-- Node18 -->
<g id="Node000018" class="node">
<title>Node18</title>
<g id="a_Node000018"><a xlink:href="port__eu_8c.html#af361a20d2e08f30c53a237ca481ff734" target="_top" xlink:title=" ">
<polygon fill="white" stroke="#666666" points="868,-19 775,-19 775,0 868,0 868,-19"/>
<text text-anchor="middle" x="821.5" y="-7" font-family="Helvetica,sans-Serif" font-size="10.00">func_800CBB48</text>
</a>
</g>
</g>
<!-- Node17&#45;&gt;Node18 -->
<g id="edge20_Node000017_Node000018" class="edge">
<title>Node17&#45;&gt;Node18</title>
<g id="a_edge20_Node000017_Node000018"><a xlink:title=" ">
<path fill="none" stroke="#63b8ff" d="M715.56,-9.5C730.96,-9.5 748.34,-9.5 764.46,-9.5"/>
<polygon fill="#63b8ff" stroke="#63b8ff" points="764.83,-13 774.83,-9.5 764.83,-6 764.83,-13"/>
</a>
</g>
</g>
<!-- Node21&#45;&gt;Node5 -->
<g id="edge24_Node000021_Node000005" class="edge">
<title>Node21&#45;&gt;Node5</title>
<g id="a_edge24_Node000021_Node000005"><a xlink:title=" ">
<path fill="none" stroke="#63b8ff" d="M373.91,-204.05C394.18,-217.33 433.52,-240.72 471,-249.5 522.01,-261.44 582.5,-259.1 622.87,-255.28"/>
<polygon fill="#63b8ff" stroke="#63b8ff" points="623.34,-258.75 632.93,-254.26 622.63,-251.79 623.34,-258.75"/>
</a>
</g>
</g>
<!-- Node23&#45;&gt;Node21 -->
<g id="edge27_Node000023_Node000021" class="edge">
<title>Node23&#45;&gt;Node21</title>
<g id="a_edge27_Node000023_Node000021"><a xlink:title=" ">
<path fill="none" stroke="#63b8ff" d="M229.1,-164.08C252.69,-169.65 282.6,-176.71 307.67,-182.62"/>
<polygon fill="#63b8ff" stroke="#63b8ff" points="307.2,-186.11 317.73,-185 308.8,-179.29 307.2,-186.11"/>
</a>
</g>
</g>
</g>
</svg>

<g id="navigator" transform="translate(0 0)" fill="#404254">
  <rect fill="#f2f5e9" fill-opacity="0.5" stroke="#606060" stroke-width=".5" x="0" y="0" width="60" height="60"/>
  <use id="zoomplus" xlink:href="#zoomPlus" x="17" y="9" onmousedown="handleZoom(evt,'in')"/>
  <use id="zoomminus" xlink:href="#zoomMin" x="42" y="9" onmousedown="handleZoom(evt,'out')"/>
  <use id="reset" xlink:href="#resetDef" x="30" y="36" onmousedown="handleReset()"/>
   <use id="arrowup" xlink:href="#arrowUp" x="0" y="0" onmousedown="handlePan(0,-1)"/>
  <use id="arrowright" xlink:href="#arrowRight" x="0" y="0" onmousedown="handlePan(1,0)"/>
  <use id="arrowdown" xlink:href="#arrowDown" x="0" y="0" onmousedown="handlePan(0,1)"/>
  <use id="arrowleft" xlink:href="#arrowLeft" x="0" y="0" onmousedown="handlePan(-1,0)"/>
</g>
<svg viewBox="0 0 15 15" width="100%" height="30px" preserveAspectRatio="xMaxYMin meet">
 <g id="arrow_out" transform="scale(0.3 0.3)">
  <a xlink:href="actors_8h_a4aa821cb910863c04189f6ff3ef5fcdd_cgraph_org.svg" target="_base">
   <rect id="button" ry="5" rx="5" y="6" x="6" height="38" width="38"
        fill="#f2f5e9" fill-opacity="0.5" stroke="#606060" stroke-width="1.0"/>
   <path id="arrow"
     d="M 11.500037,31.436501 C 11.940474,20.09759 22.043105,11.32322 32.158766,21.979434 L 37.068811,17.246167 C 37.068811,17.246167 37.088388,32 37.088388,32 L 22.160133,31.978069 C 22.160133,31.978069 26.997745,27.140456 26.997745,27.140456 C 18.528582,18.264221 13.291696,25.230495 11.500037,31.436501 z"
     style="fill:#404040;"/>
  </a>
 </g>
</svg>

<style type='text/css'>
<![CDATA[
[data-mouse-over-selected='false'] { opacity: 0.7; }
[data-mouse-over-selected='true']  { opacity: 1.0; }
]]>
</style>
<script type="application/ecmascript"><![CDATA[
document.addEventListener('DOMContentLoaded', (event) => {
  highlightEdges();
  highlightAdjacentNodes();
});
]]></script>
</svg>
