<?xml version="1.0" encoding="UTF-8" standalone="no"?>
<!DOCTYPE svg PUBLIC "-//W3C//DTD SVG 1.1//EN"
 "http://www.w3.org/Graphics/SVG/1.1/DTD/svg11.dtd">
<!-- Generated by graphviz version 2.43.0 (0)
 -->
<!-- Title: is_collide_and_apply Pages: 1 -->
<svg width="1468pt" height="150pt"
 viewBox="0.00 0.00 1468.00 149.50" xmlns="http://www.w3.org/2000/svg" xmlns:xlink="http://www.w3.org/1999/xlink">
<g id="graph0" class="graph" transform="scale(1 1) rotate(0) translate(4 145.5)">
<title>is_collide_and_apply</title>
<!-- Node1 -->
<g id="Node000001" class="node">
<title>Node1</title>
<g id="a_Node000001"><a xlink:title=" ">
<polygon fill="#999999" stroke="#666666" points="1460,-85.5 1342,-85.5 1342,-66.5 1460,-66.5 1460,-85.5"/>
<text text-anchor="middle" x="1401" y="-73.5" font-family="Helvetica,sans-Serif" font-size="10.00">is_collide_and_apply</text>
</a>
</g>
</g>
<!-- Node2 -->
<g id="Node000002" class="node">
<title>Node2</title>
<g id="a_Node000002"><a xlink:href="actors_8c.html#a521e1559ccc69c0373aacf8108ffc70e" target="_top" xlink:title=" ">
<polygon fill="white" stroke="#666666" points="1299.5,-141.5 1191.5,-141.5 1191.5,-122.5 1299.5,-122.5 1299.5,-141.5"/>
<text text-anchor="middle" x="1245.5" y="-129.5" font-family="Helvetica,sans-Serif" font-size="10.00">collide_mario_sign</text>
</a>
</g>
</g>
<!-- Node1&#45;&gt;Node2 -->
<g id="edge1_Node000001_Node000002" class="edge">
<title>Node1&#45;&gt;Node2</title>
<g id="a_edge1_Node000001_Node000002"><a xlink:title=" ">
<path fill="none" stroke="#63b8ff" d="M1368.32,-89.64C1350.22,-97.22 1327.01,-106.59 1306,-114 1297.65,-116.94 1288.55,-119.85 1280.03,-122.44"/>
<polygon fill="#63b8ff" stroke="#63b8ff" points="1369.95,-92.75 1377.81,-85.63 1367.23,-86.3 1369.95,-92.75"/>
</a>
</g>
</g>
<!-- Node11 -->
<g id="Node000011" class="node">
<title>Node11</title>
<g id="a_Node000011"><a xlink:href="actors_8c.html#a967249b32b0a686ff3c3cf91c7572896" target="_top" xlink:title=" ">
<polygon fill="white" stroke="#666666" points="1306,-104.5 1185,-104.5 1185,-85.5 1306,-85.5 1306,-104.5"/>
<text text-anchor="middle" x="1245.5" y="-92.5" font-family="Helvetica,sans-Serif" font-size="10.00">collide_piranha_plant</text>
</a>
</g>
</g>
<!-- Node1&#45;&gt;Node11 -->
<g id="edge10_Node000001_Node000011" class="edge">
<title>Node1&#45;&gt;Node11</title>
<g id="a_edge10_Node000001_Node000011"><a xlink:title=" ">
<path fill="none" stroke="#63b8ff" d="M1331.96,-84.42C1323.36,-85.49 1314.61,-86.57 1306.15,-87.62"/>
<polygon fill="#63b8ff" stroke="#63b8ff" points="1332.47,-87.89 1341.97,-83.18 1331.61,-80.94 1332.47,-87.89"/>
</a>
</g>
</g>
<!-- Node12 -->
<g id="Node000012" class="node">
<title>Node12</title>
<g id="a_Node000012"><a xlink:href="actors_8c.html#af5a55f197872c082b12f5d080bdb0818" target="_top" xlink:title=" ">
<polygon fill="white" stroke="#666666" points="1291.5,-67.5 1199.5,-67.5 1199.5,-48.5 1291.5,-48.5 1291.5,-67.5"/>
<text text-anchor="middle" x="1245.5" y="-55.5" font-family="Helvetica,sans-Serif" font-size="10.00">func_80298AC0</text>
</a>
</g>
</g>
<!-- Node1&#45;&gt;Node12 -->
<g id="edge12_Node000001_Node000012" class="edge">
<title>Node1&#45;&gt;Node12</title>
<g id="a_edge12_Node000001_Node000012"><a xlink:title=" ">
<path fill="none" stroke="#63b8ff" d="M1331.7,-67.99C1318.15,-66.4 1304.24,-64.77 1291.69,-63.3"/>
<polygon fill="#63b8ff" stroke="#63b8ff" points="1331.63,-71.51 1341.97,-69.19 1332.44,-64.55 1331.63,-71.51"/>
</a>
</g>
</g>
<!-- Node17 -->
<g id="Node000017" class="node">
<title>Node17</title>
<g id="a_Node000017"><a xlink:href="actors_8c.html#addde1681b703bfc5db3a6ceac323ae43" target="_top" xlink:title=" ">
<polygon fill="white" stroke="#666666" points="1302,-30 1189,-30 1189,0 1302,0 1302,-30"/>
<text text-anchor="start" x="1197" y="-18" font-family="Helvetica,sans-Serif" font-size="10.00">proto_loading_actor</text>
<text text-anchor="middle" x="1245.5" y="-7" font-family="Helvetica,sans-Serif" font-size="10.00">_spawn_data</text>
</a>
</g>
</g>
<!-- Node1&#45;&gt;Node17 -->
<g id="edge19_Node000001_Node000017" class="edge">
<title>Node1&#45;&gt;Node17</title>
<g id="a_edge19_Node000001_Node000017"><a xlink:title=" ">
<path fill="none" stroke="#63b8ff" d="M1366.53,-62.7C1342.3,-53.07 1309.53,-40.05 1284.35,-30.04"/>
<polygon fill="#63b8ff" stroke="#63b8ff" points="1365.43,-66.03 1376.02,-66.47 1368.02,-59.52 1365.43,-66.03"/>
</a>
</g>
</g>
<!-- Node3 -->
<g id="Node000003" class="node">
<title>Node3</title>
<g id="a_Node000003"><a xlink:href="actors_8c.html#a5d0cc071261caa5b76190cfee9c90189" target="_top" xlink:title=" ">
<polygon fill="white" stroke="#666666" points="1149,-104.5 1057,-104.5 1057,-85.5 1149,-85.5 1149,-104.5"/>
<text text-anchor="middle" x="1103" y="-92.5" font-family="Helvetica,sans-Serif" font-size="10.00">func_802A0450</text>
</a>
</g>
</g>
<!-- Node2&#45;&gt;Node3 -->
<g id="edge2_Node000002_Node000003" class="edge">
<title>Node2&#45;&gt;Node3</title>
<g id="a_edge2_Node000002_Node000003"><a xlink:title=" ">
<path fill="none" stroke="#63b8ff" d="M1198.48,-119.88C1179.68,-114.93 1158.24,-109.28 1140.55,-104.62"/>
<polygon fill="#63b8ff" stroke="#63b8ff" points="1197.76,-123.31 1208.32,-122.47 1199.54,-116.54 1197.76,-123.31"/>
</a>
</g>
</g>
<!-- Node4 -->
<g id="Node000004" class="node">
<title>Node4</title>
<g id="a_Node000004"><a xlink:href="actors_8c.html#ad37e739a6957be6a447d5a26574710cc" target="_top" xlink:title=" ">
<polygon fill="white" stroke="#666666" points="1021,-104.5 880,-104.5 880,-85.5 1021,-85.5 1021,-104.5"/>
<text text-anchor="middle" x="950.5" y="-92.5" font-family="Helvetica,sans-Serif" font-size="10.00">evaluate_player_collision</text>
</a>
</g>
</g>
<!-- Node3&#45;&gt;Node4 -->
<g id="edge3_Node000003_Node000004" class="edge">
<title>Node3&#45;&gt;Node4</title>
<g id="a_edge3_Node000003_Node000004"><a xlink:title=" ">
<path fill="none" stroke="#63b8ff" d="M1046.57,-95C1038.28,-95 1029.66,-95 1021.12,-95"/>
<polygon fill="#63b8ff" stroke="#63b8ff" points="1046.85,-98.5 1056.85,-95 1046.85,-91.5 1046.85,-98.5"/>
</a>
</g>
</g>
<!-- Node5 -->
<g id="Node000005" class="node">
<title>Node5</title>
<g id="a_Node000005"><a xlink:href="main_8c.html#afff87ffcbfee4f1f37d443110aa7b52a" target="_top" xlink:title=" ">
<polygon fill="white" stroke="#666666" points="844,-104.5 752,-104.5 752,-85.5 844,-85.5 844,-104.5"/>
<text text-anchor="middle" x="798" y="-92.5" font-family="Helvetica,sans-Serif" font-size="10.00">race_logic_loop</text>
</a>
</g>
</g>
<!-- Node4&#45;&gt;Node5 -->
<g id="edge4_Node000004_Node000005" class="edge">
<title>Node4&#45;&gt;Node5</title>
<g id="a_edge4_Node000004_Node000005"><a xlink:title=" ">
<path fill="none" stroke="#63b8ff" d="M869.98,-95C861.12,-95 852.35,-95 844.15,-95"/>
<polygon fill="#63b8ff" stroke="#63b8ff" points="869.98,-98.5 879.98,-95 869.98,-91.5 869.98,-98.5"/>
</a>
</g>
</g>
<!-- Node6 -->
<g id="Node000006" class="node">
<title>Node6</title>
<g id="a_Node000006"><a xlink:href="main_8c.html#ae04143ce8113cdafa007c642eb620bc8" target="_top" xlink:title=" ">
<polygon fill="white" stroke="#666666" points="604,-86.5 488,-86.5 488,-67.5 604,-67.5 604,-86.5"/>
<text text-anchor="middle" x="546" y="-74.5" font-family="Helvetica,sans-Serif" font-size="10.00">game_state_handler</text>
</a>
</g>
</g>
<!-- Node5&#45;&gt;Node6 -->
<g id="edge5_Node000005_Node000006" class="edge">
<title>Node5&#45;&gt;Node6</title>
<g id="a_edge5_Node000005_Node000006"><a xlink:title=" ">
<path fill="none" stroke="#63b8ff" d="M741.68,-91.02C700.87,-88.08 645.5,-84.09 604.24,-81.12"/>
<polygon fill="#63b8ff" stroke="#63b8ff" points="741.5,-94.51 751.73,-91.74 742,-87.53 741.5,-94.51"/>
</a>
</g>
</g>
<!-- Node7 -->
<g id="Node000007" class="node">
<title>Node7</title>
<g id="a_Node000007"><a xlink:href="main_8c.html#a633ed517e458daeb768f5361895dcac9" target="_top" xlink:title=" ">
<polygon fill="white" stroke="#666666" points="452,-86.5 339,-86.5 339,-67.5 452,-67.5 452,-86.5"/>
<text text-anchor="middle" x="395.5" y="-74.5" font-family="Helvetica,sans-Serif" font-size="10.00">thread5_game_loop</text>
</a>
</g>
</g>
<!-- Node6&#45;&gt;Node7 -->
<g id="edge6_Node000006_Node000007" class="edge">
<title>Node6&#45;&gt;Node7</title>
<g id="a_edge6_Node000006_Node000007"><a xlink:title=" ">
<path fill="none" stroke="#63b8ff" d="M477.42,-77C469.02,-77 460.5,-77 452.3,-77"/>
<polygon fill="#63b8ff" stroke="#63b8ff" points="477.59,-80.5 487.59,-77 477.59,-73.5 477.59,-80.5"/>
</a>
</g>
</g>
<!-- Node8 -->
<g id="Node000008" class="node">
<title>Node8</title>
<g id="a_Node000008"><a xlink:href="main_8c.html#a023b8f272e4efbd33f371e91ffff6b30" target="_top" xlink:title=" ">
<polygon fill="white" stroke="#666666" points="303,-86.5 217,-86.5 217,-67.5 303,-67.5 303,-86.5"/>
<text text-anchor="middle" x="260" y="-74.5" font-family="Helvetica,sans-Serif" font-size="10.00">thread3_video</text>
</a>
</g>
</g>
<!-- Node7&#45;&gt;Node8 -->
<g id="edge7_Node000007_Node000008" class="edge">
<title>Node7&#45;&gt;Node8</title>
<g id="a_edge7_Node000007_Node000008"><a xlink:title=" ">
<path fill="none" stroke="#63b8ff" d="M328.57,-77C319.94,-77 311.3,-77 303.21,-77"/>
<polygon fill="#63b8ff" stroke="#63b8ff" points="328.66,-80.5 338.66,-77 328.66,-73.5 328.66,-80.5"/>
</a>
</g>
</g>
<!-- Node9 -->
<g id="Node000009" class="node">
<title>Node9</title>
<g id="a_Node000009"><a xlink:href="main_8c.html#a1e35d2b842121e6aea373f09381616e5" target="_top" xlink:title=" ">
<polygon fill="white" stroke="#666666" points="181,-86.5 104,-86.5 104,-67.5 181,-67.5 181,-86.5"/>
<text text-anchor="middle" x="142.5" y="-74.5" font-family="Helvetica,sans-Serif" font-size="10.00">thread1_idle</text>
</a>
</g>
</g>
<!-- Node8&#45;&gt;Node9 -->
<g id="edge8_Node000008_Node000009" class="edge">
<title>Node8&#45;&gt;Node9</title>
<g id="a_edge8_Node000008_Node000009"><a xlink:title=" ">
<path fill="none" stroke="#63b8ff" d="M206.9,-77C198.2,-77 189.33,-77 181.09,-77"/>
<polygon fill="#63b8ff" stroke="#63b8ff" points="206.98,-80.5 216.98,-77 206.98,-73.5 206.98,-80.5"/>
</a>
</g>
</g>
<!-- Node10 -->
<g id="Node000010" class="node">
<title>Node10</title>
<g id="a_Node000010"><a xlink:href="main_8c.html#a4f87d43525fe95f60ea92bc8a3b70e62" target="_top" xlink:title=" ">
<polygon fill="white" stroke="#666666" points="68,-86.5 0,-86.5 0,-67.5 68,-67.5 68,-86.5"/>
<text text-anchor="middle" x="34" y="-74.5" font-family="Helvetica,sans-Serif" font-size="10.00">main_func</text>
</a>
</g>
</g>
<!-- Node9&#45;&gt;Node10 -->
<g id="edge9_Node000009_Node000010" class="edge">
<title>Node9&#45;&gt;Node10</title>
<g id="a_edge9_Node000009_Node000010"><a xlink:title=" ">
<path fill="none" stroke="#63b8ff" d="M93.95,-77C85.29,-77 76.44,-77 68.31,-77"/>
<polygon fill="#63b8ff" stroke="#63b8ff" points="93.95,-80.5 103.95,-77 93.95,-73.5 93.95,-80.5"/>
</a>
</g>
</g>
<!-- Node11&#45;&gt;Node3 -->
<g id="edge11_Node000011_Node000003" class="edge">
<title>Node11&#45;&gt;Node3</title>
<g id="a_edge11_Node000011_Node000003"><a xlink:title=" ">
<path fill="none" stroke="#63b8ff" d="M1174.75,-95C1166.06,-95 1157.36,-95 1149.18,-95"/>
<polygon fill="#63b8ff" stroke="#63b8ff" points="1174.92,-98.5 1184.92,-95 1174.92,-91.5 1174.92,-98.5"/>
</a>
</g>
</g>
<!-- Node13 -->
<g id="Node000013" class="node">
<title>Node13</title>
<g id="a_Node000013"><a xlink:href="actors_8c.html#a21d766a5cb742ae93ee4c321be195503" target="_top" xlink:title=" ">
<polygon fill="white" stroke="#666666" points="1149,-67.5 1057,-67.5 1057,-48.5 1149,-48.5 1149,-67.5"/>
<text text-anchor="middle" x="1103" y="-55.5" font-family="Helvetica,sans-Serif" font-size="10.00">func_80298C94</text>
</a>
</g>
</g>
<!-- Node12&#45;&gt;Node13 -->
<g id="edge13_Node000012_Node000013" class="edge">
<title>Node12&#45;&gt;Node13</title>
<g id="a_edge13_Node000012_Node000013"><a xlink:title=" ">
<path fill="none" stroke="#63b8ff" d="M1188.89,-58C1175.7,-58 1161.8,-58 1149.14,-58"/>
<polygon fill="#63b8ff" stroke="#63b8ff" points="1189.27,-61.5 1199.27,-58 1189.27,-54.5 1189.27,-61.5"/>
</a>
</g>
</g>
<!-- Node14 -->
<g id="Node000014" class="node">
<title>Node14</title>
<g id="a_Node000014"><a xlink:href="render__courses_8c.html#a428cc27389999396856d940f3c74b2bc" target="_top" xlink:title=" ">
<polygon fill="white" stroke="#666666" points="996.5,-67.5 904.5,-67.5 904.5,-48.5 996.5,-48.5 996.5,-67.5"/>
<text text-anchor="middle" x="950.5" y="-55.5" font-family="Helvetica,sans-Serif" font-size="10.00">func_802966A0</text>
</a>
</g>
</g>
<!-- Node13&#45;&gt;Node14 -->
<g id="edge14_Node000013_Node000014" class="edge">
<title>Node13&#45;&gt;Node14</title>
<g id="a_edge14_Node000013_Node000014"><a xlink:title=" ">
<path fill="none" stroke="#63b8ff" d="M1046.78,-58C1030.28,-58 1012.39,-58 996.62,-58"/>
<polygon fill="#63b8ff" stroke="#63b8ff" points="1046.85,-61.5 1056.85,-58 1046.85,-54.5 1046.85,-61.5"/>
</a>
</g>
</g>
<!-- Node14&#45;&gt;Node5 -->
<g id="edge18_Node000014_Node000005" class="edge">
<title>Node14&#45;&gt;Node5</title>
<g id="a_edge18_Node000014_Node000005"><a xlink:title=" ">
<path fill="none" stroke="#63b8ff" d="M900.99,-69.93C880.58,-74.94 857.14,-80.71 837.89,-85.44"/>
<polygon fill="#63b8ff" stroke="#63b8ff" points="901.87,-73.31 910.74,-67.53 900.2,-66.52 901.87,-73.31"/>
</a>
</g>
</g>
<!-- Node15 -->
<g id="Node000015" class="node">
<title>Node15</title>
<g id="a_Node000015"><a xlink:href="code__80280000_8c.html#a4d9b0156b64d7a67e4cb21cde391ca43" target="_top" xlink:title=" ">
<polygon fill="white" stroke="#666666" points="843.5,-67.5 752.5,-67.5 752.5,-48.5 843.5,-48.5 843.5,-67.5"/>
<text text-anchor="middle" x="798" y="-55.5" font-family="Helvetica,sans-Serif" font-size="10.00">func_80280000</text>
</a>
</g>
</g>
<!-- Node14&#45;&gt;Node15 -->
<g id="edge15_Node000014_Node000015" class="edge">
<title>Node14&#45;&gt;Node15</title>
<g id="a_edge15_Node000014_Node000015"><a xlink:title=" ">
<path fill="none" stroke="#63b8ff" d="M894.19,-58C877.53,-58 859.47,-58 843.6,-58"/>
<polygon fill="#63b8ff" stroke="#63b8ff" points="894.35,-61.5 904.35,-58 894.35,-54.5 894.35,-61.5"/>
</a>
</g>
</g>
<!-- Node16 -->
<g id="Node000016" class="node">
<title>Node16</title>
<g id="a_Node000016"><a xlink:href="code__80280000_8c.html#aa28a69be4eda3b8667366c6c7b556024" target="_top" xlink:title=" ">
<polygon fill="white" stroke="#666666" points="716,-67.5 640,-67.5 640,-48.5 716,-48.5 716,-67.5"/>
<text text-anchor="middle" x="678" y="-55.5" font-family="Helvetica,sans-Serif" font-size="10.00">credits_loop</text>
</a>
</g>
</g>
<!-- Node15&#45;&gt;Node16 -->
<g id="edge16_Node000015_Node000016" class="edge">
<title>Node15&#45;&gt;Node16</title>
<g id="a_edge16_Node000015_Node000016"><a xlink:title=" ">
<path fill="none" stroke="#63b8ff" d="M742.22,-58C733.46,-58 724.59,-58 716.36,-58"/>
<polygon fill="#63b8ff" stroke="#63b8ff" points="742.39,-61.5 752.39,-58 742.39,-54.5 742.39,-61.5"/>
</a>
</g>
</g>
<!-- Node16&#45;&gt;Node6 -->
<g id="edge17_Node000016_Node000006" class="edge">
<title>Node16&#45;&gt;Node6</title>
<g id="a_edge17_Node000016_Node000006"><a xlink:title=" ">
<path fill="none" stroke="#63b8ff" d="M629.83,-64.89C621.49,-66.11 612.72,-67.39 604.14,-68.65"/>
<polygon fill="#63b8ff" stroke="#63b8ff" points="630.36,-68.35 639.75,-63.44 629.35,-61.43 630.36,-68.35"/>
</a>
</g>
</g>
</g>
</svg>
