<?xml version="1.0" encoding="UTF-8" standalone="no"?>
<!DOCTYPE svg PUBLIC "-//W3C//DTD SVG 1.1//EN"
 "http://www.w3.org/Graphics/SVG/1.1/DTD/svg11.dtd">
<!-- Generated by graphviz version 2.43.0 (0)
 -->
<!-- Title: func_802B3E7C Pages: 1 -->
<!--zoomable 340 -->

<svg id="main" version="1.1" xmlns="http://www.w3.org/2000/svg" xmlns:xlink="http://www.w3.org/1999/xlink" xml:space="preserve" onload="init(evt)">
<style type="text/css"><![CDATA[
.node, .edge {opacity: 0.7;}
.node.selected, .edge.selected {opacity: 1;}
.edge:hover path { stroke: red; }
.edge:hover polygon { stroke: red; fill: red; }
]]></style>

<defs>
  <circle id="rim" cx="0" cy="0" r="7"/>
  <circle id="rim2" cx="0" cy="0" r="3.5"/>
  <g id="zoomPlus">
    <use xlink:href="#rim" fill="#404040"><set attributeName="fill" to="#808080" begin="zoomplus.mouseover" end="zoomplus.mouseout"/></use>
    <path d="M-4,0h8M0,-4v8" fill="none" stroke="white" stroke-width="1.5" pointer-events="none"/>
  </g>
  <g id="zoomMin">
    <use xlink:href="#rim" fill="#404040"><set attributeName="fill" to="#808080" begin="zoomminus.mouseover" end="zoomminus.mouseout"/></use>
    <path d="M-4,0h8" fill="none" stroke="white" stroke-width="1.5" pointer-events="none"/>
  </g>
  <g id="arrowUp" transform="translate(30 24)">
    <use xlink:href="#rim"/>
    <path pointer-events="none" fill="none" stroke="white" stroke-width="1.5" d="M0,-3.0v7 M-2.5,-0.5L0,-3.0L2.5,-0.5"/>
  </g>
  <g id="arrowRight" transform="rotate(90) translate(36 -43)">
    <use xlink:href="#rim"/>
    <path pointer-events="none" fill="none" stroke="white" stroke-width="1.5" d="M0,-3.0v7 M-2.5,-0.5L0,-3.0L2.5,-0.5"/>
  </g>
  <g id="arrowDown" transform="rotate(180) translate(-30 -48)">
    <use xlink:href="#rim"/>
    <path pointer-events="none" fill="none" stroke="white" stroke-width="1.5" d="M0,-3.0v7 M-2.5,-0.5L0,-3.0L2.5,-0.5"/>
  </g>
  <g id="arrowLeft" transform="rotate(270) translate(-36 17)">
    <use xlink:href="#rim"/>
    <path pointer-events="none" fill="none" stroke="white" stroke-width="1.5" d="M0,-3.0v7 M-2.5,-0.5L0,-3.0L2.5,-0.5"/>
  </g>
  <g id="resetDef">
    <use xlink:href="#rim2" fill="#404040"><set attributeName="fill" to="#808080" begin="reset.mouseover" end="reset.mouseout"/></use>
  </g>
</defs>
<script type="application/ecmascript">
var viewWidth = 1142;
var viewHeight = 340;
var sectionId = 'dynsection-22';
</script>
<script type="application/ecmascript" xlink:href="svg.min.js"/>
<svg id="graph" class="graph">
<g id="viewport">
<title>func_802B3E7C</title>
<!-- Node1 -->
<g id="Node000001" class="node">
<title>Node1</title>
<g id="a_Node000001"><a xlink:title=" ">
<polygon fill="#999999" stroke="#666666" points="92,-168 0,-168 0,-149 92,-149 92,-168"/>
<text text-anchor="middle" x="46" y="-156" font-family="Helvetica,sans-Serif" font-size="10.00">func_802B3E7C</text>
</a>
</g>
</g>
<!-- Node2 -->
<g id="Node000002" class="node">
<title>Node2</title>
<g id="a_Node000002"><a xlink:href="actors_8c.html#a53268aa601911d56424ff08fb3395bcb" target="_top" xlink:title=" ">
<polygon fill="white" stroke="#666666" points="388,-170.5 269,-170.5 269,-140.5 388,-140.5 388,-170.5"/>
<text text-anchor="start" x="277" y="-158.5" font-family="Helvetica,sans-Serif" font-size="10.00">destroy_destructable</text>
<text text-anchor="middle" x="328.5" y="-147.5" font-family="Helvetica,sans-Serif" font-size="10.00">_actor</text>
</a>
</g>
</g>
<!-- Node1&#45;&gt;Node2 -->
<g id="edge1_Node000001_Node000002" class="edge">
<title>Node1&#45;&gt;Node2</title>
<g id="a_edge1_Node000001_Node000002"><a xlink:title=" ">
<path fill="none" stroke="#63b8ff" d="M92.07,-158.02C137.07,-157.54 206.84,-156.79 258.76,-156.24"/>
<polygon fill="#63b8ff" stroke="#63b8ff" points="258.93,-159.73 268.9,-156.13 258.86,-152.73 258.93,-159.73"/>
</a>
</g>
</g>
<!-- Node21 -->
<g id="Node000021" class="node">
<title>Node21</title>
<g id="a_Node000021"><a xlink:href="collision_8c.html#a0724869c38f177efa5357ac2205857d4" target="_top" xlink:title=" ">
<polygon fill="white" stroke="#666666" points="221,-268 128,-268 128,-249 221,-249 221,-268"/>
<text text-anchor="middle" x="174.5" y="-256" font-family="Helvetica,sans-Serif" font-size="10.00">func_802AD950</text>
</a>
</g>
</g>
<!-- Node1&#45;&gt;Node21 -->
<g id="edge23_Node000001_Node000021" class="edge">
<title>Node1&#45;&gt;Node21</title>
<g id="a_edge23_Node000001_Node000021"><a xlink:title=" ">
<path fill="none" stroke="#63b8ff" d="M59.13,-168.09C80.89,-185.29 126.77,-221.56 153.33,-242.56"/>
<polygon fill="#63b8ff" stroke="#63b8ff" points="151.21,-245.34 161.22,-248.79 155.55,-239.85 151.21,-245.34"/>
</a>
</g>
</g>
<!-- Node25 -->
<g id="Node000025" class="node">
<title>Node25</title>
<g id="a_Node000025"><a xlink:href="blue__and__red__shells_2update_8inc_8c.html#a334de9136224947ca20e7d31fb009a82" target="_top" xlink:title=" ">
<polygon fill="white" stroke="#666666" points="220.5,-206 128.5,-206 128.5,-187 220.5,-187 220.5,-206"/>
<text text-anchor="middle" x="174.5" y="-194" font-family="Helvetica,sans-Serif" font-size="10.00">func_802B4104</text>
</a>
</g>
</g>
<!-- Node1&#45;&gt;Node25 -->
<g id="edge27_Node000001_Node000025" class="edge">
<title>Node1&#45;&gt;Node25</title>
<g id="a_edge27_Node000001_Node000025"><a xlink:title=" ">
<path fill="none" stroke="#63b8ff" d="M78.92,-168.09C94.95,-172.9 114.57,-178.8 131.78,-183.97"/>
<polygon fill="#63b8ff" stroke="#63b8ff" points="131,-187.39 141.59,-186.91 133.02,-180.69 131,-187.39"/>
</a>
</g>
</g>
<!-- Node27 -->
<g id="Node000027" class="node">
<title>Node27</title>
<g id="a_Node000027"><a xlink:href="actors__extended_8c.html#a78e98c146f1f4dd6e3608016486172a4" target="_top" xlink:title=" ">
<polygon fill="white" stroke="#666666" points="220.5,-130 128.5,-130 128.5,-111 220.5,-111 220.5,-130"/>
<text text-anchor="middle" x="174.5" y="-118" font-family="Helvetica,sans-Serif" font-size="10.00">func_802B4E30</text>
</a>
</g>
</g>
<!-- Node1&#45;&gt;Node27 -->
<g id="edge31_Node000001_Node000027" class="edge">
<title>Node1&#45;&gt;Node27</title>
<g id="a_edge31_Node000001_Node000027"><a xlink:title=" ">
<path fill="none" stroke="#63b8ff" d="M78.92,-148.91C94.95,-144.1 114.57,-138.2 131.78,-133.03"/>
<polygon fill="#63b8ff" stroke="#63b8ff" points="133.02,-136.31 141.59,-130.09 131,-129.61 133.02,-136.31"/>
</a>
</g>
</g>
<!-- Node28 -->
<g id="Node000028" class="node">
<title>Node28</title>
<g id="a_Node000028"><a xlink:href="math_8h.html#a37bde043e94a6f074c78f10518fb5d99" target="_top" xlink:title=" ">
<polygon fill="white" stroke="#666666" points="194,-93 155,-93 155,-74 194,-74 194,-93"/>
<text text-anchor="middle" x="174.5" y="-81" font-family="Helvetica,sans-Serif" font-size="10.00">sqrtf</text>
</a>
</g>
</g>
<!-- Node1&#45;&gt;Node28 -->
<g id="edge32_Node000001_Node000028" class="edge">
<title>Node1&#45;&gt;Node28</title>
<g id="a_edge32_Node000001_Node000028"><a xlink:title=" ">
<path fill="none" stroke="#63b8ff" d="M58.77,-148.87C74.03,-136.69 101.82,-115.63 128,-101.5 133.46,-98.55 139.51,-95.82 145.36,-93.43"/>
<polygon fill="#63b8ff" stroke="#63b8ff" points="146.84,-96.61 154.9,-89.72 144.31,-90.08 146.84,-96.61"/>
</a>
</g>
</g>
<!-- Node3 -->
<g id="Node000003" class="node">
<title>Node3</title>
<g id="a_Node000003"><a xlink:href="actors__extended_8c.html#a72ea66924941d84ae27c5e244e946842" target="_top" xlink:title=" ">
<polygon fill="white" stroke="#666666" points="572,-218.5 452,-218.5 452,-188.5 572,-188.5 572,-218.5"/>
<text text-anchor="start" x="460" y="-206.5" font-family="Helvetica,sans-Serif" font-size="10.00">destroy_a_banana_in</text>
<text text-anchor="middle" x="512" y="-195.5" font-family="Helvetica,sans-Serif" font-size="10.00">_bunch_banana</text>
</a>
</g>
</g>
<!-- Node2&#45;&gt;Node3 -->
<g id="edge2_Node000002_Node000003" class="edge">
<title>Node2&#45;&gt;Node3</title>
<g id="a_edge2_Node000002_Node000003"><a xlink:title=" ">
<path fill="none" stroke="#63b8ff" d="M386.43,-170.56C404.84,-175.43 425.43,-180.87 444.47,-185.91"/>
<polygon fill="#63b8ff" stroke="#63b8ff" points="443.71,-189.32 454.27,-188.5 445.5,-182.56 443.71,-189.32"/>
</a>
</g>
</g>
<!-- Node11 -->
<g id="Node000011" class="node">
<title>Node11</title>
<g id="a_Node000011"><a xlink:href="external_8c.html#a73831bcbe259500206651a0b4702be9f" target="_top" xlink:title=" ">
<polygon fill="white" stroke="#666666" points="558,-74 466,-74 466,-55 558,-55 558,-74"/>
<text text-anchor="middle" x="512" y="-62" font-family="Helvetica,sans-Serif" font-size="10.00">func_800C9EF4</text>
</a>
</g>
</g>
<!-- Node2&#45;&gt;Node11 -->
<g id="edge13_Node000002_Node000011" class="edge">
<title>Node2&#45;&gt;Node11</title>
<g id="a_edge13_Node000002_Node000011"><a xlink:title=" ">
<path fill="none" stroke="#63b8ff" d="M347.57,-140.38C367.87,-124.12 402.39,-98.56 436,-83.5 442.26,-80.7 449.01,-78.25 455.79,-76.14"/>
<polygon fill="#63b8ff" stroke="#63b8ff" points="457.08,-79.41 465.72,-73.28 455.14,-72.69 457.08,-79.41"/>
</a>
</g>
</g>
<!-- Node19 -->
<g id="Node000019" class="node">
<title>Node19</title>
<g id="a_Node000019"><a xlink:href="code__80005FD0_8c.html#acb7b3d384c78d219f4b7040e78f6a2f2" target="_top" xlink:title=" ">
<polygon fill="white" stroke="#666666" points="588,-122.5 436,-122.5 436,-92.5 588,-92.5 588,-122.5"/>
<text text-anchor="start" x="444" y="-110.5" font-family="Helvetica,sans-Serif" font-size="10.00">remove_actor_in_unexpired</text>
<text text-anchor="middle" x="512" y="-99.5" font-family="Helvetica,sans-Serif" font-size="10.00">_actor_list</text>
</a>
</g>
</g>
<!-- Node2&#45;&gt;Node19 -->
<g id="edge21_Node000002_Node000019" class="edge">
<title>Node2&#45;&gt;Node19</title>
<g id="a_edge21_Node000002_Node000019"><a xlink:title=" ">
<path fill="none" stroke="#63b8ff" d="M386.43,-140.44C404.84,-135.57 425.43,-130.13 444.47,-125.09"/>
<polygon fill="#63b8ff" stroke="#63b8ff" points="445.5,-128.44 454.27,-122.5 443.71,-121.68 445.5,-128.44"/>
</a>
</g>
</g>
<!-- Node20 -->
<g id="Node000020" class="node">
<title>Node20</title>
<g id="a_Node000020"><a xlink:href="actors__extended_8c.html#a1edd6e4f2545082e3782c4ce50933c7c" target="_top" xlink:title=" ">
<polygon fill="white" stroke="#666666" points="570,-170.5 454,-170.5 454,-140.5 570,-140.5 570,-170.5"/>
<text text-anchor="start" x="462" y="-158.5" font-family="Helvetica,sans-Serif" font-size="10.00">triple_shell_actor</text>
<text text-anchor="middle" x="512" y="-147.5" font-family="Helvetica,sans-Serif" font-size="10.00">_collide_with_player</text>
</a>
</g>
</g>
<!-- Node2&#45;&gt;Node20 -->
<g id="edge22_Node000002_Node000020" class="edge">
<title>Node2&#45;&gt;Node20</title>
<g id="a_edge22_Node000002_Node000020"><a xlink:title=" ">
<path fill="none" stroke="#63b8ff" d="M388.18,-155.5C405.83,-155.5 425.35,-155.5 443.53,-155.5"/>
<polygon fill="#63b8ff" stroke="#63b8ff" points="443.76,-159 453.76,-155.5 443.76,-152 443.76,-159"/>
</a>
</g>
</g>
<!-- Node4 -->
<g id="Node000004" class="node">
<title>Node4</title>
<g id="a_Node000004"><a xlink:href="external_8c.html#a2be9efc97a92e19d02aaee90d676acc1" target="_top" xlink:title=" ">
<polygon fill="white" stroke="#666666" points="716,-240 624,-240 624,-221 716,-221 716,-240"/>
<text text-anchor="middle" x="670" y="-228" font-family="Helvetica,sans-Serif" font-size="10.00">func_800C9060</text>
</a>
</g>
</g>
<!-- Node3&#45;&gt;Node4 -->
<g id="edge3_Node000003_Node000004" class="edge">
<title>Node3&#45;&gt;Node4</title>
<g id="a_edge3_Node000003_Node000004"><a xlink:title=" ">
<path fill="none" stroke="#63b8ff" d="M572.42,-213.78C586.01,-216.14 600.39,-218.63 613.79,-220.94"/>
<polygon fill="#63b8ff" stroke="#63b8ff" points="613.37,-224.42 623.82,-222.68 614.56,-217.53 613.37,-224.42"/>
</a>
</g>
</g>
<!-- Node6 -->
<g id="Node000006" class="node">
<title>Node6</title>
<g id="a_Node000006"><a xlink:href="actors__extended_8c.html#ab349562338ca47f2b524137864704d0e" target="_top" xlink:title=" ">
<polygon fill="white" stroke="#666666" points="716,-185 624,-185 624,-166 716,-166 716,-185"/>
<text text-anchor="middle" x="670" y="-173" font-family="Helvetica,sans-Serif" font-size="10.00">func_802B0464</text>
</a>
</g>
</g>
<!-- Node3&#45;&gt;Node6 -->
<g id="edge5_Node000003_Node000006" class="edge">
<title>Node3&#45;&gt;Node6</title>
<g id="a_edge5_Node000003_Node000006"><a xlink:title=" ">
<path fill="none" stroke="#63b8ff" d="M572.42,-192.83C586.01,-190.4 600.39,-187.81 613.79,-185.41"/>
<polygon fill="#63b8ff" stroke="#63b8ff" points="614.59,-188.82 623.82,-183.61 613.36,-181.93 614.59,-188.82"/>
</a>
</g>
</g>
<!-- Node10 -->
<g id="Node000010" class="node">
<title>Node10</title>
<g id="a_Node000010"><a xlink:href="actors__extended_8c.html#a2f342036a9e04bb583aa7cf9c08edae9" target="_top" xlink:title=" ">
<polygon fill="white" stroke="#666666" points="716,-130 624,-130 624,-111 716,-111 716,-130"/>
<text text-anchor="middle" x="670" y="-118" font-family="Helvetica,sans-Serif" font-size="10.00">func_802B04E8</text>
</a>
</g>
</g>
<!-- Node3&#45;&gt;Node10 -->
<g id="edge10_Node000003_Node000010" class="edge">
<title>Node3&#45;&gt;Node10</title>
<g id="a_edge10_Node000003_Node000010"><a xlink:title=" ">
<path fill="none" stroke="#63b8ff" d="M567.1,-188.49C574.27,-185.84 581.42,-182.84 588,-179.5 600.43,-173.19 629.05,-151.65 648.71,-136.43"/>
<polygon fill="#63b8ff" stroke="#63b8ff" points="651.03,-139.06 656.77,-130.16 646.73,-133.54 651.03,-139.06"/>
</a>
</g>
</g>
<!-- Node5 -->
<g id="Node000005" class="node">
<title>Node5</title>
<g id="a_Node000005"><a xlink:href="external_8c.html#a4227847f3da303aee53cf69d2760a595" target="_top" xlink:title=" ">
<polygon fill="white" stroke="#666666" points="858,-259 786,-259 786,-240 858,-240 858,-259"/>
<text text-anchor="middle" x="822" y="-247" font-family="Helvetica,sans-Serif" font-size="10.00">play_sound</text>
</a>
</g>
</g>
<!-- Node4&#45;&gt;Node5 -->
<g id="edge4_Node000004_Node000005" class="edge">
<title>Node4&#45;&gt;Node5</title>
<g id="a_edge4_Node000004_Node000005"><a xlink:title=" ">
<path fill="none" stroke="#63b8ff" d="M716,-236.2C734.79,-238.58 756.58,-241.34 775.43,-243.73"/>
<polygon fill="#63b8ff" stroke="#63b8ff" points="775.2,-247.23 785.56,-245.01 776.08,-240.28 775.2,-247.23"/>
</a>
</g>
</g>
<!-- Node6&#45;&gt;Node6 -->
<g id="edge9_Node000006_Node000006" class="edge">
<title>Node6&#45;&gt;Node6</title>
<g id="a_edge9_Node000006_Node000006"><a xlink:title=" ">
<path fill="none" stroke="#63b8ff" d="M646.57,-185.08C635.18,-193.73 642.98,-203 670,-203 687.73,-203 697.19,-199.01 698.37,-193.82"/>
<polygon fill="#63b8ff" stroke="#63b8ff" points="701.4,-192.06 693.43,-185.08 695.31,-195.51 701.4,-192.06"/>
</a>
</g>
</g>
<!-- Node7 -->
<g id="Node000007" class="node">
<title>Node7</title>
<g id="a_Node000007"><a xlink:href="actors__extended_8c.html#a093f702b462b6657ba7ab789941ef800" target="_top" xlink:title=" ">
<polygon fill="white" stroke="#666666" points="868,-157 776,-157 776,-138 868,-138 868,-157"/>
<text text-anchor="middle" x="822" y="-145" font-family="Helvetica,sans-Serif" font-size="10.00">func_802B039C</text>
</a>
</g>
</g>
<!-- Node6&#45;&gt;Node7 -->
<g id="edge6_Node000006_Node000007" class="edge">
<title>Node6&#45;&gt;Node7</title>
<g id="a_edge6_Node000006_Node000007"><a xlink:title=" ">
<path fill="none" stroke="#63b8ff" d="M716,-167.1C731.66,-164.18 749.39,-160.87 765.77,-157.81"/>
<polygon fill="#63b8ff" stroke="#63b8ff" points="766.58,-161.22 775.77,-155.94 765.3,-154.34 766.58,-161.22"/>
</a>
</g>
</g>
<!-- Node8 -->
<g id="Node000008" class="node">
<title>Node8</title>
<g id="a_Node000008"><a xlink:href="math__util_8c.html#a151b63b8adf9af7e4054b3b84bd226dc" target="_top" xlink:title=" ">
<polygon fill="white" stroke="#666666" points="1010.5,-157 938.5,-157 938.5,-138 1010.5,-138 1010.5,-157"/>
<text text-anchor="middle" x="974.5" y="-145" font-family="Helvetica,sans-Serif" font-size="10.00">random_int</text>
</a>
</g>
</g>
<!-- Node7&#45;&gt;Node8 -->
<g id="edge7_Node000007_Node000008" class="edge">
<title>Node7&#45;&gt;Node8</title>
<g id="a_edge7_Node000007_Node000008"><a xlink:title=" ">
<path fill="none" stroke="#63b8ff" d="M868.15,-147.5C887.15,-147.5 909.21,-147.5 928.21,-147.5"/>
<polygon fill="#63b8ff" stroke="#63b8ff" points="928.42,-151 938.42,-147.5 928.42,-144 928.42,-151"/>
</a>
</g>
</g>
<!-- Node9 -->
<g id="Node000009" class="node">
<title>Node9</title>
<g id="a_Node000009"><a xlink:href="math__util_8c.html#a062850863585005ad1d0a75d9ff70693" target="_top" xlink:title=" ">
<polygon fill="white" stroke="#666666" points="1134,-157 1057,-157 1057,-138 1134,-138 1134,-157"/>
<text text-anchor="middle" x="1095.5" y="-145" font-family="Helvetica,sans-Serif" font-size="10.00">random_u16</text>
</a>
</g>
</g>
<!-- Node8&#45;&gt;Node9 -->
<g id="edge8_Node000008_Node000009" class="edge">
<title>Node8&#45;&gt;Node9</title>
<g id="a_edge8_Node000008_Node000009"><a xlink:title=" ">
<path fill="none" stroke="#63b8ff" d="M1010.56,-147.5C1021.8,-147.5 1034.45,-147.5 1046.46,-147.5"/>
<polygon fill="#63b8ff" stroke="#63b8ff" points="1046.79,-151 1056.79,-147.5 1046.79,-144 1046.79,-151"/>
</a>
</g>
</g>
<!-- Node10&#45;&gt;Node7 -->
<g id="edge11_Node000010_Node000007" class="edge">
<title>Node10&#45;&gt;Node7</title>
<g id="a_edge11_Node000010_Node000007"><a xlink:title=" ">
<path fill="none" stroke="#63b8ff" d="M716,-128.6C731.66,-131.42 749.39,-134.61 765.77,-137.56"/>
<polygon fill="#63b8ff" stroke="#63b8ff" points="765.31,-141.03 775.77,-139.36 766.55,-134.14 765.31,-141.03"/>
</a>
</g>
</g>
<!-- Node10&#45;&gt;Node10 -->
<g id="edge12_Node000010_Node000010" class="edge">
<title>Node10&#45;&gt;Node10</title>
<g id="a_edge12_Node000010_Node000010"><a xlink:title=" ">
<path fill="none" stroke="#63b8ff" d="M646.57,-130.08C635.18,-138.73 642.98,-148 670,-148 687.73,-148 697.19,-144.01 698.37,-138.82"/>
<polygon fill="#63b8ff" stroke="#63b8ff" points="701.4,-137.06 693.43,-130.08 695.31,-140.51 701.4,-137.06"/>
</a>
</g>
</g>
<!-- Node12 -->
<g id="Node000012" class="node">
<title>Node12</title>
<g id="a_Node000012"><a xlink:href="external_8c.html#aeb87c527482a244173df36a1f3d4f446" target="_top" xlink:title=" ">
<polygon fill="white" stroke="#666666" points="716,-93 624,-93 624,-74 716,-74 716,-93"/>
<text text-anchor="middle" x="670" y="-81" font-family="Helvetica,sans-Serif" font-size="10.00">func_800C21E8</text>
</a>
</g>
</g>
<!-- Node11&#45;&gt;Node12 -->
<g id="edge14_Node000011_Node000012" class="edge">
<title>Node11&#45;&gt;Node12</title>
<g id="a_edge14_Node000011_Node000012"><a xlink:title=" ">
<path fill="none" stroke="#63b8ff" d="M558.12,-70C575.58,-72.12 595.74,-74.58 614.04,-76.81"/>
<polygon fill="#63b8ff" stroke="#63b8ff" points="613.63,-80.28 623.98,-78.02 614.48,-73.33 613.63,-80.28"/>
</a>
</g>
</g>
<!-- Node13 -->
<g id="Node000013" class="node">
<title>Node13</title>
<g id="a_Node000013"><a xlink:href="external_8c.html#a028d40421b90c38f68ebfd5acc626f2e" target="_top" xlink:title=" ">
<polygon fill="white" stroke="#666666" points="716,-56 624,-56 624,-37 716,-37 716,-56"/>
<text text-anchor="middle" x="670" y="-44" font-family="Helvetica,sans-Serif" font-size="10.00">func_800C5578</text>
</a>
</g>
</g>
<!-- Node11&#45;&gt;Node13 -->
<g id="edge15_Node000011_Node000013" class="edge">
<title>Node11&#45;&gt;Node13</title>
<g id="a_edge15_Node000011_Node000013"><a xlink:title=" ">
<path fill="none" stroke="#63b8ff" d="M558.12,-59.29C575.58,-57.28 595.74,-54.95 614.04,-52.84"/>
<polygon fill="#63b8ff" stroke="#63b8ff" points="614.45,-56.32 623.98,-51.69 613.64,-49.36 614.45,-56.32"/>
</a>
</g>
</g>
<!-- Node14 -->
<g id="Node000014" class="node">
<title>Node14</title>
<g id="a_Node000014"><a xlink:href="external_8c.html#ac0fb767de7e14a03f1bcfa53f0abd23b" target="_top" xlink:title=" ">
<polygon fill="white" stroke="#666666" points="892,-19 752,-19 752,0 892,0 892,-19"/>
<text text-anchor="middle" x="822" y="-7" font-family="Helvetica,sans-Serif" font-size="10.00">delete_sound_from_bank</text>
</a>
</g>
</g>
<!-- Node13&#45;&gt;Node14 -->
<g id="edge16_Node000013_Node000014" class="edge">
<title>Node13&#45;&gt;Node14</title>
<g id="a_edge16_Node000013_Node000014"><a xlink:title=" ">
<path fill="none" stroke="#63b8ff" d="M709.63,-36.97C728.8,-32.24 752.16,-26.48 772.52,-21.46"/>
<polygon fill="#63b8ff" stroke="#63b8ff" points="773.37,-24.85 782.24,-19.06 771.69,-18.06 773.37,-24.85"/>
</a>
</g>
</g>
<!-- Node16 -->
<g id="Node000016" class="node">
<title>Node16</title>
<g id="a_Node000016"><a xlink:href="external_8c.html#ab83bd36e63f0f1baddcb2482b5ad31b0" target="_top" xlink:title=" ">
<polygon fill="white" stroke="#666666" points="868.5,-93 775.5,-93 775.5,-74 868.5,-74 868.5,-93"/>
<text text-anchor="middle" x="822" y="-81" font-family="Helvetica,sans-Serif" font-size="10.00">func_800C41CC</text>
</a>
</g>
</g>
<!-- Node13&#45;&gt;Node16 -->
<g id="edge18_Node000013_Node000016" class="edge">
<title>Node13&#45;&gt;Node16</title>
<g id="a_edge18_Node000013_Node000016"><a xlink:title=" ">
<path fill="none" stroke="#63b8ff" d="M709.63,-56.03C728.8,-60.76 752.16,-66.52 772.52,-71.54"/>
<polygon fill="#63b8ff" stroke="#63b8ff" points="771.69,-74.94 782.24,-73.94 773.37,-68.15 771.69,-74.94"/>
</a>
</g>
</g>
<!-- Node17 -->
<g id="Node000017" class="node">
<title>Node17</title>
<g id="a_Node000017"><a xlink:href="port__eu_8c.html#aa89dfaecca46c6d071f08c1898d1f7c9" target="_top" xlink:title=" ">
<polygon fill="white" stroke="#666666" points="868.5,-56 775.5,-56 775.5,-37 868.5,-37 868.5,-56"/>
<text text-anchor="middle" x="822" y="-44" font-family="Helvetica,sans-Serif" font-size="10.00">func_800CBBE8</text>
</a>
</g>
</g>
<!-- Node13&#45;&gt;Node17 -->
<g id="edge19_Node000013_Node000017" class="edge">
<title>Node13&#45;&gt;Node17</title>
<g id="a_edge19_Node000013_Node000017"><a xlink:title=" ">
<path fill="none" stroke="#63b8ff" d="M716,-46.5C731.37,-46.5 748.74,-46.5 764.86,-46.5"/>
<polygon fill="#63b8ff" stroke="#63b8ff" points="765.25,-50 775.25,-46.5 765.25,-43 765.25,-50"/>
</a>
</g>
</g>
<!-- Node15 -->
<g id="Node000015" class="node">
<title>Node15</title>
<g id="a_Node000015"><a xlink:href="external_8c.html#a358ac55e8ab5262dcae8037334be06d7" target="_top" xlink:title=" ">
<polygon fill="white" stroke="#666666" points="1020.5,-19 928.5,-19 928.5,0 1020.5,0 1020.5,-19"/>
<text text-anchor="middle" x="974.5" y="-7" font-family="Helvetica,sans-Serif" font-size="10.00">func_800C40F0</text>
</a>
</g>
</g>
<!-- Node14&#45;&gt;Node15 -->
<g id="edge17_Node000014_Node000015" class="edge">
<title>Node14&#45;&gt;Node15</title>
<g id="a_edge17_Node000014_Node000015"><a xlink:title=" ">
<path fill="none" stroke="#63b8ff" d="M892.08,-9.5C900.87,-9.5 909.78,-9.5 918.31,-9.5"/>
<polygon fill="#63b8ff" stroke="#63b8ff" points="918.5,-13 928.5,-9.5 918.5,-6 918.5,-13"/>
</a>
</g>
</g>
<!-- Node18 -->
<g id="Node000018" class="node">
<title>Node18</title>
<g id="a_Node000018"><a xlink:href="port__eu_8c.html#af361a20d2e08f30c53a237ca481ff734" target="_top" xlink:title=" ">
<polygon fill="white" stroke="#666666" points="1021,-56 928,-56 928,-37 1021,-37 1021,-56"/>
<text text-anchor="middle" x="974.5" y="-44" font-family="Helvetica,sans-Serif" font-size="10.00">func_800CBB48</text>
</a>
</g>
</g>
<!-- Node17&#45;&gt;Node18 -->
<g id="edge20_Node000017_Node000018" class="edge">
<title>Node17&#45;&gt;Node18</title>
<g id="a_edge20_Node000017_Node000018"><a xlink:title=" ">
<path fill="none" stroke="#63b8ff" d="M868.56,-46.5C883.96,-46.5 901.34,-46.5 917.46,-46.5"/>
<polygon fill="#63b8ff" stroke="#63b8ff" points="917.83,-50 927.83,-46.5 917.83,-43 917.83,-50"/>
</a>
</g>
</g>
<!-- Node22 -->
<g id="Node000022" class="node">
<title>Node22</title>
<g id="a_Node000022"><a xlink:href="collision_8c.html#a9ec62ee67d55805a587752d82d66abd8" target="_top" xlink:title=" ">
<polygon fill="white" stroke="#666666" points="400,-294.5 257,-294.5 257,-264.5 400,-264.5 400,-294.5"/>
<text text-anchor="start" x="265" y="-282.5" font-family="Helvetica,sans-Serif" font-size="10.00">is_colliding_with_drivable</text>
<text text-anchor="middle" x="328.5" y="-271.5" font-family="Helvetica,sans-Serif" font-size="10.00">_surface</text>
</a>
</g>
</g>
<!-- Node21&#45;&gt;Node22 -->
<g id="edge24_Node000021_Node000022" class="edge">
<title>Node21&#45;&gt;Node22</title>
<g id="a_edge24_Node000021_Node000022"><a xlink:title=" ">
<path fill="none" stroke="#63b8ff" d="M221.11,-264.8C229.3,-265.93 238.06,-267.14 246.91,-268.37"/>
<polygon fill="#63b8ff" stroke="#63b8ff" points="246.52,-271.84 256.9,-269.75 247.47,-264.91 246.52,-271.84"/>
</a>
</g>
</g>
<!-- Node23 -->
<g id="Node000023" class="node">
<title>Node23</title>
<g id="a_Node000023"><a xlink:href="collision_8c.html#aa77fc5aaa5aa3a6f71ad00bc71b04788" target="_top" xlink:title=" ">
<polygon fill="white" stroke="#666666" points="393,-246 264,-246 264,-227 393,-227 393,-246"/>
<text text-anchor="middle" x="328.5" y="-234" font-family="Helvetica,sans-Serif" font-size="10.00">is_colliding_with_wall1</text>
</a>
</g>
</g>
<!-- Node21&#45;&gt;Node23 -->
<g id="edge25_Node000021_Node000023" class="edge">
<title>Node21&#45;&gt;Node23</title>
<g id="a_edge25_Node000021_Node000023"><a xlink:title=" ">
<path fill="none" stroke="#63b8ff" d="M221.11,-251.9C231.42,-250.41 242.62,-248.79 253.76,-247.17"/>
<polygon fill="#63b8ff" stroke="#63b8ff" points="254.55,-250.6 263.94,-245.7 253.54,-243.67 254.55,-250.6"/>
</a>
</g>
</g>
<!-- Node24 -->
<g id="Node000024" class="node">
<title>Node24</title>
<g id="a_Node000024"><a xlink:href="collision_8c.html#a728bd4102d2ed3ba18d68d39b707c0f4" target="_top" xlink:title=" ">
<polygon fill="white" stroke="#666666" points="393,-332 264,-332 264,-313 393,-313 393,-332"/>
<text text-anchor="middle" x="328.5" y="-320" font-family="Helvetica,sans-Serif" font-size="10.00">is_colliding_with_wall2</text>
</a>
</g>
</g>
<!-- Node21&#45;&gt;Node24 -->
<g id="edge26_Node000021_Node000024" class="edge">
<title>Node21&#45;&gt;Node24</title>
<g id="a_edge26_Node000021_Node000024"><a xlink:title=" ">
<path fill="none" stroke="#63b8ff" d="M190.28,-268.1C206.21,-278.09 232.57,-293.63 257,-303.5 262.94,-305.9 269.28,-308.09 275.63,-310.06"/>
<polygon fill="#63b8ff" stroke="#63b8ff" points="274.99,-313.52 285.57,-312.98 276.96,-306.81 274.99,-313.52"/>
</a>
</g>
</g>
<!-- Node25&#45;&gt;Node2 -->
<g id="edge28_Node000025_Node000002" class="edge">
<title>Node25&#45;&gt;Node2</title>
<g id="a_edge28_Node000025_Node000002"><a xlink:title=" ">
<path fill="none" stroke="#63b8ff" d="M210.75,-186.99C226,-182.88 244.35,-177.93 261.93,-173.19"/>
<polygon fill="#63b8ff" stroke="#63b8ff" points="262.86,-176.56 271.6,-170.58 261.04,-169.8 262.86,-176.56"/>
</a>
</g>
</g>
<!-- Node26 -->
<g id="Node000026" class="node">
<title>Node26</title>
<g id="a_Node000026"><a xlink:href="external_8c.html#acb60983213d09ee795e80ca3c8b5975e" target="_top" xlink:title=" ">
<polygon fill="white" stroke="#666666" points="558,-267 466,-267 466,-248 558,-248 558,-267"/>
<text text-anchor="middle" x="512" y="-255" font-family="Helvetica,sans-Serif" font-size="10.00">func_800C98B8</text>
</a>
</g>
</g>
<!-- Node25&#45;&gt;Node26 -->
<g id="edge29_Node000025_Node000026" class="edge">
<title>Node25&#45;&gt;Node26</title>
<g id="a_edge29_Node000025_Node000026"><a xlink:title=" ">
<path fill="none" stroke="#63b8ff" d="M220.72,-197.75C266.42,-199.75 338.82,-204.96 400,-218.5 427.5,-224.59 457.58,-235.43 479.48,-244.14"/>
<polygon fill="#63b8ff" stroke="#63b8ff" points="478.34,-247.46 488.93,-247.97 480.97,-240.97 478.34,-247.46"/>
</a>
</g>
</g>
<!-- Node26&#45;&gt;Node5 -->
<g id="edge30_Node000026_Node000005" class="edge">
<title>Node26&#45;&gt;Node5</title>
<g id="a_edge30_Node000026_Node000005"><a xlink:title=" ">
<path fill="none" stroke="#63b8ff" d="M558.12,-256.33C616.44,-254.81 717.42,-252.19 775.79,-250.67"/>
<polygon fill="#63b8ff" stroke="#63b8ff" points="775.91,-254.17 785.82,-250.41 775.73,-247.17 775.91,-254.17"/>
</a>
</g>
</g>
</g>
</svg>

<g id="navigator" transform="translate(0 0)" fill="#404254">
  <rect fill="#f2f5e9" fill-opacity="0.5" stroke="#606060" stroke-width=".5" x="0" y="0" width="60" height="60"/>
  <use id="zoomplus" xlink:href="#zoomPlus" x="17" y="9" onmousedown="handleZoom(evt,'in')"/>
  <use id="zoomminus" xlink:href="#zoomMin" x="42" y="9" onmousedown="handleZoom(evt,'out')"/>
  <use id="reset" xlink:href="#resetDef" x="30" y="36" onmousedown="handleReset()"/>
   <use id="arrowup" xlink:href="#arrowUp" x="0" y="0" onmousedown="handlePan(0,-1)"/>
  <use id="arrowright" xlink:href="#arrowRight" x="0" y="0" onmousedown="handlePan(1,0)"/>
  <use id="arrowdown" xlink:href="#arrowDown" x="0" y="0" onmousedown="handlePan(0,1)"/>
  <use id="arrowleft" xlink:href="#arrowLeft" x="0" y="0" onmousedown="handlePan(-1,0)"/>
</g>
<svg viewBox="0 0 15 15" width="100%" height="30px" preserveAspectRatio="xMaxYMin meet">
 <g id="arrow_out" transform="scale(0.3 0.3)">
  <a xlink:href="actors__extended_8h_a62ab2ba99f1ac879cf3833761d8d575f_cgraph_org.svg" target="_base">
   <rect id="button" ry="5" rx="5" y="6" x="6" height="38" width="38"
        fill="#f2f5e9" fill-opacity="0.5" stroke="#606060" stroke-width="1.0"/>
   <path id="arrow"
     d="M 11.500037,31.436501 C 11.940474,20.09759 22.043105,11.32322 32.158766,21.979434 L 37.068811,17.246167 C 37.068811,17.246167 37.088388,32 37.088388,32 L 22.160133,31.978069 C 22.160133,31.978069 26.997745,27.140456 26.997745,27.140456 C 18.528582,18.264221 13.291696,25.230495 11.500037,31.436501 z"
     style="fill:#404040;"/>
  </a>
 </g>
</svg>

<style type='text/css'>
<![CDATA[
[data-mouse-over-selected='false'] { opacity: 0.7; }
[data-mouse-over-selected='true']  { opacity: 1.0; }
]]>
</style>
<script type="application/ecmascript"><![CDATA[
document.addEventListener('DOMContentLoaded', (event) => {
  highlightEdges();
  highlightAdjacentNodes();
});
]]></script>
</svg>
