<?xml version="1.0" encoding="UTF-8" standalone="no"?>
<!DOCTYPE svg PUBLIC "-//W3C//DTD SVG 1.1//EN"
 "http://www.w3.org/Graphics/SVG/1.1/DTD/svg11.dtd">
<!-- Generated by graphviz version 2.43.0 (0)
 -->
<!-- Title: evaluate_actor_collision_between_two_destroyables Pages: 1 -->
<svg width="1079pt" height="267pt"
 viewBox="0.00 0.00 1079.00 267.00" xmlns="http://www.w3.org/2000/svg" xmlns:xlink="http://www.w3.org/1999/xlink">
<g id="graph0" class="graph" transform="scale(1 1) rotate(0) translate(4 263)">
<title>evaluate_actor_collision_between_two_destroyables</title>
<!-- Node1 -->
<g id="Node000001" class="node">
<title>Node1</title>
<g id="a_Node000001"><a xlink:title=" ">
<polygon fill="#999999" stroke="#666666" points="155,-145.5 0,-145.5 0,-115.5 155,-115.5 155,-145.5"/>
<text text-anchor="start" x="8" y="-133.5" font-family="Helvetica,sans-Serif" font-size="10.00">evaluate_actor_collision</text>
<text text-anchor="middle" x="77.5" y="-122.5" font-family="Helvetica,sans-Serif" font-size="10.00">_between_two_destroyables</text>
</a>
</g>
</g>
<!-- Node2 -->
<g id="Node000002" class="node">
<title>Node2</title>
<g id="a_Node000002"><a xlink:href="actors_8c.html#a53268aa601911d56424ff08fb3395bcb" target="_top" xlink:title=" ">
<polygon fill="white" stroke="#666666" points="323.5,-121.5 204.5,-121.5 204.5,-91.5 323.5,-91.5 323.5,-121.5"/>
<text text-anchor="start" x="212.5" y="-109.5" font-family="Helvetica,sans-Serif" font-size="10.00">destroy_destructable</text>
<text text-anchor="middle" x="264" y="-98.5" font-family="Helvetica,sans-Serif" font-size="10.00">_actor</text>
</a>
</g>
</g>
<!-- Node1&#45;&gt;Node2 -->
<g id="edge1_Node000001_Node000002" class="edge">
<title>Node1&#45;&gt;Node2</title>
<g id="a_edge1_Node000001_Node000002"><a xlink:title=" ">
<path fill="none" stroke="#63b8ff" d="M155.14,-120.53C168.11,-118.84 181.5,-117.1 194.25,-115.44"/>
<polygon fill="#63b8ff" stroke="#63b8ff" points="194.86,-118.89 204.32,-114.13 193.95,-111.95 194.86,-118.89"/>
</a>
</g>
</g>
<!-- Node21 -->
<g id="Node000021" class="node">
<title>Node21</title>
<g id="a_Node000021"><a xlink:href="external_8c.html#acb60983213d09ee795e80ca3c8b5975e" target="_top" xlink:title=" ">
<polygon fill="white" stroke="#666666" points="495,-207 403,-207 403,-188 495,-188 495,-207"/>
<text text-anchor="middle" x="449" y="-195" font-family="Helvetica,sans-Serif" font-size="10.00">func_800C98B8</text>
</a>
</g>
</g>
<!-- Node1&#45;&gt;Node21 -->
<g id="edge23_Node000001_Node000021" class="edge">
<title>Node1&#45;&gt;Node21</title>
<g id="a_edge23_Node000001_Node000021"><a xlink:title=" ">
<path fill="none" stroke="#63b8ff" d="M106.74,-145.64C128.96,-156.79 161.08,-171.22 191,-178.5 259.06,-195.05 340,-198.46 392.6,-198.62"/>
<polygon fill="#63b8ff" stroke="#63b8ff" points="392.74,-202.12 402.74,-198.61 392.73,-195.12 392.74,-202.12"/>
</a>
</g>
</g>
<!-- Node22 -->
<g id="Node000022" class="node">
<title>Node22</title>
<g id="a_Node000022"><a xlink:href="actors_8c.html#a6b2e09f3baa79cf21f1cc6bd85899a7f" target="_top" xlink:title=" ">
<polygon fill="white" stroke="#666666" points="322,-73 206,-73 206,-54 322,-54 322,-73"/>
<text text-anchor="middle" x="264" y="-61" font-family="Helvetica,sans-Serif" font-size="10.00">is_two_actor_collide</text>
</a>
</g>
</g>
<!-- Node1&#45;&gt;Node22 -->
<g id="edge25_Node000001_Node000022" class="edge">
<title>Node1&#45;&gt;Node22</title>
<g id="a_edge25_Node000001_Node000022"><a xlink:title=" ">
<path fill="none" stroke="#63b8ff" d="M110.51,-115.37C132.76,-105.22 163.28,-92.01 191,-82.5 198.06,-80.08 205.59,-77.78 213.03,-75.68"/>
<polygon fill="#63b8ff" stroke="#63b8ff" points="213.98,-79.05 222.7,-73.03 212.13,-72.3 213.98,-79.05"/>
</a>
</g>
</g>
<!-- Node23 -->
<g id="Node000023" class="node">
<title>Node23</title>
<g id="a_Node000023"><a xlink:href="actors_8c.html#af3e5b62fee6bc9a92ee382ea832be03f" target="_top" xlink:title=" ">
<polygon fill="white" stroke="#666666" points="337,-169.5 191,-169.5 191,-139.5 337,-139.5 337,-169.5"/>
<text text-anchor="start" x="199" y="-157.5" font-family="Helvetica,sans-Serif" font-size="10.00">make_sound_between</text>
<text text-anchor="middle" x="264" y="-146.5" font-family="Helvetica,sans-Serif" font-size="10.00">_two_destroyables_collide</text>
</a>
</g>
</g>
<!-- Node1&#45;&gt;Node23 -->
<g id="edge26_Node000001_Node000023" class="edge">
<title>Node1&#45;&gt;Node23</title>
<g id="a_edge26_Node000001_Node000023"><a xlink:title=" ">
<path fill="none" stroke="#63b8ff" d="M155.14,-140.47C163.61,-141.57 172.26,-142.7 180.79,-143.81"/>
<polygon fill="#63b8ff" stroke="#63b8ff" points="180.37,-147.28 190.74,-145.1 181.27,-140.34 180.37,-147.28"/>
</a>
</g>
</g>
<!-- Node3 -->
<g id="Node000003" class="node">
<title>Node3</title>
<g id="a_Node000003"><a xlink:href="actors__extended_8c.html#a72ea66924941d84ae27c5e244e946842" target="_top" xlink:title=" ">
<polygon fill="white" stroke="#666666" points="509,-167.5 389,-167.5 389,-137.5 509,-137.5 509,-167.5"/>
<text text-anchor="start" x="397" y="-155.5" font-family="Helvetica,sans-Serif" font-size="10.00">destroy_a_banana_in</text>
<text text-anchor="middle" x="449" y="-144.5" font-family="Helvetica,sans-Serif" font-size="10.00">_bunch_banana</text>
</a>
</g>
</g>
<!-- Node2&#45;&gt;Node3 -->
<g id="edge2_Node000002_Node000003" class="edge">
<title>Node2&#45;&gt;Node3</title>
<g id="a_edge2_Node000002_Node000003"><a xlink:title=" ">
<path fill="none" stroke="#63b8ff" d="M323.66,-121.24C341.21,-125.66 360.62,-130.54 378.79,-135.1"/>
<polygon fill="#63b8ff" stroke="#63b8ff" points="378.18,-138.56 388.73,-137.6 379.89,-131.77 378.18,-138.56"/>
</a>
</g>
</g>
<!-- Node11 -->
<g id="Node000011" class="node">
<title>Node11</title>
<g id="a_Node000011"><a xlink:href="external_8c.html#a73831bcbe259500206651a0b4702be9f" target="_top" xlink:title=" ">
<polygon fill="white" stroke="#666666" points="495,-116 403,-116 403,-97 495,-97 495,-116"/>
<text text-anchor="middle" x="449" y="-104" font-family="Helvetica,sans-Serif" font-size="10.00">func_800C9EF4</text>
</a>
</g>
</g>
<!-- Node2&#45;&gt;Node11 -->
<g id="edge13_Node000002_Node000011" class="edge">
<title>Node2&#45;&gt;Node11</title>
<g id="a_edge13_Node000002_Node000011"><a xlink:title=" ">
<path fill="none" stroke="#63b8ff" d="M323.66,-106.5C345.77,-106.5 370.83,-106.5 392.63,-106.5"/>
<polygon fill="#63b8ff" stroke="#63b8ff" points="392.72,-110 402.72,-106.5 392.72,-103 392.72,-110"/>
</a>
</g>
</g>
<!-- Node19 -->
<g id="Node000019" class="node">
<title>Node19</title>
<g id="a_Node000019"><a xlink:href="code__80005FD0_8c.html#acb7b3d384c78d219f4b7040e78f6a2f2" target="_top" xlink:title=" ">
<polygon fill="white" stroke="#666666" points="525,-78.5 373,-78.5 373,-48.5 525,-48.5 525,-78.5"/>
<text text-anchor="start" x="381" y="-66.5" font-family="Helvetica,sans-Serif" font-size="10.00">remove_actor_in_unexpired</text>
<text text-anchor="middle" x="449" y="-55.5" font-family="Helvetica,sans-Serif" font-size="10.00">_actor_list</text>
</a>
</g>
</g>
<!-- Node2&#45;&gt;Node19 -->
<g id="edge21_Node000002_Node000019" class="edge">
<title>Node2&#45;&gt;Node19</title>
<g id="a_edge21_Node000002_Node000019"><a xlink:title=" ">
<path fill="none" stroke="#63b8ff" d="M323.66,-92.72C339.74,-88.94 357.38,-84.79 374.19,-80.84"/>
<polygon fill="#63b8ff" stroke="#63b8ff" points="375.04,-84.24 383.98,-78.54 373.44,-77.42 375.04,-84.24"/>
</a>
</g>
</g>
<!-- Node20 -->
<g id="Node000020" class="node">
<title>Node20</title>
<g id="a_Node000020"><a xlink:href="actors__extended_8c.html#a1edd6e4f2545082e3782c4ce50933c7c" target="_top" xlink:title=" ">
<polygon fill="white" stroke="#666666" points="507,-30.5 391,-30.5 391,-0.5 507,-0.5 507,-30.5"/>
<text text-anchor="start" x="399" y="-18.5" font-family="Helvetica,sans-Serif" font-size="10.00">triple_shell_actor</text>
<text text-anchor="middle" x="449" y="-7.5" font-family="Helvetica,sans-Serif" font-size="10.00">_collide_with_player</text>
</a>
</g>
</g>
<!-- Node2&#45;&gt;Node20 -->
<g id="edge22_Node000002_Node000020" class="edge">
<title>Node2&#45;&gt;Node20</title>
<g id="a_edge22_Node000002_Node000020"><a xlink:title=" ">
<path fill="none" stroke="#63b8ff" d="M320.75,-91.43C326.46,-88.87 331.99,-85.91 337,-82.5 357.6,-68.47 352.31,-53.4 373,-39.5 375.72,-37.67 378.6,-35.97 381.56,-34.4"/>
<polygon fill="#63b8ff" stroke="#63b8ff" points="383.19,-37.5 390.71,-30.04 380.18,-31.18 383.19,-37.5"/>
</a>
</g>
</g>
<!-- Node4 -->
<g id="Node000004" class="node">
<title>Node4</title>
<g id="a_Node000004"><a xlink:href="external_8c.html#a2be9efc97a92e19d02aaee90d676acc1" target="_top" xlink:title=" ">
<polygon fill="white" stroke="#666666" points="653,-240 561,-240 561,-221 653,-221 653,-240"/>
<text text-anchor="middle" x="607" y="-228" font-family="Helvetica,sans-Serif" font-size="10.00">func_800C9060</text>
</a>
</g>
</g>
<!-- Node3&#45;&gt;Node4 -->
<g id="edge3_Node000003_Node000004" class="edge">
<title>Node3&#45;&gt;Node4</title>
<g id="a_edge3_Node000003_Node000004"><a xlink:title=" ">
<path fill="none" stroke="#63b8ff" d="M500.49,-167.55C508.94,-170.94 517.42,-174.92 525,-179.5 543.57,-190.73 542.62,-200.95 561,-212.5 563.32,-213.96 565.79,-215.34 568.31,-216.64"/>
<polygon fill="#63b8ff" stroke="#63b8ff" points="567.08,-219.93 577.63,-220.97 570.03,-213.58 567.08,-219.93"/>
</a>
</g>
</g>
<!-- Node6 -->
<g id="Node000006" class="node">
<title>Node6</title>
<g id="a_Node000006"><a xlink:href="actors__extended_8c.html#ab349562338ca47f2b524137864704d0e" target="_top" xlink:title=" ">
<polygon fill="white" stroke="#666666" points="653,-185 561,-185 561,-166 653,-166 653,-185"/>
<text text-anchor="middle" x="607" y="-173" font-family="Helvetica,sans-Serif" font-size="10.00">func_802B0464</text>
</a>
</g>
</g>
<!-- Node3&#45;&gt;Node6 -->
<g id="edge5_Node000003_Node000006" class="edge">
<title>Node3&#45;&gt;Node6</title>
<g id="a_edge5_Node000003_Node000006"><a xlink:title=" ">
<path fill="none" stroke="#63b8ff" d="M509.42,-161.26C523.01,-163.26 537.39,-165.38 550.79,-167.36"/>
<polygon fill="#63b8ff" stroke="#63b8ff" points="550.41,-170.84 560.82,-168.84 551.44,-163.92 550.41,-170.84"/>
</a>
</g>
</g>
<!-- Node10 -->
<g id="Node000010" class="node">
<title>Node10</title>
<g id="a_Node000010"><a xlink:href="actors__extended_8c.html#a2f342036a9e04bb583aa7cf9c08edae9" target="_top" xlink:title=" ">
<polygon fill="white" stroke="#666666" points="653,-130 561,-130 561,-111 653,-111 653,-130"/>
<text text-anchor="middle" x="607" y="-118" font-family="Helvetica,sans-Serif" font-size="10.00">func_802B04E8</text>
</a>
</g>
</g>
<!-- Node3&#45;&gt;Node10 -->
<g id="edge10_Node000003_Node000010" class="edge">
<title>Node3&#45;&gt;Node10</title>
<g id="a_edge10_Node000003_Node000010"><a xlink:title=" ">
<path fill="none" stroke="#63b8ff" d="M509.42,-140.31C523.01,-137.52 537.39,-134.57 550.79,-131.82"/>
<polygon fill="#63b8ff" stroke="#63b8ff" points="551.73,-135.21 560.82,-129.77 550.32,-128.35 551.73,-135.21"/>
</a>
</g>
</g>
<!-- Node5 -->
<g id="Node000005" class="node">
<title>Node5</title>
<g id="a_Node000005"><a xlink:href="external_8c.html#a4227847f3da303aee53cf69d2760a595" target="_top" xlink:title=" ">
<polygon fill="white" stroke="#666666" points="795,-259 723,-259 723,-240 795,-240 795,-259"/>
<text text-anchor="middle" x="759" y="-247" font-family="Helvetica,sans-Serif" font-size="10.00">play_sound</text>
</a>
</g>
</g>
<!-- Node4&#45;&gt;Node5 -->
<g id="edge4_Node000004_Node000005" class="edge">
<title>Node4&#45;&gt;Node5</title>
<g id="a_edge4_Node000004_Node000005"><a xlink:title=" ">
<path fill="none" stroke="#63b8ff" d="M653,-236.2C671.79,-238.58 693.58,-241.34 712.43,-243.73"/>
<polygon fill="#63b8ff" stroke="#63b8ff" points="712.2,-247.23 722.56,-245.01 713.08,-240.28 712.2,-247.23"/>
</a>
</g>
</g>
<!-- Node6&#45;&gt;Node6 -->
<g id="edge9_Node000006_Node000006" class="edge">
<title>Node6&#45;&gt;Node6</title>
<g id="a_edge9_Node000006_Node000006"><a xlink:title=" ">
<path fill="none" stroke="#63b8ff" d="M583.57,-185.08C572.18,-193.73 579.98,-203 607,-203 624.73,-203 634.19,-199.01 635.37,-193.82"/>
<polygon fill="#63b8ff" stroke="#63b8ff" points="638.4,-192.06 630.43,-185.08 632.31,-195.51 638.4,-192.06"/>
</a>
</g>
</g>
<!-- Node7 -->
<g id="Node000007" class="node">
<title>Node7</title>
<g id="a_Node000007"><a xlink:href="actors__extended_8c.html#a093f702b462b6657ba7ab789941ef800" target="_top" xlink:title=" ">
<polygon fill="white" stroke="#666666" points="805,-157 713,-157 713,-138 805,-138 805,-157"/>
<text text-anchor="middle" x="759" y="-145" font-family="Helvetica,sans-Serif" font-size="10.00">func_802B039C</text>
</a>
</g>
</g>
<!-- Node6&#45;&gt;Node7 -->
<g id="edge6_Node000006_Node000007" class="edge">
<title>Node6&#45;&gt;Node7</title>
<g id="a_edge6_Node000006_Node000007"><a xlink:title=" ">
<path fill="none" stroke="#63b8ff" d="M653,-167.1C668.66,-164.18 686.39,-160.87 702.77,-157.81"/>
<polygon fill="#63b8ff" stroke="#63b8ff" points="703.58,-161.22 712.77,-155.94 702.3,-154.34 703.58,-161.22"/>
</a>
</g>
</g>
<!-- Node8 -->
<g id="Node000008" class="node">
<title>Node8</title>
<g id="a_Node000008"><a xlink:href="math__util_8c.html#a151b63b8adf9af7e4054b3b84bd226dc" target="_top" xlink:title=" ">
<polygon fill="white" stroke="#666666" points="947.5,-157 875.5,-157 875.5,-138 947.5,-138 947.5,-157"/>
<text text-anchor="middle" x="911.5" y="-145" font-family="Helvetica,sans-Serif" font-size="10.00">random_int</text>
</a>
</g>
</g>
<!-- Node7&#45;&gt;Node8 -->
<g id="edge7_Node000007_Node000008" class="edge">
<title>Node7&#45;&gt;Node8</title>
<g id="a_edge7_Node000007_Node000008"><a xlink:title=" ">
<path fill="none" stroke="#63b8ff" d="M805.15,-147.5C824.15,-147.5 846.21,-147.5 865.21,-147.5"/>
<polygon fill="#63b8ff" stroke="#63b8ff" points="865.42,-151 875.42,-147.5 865.42,-144 865.42,-151"/>
</a>
</g>
</g>
<!-- Node9 -->
<g id="Node000009" class="node">
<title>Node9</title>
<g id="a_Node000009"><a xlink:href="math__util_8c.html#a062850863585005ad1d0a75d9ff70693" target="_top" xlink:title=" ">
<polygon fill="white" stroke="#666666" points="1071,-157 994,-157 994,-138 1071,-138 1071,-157"/>
<text text-anchor="middle" x="1032.5" y="-145" font-family="Helvetica,sans-Serif" font-size="10.00">random_u16</text>
</a>
</g>
</g>
<!-- Node8&#45;&gt;Node9 -->
<g id="edge8_Node000008_Node000009" class="edge">
<title>Node8&#45;&gt;Node9</title>
<g id="a_edge8_Node000008_Node000009"><a xlink:title=" ">
<path fill="none" stroke="#63b8ff" d="M947.56,-147.5C958.8,-147.5 971.45,-147.5 983.46,-147.5"/>
<polygon fill="#63b8ff" stroke="#63b8ff" points="983.79,-151 993.79,-147.5 983.79,-144 983.79,-151"/>
</a>
</g>
</g>
<!-- Node10&#45;&gt;Node7 -->
<g id="edge11_Node000010_Node000007" class="edge">
<title>Node10&#45;&gt;Node7</title>
<g id="a_edge11_Node000010_Node000007"><a xlink:title=" ">
<path fill="none" stroke="#63b8ff" d="M653,-128.6C668.66,-131.42 686.39,-134.61 702.77,-137.56"/>
<polygon fill="#63b8ff" stroke="#63b8ff" points="702.31,-141.03 712.77,-139.36 703.55,-134.14 702.31,-141.03"/>
</a>
</g>
</g>
<!-- Node10&#45;&gt;Node10 -->
<g id="edge12_Node000010_Node000010" class="edge">
<title>Node10&#45;&gt;Node10</title>
<g id="a_edge12_Node000010_Node000010"><a xlink:title=" ">
<path fill="none" stroke="#63b8ff" d="M583.57,-130.08C572.18,-138.73 579.98,-148 607,-148 624.73,-148 634.19,-144.01 635.37,-138.82"/>
<polygon fill="#63b8ff" stroke="#63b8ff" points="638.4,-137.06 630.43,-130.08 632.31,-140.51 638.4,-137.06"/>
</a>
</g>
</g>
<!-- Node12 -->
<g id="Node000012" class="node">
<title>Node12</title>
<g id="a_Node000012"><a xlink:href="external_8c.html#aeb87c527482a244173df36a1f3d4f446" target="_top" xlink:title=" ">
<polygon fill="white" stroke="#666666" points="653,-93 561,-93 561,-74 653,-74 653,-93"/>
<text text-anchor="middle" x="607" y="-81" font-family="Helvetica,sans-Serif" font-size="10.00">func_800C21E8</text>
</a>
</g>
</g>
<!-- Node11&#45;&gt;Node12 -->
<g id="edge14_Node000011_Node000012" class="edge">
<title>Node11&#45;&gt;Node12</title>
<g id="a_edge14_Node000011_Node000012"><a xlink:title=" ">
<path fill="none" stroke="#63b8ff" d="M495.12,-99.85C512.58,-97.27 532.74,-94.3 551.04,-91.6"/>
<polygon fill="#63b8ff" stroke="#63b8ff" points="551.6,-95.06 560.98,-90.14 550.58,-88.13 551.6,-95.06"/>
</a>
</g>
</g>
<!-- Node13 -->
<g id="Node000013" class="node">
<title>Node13</title>
<g id="a_Node000013"><a xlink:href="external_8c.html#a028d40421b90c38f68ebfd5acc626f2e" target="_top" xlink:title=" ">
<polygon fill="white" stroke="#666666" points="653,-56 561,-56 561,-37 653,-37 653,-56"/>
<text text-anchor="middle" x="607" y="-44" font-family="Helvetica,sans-Serif" font-size="10.00">func_800C5578</text>
</a>
</g>
</g>
<!-- Node11&#45;&gt;Node13 -->
<g id="edge15_Node000011_Node000013" class="edge">
<title>Node11&#45;&gt;Node13</title>
<g id="a_edge15_Node000011_Node000013"><a xlink:title=" ">
<path fill="none" stroke="#63b8ff" d="M495.14,-97.4C505.16,-94.74 515.59,-91.46 525,-87.5 542.28,-80.23 544.32,-74.06 561,-65.5 564.55,-63.68 568.31,-61.89 572.09,-60.17"/>
<polygon fill="#63b8ff" stroke="#63b8ff" points="573.64,-63.31 581.41,-56.1 570.84,-56.9 573.64,-63.31"/>
</a>
</g>
</g>
<!-- Node14 -->
<g id="Node000014" class="node">
<title>Node14</title>
<g id="a_Node000014"><a xlink:href="external_8c.html#ac0fb767de7e14a03f1bcfa53f0abd23b" target="_top" xlink:title=" ">
<polygon fill="white" stroke="#666666" points="829,-93 689,-93 689,-74 829,-74 829,-93"/>
<text text-anchor="middle" x="759" y="-81" font-family="Helvetica,sans-Serif" font-size="10.00">delete_sound_from_bank</text>
</a>
</g>
</g>
<!-- Node13&#45;&gt;Node14 -->
<g id="edge16_Node000013_Node000014" class="edge">
<title>Node13&#45;&gt;Node14</title>
<g id="a_edge16_Node000013_Node000014"><a xlink:title=" ">
<path fill="none" stroke="#63b8ff" d="M646.63,-56.03C665.8,-60.76 689.16,-66.52 709.52,-71.54"/>
<polygon fill="#63b8ff" stroke="#63b8ff" points="708.69,-74.94 719.24,-73.94 710.37,-68.15 708.69,-74.94"/>
</a>
</g>
</g>
<!-- Node16 -->
<g id="Node000016" class="node">
<title>Node16</title>
<g id="a_Node000016"><a xlink:href="external_8c.html#ab83bd36e63f0f1baddcb2482b5ad31b0" target="_top" xlink:title=" ">
<polygon fill="white" stroke="#666666" points="805.5,-56 712.5,-56 712.5,-37 805.5,-37 805.5,-56"/>
<text text-anchor="middle" x="759" y="-44" font-family="Helvetica,sans-Serif" font-size="10.00">func_800C41CC</text>
</a>
</g>
</g>
<!-- Node13&#45;&gt;Node16 -->
<g id="edge18_Node000013_Node000016" class="edge">
<title>Node13&#45;&gt;Node16</title>
<g id="a_edge18_Node000013_Node000016"><a xlink:title=" ">
<path fill="none" stroke="#63b8ff" d="M653,-46.5C668.37,-46.5 685.74,-46.5 701.86,-46.5"/>
<polygon fill="#63b8ff" stroke="#63b8ff" points="702.25,-50 712.25,-46.5 702.25,-43 702.25,-50"/>
</a>
</g>
</g>
<!-- Node17 -->
<g id="Node000017" class="node">
<title>Node17</title>
<g id="a_Node000017"><a xlink:href="port__eu_8c.html#aa89dfaecca46c6d071f08c1898d1f7c9" target="_top" xlink:title=" ">
<polygon fill="white" stroke="#666666" points="805.5,-19 712.5,-19 712.5,0 805.5,0 805.5,-19"/>
<text text-anchor="middle" x="759" y="-7" font-family="Helvetica,sans-Serif" font-size="10.00">func_800CBBE8</text>
</a>
</g>
</g>
<!-- Node13&#45;&gt;Node17 -->
<g id="edge19_Node000013_Node000017" class="edge">
<title>Node13&#45;&gt;Node17</title>
<g id="a_edge19_Node000013_Node000017"><a xlink:title=" ">
<path fill="none" stroke="#63b8ff" d="M646.63,-36.97C665.8,-32.24 689.16,-26.48 709.52,-21.46"/>
<polygon fill="#63b8ff" stroke="#63b8ff" points="710.37,-24.85 719.24,-19.06 708.69,-18.06 710.37,-24.85"/>
</a>
</g>
</g>
<!-- Node15 -->
<g id="Node000015" class="node">
<title>Node15</title>
<g id="a_Node000015"><a xlink:href="external_8c.html#a358ac55e8ab5262dcae8037334be06d7" target="_top" xlink:title=" ">
<polygon fill="white" stroke="#666666" points="957.5,-93 865.5,-93 865.5,-74 957.5,-74 957.5,-93"/>
<text text-anchor="middle" x="911.5" y="-81" font-family="Helvetica,sans-Serif" font-size="10.00">func_800C40F0</text>
</a>
</g>
</g>
<!-- Node14&#45;&gt;Node15 -->
<g id="edge17_Node000014_Node000015" class="edge">
<title>Node14&#45;&gt;Node15</title>
<g id="a_edge17_Node000014_Node000015"><a xlink:title=" ">
<path fill="none" stroke="#63b8ff" d="M829.08,-83.5C837.87,-83.5 846.78,-83.5 855.31,-83.5"/>
<polygon fill="#63b8ff" stroke="#63b8ff" points="855.5,-87 865.5,-83.5 855.5,-80 855.5,-87"/>
</a>
</g>
</g>
<!-- Node18 -->
<g id="Node000018" class="node">
<title>Node18</title>
<g id="a_Node000018"><a xlink:href="port__eu_8c.html#af361a20d2e08f30c53a237ca481ff734" target="_top" xlink:title=" ">
<polygon fill="white" stroke="#666666" points="958,-19 865,-19 865,0 958,0 958,-19"/>
<text text-anchor="middle" x="911.5" y="-7" font-family="Helvetica,sans-Serif" font-size="10.00">func_800CBB48</text>
</a>
</g>
</g>
<!-- Node17&#45;&gt;Node18 -->
<g id="edge20_Node000017_Node000018" class="edge">
<title>Node17&#45;&gt;Node18</title>
<g id="a_edge20_Node000017_Node000018"><a xlink:title=" ">
<path fill="none" stroke="#63b8ff" d="M805.56,-9.5C820.96,-9.5 838.34,-9.5 854.46,-9.5"/>
<polygon fill="#63b8ff" stroke="#63b8ff" points="854.83,-13 864.83,-9.5 854.83,-6 854.83,-13"/>
</a>
</g>
</g>
<!-- Node21&#45;&gt;Node5 -->
<g id="edge24_Node000021_Node000005" class="edge">
<title>Node21&#45;&gt;Node5</title>
<g id="a_edge24_Node000021_Node000005"><a xlink:title=" ">
<path fill="none" stroke="#63b8ff" d="M465.03,-207.18C485.69,-219.84 524.44,-241.36 561,-249.5 612.13,-260.88 672.6,-258.65 712.93,-255.01"/>
<polygon fill="#63b8ff" stroke="#63b8ff" points="713.37,-258.48 722.98,-254.04 712.69,-251.52 713.37,-258.48"/>
</a>
</g>
</g>
<!-- Node23&#45;&gt;Node21 -->
<g id="edge27_Node000023_Node000021" class="edge">
<title>Node23&#45;&gt;Node21</title>
<g id="a_edge27_Node000023_Node000021"><a xlink:title=" ">
<path fill="none" stroke="#63b8ff" d="M329,-169.54C351.52,-174.83 376.48,-180.69 397.7,-185.68"/>
<polygon fill="#63b8ff" stroke="#63b8ff" points="396.94,-189.1 407.48,-187.98 398.54,-182.28 396.94,-189.1"/>
</a>
</g>
</g>
</g>
</svg>
