<?xml version="1.0" encoding="UTF-8" standalone="no"?>
<!DOCTYPE svg PUBLIC "-//W3C//DTD SVG 1.1//EN"
 "http://www.w3.org/Graphics/SVG/1.1/DTD/svg11.dtd">
<!-- Generated by graphviz version 2.43.0 (0)
 -->
<!-- Title: use_triple_shell_item Pages: 1 -->
<svg width="1557pt" height="279pt"
 viewBox="0.00 0.00 1557.00 279.00" xmlns="http://www.w3.org/2000/svg" xmlns:xlink="http://www.w3.org/1999/xlink">
<g id="graph0" class="graph" transform="scale(1 1) rotate(0) translate(4 275)">
<title>use_triple_shell_item</title>
<!-- Node1 -->
<g id="Node000001" class="node">
<title>Node1</title>
<g id="a_Node000001"><a xlink:title=" ">
<polygon fill="#999999" stroke="#666666" points="121,-117 0,-117 0,-98 121,-98 121,-117"/>
<text text-anchor="middle" x="60.5" y="-105" font-family="Helvetica,sans-Serif" font-size="10.00">use_triple_shell_item</text>
</a>
</g>
</g>
<!-- Node2 -->
<g id="Node000002" class="node">
<title>Node2</title>
<g id="a_Node000002"><a xlink:href="actors_8c.html#a24d84b2c349ccb02fa767a4e49c4f2c5" target="_top" xlink:title=" ">
<polygon fill="white" stroke="#666666" points="278,-117 157,-117 157,-98 278,-98 278,-117"/>
<text text-anchor="middle" x="217.5" y="-105" font-family="Helvetica,sans-Serif" font-size="10.00">addActorToEmptySlot</text>
</a>
</g>
</g>
<!-- Node1&#45;&gt;Node2 -->
<g id="edge1_Node000001_Node000002" class="edge">
<title>Node1&#45;&gt;Node2</title>
<g id="a_edge1_Node000001_Node000002"><a xlink:title=" ">
<path fill="none" stroke="#63b8ff" d="M121.43,-107.5C129.72,-107.5 138.31,-107.5 146.76,-107.5"/>
<polygon fill="#63b8ff" stroke="#63b8ff" points="146.99,-111 156.99,-107.5 146.99,-104 146.99,-111"/>
</a>
</g>
</g>
<!-- Node3 -->
<g id="Node000003" class="node">
<title>Node3</title>
<g id="a_Node000003"><a xlink:href="actors_8c.html#a39c023177b5a7686cdd1fc65b8b953e1" target="_top" xlink:title=" ">
<polygon fill="white" stroke="#666666" points="503,-160 441,-160 441,-141 503,-141 503,-160"/>
<text text-anchor="middle" x="472" y="-148" font-family="Helvetica,sans-Serif" font-size="10.00">actor_init</text>
</a>
</g>
</g>
<!-- Node2&#45;&gt;Node3 -->
<g id="edge2_Node000002_Node000003" class="edge">
<title>Node2&#45;&gt;Node3</title>
<g id="a_edge2_Node000002_Node000003"><a xlink:title=" ">
<path fill="none" stroke="#63b8ff" d="M274.54,-117.04C321.92,-125.11 388.64,-136.48 430.85,-143.66"/>
<polygon fill="#63b8ff" stroke="#63b8ff" points="430.32,-147.12 440.77,-145.35 431.5,-140.22 430.32,-147.12"/>
</a>
</g>
</g>
<!-- Node24 -->
<g id="Node000024" class="node">
<title>Node24</title>
<g id="a_Node000024"><a xlink:href="actors_8c.html#a0c9d11d8956bf92c32a5e9bafd7036e6" target="_top" xlink:title=" ">
<polygon fill="white" stroke="#666666" points="405,-98 314,-98 314,-79 405,-79 405,-98"/>
<text text-anchor="middle" x="359.5" y="-86" font-family="Helvetica,sans-Serif" font-size="10.00">func_8029E890</text>
</a>
</g>
</g>
<!-- Node2&#45;&gt;Node24 -->
<g id="edge23_Node000002_Node000024" class="edge">
<title>Node2&#45;&gt;Node24</title>
<g id="a_edge23_Node000002_Node000024"><a xlink:title=" ">
<path fill="none" stroke="#63b8ff" d="M278.28,-99.39C286.73,-98.24 295.39,-97.06 303.74,-95.93"/>
<polygon fill="#63b8ff" stroke="#63b8ff" points="304.31,-99.39 313.75,-94.57 303.37,-92.45 304.31,-99.39"/>
</a>
</g>
</g>
<!-- Node4 -->
<g id="Node000004" class="node">
<title>Node4</title>
<g id="a_Node000004"><a xlink:href="actors_8c.html#a1a9bccb586242555a9123ebd4ab70f2a" target="_top" xlink:title=" ">
<polygon fill="white" stroke="#666666" points="671,-122.5 539,-122.5 539,-92.5 671,-92.5 671,-122.5"/>
<text text-anchor="start" x="547" y="-110.5" font-family="Helvetica,sans-Serif" font-size="10.00">cleanup_red_and_green</text>
<text text-anchor="middle" x="605" y="-99.5" font-family="Helvetica,sans-Serif" font-size="10.00">_shells</text>
</a>
</g>
</g>
<!-- Node3&#45;&gt;Node4 -->
<g id="edge3_Node000003_Node000004" class="edge">
<title>Node3&#45;&gt;Node4</title>
<g id="a_edge3_Node000003_Node000004"><a xlink:title=" ">
<path fill="none" stroke="#63b8ff" d="M502.07,-140.96C515.74,-136.47 532.52,-130.96 548.48,-125.72"/>
<polygon fill="#63b8ff" stroke="#63b8ff" points="549.87,-128.95 558.28,-122.51 547.69,-122.3 549.87,-128.95"/>
</a>
</g>
</g>
<!-- Node16 -->
<g id="Node000016" class="node">
<title>Node16</title>
<g id="a_Node000016"><a xlink:href="collision_8c.html#ad72fef3ffe32191d73b1822f512ebf3f" target="_top" xlink:title=" ">
<polygon fill="white" stroke="#666666" points="652.5,-197 557.5,-197 557.5,-178 652.5,-178 652.5,-197"/>
<text text-anchor="middle" x="605" y="-185" font-family="Helvetica,sans-Serif" font-size="10.00">func_802AAAAC</text>
</a>
</g>
</g>
<!-- Node3&#45;&gt;Node16 -->
<g id="edge15_Node000003_Node000016" class="edge">
<title>Node3&#45;&gt;Node16</title>
<g id="a_edge15_Node000003_Node000016"><a xlink:title=" ">
<path fill="none" stroke="#63b8ff" d="M503.21,-159.27C514.44,-162.51 527.3,-166.19 539,-169.5 545.59,-171.36 552.55,-173.31 559.39,-175.21"/>
<polygon fill="#63b8ff" stroke="#63b8ff" points="558.66,-178.64 569.24,-177.94 560.54,-171.9 558.66,-178.64"/>
</a>
</g>
</g>
<!-- Node18 -->
<g id="Node000018" class="node">
<title>Node18</title>
<g id="a_Node000018"><a xlink:href="collision_8c.html#a365367628b7140a7a880beeecce9c305" target="_top" xlink:title=" ">
<polygon fill="white" stroke="#666666" points="652.5,-160 557.5,-160 557.5,-141 652.5,-141 652.5,-160"/>
<text text-anchor="middle" x="605" y="-148" font-family="Helvetica,sans-Serif" font-size="10.00">func_802ADDC8</text>
</a>
</g>
</g>
<!-- Node3&#45;&gt;Node18 -->
<g id="edge17_Node000003_Node000018" class="edge">
<title>Node3&#45;&gt;Node18</title>
<g id="a_edge17_Node000003_Node000018"><a xlink:title=" ">
<path fill="none" stroke="#63b8ff" d="M503.05,-150.5C516.13,-150.5 531.9,-150.5 547.04,-150.5"/>
<polygon fill="#63b8ff" stroke="#63b8ff" points="547.39,-154 557.39,-150.5 547.39,-147 547.39,-154"/>
</a>
</g>
</g>
<!-- Node22 -->
<g id="Node000022" class="node">
<title>Node22</title>
<g id="a_Node000022"><a xlink:href="math__util_8c.html#af7b470ed76fce07b8042a47c96e5690b" target="_top" xlink:title=" ">
<polygon fill="white" stroke="#666666" points="658.5,-271 551.5,-271 551.5,-252 658.5,-252 658.5,-271"/>
<text text-anchor="middle" x="605" y="-259" font-family="Helvetica,sans-Serif" font-size="10.00">vec3f_copy_return</text>
</a>
</g>
</g>
<!-- Node3&#45;&gt;Node22 -->
<g id="edge21_Node000003_Node000022" class="edge">
<title>Node3&#45;&gt;Node22</title>
<g id="a_edge21_Node000003_Node000022"><a xlink:title=" ">
<path fill="none" stroke="#63b8ff" d="M477.07,-160.05C485.65,-178.97 507.4,-221.32 539,-243.5 541.22,-245.05 543.56,-246.47 545.99,-247.77"/>
<polygon fill="#63b8ff" stroke="#63b8ff" points="544.57,-250.97 555.12,-251.96 547.49,-244.61 544.57,-250.97"/>
</a>
</g>
</g>
<!-- Node23 -->
<g id="Node000023" class="node">
<title>Node23</title>
<g id="a_Node000023"><a xlink:href="math__util_8c.html#a0e270ee67600c8c9c2f140c647d008a1" target="_top" xlink:title=" ">
<polygon fill="white" stroke="#666666" points="642,-234 568,-234 568,-215 642,-215 642,-234"/>
<text text-anchor="middle" x="605" y="-222" font-family="Helvetica,sans-Serif" font-size="10.00">vec3s_copy</text>
</a>
</g>
</g>
<!-- Node3&#45;&gt;Node23 -->
<g id="edge22_Node000003_Node000023" class="edge">
<title>Node3&#45;&gt;Node23</title>
<g id="a_edge22_Node000003_Node000023"><a xlink:title=" ">
<path fill="none" stroke="#63b8ff" d="M481.86,-160.29C493.71,-172.79 515.89,-194.27 539,-206.5 544.98,-209.67 551.57,-212.32 558.19,-214.53"/>
<polygon fill="#63b8ff" stroke="#63b8ff" points="557.27,-217.91 567.85,-217.46 559.3,-211.21 557.27,-217.91"/>
</a>
</g>
</g>
<!-- Node5 -->
<g id="Node000005" class="node">
<title>Node5</title>
<g id="a_Node000005"><a xlink:href="actors_8c.html#a694ec6ef7548b8618aeb35c038d3a9b9" target="_top" xlink:title=" ">
<polygon fill="white" stroke="#666666" points="824.5,-117 741.5,-117 741.5,-98 824.5,-98 824.5,-117"/>
<text text-anchor="middle" x="783" y="-105" font-family="Helvetica,sans-Serif" font-size="10.00">destroy_actor</text>
</a>
</g>
</g>
<!-- Node4&#45;&gt;Node5 -->
<g id="edge4_Node000004_Node000005" class="edge">
<title>Node4&#45;&gt;Node5</title>
<g id="a_edge4_Node000004_Node000005"><a xlink:title=" ">
<path fill="none" stroke="#63b8ff" d="M671.04,-107.5C690.95,-107.5 712.55,-107.5 731.35,-107.5"/>
<polygon fill="#63b8ff" stroke="#63b8ff" points="731.48,-111 741.48,-107.5 731.48,-104 731.48,-111"/>
</a>
</g>
</g>
<!-- Node15 -->
<g id="Node000015" class="node">
<title>Node15</title>
<g id="a_Node000015"><a xlink:href="code__80005FD0_8c.html#acb7b3d384c78d219f4b7040e78f6a2f2" target="_top" xlink:title=" ">
<polygon fill="white" stroke="#666666" points="859,-79.5 707,-79.5 707,-49.5 859,-49.5 859,-79.5"/>
<text text-anchor="start" x="715" y="-67.5" font-family="Helvetica,sans-Serif" font-size="10.00">remove_actor_in_unexpired</text>
<text text-anchor="middle" x="783" y="-56.5" font-family="Helvetica,sans-Serif" font-size="10.00">_actor_list</text>
</a>
</g>
</g>
<!-- Node4&#45;&gt;Node15 -->
<g id="edge14_Node000004_Node000015" class="edge">
<title>Node4&#45;&gt;Node15</title>
<g id="a_edge14_Node000004_Node000015"><a xlink:title=" ">
<path fill="none" stroke="#63b8ff" d="M667.56,-92.46C681.49,-89.06 696.4,-85.41 710.7,-81.92"/>
<polygon fill="#63b8ff" stroke="#63b8ff" points="711.59,-85.3 720.48,-79.53 709.93,-78.5 711.59,-85.3"/>
</a>
</g>
</g>
<!-- Node6 -->
<g id="Node000006" class="node">
<title>Node6</title>
<g id="a_Node000006"><a xlink:href="actors_8c.html#a15517665ab054722a5c980c0f1008cd0" target="_top" xlink:title=" ">
<polygon fill="white" stroke="#666666" points="988,-74 895,-74 895,-55 988,-55 988,-74"/>
<text text-anchor="middle" x="941.5" y="-62" font-family="Helvetica,sans-Serif" font-size="10.00">func_8029E7DC</text>
</a>
</g>
</g>
<!-- Node5&#45;&gt;Node6 -->
<g id="edge5_Node000005_Node000006" class="edge">
<title>Node5&#45;&gt;Node6</title>
<g id="a_edge5_Node000005_Node000006"><a xlink:title=" ">
<path fill="none" stroke="#63b8ff" d="M823,-97.92C834.61,-94.99 847.34,-91.69 859,-88.5 872.26,-84.87 886.68,-80.7 899.64,-76.86"/>
<polygon fill="#63b8ff" stroke="#63b8ff" points="900.64,-80.22 909.23,-74.01 898.65,-73.51 900.64,-80.22"/>
</a>
</g>
</g>
<!-- Node7 -->
<g id="Node000007" class="node">
<title>Node7</title>
<g id="a_Node000007"><a xlink:href="external_8c.html#ae72057869772019e4464c87d4e16c682" target="_top" xlink:title=" ">
<polygon fill="white" stroke="#666666" points="1116,-74 1024,-74 1024,-55 1116,-55 1116,-74"/>
<text text-anchor="middle" x="1070" y="-62" font-family="Helvetica,sans-Serif" font-size="10.00">func_800C99E0</text>
</a>
</g>
</g>
<!-- Node6&#45;&gt;Node7 -->
<g id="edge6_Node000006_Node000007" class="edge">
<title>Node6&#45;&gt;Node7</title>
<g id="a_edge6_Node000006_Node000007"><a xlink:title=" ">
<path fill="none" stroke="#63b8ff" d="M988.17,-64.5C996.42,-64.5 1005.11,-64.5 1013.6,-64.5"/>
<polygon fill="#63b8ff" stroke="#63b8ff" points="1013.82,-68 1023.82,-64.5 1013.82,-61 1013.82,-68"/>
</a>
</g>
</g>
<!-- Node8 -->
<g id="Node000008" class="node">
<title>Node8</title>
<g id="a_Node000008"><a xlink:href="external_8c.html#aeb87c527482a244173df36a1f3d4f446" target="_top" xlink:title=" ">
<polygon fill="white" stroke="#666666" points="1244,-93 1152,-93 1152,-74 1244,-74 1244,-93"/>
<text text-anchor="middle" x="1198" y="-81" font-family="Helvetica,sans-Serif" font-size="10.00">func_800C21E8</text>
</a>
</g>
</g>
<!-- Node7&#45;&gt;Node8 -->
<g id="edge7_Node000007_Node000008" class="edge">
<title>Node7&#45;&gt;Node8</title>
<g id="a_edge7_Node000007_Node000008"><a xlink:title=" ">
<path fill="none" stroke="#63b8ff" d="M1116.13,-71.31C1124.46,-72.56 1133.23,-73.88 1141.81,-75.18"/>
<polygon fill="#63b8ff" stroke="#63b8ff" points="1141.35,-78.65 1151.76,-76.68 1142.39,-71.73 1141.35,-78.65"/>
</a>
</g>
</g>
<!-- Node9 -->
<g id="Node000009" class="node">
<title>Node9</title>
<g id="a_Node000009"><a xlink:href="external_8c.html#a028d40421b90c38f68ebfd5acc626f2e" target="_top" xlink:title=" ">
<polygon fill="white" stroke="#666666" points="1244,-56 1152,-56 1152,-37 1244,-37 1244,-56"/>
<text text-anchor="middle" x="1198" y="-44" font-family="Helvetica,sans-Serif" font-size="10.00">func_800C5578</text>
</a>
</g>
</g>
<!-- Node7&#45;&gt;Node9 -->
<g id="edge8_Node000007_Node000009" class="edge">
<title>Node7&#45;&gt;Node9</title>
<g id="a_edge8_Node000007_Node000009"><a xlink:title=" ">
<path fill="none" stroke="#63b8ff" d="M1116.13,-58.05C1124.46,-56.86 1133.23,-55.61 1141.81,-54.38"/>
<polygon fill="#63b8ff" stroke="#63b8ff" points="1142.35,-57.84 1151.76,-52.96 1141.36,-50.91 1142.35,-57.84"/>
</a>
</g>
</g>
<!-- Node10 -->
<g id="Node000010" class="node">
<title>Node10</title>
<g id="a_Node000010"><a xlink:href="external_8c.html#ac0fb767de7e14a03f1bcfa53f0abd23b" target="_top" xlink:title=" ">
<polygon fill="white" stroke="#666666" points="1420,-93 1280,-93 1280,-74 1420,-74 1420,-93"/>
<text text-anchor="middle" x="1350" y="-81" font-family="Helvetica,sans-Serif" font-size="10.00">delete_sound_from_bank</text>
</a>
</g>
</g>
<!-- Node9&#45;&gt;Node10 -->
<g id="edge9_Node000009_Node000010" class="edge">
<title>Node9&#45;&gt;Node10</title>
<g id="a_edge9_Node000009_Node000010"><a xlink:title=" ">
<path fill="none" stroke="#63b8ff" d="M1237.63,-56.03C1256.8,-60.76 1280.16,-66.52 1300.52,-71.54"/>
<polygon fill="#63b8ff" stroke="#63b8ff" points="1299.69,-74.94 1310.24,-73.94 1301.37,-68.15 1299.69,-74.94"/>
</a>
</g>
</g>
<!-- Node12 -->
<g id="Node000012" class="node">
<title>Node12</title>
<g id="a_Node000012"><a xlink:href="external_8c.html#ab83bd36e63f0f1baddcb2482b5ad31b0" target="_top" xlink:title=" ">
<polygon fill="white" stroke="#666666" points="1396.5,-56 1303.5,-56 1303.5,-37 1396.5,-37 1396.5,-56"/>
<text text-anchor="middle" x="1350" y="-44" font-family="Helvetica,sans-Serif" font-size="10.00">func_800C41CC</text>
</a>
</g>
</g>
<!-- Node9&#45;&gt;Node12 -->
<g id="edge11_Node000009_Node000012" class="edge">
<title>Node9&#45;&gt;Node12</title>
<g id="a_edge11_Node000009_Node000012"><a xlink:title=" ">
<path fill="none" stroke="#63b8ff" d="M1244,-46.5C1259.37,-46.5 1276.74,-46.5 1292.86,-46.5"/>
<polygon fill="#63b8ff" stroke="#63b8ff" points="1293.25,-50 1303.25,-46.5 1293.25,-43 1293.25,-50"/>
</a>
</g>
</g>
<!-- Node13 -->
<g id="Node000013" class="node">
<title>Node13</title>
<g id="a_Node000013"><a xlink:href="port__eu_8c.html#aa89dfaecca46c6d071f08c1898d1f7c9" target="_top" xlink:title=" ">
<polygon fill="white" stroke="#666666" points="1396.5,-19 1303.5,-19 1303.5,0 1396.5,0 1396.5,-19"/>
<text text-anchor="middle" x="1350" y="-7" font-family="Helvetica,sans-Serif" font-size="10.00">func_800CBBE8</text>
</a>
</g>
</g>
<!-- Node9&#45;&gt;Node13 -->
<g id="edge12_Node000009_Node000013" class="edge">
<title>Node9&#45;&gt;Node13</title>
<g id="a_edge12_Node000009_Node000013"><a xlink:title=" ">
<path fill="none" stroke="#63b8ff" d="M1237.63,-36.97C1256.8,-32.24 1280.16,-26.48 1300.52,-21.46"/>
<polygon fill="#63b8ff" stroke="#63b8ff" points="1301.37,-24.85 1310.24,-19.06 1299.69,-18.06 1301.37,-24.85"/>
</a>
</g>
</g>
<!-- Node11 -->
<g id="Node000011" class="node">
<title>Node11</title>
<g id="a_Node000011"><a xlink:href="external_8c.html#a358ac55e8ab5262dcae8037334be06d7" target="_top" xlink:title=" ">
<polygon fill="white" stroke="#666666" points="1548.5,-93 1456.5,-93 1456.5,-74 1548.5,-74 1548.5,-93"/>
<text text-anchor="middle" x="1502.5" y="-81" font-family="Helvetica,sans-Serif" font-size="10.00">func_800C40F0</text>
</a>
</g>
</g>
<!-- Node10&#45;&gt;Node11 -->
<g id="edge10_Node000010_Node000011" class="edge">
<title>Node10&#45;&gt;Node11</title>
<g id="a_edge10_Node000010_Node000011"><a xlink:title=" ">
<path fill="none" stroke="#63b8ff" d="M1420.08,-83.5C1428.87,-83.5 1437.78,-83.5 1446.31,-83.5"/>
<polygon fill="#63b8ff" stroke="#63b8ff" points="1446.5,-87 1456.5,-83.5 1446.5,-80 1446.5,-87"/>
</a>
</g>
</g>
<!-- Node14 -->
<g id="Node000014" class="node">
<title>Node14</title>
<g id="a_Node000014"><a xlink:href="port__eu_8c.html#af361a20d2e08f30c53a237ca481ff734" target="_top" xlink:title=" ">
<polygon fill="white" stroke="#666666" points="1549,-19 1456,-19 1456,0 1549,0 1549,-19"/>
<text text-anchor="middle" x="1502.5" y="-7" font-family="Helvetica,sans-Serif" font-size="10.00">func_800CBB48</text>
</a>
</g>
</g>
<!-- Node13&#45;&gt;Node14 -->
<g id="edge13_Node000013_Node000014" class="edge">
<title>Node13&#45;&gt;Node14</title>
<g id="a_edge13_Node000013_Node000014"><a xlink:title=" ">
<path fill="none" stroke="#63b8ff" d="M1396.56,-9.5C1411.96,-9.5 1429.34,-9.5 1445.46,-9.5"/>
<polygon fill="#63b8ff" stroke="#63b8ff" points="1445.83,-13 1455.83,-9.5 1445.83,-6 1445.83,-13"/>
</a>
</g>
</g>
<!-- Node17 -->
<g id="Node000017" class="node">
<title>Node17</title>
<g id="a_Node000017"><a xlink:href="math__util_8c.html#a79fd07a0971ec96a3ff0801963a2fa7f" target="_top" xlink:title=" ">
<polygon fill="white" stroke="#666666" points="815,-265 751,-265 751,-246 815,-246 815,-265"/>
<text text-anchor="middle" x="783" y="-253" font-family="Helvetica,sans-Serif" font-size="10.00">vec3f_set</text>
</a>
</g>
</g>
<!-- Node16&#45;&gt;Node17 -->
<g id="edge16_Node000016_Node000017" class="edge">
<title>Node16&#45;&gt;Node17</title>
<g id="a_edge16_Node000016_Node000017"><a xlink:title=" ">
<path fill="none" stroke="#63b8ff" d="M648.31,-197.02C656.1,-199.55 663.97,-202.68 671,-206.5 689.55,-216.58 688.21,-227.88 707,-237.5 717.51,-242.88 729.68,-246.69 741.11,-249.37"/>
<polygon fill="#63b8ff" stroke="#63b8ff" points="740.41,-252.8 750.91,-251.45 741.86,-245.95 740.41,-252.8"/>
</a>
</g>
</g>
<!-- Node19 -->
<g id="Node000019" class="node">
<title>Node19</title>
<g id="a_Node000019"><a xlink:href="collision_8c.html#afce45acb8da354da0a5b501003be1aef" target="_top" xlink:title=" ">
<polygon fill="white" stroke="#666666" points="829.5,-191 736.5,-191 736.5,-172 829.5,-172 829.5,-191"/>
<text text-anchor="middle" x="783" y="-179" font-family="Helvetica,sans-Serif" font-size="10.00">func_802AAE4C</text>
</a>
</g>
</g>
<!-- Node18&#45;&gt;Node19 -->
<g id="edge18_Node000018_Node000019" class="edge">
<title>Node18&#45;&gt;Node19</title>
<g id="a_edge18_Node000018_Node000019"><a xlink:title=" ">
<path fill="none" stroke="#63b8ff" d="M652.7,-158.73C675.34,-162.71 702.68,-167.53 726.39,-171.7"/>
<polygon fill="#63b8ff" stroke="#63b8ff" points="725.84,-175.16 736.3,-173.45 727.06,-168.27 725.84,-175.16"/>
</a>
</g>
</g>
<!-- Node20 -->
<g id="Node000020" class="node">
<title>Node20</title>
<g id="a_Node000020"><a xlink:href="collision_8c.html#adcc608ea0eae3bf9a27ab79ec64b4899" target="_top" xlink:title=" ">
<polygon fill="white" stroke="#666666" points="829,-154 737,-154 737,-135 829,-135 829,-154"/>
<text text-anchor="middle" x="783" y="-142" font-family="Helvetica,sans-Serif" font-size="10.00">func_802AB288</text>
</a>
</g>
</g>
<!-- Node18&#45;&gt;Node20 -->
<g id="edge19_Node000018_Node000020" class="edge">
<title>Node18&#45;&gt;Node20</title>
<g id="a_edge19_Node000018_Node000020"><a xlink:title=" ">
<path fill="none" stroke="#63b8ff" d="M652.7,-148.91C675.41,-148.13 702.87,-147.2 726.63,-146.39"/>
<polygon fill="#63b8ff" stroke="#63b8ff" points="727.03,-149.88 736.9,-146.04 726.79,-142.88 727.03,-149.88"/>
</a>
</g>
</g>
<!-- Node21 -->
<g id="Node000021" class="node">
<title>Node21</title>
<g id="a_Node000021"><a xlink:href="collision_8c.html#ab440aa3fc960b7b4b5ad8e4bcaa06b00" target="_top" xlink:title=" ">
<polygon fill="white" stroke="#666666" points="829.5,-228 736.5,-228 736.5,-209 829.5,-209 829.5,-228"/>
<text text-anchor="middle" x="783" y="-216" font-family="Helvetica,sans-Serif" font-size="10.00">func_802AB6C4</text>
</a>
</g>
</g>
<!-- Node18&#45;&gt;Node21 -->
<g id="edge20_Node000018_Node000021" class="edge">
<title>Node18&#45;&gt;Node21</title>
<g id="a_edge20_Node000018_Node000021"><a xlink:title=" ">
<path fill="none" stroke="#63b8ff" d="M648.31,-160.02C656.1,-162.55 663.97,-165.68 671,-169.5 689.55,-179.58 688.21,-190.88 707,-200.5 713.09,-203.62 719.73,-206.21 726.46,-208.35"/>
<polygon fill="#63b8ff" stroke="#63b8ff" points="725.76,-211.79 736.34,-211.2 727.7,-205.07 725.76,-211.79"/>
</a>
</g>
</g>
<!-- Node24&#45;&gt;Node3 -->
<g id="edge24_Node000024_Node000003" class="edge">
<title>Node24&#45;&gt;Node3</title>
<g id="a_edge24_Node000024_Node000003"><a xlink:title=" ">
<path fill="none" stroke="#63b8ff" d="M377.77,-98.19C395.77,-108.29 424.2,-124.24 444.93,-135.87"/>
<polygon fill="#63b8ff" stroke="#63b8ff" points="443.42,-139.04 453.86,-140.88 446.85,-132.93 443.42,-139.04"/>
</a>
</g>
</g>
<!-- Node24&#45;&gt;Node6 -->
<g id="edge25_Node000024_Node000006" class="edge">
<title>Node24&#45;&gt;Node6</title>
<g id="a_edge25_Node000024_Node000006"><a xlink:title=" ">
<path fill="none" stroke="#63b8ff" d="M397.23,-78.98C479.96,-58.83 687.1,-15.72 859,-40.5 874.39,-42.72 890.92,-47.18 905.05,-51.66"/>
<polygon fill="#63b8ff" stroke="#63b8ff" points="904.27,-55.09 914.86,-54.89 906.46,-48.44 904.27,-55.09"/>
</a>
</g>
</g>
<!-- Node24&#45;&gt;Node15 -->
<g id="edge26_Node000024_Node000015" class="edge">
<title>Node24&#45;&gt;Node15</title>
<g id="a_edge26_Node000024_Node000015"><a xlink:title=" ">
<path fill="none" stroke="#63b8ff" d="M405.21,-85.95C474.3,-82.02 608.22,-74.39 696.37,-69.38"/>
<polygon fill="#63b8ff" stroke="#63b8ff" points="696.83,-72.86 706.62,-68.79 696.43,-65.87 696.83,-72.86"/>
</a>
</g>
</g>
</g>
</svg>
