<?xml version="1.0" encoding="UTF-8" standalone="no"?>
<!DOCTYPE svg PUBLIC "-//W3C//DTD SVG 1.1//EN"
 "http://www.w3.org/Graphics/SVG/1.1/DTD/svg11.dtd">
<!-- Generated by graphviz version 2.43.0 (0)
 -->
<!-- Title: evaluate_collision_players_palm_trees Pages: 1 -->
<svg width="537pt" height="138pt"
 viewBox="0.00 0.00 537.00 138.00" xmlns="http://www.w3.org/2000/svg" xmlns:xlink="http://www.w3.org/1999/xlink">
<g id="graph0" class="graph" transform="scale(1 1) rotate(0) translate(4 134)">
<title>evaluate_collision_players_palm_trees</title>
<!-- Node1 -->
<g id="Node000001" class="node">
<title>Node1</title>
<g id="a_Node000001"><a xlink:title=" ">
<polygon fill="#999999" stroke="#666666" points="118,-57.5 0,-57.5 0,-27.5 118,-27.5 118,-57.5"/>
<text text-anchor="start" x="8" y="-45.5" font-family="Helvetica,sans-Serif" font-size="10.00">evaluate_collision</text>
<text text-anchor="middle" x="59" y="-34.5" font-family="Helvetica,sans-Serif" font-size="10.00">_players_palm_trees</text>
</a>
</g>
</g>
<!-- Node2 -->
<g id="Node000002" class="node">
<title>Node2</title>
<g id="a_Node000002"><a xlink:href="actors_8c.html#a55dd52d90732891552d43874931866cb" target="_top" xlink:title=" ">
<polygon fill="white" stroke="#666666" points="267,-79.5 154,-79.5 154,-49.5 267,-49.5 267,-79.5"/>
<text text-anchor="start" x="162" y="-67.5" font-family="Helvetica,sans-Serif" font-size="10.00">evaluate_collision</text>
<text text-anchor="middle" x="210.5" y="-56.5" font-family="Helvetica,sans-Serif" font-size="10.00">_player_palm_trees</text>
</a>
</g>
</g>
<!-- Node1&#45;&gt;Node2 -->
<g id="edge1_Node000001_Node000002" class="edge">
<title>Node1&#45;&gt;Node2</title>
<g id="a_edge1_Node000001_Node000002"><a xlink:title=" ">
<path fill="none" stroke="#63b8ff" d="M118.23,-51.07C126.51,-52.29 135.07,-53.55 143.48,-54.78"/>
<polygon fill="#63b8ff" stroke="#63b8ff" points="143.23,-58.29 153.64,-56.28 144.25,-51.36 143.23,-58.29"/>
</a>
</g>
</g>
<!-- Node9 -->
<g id="Node000009" class="node">
<title>Node9</title>
<g id="a_Node000009"><a xlink:href="collision_8c.html#a9395b9fc31397e9e9d754b4887a12544" target="_top" xlink:title=" ">
<polygon fill="white" stroke="#666666" points="261,-31 160,-31 160,-12 261,-12 261,-31"/>
<text text-anchor="middle" x="210.5" y="-19" font-family="Helvetica,sans-Serif" font-size="10.00">get_surface_type</text>
</a>
</g>
</g>
<!-- Node1&#45;&gt;Node9 -->
<g id="edge10_Node000001_Node000009" class="edge">
<title>Node1&#45;&gt;Node9</title>
<g id="a_edge10_Node000001_Node000009"><a xlink:title=" ">
<path fill="none" stroke="#63b8ff" d="M118.23,-34.32C128.56,-32.87 139.33,-31.36 149.71,-29.9"/>
<polygon fill="#63b8ff" stroke="#63b8ff" points="150.5,-33.32 159.91,-28.47 149.52,-26.39 150.5,-33.32"/>
</a>
</g>
</g>
<!-- Node3 -->
<g id="Node000003" class="node">
<title>Node3</title>
<g id="a_Node000003"><a xlink:href="external_8c.html#a2be9efc97a92e19d02aaee90d676acc1" target="_top" xlink:title=" ">
<polygon fill="white" stroke="#666666" points="408,-130 316,-130 316,-111 408,-111 408,-130"/>
<text text-anchor="middle" x="362" y="-118" font-family="Helvetica,sans-Serif" font-size="10.00">func_800C9060</text>
</a>
</g>
</g>
<!-- Node2&#45;&gt;Node3 -->
<g id="edge2_Node000002_Node000003" class="edge">
<title>Node2&#45;&gt;Node3</title>
<g id="a_edge2_Node000002_Node000003"><a xlink:title=" ">
<path fill="none" stroke="#63b8ff" d="M245.53,-79.52C262.63,-86.83 283.75,-95.53 303,-102.5 307.95,-104.29 313.18,-106.07 318.39,-107.77"/>
<polygon fill="#63b8ff" stroke="#63b8ff" points="317.72,-111.23 328.31,-110.94 319.84,-104.56 317.72,-111.23"/>
</a>
</g>
</g>
<!-- Node5 -->
<g id="Node000005" class="node">
<title>Node5</title>
<g id="a_Node000005"><a xlink:href="external_8c.html#a337fc3ab94ebb3293a85908229303ac8" target="_top" xlink:title=" ">
<polygon fill="white" stroke="#666666" points="408,-93 316,-93 316,-74 408,-74 408,-93"/>
<text text-anchor="middle" x="362" y="-81" font-family="Helvetica,sans-Serif" font-size="10.00">func_800C90F4</text>
</a>
</g>
</g>
<!-- Node2&#45;&gt;Node5 -->
<g id="edge4_Node000002_Node000005" class="edge">
<title>Node2&#45;&gt;Node5</title>
<g id="a_edge4_Node000002_Node000005"><a xlink:title=" ">
<path fill="none" stroke="#63b8ff" d="M267.17,-71.57C279.62,-73.16 292.83,-74.84 305.29,-76.42"/>
<polygon fill="#63b8ff" stroke="#63b8ff" points="305.17,-79.93 315.54,-77.72 306.06,-72.99 305.17,-79.93"/>
</a>
</g>
</g>
<!-- Node6 -->
<g id="Node000006" class="node">
<title>Node6</title>
<g id="a_Node000006"><a xlink:href="external_8c.html#acb60983213d09ee795e80ca3c8b5975e" target="_top" xlink:title=" ">
<polygon fill="white" stroke="#666666" points="408,-56 316,-56 316,-37 408,-37 408,-56"/>
<text text-anchor="middle" x="362" y="-44" font-family="Helvetica,sans-Serif" font-size="10.00">func_800C98B8</text>
</a>
</g>
</g>
<!-- Node2&#45;&gt;Node6 -->
<g id="edge6_Node000002_Node000006" class="edge">
<title>Node2&#45;&gt;Node6</title>
<g id="a_edge6_Node000002_Node000006"><a xlink:title=" ">
<path fill="none" stroke="#63b8ff" d="M267.17,-57.8C279.62,-56.3 292.83,-54.71 305.29,-53.21"/>
<polygon fill="#63b8ff" stroke="#63b8ff" points="306.03,-56.64 315.54,-51.97 305.19,-49.69 306.03,-56.64"/>
</a>
</g>
</g>
<!-- Node7 -->
<g id="Node000007" class="node">
<title>Node7</title>
<g id="a_Node000007"><a xlink:href="actors_8c.html#a73f38360cd0b91051d5c52a6f05d1614" target="_top" xlink:title=" ">
<polygon fill="white" stroke="#666666" points="421,-19 303,-19 303,0 421,0 421,-19"/>
<text text-anchor="middle" x="362" y="-7" font-family="Helvetica,sans-Serif" font-size="10.00">is_collide_and_apply</text>
</a>
</g>
</g>
<!-- Node2&#45;&gt;Node7 -->
<g id="edge8_Node000002_Node000007" class="edge">
<title>Node2&#45;&gt;Node7</title>
<g id="a_edge8_Node000002_Node000007"><a xlink:title=" ">
<path fill="none" stroke="#63b8ff" d="M246.87,-49.4C263.74,-42.4 284.28,-34.18 303,-27.5 308.15,-25.66 313.6,-23.83 319.01,-22.08"/>
<polygon fill="#63b8ff" stroke="#63b8ff" points="320.16,-25.38 328.63,-19.02 318.04,-18.71 320.16,-25.38"/>
</a>
</g>
</g>
<!-- Node4 -->
<g id="Node000004" class="node">
<title>Node4</title>
<g id="a_Node000004"><a xlink:href="external_8c.html#a4227847f3da303aee53cf69d2760a595" target="_top" xlink:title=" ">
<polygon fill="white" stroke="#666666" points="529,-93 457,-93 457,-74 529,-74 529,-93"/>
<text text-anchor="middle" x="493" y="-81" font-family="Helvetica,sans-Serif" font-size="10.00">play_sound</text>
</a>
</g>
</g>
<!-- Node3&#45;&gt;Node4 -->
<g id="edge3_Node000003_Node000004" class="edge">
<title>Node3&#45;&gt;Node4</title>
<g id="a_edge3_Node000003_Node000004"><a xlink:title=" ">
<path fill="none" stroke="#63b8ff" d="M396.22,-110.97C412.2,-106.39 431.55,-100.84 448.67,-95.93"/>
<polygon fill="#63b8ff" stroke="#63b8ff" points="449.8,-99.25 458.44,-93.12 447.87,-92.52 449.8,-99.25"/>
</a>
</g>
</g>
<!-- Node5&#45;&gt;Node4 -->
<g id="edge5_Node000005_Node000004" class="edge">
<title>Node5&#45;&gt;Node4</title>
<g id="a_edge5_Node000005_Node000004"><a xlink:title=" ">
<path fill="none" stroke="#63b8ff" d="M408.12,-83.5C420.61,-83.5 434.16,-83.5 446.66,-83.5"/>
<polygon fill="#63b8ff" stroke="#63b8ff" points="446.87,-87 456.87,-83.5 446.87,-80 446.87,-87"/>
</a>
</g>
</g>
<!-- Node6&#45;&gt;Node4 -->
<g id="edge7_Node000006_Node000004" class="edge">
<title>Node6&#45;&gt;Node4</title>
<g id="a_edge7_Node000006_Node000004"><a xlink:title=" ">
<path fill="none" stroke="#63b8ff" d="M396.22,-56.03C412.2,-60.61 431.55,-66.16 448.67,-71.07"/>
<polygon fill="#63b8ff" stroke="#63b8ff" points="447.87,-74.48 458.44,-73.88 449.8,-67.75 447.87,-74.48"/>
</a>
</g>
</g>
<!-- Node8 -->
<g id="Node000008" class="node">
<title>Node8</title>
<g id="a_Node000008"><a xlink:href="math_8h.html#a37bde043e94a6f074c78f10518fb5d99" target="_top" xlink:title=" ">
<polygon fill="white" stroke="#666666" points="512.5,-19 473.5,-19 473.5,0 512.5,0 512.5,-19"/>
<text text-anchor="middle" x="493" y="-7" font-family="Helvetica,sans-Serif" font-size="10.00">sqrtf</text>
</a>
</g>
</g>
<!-- Node7&#45;&gt;Node8 -->
<g id="edge9_Node000007_Node000008" class="edge">
<title>Node7&#45;&gt;Node8</title>
<g id="a_edge9_Node000007_Node000008"><a xlink:title=" ">
<path fill="none" stroke="#63b8ff" d="M421.08,-9.5C435.67,-9.5 450.7,-9.5 463.15,-9.5"/>
<polygon fill="#63b8ff" stroke="#63b8ff" points="463.34,-13 473.34,-9.5 463.34,-6 463.34,-13"/>
</a>
</g>
</g>
</g>
</svg>
