<?xml version="1.0" encoding="UTF-8" standalone="no"?>
<!DOCTYPE svg PUBLIC "-//W3C//DTD SVG 1.1//EN"
 "http://www.w3.org/Graphics/SVG/1.1/DTD/svg11.dtd">
<!-- Generated by graphviz version 2.43.0 (0)
 -->
<!-- Title: evaluate_collision_players_palm_trees Pages: 1 -->
<svg width="555pt" height="138pt"
 viewBox="0.00 0.00 555.00 138.00" xmlns="http://www.w3.org/2000/svg" xmlns:xlink="http://www.w3.org/1999/xlink">
<g id="graph0" class="graph" transform="scale(1 1) rotate(0) translate(4 134)">
<title>evaluate_collision_players_palm_trees</title>
<!-- Node1 -->
<g id="Node000001" class="node">
<title>Node1</title>
<g id="a_Node000001"><a xlink:title=" ">
<polygon fill="#999999" stroke="#666666" points="118,-57.5 0,-57.5 0,-27.5 118,-27.5 118,-57.5"/>
<text text-anchor="start" x="8" y="-45.5" font-family="Helvetica,sans-Serif" font-size="10.00">evaluate_collision</text>
<text text-anchor="middle" x="59" y="-34.5" font-family="Helvetica,sans-Serif" font-size="10.00">_players_palm_trees</text>
</a>
</g>
</g>
<!-- Node2 -->
<g id="Node000002" class="node">
<title>Node2</title>
<g id="a_Node000002"><a xlink:href="actors_8c.html#a55dd52d90732891552d43874931866cb" target="_top" xlink:title=" ">
<polygon fill="white" stroke="#666666" points="267,-79.5 154,-79.5 154,-49.5 267,-49.5 267,-79.5"/>
<text text-anchor="start" x="162" y="-67.5" font-family="Helvetica,sans-Serif" font-size="10.00">evaluate_collision</text>
<text text-anchor="middle" x="210.5" y="-56.5" font-family="Helvetica,sans-Serif" font-size="10.00">_player_palm_trees</text>
</a>
</g>
</g>
<!-- Node1&#45;&gt;Node2 -->
<g id="edge1_Node000001_Node000002" class="edge">
<title>Node1&#45;&gt;Node2</title>
<g id="a_edge1_Node000001_Node000002"><a xlink:title=" ">
<path fill="none" stroke="#63b8ff" d="M118.23,-51.07C126.51,-52.29 135.07,-53.55 143.48,-54.78"/>
<polygon fill="#63b8ff" stroke="#63b8ff" points="143.23,-58.29 153.64,-56.28 144.25,-51.36 143.23,-58.29"/>
</a>
</g>
</g>
<!-- Node9 -->
<g id="Node000009" class="node">
<title>Node9</title>
<g id="a_Node000009"><a xlink:href="collision_8c.html#a9395b9fc31397e9e9d754b4887a12544" target="_top" xlink:title=" ">
<polygon fill="white" stroke="#666666" points="261,-31 160,-31 160,-12 261,-12 261,-31"/>
<text text-anchor="middle" x="210.5" y="-19" font-family="Helvetica,sans-Serif" font-size="10.00">get_surface_type</text>
</a>
</g>
</g>
<!-- Node1&#45;&gt;Node9 -->
<g id="edge10_Node000001_Node000009" class="edge">
<title>Node1&#45;&gt;Node9</title>
<g id="a_edge10_Node000001_Node000009"><a xlink:title=" ">
<path fill="none" stroke="#63b8ff" d="M118.23,-34.32C128.56,-32.87 139.33,-31.36 149.71,-29.9"/>
<polygon fill="#63b8ff" stroke="#63b8ff" points="150.5,-33.32 159.91,-28.47 149.52,-26.39 150.5,-33.32"/>
</a>
</g>
</g>
<!-- Node3 -->
<g id="Node000003" class="node">
<title>Node3</title>
<g id="a_Node000003"><a xlink:href="external_8c.html#a2be9efc97a92e19d02aaee90d676acc1" target="_top" xlink:title=" ">
<polygon fill="white" stroke="#666666" points="417,-130 325,-130 325,-111 417,-111 417,-130"/>
<text text-anchor="middle" x="371" y="-118" font-family="Helvetica,sans-Serif" font-size="10.00">func_800C9060</text>
</a>
</g>
</g>
<!-- Node2&#45;&gt;Node3 -->
<g id="edge2_Node000002_Node000003" class="edge">
<title>Node2&#45;&gt;Node3</title>
<g id="a_edge2_Node000002_Node000003"><a xlink:title=" ">
<path fill="none" stroke="#63b8ff" d="M244.99,-79.65C262.13,-87.08 283.46,-95.85 303,-102.5 308.91,-104.51 315.18,-106.45 321.41,-108.25"/>
<polygon fill="#63b8ff" stroke="#63b8ff" points="320.55,-111.65 331.12,-110.98 322.44,-104.91 320.55,-111.65"/>
</a>
</g>
</g>
<!-- Node5 -->
<g id="Node000005" class="node">
<title>Node5</title>
<g id="a_Node000005"><a xlink:href="external_8c.html#a337fc3ab94ebb3293a85908229303ac8" target="_top" xlink:title=" ">
<polygon fill="white" stroke="#666666" points="417,-93 325,-93 325,-74 417,-74 417,-93"/>
<text text-anchor="middle" x="371" y="-81" font-family="Helvetica,sans-Serif" font-size="10.00">func_800C90F4</text>
</a>
</g>
</g>
<!-- Node2&#45;&gt;Node5 -->
<g id="edge4_Node000002_Node000005" class="edge">
<title>Node2&#45;&gt;Node5</title>
<g id="a_edge4_Node000002_Node000005"><a xlink:title=" ">
<path fill="none" stroke="#63b8ff" d="M267.38,-71.2C282.66,-73.03 299.21,-75.01 314.47,-76.84"/>
<polygon fill="#63b8ff" stroke="#63b8ff" points="314.45,-80.37 324.8,-78.08 315.29,-73.42 314.45,-80.37"/>
</a>
</g>
</g>
<!-- Node6 -->
<g id="Node000006" class="node">
<title>Node6</title>
<g id="a_Node000006"><a xlink:href="external_8c.html#acb60983213d09ee795e80ca3c8b5975e" target="_top" xlink:title=" ">
<polygon fill="white" stroke="#666666" points="417,-56 325,-56 325,-37 417,-37 417,-56"/>
<text text-anchor="middle" x="371" y="-44" font-family="Helvetica,sans-Serif" font-size="10.00">func_800C98B8</text>
</a>
</g>
</g>
<!-- Node2&#45;&gt;Node6 -->
<g id="edge6_Node000002_Node000006" class="edge">
<title>Node2&#45;&gt;Node6</title>
<g id="a_edge6_Node000002_Node000006"><a xlink:title=" ">
<path fill="none" stroke="#63b8ff" d="M267.38,-58.15C282.66,-56.42 299.21,-54.54 314.47,-52.81"/>
<polygon fill="#63b8ff" stroke="#63b8ff" points="315.26,-56.24 324.8,-51.63 314.47,-49.28 315.26,-56.24"/>
</a>
</g>
</g>
<!-- Node7 -->
<g id="Node000007" class="node">
<title>Node7</title>
<g id="a_Node000007"><a xlink:href="actors_8c.html#a9429052efee64c6d24b4a95def854c02" target="_top" xlink:title=" ">
<polygon fill="white" stroke="#666666" points="439,-19 303,-19 303,0 439,0 439,-19"/>
<text text-anchor="middle" x="371" y="-7" font-family="Helvetica,sans-Serif" font-size="10.00">is_colliding_and_resolve</text>
</a>
</g>
</g>
<!-- Node2&#45;&gt;Node7 -->
<g id="edge8_Node000002_Node000007" class="edge">
<title>Node2&#45;&gt;Node7</title>
<g id="a_edge8_Node000002_Node000007"><a xlink:title=" ">
<path fill="none" stroke="#63b8ff" d="M245.89,-49.44C262.89,-42.29 283.83,-33.92 303,-27.5 308.92,-25.52 315.19,-23.6 321.43,-21.8"/>
<polygon fill="#63b8ff" stroke="#63b8ff" points="322.46,-25.15 331.14,-19.08 320.57,-18.4 322.46,-25.15"/>
</a>
</g>
</g>
<!-- Node4 -->
<g id="Node000004" class="node">
<title>Node4</title>
<g id="a_Node000004"><a xlink:href="external_8c.html#a4227847f3da303aee53cf69d2760a595" target="_top" xlink:title=" ">
<polygon fill="white" stroke="#666666" points="547,-93 475,-93 475,-74 547,-74 547,-93"/>
<text text-anchor="middle" x="511" y="-81" font-family="Helvetica,sans-Serif" font-size="10.00">play_sound</text>
</a>
</g>
</g>
<!-- Node3&#45;&gt;Node4 -->
<g id="edge3_Node000003_Node000004" class="edge">
<title>Node3&#45;&gt;Node4</title>
<g id="a_edge3_Node000003_Node000004"><a xlink:title=" ">
<path fill="none" stroke="#63b8ff" d="M407.54,-110.97C425,-106.29 446.24,-100.59 464.84,-95.61"/>
<polygon fill="#63b8ff" stroke="#63b8ff" points="465.83,-98.97 474.58,-93 464.02,-92.21 465.83,-98.97"/>
</a>
</g>
</g>
<!-- Node5&#45;&gt;Node4 -->
<g id="edge5_Node000005_Node000004" class="edge">
<title>Node5&#45;&gt;Node4</title>
<g id="a_edge5_Node000005_Node000004"><a xlink:title=" ">
<path fill="none" stroke="#63b8ff" d="M417.19,-83.5C432.39,-83.5 449.34,-83.5 464.56,-83.5"/>
<polygon fill="#63b8ff" stroke="#63b8ff" points="464.78,-87 474.78,-83.5 464.78,-80 464.78,-87"/>
</a>
</g>
</g>
<!-- Node6&#45;&gt;Node4 -->
<g id="edge7_Node000006_Node000004" class="edge">
<title>Node6&#45;&gt;Node4</title>
<g id="a_edge7_Node000006_Node000004"><a xlink:title=" ">
<path fill="none" stroke="#63b8ff" d="M407.54,-56.03C425,-60.71 446.24,-66.41 464.84,-71.39"/>
<polygon fill="#63b8ff" stroke="#63b8ff" points="464.02,-74.79 474.58,-74 465.83,-68.03 464.02,-74.79"/>
</a>
</g>
</g>
<!-- Node8 -->
<g id="Node000008" class="node">
<title>Node8</title>
<g id="a_Node000008"><a xlink:href="math_8h.html#a37bde043e94a6f074c78f10518fb5d99" target="_top" xlink:title=" ">
<polygon fill="white" stroke="#666666" points="530.5,-19 491.5,-19 491.5,0 530.5,0 530.5,-19"/>
<text text-anchor="middle" x="511" y="-7" font-family="Helvetica,sans-Serif" font-size="10.00">sqrtf</text>
</a>
</g>
</g>
<!-- Node7&#45;&gt;Node8 -->
<g id="edge9_Node000007_Node000008" class="edge">
<title>Node7&#45;&gt;Node8</title>
<g id="a_edge9_Node000007_Node000008"><a xlink:title=" ">
<path fill="none" stroke="#63b8ff" d="M439.38,-9.5C454.2,-9.5 469.12,-9.5 481.4,-9.5"/>
<polygon fill="#63b8ff" stroke="#63b8ff" points="481.44,-13 491.44,-9.5 481.44,-6 481.44,-13"/>
</a>
</g>
</g>
</g>
</svg>
