<?xml version="1.0" encoding="UTF-8" standalone="no"?>
<!DOCTYPE svg PUBLIC "-//W3C//DTD SVG 1.1//EN"
 "http://www.w3.org/Graphics/SVG/1.1/DTD/svg11.dtd">
<!-- Generated by graphviz version 2.43.0 (0)
 -->
<!-- Title: func_802B2914 Pages: 1 -->
<svg width="1669pt" height="372pt"
 viewBox="0.00 0.00 1669.00 372.00" xmlns="http://www.w3.org/2000/svg" xmlns:xlink="http://www.w3.org/1999/xlink">
<g id="graph0" class="graph" transform="scale(1 1) rotate(0) translate(4 368)">
<title>func_802B2914</title>
<!-- Node1 -->
<g id="Node000001" class="node">
<title>Node1</title>
<g id="a_Node000001"><a xlink:title=" ">
<polygon fill="#999999" stroke="#666666" points="92,-99 0,-99 0,-80 92,-80 92,-99"/>
<text text-anchor="middle" x="46" y="-87" font-family="Helvetica,sans-Serif" font-size="10.00">func_802B2914</text>
</a>
</g>
</g>
<!-- Node2 -->
<g id="Node000002" class="node">
<title>Node2</title>
<g id="a_Node000002"><a xlink:href="actors_8c.html#a91fb2e4e37e7c72fea918fe2c1bb4eaf" target="_top" xlink:title=" ">
<polygon fill="white" stroke="#666666" points="274,-179 134,-179 134,-160 274,-160 274,-179"/>
<text text-anchor="middle" x="204" y="-167" font-family="Helvetica,sans-Serif" font-size="10.00">add_actor_to_empty_slot</text>
</a>
</g>
</g>
<!-- Node1&#45;&gt;Node2 -->
<g id="edge1_Node000001_Node000002" class="edge">
<title>Node1&#45;&gt;Node2</title>
<g id="a_edge1_Node000001_Node000002"><a xlink:title=" ">
<path fill="none" stroke="#63b8ff" d="M57.71,-99.27C72.49,-112.27 100.45,-135.15 128,-148.5 134.61,-151.7 141.79,-154.49 149,-156.9"/>
<polygon fill="#63b8ff" stroke="#63b8ff" points="148.22,-160.32 158.8,-159.95 150.29,-153.64 148.22,-160.32"/>
</a>
</g>
</g>
<!-- Node25 -->
<g id="Node000025" class="node">
<title>Node25</title>
<g id="a_Node000025"><a xlink:href="external_8c.html#a2be9efc97a92e19d02aaee90d676acc1" target="_top" xlink:title=" ">
<polygon fill="white" stroke="#666666" points="250,-139 158,-139 158,-120 250,-120 250,-139"/>
<text text-anchor="middle" x="204" y="-127" font-family="Helvetica,sans-Serif" font-size="10.00">func_800C9060</text>
</a>
</g>
</g>
<!-- Node1&#45;&gt;Node25 -->
<g id="edge27_Node000001_Node000025" class="edge">
<title>Node1&#45;&gt;Node25</title>
<g id="a_edge27_Node000001_Node000025"><a xlink:title=" ">
<path fill="none" stroke="#63b8ff" d="M84.37,-99.08C105.88,-104.6 133.12,-111.58 156.07,-117.47"/>
<polygon fill="#63b8ff" stroke="#63b8ff" points="155.38,-120.9 165.94,-120 157.12,-114.12 155.38,-120.9"/>
</a>
</g>
</g>
<!-- Node27 -->
<g id="Node000027" class="node">
<title>Node27</title>
<g id="a_Node000027"><a xlink:href="collision_8c.html#a0724869c38f177efa5357ac2205857d4" target="_top" xlink:title=" ">
<polygon fill="white" stroke="#666666" points="250.5,-99 157.5,-99 157.5,-80 250.5,-80 250.5,-99"/>
<text text-anchor="middle" x="204" y="-87" font-family="Helvetica,sans-Serif" font-size="10.00">func_802AD950</text>
</a>
</g>
</g>
<!-- Node1&#45;&gt;Node27 -->
<g id="edge29_Node000001_Node000027" class="edge">
<title>Node1&#45;&gt;Node27</title>
<g id="a_edge29_Node000001_Node000027"><a xlink:title=" ">
<path fill="none" stroke="#63b8ff" d="M92.12,-89.5C109.35,-89.5 129.2,-89.5 147.3,-89.5"/>
<polygon fill="#63b8ff" stroke="#63b8ff" points="147.44,-93 157.44,-89.5 147.44,-86 147.44,-93"/>
</a>
</g>
</g>
<!-- Node31 -->
<g id="Node000031" class="node">
<title>Node31</title>
<g id="a_Node000031"><a xlink:href="actors__extended_8c.html#a78e98c146f1f4dd6e3608016486172a4" target="_top" xlink:title=" ">
<polygon fill="white" stroke="#666666" points="250,-62 158,-62 158,-43 250,-43 250,-62"/>
<text text-anchor="middle" x="204" y="-50" font-family="Helvetica,sans-Serif" font-size="10.00">func_802B4E30</text>
</a>
</g>
</g>
<!-- Node1&#45;&gt;Node31 -->
<g id="edge33_Node000001_Node000031" class="edge">
<title>Node1&#45;&gt;Node31</title>
<g id="a_edge33_Node000001_Node000031"><a xlink:title=" ">
<path fill="none" stroke="#63b8ff" d="M87.17,-79.97C107.2,-75.22 131.62,-69.43 152.87,-64.39"/>
<polygon fill="#63b8ff" stroke="#63b8ff" points="153.77,-67.77 162.69,-62.06 152.15,-60.96 153.77,-67.77"/>
</a>
</g>
</g>
<!-- Node32 -->
<g id="Node000032" class="node">
<title>Node32</title>
<g id="a_Node000032"><a xlink:href="math__util_8c.html#ad5bb0138c68b50f119d3cb7966f522b7" target="_top" xlink:title=" ">
<polygon fill="white" stroke="#666666" points="280,-25 128,-25 128,-6 280,-6 280,-25"/>
<text text-anchor="middle" x="204" y="-13" font-family="Helvetica,sans-Serif" font-size="10.00">mtxf_translate_vec3f_mat3</text>
</a>
</g>
</g>
<!-- Node1&#45;&gt;Node32 -->
<g id="edge34_Node000001_Node000032" class="edge">
<title>Node1&#45;&gt;Node32</title>
<g id="a_edge34_Node000001_Node000032"><a xlink:title=" ">
<path fill="none" stroke="#63b8ff" d="M57.99,-79.89C72.86,-67.39 100.68,-45.71 128,-33.5 132.62,-31.44 137.51,-29.59 142.49,-27.94"/>
<polygon fill="#63b8ff" stroke="#63b8ff" points="143.58,-31.27 152.13,-25.01 141.54,-24.57 143.58,-31.27"/>
</a>
</g>
</g>
<!-- Node3 -->
<g id="Node000003" class="node">
<title>Node3</title>
<g id="a_Node000003"><a xlink:href="actors_8c.html#a39c023177b5a7686cdd1fc65b8b953e1" target="_top" xlink:title=" ">
<polygon fill="white" stroke="#666666" points="557,-253 495,-253 495,-234 557,-234 557,-253"/>
<text text-anchor="middle" x="526" y="-241" font-family="Helvetica,sans-Serif" font-size="10.00">actor_init</text>
</a>
</g>
</g>
<!-- Node2&#45;&gt;Node3 -->
<g id="edge2_Node000002_Node000003" class="edge">
<title>Node2&#45;&gt;Node3</title>
<g id="a_edge2_Node000002_Node000003"><a xlink:title=" ">
<path fill="none" stroke="#63b8ff" d="M246.18,-179.02C307.93,-193.3 423.79,-220.09 484.9,-234.23"/>
<polygon fill="#63b8ff" stroke="#63b8ff" points="484.41,-237.71 494.94,-236.55 485.98,-230.89 484.41,-237.71"/>
</a>
</g>
</g>
<!-- Node24 -->
<g id="Node000024" class="node">
<title>Node24</title>
<g id="a_Node000024"><a xlink:href="actors_8c.html#a0c9d11d8956bf92c32a5e9bafd7036e6" target="_top" xlink:title=" ">
<polygon fill="white" stroke="#666666" points="433,-179 342,-179 342,-160 433,-160 433,-179"/>
<text text-anchor="middle" x="387.5" y="-167" font-family="Helvetica,sans-Serif" font-size="10.00">func_8029E890</text>
</a>
</g>
</g>
<!-- Node2&#45;&gt;Node24 -->
<g id="edge23_Node000002_Node000024" class="edge">
<title>Node2&#45;&gt;Node24</title>
<g id="a_edge23_Node000002_Node000024"><a xlink:title=" ">
<path fill="none" stroke="#63b8ff" d="M274.14,-169.5C293.23,-169.5 313.69,-169.5 331.84,-169.5"/>
<polygon fill="#63b8ff" stroke="#63b8ff" points="331.95,-173 341.95,-169.5 331.95,-166 331.95,-173"/>
</a>
</g>
</g>
<!-- Node4 -->
<g id="Node000004" class="node">
<title>Node4</title>
<g id="a_Node000004"><a xlink:href="actors_8c.html#a1a9bccb586242555a9123ebd4ab70f2a" target="_top" xlink:title=" ">
<polygon fill="white" stroke="#666666" points="725,-215.5 593,-215.5 593,-185.5 725,-185.5 725,-215.5"/>
<text text-anchor="start" x="601" y="-203.5" font-family="Helvetica,sans-Serif" font-size="10.00">cleanup_red_and_green</text>
<text text-anchor="middle" x="659" y="-192.5" font-family="Helvetica,sans-Serif" font-size="10.00">_shells</text>
</a>
</g>
</g>
<!-- Node3&#45;&gt;Node4 -->
<g id="edge3_Node000003_Node000004" class="edge">
<title>Node3&#45;&gt;Node4</title>
<g id="a_edge3_Node000003_Node000004"><a xlink:title=" ">
<path fill="none" stroke="#63b8ff" d="M556.07,-233.96C569.74,-229.47 586.52,-223.96 602.48,-218.72"/>
<polygon fill="#63b8ff" stroke="#63b8ff" points="603.87,-221.95 612.28,-215.51 601.69,-215.3 603.87,-221.95"/>
</a>
</g>
</g>
<!-- Node16 -->
<g id="Node000016" class="node">
<title>Node16</title>
<g id="a_Node000016"><a xlink:href="collision_8c.html#ad72fef3ffe32191d73b1822f512ebf3f" target="_top" xlink:title=" ">
<polygon fill="white" stroke="#666666" points="706.5,-290 611.5,-290 611.5,-271 706.5,-271 706.5,-290"/>
<text text-anchor="middle" x="659" y="-278" font-family="Helvetica,sans-Serif" font-size="10.00">func_802AAAAC</text>
</a>
</g>
</g>
<!-- Node3&#45;&gt;Node16 -->
<g id="edge15_Node000003_Node000016" class="edge">
<title>Node3&#45;&gt;Node16</title>
<g id="a_edge15_Node000003_Node000016"><a xlink:title=" ">
<path fill="none" stroke="#63b8ff" d="M557.21,-252.27C568.44,-255.51 581.3,-259.19 593,-262.5 599.59,-264.36 606.55,-266.31 613.39,-268.21"/>
<polygon fill="#63b8ff" stroke="#63b8ff" points="612.66,-271.64 623.24,-270.94 614.54,-264.9 612.66,-271.64"/>
</a>
</g>
</g>
<!-- Node18 -->
<g id="Node000018" class="node">
<title>Node18</title>
<g id="a_Node000018"><a xlink:href="collision_8c.html#a365367628b7140a7a880beeecce9c305" target="_top" xlink:title=" ">
<polygon fill="white" stroke="#666666" points="706.5,-253 611.5,-253 611.5,-234 706.5,-234 706.5,-253"/>
<text text-anchor="middle" x="659" y="-241" font-family="Helvetica,sans-Serif" font-size="10.00">func_802ADDC8</text>
</a>
</g>
</g>
<!-- Node3&#45;&gt;Node18 -->
<g id="edge17_Node000003_Node000018" class="edge">
<title>Node3&#45;&gt;Node18</title>
<g id="a_edge17_Node000003_Node000018"><a xlink:title=" ">
<path fill="none" stroke="#63b8ff" d="M557.05,-243.5C570.13,-243.5 585.9,-243.5 601.04,-243.5"/>
<polygon fill="#63b8ff" stroke="#63b8ff" points="601.39,-247 611.39,-243.5 601.39,-240 601.39,-247"/>
</a>
</g>
</g>
<!-- Node22 -->
<g id="Node000022" class="node">
<title>Node22</title>
<g id="a_Node000022"><a xlink:href="math__util_8c.html#af7b470ed76fce07b8042a47c96e5690b" target="_top" xlink:title=" ">
<polygon fill="white" stroke="#666666" points="712.5,-364 605.5,-364 605.5,-345 712.5,-345 712.5,-364"/>
<text text-anchor="middle" x="659" y="-352" font-family="Helvetica,sans-Serif" font-size="10.00">vec3f_copy_return</text>
</a>
</g>
</g>
<!-- Node3&#45;&gt;Node22 -->
<g id="edge21_Node000003_Node000022" class="edge">
<title>Node3&#45;&gt;Node22</title>
<g id="a_edge21_Node000003_Node000022"><a xlink:title=" ">
<path fill="none" stroke="#63b8ff" d="M531.07,-253.05C539.65,-271.97 561.4,-314.32 593,-336.5 595.22,-338.05 597.56,-339.47 599.99,-340.77"/>
<polygon fill="#63b8ff" stroke="#63b8ff" points="598.57,-343.97 609.12,-344.96 601.49,-337.61 598.57,-343.97"/>
</a>
</g>
</g>
<!-- Node23 -->
<g id="Node000023" class="node">
<title>Node23</title>
<g id="a_Node000023"><a xlink:href="math__util_8c.html#a0e270ee67600c8c9c2f140c647d008a1" target="_top" xlink:title=" ">
<polygon fill="white" stroke="#666666" points="696,-327 622,-327 622,-308 696,-308 696,-327"/>
<text text-anchor="middle" x="659" y="-315" font-family="Helvetica,sans-Serif" font-size="10.00">vec3s_copy</text>
</a>
</g>
</g>
<!-- Node3&#45;&gt;Node23 -->
<g id="edge22_Node000003_Node000023" class="edge">
<title>Node3&#45;&gt;Node23</title>
<g id="a_edge22_Node000003_Node000023"><a xlink:title=" ">
<path fill="none" stroke="#63b8ff" d="M535.86,-253.29C547.71,-265.79 569.89,-287.27 593,-299.5 598.98,-302.67 605.57,-305.32 612.19,-307.53"/>
<polygon fill="#63b8ff" stroke="#63b8ff" points="611.27,-310.91 621.85,-310.46 613.3,-304.21 611.27,-310.91"/>
</a>
</g>
</g>
<!-- Node5 -->
<g id="Node000005" class="node">
<title>Node5</title>
<g id="a_Node000005"><a xlink:href="actors_8c.html#a694ec6ef7548b8618aeb35c038d3a9b9" target="_top" xlink:title=" ">
<polygon fill="white" stroke="#666666" points="878.5,-210 795.5,-210 795.5,-191 878.5,-191 878.5,-210"/>
<text text-anchor="middle" x="837" y="-198" font-family="Helvetica,sans-Serif" font-size="10.00">destroy_actor</text>
</a>
</g>
</g>
<!-- Node4&#45;&gt;Node5 -->
<g id="edge4_Node000004_Node000005" class="edge">
<title>Node4&#45;&gt;Node5</title>
<g id="a_edge4_Node000004_Node000005"><a xlink:title=" ">
<path fill="none" stroke="#63b8ff" d="M725.04,-200.5C744.95,-200.5 766.55,-200.5 785.35,-200.5"/>
<polygon fill="#63b8ff" stroke="#63b8ff" points="785.48,-204 795.48,-200.5 785.48,-197 785.48,-204"/>
</a>
</g>
</g>
<!-- Node15 -->
<g id="Node000015" class="node">
<title>Node15</title>
<g id="a_Node000015"><a xlink:href="code__80005FD0_8c.html#acb7b3d384c78d219f4b7040e78f6a2f2" target="_top" xlink:title=" ">
<polygon fill="white" stroke="#666666" points="913,-172.5 761,-172.5 761,-142.5 913,-142.5 913,-172.5"/>
<text text-anchor="start" x="769" y="-160.5" font-family="Helvetica,sans-Serif" font-size="10.00">remove_actor_in_unexpired</text>
<text text-anchor="middle" x="837" y="-149.5" font-family="Helvetica,sans-Serif" font-size="10.00">_actor_list</text>
</a>
</g>
</g>
<!-- Node4&#45;&gt;Node15 -->
<g id="edge14_Node000004_Node000015" class="edge">
<title>Node4&#45;&gt;Node15</title>
<g id="a_edge14_Node000004_Node000015"><a xlink:title=" ">
<path fill="none" stroke="#63b8ff" d="M721.56,-185.46C735.49,-182.06 750.4,-178.41 764.7,-174.92"/>
<polygon fill="#63b8ff" stroke="#63b8ff" points="765.59,-178.3 774.48,-172.53 763.93,-171.5 765.59,-178.3"/>
</a>
</g>
</g>
<!-- Node6 -->
<g id="Node000006" class="node">
<title>Node6</title>
<g id="a_Node000006"><a xlink:href="actors_8c.html#ad5a56c8f7eaf719223099cce9e38ec9f" target="_top" xlink:title=" ">
<polygon fill="white" stroke="#666666" points="1100,-167 949,-167 949,-148 1100,-148 1100,-167"/>
<text text-anchor="middle" x="1024.5" y="-155" font-family="Helvetica,sans-Serif" font-size="10.00">play_sound_before_destroy</text>
</a>
</g>
</g>
<!-- Node5&#45;&gt;Node6 -->
<g id="edge5_Node000005_Node000006" class="edge">
<title>Node5&#45;&gt;Node6</title>
<g id="a_edge5_Node000005_Node000006"><a xlink:title=" ">
<path fill="none" stroke="#63b8ff" d="M878.71,-191.06C906.18,-184.69 942.67,-176.24 972.14,-169.41"/>
<polygon fill="#63b8ff" stroke="#63b8ff" points="973.29,-172.73 982.25,-167.06 971.71,-165.91 973.29,-172.73"/>
</a>
</g>
</g>
<!-- Node7 -->
<g id="Node000007" class="node">
<title>Node7</title>
<g id="a_Node000007"><a xlink:href="external_8c.html#ae72057869772019e4464c87d4e16c682" target="_top" xlink:title=" ">
<polygon fill="white" stroke="#666666" points="1228,-167 1136,-167 1136,-148 1228,-148 1228,-167"/>
<text text-anchor="middle" x="1182" y="-155" font-family="Helvetica,sans-Serif" font-size="10.00">func_800C99E0</text>
</a>
</g>
</g>
<!-- Node6&#45;&gt;Node7 -->
<g id="edge6_Node000006_Node000007" class="edge">
<title>Node6&#45;&gt;Node7</title>
<g id="a_edge6_Node000006_Node000007"><a xlink:title=" ">
<path fill="none" stroke="#63b8ff" d="M1100.06,-157.5C1108.61,-157.5 1117.21,-157.5 1125.45,-157.5"/>
<polygon fill="#63b8ff" stroke="#63b8ff" points="1125.66,-161 1135.66,-157.5 1125.66,-154 1125.66,-161"/>
</a>
</g>
</g>
<!-- Node8 -->
<g id="Node000008" class="node">
<title>Node8</title>
<g id="a_Node000008"><a xlink:href="external_8c.html#aeb87c527482a244173df36a1f3d4f446" target="_top" xlink:title=" ">
<polygon fill="white" stroke="#666666" points="1356,-186 1264,-186 1264,-167 1356,-167 1356,-186"/>
<text text-anchor="middle" x="1310" y="-174" font-family="Helvetica,sans-Serif" font-size="10.00">func_800C21E8</text>
</a>
</g>
</g>
<!-- Node7&#45;&gt;Node8 -->
<g id="edge7_Node000007_Node000008" class="edge">
<title>Node7&#45;&gt;Node8</title>
<g id="a_edge7_Node000007_Node000008"><a xlink:title=" ">
<path fill="none" stroke="#63b8ff" d="M1228.13,-164.31C1236.46,-165.56 1245.23,-166.88 1253.81,-168.18"/>
<polygon fill="#63b8ff" stroke="#63b8ff" points="1253.35,-171.65 1263.76,-169.68 1254.39,-164.73 1253.35,-171.65"/>
</a>
</g>
</g>
<!-- Node9 -->
<g id="Node000009" class="node">
<title>Node9</title>
<g id="a_Node000009"><a xlink:href="external_8c.html#a028d40421b90c38f68ebfd5acc626f2e" target="_top" xlink:title=" ">
<polygon fill="white" stroke="#666666" points="1356,-149 1264,-149 1264,-130 1356,-130 1356,-149"/>
<text text-anchor="middle" x="1310" y="-137" font-family="Helvetica,sans-Serif" font-size="10.00">func_800C5578</text>
</a>
</g>
</g>
<!-- Node7&#45;&gt;Node9 -->
<g id="edge8_Node000007_Node000009" class="edge">
<title>Node7&#45;&gt;Node9</title>
<g id="a_edge8_Node000007_Node000009"><a xlink:title=" ">
<path fill="none" stroke="#63b8ff" d="M1228.13,-151.05C1236.46,-149.86 1245.23,-148.61 1253.81,-147.38"/>
<polygon fill="#63b8ff" stroke="#63b8ff" points="1254.35,-150.84 1263.76,-145.96 1253.36,-143.91 1254.35,-150.84"/>
</a>
</g>
</g>
<!-- Node10 -->
<g id="Node000010" class="node">
<title>Node10</title>
<g id="a_Node000010"><a xlink:href="external_8c.html#ac0fb767de7e14a03f1bcfa53f0abd23b" target="_top" xlink:title=" ">
<polygon fill="white" stroke="#666666" points="1532,-186 1392,-186 1392,-167 1532,-167 1532,-186"/>
<text text-anchor="middle" x="1462" y="-174" font-family="Helvetica,sans-Serif" font-size="10.00">delete_sound_from_bank</text>
</a>
</g>
</g>
<!-- Node9&#45;&gt;Node10 -->
<g id="edge9_Node000009_Node000010" class="edge">
<title>Node9&#45;&gt;Node10</title>
<g id="a_edge9_Node000009_Node000010"><a xlink:title=" ">
<path fill="none" stroke="#63b8ff" d="M1349.63,-149.03C1368.8,-153.76 1392.16,-159.52 1412.52,-164.54"/>
<polygon fill="#63b8ff" stroke="#63b8ff" points="1411.69,-167.94 1422.24,-166.94 1413.37,-161.15 1411.69,-167.94"/>
</a>
</g>
</g>
<!-- Node12 -->
<g id="Node000012" class="node">
<title>Node12</title>
<g id="a_Node000012"><a xlink:href="external_8c.html#ab83bd36e63f0f1baddcb2482b5ad31b0" target="_top" xlink:title=" ">
<polygon fill="white" stroke="#666666" points="1508.5,-149 1415.5,-149 1415.5,-130 1508.5,-130 1508.5,-149"/>
<text text-anchor="middle" x="1462" y="-137" font-family="Helvetica,sans-Serif" font-size="10.00">func_800C41CC</text>
</a>
</g>
</g>
<!-- Node9&#45;&gt;Node12 -->
<g id="edge11_Node000009_Node000012" class="edge">
<title>Node9&#45;&gt;Node12</title>
<g id="a_edge11_Node000009_Node000012"><a xlink:title=" ">
<path fill="none" stroke="#63b8ff" d="M1356,-139.5C1371.37,-139.5 1388.74,-139.5 1404.86,-139.5"/>
<polygon fill="#63b8ff" stroke="#63b8ff" points="1405.25,-143 1415.25,-139.5 1405.25,-136 1405.25,-143"/>
</a>
</g>
</g>
<!-- Node13 -->
<g id="Node000013" class="node">
<title>Node13</title>
<g id="a_Node000013"><a xlink:href="port__eu_8c.html#aa89dfaecca46c6d071f08c1898d1f7c9" target="_top" xlink:title=" ">
<polygon fill="white" stroke="#666666" points="1508.5,-112 1415.5,-112 1415.5,-93 1508.5,-93 1508.5,-112"/>
<text text-anchor="middle" x="1462" y="-100" font-family="Helvetica,sans-Serif" font-size="10.00">func_800CBBE8</text>
</a>
</g>
</g>
<!-- Node9&#45;&gt;Node13 -->
<g id="edge12_Node000009_Node000013" class="edge">
<title>Node9&#45;&gt;Node13</title>
<g id="a_edge12_Node000009_Node000013"><a xlink:title=" ">
<path fill="none" stroke="#63b8ff" d="M1349.63,-129.97C1368.8,-125.24 1392.16,-119.48 1412.52,-114.46"/>
<polygon fill="#63b8ff" stroke="#63b8ff" points="1413.37,-117.85 1422.24,-112.06 1411.69,-111.06 1413.37,-117.85"/>
</a>
</g>
</g>
<!-- Node11 -->
<g id="Node000011" class="node">
<title>Node11</title>
<g id="a_Node000011"><a xlink:href="external_8c.html#a358ac55e8ab5262dcae8037334be06d7" target="_top" xlink:title=" ">
<polygon fill="white" stroke="#666666" points="1660.5,-186 1568.5,-186 1568.5,-167 1660.5,-167 1660.5,-186"/>
<text text-anchor="middle" x="1614.5" y="-174" font-family="Helvetica,sans-Serif" font-size="10.00">func_800C40F0</text>
</a>
</g>
</g>
<!-- Node10&#45;&gt;Node11 -->
<g id="edge10_Node000010_Node000011" class="edge">
<title>Node10&#45;&gt;Node11</title>
<g id="a_edge10_Node000010_Node000011"><a xlink:title=" ">
<path fill="none" stroke="#63b8ff" d="M1532.08,-176.5C1540.87,-176.5 1549.78,-176.5 1558.31,-176.5"/>
<polygon fill="#63b8ff" stroke="#63b8ff" points="1558.5,-180 1568.5,-176.5 1558.5,-173 1558.5,-180"/>
</a>
</g>
</g>
<!-- Node14 -->
<g id="Node000014" class="node">
<title>Node14</title>
<g id="a_Node000014"><a xlink:href="port__eu_8c.html#af361a20d2e08f30c53a237ca481ff734" target="_top" xlink:title=" ">
<polygon fill="white" stroke="#666666" points="1661,-112 1568,-112 1568,-93 1661,-93 1661,-112"/>
<text text-anchor="middle" x="1614.5" y="-100" font-family="Helvetica,sans-Serif" font-size="10.00">func_800CBB48</text>
</a>
</g>
</g>
<!-- Node13&#45;&gt;Node14 -->
<g id="edge13_Node000013_Node000014" class="edge">
<title>Node13&#45;&gt;Node14</title>
<g id="a_edge13_Node000013_Node000014"><a xlink:title=" ">
<path fill="none" stroke="#63b8ff" d="M1508.56,-102.5C1523.96,-102.5 1541.34,-102.5 1557.46,-102.5"/>
<polygon fill="#63b8ff" stroke="#63b8ff" points="1557.83,-106 1567.83,-102.5 1557.83,-99 1557.83,-106"/>
</a>
</g>
</g>
<!-- Node17 -->
<g id="Node000017" class="node">
<title>Node17</title>
<g id="a_Node000017"><a xlink:href="math__util_8c.html#a79fd07a0971ec96a3ff0801963a2fa7f" target="_top" xlink:title=" ">
<polygon fill="white" stroke="#666666" points="869,-358 805,-358 805,-339 869,-339 869,-358"/>
<text text-anchor="middle" x="837" y="-346" font-family="Helvetica,sans-Serif" font-size="10.00">vec3f_set</text>
</a>
</g>
</g>
<!-- Node16&#45;&gt;Node17 -->
<g id="edge16_Node000016_Node000017" class="edge">
<title>Node16&#45;&gt;Node17</title>
<g id="a_edge16_Node000016_Node000017"><a xlink:title=" ">
<path fill="none" stroke="#63b8ff" d="M702.31,-290.02C710.1,-292.55 717.97,-295.68 725,-299.5 743.55,-309.58 742.21,-320.88 761,-330.5 771.51,-335.88 783.68,-339.69 795.11,-342.37"/>
<polygon fill="#63b8ff" stroke="#63b8ff" points="794.41,-345.8 804.91,-344.45 795.86,-338.95 794.41,-345.8"/>
</a>
</g>
</g>
<!-- Node19 -->
<g id="Node000019" class="node">
<title>Node19</title>
<g id="a_Node000019"><a xlink:href="collision_8c.html#afce45acb8da354da0a5b501003be1aef" target="_top" xlink:title=" ">
<polygon fill="white" stroke="#666666" points="883.5,-284 790.5,-284 790.5,-265 883.5,-265 883.5,-284"/>
<text text-anchor="middle" x="837" y="-272" font-family="Helvetica,sans-Serif" font-size="10.00">func_802AAE4C</text>
</a>
</g>
</g>
<!-- Node18&#45;&gt;Node19 -->
<g id="edge18_Node000018_Node000019" class="edge">
<title>Node18&#45;&gt;Node19</title>
<g id="a_edge18_Node000018_Node000019"><a xlink:title=" ">
<path fill="none" stroke="#63b8ff" d="M706.7,-251.73C729.34,-255.71 756.68,-260.53 780.39,-264.7"/>
<polygon fill="#63b8ff" stroke="#63b8ff" points="779.84,-268.16 790.3,-266.45 781.06,-261.27 779.84,-268.16"/>
</a>
</g>
</g>
<!-- Node20 -->
<g id="Node000020" class="node">
<title>Node20</title>
<g id="a_Node000020"><a xlink:href="collision_8c.html#adcc608ea0eae3bf9a27ab79ec64b4899" target="_top" xlink:title=" ">
<polygon fill="white" stroke="#666666" points="883,-247 791,-247 791,-228 883,-228 883,-247"/>
<text text-anchor="middle" x="837" y="-235" font-family="Helvetica,sans-Serif" font-size="10.00">func_802AB288</text>
</a>
</g>
</g>
<!-- Node18&#45;&gt;Node20 -->
<g id="edge19_Node000018_Node000020" class="edge">
<title>Node18&#45;&gt;Node20</title>
<g id="a_edge19_Node000018_Node000020"><a xlink:title=" ">
<path fill="none" stroke="#63b8ff" d="M706.7,-241.91C729.41,-241.13 756.87,-240.2 780.63,-239.39"/>
<polygon fill="#63b8ff" stroke="#63b8ff" points="781.03,-242.88 790.9,-239.04 780.79,-235.88 781.03,-242.88"/>
</a>
</g>
</g>
<!-- Node21 -->
<g id="Node000021" class="node">
<title>Node21</title>
<g id="a_Node000021"><a xlink:href="collision_8c.html#ab440aa3fc960b7b4b5ad8e4bcaa06b00" target="_top" xlink:title=" ">
<polygon fill="white" stroke="#666666" points="883.5,-321 790.5,-321 790.5,-302 883.5,-302 883.5,-321"/>
<text text-anchor="middle" x="837" y="-309" font-family="Helvetica,sans-Serif" font-size="10.00">func_802AB6C4</text>
</a>
</g>
</g>
<!-- Node18&#45;&gt;Node21 -->
<g id="edge20_Node000018_Node000021" class="edge">
<title>Node18&#45;&gt;Node21</title>
<g id="a_edge20_Node000018_Node000021"><a xlink:title=" ">
<path fill="none" stroke="#63b8ff" d="M702.31,-253.02C710.1,-255.55 717.97,-258.68 725,-262.5 743.55,-272.58 742.21,-283.88 761,-293.5 767.09,-296.62 773.73,-299.21 780.46,-301.35"/>
<polygon fill="#63b8ff" stroke="#63b8ff" points="779.76,-304.79 790.34,-304.2 781.7,-298.07 779.76,-304.79"/>
</a>
</g>
</g>
<!-- Node24&#45;&gt;Node3 -->
<g id="edge24_Node000024_Node000003" class="edge">
<title>Node24&#45;&gt;Node3</title>
<g id="a_edge24_Node000024_Node000003"><a xlink:title=" ">
<path fill="none" stroke="#63b8ff" d="M406.07,-179.02C429.38,-191.66 470.78,-214.11 498.06,-228.9"/>
<polygon fill="#63b8ff" stroke="#63b8ff" points="496.61,-232.09 507.07,-233.78 499.95,-225.94 496.61,-232.09"/>
</a>
</g>
</g>
<!-- Node24&#45;&gt;Node6 -->
<g id="edge25_Node000024_Node000006" class="edge">
<title>Node24&#45;&gt;Node6</title>
<g id="a_edge25_Node000024_Node000006"><a xlink:title=" ">
<path fill="none" stroke="#63b8ff" d="M433.16,-161.17C523.8,-145.41 735.81,-114.48 913,-133.5 934.87,-135.85 958.77,-140.74 978.73,-145.5"/>
<polygon fill="#63b8ff" stroke="#63b8ff" points="977.94,-148.91 988.48,-147.89 979.6,-142.11 977.94,-148.91"/>
</a>
</g>
</g>
<!-- Node24&#45;&gt;Node15 -->
<g id="edge26_Node000024_Node000015" class="edge">
<title>Node24&#45;&gt;Node15</title>
<g id="a_edge26_Node000024_Node000015"><a xlink:title=" ">
<path fill="none" stroke="#63b8ff" d="M433.04,-168.31C506.95,-166.32 656.15,-162.32 750.8,-159.78"/>
<polygon fill="#63b8ff" stroke="#63b8ff" points="751.02,-163.28 760.92,-159.51 750.83,-156.28 751.02,-163.28"/>
</a>
</g>
</g>
<!-- Node26 -->
<g id="Node000026" class="node">
<title>Node26</title>
<g id="a_Node000026"><a xlink:href="external_8c.html#a4227847f3da303aee53cf69d2760a595" target="_top" xlink:title=" ">
<polygon fill="white" stroke="#666666" points="423.5,-142 351.5,-142 351.5,-123 423.5,-123 423.5,-142"/>
<text text-anchor="middle" x="387.5" y="-130" font-family="Helvetica,sans-Serif" font-size="10.00">play_sound</text>
</a>
</g>
</g>
<!-- Node25&#45;&gt;Node26 -->
<g id="edge28_Node000025_Node000026" class="edge">
<title>Node25&#45;&gt;Node26</title>
<g id="a_edge28_Node000025_Node000026"><a xlink:title=" ">
<path fill="none" stroke="#63b8ff" d="M250.33,-130.25C278.08,-130.71 313.45,-131.29 341.19,-131.75"/>
<polygon fill="#63b8ff" stroke="#63b8ff" points="341.36,-135.25 351.42,-131.92 341.48,-128.26 341.36,-135.25"/>
</a>
</g>
</g>
<!-- Node28 -->
<g id="Node000028" class="node">
<title>Node28</title>
<g id="a_Node000028"><a xlink:href="collision_8c.html#a9ec62ee67d55805a587752d82d66abd8" target="_top" xlink:title=" ">
<polygon fill="white" stroke="#666666" points="459,-104.5 316,-104.5 316,-74.5 459,-74.5 459,-104.5"/>
<text text-anchor="start" x="324" y="-92.5" font-family="Helvetica,sans-Serif" font-size="10.00">is_colliding_with_drivable</text>
<text text-anchor="middle" x="387.5" y="-81.5" font-family="Helvetica,sans-Serif" font-size="10.00">_surface</text>
</a>
</g>
</g>
<!-- Node27&#45;&gt;Node28 -->
<g id="edge30_Node000027_Node000028" class="edge">
<title>Node27&#45;&gt;Node28</title>
<g id="a_edge30_Node000027_Node000028"><a xlink:title=" ">
<path fill="none" stroke="#63b8ff" d="M250.8,-89.5C267.54,-89.5 287,-89.5 305.87,-89.5"/>
<polygon fill="#63b8ff" stroke="#63b8ff" points="305.97,-93 315.97,-89.5 305.97,-86 305.97,-93"/>
</a>
</g>
</g>
<!-- Node29 -->
<g id="Node000029" class="node">
<title>Node29</title>
<g id="a_Node000029"><a xlink:href="collision_8c.html#aa77fc5aaa5aa3a6f71ad00bc71b04788" target="_top" xlink:title=" ">
<polygon fill="white" stroke="#666666" points="452,-56 323,-56 323,-37 452,-37 452,-56"/>
<text text-anchor="middle" x="387.5" y="-44" font-family="Helvetica,sans-Serif" font-size="10.00">is_colliding_with_wall1</text>
</a>
</g>
</g>
<!-- Node27&#45;&gt;Node29 -->
<g id="edge31_Node000027_Node000029" class="edge">
<title>Node27&#45;&gt;Node29</title>
<g id="a_edge31_Node000027_Node000029"><a xlink:title=" ">
<path fill="none" stroke="#63b8ff" d="M245.28,-79.96C272.19,-73.58 307.77,-65.15 336.49,-58.35"/>
<polygon fill="#63b8ff" stroke="#63b8ff" points="337.41,-61.73 346.33,-56.02 335.79,-54.92 337.41,-61.73"/>
</a>
</g>
</g>
<!-- Node30 -->
<g id="Node000030" class="node">
<title>Node30</title>
<g id="a_Node000030"><a xlink:href="collision_8c.html#a728bd4102d2ed3ba18d68d39b707c0f4" target="_top" xlink:title=" ">
<polygon fill="white" stroke="#666666" points="452,-19 323,-19 323,0 452,0 452,-19"/>
<text text-anchor="middle" x="387.5" y="-7" font-family="Helvetica,sans-Serif" font-size="10.00">is_colliding_with_wall2</text>
</a>
</g>
</g>
<!-- Node27&#45;&gt;Node30 -->
<g id="edge32_Node000027_Node000030" class="edge">
<title>Node27&#45;&gt;Node30</title>
<g id="a_edge32_Node000027_Node000030"><a xlink:title=" ">
<path fill="none" stroke="#63b8ff" d="M250.52,-83.55C260.73,-80.89 271.15,-77.05 280,-71.5 301.4,-58.07 294.69,-41.08 316,-27.5 318.58,-25.86 321.3,-24.36 324.12,-23"/>
<polygon fill="#63b8ff" stroke="#63b8ff" points="325.5,-26.22 333.36,-19.11 322.79,-19.76 325.5,-26.22"/>
</a>
</g>
</g>
</g>
</svg>
