<?xml version="1.0" encoding="UTF-8" standalone="no"?>
<!DOCTYPE svg PUBLIC "-//W3C//DTD SVG 1.1//EN"
 "http://www.w3.org/Graphics/SVG/1.1/DTD/svg11.dtd">
<!-- Generated by graphviz version 2.43.0 (0)
 -->
<!-- Title: collision_piranha_plant Pages: 1 -->
<svg width="417pt" height="138pt"
 viewBox="0.00 0.00 417.00 138.00" xmlns="http://www.w3.org/2000/svg" xmlns:xlink="http://www.w3.org/1999/xlink">
<g id="graph0" class="graph" transform="scale(1 1) rotate(0) translate(4 134)">
<title>collision_piranha_plant</title>
<!-- Node1 -->
<g id="Node000001" class="node">
<title>Node1</title>
<g id="a_Node000001"><a xlink:title=" ">
<polygon fill="#999999" stroke="#666666" points="129,-74 0,-74 0,-55 129,-55 129,-74"/>
<text text-anchor="middle" x="64.5" y="-62" font-family="Helvetica,sans-Serif" font-size="10.00">collision_piranha_plant</text>
</a>
</g>
</g>
<!-- Node2 -->
<g id="Node000002" class="node">
<title>Node2</title>
<g id="a_Node000002"><a xlink:href="external_8c.html#a2be9efc97a92e19d02aaee90d676acc1" target="_top" xlink:title=" ">
<polygon fill="white" stroke="#666666" points="279,-130 187,-130 187,-111 279,-111 279,-130"/>
<text text-anchor="middle" x="233" y="-118" font-family="Helvetica,sans-Serif" font-size="10.00">func_800C9060</text>
</a>
</g>
</g>
<!-- Node1&#45;&gt;Node2 -->
<g id="edge1_Node000001_Node000002" class="edge">
<title>Node1&#45;&gt;Node2</title>
<g id="a_edge1_Node000001_Node000002"><a xlink:title=" ">
<path fill="none" stroke="#63b8ff" d="M88.58,-74.09C108.6,-82.21 138.44,-93.89 165,-102.5 171.09,-104.48 177.54,-106.41 183.94,-108.23"/>
<polygon fill="#63b8ff" stroke="#63b8ff" points="183.32,-111.69 193.89,-110.99 185.19,-104.94 183.32,-111.69"/>
</a>
</g>
</g>
<!-- Node4 -->
<g id="Node000004" class="node">
<title>Node4</title>
<g id="a_Node000004"><a xlink:href="external_8c.html#a337fc3ab94ebb3293a85908229303ac8" target="_top" xlink:title=" ">
<polygon fill="white" stroke="#666666" points="279,-93 187,-93 187,-74 279,-74 279,-93"/>
<text text-anchor="middle" x="233" y="-81" font-family="Helvetica,sans-Serif" font-size="10.00">func_800C90F4</text>
</a>
</g>
</g>
<!-- Node1&#45;&gt;Node4 -->
<g id="edge3_Node000001_Node000004" class="edge">
<title>Node1&#45;&gt;Node4</title>
<g id="a_edge3_Node000001_Node000004"><a xlink:title=" ">
<path fill="none" stroke="#63b8ff" d="M129.4,-71.79C144.97,-73.57 161.5,-75.45 176.64,-77.18"/>
<polygon fill="#63b8ff" stroke="#63b8ff" points="176.53,-80.69 186.87,-78.35 177.33,-73.74 176.53,-80.69"/>
</a>
</g>
</g>
<!-- Node5 -->
<g id="Node000005" class="node">
<title>Node5</title>
<g id="a_Node000005"><a xlink:href="external_8c.html#acb60983213d09ee795e80ca3c8b5975e" target="_top" xlink:title=" ">
<polygon fill="white" stroke="#666666" points="279,-56 187,-56 187,-37 279,-37 279,-56"/>
<text text-anchor="middle" x="233" y="-44" font-family="Helvetica,sans-Serif" font-size="10.00">func_800C98B8</text>
</a>
</g>
</g>
<!-- Node1&#45;&gt;Node5 -->
<g id="edge5_Node000001_Node000005" class="edge">
<title>Node1&#45;&gt;Node5</title>
<g id="a_edge5_Node000001_Node000005"><a xlink:title=" ">
<path fill="none" stroke="#63b8ff" d="M129.4,-57.59C144.97,-55.91 161.5,-54.12 176.64,-52.49"/>
<polygon fill="#63b8ff" stroke="#63b8ff" points="177.3,-55.93 186.87,-51.38 176.55,-48.97 177.3,-55.93"/>
</a>
</g>
</g>
<!-- Node6 -->
<g id="Node000006" class="node">
<title>Node6</title>
<g id="a_Node000006"><a xlink:href="actors_8c.html#a9429052efee64c6d24b4a95def854c02" target="_top" xlink:title=" ">
<polygon fill="white" stroke="#666666" points="301,-19 165,-19 165,0 301,0 301,-19"/>
<text text-anchor="middle" x="233" y="-7" font-family="Helvetica,sans-Serif" font-size="10.00">is_colliding_and_resolve</text>
</a>
</g>
</g>
<!-- Node1&#45;&gt;Node6 -->
<g id="edge7_Node000001_Node000006" class="edge">
<title>Node1&#45;&gt;Node6</title>
<g id="a_edge7_Node000001_Node000006"><a xlink:title=" ">
<path fill="none" stroke="#63b8ff" d="M90.28,-54.98C110.3,-47.42 139.3,-36.78 165,-28.5 171.96,-26.26 179.38,-24.01 186.64,-21.89"/>
<polygon fill="#63b8ff" stroke="#63b8ff" points="187.75,-25.22 196.39,-19.09 185.81,-18.49 187.75,-25.22"/>
</a>
</g>
</g>
<!-- Node3 -->
<g id="Node000003" class="node">
<title>Node3</title>
<g id="a_Node000003"><a xlink:href="external_8c.html#a4227847f3da303aee53cf69d2760a595" target="_top" xlink:title=" ">
<polygon fill="white" stroke="#666666" points="409,-93 337,-93 337,-74 409,-74 409,-93"/>
<text text-anchor="middle" x="373" y="-81" font-family="Helvetica,sans-Serif" font-size="10.00">play_sound</text>
</a>
</g>
</g>
<!-- Node2&#45;&gt;Node3 -->
<g id="edge2_Node000002_Node000003" class="edge">
<title>Node2&#45;&gt;Node3</title>
<g id="a_edge2_Node000002_Node000003"><a xlink:title=" ">
<path fill="none" stroke="#63b8ff" d="M269.54,-110.97C287,-106.29 308.24,-100.59 326.84,-95.61"/>
<polygon fill="#63b8ff" stroke="#63b8ff" points="327.83,-98.97 336.58,-93 326.02,-92.21 327.83,-98.97"/>
</a>
</g>
</g>
<!-- Node4&#45;&gt;Node3 -->
<g id="edge4_Node000004_Node000003" class="edge">
<title>Node4&#45;&gt;Node3</title>
<g id="a_edge4_Node000004_Node000003"><a xlink:title=" ">
<path fill="none" stroke="#63b8ff" d="M279.19,-83.5C294.39,-83.5 311.34,-83.5 326.56,-83.5"/>
<polygon fill="#63b8ff" stroke="#63b8ff" points="326.78,-87 336.78,-83.5 326.78,-80 326.78,-87"/>
</a>
</g>
</g>
<!-- Node5&#45;&gt;Node3 -->
<g id="edge6_Node000005_Node000003" class="edge">
<title>Node5&#45;&gt;Node3</title>
<g id="a_edge6_Node000005_Node000003"><a xlink:title=" ">
<path fill="none" stroke="#63b8ff" d="M269.54,-56.03C287,-60.71 308.24,-66.41 326.84,-71.39"/>
<polygon fill="#63b8ff" stroke="#63b8ff" points="326.02,-74.79 336.58,-74 327.83,-68.03 326.02,-74.79"/>
</a>
</g>
</g>
<!-- Node7 -->
<g id="Node000007" class="node">
<title>Node7</title>
<g id="a_Node000007"><a xlink:href="math_8h.html#a37bde043e94a6f074c78f10518fb5d99" target="_top" xlink:title=" ">
<polygon fill="white" stroke="#666666" points="392.5,-19 353.5,-19 353.5,0 392.5,0 392.5,-19"/>
<text text-anchor="middle" x="373" y="-7" font-family="Helvetica,sans-Serif" font-size="10.00">sqrtf</text>
</a>
</g>
</g>
<!-- Node6&#45;&gt;Node7 -->
<g id="edge8_Node000006_Node000007" class="edge">
<title>Node6&#45;&gt;Node7</title>
<g id="a_edge8_Node000006_Node000007"><a xlink:title=" ">
<path fill="none" stroke="#63b8ff" d="M301.38,-9.5C316.2,-9.5 331.12,-9.5 343.4,-9.5"/>
<polygon fill="#63b8ff" stroke="#63b8ff" points="343.44,-13 353.44,-9.5 343.44,-6 343.44,-13"/>
</a>
</g>
</g>
</g>
</svg>
