<?xml version="1.0" encoding="UTF-8" standalone="no"?>
<!DOCTYPE svg PUBLIC "-//W3C//DTD SVG 1.1//EN"
 "http://www.w3.org/Graphics/SVG/1.1/DTD/svg11.dtd">
<!-- Generated by graphviz version 2.43.0 (0)
 -->
<!-- Title: src/racing/actors_extended.h Pages: 1 -->
<svg width="429pt" height="148pt"
 viewBox="0.00 0.00 429.00 148.00" xmlns="http://www.w3.org/2000/svg" xmlns:xlink="http://www.w3.org/1999/xlink">

<svg id="main" version="1.1" xmlns="http://www.w3.org/2000/svg" xmlns:xlink="http://www.w3.org/1999/xlink" xml:space="preserve" onload="init(evt)">
<style type="text/css"><![CDATA[
.node, .edge {opacity: 0.7;}
.node.selected, .edge.selected {opacity: 1;}
.edge:hover path { stroke: red; }
.edge:hover polygon { stroke: red; fill: red; }
]]></style>
<script type="application/ecmascript" xlink:href="svg.min.js"/>
<svg id="graph" class="graph">
<g id="graph0" class="graph" transform="scale(1 1) rotate(0) translate(4 144)">
<title>src/racing/actors_extended.h</title>
<!-- Node1 -->
<g id="Node000001" class="node">
<title>Node1</title>
<g id="a_Node000001"><a xlink:title=" ">
<polygon fill="#999999" stroke="#666666" points="272,-140 115,-140 115,-121 272,-121 272,-140"/>
<text text-anchor="middle" x="193.5" y="-128" font-family="Helvetica,sans-Serif" font-size="10.00">src/racing/actors_extended.h</text>
</a>
</g>
</g>
<!-- Node2 -->
<g id="Node000002" class="node">
<title>Node2</title>
<g id="a_Node000002"><a xlink:href="other__shell_2update_8inc_8c.html" target="_top" xlink:title=" ">
<polygon fill="white" stroke="#666666" points="121,-85 0,-85 0,-55 121,-55 121,-85"/>
<text text-anchor="start" x="8" y="-73" font-family="Helvetica,sans-Serif" font-size="10.00">src/actors/other_shell</text>
<text text-anchor="middle" x="60.5" y="-62" font-family="Helvetica,sans-Serif" font-size="10.00">/update.inc.c</text>
</a>
</g>
</g>
<!-- Node1&#45;&gt;Node2 -->
<g id="edge1_Node000001_Node000002" class="edge">
<title>Node1&#45;&gt;Node2</title>
<g id="a_edge1_Node000001_Node000002"><a xlink:title=" ">
<path fill="none" stroke="#63b8ff" d="M164.98,-116.95C143.68,-107.59 114.56,-94.78 92.48,-85.06"/>
<polygon fill="#63b8ff" stroke="#63b8ff" points="163.6,-120.17 174.16,-120.99 166.42,-113.76 163.6,-120.17"/>
</a>
</g>
</g>
<!-- Node3 -->
<g id="Node000003" class="node">
<title>Node3</title>
<g id="a_Node000003"><a xlink:href="actors__extended_8c.html" target="_top" xlink:title=" ">
<polygon fill="white" stroke="#666666" points="182.5,-19 26.5,-19 26.5,0 182.5,0 182.5,-19"/>
<text text-anchor="middle" x="104.5" y="-7" font-family="Helvetica,sans-Serif" font-size="10.00">src/racing/actors_extended.c</text>
</a>
</g>
</g>
<!-- Node1&#45;&gt;Node3 -->
<g id="edge5_Node000001_Node000003" class="edge">
<title>Node1&#45;&gt;Node3</title>
<g id="a_edge5_Node000001_Node000003"><a xlink:title=" ">
<path fill="none" stroke="#63b8ff" d="M181.1,-112.92C161.95,-87.32 125.88,-39.08 111.08,-19.3"/>
<polygon fill="#63b8ff" stroke="#63b8ff" points="178.31,-115.03 187.1,-120.94 183.91,-110.84 178.31,-115.03"/>
</a>
</g>
</g>
<!-- Node4 -->
<g id="Node000004" class="node">
<title>Node4</title>
<g id="a_Node000004"><a xlink:href="code__80005FD0_8c.html" target="_top" xlink:title=" ">
<polygon fill="white" stroke="#666666" points="297.5,-79.5 177.5,-79.5 177.5,-60.5 297.5,-60.5 297.5,-79.5"/>
<text text-anchor="middle" x="237.5" y="-67.5" font-family="Helvetica,sans-Serif" font-size="10.00">src/code_80005FD0.c</text>
</a>
</g>
</g>
<!-- Node1&#45;&gt;Node4 -->
<g id="edge3_Node000001_Node000004" class="edge">
<title>Node1&#45;&gt;Node4</title>
<g id="a_edge3_Node000001_Node000004"><a xlink:title=" ">
<path fill="none" stroke="#63b8ff" d="M206.19,-112.63C214.3,-101.85 224.47,-88.32 230.98,-79.67"/>
<polygon fill="#63b8ff" stroke="#63b8ff" points="203.21,-110.77 199.99,-120.87 208.8,-114.98 203.21,-110.77"/>
</a>
</g>
</g>
<!-- Node5 -->
<g id="Node000005" class="node">
<title>Node5</title>
<g id="a_Node000005"><a xlink:href="actors_8c.html" target="_top" xlink:title=" ">
<polygon fill="white" stroke="#666666" points="421,-79.5 316,-79.5 316,-60.5 421,-60.5 421,-79.5"/>
<text text-anchor="middle" x="368.5" y="-67.5" font-family="Helvetica,sans-Serif" font-size="10.00">src/racing/actors.c</text>
</a>
</g>
</g>
<!-- Node1&#45;&gt;Node5 -->
<g id="edge4_Node000001_Node000005" class="edge">
<title>Node1&#45;&gt;Node5</title>
<g id="a_edge4_Node000001_Node000005"><a xlink:title=" ">
<path fill="none" stroke="#63b8ff" d="M228.45,-117.82C262.3,-106.5 312.81,-89.62 343.02,-79.52"/>
<polygon fill="#63b8ff" stroke="#63b8ff" points="227.32,-114.5 218.95,-120.99 229.54,-121.14 227.32,-114.5"/>
</a>
</g>
</g>
<!-- Node2&#45;&gt;Node3 -->
<g id="edge2_Node000002_Node000003" class="edge">
<title>Node2&#45;&gt;Node3</title>
<g id="a_edge2_Node000002_Node000003"><a xlink:title=" ">
<path fill="none" stroke="#63b8ff" d="M77.2,-46.8C84.41,-37.21 92.44,-26.54 97.91,-19.27"/>
<polygon fill="#63b8ff" stroke="#63b8ff" points="74.37,-44.74 71.15,-54.84 79.96,-48.95 74.37,-44.74"/>
</a>
</g>
</g>
</g>
</svg>
</svg>

<style type='text/css'>
<![CDATA[
[data-mouse-over-selected='false'] { opacity: 0.7; }
[data-mouse-over-selected='true']  { opacity: 1.0; }
]]>
</style>
<script type="application/ecmascript"><![CDATA[
document.addEventListener('DOMContentLoaded', (event) => {
  highlightEdges();
  highlightAdjacentNodes();
});
]]></script>
</svg>
