<?xml version="1.0" encoding="UTF-8" standalone="no"?>
<!DOCTYPE svg PUBLIC "-//W3C//DTD SVG 1.1//EN"
 "http://www.w3.org/Graphics/SVG/1.1/DTD/svg11.dtd">
<!-- Generated by graphviz version 2.43.0 (0)
 -->
<!-- Title: place_all_item_boxes Pages: 1 -->
<!--zoomable 353 -->

<svg id="main" version="1.1" xmlns="http://www.w3.org/2000/svg" xmlns:xlink="http://www.w3.org/1999/xlink" xml:space="preserve" onload="init(evt)">
<style type="text/css"><![CDATA[
.node, .edge {opacity: 0.7;}
.node.selected, .edge.selected {opacity: 1;}
.edge:hover path { stroke: red; }
.edge:hover polygon { stroke: red; fill: red; }
]]></style>

<defs>
  <circle id="rim" cx="0" cy="0" r="7"/>
  <circle id="rim2" cx="0" cy="0" r="3.5"/>
  <g id="zoomPlus">
    <use xlink:href="#rim" fill="#404040"><set attributeName="fill" to="#808080" begin="zoomplus.mouseover" end="zoomplus.mouseout"/></use>
    <path d="M-4,0h8M0,-4v8" fill="none" stroke="white" stroke-width="1.5" pointer-events="none"/>
  </g>
  <g id="zoomMin">
    <use xlink:href="#rim" fill="#404040"><set attributeName="fill" to="#808080" begin="zoomminus.mouseover" end="zoomminus.mouseout"/></use>
    <path d="M-4,0h8" fill="none" stroke="white" stroke-width="1.5" pointer-events="none"/>
  </g>
  <g id="arrowUp" transform="translate(30 24)">
    <use xlink:href="#rim"/>
    <path pointer-events="none" fill="none" stroke="white" stroke-width="1.5" d="M0,-3.0v7 M-2.5,-0.5L0,-3.0L2.5,-0.5"/>
  </g>
  <g id="arrowRight" transform="rotate(90) translate(36 -43)">
    <use xlink:href="#rim"/>
    <path pointer-events="none" fill="none" stroke="white" stroke-width="1.5" d="M0,-3.0v7 M-2.5,-0.5L0,-3.0L2.5,-0.5"/>
  </g>
  <g id="arrowDown" transform="rotate(180) translate(-30 -48)">
    <use xlink:href="#rim"/>
    <path pointer-events="none" fill="none" stroke="white" stroke-width="1.5" d="M0,-3.0v7 M-2.5,-0.5L0,-3.0L2.5,-0.5"/>
  </g>
  <g id="arrowLeft" transform="rotate(270) translate(-36 17)">
    <use xlink:href="#rim"/>
    <path pointer-events="none" fill="none" stroke="white" stroke-width="1.5" d="M0,-3.0v7 M-2.5,-0.5L0,-3.0L2.5,-0.5"/>
  </g>
  <g id="resetDef">
    <use xlink:href="#rim2" fill="#404040"><set attributeName="fill" to="#808080" begin="reset.mouseover" end="reset.mouseout"/></use>
  </g>
</defs>
<script type="application/ecmascript">
var viewWidth = 1711;
var viewHeight = 353;
var sectionId = 'dynsection-67';
</script>
<script type="application/ecmascript" xlink:href="svg.min.js"/>
<svg id="graph" class="graph">
<g id="viewport">
<title>place_all_item_boxes</title>
<!-- Node1 -->
<g id="Node000001" class="node">
<title>Node1</title>
<g id="a_Node000001"><a xlink:title=" ">
<polygon fill="#999999" stroke="#666666" points="122,-75 0,-75 0,-56 122,-56 122,-75"/>
<text text-anchor="middle" x="61" y="-63" font-family="Helvetica,sans-Serif" font-size="10.00">place_all_item_boxes</text>
</a>
</g>
</g>
<!-- Node2 -->
<g id="Node000002" class="node">
<title>Node2</title>
<g id="a_Node000002"><a xlink:href="actors_8c.html#a91fb2e4e37e7c72fea918fe2c1bb4eaf" target="_top" xlink:title=" ">
<polygon fill="white" stroke="#666666" points="298,-227 158,-227 158,-208 298,-208 298,-227"/>
<text text-anchor="middle" x="228" y="-215" font-family="Helvetica,sans-Serif" font-size="10.00">add_actor_to_empty_slot</text>
</a>
</g>
</g>
<!-- Node1&#45;&gt;Node2 -->
<g id="edge1_Node000001_Node000002" class="edge">
<title>Node1&#45;&gt;Node2</title>
<g id="a_edge1_Node000001_Node000002"><a xlink:title=" ">
<path fill="none" stroke="#63b8ff" d="M72.32,-75.01C99.75,-100.28 174.73,-169.35 209.21,-201.12"/>
<polygon fill="#63b8ff" stroke="#63b8ff" points="206.96,-203.79 216.68,-208 211.7,-198.65 206.96,-203.79"/>
</a>
</g>
</g>
<!-- Node17 -->
<g id="Node000017" class="node">
<title>Node17</title>
<g id="a_Node000017"><a xlink:href="math__util_8c.html#a79fd07a0971ec96a3ff0801963a2fa7f" target="_top" xlink:title=" ">
<polygon fill="white" stroke="#666666" points="911,-113 847,-113 847,-94 911,-94 911,-113"/>
<text text-anchor="middle" x="879" y="-101" font-family="Helvetica,sans-Serif" font-size="10.00">vec3f_set</text>
</a>
</g>
</g>
<!-- Node1&#45;&gt;Node17 -->
<g id="edge31_Node000001_Node000017" class="edge">
<title>Node1&#45;&gt;Node17</title>
<g id="a_edge31_Node000001_Node000017"><a xlink:title=" ">
<path fill="none" stroke="#63b8ff" d="M122.16,-70.69C192.64,-76.32 312.96,-84.5 416.5,-84.5 416.5,-84.5 416.5,-84.5 569,-84.5 665.08,-84.5 777.65,-93.77 836.83,-99.36"/>
<polygon fill="#63b8ff" stroke="#63b8ff" points="836.61,-102.85 846.9,-100.32 837.28,-95.88 836.61,-102.85"/>
</a>
</g>
</g>
<!-- Node25 -->
<g id="Node000025" class="node">
<title>Node25</title>
<g id="a_Node000025"><a xlink:href="collision_8c.html#a9a1bda13e8f2cefd24b255d6ff15252f" target="_top" xlink:title=" ">
<polygon fill="white" stroke="#666666" points="274,-56 182,-56 182,-37 274,-37 274,-56"/>
<text text-anchor="middle" x="228" y="-44" font-family="Helvetica,sans-Serif" font-size="10.00">func_802AE1C0</text>
</a>
</g>
</g>
<!-- Node1&#45;&gt;Node25 -->
<g id="edge27_Node000001_Node000025" class="edge">
<title>Node1&#45;&gt;Node25</title>
<g id="a_edge27_Node000001_Node000025"><a xlink:title=" ">
<path fill="none" stroke="#63b8ff" d="M122.04,-58.59C138.21,-56.72 155.63,-54.72 171.55,-52.89"/>
<polygon fill="#63b8ff" stroke="#63b8ff" points="172.22,-56.33 181.76,-51.71 171.42,-49.38 172.22,-56.33"/>
</a>
</g>
</g>
<!-- Node28 -->
<g id="Node000028" class="node">
<title>Node28</title>
<g id="a_Node000028"><a xlink:href="math__util_8c.html#a062850863585005ad1d0a75d9ff70693" target="_top" xlink:title=" ">
<polygon fill="white" stroke="#666666" points="266.5,-19 189.5,-19 189.5,0 266.5,0 266.5,-19"/>
<text text-anchor="middle" x="228" y="-7" font-family="Helvetica,sans-Serif" font-size="10.00">random_u16</text>
</a>
</g>
</g>
<!-- Node1&#45;&gt;Node28 -->
<g id="edge30_Node000001_Node000028" class="edge">
<title>Node1&#45;&gt;Node28</title>
<g id="a_edge30_Node000001_Node000028"><a xlink:title=" ">
<path fill="none" stroke="#63b8ff" d="M85.05,-55.88C104.35,-48 132.72,-36.83 158,-28.5 164.98,-26.2 172.41,-23.95 179.72,-21.85"/>
<polygon fill="#63b8ff" stroke="#63b8ff" points="180.88,-25.16 189.56,-19.08 178.98,-18.42 180.88,-25.16"/>
</a>
</g>
</g>
<!-- Node3 -->
<g id="Node000003" class="node">
<title>Node3</title>
<g id="a_Node000003"><a xlink:href="actors_8c.html#a39c023177b5a7686cdd1fc65b8b953e1" target="_top" xlink:title=" ">
<polygon fill="white" stroke="#666666" points="599,-227 537,-227 537,-208 599,-208 599,-227"/>
<text text-anchor="middle" x="568" y="-215" font-family="Helvetica,sans-Serif" font-size="10.00">actor_init</text>
</a>
</g>
</g>
<!-- Node2&#45;&gt;Node3 -->
<g id="edge2_Node000002_Node000003" class="edge">
<title>Node2&#45;&gt;Node3</title>
<g id="a_edge2_Node000002_Node000003"><a xlink:title=" ">
<path fill="none" stroke="#63b8ff" d="M298.21,-217.5C366.98,-217.5 470.09,-217.5 526.52,-217.5"/>
<polygon fill="#63b8ff" stroke="#63b8ff" points="526.83,-221 536.83,-217.5 526.83,-214 526.83,-221"/>
</a>
</g>
</g>
<!-- Node24 -->
<g id="Node000024" class="node">
<title>Node24</title>
<g id="a_Node000024"><a xlink:href="actors_8c.html#adf454481afb7fd833f5ce3f01dea4bea" target="_top" xlink:title=" ">
<polygon fill="white" stroke="#666666" points="501,-298 334,-298 334,-279 501,-279 501,-298"/>
<text text-anchor="middle" x="417.5" y="-286" font-family="Helvetica,sans-Serif" font-size="10.00">try_remove_destructable_item</text>
</a>
</g>
</g>
<!-- Node2&#45;&gt;Node24 -->
<g id="edge23_Node000002_Node000024" class="edge">
<title>Node2&#45;&gt;Node24</title>
<g id="a_edge23_Node000002_Node000024"><a xlink:title=" ">
<path fill="none" stroke="#63b8ff" d="M254.29,-227.08C287.23,-239.55 344.97,-261.41 381.93,-275.41"/>
<polygon fill="#63b8ff" stroke="#63b8ff" points="380.72,-278.7 391.31,-278.96 383.2,-272.15 380.72,-278.7"/>
</a>
</g>
</g>
<!-- Node4 -->
<g id="Node000004" class="node">
<title>Node4</title>
<g id="a_Node000004"><a xlink:href="actors_8c.html#a1a9bccb586242555a9123ebd4ab70f2a" target="_top" xlink:title=" ">
<polygon fill="white" stroke="#666666" points="767,-254.5 635,-254.5 635,-224.5 767,-224.5 767,-254.5"/>
<text text-anchor="start" x="643" y="-242.5" font-family="Helvetica,sans-Serif" font-size="10.00">cleanup_red_and_green</text>
<text text-anchor="middle" x="701" y="-231.5" font-family="Helvetica,sans-Serif" font-size="10.00">_shells</text>
</a>
</g>
</g>
<!-- Node3&#45;&gt;Node4 -->
<g id="edge3_Node000003_Node000004" class="edge">
<title>Node3&#45;&gt;Node4</title>
<g id="a_edge3_Node000003_Node000004"><a xlink:title=" ">
<path fill="none" stroke="#63b8ff" d="M599.05,-222.55C606.93,-223.87 615.79,-225.36 624.9,-226.89"/>
<polygon fill="#63b8ff" stroke="#63b8ff" points="624.4,-230.35 634.85,-228.56 625.56,-223.45 624.4,-230.35"/>
</a>
</g>
</g>
<!-- Node16 -->
<g id="Node000016" class="node">
<title>Node16</title>
<g id="a_Node000016"><a xlink:href="collision_8c.html#ad72fef3ffe32191d73b1822f512ebf3f" target="_top" xlink:title=" ">
<polygon fill="white" stroke="#666666" points="748.5,-169 653.5,-169 653.5,-150 748.5,-150 748.5,-169"/>
<text text-anchor="middle" x="701" y="-157" font-family="Helvetica,sans-Serif" font-size="10.00">func_802AAAAC</text>
</a>
</g>
</g>
<!-- Node3&#45;&gt;Node16 -->
<g id="edge15_Node000003_Node000016" class="edge">
<title>Node3&#45;&gt;Node16</title>
<g id="a_edge15_Node000003_Node000016"><a xlink:title=" ">
<path fill="none" stroke="#63b8ff" d="M582.87,-207.91C595.87,-199.27 616.07,-186.71 635,-178.5 640.32,-176.19 646,-174.07 651.71,-172.15"/>
<polygon fill="#63b8ff" stroke="#63b8ff" points="652.82,-175.47 661.29,-169.1 650.7,-168.8 652.82,-175.47"/>
</a>
</g>
</g>
<!-- Node18 -->
<g id="Node000018" class="node">
<title>Node18</title>
<g id="a_Node000018"><a xlink:href="collision_8c.html#a365367628b7140a7a880beeecce9c305" target="_top" xlink:title=" ">
<polygon fill="white" stroke="#666666" points="748.5,-206 653.5,-206 653.5,-187 748.5,-187 748.5,-206"/>
<text text-anchor="middle" x="701" y="-194" font-family="Helvetica,sans-Serif" font-size="10.00">func_802ADDC8</text>
</a>
</g>
</g>
<!-- Node3&#45;&gt;Node18 -->
<g id="edge17_Node000003_Node000018" class="edge">
<title>Node3&#45;&gt;Node18</title>
<g id="a_edge17_Node000003_Node000018"><a xlink:title=" ">
<path fill="none" stroke="#63b8ff" d="M599.05,-212.68C612.25,-210.57 628.2,-208.01 643.48,-205.56"/>
<polygon fill="#63b8ff" stroke="#63b8ff" points="644.07,-209.01 653.39,-203.97 642.96,-202.1 644.07,-209.01"/>
</a>
</g>
</g>
<!-- Node22 -->
<g id="Node000022" class="node">
<title>Node22</title>
<g id="a_Node000022"><a xlink:href="math__util_8c.html#af7b470ed76fce07b8042a47c96e5690b" target="_top" xlink:title=" ">
<polygon fill="white" stroke="#666666" points="754.5,-132 647.5,-132 647.5,-113 754.5,-113 754.5,-132"/>
<text text-anchor="middle" x="701" y="-120" font-family="Helvetica,sans-Serif" font-size="10.00">vec3f_copy_return</text>
</a>
</g>
</g>
<!-- Node3&#45;&gt;Node22 -->
<g id="edge21_Node000003_Node000022" class="edge">
<title>Node3&#45;&gt;Node22</title>
<g id="a_edge21_Node000003_Node000022"><a xlink:title=" ">
<path fill="none" stroke="#63b8ff" d="M574.8,-207.76C584.95,-191.56 607.49,-159.14 635,-141.5 638.3,-139.38 641.85,-137.5 645.52,-135.81"/>
<polygon fill="#63b8ff" stroke="#63b8ff" points="646.87,-139.04 654.82,-132.04 644.24,-132.55 646.87,-139.04"/>
</a>
</g>
</g>
<!-- Node23 -->
<g id="Node000023" class="node">
<title>Node23</title>
<g id="a_Node000023"><a xlink:href="math__util_8c.html#a0e270ee67600c8c9c2f140c647d008a1" target="_top" xlink:title=" ">
<polygon fill="white" stroke="#666666" points="738,-292 664,-292 664,-273 738,-273 738,-292"/>
<text text-anchor="middle" x="701" y="-280" font-family="Helvetica,sans-Serif" font-size="10.00">vec3s_copy</text>
</a>
</g>
</g>
<!-- Node3&#45;&gt;Node23 -->
<g id="edge22_Node000003_Node000023" class="edge">
<title>Node3&#45;&gt;Node23</title>
<g id="a_edge22_Node000003_Node000023"><a xlink:title=" ">
<path fill="none" stroke="#63b8ff" d="M580.44,-227.22C593.06,-237.51 614.34,-253.61 635,-263.5 641.06,-266.4 647.64,-268.95 654.23,-271.17"/>
<polygon fill="#63b8ff" stroke="#63b8ff" points="653.21,-274.52 663.8,-274.17 655.31,-267.84 653.21,-274.52"/>
</a>
</g>
</g>
<!-- Node5 -->
<g id="Node000005" class="node">
<title>Node5</title>
<g id="a_Node000005"><a xlink:href="actors_8c.html#a694ec6ef7548b8618aeb35c038d3a9b9" target="_top" xlink:title=" ">
<polygon fill="white" stroke="#666666" points="920.5,-281 837.5,-281 837.5,-262 920.5,-262 920.5,-281"/>
<text text-anchor="middle" x="879" y="-269" font-family="Helvetica,sans-Serif" font-size="10.00">destroy_actor</text>
</a>
</g>
</g>
<!-- Node4&#45;&gt;Node5 -->
<g id="edge4_Node000004_Node000005" class="edge">
<title>Node4&#45;&gt;Node5</title>
<g id="a_edge4_Node000004_Node000005"><a xlink:title=" ">
<path fill="none" stroke="#63b8ff" d="M767.04,-251.32C787.04,-254.96 808.75,-258.91 827.61,-262.34"/>
<polygon fill="#63b8ff" stroke="#63b8ff" points="827.02,-265.79 837.48,-264.13 828.27,-258.9 827.02,-265.79"/>
</a>
</g>
</g>
<!-- Node15 -->
<g id="Node000015" class="node">
<title>Node15</title>
<g id="a_Node000015"><a xlink:href="code__80005FD0_8c.html#acb7b3d384c78d219f4b7040e78f6a2f2" target="_top" xlink:title=" ">
<polygon fill="white" stroke="#666666" points="955,-330.5 803,-330.5 803,-300.5 955,-300.5 955,-330.5"/>
<text text-anchor="start" x="811" y="-318.5" font-family="Helvetica,sans-Serif" font-size="10.00">remove_actor_in_unexpired</text>
<text text-anchor="middle" x="879" y="-307.5" font-family="Helvetica,sans-Serif" font-size="10.00">_actor_list</text>
</a>
</g>
</g>
<!-- Node4&#45;&gt;Node15 -->
<g id="edge14_Node000004_Node000015" class="edge">
<title>Node4&#45;&gt;Node15</title>
<g id="a_edge14_Node000004_Node000015"><a xlink:title=" ">
<path fill="none" stroke="#63b8ff" d="M745.71,-254.52C752.96,-257.52 760.3,-260.87 767,-264.5 784.36,-273.9 785.44,-281.5 803,-290.5 807.28,-292.69 811.79,-294.75 816.39,-296.68"/>
<polygon fill="#63b8ff" stroke="#63b8ff" points="815.33,-300.02 825.92,-300.43 817.9,-293.51 815.33,-300.02"/>
</a>
</g>
</g>
<!-- Node6 -->
<g id="Node000006" class="node">
<title>Node6</title>
<g id="a_Node000006"><a xlink:href="actors_8c.html#ad5a56c8f7eaf719223099cce9e38ec9f" target="_top" xlink:title=" ">
<polygon fill="white" stroke="#666666" points="1142,-324 991,-324 991,-305 1142,-305 1142,-324"/>
<text text-anchor="middle" x="1066.5" y="-312" font-family="Helvetica,sans-Serif" font-size="10.00">play_sound_before_destroy</text>
</a>
</g>
</g>
<!-- Node5&#45;&gt;Node6 -->
<g id="edge5_Node000005_Node000006" class="edge">
<title>Node5&#45;&gt;Node6</title>
<g id="a_edge5_Node000005_Node000006"><a xlink:title=" ">
<path fill="none" stroke="#63b8ff" d="M920.71,-280.94C948.18,-287.31 984.67,-295.76 1014.14,-302.59"/>
<polygon fill="#63b8ff" stroke="#63b8ff" points="1013.71,-306.09 1024.25,-304.94 1015.29,-299.27 1013.71,-306.09"/>
</a>
</g>
</g>
<!-- Node7 -->
<g id="Node000007" class="node">
<title>Node7</title>
<g id="a_Node000007"><a xlink:href="external_8c.html#ae72057869772019e4464c87d4e16c682" target="_top" xlink:title=" ">
<polygon fill="white" stroke="#666666" points="1270,-324 1178,-324 1178,-305 1270,-305 1270,-324"/>
<text text-anchor="middle" x="1224" y="-312" font-family="Helvetica,sans-Serif" font-size="10.00">func_800C99E0</text>
</a>
</g>
</g>
<!-- Node6&#45;&gt;Node7 -->
<g id="edge6_Node000006_Node000007" class="edge">
<title>Node6&#45;&gt;Node7</title>
<g id="a_edge6_Node000006_Node000007"><a xlink:title=" ">
<path fill="none" stroke="#63b8ff" d="M1142.06,-314.5C1150.61,-314.5 1159.21,-314.5 1167.45,-314.5"/>
<polygon fill="#63b8ff" stroke="#63b8ff" points="1167.66,-318 1177.66,-314.5 1167.66,-311 1167.66,-318"/>
</a>
</g>
</g>
<!-- Node8 -->
<g id="Node000008" class="node">
<title>Node8</title>
<g id="a_Node000008"><a xlink:href="external_8c.html#aeb87c527482a244173df36a1f3d4f446" target="_top" xlink:title=" ">
<polygon fill="white" stroke="#666666" points="1398,-343 1306,-343 1306,-324 1398,-324 1398,-343"/>
<text text-anchor="middle" x="1352" y="-331" font-family="Helvetica,sans-Serif" font-size="10.00">func_800C21E8</text>
</a>
</g>
</g>
<!-- Node7&#45;&gt;Node8 -->
<g id="edge7_Node000007_Node000008" class="edge">
<title>Node7&#45;&gt;Node8</title>
<g id="a_edge7_Node000007_Node000008"><a xlink:title=" ">
<path fill="none" stroke="#63b8ff" d="M1270.13,-321.31C1278.46,-322.56 1287.23,-323.88 1295.81,-325.18"/>
<polygon fill="#63b8ff" stroke="#63b8ff" points="1295.35,-328.65 1305.76,-326.68 1296.39,-321.73 1295.35,-328.65"/>
</a>
</g>
</g>
<!-- Node9 -->
<g id="Node000009" class="node">
<title>Node9</title>
<g id="a_Node000009"><a xlink:href="external_8c.html#a028d40421b90c38f68ebfd5acc626f2e" target="_top" xlink:title=" ">
<polygon fill="white" stroke="#666666" points="1398,-306 1306,-306 1306,-287 1398,-287 1398,-306"/>
<text text-anchor="middle" x="1352" y="-294" font-family="Helvetica,sans-Serif" font-size="10.00">func_800C5578</text>
</a>
</g>
</g>
<!-- Node7&#45;&gt;Node9 -->
<g id="edge8_Node000007_Node000009" class="edge">
<title>Node7&#45;&gt;Node9</title>
<g id="a_edge8_Node000007_Node000009"><a xlink:title=" ">
<path fill="none" stroke="#63b8ff" d="M1270.13,-308.05C1278.46,-306.86 1287.23,-305.61 1295.81,-304.38"/>
<polygon fill="#63b8ff" stroke="#63b8ff" points="1296.35,-307.84 1305.76,-302.96 1295.36,-300.91 1296.35,-307.84"/>
</a>
</g>
</g>
<!-- Node10 -->
<g id="Node000010" class="node">
<title>Node10</title>
<g id="a_Node000010"><a xlink:href="external_8c.html#ac0fb767de7e14a03f1bcfa53f0abd23b" target="_top" xlink:title=" ">
<polygon fill="white" stroke="#666666" points="1574,-343 1434,-343 1434,-324 1574,-324 1574,-343"/>
<text text-anchor="middle" x="1504" y="-331" font-family="Helvetica,sans-Serif" font-size="10.00">delete_sound_from_bank</text>
</a>
</g>
</g>
<!-- Node9&#45;&gt;Node10 -->
<g id="edge9_Node000009_Node000010" class="edge">
<title>Node9&#45;&gt;Node10</title>
<g id="a_edge9_Node000009_Node000010"><a xlink:title=" ">
<path fill="none" stroke="#63b8ff" d="M1391.63,-306.03C1410.8,-310.76 1434.16,-316.52 1454.52,-321.54"/>
<polygon fill="#63b8ff" stroke="#63b8ff" points="1453.69,-324.94 1464.24,-323.94 1455.37,-318.15 1453.69,-324.94"/>
</a>
</g>
</g>
<!-- Node12 -->
<g id="Node000012" class="node">
<title>Node12</title>
<g id="a_Node000012"><a xlink:href="external_8c.html#ab83bd36e63f0f1baddcb2482b5ad31b0" target="_top" xlink:title=" ">
<polygon fill="white" stroke="#666666" points="1550.5,-306 1457.5,-306 1457.5,-287 1550.5,-287 1550.5,-306"/>
<text text-anchor="middle" x="1504" y="-294" font-family="Helvetica,sans-Serif" font-size="10.00">func_800C41CC</text>
</a>
</g>
</g>
<!-- Node9&#45;&gt;Node12 -->
<g id="edge11_Node000009_Node000012" class="edge">
<title>Node9&#45;&gt;Node12</title>
<g id="a_edge11_Node000009_Node000012"><a xlink:title=" ">
<path fill="none" stroke="#63b8ff" d="M1398,-296.5C1413.37,-296.5 1430.74,-296.5 1446.86,-296.5"/>
<polygon fill="#63b8ff" stroke="#63b8ff" points="1447.25,-300 1457.25,-296.5 1447.25,-293 1447.25,-300"/>
</a>
</g>
</g>
<!-- Node13 -->
<g id="Node000013" class="node">
<title>Node13</title>
<g id="a_Node000013"><a xlink:href="port__eu_8c.html#aa89dfaecca46c6d071f08c1898d1f7c9" target="_top" xlink:title=" ">
<polygon fill="white" stroke="#666666" points="1550.5,-269 1457.5,-269 1457.5,-250 1550.5,-250 1550.5,-269"/>
<text text-anchor="middle" x="1504" y="-257" font-family="Helvetica,sans-Serif" font-size="10.00">func_800CBBE8</text>
</a>
</g>
</g>
<!-- Node9&#45;&gt;Node13 -->
<g id="edge12_Node000009_Node000013" class="edge">
<title>Node9&#45;&gt;Node13</title>
<g id="a_edge12_Node000009_Node000013"><a xlink:title=" ">
<path fill="none" stroke="#63b8ff" d="M1391.63,-286.97C1410.8,-282.24 1434.16,-276.48 1454.52,-271.46"/>
<polygon fill="#63b8ff" stroke="#63b8ff" points="1455.37,-274.85 1464.24,-269.06 1453.69,-268.06 1455.37,-274.85"/>
</a>
</g>
</g>
<!-- Node11 -->
<g id="Node000011" class="node">
<title>Node11</title>
<g id="a_Node000011"><a xlink:href="external_8c.html#a358ac55e8ab5262dcae8037334be06d7" target="_top" xlink:title=" ">
<polygon fill="white" stroke="#666666" points="1702.5,-343 1610.5,-343 1610.5,-324 1702.5,-324 1702.5,-343"/>
<text text-anchor="middle" x="1656.5" y="-331" font-family="Helvetica,sans-Serif" font-size="10.00">func_800C40F0</text>
</a>
</g>
</g>
<!-- Node10&#45;&gt;Node11 -->
<g id="edge10_Node000010_Node000011" class="edge">
<title>Node10&#45;&gt;Node11</title>
<g id="a_edge10_Node000010_Node000011"><a xlink:title=" ">
<path fill="none" stroke="#63b8ff" d="M1574.08,-333.5C1582.87,-333.5 1591.78,-333.5 1600.31,-333.5"/>
<polygon fill="#63b8ff" stroke="#63b8ff" points="1600.5,-337 1610.5,-333.5 1600.5,-330 1600.5,-337"/>
</a>
</g>
</g>
<!-- Node14 -->
<g id="Node000014" class="node">
<title>Node14</title>
<g id="a_Node000014"><a xlink:href="port__eu_8c.html#af361a20d2e08f30c53a237ca481ff734" target="_top" xlink:title=" ">
<polygon fill="white" stroke="#666666" points="1703,-269 1610,-269 1610,-250 1703,-250 1703,-269"/>
<text text-anchor="middle" x="1656.5" y="-257" font-family="Helvetica,sans-Serif" font-size="10.00">func_800CBB48</text>
</a>
</g>
</g>
<!-- Node13&#45;&gt;Node14 -->
<g id="edge13_Node000013_Node000014" class="edge">
<title>Node13&#45;&gt;Node14</title>
<g id="a_edge13_Node000013_Node000014"><a xlink:title=" ">
<path fill="none" stroke="#63b8ff" d="M1550.56,-259.5C1565.96,-259.5 1583.34,-259.5 1599.46,-259.5"/>
<polygon fill="#63b8ff" stroke="#63b8ff" points="1599.83,-263 1609.83,-259.5 1599.83,-256 1599.83,-263"/>
</a>
</g>
</g>
<!-- Node16&#45;&gt;Node17 -->
<g id="edge16_Node000016_Node000017" class="edge">
<title>Node16&#45;&gt;Node17</title>
<g id="a_edge16_Node000016_Node000017"><a xlink:title=" ">
<path fill="none" stroke="#63b8ff" d="M737.87,-149.98C747.37,-147.34 757.6,-144.41 767,-141.5 792.31,-133.67 820.56,-123.99 842.22,-116.35"/>
<polygon fill="#63b8ff" stroke="#63b8ff" points="843.42,-119.64 851.68,-113.01 841.09,-113.04 843.42,-119.64"/>
</a>
</g>
</g>
<!-- Node19 -->
<g id="Node000019" class="node">
<title>Node19</title>
<g id="a_Node000019"><a xlink:href="collision_8c.html#afce45acb8da354da0a5b501003be1aef" target="_top" xlink:title=" ">
<polygon fill="white" stroke="#666666" points="925.5,-243 832.5,-243 832.5,-224 925.5,-224 925.5,-243"/>
<text text-anchor="middle" x="879" y="-231" font-family="Helvetica,sans-Serif" font-size="10.00">func_802AAE4C</text>
</a>
</g>
</g>
<!-- Node18&#45;&gt;Node19 -->
<g id="edge18_Node000018_Node000019" class="edge">
<title>Node18&#45;&gt;Node19</title>
<g id="a_edge18_Node000018_Node000019"><a xlink:title=" ">
<path fill="none" stroke="#63b8ff" d="M747.32,-206.03C770.33,-210.86 798.47,-216.78 822.74,-221.88"/>
<polygon fill="#63b8ff" stroke="#63b8ff" points="822.02,-225.31 832.52,-223.94 823.46,-218.46 822.02,-225.31"/>
</a>
</g>
</g>
<!-- Node20 -->
<g id="Node000020" class="node">
<title>Node20</title>
<g id="a_Node000020"><a xlink:href="collision_8c.html#adcc608ea0eae3bf9a27ab79ec64b4899" target="_top" xlink:title=" ">
<polygon fill="white" stroke="#666666" points="925,-206 833,-206 833,-187 925,-187 925,-206"/>
<text text-anchor="middle" x="879" y="-194" font-family="Helvetica,sans-Serif" font-size="10.00">func_802AB288</text>
</a>
</g>
</g>
<!-- Node18&#45;&gt;Node20 -->
<g id="edge19_Node000018_Node000020" class="edge">
<title>Node18&#45;&gt;Node20</title>
<g id="a_edge19_Node000018_Node000020"><a xlink:title=" ">
<path fill="none" stroke="#63b8ff" d="M748.7,-196.5C771.41,-196.5 798.87,-196.5 822.63,-196.5"/>
<polygon fill="#63b8ff" stroke="#63b8ff" points="822.9,-200 832.9,-196.5 822.9,-193 822.9,-200"/>
</a>
</g>
</g>
<!-- Node21 -->
<g id="Node000021" class="node">
<title>Node21</title>
<g id="a_Node000021"><a xlink:href="collision_8c.html#ab440aa3fc960b7b4b5ad8e4bcaa06b00" target="_top" xlink:title=" ">
<polygon fill="white" stroke="#666666" points="925.5,-169 832.5,-169 832.5,-150 925.5,-150 925.5,-169"/>
<text text-anchor="middle" x="879" y="-157" font-family="Helvetica,sans-Serif" font-size="10.00">func_802AB6C4</text>
</a>
</g>
</g>
<!-- Node18&#45;&gt;Node21 -->
<g id="edge20_Node000018_Node000021" class="edge">
<title>Node18&#45;&gt;Node21</title>
<g id="a_edge20_Node000018_Node000021"><a xlink:title=" ">
<path fill="none" stroke="#63b8ff" d="M747.32,-186.97C770.33,-182.14 798.47,-176.22 822.74,-171.12"/>
<polygon fill="#63b8ff" stroke="#63b8ff" points="823.46,-174.54 832.52,-169.06 822.02,-167.69 823.46,-174.54"/>
</a>
</g>
</g>
<!-- Node24&#45;&gt;Node3 -->
<g id="edge24_Node000024_Node000003" class="edge">
<title>Node24&#45;&gt;Node3</title>
<g id="a_edge24_Node000024_Node000003"><a xlink:title=" ">
<path fill="none" stroke="#63b8ff" d="M438.53,-278.92C463.99,-266.75 508.16,-245.63 537.49,-231.61"/>
<polygon fill="#63b8ff" stroke="#63b8ff" points="539.3,-234.62 546.82,-227.15 536.28,-228.31 539.3,-234.62"/>
</a>
</g>
</g>
<!-- Node24&#45;&gt;Node6 -->
<g id="edge25_Node000024_Node000006" class="edge">
<title>Node24&#45;&gt;Node6</title>
<g id="a_edge25_Node000024_Node000006"><a xlink:title=" ">
<path fill="none" stroke="#63b8ff" d="M458.93,-298.03C548.41,-317.89 769.96,-360.17 955,-339.5 977.41,-337 1001.9,-331.72 1022.13,-326.66"/>
<polygon fill="#63b8ff" stroke="#63b8ff" points="1023.16,-330.01 1031.98,-324.13 1021.42,-323.23 1023.16,-330.01"/>
</a>
</g>
</g>
<!-- Node24&#45;&gt;Node15 -->
<g id="edge26_Node000024_Node000015" class="edge">
<title>Node24&#45;&gt;Node15</title>
<g id="a_edge26_Node000024_Node000015"><a xlink:title=" ">
<path fill="none" stroke="#63b8ff" d="M501.26,-293.52C541.6,-295.95 590.83,-298.9 635,-301.5 687.37,-304.58 746.09,-307.97 792.69,-310.64"/>
<polygon fill="#63b8ff" stroke="#63b8ff" points="792.56,-314.13 802.74,-311.21 792.96,-307.15 792.56,-314.13"/>
</a>
</g>
</g>
<!-- Node26 -->
<g id="Node000026" class="node">
<title>Node26</title>
<g id="a_Node000026"><a xlink:href="collision_8c.html#a226294470ac12b9ca399e3f071990ac1" target="_top" xlink:title=" ">
<polygon fill="white" stroke="#666666" points="464,-19 371,-19 371,0 464,0 464,-19"/>
<text text-anchor="middle" x="417.5" y="-7" font-family="Helvetica,sans-Serif" font-size="10.00">func_802ABB04</text>
</a>
</g>
</g>
<!-- Node25&#45;&gt;Node26 -->
<g id="edge28_Node000025_Node000026" class="edge">
<title>Node25&#45;&gt;Node26</title>
<g id="a_edge28_Node000025_Node000026"><a xlink:title=" ">
<path fill="none" stroke="#63b8ff" d="M274.39,-37.54C300.45,-32.4 333.38,-25.9 360.98,-20.46"/>
<polygon fill="#63b8ff" stroke="#63b8ff" points="361.75,-23.87 370.88,-18.5 360.39,-17 361.75,-23.87"/>
</a>
</g>
</g>
<!-- Node27 -->
<g id="Node000027" class="node">
<title>Node27</title>
<g id="a_Node000027"><a xlink:href="collision_8c.html#afa1243eb9b3a14bc92434a8a19c162be" target="_top" xlink:title=" ">
<polygon fill="white" stroke="#666666" points="463.5,-56 371.5,-56 371.5,-37 463.5,-37 463.5,-56"/>
<text text-anchor="middle" x="417.5" y="-44" font-family="Helvetica,sans-Serif" font-size="10.00">func_802ABE30</text>
</a>
</g>
</g>
<!-- Node25&#45;&gt;Node27 -->
<g id="edge29_Node000025_Node000027" class="edge">
<title>Node25&#45;&gt;Node27</title>
<g id="a_edge29_Node000025_Node000027"><a xlink:title=" ">
<path fill="none" stroke="#63b8ff" d="M274.39,-46.5C300.43,-46.5 333.33,-46.5 360.92,-46.5"/>
<polygon fill="#63b8ff" stroke="#63b8ff" points="361.2,-50 371.2,-46.5 361.2,-43 361.2,-50"/>
</a>
</g>
</g>
</g>
</svg>

<g id="navigator" transform="translate(0 0)" fill="#404254">
  <rect fill="#f2f5e9" fill-opacity="0.5" stroke="#606060" stroke-width=".5" x="0" y="0" width="60" height="60"/>
  <use id="zoomplus" xlink:href="#zoomPlus" x="17" y="9" onmousedown="handleZoom(evt,'in')"/>
  <use id="zoomminus" xlink:href="#zoomMin" x="42" y="9" onmousedown="handleZoom(evt,'out')"/>
  <use id="reset" xlink:href="#resetDef" x="30" y="36" onmousedown="handleReset()"/>
   <use id="arrowup" xlink:href="#arrowUp" x="0" y="0" onmousedown="handlePan(0,-1)"/>
  <use id="arrowright" xlink:href="#arrowRight" x="0" y="0" onmousedown="handlePan(1,0)"/>
  <use id="arrowdown" xlink:href="#arrowDown" x="0" y="0" onmousedown="handlePan(0,1)"/>
  <use id="arrowleft" xlink:href="#arrowLeft" x="0" y="0" onmousedown="handlePan(-1,0)"/>
</g>
<svg viewBox="0 0 15 15" width="100%" height="30px" preserveAspectRatio="xMaxYMin meet">
 <g id="arrow_out" transform="scale(0.3 0.3)">
  <a xlink:href="actors_8c_a040f5edff7bbda021cb0b3cde23e9674_cgraph_org.svg" target="_base">
   <rect id="button" ry="5" rx="5" y="6" x="6" height="38" width="38"
        fill="#f2f5e9" fill-opacity="0.5" stroke="#606060" stroke-width="1.0"/>
   <path id="arrow"
     d="M 11.500037,31.436501 C 11.940474,20.09759 22.043105,11.32322 32.158766,21.979434 L 37.068811,17.246167 C 37.068811,17.246167 37.088388,32 37.088388,32 L 22.160133,31.978069 C 22.160133,31.978069 26.997745,27.140456 26.997745,27.140456 C 18.528582,18.264221 13.291696,25.230495 11.500037,31.436501 z"
     style="fill:#404040;"/>
  </a>
 </g>
</svg>

<style type='text/css'>
<![CDATA[
[data-mouse-over-selected='false'] { opacity: 0.7; }
[data-mouse-over-selected='true']  { opacity: 1.0; }
]]>
</style>
<script type="application/ecmascript"><![CDATA[
document.addEventListener('DOMContentLoaded', (event) => {
  highlightEdges();
  highlightAdjacentNodes();
});
]]></script>
</svg>
