<?xml version="1.0" encoding="UTF-8" standalone="no"?>
<!DOCTYPE svg PUBLIC "-//W3C//DTD SVG 1.1//EN"
 "http://www.w3.org/Graphics/SVG/1.1/DTD/svg11.dtd">
<!-- Generated by graphviz version 2.43.0 (0)
 -->
<!-- Title: place_palm_trees Pages: 1 -->
<svg width="1560pt" height="363pt"
 viewBox="0.00 0.00 1560.00 362.79" xmlns="http://www.w3.org/2000/svg" xmlns:xlink="http://www.w3.org/1999/xlink">
<g id="graph0" class="graph" transform="scale(1 1) rotate(0) translate(4 358.79)">
<title>place_palm_trees</title>
<!-- Node1 -->
<g id="Node000001" class="node">
<title>Node1</title>
<g id="a_Node000001"><a xlink:title=" ">
<polygon fill="#999999" stroke="#666666" points="103,-94 0,-94 0,-75 103,-75 103,-94"/>
<text text-anchor="middle" x="51.5" y="-82" font-family="Helvetica,sans-Serif" font-size="10.00">place_palm_trees</text>
</a>
</g>
</g>
<!-- Node2 -->
<g id="Node000002" class="node">
<title>Node2</title>
<g id="a_Node000002"><a xlink:href="actors_8c.html#a24d84b2c349ccb02fa767a4e49c4f2c5" target="_top" xlink:title=" ">
<polygon fill="white" stroke="#666666" points="260,-225 139,-225 139,-206 260,-206 260,-225"/>
<text text-anchor="middle" x="199.5" y="-213" font-family="Helvetica,sans-Serif" font-size="10.00">addActorToEmptySlot</text>
</a>
</g>
</g>
<!-- Node1&#45;&gt;Node2 -->
<g id="edge1_Node000001_Node000002" class="edge">
<title>Node1&#45;&gt;Node2</title>
<g id="a_edge1_Node000001_Node000002"><a xlink:title=" ">
<path fill="none" stroke="#63b8ff" d="M63.47,-94.35C88.43,-116.74 149.66,-171.68 180.35,-199.21"/>
<polygon fill="#63b8ff" stroke="#63b8ff" points="178.02,-201.82 187.8,-205.9 182.69,-196.61 178.02,-201.82"/>
</a>
</g>
</g>
<!-- Node17 -->
<g id="Node000017" class="node">
<title>Node17</title>
<g id="a_Node000017"><a xlink:href="math__util_8c.html#a79fd07a0971ec96a3ff0801963a2fa7f" target="_top" xlink:title=" ">
<polygon fill="white" stroke="#666666" points="818,-169 754,-169 754,-150 818,-150 818,-169"/>
<text text-anchor="middle" x="786" y="-157" font-family="Helvetica,sans-Serif" font-size="10.00">vec3f_set</text>
</a>
</g>
</g>
<!-- Node1&#45;&gt;Node17 -->
<g id="edge32_Node000001_Node000017" class="edge">
<title>Node1&#45;&gt;Node17</title>
<g id="a_edge32_Node000001_Node000017"><a xlink:title=" ">
<path fill="none" stroke="#63b8ff" d="M97.23,-94.09C153.74,-105.35 254.11,-122.5 341,-122.5 341,-122.5 341,-122.5 466,-122.5 566.4,-122.5 683.4,-140.81 743.97,-151.67"/>
<polygon fill="#63b8ff" stroke="#63b8ff" points="743.43,-155.13 753.9,-153.47 744.68,-148.24 743.43,-155.13"/>
</a>
</g>
</g>
<!-- Node18 -->
<g id="Node000018" class="node">
<title>Node18</title>
<g id="a_Node000018"><a xlink:href="collision_8c.html#a365367628b7140a7a880beeecce9c305" target="_top" xlink:title=" ">
<polygon fill="white" stroke="#666666" points="655.5,-94 560.5,-94 560.5,-75 655.5,-75 655.5,-94"/>
<text text-anchor="middle" x="608" y="-82" font-family="Helvetica,sans-Serif" font-size="10.00">func_802ADDC8</text>
</a>
</g>
</g>
<!-- Node1&#45;&gt;Node18 -->
<g id="edge31_Node000001_Node000018" class="edge">
<title>Node1&#45;&gt;Node18</title>
<g id="a_edge31_Node000001_Node000018"><a xlink:title=" ">
<path fill="none" stroke="#63b8ff" d="M103.18,-84.5C206.65,-84.5 441.56,-84.5 550.09,-84.5"/>
<polygon fill="#63b8ff" stroke="#63b8ff" points="550.19,-88 560.19,-84.5 550.19,-81 550.19,-88"/>
</a>
</g>
</g>
<!-- Node25 -->
<g id="Node000025" class="node">
<title>Node25</title>
<g id="a_Node000025"><a xlink:href="actors_8c.html#a09d879c67b2c1430dd8ba2d5c9c136e1" target="_top" xlink:title=" ">
<polygon fill="white" stroke="#666666" points="245.5,-56 153.5,-56 153.5,-37 245.5,-37 245.5,-56"/>
<text text-anchor="middle" x="199.5" y="-44" font-family="Helvetica,sans-Serif" font-size="10.00">func_802976EC</text>
</a>
</g>
</g>
<!-- Node1&#45;&gt;Node25 -->
<g id="edge27_Node000001_Node000025" class="edge">
<title>Node1&#45;&gt;Node25</title>
<g id="a_edge27_Node000001_Node000025"><a xlink:title=" ">
<path fill="none" stroke="#63b8ff" d="M89.34,-74.91C108.35,-69.96 131.73,-63.88 151.97,-58.61"/>
<polygon fill="#63b8ff" stroke="#63b8ff" points="153.13,-61.93 161.92,-56.02 151.36,-55.15 153.13,-61.93"/>
</a>
</g>
</g>
<!-- Node29 -->
<g id="Node000029" class="node">
<title>Node29</title>
<g id="a_Node000029"><a xlink:href="math__util_8c.html#a9092c945c52b3a3481228b2724991e3c" target="_top" xlink:title=" ">
<polygon fill="white" stroke="#666666" points="232,-19 167,-19 167,0 232,0 232,-19"/>
<text text-anchor="middle" x="199.5" y="-7" font-family="Helvetica,sans-Serif" font-size="10.00">vec3s_set</text>
</a>
</g>
</g>
<!-- Node1&#45;&gt;Node29 -->
<g id="edge33_Node000001_Node000029" class="edge">
<title>Node1&#45;&gt;Node29</title>
<g id="a_edge33_Node000001_Node000029"><a xlink:title=" ">
<path fill="none" stroke="#63b8ff" d="M64.72,-74.79C80.89,-62.34 110.66,-40.78 139,-27.5 144.77,-24.8 151.05,-22.38 157.29,-20.27"/>
<polygon fill="#63b8ff" stroke="#63b8ff" points="158.51,-23.55 166.99,-17.19 156.4,-16.88 158.51,-23.55"/>
</a>
</g>
</g>
<!-- Node3 -->
<g id="Node000003" class="node">
<title>Node3</title>
<g id="a_Node000003"><a xlink:href="actors_8c.html#a39c023177b5a7686cdd1fc65b8b953e1" target="_top" xlink:title=" ">
<polygon fill="white" stroke="#666666" points="496,-225 434,-225 434,-206 496,-206 496,-225"/>
<text text-anchor="middle" x="465" y="-213" font-family="Helvetica,sans-Serif" font-size="10.00">actor_init</text>
</a>
</g>
</g>
<!-- Node2&#45;&gt;Node3 -->
<g id="edge2_Node000002_Node000003" class="edge">
<title>Node2&#45;&gt;Node3</title>
<g id="a_edge2_Node000002_Node000003"><a xlink:title=" ">
<path fill="none" stroke="#63b8ff" d="M260.29,-215.5C310.23,-215.5 380.07,-215.5 423.63,-215.5"/>
<polygon fill="#63b8ff" stroke="#63b8ff" points="423.85,-219 433.85,-215.5 423.85,-212 423.85,-219"/>
</a>
</g>
</g>
<!-- Node24 -->
<g id="Node000024" class="node">
<title>Node24</title>
<g id="a_Node000024"><a xlink:href="actors_8c.html#a0c9d11d8956bf92c32a5e9bafd7036e6" target="_top" xlink:title=" ">
<polygon fill="white" stroke="#666666" points="387.5,-288 296.5,-288 296.5,-269 387.5,-269 387.5,-288"/>
<text text-anchor="middle" x="342" y="-276" font-family="Helvetica,sans-Serif" font-size="10.00">func_8029E890</text>
</a>
</g>
</g>
<!-- Node2&#45;&gt;Node24 -->
<g id="edge23_Node000002_Node000024" class="edge">
<title>Node2&#45;&gt;Node24</title>
<g id="a_edge23_Node000002_Node000024"><a xlink:title=" ">
<path fill="none" stroke="#63b8ff" d="M221.84,-225.07C245.36,-235.61 283.4,-252.67 310.16,-264.67"/>
<polygon fill="#63b8ff" stroke="#63b8ff" points="308.9,-267.94 319.46,-268.84 311.77,-261.56 308.9,-267.94"/>
</a>
</g>
</g>
<!-- Node4 -->
<g id="Node000004" class="node">
<title>Node4</title>
<g id="a_Node000004"><a xlink:href="actors_8c.html#a1a9bccb586242555a9123ebd4ab70f2a" target="_top" xlink:title=" ">
<polygon fill="white" stroke="#666666" points="674,-292.5 542,-292.5 542,-262.5 674,-262.5 674,-292.5"/>
<text text-anchor="start" x="550" y="-280.5" font-family="Helvetica,sans-Serif" font-size="10.00">cleanup_red_and_green</text>
<text text-anchor="middle" x="608" y="-269.5" font-family="Helvetica,sans-Serif" font-size="10.00">_shells</text>
</a>
</g>
</g>
<!-- Node3&#45;&gt;Node4 -->
<g id="edge3_Node000003_Node000004" class="edge">
<title>Node3&#45;&gt;Node4</title>
<g id="a_edge3_Node000003_Node000004"><a xlink:title=" ">
<path fill="none" stroke="#63b8ff" d="M483.86,-225.13C499.09,-233.17 521.69,-244.71 542,-253.5 546.08,-255.27 550.35,-257.03 554.65,-258.74"/>
<polygon fill="#63b8ff" stroke="#63b8ff" points="553.49,-262.05 564.08,-262.41 556.03,-255.52 553.49,-262.05"/>
</a>
</g>
</g>
<!-- Node16 -->
<g id="Node000016" class="node">
<title>Node16</title>
<g id="a_Node000016"><a xlink:href="collision_8c.html#ad72fef3ffe32191d73b1822f512ebf3f" target="_top" xlink:title=" ">
<polygon fill="white" stroke="#666666" points="655.5,-170 560.5,-170 560.5,-151 655.5,-151 655.5,-170"/>
<text text-anchor="middle" x="608" y="-158" font-family="Helvetica,sans-Serif" font-size="10.00">func_802AAAAC</text>
</a>
</g>
</g>
<!-- Node3&#45;&gt;Node16 -->
<g id="edge15_Node000003_Node000016" class="edge">
<title>Node3&#45;&gt;Node16</title>
<g id="a_edge15_Node000003_Node000016"><a xlink:title=" ">
<path fill="none" stroke="#63b8ff" d="M484.08,-205.94C499.26,-198.16 521.67,-187.23 542,-179.5 547.99,-177.22 554.37,-175.06 560.7,-173.05"/>
<polygon fill="#63b8ff" stroke="#63b8ff" points="562.02,-176.31 570.56,-170.05 559.98,-169.62 562.02,-176.31"/>
</a>
</g>
</g>
<!-- Node3&#45;&gt;Node18 -->
<g id="edge17_Node000003_Node000018" class="edge">
<title>Node3&#45;&gt;Node18</title>
<g id="a_edge17_Node000003_Node000018"><a xlink:title=" ">
<path fill="none" stroke="#63b8ff" d="M475.73,-205.93C490.08,-191.87 517.84,-164.87 542,-142.5 557.29,-128.34 574.96,-112.62 588.01,-101.12"/>
<polygon fill="#63b8ff" stroke="#63b8ff" points="590.65,-103.46 595.85,-94.23 586.03,-98.2 590.65,-103.46"/>
</a>
</g>
</g>
<!-- Node22 -->
<g id="Node000022" class="node">
<title>Node22</title>
<g id="a_Node000022"><a xlink:href="math__util_8c.html#af7b470ed76fce07b8042a47c96e5690b" target="_top" xlink:title=" ">
<polygon fill="white" stroke="#666666" points="661.5,-244 554.5,-244 554.5,-225 661.5,-225 661.5,-244"/>
<text text-anchor="middle" x="608" y="-232" font-family="Helvetica,sans-Serif" font-size="10.00">vec3f_copy_return</text>
</a>
</g>
</g>
<!-- Node3&#45;&gt;Node22 -->
<g id="edge21_Node000003_Node000022" class="edge">
<title>Node3&#45;&gt;Node22</title>
<g id="a_edge21_Node000003_Node000022"><a xlink:title=" ">
<path fill="none" stroke="#63b8ff" d="M496.25,-219.58C510.25,-221.46 527.45,-223.78 544.07,-226.02"/>
<polygon fill="#63b8ff" stroke="#63b8ff" points="543.94,-229.53 554.31,-227.4 544.87,-222.6 543.94,-229.53"/>
</a>
</g>
</g>
<!-- Node23 -->
<g id="Node000023" class="node">
<title>Node23</title>
<g id="a_Node000023"><a xlink:href="math__util_8c.html#a0e270ee67600c8c9c2f140c647d008a1" target="_top" xlink:title=" ">
<polygon fill="white" stroke="#666666" points="645,-207 571,-207 571,-188 645,-188 645,-207"/>
<text text-anchor="middle" x="608" y="-195" font-family="Helvetica,sans-Serif" font-size="10.00">vec3s_copy</text>
</a>
</g>
</g>
<!-- Node3&#45;&gt;Node23 -->
<g id="edge22_Node000003_Node000023" class="edge">
<title>Node3&#45;&gt;Node23</title>
<g id="a_edge22_Node000003_Node000023"><a xlink:title=" ">
<path fill="none" stroke="#63b8ff" d="M496.25,-211.64C515.02,-209.24 539.53,-206.11 560.71,-203.41"/>
<polygon fill="#63b8ff" stroke="#63b8ff" points="561.33,-206.86 570.8,-202.12 560.44,-199.92 561.33,-206.86"/>
</a>
</g>
</g>
<!-- Node5 -->
<g id="Node000005" class="node">
<title>Node5</title>
<g id="a_Node000005"><a xlink:href="actors_8c.html#a694ec6ef7548b8618aeb35c038d3a9b9" target="_top" xlink:title=" ">
<polygon fill="white" stroke="#666666" points="827.5,-284 744.5,-284 744.5,-265 827.5,-265 827.5,-284"/>
<text text-anchor="middle" x="786" y="-272" font-family="Helvetica,sans-Serif" font-size="10.00">destroy_actor</text>
</a>
</g>
</g>
<!-- Node4&#45;&gt;Node5 -->
<g id="edge4_Node000004_Node000005" class="edge">
<title>Node4&#45;&gt;Node5</title>
<g id="a_edge4_Node000004_Node000005"><a xlink:title=" ">
<path fill="none" stroke="#63b8ff" d="M674.04,-276.39C693.95,-276.05 715.55,-275.68 734.35,-275.36"/>
<polygon fill="#63b8ff" stroke="#63b8ff" points="734.54,-278.86 744.48,-275.19 734.42,-271.86 734.54,-278.86"/>
</a>
</g>
</g>
<!-- Node15 -->
<g id="Node000015" class="node">
<title>Node15</title>
<g id="a_Node000015"><a xlink:href="code__80005FD0_8c.html#acb7b3d384c78d219f4b7040e78f6a2f2" target="_top" xlink:title=" ">
<polygon fill="white" stroke="#666666" points="862,-332.5 710,-332.5 710,-302.5 862,-302.5 862,-332.5"/>
<text text-anchor="start" x="718" y="-320.5" font-family="Helvetica,sans-Serif" font-size="10.00">remove_actor_in_unexpired</text>
<text text-anchor="middle" x="786" y="-309.5" font-family="Helvetica,sans-Serif" font-size="10.00">_actor_list</text>
</a>
</g>
</g>
<!-- Node4&#45;&gt;Node15 -->
<g id="edge14_Node000004_Node000015" class="edge">
<title>Node4&#45;&gt;Node15</title>
<g id="a_edge14_Node000004_Node000015"><a xlink:title=" ">
<path fill="none" stroke="#63b8ff" d="M674.04,-292.28C685.32,-294.85 697.15,-297.53 708.7,-300.16"/>
<polygon fill="#63b8ff" stroke="#63b8ff" points="708.23,-303.64 718.76,-302.45 709.79,-296.82 708.23,-303.64"/>
</a>
</g>
</g>
<!-- Node6 -->
<g id="Node000006" class="node">
<title>Node6</title>
<g id="a_Node000006"><a xlink:href="actors_8c.html#a15517665ab054722a5c980c0f1008cd0" target="_top" xlink:title=" ">
<polygon fill="white" stroke="#666666" points="991,-327 898,-327 898,-308 991,-308 991,-327"/>
<text text-anchor="middle" x="944.5" y="-315" font-family="Helvetica,sans-Serif" font-size="10.00">func_8029E7DC</text>
</a>
</g>
</g>
<!-- Node5&#45;&gt;Node6 -->
<g id="edge5_Node000005_Node000006" class="edge">
<title>Node5&#45;&gt;Node6</title>
<g id="a_edge5_Node000005_Node000006"><a xlink:title=" ">
<path fill="none" stroke="#63b8ff" d="M826,-284.08C837.61,-287.01 850.34,-290.31 862,-293.5 875.26,-297.13 889.68,-301.3 902.64,-305.14"/>
<polygon fill="#63b8ff" stroke="#63b8ff" points="901.65,-308.49 912.23,-307.99 903.64,-301.78 901.65,-308.49"/>
</a>
</g>
</g>
<!-- Node7 -->
<g id="Node000007" class="node">
<title>Node7</title>
<g id="a_Node000007"><a xlink:href="external_8c.html#ae72057869772019e4464c87d4e16c682" target="_top" xlink:title=" ">
<polygon fill="white" stroke="#666666" points="1119,-327 1027,-327 1027,-308 1119,-308 1119,-327"/>
<text text-anchor="middle" x="1073" y="-315" font-family="Helvetica,sans-Serif" font-size="10.00">func_800C99E0</text>
</a>
</g>
</g>
<!-- Node6&#45;&gt;Node7 -->
<g id="edge6_Node000006_Node000007" class="edge">
<title>Node6&#45;&gt;Node7</title>
<g id="a_edge6_Node000006_Node000007"><a xlink:title=" ">
<path fill="none" stroke="#63b8ff" d="M991.17,-317.5C999.42,-317.5 1008.11,-317.5 1016.6,-317.5"/>
<polygon fill="#63b8ff" stroke="#63b8ff" points="1016.82,-321 1026.82,-317.5 1016.82,-314 1016.82,-321"/>
</a>
</g>
</g>
<!-- Node8 -->
<g id="Node000008" class="node">
<title>Node8</title>
<g id="a_Node000008"><a xlink:href="external_8c.html#aeb87c527482a244173df36a1f3d4f446" target="_top" xlink:title=" ">
<polygon fill="white" stroke="#666666" points="1247,-346 1155,-346 1155,-327 1247,-327 1247,-346"/>
<text text-anchor="middle" x="1201" y="-334" font-family="Helvetica,sans-Serif" font-size="10.00">func_800C21E8</text>
</a>
</g>
</g>
<!-- Node7&#45;&gt;Node8 -->
<g id="edge7_Node000007_Node000008" class="edge">
<title>Node7&#45;&gt;Node8</title>
<g id="a_edge7_Node000007_Node000008"><a xlink:title=" ">
<path fill="none" stroke="#63b8ff" d="M1119.13,-324.31C1127.46,-325.56 1136.23,-326.88 1144.81,-328.18"/>
<polygon fill="#63b8ff" stroke="#63b8ff" points="1144.35,-331.65 1154.76,-329.68 1145.39,-324.73 1144.35,-331.65"/>
</a>
</g>
</g>
<!-- Node9 -->
<g id="Node000009" class="node">
<title>Node9</title>
<g id="a_Node000009"><a xlink:href="external_8c.html#a028d40421b90c38f68ebfd5acc626f2e" target="_top" xlink:title=" ">
<polygon fill="white" stroke="#666666" points="1247,-309 1155,-309 1155,-290 1247,-290 1247,-309"/>
<text text-anchor="middle" x="1201" y="-297" font-family="Helvetica,sans-Serif" font-size="10.00">func_800C5578</text>
</a>
</g>
</g>
<!-- Node7&#45;&gt;Node9 -->
<g id="edge8_Node000007_Node000009" class="edge">
<title>Node7&#45;&gt;Node9</title>
<g id="a_edge8_Node000007_Node000009"><a xlink:title=" ">
<path fill="none" stroke="#63b8ff" d="M1119.13,-311.05C1127.46,-309.86 1136.23,-308.61 1144.81,-307.38"/>
<polygon fill="#63b8ff" stroke="#63b8ff" points="1145.35,-310.84 1154.76,-305.96 1144.36,-303.91 1145.35,-310.84"/>
</a>
</g>
</g>
<!-- Node10 -->
<g id="Node000010" class="node">
<title>Node10</title>
<g id="a_Node000010"><a xlink:href="external_8c.html#ac0fb767de7e14a03f1bcfa53f0abd23b" target="_top" xlink:title=" ">
<polygon fill="white" stroke="#666666" points="1423,-346 1283,-346 1283,-327 1423,-327 1423,-346"/>
<text text-anchor="middle" x="1353" y="-334" font-family="Helvetica,sans-Serif" font-size="10.00">delete_sound_from_bank</text>
</a>
</g>
</g>
<!-- Node9&#45;&gt;Node10 -->
<g id="edge9_Node000009_Node000010" class="edge">
<title>Node9&#45;&gt;Node10</title>
<g id="a_edge9_Node000009_Node000010"><a xlink:title=" ">
<path fill="none" stroke="#63b8ff" d="M1240.63,-309.03C1259.8,-313.76 1283.16,-319.52 1303.52,-324.54"/>
<polygon fill="#63b8ff" stroke="#63b8ff" points="1302.69,-327.94 1313.24,-326.94 1304.37,-321.15 1302.69,-327.94"/>
</a>
</g>
</g>
<!-- Node12 -->
<g id="Node000012" class="node">
<title>Node12</title>
<g id="a_Node000012"><a xlink:href="external_8c.html#ab83bd36e63f0f1baddcb2482b5ad31b0" target="_top" xlink:title=" ">
<polygon fill="white" stroke="#666666" points="1399.5,-309 1306.5,-309 1306.5,-290 1399.5,-290 1399.5,-309"/>
<text text-anchor="middle" x="1353" y="-297" font-family="Helvetica,sans-Serif" font-size="10.00">func_800C41CC</text>
</a>
</g>
</g>
<!-- Node9&#45;&gt;Node12 -->
<g id="edge11_Node000009_Node000012" class="edge">
<title>Node9&#45;&gt;Node12</title>
<g id="a_edge11_Node000009_Node000012"><a xlink:title=" ">
<path fill="none" stroke="#63b8ff" d="M1247,-299.5C1262.37,-299.5 1279.74,-299.5 1295.86,-299.5"/>
<polygon fill="#63b8ff" stroke="#63b8ff" points="1296.25,-303 1306.25,-299.5 1296.25,-296 1296.25,-303"/>
</a>
</g>
</g>
<!-- Node13 -->
<g id="Node000013" class="node">
<title>Node13</title>
<g id="a_Node000013"><a xlink:href="port__eu_8c.html#aa89dfaecca46c6d071f08c1898d1f7c9" target="_top" xlink:title=" ">
<polygon fill="white" stroke="#666666" points="1399.5,-272 1306.5,-272 1306.5,-253 1399.5,-253 1399.5,-272"/>
<text text-anchor="middle" x="1353" y="-260" font-family="Helvetica,sans-Serif" font-size="10.00">func_800CBBE8</text>
</a>
</g>
</g>
<!-- Node9&#45;&gt;Node13 -->
<g id="edge12_Node000009_Node000013" class="edge">
<title>Node9&#45;&gt;Node13</title>
<g id="a_edge12_Node000009_Node000013"><a xlink:title=" ">
<path fill="none" stroke="#63b8ff" d="M1240.63,-289.97C1259.8,-285.24 1283.16,-279.48 1303.52,-274.46"/>
<polygon fill="#63b8ff" stroke="#63b8ff" points="1304.37,-277.85 1313.24,-272.06 1302.69,-271.06 1304.37,-277.85"/>
</a>
</g>
</g>
<!-- Node11 -->
<g id="Node000011" class="node">
<title>Node11</title>
<g id="a_Node000011"><a xlink:href="external_8c.html#a358ac55e8ab5262dcae8037334be06d7" target="_top" xlink:title=" ">
<polygon fill="white" stroke="#666666" points="1551.5,-346 1459.5,-346 1459.5,-327 1551.5,-327 1551.5,-346"/>
<text text-anchor="middle" x="1505.5" y="-334" font-family="Helvetica,sans-Serif" font-size="10.00">func_800C40F0</text>
</a>
</g>
</g>
<!-- Node10&#45;&gt;Node11 -->
<g id="edge10_Node000010_Node000011" class="edge">
<title>Node10&#45;&gt;Node11</title>
<g id="a_edge10_Node000010_Node000011"><a xlink:title=" ">
<path fill="none" stroke="#63b8ff" d="M1423.08,-336.5C1431.87,-336.5 1440.78,-336.5 1449.31,-336.5"/>
<polygon fill="#63b8ff" stroke="#63b8ff" points="1449.5,-340 1459.5,-336.5 1449.5,-333 1449.5,-340"/>
</a>
</g>
</g>
<!-- Node14 -->
<g id="Node000014" class="node">
<title>Node14</title>
<g id="a_Node000014"><a xlink:href="port__eu_8c.html#af361a20d2e08f30c53a237ca481ff734" target="_top" xlink:title=" ">
<polygon fill="white" stroke="#666666" points="1552,-272 1459,-272 1459,-253 1552,-253 1552,-272"/>
<text text-anchor="middle" x="1505.5" y="-260" font-family="Helvetica,sans-Serif" font-size="10.00">func_800CBB48</text>
</a>
</g>
</g>
<!-- Node13&#45;&gt;Node14 -->
<g id="edge13_Node000013_Node000014" class="edge">
<title>Node13&#45;&gt;Node14</title>
<g id="a_edge13_Node000013_Node000014"><a xlink:title=" ">
<path fill="none" stroke="#63b8ff" d="M1399.56,-262.5C1414.96,-262.5 1432.34,-262.5 1448.46,-262.5"/>
<polygon fill="#63b8ff" stroke="#63b8ff" points="1448.83,-266 1458.83,-262.5 1448.83,-259 1448.83,-266"/>
</a>
</g>
</g>
<!-- Node16&#45;&gt;Node17 -->
<g id="edge16_Node000016_Node000017" class="edge">
<title>Node16&#45;&gt;Node17</title>
<g id="a_edge16_Node000016_Node000017"><a xlink:title=" ">
<path fill="none" stroke="#63b8ff" d="M655.7,-160.23C683.12,-160.08 717.46,-159.88 743.86,-159.73"/>
<polygon fill="#63b8ff" stroke="#63b8ff" points="743.94,-163.23 753.92,-159.68 743.9,-156.23 743.94,-163.23"/>
</a>
</g>
</g>
<!-- Node19 -->
<g id="Node000019" class="node">
<title>Node19</title>
<g id="a_Node000019"><a xlink:href="collision_8c.html#afce45acb8da354da0a5b501003be1aef" target="_top" xlink:title=" ">
<polygon fill="white" stroke="#666666" points="832.5,-57 739.5,-57 739.5,-38 832.5,-38 832.5,-57"/>
<text text-anchor="middle" x="786" y="-45" font-family="Helvetica,sans-Serif" font-size="10.00">func_802AAE4C</text>
</a>
</g>
</g>
<!-- Node18&#45;&gt;Node19 -->
<g id="edge18_Node000018_Node000019" class="edge">
<title>Node18&#45;&gt;Node19</title>
<g id="a_edge18_Node000018_Node000019"><a xlink:title=" ">
<path fill="none" stroke="#63b8ff" d="M654.32,-74.97C677.33,-70.14 705.47,-64.22 729.74,-59.12"/>
<polygon fill="#63b8ff" stroke="#63b8ff" points="730.46,-62.54 739.52,-57.06 729.02,-55.69 730.46,-62.54"/>
</a>
</g>
</g>
<!-- Node20 -->
<g id="Node000020" class="node">
<title>Node20</title>
<g id="a_Node000020"><a xlink:href="collision_8c.html#adcc608ea0eae3bf9a27ab79ec64b4899" target="_top" xlink:title=" ">
<polygon fill="white" stroke="#666666" points="832,-131 740,-131 740,-112 832,-112 832,-131"/>
<text text-anchor="middle" x="786" y="-119" font-family="Helvetica,sans-Serif" font-size="10.00">func_802AB288</text>
</a>
</g>
</g>
<!-- Node18&#45;&gt;Node20 -->
<g id="edge19_Node000018_Node000020" class="edge">
<title>Node18&#45;&gt;Node20</title>
<g id="a_edge19_Node000018_Node000020"><a xlink:title=" ">
<path fill="none" stroke="#63b8ff" d="M654.32,-94.03C677.42,-98.88 705.69,-104.83 730.02,-109.94"/>
<polygon fill="#63b8ff" stroke="#63b8ff" points="729.32,-113.37 739.83,-112 730.76,-106.52 729.32,-113.37"/>
</a>
</g>
</g>
<!-- Node21 -->
<g id="Node000021" class="node">
<title>Node21</title>
<g id="a_Node000021"><a xlink:href="collision_8c.html#ab440aa3fc960b7b4b5ad8e4bcaa06b00" target="_top" xlink:title=" ">
<polygon fill="white" stroke="#666666" points="832.5,-94 739.5,-94 739.5,-75 832.5,-75 832.5,-94"/>
<text text-anchor="middle" x="786" y="-82" font-family="Helvetica,sans-Serif" font-size="10.00">func_802AB6C4</text>
</a>
</g>
</g>
<!-- Node18&#45;&gt;Node21 -->
<g id="edge20_Node000018_Node000021" class="edge">
<title>Node18&#45;&gt;Node21</title>
<g id="a_edge20_Node000018_Node000021"><a xlink:title=" ">
<path fill="none" stroke="#63b8ff" d="M655.7,-84.5C678.24,-84.5 705.44,-84.5 729.07,-84.5"/>
<polygon fill="#63b8ff" stroke="#63b8ff" points="729.3,-88 739.3,-84.5 729.3,-81 729.3,-88"/>
</a>
</g>
</g>
<!-- Node24&#45;&gt;Node3 -->
<g id="edge24_Node000024_Node000003" class="edge">
<title>Node24&#45;&gt;Node3</title>
<g id="a_edge24_Node000024_Node000003"><a xlink:title=" ">
<path fill="none" stroke="#63b8ff" d="M361.38,-268.93C381.37,-258.52 413.53,-241.78 436.52,-229.81"/>
<polygon fill="#63b8ff" stroke="#63b8ff" points="438.2,-232.88 445.45,-225.16 434.96,-226.67 438.2,-232.88"/>
</a>
</g>
</g>
<!-- Node24&#45;&gt;Node6 -->
<g id="edge25_Node000024_Node000006" class="edge">
<title>Node24&#45;&gt;Node6</title>
<g id="a_edge25_Node000024_Node000006"><a xlink:title=" ">
<path fill="none" stroke="#63b8ff" d="M366.36,-288.05C382.34,-294.21 404.14,-301.91 424,-306.5 614.26,-350.51 668.71,-369.37 862,-341.5 877.39,-339.28 893.92,-334.82 908.05,-330.34"/>
<polygon fill="#63b8ff" stroke="#63b8ff" points="909.46,-333.56 917.86,-327.11 907.27,-326.91 909.46,-333.56"/>
</a>
</g>
</g>
<!-- Node24&#45;&gt;Node15 -->
<g id="edge26_Node000024_Node000015" class="edge">
<title>Node24&#45;&gt;Node15</title>
<g id="a_edge26_Node000024_Node000015"><a xlink:title=" ">
<path fill="none" stroke="#63b8ff" d="M387.59,-284.29C427.88,-289.37 488.83,-296.68 542,-301.5 594.37,-306.25 653.21,-310.16 699.87,-312.93"/>
<polygon fill="#63b8ff" stroke="#63b8ff" points="699.75,-316.42 709.94,-313.52 700.16,-309.44 699.75,-316.42"/>
</a>
</g>
</g>
<!-- Node26 -->
<g id="Node000026" class="node">
<title>Node26</title>
<g id="a_Node000026"><a xlink:href="math__util_8c.html#aaa39a297477f56051975259f4bddd829" target="_top" xlink:title=" ">
<polygon fill="white" stroke="#666666" points="367,-56 317,-56 317,-37 367,-37 367,-56"/>
<text text-anchor="middle" x="342" y="-44" font-family="Helvetica,sans-Serif" font-size="10.00">atan2s</text>
</a>
</g>
</g>
<!-- Node25&#45;&gt;Node26 -->
<g id="edge28_Node000025_Node000026" class="edge">
<title>Node25&#45;&gt;Node26</title>
<g id="a_edge28_Node000025_Node000026"><a xlink:title=" ">
<path fill="none" stroke="#63b8ff" d="M245.73,-46.5C265.44,-46.5 288.18,-46.5 306.5,-46.5"/>
<polygon fill="#63b8ff" stroke="#63b8ff" points="306.72,-50 316.72,-46.5 306.72,-43 306.72,-50"/>
</a>
</g>
</g>
<!-- Node28 -->
<g id="Node000028" class="node">
<title>Node28</title>
<g id="a_Node000028"><a xlink:href="actors_8c.html#a6fd7dc3bc34357287535b6f06ab7d85c" target="_top" xlink:title=" ">
<polygon fill="white" stroke="#666666" points="388,-19 296,-19 296,0 388,0 388,-19"/>
<text text-anchor="middle" x="342" y="-7" font-family="Helvetica,sans-Serif" font-size="10.00">func_802976D8</text>
</a>
</g>
</g>
<!-- Node25&#45;&gt;Node28 -->
<g id="edge30_Node000025_Node000028" class="edge">
<title>Node25&#45;&gt;Node28</title>
<g id="a_edge30_Node000025_Node000028"><a xlink:title=" ">
<path fill="none" stroke="#63b8ff" d="M236.68,-36.97C254.33,-32.33 275.75,-26.68 294.59,-21.72"/>
<polygon fill="#63b8ff" stroke="#63b8ff" points="295.67,-25.06 304.45,-19.12 293.89,-18.29 295.67,-25.06"/>
</a>
</g>
</g>
<!-- Node27 -->
<g id="Node000027" class="node">
<title>Node27</title>
<g id="a_Node000027"><a xlink:href="math__util_8c.html#a0273b0ea0783a06996c28669a7438ed9" target="_top" xlink:title=" ">
<polygon fill="white" stroke="#666666" points="506,-56 424,-56 424,-37 506,-37 506,-56"/>
<text text-anchor="middle" x="465" y="-44" font-family="Helvetica,sans-Serif" font-size="10.00">atan2_lookup</text>
</a>
</g>
</g>
<!-- Node26&#45;&gt;Node27 -->
<g id="edge29_Node000026_Node000027" class="edge">
<title>Node26&#45;&gt;Node27</title>
<g id="a_edge29_Node000026_Node000027"><a xlink:title=" ">
<path fill="none" stroke="#63b8ff" d="M367.2,-46.5C380.43,-46.5 397.35,-46.5 413.33,-46.5"/>
<polygon fill="#63b8ff" stroke="#63b8ff" points="413.65,-50 423.65,-46.5 413.65,-43 413.65,-50"/>
</a>
</g>
</g>
</g>
</svg>
