<?xml version="1.0" encoding="UTF-8" standalone="no"?>
<!DOCTYPE svg PUBLIC "-//W3C//DTD SVG 1.1//EN"
 "http://www.w3.org/Graphics/SVG/1.1/DTD/svg11.dtd">
<!-- Generated by graphviz version 2.43.0 (0)
 -->
<!-- Title: use_fake_itembox_item Pages: 1 -->
<svg width="1601pt" height="279pt"
 viewBox="0.00 0.00 1601.00 279.00" xmlns="http://www.w3.org/2000/svg" xmlns:xlink="http://www.w3.org/1999/xlink">
<g id="graph0" class="graph" transform="scale(1 1) rotate(0) translate(4 275)">
<title>use_fake_itembox_item</title>
<!-- Node1 -->
<g id="Node000001" class="node">
<title>Node1</title>
<g id="a_Node000001"><a xlink:title=" ">
<polygon fill="#999999" stroke="#666666" points="134,-104 0,-104 0,-85 134,-85 134,-104"/>
<text text-anchor="middle" x="67" y="-92" font-family="Helvetica,sans-Serif" font-size="10.00">use_fake_itembox_item</text>
</a>
</g>
</g>
<!-- Node2 -->
<g id="Node000002" class="node">
<title>Node2</title>
<g id="a_Node000002"><a xlink:href="actors_8c.html#a24d84b2c349ccb02fa767a4e49c4f2c5" target="_top" xlink:title=" ">
<polygon fill="white" stroke="#666666" points="306.5,-123 185.5,-123 185.5,-104 306.5,-104 306.5,-123"/>
<text text-anchor="middle" x="246" y="-111" font-family="Helvetica,sans-Serif" font-size="10.00">addActorToEmptySlot</text>
</a>
</g>
</g>
<!-- Node1&#45;&gt;Node2 -->
<g id="edge1_Node000001_Node000002" class="edge">
<title>Node1&#45;&gt;Node2</title>
<g id="a_edge1_Node000001_Node000002"><a xlink:title=" ">
<path fill="none" stroke="#63b8ff" d="M134.16,-101.6C147.54,-103.04 161.65,-104.55 175.15,-106"/>
<polygon fill="#63b8ff" stroke="#63b8ff" points="175.02,-109.51 185.34,-107.1 175.77,-102.55 175.02,-109.51"/>
</a>
</g>
</g>
<!-- Node25 -->
<g id="Node000025" class="node">
<title>Node25</title>
<g id="a_Node000025"><a xlink:href="math__util_8c.html#ad5bb0138c68b50f119d3cb7966f522b7" target="_top" xlink:title=" ">
<polygon fill="white" stroke="#666666" points="322,-86 170,-86 170,-67 322,-67 322,-86"/>
<text text-anchor="middle" x="246" y="-74" font-family="Helvetica,sans-Serif" font-size="10.00">mtxf_translate_vec3f_mat3</text>
</a>
</g>
</g>
<!-- Node1&#45;&gt;Node25 -->
<g id="edge27_Node000001_Node000025" class="edge">
<title>Node1&#45;&gt;Node25</title>
<g id="a_edge27_Node000001_Node000025"><a xlink:title=" ">
<path fill="none" stroke="#63b8ff" d="M134.16,-87.77C142.56,-86.92 151.24,-86.03 159.89,-85.16"/>
<polygon fill="#63b8ff" stroke="#63b8ff" points="160.4,-88.62 169.99,-84.13 159.69,-81.66 160.4,-88.62"/>
</a>
</g>
</g>
<!-- Node3 -->
<g id="Node000003" class="node">
<title>Node3</title>
<g id="a_Node000003"><a xlink:href="actors_8c.html#a39c023177b5a7686cdd1fc65b8b953e1" target="_top" xlink:title=" ">
<polygon fill="white" stroke="#666666" points="547,-160 485,-160 485,-141 547,-141 547,-160"/>
<text text-anchor="middle" x="516" y="-148" font-family="Helvetica,sans-Serif" font-size="10.00">actor_init</text>
</a>
</g>
</g>
<!-- Node2&#45;&gt;Node3 -->
<g id="edge2_Node000002_Node000003" class="edge">
<title>Node2&#45;&gt;Node3</title>
<g id="a_edge2_Node000002_Node000003"><a xlink:title=" ">
<path fill="none" stroke="#63b8ff" d="M306.81,-121.76C357.94,-128.82 430.11,-138.78 474.66,-144.93"/>
<polygon fill="#63b8ff" stroke="#63b8ff" points="474.43,-148.43 484.82,-146.33 475.39,-141.5 474.43,-148.43"/>
</a>
</g>
</g>
<!-- Node24 -->
<g id="Node000024" class="node">
<title>Node24</title>
<g id="a_Node000024"><a xlink:href="actors_8c.html#a0c9d11d8956bf92c32a5e9bafd7036e6" target="_top" xlink:title=" ">
<polygon fill="white" stroke="#666666" points="449,-98 358,-98 358,-79 449,-79 449,-98"/>
<text text-anchor="middle" x="403.5" y="-86" font-family="Helvetica,sans-Serif" font-size="10.00">func_8029E890</text>
</a>
</g>
</g>
<!-- Node2&#45;&gt;Node24 -->
<g id="edge23_Node000002_Node000024" class="edge">
<title>Node2&#45;&gt;Node24</title>
<g id="a_edge23_Node000002_Node000024"><a xlink:title=" ">
<path fill="none" stroke="#63b8ff" d="M306.23,-103.98C319.91,-101.78 334.4,-99.45 347.87,-97.28"/>
<polygon fill="#63b8ff" stroke="#63b8ff" points="348.63,-100.71 357.95,-95.66 347.52,-93.79 348.63,-100.71"/>
</a>
</g>
</g>
<!-- Node4 -->
<g id="Node000004" class="node">
<title>Node4</title>
<g id="a_Node000004"><a xlink:href="actors_8c.html#a1a9bccb586242555a9123ebd4ab70f2a" target="_top" xlink:title=" ">
<polygon fill="white" stroke="#666666" points="715,-122.5 583,-122.5 583,-92.5 715,-92.5 715,-122.5"/>
<text text-anchor="start" x="591" y="-110.5" font-family="Helvetica,sans-Serif" font-size="10.00">cleanup_red_and_green</text>
<text text-anchor="middle" x="649" y="-99.5" font-family="Helvetica,sans-Serif" font-size="10.00">_shells</text>
</a>
</g>
</g>
<!-- Node3&#45;&gt;Node4 -->
<g id="edge3_Node000003_Node000004" class="edge">
<title>Node3&#45;&gt;Node4</title>
<g id="a_edge3_Node000003_Node000004"><a xlink:title=" ">
<path fill="none" stroke="#63b8ff" d="M546.07,-140.96C559.74,-136.47 576.52,-130.96 592.48,-125.72"/>
<polygon fill="#63b8ff" stroke="#63b8ff" points="593.87,-128.95 602.28,-122.51 591.69,-122.3 593.87,-128.95"/>
</a>
</g>
</g>
<!-- Node16 -->
<g id="Node000016" class="node">
<title>Node16</title>
<g id="a_Node000016"><a xlink:href="collision_8c.html#ad72fef3ffe32191d73b1822f512ebf3f" target="_top" xlink:title=" ">
<polygon fill="white" stroke="#666666" points="696.5,-197 601.5,-197 601.5,-178 696.5,-178 696.5,-197"/>
<text text-anchor="middle" x="649" y="-185" font-family="Helvetica,sans-Serif" font-size="10.00">func_802AAAAC</text>
</a>
</g>
</g>
<!-- Node3&#45;&gt;Node16 -->
<g id="edge15_Node000003_Node000016" class="edge">
<title>Node3&#45;&gt;Node16</title>
<g id="a_edge15_Node000003_Node000016"><a xlink:title=" ">
<path fill="none" stroke="#63b8ff" d="M547.21,-159.27C558.44,-162.51 571.3,-166.19 583,-169.5 589.59,-171.36 596.55,-173.31 603.39,-175.21"/>
<polygon fill="#63b8ff" stroke="#63b8ff" points="602.66,-178.64 613.24,-177.94 604.54,-171.9 602.66,-178.64"/>
</a>
</g>
</g>
<!-- Node18 -->
<g id="Node000018" class="node">
<title>Node18</title>
<g id="a_Node000018"><a xlink:href="collision_8c.html#a365367628b7140a7a880beeecce9c305" target="_top" xlink:title=" ">
<polygon fill="white" stroke="#666666" points="696.5,-160 601.5,-160 601.5,-141 696.5,-141 696.5,-160"/>
<text text-anchor="middle" x="649" y="-148" font-family="Helvetica,sans-Serif" font-size="10.00">func_802ADDC8</text>
</a>
</g>
</g>
<!-- Node3&#45;&gt;Node18 -->
<g id="edge17_Node000003_Node000018" class="edge">
<title>Node3&#45;&gt;Node18</title>
<g id="a_edge17_Node000003_Node000018"><a xlink:title=" ">
<path fill="none" stroke="#63b8ff" d="M547.05,-150.5C560.13,-150.5 575.9,-150.5 591.04,-150.5"/>
<polygon fill="#63b8ff" stroke="#63b8ff" points="591.39,-154 601.39,-150.5 591.39,-147 591.39,-154"/>
</a>
</g>
</g>
<!-- Node22 -->
<g id="Node000022" class="node">
<title>Node22</title>
<g id="a_Node000022"><a xlink:href="math__util_8c.html#af7b470ed76fce07b8042a47c96e5690b" target="_top" xlink:title=" ">
<polygon fill="white" stroke="#666666" points="702.5,-271 595.5,-271 595.5,-252 702.5,-252 702.5,-271"/>
<text text-anchor="middle" x="649" y="-259" font-family="Helvetica,sans-Serif" font-size="10.00">vec3f_copy_return</text>
</a>
</g>
</g>
<!-- Node3&#45;&gt;Node22 -->
<g id="edge21_Node000003_Node000022" class="edge">
<title>Node3&#45;&gt;Node22</title>
<g id="a_edge21_Node000003_Node000022"><a xlink:title=" ">
<path fill="none" stroke="#63b8ff" d="M521.07,-160.05C529.65,-178.97 551.4,-221.32 583,-243.5 585.22,-245.05 587.56,-246.47 589.99,-247.77"/>
<polygon fill="#63b8ff" stroke="#63b8ff" points="588.57,-250.97 599.12,-251.96 591.49,-244.61 588.57,-250.97"/>
</a>
</g>
</g>
<!-- Node23 -->
<g id="Node000023" class="node">
<title>Node23</title>
<g id="a_Node000023"><a xlink:href="math__util_8c.html#a0e270ee67600c8c9c2f140c647d008a1" target="_top" xlink:title=" ">
<polygon fill="white" stroke="#666666" points="686,-234 612,-234 612,-215 686,-215 686,-234"/>
<text text-anchor="middle" x="649" y="-222" font-family="Helvetica,sans-Serif" font-size="10.00">vec3s_copy</text>
</a>
</g>
</g>
<!-- Node3&#45;&gt;Node23 -->
<g id="edge22_Node000003_Node000023" class="edge">
<title>Node3&#45;&gt;Node23</title>
<g id="a_edge22_Node000003_Node000023"><a xlink:title=" ">
<path fill="none" stroke="#63b8ff" d="M525.86,-160.29C537.71,-172.79 559.89,-194.27 583,-206.5 588.98,-209.67 595.57,-212.32 602.19,-214.53"/>
<polygon fill="#63b8ff" stroke="#63b8ff" points="601.27,-217.91 611.85,-217.46 603.3,-211.21 601.27,-217.91"/>
</a>
</g>
</g>
<!-- Node5 -->
<g id="Node000005" class="node">
<title>Node5</title>
<g id="a_Node000005"><a xlink:href="actors_8c.html#a694ec6ef7548b8618aeb35c038d3a9b9" target="_top" xlink:title=" ">
<polygon fill="white" stroke="#666666" points="868.5,-117 785.5,-117 785.5,-98 868.5,-98 868.5,-117"/>
<text text-anchor="middle" x="827" y="-105" font-family="Helvetica,sans-Serif" font-size="10.00">destroy_actor</text>
</a>
</g>
</g>
<!-- Node4&#45;&gt;Node5 -->
<g id="edge4_Node000004_Node000005" class="edge">
<title>Node4&#45;&gt;Node5</title>
<g id="a_edge4_Node000004_Node000005"><a xlink:title=" ">
<path fill="none" stroke="#63b8ff" d="M715.04,-107.5C734.95,-107.5 756.55,-107.5 775.35,-107.5"/>
<polygon fill="#63b8ff" stroke="#63b8ff" points="775.48,-111 785.48,-107.5 775.48,-104 775.48,-111"/>
</a>
</g>
</g>
<!-- Node15 -->
<g id="Node000015" class="node">
<title>Node15</title>
<g id="a_Node000015"><a xlink:href="code__80005FD0_8c.html#acb7b3d384c78d219f4b7040e78f6a2f2" target="_top" xlink:title=" ">
<polygon fill="white" stroke="#666666" points="903,-79.5 751,-79.5 751,-49.5 903,-49.5 903,-79.5"/>
<text text-anchor="start" x="759" y="-67.5" font-family="Helvetica,sans-Serif" font-size="10.00">remove_actor_in_unexpired</text>
<text text-anchor="middle" x="827" y="-56.5" font-family="Helvetica,sans-Serif" font-size="10.00">_actor_list</text>
</a>
</g>
</g>
<!-- Node4&#45;&gt;Node15 -->
<g id="edge14_Node000004_Node000015" class="edge">
<title>Node4&#45;&gt;Node15</title>
<g id="a_edge14_Node000004_Node000015"><a xlink:title=" ">
<path fill="none" stroke="#63b8ff" d="M711.56,-92.46C725.49,-89.06 740.4,-85.41 754.7,-81.92"/>
<polygon fill="#63b8ff" stroke="#63b8ff" points="755.59,-85.3 764.48,-79.53 753.93,-78.5 755.59,-85.3"/>
</a>
</g>
</g>
<!-- Node6 -->
<g id="Node000006" class="node">
<title>Node6</title>
<g id="a_Node000006"><a xlink:href="actors_8c.html#a15517665ab054722a5c980c0f1008cd0" target="_top" xlink:title=" ">
<polygon fill="white" stroke="#666666" points="1032,-74 939,-74 939,-55 1032,-55 1032,-74"/>
<text text-anchor="middle" x="985.5" y="-62" font-family="Helvetica,sans-Serif" font-size="10.00">func_8029E7DC</text>
</a>
</g>
</g>
<!-- Node5&#45;&gt;Node6 -->
<g id="edge5_Node000005_Node000006" class="edge">
<title>Node5&#45;&gt;Node6</title>
<g id="a_edge5_Node000005_Node000006"><a xlink:title=" ">
<path fill="none" stroke="#63b8ff" d="M867,-97.92C878.61,-94.99 891.34,-91.69 903,-88.5 916.26,-84.87 930.68,-80.7 943.64,-76.86"/>
<polygon fill="#63b8ff" stroke="#63b8ff" points="944.64,-80.22 953.23,-74.01 942.65,-73.51 944.64,-80.22"/>
</a>
</g>
</g>
<!-- Node7 -->
<g id="Node000007" class="node">
<title>Node7</title>
<g id="a_Node000007"><a xlink:href="external_8c.html#ae72057869772019e4464c87d4e16c682" target="_top" xlink:title=" ">
<polygon fill="white" stroke="#666666" points="1160,-74 1068,-74 1068,-55 1160,-55 1160,-74"/>
<text text-anchor="middle" x="1114" y="-62" font-family="Helvetica,sans-Serif" font-size="10.00">func_800C99E0</text>
</a>
</g>
</g>
<!-- Node6&#45;&gt;Node7 -->
<g id="edge6_Node000006_Node000007" class="edge">
<title>Node6&#45;&gt;Node7</title>
<g id="a_edge6_Node000006_Node000007"><a xlink:title=" ">
<path fill="none" stroke="#63b8ff" d="M1032.17,-64.5C1040.42,-64.5 1049.11,-64.5 1057.6,-64.5"/>
<polygon fill="#63b8ff" stroke="#63b8ff" points="1057.82,-68 1067.82,-64.5 1057.82,-61 1057.82,-68"/>
</a>
</g>
</g>
<!-- Node8 -->
<g id="Node000008" class="node">
<title>Node8</title>
<g id="a_Node000008"><a xlink:href="external_8c.html#aeb87c527482a244173df36a1f3d4f446" target="_top" xlink:title=" ">
<polygon fill="white" stroke="#666666" points="1288,-93 1196,-93 1196,-74 1288,-74 1288,-93"/>
<text text-anchor="middle" x="1242" y="-81" font-family="Helvetica,sans-Serif" font-size="10.00">func_800C21E8</text>
</a>
</g>
</g>
<!-- Node7&#45;&gt;Node8 -->
<g id="edge7_Node000007_Node000008" class="edge">
<title>Node7&#45;&gt;Node8</title>
<g id="a_edge7_Node000007_Node000008"><a xlink:title=" ">
<path fill="none" stroke="#63b8ff" d="M1160.13,-71.31C1168.46,-72.56 1177.23,-73.88 1185.81,-75.18"/>
<polygon fill="#63b8ff" stroke="#63b8ff" points="1185.35,-78.65 1195.76,-76.68 1186.39,-71.73 1185.35,-78.65"/>
</a>
</g>
</g>
<!-- Node9 -->
<g id="Node000009" class="node">
<title>Node9</title>
<g id="a_Node000009"><a xlink:href="external_8c.html#a028d40421b90c38f68ebfd5acc626f2e" target="_top" xlink:title=" ">
<polygon fill="white" stroke="#666666" points="1288,-56 1196,-56 1196,-37 1288,-37 1288,-56"/>
<text text-anchor="middle" x="1242" y="-44" font-family="Helvetica,sans-Serif" font-size="10.00">func_800C5578</text>
</a>
</g>
</g>
<!-- Node7&#45;&gt;Node9 -->
<g id="edge8_Node000007_Node000009" class="edge">
<title>Node7&#45;&gt;Node9</title>
<g id="a_edge8_Node000007_Node000009"><a xlink:title=" ">
<path fill="none" stroke="#63b8ff" d="M1160.13,-58.05C1168.46,-56.86 1177.23,-55.61 1185.81,-54.38"/>
<polygon fill="#63b8ff" stroke="#63b8ff" points="1186.35,-57.84 1195.76,-52.96 1185.36,-50.91 1186.35,-57.84"/>
</a>
</g>
</g>
<!-- Node10 -->
<g id="Node000010" class="node">
<title>Node10</title>
<g id="a_Node000010"><a xlink:href="external_8c.html#ac0fb767de7e14a03f1bcfa53f0abd23b" target="_top" xlink:title=" ">
<polygon fill="white" stroke="#666666" points="1464,-93 1324,-93 1324,-74 1464,-74 1464,-93"/>
<text text-anchor="middle" x="1394" y="-81" font-family="Helvetica,sans-Serif" font-size="10.00">delete_sound_from_bank</text>
</a>
</g>
</g>
<!-- Node9&#45;&gt;Node10 -->
<g id="edge9_Node000009_Node000010" class="edge">
<title>Node9&#45;&gt;Node10</title>
<g id="a_edge9_Node000009_Node000010"><a xlink:title=" ">
<path fill="none" stroke="#63b8ff" d="M1281.63,-56.03C1300.8,-60.76 1324.16,-66.52 1344.52,-71.54"/>
<polygon fill="#63b8ff" stroke="#63b8ff" points="1343.69,-74.94 1354.24,-73.94 1345.37,-68.15 1343.69,-74.94"/>
</a>
</g>
</g>
<!-- Node12 -->
<g id="Node000012" class="node">
<title>Node12</title>
<g id="a_Node000012"><a xlink:href="external_8c.html#ab83bd36e63f0f1baddcb2482b5ad31b0" target="_top" xlink:title=" ">
<polygon fill="white" stroke="#666666" points="1440.5,-56 1347.5,-56 1347.5,-37 1440.5,-37 1440.5,-56"/>
<text text-anchor="middle" x="1394" y="-44" font-family="Helvetica,sans-Serif" font-size="10.00">func_800C41CC</text>
</a>
</g>
</g>
<!-- Node9&#45;&gt;Node12 -->
<g id="edge11_Node000009_Node000012" class="edge">
<title>Node9&#45;&gt;Node12</title>
<g id="a_edge11_Node000009_Node000012"><a xlink:title=" ">
<path fill="none" stroke="#63b8ff" d="M1288,-46.5C1303.37,-46.5 1320.74,-46.5 1336.86,-46.5"/>
<polygon fill="#63b8ff" stroke="#63b8ff" points="1337.25,-50 1347.25,-46.5 1337.25,-43 1337.25,-50"/>
</a>
</g>
</g>
<!-- Node13 -->
<g id="Node000013" class="node">
<title>Node13</title>
<g id="a_Node000013"><a xlink:href="port__eu_8c.html#aa89dfaecca46c6d071f08c1898d1f7c9" target="_top" xlink:title=" ">
<polygon fill="white" stroke="#666666" points="1440.5,-19 1347.5,-19 1347.5,0 1440.5,0 1440.5,-19"/>
<text text-anchor="middle" x="1394" y="-7" font-family="Helvetica,sans-Serif" font-size="10.00">func_800CBBE8</text>
</a>
</g>
</g>
<!-- Node9&#45;&gt;Node13 -->
<g id="edge12_Node000009_Node000013" class="edge">
<title>Node9&#45;&gt;Node13</title>
<g id="a_edge12_Node000009_Node000013"><a xlink:title=" ">
<path fill="none" stroke="#63b8ff" d="M1281.63,-36.97C1300.8,-32.24 1324.16,-26.48 1344.52,-21.46"/>
<polygon fill="#63b8ff" stroke="#63b8ff" points="1345.37,-24.85 1354.24,-19.06 1343.69,-18.06 1345.37,-24.85"/>
</a>
</g>
</g>
<!-- Node11 -->
<g id="Node000011" class="node">
<title>Node11</title>
<g id="a_Node000011"><a xlink:href="external_8c.html#a358ac55e8ab5262dcae8037334be06d7" target="_top" xlink:title=" ">
<polygon fill="white" stroke="#666666" points="1592.5,-93 1500.5,-93 1500.5,-74 1592.5,-74 1592.5,-93"/>
<text text-anchor="middle" x="1546.5" y="-81" font-family="Helvetica,sans-Serif" font-size="10.00">func_800C40F0</text>
</a>
</g>
</g>
<!-- Node10&#45;&gt;Node11 -->
<g id="edge10_Node000010_Node000011" class="edge">
<title>Node10&#45;&gt;Node11</title>
<g id="a_edge10_Node000010_Node000011"><a xlink:title=" ">
<path fill="none" stroke="#63b8ff" d="M1464.08,-83.5C1472.87,-83.5 1481.78,-83.5 1490.31,-83.5"/>
<polygon fill="#63b8ff" stroke="#63b8ff" points="1490.5,-87 1500.5,-83.5 1490.5,-80 1490.5,-87"/>
</a>
</g>
</g>
<!-- Node14 -->
<g id="Node000014" class="node">
<title>Node14</title>
<g id="a_Node000014"><a xlink:href="port__eu_8c.html#af361a20d2e08f30c53a237ca481ff734" target="_top" xlink:title=" ">
<polygon fill="white" stroke="#666666" points="1593,-19 1500,-19 1500,0 1593,0 1593,-19"/>
<text text-anchor="middle" x="1546.5" y="-7" font-family="Helvetica,sans-Serif" font-size="10.00">func_800CBB48</text>
</a>
</g>
</g>
<!-- Node13&#45;&gt;Node14 -->
<g id="edge13_Node000013_Node000014" class="edge">
<title>Node13&#45;&gt;Node14</title>
<g id="a_edge13_Node000013_Node000014"><a xlink:title=" ">
<path fill="none" stroke="#63b8ff" d="M1440.56,-9.5C1455.96,-9.5 1473.34,-9.5 1489.46,-9.5"/>
<polygon fill="#63b8ff" stroke="#63b8ff" points="1489.83,-13 1499.83,-9.5 1489.83,-6 1489.83,-13"/>
</a>
</g>
</g>
<!-- Node17 -->
<g id="Node000017" class="node">
<title>Node17</title>
<g id="a_Node000017"><a xlink:href="math__util_8c.html#a79fd07a0971ec96a3ff0801963a2fa7f" target="_top" xlink:title=" ">
<polygon fill="white" stroke="#666666" points="859,-265 795,-265 795,-246 859,-246 859,-265"/>
<text text-anchor="middle" x="827" y="-253" font-family="Helvetica,sans-Serif" font-size="10.00">vec3f_set</text>
</a>
</g>
</g>
<!-- Node16&#45;&gt;Node17 -->
<g id="edge16_Node000016_Node000017" class="edge">
<title>Node16&#45;&gt;Node17</title>
<g id="a_edge16_Node000016_Node000017"><a xlink:title=" ">
<path fill="none" stroke="#63b8ff" d="M692.31,-197.02C700.1,-199.55 707.97,-202.68 715,-206.5 733.55,-216.58 732.21,-227.88 751,-237.5 761.51,-242.88 773.68,-246.69 785.11,-249.37"/>
<polygon fill="#63b8ff" stroke="#63b8ff" points="784.41,-252.8 794.91,-251.45 785.86,-245.95 784.41,-252.8"/>
</a>
</g>
</g>
<!-- Node19 -->
<g id="Node000019" class="node">
<title>Node19</title>
<g id="a_Node000019"><a xlink:href="collision_8c.html#afce45acb8da354da0a5b501003be1aef" target="_top" xlink:title=" ">
<polygon fill="white" stroke="#666666" points="873.5,-191 780.5,-191 780.5,-172 873.5,-172 873.5,-191"/>
<text text-anchor="middle" x="827" y="-179" font-family="Helvetica,sans-Serif" font-size="10.00">func_802AAE4C</text>
</a>
</g>
</g>
<!-- Node18&#45;&gt;Node19 -->
<g id="edge18_Node000018_Node000019" class="edge">
<title>Node18&#45;&gt;Node19</title>
<g id="a_edge18_Node000018_Node000019"><a xlink:title=" ">
<path fill="none" stroke="#63b8ff" d="M696.7,-158.73C719.34,-162.71 746.68,-167.53 770.39,-171.7"/>
<polygon fill="#63b8ff" stroke="#63b8ff" points="769.84,-175.16 780.3,-173.45 771.06,-168.27 769.84,-175.16"/>
</a>
</g>
</g>
<!-- Node20 -->
<g id="Node000020" class="node">
<title>Node20</title>
<g id="a_Node000020"><a xlink:href="collision_8c.html#adcc608ea0eae3bf9a27ab79ec64b4899" target="_top" xlink:title=" ">
<polygon fill="white" stroke="#666666" points="873,-154 781,-154 781,-135 873,-135 873,-154"/>
<text text-anchor="middle" x="827" y="-142" font-family="Helvetica,sans-Serif" font-size="10.00">func_802AB288</text>
</a>
</g>
</g>
<!-- Node18&#45;&gt;Node20 -->
<g id="edge19_Node000018_Node000020" class="edge">
<title>Node18&#45;&gt;Node20</title>
<g id="a_edge19_Node000018_Node000020"><a xlink:title=" ">
<path fill="none" stroke="#63b8ff" d="M696.7,-148.91C719.41,-148.13 746.87,-147.2 770.63,-146.39"/>
<polygon fill="#63b8ff" stroke="#63b8ff" points="771.03,-149.88 780.9,-146.04 770.79,-142.88 771.03,-149.88"/>
</a>
</g>
</g>
<!-- Node21 -->
<g id="Node000021" class="node">
<title>Node21</title>
<g id="a_Node000021"><a xlink:href="collision_8c.html#ab440aa3fc960b7b4b5ad8e4bcaa06b00" target="_top" xlink:title=" ">
<polygon fill="white" stroke="#666666" points="873.5,-228 780.5,-228 780.5,-209 873.5,-209 873.5,-228"/>
<text text-anchor="middle" x="827" y="-216" font-family="Helvetica,sans-Serif" font-size="10.00">func_802AB6C4</text>
</a>
</g>
</g>
<!-- Node18&#45;&gt;Node21 -->
<g id="edge20_Node000018_Node000021" class="edge">
<title>Node18&#45;&gt;Node21</title>
<g id="a_edge20_Node000018_Node000021"><a xlink:title=" ">
<path fill="none" stroke="#63b8ff" d="M692.31,-160.02C700.1,-162.55 707.97,-165.68 715,-169.5 733.55,-179.58 732.21,-190.88 751,-200.5 757.09,-203.62 763.73,-206.21 770.46,-208.35"/>
<polygon fill="#63b8ff" stroke="#63b8ff" points="769.76,-211.79 780.34,-211.2 771.7,-205.07 769.76,-211.79"/>
</a>
</g>
</g>
<!-- Node24&#45;&gt;Node3 -->
<g id="edge24_Node000024_Node000003" class="edge">
<title>Node24&#45;&gt;Node3</title>
<g id="a_edge24_Node000024_Node000003"><a xlink:title=" ">
<path fill="none" stroke="#63b8ff" d="M421.77,-98.19C439.77,-108.29 468.2,-124.24 488.93,-135.87"/>
<polygon fill="#63b8ff" stroke="#63b8ff" points="487.42,-139.04 497.86,-140.88 490.85,-132.93 487.42,-139.04"/>
</a>
</g>
</g>
<!-- Node24&#45;&gt;Node6 -->
<g id="edge25_Node000024_Node000006" class="edge">
<title>Node24&#45;&gt;Node6</title>
<g id="a_edge25_Node000024_Node000006"><a xlink:title=" ">
<path fill="none" stroke="#63b8ff" d="M441.23,-78.98C523.96,-58.83 731.1,-15.72 903,-40.5 918.39,-42.72 934.92,-47.18 949.05,-51.66"/>
<polygon fill="#63b8ff" stroke="#63b8ff" points="948.27,-55.09 958.86,-54.89 950.46,-48.44 948.27,-55.09"/>
</a>
</g>
</g>
<!-- Node24&#45;&gt;Node15 -->
<g id="edge26_Node000024_Node000015" class="edge">
<title>Node24&#45;&gt;Node15</title>
<g id="a_edge26_Node000024_Node000015"><a xlink:title=" ">
<path fill="none" stroke="#63b8ff" d="M449.21,-85.95C518.3,-82.02 652.22,-74.39 740.37,-69.38"/>
<polygon fill="#63b8ff" stroke="#63b8ff" points="740.83,-72.86 750.62,-68.79 740.43,-65.87 740.83,-72.86"/>
</a>
</g>
</g>
</g>
</svg>
