<?xml version="1.0" encoding="UTF-8" standalone="no"?>
<!DOCTYPE svg PUBLIC "-//W3C//DTD SVG 1.1//EN"
 "http://www.w3.org/Graphics/SVG/1.1/DTD/svg11.dtd">
<!-- Generated by graphviz version 2.43.0 (0)
 -->
<!-- Title: func_8029ABD4 Pages: 1 -->
<!--zoomable 317 -->

<svg id="main" version="1.1" xmlns="http://www.w3.org/2000/svg" xmlns:xlink="http://www.w3.org/1999/xlink" xml:space="preserve" onload="init(evt)">
<style type="text/css"><![CDATA[
.node, .edge {opacity: 0.7;}
.node.selected, .edge.selected {opacity: 1;}
.edge:hover path { stroke: red; }
.edge:hover polygon { stroke: red; fill: red; }
]]></style>

<defs>
  <circle id="rim" cx="0" cy="0" r="7"/>
  <circle id="rim2" cx="0" cy="0" r="3.5"/>
  <g id="zoomPlus">
    <use xlink:href="#rim" fill="#404040"><set attributeName="fill" to="#808080" begin="zoomplus.mouseover" end="zoomplus.mouseout"/></use>
    <path d="M-4,0h8M0,-4v8" fill="none" stroke="white" stroke-width="1.5" pointer-events="none"/>
  </g>
  <g id="zoomMin">
    <use xlink:href="#rim" fill="#404040"><set attributeName="fill" to="#808080" begin="zoomminus.mouseover" end="zoomminus.mouseout"/></use>
    <path d="M-4,0h8" fill="none" stroke="white" stroke-width="1.5" pointer-events="none"/>
  </g>
  <g id="arrowUp" transform="translate(30 24)">
    <use xlink:href="#rim"/>
    <path pointer-events="none" fill="none" stroke="white" stroke-width="1.5" d="M0,-3.0v7 M-2.5,-0.5L0,-3.0L2.5,-0.5"/>
  </g>
  <g id="arrowRight" transform="rotate(90) translate(36 -43)">
    <use xlink:href="#rim"/>
    <path pointer-events="none" fill="none" stroke="white" stroke-width="1.5" d="M0,-3.0v7 M-2.5,-0.5L0,-3.0L2.5,-0.5"/>
  </g>
  <g id="arrowDown" transform="rotate(180) translate(-30 -48)">
    <use xlink:href="#rim"/>
    <path pointer-events="none" fill="none" stroke="white" stroke-width="1.5" d="M0,-3.0v7 M-2.5,-0.5L0,-3.0L2.5,-0.5"/>
  </g>
  <g id="arrowLeft" transform="rotate(270) translate(-36 17)">
    <use xlink:href="#rim"/>
    <path pointer-events="none" fill="none" stroke="white" stroke-width="1.5" d="M0,-3.0v7 M-2.5,-0.5L0,-3.0L2.5,-0.5"/>
  </g>
  <g id="resetDef">
    <use xlink:href="#rim2" fill="#404040"><set attributeName="fill" to="#808080" begin="reset.mouseover" end="reset.mouseout"/></use>
  </g>
</defs>
<script type="application/ecmascript">
var viewWidth = 1831;
var viewHeight = 317;
var sectionId = 'dynsection-49';
</script>
<script type="application/ecmascript" xlink:href="svg.min.js"/>
<svg id="graph" class="graph">
<g id="viewport">
<title>func_8029ABD4</title>
<!-- Node1 -->
<g id="Node000001" class="node">
<title>Node1</title>
<g id="a_Node000001"><a xlink:title=" ">
<polygon fill="#999999" stroke="#666666" points="94,-57 0,-57 0,-38 94,-38 94,-57"/>
<text text-anchor="middle" x="47" y="-45" font-family="Helvetica,sans-Serif" font-size="10.00">func_8029ABD4</text>
</a>
</g>
</g>
<!-- Node2 -->
<g id="Node000002" class="node">
<title>Node2</title>
<g id="a_Node000002"><a xlink:href="actors_8c.html#a22b9f8384d00a6e1d5d9a61a67be639d" target="_top" xlink:title=" ">
<polygon fill="white" stroke="#666666" points="242,-62.5 130,-62.5 130,-32.5 242,-32.5 242,-62.5"/>
<text text-anchor="start" x="138" y="-50.5" font-family="Helvetica,sans-Serif" font-size="10.00">allocate_actor_with</text>
<text text-anchor="middle" x="186" y="-39.5" font-family="Helvetica,sans-Serif" font-size="10.00">_new_position</text>
</a>
</g>
</g>
<!-- Node1&#45;&gt;Node2 -->
<g id="edge1_Node000001_Node000002" class="edge">
<title>Node1&#45;&gt;Node2</title>
<g id="a_edge1_Node000001_Node000002"><a xlink:title=" ">
<path fill="none" stroke="#63b8ff" d="M94,-47.5C102.27,-47.5 111.03,-47.5 119.72,-47.5"/>
<polygon fill="#63b8ff" stroke="#63b8ff" points="119.86,-51 129.86,-47.5 119.86,-44 119.86,-51"/>
</a>
</g>
</g>
<!-- Node3 -->
<g id="Node000003" class="node">
<title>Node3</title>
<g id="a_Node000003"><a xlink:href="actors_8c.html#a91fb2e4e37e7c72fea918fe2c1bb4eaf" target="_top" xlink:title=" ">
<polygon fill="white" stroke="#666666" points="418,-190 278,-190 278,-171 418,-171 418,-190"/>
<text text-anchor="middle" x="348" y="-178" font-family="Helvetica,sans-Serif" font-size="10.00">add_actor_to_empty_slot</text>
</a>
</g>
</g>
<!-- Node2&#45;&gt;Node3 -->
<g id="edge2_Node000002_Node000003" class="edge">
<title>Node2&#45;&gt;Node3</title>
<g id="a_edge2_Node000002_Node000003"><a xlink:title=" ">
<path fill="none" stroke="#63b8ff" d="M205.35,-62.76C235.67,-87.95 295.94,-138.05 327.18,-164.03"/>
<polygon fill="#63b8ff" stroke="#63b8ff" points="325.25,-166.97 335.18,-170.67 329.73,-161.59 325.25,-166.97"/>
</a>
</g>
</g>
<!-- Node18 -->
<g id="Node000018" class="node">
<title>Node18</title>
<g id="a_Node000018"><a xlink:href="math__util_8c.html#a79fd07a0971ec96a3ff0801963a2fa7f" target="_top" xlink:title=" ">
<polygon fill="white" stroke="#666666" points="1031,-76 967,-76 967,-57 1031,-57 1031,-76"/>
<text text-anchor="middle" x="999" y="-64" font-family="Helvetica,sans-Serif" font-size="10.00">vec3f_set</text>
</a>
</g>
</g>
<!-- Node2&#45;&gt;Node18 -->
<g id="edge28_Node000002_Node000018" class="edge">
<title>Node2&#45;&gt;Node18</title>
<g id="a_edge28_Node000002_Node000018"><a xlink:title=" ">
<path fill="none" stroke="#63b8ff" d="M242.09,-47.5C310.95,-47.5 432.44,-47.5 536.5,-47.5 536.5,-47.5 536.5,-47.5 689,-47.5 785.08,-47.5 897.65,-56.77 956.83,-62.36"/>
<polygon fill="#63b8ff" stroke="#63b8ff" points="956.61,-65.85 966.9,-63.32 957.28,-58.88 956.61,-65.85"/>
</a>
</g>
</g>
<!-- Node26 -->
<g id="Node000026" class="node">
<title>Node26</title>
<g id="a_Node000026"><a xlink:href="math__util_8c.html#a9092c945c52b3a3481228b2724991e3c" target="_top" xlink:title=" ">
<polygon fill="white" stroke="#666666" points="380.5,-19 315.5,-19 315.5,0 380.5,0 380.5,-19"/>
<text text-anchor="middle" x="348" y="-7" font-family="Helvetica,sans-Serif" font-size="10.00">vec3s_set</text>
</a>
</g>
</g>
<!-- Node2&#45;&gt;Node26 -->
<g id="edge29_Node000002_Node000026" class="edge">
<title>Node2&#45;&gt;Node26</title>
<g id="a_edge29_Node000002_Node000026"><a xlink:title=" ">
<path fill="none" stroke="#63b8ff" d="M242.06,-34.42C262.75,-29.51 285.91,-24.01 305.2,-19.43"/>
<polygon fill="#63b8ff" stroke="#63b8ff" points="306.27,-22.77 315.19,-17.06 304.65,-15.96 306.27,-22.77"/>
</a>
</g>
</g>
<!-- Node4 -->
<g id="Node000004" class="node">
<title>Node4</title>
<g id="a_Node000004"><a xlink:href="actors_8c.html#a39c023177b5a7686cdd1fc65b8b953e1" target="_top" xlink:title=" ">
<polygon fill="white" stroke="#666666" points="719,-190 657,-190 657,-171 719,-171 719,-190"/>
<text text-anchor="middle" x="688" y="-178" font-family="Helvetica,sans-Serif" font-size="10.00">actor_init</text>
</a>
</g>
</g>
<!-- Node3&#45;&gt;Node4 -->
<g id="edge3_Node000003_Node000004" class="edge">
<title>Node3&#45;&gt;Node4</title>
<g id="a_edge3_Node000003_Node000004"><a xlink:title=" ">
<path fill="none" stroke="#63b8ff" d="M418.21,-180.5C486.98,-180.5 590.09,-180.5 646.52,-180.5"/>
<polygon fill="#63b8ff" stroke="#63b8ff" points="646.83,-184 656.83,-180.5 646.83,-177 646.83,-184"/>
</a>
</g>
</g>
<!-- Node25 -->
<g id="Node000025" class="node">
<title>Node25</title>
<g id="a_Node000025"><a xlink:href="actors_8c.html#adf454481afb7fd833f5ce3f01dea4bea" target="_top" xlink:title=" ">
<polygon fill="white" stroke="#666666" points="621,-271 454,-271 454,-252 621,-252 621,-271"/>
<text text-anchor="middle" x="537.5" y="-259" font-family="Helvetica,sans-Serif" font-size="10.00">try_remove_destructable_item</text>
</a>
</g>
</g>
<!-- Node3&#45;&gt;Node25 -->
<g id="edge24_Node000003_Node000025" class="edge">
<title>Node3&#45;&gt;Node25</title>
<g id="a_edge24_Node000003_Node000025"><a xlink:title=" ">
<path fill="none" stroke="#63b8ff" d="M371.25,-190.11C404.37,-204.42 466.82,-231.4 504.74,-247.78"/>
<polygon fill="#63b8ff" stroke="#63b8ff" points="503.72,-251.15 514.28,-251.9 506.49,-244.72 503.72,-251.15"/>
</a>
</g>
</g>
<!-- Node5 -->
<g id="Node000005" class="node">
<title>Node5</title>
<g id="a_Node000005"><a xlink:href="actors_8c.html#a1a9bccb586242555a9123ebd4ab70f2a" target="_top" xlink:title=" ">
<polygon fill="white" stroke="#666666" points="887,-217.5 755,-217.5 755,-187.5 887,-187.5 887,-217.5"/>
<text text-anchor="start" x="763" y="-205.5" font-family="Helvetica,sans-Serif" font-size="10.00">cleanup_red_and_green</text>
<text text-anchor="middle" x="821" y="-194.5" font-family="Helvetica,sans-Serif" font-size="10.00">_shells</text>
</a>
</g>
</g>
<!-- Node4&#45;&gt;Node5 -->
<g id="edge4_Node000004_Node000005" class="edge">
<title>Node4&#45;&gt;Node5</title>
<g id="a_edge4_Node000004_Node000005"><a xlink:title=" ">
<path fill="none" stroke="#63b8ff" d="M719.05,-185.55C726.93,-186.87 735.79,-188.36 744.9,-189.89"/>
<polygon fill="#63b8ff" stroke="#63b8ff" points="744.4,-193.35 754.85,-191.56 745.56,-186.45 744.4,-193.35"/>
</a>
</g>
</g>
<!-- Node17 -->
<g id="Node000017" class="node">
<title>Node17</title>
<g id="a_Node000017"><a xlink:href="collision_8c.html#ad72fef3ffe32191d73b1822f512ebf3f" target="_top" xlink:title=" ">
<polygon fill="white" stroke="#666666" points="868.5,-132 773.5,-132 773.5,-113 868.5,-113 868.5,-132"/>
<text text-anchor="middle" x="821" y="-120" font-family="Helvetica,sans-Serif" font-size="10.00">func_802AAAAC</text>
</a>
</g>
</g>
<!-- Node4&#45;&gt;Node17 -->
<g id="edge16_Node000004_Node000017" class="edge">
<title>Node4&#45;&gt;Node17</title>
<g id="a_edge16_Node000004_Node000017"><a xlink:title=" ">
<path fill="none" stroke="#63b8ff" d="M702.56,-170.75C715.5,-161.83 735.81,-148.78 755,-140.5 759.47,-138.57 764.2,-136.79 768.99,-135.17"/>
<polygon fill="#63b8ff" stroke="#63b8ff" points="770.36,-138.41 778.84,-132.05 768.25,-131.73 770.36,-138.41"/>
</a>
</g>
</g>
<!-- Node19 -->
<g id="Node000019" class="node">
<title>Node19</title>
<g id="a_Node000019"><a xlink:href="collision_8c.html#a365367628b7140a7a880beeecce9c305" target="_top" xlink:title=" ">
<polygon fill="white" stroke="#666666" points="868.5,-169 773.5,-169 773.5,-150 868.5,-150 868.5,-169"/>
<text text-anchor="middle" x="821" y="-157" font-family="Helvetica,sans-Serif" font-size="10.00">func_802ADDC8</text>
</a>
</g>
</g>
<!-- Node4&#45;&gt;Node19 -->
<g id="edge18_Node000004_Node000019" class="edge">
<title>Node4&#45;&gt;Node19</title>
<g id="a_edge18_Node000004_Node000019"><a xlink:title=" ">
<path fill="none" stroke="#63b8ff" d="M719.05,-175.68C732.25,-173.57 748.2,-171.01 763.48,-168.56"/>
<polygon fill="#63b8ff" stroke="#63b8ff" points="764.07,-172.01 773.39,-166.97 762.96,-165.1 764.07,-172.01"/>
</a>
</g>
</g>
<!-- Node23 -->
<g id="Node000023" class="node">
<title>Node23</title>
<g id="a_Node000023"><a xlink:href="math__util_8c.html#af7b470ed76fce07b8042a47c96e5690b" target="_top" xlink:title=" ">
<polygon fill="white" stroke="#666666" points="874.5,-95 767.5,-95 767.5,-76 874.5,-76 874.5,-95"/>
<text text-anchor="middle" x="821" y="-83" font-family="Helvetica,sans-Serif" font-size="10.00">vec3f_copy_return</text>
</a>
</g>
</g>
<!-- Node4&#45;&gt;Node23 -->
<g id="edge22_Node000004_Node000023" class="edge">
<title>Node4&#45;&gt;Node23</title>
<g id="a_edge22_Node000004_Node000023"><a xlink:title=" ">
<path fill="none" stroke="#63b8ff" d="M694.58,-170.85C704.56,-154.46 727.06,-121.26 755,-103.5 757.58,-101.86 760.32,-100.36 763.15,-99"/>
<polygon fill="#63b8ff" stroke="#63b8ff" points="764.56,-102.2 772.42,-95.1 761.85,-95.75 764.56,-102.2"/>
</a>
</g>
</g>
<!-- Node24 -->
<g id="Node000024" class="node">
<title>Node24</title>
<g id="a_Node000024"><a xlink:href="math__util_8c.html#a0e270ee67600c8c9c2f140c647d008a1" target="_top" xlink:title=" ">
<polygon fill="white" stroke="#666666" points="858,-255 784,-255 784,-236 858,-236 858,-255"/>
<text text-anchor="middle" x="821" y="-243" font-family="Helvetica,sans-Serif" font-size="10.00">vec3s_copy</text>
</a>
</g>
</g>
<!-- Node4&#45;&gt;Node24 -->
<g id="edge23_Node000004_Node000024" class="edge">
<title>Node4&#45;&gt;Node24</title>
<g id="a_edge23_Node000004_Node000024"><a xlink:title=" ">
<path fill="none" stroke="#63b8ff" d="M700.44,-190.22C713.06,-200.51 734.34,-216.61 755,-226.5 761.06,-229.4 767.64,-231.95 774.23,-234.17"/>
<polygon fill="#63b8ff" stroke="#63b8ff" points="773.21,-237.52 783.8,-237.17 775.31,-230.84 773.21,-237.52"/>
</a>
</g>
</g>
<!-- Node6 -->
<g id="Node000006" class="node">
<title>Node6</title>
<g id="a_Node000006"><a xlink:href="actors_8c.html#a694ec6ef7548b8618aeb35c038d3a9b9" target="_top" xlink:title=" ">
<polygon fill="white" stroke="#666666" points="1040.5,-244 957.5,-244 957.5,-225 1040.5,-225 1040.5,-244"/>
<text text-anchor="middle" x="999" y="-232" font-family="Helvetica,sans-Serif" font-size="10.00">destroy_actor</text>
</a>
</g>
</g>
<!-- Node5&#45;&gt;Node6 -->
<g id="edge5_Node000005_Node000006" class="edge">
<title>Node5&#45;&gt;Node6</title>
<g id="a_edge5_Node000005_Node000006"><a xlink:title=" ">
<path fill="none" stroke="#63b8ff" d="M887.04,-214.32C907.04,-217.96 928.75,-221.91 947.61,-225.34"/>
<polygon fill="#63b8ff" stroke="#63b8ff" points="947.02,-228.79 957.48,-227.13 948.27,-221.9 947.02,-228.79"/>
</a>
</g>
</g>
<!-- Node16 -->
<g id="Node000016" class="node">
<title>Node16</title>
<g id="a_Node000016"><a xlink:href="code__80005FD0_8c.html#acb7b3d384c78d219f4b7040e78f6a2f2" target="_top" xlink:title=" ">
<polygon fill="white" stroke="#666666" points="1075,-293.5 923,-293.5 923,-263.5 1075,-263.5 1075,-293.5"/>
<text text-anchor="start" x="931" y="-281.5" font-family="Helvetica,sans-Serif" font-size="10.00">remove_actor_in_unexpired</text>
<text text-anchor="middle" x="999" y="-270.5" font-family="Helvetica,sans-Serif" font-size="10.00">_actor_list</text>
</a>
</g>
</g>
<!-- Node5&#45;&gt;Node16 -->
<g id="edge15_Node000005_Node000016" class="edge">
<title>Node5&#45;&gt;Node16</title>
<g id="a_edge15_Node000005_Node000016"><a xlink:title=" ">
<path fill="none" stroke="#63b8ff" d="M865.71,-217.52C872.96,-220.52 880.3,-223.87 887,-227.5 904.36,-236.9 905.44,-244.5 923,-253.5 927.28,-255.69 931.79,-257.75 936.39,-259.68"/>
<polygon fill="#63b8ff" stroke="#63b8ff" points="935.33,-263.02 945.92,-263.43 937.9,-256.51 935.33,-263.02"/>
</a>
</g>
</g>
<!-- Node7 -->
<g id="Node000007" class="node">
<title>Node7</title>
<g id="a_Node000007"><a xlink:href="actors_8c.html#ad5a56c8f7eaf719223099cce9e38ec9f" target="_top" xlink:title=" ">
<polygon fill="white" stroke="#666666" points="1262,-287 1111,-287 1111,-268 1262,-268 1262,-287"/>
<text text-anchor="middle" x="1186.5" y="-275" font-family="Helvetica,sans-Serif" font-size="10.00">play_sound_before_destroy</text>
</a>
</g>
</g>
<!-- Node6&#45;&gt;Node7 -->
<g id="edge6_Node000006_Node000007" class="edge">
<title>Node6&#45;&gt;Node7</title>
<g id="a_edge6_Node000006_Node000007"><a xlink:title=" ">
<path fill="none" stroke="#63b8ff" d="M1040.71,-243.94C1068.18,-250.31 1104.67,-258.76 1134.14,-265.59"/>
<polygon fill="#63b8ff" stroke="#63b8ff" points="1133.71,-269.09 1144.25,-267.94 1135.29,-262.27 1133.71,-269.09"/>
</a>
</g>
</g>
<!-- Node8 -->
<g id="Node000008" class="node">
<title>Node8</title>
<g id="a_Node000008"><a xlink:href="external_8c.html#ae72057869772019e4464c87d4e16c682" target="_top" xlink:title=" ">
<polygon fill="white" stroke="#666666" points="1390,-287 1298,-287 1298,-268 1390,-268 1390,-287"/>
<text text-anchor="middle" x="1344" y="-275" font-family="Helvetica,sans-Serif" font-size="10.00">func_800C99E0</text>
</a>
</g>
</g>
<!-- Node7&#45;&gt;Node8 -->
<g id="edge7_Node000007_Node000008" class="edge">
<title>Node7&#45;&gt;Node8</title>
<g id="a_edge7_Node000007_Node000008"><a xlink:title=" ">
<path fill="none" stroke="#63b8ff" d="M1262.06,-277.5C1270.61,-277.5 1279.21,-277.5 1287.45,-277.5"/>
<polygon fill="#63b8ff" stroke="#63b8ff" points="1287.66,-281 1297.66,-277.5 1287.66,-274 1287.66,-281"/>
</a>
</g>
</g>
<!-- Node9 -->
<g id="Node000009" class="node">
<title>Node9</title>
<g id="a_Node000009"><a xlink:href="external_8c.html#aeb87c527482a244173df36a1f3d4f446" target="_top" xlink:title=" ">
<polygon fill="white" stroke="#666666" points="1518,-306 1426,-306 1426,-287 1518,-287 1518,-306"/>
<text text-anchor="middle" x="1472" y="-294" font-family="Helvetica,sans-Serif" font-size="10.00">func_800C21E8</text>
</a>
</g>
</g>
<!-- Node8&#45;&gt;Node9 -->
<g id="edge8_Node000008_Node000009" class="edge">
<title>Node8&#45;&gt;Node9</title>
<g id="a_edge8_Node000008_Node000009"><a xlink:title=" ">
<path fill="none" stroke="#63b8ff" d="M1390.13,-284.31C1398.46,-285.56 1407.23,-286.88 1415.81,-288.18"/>
<polygon fill="#63b8ff" stroke="#63b8ff" points="1415.35,-291.65 1425.76,-289.68 1416.39,-284.73 1415.35,-291.65"/>
</a>
</g>
</g>
<!-- Node10 -->
<g id="Node000010" class="node">
<title>Node10</title>
<g id="a_Node000010"><a xlink:href="external_8c.html#a028d40421b90c38f68ebfd5acc626f2e" target="_top" xlink:title=" ">
<polygon fill="white" stroke="#666666" points="1518,-269 1426,-269 1426,-250 1518,-250 1518,-269"/>
<text text-anchor="middle" x="1472" y="-257" font-family="Helvetica,sans-Serif" font-size="10.00">func_800C5578</text>
</a>
</g>
</g>
<!-- Node8&#45;&gt;Node10 -->
<g id="edge9_Node000008_Node000010" class="edge">
<title>Node8&#45;&gt;Node10</title>
<g id="a_edge9_Node000008_Node000010"><a xlink:title=" ">
<path fill="none" stroke="#63b8ff" d="M1390.13,-271.05C1398.46,-269.86 1407.23,-268.61 1415.81,-267.38"/>
<polygon fill="#63b8ff" stroke="#63b8ff" points="1416.35,-270.84 1425.76,-265.96 1415.36,-263.91 1416.35,-270.84"/>
</a>
</g>
</g>
<!-- Node11 -->
<g id="Node000011" class="node">
<title>Node11</title>
<g id="a_Node000011"><a xlink:href="external_8c.html#ac0fb767de7e14a03f1bcfa53f0abd23b" target="_top" xlink:title=" ">
<polygon fill="white" stroke="#666666" points="1694,-306 1554,-306 1554,-287 1694,-287 1694,-306"/>
<text text-anchor="middle" x="1624" y="-294" font-family="Helvetica,sans-Serif" font-size="10.00">delete_sound_from_bank</text>
</a>
</g>
</g>
<!-- Node10&#45;&gt;Node11 -->
<g id="edge10_Node000010_Node000011" class="edge">
<title>Node10&#45;&gt;Node11</title>
<g id="a_edge10_Node000010_Node000011"><a xlink:title=" ">
<path fill="none" stroke="#63b8ff" d="M1511.63,-269.03C1530.8,-273.76 1554.16,-279.52 1574.52,-284.54"/>
<polygon fill="#63b8ff" stroke="#63b8ff" points="1573.69,-287.94 1584.24,-286.94 1575.37,-281.15 1573.69,-287.94"/>
</a>
</g>
</g>
<!-- Node13 -->
<g id="Node000013" class="node">
<title>Node13</title>
<g id="a_Node000013"><a xlink:href="external_8c.html#ab83bd36e63f0f1baddcb2482b5ad31b0" target="_top" xlink:title=" ">
<polygon fill="white" stroke="#666666" points="1670.5,-269 1577.5,-269 1577.5,-250 1670.5,-250 1670.5,-269"/>
<text text-anchor="middle" x="1624" y="-257" font-family="Helvetica,sans-Serif" font-size="10.00">func_800C41CC</text>
</a>
</g>
</g>
<!-- Node10&#45;&gt;Node13 -->
<g id="edge12_Node000010_Node000013" class="edge">
<title>Node10&#45;&gt;Node13</title>
<g id="a_edge12_Node000010_Node000013"><a xlink:title=" ">
<path fill="none" stroke="#63b8ff" d="M1518,-259.5C1533.37,-259.5 1550.74,-259.5 1566.86,-259.5"/>
<polygon fill="#63b8ff" stroke="#63b8ff" points="1567.25,-263 1577.25,-259.5 1567.25,-256 1567.25,-263"/>
</a>
</g>
</g>
<!-- Node14 -->
<g id="Node000014" class="node">
<title>Node14</title>
<g id="a_Node000014"><a xlink:href="port__eu_8c.html#aa89dfaecca46c6d071f08c1898d1f7c9" target="_top" xlink:title=" ">
<polygon fill="white" stroke="#666666" points="1670.5,-232 1577.5,-232 1577.5,-213 1670.5,-213 1670.5,-232"/>
<text text-anchor="middle" x="1624" y="-220" font-family="Helvetica,sans-Serif" font-size="10.00">func_800CBBE8</text>
</a>
</g>
</g>
<!-- Node10&#45;&gt;Node14 -->
<g id="edge13_Node000010_Node000014" class="edge">
<title>Node10&#45;&gt;Node14</title>
<g id="a_edge13_Node000010_Node000014"><a xlink:title=" ">
<path fill="none" stroke="#63b8ff" d="M1511.63,-249.97C1530.8,-245.24 1554.16,-239.48 1574.52,-234.46"/>
<polygon fill="#63b8ff" stroke="#63b8ff" points="1575.37,-237.85 1584.24,-232.06 1573.69,-231.06 1575.37,-237.85"/>
</a>
</g>
</g>
<!-- Node12 -->
<g id="Node000012" class="node">
<title>Node12</title>
<g id="a_Node000012"><a xlink:href="external_8c.html#a358ac55e8ab5262dcae8037334be06d7" target="_top" xlink:title=" ">
<polygon fill="white" stroke="#666666" points="1822.5,-306 1730.5,-306 1730.5,-287 1822.5,-287 1822.5,-306"/>
<text text-anchor="middle" x="1776.5" y="-294" font-family="Helvetica,sans-Serif" font-size="10.00">func_800C40F0</text>
</a>
</g>
</g>
<!-- Node11&#45;&gt;Node12 -->
<g id="edge11_Node000011_Node000012" class="edge">
<title>Node11&#45;&gt;Node12</title>
<g id="a_edge11_Node000011_Node000012"><a xlink:title=" ">
<path fill="none" stroke="#63b8ff" d="M1694.08,-296.5C1702.87,-296.5 1711.78,-296.5 1720.31,-296.5"/>
<polygon fill="#63b8ff" stroke="#63b8ff" points="1720.5,-300 1730.5,-296.5 1720.5,-293 1720.5,-300"/>
</a>
</g>
</g>
<!-- Node15 -->
<g id="Node000015" class="node">
<title>Node15</title>
<g id="a_Node000015"><a xlink:href="port__eu_8c.html#af361a20d2e08f30c53a237ca481ff734" target="_top" xlink:title=" ">
<polygon fill="white" stroke="#666666" points="1823,-232 1730,-232 1730,-213 1823,-213 1823,-232"/>
<text text-anchor="middle" x="1776.5" y="-220" font-family="Helvetica,sans-Serif" font-size="10.00">func_800CBB48</text>
</a>
</g>
</g>
<!-- Node14&#45;&gt;Node15 -->
<g id="edge14_Node000014_Node000015" class="edge">
<title>Node14&#45;&gt;Node15</title>
<g id="a_edge14_Node000014_Node000015"><a xlink:title=" ">
<path fill="none" stroke="#63b8ff" d="M1670.56,-222.5C1685.96,-222.5 1703.34,-222.5 1719.46,-222.5"/>
<polygon fill="#63b8ff" stroke="#63b8ff" points="1719.83,-226 1729.83,-222.5 1719.83,-219 1719.83,-226"/>
</a>
</g>
</g>
<!-- Node17&#45;&gt;Node18 -->
<g id="edge17_Node000017_Node000018" class="edge">
<title>Node17&#45;&gt;Node18</title>
<g id="a_edge17_Node000017_Node000018"><a xlink:title=" ">
<path fill="none" stroke="#63b8ff" d="M855.47,-112.97C865.62,-110.02 876.79,-106.69 887,-103.5 911.6,-95.81 939.09,-86.65 960.56,-79.37"/>
<polygon fill="#63b8ff" stroke="#63b8ff" points="961.93,-82.6 970.27,-76.06 959.67,-75.97 961.93,-82.6"/>
</a>
</g>
</g>
<!-- Node20 -->
<g id="Node000020" class="node">
<title>Node20</title>
<g id="a_Node000020"><a xlink:href="collision_8c.html#afce45acb8da354da0a5b501003be1aef" target="_top" xlink:title=" ">
<polygon fill="white" stroke="#666666" points="1045.5,-206 952.5,-206 952.5,-187 1045.5,-187 1045.5,-206"/>
<text text-anchor="middle" x="999" y="-194" font-family="Helvetica,sans-Serif" font-size="10.00">func_802AAE4C</text>
</a>
</g>
</g>
<!-- Node19&#45;&gt;Node20 -->
<g id="edge19_Node000019_Node000020" class="edge">
<title>Node19&#45;&gt;Node20</title>
<g id="a_edge19_Node000019_Node000020"><a xlink:title=" ">
<path fill="none" stroke="#63b8ff" d="M867.32,-169.03C890.33,-173.86 918.47,-179.78 942.74,-184.88"/>
<polygon fill="#63b8ff" stroke="#63b8ff" points="942.02,-188.31 952.52,-186.94 943.46,-181.46 942.02,-188.31"/>
</a>
</g>
</g>
<!-- Node21 -->
<g id="Node000021" class="node">
<title>Node21</title>
<g id="a_Node000021"><a xlink:href="collision_8c.html#adcc608ea0eae3bf9a27ab79ec64b4899" target="_top" xlink:title=" ">
<polygon fill="white" stroke="#666666" points="1045,-169 953,-169 953,-150 1045,-150 1045,-169"/>
<text text-anchor="middle" x="999" y="-157" font-family="Helvetica,sans-Serif" font-size="10.00">func_802AB288</text>
</a>
</g>
</g>
<!-- Node19&#45;&gt;Node21 -->
<g id="edge20_Node000019_Node000021" class="edge">
<title>Node19&#45;&gt;Node21</title>
<g id="a_edge20_Node000019_Node000021"><a xlink:title=" ">
<path fill="none" stroke="#63b8ff" d="M868.7,-159.5C891.41,-159.5 918.87,-159.5 942.63,-159.5"/>
<polygon fill="#63b8ff" stroke="#63b8ff" points="942.9,-163 952.9,-159.5 942.9,-156 942.9,-163"/>
</a>
</g>
</g>
<!-- Node22 -->
<g id="Node000022" class="node">
<title>Node22</title>
<g id="a_Node000022"><a xlink:href="collision_8c.html#ab440aa3fc960b7b4b5ad8e4bcaa06b00" target="_top" xlink:title=" ">
<polygon fill="white" stroke="#666666" points="1045.5,-132 952.5,-132 952.5,-113 1045.5,-113 1045.5,-132"/>
<text text-anchor="middle" x="999" y="-120" font-family="Helvetica,sans-Serif" font-size="10.00">func_802AB6C4</text>
</a>
</g>
</g>
<!-- Node19&#45;&gt;Node22 -->
<g id="edge21_Node000019_Node000022" class="edge">
<title>Node19&#45;&gt;Node22</title>
<g id="a_edge21_Node000019_Node000022"><a xlink:title=" ">
<path fill="none" stroke="#63b8ff" d="M867.32,-149.97C890.33,-145.14 918.47,-139.22 942.74,-134.12"/>
<polygon fill="#63b8ff" stroke="#63b8ff" points="943.46,-137.54 952.52,-132.06 942.02,-130.69 943.46,-137.54"/>
</a>
</g>
</g>
<!-- Node25&#45;&gt;Node4 -->
<g id="edge25_Node000025_Node000004" class="edge">
<title>Node25&#45;&gt;Node4</title>
<g id="a_edge25_Node000025_Node000004"><a xlink:title=" ">
<path fill="none" stroke="#63b8ff" d="M556.12,-251.89C581.91,-237.82 630.14,-211.52 660.3,-195.06"/>
<polygon fill="#63b8ff" stroke="#63b8ff" points="662.3,-197.96 669.4,-190.1 658.95,-191.81 662.3,-197.96"/>
</a>
</g>
</g>
<!-- Node25&#45;&gt;Node7 -->
<g id="edge26_Node000025_Node000007" class="edge">
<title>Node25&#45;&gt;Node7</title>
<g id="a_edge26_Node000025_Node000007"><a xlink:title=" ">
<path fill="none" stroke="#63b8ff" d="M585.61,-271.02C679.11,-288.61 894.67,-322.65 1075,-302.5 1097.41,-300 1121.9,-294.72 1142.13,-289.66"/>
<polygon fill="#63b8ff" stroke="#63b8ff" points="1143.16,-293.01 1151.98,-287.13 1141.42,-286.23 1143.16,-293.01"/>
</a>
</g>
</g>
<!-- Node25&#45;&gt;Node16 -->
<g id="edge27_Node000025_Node000016" class="edge">
<title>Node25&#45;&gt;Node16</title>
<g id="a_edge27_Node000025_Node000016"><a xlink:title=" ">
<path fill="none" stroke="#63b8ff" d="M621.18,-264.56C703.53,-267.61 829.37,-272.26 912.64,-275.34"/>
<polygon fill="#63b8ff" stroke="#63b8ff" points="912.71,-278.85 922.83,-275.72 912.97,-271.85 912.71,-278.85"/>
</a>
</g>
</g>
</g>
</svg>

<g id="navigator" transform="translate(0 0)" fill="#404254">
  <rect fill="#f2f5e9" fill-opacity="0.5" stroke="#606060" stroke-width=".5" x="0" y="0" width="60" height="60"/>
  <use id="zoomplus" xlink:href="#zoomPlus" x="17" y="9" onmousedown="handleZoom(evt,'in')"/>
  <use id="zoomminus" xlink:href="#zoomMin" x="42" y="9" onmousedown="handleZoom(evt,'out')"/>
  <use id="reset" xlink:href="#resetDef" x="30" y="36" onmousedown="handleReset()"/>
   <use id="arrowup" xlink:href="#arrowUp" x="0" y="0" onmousedown="handlePan(0,-1)"/>
  <use id="arrowright" xlink:href="#arrowRight" x="0" y="0" onmousedown="handlePan(1,0)"/>
  <use id="arrowdown" xlink:href="#arrowDown" x="0" y="0" onmousedown="handlePan(0,1)"/>
  <use id="arrowleft" xlink:href="#arrowLeft" x="0" y="0" onmousedown="handlePan(-1,0)"/>
</g>
<svg viewBox="0 0 15 15" width="100%" height="30px" preserveAspectRatio="xMaxYMin meet">
 <g id="arrow_out" transform="scale(0.3 0.3)">
  <a xlink:href="actors_8c_a0d9197f8df1df3e8834fbaf37e9e2115_cgraph_org.svg" target="_base">
   <rect id="button" ry="5" rx="5" y="6" x="6" height="38" width="38"
        fill="#f2f5e9" fill-opacity="0.5" stroke="#606060" stroke-width="1.0"/>
   <path id="arrow"
     d="M 11.500037,31.436501 C 11.940474,20.09759 22.043105,11.32322 32.158766,21.979434 L 37.068811,17.246167 C 37.068811,17.246167 37.088388,32 37.088388,32 L 22.160133,31.978069 C 22.160133,31.978069 26.997745,27.140456 26.997745,27.140456 C 18.528582,18.264221 13.291696,25.230495 11.500037,31.436501 z"
     style="fill:#404040;"/>
  </a>
 </g>
</svg>

<style type='text/css'>
<![CDATA[
[data-mouse-over-selected='false'] { opacity: 0.7; }
[data-mouse-over-selected='true']  { opacity: 1.0; }
]]>
</style>
<script type="application/ecmascript"><![CDATA[
document.addEventListener('DOMContentLoaded', (event) => {
  highlightEdges();
  highlightAdjacentNodes();
});
]]></script>
</svg>
