<?xml version="1.0" encoding="UTF-8" standalone="no"?>
<!DOCTYPE svg PUBLIC "-//W3C//DTD SVG 1.1//EN"
 "http://www.w3.org/Graphics/SVG/1.1/DTD/svg11.dtd">
<!-- Generated by graphviz version 2.43.0 (0)
 -->
<!-- Title: include/actor_types.h Pages: 1 -->
<svg width="3799pt" height="258pt"
 viewBox="0.00 0.00 3799.00 258.00" xmlns="http://www.w3.org/2000/svg" xmlns:xlink="http://www.w3.org/1999/xlink">
<g id="graph0" class="graph" transform="scale(1 1) rotate(0) translate(4 254)">
<title>include/actor_types.h</title>
<!-- Node1 -->
<g id="Node000001" class="node">
<title>Node1</title>
<g id="a_Node000001"><a xlink:title=" ">
<polygon fill="#999999" stroke="#666666" points="702.5,-250 581.5,-250 581.5,-231 702.5,-231 702.5,-250"/>
<text text-anchor="middle" x="642" y="-238" font-family="Helvetica,sans-Serif" font-size="10.00">include/actor_types.h</text>
</a>
</g>
</g>
<!-- Node2 -->
<g id="Node000002" class="node">
<title>Node2</title>
<g id="a_Node000002"><a xlink:href="code__800029B0_8c.html" target="_top" xlink:title=" ">
<polygon fill="white" stroke="#666666" points="554.5,-134.5 435.5,-134.5 435.5,-115.5 554.5,-115.5 554.5,-134.5"/>
<text text-anchor="middle" x="495" y="-122.5" font-family="Helvetica,sans-Serif" font-size="10.00">src/code_800029B0.c</text>
</a>
</g>
</g>
<!-- Node1&#45;&gt;Node2 -->
<g id="edge1_Node000001_Node000002" class="edge">
<title>Node1&#45;&gt;Node2</title>
<g id="a_edge1_Node000001_Node000002"><a xlink:title=" ">
<path fill="none" stroke="#63b8ff" d="M623.03,-224.85C591.97,-200.87 531.2,-153.95 506.18,-134.63"/>
<polygon fill="#63b8ff" stroke="#63b8ff" points="620.9,-227.63 630.95,-230.97 625.17,-222.09 620.9,-227.63"/>
</a>
</g>
</g>
<!-- Node3 -->
<g id="Node000003" class="node">
<title>Node3</title>
<g id="a_Node000003"><a xlink:href="code__800029B0_8h.html" target="_top" xlink:title=" ">
<polygon fill="white" stroke="#666666" points="1960,-195 1840,-195 1840,-176 1960,-176 1960,-195"/>
<text text-anchor="middle" x="1900" y="-183" font-family="Helvetica,sans-Serif" font-size="10.00">src/code_800029B0.h</text>
</a>
</g>
</g>
<!-- Node1&#45;&gt;Node3 -->
<g id="edge2_Node000001_Node000003" class="edge">
<title>Node1&#45;&gt;Node3</title>
<g id="a_edge2_Node000001_Node000003"><a xlink:title=" ">
<path fill="none" stroke="#63b8ff" d="M712.69,-236.52C937.13,-227.07 1631.09,-197.83 1839.93,-189.03"/>
<polygon fill="#63b8ff" stroke="#63b8ff" points="712.52,-233.03 702.68,-236.94 712.81,-240.02 712.52,-233.03"/>
</a>
</g>
</g>
<!-- Node6 -->
<g id="Node000006" class="node">
<title>Node6</title>
<g id="a_Node000006"><a xlink:href="code__80005FD0_8c.html" target="_top" xlink:title=" ">
<polygon fill="white" stroke="#666666" points="294,-134.5 174,-134.5 174,-115.5 294,-115.5 294,-134.5"/>
<text text-anchor="middle" x="234" y="-122.5" font-family="Helvetica,sans-Serif" font-size="10.00">src/code_80005FD0.c</text>
</a>
</g>
</g>
<!-- Node1&#45;&gt;Node6 -->
<g id="edge33_Node000001_Node000006" class="edge">
<title>Node1&#45;&gt;Node6</title>
<g id="a_edge33_Node000001_Node000006"><a xlink:title=" ">
<path fill="none" stroke="#63b8ff" d="M601.43,-228.21C519.83,-205.51 337.42,-154.77 264.74,-134.55"/>
<polygon fill="#63b8ff" stroke="#63b8ff" points="600.76,-231.66 611.33,-230.97 602.64,-224.92 600.76,-231.66"/>
</a>
</g>
</g>
<!-- Node11 -->
<g id="Node000011" class="node">
<title>Node11</title>
<g id="a_Node000011"><a xlink:href="code__80091440_8c.html" target="_top" xlink:title=" ">
<polygon fill="white" stroke="#666666" points="3532.5,-134.5 3413.5,-134.5 3413.5,-115.5 3532.5,-115.5 3532.5,-134.5"/>
<text text-anchor="middle" x="3473" y="-122.5" font-family="Helvetica,sans-Serif" font-size="10.00">src/code_80091440.c</text>
</a>
</g>
</g>
<!-- Node1&#45;&gt;Node11 -->
<g id="edge34_Node000001_Node000011" class="edge">
<title>Node1&#45;&gt;Node11</title>
<g id="a_edge34_Node000001_Node000011"><a xlink:title=" ">
<path fill="none" stroke="#63b8ff" d="M712.91,-238.55C1089.69,-233.23 2860.17,-205.16 3404,-140 3414.68,-138.72 3426.17,-136.67 3436.65,-134.52"/>
<polygon fill="#63b8ff" stroke="#63b8ff" points="712.65,-235.05 702.7,-238.69 712.75,-242.05 712.65,-235.05"/>
</a>
</g>
</g>
<!-- Node13 -->
<g id="Node000013" class="node">
<title>Node13</title>
<g id="a_Node000013"><a xlink:href="all__variables_8h.html" target="_top" xlink:title=" ">
<polygon fill="white" stroke="#666666" points="711,-134.5 573,-134.5 573,-115.5 711,-115.5 711,-134.5"/>
<text text-anchor="middle" x="642" y="-122.5" font-family="Helvetica,sans-Serif" font-size="10.00">src/debug/all_variables.h</text>
</a>
</g>
</g>
<!-- Node1&#45;&gt;Node13 -->
<g id="edge35_Node000001_Node000013" class="edge">
<title>Node1&#45;&gt;Node13</title>
<g id="a_edge35_Node000001_Node000013"><a xlink:title=" ">
<path fill="none" stroke="#63b8ff" d="M642,-220.65C642,-195.74 642,-152.88 642,-134.63"/>
<polygon fill="#63b8ff" stroke="#63b8ff" points="638.5,-220.97 642,-230.97 645.5,-220.97 638.5,-220.97"/>
</a>
</g>
</g>
<!-- Node19 -->
<g id="Node000019" class="node">
<title>Node19</title>
<g id="a_Node000019"><a xlink:href="hud__renderer_8c.html" target="_top" xlink:title=" ">
<polygon fill="white" stroke="#666666" points="3657,-134.5 3551,-134.5 3551,-115.5 3657,-115.5 3657,-134.5"/>
<text text-anchor="middle" x="3604" y="-122.5" font-family="Helvetica,sans-Serif" font-size="10.00">src/hud_renderer.c</text>
</a>
</g>
</g>
<!-- Node1&#45;&gt;Node19 -->
<g id="edge36_Node000001_Node000019" class="edge">
<title>Node1&#45;&gt;Node19</title>
<g id="a_edge36_Node000001_Node000019"><a xlink:title=" ">
<path fill="none" stroke="#63b8ff" d="M712.77,-239.16C977.7,-237.66 1936.03,-229.97 2725,-195 3088.58,-178.89 3181.87,-192.46 3542,-140 3551.39,-138.63 3561.47,-136.6 3570.71,-134.51"/>
<polygon fill="#63b8ff" stroke="#63b8ff" points="712.51,-235.67 702.53,-239.22 712.55,-242.67 712.51,-235.67"/>
</a>
</g>
</g>
<!-- Node23 -->
<g id="Node000023" class="node">
<title>Node23</title>
<g id="a_Node000023"><a xlink:href="actors_8c.html" target="_top" xlink:title=" ">
<polygon fill="white" stroke="#666666" points="417.5,-134.5 312.5,-134.5 312.5,-115.5 417.5,-115.5 417.5,-134.5"/>
<text text-anchor="middle" x="365" y="-122.5" font-family="Helvetica,sans-Serif" font-size="10.00">src/racing/actors.c</text>
</a>
</g>
</g>
<!-- Node1&#45;&gt;Node23 -->
<g id="edge37_Node000001_Node000023" class="edge">
<title>Node1&#45;&gt;Node23</title>
<g id="a_edge37_Node000001_Node000023"><a xlink:title=" ">
<path fill="none" stroke="#63b8ff" d="M611.71,-227.09C555.13,-203.9 434.73,-154.57 386.06,-134.63"/>
<polygon fill="#63b8ff" stroke="#63b8ff" points="610.6,-230.42 621.18,-230.97 613.25,-223.94 610.6,-230.42"/>
</a>
</g>
</g>
<!-- Node24 -->
<g id="Node000024" class="node">
<title>Node24</title>
<g id="a_Node000024"><a xlink:href="actors__extended_8c.html" target="_top" xlink:title=" ">
<polygon fill="white" stroke="#666666" points="156,-134.5 0,-134.5 0,-115.5 156,-115.5 156,-134.5"/>
<text text-anchor="middle" x="78" y="-122.5" font-family="Helvetica,sans-Serif" font-size="10.00">src/racing/actors_extended.c</text>
</a>
</g>
</g>
<!-- Node1&#45;&gt;Node24 -->
<g id="edge51_Node000001_Node000024" class="edge">
<title>Node1&#45;&gt;Node24</title>
<g id="a_edge51_Node000001_Node000024"><a xlink:title=" ">
<path fill="none" stroke="#63b8ff" d="M571.11,-238.49C488.38,-235.8 348.09,-226.46 232,-195 178.56,-180.52 120.09,-149.81 93.14,-134.73"/>
<polygon fill="#63b8ff" stroke="#63b8ff" points="571.06,-241.99 581.16,-238.8 571.27,-235 571.06,-241.99"/>
</a>
</g>
</g>
<!-- Node25 -->
<g id="Node000025" class="node">
<title>Node25</title>
<g id="a_Node000025"><a xlink:href="collision_8c.html" target="_top" xlink:title=" ">
<polygon fill="white" stroke="#666666" points="3791,-134.5 3675,-134.5 3675,-115.5 3791,-115.5 3791,-134.5"/>
<text text-anchor="middle" x="3733" y="-122.5" font-family="Helvetica,sans-Serif" font-size="10.00">src/racing/collision.c</text>
</a>
</g>
</g>
<!-- Node1&#45;&gt;Node25 -->
<g id="edge56_Node000001_Node000025" class="edge">
<title>Node1&#45;&gt;Node25</title>
<g id="a_edge56_Node000001_Node000025"><a xlink:title=" ">
<path fill="none" stroke="#63b8ff" d="M712.92,-239.75C998.17,-240.42 2089.54,-239.72 2986,-195 3288.83,-179.89 3365.9,-183.32 3666,-140 3675.88,-138.57 3686.49,-136.58 3696.29,-134.54"/>
<polygon fill="#63b8ff" stroke="#63b8ff" points="712.72,-236.25 702.71,-239.72 712.7,-243.25 712.72,-236.25"/>
</a>
</g>
</g>
<!-- Node33 -->
<g id="Node000033" class="node">
<title>Node33</title>
<g id="a_Node000033"><a xlink:href="actors_8h.html" target="_top" xlink:title=" ">
<polygon fill="white" stroke="#666666" points="842,-195 736,-195 736,-176 842,-176 842,-195"/>
<text text-anchor="middle" x="789" y="-183" font-family="Helvetica,sans-Serif" font-size="10.00">src/racing/actors.h</text>
</a>
</g>
</g>
<!-- Node1&#45;&gt;Node33 -->
<g id="edge38_Node000001_Node000033" class="edge">
<title>Node1&#45;&gt;Node33</title>
<g id="a_edge38_Node000001_Node000033"><a xlink:title=" ">
<path fill="none" stroke="#63b8ff" d="M675.14,-227.55C702.44,-217.71 740.5,-203.98 764.95,-195.17"/>
<polygon fill="#63b8ff" stroke="#63b8ff" points="673.84,-224.3 665.62,-230.98 676.21,-230.89 673.84,-224.3"/>
</a>
</g>
</g>
<!-- Node34 -->
<g id="Node000034" class="node">
<title>Node34</title>
<g id="a_Node000034"><a xlink:href="actors__extended_8h.html" target="_top" xlink:title=" ">
<polygon fill="white" stroke="#666666" points="398.5,-195 241.5,-195 241.5,-176 398.5,-176 398.5,-195"/>
<text text-anchor="middle" x="320" y="-183" font-family="Helvetica,sans-Serif" font-size="10.00">src/racing/actors_extended.h</text>
</a>
</g>
</g>
<!-- Node1&#45;&gt;Node34 -->
<g id="edge52_Node000001_Node000034" class="edge">
<title>Node1&#45;&gt;Node34</title>
<g id="a_edge52_Node000001_Node000034"><a xlink:title=" ">
<path fill="none" stroke="#63b8ff" d="M580.09,-229.31C519.62,-219.36 428.65,-204.38 371.87,-195.04"/>
<polygon fill="#63b8ff" stroke="#63b8ff" points="579.83,-232.81 590.27,-230.98 580.97,-225.91 579.83,-232.81"/>
</a>
</g>
</g>
<!-- Node3&#45;&gt;Node2 -->
<g id="edge5_Node000003_Node000002" class="edge">
<title>Node3&#45;&gt;Node2</title>
<g id="a_edge5_Node000003_Node000002"><a xlink:title=" ">
<path fill="none" stroke="#63b8ff" d="M1829.48,-183.7C1590.52,-180.77 812.55,-169.15 564,-140 553.32,-138.75 541.82,-136.7 531.34,-134.56"/>
<polygon fill="#63b8ff" stroke="#63b8ff" points="1829.73,-187.21 1839.77,-183.83 1829.82,-180.21 1829.73,-187.21"/>
</a>
</g>
</g>
<!-- Node4 -->
<g id="Node000004" class="node">
<title>Node4</title>
<g id="a_Node000004"><a xlink:href="external_8c.html" target="_top" xlink:title=" ">
<polygon fill="white" stroke="#666666" points="2748.5,-134.5 2635.5,-134.5 2635.5,-115.5 2748.5,-115.5 2748.5,-134.5"/>
<text text-anchor="middle" x="2692" y="-122.5" font-family="Helvetica,sans-Serif" font-size="10.00">src/audio/external.c</text>
</a>
</g>
</g>
<!-- Node3&#45;&gt;Node4 -->
<g id="edge3_Node000003_Node000004" class="edge">
<title>Node3&#45;&gt;Node4</title>
<g id="a_edge3_Node000003_Node000004"><a xlink:title=" ">
<path fill="none" stroke="#63b8ff" d="M1970.27,-183.64C2100.28,-181.28 2386.91,-172.5 2626,-140 2635.98,-138.64 2646.71,-136.62 2656.55,-134.53"/>
<polygon fill="#63b8ff" stroke="#63b8ff" points="1969.99,-180.14 1960.05,-183.81 1970.11,-187.14 1969.99,-180.14"/>
</a>
</g>
</g>
<!-- Node5 -->
<g id="Node000005" class="node">
<title>Node5</title>
<g id="a_Node000005"><a xlink:href="camera_8c.html" target="_top" xlink:title=" ">
<polygon fill="white" stroke="#666666" points="2845.5,-134.5 2766.5,-134.5 2766.5,-115.5 2845.5,-115.5 2845.5,-134.5"/>
<text text-anchor="middle" x="2806" y="-122.5" font-family="Helvetica,sans-Serif" font-size="10.00">src/camera.c</text>
</a>
</g>
</g>
<!-- Node3&#45;&gt;Node5 -->
<g id="edge4_Node000003_Node000005" class="edge">
<title>Node3&#45;&gt;Node5</title>
<g id="a_edge4_Node000003_Node000005"><a xlink:title=" ">
<path fill="none" stroke="#63b8ff" d="M1970.45,-182.9C2147.25,-178.54 2606.34,-165.1 2757,-140 2764.68,-138.72 2772.87,-136.67 2780.31,-134.52"/>
<polygon fill="#63b8ff" stroke="#63b8ff" points="1970.13,-179.4 1960.22,-183.15 1970.3,-186.4 1970.13,-179.4"/>
</a>
</g>
</g>
<!-- Node3&#45;&gt;Node6 -->
<g id="edge6_Node000003_Node000006" class="edge">
<title>Node3&#45;&gt;Node6</title>
<g id="a_edge6_Node000003_Node000006"><a xlink:title=" ">
<path fill="none" stroke="#63b8ff" d="M1829.2,-184.15C1560.66,-182.57 605.01,-174.59 303,-140 292.19,-138.76 280.56,-136.69 269.98,-134.52"/>
<polygon fill="#63b8ff" stroke="#63b8ff" points="1829.57,-187.65 1839.59,-184.21 1829.61,-180.65 1829.57,-187.65"/>
</a>
</g>
</g>
<!-- Node7 -->
<g id="Node000007" class="node">
<title>Node7</title>
<g id="a_Node000007"><a xlink:href="code__80057C60_8c.html" target="_top" xlink:title=" ">
<polygon fill="white" stroke="#666666" points="1646.5,-134.5 1527.5,-134.5 1527.5,-115.5 1646.5,-115.5 1646.5,-134.5"/>
<text text-anchor="middle" x="1587" y="-122.5" font-family="Helvetica,sans-Serif" font-size="10.00">src/code_80057C60.c</text>
</a>
</g>
</g>
<!-- Node3&#45;&gt;Node7 -->
<g id="edge7_Node000003_Node000007" class="edge">
<title>Node3&#45;&gt;Node7</title>
<g id="a_edge7_Node000003_Node000007"><a xlink:title=" ">
<path fill="none" stroke="#63b8ff" d="M1841.2,-174.22C1791.53,-165.44 1718.53,-152.31 1655,-140 1646.13,-138.28 1636.61,-136.37 1627.6,-134.52"/>
<polygon fill="#63b8ff" stroke="#63b8ff" points="1840.67,-177.68 1851.13,-175.97 1841.89,-170.79 1840.67,-177.68"/>
</a>
</g>
</g>
<!-- Node8 -->
<g id="Node000008" class="node">
<title>Node8</title>
<g id="a_Node000008"><a xlink:href="code__8006E9C0_8c.html" target="_top" xlink:title=" ">
<polygon fill="white" stroke="#666666" points="2982.5,-134.5 2863.5,-134.5 2863.5,-115.5 2982.5,-115.5 2982.5,-134.5"/>
<text text-anchor="middle" x="2923" y="-122.5" font-family="Helvetica,sans-Serif" font-size="10.00">src/code_8006E9C0.c</text>
</a>
</g>
</g>
<!-- Node3&#45;&gt;Node8 -->
<g id="edge8_Node000003_Node000008" class="edge">
<title>Node3&#45;&gt;Node8</title>
<g id="a_edge8_Node000003_Node000008"><a xlink:title=" ">
<path fill="none" stroke="#63b8ff" d="M1970.36,-184.9C2128.78,-185.01 2525.34,-180.76 2854,-140 2864.55,-138.69 2875.9,-136.65 2886.29,-134.54"/>
<polygon fill="#63b8ff" stroke="#63b8ff" points="1970.27,-181.4 1960.27,-184.89 1970.26,-188.4 1970.27,-181.4"/>
</a>
</g>
</g>
<!-- Node9 -->
<g id="Node000009" class="node">
<title>Node9</title>
<g id="a_Node000009"><a xlink:href="code__80071F00_8c.html" target="_top" xlink:title=" ">
<polygon fill="white" stroke="#666666" points="848.5,-134.5 729.5,-134.5 729.5,-115.5 848.5,-115.5 848.5,-134.5"/>
<text text-anchor="middle" x="789" y="-122.5" font-family="Helvetica,sans-Serif" font-size="10.00">src/code_80071F00.c</text>
</a>
</g>
</g>
<!-- Node3&#45;&gt;Node9 -->
<g id="edge9_Node000003_Node000009" class="edge">
<title>Node3&#45;&gt;Node9</title>
<g id="a_edge9_Node000003_Node000009"><a xlink:title=" ">
<path fill="none" stroke="#63b8ff" d="M1829.65,-182.97C1627.26,-178.34 1045.96,-163.33 857,-140 846.59,-138.72 835.41,-136.69 825.17,-134.57"/>
<polygon fill="#63b8ff" stroke="#63b8ff" points="1829.78,-186.47 1839.86,-183.2 1829.94,-179.48 1829.78,-186.47"/>
</a>
</g>
</g>
<!-- Node10 -->
<g id="Node000010" class="node">
<title>Node10</title>
<g id="a_Node000010"><a xlink:href="code__8008C1D0_8c.html" target="_top" xlink:title=" ">
<polygon fill="white" stroke="#666666" points="3121.5,-134.5 3000.5,-134.5 3000.5,-115.5 3121.5,-115.5 3121.5,-134.5"/>
<text text-anchor="middle" x="3061" y="-122.5" font-family="Helvetica,sans-Serif" font-size="10.00">src/code_8008C1D0.c</text>
</a>
</g>
</g>
<!-- Node3&#45;&gt;Node10 -->
<g id="edge10_Node000003_Node000010" class="edge">
<title>Node3&#45;&gt;Node10</title>
<g id="a_edge10_Node000003_Node000010"><a xlink:title=" ">
<path fill="none" stroke="#63b8ff" d="M1970.32,-183.07C2178.96,-178.61 2792.25,-163.78 2991,-140 3001.83,-138.7 3013.48,-136.65 3024.12,-134.5"/>
<polygon fill="#63b8ff" stroke="#63b8ff" points="1970.03,-179.58 1960.11,-183.29 1970.18,-186.58 1970.03,-179.58"/>
</a>
</g>
</g>
<!-- Node3&#45;&gt;Node11 -->
<g id="edge11_Node000003_Node000011" class="edge">
<title>Node3&#45;&gt;Node11</title>
<g id="a_edge11_Node000003_Node000011"><a xlink:title=" ">
<path fill="none" stroke="#63b8ff" d="M1970.52,-184.01C2228.55,-181.97 3121.01,-172.65 3404,-140 3414.81,-138.75 3426.44,-136.68 3437.02,-134.51"/>
<polygon fill="#63b8ff" stroke="#63b8ff" points="1970.13,-180.51 1960.16,-184.09 1970.18,-187.51 1970.13,-180.51"/>
</a>
</g>
</g>
<!-- Node12 -->
<g id="Node000012" class="node">
<title>Node12</title>
<g id="a_Node000012"><a xlink:href="code__80091750_8c.html" target="_top" xlink:title=" ">
<polygon fill="white" stroke="#666666" points="3258.5,-134.5 3139.5,-134.5 3139.5,-115.5 3258.5,-115.5 3258.5,-134.5"/>
<text text-anchor="middle" x="3199" y="-122.5" font-family="Helvetica,sans-Serif" font-size="10.00">src/code_80091750.c</text>
</a>
</g>
</g>
<!-- Node3&#45;&gt;Node12 -->
<g id="edge12_Node000003_Node000012" class="edge">
<title>Node3&#45;&gt;Node12</title>
<g id="a_edge12_Node000003_Node000012"><a xlink:title=" ">
<path fill="none" stroke="#63b8ff" d="M1970.25,-183.47C2196.24,-179.94 2903,-166.95 3130,-140 3140.68,-138.73 3152.17,-136.68 3162.65,-134.54"/>
<polygon fill="#63b8ff" stroke="#63b8ff" points="1970.12,-179.98 1960.17,-183.63 1970.22,-186.98 1970.12,-179.98"/>
</a>
</g>
</g>
<!-- Node3&#45;&gt;Node13 -->
<g id="edge13_Node000003_Node000013" class="edge">
<title>Node3&#45;&gt;Node13</title>
<g id="a_edge13_Node000003_Node000013"><a xlink:title=" ">
<path fill="none" stroke="#63b8ff" d="M1829.66,-183.14C1609.77,-178.69 937.06,-163.46 720,-140 708.1,-138.71 695.28,-136.69 683.54,-134.57"/>
<polygon fill="#63b8ff" stroke="#63b8ff" points="1829.72,-186.64 1839.79,-183.34 1829.86,-179.64 1829.72,-186.64"/>
</a>
</g>
</g>
<!-- Node16 -->
<g id="Node000016" class="node">
<title>Node16</title>
<g id="a_Node000016"><a xlink:href="ceremony__and__credits_8c.html" target="_top" xlink:title=" ">
<polygon fill="white" stroke="#666666" points="3395.5,-140 3276.5,-140 3276.5,-110 3395.5,-110 3395.5,-140"/>
<text text-anchor="start" x="3284.5" y="-128" font-family="Helvetica,sans-Serif" font-size="10.00">src/ending/ceremony</text>
<text text-anchor="middle" x="3336" y="-117" font-family="Helvetica,sans-Serif" font-size="10.00">_and_credits.c</text>
</a>
</g>
</g>
<!-- Node3&#45;&gt;Node16 -->
<g id="edge16_Node000003_Node000016" class="edge">
<title>Node3&#45;&gt;Node16</title>
<g id="a_edge16_Node000003_Node000016"><a xlink:title=" ">
<path fill="none" stroke="#63b8ff" d="M1970.13,-183.77C2212.23,-181.01 3011.97,-169.81 3267,-140 3270.04,-139.65 3273.14,-139.23 3276.26,-138.76"/>
<polygon fill="#63b8ff" stroke="#63b8ff" points="1970.01,-180.27 1960.05,-183.88 1970.09,-187.27 1970.01,-180.27"/>
</a>
</g>
</g>
<!-- Node17 -->
<g id="Node000017" class="node">
<title>Node17</title>
<g id="a_Node000017"><a xlink:href="code__80280000_8c.html" target="_top" xlink:title=" ">
<polygon fill="white" stroke="#666666" points="1021.5,-134.5 866.5,-134.5 866.5,-115.5 1021.5,-115.5 1021.5,-134.5"/>
<text text-anchor="middle" x="944" y="-122.5" font-family="Helvetica,sans-Serif" font-size="10.00">src/ending/code_80280000.c</text>
</a>
</g>
</g>
<!-- Node3&#45;&gt;Node17 -->
<g id="edge17_Node000003_Node000017" class="edge">
<title>Node3&#45;&gt;Node17</title>
<g id="a_edge17_Node000003_Node000017"><a xlink:title=" ">
<path fill="none" stroke="#63b8ff" d="M1829.65,-183.53C1681.39,-180.91 1326.11,-171.58 1030,-140 1017.21,-138.64 1003.44,-136.64 990.74,-134.57"/>
<polygon fill="#63b8ff" stroke="#63b8ff" points="1829.9,-187.03 1839.96,-183.71 1830.02,-180.03 1829.9,-187.03"/>
</a>
</g>
</g>
<!-- Node18 -->
<g id="Node000018" class="node">
<title>Node18</title>
<g id="a_Node000018"><a xlink:href="code__80281780_8c.html" target="_top" xlink:title=" ">
<polygon fill="white" stroke="#666666" points="1819.5,-134.5 1664.5,-134.5 1664.5,-115.5 1819.5,-115.5 1819.5,-134.5"/>
<text text-anchor="middle" x="1742" y="-122.5" font-family="Helvetica,sans-Serif" font-size="10.00">src/ending/code_80281780.c</text>
</a>
</g>
</g>
<!-- Node3&#45;&gt;Node18 -->
<g id="edge18_Node000003_Node000018" class="edge">
<title>Node3&#45;&gt;Node18</title>
<g id="a_edge18_Node000003_Node000018"><a xlink:title=" ">
<path fill="none" stroke="#63b8ff" d="M1867.26,-172.38C1836.72,-161.07 1791.93,-144.49 1765,-134.52"/>
<polygon fill="#63b8ff" stroke="#63b8ff" points="1866.43,-175.8 1877.03,-175.99 1868.86,-169.24 1866.43,-175.8"/>
</a>
</g>
</g>
<!-- Node3&#45;&gt;Node19 -->
<g id="edge19_Node000003_Node000019" class="edge">
<title>Node3&#45;&gt;Node19</title>
<g id="a_edge19_Node000003_Node000019"><a xlink:title=" ">
<path fill="none" stroke="#63b8ff" d="M1970.56,-184.42C2243.61,-183.82 3231.02,-178.95 3542,-140 3551.74,-138.78 3562.21,-136.72 3571.71,-134.54"/>
<polygon fill="#63b8ff" stroke="#63b8ff" points="1970.38,-180.92 1960.39,-184.44 1970.4,-187.92 1970.38,-180.92"/>
</a>
</g>
</g>
<!-- Node20 -->
<g id="Node000020" class="node">
<title>Node20</title>
<g id="a_Node000020"><a xlink:href="main_8c.html" target="_top" xlink:title=" ">
<polygon fill="white" stroke="#666666" points="1106.5,-134.5 1039.5,-134.5 1039.5,-115.5 1106.5,-115.5 1106.5,-134.5"/>
<text text-anchor="middle" x="1073" y="-122.5" font-family="Helvetica,sans-Serif" font-size="10.00">src/main.c</text>
</a>
</g>
</g>
<!-- Node3&#45;&gt;Node20 -->
<g id="edge20_Node000003_Node000020" class="edge">
<title>Node3&#45;&gt;Node20</title>
<g id="a_edge20_Node000003_Node000020"><a xlink:title=" ">
<path fill="none" stroke="#63b8ff" d="M1829.89,-182.9C1663.95,-178.74 1250.91,-166.02 1115,-140 1108.36,-138.73 1101.32,-136.68 1094.94,-134.53"/>
<polygon fill="#63b8ff" stroke="#63b8ff" points="1829.9,-186.4 1839.98,-183.15 1830.07,-179.41 1829.9,-186.4"/>
</a>
</g>
</g>
<!-- Node21 -->
<g id="Node000021" class="node">
<title>Node21</title>
<g id="a_Node000021"><a xlink:href="menus_8c.html" target="_top" xlink:title=" ">
<polygon fill="white" stroke="#666666" points="1199.5,-134.5 1124.5,-134.5 1124.5,-115.5 1199.5,-115.5 1199.5,-134.5"/>
<text text-anchor="middle" x="1162" y="-122.5" font-family="Helvetica,sans-Serif" font-size="10.00">src/menus.c</text>
</a>
</g>
</g>
<!-- Node3&#45;&gt;Node21 -->
<g id="edge21_Node000003_Node000021" class="edge">
<title>Node3&#45;&gt;Node21</title>
<g id="a_edge21_Node000003_Node000021"><a xlink:title=" ">
<path fill="none" stroke="#63b8ff" d="M1829.46,-185.31C1703.58,-185.58 1432.37,-180.79 1208,-140 1200.94,-138.72 1193.43,-136.71 1186.57,-134.62"/>
<polygon fill="#63b8ff" stroke="#63b8ff" points="1829.74,-188.81 1839.73,-185.28 1829.72,-181.81 1829.74,-188.81"/>
</a>
</g>
</g>
<!-- Node22 -->
<g id="Node000022" class="node">
<title>Node22</title>
<g id="a_Node000022"><a xlink:href="player__controller_8c.html" target="_top" xlink:title=" ">
<polygon fill="white" stroke="#666666" points="1962,-134.5 1838,-134.5 1838,-115.5 1962,-115.5 1962,-134.5"/>
<text text-anchor="middle" x="1900" y="-122.5" font-family="Helvetica,sans-Serif" font-size="10.00">src/player_controller.c</text>
</a>
</g>
</g>
<!-- Node3&#45;&gt;Node22 -->
<g id="edge22_Node000003_Node000022" class="edge">
<title>Node3&#45;&gt;Node22</title>
<g id="a_edge22_Node000003_Node000022"><a xlink:title=" ">
<path fill="none" stroke="#63b8ff" d="M1900,-165.66C1900,-155.24 1900,-142.8 1900,-134.67"/>
<polygon fill="#63b8ff" stroke="#63b8ff" points="1896.5,-165.87 1900,-175.87 1903.5,-165.87 1896.5,-165.87"/>
</a>
</g>
</g>
<!-- Node3&#45;&gt;Node23 -->
<g id="edge23_Node000003_Node000023" class="edge">
<title>Node3&#45;&gt;Node23</title>
<g id="a_edge23_Node000003_Node000023"><a xlink:title=" ">
<path fill="none" stroke="#63b8ff" d="M1829.57,-184.2C1574.9,-182.82 702.44,-175.55 426,-140 416.41,-138.77 406.11,-136.7 396.76,-134.53"/>
<polygon fill="#63b8ff" stroke="#63b8ff" points="1829.78,-187.7 1839.8,-184.25 1829.82,-180.7 1829.78,-187.7"/>
</a>
</g>
</g>
<!-- Node3&#45;&gt;Node24 -->
<g id="edge24_Node000003_Node000024" class="edge">
<title>Node3&#45;&gt;Node24</title>
<g id="a_edge24_Node000003_Node000024"><a xlink:title=" ">
<path fill="none" stroke="#63b8ff" d="M1829.77,-183.96C1547.67,-181.57 496.37,-170.77 165,-140 151.6,-138.76 137.13,-136.71 123.91,-134.57"/>
<polygon fill="#63b8ff" stroke="#63b8ff" points="1829.84,-187.46 1839.87,-184.04 1829.9,-180.46 1829.84,-187.46"/>
</a>
</g>
</g>
<!-- Node3&#45;&gt;Node25 -->
<g id="edge25_Node000003_Node000025" class="edge">
<title>Node3&#45;&gt;Node25</title>
<g id="a_edge25_Node000003_Node000025"><a xlink:title=" ">
<path fill="none" stroke="#63b8ff" d="M1970.57,-184.42C2256.45,-183.86 3329.15,-179.11 3666,-140 3676.51,-138.78 3687.8,-136.72 3698.08,-134.54"/>
<polygon fill="#63b8ff" stroke="#63b8ff" points="1970.33,-180.93 1960.34,-184.44 1970.35,-187.93 1970.33,-180.93"/>
</a>
</g>
</g>
<!-- Node26 -->
<g id="Node000026" class="node">
<title>Node26</title>
<g id="a_Node000026"><a xlink:href="memory_8c.html" target="_top" xlink:title=" ">
<polygon fill="white" stroke="#666666" points="2095.5,-134.5 1980.5,-134.5 1980.5,-115.5 2095.5,-115.5 2095.5,-134.5"/>
<text text-anchor="middle" x="2038" y="-122.5" font-family="Helvetica,sans-Serif" font-size="10.00">src/racing/memory.c</text>
</a>
</g>
</g>
<!-- Node3&#45;&gt;Node26 -->
<g id="edge26_Node000003_Node000026" class="edge">
<title>Node3&#45;&gt;Node26</title>
<g id="a_edge26_Node000003_Node000026"><a xlink:title=" ">
<path fill="none" stroke="#63b8ff" d="M1929.29,-172.08C1955.95,-160.78 1994.6,-144.4 2017.91,-134.52"/>
<polygon fill="#63b8ff" stroke="#63b8ff" points="1927.91,-168.87 1920.07,-175.99 1930.64,-175.31 1927.91,-168.87"/>
</a>
</g>
</g>
<!-- Node27 -->
<g id="Node000027" class="node">
<title>Node27</title>
<g id="a_Node000027"><a xlink:href="race__logic_8c.html" target="_top" xlink:title=" ">
<polygon fill="white" stroke="#666666" points="2238.5,-134.5 2113.5,-134.5 2113.5,-115.5 2238.5,-115.5 2238.5,-134.5"/>
<text text-anchor="middle" x="2176" y="-122.5" font-family="Helvetica,sans-Serif" font-size="10.00">src/racing/race_logic.c</text>
</a>
</g>
</g>
<!-- Node3&#45;&gt;Node27 -->
<g id="edge27_Node000003_Node000027" class="edge">
<title>Node3&#45;&gt;Node27</title>
<g id="a_edge27_Node000003_Node000027"><a xlink:title=" ">
<path fill="none" stroke="#63b8ff" d="M1950.05,-173.89C2003.34,-162.6 2086.64,-144.94 2135.82,-134.52"/>
<polygon fill="#63b8ff" stroke="#63b8ff" points="1949.19,-170.5 1940.13,-175.99 1950.64,-177.34 1949.19,-170.5"/>
</a>
</g>
</g>
<!-- Node28 -->
<g id="Node000028" class="node">
<title>Node28</title>
<g id="a_Node000028"><a xlink:href="render__courses_8c.html" target="_top" xlink:title=" ">
<polygon fill="white" stroke="#666666" points="1366.5,-134.5 1217.5,-134.5 1217.5,-115.5 1366.5,-115.5 1366.5,-134.5"/>
<text text-anchor="middle" x="1292" y="-122.5" font-family="Helvetica,sans-Serif" font-size="10.00">src/racing/render_courses.c</text>
</a>
</g>
</g>
<!-- Node3&#45;&gt;Node28 -->
<g id="edge28_Node000003_Node000028" class="edge">
<title>Node3&#45;&gt;Node28</title>
<g id="a_edge28_Node000003_Node000028"><a xlink:title=" ">
<path fill="none" stroke="#63b8ff" d="M1829.93,-180.41C1729.09,-174.1 1537.31,-160.53 1375,-140 1363.11,-138.5 1350.32,-136.52 1338.43,-134.53"/>
<polygon fill="#63b8ff" stroke="#63b8ff" points="1829.8,-183.9 1839.99,-181.03 1830.23,-176.92 1829.8,-183.9"/>
</a>
</g>
</g>
<!-- Node29 -->
<g id="Node000029" class="node">
<title>Node29</title>
<g id="a_Node000029"><a xlink:href="skybox__and__splitscreen_8c.html" target="_top" xlink:title=" ">
<polygon fill="white" stroke="#666666" points="1509.5,-140 1384.5,-140 1384.5,-110 1509.5,-110 1509.5,-140"/>
<text text-anchor="start" x="1392.5" y="-128" font-family="Helvetica,sans-Serif" font-size="10.00">src/racing/skybox_and</text>
<text text-anchor="middle" x="1447" y="-117" font-family="Helvetica,sans-Serif" font-size="10.00">_splitscreen.c</text>
</a>
</g>
</g>
<!-- Node3&#45;&gt;Node29 -->
<g id="edge29_Node000003_Node000029" class="edge">
<title>Node3&#45;&gt;Node29</title>
<g id="a_edge29_Node000003_Node000029"><a xlink:title=" ">
<path fill="none" stroke="#63b8ff" d="M1829.89,-178C1753.1,-170.5 1626.43,-156.98 1518,-140 1515.27,-139.57 1512.48,-139.11 1509.67,-138.64"/>
<polygon fill="#63b8ff" stroke="#63b8ff" points="1829.63,-181.49 1839.92,-178.98 1830.31,-174.53 1829.63,-181.49"/>
</a>
</g>
</g>
<!-- Node30 -->
<g id="Node000030" class="node">
<title>Node30</title>
<g id="a_Node000030"><a xlink:href="render__player_8c.html" target="_top" xlink:title=" ">
<polygon fill="white" stroke="#666666" points="2365.5,-134.5 2256.5,-134.5 2256.5,-115.5 2365.5,-115.5 2365.5,-134.5"/>
<text text-anchor="middle" x="2311" y="-122.5" font-family="Helvetica,sans-Serif" font-size="10.00">src/render_player.c</text>
</a>
</g>
</g>
<!-- Node3&#45;&gt;Node30 -->
<g id="edge30_Node000003_Node000030" class="edge">
<title>Node3&#45;&gt;Node30</title>
<g id="a_edge30_Node000003_Node000030"><a xlink:title=" ">
<path fill="none" stroke="#63b8ff" d="M1970.18,-177.33C2040.46,-169.72 2151.6,-156.52 2247,-140 2255.97,-138.45 2265.58,-136.5 2274.56,-134.55"/>
<polygon fill="#63b8ff" stroke="#63b8ff" points="1969.68,-173.86 1960.11,-178.41 1970.43,-180.82 1969.68,-173.86"/>
</a>
</g>
</g>
<!-- Node31 -->
<g id="Node000031" class="node">
<title>Node31</title>
<g id="a_Node000031"><a xlink:href="spawn__players_8c.html" target="_top" xlink:title=" ">
<polygon fill="white" stroke="#666666" points="2498.5,-134.5 2383.5,-134.5 2383.5,-115.5 2498.5,-115.5 2498.5,-134.5"/>
<text text-anchor="middle" x="2441" y="-122.5" font-family="Helvetica,sans-Serif" font-size="10.00">src/spawn_players.c</text>
</a>
</g>
</g>
<!-- Node3&#45;&gt;Node31 -->
<g id="edge31_Node000003_Node000031" class="edge">
<title>Node3&#45;&gt;Node31</title>
<g id="a_edge31_Node000003_Node000031"><a xlink:title=" ">
<path fill="none" stroke="#63b8ff" d="M1970.24,-180.38C2063.04,-174.38 2231.42,-161.52 2374,-140 2383.75,-138.53 2394.22,-136.54 2403.92,-134.52"/>
<polygon fill="#63b8ff" stroke="#63b8ff" points="1969.88,-176.9 1960.12,-181.03 1970.33,-183.88 1969.88,-176.9"/>
</a>
</g>
</g>
<!-- Node32 -->
<g id="Node000032" class="node">
<title>Node32</title>
<g id="a_Node000032"><a xlink:href="staff__ghosts_8c.html" target="_top" xlink:title=" ">
<polygon fill="white" stroke="#666666" points="2617.5,-134.5 2516.5,-134.5 2516.5,-115.5 2617.5,-115.5 2617.5,-134.5"/>
<text text-anchor="middle" x="2567" y="-122.5" font-family="Helvetica,sans-Serif" font-size="10.00">src/staff_ghosts.c</text>
</a>
</g>
</g>
<!-- Node3&#45;&gt;Node32 -->
<g id="edge32_Node000003_Node000032" class="edge">
<title>Node3&#45;&gt;Node32</title>
<g id="a_edge32_Node000003_Node000032"><a xlink:title=" ">
<path fill="none" stroke="#63b8ff" d="M1970.52,-182.9C2084.08,-179.52 2314.28,-169.36 2507,-140 2515.99,-138.63 2525.62,-136.63 2534.48,-134.56"/>
<polygon fill="#63b8ff" stroke="#63b8ff" points="1970.12,-179.41 1960.23,-183.19 1970.32,-186.4 1970.12,-179.41"/>
</a>
</g>
</g>
<!-- Node14 -->
<g id="Node000014" class="node">
<title>Node14</title>
<g id="a_Node000014"><a xlink:href="debug_8inc_8c.html" target="_top" xlink:title=" ">
<polygon fill="white" stroke="#666666" points="703,-74 581,-74 581,-55 703,-55 703,-74"/>
<text text-anchor="middle" x="642" y="-62" font-family="Helvetica,sans-Serif" font-size="10.00">src/debug/debug.inc.c</text>
</a>
</g>
</g>
<!-- Node13&#45;&gt;Node14 -->
<g id="edge14_Node000013_Node000014" class="edge">
<title>Node13&#45;&gt;Node14</title>
<g id="a_edge14_Node000013_Node000014"><a xlink:title=" ">
<path fill="none" stroke="#63b8ff" d="M642,-105.16C642,-94.74 642,-82.3 642,-74.17"/>
<polygon fill="#63b8ff" stroke="#63b8ff" points="638.5,-105.37 642,-115.37 645.5,-105.37 638.5,-105.37"/>
</a>
</g>
</g>
<!-- Node15 -->
<g id="Node000015" class="node">
<title>Node15</title>
<g id="a_Node000015"><a xlink:href="debug_8c.html" target="_top" xlink:title=" ">
<polygon fill="white" stroke="#666666" points="694.5,-19 589.5,-19 589.5,0 694.5,0 694.5,-19"/>
<text text-anchor="middle" x="642" y="-7" font-family="Helvetica,sans-Serif" font-size="10.00">src/debug/debug.c</text>
</a>
</g>
</g>
<!-- Node14&#45;&gt;Node15 -->
<g id="edge15_Node000014_Node000015" class="edge">
<title>Node14&#45;&gt;Node15</title>
<g id="a_edge15_Node000014_Node000015"><a xlink:title=" ">
<path fill="none" stroke="#63b8ff" d="M642,-44.66C642,-35.93 642,-25.99 642,-19.09"/>
<polygon fill="#63b8ff" stroke="#63b8ff" points="638.5,-44.75 642,-54.75 645.5,-44.75 638.5,-44.75"/>
</a>
</g>
</g>
<!-- Node33&#45;&gt;Node2 -->
<g id="edge39_Node000033_Node000002" class="edge">
<title>Node33&#45;&gt;Node2</title>
<g id="a_edge39_Node000033_Node000002"><a xlink:title=" ">
<path fill="none" stroke="#63b8ff" d="M735.47,-173.99C689.88,-165.02 622.62,-151.74 564,-140 555.25,-138.25 545.88,-136.36 536.96,-134.55"/>
<polygon fill="#63b8ff" stroke="#63b8ff" points="734.95,-177.45 745.43,-175.95 736.3,-170.59 734.95,-177.45"/>
</a>
</g>
</g>
<!-- Node33&#45;&gt;Node6 -->
<g id="edge40_Node000033_Node000006" class="edge">
<title>Node33&#45;&gt;Node6</title>
<g id="a_edge40_Node000033_Node000006"><a xlink:title=" ">
<path fill="none" stroke="#63b8ff" d="M725.83,-180.92C632.87,-175.15 453.9,-162.15 303,-140 292.96,-138.53 282.18,-136.54 272.19,-134.52"/>
<polygon fill="#63b8ff" stroke="#63b8ff" points="725.72,-184.42 735.92,-181.54 726.15,-177.43 725.72,-184.42"/>
</a>
</g>
</g>
<!-- Node33&#45;&gt;Node7 -->
<g id="edge41_Node000033_Node000007" class="edge">
<title>Node33&#45;&gt;Node7</title>
<g id="a_edge41_Node000033_Node000007"><a xlink:title=" ">
<path fill="none" stroke="#63b8ff" d="M852.61,-183.59C979.61,-181.12 1273.44,-172.12 1518,-140 1528.42,-138.63 1539.63,-136.6 1549.92,-134.51"/>
<polygon fill="#63b8ff" stroke="#63b8ff" points="852.23,-180.1 842.29,-183.78 852.36,-187.1 852.23,-180.1"/>
</a>
</g>
</g>
<!-- Node33&#45;&gt;Node9 -->
<g id="edge42_Node000033_Node000009" class="edge">
<title>Node33&#45;&gt;Node9</title>
<g id="a_edge42_Node000033_Node000009"><a xlink:title=" ">
<path fill="none" stroke="#63b8ff" d="M789,-165.66C789,-155.24 789,-142.8 789,-134.67"/>
<polygon fill="#63b8ff" stroke="#63b8ff" points="785.5,-165.87 789,-175.87 792.5,-165.87 785.5,-165.87"/>
</a>
</g>
</g>
<!-- Node33&#45;&gt;Node13 -->
<g id="edge43_Node000033_Node000013" class="edge">
<title>Node33&#45;&gt;Node13</title>
<g id="a_edge43_Node000033_Node000013"><a xlink:title=" ">
<path fill="none" stroke="#63b8ff" d="M758.17,-172.23C729.76,-160.92 688.34,-144.44 663.4,-134.52"/>
<polygon fill="#63b8ff" stroke="#63b8ff" points="757.04,-175.55 767.62,-175.99 759.63,-169.04 757.04,-175.55"/>
</a>
</g>
</g>
<!-- Node33&#45;&gt;Node17 -->
<g id="edge44_Node000033_Node000017" class="edge">
<title>Node33&#45;&gt;Node17</title>
<g id="a_edge44_Node000033_Node000017"><a xlink:title=" ">
<path fill="none" stroke="#63b8ff" d="M821.12,-172.38C851.08,-161.07 895.02,-144.49 921.43,-134.52"/>
<polygon fill="#63b8ff" stroke="#63b8ff" points="819.66,-169.19 811.54,-175.99 822.13,-175.74 819.66,-169.19"/>
</a>
</g>
</g>
<!-- Node33&#45;&gt;Node20 -->
<g id="edge45_Node000033_Node000020" class="edge">
<title>Node33&#45;&gt;Node20</title>
<g id="a_edge45_Node000033_Node000020"><a xlink:title=" ">
<path fill="none" stroke="#63b8ff" d="M852.21,-175.17C901.11,-167.39 970.32,-155.15 1030,-140 1036.09,-138.45 1042.57,-136.51 1048.61,-134.56"/>
<polygon fill="#63b8ff" stroke="#63b8ff" points="851.42,-171.75 842.09,-176.77 852.51,-178.67 851.42,-171.75"/>
</a>
</g>
</g>
<!-- Node33&#45;&gt;Node21 -->
<g id="edge46_Node000033_Node000021" class="edge">
<title>Node33&#45;&gt;Node21</title>
<g id="a_edge46_Node000033_Node000021"><a xlink:title=" ">
<path fill="none" stroke="#63b8ff" d="M852.48,-178.76C918.55,-172.1 1024.77,-159.48 1115,-140 1121.82,-138.53 1129.1,-136.56 1135.84,-134.57"/>
<polygon fill="#63b8ff" stroke="#63b8ff" points="851.83,-175.3 842.23,-179.77 852.53,-182.27 851.83,-175.3"/>
</a>
</g>
</g>
<!-- Node33&#45;&gt;Node23 -->
<g id="edge47_Node000033_Node000023" class="edge">
<title>Node33&#45;&gt;Node23</title>
<g id="a_edge47_Node000033_Node000023"><a xlink:title=" ">
<path fill="none" stroke="#63b8ff" d="M725.49,-178.73C652.79,-171.65 530.31,-158.31 426,-140 417.33,-138.48 408.04,-136.52 399.39,-134.55"/>
<polygon fill="#63b8ff" stroke="#63b8ff" points="725.55,-182.25 735.84,-179.72 726.22,-175.28 725.55,-182.25"/>
</a>
</g>
</g>
<!-- Node33&#45;&gt;Node24 -->
<g id="edge48_Node000033_Node000024" class="edge">
<title>Node33&#45;&gt;Node24</title>
<g id="a_edge48_Node000033_Node000024"><a xlink:title=" ">
<path fill="none" stroke="#63b8ff" d="M725.66,-181.83C612.72,-176.67 369.27,-163.67 165,-140 152.39,-138.54 138.81,-136.55 126.21,-134.54"/>
<polygon fill="#63b8ff" stroke="#63b8ff" points="725.7,-185.34 735.85,-182.3 726.01,-178.35 725.7,-185.34"/>
</a>
</g>
</g>
<!-- Node33&#45;&gt;Node28 -->
<g id="edge49_Node000033_Node000028" class="edge">
<title>Node33&#45;&gt;Node28</title>
<g id="a_edge49_Node000033_Node000028"><a xlink:title=" ">
<path fill="none" stroke="#63b8ff" d="M852.21,-178.96C934.36,-171.5 1082.19,-157.15 1208,-140 1219.57,-138.42 1232,-136.49 1243.66,-134.56"/>
<polygon fill="#63b8ff" stroke="#63b8ff" points="851.68,-175.5 842.04,-179.88 852.31,-182.47 851.68,-175.5"/>
</a>
</g>
</g>
<!-- Node33&#45;&gt;Node29 -->
<g id="edge50_Node000033_Node000029" class="edge">
<title>Node33&#45;&gt;Node29</title>
<g id="a_edge50_Node000033_Node000029"><a xlink:title=" ">
<path fill="none" stroke="#63b8ff" d="M852.19,-182.11C959.88,-177.5 1185.7,-165.5 1375,-140 1378.03,-139.59 1381.12,-139.14 1384.24,-138.65"/>
<polygon fill="#63b8ff" stroke="#63b8ff" points="851.99,-178.62 842.14,-182.53 852.28,-185.61 851.99,-178.62"/>
</a>
</g>
</g>
<!-- Node34&#45;&gt;Node6 -->
<g id="edge53_Node000034_Node000006" class="edge">
<title>Node34&#45;&gt;Node6</title>
<g id="a_edge53_Node000034_Node000006"><a xlink:title=" ">
<path fill="none" stroke="#63b8ff" d="M298.92,-170.16C282.58,-159.05 260.48,-144.01 246.74,-134.67"/>
<polygon fill="#63b8ff" stroke="#63b8ff" points="297.07,-173.14 307.31,-175.87 301.01,-167.35 297.07,-173.14"/>
</a>
</g>
</g>
<!-- Node34&#45;&gt;Node23 -->
<g id="edge54_Node000034_Node000023" class="edge">
<title>Node34&#45;&gt;Node23</title>
<g id="a_edge54_Node000034_Node000023"><a xlink:title=" ">
<path fill="none" stroke="#63b8ff" d="M332.98,-167.63C341.27,-156.85 351.68,-143.32 358.33,-134.67"/>
<polygon fill="#63b8ff" stroke="#63b8ff" points="329.96,-165.81 326.64,-175.87 335.51,-170.08 329.96,-165.81"/>
</a>
</g>
</g>
<!-- Node34&#45;&gt;Node24 -->
<g id="edge55_Node000034_Node000024" class="edge">
<title>Node34&#45;&gt;Node24</title>
<g id="a_edge55_Node000034_Node000024"><a xlink:title=" ">
<path fill="none" stroke="#63b8ff" d="M274.95,-173.61C228.18,-162.3 156,-144.85 113.23,-134.52"/>
<polygon fill="#63b8ff" stroke="#63b8ff" points="274.27,-177.05 284.81,-175.99 275.91,-170.24 274.27,-177.05"/>
</a>
</g>
</g>
</g>
</svg>
