<?xml version="1.0" encoding="UTF-8" standalone="no"?>
<!DOCTYPE svg PUBLIC "-//W3C//DTD SVG 1.1//EN"
 "http://www.w3.org/Graphics/SVG/1.1/DTD/svg11.dtd">
<!-- Generated by graphviz version 2.43.0 (0)
 -->
<!-- Title: func_802B2914 Pages: 1 -->
<!--zoomable 372 -->

<svg id="main" version="1.1" xmlns="http://www.w3.org/2000/svg" xmlns:xlink="http://www.w3.org/1999/xlink" xml:space="preserve" onload="init(evt)">
<style type="text/css"><![CDATA[
.node, .edge {opacity: 0.7;}
.node.selected, .edge.selected {opacity: 1;}
.edge:hover path { stroke: red; }
.edge:hover polygon { stroke: red; fill: red; }
]]></style>

<defs>
  <circle id="rim" cx="0" cy="0" r="7"/>
  <circle id="rim2" cx="0" cy="0" r="3.5"/>
  <g id="zoomPlus">
    <use xlink:href="#rim" fill="#404040"><set attributeName="fill" to="#808080" begin="zoomplus.mouseover" end="zoomplus.mouseout"/></use>
    <path d="M-4,0h8M0,-4v8" fill="none" stroke="white" stroke-width="1.5" pointer-events="none"/>
  </g>
  <g id="zoomMin">
    <use xlink:href="#rim" fill="#404040"><set attributeName="fill" to="#808080" begin="zoomminus.mouseover" end="zoomminus.mouseout"/></use>
    <path d="M-4,0h8" fill="none" stroke="white" stroke-width="1.5" pointer-events="none"/>
  </g>
  <g id="arrowUp" transform="translate(30 24)">
    <use xlink:href="#rim"/>
    <path pointer-events="none" fill="none" stroke="white" stroke-width="1.5" d="M0,-3.0v7 M-2.5,-0.5L0,-3.0L2.5,-0.5"/>
  </g>
  <g id="arrowRight" transform="rotate(90) translate(36 -43)">
    <use xlink:href="#rim"/>
    <path pointer-events="none" fill="none" stroke="white" stroke-width="1.5" d="M0,-3.0v7 M-2.5,-0.5L0,-3.0L2.5,-0.5"/>
  </g>
  <g id="arrowDown" transform="rotate(180) translate(-30 -48)">
    <use xlink:href="#rim"/>
    <path pointer-events="none" fill="none" stroke="white" stroke-width="1.5" d="M0,-3.0v7 M-2.5,-0.5L0,-3.0L2.5,-0.5"/>
  </g>
  <g id="arrowLeft" transform="rotate(270) translate(-36 17)">
    <use xlink:href="#rim"/>
    <path pointer-events="none" fill="none" stroke="white" stroke-width="1.5" d="M0,-3.0v7 M-2.5,-0.5L0,-3.0L2.5,-0.5"/>
  </g>
  <g id="resetDef">
    <use xlink:href="#rim2" fill="#404040"><set attributeName="fill" to="#808080" begin="reset.mouseover" end="reset.mouseout"/></use>
  </g>
</defs>
<script type="application/ecmascript">
var viewWidth = 1693;
var viewHeight = 372;
var sectionId = 'dynsection-18';
</script>
<script type="application/ecmascript" xlink:href="svg.min.js"/>
<svg id="graph" class="graph">
<g id="viewport">
<title>func_802B2914</title>
<!-- Node1 -->
<g id="Node000001" class="node">
<title>Node1</title>
<g id="a_Node000001"><a xlink:title=" ">
<polygon fill="#999999" stroke="#666666" points="92,-99 0,-99 0,-80 92,-80 92,-99"/>
<text text-anchor="middle" x="46" y="-87" font-family="Helvetica,sans-Serif" font-size="10.00">func_802B2914</text>
</a>
</g>
</g>
<!-- Node2 -->
<g id="Node000002" class="node">
<title>Node2</title>
<g id="a_Node000002"><a xlink:href="actors_8c.html#a91fb2e4e37e7c72fea918fe2c1bb4eaf" target="_top" xlink:title=" ">
<polygon fill="white" stroke="#666666" points="274,-179 134,-179 134,-160 274,-160 274,-179"/>
<text text-anchor="middle" x="204" y="-167" font-family="Helvetica,sans-Serif" font-size="10.00">add_actor_to_empty_slot</text>
</a>
</g>
</g>
<!-- Node1&#45;&gt;Node2 -->
<g id="edge1_Node000001_Node000002" class="edge">
<title>Node1&#45;&gt;Node2</title>
<g id="a_edge1_Node000001_Node000002"><a xlink:title=" ">
<path fill="none" stroke="#63b8ff" d="M57.71,-99.27C72.49,-112.27 100.45,-135.15 128,-148.5 134.61,-151.7 141.79,-154.49 149,-156.9"/>
<polygon fill="#63b8ff" stroke="#63b8ff" points="148.22,-160.32 158.8,-159.95 150.29,-153.64 148.22,-160.32"/>
</a>
</g>
</g>
<!-- Node25 -->
<g id="Node000025" class="node">
<title>Node25</title>
<g id="a_Node000025"><a xlink:href="external_8c.html#a2be9efc97a92e19d02aaee90d676acc1" target="_top" xlink:title=" ">
<polygon fill="white" stroke="#666666" points="250,-139 158,-139 158,-120 250,-120 250,-139"/>
<text text-anchor="middle" x="204" y="-127" font-family="Helvetica,sans-Serif" font-size="10.00">func_800C9060</text>
</a>
</g>
</g>
<!-- Node1&#45;&gt;Node25 -->
<g id="edge27_Node000001_Node000025" class="edge">
<title>Node1&#45;&gt;Node25</title>
<g id="a_edge27_Node000001_Node000025"><a xlink:title=" ">
<path fill="none" stroke="#63b8ff" d="M84.37,-99.08C105.88,-104.6 133.12,-111.58 156.07,-117.47"/>
<polygon fill="#63b8ff" stroke="#63b8ff" points="155.38,-120.9 165.94,-120 157.12,-114.12 155.38,-120.9"/>
</a>
</g>
</g>
<!-- Node27 -->
<g id="Node000027" class="node">
<title>Node27</title>
<g id="a_Node000027"><a xlink:href="collision_8c.html#a0724869c38f177efa5357ac2205857d4" target="_top" xlink:title=" ">
<polygon fill="white" stroke="#666666" points="250.5,-99 157.5,-99 157.5,-80 250.5,-80 250.5,-99"/>
<text text-anchor="middle" x="204" y="-87" font-family="Helvetica,sans-Serif" font-size="10.00">func_802AD950</text>
</a>
</g>
</g>
<!-- Node1&#45;&gt;Node27 -->
<g id="edge29_Node000001_Node000027" class="edge">
<title>Node1&#45;&gt;Node27</title>
<g id="a_edge29_Node000001_Node000027"><a xlink:title=" ">
<path fill="none" stroke="#63b8ff" d="M92.12,-89.5C109.35,-89.5 129.2,-89.5 147.3,-89.5"/>
<polygon fill="#63b8ff" stroke="#63b8ff" points="147.44,-93 157.44,-89.5 147.44,-86 147.44,-93"/>
</a>
</g>
</g>
<!-- Node31 -->
<g id="Node000031" class="node">
<title>Node31</title>
<g id="a_Node000031"><a xlink:href="actors__extended_8c.html#a78e98c146f1f4dd6e3608016486172a4" target="_top" xlink:title=" ">
<polygon fill="white" stroke="#666666" points="250,-62 158,-62 158,-43 250,-43 250,-62"/>
<text text-anchor="middle" x="204" y="-50" font-family="Helvetica,sans-Serif" font-size="10.00">func_802B4E30</text>
</a>
</g>
</g>
<!-- Node1&#45;&gt;Node31 -->
<g id="edge33_Node000001_Node000031" class="edge">
<title>Node1&#45;&gt;Node31</title>
<g id="a_edge33_Node000001_Node000031"><a xlink:title=" ">
<path fill="none" stroke="#63b8ff" d="M87.17,-79.97C107.2,-75.22 131.62,-69.43 152.87,-64.39"/>
<polygon fill="#63b8ff" stroke="#63b8ff" points="153.77,-67.77 162.69,-62.06 152.15,-60.96 153.77,-67.77"/>
</a>
</g>
</g>
<!-- Node32 -->
<g id="Node000032" class="node">
<title>Node32</title>
<g id="a_Node000032"><a xlink:href="math__util_8c.html#ad5bb0138c68b50f119d3cb7966f522b7" target="_top" xlink:title=" ">
<polygon fill="white" stroke="#666666" points="280,-25 128,-25 128,-6 280,-6 280,-25"/>
<text text-anchor="middle" x="204" y="-13" font-family="Helvetica,sans-Serif" font-size="10.00">mtxf_translate_vec3f_mat3</text>
</a>
</g>
</g>
<!-- Node1&#45;&gt;Node32 -->
<g id="edge34_Node000001_Node000032" class="edge">
<title>Node1&#45;&gt;Node32</title>
<g id="a_edge34_Node000001_Node000032"><a xlink:title=" ">
<path fill="none" stroke="#63b8ff" d="M57.99,-79.89C72.86,-67.39 100.68,-45.71 128,-33.5 132.62,-31.44 137.51,-29.59 142.49,-27.94"/>
<polygon fill="#63b8ff" stroke="#63b8ff" points="143.58,-31.27 152.13,-25.01 141.54,-24.57 143.58,-31.27"/>
</a>
</g>
</g>
<!-- Node3 -->
<g id="Node000003" class="node">
<title>Node3</title>
<g id="a_Node000003"><a xlink:href="actors_8c.html#a39c023177b5a7686cdd1fc65b8b953e1" target="_top" xlink:title=" ">
<polygon fill="white" stroke="#666666" points="581,-253 519,-253 519,-234 581,-234 581,-253"/>
<text text-anchor="middle" x="550" y="-241" font-family="Helvetica,sans-Serif" font-size="10.00">actor_init</text>
</a>
</g>
</g>
<!-- Node2&#45;&gt;Node3 -->
<g id="edge2_Node000002_Node000003" class="edge">
<title>Node2&#45;&gt;Node3</title>
<g id="a_edge2_Node000002_Node000003"><a xlink:title=" ">
<path fill="none" stroke="#63b8ff" d="M249.27,-179.02C316.62,-193.51 443.82,-220.87 508.72,-234.83"/>
<polygon fill="#63b8ff" stroke="#63b8ff" points="508.07,-238.27 518.58,-236.96 509.54,-231.43 508.07,-238.27"/>
</a>
</g>
</g>
<!-- Node24 -->
<g id="Node000024" class="node">
<title>Node24</title>
<g id="a_Node000024"><a xlink:href="actors_8c.html#adf454481afb7fd833f5ce3f01dea4bea" target="_top" xlink:title=" ">
<polygon fill="white" stroke="#666666" points="483,-179 316,-179 316,-160 483,-160 483,-179"/>
<text text-anchor="middle" x="399.5" y="-167" font-family="Helvetica,sans-Serif" font-size="10.00">try_remove_destructable_item</text>
</a>
</g>
</g>
<!-- Node2&#45;&gt;Node24 -->
<g id="edge23_Node000002_Node000024" class="edge">
<title>Node2&#45;&gt;Node24</title>
<g id="a_edge23_Node000002_Node000024"><a xlink:title=" ">
<path fill="none" stroke="#63b8ff" d="M274.04,-169.5C284.32,-169.5 295.06,-169.5 305.73,-169.5"/>
<polygon fill="#63b8ff" stroke="#63b8ff" points="305.93,-173 315.93,-169.5 305.92,-166 305.93,-173"/>
</a>
</g>
</g>
<!-- Node4 -->
<g id="Node000004" class="node">
<title>Node4</title>
<g id="a_Node000004"><a xlink:href="actors_8c.html#a1a9bccb586242555a9123ebd4ab70f2a" target="_top" xlink:title=" ">
<polygon fill="white" stroke="#666666" points="749,-215.5 617,-215.5 617,-185.5 749,-185.5 749,-215.5"/>
<text text-anchor="start" x="625" y="-203.5" font-family="Helvetica,sans-Serif" font-size="10.00">cleanup_red_and_green</text>
<text text-anchor="middle" x="683" y="-192.5" font-family="Helvetica,sans-Serif" font-size="10.00">_shells</text>
</a>
</g>
</g>
<!-- Node3&#45;&gt;Node4 -->
<g id="edge3_Node000003_Node000004" class="edge">
<title>Node3&#45;&gt;Node4</title>
<g id="a_edge3_Node000003_Node000004"><a xlink:title=" ">
<path fill="none" stroke="#63b8ff" d="M580.07,-233.96C593.74,-229.47 610.52,-223.96 626.48,-218.72"/>
<polygon fill="#63b8ff" stroke="#63b8ff" points="627.87,-221.95 636.28,-215.51 625.69,-215.3 627.87,-221.95"/>
</a>
</g>
</g>
<!-- Node16 -->
<g id="Node000016" class="node">
<title>Node16</title>
<g id="a_Node000016"><a xlink:href="collision_8c.html#ad72fef3ffe32191d73b1822f512ebf3f" target="_top" xlink:title=" ">
<polygon fill="white" stroke="#666666" points="730.5,-290 635.5,-290 635.5,-271 730.5,-271 730.5,-290"/>
<text text-anchor="middle" x="683" y="-278" font-family="Helvetica,sans-Serif" font-size="10.00">func_802AAAAC</text>
</a>
</g>
</g>
<!-- Node3&#45;&gt;Node16 -->
<g id="edge15_Node000003_Node000016" class="edge">
<title>Node3&#45;&gt;Node16</title>
<g id="a_edge15_Node000003_Node000016"><a xlink:title=" ">
<path fill="none" stroke="#63b8ff" d="M581.21,-252.27C592.44,-255.51 605.3,-259.19 617,-262.5 623.59,-264.36 630.55,-266.31 637.39,-268.21"/>
<polygon fill="#63b8ff" stroke="#63b8ff" points="636.66,-271.64 647.24,-270.94 638.54,-264.9 636.66,-271.64"/>
</a>
</g>
</g>
<!-- Node18 -->
<g id="Node000018" class="node">
<title>Node18</title>
<g id="a_Node000018"><a xlink:href="collision_8c.html#a365367628b7140a7a880beeecce9c305" target="_top" xlink:title=" ">
<polygon fill="white" stroke="#666666" points="730.5,-253 635.5,-253 635.5,-234 730.5,-234 730.5,-253"/>
<text text-anchor="middle" x="683" y="-241" font-family="Helvetica,sans-Serif" font-size="10.00">func_802ADDC8</text>
</a>
</g>
</g>
<!-- Node3&#45;&gt;Node18 -->
<g id="edge17_Node000003_Node000018" class="edge">
<title>Node3&#45;&gt;Node18</title>
<g id="a_edge17_Node000003_Node000018"><a xlink:title=" ">
<path fill="none" stroke="#63b8ff" d="M581.05,-243.5C594.13,-243.5 609.9,-243.5 625.04,-243.5"/>
<polygon fill="#63b8ff" stroke="#63b8ff" points="625.39,-247 635.39,-243.5 625.39,-240 625.39,-247"/>
</a>
</g>
</g>
<!-- Node22 -->
<g id="Node000022" class="node">
<title>Node22</title>
<g id="a_Node000022"><a xlink:href="math__util_8c.html#af7b470ed76fce07b8042a47c96e5690b" target="_top" xlink:title=" ">
<polygon fill="white" stroke="#666666" points="736.5,-364 629.5,-364 629.5,-345 736.5,-345 736.5,-364"/>
<text text-anchor="middle" x="683" y="-352" font-family="Helvetica,sans-Serif" font-size="10.00">vec3f_copy_return</text>
</a>
</g>
</g>
<!-- Node3&#45;&gt;Node22 -->
<g id="edge21_Node000003_Node000022" class="edge">
<title>Node3&#45;&gt;Node22</title>
<g id="a_edge21_Node000003_Node000022"><a xlink:title=" ">
<path fill="none" stroke="#63b8ff" d="M555.07,-253.05C563.65,-271.97 585.4,-314.32 617,-336.5 619.22,-338.05 621.56,-339.47 623.99,-340.77"/>
<polygon fill="#63b8ff" stroke="#63b8ff" points="622.57,-343.97 633.12,-344.96 625.49,-337.61 622.57,-343.97"/>
</a>
</g>
</g>
<!-- Node23 -->
<g id="Node000023" class="node">
<title>Node23</title>
<g id="a_Node000023"><a xlink:href="math__util_8c.html#a0e270ee67600c8c9c2f140c647d008a1" target="_top" xlink:title=" ">
<polygon fill="white" stroke="#666666" points="720,-327 646,-327 646,-308 720,-308 720,-327"/>
<text text-anchor="middle" x="683" y="-315" font-family="Helvetica,sans-Serif" font-size="10.00">vec3s_copy</text>
</a>
</g>
</g>
<!-- Node3&#45;&gt;Node23 -->
<g id="edge22_Node000003_Node000023" class="edge">
<title>Node3&#45;&gt;Node23</title>
<g id="a_edge22_Node000003_Node000023"><a xlink:title=" ">
<path fill="none" stroke="#63b8ff" d="M559.86,-253.29C571.71,-265.79 593.89,-287.27 617,-299.5 622.98,-302.67 629.57,-305.32 636.19,-307.53"/>
<polygon fill="#63b8ff" stroke="#63b8ff" points="635.27,-310.91 645.85,-310.46 637.3,-304.21 635.27,-310.91"/>
</a>
</g>
</g>
<!-- Node5 -->
<g id="Node000005" class="node">
<title>Node5</title>
<g id="a_Node000005"><a xlink:href="actors_8c.html#a694ec6ef7548b8618aeb35c038d3a9b9" target="_top" xlink:title=" ">
<polygon fill="white" stroke="#666666" points="902.5,-210 819.5,-210 819.5,-191 902.5,-191 902.5,-210"/>
<text text-anchor="middle" x="861" y="-198" font-family="Helvetica,sans-Serif" font-size="10.00">destroy_actor</text>
</a>
</g>
</g>
<!-- Node4&#45;&gt;Node5 -->
<g id="edge4_Node000004_Node000005" class="edge">
<title>Node4&#45;&gt;Node5</title>
<g id="a_edge4_Node000004_Node000005"><a xlink:title=" ">
<path fill="none" stroke="#63b8ff" d="M749.04,-200.5C768.95,-200.5 790.55,-200.5 809.35,-200.5"/>
<polygon fill="#63b8ff" stroke="#63b8ff" points="809.48,-204 819.48,-200.5 809.48,-197 809.48,-204"/>
</a>
</g>
</g>
<!-- Node15 -->
<g id="Node000015" class="node">
<title>Node15</title>
<g id="a_Node000015"><a xlink:href="code__80005FD0_8c.html#acb7b3d384c78d219f4b7040e78f6a2f2" target="_top" xlink:title=" ">
<polygon fill="white" stroke="#666666" points="937,-172.5 785,-172.5 785,-142.5 937,-142.5 937,-172.5"/>
<text text-anchor="start" x="793" y="-160.5" font-family="Helvetica,sans-Serif" font-size="10.00">remove_actor_in_unexpired</text>
<text text-anchor="middle" x="861" y="-149.5" font-family="Helvetica,sans-Serif" font-size="10.00">_actor_list</text>
</a>
</g>
</g>
<!-- Node4&#45;&gt;Node15 -->
<g id="edge14_Node000004_Node000015" class="edge">
<title>Node4&#45;&gt;Node15</title>
<g id="a_edge14_Node000004_Node000015"><a xlink:title=" ">
<path fill="none" stroke="#63b8ff" d="M745.56,-185.46C759.49,-182.06 774.4,-178.41 788.7,-174.92"/>
<polygon fill="#63b8ff" stroke="#63b8ff" points="789.59,-178.3 798.48,-172.53 787.93,-171.5 789.59,-178.3"/>
</a>
</g>
</g>
<!-- Node6 -->
<g id="Node000006" class="node">
<title>Node6</title>
<g id="a_Node000006"><a xlink:href="actors_8c.html#ad5a56c8f7eaf719223099cce9e38ec9f" target="_top" xlink:title=" ">
<polygon fill="white" stroke="#666666" points="1124,-167 973,-167 973,-148 1124,-148 1124,-167"/>
<text text-anchor="middle" x="1048.5" y="-155" font-family="Helvetica,sans-Serif" font-size="10.00">play_sound_before_destroy</text>
</a>
</g>
</g>
<!-- Node5&#45;&gt;Node6 -->
<g id="edge5_Node000005_Node000006" class="edge">
<title>Node5&#45;&gt;Node6</title>
<g id="a_edge5_Node000005_Node000006"><a xlink:title=" ">
<path fill="none" stroke="#63b8ff" d="M902.71,-191.06C930.18,-184.69 966.67,-176.24 996.14,-169.41"/>
<polygon fill="#63b8ff" stroke="#63b8ff" points="997.29,-172.73 1006.25,-167.06 995.71,-165.91 997.29,-172.73"/>
</a>
</g>
</g>
<!-- Node7 -->
<g id="Node000007" class="node">
<title>Node7</title>
<g id="a_Node000007"><a xlink:href="external_8c.html#ae72057869772019e4464c87d4e16c682" target="_top" xlink:title=" ">
<polygon fill="white" stroke="#666666" points="1252,-167 1160,-167 1160,-148 1252,-148 1252,-167"/>
<text text-anchor="middle" x="1206" y="-155" font-family="Helvetica,sans-Serif" font-size="10.00">func_800C99E0</text>
</a>
</g>
</g>
<!-- Node6&#45;&gt;Node7 -->
<g id="edge6_Node000006_Node000007" class="edge">
<title>Node6&#45;&gt;Node7</title>
<g id="a_edge6_Node000006_Node000007"><a xlink:title=" ">
<path fill="none" stroke="#63b8ff" d="M1124.06,-157.5C1132.61,-157.5 1141.21,-157.5 1149.45,-157.5"/>
<polygon fill="#63b8ff" stroke="#63b8ff" points="1149.66,-161 1159.66,-157.5 1149.66,-154 1149.66,-161"/>
</a>
</g>
</g>
<!-- Node8 -->
<g id="Node000008" class="node">
<title>Node8</title>
<g id="a_Node000008"><a xlink:href="external_8c.html#aeb87c527482a244173df36a1f3d4f446" target="_top" xlink:title=" ">
<polygon fill="white" stroke="#666666" points="1380,-186 1288,-186 1288,-167 1380,-167 1380,-186"/>
<text text-anchor="middle" x="1334" y="-174" font-family="Helvetica,sans-Serif" font-size="10.00">func_800C21E8</text>
</a>
</g>
</g>
<!-- Node7&#45;&gt;Node8 -->
<g id="edge7_Node000007_Node000008" class="edge">
<title>Node7&#45;&gt;Node8</title>
<g id="a_edge7_Node000007_Node000008"><a xlink:title=" ">
<path fill="none" stroke="#63b8ff" d="M1252.13,-164.31C1260.46,-165.56 1269.23,-166.88 1277.81,-168.18"/>
<polygon fill="#63b8ff" stroke="#63b8ff" points="1277.35,-171.65 1287.76,-169.68 1278.39,-164.73 1277.35,-171.65"/>
</a>
</g>
</g>
<!-- Node9 -->
<g id="Node000009" class="node">
<title>Node9</title>
<g id="a_Node000009"><a xlink:href="external_8c.html#a028d40421b90c38f68ebfd5acc626f2e" target="_top" xlink:title=" ">
<polygon fill="white" stroke="#666666" points="1380,-149 1288,-149 1288,-130 1380,-130 1380,-149"/>
<text text-anchor="middle" x="1334" y="-137" font-family="Helvetica,sans-Serif" font-size="10.00">func_800C5578</text>
</a>
</g>
</g>
<!-- Node7&#45;&gt;Node9 -->
<g id="edge8_Node000007_Node000009" class="edge">
<title>Node7&#45;&gt;Node9</title>
<g id="a_edge8_Node000007_Node000009"><a xlink:title=" ">
<path fill="none" stroke="#63b8ff" d="M1252.13,-151.05C1260.46,-149.86 1269.23,-148.61 1277.81,-147.38"/>
<polygon fill="#63b8ff" stroke="#63b8ff" points="1278.35,-150.84 1287.76,-145.96 1277.36,-143.91 1278.35,-150.84"/>
</a>
</g>
</g>
<!-- Node10 -->
<g id="Node000010" class="node">
<title>Node10</title>
<g id="a_Node000010"><a xlink:href="external_8c.html#ac0fb767de7e14a03f1bcfa53f0abd23b" target="_top" xlink:title=" ">
<polygon fill="white" stroke="#666666" points="1556,-186 1416,-186 1416,-167 1556,-167 1556,-186"/>
<text text-anchor="middle" x="1486" y="-174" font-family="Helvetica,sans-Serif" font-size="10.00">delete_sound_from_bank</text>
</a>
</g>
</g>
<!-- Node9&#45;&gt;Node10 -->
<g id="edge9_Node000009_Node000010" class="edge">
<title>Node9&#45;&gt;Node10</title>
<g id="a_edge9_Node000009_Node000010"><a xlink:title=" ">
<path fill="none" stroke="#63b8ff" d="M1373.63,-149.03C1392.8,-153.76 1416.16,-159.52 1436.52,-164.54"/>
<polygon fill="#63b8ff" stroke="#63b8ff" points="1435.69,-167.94 1446.24,-166.94 1437.37,-161.15 1435.69,-167.94"/>
</a>
</g>
</g>
<!-- Node12 -->
<g id="Node000012" class="node">
<title>Node12</title>
<g id="a_Node000012"><a xlink:href="external_8c.html#ab83bd36e63f0f1baddcb2482b5ad31b0" target="_top" xlink:title=" ">
<polygon fill="white" stroke="#666666" points="1532.5,-149 1439.5,-149 1439.5,-130 1532.5,-130 1532.5,-149"/>
<text text-anchor="middle" x="1486" y="-137" font-family="Helvetica,sans-Serif" font-size="10.00">func_800C41CC</text>
</a>
</g>
</g>
<!-- Node9&#45;&gt;Node12 -->
<g id="edge11_Node000009_Node000012" class="edge">
<title>Node9&#45;&gt;Node12</title>
<g id="a_edge11_Node000009_Node000012"><a xlink:title=" ">
<path fill="none" stroke="#63b8ff" d="M1380,-139.5C1395.37,-139.5 1412.74,-139.5 1428.86,-139.5"/>
<polygon fill="#63b8ff" stroke="#63b8ff" points="1429.25,-143 1439.25,-139.5 1429.25,-136 1429.25,-143"/>
</a>
</g>
</g>
<!-- Node13 -->
<g id="Node000013" class="node">
<title>Node13</title>
<g id="a_Node000013"><a xlink:href="port__eu_8c.html#aa89dfaecca46c6d071f08c1898d1f7c9" target="_top" xlink:title=" ">
<polygon fill="white" stroke="#666666" points="1532.5,-112 1439.5,-112 1439.5,-93 1532.5,-93 1532.5,-112"/>
<text text-anchor="middle" x="1486" y="-100" font-family="Helvetica,sans-Serif" font-size="10.00">func_800CBBE8</text>
</a>
</g>
</g>
<!-- Node9&#45;&gt;Node13 -->
<g id="edge12_Node000009_Node000013" class="edge">
<title>Node9&#45;&gt;Node13</title>
<g id="a_edge12_Node000009_Node000013"><a xlink:title=" ">
<path fill="none" stroke="#63b8ff" d="M1373.63,-129.97C1392.8,-125.24 1416.16,-119.48 1436.52,-114.46"/>
<polygon fill="#63b8ff" stroke="#63b8ff" points="1437.37,-117.85 1446.24,-112.06 1435.69,-111.06 1437.37,-117.85"/>
</a>
</g>
</g>
<!-- Node11 -->
<g id="Node000011" class="node">
<title>Node11</title>
<g id="a_Node000011"><a xlink:href="external_8c.html#a358ac55e8ab5262dcae8037334be06d7" target="_top" xlink:title=" ">
<polygon fill="white" stroke="#666666" points="1684.5,-186 1592.5,-186 1592.5,-167 1684.5,-167 1684.5,-186"/>
<text text-anchor="middle" x="1638.5" y="-174" font-family="Helvetica,sans-Serif" font-size="10.00">func_800C40F0</text>
</a>
</g>
</g>
<!-- Node10&#45;&gt;Node11 -->
<g id="edge10_Node000010_Node000011" class="edge">
<title>Node10&#45;&gt;Node11</title>
<g id="a_edge10_Node000010_Node000011"><a xlink:title=" ">
<path fill="none" stroke="#63b8ff" d="M1556.08,-176.5C1564.87,-176.5 1573.78,-176.5 1582.31,-176.5"/>
<polygon fill="#63b8ff" stroke="#63b8ff" points="1582.5,-180 1592.5,-176.5 1582.5,-173 1582.5,-180"/>
</a>
</g>
</g>
<!-- Node14 -->
<g id="Node000014" class="node">
<title>Node14</title>
<g id="a_Node000014"><a xlink:href="port__eu_8c.html#af361a20d2e08f30c53a237ca481ff734" target="_top" xlink:title=" ">
<polygon fill="white" stroke="#666666" points="1685,-112 1592,-112 1592,-93 1685,-93 1685,-112"/>
<text text-anchor="middle" x="1638.5" y="-100" font-family="Helvetica,sans-Serif" font-size="10.00">func_800CBB48</text>
</a>
</g>
</g>
<!-- Node13&#45;&gt;Node14 -->
<g id="edge13_Node000013_Node000014" class="edge">
<title>Node13&#45;&gt;Node14</title>
<g id="a_edge13_Node000013_Node000014"><a xlink:title=" ">
<path fill="none" stroke="#63b8ff" d="M1532.56,-102.5C1547.96,-102.5 1565.34,-102.5 1581.46,-102.5"/>
<polygon fill="#63b8ff" stroke="#63b8ff" points="1581.83,-106 1591.83,-102.5 1581.83,-99 1581.83,-106"/>
</a>
</g>
</g>
<!-- Node17 -->
<g id="Node000017" class="node">
<title>Node17</title>
<g id="a_Node000017"><a xlink:href="math__util_8c.html#a79fd07a0971ec96a3ff0801963a2fa7f" target="_top" xlink:title=" ">
<polygon fill="white" stroke="#666666" points="893,-358 829,-358 829,-339 893,-339 893,-358"/>
<text text-anchor="middle" x="861" y="-346" font-family="Helvetica,sans-Serif" font-size="10.00">vec3f_set</text>
</a>
</g>
</g>
<!-- Node16&#45;&gt;Node17 -->
<g id="edge16_Node000016_Node000017" class="edge">
<title>Node16&#45;&gt;Node17</title>
<g id="a_edge16_Node000016_Node000017"><a xlink:title=" ">
<path fill="none" stroke="#63b8ff" d="M726.31,-290.02C734.1,-292.55 741.97,-295.68 749,-299.5 767.55,-309.58 766.21,-320.88 785,-330.5 795.51,-335.88 807.68,-339.69 819.11,-342.37"/>
<polygon fill="#63b8ff" stroke="#63b8ff" points="818.41,-345.8 828.91,-344.45 819.86,-338.95 818.41,-345.8"/>
</a>
</g>
</g>
<!-- Node19 -->
<g id="Node000019" class="node">
<title>Node19</title>
<g id="a_Node000019"><a xlink:href="collision_8c.html#afce45acb8da354da0a5b501003be1aef" target="_top" xlink:title=" ">
<polygon fill="white" stroke="#666666" points="907.5,-284 814.5,-284 814.5,-265 907.5,-265 907.5,-284"/>
<text text-anchor="middle" x="861" y="-272" font-family="Helvetica,sans-Serif" font-size="10.00">func_802AAE4C</text>
</a>
</g>
</g>
<!-- Node18&#45;&gt;Node19 -->
<g id="edge18_Node000018_Node000019" class="edge">
<title>Node18&#45;&gt;Node19</title>
<g id="a_edge18_Node000018_Node000019"><a xlink:title=" ">
<path fill="none" stroke="#63b8ff" d="M730.7,-251.73C753.34,-255.71 780.68,-260.53 804.39,-264.7"/>
<polygon fill="#63b8ff" stroke="#63b8ff" points="803.84,-268.16 814.3,-266.45 805.06,-261.27 803.84,-268.16"/>
</a>
</g>
</g>
<!-- Node20 -->
<g id="Node000020" class="node">
<title>Node20</title>
<g id="a_Node000020"><a xlink:href="collision_8c.html#adcc608ea0eae3bf9a27ab79ec64b4899" target="_top" xlink:title=" ">
<polygon fill="white" stroke="#666666" points="907,-247 815,-247 815,-228 907,-228 907,-247"/>
<text text-anchor="middle" x="861" y="-235" font-family="Helvetica,sans-Serif" font-size="10.00">func_802AB288</text>
</a>
</g>
</g>
<!-- Node18&#45;&gt;Node20 -->
<g id="edge19_Node000018_Node000020" class="edge">
<title>Node18&#45;&gt;Node20</title>
<g id="a_edge19_Node000018_Node000020"><a xlink:title=" ">
<path fill="none" stroke="#63b8ff" d="M730.7,-241.91C753.41,-241.13 780.87,-240.2 804.63,-239.39"/>
<polygon fill="#63b8ff" stroke="#63b8ff" points="805.03,-242.88 814.9,-239.04 804.79,-235.88 805.03,-242.88"/>
</a>
</g>
</g>
<!-- Node21 -->
<g id="Node000021" class="node">
<title>Node21</title>
<g id="a_Node000021"><a xlink:href="collision_8c.html#ab440aa3fc960b7b4b5ad8e4bcaa06b00" target="_top" xlink:title=" ">
<polygon fill="white" stroke="#666666" points="907.5,-321 814.5,-321 814.5,-302 907.5,-302 907.5,-321"/>
<text text-anchor="middle" x="861" y="-309" font-family="Helvetica,sans-Serif" font-size="10.00">func_802AB6C4</text>
</a>
</g>
</g>
<!-- Node18&#45;&gt;Node21 -->
<g id="edge20_Node000018_Node000021" class="edge">
<title>Node18&#45;&gt;Node21</title>
<g id="a_edge20_Node000018_Node000021"><a xlink:title=" ">
<path fill="none" stroke="#63b8ff" d="M726.31,-253.02C734.1,-255.55 741.97,-258.68 749,-262.5 767.55,-272.58 766.21,-283.88 785,-293.5 791.09,-296.62 797.73,-299.21 804.46,-301.35"/>
<polygon fill="#63b8ff" stroke="#63b8ff" points="803.76,-304.79 814.34,-304.2 805.7,-298.07 803.76,-304.79"/>
</a>
</g>
</g>
<!-- Node24&#45;&gt;Node3 -->
<g id="edge24_Node000024_Node000003" class="edge">
<title>Node24&#45;&gt;Node3</title>
<g id="a_edge24_Node000024_Node000003"><a xlink:title=" ">
<path fill="none" stroke="#63b8ff" d="M419.61,-179.02C445.2,-191.77 490.8,-214.5 520.47,-229.28"/>
<polygon fill="#63b8ff" stroke="#63b8ff" points="518.98,-232.45 529.49,-233.78 522.1,-226.19 518.98,-232.45"/>
</a>
</g>
</g>
<!-- Node24&#45;&gt;Node6 -->
<g id="edge25_Node000024_Node000006" class="edge">
<title>Node24&#45;&gt;Node6</title>
<g id="a_edge25_Node000024_Node000006"><a xlink:title=" ">
<path fill="none" stroke="#63b8ff" d="M452.79,-159.97C548.88,-143.8 759.95,-114.49 937,-133.5 958.87,-135.85 982.77,-140.74 1002.73,-145.5"/>
<polygon fill="#63b8ff" stroke="#63b8ff" points="1001.94,-148.91 1012.48,-147.89 1003.6,-142.11 1001.94,-148.91"/>
</a>
</g>
</g>
<!-- Node24&#45;&gt;Node15 -->
<g id="edge26_Node000024_Node000015" class="edge">
<title>Node24&#45;&gt;Node15</title>
<g id="a_edge26_Node000024_Node000015"><a xlink:title=" ">
<path fill="none" stroke="#63b8ff" d="M483.18,-167.34C565.53,-165.19 691.37,-161.9 774.64,-159.73"/>
<polygon fill="#63b8ff" stroke="#63b8ff" points="774.93,-163.22 784.83,-159.46 774.75,-156.23 774.93,-163.22"/>
</a>
</g>
</g>
<!-- Node26 -->
<g id="Node000026" class="node">
<title>Node26</title>
<g id="a_Node000026"><a xlink:href="external_8c.html#a4227847f3da303aee53cf69d2760a595" target="_top" xlink:title=" ">
<polygon fill="white" stroke="#666666" points="435.5,-142 363.5,-142 363.5,-123 435.5,-123 435.5,-142"/>
<text text-anchor="middle" x="399.5" y="-130" font-family="Helvetica,sans-Serif" font-size="10.00">play_sound</text>
</a>
</g>
</g>
<!-- Node25&#45;&gt;Node26 -->
<g id="edge28_Node000025_Node000026" class="edge">
<title>Node25&#45;&gt;Node26</title>
<g id="a_edge28_Node000025_Node000026"><a xlink:title=" ">
<path fill="none" stroke="#63b8ff" d="M250.37,-130.2C281.38,-130.68 322.31,-131.32 353.29,-131.8"/>
<polygon fill="#63b8ff" stroke="#63b8ff" points="353.33,-135.3 363.38,-131.96 353.44,-128.3 353.33,-135.3"/>
</a>
</g>
</g>
<!-- Node28 -->
<g id="Node000028" class="node">
<title>Node28</title>
<g id="a_Node000028"><a xlink:href="collision_8c.html#a9ec62ee67d55805a587752d82d66abd8" target="_top" xlink:title=" ">
<polygon fill="white" stroke="#666666" points="471,-104.5 328,-104.5 328,-74.5 471,-74.5 471,-104.5"/>
<text text-anchor="start" x="336" y="-92.5" font-family="Helvetica,sans-Serif" font-size="10.00">is_colliding_with_drivable</text>
<text text-anchor="middle" x="399.5" y="-81.5" font-family="Helvetica,sans-Serif" font-size="10.00">_surface</text>
</a>
</g>
</g>
<!-- Node27&#45;&gt;Node28 -->
<g id="edge30_Node000027_Node000028" class="edge">
<title>Node27&#45;&gt;Node28</title>
<g id="a_edge30_Node000027_Node000028"><a xlink:title=" ">
<path fill="none" stroke="#63b8ff" d="M250.86,-89.5C270.91,-89.5 295.04,-89.5 317.93,-89.5"/>
<polygon fill="#63b8ff" stroke="#63b8ff" points="318,-93 328,-89.5 318,-86 318,-93"/>
</a>
</g>
</g>
<!-- Node29 -->
<g id="Node000029" class="node">
<title>Node29</title>
<g id="a_Node000029"><a xlink:href="collision_8c.html#aa77fc5aaa5aa3a6f71ad00bc71b04788" target="_top" xlink:title=" ">
<polygon fill="white" stroke="#666666" points="464,-56 335,-56 335,-37 464,-37 464,-56"/>
<text text-anchor="middle" x="399.5" y="-44" font-family="Helvetica,sans-Serif" font-size="10.00">is_colliding_with_wall1</text>
</a>
</g>
</g>
<!-- Node27&#45;&gt;Node29 -->
<g id="edge31_Node000027_Node000029" class="edge">
<title>Node27&#45;&gt;Node29</title>
<g id="a_edge31_Node000027_Node000029"><a xlink:title=" ">
<path fill="none" stroke="#63b8ff" d="M247.94,-79.96C276.75,-73.55 314.9,-65.08 345.58,-58.26"/>
<polygon fill="#63b8ff" stroke="#63b8ff" points="346.67,-61.6 355.68,-56.02 345.15,-54.77 346.67,-61.6"/>
</a>
</g>
</g>
<!-- Node30 -->
<g id="Node000030" class="node">
<title>Node30</title>
<g id="a_Node000030"><a xlink:href="collision_8c.html#a728bd4102d2ed3ba18d68d39b707c0f4" target="_top" xlink:title=" ">
<polygon fill="white" stroke="#666666" points="464,-19 335,-19 335,0 464,0 464,-19"/>
<text text-anchor="middle" x="399.5" y="-7" font-family="Helvetica,sans-Serif" font-size="10.00">is_colliding_with_wall2</text>
</a>
</g>
</g>
<!-- Node27&#45;&gt;Node30 -->
<g id="edge32_Node000027_Node000030" class="edge">
<title>Node27&#45;&gt;Node30</title>
<g id="a_edge32_Node000027_Node000030"><a xlink:title=" ">
<path fill="none" stroke="#63b8ff" d="M250.52,-83.55C260.73,-80.89 271.15,-77.05 280,-71.5 301.4,-58.07 294.46,-40.71 316,-27.5 318.96,-25.68 322.09,-24.05 325.32,-22.58"/>
<polygon fill="#63b8ff" stroke="#63b8ff" points="326.65,-25.81 334.64,-18.85 324.06,-19.31 326.65,-25.81"/>
</a>
</g>
</g>
</g>
</svg>

<g id="navigator" transform="translate(0 0)" fill="#404254">
  <rect fill="#f2f5e9" fill-opacity="0.5" stroke="#606060" stroke-width=".5" x="0" y="0" width="60" height="60"/>
  <use id="zoomplus" xlink:href="#zoomPlus" x="17" y="9" onmousedown="handleZoom(evt,'in')"/>
  <use id="zoomminus" xlink:href="#zoomMin" x="42" y="9" onmousedown="handleZoom(evt,'out')"/>
  <use id="reset" xlink:href="#resetDef" x="30" y="36" onmousedown="handleReset()"/>
   <use id="arrowup" xlink:href="#arrowUp" x="0" y="0" onmousedown="handlePan(0,-1)"/>
  <use id="arrowright" xlink:href="#arrowRight" x="0" y="0" onmousedown="handlePan(1,0)"/>
  <use id="arrowdown" xlink:href="#arrowDown" x="0" y="0" onmousedown="handlePan(0,1)"/>
  <use id="arrowleft" xlink:href="#arrowLeft" x="0" y="0" onmousedown="handlePan(-1,0)"/>
</g>
<svg viewBox="0 0 15 15" width="100%" height="30px" preserveAspectRatio="xMaxYMin meet">
 <g id="arrow_out" transform="scale(0.3 0.3)">
  <a xlink:href="actors__extended_8h_a0479b5d957efd310c499c7860e492651_cgraph_org.svg" target="_base">
   <rect id="button" ry="5" rx="5" y="6" x="6" height="38" width="38"
        fill="#f2f5e9" fill-opacity="0.5" stroke="#606060" stroke-width="1.0"/>
   <path id="arrow"
     d="M 11.500037,31.436501 C 11.940474,20.09759 22.043105,11.32322 32.158766,21.979434 L 37.068811,17.246167 C 37.068811,17.246167 37.088388,32 37.088388,32 L 22.160133,31.978069 C 22.160133,31.978069 26.997745,27.140456 26.997745,27.140456 C 18.528582,18.264221 13.291696,25.230495 11.500037,31.436501 z"
     style="fill:#404040;"/>
  </a>
 </g>
</svg>

<style type='text/css'>
<![CDATA[
[data-mouse-over-selected='false'] { opacity: 0.7; }
[data-mouse-over-selected='true']  { opacity: 1.0; }
]]>
</style>
<script type="application/ecmascript"><![CDATA[
document.addEventListener('DOMContentLoaded', (event) => {
  highlightEdges();
  highlightAdjacentNodes();
});
]]></script>
</svg>
