<?xml version="1.0" encoding="UTF-8" standalone="no"?>
<!DOCTYPE svg PUBLIC "-//W3C//DTD SVG 1.1//EN"
 "http://www.w3.org/Graphics/SVG/1.1/DTD/svg11.dtd">
<!-- Generated by graphviz version 2.43.0 (0)
 -->
<!-- Title: addActorToEmptySlot Pages: 1 -->
<svg width="1400pt" height="279pt"
 viewBox="0.00 0.00 1400.00 279.00" xmlns="http://www.w3.org/2000/svg" xmlns:xlink="http://www.w3.org/1999/xlink">
<g id="graph0" class="graph" transform="scale(1 1) rotate(0) translate(4 275)">
<title>addActorToEmptySlot</title>
<!-- Node1 -->
<g id="Node000001" class="node">
<title>Node1</title>
<g id="a_Node000001"><a xlink:title=" ">
<polygon fill="#999999" stroke="#666666" points="121,-117 0,-117 0,-98 121,-98 121,-117"/>
<text text-anchor="middle" x="60.5" y="-105" font-family="Helvetica,sans-Serif" font-size="10.00">addActorToEmptySlot</text>
</a>
</g>
</g>
<!-- Node2 -->
<g id="Node000002" class="node">
<title>Node2</title>
<g id="a_Node000002"><a xlink:href="actors_8c.html#a39c023177b5a7686cdd1fc65b8b953e1" target="_top" xlink:title=" ">
<polygon fill="white" stroke="#666666" points="346,-160 284,-160 284,-141 346,-141 346,-160"/>
<text text-anchor="middle" x="315" y="-148" font-family="Helvetica,sans-Serif" font-size="10.00">actor_init</text>
</a>
</g>
</g>
<!-- Node1&#45;&gt;Node2 -->
<g id="edge1_Node000001_Node000002" class="edge">
<title>Node1&#45;&gt;Node2</title>
<g id="a_edge1_Node000001_Node000002"><a xlink:title=" ">
<path fill="none" stroke="#63b8ff" d="M117.54,-117.04C164.92,-125.11 231.64,-136.48 273.85,-143.66"/>
<polygon fill="#63b8ff" stroke="#63b8ff" points="273.32,-147.12 283.77,-145.35 274.5,-140.22 273.32,-147.12"/>
</a>
</g>
</g>
<!-- Node23 -->
<g id="Node000023" class="node">
<title>Node23</title>
<g id="a_Node000023"><a xlink:href="actors_8c.html#a0c9d11d8956bf92c32a5e9bafd7036e6" target="_top" xlink:title=" ">
<polygon fill="white" stroke="#666666" points="248,-98 157,-98 157,-79 248,-79 248,-98"/>
<text text-anchor="middle" x="202.5" y="-86" font-family="Helvetica,sans-Serif" font-size="10.00">func_8029E890</text>
</a>
</g>
</g>
<!-- Node1&#45;&gt;Node23 -->
<g id="edge22_Node000001_Node000023" class="edge">
<title>Node1&#45;&gt;Node23</title>
<g id="a_edge22_Node000001_Node000023"><a xlink:title=" ">
<path fill="none" stroke="#63b8ff" d="M121.28,-99.39C129.73,-98.24 138.39,-97.06 146.74,-95.93"/>
<polygon fill="#63b8ff" stroke="#63b8ff" points="147.31,-99.39 156.75,-94.57 146.37,-92.45 147.31,-99.39"/>
</a>
</g>
</g>
<!-- Node3 -->
<g id="Node000003" class="node">
<title>Node3</title>
<g id="a_Node000003"><a xlink:href="actors_8c.html#a1a9bccb586242555a9123ebd4ab70f2a" target="_top" xlink:title=" ">
<polygon fill="white" stroke="#666666" points="514,-122.5 382,-122.5 382,-92.5 514,-92.5 514,-122.5"/>
<text text-anchor="start" x="390" y="-110.5" font-family="Helvetica,sans-Serif" font-size="10.00">cleanup_red_and_green</text>
<text text-anchor="middle" x="448" y="-99.5" font-family="Helvetica,sans-Serif" font-size="10.00">_shells</text>
</a>
</g>
</g>
<!-- Node2&#45;&gt;Node3 -->
<g id="edge2_Node000002_Node000003" class="edge">
<title>Node2&#45;&gt;Node3</title>
<g id="a_edge2_Node000002_Node000003"><a xlink:title=" ">
<path fill="none" stroke="#63b8ff" d="M345.07,-140.96C358.74,-136.47 375.52,-130.96 391.48,-125.72"/>
<polygon fill="#63b8ff" stroke="#63b8ff" points="392.87,-128.95 401.28,-122.51 390.69,-122.3 392.87,-128.95"/>
</a>
</g>
</g>
<!-- Node15 -->
<g id="Node000015" class="node">
<title>Node15</title>
<g id="a_Node000015"><a xlink:href="collision_8c.html#ad72fef3ffe32191d73b1822f512ebf3f" target="_top" xlink:title=" ">
<polygon fill="white" stroke="#666666" points="495.5,-197 400.5,-197 400.5,-178 495.5,-178 495.5,-197"/>
<text text-anchor="middle" x="448" y="-185" font-family="Helvetica,sans-Serif" font-size="10.00">func_802AAAAC</text>
</a>
</g>
</g>
<!-- Node2&#45;&gt;Node15 -->
<g id="edge14_Node000002_Node000015" class="edge">
<title>Node2&#45;&gt;Node15</title>
<g id="a_edge14_Node000002_Node000015"><a xlink:title=" ">
<path fill="none" stroke="#63b8ff" d="M346.21,-159.27C357.44,-162.51 370.3,-166.19 382,-169.5 388.59,-171.36 395.55,-173.31 402.39,-175.21"/>
<polygon fill="#63b8ff" stroke="#63b8ff" points="401.66,-178.64 412.24,-177.94 403.54,-171.9 401.66,-178.64"/>
</a>
</g>
</g>
<!-- Node17 -->
<g id="Node000017" class="node">
<title>Node17</title>
<g id="a_Node000017"><a xlink:href="collision_8c.html#a365367628b7140a7a880beeecce9c305" target="_top" xlink:title=" ">
<polygon fill="white" stroke="#666666" points="495.5,-160 400.5,-160 400.5,-141 495.5,-141 495.5,-160"/>
<text text-anchor="middle" x="448" y="-148" font-family="Helvetica,sans-Serif" font-size="10.00">func_802ADDC8</text>
</a>
</g>
</g>
<!-- Node2&#45;&gt;Node17 -->
<g id="edge16_Node000002_Node000017" class="edge">
<title>Node2&#45;&gt;Node17</title>
<g id="a_edge16_Node000002_Node000017"><a xlink:title=" ">
<path fill="none" stroke="#63b8ff" d="M346.05,-150.5C359.13,-150.5 374.9,-150.5 390.04,-150.5"/>
<polygon fill="#63b8ff" stroke="#63b8ff" points="390.39,-154 400.39,-150.5 390.39,-147 390.39,-154"/>
</a>
</g>
</g>
<!-- Node21 -->
<g id="Node000021" class="node">
<title>Node21</title>
<g id="a_Node000021"><a xlink:href="math__util_8c.html#af7b470ed76fce07b8042a47c96e5690b" target="_top" xlink:title=" ">
<polygon fill="white" stroke="#666666" points="501.5,-271 394.5,-271 394.5,-252 501.5,-252 501.5,-271"/>
<text text-anchor="middle" x="448" y="-259" font-family="Helvetica,sans-Serif" font-size="10.00">vec3f_copy_return</text>
</a>
</g>
</g>
<!-- Node2&#45;&gt;Node21 -->
<g id="edge20_Node000002_Node000021" class="edge">
<title>Node2&#45;&gt;Node21</title>
<g id="a_edge20_Node000002_Node000021"><a xlink:title=" ">
<path fill="none" stroke="#63b8ff" d="M320.07,-160.05C328.65,-178.97 350.4,-221.32 382,-243.5 384.22,-245.05 386.56,-246.47 388.99,-247.77"/>
<polygon fill="#63b8ff" stroke="#63b8ff" points="387.57,-250.97 398.12,-251.96 390.49,-244.61 387.57,-250.97"/>
</a>
</g>
</g>
<!-- Node22 -->
<g id="Node000022" class="node">
<title>Node22</title>
<g id="a_Node000022"><a xlink:href="math__util_8c.html#a0e270ee67600c8c9c2f140c647d008a1" target="_top" xlink:title=" ">
<polygon fill="white" stroke="#666666" points="485,-234 411,-234 411,-215 485,-215 485,-234"/>
<text text-anchor="middle" x="448" y="-222" font-family="Helvetica,sans-Serif" font-size="10.00">vec3s_copy</text>
</a>
</g>
</g>
<!-- Node2&#45;&gt;Node22 -->
<g id="edge21_Node000002_Node000022" class="edge">
<title>Node2&#45;&gt;Node22</title>
<g id="a_edge21_Node000002_Node000022"><a xlink:title=" ">
<path fill="none" stroke="#63b8ff" d="M324.86,-160.29C336.71,-172.79 358.89,-194.27 382,-206.5 387.98,-209.67 394.57,-212.32 401.19,-214.53"/>
<polygon fill="#63b8ff" stroke="#63b8ff" points="400.27,-217.91 410.85,-217.46 402.3,-211.21 400.27,-217.91"/>
</a>
</g>
</g>
<!-- Node4 -->
<g id="Node000004" class="node">
<title>Node4</title>
<g id="a_Node000004"><a xlink:href="actors_8c.html#a694ec6ef7548b8618aeb35c038d3a9b9" target="_top" xlink:title=" ">
<polygon fill="white" stroke="#666666" points="667.5,-117 584.5,-117 584.5,-98 667.5,-98 667.5,-117"/>
<text text-anchor="middle" x="626" y="-105" font-family="Helvetica,sans-Serif" font-size="10.00">destroy_actor</text>
</a>
</g>
</g>
<!-- Node3&#45;&gt;Node4 -->
<g id="edge3_Node000003_Node000004" class="edge">
<title>Node3&#45;&gt;Node4</title>
<g id="a_edge3_Node000003_Node000004"><a xlink:title=" ">
<path fill="none" stroke="#63b8ff" d="M514.04,-107.5C533.95,-107.5 555.55,-107.5 574.35,-107.5"/>
<polygon fill="#63b8ff" stroke="#63b8ff" points="574.48,-111 584.48,-107.5 574.48,-104 574.48,-111"/>
</a>
</g>
</g>
<!-- Node14 -->
<g id="Node000014" class="node">
<title>Node14</title>
<g id="a_Node000014"><a xlink:href="code__80005FD0_8c.html#acb7b3d384c78d219f4b7040e78f6a2f2" target="_top" xlink:title=" ">
<polygon fill="white" stroke="#666666" points="702,-79.5 550,-79.5 550,-49.5 702,-49.5 702,-79.5"/>
<text text-anchor="start" x="558" y="-67.5" font-family="Helvetica,sans-Serif" font-size="10.00">remove_actor_in_unexpired</text>
<text text-anchor="middle" x="626" y="-56.5" font-family="Helvetica,sans-Serif" font-size="10.00">_actor_list</text>
</a>
</g>
</g>
<!-- Node3&#45;&gt;Node14 -->
<g id="edge13_Node000003_Node000014" class="edge">
<title>Node3&#45;&gt;Node14</title>
<g id="a_edge13_Node000003_Node000014"><a xlink:title=" ">
<path fill="none" stroke="#63b8ff" d="M510.56,-92.46C524.49,-89.06 539.4,-85.41 553.7,-81.92"/>
<polygon fill="#63b8ff" stroke="#63b8ff" points="554.59,-85.3 563.48,-79.53 552.93,-78.5 554.59,-85.3"/>
</a>
</g>
</g>
<!-- Node5 -->
<g id="Node000005" class="node">
<title>Node5</title>
<g id="a_Node000005"><a xlink:href="actors_8c.html#a15517665ab054722a5c980c0f1008cd0" target="_top" xlink:title=" ">
<polygon fill="white" stroke="#666666" points="831,-74 738,-74 738,-55 831,-55 831,-74"/>
<text text-anchor="middle" x="784.5" y="-62" font-family="Helvetica,sans-Serif" font-size="10.00">func_8029E7DC</text>
</a>
</g>
</g>
<!-- Node4&#45;&gt;Node5 -->
<g id="edge4_Node000004_Node000005" class="edge">
<title>Node4&#45;&gt;Node5</title>
<g id="a_edge4_Node000004_Node000005"><a xlink:title=" ">
<path fill="none" stroke="#63b8ff" d="M666,-97.92C677.61,-94.99 690.34,-91.69 702,-88.5 715.26,-84.87 729.68,-80.7 742.64,-76.86"/>
<polygon fill="#63b8ff" stroke="#63b8ff" points="743.64,-80.22 752.23,-74.01 741.65,-73.51 743.64,-80.22"/>
</a>
</g>
</g>
<!-- Node6 -->
<g id="Node000006" class="node">
<title>Node6</title>
<g id="a_Node000006"><a xlink:href="external_8c.html#ae72057869772019e4464c87d4e16c682" target="_top" xlink:title=" ">
<polygon fill="white" stroke="#666666" points="959,-74 867,-74 867,-55 959,-55 959,-74"/>
<text text-anchor="middle" x="913" y="-62" font-family="Helvetica,sans-Serif" font-size="10.00">func_800C99E0</text>
</a>
</g>
</g>
<!-- Node5&#45;&gt;Node6 -->
<g id="edge5_Node000005_Node000006" class="edge">
<title>Node5&#45;&gt;Node6</title>
<g id="a_edge5_Node000005_Node000006"><a xlink:title=" ">
<path fill="none" stroke="#63b8ff" d="M831.17,-64.5C839.42,-64.5 848.11,-64.5 856.6,-64.5"/>
<polygon fill="#63b8ff" stroke="#63b8ff" points="856.82,-68 866.82,-64.5 856.82,-61 856.82,-68"/>
</a>
</g>
</g>
<!-- Node7 -->
<g id="Node000007" class="node">
<title>Node7</title>
<g id="a_Node000007"><a xlink:href="external_8c.html#aeb87c527482a244173df36a1f3d4f446" target="_top" xlink:title=" ">
<polygon fill="white" stroke="#666666" points="1087,-93 995,-93 995,-74 1087,-74 1087,-93"/>
<text text-anchor="middle" x="1041" y="-81" font-family="Helvetica,sans-Serif" font-size="10.00">func_800C21E8</text>
</a>
</g>
</g>
<!-- Node6&#45;&gt;Node7 -->
<g id="edge6_Node000006_Node000007" class="edge">
<title>Node6&#45;&gt;Node7</title>
<g id="a_edge6_Node000006_Node000007"><a xlink:title=" ">
<path fill="none" stroke="#63b8ff" d="M959.13,-71.31C967.46,-72.56 976.23,-73.88 984.81,-75.18"/>
<polygon fill="#63b8ff" stroke="#63b8ff" points="984.35,-78.65 994.76,-76.68 985.39,-71.73 984.35,-78.65"/>
</a>
</g>
</g>
<!-- Node8 -->
<g id="Node000008" class="node">
<title>Node8</title>
<g id="a_Node000008"><a xlink:href="external_8c.html#a028d40421b90c38f68ebfd5acc626f2e" target="_top" xlink:title=" ">
<polygon fill="white" stroke="#666666" points="1087,-56 995,-56 995,-37 1087,-37 1087,-56"/>
<text text-anchor="middle" x="1041" y="-44" font-family="Helvetica,sans-Serif" font-size="10.00">func_800C5578</text>
</a>
</g>
</g>
<!-- Node6&#45;&gt;Node8 -->
<g id="edge7_Node000006_Node000008" class="edge">
<title>Node6&#45;&gt;Node8</title>
<g id="a_edge7_Node000006_Node000008"><a xlink:title=" ">
<path fill="none" stroke="#63b8ff" d="M959.13,-58.05C967.46,-56.86 976.23,-55.61 984.81,-54.38"/>
<polygon fill="#63b8ff" stroke="#63b8ff" points="985.35,-57.84 994.76,-52.96 984.36,-50.91 985.35,-57.84"/>
</a>
</g>
</g>
<!-- Node9 -->
<g id="Node000009" class="node">
<title>Node9</title>
<g id="a_Node000009"><a xlink:href="external_8c.html#ac0fb767de7e14a03f1bcfa53f0abd23b" target="_top" xlink:title=" ">
<polygon fill="white" stroke="#666666" points="1263,-93 1123,-93 1123,-74 1263,-74 1263,-93"/>
<text text-anchor="middle" x="1193" y="-81" font-family="Helvetica,sans-Serif" font-size="10.00">delete_sound_from_bank</text>
</a>
</g>
</g>
<!-- Node8&#45;&gt;Node9 -->
<g id="edge8_Node000008_Node000009" class="edge">
<title>Node8&#45;&gt;Node9</title>
<g id="a_edge8_Node000008_Node000009"><a xlink:title=" ">
<path fill="none" stroke="#63b8ff" d="M1080.63,-56.03C1099.8,-60.76 1123.16,-66.52 1143.52,-71.54"/>
<polygon fill="#63b8ff" stroke="#63b8ff" points="1142.69,-74.94 1153.24,-73.94 1144.37,-68.15 1142.69,-74.94"/>
</a>
</g>
</g>
<!-- Node11 -->
<g id="Node000011" class="node">
<title>Node11</title>
<g id="a_Node000011"><a xlink:href="external_8c.html#ab83bd36e63f0f1baddcb2482b5ad31b0" target="_top" xlink:title=" ">
<polygon fill="white" stroke="#666666" points="1239.5,-56 1146.5,-56 1146.5,-37 1239.5,-37 1239.5,-56"/>
<text text-anchor="middle" x="1193" y="-44" font-family="Helvetica,sans-Serif" font-size="10.00">func_800C41CC</text>
</a>
</g>
</g>
<!-- Node8&#45;&gt;Node11 -->
<g id="edge10_Node000008_Node000011" class="edge">
<title>Node8&#45;&gt;Node11</title>
<g id="a_edge10_Node000008_Node000011"><a xlink:title=" ">
<path fill="none" stroke="#63b8ff" d="M1087,-46.5C1102.37,-46.5 1119.74,-46.5 1135.86,-46.5"/>
<polygon fill="#63b8ff" stroke="#63b8ff" points="1136.25,-50 1146.25,-46.5 1136.25,-43 1136.25,-50"/>
</a>
</g>
</g>
<!-- Node12 -->
<g id="Node000012" class="node">
<title>Node12</title>
<g id="a_Node000012"><a xlink:href="port__eu_8c.html#aa89dfaecca46c6d071f08c1898d1f7c9" target="_top" xlink:title=" ">
<polygon fill="white" stroke="#666666" points="1239.5,-19 1146.5,-19 1146.5,0 1239.5,0 1239.5,-19"/>
<text text-anchor="middle" x="1193" y="-7" font-family="Helvetica,sans-Serif" font-size="10.00">func_800CBBE8</text>
</a>
</g>
</g>
<!-- Node8&#45;&gt;Node12 -->
<g id="edge11_Node000008_Node000012" class="edge">
<title>Node8&#45;&gt;Node12</title>
<g id="a_edge11_Node000008_Node000012"><a xlink:title=" ">
<path fill="none" stroke="#63b8ff" d="M1080.63,-36.97C1099.8,-32.24 1123.16,-26.48 1143.52,-21.46"/>
<polygon fill="#63b8ff" stroke="#63b8ff" points="1144.37,-24.85 1153.24,-19.06 1142.69,-18.06 1144.37,-24.85"/>
</a>
</g>
</g>
<!-- Node10 -->
<g id="Node000010" class="node">
<title>Node10</title>
<g id="a_Node000010"><a xlink:href="external_8c.html#a358ac55e8ab5262dcae8037334be06d7" target="_top" xlink:title=" ">
<polygon fill="white" stroke="#666666" points="1391.5,-93 1299.5,-93 1299.5,-74 1391.5,-74 1391.5,-93"/>
<text text-anchor="middle" x="1345.5" y="-81" font-family="Helvetica,sans-Serif" font-size="10.00">func_800C40F0</text>
</a>
</g>
</g>
<!-- Node9&#45;&gt;Node10 -->
<g id="edge9_Node000009_Node000010" class="edge">
<title>Node9&#45;&gt;Node10</title>
<g id="a_edge9_Node000009_Node000010"><a xlink:title=" ">
<path fill="none" stroke="#63b8ff" d="M1263.08,-83.5C1271.87,-83.5 1280.78,-83.5 1289.31,-83.5"/>
<polygon fill="#63b8ff" stroke="#63b8ff" points="1289.5,-87 1299.5,-83.5 1289.5,-80 1289.5,-87"/>
</a>
</g>
</g>
<!-- Node13 -->
<g id="Node000013" class="node">
<title>Node13</title>
<g id="a_Node000013"><a xlink:href="port__eu_8c.html#af361a20d2e08f30c53a237ca481ff734" target="_top" xlink:title=" ">
<polygon fill="white" stroke="#666666" points="1392,-19 1299,-19 1299,0 1392,0 1392,-19"/>
<text text-anchor="middle" x="1345.5" y="-7" font-family="Helvetica,sans-Serif" font-size="10.00">func_800CBB48</text>
</a>
</g>
</g>
<!-- Node12&#45;&gt;Node13 -->
<g id="edge12_Node000012_Node000013" class="edge">
<title>Node12&#45;&gt;Node13</title>
<g id="a_edge12_Node000012_Node000013"><a xlink:title=" ">
<path fill="none" stroke="#63b8ff" d="M1239.56,-9.5C1254.96,-9.5 1272.34,-9.5 1288.46,-9.5"/>
<polygon fill="#63b8ff" stroke="#63b8ff" points="1288.83,-13 1298.83,-9.5 1288.83,-6 1288.83,-13"/>
</a>
</g>
</g>
<!-- Node16 -->
<g id="Node000016" class="node">
<title>Node16</title>
<g id="a_Node000016"><a xlink:href="math__util_8c.html#a79fd07a0971ec96a3ff0801963a2fa7f" target="_top" xlink:title=" ">
<polygon fill="white" stroke="#666666" points="658,-265 594,-265 594,-246 658,-246 658,-265"/>
<text text-anchor="middle" x="626" y="-253" font-family="Helvetica,sans-Serif" font-size="10.00">vec3f_set</text>
</a>
</g>
</g>
<!-- Node15&#45;&gt;Node16 -->
<g id="edge15_Node000015_Node000016" class="edge">
<title>Node15&#45;&gt;Node16</title>
<g id="a_edge15_Node000015_Node000016"><a xlink:title=" ">
<path fill="none" stroke="#63b8ff" d="M491.31,-197.02C499.1,-199.55 506.97,-202.68 514,-206.5 532.55,-216.58 531.21,-227.88 550,-237.5 560.51,-242.88 572.68,-246.69 584.11,-249.37"/>
<polygon fill="#63b8ff" stroke="#63b8ff" points="583.41,-252.8 593.91,-251.45 584.86,-245.95 583.41,-252.8"/>
</a>
</g>
</g>
<!-- Node18 -->
<g id="Node000018" class="node">
<title>Node18</title>
<g id="a_Node000018"><a xlink:href="collision_8c.html#afce45acb8da354da0a5b501003be1aef" target="_top" xlink:title=" ">
<polygon fill="white" stroke="#666666" points="672.5,-191 579.5,-191 579.5,-172 672.5,-172 672.5,-191"/>
<text text-anchor="middle" x="626" y="-179" font-family="Helvetica,sans-Serif" font-size="10.00">func_802AAE4C</text>
</a>
</g>
</g>
<!-- Node17&#45;&gt;Node18 -->
<g id="edge17_Node000017_Node000018" class="edge">
<title>Node17&#45;&gt;Node18</title>
<g id="a_edge17_Node000017_Node000018"><a xlink:title=" ">
<path fill="none" stroke="#63b8ff" d="M495.7,-158.73C518.34,-162.71 545.68,-167.53 569.39,-171.7"/>
<polygon fill="#63b8ff" stroke="#63b8ff" points="568.84,-175.16 579.3,-173.45 570.06,-168.27 568.84,-175.16"/>
</a>
</g>
</g>
<!-- Node19 -->
<g id="Node000019" class="node">
<title>Node19</title>
<g id="a_Node000019"><a xlink:href="collision_8c.html#adcc608ea0eae3bf9a27ab79ec64b4899" target="_top" xlink:title=" ">
<polygon fill="white" stroke="#666666" points="672,-154 580,-154 580,-135 672,-135 672,-154"/>
<text text-anchor="middle" x="626" y="-142" font-family="Helvetica,sans-Serif" font-size="10.00">func_802AB288</text>
</a>
</g>
</g>
<!-- Node17&#45;&gt;Node19 -->
<g id="edge18_Node000017_Node000019" class="edge">
<title>Node17&#45;&gt;Node19</title>
<g id="a_edge18_Node000017_Node000019"><a xlink:title=" ">
<path fill="none" stroke="#63b8ff" d="M495.7,-148.91C518.41,-148.13 545.87,-147.2 569.63,-146.39"/>
<polygon fill="#63b8ff" stroke="#63b8ff" points="570.03,-149.88 579.9,-146.04 569.79,-142.88 570.03,-149.88"/>
</a>
</g>
</g>
<!-- Node20 -->
<g id="Node000020" class="node">
<title>Node20</title>
<g id="a_Node000020"><a xlink:href="collision_8c.html#ab440aa3fc960b7b4b5ad8e4bcaa06b00" target="_top" xlink:title=" ">
<polygon fill="white" stroke="#666666" points="672.5,-228 579.5,-228 579.5,-209 672.5,-209 672.5,-228"/>
<text text-anchor="middle" x="626" y="-216" font-family="Helvetica,sans-Serif" font-size="10.00">func_802AB6C4</text>
</a>
</g>
</g>
<!-- Node17&#45;&gt;Node20 -->
<g id="edge19_Node000017_Node000020" class="edge">
<title>Node17&#45;&gt;Node20</title>
<g id="a_edge19_Node000017_Node000020"><a xlink:title=" ">
<path fill="none" stroke="#63b8ff" d="M491.31,-160.02C499.1,-162.55 506.97,-165.68 514,-169.5 532.55,-179.58 531.21,-190.88 550,-200.5 556.09,-203.62 562.73,-206.21 569.46,-208.35"/>
<polygon fill="#63b8ff" stroke="#63b8ff" points="568.76,-211.79 579.34,-211.2 570.7,-205.07 568.76,-211.79"/>
</a>
</g>
</g>
<!-- Node23&#45;&gt;Node2 -->
<g id="edge23_Node000023_Node000002" class="edge">
<title>Node23&#45;&gt;Node2</title>
<g id="a_edge23_Node000023_Node000002"><a xlink:title=" ">
<path fill="none" stroke="#63b8ff" d="M220.77,-98.19C238.77,-108.29 267.2,-124.24 287.93,-135.87"/>
<polygon fill="#63b8ff" stroke="#63b8ff" points="286.42,-139.04 296.86,-140.88 289.85,-132.93 286.42,-139.04"/>
</a>
</g>
</g>
<!-- Node23&#45;&gt;Node5 -->
<g id="edge24_Node000023_Node000005" class="edge">
<title>Node23&#45;&gt;Node5</title>
<g id="a_edge24_Node000023_Node000005"><a xlink:title=" ">
<path fill="none" stroke="#63b8ff" d="M240.23,-78.98C322.96,-58.83 530.1,-15.72 702,-40.5 717.39,-42.72 733.92,-47.18 748.05,-51.66"/>
<polygon fill="#63b8ff" stroke="#63b8ff" points="747.27,-55.09 757.86,-54.89 749.46,-48.44 747.27,-55.09"/>
</a>
</g>
</g>
<!-- Node23&#45;&gt;Node14 -->
<g id="edge25_Node000023_Node000014" class="edge">
<title>Node23&#45;&gt;Node14</title>
<g id="a_edge25_Node000023_Node000014"><a xlink:title=" ">
<path fill="none" stroke="#63b8ff" d="M248.21,-85.95C317.3,-82.02 451.22,-74.39 539.37,-69.38"/>
<polygon fill="#63b8ff" stroke="#63b8ff" points="539.83,-72.86 549.62,-68.79 539.43,-65.87 539.83,-72.86"/>
</a>
</g>
</g>
</g>
</svg>
