<?xml version="1.0" encoding="UTF-8" standalone="no"?>
<!DOCTYPE svg PUBLIC "-//W3C//DTD SVG 1.1//EN"
 "http://www.w3.org/Graphics/SVG/1.1/DTD/svg11.dtd">
<!-- Generated by graphviz version 2.43.0 (0)
 -->
<!-- Title: render_item_boxs Pages: 1 -->
<svg width="815pt" height="291pt"
 viewBox="0.00 0.00 815.00 291.00" xmlns="http://www.w3.org/2000/svg" xmlns:xlink="http://www.w3.org/1999/xlink">
<g id="graph0" class="graph" transform="scale(1 1) rotate(0) translate(4 287)">
<title>render_item_boxs</title>
<!-- Node1 -->
<g id="Node000001" class="node">
<title>Node1</title>
<g id="a_Node000001"><a xlink:title=" ">
<polygon fill="#999999" stroke="#666666" points="104,-138 0,-138 0,-119 104,-119 104,-138"/>
<text text-anchor="middle" x="52" y="-126" font-family="Helvetica,sans-Serif" font-size="10.00">render_item_boxs</text>
</a>
</g>
</g>
<!-- Node2 -->
<g id="Node000002" class="node">
<title>Node2</title>
<g id="a_Node000002"><a xlink:href="actors_8c.html#af82821de2f8e4938ff33ef46b02c0912" target="_top" xlink:title=" ">
<polygon fill="white" stroke="#666666" points="232,-158 140,-158 140,-139 232,-139 232,-158"/>
<text text-anchor="middle" x="186" y="-146" font-family="Helvetica,sans-Serif" font-size="10.00">func_802A171C</text>
</a>
</g>
</g>
<!-- Node1&#45;&gt;Node2 -->
<g id="edge1_Node000001_Node000002" class="edge">
<title>Node1&#45;&gt;Node2</title>
<g id="a_edge1_Node000001_Node000002"><a xlink:title=" ">
<path fill="none" stroke="#63b8ff" d="M104.03,-136.23C112.39,-137.5 121.08,-138.82 129.54,-140.1"/>
<polygon fill="#63b8ff" stroke="#63b8ff" points="129.29,-143.6 139.7,-141.64 130.34,-136.68 129.29,-143.6"/>
</a>
</g>
</g>
<!-- Node20 -->
<g id="Node000020" class="node">
<title>Node20</title>
<g id="a_Node000020"><a xlink:href="actors_8c.html#a81d23396f5a7e2d7f653b7f5eb12b55c" target="_top" xlink:title=" ">
<polygon fill="white" stroke="#666666" points="232,-120 140,-120 140,-101 232,-101 232,-120"/>
<text text-anchor="middle" x="186" y="-108" font-family="Helvetica,sans-Serif" font-size="10.00">func_802A1EA0</text>
</a>
</g>
</g>
<!-- Node1&#45;&gt;Node20 -->
<g id="edge20_Node000001_Node000020" class="edge">
<title>Node1&#45;&gt;Node20</title>
<g id="a_edge20_Node000001_Node000020"><a xlink:title=" ">
<path fill="none" stroke="#63b8ff" d="M104.03,-121.54C112.39,-120.4 121.08,-119.22 129.54,-118.06"/>
<polygon fill="#63b8ff" stroke="#63b8ff" points="130.26,-121.5 139.7,-116.68 129.32,-114.56 130.26,-121.5"/>
</a>
</g>
</g>
<!-- Node3 -->
<g id="Node000003" class="node">
<title>Node3</title>
<g id="a_Node000003"><a xlink:href="actors_8c.html#a722f21cf5d8bd9594d7f461abc7c0350" target="_top" xlink:title=" ">
<polygon fill="white" stroke="#666666" points="400.5,-245.5 284.5,-245.5 284.5,-215.5 400.5,-215.5 400.5,-245.5"/>
<text text-anchor="start" x="292.5" y="-233.5" font-family="Helvetica,sans-Serif" font-size="10.00">actor_not_render_on</text>
<text text-anchor="middle" x="342.5" y="-222.5" font-family="Helvetica,sans-Serif" font-size="10.00">_a_camera</text>
</a>
</g>
</g>
<!-- Node2&#45;&gt;Node3 -->
<g id="edge2_Node000002_Node000003" class="edge">
<title>Node2&#45;&gt;Node3</title>
<g id="a_edge2_Node000002_Node000003"><a xlink:title=" ">
<path fill="none" stroke="#63b8ff" d="M198.08,-158.14C213.06,-170.75 240.99,-192.83 268,-206.5 271.54,-208.29 275.24,-209.99 279.01,-211.59"/>
<polygon fill="#63b8ff" stroke="#63b8ff" points="277.93,-214.92 288.51,-215.37 280.51,-208.42 277.93,-214.92"/>
</a>
</g>
</g>
<!-- Node4 -->
<g id="Node000004" class="node">
<title>Node4</title>
<g id="a_Node000004"><a xlink:href="actors_8c.html#a9d9ee571ace2dd3de226053ddab47bb1" target="_top" xlink:title=" ">
<polygon fill="white" stroke="#666666" points="417,-283 268,-283 268,-264 417,-264 417,-283"/>
<text text-anchor="middle" x="342.5" y="-271" font-family="Helvetica,sans-Serif" font-size="10.00">actor_render_on_a_camera</text>
</a>
</g>
</g>
<!-- Node2&#45;&gt;Node4 -->
<g id="edge3_Node000002_Node000004" class="edge">
<title>Node2&#45;&gt;Node4</title>
<g id="a_edge3_Node000002_Node000004"><a xlink:title=" ">
<path fill="none" stroke="#63b8ff" d="M191.55,-158.14C201.95,-179.1 229.59,-229.02 268,-254.5 271.09,-256.55 274.39,-258.38 277.82,-260.01"/>
<polygon fill="#63b8ff" stroke="#63b8ff" points="276.55,-263.28 287.13,-263.89 279.24,-256.81 276.55,-263.28"/>
</a>
</g>
</g>
<!-- Node5 -->
<g id="Node000005" class="node">
<title>Node5</title>
<g id="a_Node000005"><a xlink:href="math__util_8c.html#ab886738b799d467264e9094fcc022241" target="_top" xlink:title=" ">
<polygon fill="white" stroke="#666666" points="399.5,-122.5 285.5,-122.5 285.5,-92.5 399.5,-92.5 399.5,-122.5"/>
<text text-anchor="start" x="293.5" y="-110.5" font-family="Helvetica,sans-Serif" font-size="10.00">add_translate_mat4</text>
<text text-anchor="middle" x="342.5" y="-99.5" font-family="Helvetica,sans-Serif" font-size="10.00">_vec3f</text>
</a>
</g>
</g>
<!-- Node2&#45;&gt;Node5 -->
<g id="edge4_Node000002_Node000005" class="edge">
<title>Node2&#45;&gt;Node5</title>
<g id="a_edge4_Node000002_Node000005"><a xlink:title=" ">
<path fill="none" stroke="#63b8ff" d="M222.83,-138.99C238.48,-134.84 257.34,-129.83 275.38,-125.05"/>
<polygon fill="#63b8ff" stroke="#63b8ff" points="276.52,-128.37 285.28,-122.42 274.72,-121.6 276.52,-128.37"/>
</a>
</g>
</g>
<!-- Node6 -->
<g id="Node000006" class="node">
<title>Node6</title>
<g id="a_Node000006"><a xlink:href="math__util_8c.html#a5e1d12b8745a8d5f8d73ab366328d3cd" target="_top" xlink:title=" ">
<polygon fill="white" stroke="#666666" points="414,-160 271,-160 271,-141 414,-141 414,-160"/>
<text text-anchor="middle" x="342.5" y="-148" font-family="Helvetica,sans-Serif" font-size="10.00">is_within_render_distance</text>
</a>
</g>
</g>
<!-- Node2&#45;&gt;Node6 -->
<g id="edge5_Node000002_Node000006" class="edge">
<title>Node2&#45;&gt;Node6</title>
<g id="a_edge5_Node000002_Node000006"><a xlink:title=" ">
<path fill="none" stroke="#63b8ff" d="M232.1,-149.08C241.09,-149.2 250.79,-149.33 260.57,-149.45"/>
<polygon fill="#63b8ff" stroke="#63b8ff" points="260.71,-152.95 270.76,-149.58 260.8,-145.95 260.71,-152.95"/>
</a>
</g>
</g>
<!-- Node13 -->
<g id="Node000013" class="node">
<title>Node13</title>
<g id="a_Node000013"><a xlink:href="math__util_8c.html#a7085bb4bb08bdc39c0fa0b98f25176ef" target="_top" xlink:title=" ">
<polygon fill="white" stroke="#666666" points="406.5,-74 278.5,-74 278.5,-55 406.5,-55 406.5,-74"/>
<text text-anchor="middle" x="342.5" y="-62" font-family="Helvetica,sans-Serif" font-size="10.00">mtxf_pos_rotation_xyz</text>
</a>
</g>
</g>
<!-- Node2&#45;&gt;Node13 -->
<g id="edge13_Node000002_Node000013" class="edge">
<title>Node2&#45;&gt;Node13</title>
<g id="a_edge13_Node000002_Node000013"><a xlink:title=" ">
<path fill="none" stroke="#63b8ff" d="M215.81,-138.91C221.47,-136.34 227.15,-133.21 232,-129.5 252.62,-113.72 246.28,-97.72 268,-83.5 271.16,-81.43 274.54,-79.58 278.04,-77.94"/>
<polygon fill="#63b8ff" stroke="#63b8ff" points="279.63,-81.07 287.55,-74.04 276.97,-74.59 279.63,-81.07"/>
</a>
</g>
</g>
<!-- Node16 -->
<g id="Node000016" class="node">
<title>Node16</title>
<g id="a_Node000016"><a xlink:href="math__util_8c.html#aca95a220db79fe028b35270f35a4a7b3" target="_top" xlink:title=" ">
<polygon fill="white" stroke="#666666" points="378,-197 307,-197 307,-178 378,-178 378,-197"/>
<text text-anchor="middle" x="342.5" y="-185" font-family="Helvetica,sans-Serif" font-size="10.00">mtxf_scale</text>
</a>
</g>
</g>
<!-- Node2&#45;&gt;Node16 -->
<g id="edge16_Node000002_Node000016" class="edge">
<title>Node2&#45;&gt;Node16</title>
<g id="a_edge16_Node000002_Node000016"><a xlink:title=" ">
<path fill="none" stroke="#63b8ff" d="M223.26,-158.01C237.23,-161.65 253.35,-165.81 268,-169.5 277.36,-171.86 287.4,-174.35 296.96,-176.7"/>
<polygon fill="#63b8ff" stroke="#63b8ff" points="296.16,-180.1 306.7,-179.08 297.82,-173.3 296.16,-180.1"/>
</a>
</g>
</g>
<!-- Node17 -->
<g id="Node000017" class="node">
<title>Node17</title>
<g id="a_Node000017"><a xlink:href="math__util_8c.html#aa23f6384122bc45f13a81ef0fa86c099" target="_top" xlink:title=" ">
<polygon fill="white" stroke="#666666" points="399,-37 286,-37 286,-18 399,-18 399,-37"/>
<text text-anchor="middle" x="342.5" y="-25" font-family="Helvetica,sans-Serif" font-size="10.00">render_set_position</text>
</a>
</g>
</g>
<!-- Node2&#45;&gt;Node17 -->
<g id="edge17_Node000002_Node000017" class="edge">
<title>Node2&#45;&gt;Node17</title>
<g id="a_edge17_Node000002_Node000017"><a xlink:title=" ">
<path fill="none" stroke="#63b8ff" d="M218.46,-138.91C223.4,-136.42 228.14,-133.32 232,-129.5 260.57,-101.21 237.44,-72.63 268,-46.5 270.69,-44.2 273.62,-42.18 276.71,-40.4"/>
<polygon fill="#63b8ff" stroke="#63b8ff" points="278.33,-43.5 285.79,-35.98 275.27,-37.21 278.33,-43.5"/>
</a>
</g>
</g>
<!-- Node7 -->
<g id="Node000007" class="node">
<title>Node7</title>
<g id="a_Node000007"><a xlink:href="math__util_8c.html#a07a66adf3458c156c7961b983983627a" target="_top" xlink:title=" ">
<polygon fill="white" stroke="#666666" points="567,-179 474,-179 474,-160 567,-160 567,-179"/>
<text text-anchor="middle" x="520.5" y="-167" font-family="Helvetica,sans-Serif" font-size="10.00">func_802B7CA8</text>
</a>
</g>
</g>
<!-- Node6&#45;&gt;Node7 -->
<g id="edge6_Node000006_Node000007" class="edge">
<title>Node6&#45;&gt;Node7</title>
<g id="a_edge6_Node000006_Node000007"><a xlink:title=" ">
<path fill="none" stroke="#63b8ff" d="M414.07,-158.12C430.62,-159.91 448.03,-161.78 463.83,-163.49"/>
<polygon fill="#63b8ff" stroke="#63b8ff" points="463.63,-166.99 473.95,-164.58 464.39,-160.03 463.63,-166.99"/>
</a>
</g>
</g>
<!-- Node11 -->
<g id="Node000011" class="node">
<title>Node11</title>
<g id="a_Node000011"><a xlink:href="math__util_8c.html#a84cf9d4ec33146a64c230ed4cec56632" target="_top" xlink:title=" ">
<polygon fill="white" stroke="#666666" points="588,-227.5 453,-227.5 453,-197.5 588,-197.5 588,-227.5"/>
<text text-anchor="start" x="461" y="-215.5" font-family="Helvetica,sans-Serif" font-size="10.00">get_angle_between_two</text>
<text text-anchor="middle" x="520.5" y="-204.5" font-family="Helvetica,sans-Serif" font-size="10.00">_vectors</text>
</a>
</g>
</g>
<!-- Node6&#45;&gt;Node11 -->
<g id="edge10_Node000006_Node000011" class="edge">
<title>Node6&#45;&gt;Node11</title>
<g id="a_edge10_Node000006_Node000011"><a xlink:title=" ">
<path fill="none" stroke="#63b8ff" d="M387.17,-160C397.12,-162.66 407.54,-165.84 417,-169.5 433.87,-176.03 436.45,-181.19 453,-188.5 457.09,-190.31 461.36,-192.08 465.68,-193.81"/>
<polygon fill="#63b8ff" stroke="#63b8ff" points="464.57,-197.13 475.16,-197.47 467.1,-190.6 464.57,-197.13"/>
</a>
</g>
</g>
<!-- Node12 -->
<g id="Node000012" class="node">
<title>Node12</title>
<g id="a_Node000012"><a xlink:href="math__util_8c.html#a3eb0db0895b2c11953df746ce49b782e" target="_top" xlink:title=" ">
<polygon fill="white" stroke="#666666" points="575.5,-141.5 465.5,-141.5 465.5,-111.5 575.5,-111.5 575.5,-141.5"/>
<text text-anchor="start" x="473.5" y="-129.5" font-family="Helvetica,sans-Serif" font-size="10.00">is_visible_between</text>
<text text-anchor="middle" x="520.5" y="-118.5" font-family="Helvetica,sans-Serif" font-size="10.00">_angle</text>
</a>
</g>
</g>
<!-- Node6&#45;&gt;Node12 -->
<g id="edge12_Node000006_Node000012" class="edge">
<title>Node6&#45;&gt;Node12</title>
<g id="a_edge12_Node000006_Node000012"><a xlink:title=" ">
<path fill="none" stroke="#63b8ff" d="M413.31,-140.98C427.08,-139.1 441.47,-137.14 455.05,-135.29"/>
<polygon fill="#63b8ff" stroke="#63b8ff" points="455.81,-138.72 465.25,-133.9 454.87,-131.78 455.81,-138.72"/>
</a>
</g>
</g>
<!-- Node8 -->
<g id="Node000008" class="node">
<title>Node8</title>
<g id="a_Node000008"><a xlink:href="math__util_8c.html#aaa39a297477f56051975259f4bddd829" target="_top" xlink:title=" ">
<polygon fill="white" stroke="#666666" points="681.5,-219 631.5,-219 631.5,-200 681.5,-200 681.5,-219"/>
<text text-anchor="middle" x="656.5" y="-207" font-family="Helvetica,sans-Serif" font-size="10.00">atan2s</text>
</a>
</g>
</g>
<!-- Node7&#45;&gt;Node8 -->
<g id="edge7_Node000007_Node000008" class="edge">
<title>Node7&#45;&gt;Node8</title>
<g id="a_edge7_Node000007_Node000008"><a xlink:title=" ">
<path fill="none" stroke="#63b8ff" d="M555.37,-179.01C565.85,-182 577.41,-185.34 588,-188.5 598.96,-191.77 610.89,-195.44 621.63,-198.79"/>
<polygon fill="#63b8ff" stroke="#63b8ff" points="620.9,-202.23 631.49,-201.88 622.99,-195.55 620.9,-202.23"/>
</a>
</g>
</g>
<!-- Node10 -->
<g id="Node000010" class="node">
<title>Node10</title>
<g id="a_Node000010"><a xlink:href="math_8h.html#a37bde043e94a6f074c78f10518fb5d99" target="_top" xlink:title=" ">
<polygon fill="white" stroke="#666666" points="676,-179 637,-179 637,-160 676,-160 676,-179"/>
<text text-anchor="middle" x="656.5" y="-167" font-family="Helvetica,sans-Serif" font-size="10.00">sqrtf</text>
</a>
</g>
</g>
<!-- Node7&#45;&gt;Node10 -->
<g id="edge9_Node000007_Node000010" class="edge">
<title>Node7&#45;&gt;Node10</title>
<g id="a_edge9_Node000007_Node000010"><a xlink:title=" ">
<path fill="none" stroke="#63b8ff" d="M567.24,-169.5C586.96,-169.5 609.41,-169.5 626.74,-169.5"/>
<polygon fill="#63b8ff" stroke="#63b8ff" points="626.79,-173 636.79,-169.5 626.79,-166 626.79,-173"/>
</a>
</g>
</g>
<!-- Node9 -->
<g id="Node000009" class="node">
<title>Node9</title>
<g id="a_Node000009"><a xlink:href="math__util_8c.html#a0273b0ea0783a06996c28669a7438ed9" target="_top" xlink:title=" ">
<polygon fill="white" stroke="#666666" points="807,-219 725,-219 725,-200 807,-200 807,-219"/>
<text text-anchor="middle" x="766" y="-207" font-family="Helvetica,sans-Serif" font-size="10.00">atan2_lookup</text>
</a>
</g>
</g>
<!-- Node8&#45;&gt;Node9 -->
<g id="edge8_Node000008_Node000009" class="edge">
<title>Node8&#45;&gt;Node9</title>
<g id="a_edge8_Node000008_Node000009"><a xlink:title=" ">
<path fill="none" stroke="#63b8ff" d="M681.63,-209.5C691.49,-209.5 703.29,-209.5 714.86,-209.5"/>
<polygon fill="#63b8ff" stroke="#63b8ff" points="714.92,-213 724.92,-209.5 714.92,-206 714.92,-213"/>
</a>
</g>
</g>
<!-- Node11&#45;&gt;Node8 -->
<g id="edge11_Node000011_Node000008" class="edge">
<title>Node11&#45;&gt;Node8</title>
<g id="a_edge11_Node000011_Node000008"><a xlink:title=" ">
<path fill="none" stroke="#63b8ff" d="M588.11,-211.01C599.61,-210.75 611.13,-210.49 621.31,-210.27"/>
<polygon fill="#63b8ff" stroke="#63b8ff" points="621.46,-213.76 631.38,-210.04 621.3,-206.76 621.46,-213.76"/>
</a>
</g>
</g>
<!-- Node14 -->
<g id="Node000014" class="node">
<title>Node14</title>
<g id="a_Node000014"><a xlink:href="math__util_8c.html#ae69cbf5c8d4b3b0dba2d7b4d4673689f" target="_top" xlink:title=" ">
<polygon fill="white" stroke="#666666" points="539.5,-93 501.5,-93 501.5,-74 539.5,-74 539.5,-93"/>
<text text-anchor="middle" x="520.5" y="-81" font-family="Helvetica,sans-Serif" font-size="10.00">coss</text>
</a>
</g>
</g>
<!-- Node13&#45;&gt;Node14 -->
<g id="edge14_Node000013_Node000014" class="edge">
<title>Node13&#45;&gt;Node14</title>
<g id="a_edge14_Node000013_Node000014"><a xlink:title=" ">
<path fill="none" stroke="#63b8ff" d="M406.54,-71.31C435.49,-74.43 468.37,-77.98 491.16,-80.44"/>
<polygon fill="#63b8ff" stroke="#63b8ff" points="490.86,-83.93 501.18,-81.52 491.61,-76.97 490.86,-83.93"/>
</a>
</g>
</g>
<!-- Node15 -->
<g id="Node000015" class="node">
<title>Node15</title>
<g id="a_Node000015"><a xlink:href="math__util_8c.html#a19ed3bd78fd2d3e2bd0a29f6caf48545" target="_top" xlink:title=" ">
<polygon fill="white" stroke="#666666" points="538.5,-56 502.5,-56 502.5,-37 538.5,-37 538.5,-56"/>
<text text-anchor="middle" x="520.5" y="-44" font-family="Helvetica,sans-Serif" font-size="10.00">sins</text>
</a>
</g>
</g>
<!-- Node13&#45;&gt;Node15 -->
<g id="edge15_Node000013_Node000015" class="edge">
<title>Node13&#45;&gt;Node15</title>
<g id="a_edge15_Node000013_Node000015"><a xlink:title=" ">
<path fill="none" stroke="#63b8ff" d="M406.54,-58.05C436,-55.04 469.54,-51.61 492.36,-49.28"/>
<polygon fill="#63b8ff" stroke="#63b8ff" points="492.75,-52.75 502.34,-48.25 492.04,-45.79 492.75,-52.75"/>
</a>
</g>
</g>
<!-- Node18 -->
<g id="Node000018" class="node">
<title>Node18</title>
<g id="a_Node000018"><a xlink:href="math__util_8c.html#a32af0f217114736291c9ca6689138b81" target="_top" xlink:title=" ">
<polygon fill="white" stroke="#666666" points="560.5,-19 480.5,-19 480.5,0 560.5,0 560.5,-19"/>
<text text-anchor="middle" x="520.5" y="-7" font-family="Helvetica,sans-Serif" font-size="10.00">mtxf_to_mtx</text>
</a>
</g>
</g>
<!-- Node17&#45;&gt;Node18 -->
<g id="edge18_Node000017_Node000018" class="edge">
<title>Node17&#45;&gt;Node18</title>
<g id="a_edge18_Node000017_Node000018"><a xlink:title=" ">
<path fill="none" stroke="#63b8ff" d="M399.19,-21.8C421.97,-19.48 448.1,-16.8 470.18,-14.54"/>
<polygon fill="#63b8ff" stroke="#63b8ff" points="470.74,-18.01 480.33,-13.51 470.03,-11.04 470.74,-18.01"/>
</a>
</g>
</g>
<!-- Node19 -->
<g id="Node000019" class="node">
<title>Node19</title>
<g id="a_Node000019"><a xlink:href="guMtxF2L_8c.html#a40ab2d64c609839ff1e0ef0de2d0dcc4" target="_top" xlink:title=" ">
<polygon fill="white" stroke="#666666" points="689,-19 624,-19 624,0 689,0 689,-19"/>
<text text-anchor="middle" x="656.5" y="-7" font-family="Helvetica,sans-Serif" font-size="10.00">guMtxF2L</text>
</a>
</g>
</g>
<!-- Node18&#45;&gt;Node19 -->
<g id="edge19_Node000018_Node000019" class="edge">
<title>Node18&#45;&gt;Node19</title>
<g id="a_edge19_Node000018_Node000019"><a xlink:title=" ">
<path fill="none" stroke="#63b8ff" d="M560.62,-9.5C577.25,-9.5 596.67,-9.5 613.6,-9.5"/>
<polygon fill="#63b8ff" stroke="#63b8ff" points="613.77,-13 623.77,-9.5 613.77,-6 613.77,-13"/>
</a>
</g>
</g>
<!-- Node20&#45;&gt;Node5 -->
<g id="edge21_Node000020_Node000005" class="edge">
<title>Node20&#45;&gt;Node5</title>
<g id="a_edge21_Node000020_Node000005"><a xlink:title=" ">
<path fill="none" stroke="#63b8ff" d="M232.1,-109.62C245.51,-109.36 260.48,-109.07 274.94,-108.79"/>
<polygon fill="#63b8ff" stroke="#63b8ff" points="275.43,-112.28 285.36,-108.59 275.29,-105.29 275.43,-112.28"/>
</a>
</g>
</g>
<!-- Node20&#45;&gt;Node6 -->
<g id="edge22_Node000020_Node000006" class="edge">
<title>Node20&#45;&gt;Node6</title>
<g id="a_edge22_Node000020_Node000006"><a xlink:title=" ">
<path fill="none" stroke="#63b8ff" d="M223.69,-120.02C237.57,-123.62 253.51,-127.75 268,-131.5 276.62,-133.73 285.81,-136.11 294.67,-138.4"/>
<polygon fill="#63b8ff" stroke="#63b8ff" points="293.93,-141.82 304.48,-140.94 295.68,-135.05 293.93,-141.82"/>
</a>
</g>
</g>
<!-- Node20&#45;&gt;Node13 -->
<g id="edge23_Node000020_Node000013" class="edge">
<title>Node20&#45;&gt;Node13</title>
<g id="a_edge23_Node000020_Node000013"><a xlink:title=" ">
<path fill="none" stroke="#63b8ff" d="M214.22,-100.91C229.87,-95.52 249.95,-88.84 268,-83.5 275.91,-81.16 284.34,-78.83 292.57,-76.65"/>
<polygon fill="#63b8ff" stroke="#63b8ff" points="293.67,-79.98 302.45,-74.06 291.89,-73.21 293.67,-79.98"/>
</a>
</g>
</g>
<!-- Node20&#45;&gt;Node16 -->
<g id="edge24_Node000020_Node000016" class="edge">
<title>Node20&#45;&gt;Node16</title>
<g id="a_edge24_Node000020_Node000016"><a xlink:title=" ">
<path fill="none" stroke="#63b8ff" d="M213.68,-120.21C219.96,-123.07 226.44,-126.52 232,-130.5 251.17,-144.24 247.68,-157.52 268,-169.5 276.83,-174.7 287.1,-178.41 297.11,-181.04"/>
<polygon fill="#63b8ff" stroke="#63b8ff" points="296.45,-184.48 306.98,-183.34 298.04,-177.66 296.45,-184.48"/>
</a>
</g>
</g>
<!-- Node20&#45;&gt;Node17 -->
<g id="edge25_Node000020_Node000017" class="edge">
<title>Node20&#45;&gt;Node17</title>
<g id="a_edge25_Node000020_Node000017"><a xlink:title=" ">
<path fill="none" stroke="#63b8ff" d="M196.54,-100.72C210.8,-86.66 239.11,-60.85 268,-46.5 272.68,-44.18 277.66,-42.12 282.76,-40.3"/>
<polygon fill="#63b8ff" stroke="#63b8ff" points="284.2,-43.51 292.62,-37.09 282.03,-36.86 284.2,-43.51"/>
</a>
</g>
</g>
</g>
</svg>
