<?xml version="1.0" encoding="UTF-8" standalone="no"?>
<!DOCTYPE svg PUBLIC "-//W3C//DTD SVG 1.1//EN"
 "http://www.w3.org/Graphics/SVG/1.1/DTD/svg11.dtd">
<!-- Generated by graphviz version 2.43.0 (0)
 -->
<!-- Title: evaluate_destroyables_destroyables_actor_collision Pages: 1 -->
<!--zoomable 267 -->

<svg id="main" version="1.1" xmlns="http://www.w3.org/2000/svg" xmlns:xlink="http://www.w3.org/1999/xlink" xml:space="preserve" onload="init(evt)">
<style type="text/css"><![CDATA[
.node, .edge {opacity: 0.7;}
.node.selected, .edge.selected {opacity: 1;}
.edge:hover path { stroke: red; }
.edge:hover polygon { stroke: red; fill: red; }
]]></style>

<defs>
  <circle id="rim" cx="0" cy="0" r="7"/>
  <circle id="rim2" cx="0" cy="0" r="3.5"/>
  <g id="zoomPlus">
    <use xlink:href="#rim" fill="#404040"><set attributeName="fill" to="#808080" begin="zoomplus.mouseover" end="zoomplus.mouseout"/></use>
    <path d="M-4,0h8M0,-4v8" fill="none" stroke="white" stroke-width="1.5" pointer-events="none"/>
  </g>
  <g id="zoomMin">
    <use xlink:href="#rim" fill="#404040"><set attributeName="fill" to="#808080" begin="zoomminus.mouseover" end="zoomminus.mouseout"/></use>
    <path d="M-4,0h8" fill="none" stroke="white" stroke-width="1.5" pointer-events="none"/>
  </g>
  <g id="arrowUp" transform="translate(30 24)">
    <use xlink:href="#rim"/>
    <path pointer-events="none" fill="none" stroke="white" stroke-width="1.5" d="M0,-3.0v7 M-2.5,-0.5L0,-3.0L2.5,-0.5"/>
  </g>
  <g id="arrowRight" transform="rotate(90) translate(36 -43)">
    <use xlink:href="#rim"/>
    <path pointer-events="none" fill="none" stroke="white" stroke-width="1.5" d="M0,-3.0v7 M-2.5,-0.5L0,-3.0L2.5,-0.5"/>
  </g>
  <g id="arrowDown" transform="rotate(180) translate(-30 -48)">
    <use xlink:href="#rim"/>
    <path pointer-events="none" fill="none" stroke="white" stroke-width="1.5" d="M0,-3.0v7 M-2.5,-0.5L0,-3.0L2.5,-0.5"/>
  </g>
  <g id="arrowLeft" transform="rotate(270) translate(-36 17)">
    <use xlink:href="#rim"/>
    <path pointer-events="none" fill="none" stroke="white" stroke-width="1.5" d="M0,-3.0v7 M-2.5,-0.5L0,-3.0L2.5,-0.5"/>
  </g>
  <g id="resetDef">
    <use xlink:href="#rim2" fill="#404040"><set attributeName="fill" to="#808080" begin="reset.mouseover" end="reset.mouseout"/></use>
  </g>
</defs>
<script type="application/ecmascript">
var viewWidth = 1276;
var viewHeight = 267;
var sectionId = 'dynsection-29';
</script>
<script type="application/ecmascript" xlink:href="svg.min.js"/>
<svg id="graph" class="graph">
<g id="viewport">
<title>evaluate_destroyables_destroyables_actor_collision</title>
<!-- Node1 -->
<g id="Node000001" class="node">
<title>Node1</title>
<g id="a_Node000001"><a xlink:title=" ">
<polygon fill="#999999" stroke="#666666" points="161,-145.5 0,-145.5 0,-115.5 161,-115.5 161,-145.5"/>
<text text-anchor="start" x="8" y="-133.5" font-family="Helvetica,sans-Serif" font-size="10.00">evaluate_destroyables</text>
<text text-anchor="middle" x="80.5" y="-122.5" font-family="Helvetica,sans-Serif" font-size="10.00">_destroyables_actor_collision</text>
</a>
</g>
</g>
<!-- Node2 -->
<g id="Node000002" class="node">
<title>Node2</title>
<g id="a_Node000002"><a xlink:href="actors_8c.html#aa8a05da042b886824dc3490eeff72e8c" target="_top" xlink:title=" ">
<polygon fill="white" stroke="#666666" points="352,-145.5 197,-145.5 197,-115.5 352,-115.5 352,-145.5"/>
<text text-anchor="start" x="205" y="-133.5" font-family="Helvetica,sans-Serif" font-size="10.00">evaluate_actor_collision</text>
<text text-anchor="middle" x="274.5" y="-122.5" font-family="Helvetica,sans-Serif" font-size="10.00">_between_two_destroyables</text>
</a>
</g>
</g>
<!-- Node1&#45;&gt;Node2 -->
<g id="edge1_Node000001_Node000002" class="edge">
<title>Node1&#45;&gt;Node2</title>
<g id="a_edge1_Node000001_Node000002"><a xlink:title=" ">
<path fill="none" stroke="#63b8ff" d="M161.26,-130.5C169.61,-130.5 178.13,-130.5 186.55,-130.5"/>
<polygon fill="#63b8ff" stroke="#63b8ff" points="186.77,-134 196.77,-130.5 186.77,-127 186.77,-134"/>
</a>
</g>
</g>
<!-- Node3 -->
<g id="Node000003" class="node">
<title>Node3</title>
<g id="a_Node000003"><a xlink:href="actors_8c.html#a53268aa601911d56424ff08fb3395bcb" target="_top" xlink:title=" ">
<polygon fill="white" stroke="#666666" points="520.5,-121.5 401.5,-121.5 401.5,-91.5 520.5,-91.5 520.5,-121.5"/>
<text text-anchor="start" x="409.5" y="-109.5" font-family="Helvetica,sans-Serif" font-size="10.00">destroy_destructable</text>
<text text-anchor="middle" x="461" y="-98.5" font-family="Helvetica,sans-Serif" font-size="10.00">_actor</text>
</a>
</g>
</g>
<!-- Node2&#45;&gt;Node3 -->
<g id="edge2_Node000002_Node000003" class="edge">
<title>Node2&#45;&gt;Node3</title>
<g id="a_edge2_Node000002_Node000003"><a xlink:title=" ">
<path fill="none" stroke="#63b8ff" d="M352.14,-120.53C365.11,-118.84 378.5,-117.1 391.25,-115.44"/>
<polygon fill="#63b8ff" stroke="#63b8ff" points="391.86,-118.89 401.32,-114.13 390.95,-111.95 391.86,-118.89"/>
</a>
</g>
</g>
<!-- Node22 -->
<g id="Node000022" class="node">
<title>Node22</title>
<g id="a_Node000022"><a xlink:href="external_8c.html#acb60983213d09ee795e80ca3c8b5975e" target="_top" xlink:title=" ">
<polygon fill="white" stroke="#666666" points="692,-207 600,-207 600,-188 692,-188 692,-207"/>
<text text-anchor="middle" x="646" y="-195" font-family="Helvetica,sans-Serif" font-size="10.00">func_800C98B8</text>
</a>
</g>
</g>
<!-- Node2&#45;&gt;Node22 -->
<g id="edge24_Node000002_Node000022" class="edge">
<title>Node2&#45;&gt;Node22</title>
<g id="a_edge24_Node000002_Node000022"><a xlink:title=" ">
<path fill="none" stroke="#63b8ff" d="M303.74,-145.64C325.96,-156.79 358.08,-171.22 388,-178.5 456.06,-195.05 537,-198.46 589.6,-198.62"/>
<polygon fill="#63b8ff" stroke="#63b8ff" points="589.74,-202.12 599.74,-198.61 589.73,-195.12 589.74,-202.12"/>
</a>
</g>
</g>
<!-- Node23 -->
<g id="Node000023" class="node">
<title>Node23</title>
<g id="a_Node000023"><a xlink:href="actors_8c.html#a6b2e09f3baa79cf21f1cc6bd85899a7f" target="_top" xlink:title=" ">
<polygon fill="white" stroke="#666666" points="519,-73 403,-73 403,-54 519,-54 519,-73"/>
<text text-anchor="middle" x="461" y="-61" font-family="Helvetica,sans-Serif" font-size="10.00">is_two_actor_collide</text>
</a>
</g>
</g>
<!-- Node2&#45;&gt;Node23 -->
<g id="edge26_Node000002_Node000023" class="edge">
<title>Node2&#45;&gt;Node23</title>
<g id="a_edge26_Node000002_Node000023"><a xlink:title=" ">
<path fill="none" stroke="#63b8ff" d="M307.51,-115.37C329.76,-105.22 360.28,-92.01 388,-82.5 395.06,-80.08 402.59,-77.78 410.03,-75.68"/>
<polygon fill="#63b8ff" stroke="#63b8ff" points="410.98,-79.05 419.7,-73.03 409.13,-72.3 410.98,-79.05"/>
</a>
</g>
</g>
<!-- Node24 -->
<g id="Node000024" class="node">
<title>Node24</title>
<g id="a_Node000024"><a xlink:href="actors_8c.html#af3e5b62fee6bc9a92ee382ea832be03f" target="_top" xlink:title=" ">
<polygon fill="white" stroke="#666666" points="534,-169.5 388,-169.5 388,-139.5 534,-139.5 534,-169.5"/>
<text text-anchor="start" x="396" y="-157.5" font-family="Helvetica,sans-Serif" font-size="10.00">make_sound_between</text>
<text text-anchor="middle" x="461" y="-146.5" font-family="Helvetica,sans-Serif" font-size="10.00">_two_destroyables_collide</text>
</a>
</g>
</g>
<!-- Node2&#45;&gt;Node24 -->
<g id="edge27_Node000002_Node000024" class="edge">
<title>Node2&#45;&gt;Node24</title>
<g id="a_edge27_Node000002_Node000024"><a xlink:title=" ">
<path fill="none" stroke="#63b8ff" d="M352.14,-140.47C360.61,-141.57 369.26,-142.7 377.79,-143.81"/>
<polygon fill="#63b8ff" stroke="#63b8ff" points="377.37,-147.28 387.74,-145.1 378.27,-140.34 377.37,-147.28"/>
</a>
</g>
</g>
<!-- Node4 -->
<g id="Node000004" class="node">
<title>Node4</title>
<g id="a_Node000004"><a xlink:href="actors__extended_8c.html#a72ea66924941d84ae27c5e244e946842" target="_top" xlink:title=" ">
<polygon fill="white" stroke="#666666" points="706,-167.5 586,-167.5 586,-137.5 706,-137.5 706,-167.5"/>
<text text-anchor="start" x="594" y="-155.5" font-family="Helvetica,sans-Serif" font-size="10.00">destroy_a_banana_in</text>
<text text-anchor="middle" x="646" y="-144.5" font-family="Helvetica,sans-Serif" font-size="10.00">_bunch_banana</text>
</a>
</g>
</g>
<!-- Node3&#45;&gt;Node4 -->
<g id="edge3_Node000003_Node000004" class="edge">
<title>Node3&#45;&gt;Node4</title>
<g id="a_edge3_Node000003_Node000004"><a xlink:title=" ">
<path fill="none" stroke="#63b8ff" d="M520.66,-121.24C538.21,-125.66 557.62,-130.54 575.79,-135.1"/>
<polygon fill="#63b8ff" stroke="#63b8ff" points="575.18,-138.56 585.73,-137.6 576.89,-131.77 575.18,-138.56"/>
</a>
</g>
</g>
<!-- Node12 -->
<g id="Node000012" class="node">
<title>Node12</title>
<g id="a_Node000012"><a xlink:href="external_8c.html#a73831bcbe259500206651a0b4702be9f" target="_top" xlink:title=" ">
<polygon fill="white" stroke="#666666" points="692,-116 600,-116 600,-97 692,-97 692,-116"/>
<text text-anchor="middle" x="646" y="-104" font-family="Helvetica,sans-Serif" font-size="10.00">func_800C9EF4</text>
</a>
</g>
</g>
<!-- Node3&#45;&gt;Node12 -->
<g id="edge14_Node000003_Node000012" class="edge">
<title>Node3&#45;&gt;Node12</title>
<g id="a_edge14_Node000003_Node000012"><a xlink:title=" ">
<path fill="none" stroke="#63b8ff" d="M520.66,-106.5C542.77,-106.5 567.83,-106.5 589.63,-106.5"/>
<polygon fill="#63b8ff" stroke="#63b8ff" points="589.72,-110 599.72,-106.5 589.72,-103 589.72,-110"/>
</a>
</g>
</g>
<!-- Node20 -->
<g id="Node000020" class="node">
<title>Node20</title>
<g id="a_Node000020"><a xlink:href="code__80005FD0_8c.html#acb7b3d384c78d219f4b7040e78f6a2f2" target="_top" xlink:title=" ">
<polygon fill="white" stroke="#666666" points="722,-78.5 570,-78.5 570,-48.5 722,-48.5 722,-78.5"/>
<text text-anchor="start" x="578" y="-66.5" font-family="Helvetica,sans-Serif" font-size="10.00">remove_actor_in_unexpired</text>
<text text-anchor="middle" x="646" y="-55.5" font-family="Helvetica,sans-Serif" font-size="10.00">_actor_list</text>
</a>
</g>
</g>
<!-- Node3&#45;&gt;Node20 -->
<g id="edge22_Node000003_Node000020" class="edge">
<title>Node3&#45;&gt;Node20</title>
<g id="a_edge22_Node000003_Node000020"><a xlink:title=" ">
<path fill="none" stroke="#63b8ff" d="M520.66,-92.72C536.74,-88.94 554.38,-84.79 571.19,-80.84"/>
<polygon fill="#63b8ff" stroke="#63b8ff" points="572.04,-84.24 580.98,-78.54 570.44,-77.42 572.04,-84.24"/>
</a>
</g>
</g>
<!-- Node21 -->
<g id="Node000021" class="node">
<title>Node21</title>
<g id="a_Node000021"><a xlink:href="actors__extended_8c.html#a1edd6e4f2545082e3782c4ce50933c7c" target="_top" xlink:title=" ">
<polygon fill="white" stroke="#666666" points="704,-30.5 588,-30.5 588,-0.5 704,-0.5 704,-30.5"/>
<text text-anchor="start" x="596" y="-18.5" font-family="Helvetica,sans-Serif" font-size="10.00">triple_shell_actor</text>
<text text-anchor="middle" x="646" y="-7.5" font-family="Helvetica,sans-Serif" font-size="10.00">_collide_with_player</text>
</a>
</g>
</g>
<!-- Node3&#45;&gt;Node21 -->
<g id="edge23_Node000003_Node000021" class="edge">
<title>Node3&#45;&gt;Node21</title>
<g id="a_edge23_Node000003_Node000021"><a xlink:title=" ">
<path fill="none" stroke="#63b8ff" d="M517.75,-91.43C523.46,-88.87 528.99,-85.91 534,-82.5 554.6,-68.47 549.31,-53.4 570,-39.5 572.72,-37.67 575.6,-35.97 578.56,-34.4"/>
<polygon fill="#63b8ff" stroke="#63b8ff" points="580.19,-37.5 587.71,-30.04 577.18,-31.18 580.19,-37.5"/>
</a>
</g>
</g>
<!-- Node5 -->
<g id="Node000005" class="node">
<title>Node5</title>
<g id="a_Node000005"><a xlink:href="external_8c.html#a2be9efc97a92e19d02aaee90d676acc1" target="_top" xlink:title=" ">
<polygon fill="white" stroke="#666666" points="850,-240 758,-240 758,-221 850,-221 850,-240"/>
<text text-anchor="middle" x="804" y="-228" font-family="Helvetica,sans-Serif" font-size="10.00">func_800C9060</text>
</a>
</g>
</g>
<!-- Node4&#45;&gt;Node5 -->
<g id="edge4_Node000004_Node000005" class="edge">
<title>Node4&#45;&gt;Node5</title>
<g id="a_edge4_Node000004_Node000005"><a xlink:title=" ">
<path fill="none" stroke="#63b8ff" d="M697.49,-167.55C705.94,-170.94 714.42,-174.92 722,-179.5 740.57,-190.73 739.62,-200.95 758,-212.5 760.32,-213.96 762.79,-215.34 765.31,-216.64"/>
<polygon fill="#63b8ff" stroke="#63b8ff" points="764.08,-219.93 774.63,-220.97 767.03,-213.58 764.08,-219.93"/>
</a>
</g>
</g>
<!-- Node7 -->
<g id="Node000007" class="node">
<title>Node7</title>
<g id="a_Node000007"><a xlink:href="actors__extended_8c.html#ab349562338ca47f2b524137864704d0e" target="_top" xlink:title=" ">
<polygon fill="white" stroke="#666666" points="850,-185 758,-185 758,-166 850,-166 850,-185"/>
<text text-anchor="middle" x="804" y="-173" font-family="Helvetica,sans-Serif" font-size="10.00">func_802B0464</text>
</a>
</g>
</g>
<!-- Node4&#45;&gt;Node7 -->
<g id="edge6_Node000004_Node000007" class="edge">
<title>Node4&#45;&gt;Node7</title>
<g id="a_edge6_Node000004_Node000007"><a xlink:title=" ">
<path fill="none" stroke="#63b8ff" d="M706.42,-161.26C720.01,-163.26 734.39,-165.38 747.79,-167.36"/>
<polygon fill="#63b8ff" stroke="#63b8ff" points="747.41,-170.84 757.82,-168.84 748.44,-163.92 747.41,-170.84"/>
</a>
</g>
</g>
<!-- Node11 -->
<g id="Node000011" class="node">
<title>Node11</title>
<g id="a_Node000011"><a xlink:href="actors__extended_8c.html#a2f342036a9e04bb583aa7cf9c08edae9" target="_top" xlink:title=" ">
<polygon fill="white" stroke="#666666" points="850,-130 758,-130 758,-111 850,-111 850,-130"/>
<text text-anchor="middle" x="804" y="-118" font-family="Helvetica,sans-Serif" font-size="10.00">func_802B04E8</text>
</a>
</g>
</g>
<!-- Node4&#45;&gt;Node11 -->
<g id="edge11_Node000004_Node000011" class="edge">
<title>Node4&#45;&gt;Node11</title>
<g id="a_edge11_Node000004_Node000011"><a xlink:title=" ">
<path fill="none" stroke="#63b8ff" d="M706.42,-140.31C720.01,-137.52 734.39,-134.57 747.79,-131.82"/>
<polygon fill="#63b8ff" stroke="#63b8ff" points="748.73,-135.21 757.82,-129.77 747.32,-128.35 748.73,-135.21"/>
</a>
</g>
</g>
<!-- Node6 -->
<g id="Node000006" class="node">
<title>Node6</title>
<g id="a_Node000006"><a xlink:href="external_8c.html#a4227847f3da303aee53cf69d2760a595" target="_top" xlink:title=" ">
<polygon fill="white" stroke="#666666" points="992,-259 920,-259 920,-240 992,-240 992,-259"/>
<text text-anchor="middle" x="956" y="-247" font-family="Helvetica,sans-Serif" font-size="10.00">play_sound</text>
</a>
</g>
</g>
<!-- Node5&#45;&gt;Node6 -->
<g id="edge5_Node000005_Node000006" class="edge">
<title>Node5&#45;&gt;Node6</title>
<g id="a_edge5_Node000005_Node000006"><a xlink:title=" ">
<path fill="none" stroke="#63b8ff" d="M850,-236.2C868.79,-238.58 890.58,-241.34 909.43,-243.73"/>
<polygon fill="#63b8ff" stroke="#63b8ff" points="909.2,-247.23 919.56,-245.01 910.08,-240.28 909.2,-247.23"/>
</a>
</g>
</g>
<!-- Node7&#45;&gt;Node7 -->
<g id="edge10_Node000007_Node000007" class="edge">
<title>Node7&#45;&gt;Node7</title>
<g id="a_edge10_Node000007_Node000007"><a xlink:title=" ">
<path fill="none" stroke="#63b8ff" d="M780.57,-185.08C769.18,-193.73 776.98,-203 804,-203 821.73,-203 831.19,-199.01 832.37,-193.82"/>
<polygon fill="#63b8ff" stroke="#63b8ff" points="835.4,-192.06 827.43,-185.08 829.31,-195.51 835.4,-192.06"/>
</a>
</g>
</g>
<!-- Node8 -->
<g id="Node000008" class="node">
<title>Node8</title>
<g id="a_Node000008"><a xlink:href="actors__extended_8c.html#a093f702b462b6657ba7ab789941ef800" target="_top" xlink:title=" ">
<polygon fill="white" stroke="#666666" points="1002,-157 910,-157 910,-138 1002,-138 1002,-157"/>
<text text-anchor="middle" x="956" y="-145" font-family="Helvetica,sans-Serif" font-size="10.00">func_802B039C</text>
</a>
</g>
</g>
<!-- Node7&#45;&gt;Node8 -->
<g id="edge7_Node000007_Node000008" class="edge">
<title>Node7&#45;&gt;Node8</title>
<g id="a_edge7_Node000007_Node000008"><a xlink:title=" ">
<path fill="none" stroke="#63b8ff" d="M850,-167.1C865.66,-164.18 883.39,-160.87 899.77,-157.81"/>
<polygon fill="#63b8ff" stroke="#63b8ff" points="900.58,-161.22 909.77,-155.94 899.3,-154.34 900.58,-161.22"/>
</a>
</g>
</g>
<!-- Node9 -->
<g id="Node000009" class="node">
<title>Node9</title>
<g id="a_Node000009"><a xlink:href="math__util_8c.html#a151b63b8adf9af7e4054b3b84bd226dc" target="_top" xlink:title=" ">
<polygon fill="white" stroke="#666666" points="1144.5,-157 1072.5,-157 1072.5,-138 1144.5,-138 1144.5,-157"/>
<text text-anchor="middle" x="1108.5" y="-145" font-family="Helvetica,sans-Serif" font-size="10.00">random_int</text>
</a>
</g>
</g>
<!-- Node8&#45;&gt;Node9 -->
<g id="edge8_Node000008_Node000009" class="edge">
<title>Node8&#45;&gt;Node9</title>
<g id="a_edge8_Node000008_Node000009"><a xlink:title=" ">
<path fill="none" stroke="#63b8ff" d="M1002.15,-147.5C1021.15,-147.5 1043.21,-147.5 1062.21,-147.5"/>
<polygon fill="#63b8ff" stroke="#63b8ff" points="1062.42,-151 1072.42,-147.5 1062.42,-144 1062.42,-151"/>
</a>
</g>
</g>
<!-- Node10 -->
<g id="Node000010" class="node">
<title>Node10</title>
<g id="a_Node000010"><a xlink:href="math__util_8c.html#a062850863585005ad1d0a75d9ff70693" target="_top" xlink:title=" ">
<polygon fill="white" stroke="#666666" points="1268,-157 1191,-157 1191,-138 1268,-138 1268,-157"/>
<text text-anchor="middle" x="1229.5" y="-145" font-family="Helvetica,sans-Serif" font-size="10.00">random_u16</text>
</a>
</g>
</g>
<!-- Node9&#45;&gt;Node10 -->
<g id="edge9_Node000009_Node000010" class="edge">
<title>Node9&#45;&gt;Node10</title>
<g id="a_edge9_Node000009_Node000010"><a xlink:title=" ">
<path fill="none" stroke="#63b8ff" d="M1144.56,-147.5C1155.8,-147.5 1168.45,-147.5 1180.46,-147.5"/>
<polygon fill="#63b8ff" stroke="#63b8ff" points="1180.79,-151 1190.79,-147.5 1180.79,-144 1180.79,-151"/>
</a>
</g>
</g>
<!-- Node11&#45;&gt;Node8 -->
<g id="edge12_Node000011_Node000008" class="edge">
<title>Node11&#45;&gt;Node8</title>
<g id="a_edge12_Node000011_Node000008"><a xlink:title=" ">
<path fill="none" stroke="#63b8ff" d="M850,-128.6C865.66,-131.42 883.39,-134.61 899.77,-137.56"/>
<polygon fill="#63b8ff" stroke="#63b8ff" points="899.31,-141.03 909.77,-139.36 900.55,-134.14 899.31,-141.03"/>
</a>
</g>
</g>
<!-- Node11&#45;&gt;Node11 -->
<g id="edge13_Node000011_Node000011" class="edge">
<title>Node11&#45;&gt;Node11</title>
<g id="a_edge13_Node000011_Node000011"><a xlink:title=" ">
<path fill="none" stroke="#63b8ff" d="M780.57,-130.08C769.18,-138.73 776.98,-148 804,-148 821.73,-148 831.19,-144.01 832.37,-138.82"/>
<polygon fill="#63b8ff" stroke="#63b8ff" points="835.4,-137.06 827.43,-130.08 829.31,-140.51 835.4,-137.06"/>
</a>
</g>
</g>
<!-- Node13 -->
<g id="Node000013" class="node">
<title>Node13</title>
<g id="a_Node000013"><a xlink:href="external_8c.html#aeb87c527482a244173df36a1f3d4f446" target="_top" xlink:title=" ">
<polygon fill="white" stroke="#666666" points="850,-93 758,-93 758,-74 850,-74 850,-93"/>
<text text-anchor="middle" x="804" y="-81" font-family="Helvetica,sans-Serif" font-size="10.00">func_800C21E8</text>
</a>
</g>
</g>
<!-- Node12&#45;&gt;Node13 -->
<g id="edge15_Node000012_Node000013" class="edge">
<title>Node12&#45;&gt;Node13</title>
<g id="a_edge15_Node000012_Node000013"><a xlink:title=" ">
<path fill="none" stroke="#63b8ff" d="M692.12,-99.85C709.58,-97.27 729.74,-94.3 748.04,-91.6"/>
<polygon fill="#63b8ff" stroke="#63b8ff" points="748.6,-95.06 757.98,-90.14 747.58,-88.13 748.6,-95.06"/>
</a>
</g>
</g>
<!-- Node14 -->
<g id="Node000014" class="node">
<title>Node14</title>
<g id="a_Node000014"><a xlink:href="external_8c.html#a028d40421b90c38f68ebfd5acc626f2e" target="_top" xlink:title=" ">
<polygon fill="white" stroke="#666666" points="850,-56 758,-56 758,-37 850,-37 850,-56"/>
<text text-anchor="middle" x="804" y="-44" font-family="Helvetica,sans-Serif" font-size="10.00">func_800C5578</text>
</a>
</g>
</g>
<!-- Node12&#45;&gt;Node14 -->
<g id="edge16_Node000012_Node000014" class="edge">
<title>Node12&#45;&gt;Node14</title>
<g id="a_edge16_Node000012_Node000014"><a xlink:title=" ">
<path fill="none" stroke="#63b8ff" d="M692.14,-97.4C702.16,-94.74 712.59,-91.46 722,-87.5 739.28,-80.23 741.32,-74.06 758,-65.5 761.55,-63.68 765.31,-61.89 769.09,-60.17"/>
<polygon fill="#63b8ff" stroke="#63b8ff" points="770.64,-63.31 778.41,-56.1 767.84,-56.9 770.64,-63.31"/>
</a>
</g>
</g>
<!-- Node15 -->
<g id="Node000015" class="node">
<title>Node15</title>
<g id="a_Node000015"><a xlink:href="external_8c.html#ac0fb767de7e14a03f1bcfa53f0abd23b" target="_top" xlink:title=" ">
<polygon fill="white" stroke="#666666" points="1026,-93 886,-93 886,-74 1026,-74 1026,-93"/>
<text text-anchor="middle" x="956" y="-81" font-family="Helvetica,sans-Serif" font-size="10.00">delete_sound_from_bank</text>
</a>
</g>
</g>
<!-- Node14&#45;&gt;Node15 -->
<g id="edge17_Node000014_Node000015" class="edge">
<title>Node14&#45;&gt;Node15</title>
<g id="a_edge17_Node000014_Node000015"><a xlink:title=" ">
<path fill="none" stroke="#63b8ff" d="M843.63,-56.03C862.8,-60.76 886.16,-66.52 906.52,-71.54"/>
<polygon fill="#63b8ff" stroke="#63b8ff" points="905.69,-74.94 916.24,-73.94 907.37,-68.15 905.69,-74.94"/>
</a>
</g>
</g>
<!-- Node17 -->
<g id="Node000017" class="node">
<title>Node17</title>
<g id="a_Node000017"><a xlink:href="external_8c.html#ab83bd36e63f0f1baddcb2482b5ad31b0" target="_top" xlink:title=" ">
<polygon fill="white" stroke="#666666" points="1002.5,-56 909.5,-56 909.5,-37 1002.5,-37 1002.5,-56"/>
<text text-anchor="middle" x="956" y="-44" font-family="Helvetica,sans-Serif" font-size="10.00">func_800C41CC</text>
</a>
</g>
</g>
<!-- Node14&#45;&gt;Node17 -->
<g id="edge19_Node000014_Node000017" class="edge">
<title>Node14&#45;&gt;Node17</title>
<g id="a_edge19_Node000014_Node000017"><a xlink:title=" ">
<path fill="none" stroke="#63b8ff" d="M850,-46.5C865.37,-46.5 882.74,-46.5 898.86,-46.5"/>
<polygon fill="#63b8ff" stroke="#63b8ff" points="899.25,-50 909.25,-46.5 899.25,-43 899.25,-50"/>
</a>
</g>
</g>
<!-- Node18 -->
<g id="Node000018" class="node">
<title>Node18</title>
<g id="a_Node000018"><a xlink:href="port__eu_8c.html#aa89dfaecca46c6d071f08c1898d1f7c9" target="_top" xlink:title=" ">
<polygon fill="white" stroke="#666666" points="1002.5,-19 909.5,-19 909.5,0 1002.5,0 1002.5,-19"/>
<text text-anchor="middle" x="956" y="-7" font-family="Helvetica,sans-Serif" font-size="10.00">func_800CBBE8</text>
</a>
</g>
</g>
<!-- Node14&#45;&gt;Node18 -->
<g id="edge20_Node000014_Node000018" class="edge">
<title>Node14&#45;&gt;Node18</title>
<g id="a_edge20_Node000014_Node000018"><a xlink:title=" ">
<path fill="none" stroke="#63b8ff" d="M843.63,-36.97C862.8,-32.24 886.16,-26.48 906.52,-21.46"/>
<polygon fill="#63b8ff" stroke="#63b8ff" points="907.37,-24.85 916.24,-19.06 905.69,-18.06 907.37,-24.85"/>
</a>
</g>
</g>
<!-- Node16 -->
<g id="Node000016" class="node">
<title>Node16</title>
<g id="a_Node000016"><a xlink:href="external_8c.html#a358ac55e8ab5262dcae8037334be06d7" target="_top" xlink:title=" ">
<polygon fill="white" stroke="#666666" points="1154.5,-93 1062.5,-93 1062.5,-74 1154.5,-74 1154.5,-93"/>
<text text-anchor="middle" x="1108.5" y="-81" font-family="Helvetica,sans-Serif" font-size="10.00">func_800C40F0</text>
</a>
</g>
</g>
<!-- Node15&#45;&gt;Node16 -->
<g id="edge18_Node000015_Node000016" class="edge">
<title>Node15&#45;&gt;Node16</title>
<g id="a_edge18_Node000015_Node000016"><a xlink:title=" ">
<path fill="none" stroke="#63b8ff" d="M1026.08,-83.5C1034.87,-83.5 1043.78,-83.5 1052.31,-83.5"/>
<polygon fill="#63b8ff" stroke="#63b8ff" points="1052.5,-87 1062.5,-83.5 1052.5,-80 1052.5,-87"/>
</a>
</g>
</g>
<!-- Node19 -->
<g id="Node000019" class="node">
<title>Node19</title>
<g id="a_Node000019"><a xlink:href="port__eu_8c.html#af361a20d2e08f30c53a237ca481ff734" target="_top" xlink:title=" ">
<polygon fill="white" stroke="#666666" points="1155,-19 1062,-19 1062,0 1155,0 1155,-19"/>
<text text-anchor="middle" x="1108.5" y="-7" font-family="Helvetica,sans-Serif" font-size="10.00">func_800CBB48</text>
</a>
</g>
</g>
<!-- Node18&#45;&gt;Node19 -->
<g id="edge21_Node000018_Node000019" class="edge">
<title>Node18&#45;&gt;Node19</title>
<g id="a_edge21_Node000018_Node000019"><a xlink:title=" ">
<path fill="none" stroke="#63b8ff" d="M1002.56,-9.5C1017.96,-9.5 1035.34,-9.5 1051.46,-9.5"/>
<polygon fill="#63b8ff" stroke="#63b8ff" points="1051.83,-13 1061.83,-9.5 1051.83,-6 1051.83,-13"/>
</a>
</g>
</g>
<!-- Node22&#45;&gt;Node6 -->
<g id="edge25_Node000022_Node000006" class="edge">
<title>Node22&#45;&gt;Node6</title>
<g id="a_edge25_Node000022_Node000006"><a xlink:title=" ">
<path fill="none" stroke="#63b8ff" d="M662.03,-207.18C682.69,-219.84 721.44,-241.36 758,-249.5 809.13,-260.88 869.6,-258.65 909.93,-255.01"/>
<polygon fill="#63b8ff" stroke="#63b8ff" points="910.37,-258.48 919.98,-254.04 909.69,-251.52 910.37,-258.48"/>
</a>
</g>
</g>
<!-- Node24&#45;&gt;Node22 -->
<g id="edge28_Node000024_Node000022" class="edge">
<title>Node24&#45;&gt;Node22</title>
<g id="a_edge28_Node000024_Node000022"><a xlink:title=" ">
<path fill="none" stroke="#63b8ff" d="M526,-169.54C548.52,-174.83 573.48,-180.69 594.7,-185.68"/>
<polygon fill="#63b8ff" stroke="#63b8ff" points="593.94,-189.1 604.48,-187.98 595.54,-182.28 593.94,-189.1"/>
</a>
</g>
</g>
</g>
</svg>

<g id="navigator" transform="translate(0 0)" fill="#404254">
  <rect fill="#f2f5e9" fill-opacity="0.5" stroke="#606060" stroke-width=".5" x="0" y="0" width="60" height="60"/>
  <use id="zoomplus" xlink:href="#zoomPlus" x="17" y="9" onmousedown="handleZoom(evt,'in')"/>
  <use id="zoomminus" xlink:href="#zoomMin" x="42" y="9" onmousedown="handleZoom(evt,'out')"/>
  <use id="reset" xlink:href="#resetDef" x="30" y="36" onmousedown="handleReset()"/>
   <use id="arrowup" xlink:href="#arrowUp" x="0" y="0" onmousedown="handlePan(0,-1)"/>
  <use id="arrowright" xlink:href="#arrowRight" x="0" y="0" onmousedown="handlePan(1,0)"/>
  <use id="arrowdown" xlink:href="#arrowDown" x="0" y="0" onmousedown="handlePan(0,1)"/>
  <use id="arrowleft" xlink:href="#arrowLeft" x="0" y="0" onmousedown="handlePan(-1,0)"/>
</g>
<svg viewBox="0 0 15 15" width="100%" height="30px" preserveAspectRatio="xMaxYMin meet">
 <g id="arrow_out" transform="scale(0.3 0.3)">
  <a xlink:href="actors_8c_a122a4ed5746d7af0371fae127d008933_cgraph_org.svg" target="_base">
   <rect id="button" ry="5" rx="5" y="6" x="6" height="38" width="38"
        fill="#f2f5e9" fill-opacity="0.5" stroke="#606060" stroke-width="1.0"/>
   <path id="arrow"
     d="M 11.500037,31.436501 C 11.940474,20.09759 22.043105,11.32322 32.158766,21.979434 L 37.068811,17.246167 C 37.068811,17.246167 37.088388,32 37.088388,32 L 22.160133,31.978069 C 22.160133,31.978069 26.997745,27.140456 26.997745,27.140456 C 18.528582,18.264221 13.291696,25.230495 11.500037,31.436501 z"
     style="fill:#404040;"/>
  </a>
 </g>
</svg>

<style type='text/css'>
<![CDATA[
[data-mouse-over-selected='false'] { opacity: 0.7; }
[data-mouse-over-selected='true']  { opacity: 1.0; }
]]>
</style>
<script type="application/ecmascript"><![CDATA[
document.addEventListener('DOMContentLoaded', (event) => {
  highlightEdges();
  highlightAdjacentNodes();
});
]]></script>
</svg>
