<?xml version="1.0" encoding="UTF-8" standalone="no"?>
<!DOCTYPE svg PUBLIC "-//W3C//DTD SVG 1.1//EN"
 "http://www.w3.org/Graphics/SVG/1.1/DTD/svg11.dtd">
<!-- Generated by graphviz version 2.43.0 (0)
 -->
<!-- Title: render_item_boxs Pages: 1 -->
<!--zoomable 291 -->

<svg id="main" version="1.1" xmlns="http://www.w3.org/2000/svg" xmlns:xlink="http://www.w3.org/1999/xlink" xml:space="preserve" onload="init(evt)">
<style type="text/css"><![CDATA[
.node, .edge {opacity: 0.7;}
.node.selected, .edge.selected {opacity: 1;}
.edge:hover path { stroke: red; }
.edge:hover polygon { stroke: red; fill: red; }
]]></style>

<defs>
  <circle id="rim" cx="0" cy="0" r="7"/>
  <circle id="rim2" cx="0" cy="0" r="3.5"/>
  <g id="zoomPlus">
    <use xlink:href="#rim" fill="#404040"><set attributeName="fill" to="#808080" begin="zoomplus.mouseover" end="zoomplus.mouseout"/></use>
    <path d="M-4,0h8M0,-4v8" fill="none" stroke="white" stroke-width="1.5" pointer-events="none"/>
  </g>
  <g id="zoomMin">
    <use xlink:href="#rim" fill="#404040"><set attributeName="fill" to="#808080" begin="zoomminus.mouseover" end="zoomminus.mouseout"/></use>
    <path d="M-4,0h8" fill="none" stroke="white" stroke-width="1.5" pointer-events="none"/>
  </g>
  <g id="arrowUp" transform="translate(30 24)">
    <use xlink:href="#rim"/>
    <path pointer-events="none" fill="none" stroke="white" stroke-width="1.5" d="M0,-3.0v7 M-2.5,-0.5L0,-3.0L2.5,-0.5"/>
  </g>
  <g id="arrowRight" transform="rotate(90) translate(36 -43)">
    <use xlink:href="#rim"/>
    <path pointer-events="none" fill="none" stroke="white" stroke-width="1.5" d="M0,-3.0v7 M-2.5,-0.5L0,-3.0L2.5,-0.5"/>
  </g>
  <g id="arrowDown" transform="rotate(180) translate(-30 -48)">
    <use xlink:href="#rim"/>
    <path pointer-events="none" fill="none" stroke="white" stroke-width="1.5" d="M0,-3.0v7 M-2.5,-0.5L0,-3.0L2.5,-0.5"/>
  </g>
  <g id="arrowLeft" transform="rotate(270) translate(-36 17)">
    <use xlink:href="#rim"/>
    <path pointer-events="none" fill="none" stroke="white" stroke-width="1.5" d="M0,-3.0v7 M-2.5,-0.5L0,-3.0L2.5,-0.5"/>
  </g>
  <g id="resetDef">
    <use xlink:href="#rim2" fill="#404040"><set attributeName="fill" to="#808080" begin="reset.mouseover" end="reset.mouseout"/></use>
  </g>
</defs>
<script type="application/ecmascript">
var viewWidth = 878;
var viewHeight = 291;
var sectionId = 'dynsection-146';
</script>
<script type="application/ecmascript" xlink:href="svg.min.js"/>
<svg id="graph" class="graph">
<g id="viewport">
<title>render_item_boxs</title>
<!-- Node1 -->
<g id="Node000001" class="node">
<title>Node1</title>
<g id="a_Node000001"><a xlink:title=" ">
<polygon fill="#999999" stroke="#666666" points="104,-138 0,-138 0,-119 104,-119 104,-138"/>
<text text-anchor="middle" x="52" y="-126" font-family="Helvetica,sans-Serif" font-size="10.00">render_item_boxs</text>
</a>
</g>
</g>
<!-- Node2 -->
<g id="Node000002" class="node">
<title>Node2</title>
<g id="a_Node000002"><a xlink:href="fake__item__box_2render_8inc_8c.html#af266b20983c5e1664e5d15c1e7a952d0" target="_top" xlink:title=" ">
<polygon fill="white" stroke="#666666" points="295,-158 140,-158 140,-139 295,-139 295,-158"/>
<text text-anchor="middle" x="217.5" y="-146" font-family="Helvetica,sans-Serif" font-size="10.00">render_actor_fake_item_box</text>
</a>
</g>
</g>
<!-- Node1&#45;&gt;Node2 -->
<g id="edge1_Node000001_Node000002" class="edge">
<title>Node1&#45;&gt;Node2</title>
<g id="a_edge1_Node000001_Node000002"><a xlink:title=" ">
<path fill="none" stroke="#63b8ff" d="M104.28,-134.77C112.52,-135.78 121.23,-136.85 130.02,-137.92"/>
<polygon fill="#63b8ff" stroke="#63b8ff" points="129.6,-141.4 139.95,-139.14 130.45,-134.45 129.6,-141.4"/>
</a>
</g>
</g>
<!-- Node20 -->
<g id="Node000020" class="node">
<title>Node20</title>
<g id="a_Node000020"><a xlink:href="item__box_2render_8inc_8c.html#a7bf536a1640e0324213e474302d4b37f" target="_top" xlink:title=" ">
<polygon fill="white" stroke="#666666" points="282,-120 153,-120 153,-101 282,-101 282,-120"/>
<text text-anchor="middle" x="217.5" y="-108" font-family="Helvetica,sans-Serif" font-size="10.00">render_actor_item_box</text>
</a>
</g>
</g>
<!-- Node1&#45;&gt;Node20 -->
<g id="edge20_Node000001_Node000020" class="edge">
<title>Node1&#45;&gt;Node20</title>
<g id="a_edge20_Node000001_Node000020"><a xlink:title=" ">
<path fill="none" stroke="#63b8ff" d="M104.28,-122.85C116.4,-121.52 129.56,-120.07 142.47,-118.65"/>
<polygon fill="#63b8ff" stroke="#63b8ff" points="143.18,-122.09 152.73,-117.52 142.41,-115.14 143.18,-122.09"/>
</a>
</g>
</g>
<!-- Node3 -->
<g id="Node000003" class="node">
<title>Node3</title>
<g id="a_Node000003"><a xlink:href="actors_8c.html#a722f21cf5d8bd9594d7f461abc7c0350" target="_top" xlink:title=" ">
<polygon fill="white" stroke="#666666" points="463.5,-245.5 347.5,-245.5 347.5,-215.5 463.5,-215.5 463.5,-245.5"/>
<text text-anchor="start" x="355.5" y="-233.5" font-family="Helvetica,sans-Serif" font-size="10.00">actor_not_render_on</text>
<text text-anchor="middle" x="405.5" y="-222.5" font-family="Helvetica,sans-Serif" font-size="10.00">_a_camera</text>
</a>
</g>
</g>
<!-- Node2&#45;&gt;Node3 -->
<g id="edge2_Node000002_Node000003" class="edge">
<title>Node2&#45;&gt;Node3</title>
<g id="a_edge2_Node000002_Node000003"><a xlink:title=" ">
<path fill="none" stroke="#63b8ff" d="M234.87,-158C256.43,-170.26 295.72,-191.76 331,-206.5 335.49,-208.37 340.17,-210.2 344.92,-211.95"/>
<polygon fill="#63b8ff" stroke="#63b8ff" points="344.09,-215.37 354.68,-215.43 346.44,-208.78 344.09,-215.37"/>
</a>
</g>
</g>
<!-- Node4 -->
<g id="Node000004" class="node">
<title>Node4</title>
<g id="a_Node000004"><a xlink:href="actors_8c.html#a9d9ee571ace2dd3de226053ddab47bb1" target="_top" xlink:title=" ">
<polygon fill="white" stroke="#666666" points="480,-283 331,-283 331,-264 480,-264 480,-283"/>
<text text-anchor="middle" x="405.5" y="-271" font-family="Helvetica,sans-Serif" font-size="10.00">actor_render_on_a_camera</text>
</a>
</g>
</g>
<!-- Node2&#45;&gt;Node4 -->
<g id="edge3_Node000002_Node000004" class="edge">
<title>Node2&#45;&gt;Node4</title>
<g id="a_edge3_Node000002_Node000004"><a xlink:title=" ">
<path fill="none" stroke="#63b8ff" d="M225.79,-158.09C242.2,-178.96 284.25,-228.7 331,-254.5 335.18,-256.81 339.65,-258.84 344.24,-260.63"/>
<polygon fill="#63b8ff" stroke="#63b8ff" points="343.19,-263.97 353.78,-263.98 345.51,-257.37 343.19,-263.97"/>
</a>
</g>
</g>
<!-- Node5 -->
<g id="Node000005" class="node">
<title>Node5</title>
<g id="a_Node000005"><a xlink:href="math__util_8c.html#ab886738b799d467264e9094fcc022241" target="_top" xlink:title=" ">
<polygon fill="white" stroke="#666666" points="462.5,-122.5 348.5,-122.5 348.5,-92.5 462.5,-92.5 462.5,-122.5"/>
<text text-anchor="start" x="356.5" y="-110.5" font-family="Helvetica,sans-Serif" font-size="10.00">add_translate_mat4</text>
<text text-anchor="middle" x="405.5" y="-99.5" font-family="Helvetica,sans-Serif" font-size="10.00">_vec3f</text>
</a>
</g>
</g>
<!-- Node2&#45;&gt;Node5 -->
<g id="edge4_Node000002_Node000005" class="edge">
<title>Node2&#45;&gt;Node5</title>
<g id="a_edge4_Node000002_Node000005"><a xlink:title=" ">
<path fill="none" stroke="#63b8ff" d="M261.64,-138.99C284.38,-133.98 312.76,-127.72 338.22,-122.11"/>
<polygon fill="#63b8ff" stroke="#63b8ff" points="339.18,-125.48 348.19,-119.91 337.67,-118.65 339.18,-125.48"/>
</a>
</g>
</g>
<!-- Node6 -->
<g id="Node000006" class="node">
<title>Node6</title>
<g id="a_Node000006"><a xlink:href="math__util_8c.html#a5e1d12b8745a8d5f8d73ab366328d3cd" target="_top" xlink:title=" ">
<polygon fill="white" stroke="#666666" points="477,-160 334,-160 334,-141 477,-141 477,-160"/>
<text text-anchor="middle" x="405.5" y="-148" font-family="Helvetica,sans-Serif" font-size="10.00">is_within_render_distance</text>
</a>
</g>
</g>
<!-- Node2&#45;&gt;Node6 -->
<g id="edge5_Node000002_Node000006" class="edge">
<title>Node2&#45;&gt;Node6</title>
<g id="a_edge5_Node000002_Node000006"><a xlink:title=" ">
<path fill="none" stroke="#63b8ff" d="M295.23,-149.33C304.63,-149.43 314.27,-149.53 323.73,-149.63"/>
<polygon fill="#63b8ff" stroke="#63b8ff" points="323.88,-153.13 333.92,-149.74 323.95,-146.13 323.88,-153.13"/>
</a>
</g>
</g>
<!-- Node13 -->
<g id="Node000013" class="node">
<title>Node13</title>
<g id="a_Node000013"><a xlink:href="math__util_8c.html#a7085bb4bb08bdc39c0fa0b98f25176ef" target="_top" xlink:title=" ">
<polygon fill="white" stroke="#666666" points="469.5,-74 341.5,-74 341.5,-55 469.5,-55 469.5,-74"/>
<text text-anchor="middle" x="405.5" y="-62" font-family="Helvetica,sans-Serif" font-size="10.00">mtxf_pos_rotation_xyz</text>
</a>
</g>
</g>
<!-- Node2&#45;&gt;Node13 -->
<g id="edge13_Node000002_Node000013" class="edge">
<title>Node2&#45;&gt;Node13</title>
<g id="a_edge13_Node000002_Node000013"><a xlink:title=" ">
<path fill="none" stroke="#63b8ff" d="M275.44,-138.91C282.33,-136.45 289.03,-133.37 295,-129.5 316.78,-115.38 309.28,-97.72 331,-83.5 334.16,-81.43 337.54,-79.58 341.04,-77.94"/>
<polygon fill="#63b8ff" stroke="#63b8ff" points="342.63,-81.07 350.55,-74.04 339.97,-74.59 342.63,-81.07"/>
</a>
</g>
</g>
<!-- Node16 -->
<g id="Node000016" class="node">
<title>Node16</title>
<g id="a_Node000016"><a xlink:href="math__util_8c.html#aca95a220db79fe028b35270f35a4a7b3" target="_top" xlink:title=" ">
<polygon fill="white" stroke="#666666" points="441,-197 370,-197 370,-178 441,-178 441,-197"/>
<text text-anchor="middle" x="405.5" y="-185" font-family="Helvetica,sans-Serif" font-size="10.00">mtxf_scale</text>
</a>
</g>
</g>
<!-- Node2&#45;&gt;Node16 -->
<g id="edge16_Node000002_Node000016" class="edge">
<title>Node2&#45;&gt;Node16</title>
<g id="a_edge16_Node000002_Node000016"><a xlink:title=" ">
<path fill="none" stroke="#63b8ff" d="M264,-158.04C293.25,-164.17 331.06,-172.1 360.09,-178.19"/>
<polygon fill="#63b8ff" stroke="#63b8ff" points="359.46,-181.63 369.96,-180.26 360.9,-174.78 359.46,-181.63"/>
</a>
</g>
</g>
<!-- Node17 -->
<g id="Node000017" class="node">
<title>Node17</title>
<g id="a_Node000017"><a xlink:href="math__util_8c.html#aa23f6384122bc45f13a81ef0fa86c099" target="_top" xlink:title=" ">
<polygon fill="white" stroke="#666666" points="462,-37 349,-37 349,-18 462,-18 462,-37"/>
<text text-anchor="middle" x="405.5" y="-25" font-family="Helvetica,sans-Serif" font-size="10.00">render_set_position</text>
</a>
</g>
</g>
<!-- Node2&#45;&gt;Node17 -->
<g id="edge17_Node000002_Node000017" class="edge">
<title>Node2&#45;&gt;Node17</title>
<g id="a_edge17_Node000002_Node000017"><a xlink:title=" ">
<path fill="none" stroke="#63b8ff" d="M279.54,-139C285.13,-136.5 290.4,-133.39 295,-129.5 325.69,-103.52 300.44,-72.63 331,-46.5 333.69,-44.2 336.62,-42.18 339.71,-40.4"/>
<polygon fill="#63b8ff" stroke="#63b8ff" points="341.33,-43.5 348.79,-35.98 338.27,-37.21 341.33,-43.5"/>
</a>
</g>
</g>
<!-- Node7 -->
<g id="Node000007" class="node">
<title>Node7</title>
<g id="a_Node000007"><a xlink:href="math__util_8c.html#a07a66adf3458c156c7961b983983627a" target="_top" xlink:title=" ">
<polygon fill="white" stroke="#666666" points="630,-179 537,-179 537,-160 630,-160 630,-179"/>
<text text-anchor="middle" x="583.5" y="-167" font-family="Helvetica,sans-Serif" font-size="10.00">func_802B7CA8</text>
</a>
</g>
</g>
<!-- Node6&#45;&gt;Node7 -->
<g id="edge6_Node000006_Node000007" class="edge">
<title>Node6&#45;&gt;Node7</title>
<g id="a_edge6_Node000006_Node000007"><a xlink:title=" ">
<path fill="none" stroke="#63b8ff" d="M477.07,-158.12C493.62,-159.91 511.03,-161.78 526.83,-163.49"/>
<polygon fill="#63b8ff" stroke="#63b8ff" points="526.63,-166.99 536.95,-164.58 527.39,-160.03 526.63,-166.99"/>
</a>
</g>
</g>
<!-- Node11 -->
<g id="Node000011" class="node">
<title>Node11</title>
<g id="a_Node000011"><a xlink:href="math__util_8c.html#a84cf9d4ec33146a64c230ed4cec56632" target="_top" xlink:title=" ">
<polygon fill="white" stroke="#666666" points="651,-227.5 516,-227.5 516,-197.5 651,-197.5 651,-227.5"/>
<text text-anchor="start" x="524" y="-215.5" font-family="Helvetica,sans-Serif" font-size="10.00">get_angle_between_two</text>
<text text-anchor="middle" x="583.5" y="-204.5" font-family="Helvetica,sans-Serif" font-size="10.00">_vectors</text>
</a>
</g>
</g>
<!-- Node6&#45;&gt;Node11 -->
<g id="edge10_Node000006_Node000011" class="edge">
<title>Node6&#45;&gt;Node11</title>
<g id="a_edge10_Node000006_Node000011"><a xlink:title=" ">
<path fill="none" stroke="#63b8ff" d="M450.17,-160C460.12,-162.66 470.54,-165.84 480,-169.5 496.87,-176.03 499.45,-181.19 516,-188.5 520.09,-190.31 524.36,-192.08 528.68,-193.81"/>
<polygon fill="#63b8ff" stroke="#63b8ff" points="527.57,-197.13 538.16,-197.47 530.1,-190.6 527.57,-197.13"/>
</a>
</g>
</g>
<!-- Node12 -->
<g id="Node000012" class="node">
<title>Node12</title>
<g id="a_Node000012"><a xlink:href="math__util_8c.html#a3eb0db0895b2c11953df746ce49b782e" target="_top" xlink:title=" ">
<polygon fill="white" stroke="#666666" points="638.5,-141.5 528.5,-141.5 528.5,-111.5 638.5,-111.5 638.5,-141.5"/>
<text text-anchor="start" x="536.5" y="-129.5" font-family="Helvetica,sans-Serif" font-size="10.00">is_visible_between</text>
<text text-anchor="middle" x="583.5" y="-118.5" font-family="Helvetica,sans-Serif" font-size="10.00">_angle</text>
</a>
</g>
</g>
<!-- Node6&#45;&gt;Node12 -->
<g id="edge12_Node000006_Node000012" class="edge">
<title>Node6&#45;&gt;Node12</title>
<g id="a_edge12_Node000006_Node000012"><a xlink:title=" ">
<path fill="none" stroke="#63b8ff" d="M476.31,-140.98C490.08,-139.1 504.47,-137.14 518.05,-135.29"/>
<polygon fill="#63b8ff" stroke="#63b8ff" points="518.81,-138.72 528.25,-133.9 517.87,-131.78 518.81,-138.72"/>
</a>
</g>
</g>
<!-- Node8 -->
<g id="Node000008" class="node">
<title>Node8</title>
<g id="a_Node000008"><a xlink:href="math__util_8c.html#aaa39a297477f56051975259f4bddd829" target="_top" xlink:title=" ">
<polygon fill="white" stroke="#666666" points="744.5,-219 694.5,-219 694.5,-200 744.5,-200 744.5,-219"/>
<text text-anchor="middle" x="719.5" y="-207" font-family="Helvetica,sans-Serif" font-size="10.00">atan2s</text>
</a>
</g>
</g>
<!-- Node7&#45;&gt;Node8 -->
<g id="edge7_Node000007_Node000008" class="edge">
<title>Node7&#45;&gt;Node8</title>
<g id="a_edge7_Node000007_Node000008"><a xlink:title=" ">
<path fill="none" stroke="#63b8ff" d="M618.37,-179.01C628.85,-182 640.41,-185.34 651,-188.5 661.96,-191.77 673.89,-195.44 684.63,-198.79"/>
<polygon fill="#63b8ff" stroke="#63b8ff" points="683.9,-202.23 694.49,-201.88 685.99,-195.55 683.9,-202.23"/>
</a>
</g>
</g>
<!-- Node10 -->
<g id="Node000010" class="node">
<title>Node10</title>
<g id="a_Node000010"><a xlink:href="math_8h.html#a37bde043e94a6f074c78f10518fb5d99" target="_top" xlink:title=" ">
<polygon fill="white" stroke="#666666" points="739,-179 700,-179 700,-160 739,-160 739,-179"/>
<text text-anchor="middle" x="719.5" y="-167" font-family="Helvetica,sans-Serif" font-size="10.00">sqrtf</text>
</a>
</g>
</g>
<!-- Node7&#45;&gt;Node10 -->
<g id="edge9_Node000007_Node000010" class="edge">
<title>Node7&#45;&gt;Node10</title>
<g id="a_edge9_Node000007_Node000010"><a xlink:title=" ">
<path fill="none" stroke="#63b8ff" d="M630.24,-169.5C649.96,-169.5 672.41,-169.5 689.74,-169.5"/>
<polygon fill="#63b8ff" stroke="#63b8ff" points="689.79,-173 699.79,-169.5 689.79,-166 689.79,-173"/>
</a>
</g>
</g>
<!-- Node9 -->
<g id="Node000009" class="node">
<title>Node9</title>
<g id="a_Node000009"><a xlink:href="math__util_8c.html#a0273b0ea0783a06996c28669a7438ed9" target="_top" xlink:title=" ">
<polygon fill="white" stroke="#666666" points="870,-219 788,-219 788,-200 870,-200 870,-219"/>
<text text-anchor="middle" x="829" y="-207" font-family="Helvetica,sans-Serif" font-size="10.00">atan2_lookup</text>
</a>
</g>
</g>
<!-- Node8&#45;&gt;Node9 -->
<g id="edge8_Node000008_Node000009" class="edge">
<title>Node8&#45;&gt;Node9</title>
<g id="a_edge8_Node000008_Node000009"><a xlink:title=" ">
<path fill="none" stroke="#63b8ff" d="M744.63,-209.5C754.49,-209.5 766.29,-209.5 777.86,-209.5"/>
<polygon fill="#63b8ff" stroke="#63b8ff" points="777.92,-213 787.92,-209.5 777.92,-206 777.92,-213"/>
</a>
</g>
</g>
<!-- Node11&#45;&gt;Node8 -->
<g id="edge11_Node000011_Node000008" class="edge">
<title>Node11&#45;&gt;Node8</title>
<g id="a_edge11_Node000011_Node000008"><a xlink:title=" ">
<path fill="none" stroke="#63b8ff" d="M651.11,-211.01C662.61,-210.75 674.13,-210.49 684.31,-210.27"/>
<polygon fill="#63b8ff" stroke="#63b8ff" points="684.46,-213.76 694.38,-210.04 684.3,-206.76 684.46,-213.76"/>
</a>
</g>
</g>
<!-- Node14 -->
<g id="Node000014" class="node">
<title>Node14</title>
<g id="a_Node000014"><a xlink:href="math__util_8c.html#ae69cbf5c8d4b3b0dba2d7b4d4673689f" target="_top" xlink:title=" ">
<polygon fill="white" stroke="#666666" points="602.5,-93 564.5,-93 564.5,-74 602.5,-74 602.5,-93"/>
<text text-anchor="middle" x="583.5" y="-81" font-family="Helvetica,sans-Serif" font-size="10.00">coss</text>
</a>
</g>
</g>
<!-- Node13&#45;&gt;Node14 -->
<g id="edge14_Node000013_Node000014" class="edge">
<title>Node13&#45;&gt;Node14</title>
<g id="a_edge14_Node000013_Node000014"><a xlink:title=" ">
<path fill="none" stroke="#63b8ff" d="M469.54,-71.31C498.49,-74.43 531.37,-77.98 554.16,-80.44"/>
<polygon fill="#63b8ff" stroke="#63b8ff" points="553.86,-83.93 564.18,-81.52 554.61,-76.97 553.86,-83.93"/>
</a>
</g>
</g>
<!-- Node15 -->
<g id="Node000015" class="node">
<title>Node15</title>
<g id="a_Node000015"><a xlink:href="math__util_8c.html#a19ed3bd78fd2d3e2bd0a29f6caf48545" target="_top" xlink:title=" ">
<polygon fill="white" stroke="#666666" points="601.5,-56 565.5,-56 565.5,-37 601.5,-37 601.5,-56"/>
<text text-anchor="middle" x="583.5" y="-44" font-family="Helvetica,sans-Serif" font-size="10.00">sins</text>
</a>
</g>
</g>
<!-- Node13&#45;&gt;Node15 -->
<g id="edge15_Node000013_Node000015" class="edge">
<title>Node13&#45;&gt;Node15</title>
<g id="a_edge15_Node000013_Node000015"><a xlink:title=" ">
<path fill="none" stroke="#63b8ff" d="M469.54,-58.05C499,-55.04 532.54,-51.61 555.36,-49.28"/>
<polygon fill="#63b8ff" stroke="#63b8ff" points="555.75,-52.75 565.34,-48.25 555.04,-45.79 555.75,-52.75"/>
</a>
</g>
</g>
<!-- Node18 -->
<g id="Node000018" class="node">
<title>Node18</title>
<g id="a_Node000018"><a xlink:href="math__util_8c.html#a32af0f217114736291c9ca6689138b81" target="_top" xlink:title=" ">
<polygon fill="white" stroke="#666666" points="623.5,-19 543.5,-19 543.5,0 623.5,0 623.5,-19"/>
<text text-anchor="middle" x="583.5" y="-7" font-family="Helvetica,sans-Serif" font-size="10.00">mtxf_to_mtx</text>
</a>
</g>
</g>
<!-- Node17&#45;&gt;Node18 -->
<g id="edge18_Node000017_Node000018" class="edge">
<title>Node17&#45;&gt;Node18</title>
<g id="a_edge18_Node000017_Node000018"><a xlink:title=" ">
<path fill="none" stroke="#63b8ff" d="M462.19,-21.8C484.97,-19.48 511.1,-16.8 533.18,-14.54"/>
<polygon fill="#63b8ff" stroke="#63b8ff" points="533.74,-18.01 543.33,-13.51 533.03,-11.04 533.74,-18.01"/>
</a>
</g>
</g>
<!-- Node19 -->
<g id="Node000019" class="node">
<title>Node19</title>
<g id="a_Node000019"><a xlink:href="guMtxF2L_8c.html#a40ab2d64c609839ff1e0ef0de2d0dcc4" target="_top" xlink:title=" ">
<polygon fill="white" stroke="#666666" points="752,-19 687,-19 687,0 752,0 752,-19"/>
<text text-anchor="middle" x="719.5" y="-7" font-family="Helvetica,sans-Serif" font-size="10.00">guMtxF2L</text>
</a>
</g>
</g>
<!-- Node18&#45;&gt;Node19 -->
<g id="edge19_Node000018_Node000019" class="edge">
<title>Node18&#45;&gt;Node19</title>
<g id="a_edge19_Node000018_Node000019"><a xlink:title=" ">
<path fill="none" stroke="#63b8ff" d="M623.62,-9.5C640.25,-9.5 659.67,-9.5 676.6,-9.5"/>
<polygon fill="#63b8ff" stroke="#63b8ff" points="676.77,-13 686.77,-9.5 676.77,-6 676.77,-13"/>
</a>
</g>
</g>
<!-- Node20&#45;&gt;Node5 -->
<g id="edge21_Node000020_Node000005" class="edge">
<title>Node20&#45;&gt;Node5</title>
<g id="a_edge21_Node000020_Node000005"><a xlink:title=" ">
<path fill="none" stroke="#63b8ff" d="M282.25,-109.47C300.27,-109.18 319.92,-108.86 338.09,-108.57"/>
<polygon fill="#63b8ff" stroke="#63b8ff" points="338.36,-112.07 348.3,-108.41 338.24,-105.07 338.36,-112.07"/>
</a>
</g>
</g>
<!-- Node20&#45;&gt;Node6 -->
<g id="edge22_Node000020_Node000006" class="edge">
<title>Node20&#45;&gt;Node6</title>
<g id="a_edge22_Node000020_Node000006"><a xlink:title=" ">
<path fill="none" stroke="#63b8ff" d="M263.05,-120.08C289.28,-125.72 322.64,-132.9 350.37,-138.86"/>
<polygon fill="#63b8ff" stroke="#63b8ff" points="349.8,-142.32 360.31,-141 351.27,-135.47 349.8,-142.32"/>
</a>
</g>
</g>
<!-- Node20&#45;&gt;Node13 -->
<g id="edge23_Node000020_Node000013" class="edge">
<title>Node20&#45;&gt;Node13</title>
<g id="a_edge23_Node000020_Node000013"><a xlink:title=" ">
<path fill="none" stroke="#63b8ff" d="M257.04,-100.97C285.72,-93.88 325.07,-84.14 355.91,-76.52"/>
<polygon fill="#63b8ff" stroke="#63b8ff" points="357.14,-79.82 366.01,-74.02 355.46,-73.02 357.14,-79.82"/>
</a>
</g>
</g>
<!-- Node20&#45;&gt;Node16 -->
<g id="edge24_Node000020_Node000016" class="edge">
<title>Node20&#45;&gt;Node16</title>
<g id="a_edge24_Node000020_Node000016"><a xlink:title=" ">
<path fill="none" stroke="#63b8ff" d="M271.14,-120C279.45,-122.69 287.7,-126.12 295,-130.5 315.23,-142.64 310.68,-157.52 331,-169.5 339.83,-174.7 350.1,-178.41 360.11,-181.04"/>
<polygon fill="#63b8ff" stroke="#63b8ff" points="359.45,-184.48 369.98,-183.34 361.04,-177.66 359.45,-184.48"/>
</a>
</g>
</g>
<!-- Node20&#45;&gt;Node17 -->
<g id="edge25_Node000020_Node000017" class="edge">
<title>Node20&#45;&gt;Node17</title>
<g id="a_edge25_Node000020_Node000017"><a xlink:title=" ">
<path fill="none" stroke="#63b8ff" d="M232.45,-100.94C253.13,-87.16 293.52,-61.69 331,-46.5 336.93,-44.1 343.26,-41.92 349.62,-39.97"/>
<polygon fill="#63b8ff" stroke="#63b8ff" points="350.94,-43.23 359.58,-37.1 349,-36.51 350.94,-43.23"/>
</a>
</g>
</g>
</g>
</svg>

<g id="navigator" transform="translate(0 0)" fill="#404254">
  <rect fill="#f2f5e9" fill-opacity="0.5" stroke="#606060" stroke-width=".5" x="0" y="0" width="60" height="60"/>
  <use id="zoomplus" xlink:href="#zoomPlus" x="17" y="9" onmousedown="handleZoom(evt,'in')"/>
  <use id="zoomminus" xlink:href="#zoomMin" x="42" y="9" onmousedown="handleZoom(evt,'out')"/>
  <use id="reset" xlink:href="#resetDef" x="30" y="36" onmousedown="handleReset()"/>
   <use id="arrowup" xlink:href="#arrowUp" x="0" y="0" onmousedown="handlePan(0,-1)"/>
  <use id="arrowright" xlink:href="#arrowRight" x="0" y="0" onmousedown="handlePan(1,0)"/>
  <use id="arrowdown" xlink:href="#arrowDown" x="0" y="0" onmousedown="handlePan(0,1)"/>
  <use id="arrowleft" xlink:href="#arrowLeft" x="0" y="0" onmousedown="handlePan(-1,0)"/>
</g>
<svg viewBox="0 0 15 15" width="100%" height="30px" preserveAspectRatio="xMaxYMin meet">
 <g id="arrow_out" transform="scale(0.3 0.3)">
  <a xlink:href="actors_8h_a782709249ce9c6a087b2b77576f5dd0a_cgraph_org.svg" target="_base">
   <rect id="button" ry="5" rx="5" y="6" x="6" height="38" width="38"
        fill="#f2f5e9" fill-opacity="0.5" stroke="#606060" stroke-width="1.0"/>
   <path id="arrow"
     d="M 11.500037,31.436501 C 11.940474,20.09759 22.043105,11.32322 32.158766,21.979434 L 37.068811,17.246167 C 37.068811,17.246167 37.088388,32 37.088388,32 L 22.160133,31.978069 C 22.160133,31.978069 26.997745,27.140456 26.997745,27.140456 C 18.528582,18.264221 13.291696,25.230495 11.500037,31.436501 z"
     style="fill:#404040;"/>
  </a>
 </g>
</svg>

<style type='text/css'>
<![CDATA[
[data-mouse-over-selected='false'] { opacity: 0.7; }
[data-mouse-over-selected='true']  { opacity: 1.0; }
]]>
</style>
<script type="application/ecmascript"><![CDATA[
document.addEventListener('DOMContentLoaded', (event) => {
  highlightEdges();
  highlightAdjacentNodes();
});
]]></script>
</svg>
