<?xml version="1.0" encoding="UTF-8" standalone="no"?>
<!DOCTYPE svg PUBLIC "-//W3C//DTD SVG 1.1//EN"
 "http://www.w3.org/Graphics/SVG/1.1/DTD/svg11.dtd">
<!-- Generated by graphviz version 2.43.0 (0)
 -->
<!-- Title: src/racing/actors.h Pages: 1 -->
<svg width="3192pt" height="203pt"
 viewBox="0.00 0.00 3192.00 203.00" xmlns="http://www.w3.org/2000/svg" xmlns:xlink="http://www.w3.org/1999/xlink">
<g id="graph0" class="graph" transform="scale(1 1) rotate(0) translate(4 199)">
<title>src/racing/actors.h</title>
<!-- Node1 -->
<g id="Node000001" class="node">
<title>Node1</title>
<g id="a_Node000001"><a xlink:title=" ">
<polygon fill="#999999" stroke="#666666" points="1638,-195 1532,-195 1532,-176 1638,-176 1638,-195"/>
<text text-anchor="middle" x="1585" y="-183" font-family="Helvetica,sans-Serif" font-size="10.00">src/racing/actors.h</text>
</a>
</g>
</g>
<!-- Node2 -->
<g id="Node000002" class="node">
<title>Node2</title>
<g id="a_Node000002"><a xlink:href="cow_2render_8inc_8c.html" target="_top" xlink:title=" ">
<polygon fill="white" stroke="#666666" points="146,-134.5 0,-134.5 0,-115.5 146,-115.5 146,-134.5"/>
<text text-anchor="middle" x="73" y="-122.5" font-family="Helvetica,sans-Serif" font-size="10.00">src/actors/cow/render.inc.c</text>
</a>
</g>
</g>
<!-- Node1&#45;&gt;Node2 -->
<g id="edge1_Node000001_Node000002" class="edge">
<title>Node1&#45;&gt;Node2</title>
<g id="a_edge1_Node000001_Node000002"><a xlink:title=" ">
<path fill="none" stroke="#63b8ff" d="M1521.6,-183.6C1281.76,-180.04 429.94,-165.83 160,-140 146.6,-138.72 132.13,-136.66 118.91,-134.52"/>
<polygon fill="#63b8ff" stroke="#63b8ff" points="1521.83,-187.11 1531.88,-183.76 1521.94,-180.11 1521.83,-187.11"/>
</a>
</g>
</g>
<!-- Node3 -->
<g id="Node000003" class="node">
<title>Node3</title>
<g id="a_Node000003"><a xlink:href="actors_8c.html" target="_top" xlink:title=" ">
<polygon fill="white" stroke="#666666" points="808.5,-74 703.5,-74 703.5,-55 808.5,-55 808.5,-74"/>
<text text-anchor="middle" x="756" y="-62" font-family="Helvetica,sans-Serif" font-size="10.00">src/racing/actors.c</text>
</a>
</g>
</g>
<!-- Node1&#45;&gt;Node3 -->
<g id="edge32_Node000001_Node000003" class="edge">
<title>Node1&#45;&gt;Node3</title>
<g id="a_edge32_Node000001_Node000003"><a xlink:title=" ">
<path fill="none" stroke="#63b8ff" d="M1521.34,-184.9C1254.76,-186.26 239.74,-188.26 193,-140 183.72,-130.42 183.95,-119.79 193,-110 227.23,-72.96 570.11,-66.71 703.4,-65.69"/>
<polygon fill="#63b8ff" stroke="#63b8ff" points="1521.64,-188.4 1531.62,-184.84 1521.6,-181.4 1521.64,-188.4"/>
</a>
</g>
</g>
<!-- Node4 -->
<g id="Node000004" class="node">
<title>Node4</title>
<g id="a_Node000004"><a xlink:href="kiwano__fruit_2render_8inc_8c.html" target="_top" xlink:title=" ">
<polygon fill="white" stroke="#666666" points="330,-140 202,-140 202,-110 330,-110 330,-140"/>
<text text-anchor="start" x="210" y="-128" font-family="Helvetica,sans-Serif" font-size="10.00">src/actors/kiwano_fruit</text>
<text text-anchor="middle" x="266" y="-117" font-family="Helvetica,sans-Serif" font-size="10.00">/render.inc.c</text>
</a>
</g>
</g>
<!-- Node1&#45;&gt;Node4 -->
<g id="edge3_Node000001_Node000004" class="edge">
<title>Node1&#45;&gt;Node4</title>
<g id="a_edge3_Node000001_Node000004"><a xlink:title=" ">
<path fill="none" stroke="#63b8ff" d="M1521.61,-183.53C1301.6,-179.94 571.77,-166.32 339,-140 336.05,-139.67 333.04,-139.28 330.01,-138.85"/>
<polygon fill="#63b8ff" stroke="#63b8ff" points="1521.64,-187.03 1531.69,-183.69 1521.75,-180.03 1521.64,-187.03"/>
</a>
</g>
</g>
<!-- Node5 -->
<g id="Node000005" class="node">
<title>Node5</title>
<g id="a_Node000005"><a xlink:href="kiwano__fruit_2update_8inc_8c.html" target="_top" xlink:title=" ">
<polygon fill="white" stroke="#666666" points="476,-140 348,-140 348,-110 476,-110 476,-140"/>
<text text-anchor="start" x="356" y="-128" font-family="Helvetica,sans-Serif" font-size="10.00">src/actors/kiwano_fruit</text>
<text text-anchor="middle" x="412" y="-117" font-family="Helvetica,sans-Serif" font-size="10.00">/update.inc.c</text>
</a>
</g>
</g>
<!-- Node1&#45;&gt;Node5 -->
<g id="edge5_Node000001_Node000005" class="edge">
<title>Node1&#45;&gt;Node5</title>
<g id="a_edge5_Node000001_Node000005"><a xlink:title=" ">
<path fill="none" stroke="#63b8ff" d="M1521.62,-185.23C1352.59,-186.46 877.17,-185.28 485,-140 482.05,-139.66 479.04,-139.27 476.01,-138.84"/>
<polygon fill="#63b8ff" stroke="#63b8ff" points="1521.86,-188.73 1531.84,-185.15 1521.81,-181.73 1521.86,-188.73"/>
</a>
</g>
</g>
<!-- Node6 -->
<g id="Node000006" class="node">
<title>Node6</title>
<g id="a_Node000006"><a xlink:href="paddle__boat_2render_8inc_8c.html" target="_top" xlink:title=" ">
<polygon fill="white" stroke="#666666" points="621.5,-140 494.5,-140 494.5,-110 621.5,-110 621.5,-140"/>
<text text-anchor="start" x="502.5" y="-128" font-family="Helvetica,sans-Serif" font-size="10.00">src/actors/paddle_boat</text>
<text text-anchor="middle" x="558" y="-117" font-family="Helvetica,sans-Serif" font-size="10.00">/render.inc.c</text>
</a>
</g>
</g>
<!-- Node1&#45;&gt;Node6 -->
<g id="edge7_Node000001_Node000006" class="edge">
<title>Node1&#45;&gt;Node6</title>
<g id="a_edge7_Node000001_Node000006"><a xlink:title=" ">
<path fill="none" stroke="#63b8ff" d="M1521.6,-184.66C1368.15,-184.38 964.78,-179.59 631,-140 627.92,-139.64 624.78,-139.22 621.62,-138.76"/>
<polygon fill="#63b8ff" stroke="#63b8ff" points="1521.77,-188.16 1531.78,-184.68 1521.78,-181.16 1521.77,-188.16"/>
</a>
</g>
</g>
<!-- Node7 -->
<g id="Node000007" class="node">
<title>Node7</title>
<g id="a_Node000007"><a xlink:href="piranha__plant_2render_8inc_8c.html" target="_top" xlink:title=" ">
<polygon fill="white" stroke="#666666" points="746,-140 640,-140 640,-110 746,-110 746,-140"/>
<text text-anchor="start" x="648" y="-128" font-family="Helvetica,sans-Serif" font-size="10.00">src/actors/piranha</text>
<text text-anchor="middle" x="693" y="-117" font-family="Helvetica,sans-Serif" font-size="10.00">_plant/render.inc.c</text>
</a>
</g>
</g>
<!-- Node1&#45;&gt;Node7 -->
<g id="edge9_Node000001_Node000007" class="edge">
<title>Node1&#45;&gt;Node7</title>
<g id="a_edge9_Node000001_Node000007"><a xlink:title=" ">
<path fill="none" stroke="#63b8ff" d="M1521.71,-184.73C1382.43,-184.45 1039.12,-179.41 755,-140 752.16,-139.61 749.25,-139.15 746.33,-138.64"/>
<polygon fill="#63b8ff" stroke="#63b8ff" points="1521.78,-188.23 1531.78,-184.74 1521.79,-181.23 1521.78,-188.23"/>
</a>
</g>
</g>
<!-- Node8 -->
<g id="Node000008" class="node">
<title>Node8</title>
<g id="a_Node000008"><a xlink:href="piranha__plant_2update_8inc_8c.html" target="_top" xlink:title=" ">
<polygon fill="white" stroke="#666666" points="873.5,-140 764.5,-140 764.5,-110 873.5,-110 873.5,-140"/>
<text text-anchor="start" x="772.5" y="-128" font-family="Helvetica,sans-Serif" font-size="10.00">src/actors/piranha</text>
<text text-anchor="middle" x="819" y="-117" font-family="Helvetica,sans-Serif" font-size="10.00">_plant/update.inc.c</text>
</a>
</g>
</g>
<!-- Node1&#45;&gt;Node8 -->
<g id="edge11_Node000001_Node000008" class="edge">
<title>Node1&#45;&gt;Node8</title>
<g id="a_edge11_Node000001_Node000008"><a xlink:title=" ">
<path fill="none" stroke="#63b8ff" d="M1521.76,-183.78C1398.21,-181.66 1116.36,-173.25 882,-140 879.23,-139.61 876.39,-139.16 873.54,-138.66"/>
<polygon fill="#63b8ff" stroke="#63b8ff" points="1521.74,-187.28 1531.8,-183.95 1521.86,-180.28 1521.74,-187.28"/>
</a>
</g>
</g>
<!-- Node9 -->
<g id="Node000009" class="node">
<title>Node9</title>
<g id="a_Node000009"><a xlink:href="train_2render_8inc_8c.html" target="_top" xlink:title=" ">
<polygon fill="white" stroke="#666666" points="1040.5,-134.5 891.5,-134.5 891.5,-115.5 1040.5,-115.5 1040.5,-134.5"/>
<text text-anchor="middle" x="966" y="-122.5" font-family="Helvetica,sans-Serif" font-size="10.00">src/actors/train/render.inc.c</text>
</a>
</g>
</g>
<!-- Node1&#45;&gt;Node9 -->
<g id="edge13_Node000001_Node000009" class="edge">
<title>Node1&#45;&gt;Node9</title>
<g id="a_edge13_Node000001_Node000009"><a xlink:title=" ">
<path fill="none" stroke="#63b8ff" d="M1521.42,-180.91C1421.02,-174.85 1219.72,-161.17 1050,-140 1037.97,-138.5 1025.03,-136.52 1012.99,-134.53"/>
<polygon fill="#63b8ff" stroke="#63b8ff" points="1521.5,-184.42 1531.7,-181.52 1521.92,-177.43 1521.5,-184.42"/>
</a>
</g>
</g>
<!-- Node10 -->
<g id="Node000010" class="node">
<title>Node10</title>
<g id="a_Node000010"><a xlink:href="train_2update_8inc_8c.html" target="_top" xlink:title=" ">
<polygon fill="white" stroke="#666666" points="1211,-134.5 1059,-134.5 1059,-115.5 1211,-115.5 1211,-134.5"/>
<text text-anchor="middle" x="1135" y="-122.5" font-family="Helvetica,sans-Serif" font-size="10.00">src/actors/train/update.inc.c</text>
</a>
</g>
</g>
<!-- Node1&#45;&gt;Node10 -->
<g id="edge15_Node000001_Node000010" class="edge">
<title>Node1&#45;&gt;Node10</title>
<g id="a_edge15_Node000001_Node000010"><a xlink:title=" ">
<path fill="none" stroke="#63b8ff" d="M1521.77,-177.61C1448.91,-169.47 1325.62,-155.13 1220,-140 1208.6,-138.37 1196.37,-136.45 1184.84,-134.57"/>
<polygon fill="#63b8ff" stroke="#63b8ff" points="1521.39,-181.08 1531.71,-178.71 1522.16,-174.13 1521.39,-181.08"/>
</a>
</g>
</g>
<!-- Node11 -->
<g id="Node000011" class="node">
<title>Node11</title>
<g id="a_Node000011"><a xlink:href="tree_2render_8inc_8c.html" target="_top" xlink:title=" ">
<polygon fill="white" stroke="#666666" points="1375,-134.5 1229,-134.5 1229,-115.5 1375,-115.5 1375,-134.5"/>
<text text-anchor="middle" x="1302" y="-122.5" font-family="Helvetica,sans-Serif" font-size="10.00">src/actors/tree/render.inc.c</text>
</a>
</g>
</g>
<!-- Node1&#45;&gt;Node11 -->
<g id="edge17_Node000001_Node000011" class="edge">
<title>Node1&#45;&gt;Node11</title>
<g id="a_edge17_Node000001_Node000011"><a xlink:title=" ">
<path fill="none" stroke="#63b8ff" d="M1534.03,-173.96C1479.4,-162.67 1393.73,-144.96 1343.2,-134.52"/>
<polygon fill="#63b8ff" stroke="#63b8ff" points="1533.35,-177.4 1543.85,-175.99 1534.76,-170.54 1533.35,-177.4"/>
</a>
</g>
</g>
<!-- Node12 -->
<g id="Node000012" class="node">
<title>Node12</title>
<g id="a_Node000012"><a xlink:href="yoshi__egg_2render_8inc_8c.html" target="_top" xlink:title=" ">
<polygon fill="white" stroke="#666666" points="1509,-140 1393,-140 1393,-110 1509,-110 1509,-140"/>
<text text-anchor="start" x="1401" y="-128" font-family="Helvetica,sans-Serif" font-size="10.00">src/actors/yoshi_egg</text>
<text text-anchor="middle" x="1451" y="-117" font-family="Helvetica,sans-Serif" font-size="10.00">/render.inc.c</text>
</a>
</g>
</g>
<!-- Node1&#45;&gt;Node12 -->
<g id="edge19_Node000001_Node000012" class="edge">
<title>Node1&#45;&gt;Node12</title>
<g id="a_edge19_Node000001_Node000012"><a xlink:title=" ">
<path fill="none" stroke="#63b8ff" d="M1556.26,-171.95C1534.8,-162.59 1505.47,-149.78 1483.22,-140.06"/>
<polygon fill="#63b8ff" stroke="#63b8ff" points="1554.95,-175.2 1565.52,-175.99 1557.75,-168.78 1554.95,-175.2"/>
</a>
</g>
</g>
<!-- Node13 -->
<g id="Node000013" class="node">
<title>Node13</title>
<g id="a_Node000013"><a xlink:href="yoshi__egg_2update_8inc_8c.html" target="_top" xlink:title=" ">
<polygon fill="white" stroke="#666666" points="1643,-140 1527,-140 1527,-110 1643,-110 1643,-140"/>
<text text-anchor="start" x="1535" y="-128" font-family="Helvetica,sans-Serif" font-size="10.00">src/actors/yoshi_egg</text>
<text text-anchor="middle" x="1585" y="-117" font-family="Helvetica,sans-Serif" font-size="10.00">/update.inc.c</text>
</a>
</g>
</g>
<!-- Node1&#45;&gt;Node13 -->
<g id="edge21_Node000001_Node000013" class="edge">
<title>Node1&#45;&gt;Node13</title>
<g id="a_edge21_Node000001_Node000013"><a xlink:title=" ">
<path fill="none" stroke="#63b8ff" d="M1585,-165.65C1585,-157.36 1585,-147.78 1585,-140.11"/>
<polygon fill="#63b8ff" stroke="#63b8ff" points="1581.5,-165.87 1585,-175.87 1588.5,-165.87 1581.5,-165.87"/>
</a>
</g>
</g>
<!-- Node14 -->
<g id="Node000014" class="node">
<title>Node14</title>
<g id="a_Node000014"><a xlink:href="code__800029B0_8c.html" target="_top" xlink:title=" ">
<polygon fill="white" stroke="#666666" points="1780.5,-134.5 1661.5,-134.5 1661.5,-115.5 1780.5,-115.5 1780.5,-134.5"/>
<text text-anchor="middle" x="1721" y="-122.5" font-family="Helvetica,sans-Serif" font-size="10.00">src/code_800029B0.c</text>
</a>
</g>
</g>
<!-- Node1&#45;&gt;Node14 -->
<g id="edge23_Node000001_Node000014" class="edge">
<title>Node1&#45;&gt;Node14</title>
<g id="a_edge23_Node000001_Node000014"><a xlink:title=" ">
<path fill="none" stroke="#63b8ff" d="M1614.22,-171.93C1640.48,-160.64 1678.33,-144.36 1701.2,-134.52"/>
<polygon fill="#63b8ff" stroke="#63b8ff" points="1612.58,-168.83 1604.78,-175.99 1615.34,-175.26 1612.58,-168.83"/>
</a>
</g>
</g>
<!-- Node15 -->
<g id="Node000015" class="node">
<title>Node15</title>
<g id="a_Node000015"><a xlink:href="code__80005FD0_8c.html" target="_top" xlink:title=" ">
<polygon fill="white" stroke="#666666" points="1919,-134.5 1799,-134.5 1799,-115.5 1919,-115.5 1919,-134.5"/>
<text text-anchor="middle" x="1859" y="-122.5" font-family="Helvetica,sans-Serif" font-size="10.00">src/code_80005FD0.c</text>
</a>
</g>
</g>
<!-- Node1&#45;&gt;Node15 -->
<g id="edge24_Node000001_Node000015" class="edge">
<title>Node1&#45;&gt;Node15</title>
<g id="a_edge24_Node000001_Node000015"><a xlink:title=" ">
<path fill="none" stroke="#63b8ff" d="M1634.68,-173.89C1687.59,-162.6 1770.28,-144.94 1819.11,-134.52"/>
<polygon fill="#63b8ff" stroke="#63b8ff" points="1633.89,-170.48 1624.84,-175.99 1635.35,-177.33 1633.89,-170.48"/>
</a>
</g>
</g>
<!-- Node16 -->
<g id="Node000016" class="node">
<title>Node16</title>
<g id="a_Node000016"><a xlink:href="code__80057C60_8c.html" target="_top" xlink:title=" ">
<polygon fill="white" stroke="#666666" points="2056.5,-134.5 1937.5,-134.5 1937.5,-115.5 2056.5,-115.5 2056.5,-134.5"/>
<text text-anchor="middle" x="1997" y="-122.5" font-family="Helvetica,sans-Serif" font-size="10.00">src/code_80057C60.c</text>
</a>
</g>
</g>
<!-- Node1&#45;&gt;Node16 -->
<g id="edge25_Node000001_Node000016" class="edge">
<title>Node1&#45;&gt;Node16</title>
<g id="a_edge25_Node000001_Node000016"><a xlink:title=" ">
<path fill="none" stroke="#63b8ff" d="M1648.32,-177.65C1717.3,-169.87 1830.81,-156.14 1928,-140 1937.53,-138.42 1947.74,-136.48 1957.32,-134.55"/>
<polygon fill="#63b8ff" stroke="#63b8ff" points="1647.6,-174.21 1638.06,-178.8 1648.38,-181.17 1647.6,-174.21"/>
</a>
</g>
</g>
<!-- Node17 -->
<g id="Node000017" class="node">
<title>Node17</title>
<g id="a_Node000017"><a xlink:href="all__variables_8h.html" target="_top" xlink:title=" ">
<polygon fill="white" stroke="#666666" points="2213,-134.5 2075,-134.5 2075,-115.5 2213,-115.5 2213,-134.5"/>
<text text-anchor="middle" x="2144" y="-122.5" font-family="Helvetica,sans-Serif" font-size="10.00">src/debug/all_variables.h</text>
</a>
</g>
</g>
<!-- Node1&#45;&gt;Node17 -->
<g id="edge26_Node000001_Node000017" class="edge">
<title>Node1&#45;&gt;Node17</title>
<g id="a_edge26_Node000001_Node000017"><a xlink:title=" ">
<path fill="none" stroke="#63b8ff" d="M1648.06,-180.33C1739.99,-173.87 1916.1,-160.06 2065,-140 2076.18,-138.49 2088.2,-136.54 2099.4,-134.57"/>
<polygon fill="#63b8ff" stroke="#63b8ff" points="1647.81,-176.84 1638.08,-181.02 1648.3,-183.82 1647.81,-176.84"/>
</a>
</g>
</g>
<!-- Node20 -->
<g id="Node000020" class="node">
<title>Node20</title>
<g id="a_Node000020"><a xlink:href="code__80280000_8c.html" target="_top" xlink:title=" ">
<polygon fill="white" stroke="#666666" points="2386.5,-134.5 2231.5,-134.5 2231.5,-115.5 2386.5,-115.5 2386.5,-134.5"/>
<text text-anchor="middle" x="2309" y="-122.5" font-family="Helvetica,sans-Serif" font-size="10.00">src/ending/code_80280000.c</text>
</a>
</g>
</g>
<!-- Node1&#45;&gt;Node20 -->
<g id="edge29_Node000001_Node000020" class="edge">
<title>Node1&#45;&gt;Node20</title>
<g id="a_edge29_Node000001_Node000020"><a xlink:title=" ">
<path fill="none" stroke="#63b8ff" d="M1648.44,-181.96C1763.18,-176.94 2012.73,-164.1 2222,-140 2234.61,-138.55 2248.19,-136.57 2260.79,-134.55"/>
<polygon fill="#63b8ff" stroke="#63b8ff" points="1648.26,-178.46 1638.42,-182.39 1648.56,-185.46 1648.26,-178.46"/>
</a>
</g>
</g>
<!-- Node21 -->
<g id="Node000021" class="node">
<title>Node21</title>
<g id="a_Node000021"><a xlink:href="main_8c.html" target="_top" xlink:title=" ">
<polygon fill="white" stroke="#666666" points="2471.5,-134.5 2404.5,-134.5 2404.5,-115.5 2471.5,-115.5 2471.5,-134.5"/>
<text text-anchor="middle" x="2438" y="-122.5" font-family="Helvetica,sans-Serif" font-size="10.00">src/main.c</text>
</a>
</g>
</g>
<!-- Node1&#45;&gt;Node21 -->
<g id="edge30_Node000001_Node000021" class="edge">
<title>Node1&#45;&gt;Node21</title>
<g id="a_edge30_Node000001_Node000021"><a xlink:title=" ">
<path fill="none" stroke="#63b8ff" d="M1648.57,-183.2C1813.66,-179.47 2253.09,-167.23 2396,-140 2402.64,-138.73 2409.68,-136.68 2416.06,-134.54"/>
<polygon fill="#63b8ff" stroke="#63b8ff" points="1648.02,-179.71 1638.1,-183.43 1648.17,-186.71 1648.02,-179.71"/>
</a>
</g>
</g>
<!-- Node22 -->
<g id="Node000022" class="node">
<title>Node22</title>
<g id="a_Node000022"><a xlink:href="menus_8c.html" target="_top" xlink:title=" ">
<polygon fill="white" stroke="#666666" points="2564.5,-134.5 2489.5,-134.5 2489.5,-115.5 2564.5,-115.5 2564.5,-134.5"/>
<text text-anchor="middle" x="2527" y="-122.5" font-family="Helvetica,sans-Serif" font-size="10.00">src/menus.c</text>
</a>
</g>
</g>
<!-- Node1&#45;&gt;Node22 -->
<g id="edge31_Node000001_Node000022" class="edge">
<title>Node1&#45;&gt;Node22</title>
<g id="a_edge31_Node000001_Node000022"><a xlink:title=" ">
<path fill="none" stroke="#63b8ff" d="M1648.4,-183.37C1825.1,-179.92 2320.69,-167.94 2481,-140 2488.24,-138.74 2495.93,-136.69 2502.92,-134.55"/>
<polygon fill="#63b8ff" stroke="#63b8ff" points="1648.15,-179.88 1638.22,-183.57 1648.29,-186.88 1648.15,-179.88"/>
</a>
</g>
</g>
<!-- Node23 -->
<g id="Node000023" class="node">
<title>Node23</title>
<g id="a_Node000023"><a xlink:href="actors__extended_8c.html" target="_top" xlink:title=" ">
<polygon fill="white" stroke="#666666" points="2739,-134.5 2583,-134.5 2583,-115.5 2739,-115.5 2739,-134.5"/>
<text text-anchor="middle" x="2661" y="-122.5" font-family="Helvetica,sans-Serif" font-size="10.00">src/racing/actors_extended.c</text>
</a>
</g>
</g>
<!-- Node1&#45;&gt;Node23 -->
<g id="edge33_Node000001_Node000023" class="edge">
<title>Node1&#45;&gt;Node23</title>
<g id="a_edge33_Node000001_Node000023"><a xlink:title=" ">
<path fill="none" stroke="#63b8ff" d="M1648.65,-184.16C1806.04,-182.77 2225.94,-175.72 2574,-140 2587.09,-138.66 2601.2,-136.64 2614.17,-134.54"/>
<polygon fill="#63b8ff" stroke="#63b8ff" points="1648.2,-180.66 1638.23,-184.25 1648.25,-187.66 1648.2,-180.66"/>
</a>
</g>
</g>
<!-- Node24 -->
<g id="Node000024" class="node">
<title>Node24</title>
<g id="a_Node000024"><a xlink:href="render__courses_8c.html" target="_top" xlink:title=" ">
<polygon fill="white" stroke="#666666" points="2906.5,-134.5 2757.5,-134.5 2757.5,-115.5 2906.5,-115.5 2906.5,-134.5"/>
<text text-anchor="middle" x="2832" y="-122.5" font-family="Helvetica,sans-Serif" font-size="10.00">src/racing/render_courses.c</text>
</a>
</g>
</g>
<!-- Node1&#45;&gt;Node24 -->
<g id="edge34_Node000001_Node000024" class="edge">
<title>Node1&#45;&gt;Node24</title>
<g id="a_edge34_Node000001_Node000024"><a xlink:title=" ">
<path fill="none" stroke="#63b8ff" d="M1648.28,-184.89C1823.54,-185.38 2329.93,-182.66 2748,-140 2760.8,-138.69 2774.6,-136.66 2787.24,-134.54"/>
<polygon fill="#63b8ff" stroke="#63b8ff" points="1648.21,-181.39 1638.2,-184.86 1648.19,-188.39 1648.21,-181.39"/>
</a>
</g>
</g>
<!-- Node25 -->
<g id="Node000025" class="node">
<title>Node25</title>
<g id="a_Node000025"><a xlink:href="skybox__and__splitscreen_8c.html" target="_top" xlink:title=" ">
<polygon fill="white" stroke="#666666" points="3049.5,-140 2924.5,-140 2924.5,-110 3049.5,-110 3049.5,-140"/>
<text text-anchor="start" x="2932.5" y="-128" font-family="Helvetica,sans-Serif" font-size="10.00">src/racing/skybox_and</text>
<text text-anchor="middle" x="2987" y="-117" font-family="Helvetica,sans-Serif" font-size="10.00">_splitscreen.c</text>
</a>
</g>
</g>
<!-- Node1&#45;&gt;Node25 -->
<g id="edge35_Node000001_Node000025" class="edge">
<title>Node1&#45;&gt;Node25</title>
<g id="a_edge35_Node000001_Node000025"><a xlink:title=" ">
<path fill="none" stroke="#63b8ff" d="M1648.42,-183.74C1878.09,-180.76 2665.88,-168.65 2916,-140 2918.75,-139.69 2921.54,-139.32 2924.37,-138.92"/>
<polygon fill="#63b8ff" stroke="#63b8ff" points="1648.19,-180.24 1638.23,-183.87 1648.28,-187.24 1648.19,-180.24"/>
</a>
</g>
</g>
<!-- Node26 -->
<g id="Node000026" class="node">
<title>Node26</title>
<g id="a_Node000026"><a xlink:href="update__objects_8c.html" target="_top" xlink:title=" ">
<polygon fill="white" stroke="#666666" points="3184,-134.5 3068,-134.5 3068,-115.5 3184,-115.5 3184,-134.5"/>
<text text-anchor="middle" x="3126" y="-122.5" font-family="Helvetica,sans-Serif" font-size="10.00">src/update_objects.c</text>
</a>
</g>
</g>
<!-- Node1&#45;&gt;Node26 -->
<g id="edge36_Node000001_Node000026" class="edge">
<title>Node1&#45;&gt;Node26</title>
<g id="a_edge36_Node000001_Node000026"><a xlink:title=" ">
<path fill="none" stroke="#63b8ff" d="M1648.18,-184.07C1893.03,-182.18 2779.54,-173.15 3059,-140 3069.5,-138.75 3080.8,-136.68 3091.07,-134.51"/>
<polygon fill="#63b8ff" stroke="#63b8ff" points="1648.01,-180.57 1638.03,-184.15 1648.06,-187.57 1648.01,-180.57"/>
</a>
</g>
</g>
<!-- Node2&#45;&gt;Node3 -->
<g id="edge2_Node000002_Node000003" class="edge">
<title>Node2&#45;&gt;Node3</title>
<g id="a_edge2_Node000002_Node000003"><a xlink:title=" ">
<path fill="none" stroke="#63b8ff" d="M131.12,-113.95C140.75,-112.48 150.64,-111.1 160,-110 359.92,-86.49 599.11,-73.06 703.24,-67.93"/>
<polygon fill="#63b8ff" stroke="#63b8ff" points="130.56,-110.49 121.22,-115.49 131.64,-117.41 130.56,-110.49"/>
</a>
</g>
</g>
<!-- Node4&#45;&gt;Node3 -->
<g id="edge4_Node000004_Node000003" class="edge">
<title>Node4&#45;&gt;Node3</title>
<g id="a_edge4_Node000004_Node000003"><a xlink:title=" ">
<path fill="none" stroke="#63b8ff" d="M340.28,-109.89C477.03,-89.86 626.19,-76.18 703.49,-69.69"/>
<polygon fill="#63b8ff" stroke="#63b8ff" points="339.42,-106.48 330.04,-111.41 340.45,-113.4 339.42,-106.48"/>
</a>
</g>
</g>
<!-- Node5&#45;&gt;Node3 -->
<g id="edge6_Node000005_Node000003" class="edge">
<title>Node5&#45;&gt;Node3</title>
<g id="a_edge6_Node000005_Node000003"><a xlink:title=" ">
<path fill="none" stroke="#63b8ff" d="M486.02,-109.85C567.64,-95.41 650.96,-81.99 703.47,-73.7"/>
<polygon fill="#63b8ff" stroke="#63b8ff" points="485.31,-106.42 476.08,-111.61 486.53,-113.31 485.31,-106.42"/>
</a>
</g>
</g>
<!-- Node6&#45;&gt;Node3 -->
<g id="edge8_Node000006_Node000003" class="edge">
<title>Node6&#45;&gt;Node3</title>
<g id="a_edge8_Node000006_Node000003"><a xlink:title=" ">
<path fill="none" stroke="#63b8ff" d="M615.48,-107.02C652.06,-96.21 697.87,-82.67 727.05,-74.05"/>
<polygon fill="#63b8ff" stroke="#63b8ff" points="614.02,-103.8 605.43,-109.99 616.01,-110.51 614.02,-103.8"/>
</a>
</g>
</g>
<!-- Node7&#45;&gt;Node3 -->
<g id="edge10_Node000007_Node000003" class="edge">
<title>Node7&#45;&gt;Node3</title>
<g id="a_edge10_Node000007_Node000003"><a xlink:title=" ">
<path fill="none" stroke="#63b8ff" d="M715.66,-102.96C726.3,-93.07 738.41,-81.83 746.56,-74.27"/>
<polygon fill="#63b8ff" stroke="#63b8ff" points="713.2,-100.47 708.25,-109.84 717.96,-105.6 713.2,-100.47"/>
</a>
</g>
</g>
<!-- Node8&#45;&gt;Node3 -->
<g id="edge12_Node000008_Node000003" class="edge">
<title>Node8&#45;&gt;Node3</title>
<g id="a_edge12_Node000008_Node000003"><a xlink:title=" ">
<path fill="none" stroke="#63b8ff" d="M796.34,-102.96C785.7,-93.07 773.59,-81.83 765.44,-74.27"/>
<polygon fill="#63b8ff" stroke="#63b8ff" points="794.04,-105.6 803.75,-109.84 798.8,-100.47 794.04,-105.6"/>
</a>
</g>
</g>
<!-- Node9&#45;&gt;Node3 -->
<g id="edge14_Node000009_Node000003" class="edge">
<title>Node9&#45;&gt;Node3</title>
<g id="a_edge14_Node000009_Node000003"><a xlink:title=" ">
<path fill="none" stroke="#63b8ff" d="M925.62,-112.75C885.01,-101.44 823.29,-84.25 786.57,-74.02"/>
<polygon fill="#63b8ff" stroke="#63b8ff" points="924.89,-116.18 935.46,-115.49 926.77,-109.44 924.89,-116.18"/>
</a>
</g>
</g>
<!-- Node10&#45;&gt;Node3 -->
<g id="edge16_Node000010_Node000003" class="edge">
<title>Node10&#45;&gt;Node3</title>
<g id="a_edge16_Node000010_Node000003"><a xlink:title=" ">
<path fill="none" stroke="#63b8ff" d="M1073.29,-113.87C1065.12,-112.56 1056.86,-111.24 1049,-110 965.01,-96.79 867.36,-82.09 808.69,-73.33"/>
<polygon fill="#63b8ff" stroke="#63b8ff" points="1072.74,-117.33 1083.17,-115.47 1073.86,-110.42 1072.74,-117.33"/>
</a>
</g>
</g>
<!-- Node11&#45;&gt;Node3 -->
<g id="edge18_Node000011_Node000003" class="edge">
<title>Node11&#45;&gt;Node3</title>
<g id="a_edge18_Node000011_Node000003"><a xlink:title=" ">
<path fill="none" stroke="#63b8ff" d="M1245.72,-113.83C1237.12,-112.44 1228.33,-111.11 1220,-110 1071.4,-90.22 894.89,-75.76 808.68,-69.28"/>
<polygon fill="#63b8ff" stroke="#63b8ff" points="1245.25,-117.3 1255.69,-115.48 1246.4,-110.39 1245.25,-117.3"/>
</a>
</g>
</g>
<!-- Node12&#45;&gt;Node3 -->
<g id="edge20_Node000012_Node000003" class="edge">
<title>Node12&#45;&gt;Node3</title>
<g id="a_edge20_Node000012_Node000003"><a xlink:title=" ">
<path fill="none" stroke="#63b8ff" d="M1382.93,-109.99C1164.4,-80.18 915.43,-70.04 808.77,-66.83"/>
<polygon fill="#63b8ff" stroke="#63b8ff" points="1382.59,-113.47 1392.98,-111.38 1383.55,-106.54 1382.59,-113.47"/>
</a>
</g>
</g>
<!-- Node13&#45;&gt;Node3 -->
<g id="edge22_Node000013_Node000003" class="edge">
<title>Node13&#45;&gt;Node3</title>
<g id="a_edge22_Node000013_Node000003"><a xlink:title=" ">
<path fill="none" stroke="#63b8ff" d="M1516.94,-110.01C1245.52,-74.63 931.69,-67.43 808.91,-65.91"/>
<polygon fill="#63b8ff" stroke="#63b8ff" points="1516.61,-113.49 1526.99,-111.33 1517.53,-106.55 1516.61,-113.49"/>
</a>
</g>
</g>
<!-- Node18 -->
<g id="Node000018" class="node">
<title>Node18</title>
<g id="a_Node000018"><a xlink:href="debug_8inc_8c.html" target="_top" xlink:title=" ">
<polygon fill="white" stroke="#666666" points="2205,-74 2083,-74 2083,-55 2205,-55 2205,-74"/>
<text text-anchor="middle" x="2144" y="-62" font-family="Helvetica,sans-Serif" font-size="10.00">src/debug/debug.inc.c</text>
</a>
</g>
</g>
<!-- Node17&#45;&gt;Node18 -->
<g id="edge27_Node000017_Node000018" class="edge">
<title>Node17&#45;&gt;Node18</title>
<g id="a_edge27_Node000017_Node000018"><a xlink:title=" ">
<path fill="none" stroke="#63b8ff" d="M2144,-105.16C2144,-94.74 2144,-82.3 2144,-74.17"/>
<polygon fill="#63b8ff" stroke="#63b8ff" points="2140.5,-105.37 2144,-115.37 2147.5,-105.37 2140.5,-105.37"/>
</a>
</g>
</g>
<!-- Node19 -->
<g id="Node000019" class="node">
<title>Node19</title>
<g id="a_Node000019"><a xlink:href="debug_8c.html" target="_top" xlink:title=" ">
<polygon fill="white" stroke="#666666" points="2196.5,-19 2091.5,-19 2091.5,0 2196.5,0 2196.5,-19"/>
<text text-anchor="middle" x="2144" y="-7" font-family="Helvetica,sans-Serif" font-size="10.00">src/debug/debug.c</text>
</a>
</g>
</g>
<!-- Node18&#45;&gt;Node19 -->
<g id="edge28_Node000018_Node000019" class="edge">
<title>Node18&#45;&gt;Node19</title>
<g id="a_edge28_Node000018_Node000019"><a xlink:title=" ">
<path fill="none" stroke="#63b8ff" d="M2144,-44.66C2144,-35.93 2144,-25.99 2144,-19.09"/>
<polygon fill="#63b8ff" stroke="#63b8ff" points="2140.5,-44.75 2144,-54.75 2147.5,-44.75 2140.5,-44.75"/>
</a>
</g>
</g>
</g>
</svg>
