<?xml version="1.0" encoding="UTF-8" standalone="no"?>
<!DOCTYPE svg PUBLIC "-//W3C//DTD SVG 1.1//EN"
 "http://www.w3.org/Graphics/SVG/1.1/DTD/svg11.dtd">
<!-- Generated by graphviz version 2.43.0 (0)
 -->
<!-- Title: init_triple_shell Pages: 1 -->
<!--zoomable 255 -->

<svg id="main" version="1.1" xmlns="http://www.w3.org/2000/svg" xmlns:xlink="http://www.w3.org/1999/xlink" xml:space="preserve" onload="init(evt)">
<style type="text/css"><![CDATA[
.node, .edge {opacity: 0.7;}
.node.selected, .edge.selected {opacity: 1;}
.edge:hover path { stroke: red; }
.edge:hover polygon { stroke: red; fill: red; }
]]></style>

<defs>
  <circle id="rim" cx="0" cy="0" r="7"/>
  <circle id="rim2" cx="0" cy="0" r="3.5"/>
  <g id="zoomPlus">
    <use xlink:href="#rim" fill="#404040"><set attributeName="fill" to="#808080" begin="zoomplus.mouseover" end="zoomplus.mouseout"/></use>
    <path d="M-4,0h8M0,-4v8" fill="none" stroke="white" stroke-width="1.5" pointer-events="none"/>
  </g>
  <g id="zoomMin">
    <use xlink:href="#rim" fill="#404040"><set attributeName="fill" to="#808080" begin="zoomminus.mouseover" end="zoomminus.mouseout"/></use>
    <path d="M-4,0h8" fill="none" stroke="white" stroke-width="1.5" pointer-events="none"/>
  </g>
  <g id="arrowUp" transform="translate(30 24)">
    <use xlink:href="#rim"/>
    <path pointer-events="none" fill="none" stroke="white" stroke-width="1.5" d="M0,-3.0v7 M-2.5,-0.5L0,-3.0L2.5,-0.5"/>
  </g>
  <g id="arrowRight" transform="rotate(90) translate(36 -43)">
    <use xlink:href="#rim"/>
    <path pointer-events="none" fill="none" stroke="white" stroke-width="1.5" d="M0,-3.0v7 M-2.5,-0.5L0,-3.0L2.5,-0.5"/>
  </g>
  <g id="arrowDown" transform="rotate(180) translate(-30 -48)">
    <use xlink:href="#rim"/>
    <path pointer-events="none" fill="none" stroke="white" stroke-width="1.5" d="M0,-3.0v7 M-2.5,-0.5L0,-3.0L2.5,-0.5"/>
  </g>
  <g id="arrowLeft" transform="rotate(270) translate(-36 17)">
    <use xlink:href="#rim"/>
    <path pointer-events="none" fill="none" stroke="white" stroke-width="1.5" d="M0,-3.0v7 M-2.5,-0.5L0,-3.0L2.5,-0.5"/>
  </g>
  <g id="resetDef">
    <use xlink:href="#rim2" fill="#404040"><set attributeName="fill" to="#808080" begin="reset.mouseover" end="reset.mouseout"/></use>
  </g>
</defs>
<script type="application/ecmascript">
var viewWidth = 1611;
var viewHeight = 255;
var sectionId = 'dynsection-20';
</script>
<script type="application/ecmascript" xlink:href="svg.min.js"/>
<svg id="graph" class="graph">
<g id="viewport">
<title>init_triple_shell</title>
<!-- Node1 -->
<g id="Node000001" class="node">
<title>Node1</title>
<g id="a_Node000001"><a xlink:title=" ">
<polygon fill="#999999" stroke="#666666" points="92,-74 0,-74 0,-55 92,-55 92,-74"/>
<text text-anchor="middle" x="46" y="-62" font-family="Helvetica,sans-Serif" font-size="10.00">init_triple_shell</text>
</a>
</g>
</g>
<!-- Node2 -->
<g id="Node000002" class="node">
<title>Node2</title>
<g id="a_Node000002"><a xlink:href="actors_8c.html#a24d84b2c349ccb02fa767a4e49c4f2c5" target="_top" xlink:title=" ">
<polygon fill="white" stroke="#666666" points="264.5,-150 143.5,-150 143.5,-131 264.5,-131 264.5,-150"/>
<text text-anchor="middle" x="204" y="-138" font-family="Helvetica,sans-Serif" font-size="10.00">addActorToEmptySlot</text>
</a>
</g>
</g>
<!-- Node1&#45;&gt;Node2 -->
<g id="edge1_Node000001_Node000002" class="edge">
<title>Node1&#45;&gt;Node2</title>
<g id="a_edge1_Node000001_Node000002"><a xlink:title=" ">
<path fill="none" stroke="#63b8ff" d="M66.76,-74.13C93.95,-87.37 143.09,-111.31 174.33,-126.53"/>
<polygon fill="#63b8ff" stroke="#63b8ff" points="172.88,-129.72 183.4,-130.95 175.95,-123.43 172.88,-129.72"/>
</a>
</g>
</g>
<!-- Node25 -->
<g id="Node000025" class="node">
<title>Node25</title>
<g id="a_Node000025"><a xlink:href="collision_8c.html#a0724869c38f177efa5357ac2205857d4" target="_top" xlink:title=" ">
<polygon fill="white" stroke="#666666" points="250.5,-93 157.5,-93 157.5,-74 250.5,-74 250.5,-93"/>
<text text-anchor="middle" x="204" y="-81" font-family="Helvetica,sans-Serif" font-size="10.00">func_802AD950</text>
</a>
</g>
</g>
<!-- Node1&#45;&gt;Node25 -->
<g id="edge27_Node000001_Node000025" class="edge">
<title>Node1&#45;&gt;Node25</title>
<g id="a_edge27_Node000001_Node000025"><a xlink:title=" ">
<path fill="none" stroke="#63b8ff" d="M92.12,-70C109.35,-72.09 129.2,-74.51 147.3,-76.72"/>
<polygon fill="#63b8ff" stroke="#63b8ff" points="147.09,-80.22 157.44,-77.95 147.94,-73.27 147.09,-80.22"/>
</a>
</g>
</g>
<!-- Node29 -->
<g id="Node000029" class="node">
<title>Node29</title>
<g id="a_Node000029"><a xlink:href="actors__extended_8c.html#a78e98c146f1f4dd6e3608016486172a4" target="_top" xlink:title=" ">
<polygon fill="white" stroke="#666666" points="250,-56 158,-56 158,-37 250,-37 250,-56"/>
<text text-anchor="middle" x="204" y="-44" font-family="Helvetica,sans-Serif" font-size="10.00">func_802B4E30</text>
</a>
</g>
</g>
<!-- Node1&#45;&gt;Node29 -->
<g id="edge31_Node000001_Node000029" class="edge">
<title>Node1&#45;&gt;Node29</title>
<g id="a_edge31_Node000001_Node000029"><a xlink:title=" ">
<path fill="none" stroke="#63b8ff" d="M92.12,-59.29C109.58,-57.28 129.74,-54.95 148.04,-52.84"/>
<polygon fill="#63b8ff" stroke="#63b8ff" points="148.45,-56.32 157.98,-51.69 147.64,-49.36 148.45,-56.32"/>
</a>
</g>
</g>
<!-- Node30 -->
<g id="Node000030" class="node">
<title>Node30</title>
<g id="a_Node000030"><a xlink:href="math__util_8c.html#ad5bb0138c68b50f119d3cb7966f522b7" target="_top" xlink:title=" ">
<polygon fill="white" stroke="#666666" points="280,-19 128,-19 128,0 280,0 280,-19"/>
<text text-anchor="middle" x="204" y="-7" font-family="Helvetica,sans-Serif" font-size="10.00">mtxf_translate_vec3f_mat3</text>
</a>
</g>
</g>
<!-- Node1&#45;&gt;Node30 -->
<g id="edge32_Node000001_Node000030" class="edge">
<title>Node1&#45;&gt;Node30</title>
<g id="a_edge32_Node000001_Node000030"><a xlink:title=" ">
<path fill="none" stroke="#63b8ff" d="M65.24,-54.93C81.39,-46.77 105.78,-35.16 128,-27.5 134.06,-25.41 140.49,-23.47 146.92,-21.7"/>
<polygon fill="#63b8ff" stroke="#63b8ff" points="148.2,-24.98 156.98,-19.06 146.42,-18.21 148.2,-24.98"/>
</a>
</g>
</g>
<!-- Node3 -->
<g id="Node000003" class="node">
<title>Node3</title>
<g id="a_Node000003"><a xlink:href="actors_8c.html#a39c023177b5a7686cdd1fc65b8b953e1" target="_top" xlink:title=" ">
<polygon fill="white" stroke="#666666" points="557,-138 495,-138 495,-119 557,-119 557,-138"/>
<text text-anchor="middle" x="526" y="-126" font-family="Helvetica,sans-Serif" font-size="10.00">actor_init</text>
</a>
</g>
</g>
<!-- Node2&#45;&gt;Node3 -->
<g id="edge2_Node000002_Node000003" class="edge">
<title>Node2&#45;&gt;Node3</title>
<g id="a_edge2_Node000002_Node000003"><a xlink:title=" ">
<path fill="none" stroke="#63b8ff" d="M264.81,-138.26C329.05,-135.85 429.35,-132.09 484.78,-130.01"/>
<polygon fill="#63b8ff" stroke="#63b8ff" points="485.05,-133.5 494.91,-129.63 484.79,-126.51 485.05,-133.5"/>
</a>
</g>
</g>
<!-- Node24 -->
<g id="Node000024" class="node">
<title>Node24</title>
<g id="a_Node000024"><a xlink:href="actors_8c.html#a0c9d11d8956bf92c32a5e9bafd7036e6" target="_top" xlink:title=" ">
<polygon fill="white" stroke="#666666" points="433,-212 342,-212 342,-193 433,-193 433,-212"/>
<text text-anchor="middle" x="387.5" y="-200" font-family="Helvetica,sans-Serif" font-size="10.00">func_8029E890</text>
</a>
</g>
</g>
<!-- Node2&#45;&gt;Node24 -->
<g id="edge23_Node000002_Node000024" class="edge">
<title>Node2&#45;&gt;Node24</title>
<g id="a_edge23_Node000002_Node000024"><a xlink:title=" ">
<path fill="none" stroke="#63b8ff" d="M232.96,-150.05C264,-160.66 314.27,-177.83 348.78,-189.62"/>
<polygon fill="#63b8ff" stroke="#63b8ff" points="347.91,-193.02 358.51,-192.94 350.17,-186.39 347.91,-193.02"/>
</a>
</g>
</g>
<!-- Node4 -->
<g id="Node000004" class="node">
<title>Node4</title>
<g id="a_Node000004"><a xlink:href="actors_8c.html#a1a9bccb586242555a9123ebd4ab70f2a" target="_top" xlink:title=" ">
<polygon fill="white" stroke="#666666" points="725,-186.5 593,-186.5 593,-156.5 725,-156.5 725,-186.5"/>
<text text-anchor="start" x="601" y="-174.5" font-family="Helvetica,sans-Serif" font-size="10.00">cleanup_red_and_green</text>
<text text-anchor="middle" x="659" y="-163.5" font-family="Helvetica,sans-Serif" font-size="10.00">_shells</text>
</a>
</g>
</g>
<!-- Node3&#45;&gt;Node4 -->
<g id="edge3_Node000003_Node000004" class="edge">
<title>Node3&#45;&gt;Node4</title>
<g id="a_edge3_Node000003_Node000004"><a xlink:title=" ">
<path fill="none" stroke="#63b8ff" d="M556.07,-138.04C569.74,-142.53 586.52,-148.04 602.48,-153.28"/>
<polygon fill="#63b8ff" stroke="#63b8ff" points="601.69,-156.7 612.28,-156.49 603.87,-150.05 601.69,-156.7"/>
</a>
</g>
</g>
<!-- Node16 -->
<g id="Node000016" class="node">
<title>Node16</title>
<g id="a_Node000016"><a xlink:href="collision_8c.html#ad72fef3ffe32191d73b1822f512ebf3f" target="_top" xlink:title=" ">
<polygon fill="white" stroke="#666666" points="706.5,-138 611.5,-138 611.5,-119 706.5,-119 706.5,-138"/>
<text text-anchor="middle" x="659" y="-126" font-family="Helvetica,sans-Serif" font-size="10.00">func_802AAAAC</text>
</a>
</g>
</g>
<!-- Node3&#45;&gt;Node16 -->
<g id="edge15_Node000003_Node000016" class="edge">
<title>Node3&#45;&gt;Node16</title>
<g id="a_edge15_Node000003_Node000016"><a xlink:title=" ">
<path fill="none" stroke="#63b8ff" d="M557.05,-128.5C570.13,-128.5 585.9,-128.5 601.04,-128.5"/>
<polygon fill="#63b8ff" stroke="#63b8ff" points="601.39,-132 611.39,-128.5 601.39,-125 601.39,-132"/>
</a>
</g>
</g>
<!-- Node18 -->
<g id="Node000018" class="node">
<title>Node18</title>
<g id="a_Node000018"><a xlink:href="collision_8c.html#a365367628b7140a7a880beeecce9c305" target="_top" xlink:title=" ">
<polygon fill="white" stroke="#666666" points="706.5,-101 611.5,-101 611.5,-82 706.5,-82 706.5,-101"/>
<text text-anchor="middle" x="659" y="-89" font-family="Helvetica,sans-Serif" font-size="10.00">func_802ADDC8</text>
</a>
</g>
</g>
<!-- Node3&#45;&gt;Node18 -->
<g id="edge17_Node000003_Node000018" class="edge">
<title>Node3&#45;&gt;Node18</title>
<g id="a_edge17_Node000003_Node000018"><a xlink:title=" ">
<path fill="none" stroke="#63b8ff" d="M557.05,-120.01C573.96,-115.24 595.37,-109.19 614.12,-103.89"/>
<polygon fill="#63b8ff" stroke="#63b8ff" points="615.26,-107.21 623.93,-101.12 613.35,-100.47 615.26,-107.21"/>
</a>
</g>
</g>
<!-- Node22 -->
<g id="Node000022" class="node">
<title>Node22</title>
<g id="a_Node000022"><a xlink:href="math__util_8c.html#af7b470ed76fce07b8042a47c96e5690b" target="_top" xlink:title=" ">
<polygon fill="white" stroke="#666666" points="712.5,-64 605.5,-64 605.5,-45 712.5,-45 712.5,-64"/>
<text text-anchor="middle" x="659" y="-52" font-family="Helvetica,sans-Serif" font-size="10.00">vec3f_copy_return</text>
</a>
</g>
</g>
<!-- Node3&#45;&gt;Node22 -->
<g id="edge21_Node000003_Node000022" class="edge">
<title>Node3&#45;&gt;Node22</title>
<g id="a_edge21_Node000003_Node000022"><a xlink:title=" ">
<path fill="none" stroke="#63b8ff" d="M535.93,-118.94C547.84,-106.73 570.1,-85.7 593,-73.5 597.19,-71.27 601.67,-69.27 606.26,-67.48"/>
<polygon fill="#63b8ff" stroke="#63b8ff" points="607.49,-70.76 615.74,-64.11 605.14,-64.16 607.49,-70.76"/>
</a>
</g>
</g>
<!-- Node23 -->
<g id="Node000023" class="node">
<title>Node23</title>
<g id="a_Node000023"><a xlink:href="math__util_8c.html#a0e270ee67600c8c9c2f140c647d008a1" target="_top" xlink:title=" ">
<polygon fill="white" stroke="#666666" points="696,-27 622,-27 622,-8 696,-8 696,-27"/>
<text text-anchor="middle" x="659" y="-15" font-family="Helvetica,sans-Serif" font-size="10.00">vec3s_copy</text>
</a>
</g>
</g>
<!-- Node3&#45;&gt;Node23 -->
<g id="edge22_Node000003_Node000023" class="edge">
<title>Node3&#45;&gt;Node23</title>
<g id="a_edge22_Node000003_Node000023"><a xlink:title=" ">
<path fill="none" stroke="#63b8ff" d="M531.07,-118.95C539.65,-100.03 561.4,-57.68 593,-35.5 598.73,-31.48 605.33,-28.35 612.08,-25.93"/>
<polygon fill="#63b8ff" stroke="#63b8ff" points="613.49,-29.15 622,-22.84 611.41,-22.47 613.49,-29.15"/>
</a>
</g>
</g>
<!-- Node5 -->
<g id="Node000005" class="node">
<title>Node5</title>
<g id="a_Node000005"><a xlink:href="actors_8c.html#a694ec6ef7548b8618aeb35c038d3a9b9" target="_top" xlink:title=" ">
<polygon fill="white" stroke="#666666" points="878.5,-178 795.5,-178 795.5,-159 878.5,-159 878.5,-178"/>
<text text-anchor="middle" x="837" y="-166" font-family="Helvetica,sans-Serif" font-size="10.00">destroy_actor</text>
</a>
</g>
</g>
<!-- Node4&#45;&gt;Node5 -->
<g id="edge4_Node000004_Node000005" class="edge">
<title>Node4&#45;&gt;Node5</title>
<g id="a_edge4_Node000004_Node000005"><a xlink:title=" ">
<path fill="none" stroke="#63b8ff" d="M725.04,-170.39C744.95,-170.05 766.55,-169.68 785.35,-169.36"/>
<polygon fill="#63b8ff" stroke="#63b8ff" points="785.54,-172.86 795.48,-169.19 785.42,-165.86 785.54,-172.86"/>
</a>
</g>
</g>
<!-- Node15 -->
<g id="Node000015" class="node">
<title>Node15</title>
<g id="a_Node000015"><a xlink:href="code__80005FD0_8c.html#acb7b3d384c78d219f4b7040e78f6a2f2" target="_top" xlink:title=" ">
<polygon fill="white" stroke="#666666" points="913,-226.5 761,-226.5 761,-196.5 913,-196.5 913,-226.5"/>
<text text-anchor="start" x="769" y="-214.5" font-family="Helvetica,sans-Serif" font-size="10.00">remove_actor_in_unexpired</text>
<text text-anchor="middle" x="837" y="-203.5" font-family="Helvetica,sans-Serif" font-size="10.00">_actor_list</text>
</a>
</g>
</g>
<!-- Node4&#45;&gt;Node15 -->
<g id="edge14_Node000004_Node000015" class="edge">
<title>Node4&#45;&gt;Node15</title>
<g id="a_edge14_Node000004_Node000015"><a xlink:title=" ">
<path fill="none" stroke="#63b8ff" d="M725.04,-186.28C736.32,-188.85 748.15,-191.53 759.7,-194.16"/>
<polygon fill="#63b8ff" stroke="#63b8ff" points="759.23,-197.64 769.76,-196.45 760.79,-190.82 759.23,-197.64"/>
</a>
</g>
</g>
<!-- Node6 -->
<g id="Node000006" class="node">
<title>Node6</title>
<g id="a_Node000006"><a xlink:href="actors_8c.html#a15517665ab054722a5c980c0f1008cd0" target="_top" xlink:title=" ">
<polygon fill="white" stroke="#666666" points="1042,-221 949,-221 949,-202 1042,-202 1042,-221"/>
<text text-anchor="middle" x="995.5" y="-209" font-family="Helvetica,sans-Serif" font-size="10.00">func_8029E7DC</text>
</a>
</g>
</g>
<!-- Node5&#45;&gt;Node6 -->
<g id="edge5_Node000005_Node000006" class="edge">
<title>Node5&#45;&gt;Node6</title>
<g id="a_edge5_Node000005_Node000006"><a xlink:title=" ">
<path fill="none" stroke="#63b8ff" d="M877,-178.08C888.61,-181.01 901.34,-184.31 913,-187.5 926.26,-191.13 940.68,-195.3 953.64,-199.14"/>
<polygon fill="#63b8ff" stroke="#63b8ff" points="952.65,-202.49 963.23,-201.99 954.64,-195.78 952.65,-202.49"/>
</a>
</g>
</g>
<!-- Node7 -->
<g id="Node000007" class="node">
<title>Node7</title>
<g id="a_Node000007"><a xlink:href="external_8c.html#ae72057869772019e4464c87d4e16c682" target="_top" xlink:title=" ">
<polygon fill="white" stroke="#666666" points="1170,-221 1078,-221 1078,-202 1170,-202 1170,-221"/>
<text text-anchor="middle" x="1124" y="-209" font-family="Helvetica,sans-Serif" font-size="10.00">func_800C99E0</text>
</a>
</g>
</g>
<!-- Node6&#45;&gt;Node7 -->
<g id="edge6_Node000006_Node000007" class="edge">
<title>Node6&#45;&gt;Node7</title>
<g id="a_edge6_Node000006_Node000007"><a xlink:title=" ">
<path fill="none" stroke="#63b8ff" d="M1042.17,-211.5C1050.42,-211.5 1059.11,-211.5 1067.6,-211.5"/>
<polygon fill="#63b8ff" stroke="#63b8ff" points="1067.82,-215 1077.82,-211.5 1067.82,-208 1067.82,-215"/>
</a>
</g>
</g>
<!-- Node8 -->
<g id="Node000008" class="node">
<title>Node8</title>
<g id="a_Node000008"><a xlink:href="external_8c.html#aeb87c527482a244173df36a1f3d4f446" target="_top" xlink:title=" ">
<polygon fill="white" stroke="#666666" points="1298,-240 1206,-240 1206,-221 1298,-221 1298,-240"/>
<text text-anchor="middle" x="1252" y="-228" font-family="Helvetica,sans-Serif" font-size="10.00">func_800C21E8</text>
</a>
</g>
</g>
<!-- Node7&#45;&gt;Node8 -->
<g id="edge7_Node000007_Node000008" class="edge">
<title>Node7&#45;&gt;Node8</title>
<g id="a_edge7_Node000007_Node000008"><a xlink:title=" ">
<path fill="none" stroke="#63b8ff" d="M1170.13,-218.31C1178.46,-219.56 1187.23,-220.88 1195.81,-222.18"/>
<polygon fill="#63b8ff" stroke="#63b8ff" points="1195.35,-225.65 1205.76,-223.68 1196.39,-218.73 1195.35,-225.65"/>
</a>
</g>
</g>
<!-- Node9 -->
<g id="Node000009" class="node">
<title>Node9</title>
<g id="a_Node000009"><a xlink:href="external_8c.html#a028d40421b90c38f68ebfd5acc626f2e" target="_top" xlink:title=" ">
<polygon fill="white" stroke="#666666" points="1298,-203 1206,-203 1206,-184 1298,-184 1298,-203"/>
<text text-anchor="middle" x="1252" y="-191" font-family="Helvetica,sans-Serif" font-size="10.00">func_800C5578</text>
</a>
</g>
</g>
<!-- Node7&#45;&gt;Node9 -->
<g id="edge8_Node000007_Node000009" class="edge">
<title>Node7&#45;&gt;Node9</title>
<g id="a_edge8_Node000007_Node000009"><a xlink:title=" ">
<path fill="none" stroke="#63b8ff" d="M1170.13,-205.05C1178.46,-203.86 1187.23,-202.61 1195.81,-201.38"/>
<polygon fill="#63b8ff" stroke="#63b8ff" points="1196.35,-204.84 1205.76,-199.96 1195.36,-197.91 1196.35,-204.84"/>
</a>
</g>
</g>
<!-- Node10 -->
<g id="Node000010" class="node">
<title>Node10</title>
<g id="a_Node000010"><a xlink:href="external_8c.html#ac0fb767de7e14a03f1bcfa53f0abd23b" target="_top" xlink:title=" ">
<polygon fill="white" stroke="#666666" points="1474,-240 1334,-240 1334,-221 1474,-221 1474,-240"/>
<text text-anchor="middle" x="1404" y="-228" font-family="Helvetica,sans-Serif" font-size="10.00">delete_sound_from_bank</text>
</a>
</g>
</g>
<!-- Node9&#45;&gt;Node10 -->
<g id="edge9_Node000009_Node000010" class="edge">
<title>Node9&#45;&gt;Node10</title>
<g id="a_edge9_Node000009_Node000010"><a xlink:title=" ">
<path fill="none" stroke="#63b8ff" d="M1291.63,-203.03C1310.8,-207.76 1334.16,-213.52 1354.52,-218.54"/>
<polygon fill="#63b8ff" stroke="#63b8ff" points="1353.69,-221.94 1364.24,-220.94 1355.37,-215.15 1353.69,-221.94"/>
</a>
</g>
</g>
<!-- Node12 -->
<g id="Node000012" class="node">
<title>Node12</title>
<g id="a_Node000012"><a xlink:href="external_8c.html#ab83bd36e63f0f1baddcb2482b5ad31b0" target="_top" xlink:title=" ">
<polygon fill="white" stroke="#666666" points="1450.5,-203 1357.5,-203 1357.5,-184 1450.5,-184 1450.5,-203"/>
<text text-anchor="middle" x="1404" y="-191" font-family="Helvetica,sans-Serif" font-size="10.00">func_800C41CC</text>
</a>
</g>
</g>
<!-- Node9&#45;&gt;Node12 -->
<g id="edge11_Node000009_Node000012" class="edge">
<title>Node9&#45;&gt;Node12</title>
<g id="a_edge11_Node000009_Node000012"><a xlink:title=" ">
<path fill="none" stroke="#63b8ff" d="M1298,-193.5C1313.37,-193.5 1330.74,-193.5 1346.86,-193.5"/>
<polygon fill="#63b8ff" stroke="#63b8ff" points="1347.25,-197 1357.25,-193.5 1347.25,-190 1347.25,-197"/>
</a>
</g>
</g>
<!-- Node13 -->
<g id="Node000013" class="node">
<title>Node13</title>
<g id="a_Node000013"><a xlink:href="port__eu_8c.html#aa89dfaecca46c6d071f08c1898d1f7c9" target="_top" xlink:title=" ">
<polygon fill="white" stroke="#666666" points="1450.5,-166 1357.5,-166 1357.5,-147 1450.5,-147 1450.5,-166"/>
<text text-anchor="middle" x="1404" y="-154" font-family="Helvetica,sans-Serif" font-size="10.00">func_800CBBE8</text>
</a>
</g>
</g>
<!-- Node9&#45;&gt;Node13 -->
<g id="edge12_Node000009_Node000013" class="edge">
<title>Node9&#45;&gt;Node13</title>
<g id="a_edge12_Node000009_Node000013"><a xlink:title=" ">
<path fill="none" stroke="#63b8ff" d="M1291.63,-183.97C1310.8,-179.24 1334.16,-173.48 1354.52,-168.46"/>
<polygon fill="#63b8ff" stroke="#63b8ff" points="1355.37,-171.85 1364.24,-166.06 1353.69,-165.06 1355.37,-171.85"/>
</a>
</g>
</g>
<!-- Node11 -->
<g id="Node000011" class="node">
<title>Node11</title>
<g id="a_Node000011"><a xlink:href="external_8c.html#a358ac55e8ab5262dcae8037334be06d7" target="_top" xlink:title=" ">
<polygon fill="white" stroke="#666666" points="1602.5,-240 1510.5,-240 1510.5,-221 1602.5,-221 1602.5,-240"/>
<text text-anchor="middle" x="1556.5" y="-228" font-family="Helvetica,sans-Serif" font-size="10.00">func_800C40F0</text>
</a>
</g>
</g>
<!-- Node10&#45;&gt;Node11 -->
<g id="edge10_Node000010_Node000011" class="edge">
<title>Node10&#45;&gt;Node11</title>
<g id="a_edge10_Node000010_Node000011"><a xlink:title=" ">
<path fill="none" stroke="#63b8ff" d="M1474.08,-230.5C1482.87,-230.5 1491.78,-230.5 1500.31,-230.5"/>
<polygon fill="#63b8ff" stroke="#63b8ff" points="1500.5,-234 1510.5,-230.5 1500.5,-227 1500.5,-234"/>
</a>
</g>
</g>
<!-- Node14 -->
<g id="Node000014" class="node">
<title>Node14</title>
<g id="a_Node000014"><a xlink:href="port__eu_8c.html#af361a20d2e08f30c53a237ca481ff734" target="_top" xlink:title=" ">
<polygon fill="white" stroke="#666666" points="1603,-166 1510,-166 1510,-147 1603,-147 1603,-166"/>
<text text-anchor="middle" x="1556.5" y="-154" font-family="Helvetica,sans-Serif" font-size="10.00">func_800CBB48</text>
</a>
</g>
</g>
<!-- Node13&#45;&gt;Node14 -->
<g id="edge13_Node000013_Node000014" class="edge">
<title>Node13&#45;&gt;Node14</title>
<g id="a_edge13_Node000013_Node000014"><a xlink:title=" ">
<path fill="none" stroke="#63b8ff" d="M1450.56,-156.5C1465.96,-156.5 1483.34,-156.5 1499.46,-156.5"/>
<polygon fill="#63b8ff" stroke="#63b8ff" points="1499.83,-160 1509.83,-156.5 1499.83,-153 1499.83,-160"/>
</a>
</g>
</g>
<!-- Node17 -->
<g id="Node000017" class="node">
<title>Node17</title>
<g id="a_Node000017"><a xlink:href="math__util_8c.html#a79fd07a0971ec96a3ff0801963a2fa7f" target="_top" xlink:title=" ">
<polygon fill="white" stroke="#666666" points="869,-141 805,-141 805,-122 869,-122 869,-141"/>
<text text-anchor="middle" x="837" y="-129" font-family="Helvetica,sans-Serif" font-size="10.00">vec3f_set</text>
</a>
</g>
</g>
<!-- Node16&#45;&gt;Node17 -->
<g id="edge16_Node000016_Node000017" class="edge">
<title>Node16&#45;&gt;Node17</title>
<g id="a_edge16_Node000016_Node000017"><a xlink:title=" ">
<path fill="none" stroke="#63b8ff" d="M706.7,-129.3C734.12,-129.76 768.46,-130.35 794.86,-130.8"/>
<polygon fill="#63b8ff" stroke="#63b8ff" points="794.86,-134.3 804.92,-130.97 794.98,-127.3 794.86,-134.3"/>
</a>
</g>
</g>
<!-- Node19 -->
<g id="Node000019" class="node">
<title>Node19</title>
<g id="a_Node000019"><a xlink:href="collision_8c.html#afce45acb8da354da0a5b501003be1aef" target="_top" xlink:title=" ">
<polygon fill="white" stroke="#666666" points="883.5,-104 790.5,-104 790.5,-85 883.5,-85 883.5,-104"/>
<text text-anchor="middle" x="837" y="-92" font-family="Helvetica,sans-Serif" font-size="10.00">func_802AAE4C</text>
</a>
</g>
</g>
<!-- Node18&#45;&gt;Node19 -->
<g id="edge18_Node000018_Node000019" class="edge">
<title>Node18&#45;&gt;Node19</title>
<g id="a_edge18_Node000018_Node000019"><a xlink:title=" ">
<path fill="none" stroke="#63b8ff" d="M706.7,-92.3C729.24,-92.68 756.44,-93.14 780.07,-93.55"/>
<polygon fill="#63b8ff" stroke="#63b8ff" points="780.24,-97.05 790.3,-93.72 780.36,-90.05 780.24,-97.05"/>
</a>
</g>
</g>
<!-- Node20 -->
<g id="Node000020" class="node">
<title>Node20</title>
<g id="a_Node000020"><a xlink:href="collision_8c.html#adcc608ea0eae3bf9a27ab79ec64b4899" target="_top" xlink:title=" ">
<polygon fill="white" stroke="#666666" points="883,-67 791,-67 791,-48 883,-48 883,-67"/>
<text text-anchor="middle" x="837" y="-55" font-family="Helvetica,sans-Serif" font-size="10.00">func_802AB288</text>
</a>
</g>
</g>
<!-- Node18&#45;&gt;Node20 -->
<g id="edge19_Node000018_Node000020" class="edge">
<title>Node18&#45;&gt;Node20</title>
<g id="a_edge19_Node000018_Node000020"><a xlink:title=" ">
<path fill="none" stroke="#63b8ff" d="M706.7,-82.48C729.51,-78.07 757.11,-72.74 780.95,-68.14"/>
<polygon fill="#63b8ff" stroke="#63b8ff" points="781.75,-71.54 790.9,-66.21 780.42,-64.67 781.75,-71.54"/>
</a>
</g>
</g>
<!-- Node21 -->
<g id="Node000021" class="node">
<title>Node21</title>
<g id="a_Node000021"><a xlink:href="collision_8c.html#ab440aa3fc960b7b4b5ad8e4bcaa06b00" target="_top" xlink:title=" ">
<polygon fill="white" stroke="#666666" points="883.5,-30 790.5,-30 790.5,-11 883.5,-11 883.5,-30"/>
<text text-anchor="middle" x="837" y="-18" font-family="Helvetica,sans-Serif" font-size="10.00">func_802AB6C4</text>
</a>
</g>
</g>
<!-- Node18&#45;&gt;Node21 -->
<g id="edge20_Node000018_Node000021" class="edge">
<title>Node18&#45;&gt;Node21</title>
<g id="a_edge20_Node000018_Node000021"><a xlink:title=" ">
<path fill="none" stroke="#63b8ff" d="M705.93,-81.92C712.55,-79.65 719.11,-76.88 725,-73.5 744.36,-62.4 741.45,-49.27 761,-38.5 766.99,-35.2 773.57,-32.5 780.28,-30.3"/>
<polygon fill="#63b8ff" stroke="#63b8ff" points="781.52,-33.58 790.13,-27.4 779.55,-26.86 781.52,-33.58"/>
</a>
</g>
</g>
<!-- Node24&#45;&gt;Node3 -->
<g id="edge24_Node000024_Node000003" class="edge">
<title>Node24&#45;&gt;Node3</title>
<g id="a_edge24_Node000024_Node000003"><a xlink:title=" ">
<path fill="none" stroke="#63b8ff" d="M406.07,-192.98C429.38,-180.34 470.78,-157.89 498.06,-143.1"/>
<polygon fill="#63b8ff" stroke="#63b8ff" points="499.95,-146.06 507.07,-138.22 496.61,-139.91 499.95,-146.06"/>
</a>
</g>
</g>
<!-- Node24&#45;&gt;Node6 -->
<g id="edge25_Node000024_Node000006" class="edge">
<title>Node24&#45;&gt;Node6</title>
<g id="a_edge25_Node000024_Node000006"><a xlink:title=" ">
<path fill="none" stroke="#63b8ff" d="M433.21,-210.08C452.22,-213.08 474.64,-216.32 495,-218.5 679.88,-238.26 728.97,-262.03 913,-235.5 928.39,-233.28 944.92,-228.82 959.05,-224.34"/>
<polygon fill="#63b8ff" stroke="#63b8ff" points="960.46,-227.56 968.86,-221.11 958.27,-220.91 960.46,-227.56"/>
</a>
</g>
</g>
<!-- Node24&#45;&gt;Node15 -->
<g id="edge26_Node000024_Node000015" class="edge">
<title>Node24&#45;&gt;Node15</title>
<g id="a_edge26_Node000024_Node000015"><a xlink:title=" ">
<path fill="none" stroke="#63b8ff" d="M433.04,-203.4C506.95,-204.88 656.15,-207.88 750.8,-209.79"/>
<polygon fill="#63b8ff" stroke="#63b8ff" points="750.85,-213.29 760.92,-209.99 750.99,-206.29 750.85,-213.29"/>
</a>
</g>
</g>
<!-- Node26 -->
<g id="Node000026" class="node">
<title>Node26</title>
<g id="a_Node000026"><a xlink:href="collision_8c.html#a9ec62ee67d55805a587752d82d66abd8" target="_top" xlink:title=" ">
<polygon fill="white" stroke="#666666" points="459,-37.5 316,-37.5 316,-7.5 459,-7.5 459,-37.5"/>
<text text-anchor="start" x="324" y="-25.5" font-family="Helvetica,sans-Serif" font-size="10.00">is_colliding_with_drivable</text>
<text text-anchor="middle" x="387.5" y="-14.5" font-family="Helvetica,sans-Serif" font-size="10.00">_surface</text>
</a>
</g>
</g>
<!-- Node25&#45;&gt;Node26 -->
<g id="edge28_Node000025_Node000026" class="edge">
<title>Node25&#45;&gt;Node26</title>
<g id="a_edge28_Node000025_Node000026"><a xlink:title=" ">
<path fill="none" stroke="#63b8ff" d="M250.76,-74.44C260.55,-71.98 270.73,-69 280,-65.5 296.93,-59.12 299.39,-53.66 316,-46.5 320.19,-44.7 324.56,-42.93 328.98,-41.23"/>
<polygon fill="#63b8ff" stroke="#63b8ff" points="330.55,-44.39 338.71,-37.63 328.12,-37.82 330.55,-44.39"/>
</a>
</g>
</g>
<!-- Node27 -->
<g id="Node000027" class="node">
<title>Node27</title>
<g id="a_Node000027"><a xlink:href="collision_8c.html#aa77fc5aaa5aa3a6f71ad00bc71b04788" target="_top" xlink:title=" ">
<polygon fill="white" stroke="#666666" points="452,-112 323,-112 323,-93 452,-93 452,-112"/>
<text text-anchor="middle" x="387.5" y="-100" font-family="Helvetica,sans-Serif" font-size="10.00">is_colliding_with_wall1</text>
</a>
</g>
</g>
<!-- Node25&#45;&gt;Node27 -->
<g id="edge29_Node000025_Node000027" class="edge">
<title>Node25&#45;&gt;Node27</title>
<g id="a_edge29_Node000025_Node000027"><a xlink:title=" ">
<path fill="none" stroke="#63b8ff" d="M250.8,-88.29C269.57,-90.26 291.78,-92.58 312.73,-94.78"/>
<polygon fill="#63b8ff" stroke="#63b8ff" points="312.58,-98.28 322.89,-95.84 313.31,-91.32 312.58,-98.28"/>
</a>
</g>
</g>
<!-- Node28 -->
<g id="Node000028" class="node">
<title>Node28</title>
<g id="a_Node000028"><a xlink:href="collision_8c.html#a728bd4102d2ed3ba18d68d39b707c0f4" target="_top" xlink:title=" ">
<polygon fill="white" stroke="#666666" points="452,-75 323,-75 323,-56 452,-56 452,-75"/>
<text text-anchor="middle" x="387.5" y="-63" font-family="Helvetica,sans-Serif" font-size="10.00">is_colliding_with_wall2</text>
</a>
</g>
</g>
<!-- Node25&#45;&gt;Node28 -->
<g id="edge30_Node000025_Node000028" class="edge">
<title>Node25&#45;&gt;Node28</title>
<g id="a_edge30_Node000025_Node000028"><a xlink:title=" ">
<path fill="none" stroke="#63b8ff" d="M250.8,-78.96C269.57,-77.1 291.78,-74.89 312.73,-72.82"/>
<polygon fill="#63b8ff" stroke="#63b8ff" points="313.29,-76.28 322.89,-71.81 312.6,-69.31 313.29,-76.28"/>
</a>
</g>
</g>
</g>
</svg>

<g id="navigator" transform="translate(0 0)" fill="#404254">
  <rect fill="#f2f5e9" fill-opacity="0.5" stroke="#606060" stroke-width=".5" x="0" y="0" width="60" height="60"/>
  <use id="zoomplus" xlink:href="#zoomPlus" x="17" y="9" onmousedown="handleZoom(evt,'in')"/>
  <use id="zoomminus" xlink:href="#zoomMin" x="42" y="9" onmousedown="handleZoom(evt,'out')"/>
  <use id="reset" xlink:href="#resetDef" x="30" y="36" onmousedown="handleReset()"/>
   <use id="arrowup" xlink:href="#arrowUp" x="0" y="0" onmousedown="handlePan(0,-1)"/>
  <use id="arrowright" xlink:href="#arrowRight" x="0" y="0" onmousedown="handlePan(1,0)"/>
  <use id="arrowdown" xlink:href="#arrowDown" x="0" y="0" onmousedown="handlePan(0,1)"/>
  <use id="arrowleft" xlink:href="#arrowLeft" x="0" y="0" onmousedown="handlePan(-1,0)"/>
</g>
<svg viewBox="0 0 15 15" width="100%" height="30px" preserveAspectRatio="xMaxYMin meet">
 <g id="arrow_out" transform="scale(0.3 0.3)">
  <a xlink:href="actors__extended_8c_ac7b01b29ffe49800d142fc2e8a308120_cgraph_org.svg" target="_base">
   <rect id="button" ry="5" rx="5" y="6" x="6" height="38" width="38"
        fill="#f2f5e9" fill-opacity="0.5" stroke="#606060" stroke-width="1.0"/>
   <path id="arrow"
     d="M 11.500037,31.436501 C 11.940474,20.09759 22.043105,11.32322 32.158766,21.979434 L 37.068811,17.246167 C 37.068811,17.246167 37.088388,32 37.088388,32 L 22.160133,31.978069 C 22.160133,31.978069 26.997745,27.140456 26.997745,27.140456 C 18.528582,18.264221 13.291696,25.230495 11.500037,31.436501 z"
     style="fill:#404040;"/>
  </a>
 </g>
</svg>

<style type='text/css'>
<![CDATA[
[data-mouse-over-selected='false'] { opacity: 0.7; }
[data-mouse-over-selected='true']  { opacity: 1.0; }
]]>
</style>
<script type="application/ecmascript"><![CDATA[
document.addEventListener('DOMContentLoaded', (event) => {
  highlightEdges();
  highlightAdjacentNodes();
});
]]></script>
</svg>
