<?xml version="1.0" encoding="UTF-8" standalone="no"?>
<!DOCTYPE svg PUBLIC "-//W3C//DTD SVG 1.1//EN"
 "http://www.w3.org/Graphics/SVG/1.1/DTD/svg11.dtd">
<!-- Generated by graphviz version 2.43.0 (0)
 -->
<!-- Title: destroy_destructable_actor Pages: 1 -->
<svg width="861pt" height="271pt"
 viewBox="0.00 0.00 861.00 270.50" xmlns="http://www.w3.org/2000/svg" xmlns:xlink="http://www.w3.org/1999/xlink">
<g id="graph0" class="graph" transform="scale(1 1) rotate(0) translate(4 266.5)">
<title>destroy_destructable_actor</title>
<!-- Node1 -->
<g id="Node000001" class="node">
<title>Node1</title>
<g id="a_Node000001"><a xlink:title=" ">
<polygon fill="#999999" stroke="#666666" points="119,-99 0,-99 0,-69 119,-69 119,-99"/>
<text text-anchor="start" x="8" y="-87" font-family="Helvetica,sans-Serif" font-size="10.00">destroy_destructable</text>
<text text-anchor="middle" x="59.5" y="-76" font-family="Helvetica,sans-Serif" font-size="10.00">_actor</text>
</a>
</g>
</g>
<!-- Node2 -->
<g id="Node000002" class="node">
<title>Node2</title>
<g id="a_Node000002"><a xlink:href="actors__extended_8c.html#a72ea66924941d84ae27c5e244e946842" target="_top" xlink:title=" ">
<polygon fill="white" stroke="#666666" points="291,-188 171,-188 171,-158 291,-158 291,-188"/>
<text text-anchor="start" x="179" y="-176" font-family="Helvetica,sans-Serif" font-size="10.00">destroy_a_banana_in</text>
<text text-anchor="middle" x="231" y="-165" font-family="Helvetica,sans-Serif" font-size="10.00">_bunch_banana</text>
</a>
</g>
</g>
<!-- Node1&#45;&gt;Node2 -->
<g id="edge1_Node000001_Node000002" class="edge">
<title>Node1&#45;&gt;Node2</title>
<g id="a_edge1_Node000001_Node000002"><a xlink:title=" ">
<path fill="none" stroke="#63b8ff" d="M89.25,-99.1C117.59,-113.97 161.03,-136.79 192.16,-153.13"/>
<polygon fill="#63b8ff" stroke="#63b8ff" points="190.91,-156.43 201.39,-157.98 194.16,-150.23 190.91,-156.43"/>
</a>
</g>
</g>
<!-- Node10 -->
<g id="Node000010" class="node">
<title>Node10</title>
<g id="a_Node000010"><a xlink:href="external_8c.html#a73831bcbe259500206651a0b4702be9f" target="_top" xlink:title=" ">
<polygon fill="white" stroke="#666666" points="277,-115.5 185,-115.5 185,-96.5 277,-96.5 277,-115.5"/>
<text text-anchor="middle" x="231" y="-103.5" font-family="Helvetica,sans-Serif" font-size="10.00">func_800C9EF4</text>
</a>
</g>
</g>
<!-- Node1&#45;&gt;Node10 -->
<g id="edge12_Node000001_Node000010" class="edge">
<title>Node1&#45;&gt;Node10</title>
<g id="a_edge12_Node000001_Node000010"><a xlink:title=" ">
<path fill="none" stroke="#63b8ff" d="M119.31,-91.63C137.29,-93.97 157,-96.53 174.74,-98.83"/>
<polygon fill="#63b8ff" stroke="#63b8ff" points="174.56,-102.33 184.93,-100.15 175.46,-95.39 174.56,-102.33"/>
</a>
</g>
</g>
<!-- Node18 -->
<g id="Node000018" class="node">
<title>Node18</title>
<g id="a_Node000018"><a xlink:href="code__80005FD0_8c.html#acb7b3d384c78d219f4b7040e78f6a2f2" target="_top" xlink:title=" ">
<polygon fill="white" stroke="#666666" points="307,-78 155,-78 155,-48 307,-48 307,-78"/>
<text text-anchor="start" x="163" y="-66" font-family="Helvetica,sans-Serif" font-size="10.00">remove_actor_in_unexpired</text>
<text text-anchor="middle" x="231" y="-55" font-family="Helvetica,sans-Serif" font-size="10.00">_actor_list</text>
</a>
</g>
</g>
<!-- Node1&#45;&gt;Node18 -->
<g id="edge20_Node000001_Node000018" class="edge">
<title>Node1&#45;&gt;Node18</title>
<g id="a_edge20_Node000001_Node000018"><a xlink:title=" ">
<path fill="none" stroke="#63b8ff" d="M119.31,-76.71C127.55,-75.69 136.16,-74.63 144.78,-73.56"/>
<polygon fill="#63b8ff" stroke="#63b8ff" points="145.38,-77.01 154.88,-72.31 144.52,-70.06 145.38,-77.01"/>
</a>
</g>
</g>
<!-- Node19 -->
<g id="Node000019" class="node">
<title>Node19</title>
<g id="a_Node000019"><a xlink:href="actors__extended_8c.html#a1edd6e4f2545082e3782c4ce50933c7c" target="_top" xlink:title=" ">
<polygon fill="white" stroke="#666666" points="289,-30 173,-30 173,0 289,0 289,-30"/>
<text text-anchor="start" x="181" y="-18" font-family="Helvetica,sans-Serif" font-size="10.00">triple_shell_actor</text>
<text text-anchor="middle" x="231" y="-7" font-family="Helvetica,sans-Serif" font-size="10.00">_collide_with_player</text>
</a>
</g>
</g>
<!-- Node1&#45;&gt;Node19 -->
<g id="edge21_Node000001_Node000019" class="edge">
<title>Node1&#45;&gt;Node19</title>
<g id="a_edge21_Node000001_Node000019"><a xlink:title=" ">
<path fill="none" stroke="#63b8ff" d="M89.42,-68.98C107.9,-59.7 132.53,-47.9 155,-39 159.8,-37.1 164.82,-35.24 169.89,-33.44"/>
<polygon fill="#63b8ff" stroke="#63b8ff" points="171.33,-36.65 179.64,-30.08 169.05,-30.03 171.33,-36.65"/>
</a>
</g>
</g>
<!-- Node3 -->
<g id="Node000003" class="node">
<title>Node3</title>
<g id="a_Node000003"><a xlink:href="external_8c.html#a2be9efc97a92e19d02aaee90d676acc1" target="_top" xlink:title=" ">
<polygon fill="white" stroke="#666666" points="435,-262.5 343,-262.5 343,-243.5 435,-243.5 435,-262.5"/>
<text text-anchor="middle" x="389" y="-250.5" font-family="Helvetica,sans-Serif" font-size="10.00">func_800C9060</text>
</a>
</g>
</g>
<!-- Node2&#45;&gt;Node3 -->
<g id="edge2_Node000002_Node000003" class="edge">
<title>Node2&#45;&gt;Node3</title>
<g id="a_edge2_Node000002_Node000003"><a xlink:title=" ">
<path fill="none" stroke="#63b8ff" d="M257.08,-188.23C279.26,-201.41 312.72,-220.56 343,-235 346.21,-236.53 349.59,-238.05 352.99,-239.51"/>
<polygon fill="#63b8ff" stroke="#63b8ff" points="351.95,-242.87 362.52,-243.47 354.63,-236.4 351.95,-242.87"/>
</a>
</g>
</g>
<!-- Node5 -->
<g id="Node000005" class="node">
<title>Node5</title>
<g id="a_Node000005"><a xlink:href="actors__extended_8c.html#ab349562338ca47f2b524137864704d0e" target="_top" xlink:title=" ">
<polygon fill="white" stroke="#666666" points="435,-207.5 343,-207.5 343,-188.5 435,-188.5 435,-207.5"/>
<text text-anchor="middle" x="389" y="-195.5" font-family="Helvetica,sans-Serif" font-size="10.00">func_802B0464</text>
</a>
</g>
</g>
<!-- Node2&#45;&gt;Node5 -->
<g id="edge4_Node000002_Node000005" class="edge">
<title>Node2&#45;&gt;Node5</title>
<g id="a_edge4_Node000002_Node000005"><a xlink:title=" ">
<path fill="none" stroke="#63b8ff" d="M291.42,-182.52C305.01,-184.7 319.39,-187.01 332.79,-189.15"/>
<polygon fill="#63b8ff" stroke="#63b8ff" points="332.39,-192.63 342.82,-190.76 333.5,-185.72 332.39,-192.63"/>
</a>
</g>
</g>
<!-- Node9 -->
<g id="Node000009" class="node">
<title>Node9</title>
<g id="a_Node000009"><a xlink:href="actors__extended_8c.html#a2f342036a9e04bb583aa7cf9c08edae9" target="_top" xlink:title=" ">
<polygon fill="white" stroke="#666666" points="435,-152.5 343,-152.5 343,-133.5 435,-133.5 435,-152.5"/>
<text text-anchor="middle" x="389" y="-140.5" font-family="Helvetica,sans-Serif" font-size="10.00">func_802B04E8</text>
</a>
</g>
</g>
<!-- Node2&#45;&gt;Node9 -->
<g id="edge9_Node000002_Node000009" class="edge">
<title>Node2&#45;&gt;Node9</title>
<g id="a_edge9_Node000002_Node000009"><a xlink:title=" ">
<path fill="none" stroke="#63b8ff" d="M291.42,-161.57C305.01,-158.96 319.39,-156.19 332.79,-153.62"/>
<polygon fill="#63b8ff" stroke="#63b8ff" points="333.66,-157.01 342.82,-151.69 332.34,-150.14 333.66,-157.01"/>
</a>
</g>
</g>
<!-- Node4 -->
<g id="Node000004" class="node">
<title>Node4</title>
<g id="a_Node000004"><a xlink:href="external_8c.html#a4227847f3da303aee53cf69d2760a595" target="_top" xlink:title=" ">
<polygon fill="white" stroke="#666666" points="577,-262.5 505,-262.5 505,-243.5 577,-243.5 577,-262.5"/>
<text text-anchor="middle" x="541" y="-250.5" font-family="Helvetica,sans-Serif" font-size="10.00">play_sound</text>
</a>
</g>
</g>
<!-- Node3&#45;&gt;Node4 -->
<g id="edge3_Node000003_Node000004" class="edge">
<title>Node3&#45;&gt;Node4</title>
<g id="a_edge3_Node000003_Node000004"><a xlink:title=" ">
<path fill="none" stroke="#63b8ff" d="M435,-253C453.79,-253 475.58,-253 494.43,-253"/>
<polygon fill="#63b8ff" stroke="#63b8ff" points="494.56,-256.5 504.56,-253 494.56,-249.5 494.56,-256.5"/>
</a>
</g>
</g>
<!-- Node5&#45;&gt;Node5 -->
<g id="edge8_Node000005_Node000005" class="edge">
<title>Node5&#45;&gt;Node5</title>
<g id="a_edge8_Node000005_Node000005"><a xlink:title=" ">
<path fill="none" stroke="#63b8ff" d="M365.57,-207.58C354.18,-216.23 361.98,-225.5 389,-225.5 406.73,-225.5 416.19,-221.51 417.37,-216.32"/>
<polygon fill="#63b8ff" stroke="#63b8ff" points="420.4,-214.56 412.43,-207.58 414.31,-218.01 420.4,-214.56"/>
</a>
</g>
</g>
<!-- Node6 -->
<g id="Node000006" class="node">
<title>Node6</title>
<g id="a_Node000006"><a xlink:href="actors__extended_8c.html#a093f702b462b6657ba7ab789941ef800" target="_top" xlink:title=" ">
<polygon fill="white" stroke="#666666" points="587,-179.5 495,-179.5 495,-160.5 587,-160.5 587,-179.5"/>
<text text-anchor="middle" x="541" y="-167.5" font-family="Helvetica,sans-Serif" font-size="10.00">func_802B039C</text>
</a>
</g>
</g>
<!-- Node5&#45;&gt;Node6 -->
<g id="edge5_Node000005_Node000006" class="edge">
<title>Node5&#45;&gt;Node6</title>
<g id="a_edge5_Node000005_Node000006"><a xlink:title=" ">
<path fill="none" stroke="#63b8ff" d="M435,-189.6C450.66,-186.68 468.39,-183.37 484.77,-180.31"/>
<polygon fill="#63b8ff" stroke="#63b8ff" points="485.58,-183.72 494.77,-178.44 484.3,-176.84 485.58,-183.72"/>
</a>
</g>
</g>
<!-- Node7 -->
<g id="Node000007" class="node">
<title>Node7</title>
<g id="a_Node000007"><a xlink:href="math__util_8c.html#a151b63b8adf9af7e4054b3b84bd226dc" target="_top" xlink:title=" ">
<polygon fill="white" stroke="#666666" points="729.5,-179.5 657.5,-179.5 657.5,-160.5 729.5,-160.5 729.5,-179.5"/>
<text text-anchor="middle" x="693.5" y="-167.5" font-family="Helvetica,sans-Serif" font-size="10.00">random_int</text>
</a>
</g>
</g>
<!-- Node6&#45;&gt;Node7 -->
<g id="edge6_Node000006_Node000007" class="edge">
<title>Node6&#45;&gt;Node7</title>
<g id="a_edge6_Node000006_Node000007"><a xlink:title=" ">
<path fill="none" stroke="#63b8ff" d="M587.15,-170C606.15,-170 628.21,-170 647.21,-170"/>
<polygon fill="#63b8ff" stroke="#63b8ff" points="647.42,-173.5 657.42,-170 647.42,-166.5 647.42,-173.5"/>
</a>
</g>
</g>
<!-- Node8 -->
<g id="Node000008" class="node">
<title>Node8</title>
<g id="a_Node000008"><a xlink:href="math__util_8c.html#a062850863585005ad1d0a75d9ff70693" target="_top" xlink:title=" ">
<polygon fill="white" stroke="#666666" points="853,-179.5 776,-179.5 776,-160.5 853,-160.5 853,-179.5"/>
<text text-anchor="middle" x="814.5" y="-167.5" font-family="Helvetica,sans-Serif" font-size="10.00">random_u16</text>
</a>
</g>
</g>
<!-- Node7&#45;&gt;Node8 -->
<g id="edge7_Node000007_Node000008" class="edge">
<title>Node7&#45;&gt;Node8</title>
<g id="a_edge7_Node000007_Node000008"><a xlink:title=" ">
<path fill="none" stroke="#63b8ff" d="M729.56,-170C740.8,-170 753.45,-170 765.46,-170"/>
<polygon fill="#63b8ff" stroke="#63b8ff" points="765.79,-173.5 775.79,-170 765.79,-166.5 765.79,-173.5"/>
</a>
</g>
</g>
<!-- Node9&#45;&gt;Node6 -->
<g id="edge10_Node000009_Node000006" class="edge">
<title>Node9&#45;&gt;Node6</title>
<g id="a_edge10_Node000009_Node000006"><a xlink:title=" ">
<path fill="none" stroke="#63b8ff" d="M435,-151.1C450.66,-153.92 468.39,-157.11 484.77,-160.06"/>
<polygon fill="#63b8ff" stroke="#63b8ff" points="484.31,-163.53 494.77,-161.86 485.55,-156.64 484.31,-163.53"/>
</a>
</g>
</g>
<!-- Node9&#45;&gt;Node9 -->
<g id="edge11_Node000009_Node000009" class="edge">
<title>Node9&#45;&gt;Node9</title>
<g id="a_edge11_Node000009_Node000009"><a xlink:title=" ">
<path fill="none" stroke="#63b8ff" d="M365.57,-152.58C354.18,-161.23 361.98,-170.5 389,-170.5 406.73,-170.5 416.19,-166.51 417.37,-161.32"/>
<polygon fill="#63b8ff" stroke="#63b8ff" points="420.4,-159.56 412.43,-152.58 414.31,-163.01 420.4,-159.56"/>
</a>
</g>
</g>
<!-- Node11 -->
<g id="Node000011" class="node">
<title>Node11</title>
<g id="a_Node000011"><a xlink:href="external_8c.html#aeb87c527482a244173df36a1f3d4f446" target="_top" xlink:title=" ">
<polygon fill="white" stroke="#666666" points="435,-115.5 343,-115.5 343,-96.5 435,-96.5 435,-115.5"/>
<text text-anchor="middle" x="389" y="-103.5" font-family="Helvetica,sans-Serif" font-size="10.00">func_800C21E8</text>
</a>
</g>
</g>
<!-- Node10&#45;&gt;Node11 -->
<g id="edge13_Node000010_Node000011" class="edge">
<title>Node10&#45;&gt;Node11</title>
<g id="a_edge13_Node000010_Node000011"><a xlink:title=" ">
<path fill="none" stroke="#63b8ff" d="M277.12,-106C294.5,-106 314.55,-106 332.78,-106"/>
<polygon fill="#63b8ff" stroke="#63b8ff" points="332.98,-109.5 342.98,-106 332.98,-102.5 332.98,-109.5"/>
</a>
</g>
</g>
<!-- Node12 -->
<g id="Node000012" class="node">
<title>Node12</title>
<g id="a_Node000012"><a xlink:href="external_8c.html#a028d40421b90c38f68ebfd5acc626f2e" target="_top" xlink:title=" ">
<polygon fill="white" stroke="#666666" points="435,-78.5 343,-78.5 343,-59.5 435,-59.5 435,-78.5"/>
<text text-anchor="middle" x="389" y="-66.5" font-family="Helvetica,sans-Serif" font-size="10.00">func_800C5578</text>
</a>
</g>
</g>
<!-- Node10&#45;&gt;Node12 -->
<g id="edge14_Node000010_Node000012" class="edge">
<title>Node10&#45;&gt;Node12</title>
<g id="a_edge14_Node000010_Node000012"><a xlink:title=" ">
<path fill="none" stroke="#63b8ff" d="M272.17,-96.47C292.2,-91.72 316.62,-85.93 337.87,-80.89"/>
<polygon fill="#63b8ff" stroke="#63b8ff" points="338.77,-84.27 347.69,-78.56 337.15,-77.46 338.77,-84.27"/>
</a>
</g>
</g>
<!-- Node13 -->
<g id="Node000013" class="node">
<title>Node13</title>
<g id="a_Node000013"><a xlink:href="external_8c.html#ac0fb767de7e14a03f1bcfa53f0abd23b" target="_top" xlink:title=" ">
<polygon fill="white" stroke="#666666" points="611,-115.5 471,-115.5 471,-96.5 611,-96.5 611,-115.5"/>
<text text-anchor="middle" x="541" y="-103.5" font-family="Helvetica,sans-Serif" font-size="10.00">delete_sound_from_bank</text>
</a>
</g>
</g>
<!-- Node12&#45;&gt;Node13 -->
<g id="edge15_Node000012_Node000013" class="edge">
<title>Node12&#45;&gt;Node13</title>
<g id="a_edge15_Node000012_Node000013"><a xlink:title=" ">
<path fill="none" stroke="#63b8ff" d="M428.63,-78.53C447.8,-83.26 471.16,-89.02 491.52,-94.04"/>
<polygon fill="#63b8ff" stroke="#63b8ff" points="490.69,-97.44 501.24,-96.44 492.37,-90.65 490.69,-97.44"/>
</a>
</g>
</g>
<!-- Node15 -->
<g id="Node000015" class="node">
<title>Node15</title>
<g id="a_Node000015"><a xlink:href="external_8c.html#ab83bd36e63f0f1baddcb2482b5ad31b0" target="_top" xlink:title=" ">
<polygon fill="white" stroke="#666666" points="587.5,-78.5 494.5,-78.5 494.5,-59.5 587.5,-59.5 587.5,-78.5"/>
<text text-anchor="middle" x="541" y="-66.5" font-family="Helvetica,sans-Serif" font-size="10.00">func_800C41CC</text>
</a>
</g>
</g>
<!-- Node12&#45;&gt;Node15 -->
<g id="edge17_Node000012_Node000015" class="edge">
<title>Node12&#45;&gt;Node15</title>
<g id="a_edge17_Node000012_Node000015"><a xlink:title=" ">
<path fill="none" stroke="#63b8ff" d="M435,-69C450.37,-69 467.74,-69 483.86,-69"/>
<polygon fill="#63b8ff" stroke="#63b8ff" points="484.25,-72.5 494.25,-69 484.25,-65.5 484.25,-72.5"/>
</a>
</g>
</g>
<!-- Node16 -->
<g id="Node000016" class="node">
<title>Node16</title>
<g id="a_Node000016"><a xlink:href="port__eu_8c.html#aa89dfaecca46c6d071f08c1898d1f7c9" target="_top" xlink:title=" ">
<polygon fill="white" stroke="#666666" points="587.5,-41.5 494.5,-41.5 494.5,-22.5 587.5,-22.5 587.5,-41.5"/>
<text text-anchor="middle" x="541" y="-29.5" font-family="Helvetica,sans-Serif" font-size="10.00">func_800CBBE8</text>
</a>
</g>
</g>
<!-- Node12&#45;&gt;Node16 -->
<g id="edge18_Node000012_Node000016" class="edge">
<title>Node12&#45;&gt;Node16</title>
<g id="a_edge18_Node000012_Node000016"><a xlink:title=" ">
<path fill="none" stroke="#63b8ff" d="M428.63,-59.47C447.8,-54.74 471.16,-48.98 491.52,-43.96"/>
<polygon fill="#63b8ff" stroke="#63b8ff" points="492.37,-47.35 501.24,-41.56 490.69,-40.56 492.37,-47.35"/>
</a>
</g>
</g>
<!-- Node14 -->
<g id="Node000014" class="node">
<title>Node14</title>
<g id="a_Node000014"><a xlink:href="external_8c.html#a358ac55e8ab5262dcae8037334be06d7" target="_top" xlink:title=" ">
<polygon fill="white" stroke="#666666" points="739.5,-115.5 647.5,-115.5 647.5,-96.5 739.5,-96.5 739.5,-115.5"/>
<text text-anchor="middle" x="693.5" y="-103.5" font-family="Helvetica,sans-Serif" font-size="10.00">func_800C40F0</text>
</a>
</g>
</g>
<!-- Node13&#45;&gt;Node14 -->
<g id="edge16_Node000013_Node000014" class="edge">
<title>Node13&#45;&gt;Node14</title>
<g id="a_edge16_Node000013_Node000014"><a xlink:title=" ">
<path fill="none" stroke="#63b8ff" d="M611.08,-106C619.87,-106 628.78,-106 637.31,-106"/>
<polygon fill="#63b8ff" stroke="#63b8ff" points="637.5,-109.5 647.5,-106 637.5,-102.5 637.5,-109.5"/>
</a>
</g>
</g>
<!-- Node17 -->
<g id="Node000017" class="node">
<title>Node17</title>
<g id="a_Node000017"><a xlink:href="port__eu_8c.html#af361a20d2e08f30c53a237ca481ff734" target="_top" xlink:title=" ">
<polygon fill="white" stroke="#666666" points="740,-41.5 647,-41.5 647,-22.5 740,-22.5 740,-41.5"/>
<text text-anchor="middle" x="693.5" y="-29.5" font-family="Helvetica,sans-Serif" font-size="10.00">func_800CBB48</text>
</a>
</g>
</g>
<!-- Node16&#45;&gt;Node17 -->
<g id="edge19_Node000016_Node000017" class="edge">
<title>Node16&#45;&gt;Node17</title>
<g id="a_edge19_Node000016_Node000017"><a xlink:title=" ">
<path fill="none" stroke="#63b8ff" d="M587.56,-32C602.96,-32 620.34,-32 636.46,-32"/>
<polygon fill="#63b8ff" stroke="#63b8ff" points="636.83,-35.5 646.83,-32 636.83,-28.5 636.83,-35.5"/>
</a>
</g>
</g>
</g>
</svg>
