<?xml version="1.0" encoding="UTF-8" standalone="no"?>
<!DOCTYPE svg PUBLIC "-//W3C//DTD SVG 1.1//EN"
 "http://www.w3.org/Graphics/SVG/1.1/DTD/svg11.dtd">
<!-- Generated by graphviz version 2.43.0 (0)
 -->
<!-- Title: place_piranha_plants Pages: 1 -->
<svg width="1556pt" height="323pt"
 viewBox="0.00 0.00 1556.00 323.28" xmlns="http://www.w3.org/2000/svg" xmlns:xlink="http://www.w3.org/1999/xlink">
<g id="graph0" class="graph" transform="scale(1 1) rotate(0) translate(4 319.28)">
<title>place_piranha_plants</title>
<!-- Node1 -->
<g id="Node000001" class="node">
<title>Node1</title>
<g id="a_Node000001"><a xlink:title=" ">
<polygon fill="#999999" stroke="#666666" points="120,-57 0,-57 0,-38 120,-38 120,-57"/>
<text text-anchor="middle" x="60" y="-45" font-family="Helvetica,sans-Serif" font-size="10.00">place_piranha_plants</text>
</a>
</g>
</g>
<!-- Node2 -->
<g id="Node000002" class="node">
<title>Node2</title>
<g id="a_Node000002"><a xlink:href="actors_8c.html#a24d84b2c349ccb02fa767a4e49c4f2c5" target="_top" xlink:title=" ">
<polygon fill="white" stroke="#666666" points="277,-190 156,-190 156,-171 277,-171 277,-190"/>
<text text-anchor="middle" x="216.5" y="-178" font-family="Helvetica,sans-Serif" font-size="10.00">addActorToEmptySlot</text>
</a>
</g>
</g>
<!-- Node1&#45;&gt;Node2 -->
<g id="edge1_Node000001_Node000002" class="edge">
<title>Node1&#45;&gt;Node2</title>
<g id="a_edge1_Node000001_Node000002"><a xlink:title=" ">
<path fill="none" stroke="#63b8ff" d="M72.11,-57.07C98.15,-79.48 163.39,-135.64 196.13,-163.82"/>
<polygon fill="#63b8ff" stroke="#63b8ff" points="194.21,-166.79 204.07,-170.66 198.78,-161.49 194.21,-166.79"/>
</a>
</g>
</g>
<!-- Node17 -->
<g id="Node000017" class="node">
<title>Node17</title>
<g id="a_Node000017"><a xlink:href="math__util_8c.html#a79fd07a0971ec96a3ff0801963a2fa7f" target="_top" xlink:title=" ">
<polygon fill="white" stroke="#666666" points="814,-76 750,-76 750,-57 814,-57 814,-76"/>
<text text-anchor="middle" x="782" y="-64" font-family="Helvetica,sans-Serif" font-size="10.00">vec3f_set</text>
</a>
</g>
</g>
<!-- Node1&#45;&gt;Node17 -->
<g id="edge27_Node000001_Node000017" class="edge">
<title>Node1&#45;&gt;Node17</title>
<g id="a_edge27_Node000001_Node000017"><a xlink:title=" ">
<path fill="none" stroke="#63b8ff" d="M120.07,-47.5C179.91,-47.5 275.14,-47.5 357.5,-47.5 357.5,-47.5 357.5,-47.5 472,-47.5 568.08,-47.5 680.65,-56.77 739.83,-62.36"/>
<polygon fill="#63b8ff" stroke="#63b8ff" points="739.61,-65.85 749.9,-63.32 740.28,-58.88 739.61,-65.85"/>
</a>
</g>
</g>
<!-- Node25 -->
<g id="Node000025" class="node">
<title>Node25</title>
<g id="a_Node000025"><a xlink:href="math__util_8c.html#a9092c945c52b3a3481228b2724991e3c" target="_top" xlink:title=" ">
<polygon fill="white" stroke="#666666" points="249,-19 184,-19 184,0 249,0 249,-19"/>
<text text-anchor="middle" x="216.5" y="-7" font-family="Helvetica,sans-Serif" font-size="10.00">vec3s_set</text>
</a>
</g>
</g>
<!-- Node1&#45;&gt;Node25 -->
<g id="edge28_Node000001_Node000025" class="edge">
<title>Node1&#45;&gt;Node25</title>
<g id="a_edge28_Node000001_Node000025"><a xlink:title=" ">
<path fill="none" stroke="#63b8ff" d="M99.99,-37.91C122.57,-32.36 150.99,-25.37 173.99,-19.71"/>
<polygon fill="#63b8ff" stroke="#63b8ff" points="174.93,-23.08 183.8,-17.3 173.26,-16.29 174.93,-23.08"/>
</a>
</g>
</g>
<!-- Node3 -->
<g id="Node000003" class="node">
<title>Node3</title>
<g id="a_Node000003"><a xlink:href="actors_8c.html#a39c023177b5a7686cdd1fc65b8b953e1" target="_top" xlink:title=" ">
<polygon fill="white" stroke="#666666" points="502,-190 440,-190 440,-171 502,-171 502,-190"/>
<text text-anchor="middle" x="471" y="-178" font-family="Helvetica,sans-Serif" font-size="10.00">actor_init</text>
</a>
</g>
</g>
<!-- Node2&#45;&gt;Node3 -->
<g id="edge2_Node000002_Node000003" class="edge">
<title>Node2&#45;&gt;Node3</title>
<g id="a_edge2_Node000002_Node000003"><a xlink:title=" ">
<path fill="none" stroke="#63b8ff" d="M277.02,-180.5C324.1,-180.5 388.55,-180.5 429.74,-180.5"/>
<polygon fill="#63b8ff" stroke="#63b8ff" points="429.94,-184 439.94,-180.5 429.94,-177 429.94,-184"/>
</a>
</g>
</g>
<!-- Node24 -->
<g id="Node000024" class="node">
<title>Node24</title>
<g id="a_Node000024"><a xlink:href="actors_8c.html#a0c9d11d8956bf92c32a5e9bafd7036e6" target="_top" xlink:title=" ">
<polygon fill="white" stroke="#666666" points="404,-271 313,-271 313,-252 404,-252 404,-271"/>
<text text-anchor="middle" x="358.5" y="-259" font-family="Helvetica,sans-Serif" font-size="10.00">func_8029E890</text>
</a>
</g>
</g>
<!-- Node2&#45;&gt;Node24 -->
<g id="edge23_Node000002_Node000024" class="edge">
<title>Node2&#45;&gt;Node24</title>
<g id="a_edge23_Node000002_Node000024"><a xlink:title=" ">
<path fill="none" stroke="#63b8ff" d="M234.11,-190.11C258.32,-204.12 303.5,-230.26 331.96,-246.72"/>
<polygon fill="#63b8ff" stroke="#63b8ff" points="330.5,-249.92 340.91,-251.9 334.01,-243.87 330.5,-249.92"/>
</a>
</g>
</g>
<!-- Node4 -->
<g id="Node000004" class="node">
<title>Node4</title>
<g id="a_Node000004"><a xlink:href="actors_8c.html#a1a9bccb586242555a9123ebd4ab70f2a" target="_top" xlink:title=" ">
<polygon fill="white" stroke="#666666" points="670,-217.5 538,-217.5 538,-187.5 670,-187.5 670,-217.5"/>
<text text-anchor="start" x="546" y="-205.5" font-family="Helvetica,sans-Serif" font-size="10.00">cleanup_red_and_green</text>
<text text-anchor="middle" x="604" y="-194.5" font-family="Helvetica,sans-Serif" font-size="10.00">_shells</text>
</a>
</g>
</g>
<!-- Node3&#45;&gt;Node4 -->
<g id="edge3_Node000003_Node000004" class="edge">
<title>Node3&#45;&gt;Node4</title>
<g id="a_edge3_Node000003_Node000004"><a xlink:title=" ">
<path fill="none" stroke="#63b8ff" d="M502.05,-185.55C509.93,-186.87 518.79,-188.36 527.9,-189.89"/>
<polygon fill="#63b8ff" stroke="#63b8ff" points="527.4,-193.35 537.85,-191.56 528.56,-186.45 527.4,-193.35"/>
</a>
</g>
</g>
<!-- Node16 -->
<g id="Node000016" class="node">
<title>Node16</title>
<g id="a_Node000016"><a xlink:href="collision_8c.html#ad72fef3ffe32191d73b1822f512ebf3f" target="_top" xlink:title=" ">
<polygon fill="white" stroke="#666666" points="651.5,-132 556.5,-132 556.5,-113 651.5,-113 651.5,-132"/>
<text text-anchor="middle" x="604" y="-120" font-family="Helvetica,sans-Serif" font-size="10.00">func_802AAAAC</text>
</a>
</g>
</g>
<!-- Node3&#45;&gt;Node16 -->
<g id="edge15_Node000003_Node000016" class="edge">
<title>Node3&#45;&gt;Node16</title>
<g id="a_edge15_Node000003_Node000016"><a xlink:title=" ">
<path fill="none" stroke="#63b8ff" d="M485.56,-170.75C498.5,-161.83 518.81,-148.78 538,-140.5 542.47,-138.57 547.2,-136.79 551.99,-135.17"/>
<polygon fill="#63b8ff" stroke="#63b8ff" points="553.36,-138.41 561.84,-132.05 551.25,-131.73 553.36,-138.41"/>
</a>
</g>
</g>
<!-- Node18 -->
<g id="Node000018" class="node">
<title>Node18</title>
<g id="a_Node000018"><a xlink:href="collision_8c.html#a365367628b7140a7a880beeecce9c305" target="_top" xlink:title=" ">
<polygon fill="white" stroke="#666666" points="651.5,-169 556.5,-169 556.5,-150 651.5,-150 651.5,-169"/>
<text text-anchor="middle" x="604" y="-157" font-family="Helvetica,sans-Serif" font-size="10.00">func_802ADDC8</text>
</a>
</g>
</g>
<!-- Node3&#45;&gt;Node18 -->
<g id="edge17_Node000003_Node000018" class="edge">
<title>Node3&#45;&gt;Node18</title>
<g id="a_edge17_Node000003_Node000018"><a xlink:title=" ">
<path fill="none" stroke="#63b8ff" d="M502.05,-175.68C515.25,-173.57 531.2,-171.01 546.48,-168.56"/>
<polygon fill="#63b8ff" stroke="#63b8ff" points="547.07,-172.01 556.39,-166.97 545.96,-165.1 547.07,-172.01"/>
</a>
</g>
</g>
<!-- Node22 -->
<g id="Node000022" class="node">
<title>Node22</title>
<g id="a_Node000022"><a xlink:href="math__util_8c.html#af7b470ed76fce07b8042a47c96e5690b" target="_top" xlink:title=" ">
<polygon fill="white" stroke="#666666" points="657.5,-95 550.5,-95 550.5,-76 657.5,-76 657.5,-95"/>
<text text-anchor="middle" x="604" y="-83" font-family="Helvetica,sans-Serif" font-size="10.00">vec3f_copy_return</text>
</a>
</g>
</g>
<!-- Node3&#45;&gt;Node22 -->
<g id="edge21_Node000003_Node000022" class="edge">
<title>Node3&#45;&gt;Node22</title>
<g id="a_edge21_Node000003_Node000022"><a xlink:title=" ">
<path fill="none" stroke="#63b8ff" d="M477.58,-170.85C487.56,-154.46 510.06,-121.26 538,-103.5 540.58,-101.86 543.32,-100.36 546.15,-99"/>
<polygon fill="#63b8ff" stroke="#63b8ff" points="547.56,-102.2 555.42,-95.1 544.85,-95.75 547.56,-102.2"/>
</a>
</g>
</g>
<!-- Node23 -->
<g id="Node000023" class="node">
<title>Node23</title>
<g id="a_Node000023"><a xlink:href="math__util_8c.html#a0e270ee67600c8c9c2f140c647d008a1" target="_top" xlink:title=" ">
<polygon fill="white" stroke="#666666" points="641,-255 567,-255 567,-236 641,-236 641,-255"/>
<text text-anchor="middle" x="604" y="-243" font-family="Helvetica,sans-Serif" font-size="10.00">vec3s_copy</text>
</a>
</g>
</g>
<!-- Node3&#45;&gt;Node23 -->
<g id="edge22_Node000003_Node000023" class="edge">
<title>Node3&#45;&gt;Node23</title>
<g id="a_edge22_Node000003_Node000023"><a xlink:title=" ">
<path fill="none" stroke="#63b8ff" d="M483.44,-190.22C496.06,-200.51 517.34,-216.61 538,-226.5 544.06,-229.4 550.64,-231.95 557.23,-234.17"/>
<polygon fill="#63b8ff" stroke="#63b8ff" points="556.21,-237.52 566.8,-237.17 558.31,-230.84 556.21,-237.52"/>
</a>
</g>
</g>
<!-- Node5 -->
<g id="Node000005" class="node">
<title>Node5</title>
<g id="a_Node000005"><a xlink:href="actors_8c.html#a694ec6ef7548b8618aeb35c038d3a9b9" target="_top" xlink:title=" ">
<polygon fill="white" stroke="#666666" points="823.5,-244 740.5,-244 740.5,-225 823.5,-225 823.5,-244"/>
<text text-anchor="middle" x="782" y="-232" font-family="Helvetica,sans-Serif" font-size="10.00">destroy_actor</text>
</a>
</g>
</g>
<!-- Node4&#45;&gt;Node5 -->
<g id="edge4_Node000004_Node000005" class="edge">
<title>Node4&#45;&gt;Node5</title>
<g id="a_edge4_Node000004_Node000005"><a xlink:title=" ">
<path fill="none" stroke="#63b8ff" d="M670.04,-214.32C690.04,-217.96 711.75,-221.91 730.61,-225.34"/>
<polygon fill="#63b8ff" stroke="#63b8ff" points="730.02,-228.79 740.48,-227.13 731.27,-221.9 730.02,-228.79"/>
</a>
</g>
</g>
<!-- Node15 -->
<g id="Node000015" class="node">
<title>Node15</title>
<g id="a_Node000015"><a xlink:href="code__80005FD0_8c.html#acb7b3d384c78d219f4b7040e78f6a2f2" target="_top" xlink:title=" ">
<polygon fill="white" stroke="#666666" points="858,-293.5 706,-293.5 706,-263.5 858,-263.5 858,-293.5"/>
<text text-anchor="start" x="714" y="-281.5" font-family="Helvetica,sans-Serif" font-size="10.00">remove_actor_in_unexpired</text>
<text text-anchor="middle" x="782" y="-270.5" font-family="Helvetica,sans-Serif" font-size="10.00">_actor_list</text>
</a>
</g>
</g>
<!-- Node4&#45;&gt;Node15 -->
<g id="edge14_Node000004_Node000015" class="edge">
<title>Node4&#45;&gt;Node15</title>
<g id="a_edge14_Node000004_Node000015"><a xlink:title=" ">
<path fill="none" stroke="#63b8ff" d="M648.71,-217.52C655.96,-220.52 663.3,-223.87 670,-227.5 687.36,-236.9 688.44,-244.5 706,-253.5 710.28,-255.69 714.79,-257.75 719.39,-259.68"/>
<polygon fill="#63b8ff" stroke="#63b8ff" points="718.33,-263.02 728.92,-263.43 720.9,-256.51 718.33,-263.02"/>
</a>
</g>
</g>
<!-- Node6 -->
<g id="Node000006" class="node">
<title>Node6</title>
<g id="a_Node000006"><a xlink:href="actors_8c.html#a15517665ab054722a5c980c0f1008cd0" target="_top" xlink:title=" ">
<polygon fill="white" stroke="#666666" points="987,-287 894,-287 894,-268 987,-268 987,-287"/>
<text text-anchor="middle" x="940.5" y="-275" font-family="Helvetica,sans-Serif" font-size="10.00">func_8029E7DC</text>
</a>
</g>
</g>
<!-- Node5&#45;&gt;Node6 -->
<g id="edge5_Node000005_Node000006" class="edge">
<title>Node5&#45;&gt;Node6</title>
<g id="a_edge5_Node000005_Node000006"><a xlink:title=" ">
<path fill="none" stroke="#63b8ff" d="M819.27,-244.06C831.57,-247.33 845.39,-251.04 858,-254.5 870.53,-257.94 884.12,-261.74 896.55,-265.25"/>
<polygon fill="#63b8ff" stroke="#63b8ff" points="895.65,-268.64 906.22,-267.99 897.55,-261.9 895.65,-268.64"/>
</a>
</g>
</g>
<!-- Node7 -->
<g id="Node000007" class="node">
<title>Node7</title>
<g id="a_Node000007"><a xlink:href="external_8c.html#ae72057869772019e4464c87d4e16c682" target="_top" xlink:title=" ">
<polygon fill="white" stroke="#666666" points="1115,-287 1023,-287 1023,-268 1115,-268 1115,-287"/>
<text text-anchor="middle" x="1069" y="-275" font-family="Helvetica,sans-Serif" font-size="10.00">func_800C99E0</text>
</a>
</g>
</g>
<!-- Node6&#45;&gt;Node7 -->
<g id="edge6_Node000006_Node000007" class="edge">
<title>Node6&#45;&gt;Node7</title>
<g id="a_edge6_Node000006_Node000007"><a xlink:title=" ">
<path fill="none" stroke="#63b8ff" d="M987.17,-277.5C995.42,-277.5 1004.11,-277.5 1012.6,-277.5"/>
<polygon fill="#63b8ff" stroke="#63b8ff" points="1012.82,-281 1022.82,-277.5 1012.82,-274 1012.82,-281"/>
</a>
</g>
</g>
<!-- Node8 -->
<g id="Node000008" class="node">
<title>Node8</title>
<g id="a_Node000008"><a xlink:href="external_8c.html#aeb87c527482a244173df36a1f3d4f446" target="_top" xlink:title=" ">
<polygon fill="white" stroke="#666666" points="1243,-306 1151,-306 1151,-287 1243,-287 1243,-306"/>
<text text-anchor="middle" x="1197" y="-294" font-family="Helvetica,sans-Serif" font-size="10.00">func_800C21E8</text>
</a>
</g>
</g>
<!-- Node7&#45;&gt;Node8 -->
<g id="edge7_Node000007_Node000008" class="edge">
<title>Node7&#45;&gt;Node8</title>
<g id="a_edge7_Node000007_Node000008"><a xlink:title=" ">
<path fill="none" stroke="#63b8ff" d="M1115.13,-284.31C1123.46,-285.56 1132.23,-286.88 1140.81,-288.18"/>
<polygon fill="#63b8ff" stroke="#63b8ff" points="1140.35,-291.65 1150.76,-289.68 1141.39,-284.73 1140.35,-291.65"/>
</a>
</g>
</g>
<!-- Node9 -->
<g id="Node000009" class="node">
<title>Node9</title>
<g id="a_Node000009"><a xlink:href="external_8c.html#a028d40421b90c38f68ebfd5acc626f2e" target="_top" xlink:title=" ">
<polygon fill="white" stroke="#666666" points="1243,-269 1151,-269 1151,-250 1243,-250 1243,-269"/>
<text text-anchor="middle" x="1197" y="-257" font-family="Helvetica,sans-Serif" font-size="10.00">func_800C5578</text>
</a>
</g>
</g>
<!-- Node7&#45;&gt;Node9 -->
<g id="edge8_Node000007_Node000009" class="edge">
<title>Node7&#45;&gt;Node9</title>
<g id="a_edge8_Node000007_Node000009"><a xlink:title=" ">
<path fill="none" stroke="#63b8ff" d="M1115.13,-271.05C1123.46,-269.86 1132.23,-268.61 1140.81,-267.38"/>
<polygon fill="#63b8ff" stroke="#63b8ff" points="1141.35,-270.84 1150.76,-265.96 1140.36,-263.91 1141.35,-270.84"/>
</a>
</g>
</g>
<!-- Node10 -->
<g id="Node000010" class="node">
<title>Node10</title>
<g id="a_Node000010"><a xlink:href="external_8c.html#ac0fb767de7e14a03f1bcfa53f0abd23b" target="_top" xlink:title=" ">
<polygon fill="white" stroke="#666666" points="1419,-306 1279,-306 1279,-287 1419,-287 1419,-306"/>
<text text-anchor="middle" x="1349" y="-294" font-family="Helvetica,sans-Serif" font-size="10.00">delete_sound_from_bank</text>
</a>
</g>
</g>
<!-- Node9&#45;&gt;Node10 -->
<g id="edge9_Node000009_Node000010" class="edge">
<title>Node9&#45;&gt;Node10</title>
<g id="a_edge9_Node000009_Node000010"><a xlink:title=" ">
<path fill="none" stroke="#63b8ff" d="M1236.63,-269.03C1255.8,-273.76 1279.16,-279.52 1299.52,-284.54"/>
<polygon fill="#63b8ff" stroke="#63b8ff" points="1298.69,-287.94 1309.24,-286.94 1300.37,-281.15 1298.69,-287.94"/>
</a>
</g>
</g>
<!-- Node12 -->
<g id="Node000012" class="node">
<title>Node12</title>
<g id="a_Node000012"><a xlink:href="external_8c.html#ab83bd36e63f0f1baddcb2482b5ad31b0" target="_top" xlink:title=" ">
<polygon fill="white" stroke="#666666" points="1395.5,-269 1302.5,-269 1302.5,-250 1395.5,-250 1395.5,-269"/>
<text text-anchor="middle" x="1349" y="-257" font-family="Helvetica,sans-Serif" font-size="10.00">func_800C41CC</text>
</a>
</g>
</g>
<!-- Node9&#45;&gt;Node12 -->
<g id="edge11_Node000009_Node000012" class="edge">
<title>Node9&#45;&gt;Node12</title>
<g id="a_edge11_Node000009_Node000012"><a xlink:title=" ">
<path fill="none" stroke="#63b8ff" d="M1243,-259.5C1258.37,-259.5 1275.74,-259.5 1291.86,-259.5"/>
<polygon fill="#63b8ff" stroke="#63b8ff" points="1292.25,-263 1302.25,-259.5 1292.25,-256 1292.25,-263"/>
</a>
</g>
</g>
<!-- Node13 -->
<g id="Node000013" class="node">
<title>Node13</title>
<g id="a_Node000013"><a xlink:href="port__eu_8c.html#aa89dfaecca46c6d071f08c1898d1f7c9" target="_top" xlink:title=" ">
<polygon fill="white" stroke="#666666" points="1395.5,-232 1302.5,-232 1302.5,-213 1395.5,-213 1395.5,-232"/>
<text text-anchor="middle" x="1349" y="-220" font-family="Helvetica,sans-Serif" font-size="10.00">func_800CBBE8</text>
</a>
</g>
</g>
<!-- Node9&#45;&gt;Node13 -->
<g id="edge12_Node000009_Node000013" class="edge">
<title>Node9&#45;&gt;Node13</title>
<g id="a_edge12_Node000009_Node000013"><a xlink:title=" ">
<path fill="none" stroke="#63b8ff" d="M1236.63,-249.97C1255.8,-245.24 1279.16,-239.48 1299.52,-234.46"/>
<polygon fill="#63b8ff" stroke="#63b8ff" points="1300.37,-237.85 1309.24,-232.06 1298.69,-231.06 1300.37,-237.85"/>
</a>
</g>
</g>
<!-- Node11 -->
<g id="Node000011" class="node">
<title>Node11</title>
<g id="a_Node000011"><a xlink:href="external_8c.html#a358ac55e8ab5262dcae8037334be06d7" target="_top" xlink:title=" ">
<polygon fill="white" stroke="#666666" points="1547.5,-306 1455.5,-306 1455.5,-287 1547.5,-287 1547.5,-306"/>
<text text-anchor="middle" x="1501.5" y="-294" font-family="Helvetica,sans-Serif" font-size="10.00">func_800C40F0</text>
</a>
</g>
</g>
<!-- Node10&#45;&gt;Node11 -->
<g id="edge10_Node000010_Node000011" class="edge">
<title>Node10&#45;&gt;Node11</title>
<g id="a_edge10_Node000010_Node000011"><a xlink:title=" ">
<path fill="none" stroke="#63b8ff" d="M1419.08,-296.5C1427.87,-296.5 1436.78,-296.5 1445.31,-296.5"/>
<polygon fill="#63b8ff" stroke="#63b8ff" points="1445.5,-300 1455.5,-296.5 1445.5,-293 1445.5,-300"/>
</a>
</g>
</g>
<!-- Node14 -->
<g id="Node000014" class="node">
<title>Node14</title>
<g id="a_Node000014"><a xlink:href="port__eu_8c.html#af361a20d2e08f30c53a237ca481ff734" target="_top" xlink:title=" ">
<polygon fill="white" stroke="#666666" points="1548,-232 1455,-232 1455,-213 1548,-213 1548,-232"/>
<text text-anchor="middle" x="1501.5" y="-220" font-family="Helvetica,sans-Serif" font-size="10.00">func_800CBB48</text>
</a>
</g>
</g>
<!-- Node13&#45;&gt;Node14 -->
<g id="edge13_Node000013_Node000014" class="edge">
<title>Node13&#45;&gt;Node14</title>
<g id="a_edge13_Node000013_Node000014"><a xlink:title=" ">
<path fill="none" stroke="#63b8ff" d="M1395.56,-222.5C1410.96,-222.5 1428.34,-222.5 1444.46,-222.5"/>
<polygon fill="#63b8ff" stroke="#63b8ff" points="1444.83,-226 1454.83,-222.5 1444.83,-219 1444.83,-226"/>
</a>
</g>
</g>
<!-- Node16&#45;&gt;Node17 -->
<g id="edge16_Node000016_Node000017" class="edge">
<title>Node16&#45;&gt;Node17</title>
<g id="a_edge16_Node000016_Node000017"><a xlink:title=" ">
<path fill="none" stroke="#63b8ff" d="M638.47,-112.97C648.62,-110.02 659.79,-106.69 670,-103.5 694.6,-95.81 722.09,-86.65 743.56,-79.37"/>
<polygon fill="#63b8ff" stroke="#63b8ff" points="744.93,-82.6 753.27,-76.06 742.67,-75.97 744.93,-82.6"/>
</a>
</g>
</g>
<!-- Node19 -->
<g id="Node000019" class="node">
<title>Node19</title>
<g id="a_Node000019"><a xlink:href="collision_8c.html#afce45acb8da354da0a5b501003be1aef" target="_top" xlink:title=" ">
<polygon fill="white" stroke="#666666" points="828.5,-206 735.5,-206 735.5,-187 828.5,-187 828.5,-206"/>
<text text-anchor="middle" x="782" y="-194" font-family="Helvetica,sans-Serif" font-size="10.00">func_802AAE4C</text>
</a>
</g>
</g>
<!-- Node18&#45;&gt;Node19 -->
<g id="edge18_Node000018_Node000019" class="edge">
<title>Node18&#45;&gt;Node19</title>
<g id="a_edge18_Node000018_Node000019"><a xlink:title=" ">
<path fill="none" stroke="#63b8ff" d="M650.32,-169.03C673.33,-173.86 701.47,-179.78 725.74,-184.88"/>
<polygon fill="#63b8ff" stroke="#63b8ff" points="725.02,-188.31 735.52,-186.94 726.46,-181.46 725.02,-188.31"/>
</a>
</g>
</g>
<!-- Node20 -->
<g id="Node000020" class="node">
<title>Node20</title>
<g id="a_Node000020"><a xlink:href="collision_8c.html#adcc608ea0eae3bf9a27ab79ec64b4899" target="_top" xlink:title=" ">
<polygon fill="white" stroke="#666666" points="828,-169 736,-169 736,-150 828,-150 828,-169"/>
<text text-anchor="middle" x="782" y="-157" font-family="Helvetica,sans-Serif" font-size="10.00">func_802AB288</text>
</a>
</g>
</g>
<!-- Node18&#45;&gt;Node20 -->
<g id="edge19_Node000018_Node000020" class="edge">
<title>Node18&#45;&gt;Node20</title>
<g id="a_edge19_Node000018_Node000020"><a xlink:title=" ">
<path fill="none" stroke="#63b8ff" d="M651.7,-159.5C674.41,-159.5 701.87,-159.5 725.63,-159.5"/>
<polygon fill="#63b8ff" stroke="#63b8ff" points="725.9,-163 735.9,-159.5 725.9,-156 725.9,-163"/>
</a>
</g>
</g>
<!-- Node21 -->
<g id="Node000021" class="node">
<title>Node21</title>
<g id="a_Node000021"><a xlink:href="collision_8c.html#ab440aa3fc960b7b4b5ad8e4bcaa06b00" target="_top" xlink:title=" ">
<polygon fill="white" stroke="#666666" points="828.5,-132 735.5,-132 735.5,-113 828.5,-113 828.5,-132"/>
<text text-anchor="middle" x="782" y="-120" font-family="Helvetica,sans-Serif" font-size="10.00">func_802AB6C4</text>
</a>
</g>
</g>
<!-- Node18&#45;&gt;Node21 -->
<g id="edge20_Node000018_Node000021" class="edge">
<title>Node18&#45;&gt;Node21</title>
<g id="a_edge20_Node000018_Node000021"><a xlink:title=" ">
<path fill="none" stroke="#63b8ff" d="M650.32,-149.97C673.33,-145.14 701.47,-139.22 725.74,-134.12"/>
<polygon fill="#63b8ff" stroke="#63b8ff" points="726.46,-137.54 735.52,-132.06 725.02,-130.69 726.46,-137.54"/>
</a>
</g>
</g>
<!-- Node24&#45;&gt;Node3 -->
<g id="edge24_Node000024_Node000003" class="edge">
<title>Node24&#45;&gt;Node3</title>
<g id="a_edge24_Node000024_Node000003"><a xlink:title=" ">
<path fill="none" stroke="#63b8ff" d="M372.61,-251.89C391.38,-238.13 426.14,-212.65 448.66,-196.15"/>
<polygon fill="#63b8ff" stroke="#63b8ff" points="450.91,-198.83 456.91,-190.1 446.77,-193.19 450.91,-198.83"/>
</a>
</g>
</g>
<!-- Node24&#45;&gt;Node6 -->
<g id="edge25_Node000024_Node000006" class="edge">
<title>Node24&#45;&gt;Node6</title>
<g id="a_edge25_Node000024_Node000006"><a xlink:title=" ">
<path fill="none" stroke="#63b8ff" d="M397.38,-271.07C410.77,-274.16 425.99,-277.34 440,-279.5 623.88,-307.88 674,-330.09 858,-302.5 873.94,-300.11 891.06,-295.23 905.47,-290.41"/>
<polygon fill="#63b8ff" stroke="#63b8ff" points="906.67,-293.7 914.98,-287.12 904.38,-287.09 906.67,-293.7"/>
</a>
</g>
</g>
<!-- Node24&#45;&gt;Node15 -->
<g id="edge26_Node000024_Node000015" class="edge">
<title>Node24&#45;&gt;Node15</title>
<g id="a_edge26_Node000024_Node000015"><a xlink:title=" ">
<path fill="none" stroke="#63b8ff" d="M404.21,-263.3C473.3,-266.09 607.22,-271.49 695.37,-275.05"/>
<polygon fill="#63b8ff" stroke="#63b8ff" points="695.48,-278.55 705.62,-275.46 695.77,-271.56 695.48,-278.55"/>
</a>
</g>
</g>
</g>
</svg>
