<?xml version="1.0" encoding="UTF-8" standalone="no"?>
<!DOCTYPE svg PUBLIC "-//W3C//DTD SVG 1.1//EN"
 "http://www.w3.org/Graphics/SVG/1.1/DTD/svg11.dtd">
<!-- Generated by graphviz version 2.43.0 (0)
 -->
<!-- Title: triple_shell_actor_collide_with_player Pages: 1 -->
<svg width="1644pt" height="250pt"
 viewBox="0.00 0.00 1644.00 250.49" xmlns="http://www.w3.org/2000/svg" xmlns:xlink="http://www.w3.org/1999/xlink">
<g id="graph0" class="graph" transform="scale(1 1) rotate(0) translate(4 246.49)">
<title>triple_shell_actor_collide_with_player</title>
<!-- Node1 -->
<g id="Node000001" class="node">
<title>Node1</title>
<g id="a_Node000001"><a xlink:title=" ">
<polygon fill="#999999" stroke="#666666" points="1636,-134.99 1520,-134.99 1520,-104.99 1636,-104.99 1636,-134.99"/>
<text text-anchor="start" x="1528" y="-122.99" font-family="Helvetica,sans-Serif" font-size="10.00">triple_shell_actor</text>
<text text-anchor="middle" x="1578" y="-111.99" font-family="Helvetica,sans-Serif" font-size="10.00">_collide_with_player</text>
</a>
</g>
</g>
<!-- Node2 -->
<g id="Node000002" class="node">
<title>Node2</title>
<g id="a_Node000002"><a xlink:href="actors_8c.html#a53268aa601911d56424ff08fb3395bcb" target="_top" xlink:title=" ">
<polygon fill="white" stroke="#666666" points="1484,-134.99 1365,-134.99 1365,-104.99 1484,-104.99 1484,-134.99"/>
<text text-anchor="start" x="1373" y="-122.99" font-family="Helvetica,sans-Serif" font-size="10.00">destroy_destructable</text>
<text text-anchor="middle" x="1424.5" y="-111.99" font-family="Helvetica,sans-Serif" font-size="10.00">_actor</text>
</a>
</g>
</g>
<!-- Node1&#45;&gt;Node2 -->
<g id="edge1_Node000001_Node000002" class="edge">
<title>Node1&#45;&gt;Node2</title>
<g id="a_edge1_Node000001_Node000002"><a xlink:title=" ">
<path fill="none" stroke="#63b8ff" d="M1509.5,-119.99C1501.03,-119.99 1492.43,-119.99 1484.12,-119.99"/>
<polygon fill="#63b8ff" stroke="#63b8ff" points="1509.72,-123.49 1519.72,-119.99 1509.72,-116.49 1509.72,-123.49"/>
</a>
</g>
</g>
<!-- Node3 -->
<g id="Node000003" class="node">
<title>Node3</title>
<g id="a_Node000003"><a xlink:href="actors_8c.html#a0fff2a94adce284fb6e2ef36de0ba5a6" target="_top" xlink:title=" ">
<polygon fill="white" stroke="#666666" points="1329,-205.49 1237,-205.49 1237,-186.49 1329,-186.49 1329,-205.49"/>
<text text-anchor="middle" x="1283" y="-193.49" font-family="Helvetica,sans-Serif" font-size="10.00">func_802A0350</text>
</a>
</g>
</g>
<!-- Node2&#45;&gt;Node3 -->
<g id="edge2_Node000002_Node000003" class="edge">
<title>Node2&#45;&gt;Node3</title>
<g id="a_edge2_Node000002_Node000003"><a xlink:title=" ">
<path fill="none" stroke="#63b8ff" d="M1387.44,-139.98C1369.85,-149.69 1348.35,-161.51 1329,-171.99 1320.13,-176.8 1310.23,-182.09 1301.98,-186.47"/>
<polygon fill="#63b8ff" stroke="#63b8ff" points="1389.2,-143.01 1396.26,-135.11 1385.81,-136.88 1389.2,-143.01"/>
</a>
</g>
</g>
<!-- Node12 -->
<g id="Node000012" class="node">
<title>Node12</title>
<g id="a_Node000012"><a xlink:href="actors_8c.html#a5d0cc071261caa5b76190cfee9c90189" target="_top" xlink:title=" ">
<polygon fill="white" stroke="#666666" points="1329,-242.49 1237,-242.49 1237,-223.49 1329,-223.49 1329,-242.49"/>
<text text-anchor="middle" x="1283" y="-230.49" font-family="Helvetica,sans-Serif" font-size="10.00">func_802A0450</text>
</a>
</g>
</g>
<!-- Node2&#45;&gt;Node12 -->
<g id="edge11_Node000002_Node000012" class="edge">
<title>Node2&#45;&gt;Node12</title>
<g id="a_edge11_Node000002_Node000012"><a xlink:title=" ">
<path fill="none" stroke="#63b8ff" d="M1405.45,-142.89C1387.83,-163.97 1359.32,-194.94 1329,-214.99 1324.09,-218.24 1318.5,-221.06 1312.97,-223.44"/>
<polygon fill="#63b8ff" stroke="#63b8ff" points="1408.23,-145.01 1411.87,-135.06 1402.82,-140.57 1408.23,-145.01"/>
</a>
</g>
</g>
<!-- Node14 -->
<g id="Node000014" class="node">
<title>Node14</title>
<g id="a_Node000014"><a xlink:href="other__shell_2update_8inc_8c.html#a0cc339b71fb81e84d30eb55dc05b1a04" target="_top" xlink:title=" ">
<polygon fill="white" stroke="#666666" points="1201,-91.49 1109,-91.49 1109,-72.49 1201,-72.49 1201,-91.49"/>
<text text-anchor="middle" x="1155" y="-79.49" font-family="Helvetica,sans-Serif" font-size="10.00">func_802B3E7C</text>
</a>
</g>
</g>
<!-- Node2&#45;&gt;Node14 -->
<g id="edge14_Node000002_Node000014" class="edge">
<title>Node2&#45;&gt;Node14</title>
<g id="a_edge14_Node000002_Node000014"><a xlink:title=" ">
<path fill="none" stroke="#63b8ff" d="M1354.7,-109.72C1346.05,-108.45 1337.32,-107.19 1329,-105.99 1285.63,-99.77 1236.1,-92.93 1201.18,-88.14"/>
<polygon fill="#63b8ff" stroke="#63b8ff" points="1354.38,-113.21 1364.78,-111.21 1355.4,-106.29 1354.38,-113.21"/>
</a>
</g>
</g>
<!-- Node15 -->
<g id="Node000015" class="node">
<title>Node15</title>
<g id="a_Node000015"><a xlink:href="other__shell_2update_8inc_8c.html#a6e281ad692a9ccd329fa6840ad38afbc" target="_top" xlink:title=" ">
<polygon fill="white" stroke="#666666" points="1073,-108.99 945,-108.99 945,-78.99 1073,-78.99 1073,-108.99"/>
<text text-anchor="start" x="953" y="-96.99" font-family="Helvetica,sans-Serif" font-size="10.00">update_actor_red_blue</text>
<text text-anchor="middle" x="1009" y="-85.99" font-family="Helvetica,sans-Serif" font-size="10.00">_shell</text>
</a>
</g>
</g>
<!-- Node2&#45;&gt;Node15 -->
<g id="edge24_Node000002_Node000015" class="edge">
<title>Node2&#45;&gt;Node15</title>
<g id="a_edge24_Node000002_Node000015"><a xlink:title=" ">
<path fill="none" stroke="#63b8ff" d="M1354.62,-116.03C1290.9,-112.33 1193.54,-106.53 1109,-100.99 1097.39,-100.23 1085.03,-99.39 1073.1,-98.55"/>
<polygon fill="#63b8ff" stroke="#63b8ff" points="1354.76,-119.55 1364.95,-116.63 1355.17,-112.56 1354.76,-119.55"/>
</a>
</g>
</g>
<!-- Node16 -->
<g id="Node000016" class="node">
<title>Node16</title>
<g id="a_Node000016"><a xlink:href="other__shell_2update_8inc_8c.html#a334de9136224947ca20e7d31fb009a82" target="_top" xlink:title=" ">
<polygon fill="white" stroke="#666666" points="1329,-53.49 1237,-53.49 1237,-34.49 1329,-34.49 1329,-53.49"/>
<text text-anchor="middle" x="1283" y="-41.49" font-family="Helvetica,sans-Serif" font-size="10.00">func_802B4104</text>
</a>
</g>
</g>
<!-- Node2&#45;&gt;Node16 -->
<g id="edge17_Node000002_Node000016" class="edge">
<title>Node2&#45;&gt;Node16</title>
<g id="a_edge17_Node000002_Node000016"><a xlink:title=" ">
<path fill="none" stroke="#63b8ff" d="M1387.44,-100.01C1369.85,-90.29 1348.35,-78.48 1329,-67.99 1320.13,-63.18 1310.23,-57.9 1301.98,-53.52"/>
<polygon fill="#63b8ff" stroke="#63b8ff" points="1385.81,-103.11 1396.26,-104.88 1389.2,-96.98 1385.81,-103.11"/>
</a>
</g>
</g>
<!-- Node17 -->
<g id="Node000017" class="node">
<title>Node17</title>
<g id="a_Node000017"><a xlink:href="banana_2update_8inc_8c.html#a1b699acb507ca2e080f46ea632573993" target="_top" xlink:title=" ">
<polygon fill="white" stroke="#666666" points="1070,-32.49 948,-32.49 948,-13.49 1070,-13.49 1070,-32.49"/>
<text text-anchor="middle" x="1009" y="-20.49" font-family="Helvetica,sans-Serif" font-size="10.00">update_actor_banana</text>
</a>
</g>
</g>
<!-- Node2&#45;&gt;Node17 -->
<g id="edge20_Node000002_Node000017" class="edge">
<title>Node2&#45;&gt;Node17</title>
<g id="a_edge20_Node000002_Node000017"><a xlink:title=" ">
<path fill="none" stroke="#63b8ff" d="M1408.5,-96.6C1392.15,-73.48 1363.62,-39.51 1329,-24.99 1236.43,13.83 1115.03,-1.32 1052.03,-13.47"/>
<polygon fill="#63b8ff" stroke="#63b8ff" points="1405.63,-98.6 1414.16,-104.87 1411.4,-94.64 1405.63,-98.6"/>
</a>
</g>
</g>
<!-- Node18 -->
<g id="Node000018" class="node">
<title>Node18</title>
<g id="a_Node000018"><a xlink:href="green__shell_2update_8inc_8c.html#a4fd275676bf11ca2e15556db08264a90" target="_top" xlink:title=" ">
<polygon fill="white" stroke="#666666" points="1065.5,-167.99 952.5,-167.99 952.5,-137.99 1065.5,-137.99 1065.5,-167.99"/>
<text text-anchor="start" x="960.5" y="-155.99" font-family="Helvetica,sans-Serif" font-size="10.00">update_actor_green</text>
<text text-anchor="middle" x="1009" y="-144.99" font-family="Helvetica,sans-Serif" font-size="10.00">_shell</text>
</a>
</g>
</g>
<!-- Node2&#45;&gt;Node18 -->
<g id="edge22_Node000002_Node000018" class="edge">
<title>Node2&#45;&gt;Node18</title>
<g id="a_edge22_Node000002_Node000018"><a xlink:title=" ">
<path fill="none" stroke="#63b8ff" d="M1354.58,-125.49C1273.5,-131.96 1140.46,-142.58 1065.63,-148.55"/>
<polygon fill="#63b8ff" stroke="#63b8ff" points="1355,-128.97 1364.69,-124.69 1354.45,-121.99 1355,-128.97"/>
</a>
</g>
</g>
<!-- Node4 -->
<g id="Node000004" class="node">
<title>Node4</title>
<g id="a_Node000004"><a xlink:href="actors_8c.html#adc5974c9cbca0b4f3b4df0d1b40ee48d" target="_top" xlink:title=" ">
<polygon fill="white" stroke="#666666" points="1201,-205.49 1109,-205.49 1109,-186.49 1201,-186.49 1201,-205.49"/>
<text text-anchor="middle" x="1155" y="-193.49" font-family="Helvetica,sans-Serif" font-size="10.00">func_802A0E44</text>
</a>
</g>
</g>
<!-- Node3&#45;&gt;Node4 -->
<g id="edge3_Node000003_Node000004" class="edge">
<title>Node3&#45;&gt;Node4</title>
<g id="a_edge3_Node000003_Node000004"><a xlink:title=" ">
<path fill="none" stroke="#63b8ff" d="M1226.65,-195.99C1218.16,-195.99 1209.48,-195.99 1201.24,-195.99"/>
<polygon fill="#63b8ff" stroke="#63b8ff" points="1226.87,-199.49 1236.87,-195.99 1226.87,-192.49 1226.87,-199.49"/>
</a>
</g>
</g>
<!-- Node5 -->
<g id="Node000005" class="node">
<title>Node5</title>
<g id="a_Node000005"><a xlink:href="actors_8c.html#aa6387502059c64a81d32c944b39d78f9" target="_top" xlink:title=" ">
<polygon fill="white" stroke="#666666" points="900,-162.49 777,-162.49 777,-143.49 900,-143.49 900,-162.49"/>
<text text-anchor="middle" x="838.5" y="-150.49" font-family="Helvetica,sans-Serif" font-size="10.00">update_course_actors</text>
</a>
</g>
</g>
<!-- Node4&#45;&gt;Node5 -->
<g id="edge4_Node000004_Node000005" class="edge">
<title>Node4&#45;&gt;Node5</title>
<g id="a_edge4_Node000004_Node000005"><a xlink:title=" ">
<path fill="none" stroke="#63b8ff" d="M1098.85,-192.99C1056.57,-190.2 996.86,-185.21 945,-176.99 921.81,-173.32 896.11,-167.51 875.89,-162.53"/>
<polygon fill="#63b8ff" stroke="#63b8ff" points="1098.74,-196.49 1108.94,-193.63 1099.18,-189.5 1098.74,-196.49"/>
</a>
</g>
</g>
<!-- Node6 -->
<g id="Node000006" class="node">
<title>Node6</title>
<g id="a_Node000006"><a xlink:href="main_8c.html#afff87ffcbfee4f1f37d443110aa7b52a" target="_top" xlink:title=" ">
<polygon fill="white" stroke="#666666" points="732,-180.49 640,-180.49 640,-161.49 732,-161.49 732,-180.49"/>
<text text-anchor="middle" x="686" y="-168.49" font-family="Helvetica,sans-Serif" font-size="10.00">race_logic_loop</text>
</a>
</g>
</g>
<!-- Node5&#45;&gt;Node6 -->
<g id="edge5_Node000005_Node000006" class="edge">
<title>Node5&#45;&gt;Node6</title>
<g id="a_edge5_Node000005_Node000006"><a xlink:title=" ">
<path fill="none" stroke="#63b8ff" d="M766.54,-161.48C754.87,-162.87 743.08,-164.29 732.26,-165.58"/>
<polygon fill="#63b8ff" stroke="#63b8ff" points="767.21,-164.92 776.72,-160.26 766.37,-157.97 767.21,-164.92"/>
</a>
</g>
</g>
<!-- Node7 -->
<g id="Node000007" class="node">
<title>Node7</title>
<g id="a_Node000007"><a xlink:href="main_8c.html#ae04143ce8113cdafa007c642eb620bc8" target="_top" xlink:title=" ">
<polygon fill="white" stroke="#666666" points="604,-180.49 488,-180.49 488,-161.49 604,-161.49 604,-180.49"/>
<text text-anchor="middle" x="546" y="-168.49" font-family="Helvetica,sans-Serif" font-size="10.00">game_state_handler</text>
</a>
</g>
</g>
<!-- Node6&#45;&gt;Node7 -->
<g id="edge6_Node000006_Node000007" class="edge">
<title>Node6&#45;&gt;Node7</title>
<g id="a_edge6_Node000006_Node000007"><a xlink:title=" ">
<path fill="none" stroke="#63b8ff" d="M629.79,-170.99C621.43,-170.99 612.78,-170.99 604.38,-170.99"/>
<polygon fill="#63b8ff" stroke="#63b8ff" points="629.81,-174.49 639.81,-170.99 629.81,-167.49 629.81,-174.49"/>
</a>
</g>
</g>
<!-- Node8 -->
<g id="Node000008" class="node">
<title>Node8</title>
<g id="a_Node000008"><a xlink:href="main_8c.html#a633ed517e458daeb768f5361895dcac9" target="_top" xlink:title=" ">
<polygon fill="white" stroke="#666666" points="452,-180.49 339,-180.49 339,-161.49 452,-161.49 452,-180.49"/>
<text text-anchor="middle" x="395.5" y="-168.49" font-family="Helvetica,sans-Serif" font-size="10.00">thread5_game_loop</text>
</a>
</g>
</g>
<!-- Node7&#45;&gt;Node8 -->
<g id="edge7_Node000007_Node000008" class="edge">
<title>Node7&#45;&gt;Node8</title>
<g id="a_edge7_Node000007_Node000008"><a xlink:title=" ">
<path fill="none" stroke="#63b8ff" d="M477.42,-170.99C469.02,-170.99 460.5,-170.99 452.3,-170.99"/>
<polygon fill="#63b8ff" stroke="#63b8ff" points="477.59,-174.49 487.59,-170.99 477.59,-167.49 477.59,-174.49"/>
</a>
</g>
</g>
<!-- Node9 -->
<g id="Node000009" class="node">
<title>Node9</title>
<g id="a_Node000009"><a xlink:href="main_8c.html#a023b8f272e4efbd33f371e91ffff6b30" target="_top" xlink:title=" ">
<polygon fill="white" stroke="#666666" points="303,-180.49 217,-180.49 217,-161.49 303,-161.49 303,-180.49"/>
<text text-anchor="middle" x="260" y="-168.49" font-family="Helvetica,sans-Serif" font-size="10.00">thread3_video</text>
</a>
</g>
</g>
<!-- Node8&#45;&gt;Node9 -->
<g id="edge8_Node000008_Node000009" class="edge">
<title>Node8&#45;&gt;Node9</title>
<g id="a_edge8_Node000008_Node000009"><a xlink:title=" ">
<path fill="none" stroke="#63b8ff" d="M328.57,-170.99C319.94,-170.99 311.3,-170.99 303.21,-170.99"/>
<polygon fill="#63b8ff" stroke="#63b8ff" points="328.66,-174.49 338.66,-170.99 328.66,-167.49 328.66,-174.49"/>
</a>
</g>
</g>
<!-- Node10 -->
<g id="Node000010" class="node">
<title>Node10</title>
<g id="a_Node000010"><a xlink:href="main_8c.html#a1e35d2b842121e6aea373f09381616e5" target="_top" xlink:title=" ">
<polygon fill="white" stroke="#666666" points="181,-180.49 104,-180.49 104,-161.49 181,-161.49 181,-180.49"/>
<text text-anchor="middle" x="142.5" y="-168.49" font-family="Helvetica,sans-Serif" font-size="10.00">thread1_idle</text>
</a>
</g>
</g>
<!-- Node9&#45;&gt;Node10 -->
<g id="edge9_Node000009_Node000010" class="edge">
<title>Node9&#45;&gt;Node10</title>
<g id="a_edge9_Node000009_Node000010"><a xlink:title=" ">
<path fill="none" stroke="#63b8ff" d="M206.9,-170.99C198.2,-170.99 189.33,-170.99 181.09,-170.99"/>
<polygon fill="#63b8ff" stroke="#63b8ff" points="206.98,-174.49 216.98,-170.99 206.98,-167.49 206.98,-174.49"/>
</a>
</g>
</g>
<!-- Node11 -->
<g id="Node000011" class="node">
<title>Node11</title>
<g id="a_Node000011"><a xlink:href="main_8c.html#a4f87d43525fe95f60ea92bc8a3b70e62" target="_top" xlink:title=" ">
<polygon fill="white" stroke="#666666" points="68,-180.49 0,-180.49 0,-161.49 68,-161.49 68,-180.49"/>
<text text-anchor="middle" x="34" y="-168.49" font-family="Helvetica,sans-Serif" font-size="10.00">main_func</text>
</a>
</g>
</g>
<!-- Node10&#45;&gt;Node11 -->
<g id="edge10_Node000010_Node000011" class="edge">
<title>Node10&#45;&gt;Node11</title>
<g id="a_edge10_Node000010_Node000011"><a xlink:title=" ">
<path fill="none" stroke="#63b8ff" d="M93.95,-170.99C85.29,-170.99 76.44,-170.99 68.31,-170.99"/>
<polygon fill="#63b8ff" stroke="#63b8ff" points="93.95,-174.49 103.95,-170.99 93.95,-167.49 93.95,-174.49"/>
</a>
</g>
</g>
<!-- Node13 -->
<g id="Node000013" class="node">
<title>Node13</title>
<g id="a_Node000013"><a xlink:href="actors_8c.html#ad37e739a6957be6a447d5a26574710cc" target="_top" xlink:title=" ">
<polygon fill="white" stroke="#666666" points="909,-221.49 768,-221.49 768,-202.49 909,-202.49 909,-221.49"/>
<text text-anchor="middle" x="838.5" y="-209.49" font-family="Helvetica,sans-Serif" font-size="10.00">evaluate_player_collision</text>
</a>
</g>
</g>
<!-- Node12&#45;&gt;Node13 -->
<g id="edge12_Node000012_Node000013" class="edge">
<title>Node12&#45;&gt;Node13</title>
<g id="a_edge12_Node000012_Node000013"><a xlink:title=" ">
<path fill="none" stroke="#63b8ff" d="M1226.31,-230.35C1145.82,-226.53 997.03,-219.47 909.31,-215.31"/>
<polygon fill="#63b8ff" stroke="#63b8ff" points="1226.57,-233.87 1236.72,-230.84 1226.9,-226.87 1226.57,-233.87"/>
</a>
</g>
</g>
<!-- Node13&#45;&gt;Node6 -->
<g id="edge13_Node000013_Node000006" class="edge">
<title>Node13&#45;&gt;Node6</title>
<g id="a_edge13_Node000013_Node000006"><a xlink:title=" ">
<path fill="none" stroke="#63b8ff" d="M792.86,-199.83C770.21,-193.66 743.09,-186.27 721.98,-180.52"/>
<polygon fill="#63b8ff" stroke="#63b8ff" points="792.03,-203.23 802.59,-202.48 793.87,-196.48 792.03,-203.23"/>
</a>
</g>
</g>
<!-- Node14&#45;&gt;Node15 -->
<g id="edge15_Node000014_Node000015" class="edge">
<title>Node14&#45;&gt;Node15</title>
<g id="a_edge15_Node000014_Node000015"><a xlink:title=" ">
<path fill="none" stroke="#63b8ff" d="M1098.81,-86.59C1090.43,-87.29 1081.74,-88.01 1073.21,-88.73"/>
<polygon fill="#63b8ff" stroke="#63b8ff" points="1099.16,-90.07 1108.83,-85.76 1098.58,-83.1 1099.16,-90.07"/>
</a>
</g>
</g>
<!-- Node15&#45;&gt;Node5 -->
<g id="edge16_Node000015_Node000005" class="edge">
<title>Node15&#45;&gt;Node5</title>
<g id="a_edge16_Node000015_Node000005"><a xlink:title=" ">
<path fill="none" stroke="#63b8ff" d="M955.35,-112.43C926,-122.7 890.68,-135.07 866.81,-143.43"/>
<polygon fill="#63b8ff" stroke="#63b8ff" points="956.76,-115.64 965.04,-109.03 954.45,-109.03 956.76,-115.64"/>
</a>
</g>
</g>
<!-- Node16&#45;&gt;Node14 -->
<g id="edge18_Node000016_Node000014" class="edge">
<title>Node16&#45;&gt;Node14</title>
<g id="a_edge18_Node000016_Node000014"><a xlink:title=" ">
<path fill="none" stroke="#63b8ff" d="M1240.44,-56.53C1223.29,-61.7 1203.75,-67.59 1187.78,-72.41"/>
<polygon fill="#63b8ff" stroke="#63b8ff" points="1241.64,-59.82 1250.2,-53.58 1239.62,-53.12 1241.64,-59.82"/>
</a>
</g>
</g>
<!-- Node16&#45;&gt;Node15 -->
<g id="edge19_Node000016_Node000015" class="edge">
<title>Node16&#45;&gt;Node15</title>
<g id="a_edge19_Node000016_Node000015"><a xlink:title=" ">
<path fill="none" stroke="#63b8ff" d="M1226.57,-47.33C1192.41,-50.06 1147.86,-54.85 1109,-62.99 1089.96,-66.98 1069.37,-73.12 1051.92,-78.89"/>
<polygon fill="#63b8ff" stroke="#63b8ff" points="1227.11,-50.8 1236.82,-46.55 1226.58,-43.82 1227.11,-50.8"/>
</a>
</g>
</g>
<!-- Node17&#45;&gt;Node5 -->
<g id="edge21_Node000017_Node000005" class="edge">
<title>Node17&#45;&gt;Node5</title>
<g id="a_edge21_Node000017_Node000005"><a xlink:title=" ">
<path fill="none" stroke="#63b8ff" d="M986.65,-38.71C974.4,-47.78 958.77,-59.44 945,-69.99 910.78,-96.21 870.92,-127.88 851.45,-143.43"/>
<polygon fill="#63b8ff" stroke="#63b8ff" points="988.93,-41.37 994.9,-32.62 984.77,-35.74 988.93,-41.37"/>
</a>
</g>
</g>
<!-- Node18&#45;&gt;Node5 -->
<g id="edge23_Node000018_Node000005" class="edge">
<title>Node18&#45;&gt;Node5</title>
<g id="a_edge23_Node000018_Node000005"><a xlink:title=" ">
<path fill="none" stroke="#63b8ff" d="M942.36,-152.99C928.41,-152.99 913.76,-152.99 900.02,-152.99"/>
<polygon fill="#63b8ff" stroke="#63b8ff" points="942.36,-156.49 952.36,-152.99 942.36,-149.49 942.36,-156.49"/>
</a>
</g>
</g>
</g>
</svg>
