<?xml version="1.0" encoding="UTF-8" standalone="no"?>
<!DOCTYPE svg PUBLIC "-//W3C//DTD SVG 1.1//EN"
 "http://www.w3.org/Graphics/SVG/1.1/DTD/svg11.dtd">
<!-- Generated by graphviz version 2.43.0 (0)
 -->
<!-- Title: func_802A0E44 Pages: 1 -->
<!--zoomable 267 -->

<svg id="main" version="1.1" xmlns="http://www.w3.org/2000/svg" xmlns:xlink="http://www.w3.org/1999/xlink" xml:space="preserve" onload="init(evt)">
<style type="text/css"><![CDATA[
.node, .edge {opacity: 0.7;}
.node.selected, .edge.selected {opacity: 1;}
.edge:hover path { stroke: red; }
.edge:hover polygon { stroke: red; fill: red; }
]]></style>

<defs>
  <circle id="rim" cx="0" cy="0" r="7"/>
  <circle id="rim2" cx="0" cy="0" r="3.5"/>
  <g id="zoomPlus">
    <use xlink:href="#rim" fill="#404040"><set attributeName="fill" to="#808080" begin="zoomplus.mouseover" end="zoomplus.mouseout"/></use>
    <path d="M-4,0h8M0,-4v8" fill="none" stroke="white" stroke-width="1.5" pointer-events="none"/>
  </g>
  <g id="zoomMin">
    <use xlink:href="#rim" fill="#404040"><set attributeName="fill" to="#808080" begin="zoomminus.mouseover" end="zoomminus.mouseout"/></use>
    <path d="M-4,0h8" fill="none" stroke="white" stroke-width="1.5" pointer-events="none"/>
  </g>
  <g id="arrowUp" transform="translate(30 24)">
    <use xlink:href="#rim"/>
    <path pointer-events="none" fill="none" stroke="white" stroke-width="1.5" d="M0,-3.0v7 M-2.5,-0.5L0,-3.0L2.5,-0.5"/>
  </g>
  <g id="arrowRight" transform="rotate(90) translate(36 -43)">
    <use xlink:href="#rim"/>
    <path pointer-events="none" fill="none" stroke="white" stroke-width="1.5" d="M0,-3.0v7 M-2.5,-0.5L0,-3.0L2.5,-0.5"/>
  </g>
  <g id="arrowDown" transform="rotate(180) translate(-30 -48)">
    <use xlink:href="#rim"/>
    <path pointer-events="none" fill="none" stroke="white" stroke-width="1.5" d="M0,-3.0v7 M-2.5,-0.5L0,-3.0L2.5,-0.5"/>
  </g>
  <g id="arrowLeft" transform="rotate(270) translate(-36 17)">
    <use xlink:href="#rim"/>
    <path pointer-events="none" fill="none" stroke="white" stroke-width="1.5" d="M0,-3.0v7 M-2.5,-0.5L0,-3.0L2.5,-0.5"/>
  </g>
  <g id="resetDef">
    <use xlink:href="#rim2" fill="#404040"><set attributeName="fill" to="#808080" begin="reset.mouseover" end="reset.mouseout"/></use>
  </g>
</defs>
<script type="application/ecmascript">
var viewWidth = 1117;
var viewHeight = 267;
var sectionId = 'dynsection-67';
</script>
<script type="application/ecmascript" xlink:href="svg.min.js"/>
<svg id="graph" class="graph">
<g id="viewport">
<title>func_802A0E44</title>
<!-- Node1 -->
<g id="Node000001" class="node">
<title>Node1</title>
<g id="a_Node000001"><a xlink:title=" ">
<polygon fill="#999999" stroke="#666666" points="92,-140 0,-140 0,-121 92,-121 92,-140"/>
<text text-anchor="middle" x="46" y="-128" font-family="Helvetica,sans-Serif" font-size="10.00">func_802A0E44</text>
</a>
</g>
</g>
<!-- Node2 -->
<g id="Node000002" class="node">
<title>Node2</title>
<g id="a_Node000002"><a xlink:href="actors_8c.html#a0fff2a94adce284fb6e2ef36de0ba5a6" target="_top" xlink:title=" ">
<polygon fill="white" stroke="#666666" points="220,-140 128,-140 128,-121 220,-121 220,-140"/>
<text text-anchor="middle" x="174" y="-128" font-family="Helvetica,sans-Serif" font-size="10.00">func_802A0350</text>
</a>
</g>
</g>
<!-- Node1&#45;&gt;Node2 -->
<g id="edge1_Node000001_Node000002" class="edge">
<title>Node1&#45;&gt;Node2</title>
<g id="a_edge1_Node000001_Node000002"><a xlink:title=" ">
<path fill="none" stroke="#63b8ff" d="M92.13,-130.5C100.37,-130.5 109.04,-130.5 117.53,-130.5"/>
<polygon fill="#63b8ff" stroke="#63b8ff" points="117.76,-134 127.76,-130.5 117.76,-127 117.76,-134"/>
</a>
</g>
</g>
<!-- Node3 -->
<g id="Node000003" class="node">
<title>Node3</title>
<g id="a_Node000003"><a xlink:href="actors_8c.html#a53268aa601911d56424ff08fb3395bcb" target="_top" xlink:title=" ">
<polygon fill="white" stroke="#666666" points="375,-124.5 256,-124.5 256,-94.5 375,-94.5 375,-124.5"/>
<text text-anchor="start" x="264" y="-112.5" font-family="Helvetica,sans-Serif" font-size="10.00">destroy_destructable</text>
<text text-anchor="middle" x="315.5" y="-101.5" font-family="Helvetica,sans-Serif" font-size="10.00">_actor</text>
</a>
</g>
</g>
<!-- Node2&#45;&gt;Node3 -->
<g id="edge2_Node000002_Node000003" class="edge">
<title>Node2&#45;&gt;Node3</title>
<g id="a_edge2_Node000002_Node000003"><a xlink:title=" ">
<path fill="none" stroke="#63b8ff" d="M220.29,-123.68C228.47,-122.45 237.16,-121.14 245.83,-119.84"/>
<polygon fill="#63b8ff" stroke="#63b8ff" points="246.59,-123.26 255.96,-118.31 245.55,-116.34 246.59,-123.26"/>
</a>
</g>
</g>
<!-- Node22 -->
<g id="Node000022" class="node">
<title>Node22</title>
<g id="a_Node000022"><a xlink:href="external_8c.html#acb60983213d09ee795e80ca3c8b5975e" target="_top" xlink:title=" ">
<polygon fill="white" stroke="#666666" points="533,-204 441,-204 441,-185 533,-185 533,-204"/>
<text text-anchor="middle" x="487" y="-192" font-family="Helvetica,sans-Serif" font-size="10.00">func_800C98B8</text>
</a>
</g>
</g>
<!-- Node2&#45;&gt;Node22 -->
<g id="edge24_Node000002_Node000022" class="edge">
<title>Node2&#45;&gt;Node22</title>
<g id="a_edge24_Node000002_Node000022"><a xlink:title=" ">
<path fill="none" stroke="#63b8ff" d="M188.88,-140.09C204.45,-150.3 230.82,-166 256,-173.5 314,-190.78 383.55,-194.98 430.88,-195.52"/>
<polygon fill="#63b8ff" stroke="#63b8ff" points="430.9,-199.02 440.92,-195.59 430.95,-192.02 430.9,-199.02"/>
</a>
</g>
</g>
<!-- Node23 -->
<g id="Node000023" class="node">
<title>Node23</title>
<g id="a_Node000023"><a xlink:href="actors_8c.html#a4b5c574a62c1fa09822c3be36c9fe247" target="_top" xlink:title=" ">
<polygon fill="white" stroke="#666666" points="361.5,-76 269.5,-76 269.5,-57 361.5,-57 361.5,-76"/>
<text text-anchor="middle" x="315.5" y="-64" font-family="Helvetica,sans-Serif" font-size="10.00">func_8029FCA4</text>
</a>
</g>
</g>
<!-- Node2&#45;&gt;Node23 -->
<g id="edge26_Node000002_Node000023" class="edge">
<title>Node2&#45;&gt;Node23</title>
<g id="a_edge26_Node000002_Node000023"><a xlink:title=" ">
<path fill="none" stroke="#63b8ff" d="M190.08,-120.96C206.02,-111.16 232.1,-95.9 256,-85.5 261.02,-83.32 266.37,-81.24 271.72,-79.33"/>
<polygon fill="#63b8ff" stroke="#63b8ff" points="272.96,-82.61 281.29,-76.06 270.69,-75.98 272.96,-82.61"/>
</a>
</g>
</g>
<!-- Node24 -->
<g id="Node000024" class="node">
<title>Node24</title>
<g id="a_Node000024"><a xlink:href="actors_8c.html#acd2980ed4c1c875919300053577d6f2c" target="_top" xlink:title=" ">
<polygon fill="white" stroke="#666666" points="361.5,-164 269.5,-164 269.5,-145 361.5,-145 361.5,-164"/>
<text text-anchor="middle" x="315.5" y="-152" font-family="Helvetica,sans-Serif" font-size="10.00">func_802A00E8</text>
</a>
</g>
</g>
<!-- Node2&#45;&gt;Node24 -->
<g id="edge27_Node000002_Node000024" class="edge">
<title>Node2&#45;&gt;Node24</title>
<g id="a_edge27_Node000002_Node000024"><a xlink:title=" ">
<path fill="none" stroke="#63b8ff" d="M220.29,-138.29C232.72,-140.43 246.34,-142.77 259.26,-145"/>
<polygon fill="#63b8ff" stroke="#63b8ff" points="258.99,-148.5 269.44,-146.75 260.17,-141.6 258.99,-148.5"/>
</a>
</g>
</g>
<!-- Node4 -->
<g id="Node000004" class="node">
<title>Node4</title>
<g id="a_Node000004"><a xlink:href="actors__extended_8c.html#a72ea66924941d84ae27c5e244e946842" target="_top" xlink:title=" ">
<polygon fill="white" stroke="#666666" points="547,-166.5 427,-166.5 427,-136.5 547,-136.5 547,-166.5"/>
<text text-anchor="start" x="435" y="-154.5" font-family="Helvetica,sans-Serif" font-size="10.00">destroy_a_banana_in</text>
<text text-anchor="middle" x="487" y="-143.5" font-family="Helvetica,sans-Serif" font-size="10.00">_bunch_banana</text>
</a>
</g>
</g>
<!-- Node3&#45;&gt;Node4 -->
<g id="edge3_Node000003_Node000004" class="edge">
<title>Node3&#45;&gt;Node4</title>
<g id="a_edge3_Node000003_Node000004"><a xlink:title=" ">
<path fill="none" stroke="#63b8ff" d="M375.31,-124.07C388.69,-127.39 403.04,-130.94 416.81,-134.36"/>
<polygon fill="#63b8ff" stroke="#63b8ff" points="416.17,-137.8 426.72,-136.81 417.86,-131.01 416.17,-137.8"/>
</a>
</g>
</g>
<!-- Node12 -->
<g id="Node000012" class="node">
<title>Node12</title>
<g id="a_Node000012"><a xlink:href="external_8c.html#a73831bcbe259500206651a0b4702be9f" target="_top" xlink:title=" ">
<polygon fill="white" stroke="#666666" points="533,-118 441,-118 441,-99 533,-99 533,-118"/>
<text text-anchor="middle" x="487" y="-106" font-family="Helvetica,sans-Serif" font-size="10.00">func_800C9EF4</text>
</a>
</g>
</g>
<!-- Node3&#45;&gt;Node12 -->
<g id="edge14_Node000003_Node000012" class="edge">
<title>Node3&#45;&gt;Node12</title>
<g id="a_edge14_Node000003_Node000012"><a xlink:title=" ">
<path fill="none" stroke="#63b8ff" d="M375.31,-109.15C393.29,-109.05 413,-108.93 430.74,-108.83"/>
<polygon fill="#63b8ff" stroke="#63b8ff" points="430.95,-112.32 440.93,-108.77 430.91,-105.33 430.95,-112.32"/>
</a>
</g>
</g>
<!-- Node20 -->
<g id="Node000020" class="node">
<title>Node20</title>
<g id="a_Node000020"><a xlink:href="code__80005FD0_8c.html#acb7b3d384c78d219f4b7040e78f6a2f2" target="_top" xlink:title=" ">
<polygon fill="white" stroke="#666666" points="563,-80.5 411,-80.5 411,-50.5 563,-50.5 563,-80.5"/>
<text text-anchor="start" x="419" y="-68.5" font-family="Helvetica,sans-Serif" font-size="10.00">remove_actor_in_unexpired</text>
<text text-anchor="middle" x="487" y="-57.5" font-family="Helvetica,sans-Serif" font-size="10.00">_actor_list</text>
</a>
</g>
</g>
<!-- Node3&#45;&gt;Node20 -->
<g id="edge22_Node000003_Node000020" class="edge">
<title>Node3&#45;&gt;Node20</title>
<g id="a_edge22_Node000003_Node000020"><a xlink:title=" ">
<path fill="none" stroke="#63b8ff" d="M374.36,-94.48C388.46,-90.82 403.67,-86.87 418.19,-83.1"/>
<polygon fill="#63b8ff" stroke="#63b8ff" points="419.32,-86.43 428.11,-80.53 417.56,-79.65 419.32,-86.43"/>
</a>
</g>
</g>
<!-- Node21 -->
<g id="Node000021" class="node">
<title>Node21</title>
<g id="a_Node000021"><a xlink:href="actors__extended_8c.html#a1edd6e4f2545082e3782c4ce50933c7c" target="_top" xlink:title=" ">
<polygon fill="white" stroke="#666666" points="545,-32.5 429,-32.5 429,-2.5 545,-2.5 545,-32.5"/>
<text text-anchor="start" x="437" y="-20.5" font-family="Helvetica,sans-Serif" font-size="10.00">triple_shell_actor</text>
<text text-anchor="middle" x="487" y="-9.5" font-family="Helvetica,sans-Serif" font-size="10.00">_collide_with_player</text>
</a>
</g>
</g>
<!-- Node3&#45;&gt;Node21 -->
<g id="edge23_Node000003_Node000021" class="edge">
<title>Node3&#45;&gt;Node21</title>
<g id="a_edge23_Node000003_Node000021"><a xlink:title=" ">
<path fill="none" stroke="#63b8ff" d="M360.3,-94.39C365.47,-91.79 370.5,-88.83 375,-85.5 395.31,-70.47 390.11,-55.71 411,-41.5 413.71,-39.65 416.58,-37.94 419.54,-36.36"/>
<polygon fill="#63b8ff" stroke="#63b8ff" points="421.17,-39.46 428.67,-31.98 418.14,-33.15 421.17,-39.46"/>
</a>
</g>
</g>
<!-- Node5 -->
<g id="Node000005" class="node">
<title>Node5</title>
<g id="a_Node000005"><a xlink:href="external_8c.html#a2be9efc97a92e19d02aaee90d676acc1" target="_top" xlink:title=" ">
<polygon fill="white" stroke="#666666" points="691,-240 599,-240 599,-221 691,-221 691,-240"/>
<text text-anchor="middle" x="645" y="-228" font-family="Helvetica,sans-Serif" font-size="10.00">func_800C9060</text>
</a>
</g>
</g>
<!-- Node4&#45;&gt;Node5 -->
<g id="edge4_Node000004_Node000005" class="edge">
<title>Node4&#45;&gt;Node5</title>
<g id="a_edge4_Node000004_Node000005"><a xlink:title=" ">
<path fill="none" stroke="#63b8ff" d="M543.01,-166.51C549.97,-169.36 556.81,-172.68 563,-176.5 582.25,-188.4 580.11,-200.04 599,-212.5 601.15,-213.92 603.43,-215.26 605.78,-216.51"/>
<polygon fill="#63b8ff" stroke="#63b8ff" points="604.51,-219.78 615.04,-220.94 607.53,-213.47 604.51,-219.78"/>
</a>
</g>
</g>
<!-- Node7 -->
<g id="Node000007" class="node">
<title>Node7</title>
<g id="a_Node000007"><a xlink:href="actors__extended_8c.html#ab349562338ca47f2b524137864704d0e" target="_top" xlink:title=" ">
<polygon fill="white" stroke="#666666" points="691,-185 599,-185 599,-166 691,-166 691,-185"/>
<text text-anchor="middle" x="645" y="-173" font-family="Helvetica,sans-Serif" font-size="10.00">func_802B0464</text>
</a>
</g>
</g>
<!-- Node4&#45;&gt;Node7 -->
<g id="edge6_Node000004_Node000007" class="edge">
<title>Node4&#45;&gt;Node7</title>
<g id="a_edge6_Node000004_Node000007"><a xlink:title=" ">
<path fill="none" stroke="#63b8ff" d="M547.42,-160.64C561.01,-162.73 575.39,-164.94 588.79,-167.01"/>
<polygon fill="#63b8ff" stroke="#63b8ff" points="588.4,-170.49 598.82,-168.55 589.47,-163.57 588.4,-170.49"/>
</a>
</g>
</g>
<!-- Node11 -->
<g id="Node000011" class="node">
<title>Node11</title>
<g id="a_Node000011"><a xlink:href="actors__extended_8c.html#a2f342036a9e04bb583aa7cf9c08edae9" target="_top" xlink:title=" ">
<polygon fill="white" stroke="#666666" points="691,-130 599,-130 599,-111 691,-111 691,-130"/>
<text text-anchor="middle" x="645" y="-118" font-family="Helvetica,sans-Serif" font-size="10.00">func_802B04E8</text>
</a>
</g>
</g>
<!-- Node4&#45;&gt;Node11 -->
<g id="edge11_Node000004_Node000011" class="edge">
<title>Node4&#45;&gt;Node11</title>
<g id="a_edge11_Node000004_Node000011"><a xlink:title=" ">
<path fill="none" stroke="#63b8ff" d="M547.42,-139.69C561.01,-136.99 575.39,-134.13 588.79,-131.47"/>
<polygon fill="#63b8ff" stroke="#63b8ff" points="589.69,-134.86 598.82,-129.48 588.33,-127.99 589.69,-134.86"/>
</a>
</g>
</g>
<!-- Node6 -->
<g id="Node000006" class="node">
<title>Node6</title>
<g id="a_Node000006"><a xlink:href="external_8c.html#a4227847f3da303aee53cf69d2760a595" target="_top" xlink:title=" ">
<polygon fill="white" stroke="#666666" points="833,-259 761,-259 761,-240 833,-240 833,-259"/>
<text text-anchor="middle" x="797" y="-247" font-family="Helvetica,sans-Serif" font-size="10.00">play_sound</text>
</a>
</g>
</g>
<!-- Node5&#45;&gt;Node6 -->
<g id="edge5_Node000005_Node000006" class="edge">
<title>Node5&#45;&gt;Node6</title>
<g id="a_edge5_Node000005_Node000006"><a xlink:title=" ">
<path fill="none" stroke="#63b8ff" d="M691,-236.2C709.79,-238.58 731.58,-241.34 750.43,-243.73"/>
<polygon fill="#63b8ff" stroke="#63b8ff" points="750.2,-247.23 760.56,-245.01 751.08,-240.28 750.2,-247.23"/>
</a>
</g>
</g>
<!-- Node7&#45;&gt;Node7 -->
<g id="edge10_Node000007_Node000007" class="edge">
<title>Node7&#45;&gt;Node7</title>
<g id="a_edge10_Node000007_Node000007"><a xlink:title=" ">
<path fill="none" stroke="#63b8ff" d="M621.57,-185.08C610.18,-193.73 617.98,-203 645,-203 662.73,-203 672.19,-199.01 673.37,-193.82"/>
<polygon fill="#63b8ff" stroke="#63b8ff" points="676.4,-192.06 668.43,-185.08 670.31,-195.51 676.4,-192.06"/>
</a>
</g>
</g>
<!-- Node8 -->
<g id="Node000008" class="node">
<title>Node8</title>
<g id="a_Node000008"><a xlink:href="actors__extended_8c.html#a093f702b462b6657ba7ab789941ef800" target="_top" xlink:title=" ">
<polygon fill="white" stroke="#666666" points="843,-157 751,-157 751,-138 843,-138 843,-157"/>
<text text-anchor="middle" x="797" y="-145" font-family="Helvetica,sans-Serif" font-size="10.00">func_802B039C</text>
</a>
</g>
</g>
<!-- Node7&#45;&gt;Node8 -->
<g id="edge7_Node000007_Node000008" class="edge">
<title>Node7&#45;&gt;Node8</title>
<g id="a_edge7_Node000007_Node000008"><a xlink:title=" ">
<path fill="none" stroke="#63b8ff" d="M691,-167.1C706.66,-164.18 724.39,-160.87 740.77,-157.81"/>
<polygon fill="#63b8ff" stroke="#63b8ff" points="741.58,-161.22 750.77,-155.94 740.3,-154.34 741.58,-161.22"/>
</a>
</g>
</g>
<!-- Node9 -->
<g id="Node000009" class="node">
<title>Node9</title>
<g id="a_Node000009"><a xlink:href="math__util_8c.html#a151b63b8adf9af7e4054b3b84bd226dc" target="_top" xlink:title=" ">
<polygon fill="white" stroke="#666666" points="985.5,-157 913.5,-157 913.5,-138 985.5,-138 985.5,-157"/>
<text text-anchor="middle" x="949.5" y="-145" font-family="Helvetica,sans-Serif" font-size="10.00">random_int</text>
</a>
</g>
</g>
<!-- Node8&#45;&gt;Node9 -->
<g id="edge8_Node000008_Node000009" class="edge">
<title>Node8&#45;&gt;Node9</title>
<g id="a_edge8_Node000008_Node000009"><a xlink:title=" ">
<path fill="none" stroke="#63b8ff" d="M843.15,-147.5C862.15,-147.5 884.21,-147.5 903.21,-147.5"/>
<polygon fill="#63b8ff" stroke="#63b8ff" points="903.42,-151 913.42,-147.5 903.42,-144 903.42,-151"/>
</a>
</g>
</g>
<!-- Node10 -->
<g id="Node000010" class="node">
<title>Node10</title>
<g id="a_Node000010"><a xlink:href="math__util_8c.html#a062850863585005ad1d0a75d9ff70693" target="_top" xlink:title=" ">
<polygon fill="white" stroke="#666666" points="1109,-157 1032,-157 1032,-138 1109,-138 1109,-157"/>
<text text-anchor="middle" x="1070.5" y="-145" font-family="Helvetica,sans-Serif" font-size="10.00">random_u16</text>
</a>
</g>
</g>
<!-- Node9&#45;&gt;Node10 -->
<g id="edge9_Node000009_Node000010" class="edge">
<title>Node9&#45;&gt;Node10</title>
<g id="a_edge9_Node000009_Node000010"><a xlink:title=" ">
<path fill="none" stroke="#63b8ff" d="M985.56,-147.5C996.8,-147.5 1009.45,-147.5 1021.46,-147.5"/>
<polygon fill="#63b8ff" stroke="#63b8ff" points="1021.79,-151 1031.79,-147.5 1021.79,-144 1021.79,-151"/>
</a>
</g>
</g>
<!-- Node11&#45;&gt;Node8 -->
<g id="edge12_Node000011_Node000008" class="edge">
<title>Node11&#45;&gt;Node8</title>
<g id="a_edge12_Node000011_Node000008"><a xlink:title=" ">
<path fill="none" stroke="#63b8ff" d="M691,-128.6C706.66,-131.42 724.39,-134.61 740.77,-137.56"/>
<polygon fill="#63b8ff" stroke="#63b8ff" points="740.31,-141.03 750.77,-139.36 741.55,-134.14 740.31,-141.03"/>
</a>
</g>
</g>
<!-- Node11&#45;&gt;Node11 -->
<g id="edge13_Node000011_Node000011" class="edge">
<title>Node11&#45;&gt;Node11</title>
<g id="a_edge13_Node000011_Node000011"><a xlink:title=" ">
<path fill="none" stroke="#63b8ff" d="M621.57,-130.08C610.18,-138.73 617.98,-148 645,-148 662.73,-148 672.19,-144.01 673.37,-138.82"/>
<polygon fill="#63b8ff" stroke="#63b8ff" points="676.4,-137.06 668.43,-130.08 670.31,-140.51 676.4,-137.06"/>
</a>
</g>
</g>
<!-- Node13 -->
<g id="Node000013" class="node">
<title>Node13</title>
<g id="a_Node000013"><a xlink:href="external_8c.html#aeb87c527482a244173df36a1f3d4f446" target="_top" xlink:title=" ">
<polygon fill="white" stroke="#666666" points="691,-93 599,-93 599,-74 691,-74 691,-93"/>
<text text-anchor="middle" x="645" y="-81" font-family="Helvetica,sans-Serif" font-size="10.00">func_800C21E8</text>
</a>
</g>
</g>
<!-- Node12&#45;&gt;Node13 -->
<g id="edge15_Node000012_Node000013" class="edge">
<title>Node12&#45;&gt;Node13</title>
<g id="a_edge15_Node000012_Node000013"><a xlink:title=" ">
<path fill="none" stroke="#63b8ff" d="M533.12,-101.27C550.58,-98.47 570.74,-95.24 589.04,-92.31"/>
<polygon fill="#63b8ff" stroke="#63b8ff" points="589.66,-95.75 598.98,-90.71 588.55,-88.84 589.66,-95.75"/>
</a>
</g>
</g>
<!-- Node14 -->
<g id="Node000014" class="node">
<title>Node14</title>
<g id="a_Node000014"><a xlink:href="external_8c.html#a028d40421b90c38f68ebfd5acc626f2e" target="_top" xlink:title=" ">
<polygon fill="white" stroke="#666666" points="691,-56 599,-56 599,-37 691,-37 691,-56"/>
<text text-anchor="middle" x="645" y="-44" font-family="Helvetica,sans-Serif" font-size="10.00">func_800C5578</text>
</a>
</g>
</g>
<!-- Node12&#45;&gt;Node14 -->
<g id="edge16_Node000012_Node000014" class="edge">
<title>Node12&#45;&gt;Node14</title>
<g id="a_edge16_Node000012_Node000014"><a xlink:title=" ">
<path fill="none" stroke="#63b8ff" d="M533.26,-99.68C543.27,-97 553.67,-93.64 563,-89.5 580.57,-81.69 582.07,-74.61 599,-65.5 602.33,-63.71 605.87,-61.96 609.44,-60.3"/>
<polygon fill="#63b8ff" stroke="#63b8ff" points="611.12,-63.38 618.85,-56.13 608.29,-56.98 611.12,-63.38"/>
</a>
</g>
</g>
<!-- Node15 -->
<g id="Node000015" class="node">
<title>Node15</title>
<g id="a_Node000015"><a xlink:href="external_8c.html#ac0fb767de7e14a03f1bcfa53f0abd23b" target="_top" xlink:title=" ">
<polygon fill="white" stroke="#666666" points="867,-93 727,-93 727,-74 867,-74 867,-93"/>
<text text-anchor="middle" x="797" y="-81" font-family="Helvetica,sans-Serif" font-size="10.00">delete_sound_from_bank</text>
</a>
</g>
</g>
<!-- Node14&#45;&gt;Node15 -->
<g id="edge17_Node000014_Node000015" class="edge">
<title>Node14&#45;&gt;Node15</title>
<g id="a_edge17_Node000014_Node000015"><a xlink:title=" ">
<path fill="none" stroke="#63b8ff" d="M684.63,-56.03C703.8,-60.76 727.16,-66.52 747.52,-71.54"/>
<polygon fill="#63b8ff" stroke="#63b8ff" points="746.69,-74.94 757.24,-73.94 748.37,-68.15 746.69,-74.94"/>
</a>
</g>
</g>
<!-- Node17 -->
<g id="Node000017" class="node">
<title>Node17</title>
<g id="a_Node000017"><a xlink:href="external_8c.html#ab83bd36e63f0f1baddcb2482b5ad31b0" target="_top" xlink:title=" ">
<polygon fill="white" stroke="#666666" points="843.5,-56 750.5,-56 750.5,-37 843.5,-37 843.5,-56"/>
<text text-anchor="middle" x="797" y="-44" font-family="Helvetica,sans-Serif" font-size="10.00">func_800C41CC</text>
</a>
</g>
</g>
<!-- Node14&#45;&gt;Node17 -->
<g id="edge19_Node000014_Node000017" class="edge">
<title>Node14&#45;&gt;Node17</title>
<g id="a_edge19_Node000014_Node000017"><a xlink:title=" ">
<path fill="none" stroke="#63b8ff" d="M691,-46.5C706.37,-46.5 723.74,-46.5 739.86,-46.5"/>
<polygon fill="#63b8ff" stroke="#63b8ff" points="740.25,-50 750.25,-46.5 740.25,-43 740.25,-50"/>
</a>
</g>
</g>
<!-- Node18 -->
<g id="Node000018" class="node">
<title>Node18</title>
<g id="a_Node000018"><a xlink:href="port__eu_8c.html#aa89dfaecca46c6d071f08c1898d1f7c9" target="_top" xlink:title=" ">
<polygon fill="white" stroke="#666666" points="843.5,-19 750.5,-19 750.5,0 843.5,0 843.5,-19"/>
<text text-anchor="middle" x="797" y="-7" font-family="Helvetica,sans-Serif" font-size="10.00">func_800CBBE8</text>
</a>
</g>
</g>
<!-- Node14&#45;&gt;Node18 -->
<g id="edge20_Node000014_Node000018" class="edge">
<title>Node14&#45;&gt;Node18</title>
<g id="a_edge20_Node000014_Node000018"><a xlink:title=" ">
<path fill="none" stroke="#63b8ff" d="M684.63,-36.97C703.8,-32.24 727.16,-26.48 747.52,-21.46"/>
<polygon fill="#63b8ff" stroke="#63b8ff" points="748.37,-24.85 757.24,-19.06 746.69,-18.06 748.37,-24.85"/>
</a>
</g>
</g>
<!-- Node16 -->
<g id="Node000016" class="node">
<title>Node16</title>
<g id="a_Node000016"><a xlink:href="external_8c.html#a358ac55e8ab5262dcae8037334be06d7" target="_top" xlink:title=" ">
<polygon fill="white" stroke="#666666" points="995.5,-93 903.5,-93 903.5,-74 995.5,-74 995.5,-93"/>
<text text-anchor="middle" x="949.5" y="-81" font-family="Helvetica,sans-Serif" font-size="10.00">func_800C40F0</text>
</a>
</g>
</g>
<!-- Node15&#45;&gt;Node16 -->
<g id="edge18_Node000015_Node000016" class="edge">
<title>Node15&#45;&gt;Node16</title>
<g id="a_edge18_Node000015_Node000016"><a xlink:title=" ">
<path fill="none" stroke="#63b8ff" d="M867.08,-83.5C875.87,-83.5 884.78,-83.5 893.31,-83.5"/>
<polygon fill="#63b8ff" stroke="#63b8ff" points="893.5,-87 903.5,-83.5 893.5,-80 893.5,-87"/>
</a>
</g>
</g>
<!-- Node19 -->
<g id="Node000019" class="node">
<title>Node19</title>
<g id="a_Node000019"><a xlink:href="port__eu_8c.html#af361a20d2e08f30c53a237ca481ff734" target="_top" xlink:title=" ">
<polygon fill="white" stroke="#666666" points="996,-19 903,-19 903,0 996,0 996,-19"/>
<text text-anchor="middle" x="949.5" y="-7" font-family="Helvetica,sans-Serif" font-size="10.00">func_800CBB48</text>
</a>
</g>
</g>
<!-- Node18&#45;&gt;Node19 -->
<g id="edge21_Node000018_Node000019" class="edge">
<title>Node18&#45;&gt;Node19</title>
<g id="a_edge21_Node000018_Node000019"><a xlink:title=" ">
<path fill="none" stroke="#63b8ff" d="M843.56,-9.5C858.96,-9.5 876.34,-9.5 892.46,-9.5"/>
<polygon fill="#63b8ff" stroke="#63b8ff" points="892.83,-13 902.83,-9.5 892.83,-6 892.83,-13"/>
</a>
</g>
</g>
<!-- Node22&#45;&gt;Node6 -->
<g id="edge25_Node000022_Node000006" class="edge">
<title>Node22&#45;&gt;Node6</title>
<g id="a_edge25_Node000022_Node000006"><a xlink:title=" ">
<path fill="none" stroke="#63b8ff" d="M501.91,-204.05C522.18,-217.33 561.52,-240.72 599,-249.5 650.01,-261.44 710.5,-259.1 750.87,-255.28"/>
<polygon fill="#63b8ff" stroke="#63b8ff" points="751.34,-258.75 760.93,-254.26 750.63,-251.79 751.34,-258.75"/>
</a>
</g>
</g>
<!-- Node24&#45;&gt;Node22 -->
<g id="edge28_Node000024_Node000022" class="edge">
<title>Node24&#45;&gt;Node22</title>
<g id="a_edge28_Node000024_Node000022"><a xlink:title=" ">
<path fill="none" stroke="#63b8ff" d="M357.1,-164.08C380.69,-169.65 410.6,-176.71 435.67,-182.62"/>
<polygon fill="#63b8ff" stroke="#63b8ff" points="435.2,-186.11 445.73,-185 436.8,-179.29 435.2,-186.11"/>
</a>
</g>
</g>
</g>
</svg>

<g id="navigator" transform="translate(0 0)" fill="#404254">
  <rect fill="#f2f5e9" fill-opacity="0.5" stroke="#606060" stroke-width=".5" x="0" y="0" width="60" height="60"/>
  <use id="zoomplus" xlink:href="#zoomPlus" x="17" y="9" onmousedown="handleZoom(evt,'in')"/>
  <use id="zoomminus" xlink:href="#zoomMin" x="42" y="9" onmousedown="handleZoom(evt,'out')"/>
  <use id="reset" xlink:href="#resetDef" x="30" y="36" onmousedown="handleReset()"/>
   <use id="arrowup" xlink:href="#arrowUp" x="0" y="0" onmousedown="handlePan(0,-1)"/>
  <use id="arrowright" xlink:href="#arrowRight" x="0" y="0" onmousedown="handlePan(1,0)"/>
  <use id="arrowdown" xlink:href="#arrowDown" x="0" y="0" onmousedown="handlePan(0,1)"/>
  <use id="arrowleft" xlink:href="#arrowLeft" x="0" y="0" onmousedown="handlePan(-1,0)"/>
</g>
<svg viewBox="0 0 15 15" width="100%" height="30px" preserveAspectRatio="xMaxYMin meet">
 <g id="arrow_out" transform="scale(0.3 0.3)">
  <a xlink:href="actors_8h_adc5974c9cbca0b4f3b4df0d1b40ee48d_cgraph_org.svg" target="_base">
   <rect id="button" ry="5" rx="5" y="6" x="6" height="38" width="38"
        fill="#f2f5e9" fill-opacity="0.5" stroke="#606060" stroke-width="1.0"/>
   <path id="arrow"
     d="M 11.500037,31.436501 C 11.940474,20.09759 22.043105,11.32322 32.158766,21.979434 L 37.068811,17.246167 C 37.068811,17.246167 37.088388,32 37.088388,32 L 22.160133,31.978069 C 22.160133,31.978069 26.997745,27.140456 26.997745,27.140456 C 18.528582,18.264221 13.291696,25.230495 11.500037,31.436501 z"
     style="fill:#404040;"/>
  </a>
 </g>
</svg>

<style type='text/css'>
<![CDATA[
[data-mouse-over-selected='false'] { opacity: 0.7; }
[data-mouse-over-selected='true']  { opacity: 1.0; }
]]>
</style>
<script type="application/ecmascript"><![CDATA[
document.addEventListener('DOMContentLoaded', (event) => {
  highlightEdges();
  highlightAdjacentNodes();
});
]]></script>
</svg>
