<?xml version="1.0" encoding="UTF-8" standalone="no"?>
<!DOCTYPE svg PUBLIC "-//W3C//DTD SVG 1.1//EN"
 "http://www.w3.org/Graphics/SVG/1.1/DTD/svg11.dtd">
<!-- Generated by graphviz version 2.43.0 (0)
 -->
<!-- Title: courses/all_course_data.h Pages: 1 -->
<svg width="1477pt" height="214pt"
 viewBox="0.00 0.00 1476.50 214.00" xmlns="http://www.w3.org/2000/svg" xmlns:xlink="http://www.w3.org/1999/xlink">
<g id="graph0" class="graph" transform="scale(1 1) rotate(0) translate(4 210)">
<title>courses/all_course_data.h</title>
<!-- Node1 -->
<g id="Node000001" class="node">
<title>Node1</title>
<g id="a_Node000001"><a xlink:title=" ">
<polygon fill="#999999" stroke="#666666" points="737,-206 630,-206 630,-176 737,-176 737,-206"/>
<text text-anchor="start" x="638" y="-194" font-family="Helvetica,sans-Serif" font-size="10.00">courses/all_course</text>
<text text-anchor="middle" x="683.5" y="-183" font-family="Helvetica,sans-Serif" font-size="10.00">_data.h</text>
</a>
</g>
</g>
<!-- Node2 -->
<g id="Node000002" class="node">
<title>Node2</title>
<g id="a_Node000002"><a xlink:href="paddle__boat_2render_8inc_8c.html" target="_top" xlink:title=" ">
<polygon fill="white" stroke="#666666" points="127,-140 0,-140 0,-110 127,-110 127,-140"/>
<text text-anchor="start" x="8" y="-128" font-family="Helvetica,sans-Serif" font-size="10.00">src/actors/paddle_boat</text>
<text text-anchor="middle" x="63.5" y="-117" font-family="Helvetica,sans-Serif" font-size="10.00">/render.inc.c</text>
</a>
</g>
</g>
<!-- Node1&#45;&gt;Node2 -->
<g id="edge1_Node000001_Node000002" class="edge">
<title>Node1&#45;&gt;Node2</title>
<g id="a_edge1_Node000001_Node000002"><a xlink:title=" ">
<path fill="none" stroke="#63b8ff" d="M619.77,-185.9C518.27,-178.96 313.73,-163.36 141.5,-140 136.86,-139.37 132.08,-138.66 127.28,-137.91"/>
<polygon fill="#63b8ff" stroke="#63b8ff" points="619.65,-189.4 629.86,-186.58 620.12,-182.41 619.65,-189.4"/>
</a>
</g>
</g>
<!-- Node3 -->
<g id="Node000003" class="node">
<title>Node3</title>
<g id="a_Node000003"><a xlink:href="actors_8c.html" target="_top" xlink:title=" ">
<polygon fill="white" stroke="#666666" points="208,-74 103,-74 103,-55 208,-55 208,-74"/>
<text text-anchor="middle" x="155.5" y="-62" font-family="Helvetica,sans-Serif" font-size="10.00">src/racing/actors.c</text>
</a>
</g>
</g>
<!-- Node1&#45;&gt;Node3 -->
<g id="edge12_Node000001_Node000003" class="edge">
<title>Node1&#45;&gt;Node3</title>
<g id="a_edge12_Node000001_Node000003"><a xlink:title=" ">
<path fill="none" stroke="#63b8ff" d="M619.5,-187.77C490.27,-182.69 207.62,-168.44 174.5,-140 155.06,-123.3 154.09,-89.75 154.82,-74.01"/>
<polygon fill="#63b8ff" stroke="#63b8ff" points="619.52,-191.27 629.65,-188.16 619.8,-184.28 619.52,-191.27"/>
</a>
</g>
</g>
<!-- Node4 -->
<g id="Node000004" class="node">
<title>Node4</title>
<g id="a_Node000004"><a xlink:href="tree_2render_8inc_8c.html" target="_top" xlink:title=" ">
<polygon fill="white" stroke="#666666" points="329.5,-134.5 183.5,-134.5 183.5,-115.5 329.5,-115.5 329.5,-134.5"/>
<text text-anchor="middle" x="256.5" y="-122.5" font-family="Helvetica,sans-Serif" font-size="10.00">src/actors/tree/render.inc.c</text>
</a>
</g>
</g>
<!-- Node1&#45;&gt;Node4 -->
<g id="edge3_Node000001_Node000004" class="edge">
<title>Node1&#45;&gt;Node4</title>
<g id="a_edge3_Node000001_Node000004"><a xlink:title=" ">
<path fill="none" stroke="#63b8ff" d="M619.64,-181.23C550.33,-171.61 436.45,-155.46 338.5,-140 327.8,-138.31 316.33,-136.41 305.46,-134.57"/>
<polygon fill="#63b8ff" stroke="#63b8ff" points="619.56,-184.76 629.95,-182.66 620.53,-177.82 619.56,-184.76"/>
</a>
</g>
</g>
<!-- Node5 -->
<g id="Node000005" class="node">
<title>Node5</title>
<g id="a_Node000005"><a xlink:href="code__800029B0_8c.html" target="_top" xlink:title=" ">
<polygon fill="white" stroke="#666666" points="467,-134.5 348,-134.5 348,-115.5 467,-115.5 467,-134.5"/>
<text text-anchor="middle" x="407.5" y="-122.5" font-family="Helvetica,sans-Serif" font-size="10.00">src/code_800029B0.c</text>
</a>
</g>
</g>
<!-- Node1&#45;&gt;Node5 -->
<g id="edge5_Node000001_Node000005" class="edge">
<title>Node1&#45;&gt;Node5</title>
<g id="a_edge5_Node000001_Node000005"><a xlink:title=" ">
<path fill="none" stroke="#63b8ff" d="M620.09,-175.3C565.78,-162.7 489.45,-145 444.56,-134.59"/>
<polygon fill="#63b8ff" stroke="#63b8ff" points="619.42,-178.73 629.96,-177.58 621.01,-171.92 619.42,-178.73"/>
</a>
</g>
</g>
<!-- Node6 -->
<g id="Node000006" class="node">
<title>Node6</title>
<g id="a_Node000006"><a xlink:href="code__80005FD0_8c.html" target="_top" xlink:title=" ">
<polygon fill="white" stroke="#666666" points="605.5,-134.5 485.5,-134.5 485.5,-115.5 605.5,-115.5 605.5,-134.5"/>
<text text-anchor="middle" x="545.5" y="-122.5" font-family="Helvetica,sans-Serif" font-size="10.00">src/code_80005FD0.c</text>
</a>
</g>
</g>
<!-- Node1&#45;&gt;Node6 -->
<g id="edge6_Node000001_Node000006" class="edge">
<title>Node1&#45;&gt;Node6</title>
<g id="a_edge6_Node000001_Node000006"><a xlink:title=" ">
<path fill="none" stroke="#63b8ff" d="M643.87,-171.62C617.53,-159.41 584.18,-143.94 563.87,-134.52"/>
<polygon fill="#63b8ff" stroke="#63b8ff" points="642.67,-174.92 653.22,-175.95 645.62,-168.57 642.67,-174.92"/>
</a>
</g>
</g>
<!-- Node7 -->
<g id="Node000007" class="node">
<title>Node7</title>
<g id="a_Node000007"><a xlink:href="code__8006E9C0_8c.html" target="_top" xlink:title=" ">
<polygon fill="white" stroke="#666666" points="743,-134.5 624,-134.5 624,-115.5 743,-115.5 743,-134.5"/>
<text text-anchor="middle" x="683.5" y="-122.5" font-family="Helvetica,sans-Serif" font-size="10.00">src/code_8006E9C0.c</text>
</a>
</g>
</g>
<!-- Node1&#45;&gt;Node7 -->
<g id="edge7_Node000001_Node000007" class="edge">
<title>Node1&#45;&gt;Node7</title>
<g id="a_edge7_Node000001_Node000007"><a xlink:title=" ">
<path fill="none" stroke="#63b8ff" d="M683.5,-165.6C683.5,-154.8 683.5,-142.78 683.5,-134.84"/>
<polygon fill="#63b8ff" stroke="#63b8ff" points="680,-165.8 683.5,-175.8 687,-165.8 680,-165.8"/>
</a>
</g>
</g>
<!-- Node8 -->
<g id="Node000008" class="node">
<title>Node8</title>
<g id="a_Node000008"><a xlink:href="path__spawn__data_8c.html" target="_top" xlink:title=" ">
<polygon fill="white" stroke="#666666" points="878,-140 761,-140 761,-110 878,-110 878,-140"/>
<text text-anchor="start" x="769" y="-128" font-family="Helvetica,sans-Serif" font-size="10.00">src/data/path_spawn</text>
<text text-anchor="middle" x="819.5" y="-117" font-family="Helvetica,sans-Serif" font-size="10.00">_data.c</text>
</a>
</g>
</g>
<!-- Node1&#45;&gt;Node8 -->
<g id="edge8_Node000001_Node000008" class="edge">
<title>Node1&#45;&gt;Node8</title>
<g id="a_edge8_Node000001_Node000008"><a xlink:title=" ">
<path fill="none" stroke="#63b8ff" d="M722.5,-171.65C743.89,-161.58 769.99,-149.3 789.72,-140.01"/>
<polygon fill="#63b8ff" stroke="#63b8ff" points="720.9,-168.53 713.35,-175.95 723.88,-174.86 720.9,-168.53"/>
</a>
</g>
</g>
<!-- Node9 -->
<g id="Node000009" class="node">
<title>Node9</title>
<g id="a_Node000009"><a xlink:href="all__variables_8h.html" target="_top" xlink:title=" ">
<polygon fill="white" stroke="#666666" points="1034.5,-134.5 896.5,-134.5 896.5,-115.5 1034.5,-115.5 1034.5,-134.5"/>
<text text-anchor="middle" x="965.5" y="-122.5" font-family="Helvetica,sans-Serif" font-size="10.00">src/debug/all_variables.h</text>
</a>
</g>
</g>
<!-- Node1&#45;&gt;Node9 -->
<g id="edge9_Node000001_Node000009" class="edge">
<title>Node1&#45;&gt;Node9</title>
<g id="a_edge9_Node000001_Node000009"><a xlink:title=" ">
<path fill="none" stroke="#63b8ff" d="M746.96,-175.6C802.58,-162.97 881.56,-145.05 927.78,-134.56"/>
<polygon fill="#63b8ff" stroke="#63b8ff" points="746.18,-172.18 737.21,-177.81 747.73,-179.01 746.18,-172.18"/>
</a>
</g>
</g>
<!-- Node12 -->
<g id="Node000012" class="node">
<title>Node12</title>
<g id="a_Node000012"><a xlink:href="render__courses_8c.html" target="_top" xlink:title=" ">
<polygon fill="white" stroke="#666666" points="1202,-134.5 1053,-134.5 1053,-115.5 1202,-115.5 1202,-134.5"/>
<text text-anchor="middle" x="1127.5" y="-122.5" font-family="Helvetica,sans-Serif" font-size="10.00">src/racing/render_courses.c</text>
</a>
</g>
</g>
<!-- Node1&#45;&gt;Node12 -->
<g id="edge13_Node000001_Node000012" class="edge">
<title>Node1&#45;&gt;Node12</title>
<g id="a_edge13_Node000001_Node000012"><a xlink:title=" ">
<path fill="none" stroke="#63b8ff" d="M747.51,-181.64C819.55,-172.11 940.05,-155.8 1043.5,-140 1054.61,-138.3 1066.52,-136.38 1077.79,-134.51"/>
<polygon fill="#63b8ff" stroke="#63b8ff" points="746.69,-178.22 737.24,-183 747.61,-185.16 746.69,-178.22"/>
</a>
</g>
</g>
<!-- Node13 -->
<g id="Node000013" class="node">
<title>Node13</title>
<g id="a_Node000013"><a xlink:href="render__objects_8c.html" target="_top" xlink:title=" ">
<polygon fill="white" stroke="#666666" points="1334.5,-134.5 1220.5,-134.5 1220.5,-115.5 1334.5,-115.5 1334.5,-134.5"/>
<text text-anchor="middle" x="1277.5" y="-122.5" font-family="Helvetica,sans-Serif" font-size="10.00">src/render_objects.c</text>
</a>
</g>
</g>
<!-- Node1&#45;&gt;Node13 -->
<g id="edge14_Node000001_Node000013" class="edge">
<title>Node1&#45;&gt;Node13</title>
<g id="a_edge14_Node000001_Node000013"><a xlink:title=" ">
<path fill="none" stroke="#63b8ff" d="M747.54,-186.31C847.17,-180.04 1045.13,-165.44 1211.5,-140 1221.11,-138.53 1231.43,-136.54 1240.98,-134.53"/>
<polygon fill="#63b8ff" stroke="#63b8ff" points="747.1,-182.83 737.34,-186.95 747.54,-189.82 747.1,-182.83"/>
</a>
</g>
</g>
<!-- Node14 -->
<g id="Node000014" class="node">
<title>Node14</title>
<g id="a_Node000014"><a xlink:href="update__objects_8c.html" target="_top" xlink:title=" ">
<polygon fill="white" stroke="#666666" points="1468.5,-134.5 1352.5,-134.5 1352.5,-115.5 1468.5,-115.5 1468.5,-134.5"/>
<text text-anchor="middle" x="1410.5" y="-122.5" font-family="Helvetica,sans-Serif" font-size="10.00">src/update_objects.c</text>
</a>
</g>
</g>
<!-- Node1&#45;&gt;Node14 -->
<g id="edge15_Node000001_Node000014" class="edge">
<title>Node1&#45;&gt;Node14</title>
<g id="a_edge15_Node000001_Node000014"><a xlink:title=" ">
<path fill="none" stroke="#63b8ff" d="M747.54,-187.92C865.79,-183.47 1126.21,-170.8 1343.5,-140 1353.38,-138.6 1363.99,-136.61 1373.79,-134.57"/>
<polygon fill="#63b8ff" stroke="#63b8ff" points="747.09,-184.44 737.22,-188.3 747.35,-191.43 747.09,-184.44"/>
</a>
</g>
</g>
<!-- Node2&#45;&gt;Node3 -->
<g id="edge2_Node000002_Node000003" class="edge">
<title>Node2&#45;&gt;Node3</title>
<g id="a_edge2_Node000002_Node000003"><a xlink:title=" ">
<path fill="none" stroke="#63b8ff" d="M94.4,-104.35C110.56,-94.07 129.52,-82.02 141.98,-74.09"/>
<polygon fill="#63b8ff" stroke="#63b8ff" points="92.33,-101.52 85.77,-109.84 96.09,-107.43 92.33,-101.52"/>
</a>
</g>
</g>
<!-- Node4&#45;&gt;Node3 -->
<g id="edge4_Node000004_Node000003" class="edge">
<title>Node4&#45;&gt;Node3</title>
<g id="a_edge4_Node000004_Node000003"><a xlink:title=" ">
<path fill="none" stroke="#63b8ff" d="M232.8,-110.27C213.52,-99.1 186.9,-83.69 170.46,-74.17"/>
<polygon fill="#63b8ff" stroke="#63b8ff" points="231.19,-113.38 241.6,-115.37 234.7,-107.33 231.19,-113.38"/>
</a>
</g>
</g>
<!-- Node10 -->
<g id="Node000010" class="node">
<title>Node10</title>
<g id="a_Node000010"><a xlink:href="debug_8inc_8c.html" target="_top" xlink:title=" ">
<polygon fill="white" stroke="#666666" points="1026.5,-74 904.5,-74 904.5,-55 1026.5,-55 1026.5,-74"/>
<text text-anchor="middle" x="965.5" y="-62" font-family="Helvetica,sans-Serif" font-size="10.00">src/debug/debug.inc.c</text>
</a>
</g>
</g>
<!-- Node9&#45;&gt;Node10 -->
<g id="edge10_Node000009_Node000010" class="edge">
<title>Node9&#45;&gt;Node10</title>
<g id="a_edge10_Node000009_Node000010"><a xlink:title=" ">
<path fill="none" stroke="#63b8ff" d="M965.5,-105.16C965.5,-94.74 965.5,-82.3 965.5,-74.17"/>
<polygon fill="#63b8ff" stroke="#63b8ff" points="962,-105.37 965.5,-115.37 969,-105.37 962,-105.37"/>
</a>
</g>
</g>
<!-- Node11 -->
<g id="Node000011" class="node">
<title>Node11</title>
<g id="a_Node000011"><a xlink:href="debug_8c.html" target="_top" xlink:title=" ">
<polygon fill="white" stroke="#666666" points="1018,-19 913,-19 913,0 1018,0 1018,-19"/>
<text text-anchor="middle" x="965.5" y="-7" font-family="Helvetica,sans-Serif" font-size="10.00">src/debug/debug.c</text>
</a>
</g>
</g>
<!-- Node10&#45;&gt;Node11 -->
<g id="edge11_Node000010_Node000011" class="edge">
<title>Node10&#45;&gt;Node11</title>
<g id="a_edge11_Node000010_Node000011"><a xlink:title=" ">
<path fill="none" stroke="#63b8ff" d="M965.5,-44.66C965.5,-35.93 965.5,-25.99 965.5,-19.09"/>
<polygon fill="#63b8ff" stroke="#63b8ff" points="962,-44.75 965.5,-54.75 969,-44.75 962,-44.75"/>
</a>
</g>
</g>
</g>
</svg>
