<?xml version="1.0" encoding="UTF-8" standalone="no"?>
<!DOCTYPE svg PUBLIC "-//W3C//DTD SVG 1.1//EN"
 "http://www.w3.org/Graphics/SVG/1.1/DTD/svg11.dtd">
<!-- Generated by graphviz version 2.43.0 (0)
 -->
<!-- Title: update_actor_banana Pages: 1 -->
<svg width="1034pt" height="469pt"
 viewBox="0.00 0.00 1034.00 469.00" xmlns="http://www.w3.org/2000/svg" xmlns:xlink="http://www.w3.org/1999/xlink">
<g id="graph0" class="graph" transform="scale(1 1) rotate(0) translate(4 465)">
<title>update_actor_banana</title>
<!-- Node1 -->
<g id="Node000001" class="node">
<title>Node1</title>
<g id="a_Node000001"><a xlink:title=" ">
<polygon fill="#999999" stroke="#666666" points="122,-148 0,-148 0,-129 122,-129 122,-148"/>
<text text-anchor="middle" x="61" y="-136" font-family="Helvetica,sans-Serif" font-size="10.00">update_actor_banana</text>
</a>
</g>
</g>
<!-- Node2 -->
<g id="Node000002" class="node">
<title>Node2</title>
<g id="a_Node000002"><a xlink:href="actors_8c.html#a694ec6ef7548b8618aeb35c038d3a9b9" target="_top" xlink:title=" ">
<polygon fill="white" stroke="#666666" points="259,-444 176,-444 176,-425 259,-425 259,-444"/>
<text text-anchor="middle" x="217.5" y="-432" font-family="Helvetica,sans-Serif" font-size="10.00">destroy_actor</text>
</a>
</g>
</g>
<!-- Node1&#45;&gt;Node2 -->
<g id="edge1_Node000001_Node000002" class="edge">
<title>Node1&#45;&gt;Node2</title>
<g id="a_edge1_Node000001_Node000002"><a xlink:title=" ">
<path fill="none" stroke="#63b8ff" d="M62.64,-148.13C65.67,-186.52 81.9,-330.49 158,-410.5 161.64,-414.33 165.98,-417.57 170.63,-420.3"/>
<polygon fill="#63b8ff" stroke="#63b8ff" points="169.34,-423.57 179.85,-424.96 172.5,-417.32 169.34,-423.57"/>
</a>
</g>
</g>
<!-- Node12 -->
<g id="Node000012" class="node">
<title>Node12</title>
<g id="a_Node000012"><a xlink:href="actors_8c.html#a53268aa601911d56424ff08fb3395bcb" target="_top" xlink:title=" ">
<polygon fill="white" stroke="#666666" points="277,-282.5 158,-282.5 158,-252.5 277,-252.5 277,-282.5"/>
<text text-anchor="start" x="166" y="-270.5" font-family="Helvetica,sans-Serif" font-size="10.00">destroy_destructable</text>
<text text-anchor="middle" x="217.5" y="-259.5" font-family="Helvetica,sans-Serif" font-size="10.00">_actor</text>
</a>
</g>
</g>
<!-- Node1&#45;&gt;Node12 -->
<g id="edge11_Node000001_Node000012" class="edge">
<title>Node1&#45;&gt;Node12</title>
<g id="a_edge11_Node000001_Node000012"><a xlink:title=" ">
<path fill="none" stroke="#63b8ff" d="M73.61,-148.2C98.26,-168.78 156.33,-217.27 190.37,-245.69"/>
<polygon fill="#63b8ff" stroke="#63b8ff" points="188.56,-248.73 198.48,-252.45 193.04,-243.35 188.56,-248.73"/>
</a>
</g>
</g>
<!-- Node14 -->
<g id="Node000014" class="node">
<title>Node14</title>
<g id="a_Node000014"><a xlink:href="external_8c.html#a2be9efc97a92e19d02aaee90d676acc1" target="_top" xlink:title=" ">
<polygon fill="white" stroke="#666666" points="593,-327 501,-327 501,-308 593,-308 593,-327"/>
<text text-anchor="middle" x="547" y="-315" font-family="Helvetica,sans-Serif" font-size="10.00">func_800C9060</text>
</a>
</g>
</g>
<!-- Node1&#45;&gt;Node14 -->
<g id="edge28_Node000001_Node000014" class="edge">
<title>Node1&#45;&gt;Node14</title>
<g id="a_edge28_Node000001_Node000014"><a xlink:title=" ">
<path fill="none" stroke="#63b8ff" d="M65.27,-148.04C74.93,-174.86 106.04,-251.56 158,-291.5 267.49,-375.67 328.11,-357.76 465,-339.5 479.27,-337.6 494.59,-333.88 508.03,-330.04"/>
<polygon fill="#63b8ff" stroke="#63b8ff" points="509.3,-333.32 517.89,-327.11 507.3,-326.61 509.3,-333.32"/>
</a>
</g>
</g>
<!-- Node24 -->
<g id="Node000024" class="node">
<title>Node24</title>
<g id="a_Node000024"><a xlink:href="collision_8c.html#a365367628b7140a7a880beeecce9c305" target="_top" xlink:title=" ">
<polygon fill="white" stroke="#666666" points="265,-167 170,-167 170,-148 265,-148 265,-167"/>
<text text-anchor="middle" x="217.5" y="-155" font-family="Helvetica,sans-Serif" font-size="10.00">func_802ADDC8</text>
</a>
</g>
</g>
<!-- Node1&#45;&gt;Node24 -->
<g id="edge29_Node000001_Node000024" class="edge">
<title>Node1&#45;&gt;Node24</title>
<g id="a_edge29_Node000001_Node000024"><a xlink:title=" ">
<path fill="none" stroke="#63b8ff" d="M122.18,-145.9C134.49,-147.41 147.41,-149 159.6,-150.5"/>
<polygon fill="#63b8ff" stroke="#63b8ff" points="159.29,-153.99 169.64,-151.74 160.15,-147.04 159.29,-153.99"/>
</a>
</g>
</g>
<!-- Node28 -->
<g id="Node000028" class="node">
<title>Node28</title>
<g id="a_Node000028"><a xlink:href="actors__extended_8c.html#a78e98c146f1f4dd6e3608016486172a4" target="_top" xlink:title=" ">
<polygon fill="white" stroke="#666666" points="263.5,-130 171.5,-130 171.5,-111 263.5,-111 263.5,-130"/>
<text text-anchor="middle" x="217.5" y="-118" font-family="Helvetica,sans-Serif" font-size="10.00">func_802B4E30</text>
</a>
</g>
</g>
<!-- Node1&#45;&gt;Node28 -->
<g id="edge33_Node000001_Node000028" class="edge">
<title>Node1&#45;&gt;Node28</title>
<g id="a_edge33_Node000001_Node000028"><a xlink:title=" ">
<path fill="none" stroke="#63b8ff" d="M122.18,-131.49C134.89,-130.01 148.24,-128.45 160.78,-126.99"/>
<polygon fill="#63b8ff" stroke="#63b8ff" points="161.56,-130.42 171.08,-125.79 160.75,-123.47 161.56,-130.42"/>
</a>
</g>
</g>
<!-- Node29 -->
<g id="Node000029" class="node">
<title>Node29</title>
<g id="a_Node000029"><a xlink:href="math__util_8c.html#a6270d7eb2d38b9c093e61da43b7d51ff" target="_top" xlink:title=" ">
<polygon fill="white" stroke="#666666" points="263.5,-93 171.5,-93 171.5,-74 263.5,-74 263.5,-93"/>
<text text-anchor="middle" x="217.5" y="-81" font-family="Helvetica,sans-Serif" font-size="10.00">func_802B64C4</text>
</a>
</g>
</g>
<!-- Node1&#45;&gt;Node29 -->
<g id="edge34_Node000001_Node000029" class="edge">
<title>Node1&#45;&gt;Node29</title>
<g id="a_edge34_Node000001_Node000029"><a xlink:title=" ">
<path fill="none" stroke="#63b8ff" d="M86.75,-128.87C106.07,-121.44 133.64,-111.02 158,-102.5 164.02,-100.39 170.41,-98.24 176.68,-96.17"/>
<polygon fill="#63b8ff" stroke="#63b8ff" points="177.93,-99.44 186.35,-93.01 175.76,-92.79 177.93,-99.44"/>
</a>
</g>
</g>
<!-- Node32 -->
<g id="Node000032" class="node">
<title>Node32</title>
<g id="a_Node000032"><a xlink:href="math_8h.html#a37bde043e94a6f074c78f10518fb5d99" target="_top" xlink:title=" ">
<polygon fill="white" stroke="#666666" points="237,-56 198,-56 198,-37 237,-37 237,-56"/>
<text text-anchor="middle" x="217.5" y="-44" font-family="Helvetica,sans-Serif" font-size="10.00">sqrtf</text>
</a>
</g>
</g>
<!-- Node1&#45;&gt;Node32 -->
<g id="edge37_Node000001_Node000032" class="edge">
<title>Node1&#45;&gt;Node32</title>
<g id="a_edge37_Node000001_Node000032"><a xlink:title=" ">
<path fill="none" stroke="#63b8ff" d="M72.14,-128.91C88.83,-113.58 123.68,-83.46 158,-65.5 167.41,-60.58 178.34,-56.61 188.18,-53.6"/>
<polygon fill="#63b8ff" stroke="#63b8ff" points="189.29,-56.93 197.94,-50.81 187.37,-50.2 189.29,-56.93"/>
</a>
</g>
</g>
<!-- Node33 -->
<g id="Node000033" class="node">
<title>Node33</title>
<g id="a_Node000033"><a xlink:href="math__util_8c.html#a79fd07a0971ec96a3ff0801963a2fa7f" target="_top" xlink:title=" ">
<polygon fill="white" stroke="#666666" points="249.5,-19 185.5,-19 185.5,0 249.5,0 249.5,-19"/>
<text text-anchor="middle" x="217.5" y="-7" font-family="Helvetica,sans-Serif" font-size="10.00">vec3f_set</text>
</a>
</g>
</g>
<!-- Node1&#45;&gt;Node33 -->
<g id="edge38_Node000001_Node000033" class="edge">
<title>Node1&#45;&gt;Node33</title>
<g id="a_edge38_Node000001_Node000033"><a xlink:title=" ">
<path fill="none" stroke="#63b8ff" d="M67.65,-128.89C80.74,-107.43 115.32,-55.35 158,-27.5 163.37,-23.99 169.47,-21.14 175.64,-18.83"/>
<polygon fill="#63b8ff" stroke="#63b8ff" points="176.93,-22.09 185.32,-15.62 174.72,-15.44 176.93,-22.09"/>
</a>
</g>
</g>
<!-- Node3 -->
<g id="Node000003" class="node">
<title>Node3</title>
<g id="a_Node000003"><a xlink:href="actors_8c.html#a15517665ab054722a5c980c0f1008cd0" target="_top" xlink:title=" ">
<polygon fill="white" stroke="#666666" points="435.5,-444 342.5,-444 342.5,-425 435.5,-425 435.5,-444"/>
<text text-anchor="middle" x="389" y="-432" font-family="Helvetica,sans-Serif" font-size="10.00">func_8029E7DC</text>
</a>
</g>
</g>
<!-- Node2&#45;&gt;Node3 -->
<g id="edge2_Node000002_Node000003" class="edge">
<title>Node2&#45;&gt;Node3</title>
<g id="a_edge2_Node000002_Node000003"><a xlink:title=" ">
<path fill="none" stroke="#63b8ff" d="M259.1,-434.5C281.04,-434.5 308.45,-434.5 332.35,-434.5"/>
<polygon fill="#63b8ff" stroke="#63b8ff" points="332.35,-438 342.35,-434.5 332.35,-431 332.35,-438"/>
</a>
</g>
</g>
<!-- Node4 -->
<g id="Node000004" class="node">
<title>Node4</title>
<g id="a_Node000004"><a xlink:href="external_8c.html#ae72057869772019e4464c87d4e16c682" target="_top" xlink:title=" ">
<polygon fill="white" stroke="#666666" points="593,-424 501,-424 501,-405 593,-405 593,-424"/>
<text text-anchor="middle" x="547" y="-412" font-family="Helvetica,sans-Serif" font-size="10.00">func_800C99E0</text>
</a>
</g>
</g>
<!-- Node3&#45;&gt;Node4 -->
<g id="edge3_Node000003_Node000004" class="edge">
<title>Node3&#45;&gt;Node4</title>
<g id="a_edge3_Node000003_Node000004"><a xlink:title=" ">
<path fill="none" stroke="#63b8ff" d="M435.54,-428.66C452.84,-426.44 472.73,-423.89 490.82,-421.57"/>
<polygon fill="#63b8ff" stroke="#63b8ff" points="491.47,-425.02 500.94,-420.28 490.58,-418.08 491.47,-425.02"/>
</a>
</g>
</g>
<!-- Node5 -->
<g id="Node000005" class="node">
<title>Node5</title>
<g id="a_Node000005"><a xlink:href="external_8c.html#aeb87c527482a244173df36a1f3d4f446" target="_top" xlink:title=" ">
<polygon fill="white" stroke="#666666" points="721,-387 629,-387 629,-368 721,-368 721,-387"/>
<text text-anchor="middle" x="675" y="-375" font-family="Helvetica,sans-Serif" font-size="10.00">func_800C21E8</text>
</a>
</g>
</g>
<!-- Node4&#45;&gt;Node5 -->
<g id="edge4_Node000004_Node000005" class="edge">
<title>Node4&#45;&gt;Node5</title>
<g id="a_edge4_Node000004_Node000005"><a xlink:title=" ">
<path fill="none" stroke="#63b8ff" d="M580.45,-404.97C595.91,-400.43 614.6,-394.94 631.2,-390.07"/>
<polygon fill="#63b8ff" stroke="#63b8ff" points="632.62,-393.3 641.22,-387.12 630.64,-386.58 632.62,-393.3"/>
</a>
</g>
</g>
<!-- Node6 -->
<g id="Node000006" class="node">
<title>Node6</title>
<g id="a_Node000006"><a xlink:href="external_8c.html#a028d40421b90c38f68ebfd5acc626f2e" target="_top" xlink:title=" ">
<polygon fill="white" stroke="#666666" points="721,-424 629,-424 629,-405 721,-405 721,-424"/>
<text text-anchor="middle" x="675" y="-412" font-family="Helvetica,sans-Serif" font-size="10.00">func_800C5578</text>
</a>
</g>
</g>
<!-- Node4&#45;&gt;Node6 -->
<g id="edge5_Node000004_Node000006" class="edge">
<title>Node4&#45;&gt;Node6</title>
<g id="a_edge5_Node000004_Node000006"><a xlink:title=" ">
<path fill="none" stroke="#63b8ff" d="M593.13,-414.5C601.37,-414.5 610.04,-414.5 618.53,-414.5"/>
<polygon fill="#63b8ff" stroke="#63b8ff" points="618.76,-418 628.76,-414.5 618.76,-411 618.76,-418"/>
</a>
</g>
</g>
<!-- Node7 -->
<g id="Node000007" class="node">
<title>Node7</title>
<g id="a_Node000007"><a xlink:href="external_8c.html#ac0fb767de7e14a03f1bcfa53f0abd23b" target="_top" xlink:title=" ">
<polygon fill="white" stroke="#666666" points="897,-387 757,-387 757,-368 897,-368 897,-387"/>
<text text-anchor="middle" x="827" y="-375" font-family="Helvetica,sans-Serif" font-size="10.00">delete_sound_from_bank</text>
</a>
</g>
</g>
<!-- Node6&#45;&gt;Node7 -->
<g id="edge6_Node000006_Node000007" class="edge">
<title>Node6&#45;&gt;Node7</title>
<g id="a_edge6_Node000006_Node000007"><a xlink:title=" ">
<path fill="none" stroke="#63b8ff" d="M714.63,-404.97C733.8,-400.24 757.16,-394.48 777.52,-389.46"/>
<polygon fill="#63b8ff" stroke="#63b8ff" points="778.37,-392.85 787.24,-387.06 776.69,-386.06 778.37,-392.85"/>
</a>
</g>
</g>
<!-- Node9 -->
<g id="Node000009" class="node">
<title>Node9</title>
<g id="a_Node000009"><a xlink:href="external_8c.html#ab83bd36e63f0f1baddcb2482b5ad31b0" target="_top" xlink:title=" ">
<polygon fill="white" stroke="#666666" points="873.5,-461 780.5,-461 780.5,-442 873.5,-442 873.5,-461"/>
<text text-anchor="middle" x="827" y="-449" font-family="Helvetica,sans-Serif" font-size="10.00">func_800C41CC</text>
</a>
</g>
</g>
<!-- Node6&#45;&gt;Node9 -->
<g id="edge8_Node000006_Node000009" class="edge">
<title>Node6&#45;&gt;Node9</title>
<g id="a_edge8_Node000006_Node000009"><a xlink:title=" ">
<path fill="none" stroke="#63b8ff" d="M714.63,-424.03C733.8,-428.76 757.16,-434.52 777.52,-439.54"/>
<polygon fill="#63b8ff" stroke="#63b8ff" points="776.69,-442.94 787.24,-441.94 778.37,-436.15 776.69,-442.94"/>
</a>
</g>
</g>
<!-- Node10 -->
<g id="Node000010" class="node">
<title>Node10</title>
<g id="a_Node000010"><a xlink:href="port__eu_8c.html#aa89dfaecca46c6d071f08c1898d1f7c9" target="_top" xlink:title=" ">
<polygon fill="white" stroke="#666666" points="873.5,-424 780.5,-424 780.5,-405 873.5,-405 873.5,-424"/>
<text text-anchor="middle" x="827" y="-412" font-family="Helvetica,sans-Serif" font-size="10.00">func_800CBBE8</text>
</a>
</g>
</g>
<!-- Node6&#45;&gt;Node10 -->
<g id="edge9_Node000006_Node000010" class="edge">
<title>Node6&#45;&gt;Node10</title>
<g id="a_edge9_Node000006_Node000010"><a xlink:title=" ">
<path fill="none" stroke="#63b8ff" d="M721,-414.5C736.37,-414.5 753.74,-414.5 769.86,-414.5"/>
<polygon fill="#63b8ff" stroke="#63b8ff" points="770.25,-418 780.25,-414.5 770.25,-411 770.25,-418"/>
</a>
</g>
</g>
<!-- Node8 -->
<g id="Node000008" class="node">
<title>Node8</title>
<g id="a_Node000008"><a xlink:href="external_8c.html#a358ac55e8ab5262dcae8037334be06d7" target="_top" xlink:title=" ">
<polygon fill="white" stroke="#666666" points="1025.5,-387 933.5,-387 933.5,-368 1025.5,-368 1025.5,-387"/>
<text text-anchor="middle" x="979.5" y="-375" font-family="Helvetica,sans-Serif" font-size="10.00">func_800C40F0</text>
</a>
</g>
</g>
<!-- Node7&#45;&gt;Node8 -->
<g id="edge7_Node000007_Node000008" class="edge">
<title>Node7&#45;&gt;Node8</title>
<g id="a_edge7_Node000007_Node000008"><a xlink:title=" ">
<path fill="none" stroke="#63b8ff" d="M897.08,-377.5C905.87,-377.5 914.78,-377.5 923.31,-377.5"/>
<polygon fill="#63b8ff" stroke="#63b8ff" points="923.5,-381 933.5,-377.5 923.5,-374 923.5,-381"/>
</a>
</g>
</g>
<!-- Node11 -->
<g id="Node000011" class="node">
<title>Node11</title>
<g id="a_Node000011"><a xlink:href="port__eu_8c.html#af361a20d2e08f30c53a237ca481ff734" target="_top" xlink:title=" ">
<polygon fill="white" stroke="#666666" points="1026,-424 933,-424 933,-405 1026,-405 1026,-424"/>
<text text-anchor="middle" x="979.5" y="-412" font-family="Helvetica,sans-Serif" font-size="10.00">func_800CBB48</text>
</a>
</g>
</g>
<!-- Node10&#45;&gt;Node11 -->
<g id="edge10_Node000010_Node000011" class="edge">
<title>Node10&#45;&gt;Node11</title>
<g id="a_edge10_Node000010_Node000011"><a xlink:title=" ">
<path fill="none" stroke="#63b8ff" d="M873.56,-414.5C888.96,-414.5 906.34,-414.5 922.46,-414.5"/>
<polygon fill="#63b8ff" stroke="#63b8ff" points="922.83,-418 932.83,-414.5 922.83,-411 922.83,-418"/>
</a>
</g>
</g>
<!-- Node13 -->
<g id="Node000013" class="node">
<title>Node13</title>
<g id="a_Node000013"><a xlink:href="actors__extended_8c.html#a72ea66924941d84ae27c5e244e946842" target="_top" xlink:title=" ">
<polygon fill="white" stroke="#666666" points="449,-234.5 329,-234.5 329,-204.5 449,-204.5 449,-234.5"/>
<text text-anchor="start" x="337" y="-222.5" font-family="Helvetica,sans-Serif" font-size="10.00">destroy_a_banana_in</text>
<text text-anchor="middle" x="389" y="-211.5" font-family="Helvetica,sans-Serif" font-size="10.00">_bunch_banana</text>
</a>
</g>
</g>
<!-- Node12&#45;&gt;Node13 -->
<g id="edge12_Node000012_Node000013" class="edge">
<title>Node12&#45;&gt;Node13</title>
<g id="a_edge12_Node000012_Node000013"><a xlink:title=" ">
<path fill="none" stroke="#63b8ff" d="M271.67,-252.44C288.7,-247.62 307.73,-242.23 325.38,-237.23"/>
<polygon fill="#63b8ff" stroke="#63b8ff" points="326.35,-240.59 335.02,-234.5 324.45,-233.86 326.35,-240.59"/>
</a>
</g>
</g>
<!-- Node21 -->
<g id="Node000021" class="node">
<title>Node21</title>
<g id="a_Node000021"><a xlink:href="external_8c.html#a73831bcbe259500206651a0b4702be9f" target="_top" xlink:title=" ">
<polygon fill="white" stroke="#666666" points="593,-387 501,-387 501,-368 593,-368 593,-387"/>
<text text-anchor="middle" x="547" y="-375" font-family="Helvetica,sans-Serif" font-size="10.00">func_800C9EF4</text>
</a>
</g>
</g>
<!-- Node12&#45;&gt;Node21 -->
<g id="edge23_Node000012_Node000021" class="edge">
<title>Node12&#45;&gt;Node21</title>
<g id="a_edge23_Node000012_Node000021"><a xlink:title=" ">
<path fill="none" stroke="#63b8ff" d="M233.35,-282.62C250.79,-299.39 281.36,-325.88 313,-339.5 370.47,-364.23 442.24,-372.98 490.83,-376.01"/>
<polygon fill="#63b8ff" stroke="#63b8ff" points="490.65,-379.51 500.83,-376.58 491.05,-372.52 490.65,-379.51"/>
</a>
</g>
</g>
<!-- Node22 -->
<g id="Node000022" class="node">
<title>Node22</title>
<g id="a_Node000022"><a xlink:href="code__80005FD0_8c.html#acb7b3d384c78d219f4b7040e78f6a2f2" target="_top" xlink:title=" ">
<polygon fill="white" stroke="#666666" points="465,-330.5 313,-330.5 313,-300.5 465,-300.5 465,-330.5"/>
<text text-anchor="start" x="321" y="-318.5" font-family="Helvetica,sans-Serif" font-size="10.00">remove_actor_in_unexpired</text>
<text text-anchor="middle" x="389" y="-307.5" font-family="Helvetica,sans-Serif" font-size="10.00">_actor_list</text>
</a>
</g>
</g>
<!-- Node12&#45;&gt;Node22 -->
<g id="edge26_Node000012_Node000022" class="edge">
<title>Node12&#45;&gt;Node22</title>
<g id="a_edge26_Node000012_Node000022"><a xlink:title=" ">
<path fill="none" stroke="#63b8ff" d="M271.67,-282.56C288.7,-287.38 307.73,-292.77 325.38,-297.77"/>
<polygon fill="#63b8ff" stroke="#63b8ff" points="324.45,-301.14 335.02,-300.5 326.35,-294.41 324.45,-301.14"/>
</a>
</g>
</g>
<!-- Node23 -->
<g id="Node000023" class="node">
<title>Node23</title>
<g id="a_Node000023"><a xlink:href="actors__extended_8c.html#a1edd6e4f2545082e3782c4ce50933c7c" target="_top" xlink:title=" ">
<polygon fill="white" stroke="#666666" points="447,-282.5 331,-282.5 331,-252.5 447,-252.5 447,-282.5"/>
<text text-anchor="start" x="339" y="-270.5" font-family="Helvetica,sans-Serif" font-size="10.00">triple_shell_actor</text>
<text text-anchor="middle" x="389" y="-259.5" font-family="Helvetica,sans-Serif" font-size="10.00">_collide_with_player</text>
</a>
</g>
</g>
<!-- Node12&#45;&gt;Node23 -->
<g id="edge27_Node000012_Node000023" class="edge">
<title>Node12&#45;&gt;Node23</title>
<g id="a_edge27_Node000012_Node000023"><a xlink:title=" ">
<path fill="none" stroke="#63b8ff" d="M277.31,-267.5C291.23,-267.5 306.19,-267.5 320.47,-267.5"/>
<polygon fill="#63b8ff" stroke="#63b8ff" points="320.73,-271 330.73,-267.5 320.73,-264 320.73,-271"/>
</a>
</g>
</g>
<!-- Node13&#45;&gt;Node14 -->
<g id="edge13_Node000013_Node000014" class="edge">
<title>Node13&#45;&gt;Node14</title>
<g id="a_edge13_Node000013_Node000014"><a xlink:title=" ">
<path fill="none" stroke="#63b8ff" d="M446.49,-234.52C452.92,-237.11 459.23,-240.09 465,-243.5 483.95,-254.69 484.77,-262.63 501,-277.5 509.55,-285.34 519.15,-293.9 527.28,-301.08"/>
<polygon fill="#63b8ff" stroke="#63b8ff" points="525,-303.74 534.82,-307.73 529.63,-298.49 525,-303.74"/>
</a>
</g>
</g>
<!-- Node16 -->
<g id="Node000016" class="node">
<title>Node16</title>
<g id="a_Node000016"><a xlink:href="actors__extended_8c.html#ab349562338ca47f2b524137864704d0e" target="_top" xlink:title=" ">
<polygon fill="white" stroke="#666666" points="593,-250 501,-250 501,-231 593,-231 593,-250"/>
<text text-anchor="middle" x="547" y="-238" font-family="Helvetica,sans-Serif" font-size="10.00">func_802B0464</text>
</a>
</g>
</g>
<!-- Node13&#45;&gt;Node16 -->
<g id="edge15_Node000013_Node000016" class="edge">
<title>Node13&#45;&gt;Node16</title>
<g id="a_edge15_Node000013_Node000016"><a xlink:title=" ">
<path fill="none" stroke="#63b8ff" d="M449.42,-227.5C463.01,-229.33 477.39,-231.26 490.79,-233.07"/>
<polygon fill="#63b8ff" stroke="#63b8ff" points="490.44,-236.55 500.82,-234.42 491.37,-229.61 490.44,-236.55"/>
</a>
</g>
</g>
<!-- Node20 -->
<g id="Node000020" class="node">
<title>Node20</title>
<g id="a_Node000020"><a xlink:href="actors__extended_8c.html#a2f342036a9e04bb583aa7cf9c08edae9" target="_top" xlink:title=" ">
<polygon fill="white" stroke="#666666" points="593,-195 501,-195 501,-176 593,-176 593,-195"/>
<text text-anchor="middle" x="547" y="-183" font-family="Helvetica,sans-Serif" font-size="10.00">func_802B04E8</text>
</a>
</g>
</g>
<!-- Node13&#45;&gt;Node20 -->
<g id="edge20_Node000013_Node000020" class="edge">
<title>Node13&#45;&gt;Node20</title>
<g id="a_edge20_Node000013_Node000020"><a xlink:title=" ">
<path fill="none" stroke="#63b8ff" d="M449.42,-206.55C463.56,-203.47 478.56,-200.2 492.41,-197.18"/>
<polygon fill="#63b8ff" stroke="#63b8ff" points="493.24,-200.58 502.27,-195.03 491.75,-193.74 493.24,-200.58"/>
</a>
</g>
</g>
<!-- Node15 -->
<g id="Node000015" class="node">
<title>Node15</title>
<g id="a_Node000015"><a xlink:href="external_8c.html#a4227847f3da303aee53cf69d2760a595" target="_top" xlink:title=" ">
<polygon fill="white" stroke="#666666" points="711,-327 639,-327 639,-308 711,-308 711,-327"/>
<text text-anchor="middle" x="675" y="-315" font-family="Helvetica,sans-Serif" font-size="10.00">play_sound</text>
</a>
</g>
</g>
<!-- Node14&#45;&gt;Node15 -->
<g id="edge14_Node000014_Node000015" class="edge">
<title>Node14&#45;&gt;Node15</title>
<g id="a_edge14_Node000014_Node000015"><a xlink:title=" ">
<path fill="none" stroke="#63b8ff" d="M593.13,-317.5C604.59,-317.5 616.92,-317.5 628.4,-317.5"/>
<polygon fill="#63b8ff" stroke="#63b8ff" points="628.66,-321 638.66,-317.5 628.66,-314 628.66,-321"/>
</a>
</g>
</g>
<!-- Node16&#45;&gt;Node16 -->
<g id="edge19_Node000016_Node000016" class="edge">
<title>Node16&#45;&gt;Node16</title>
<g id="a_edge19_Node000016_Node000016"><a xlink:title=" ">
<path fill="none" stroke="#63b8ff" d="M527.27,-250.08C517.67,-258.73 524.25,-268 547,-268 561.22,-268 569.12,-264.38 570.7,-259.55"/>
<polygon fill="#63b8ff" stroke="#63b8ff" points="573.83,-257.95 566.73,-250.08 567.37,-260.66 573.83,-257.95"/>
</a>
</g>
</g>
<!-- Node17 -->
<g id="Node000017" class="node">
<title>Node17</title>
<g id="a_Node000017"><a xlink:href="actors__extended_8c.html#a093f702b462b6657ba7ab789941ef800" target="_top" xlink:title=" ">
<polygon fill="white" stroke="#666666" points="721,-223 629,-223 629,-204 721,-204 721,-223"/>
<text text-anchor="middle" x="675" y="-211" font-family="Helvetica,sans-Serif" font-size="10.00">func_802B039C</text>
</a>
</g>
</g>
<!-- Node16&#45;&gt;Node17 -->
<g id="edge16_Node000016_Node000017" class="edge">
<title>Node16&#45;&gt;Node17</title>
<g id="a_edge16_Node000016_Node000017"><a xlink:title=" ">
<path fill="none" stroke="#63b8ff" d="M592.42,-230.98C601.17,-229.11 610.45,-227.12 619.49,-225.18"/>
<polygon fill="#63b8ff" stroke="#63b8ff" points="620.51,-228.54 629.55,-223.02 619.04,-221.7 620.51,-228.54"/>
</a>
</g>
</g>
<!-- Node18 -->
<g id="Node000018" class="node">
<title>Node18</title>
<g id="a_Node000018"><a xlink:href="math__util_8c.html#a151b63b8adf9af7e4054b3b84bd226dc" target="_top" xlink:title=" ">
<polygon fill="white" stroke="#666666" points="863,-223 791,-223 791,-204 863,-204 863,-223"/>
<text text-anchor="middle" x="827" y="-211" font-family="Helvetica,sans-Serif" font-size="10.00">random_int</text>
</a>
</g>
</g>
<!-- Node17&#45;&gt;Node18 -->
<g id="edge17_Node000017_Node000018" class="edge">
<title>Node17&#45;&gt;Node18</title>
<g id="a_edge17_Node000017_Node000018"><a xlink:title=" ">
<path fill="none" stroke="#63b8ff" d="M721,-213.5C739.79,-213.5 761.58,-213.5 780.43,-213.5"/>
<polygon fill="#63b8ff" stroke="#63b8ff" points="780.56,-217 790.56,-213.5 780.56,-210 780.56,-217"/>
</a>
</g>
</g>
<!-- Node19 -->
<g id="Node000019" class="node">
<title>Node19</title>
<g id="a_Node000019"><a xlink:href="math__util_8c.html#a062850863585005ad1d0a75d9ff70693" target="_top" xlink:title=" ">
<polygon fill="white" stroke="#666666" points="1018,-223 941,-223 941,-204 1018,-204 1018,-223"/>
<text text-anchor="middle" x="979.5" y="-211" font-family="Helvetica,sans-Serif" font-size="10.00">random_u16</text>
</a>
</g>
</g>
<!-- Node18&#45;&gt;Node19 -->
<g id="edge18_Node000018_Node000019" class="edge">
<title>Node18&#45;&gt;Node19</title>
<g id="a_edge18_Node000018_Node000019"><a xlink:title=" ">
<path fill="none" stroke="#63b8ff" d="M863.29,-213.5C883.39,-213.5 908.85,-213.5 930.72,-213.5"/>
<polygon fill="#63b8ff" stroke="#63b8ff" points="930.8,-217 940.8,-213.5 930.8,-210 930.8,-217"/>
</a>
</g>
</g>
<!-- Node20&#45;&gt;Node17 -->
<g id="edge21_Node000020_Node000017" class="edge">
<title>Node20&#45;&gt;Node17</title>
<g id="a_edge21_Node000020_Node000017"><a xlink:title=" ">
<path fill="none" stroke="#63b8ff" d="M591.01,-195.06C600.74,-197.22 611.18,-199.54 621.26,-201.78"/>
<polygon fill="#63b8ff" stroke="#63b8ff" points="620.66,-205.23 631.18,-203.99 622.18,-198.4 620.66,-205.23"/>
</a>
</g>
</g>
<!-- Node20&#45;&gt;Node20 -->
<g id="edge22_Node000020_Node000020" class="edge">
<title>Node20&#45;&gt;Node20</title>
<g id="a_edge22_Node000020_Node000020"><a xlink:title=" ">
<path fill="none" stroke="#63b8ff" d="M527.27,-195.08C517.67,-203.73 524.25,-213 547,-213 561.22,-213 569.12,-209.38 570.7,-204.55"/>
<polygon fill="#63b8ff" stroke="#63b8ff" points="573.83,-202.95 566.73,-195.08 567.37,-205.66 573.83,-202.95"/>
</a>
</g>
</g>
<!-- Node21&#45;&gt;Node5 -->
<g id="edge24_Node000021_Node000005" class="edge">
<title>Node21&#45;&gt;Node5</title>
<g id="a_edge24_Node000021_Node000005"><a xlink:title=" ">
<path fill="none" stroke="#63b8ff" d="M593.13,-377.5C601.37,-377.5 610.04,-377.5 618.53,-377.5"/>
<polygon fill="#63b8ff" stroke="#63b8ff" points="618.76,-381 628.76,-377.5 618.76,-374 618.76,-381"/>
</a>
</g>
</g>
<!-- Node21&#45;&gt;Node6 -->
<g id="edge25_Node000021_Node000006" class="edge">
<title>Node21&#45;&gt;Node6</title>
<g id="a_edge25_Node000021_Node000006"><a xlink:title=" ">
<path fill="none" stroke="#63b8ff" d="M580.45,-387.03C595.91,-391.57 614.6,-397.06 631.2,-401.93"/>
<polygon fill="#63b8ff" stroke="#63b8ff" points="630.64,-405.42 641.22,-404.88 632.62,-398.7 630.64,-405.42"/>
</a>
</g>
</g>
<!-- Node25 -->
<g id="Node000025" class="node">
<title>Node25</title>
<g id="a_Node000025"><a xlink:href="collision_8c.html#afce45acb8da354da0a5b501003be1aef" target="_top" xlink:title=" ">
<polygon fill="white" stroke="#666666" points="435.5,-149 342.5,-149 342.5,-130 435.5,-130 435.5,-149"/>
<text text-anchor="middle" x="389" y="-137" font-family="Helvetica,sans-Serif" font-size="10.00">func_802AAE4C</text>
</a>
</g>
</g>
<!-- Node24&#45;&gt;Node25 -->
<g id="edge30_Node000024_Node000025" class="edge">
<title>Node24&#45;&gt;Node25</title>
<g id="a_edge30_Node000024_Node000025"><a xlink:title=" ">
<path fill="none" stroke="#63b8ff" d="M265.27,-152.53C285.99,-150.33 310.54,-147.73 332.21,-145.42"/>
<polygon fill="#63b8ff" stroke="#63b8ff" points="332.69,-148.89 342.27,-144.36 331.95,-141.93 332.69,-148.89"/>
</a>
</g>
</g>
<!-- Node26 -->
<g id="Node000026" class="node">
<title>Node26</title>
<g id="a_Node000026"><a xlink:href="collision_8c.html#adcc608ea0eae3bf9a27ab79ec64b4899" target="_top" xlink:title=" ">
<polygon fill="white" stroke="#666666" points="435,-112 343,-112 343,-93 435,-93 435,-112"/>
<text text-anchor="middle" x="389" y="-100" font-family="Helvetica,sans-Serif" font-size="10.00">func_802AB288</text>
</a>
</g>
</g>
<!-- Node24&#45;&gt;Node26 -->
<g id="edge31_Node000024_Node000026" class="edge">
<title>Node24&#45;&gt;Node26</title>
<g id="a_edge31_Node000024_Node000026"><a xlink:title=" ">
<path fill="none" stroke="#63b8ff" d="M252.86,-147.97C260.87,-145.46 269.31,-142.58 277,-139.5 293.61,-132.85 296.23,-127.73 313,-121.5 319.51,-119.08 326.46,-116.86 333.39,-114.86"/>
<polygon fill="#63b8ff" stroke="#63b8ff" points="334.77,-118.11 343.49,-112.09 332.92,-111.36 334.77,-118.11"/>
</a>
</g>
</g>
<!-- Node27 -->
<g id="Node000027" class="node">
<title>Node27</title>
<g id="a_Node000027"><a xlink:href="collision_8c.html#ab440aa3fc960b7b4b5ad8e4bcaa06b00" target="_top" xlink:title=" ">
<polygon fill="white" stroke="#666666" points="435.5,-186 342.5,-186 342.5,-167 435.5,-167 435.5,-186"/>
<text text-anchor="middle" x="389" y="-174" font-family="Helvetica,sans-Serif" font-size="10.00">func_802AB6C4</text>
</a>
</g>
</g>
<!-- Node24&#45;&gt;Node27 -->
<g id="edge32_Node000024_Node000027" class="edge">
<title>Node24&#45;&gt;Node27</title>
<g id="a_edge32_Node000024_Node000027"><a xlink:title=" ">
<path fill="none" stroke="#63b8ff" d="M265.27,-162.74C285.99,-165.07 310.54,-167.82 332.21,-170.25"/>
<polygon fill="#63b8ff" stroke="#63b8ff" points="331.94,-173.74 342.27,-171.37 332.72,-166.78 331.94,-173.74"/>
</a>
</g>
</g>
<!-- Node30 -->
<g id="Node000030" class="node">
<title>Node30</title>
<g id="a_Node000030"><a xlink:href="math__util_8c.html#ae69cbf5c8d4b3b0dba2d7b4d4673689f" target="_top" xlink:title=" ">
<polygon fill="white" stroke="#666666" points="408,-75 370,-75 370,-56 408,-56 408,-75"/>
<text text-anchor="middle" x="389" y="-63" font-family="Helvetica,sans-Serif" font-size="10.00">coss</text>
</a>
</g>
</g>
<!-- Node29&#45;&gt;Node30 -->
<g id="edge35_Node000029_Node000030" class="edge">
<title>Node29&#45;&gt;Node30</title>
<g id="a_edge35_Node000029_Node000030"><a xlink:title=" ">
<path fill="none" stroke="#63b8ff" d="M263.92,-78.68C294.43,-75.44 333.68,-71.27 359.78,-68.5"/>
<polygon fill="#63b8ff" stroke="#63b8ff" points="360.19,-71.97 369.76,-67.44 359.45,-65.01 360.19,-71.97"/>
</a>
</g>
</g>
<!-- Node31 -->
<g id="Node000031" class="node">
<title>Node31</title>
<g id="a_Node000031"><a xlink:href="math__util_8c.html#a19ed3bd78fd2d3e2bd0a29f6caf48545" target="_top" xlink:title=" ">
<polygon fill="white" stroke="#666666" points="407,-38 371,-38 371,-19 407,-19 407,-38"/>
<text text-anchor="middle" x="389" y="-26" font-family="Helvetica,sans-Serif" font-size="10.00">sins</text>
</a>
</g>
</g>
<!-- Node29&#45;&gt;Node31 -->
<g id="edge36_Node000029_Node000031" class="edge">
<title>Node29&#45;&gt;Node31</title>
<g id="a_edge36_Node000029_Node000031"><a xlink:title=" ">
<path fill="none" stroke="#63b8ff" d="M253.22,-73.99C261.13,-71.5 269.44,-68.63 277,-65.5 293.72,-58.59 296.07,-52.88 313,-46.5 328.53,-40.65 346.6,-36.24 361.11,-33.25"/>
<polygon fill="#63b8ff" stroke="#63b8ff" points="361.81,-36.68 370.96,-31.33 360.47,-29.81 361.81,-36.68"/>
</a>
</g>
</g>
</g>
</svg>
