<?xml version="1.0" encoding="UTF-8" standalone="no"?>
<!DOCTYPE svg PUBLIC "-//W3C//DTD SVG 1.1//EN"
 "http://www.w3.org/Graphics/SVG/1.1/DTD/svg11.dtd">
<!-- Generated by graphviz version 2.43.0 (0)
 -->
<!-- Title: render_actor_banana Pages: 1 -->
<svg width="702pt" height="236pt"
 viewBox="0.00 0.00 702.00 235.50" xmlns="http://www.w3.org/2000/svg" xmlns:xlink="http://www.w3.org/1999/xlink">
<g id="graph0" class="graph" transform="scale(1 1) rotate(0) translate(4 231.5)">
<title>render_actor_banana</title>
<!-- Node1 -->
<g id="Node000001" class="node">
<title>Node1</title>
<g id="a_Node000001"><a xlink:title=" ">
<polygon fill="#999999" stroke="#666666" points="119,-136 0,-136 0,-117 119,-117 119,-136"/>
<text text-anchor="middle" x="59.5" y="-124" font-family="Helvetica,sans-Serif" font-size="10.00">render_actor_banana</text>
</a>
</g>
</g>
<!-- Node2 -->
<g id="Node000002" class="node">
<title>Node2</title>
<g id="a_Node000002"><a xlink:href="actors_8c.html#a722f21cf5d8bd9594d7f461abc7c0350" target="_top" xlink:title=" ">
<polygon fill="white" stroke="#666666" points="287.5,-221.5 171.5,-221.5 171.5,-191.5 287.5,-191.5 287.5,-221.5"/>
<text text-anchor="start" x="179.5" y="-209.5" font-family="Helvetica,sans-Serif" font-size="10.00">actor_not_render_on</text>
<text text-anchor="middle" x="229.5" y="-198.5" font-family="Helvetica,sans-Serif" font-size="10.00">_a_camera</text>
</a>
</g>
</g>
<!-- Node1&#45;&gt;Node2 -->
<g id="edge1_Node000001_Node000002" class="edge">
<title>Node1&#45;&gt;Node2</title>
<g id="a_edge1_Node000001_Node000002"><a xlink:title=" ">
<path fill="none" stroke="#63b8ff" d="M74.38,-136.05C92.36,-148.1 124.95,-168.89 155,-182.5 159.1,-184.36 163.39,-186.14 167.74,-187.83"/>
<polygon fill="#63b8ff" stroke="#63b8ff" points="166.74,-191.2 177.34,-191.4 169.18,-184.64 166.74,-191.2"/>
</a>
</g>
</g>
<!-- Node3 -->
<g id="Node000003" class="node">
<title>Node3</title>
<g id="a_Node000003"><a xlink:href="actors_8c.html#a9d9ee571ace2dd3de226053ddab47bb1" target="_top" xlink:title=" ">
<polygon fill="white" stroke="#666666" points="304,-173 155,-173 155,-154 304,-154 304,-173"/>
<text text-anchor="middle" x="229.5" y="-161" font-family="Helvetica,sans-Serif" font-size="10.00">actor_render_on_a_camera</text>
</a>
</g>
</g>
<!-- Node1&#45;&gt;Node3 -->
<g id="edge2_Node000001_Node000003" class="edge">
<title>Node1&#45;&gt;Node3</title>
<g id="a_edge2_Node000001_Node000003"><a xlink:title=" ">
<path fill="none" stroke="#63b8ff" d="M103.76,-136.03C125.53,-140.82 152.11,-146.68 175.13,-151.75"/>
<polygon fill="#63b8ff" stroke="#63b8ff" points="174.57,-155.21 185.09,-153.94 176.08,-148.37 174.57,-155.21"/>
</a>
</g>
</g>
<!-- Node4 -->
<g id="Node000004" class="node">
<title>Node4</title>
<g id="a_Node000004"><a xlink:href="math__util_8c.html#a5e1d12b8745a8d5f8d73ab366328d3cd" target="_top" xlink:title=" ">
<polygon fill="white" stroke="#666666" points="301,-136 158,-136 158,-117 301,-117 301,-136"/>
<text text-anchor="middle" x="229.5" y="-124" font-family="Helvetica,sans-Serif" font-size="10.00">is_within_render_distance</text>
</a>
</g>
</g>
<!-- Node1&#45;&gt;Node4 -->
<g id="edge3_Node000001_Node000004" class="edge">
<title>Node1&#45;&gt;Node4</title>
<g id="a_edge3_Node000001_Node000004"><a xlink:title=" ">
<path fill="none" stroke="#63b8ff" d="M119.26,-126.5C128.53,-126.5 138.25,-126.5 147.91,-126.5"/>
<polygon fill="#63b8ff" stroke="#63b8ff" points="147.94,-130 157.94,-126.5 147.94,-123 147.94,-130"/>
</a>
</g>
</g>
<!-- Node11 -->
<g id="Node000011" class="node">
<title>Node11</title>
<g id="a_Node000011"><a xlink:href="math__util_8c.html#a7085bb4bb08bdc39c0fa0b98f25176ef" target="_top" xlink:title=" ">
<polygon fill="white" stroke="#666666" points="293.5,-93 165.5,-93 165.5,-74 293.5,-74 293.5,-93"/>
<text text-anchor="middle" x="229.5" y="-81" font-family="Helvetica,sans-Serif" font-size="10.00">mtxf_pos_rotation_xyz</text>
</a>
</g>
</g>
<!-- Node1&#45;&gt;Node11 -->
<g id="edge11_Node000001_Node000011" class="edge">
<title>Node1&#45;&gt;Node11</title>
<g id="a_edge11_Node000001_Node000011"><a xlink:title=" ">
<path fill="none" stroke="#63b8ff" d="M97.78,-116.96C122.47,-110.64 155.05,-102.3 181.51,-95.53"/>
<polygon fill="#63b8ff" stroke="#63b8ff" points="182.5,-98.89 191.32,-93.02 180.76,-92.11 182.5,-98.89"/>
</a>
</g>
</g>
<!-- Node14 -->
<g id="Node000014" class="node">
<title>Node14</title>
<g id="a_Node000014"><a xlink:href="math__util_8c.html#aa23f6384122bc45f13a81ef0fa86c099" target="_top" xlink:title=" ">
<polygon fill="white" stroke="#666666" points="286,-38 173,-38 173,-19 286,-19 286,-38"/>
<text text-anchor="middle" x="229.5" y="-26" font-family="Helvetica,sans-Serif" font-size="10.00">render_set_position</text>
</a>
</g>
</g>
<!-- Node1&#45;&gt;Node14 -->
<g id="edge14_Node000001_Node000014" class="edge">
<title>Node1&#45;&gt;Node14</title>
<g id="a_edge14_Node000001_Node000014"><a xlink:title=" ">
<path fill="none" stroke="#63b8ff" d="M74.3,-116.93C92.45,-104.49 125.51,-82.38 155,-65.5 169.07,-57.45 185.1,-49.27 198.6,-42.65"/>
<polygon fill="#63b8ff" stroke="#63b8ff" points="200.44,-45.65 207.91,-38.13 197.39,-39.35 200.44,-45.65"/>
</a>
</g>
</g>
<!-- Node5 -->
<g id="Node000005" class="node">
<title>Node5</title>
<g id="a_Node000005"><a xlink:href="math__util_8c.html#a07a66adf3458c156c7961b983983627a" target="_top" xlink:title=" ">
<polygon fill="white" stroke="#666666" points="454,-179 361,-179 361,-160 454,-160 454,-179"/>
<text text-anchor="middle" x="407.5" y="-167" font-family="Helvetica,sans-Serif" font-size="10.00">func_802B7CA8</text>
</a>
</g>
</g>
<!-- Node4&#45;&gt;Node5 -->
<g id="edge4_Node000004_Node000005" class="edge">
<title>Node4&#45;&gt;Node5</title>
<g id="a_edge4_Node000004_Node000005"><a xlink:title=" ">
<path fill="none" stroke="#63b8ff" d="M269.56,-136.04C295.54,-142.39 329.85,-150.77 357.64,-157.56"/>
<polygon fill="#63b8ff" stroke="#63b8ff" points="357,-161.01 367.55,-159.98 358.67,-154.21 357,-161.01"/>
</a>
</g>
</g>
<!-- Node9 -->
<g id="Node000009" class="node">
<title>Node9</title>
<g id="a_Node000009"><a xlink:href="math__util_8c.html#a84cf9d4ec33146a64c230ed4cec56632" target="_top" xlink:title=" ">
<polygon fill="white" stroke="#666666" points="475,-227.5 340,-227.5 340,-197.5 475,-197.5 475,-227.5"/>
<text text-anchor="start" x="348" y="-215.5" font-family="Helvetica,sans-Serif" font-size="10.00">get_angle_between_two</text>
<text text-anchor="middle" x="407.5" y="-204.5" font-family="Helvetica,sans-Serif" font-size="10.00">_vectors</text>
</a>
</g>
</g>
<!-- Node4&#45;&gt;Node9 -->
<g id="edge8_Node000004_Node000009" class="edge">
<title>Node4&#45;&gt;Node9</title>
<g id="a_edge8_Node000004_Node000009"><a xlink:title=" ">
<path fill="none" stroke="#63b8ff" d="M283.95,-136.09C290.98,-138.54 297.87,-141.63 304,-145.5 325.07,-158.81 319.57,-174.22 340,-188.5 342.11,-189.98 344.33,-191.37 346.61,-192.69"/>
<polygon fill="#63b8ff" stroke="#63b8ff" points="345.21,-195.91 355.7,-197.4 348.43,-189.69 345.21,-195.91"/>
</a>
</g>
</g>
<!-- Node10 -->
<g id="Node000010" class="node">
<title>Node10</title>
<g id="a_Node000010"><a xlink:href="math__util_8c.html#a3eb0db0895b2c11953df746ce49b782e" target="_top" xlink:title=" ">
<polygon fill="white" stroke="#666666" points="462.5,-141.5 352.5,-141.5 352.5,-111.5 462.5,-111.5 462.5,-141.5"/>
<text text-anchor="start" x="360.5" y="-129.5" font-family="Helvetica,sans-Serif" font-size="10.00">is_visible_between</text>
<text text-anchor="middle" x="407.5" y="-118.5" font-family="Helvetica,sans-Serif" font-size="10.00">_angle</text>
</a>
</g>
</g>
<!-- Node4&#45;&gt;Node10 -->
<g id="edge10_Node000004_Node000010" class="edge">
<title>Node4&#45;&gt;Node10</title>
<g id="a_edge10_Node000004_Node000010"><a xlink:title=" ">
<path fill="none" stroke="#63b8ff" d="M301.07,-126.5C314.71,-126.5 328.94,-126.5 342.36,-126.5"/>
<polygon fill="#63b8ff" stroke="#63b8ff" points="342.44,-130 352.44,-126.5 342.44,-123 342.44,-130"/>
</a>
</g>
</g>
<!-- Node6 -->
<g id="Node000006" class="node">
<title>Node6</title>
<g id="a_Node000006"><a xlink:href="math__util_8c.html#aaa39a297477f56051975259f4bddd829" target="_top" xlink:title=" ">
<polygon fill="white" stroke="#666666" points="568.5,-219 518.5,-219 518.5,-200 568.5,-200 568.5,-219"/>
<text text-anchor="middle" x="543.5" y="-207" font-family="Helvetica,sans-Serif" font-size="10.00">atan2s</text>
</a>
</g>
</g>
<!-- Node5&#45;&gt;Node6 -->
<g id="edge5_Node000005_Node000006" class="edge">
<title>Node5&#45;&gt;Node6</title>
<g id="a_edge5_Node000005_Node000006"><a xlink:title=" ">
<path fill="none" stroke="#63b8ff" d="M442.37,-179.01C452.85,-182 464.41,-185.34 475,-188.5 485.96,-191.77 497.89,-195.44 508.63,-198.79"/>
<polygon fill="#63b8ff" stroke="#63b8ff" points="507.9,-202.23 518.49,-201.88 509.99,-195.55 507.9,-202.23"/>
</a>
</g>
</g>
<!-- Node8 -->
<g id="Node000008" class="node">
<title>Node8</title>
<g id="a_Node000008"><a xlink:href="math_8h.html#a37bde043e94a6f074c78f10518fb5d99" target="_top" xlink:title=" ">
<polygon fill="white" stroke="#666666" points="563,-179 524,-179 524,-160 563,-160 563,-179"/>
<text text-anchor="middle" x="543.5" y="-167" font-family="Helvetica,sans-Serif" font-size="10.00">sqrtf</text>
</a>
</g>
</g>
<!-- Node5&#45;&gt;Node8 -->
<g id="edge7_Node000005_Node000008" class="edge">
<title>Node5&#45;&gt;Node8</title>
<g id="a_edge7_Node000005_Node000008"><a xlink:title=" ">
<path fill="none" stroke="#63b8ff" d="M454.24,-169.5C473.96,-169.5 496.41,-169.5 513.74,-169.5"/>
<polygon fill="#63b8ff" stroke="#63b8ff" points="513.79,-173 523.79,-169.5 513.79,-166 513.79,-173"/>
</a>
</g>
</g>
<!-- Node7 -->
<g id="Node000007" class="node">
<title>Node7</title>
<g id="a_Node000007"><a xlink:href="math__util_8c.html#a0273b0ea0783a06996c28669a7438ed9" target="_top" xlink:title=" ">
<polygon fill="white" stroke="#666666" points="694,-219 612,-219 612,-200 694,-200 694,-219"/>
<text text-anchor="middle" x="653" y="-207" font-family="Helvetica,sans-Serif" font-size="10.00">atan2_lookup</text>
</a>
</g>
</g>
<!-- Node6&#45;&gt;Node7 -->
<g id="edge6_Node000006_Node000007" class="edge">
<title>Node6&#45;&gt;Node7</title>
<g id="a_edge6_Node000006_Node000007"><a xlink:title=" ">
<path fill="none" stroke="#63b8ff" d="M568.63,-209.5C578.49,-209.5 590.29,-209.5 601.86,-209.5"/>
<polygon fill="#63b8ff" stroke="#63b8ff" points="601.92,-213 611.92,-209.5 601.92,-206 601.92,-213"/>
</a>
</g>
</g>
<!-- Node9&#45;&gt;Node6 -->
<g id="edge9_Node000009_Node000006" class="edge">
<title>Node9&#45;&gt;Node6</title>
<g id="a_edge9_Node000009_Node000006"><a xlink:title=" ">
<path fill="none" stroke="#63b8ff" d="M475.11,-211.01C486.61,-210.75 498.13,-210.49 508.31,-210.27"/>
<polygon fill="#63b8ff" stroke="#63b8ff" points="508.46,-213.76 518.38,-210.04 508.3,-206.76 508.46,-213.76"/>
</a>
</g>
</g>
<!-- Node12 -->
<g id="Node000012" class="node">
<title>Node12</title>
<g id="a_Node000012"><a xlink:href="math__util_8c.html#ae69cbf5c8d4b3b0dba2d7b4d4673689f" target="_top" xlink:title=" ">
<polygon fill="white" stroke="#666666" points="426.5,-93 388.5,-93 388.5,-74 426.5,-74 426.5,-93"/>
<text text-anchor="middle" x="407.5" y="-81" font-family="Helvetica,sans-Serif" font-size="10.00">coss</text>
</a>
</g>
</g>
<!-- Node11&#45;&gt;Node12 -->
<g id="edge12_Node000011_Node000012" class="edge">
<title>Node11&#45;&gt;Node12</title>
<g id="a_edge12_Node000011_Node000012"><a xlink:title=" ">
<path fill="none" stroke="#63b8ff" d="M293.54,-83.5C322.49,-83.5 355.37,-83.5 378.16,-83.5"/>
<polygon fill="#63b8ff" stroke="#63b8ff" points="378.18,-87 388.18,-83.5 378.18,-80 378.18,-87"/>
</a>
</g>
</g>
<!-- Node13 -->
<g id="Node000013" class="node">
<title>Node13</title>
<g id="a_Node000013"><a xlink:href="math__util_8c.html#a19ed3bd78fd2d3e2bd0a29f6caf48545" target="_top" xlink:title=" ">
<polygon fill="white" stroke="#666666" points="425.5,-56 389.5,-56 389.5,-37 425.5,-37 425.5,-56"/>
<text text-anchor="middle" x="407.5" y="-44" font-family="Helvetica,sans-Serif" font-size="10.00">sins</text>
</a>
</g>
</g>
<!-- Node11&#45;&gt;Node13 -->
<g id="edge13_Node000011_Node000013" class="edge">
<title>Node11&#45;&gt;Node13</title>
<g id="a_edge13_Node000011_Node000013"><a xlink:title=" ">
<path fill="none" stroke="#63b8ff" d="M275.82,-73.97C308.55,-67.09 351.67,-58.03 379.25,-52.23"/>
<polygon fill="#63b8ff" stroke="#63b8ff" points="380.28,-55.59 389.35,-50.11 378.84,-48.74 380.28,-55.59"/>
</a>
</g>
</g>
<!-- Node15 -->
<g id="Node000015" class="node">
<title>Node15</title>
<g id="a_Node000015"><a xlink:href="math__util_8c.html#a32af0f217114736291c9ca6689138b81" target="_top" xlink:title=" ">
<polygon fill="white" stroke="#666666" points="447.5,-19 367.5,-19 367.5,0 447.5,0 447.5,-19"/>
<text text-anchor="middle" x="407.5" y="-7" font-family="Helvetica,sans-Serif" font-size="10.00">mtxf_to_mtx</text>
</a>
</g>
</g>
<!-- Node14&#45;&gt;Node15 -->
<g id="edge15_Node000014_Node000015" class="edge">
<title>Node14&#45;&gt;Node15</title>
<g id="a_edge15_Node000014_Node000015"><a xlink:title=" ">
<path fill="none" stroke="#63b8ff" d="M286.19,-22.49C308.97,-20.03 335.1,-17.21 357.18,-14.82"/>
<polygon fill="#63b8ff" stroke="#63b8ff" points="357.76,-18.28 367.33,-13.73 357.01,-11.32 357.76,-18.28"/>
</a>
</g>
</g>
<!-- Node16 -->
<g id="Node000016" class="node">
<title>Node16</title>
<g id="a_Node000016"><a xlink:href="guMtxF2L_8c.html#a40ab2d64c609839ff1e0ef0de2d0dcc4" target="_top" xlink:title=" ">
<polygon fill="white" stroke="#666666" points="576,-19 511,-19 511,0 576,0 576,-19"/>
<text text-anchor="middle" x="543.5" y="-7" font-family="Helvetica,sans-Serif" font-size="10.00">guMtxF2L</text>
</a>
</g>
</g>
<!-- Node15&#45;&gt;Node16 -->
<g id="edge16_Node000015_Node000016" class="edge">
<title>Node15&#45;&gt;Node16</title>
<g id="a_edge16_Node000015_Node000016"><a xlink:title=" ">
<path fill="none" stroke="#63b8ff" d="M447.62,-9.5C464.25,-9.5 483.67,-9.5 500.6,-9.5"/>
<polygon fill="#63b8ff" stroke="#63b8ff" points="500.77,-13 510.77,-9.5 500.77,-6 500.77,-13"/>
</a>
</g>
</g>
</g>
</svg>
