<?xml version="1.0" encoding="UTF-8" standalone="no"?>
<!DOCTYPE svg PUBLIC "-//W3C//DTD SVG 1.1//EN"
 "http://www.w3.org/Graphics/SVG/1.1/DTD/svg11.dtd">
<!-- Generated by graphviz version 2.43.0 (0)
 -->
<!-- Title: courses/choco_mountain/course_data.inc.h Pages: 1 -->
<svg width="1431pt" height="280pt"
 viewBox="0.00 0.00 1431.00 280.00" xmlns="http://www.w3.org/2000/svg" xmlns:xlink="http://www.w3.org/1999/xlink">
<g id="graph0" class="graph" transform="scale(1 1) rotate(0) translate(4 276)">
<title>courses/choco_mountain/course_data.inc.h</title>
<!-- Node1 -->
<g id="Node000001" class="node">
<title>Node1</title>
<g id="a_Node000001"><a xlink:title=" ">
<polygon fill="#999999" stroke="#666666" points="1248,-272 1111,-272 1111,-242 1248,-242 1248,-272"/>
<text text-anchor="start" x="1119" y="-260" font-family="Helvetica,sans-Serif" font-size="10.00">courses/choco_mountain</text>
<text text-anchor="middle" x="1179.5" y="-249" font-family="Helvetica,sans-Serif" font-size="10.00">/course_data.inc.h</text>
</a>
</g>
</g>
<!-- Node2 -->
<g id="Node000002" class="node">
<title>Node2</title>
<g id="a_Node000002"><a xlink:href="all__course__data_8h.html" target="_top" xlink:title=" ">
<polygon fill="white" stroke="#666666" points="833,-206 726,-206 726,-176 833,-176 833,-206"/>
<text text-anchor="start" x="734" y="-194" font-family="Helvetica,sans-Serif" font-size="10.00">courses/all_course</text>
<text text-anchor="middle" x="779.5" y="-183" font-family="Helvetica,sans-Serif" font-size="10.00">_data.h</text>
</a>
</g>
</g>
<!-- Node1&#45;&gt;Node2 -->
<g id="edge1_Node000001_Node000002" class="edge">
<title>Node1&#45;&gt;Node2</title>
<g id="a_edge1_Node000001_Node000002"><a xlink:title=" ">
<path fill="none" stroke="#63b8ff" d="M1100.83,-243.41C1021.78,-230.76 902.09,-211.61 833.29,-200.61"/>
<polygon fill="#63b8ff" stroke="#63b8ff" points="1100.31,-246.87 1110.74,-245 1101.42,-239.96 1100.31,-246.87"/>
</a>
</g>
</g>
<!-- Node15 -->
<g id="Node000015" class="node">
<title>Node15</title>
<g id="a_Node000015"><a xlink:href="choco__mountain_2course__offsets_8inc_8c.html" target="_top" xlink:title=" ">
<polygon fill="white" stroke="#666666" points="1179,-206 1042,-206 1042,-176 1179,-176 1179,-206"/>
<text text-anchor="start" x="1050" y="-194" font-family="Helvetica,sans-Serif" font-size="10.00">courses/choco_mountain</text>
<text text-anchor="middle" x="1110.5" y="-183" font-family="Helvetica,sans-Serif" font-size="10.00">/course_offsets.inc.c</text>
</a>
</g>
</g>
<!-- Node1&#45;&gt;Node15 -->
<g id="edge15_Node000001_Node000015" class="edge">
<title>Node1&#45;&gt;Node15</title>
<g id="a_edge15_Node000001_Node000015"><a xlink:title=" ">
<path fill="none" stroke="#63b8ff" d="M1156.78,-234.92C1146.6,-225.49 1134.87,-214.61 1125.77,-206.16"/>
<polygon fill="#63b8ff" stroke="#63b8ff" points="1154.47,-237.56 1164.19,-241.8 1159.24,-232.43 1154.47,-237.56"/>
</a>
</g>
</g>
<!-- Node16 -->
<g id="Node000016" class="node">
<title>Node16</title>
<g id="a_Node000016"><a xlink:href="falling__rock_2render_8inc_8c.html" target="_top" xlink:title=" ">
<polygon fill="white" stroke="#666666" points="1299.5,-206 1197.5,-206 1197.5,-176 1299.5,-176 1299.5,-206"/>
<text text-anchor="start" x="1205.5" y="-194" font-family="Helvetica,sans-Serif" font-size="10.00">src/actors/falling</text>
<text text-anchor="middle" x="1248.5" y="-183" font-family="Helvetica,sans-Serif" font-size="10.00">_rock/render.inc.c</text>
</a>
</g>
</g>
<!-- Node1&#45;&gt;Node16 -->
<g id="edge16_Node000001_Node000016" class="edge">
<title>Node1&#45;&gt;Node16</title>
<g id="a_edge16_Node000001_Node000016"><a xlink:title=" ">
<path fill="none" stroke="#63b8ff" d="M1202.22,-234.92C1212.4,-225.49 1224.13,-214.61 1233.23,-206.16"/>
<polygon fill="#63b8ff" stroke="#63b8ff" points="1199.76,-232.43 1194.81,-241.8 1204.53,-237.56 1199.76,-232.43"/>
</a>
</g>
</g>
<!-- Node17 -->
<g id="Node000017" class="node">
<title>Node17</title>
<g id="a_Node000017"><a xlink:href="falling__rock_2update_8inc_8c.html" target="_top" xlink:title=" ">
<polygon fill="white" stroke="#666666" points="1423,-206 1318,-206 1318,-176 1423,-176 1423,-206"/>
<text text-anchor="start" x="1326" y="-194" font-family="Helvetica,sans-Serif" font-size="10.00">src/actors/falling</text>
<text text-anchor="middle" x="1370.5" y="-183" font-family="Helvetica,sans-Serif" font-size="10.00">_rock/update.inc.c</text>
</a>
</g>
</g>
<!-- Node1&#45;&gt;Node17 -->
<g id="edge18_Node000001_Node000017" class="edge">
<title>Node1&#45;&gt;Node17</title>
<g id="a_edge18_Node000001_Node000017"><a xlink:title=" ">
<path fill="none" stroke="#63b8ff" d="M1231.06,-238.72C1261.66,-228.47 1299.97,-215.63 1328.68,-206.01"/>
<polygon fill="#63b8ff" stroke="#63b8ff" points="1229.79,-235.46 1221.42,-241.95 1232.01,-242.1 1229.79,-235.46"/>
</a>
</g>
</g>
<!-- Node3 -->
<g id="Node000003" class="node">
<title>Node3</title>
<g id="a_Node000003"><a xlink:href="paddle__boat_2render_8inc_8c.html" target="_top" xlink:title=" ">
<polygon fill="white" stroke="#666666" points="1266,-140 1139,-140 1139,-110 1266,-110 1266,-140"/>
<text text-anchor="start" x="1147" y="-128" font-family="Helvetica,sans-Serif" font-size="10.00">src/actors/paddle_boat</text>
<text text-anchor="middle" x="1202.5" y="-117" font-family="Helvetica,sans-Serif" font-size="10.00">/render.inc.c</text>
</a>
</g>
</g>
<!-- Node2&#45;&gt;Node3 -->
<g id="edge2_Node000002_Node000003" class="edge">
<title>Node2&#45;&gt;Node3</title>
<g id="a_edge2_Node000002_Node000003"><a xlink:title=" ">
<path fill="none" stroke="#63b8ff" d="M843.31,-181.81C913.58,-172.58 1029.82,-156.67 1129.5,-140 1132.55,-139.49 1135.68,-138.95 1138.83,-138.4"/>
<polygon fill="#63b8ff" stroke="#63b8ff" points="842.75,-178.36 833.29,-183.12 843.66,-185.3 842.75,-178.36"/>
</a>
</g>
</g>
<!-- Node4 -->
<g id="Node000004" class="node">
<title>Node4</title>
<g id="a_Node000004"><a xlink:href="actors_8c.html" target="_top" xlink:title=" ">
<polygon fill="white" stroke="#666666" points="1366,-74 1261,-74 1261,-55 1366,-55 1366,-74"/>
<text text-anchor="middle" x="1313.5" y="-62" font-family="Helvetica,sans-Serif" font-size="10.00">src/racing/actors.c</text>
</a>
</g>
</g>
<!-- Node2&#45;&gt;Node4 -->
<g id="edge11_Node000002_Node000004" class="edge">
<title>Node2&#45;&gt;Node4</title>
<g id="a_edge11_Node000002_Node000004"><a xlink:title=" ">
<path fill="none" stroke="#63b8ff" d="M843.65,-186.94C969.72,-180.45 1240.58,-163.88 1275.5,-140 1298.51,-124.26 1308.38,-90.23 1311.88,-74.19"/>
<polygon fill="#63b8ff" stroke="#63b8ff" points="843.18,-183.46 833.37,-187.47 843.54,-190.45 843.18,-183.46"/>
</a>
</g>
</g>
<!-- Node5 -->
<g id="Node000005" class="node">
<title>Node5</title>
<g id="a_Node000005"><a xlink:href="code__800029B0_8c.html" target="_top" xlink:title=" ">
<polygon fill="white" stroke="#666666" points="119,-134.5 0,-134.5 0,-115.5 119,-115.5 119,-134.5"/>
<text text-anchor="middle" x="59.5" y="-122.5" font-family="Helvetica,sans-Serif" font-size="10.00">src/code_800029B0.c</text>
</a>
</g>
</g>
<!-- Node2&#45;&gt;Node5 -->
<g id="edge4_Node000002_Node000005" class="edge">
<title>Node2&#45;&gt;Node5</title>
<g id="a_edge4_Node000002_Node000005"><a xlink:title=" ">
<path fill="none" stroke="#63b8ff" d="M715.46,-187.71C598.43,-182.93 342.37,-169.79 128.5,-140 118.33,-138.58 107.41,-136.59 97.32,-134.55"/>
<polygon fill="#63b8ff" stroke="#63b8ff" points="715.54,-191.21 725.67,-188.12 715.82,-184.22 715.54,-191.21"/>
</a>
</g>
</g>
<!-- Node6 -->
<g id="Node000006" class="node">
<title>Node6</title>
<g id="a_Node000006"><a xlink:href="code__80005FD0_8c.html" target="_top" xlink:title=" ">
<polygon fill="white" stroke="#666666" points="257.5,-134.5 137.5,-134.5 137.5,-115.5 257.5,-115.5 257.5,-134.5"/>
<text text-anchor="middle" x="197.5" y="-122.5" font-family="Helvetica,sans-Serif" font-size="10.00">src/code_80005FD0.c</text>
</a>
</g>
</g>
<!-- Node2&#45;&gt;Node6 -->
<g id="edge5_Node000002_Node000006" class="edge">
<title>Node2&#45;&gt;Node6</title>
<g id="a_edge5_Node000002_Node000006"><a xlink:title=" ">
<path fill="none" stroke="#63b8ff" d="M715.47,-185.89C618.13,-179.16 427.24,-164.07 266.5,-140 256.59,-138.52 245.95,-136.55 236.06,-134.55"/>
<polygon fill="#63b8ff" stroke="#63b8ff" points="715.52,-189.4 725.73,-186.59 715.99,-182.42 715.52,-189.4"/>
</a>
</g>
</g>
<!-- Node7 -->
<g id="Node000007" class="node">
<title>Node7</title>
<g id="a_Node000007"><a xlink:href="code__8006E9C0_8c.html" target="_top" xlink:title=" ">
<polygon fill="white" stroke="#666666" points="395,-134.5 276,-134.5 276,-115.5 395,-115.5 395,-134.5"/>
<text text-anchor="middle" x="335.5" y="-122.5" font-family="Helvetica,sans-Serif" font-size="10.00">src/code_8006E9C0.c</text>
</a>
</g>
</g>
<!-- Node2&#45;&gt;Node7 -->
<g id="edge6_Node000002_Node000007" class="edge">
<title>Node2&#45;&gt;Node7</title>
<g id="a_edge6_Node000002_Node000007"><a xlink:title=" ">
<path fill="none" stroke="#63b8ff" d="M715.55,-182.89C640.57,-174.24 512.64,-158.47 403.5,-140 394.11,-138.41 384.04,-136.47 374.61,-134.54"/>
<polygon fill="#63b8ff" stroke="#63b8ff" points="715.44,-186.4 725.77,-184.07 716.24,-179.45 715.44,-186.4"/>
</a>
</g>
</g>
<!-- Node8 -->
<g id="Node000008" class="node">
<title>Node8</title>
<g id="a_Node000008"><a xlink:href="path__spawn__data_8c.html" target="_top" xlink:title=" ">
<polygon fill="white" stroke="#666666" points="530,-140 413,-140 413,-110 530,-110 530,-140"/>
<text text-anchor="start" x="421" y="-128" font-family="Helvetica,sans-Serif" font-size="10.00">src/data/path_spawn</text>
<text text-anchor="middle" x="471.5" y="-117" font-family="Helvetica,sans-Serif" font-size="10.00">_data.c</text>
</a>
</g>
</g>
<!-- Node2&#45;&gt;Node8 -->
<g id="edge7_Node000002_Node000008" class="edge">
<title>Node2&#45;&gt;Node8</title>
<g id="a_edge7_Node000002_Node000008"><a xlink:title=" ">
<path fill="none" stroke="#63b8ff" d="M715.93,-176.79C661.3,-165.44 583.16,-149.2 530.04,-138.16"/>
<polygon fill="#63b8ff" stroke="#63b8ff" points="715.35,-180.24 725.85,-178.85 716.77,-173.39 715.35,-180.24"/>
</a>
</g>
</g>
<!-- Node9 -->
<g id="Node000009" class="node">
<title>Node9</title>
<g id="a_Node000009"><a xlink:href="all__variables_8h.html" target="_top" xlink:title=" ">
<polygon fill="white" stroke="#666666" points="686.5,-134.5 548.5,-134.5 548.5,-115.5 686.5,-115.5 686.5,-134.5"/>
<text text-anchor="middle" x="617.5" y="-122.5" font-family="Helvetica,sans-Serif" font-size="10.00">src/debug/all_variables.h</text>
</a>
</g>
</g>
<!-- Node2&#45;&gt;Node9 -->
<g id="edge8_Node000002_Node000009" class="edge">
<title>Node2&#45;&gt;Node9</title>
<g id="a_edge8_Node000002_Node000009"><a xlink:title=" ">
<path fill="none" stroke="#63b8ff" d="M734.59,-172.26C703.44,-159.95 663.33,-144.11 639.06,-134.52"/>
<polygon fill="#63b8ff" stroke="#63b8ff" points="733.36,-175.54 743.95,-175.95 735.93,-169.03 733.36,-175.54"/>
</a>
</g>
</g>
<!-- Node12 -->
<g id="Node000012" class="node">
<title>Node12</title>
<g id="a_Node000012"><a xlink:href="render__courses_8c.html" target="_top" xlink:title=" ">
<polygon fill="white" stroke="#666666" points="854,-134.5 705,-134.5 705,-115.5 854,-115.5 854,-134.5"/>
<text text-anchor="middle" x="779.5" y="-122.5" font-family="Helvetica,sans-Serif" font-size="10.00">src/racing/render_courses.c</text>
</a>
</g>
</g>
<!-- Node2&#45;&gt;Node12 -->
<g id="edge12_Node000002_Node000012" class="edge">
<title>Node2&#45;&gt;Node12</title>
<g id="a_edge12_Node000002_Node000012"><a xlink:title=" ">
<path fill="none" stroke="#63b8ff" d="M779.5,-165.6C779.5,-154.8 779.5,-142.78 779.5,-134.84"/>
<polygon fill="#63b8ff" stroke="#63b8ff" points="776,-165.8 779.5,-175.8 783,-165.8 776,-165.8"/>
</a>
</g>
</g>
<!-- Node13 -->
<g id="Node000013" class="node">
<title>Node13</title>
<g id="a_Node000013"><a xlink:href="render__objects_8c.html" target="_top" xlink:title=" ">
<polygon fill="white" stroke="#666666" points="986.5,-134.5 872.5,-134.5 872.5,-115.5 986.5,-115.5 986.5,-134.5"/>
<text text-anchor="middle" x="929.5" y="-122.5" font-family="Helvetica,sans-Serif" font-size="10.00">src/render_objects.c</text>
</a>
</g>
</g>
<!-- Node2&#45;&gt;Node13 -->
<g id="edge13_Node000002_Node000013" class="edge">
<title>Node2&#45;&gt;Node13</title>
<g id="a_edge13_Node000002_Node000013"><a xlink:title=" ">
<path fill="none" stroke="#63b8ff" d="M821.83,-171.94C850.56,-159.68 887.26,-144.02 909.54,-134.52"/>
<polygon fill="#63b8ff" stroke="#63b8ff" points="820.24,-168.81 812.42,-175.95 822.99,-175.25 820.24,-168.81"/>
</a>
</g>
</g>
<!-- Node14 -->
<g id="Node000014" class="node">
<title>Node14</title>
<g id="a_Node000014"><a xlink:href="update__objects_8c.html" target="_top" xlink:title=" ">
<polygon fill="white" stroke="#666666" points="1120.5,-134.5 1004.5,-134.5 1004.5,-115.5 1120.5,-115.5 1120.5,-134.5"/>
<text text-anchor="middle" x="1062.5" y="-122.5" font-family="Helvetica,sans-Serif" font-size="10.00">src/update_objects.c</text>
</a>
</g>
</g>
<!-- Node2&#45;&gt;Node14 -->
<g id="edge14_Node000002_Node000014" class="edge">
<title>Node2&#45;&gt;Node14</title>
<g id="a_edge14_Node000002_Node000014"><a xlink:title=" ">
<path fill="none" stroke="#63b8ff" d="M842.85,-175.67C898.64,-163.06 978.07,-145.09 1024.55,-134.58"/>
<polygon fill="#63b8ff" stroke="#63b8ff" points="842.04,-172.27 833.06,-177.89 843.59,-179.09 842.04,-172.27"/>
</a>
</g>
</g>
<!-- Node3&#45;&gt;Node4 -->
<g id="edge3_Node000003_Node000004" class="edge">
<title>Node3&#45;&gt;Node4</title>
<g id="a_edge3_Node000003_Node000004"><a xlink:title=" ">
<path fill="none" stroke="#63b8ff" d="M1238.16,-105.21C1257.96,-94.77 1281.65,-82.29 1297.11,-74.14"/>
<polygon fill="#63b8ff" stroke="#63b8ff" points="1236.3,-102.23 1229.09,-109.99 1239.57,-108.42 1236.3,-102.23"/>
</a>
</g>
</g>
<!-- Node10 -->
<g id="Node000010" class="node">
<title>Node10</title>
<g id="a_Node000010"><a xlink:href="debug_8inc_8c.html" target="_top" xlink:title=" ">
<polygon fill="white" stroke="#666666" points="678.5,-74 556.5,-74 556.5,-55 678.5,-55 678.5,-74"/>
<text text-anchor="middle" x="617.5" y="-62" font-family="Helvetica,sans-Serif" font-size="10.00">src/debug/debug.inc.c</text>
</a>
</g>
</g>
<!-- Node9&#45;&gt;Node10 -->
<g id="edge9_Node000009_Node000010" class="edge">
<title>Node9&#45;&gt;Node10</title>
<g id="a_edge9_Node000009_Node000010"><a xlink:title=" ">
<path fill="none" stroke="#63b8ff" d="M617.5,-105.16C617.5,-94.74 617.5,-82.3 617.5,-74.17"/>
<polygon fill="#63b8ff" stroke="#63b8ff" points="614,-105.37 617.5,-115.37 621,-105.37 614,-105.37"/>
</a>
</g>
</g>
<!-- Node11 -->
<g id="Node000011" class="node">
<title>Node11</title>
<g id="a_Node000011"><a xlink:href="debug_8c.html" target="_top" xlink:title=" ">
<polygon fill="white" stroke="#666666" points="670,-19 565,-19 565,0 670,0 670,-19"/>
<text text-anchor="middle" x="617.5" y="-7" font-family="Helvetica,sans-Serif" font-size="10.00">src/debug/debug.c</text>
</a>
</g>
</g>
<!-- Node10&#45;&gt;Node11 -->
<g id="edge10_Node000010_Node000011" class="edge">
<title>Node10&#45;&gt;Node11</title>
<g id="a_edge10_Node000010_Node000011"><a xlink:title=" ">
<path fill="none" stroke="#63b8ff" d="M617.5,-44.66C617.5,-35.93 617.5,-25.99 617.5,-19.09"/>
<polygon fill="#63b8ff" stroke="#63b8ff" points="614,-44.75 617.5,-54.75 621,-44.75 614,-44.75"/>
</a>
</g>
</g>
<!-- Node16&#45;&gt;Node4 -->
<g id="edge17_Node000016_Node000004" class="edge">
<title>Node16&#45;&gt;Node4</title>
<g id="a_edge17_Node000016_Node000004"><a xlink:title=" ">
<path fill="none" stroke="#63b8ff" d="M1281.76,-170.05C1292.12,-162.07 1302.42,-151.91 1308.5,-140 1319.45,-118.52 1317.13,-88.92 1315.04,-74.35"/>
<polygon fill="#63b8ff" stroke="#63b8ff" points="1279.58,-167.3 1273.51,-175.98 1283.67,-172.99 1279.58,-167.3"/>
</a>
</g>
</g>
<!-- Node17&#45;&gt;Node4 -->
<g id="edge19_Node000017_Node000004" class="edge">
<title>Node17&#45;&gt;Node4</title>
<g id="a_edge19_Node000017_Node000004"><a xlink:title=" ">
<path fill="none" stroke="#63b8ff" d="M1365.6,-166.01C1361.73,-149.68 1355.46,-127.86 1346.5,-110 1339.69,-96.42 1328.71,-82.65 1321.31,-74.1"/>
<polygon fill="#63b8ff" stroke="#63b8ff" points="1362.21,-166.87 1367.81,-175.86 1369.04,-165.34 1362.21,-166.87"/>
</a>
</g>
</g>
</g>
</svg>
