<?xml version="1.0" encoding="UTF-8" standalone="no"?>
<!DOCTYPE svg PUBLIC "-//W3C//DTD SVG 1.1//EN"
 "http://www.w3.org/Graphics/SVG/1.1/DTD/svg11.dtd">
<!-- Generated by graphviz version 2.43.0 (0)
 -->
<!-- Title: func_8008F778 Pages: 1 -->
<!--zoomable 755 -->

<svg id="main" version="1.1" xmlns="http://www.w3.org/2000/svg" xmlns:xlink="http://www.w3.org/1999/xlink" xml:space="preserve" onload="init(evt)">
<style type="text/css"><![CDATA[
.node, .edge {opacity: 0.7;}
.node.selected, .edge.selected {opacity: 1;}
.edge:hover path { stroke: red; }
.edge:hover polygon { stroke: red; fill: red; }
]]></style>

<defs>
  <circle id="rim" cx="0" cy="0" r="7"/>
  <circle id="rim2" cx="0" cy="0" r="3.5"/>
  <g id="zoomPlus">
    <use xlink:href="#rim" fill="#404040"><set attributeName="fill" to="#808080" begin="zoomplus.mouseover" end="zoomplus.mouseout"/></use>
    <path d="M-4,0h8M0,-4v8" fill="none" stroke="white" stroke-width="1.5" pointer-events="none"/>
  </g>
  <g id="zoomMin">
    <use xlink:href="#rim" fill="#404040"><set attributeName="fill" to="#808080" begin="zoomminus.mouseover" end="zoomminus.mouseout"/></use>
    <path d="M-4,0h8" fill="none" stroke="white" stroke-width="1.5" pointer-events="none"/>
  </g>
  <g id="arrowUp" transform="translate(30 24)">
    <use xlink:href="#rim"/>
    <path pointer-events="none" fill="none" stroke="white" stroke-width="1.5" d="M0,-3.0v7 M-2.5,-0.5L0,-3.0L2.5,-0.5"/>
  </g>
  <g id="arrowRight" transform="rotate(90) translate(36 -43)">
    <use xlink:href="#rim"/>
    <path pointer-events="none" fill="none" stroke="white" stroke-width="1.5" d="M0,-3.0v7 M-2.5,-0.5L0,-3.0L2.5,-0.5"/>
  </g>
  <g id="arrowDown" transform="rotate(180) translate(-30 -48)">
    <use xlink:href="#rim"/>
    <path pointer-events="none" fill="none" stroke="white" stroke-width="1.5" d="M0,-3.0v7 M-2.5,-0.5L0,-3.0L2.5,-0.5"/>
  </g>
  <g id="arrowLeft" transform="rotate(270) translate(-36 17)">
    <use xlink:href="#rim"/>
    <path pointer-events="none" fill="none" stroke="white" stroke-width="1.5" d="M0,-3.0v7 M-2.5,-0.5L0,-3.0L2.5,-0.5"/>
  </g>
  <g id="resetDef">
    <use xlink:href="#rim2" fill="#404040"><set attributeName="fill" to="#808080" begin="reset.mouseover" end="reset.mouseout"/></use>
  </g>
</defs>
<script type="application/ecmascript">
var viewWidth = 742;
var viewHeight = 755;
var sectionId = 'dynsection-80';
</script>
<script type="application/ecmascript" xlink:href="svg.min.js"/>
<svg id="graph" class="graph">
<g id="viewport">
<title>func_8008F778</title>
<!-- Node1 -->
<g id="Node000001" class="node">
<title>Node1</title>
<g id="a_Node000001"><a xlink:title=" ">
<polygon fill="#999999" stroke="#666666" points="91,-208.62 0,-208.62 0,-189.62 91,-189.62 91,-208.62"/>
<text text-anchor="middle" x="45.5" y="-196.62" font-family="Helvetica,sans-Serif" font-size="10.00">func_8008F778</text>
</a>
</g>
</g>
<!-- Node2 -->
<g id="Node000002" class="node">
<title>Node2</title>
<g id="a_Node000002"><a xlink:href="code__8008C1D0_8c.html#a5cdc06d2091fc6d20759448c40b17d54" target="_top" xlink:title=" ">
<polygon fill="white" stroke="#666666" points="219,-487.62 127,-487.62 127,-468.62 219,-468.62 219,-487.62"/>
<text text-anchor="middle" x="173" y="-475.62" font-family="Helvetica,sans-Serif" font-size="10.00">func_8008C354</text>
</a>
</g>
</g>
<!-- Node1&#45;&gt;Node2 -->
<g id="edge1_Node000001_Node000002" class="edge">
<title>Node1&#45;&gt;Node2</title>
<g id="a_edge1_Node000001_Node000002"><a xlink:title=" ">
<path fill="none" stroke="#63b8ff" d="M50.82,-208.72C68.96,-249.05 139.16,-405.11 163.57,-459.39"/>
<polygon fill="#63b8ff" stroke="#63b8ff" points="160.4,-460.87 167.7,-468.55 166.79,-458 160.4,-460.87"/>
</a>
</g>
</g>
<!-- Node21 -->
<g id="Node000021" class="node">
<title>Node21</title>
<g id="a_Node000021"><a xlink:href="external_8c.html#aac0d64d382e8e46860f0f987899ecdf0" target="_top" xlink:title=" ">
<polygon fill="white" stroke="#666666" points="477,-114.62 384,-114.62 384,-95.62 477,-95.62 477,-114.62"/>
<text text-anchor="middle" x="430.5" y="-102.62" font-family="Helvetica,sans-Serif" font-size="10.00">func_800CA59C</text>
</a>
</g>
</g>
<!-- Node1&#45;&gt;Node21 -->
<g id="edge20_Node000001_Node000021" class="edge">
<title>Node1&#45;&gt;Node21</title>
<g id="a_edge20_Node000001_Node000021"><a xlink:title=" ">
<path fill="none" stroke="#63b8ff" d="M85.33,-189.59C155.59,-172.34 303.63,-136.01 380.64,-117.11"/>
<polygon fill="#63b8ff" stroke="#63b8ff" points="381.69,-120.46 390.57,-114.67 380.02,-113.66 381.69,-120.46"/>
</a>
</g>
</g>
<!-- Node27 -->
<g id="Node000027" class="node">
<title>Node27</title>
<g id="a_Node000027"><a xlink:href="external_8c.html#ac0dc5429ad9f1e8931403f4a1984423f" target="_top" xlink:title=" ">
<polygon fill="white" stroke="#666666" points="219,-208.62 127,-208.62 127,-189.62 219,-189.62 219,-208.62"/>
<text text-anchor="middle" x="173" y="-196.62" font-family="Helvetica,sans-Serif" font-size="10.00">func_800CA984</text>
</a>
</g>
</g>
<!-- Node1&#45;&gt;Node27 -->
<g id="edge29_Node000001_Node000027" class="edge">
<title>Node1&#45;&gt;Node27</title>
<g id="a_edge29_Node000001_Node000027"><a xlink:title=" ">
<path fill="none" stroke="#63b8ff" d="M91.1,-199.12C99.31,-199.12 107.98,-199.12 116.47,-199.12"/>
<polygon fill="#63b8ff" stroke="#63b8ff" points="116.7,-202.62 126.7,-199.12 116.7,-195.62 116.7,-202.62"/>
</a>
</g>
</g>
<!-- Node3 -->
<g id="Node000003" class="node">
<title>Node3</title>
<g id="a_Node000003"><a xlink:href="code__8008C1D0_8c.html#ad164a912d7ef76f24e7b5cfb9169c16f" target="_top" xlink:title=" ">
<polygon fill="white" stroke="#666666" points="348,-672.62 255,-672.62 255,-653.62 348,-653.62 348,-672.62"/>
<text text-anchor="middle" x="301.5" y="-660.62" font-family="Helvetica,sans-Serif" font-size="10.00">func_8008C6D0</text>
</a>
</g>
</g>
<!-- Node2&#45;&gt;Node3 -->
<g id="edge2_Node000002_Node000003" class="edge">
<title>Node2&#45;&gt;Node3</title>
<g id="a_edge2_Node000002_Node000003"><a xlink:title=" ">
<path fill="none" stroke="#63b8ff" d="M176.1,-487.9C182.67,-516.2 205.39,-599.09 255,-645.12 256.13,-646.16 257.33,-647.15 258.58,-648.09"/>
<polygon fill="#63b8ff" stroke="#63b8ff" points="257.07,-651.27 267.43,-653.48 260.71,-645.29 257.07,-651.27"/>
</a>
</g>
</g>
<!-- Node4 -->
<g id="Node000004" class="node">
<title>Node4</title>
<g id="a_Node000004"><a xlink:href="code__8008C1D0_8c.html#a105203221e314be241a95e006b62ef80" target="_top" xlink:title=" ">
<polygon fill="white" stroke="#666666" points="347.5,-635.62 255.5,-635.62 255.5,-616.62 347.5,-616.62 347.5,-635.62"/>
<text text-anchor="middle" x="301.5" y="-623.62" font-family="Helvetica,sans-Serif" font-size="10.00">func_8008C8C4</text>
</a>
</g>
</g>
<!-- Node2&#45;&gt;Node4 -->
<g id="edge3_Node000002_Node000004" class="edge">
<title>Node2&#45;&gt;Node4</title>
<g id="a_edge3_Node000002_Node000004"><a xlink:title=" ">
<path fill="none" stroke="#63b8ff" d="M177.51,-487.73C186.64,-511.45 213.34,-573.37 255,-608.12 256.52,-609.38 258.13,-610.57 259.82,-611.67"/>
<polygon fill="#63b8ff" stroke="#63b8ff" points="258.24,-614.8 268.68,-616.58 261.63,-608.68 258.24,-614.8"/>
</a>
</g>
</g>
<!-- Node5 -->
<g id="Node000005" class="node">
<title>Node5</title>
<g id="a_Node000005"><a xlink:href="code__8008C1D0_8c.html#acab450a6af6eca812ad3987a292a5165" target="_top" xlink:title=" ">
<polygon fill="white" stroke="#666666" points="347.5,-598.62 255.5,-598.62 255.5,-579.62 347.5,-579.62 347.5,-598.62"/>
<text text-anchor="middle" x="301.5" y="-586.62" font-family="Helvetica,sans-Serif" font-size="10.00">func_8008D0E4</text>
</a>
</g>
</g>
<!-- Node2&#45;&gt;Node5 -->
<g id="edge4_Node000002_Node000005" class="edge">
<title>Node2&#45;&gt;Node5</title>
<g id="a_edge4_Node000002_Node000005"><a xlink:title=" ">
<path fill="none" stroke="#63b8ff" d="M179.98,-487.62C192.06,-506.09 221.08,-547.13 255,-571.12 256.86,-572.43 258.83,-573.67 260.86,-574.83"/>
<polygon fill="#63b8ff" stroke="#63b8ff" points="259.57,-578.1 270.08,-579.44 262.7,-571.83 259.57,-578.1"/>
</a>
</g>
</g>
<!-- Node6 -->
<g id="Node000006" class="node">
<title>Node6</title>
<g id="a_Node000006"><a xlink:href="code__8008C1D0_8c.html#a663cb8df8b606cf00e361977c9d6d834" target="_top" xlink:title=" ">
<polygon fill="white" stroke="#666666" points="348,-561.62 255,-561.62 255,-542.62 348,-542.62 348,-561.62"/>
<text text-anchor="middle" x="301.5" y="-549.62" font-family="Helvetica,sans-Serif" font-size="10.00">func_8008D3B0</text>
</a>
</g>
</g>
<!-- Node2&#45;&gt;Node6 -->
<g id="edge5_Node000002_Node000006" class="edge">
<title>Node2&#45;&gt;Node6</title>
<g id="a_edge5_Node000002_Node000006"><a xlink:title=" ">
<path fill="none" stroke="#63b8ff" d="M186.06,-487.77C201.42,-499.74 229.07,-520.26 255,-534.12 257.85,-535.64 260.85,-537.1 263.9,-538.5"/>
<polygon fill="#63b8ff" stroke="#63b8ff" points="262.52,-541.72 273.09,-542.45 265.29,-535.28 262.52,-541.72"/>
</a>
</g>
</g>
<!-- Node7 -->
<g id="Node000007" class="node">
<title>Node7</title>
<g id="a_Node000007"><a xlink:href="code__8008C1D0_8c.html#ae7bb91110e710a8f32fcd4c56c56f934" target="_top" xlink:title=" ">
<polygon fill="white" stroke="#666666" points="347.5,-524.62 255.5,-524.62 255.5,-505.62 347.5,-505.62 347.5,-524.62"/>
<text text-anchor="middle" x="301.5" y="-512.62" font-family="Helvetica,sans-Serif" font-size="10.00">func_8008D554</text>
</a>
</g>
</g>
<!-- Node2&#45;&gt;Node7 -->
<g id="edge6_Node000002_Node000007" class="edge">
<title>Node2&#45;&gt;Node7</title>
<g id="a_edge6_Node000002_Node000007"><a xlink:title=" ">
<path fill="none" stroke="#63b8ff" d="M206.58,-487.65C222.1,-492.18 240.87,-497.67 257.53,-502.55"/>
<polygon fill="#63b8ff" stroke="#63b8ff" points="257.01,-506.04 267.59,-505.49 258.98,-499.33 257.01,-506.04"/>
</a>
</g>
</g>
<!-- Node8 -->
<g id="Node000008" class="node">
<title>Node8</title>
<g id="a_Node000008"><a xlink:href="code__8008C1D0_8c.html#a5f19eaaa048055d292d02c717e635786" target="_top" xlink:title=" ">
<polygon fill="white" stroke="#666666" points="347.5,-487.62 255.5,-487.62 255.5,-468.62 347.5,-468.62 347.5,-487.62"/>
<text text-anchor="middle" x="301.5" y="-475.62" font-family="Helvetica,sans-Serif" font-size="10.00">func_8008D760</text>
</a>
</g>
</g>
<!-- Node2&#45;&gt;Node8 -->
<g id="edge7_Node000002_Node000008" class="edge">
<title>Node2&#45;&gt;Node8</title>
<g id="a_edge7_Node000002_Node000008"><a xlink:title=" ">
<path fill="none" stroke="#63b8ff" d="M219.31,-478.12C227.58,-478.12 236.29,-478.12 244.81,-478.12"/>
<polygon fill="#63b8ff" stroke="#63b8ff" points="245.08,-481.62 255.08,-478.12 245.08,-474.62 245.08,-481.62"/>
</a>
</g>
</g>
<!-- Node9 -->
<g id="Node000009" class="node">
<title>Node9</title>
<g id="a_Node000009"><a xlink:href="code__8008C1D0_8c.html#a4ea2da0616ee3c475e4be217dc0bc71f" target="_top" xlink:title=" ">
<polygon fill="white" stroke="#666666" points="348,-450.62 255,-450.62 255,-431.62 348,-431.62 348,-450.62"/>
<text text-anchor="middle" x="301.5" y="-438.62" font-family="Helvetica,sans-Serif" font-size="10.00">func_8008D97C</text>
</a>
</g>
</g>
<!-- Node2&#45;&gt;Node9 -->
<g id="edge8_Node000002_Node000009" class="edge">
<title>Node2&#45;&gt;Node9</title>
<g id="a_edge8_Node000002_Node000009"><a xlink:title=" ">
<path fill="none" stroke="#63b8ff" d="M206.58,-468.59C222.1,-464.05 240.87,-458.56 257.53,-453.68"/>
<polygon fill="#63b8ff" stroke="#63b8ff" points="258.98,-456.91 267.59,-450.74 257.01,-450.19 258.98,-456.91"/>
</a>
</g>
</g>
<!-- Node10 -->
<g id="Node000010" class="node">
<title>Node10</title>
<g id="a_Node000010"><a xlink:href="code__8008C1D0_8c.html#a4a437d6caeeaa794bcce43ec60c097e9" target="_top" xlink:title=" ">
<polygon fill="white" stroke="#666666" points="347,-413.62 256,-413.62 256,-394.62 347,-394.62 347,-413.62"/>
<text text-anchor="middle" x="301.5" y="-401.62" font-family="Helvetica,sans-Serif" font-size="10.00">func_8008E884</text>
</a>
</g>
</g>
<!-- Node2&#45;&gt;Node10 -->
<g id="edge9_Node000002_Node000010" class="edge">
<title>Node2&#45;&gt;Node10</title>
<g id="a_edge9_Node000002_Node000010"><a xlink:title=" ">
<path fill="none" stroke="#63b8ff" d="M186.4,-468.53C201.88,-456.84 229.44,-436.95 255,-423.12 258.46,-421.25 262.14,-419.43 265.86,-417.72"/>
<polygon fill="#63b8ff" stroke="#63b8ff" points="267.3,-420.91 275.05,-413.69 264.48,-414.5 267.3,-420.91"/>
</a>
</g>
</g>
<!-- Node11 -->
<g id="Node000011" class="node">
<title>Node11</title>
<g id="a_Node000011"><a xlink:href="code__8008C1D0_8c.html#a4e2c6d0ba50b7c13695f74f1c2bc7b18" target="_top" xlink:title=" ">
<polygon fill="white" stroke="#666666" points="347.5,-376.62 255.5,-376.62 255.5,-357.62 347.5,-357.62 347.5,-376.62"/>
<text text-anchor="middle" x="301.5" y="-364.62" font-family="Helvetica,sans-Serif" font-size="10.00">func_8008EC34</text>
</a>
</g>
</g>
<!-- Node2&#45;&gt;Node11 -->
<g id="edge10_Node000002_Node000011" class="edge">
<title>Node2&#45;&gt;Node11</title>
<g id="a_edge10_Node000002_Node000011"><a xlink:title=" ">
<path fill="none" stroke="#63b8ff" d="M180.24,-468.49C192.54,-450.19 221.63,-410.06 255,-386.12 257.49,-384.33 260.18,-382.67 262.96,-381.14"/>
<polygon fill="#63b8ff" stroke="#63b8ff" points="264.59,-384.23 272.01,-376.67 261.5,-377.95 264.59,-384.23"/>
</a>
</g>
</g>
<!-- Node12 -->
<g id="Node000012" class="node">
<title>Node12</title>
<g id="a_Node000012"><a xlink:href="code__8008C1D0_8c.html#ae48f5d9507d1966754bc1aa1bddc4136" target="_top" xlink:title=" ">
<polygon fill="white" stroke="#666666" points="347.5,-339.62 255.5,-339.62 255.5,-320.62 347.5,-320.62 347.5,-339.62"/>
<text text-anchor="middle" x="301.5" y="-327.62" font-family="Helvetica,sans-Serif" font-size="10.00">func_8008EEC4</text>
</a>
</g>
</g>
<!-- Node2&#45;&gt;Node12 -->
<g id="edge11_Node000002_Node000012" class="edge">
<title>Node2&#45;&gt;Node12</title>
<g id="a_edge11_Node000002_Node000012"><a xlink:title=" ">
<path fill="none" stroke="#63b8ff" d="M177.71,-468.28C187.11,-444.6 214.04,-383.82 255,-349.12 256.94,-347.47 259.05,-345.95 261.25,-344.55"/>
<polygon fill="#63b8ff" stroke="#63b8ff" points="263.01,-347.58 270.11,-339.72 259.66,-341.43 263.01,-347.58"/>
</a>
</g>
</g>
<!-- Node13 -->
<g id="Node000013" class="node">
<title>Node13</title>
<g id="a_Node000013"><a xlink:href="code__8008C1D0_8c.html#a77e26f2cff6381f9ba1575f8da060571" target="_top" xlink:title=" ">
<polygon fill="white" stroke="#666666" points="347,-302.62 256,-302.62 256,-283.62 347,-283.62 347,-302.62"/>
<text text-anchor="middle" x="301.5" y="-290.62" font-family="Helvetica,sans-Serif" font-size="10.00">func_8008F0E8</text>
</a>
</g>
</g>
<!-- Node2&#45;&gt;Node13 -->
<g id="edge12_Node000002_Node000013" class="edge">
<title>Node2&#45;&gt;Node13</title>
<g id="a_edge12_Node000002_Node000013"><a xlink:title=" ">
<path fill="none" stroke="#63b8ff" d="M176.16,-468.44C182.89,-440.43 206.01,-358.32 255,-312.12 256.49,-310.71 258.11,-309.39 259.81,-308.17"/>
<polygon fill="#63b8ff" stroke="#63b8ff" points="262.03,-310.92 268.83,-302.8 258.45,-304.91 262.03,-310.92"/>
</a>
</g>
</g>
<!-- Node14 -->
<g id="Node000014" class="node">
<title>Node14</title>
<g id="a_Node000014"><a xlink:href="code__8008C1D0_8c.html#ae02351b6bbb678b552ec8864b47fc56c" target="_top" xlink:title=" ">
<polygon fill="white" stroke="#666666" points="347,-746.62 256,-746.62 256,-727.62 347,-727.62 347,-746.62"/>
<text text-anchor="middle" x="301.5" y="-734.62" font-family="Helvetica,sans-Serif" font-size="10.00">func_8008F3E0</text>
</a>
</g>
</g>
<!-- Node2&#45;&gt;Node14 -->
<g id="edge13_Node000002_Node000014" class="edge">
<title>Node2&#45;&gt;Node14</title>
<g id="a_edge13_Node000002_Node000014"><a xlink:title=" ">
<path fill="none" stroke="#63b8ff" d="M174.45,-487.86C176.6,-523.63 188.77,-649.31 255,-719.12 255.89,-720.05 256.83,-720.94 257.82,-721.78"/>
<polygon fill="#63b8ff" stroke="#63b8ff" points="255.87,-724.69 266.12,-727.4 259.8,-718.9 255.87,-724.69"/>
</a>
</g>
</g>
<!-- Node15 -->
<g id="Node000015" class="node">
<title>Node15</title>
<g id="a_Node000015"><a xlink:href="code__8008C1D0_8c.html#afcf39ca15166fb7561402462930cd979" target="_top" xlink:title=" ">
<polygon fill="white" stroke="#666666" points="347.5,-265.62 255.5,-265.62 255.5,-246.62 347.5,-246.62 347.5,-265.62"/>
<text text-anchor="middle" x="301.5" y="-253.62" font-family="Helvetica,sans-Serif" font-size="10.00">func_8008F5A4</text>
</a>
</g>
</g>
<!-- Node2&#45;&gt;Node15 -->
<g id="edge14_Node000002_Node000015" class="edge">
<title>Node2&#45;&gt;Node15</title>
<g id="a_edge14_Node000002_Node000015"><a xlink:title=" ">
<path fill="none" stroke="#63b8ff" d="M175.23,-468.19C179.71,-435.96 198.04,-332.99 255,-275.12 256.4,-273.7 257.91,-272.38 259.52,-271.16"/>
<polygon fill="#63b8ff" stroke="#63b8ff" points="261.49,-274.05 268.13,-265.8 257.79,-268.11 261.49,-274.05"/>
</a>
</g>
</g>
<!-- Node20 -->
<g id="Node000020" class="node">
<title>Node20</title>
<g id="a_Node000020"><a xlink:href="code__8008C1D0_8c.html#ab6d84742231847170dd64267f0519cdf" target="_top" xlink:title=" ">
<polygon fill="white" stroke="#666666" points="348,-709.62 255,-709.62 255,-690.62 348,-690.62 348,-709.62"/>
<text text-anchor="middle" x="301.5" y="-697.62" font-family="Helvetica,sans-Serif" font-size="10.00">func_8008FEDC</text>
</a>
</g>
</g>
<!-- Node2&#45;&gt;Node20 -->
<g id="edge19_Node000002_Node000020" class="edge">
<title>Node2&#45;&gt;Node20</title>
<g id="a_edge19_Node000002_Node000020"><a xlink:title=" ">
<path fill="none" stroke="#63b8ff" d="M175.11,-487.68C179.3,-519.68 197.03,-624.22 255,-682.12 255.95,-683.06 256.95,-683.96 258,-684.81"/>
<polygon fill="#63b8ff" stroke="#63b8ff" points="256.45,-687.98 266.74,-690.48 260.25,-682.1 256.45,-687.98"/>
</a>
</g>
</g>
<!-- Node16 -->
<g id="Node000016" class="node">
<title>Node16</title>
<g id="a_Node000016"><a xlink:href="code__80057C60_8c.html#a0a55fae21abd30d3c618adef1a9f3ccd" target="_top" xlink:title=" ">
<polygon fill="white" stroke="#666666" points="476.5,-265.62 384.5,-265.62 384.5,-246.62 476.5,-246.62 476.5,-265.62"/>
<text text-anchor="middle" x="430.5" y="-253.62" font-family="Helvetica,sans-Serif" font-size="10.00">func_8006B8B4</text>
</a>
</g>
</g>
<!-- Node15&#45;&gt;Node16 -->
<g id="edge15_Node000015_Node000016" class="edge">
<title>Node15&#45;&gt;Node16</title>
<g id="a_edge15_Node000015_Node000016"><a xlink:title=" ">
<path fill="none" stroke="#63b8ff" d="M347.63,-256.12C356.14,-256.12 365.13,-256.12 373.91,-256.12"/>
<polygon fill="#63b8ff" stroke="#63b8ff" points="374.08,-259.62 384.08,-256.12 374.08,-252.62 374.08,-259.62"/>
</a>
</g>
</g>
<!-- Node17 -->
<g id="Node000017" class="node">
<title>Node17</title>
<g id="a_Node000017"><a xlink:href="code__8008C1D0_8c.html#a1c7552c4a370cc015c2726e40f1fdb06" target="_top" xlink:title=" ">
<polygon fill="white" stroke="#666666" points="606,-302.62 513,-302.62 513,-283.62 606,-283.62 606,-302.62"/>
<text text-anchor="middle" x="559.5" y="-290.62" font-family="Helvetica,sans-Serif" font-size="10.00">func_8008FD4C</text>
</a>
</g>
</g>
<!-- Node16&#45;&gt;Node17 -->
<g id="edge16_Node000016_Node000017" class="edge">
<title>Node16&#45;&gt;Node17</title>
<g id="a_edge16_Node000016_Node000017"><a xlink:title=" ">
<path fill="none" stroke="#63b8ff" d="M464.21,-265.65C479.93,-270.23 498.99,-275.78 515.84,-280.69"/>
<polygon fill="#63b8ff" stroke="#63b8ff" points="514.88,-284.06 525.46,-283.49 516.84,-277.33 514.88,-284.06"/>
</a>
</g>
</g>
<!-- Node18 -->
<g id="Node000018" class="node">
<title>Node18</title>
<g id="a_Node000018"><a xlink:href="external_8c.html#a517352d45a01341217ab2c073b3b223f" target="_top" xlink:title=" ">
<polygon fill="white" stroke="#666666" points="605.5,-265.62 513.5,-265.62 513.5,-246.62 605.5,-246.62 605.5,-265.62"/>
<text text-anchor="middle" x="559.5" y="-253.62" font-family="Helvetica,sans-Serif" font-size="10.00">func_800C9060</text>
</a>
</g>
</g>
<!-- Node16&#45;&gt;Node18 -->
<g id="edge17_Node000016_Node000018" class="edge">
<title>Node16&#45;&gt;Node18</title>
<g id="a_edge17_Node000016_Node000018"><a xlink:title=" ">
<path fill="none" stroke="#63b8ff" d="M476.63,-256.12C485.14,-256.12 494.13,-256.12 502.91,-256.12"/>
<polygon fill="#63b8ff" stroke="#63b8ff" points="503.08,-259.62 513.08,-256.12 503.08,-252.62 503.08,-259.62"/>
</a>
</g>
</g>
<!-- Node19 -->
<g id="Node000019" class="node">
<title>Node19</title>
<g id="a_Node000019"><a xlink:href="external_8c.html#a62e16f9600e7e9beda2c9d2df10f3561" target="_top" xlink:title=" ">
<polygon fill="white" stroke="#666666" points="724,-189.62 652,-189.62 652,-170.62 724,-170.62 724,-189.62"/>
<text text-anchor="middle" x="688" y="-177.62" font-family="Helvetica,sans-Serif" font-size="10.00">play_sound</text>
</a>
</g>
</g>
<!-- Node18&#45;&gt;Node19 -->
<g id="edge18_Node000018_Node000019" class="edge">
<title>Node18&#45;&gt;Node19</title>
<g id="a_edge18_Node000018_Node000019"><a xlink:title=" ">
<path fill="none" stroke="#63b8ff" d="M579.74,-246.43C587.92,-242.19 597.51,-237.07 606,-232.12 626.03,-220.43 648.15,-206.14 664.2,-195.49"/>
<polygon fill="#63b8ff" stroke="#63b8ff" points="666.51,-198.16 672.89,-189.7 662.63,-192.33 666.51,-198.16"/>
</a>
</g>
</g>
<!-- Node21&#45;&gt;Node19 -->
<g id="edge28_Node000021_Node000019" class="edge">
<title>Node21&#45;&gt;Node19</title>
<g id="a_edge28_Node000021_Node000019"><a xlink:title=" ">
<path fill="none" stroke="#63b8ff" d="M477,-104.02C513.06,-104.56 564.17,-108.53 606,-124.12 629.79,-132.98 653.24,-150.41 668.73,-163.48"/>
<polygon fill="#63b8ff" stroke="#63b8ff" points="666.63,-166.29 676.47,-170.21 671.22,-161 666.63,-166.29"/>
</a>
</g>
</g>
<!-- Node22 -->
<g id="Node000022" class="node">
<title>Node22</title>
<g id="a_Node000022"><a xlink:href="external_8c.html#ac48b7cbfcaa7737f892877ead85e4ba7" target="_top" xlink:title=" ">
<polygon fill="white" stroke="#666666" points="734,-39.62 642,-39.62 642,-20.62 734,-20.62 734,-39.62"/>
<text text-anchor="middle" x="688" y="-27.62" font-family="Helvetica,sans-Serif" font-size="10.00">func_800C3448</text>
</a>
</g>
</g>
<!-- Node21&#45;&gt;Node22 -->
<g id="edge21_Node000021_Node000022" class="edge">
<title>Node21&#45;&gt;Node22</title>
<g id="a_edge21_Node000021_Node000022"><a xlink:title=" ">
<path fill="none" stroke="#63b8ff" d="M436.16,-95.56C446.62,-75.4 474.1,-28.88 513,-11.12 558.99,9.88 618.69,-4.44 654.85,-17.04"/>
<polygon fill="#63b8ff" stroke="#63b8ff" points="653.81,-20.38 664.4,-20.51 656.2,-13.8 653.81,-20.38"/>
</a>
</g>
</g>
<!-- Node23 -->
<g id="Node000023" class="node">
<title>Node23</title>
<g id="a_Node000023"><a xlink:href="external_8c.html#ab2ecda68e1fb6f957aafd4c5742e2f63" target="_top" xlink:title=" ">
<polygon fill="white" stroke="#666666" points="605.5,-39.62 513.5,-39.62 513.5,-20.62 605.5,-20.62 605.5,-39.62"/>
<text text-anchor="middle" x="559.5" y="-27.62" font-family="Helvetica,sans-Serif" font-size="10.00">func_800C3508</text>
</a>
</g>
</g>
<!-- Node21&#45;&gt;Node23 -->
<g id="edge22_Node000021_Node000023" class="edge">
<title>Node21&#45;&gt;Node23</title>
<g id="a_edge22_Node000021_Node000023"><a xlink:title=" ">
<path fill="none" stroke="#63b8ff" d="M443.35,-95.49C458.72,-83.32 486.69,-62.27 513,-48.12 515.84,-46.59 518.84,-45.12 521.89,-43.72"/>
<polygon fill="#63b8ff" stroke="#63b8ff" points="523.28,-46.93 531.08,-39.76 520.51,-40.5 523.28,-46.93"/>
</a>
</g>
</g>
<!-- Node24 -->
<g id="Node000024" class="node">
<title>Node24</title>
<g id="a_Node000024"><a xlink:href="external_8c.html#a2aea7abf056e029f247b18edb62aa218" target="_top" xlink:title=" ">
<polygon fill="white" stroke="#666666" points="605.5,-189.62 513.5,-189.62 513.5,-170.62 605.5,-170.62 605.5,-189.62"/>
<text text-anchor="middle" x="559.5" y="-177.62" font-family="Helvetica,sans-Serif" font-size="10.00">func_800C357C</text>
</a>
</g>
</g>
<!-- Node21&#45;&gt;Node24 -->
<g id="edge23_Node000021_Node000024" class="edge">
<title>Node21&#45;&gt;Node24</title>
<g id="a_edge23_Node000021_Node000024"><a xlink:title=" ">
<path fill="none" stroke="#63b8ff" d="M443.69,-114.69C459.19,-126.57 487.07,-146.99 513,-161.12 516.45,-163 520.13,-164.82 523.84,-166.53"/>
<polygon fill="#63b8ff" stroke="#63b8ff" points="522.47,-169.75 533.03,-170.57 525.29,-163.34 522.47,-169.75"/>
</a>
</g>
</g>
<!-- Node25 -->
<g id="Node000025" class="node">
<title>Node25</title>
<g id="a_Node000025"><a xlink:href="external_8c.html#abe95a0078365cac07b3648b4a92dca8e" target="_top" xlink:title=" ">
<polygon fill="white" stroke="#666666" points="605.5,-76.62 513.5,-76.62 513.5,-57.62 605.5,-57.62 605.5,-76.62"/>
<text text-anchor="middle" x="559.5" y="-64.62" font-family="Helvetica,sans-Serif" font-size="10.00">func_800C8EF8</text>
</a>
</g>
</g>
<!-- Node21&#45;&gt;Node25 -->
<g id="edge24_Node000021_Node000025" class="edge">
<title>Node21&#45;&gt;Node25</title>
<g id="a_edge24_Node000021_Node000025"><a xlink:title=" ">
<path fill="none" stroke="#63b8ff" d="M463.55,-95.53C479.64,-90.71 499.34,-84.82 516.62,-79.65"/>
<polygon fill="#63b8ff" stroke="#63b8ff" points="517.89,-82.92 526.46,-76.7 515.88,-76.22 517.89,-82.92"/>
</a>
</g>
</g>
<!-- Node26 -->
<g id="Node000026" class="node">
<title>Node26</title>
<g id="a_Node000026"><a xlink:href="external_8c.html#a2b65c4d6ed9dd00129edf89393b589ed" target="_top" xlink:title=" ">
<polygon fill="white" stroke="#666666" points="605.5,-152.62 513.5,-152.62 513.5,-133.62 605.5,-133.62 605.5,-152.62"/>
<text text-anchor="middle" x="559.5" y="-140.62" font-family="Helvetica,sans-Serif" font-size="10.00">func_800C8F80</text>
</a>
</g>
</g>
<!-- Node21&#45;&gt;Node26 -->
<g id="edge26_Node000021_Node000026" class="edge">
<title>Node21&#45;&gt;Node26</title>
<g id="a_edge26_Node000021_Node000026"><a xlink:title=" ">
<path fill="none" stroke="#63b8ff" d="M463.55,-114.71C479.64,-119.52 499.34,-125.42 516.62,-130.58"/>
<polygon fill="#63b8ff" stroke="#63b8ff" points="515.88,-134.02 526.46,-133.53 517.89,-127.31 515.88,-134.02"/>
</a>
</g>
</g>
<!-- Node25&#45;&gt;Node22 -->
<g id="edge25_Node000025_Node000022" class="edge">
<title>Node25&#45;&gt;Node22</title>
<g id="a_edge25_Node000025_Node000022"><a xlink:title=" ">
<path fill="none" stroke="#63b8ff" d="M593.08,-57.59C608.6,-53.05 627.37,-47.56 644.03,-42.68"/>
<polygon fill="#63b8ff" stroke="#63b8ff" points="645.48,-45.91 654.09,-39.74 643.51,-39.19 645.48,-45.91"/>
</a>
</g>
</g>
<!-- Node26&#45;&gt;Node19 -->
<g id="edge27_Node000026_Node000019" class="edge">
<title>Node26&#45;&gt;Node19</title>
<g id="a_edge27_Node000026_Node000019"><a xlink:title=" ">
<path fill="none" stroke="#63b8ff" d="M593.08,-152.65C608.6,-157.18 627.37,-162.67 644.03,-167.55"/>
<polygon fill="#63b8ff" stroke="#63b8ff" points="643.51,-171.04 654.09,-170.49 645.48,-164.33 643.51,-171.04"/>
</a>
</g>
</g>
<!-- Node27&#45;&gt;Node19 -->
<g id="edge31_Node000027_Node000019" class="edge">
<title>Node27&#45;&gt;Node19</title>
<g id="a_edge31_Node000027_Node000019"><a xlink:title=" ">
<path fill="none" stroke="#63b8ff" d="M219.29,-202.53C298.16,-207.71 465.75,-215.35 606,-199.12 618.55,-197.66 631.99,-194.98 644.24,-192.09"/>
<polygon fill="#63b8ff" stroke="#63b8ff" points="645.33,-195.42 654.2,-189.62 643.65,-188.63 645.33,-195.42"/>
</a>
</g>
</g>
<!-- Node28 -->
<g id="Node000028" class="node">
<title>Node28</title>
<g id="a_Node000028"><a xlink:href="external_8h.html#ae82eb9565bbd324f028121f490e7c9a7" target="_top" xlink:title=" ">
<polygon fill="white" stroke="#666666" points="347.5,-189.62 255.5,-189.62 255.5,-170.62 347.5,-170.62 347.5,-189.62"/>
<text text-anchor="middle" x="301.5" y="-177.62" font-family="Helvetica,sans-Serif" font-size="10.00">func_800C1C88</text>
</a>
</g>
</g>
<!-- Node27&#45;&gt;Node28 -->
<g id="edge30_Node000027_Node000028" class="edge">
<title>Node27&#45;&gt;Node28</title>
<g id="a_edge30_Node000027_Node000028"><a xlink:title=" ">
<path fill="none" stroke="#63b8ff" d="M219.31,-192.31C227.67,-191.06 236.48,-189.73 245.1,-188.44"/>
<polygon fill="#63b8ff" stroke="#63b8ff" points="245.71,-191.89 255.08,-186.94 244.67,-184.96 245.71,-191.89"/>
</a>
</g>
</g>
</g>
</svg>

<g id="navigator" transform="translate(0 0)" fill="#404254">
  <rect fill="#f2f5e9" fill-opacity="0.5" stroke="#606060" stroke-width=".5" x="0" y="0" width="60" height="60"/>
  <use id="zoomplus" xlink:href="#zoomPlus" x="17" y="9" onmousedown="handleZoom(evt,'in')"/>
  <use id="zoomminus" xlink:href="#zoomMin" x="42" y="9" onmousedown="handleZoom(evt,'out')"/>
  <use id="reset" xlink:href="#resetDef" x="30" y="36" onmousedown="handleReset()"/>
   <use id="arrowup" xlink:href="#arrowUp" x="0" y="0" onmousedown="handlePan(0,-1)"/>
  <use id="arrowright" xlink:href="#arrowRight" x="0" y="0" onmousedown="handlePan(1,0)"/>
  <use id="arrowdown" xlink:href="#arrowDown" x="0" y="0" onmousedown="handlePan(0,1)"/>
  <use id="arrowleft" xlink:href="#arrowLeft" x="0" y="0" onmousedown="handlePan(-1,0)"/>
</g>
<svg viewBox="0 0 15 15" width="100%" height="30px" preserveAspectRatio="xMaxYMin meet">
 <g id="arrow_out" transform="scale(0.3 0.3)">
  <a xlink:href="code__8008C1D0_8h_afc3de821be3b6d60039805f34dc61ff7_cgraph_org.svg" target="_base">
   <rect id="button" ry="5" rx="5" y="6" x="6" height="38" width="38"
        fill="#f2f5e9" fill-opacity="0.5" stroke="#606060" stroke-width="1.0"/>
   <path id="arrow"
     d="M 11.500037,31.436501 C 11.940474,20.09759 22.043105,11.32322 32.158766,21.979434 L 37.068811,17.246167 C 37.068811,17.246167 37.088388,32 37.088388,32 L 22.160133,31.978069 C 22.160133,31.978069 26.997745,27.140456 26.997745,27.140456 C 18.528582,18.264221 13.291696,25.230495 11.500037,31.436501 z"
     style="fill:#404040;"/>
  </a>
 </g>
</svg>

<style type='text/css'>
<![CDATA[
[data-mouse-over-selected='false'] { opacity: 0.7; }
[data-mouse-over-selected='true']  { opacity: 1.0; }
]]>
</style>
<script type="application/ecmascript"><![CDATA[
document.addEventListener('DOMContentLoaded', (event) => {
  highlightEdges();
  highlightAdjacentNodes();
});
]]></script>
</svg>
