<?xml version="1.0" encoding="UTF-8" standalone="no"?>
<!DOCTYPE svg PUBLIC "-//W3C//DTD SVG 1.1//EN"
 "http://www.w3.org/Graphics/SVG/1.1/DTD/svg11.dtd">
<!-- Generated by graphviz version 2.43.0 (0)
 -->
<!-- Title: func_8008C62C Pages: 1 -->
<!--zoomable 561 -->

<svg id="main" version="1.1" xmlns="http://www.w3.org/2000/svg" xmlns:xlink="http://www.w3.org/1999/xlink" xml:space="preserve" onload="init(evt)">
<style type="text/css"><![CDATA[
.node, .edge {opacity: 0.7;}
.node.selected, .edge.selected {opacity: 1;}
.edge:hover path { stroke: red; }
.edge:hover polygon { stroke: red; fill: red; }
]]></style>

<defs>
  <circle id="rim" cx="0" cy="0" r="7"/>
  <circle id="rim2" cx="0" cy="0" r="3.5"/>
  <g id="zoomPlus">
    <use xlink:href="#rim" fill="#404040"><set attributeName="fill" to="#808080" begin="zoomplus.mouseover" end="zoomplus.mouseout"/></use>
    <path d="M-4,0h8M0,-4v8" fill="none" stroke="white" stroke-width="1.5" pointer-events="none"/>
  </g>
  <g id="zoomMin">
    <use xlink:href="#rim" fill="#404040"><set attributeName="fill" to="#808080" begin="zoomminus.mouseover" end="zoomminus.mouseout"/></use>
    <path d="M-4,0h8" fill="none" stroke="white" stroke-width="1.5" pointer-events="none"/>
  </g>
  <g id="arrowUp" transform="translate(30 24)">
    <use xlink:href="#rim"/>
    <path pointer-events="none" fill="none" stroke="white" stroke-width="1.5" d="M0,-3.0v7 M-2.5,-0.5L0,-3.0L2.5,-0.5"/>
  </g>
  <g id="arrowRight" transform="rotate(90) translate(36 -43)">
    <use xlink:href="#rim"/>
    <path pointer-events="none" fill="none" stroke="white" stroke-width="1.5" d="M0,-3.0v7 M-2.5,-0.5L0,-3.0L2.5,-0.5"/>
  </g>
  <g id="arrowDown" transform="rotate(180) translate(-30 -48)">
    <use xlink:href="#rim"/>
    <path pointer-events="none" fill="none" stroke="white" stroke-width="1.5" d="M0,-3.0v7 M-2.5,-0.5L0,-3.0L2.5,-0.5"/>
  </g>
  <g id="arrowLeft" transform="rotate(270) translate(-36 17)">
    <use xlink:href="#rim"/>
    <path pointer-events="none" fill="none" stroke="white" stroke-width="1.5" d="M0,-3.0v7 M-2.5,-0.5L0,-3.0L2.5,-0.5"/>
  </g>
  <g id="resetDef">
    <use xlink:href="#rim2" fill="#404040"><set attributeName="fill" to="#808080" begin="reset.mouseover" end="reset.mouseout"/></use>
  </g>
</defs>
<script type="application/ecmascript">
var viewWidth = 1004;
var viewHeight = 561;
var sectionId = 'dynsection-10';
</script>
<script type="application/ecmascript" xlink:href="svg.min.js"/>
<svg id="graph" class="graph">
<g id="viewport">
<title>func_8008C62C</title>
<!-- Node1 -->
<g id="Node000001" class="node">
<title>Node1</title>
<g id="a_Node000001"><a xlink:title=" ">
<polygon fill="#999999" stroke="#666666" points="92,-49.54 0,-49.54 0,-30.54 92,-30.54 92,-49.54"/>
<text text-anchor="middle" x="46" y="-37.54" font-family="Helvetica,sans-Serif" font-size="10.00">func_8008C62C</text>
</a>
</g>
</g>
<!-- Node2 -->
<g id="Node000002" class="node">
<title>Node2</title>
<g id="a_Node000002"><a xlink:href="player__controller_8c.html#ac7a97dc1bb35fea10379d0fa68c83f3e" target="_top" xlink:title=" ">
<polygon fill="white" stroke="#666666" points="219,-160.54 128,-160.54 128,-141.54 219,-141.54 219,-160.54"/>
<text text-anchor="middle" x="173.5" y="-148.54" font-family="Helvetica,sans-Serif" font-size="10.00">func_80031F48</text>
</a>
</g>
</g>
<!-- Node1&#45;&gt;Node2 -->
<g id="edge1_Node000001_Node000002" class="edge">
<title>Node1&#45;&gt;Node2</title>
<g id="a_edge1_Node000001_Node000002"><a xlink:title=" ">
<path fill="none" stroke="#63b8ff" d="M58.14,-49.89C79.68,-68.95 127.27,-111.04 153.77,-134.47"/>
<polygon fill="#63b8ff" stroke="#63b8ff" points="151.76,-137.37 161.57,-141.37 156.4,-132.13 151.76,-137.37"/>
</a>
</g>
</g>
<!-- Node5 -->
<g id="Node000005" class="node">
<title>Node5</title>
<g id="a_Node000005"><a xlink:href="code__8008C1D0_8c.html#ad164a912d7ef76f24e7b5cfb9169c16f" target="_top" xlink:title=" ">
<polygon fill="white" stroke="#666666" points="631,-49.54 538,-49.54 538,-30.54 631,-30.54 631,-49.54"/>
<text text-anchor="middle" x="584.5" y="-37.54" font-family="Helvetica,sans-Serif" font-size="10.00">func_8008C6D0</text>
</a>
</g>
</g>
<!-- Node1&#45;&gt;Node5 -->
<g id="edge26_Node000001_Node000005" class="edge">
<title>Node1&#45;&gt;Node5</title>
<g id="a_edge26_Node000001_Node000005"><a xlink:title=" ">
<path fill="none" stroke="#63b8ff" d="M92.28,-40.04C190.07,-40.04 420.79,-40.04 527.53,-40.04"/>
<polygon fill="#63b8ff" stroke="#63b8ff" points="527.77,-43.54 537.77,-40.04 527.77,-36.54 527.77,-43.54"/>
</a>
</g>
</g>
<!-- Node18 -->
<g id="Node000018" class="node">
<title>Node18</title>
<g id="a_Node000018"><a xlink:href="code__80057C60_8c.html#a0a55fae21abd30d3c618adef1a9f3ccd" target="_top" xlink:title=" ">
<polygon fill="white" stroke="#666666" points="759,-86.54 667,-86.54 667,-67.54 759,-67.54 759,-86.54"/>
<text text-anchor="middle" x="713" y="-74.54" font-family="Helvetica,sans-Serif" font-size="10.00">func_8006B8B4</text>
</a>
</g>
</g>
<!-- Node1&#45;&gt;Node18 -->
<g id="edge25_Node000001_Node000018" class="edge">
<title>Node1&#45;&gt;Node18</title>
<g id="a_edge25_Node000001_Node000018"><a xlink:title=" ">
<path fill="none" stroke="#63b8ff" d="M88.29,-30.45C140.45,-19.2 233.12,-2.04 313.5,-2.04 313.5,-2.04 313.5,-2.04 457,-2.04 534.79,-2.04 558.11,6.13 631,-21.04 654.79,-29.91 678.23,-47.33 693.73,-60.4"/>
<polygon fill="#63b8ff" stroke="#63b8ff" points="691.63,-63.22 701.47,-67.13 696.22,-57.93 691.63,-63.22"/>
</a>
</g>
</g>
<!-- Node3 -->
<g id="Node000003" class="node">
<title>Node3</title>
<g id="a_Node000003"><a xlink:href="code__8008C1D0_8c.html#ae77e5662a7ef9f09c2e2150a36883d04" target="_top" xlink:title=" ">
<polygon fill="white" stroke="#666666" points="360,-289.54 269,-289.54 269,-270.54 360,-270.54 360,-289.54"/>
<text text-anchor="middle" x="314.5" y="-277.54" font-family="Helvetica,sans-Serif" font-size="10.00">func_8008F104</text>
</a>
</g>
</g>
<!-- Node2&#45;&gt;Node3 -->
<g id="edge2_Node000002_Node000003" class="edge">
<title>Node2&#45;&gt;Node3</title>
<g id="a_edge2_Node000002_Node000003"><a xlink:title=" ">
<path fill="none" stroke="#63b8ff" d="M184.95,-160.74C208.49,-182.59 265.94,-235.91 295.41,-263.26"/>
<polygon fill="#63b8ff" stroke="#63b8ff" points="293.22,-266 302.93,-270.23 297.98,-260.87 293.22,-266"/>
</a>
</g>
</g>
<!-- Node24 -->
<g id="Node000024" class="node">
<title>Node24</title>
<g id="a_Node000024"><a xlink:href="player__controller_8c.html#aafeb0470c7da44e1440ffa4848f7d500" target="_top" xlink:title=" ">
<polygon fill="white" stroke="#666666" points="374,-166.04 255,-166.04 255,-136.04 374,-136.04 374,-166.04"/>
<text text-anchor="start" x="263" y="-154.04" font-family="Helvetica,sans-Serif" font-size="10.00">get_player_index_for</text>
<text text-anchor="middle" x="314.5" y="-143.04" font-family="Helvetica,sans-Serif" font-size="10.00">_player</text>
</a>
</g>
</g>
<!-- Node2&#45;&gt;Node24 -->
<g id="edge24_Node000002_Node000024" class="edge">
<title>Node2&#45;&gt;Node24</title>
<g id="a_edge24_Node000002_Node000024"><a xlink:title=" ">
<path fill="none" stroke="#63b8ff" d="M219.25,-151.04C227.4,-151.04 236.08,-151.04 244.75,-151.04"/>
<polygon fill="#63b8ff" stroke="#63b8ff" points="244.88,-154.54 254.88,-151.04 244.88,-147.54 244.88,-154.54"/>
</a>
</g>
</g>
<!-- Node4 -->
<g id="Node000004" class="node">
<title>Node4</title>
<g id="a_Node000004"><a xlink:href="code__8008C1D0_8c.html#a5cdc06d2091fc6d20759448c40b17d54" target="_top" xlink:title=" ">
<polygon fill="white" stroke="#666666" points="502,-289.54 410,-289.54 410,-270.54 502,-270.54 502,-289.54"/>
<text text-anchor="middle" x="456" y="-277.54" font-family="Helvetica,sans-Serif" font-size="10.00">func_8008C354</text>
</a>
</g>
</g>
<!-- Node3&#45;&gt;Node4 -->
<g id="edge3_Node000003_Node000004" class="edge">
<title>Node3&#45;&gt;Node4</title>
<g id="a_edge3_Node000003_Node000004"><a xlink:title=" ">
<path fill="none" stroke="#63b8ff" d="M360.02,-280.04C372.61,-280.04 386.46,-280.04 399.6,-280.04"/>
<polygon fill="#63b8ff" stroke="#63b8ff" points="399.94,-283.54 409.94,-280.04 399.94,-276.54 399.94,-283.54"/>
</a>
</g>
</g>
<!-- Node23 -->
<g id="Node000023" class="node">
<title>Node23</title>
<g id="a_Node000023"><a xlink:href="external_8c.html#a1a1bdc0f5d3b6fd4a86b9d62e93a076e" target="_top" xlink:title=" ">
<polygon fill="white" stroke="#666666" points="759,-466.54 667,-466.54 667,-447.54 759,-447.54 759,-466.54"/>
<text text-anchor="middle" x="713" y="-454.54" font-family="Helvetica,sans-Serif" font-size="10.00">func_800C90F4</text>
</a>
</g>
</g>
<!-- Node3&#45;&gt;Node23 -->
<g id="edge22_Node000003_Node000023" class="edge">
<title>Node3&#45;&gt;Node23</title>
<g id="a_edge22_Node000003_Node000023"><a xlink:title=" ">
<path fill="none" stroke="#63b8ff" d="M319.89,-289.66C338.85,-329.87 418.2,-484.88 538,-540.04 575.55,-557.33 592.91,-556.09 631,-540.04 662.07,-526.95 687.16,-495.47 700.79,-475.26"/>
<polygon fill="#63b8ff" stroke="#63b8ff" points="703.88,-476.92 706.38,-466.62 698.01,-473.11 703.88,-476.92"/>
</a>
</g>
</g>
<!-- Node4&#45;&gt;Node5 -->
<g id="edge4_Node000004_Node000005" class="edge">
<title>Node4&#45;&gt;Node5</title>
<g id="a_edge4_Node000004_Node000005"><a xlink:title=" ">
<path fill="none" stroke="#63b8ff" d="M457.79,-270.13C461.02,-235.93 476.18,-121.54 538,-58.04 538.93,-57.08 539.92,-56.18 540.96,-55.31"/>
<polygon fill="#63b8ff" stroke="#63b8ff" points="543.22,-58.01 549.66,-49.59 539.38,-52.17 543.22,-58.01"/>
</a>
</g>
</g>
<!-- Node6 -->
<g id="Node000006" class="node">
<title>Node6</title>
<g id="a_Node000006"><a xlink:href="code__8008C1D0_8c.html#a105203221e314be241a95e006b62ef80" target="_top" xlink:title=" ">
<polygon fill="white" stroke="#666666" points="630.5,-456.54 538.5,-456.54 538.5,-437.54 630.5,-437.54 630.5,-456.54"/>
<text text-anchor="middle" x="584.5" y="-444.54" font-family="Helvetica,sans-Serif" font-size="10.00">func_8008C8C4</text>
</a>
</g>
</g>
<!-- Node4&#45;&gt;Node6 -->
<g id="edge5_Node000004_Node000006" class="edge">
<title>Node4&#45;&gt;Node6</title>
<g id="a_edge5_Node000004_Node000006"><a xlink:title=" ">
<path fill="none" stroke="#63b8ff" d="M459.75,-289.89C467.57,-316.16 492.37,-388.64 538,-429.04 539.31,-430.21 540.71,-431.3 542.16,-432.32"/>
<polygon fill="#63b8ff" stroke="#63b8ff" points="540.63,-435.48 551.04,-437.49 544.16,-429.43 540.63,-435.48"/>
</a>
</g>
</g>
<!-- Node7 -->
<g id="Node000007" class="node">
<title>Node7</title>
<g id="a_Node000007"><a xlink:href="code__8008C1D0_8c.html#acab450a6af6eca812ad3987a292a5165" target="_top" xlink:title=" ">
<polygon fill="white" stroke="#666666" points="630.5,-419.54 538.5,-419.54 538.5,-400.54 630.5,-400.54 630.5,-419.54"/>
<text text-anchor="middle" x="584.5" y="-407.54" font-family="Helvetica,sans-Serif" font-size="10.00">func_8008D0E4</text>
</a>
</g>
</g>
<!-- Node4&#45;&gt;Node7 -->
<g id="edge6_Node000004_Node000007" class="edge">
<title>Node4&#45;&gt;Node7</title>
<g id="a_edge6_Node000004_Node000007"><a xlink:title=" ">
<path fill="none" stroke="#63b8ff" d="M461.49,-289.55C471.98,-310.8 500.11,-362.59 538,-392.04 539.61,-393.29 541.32,-394.47 543.09,-395.57"/>
<polygon fill="#63b8ff" stroke="#63b8ff" points="541.88,-398.89 552.35,-400.49 545.16,-392.71 541.88,-398.89"/>
</a>
</g>
</g>
<!-- Node8 -->
<g id="Node000008" class="node">
<title>Node8</title>
<g id="a_Node000008"><a xlink:href="code__8008C1D0_8c.html#a663cb8df8b606cf00e361977c9d6d834" target="_top" xlink:title=" ">
<polygon fill="white" stroke="#666666" points="631,-382.54 538,-382.54 538,-363.54 631,-363.54 631,-382.54"/>
<text text-anchor="middle" x="584.5" y="-370.54" font-family="Helvetica,sans-Serif" font-size="10.00">func_8008D3B0</text>
</a>
</g>
</g>
<!-- Node4&#45;&gt;Node8 -->
<g id="edge7_Node000004_Node000008" class="edge">
<title>Node4&#45;&gt;Node8</title>
<g id="a_edge7_Node000004_Node000008"><a xlink:title=" ">
<path fill="none" stroke="#63b8ff" d="M465.54,-290.05C479.37,-305.73 508.16,-336.26 538,-355.04 540.28,-356.48 542.69,-357.83 545.17,-359.11"/>
<polygon fill="#63b8ff" stroke="#63b8ff" points="543.77,-362.32 554.32,-363.36 546.72,-355.97 543.77,-362.32"/>
</a>
</g>
</g>
<!-- Node9 -->
<g id="Node000009" class="node">
<title>Node9</title>
<g id="a_Node000009"><a xlink:href="code__8008C1D0_8c.html#ae7bb91110e710a8f32fcd4c56c56f934" target="_top" xlink:title=" ">
<polygon fill="white" stroke="#666666" points="630.5,-345.54 538.5,-345.54 538.5,-326.54 630.5,-326.54 630.5,-345.54"/>
<text text-anchor="middle" x="584.5" y="-333.54" font-family="Helvetica,sans-Serif" font-size="10.00">func_8008D554</text>
</a>
</g>
</g>
<!-- Node4&#45;&gt;Node9 -->
<g id="edge8_Node000004_Node000009" class="edge">
<title>Node4&#45;&gt;Node9</title>
<g id="a_edge8_Node000004_Node000009"><a xlink:title=" ">
<path fill="none" stroke="#63b8ff" d="M476.49,-289.6C492.8,-297.5 516.75,-308.87 538,-318.04 541.48,-319.55 545.13,-321.07 548.78,-322.57"/>
<polygon fill="#63b8ff" stroke="#63b8ff" points="547.77,-325.93 558.35,-326.42 550.38,-319.44 547.77,-325.93"/>
</a>
</g>
</g>
<!-- Node10 -->
<g id="Node000010" class="node">
<title>Node10</title>
<g id="a_Node000010"><a xlink:href="code__8008C1D0_8c.html#a5f19eaaa048055d292d02c717e635786" target="_top" xlink:title=" ">
<polygon fill="white" stroke="#666666" points="630.5,-308.54 538.5,-308.54 538.5,-289.54 630.5,-289.54 630.5,-308.54"/>
<text text-anchor="middle" x="584.5" y="-296.54" font-family="Helvetica,sans-Serif" font-size="10.00">func_8008D760</text>
</a>
</g>
</g>
<!-- Node4&#45;&gt;Node10 -->
<g id="edge9_Node000004_Node000010" class="edge">
<title>Node4&#45;&gt;Node10</title>
<g id="a_edge9_Node000004_Node000010"><a xlink:title=" ">
<path fill="none" stroke="#63b8ff" d="M502.31,-286.85C510.67,-288.1 519.48,-289.43 528.1,-290.72"/>
<polygon fill="#63b8ff" stroke="#63b8ff" points="527.67,-294.2 538.08,-292.22 528.71,-287.27 527.67,-294.2"/>
</a>
</g>
</g>
<!-- Node11 -->
<g id="Node000011" class="node">
<title>Node11</title>
<g id="a_Node000011"><a xlink:href="code__8008C1D0_8c.html#a4ea2da0616ee3c475e4be217dc0bc71f" target="_top" xlink:title=" ">
<polygon fill="white" stroke="#666666" points="631,-271.54 538,-271.54 538,-252.54 631,-252.54 631,-271.54"/>
<text text-anchor="middle" x="584.5" y="-259.54" font-family="Helvetica,sans-Serif" font-size="10.00">func_8008D97C</text>
</a>
</g>
</g>
<!-- Node4&#45;&gt;Node11 -->
<g id="edge10_Node000004_Node000011" class="edge">
<title>Node4&#45;&gt;Node11</title>
<g id="a_edge10_Node000004_Node000011"><a xlink:title=" ">
<path fill="none" stroke="#63b8ff" d="M502.31,-273.6C510.48,-272.43 519.08,-271.21 527.5,-270.01"/>
<polygon fill="#63b8ff" stroke="#63b8ff" points="528.25,-273.44 537.65,-268.57 527.26,-266.51 528.25,-273.44"/>
</a>
</g>
</g>
<!-- Node12 -->
<g id="Node000012" class="node">
<title>Node12</title>
<g id="a_Node000012"><a xlink:href="code__8008C1D0_8c.html#a4a437d6caeeaa794bcce43ec60c097e9" target="_top" xlink:title=" ">
<polygon fill="white" stroke="#666666" points="630,-234.54 539,-234.54 539,-215.54 630,-215.54 630,-234.54"/>
<text text-anchor="middle" x="584.5" y="-222.54" font-family="Helvetica,sans-Serif" font-size="10.00">func_8008E884</text>
</a>
</g>
</g>
<!-- Node4&#45;&gt;Node12 -->
<g id="edge11_Node000004_Node000012" class="edge">
<title>Node4&#45;&gt;Node12</title>
<g id="a_edge11_Node000004_Node000012"><a xlink:title=" ">
<path fill="none" stroke="#63b8ff" d="M478.26,-270.44C494.56,-263.11 517.65,-252.81 538,-244.04 542.18,-242.24 546.59,-240.37 550.95,-238.53"/>
<polygon fill="#63b8ff" stroke="#63b8ff" points="552.44,-241.7 560.31,-234.61 549.73,-235.25 552.44,-241.7"/>
</a>
</g>
</g>
<!-- Node13 -->
<g id="Node000013" class="node">
<title>Node13</title>
<g id="a_Node000013"><a xlink:href="code__8008C1D0_8c.html#a4e2c6d0ba50b7c13695f74f1c2bc7b18" target="_top" xlink:title=" ">
<polygon fill="white" stroke="#666666" points="630.5,-197.54 538.5,-197.54 538.5,-178.54 630.5,-178.54 630.5,-197.54"/>
<text text-anchor="middle" x="584.5" y="-185.54" font-family="Helvetica,sans-Serif" font-size="10.00">func_8008EC34</text>
</a>
</g>
</g>
<!-- Node4&#45;&gt;Node13 -->
<g id="edge12_Node000004_Node000013" class="edge">
<title>Node4&#45;&gt;Node13</title>
<g id="a_edge12_Node000004_Node000013"><a xlink:title=" ">
<path fill="none" stroke="#63b8ff" d="M465.63,-270.39C479.6,-255.24 508.57,-225.68 538,-207.04 540.82,-205.26 543.84,-203.57 546.93,-202"/>
<polygon fill="#63b8ff" stroke="#63b8ff" points="548.69,-205.04 556.28,-197.65 545.74,-198.7 548.69,-205.04"/>
</a>
</g>
</g>
<!-- Node14 -->
<g id="Node000014" class="node">
<title>Node14</title>
<g id="a_Node000014"><a xlink:href="code__8008C1D0_8c.html#ae48f5d9507d1966754bc1aa1bddc4136" target="_top" xlink:title=" ">
<polygon fill="white" stroke="#666666" points="630.5,-160.54 538.5,-160.54 538.5,-141.54 630.5,-141.54 630.5,-160.54"/>
<text text-anchor="middle" x="584.5" y="-148.54" font-family="Helvetica,sans-Serif" font-size="10.00">func_8008EEC4</text>
</a>
</g>
</g>
<!-- Node4&#45;&gt;Node14 -->
<g id="edge13_Node000004_Node000014" class="edge">
<title>Node4&#45;&gt;Node14</title>
<g id="a_edge13_Node000004_Node000014"><a xlink:title=" ">
<path fill="none" stroke="#63b8ff" d="M461.74,-270.45C472.53,-249.49 500.89,-199.2 538,-170.04 540.06,-168.42 542.28,-166.92 544.59,-165.53"/>
<polygon fill="#63b8ff" stroke="#63b8ff" points="546.58,-168.44 553.81,-160.7 543.33,-162.24 546.58,-168.44"/>
</a>
</g>
</g>
<!-- Node15 -->
<g id="Node000015" class="node">
<title>Node15</title>
<g id="a_Node000015"><a xlink:href="code__8008C1D0_8c.html#a77e26f2cff6381f9ba1575f8da060571" target="_top" xlink:title=" ">
<polygon fill="white" stroke="#666666" points="630,-123.54 539,-123.54 539,-104.54 630,-104.54 630,-123.54"/>
<text text-anchor="middle" x="584.5" y="-111.54" font-family="Helvetica,sans-Serif" font-size="10.00">func_8008F0E8</text>
</a>
</g>
</g>
<!-- Node4&#45;&gt;Node15 -->
<g id="edge14_Node000004_Node000015" class="edge">
<title>Node4&#45;&gt;Node15</title>
<g id="a_edge14_Node000004_Node000015"><a xlink:title=" ">
<path fill="none" stroke="#63b8ff" d="M459.83,-270.38C467.86,-244.58 493.11,-173.33 538,-133.04 539.71,-131.51 541.56,-130.09 543.5,-128.78"/>
<polygon fill="#63b8ff" stroke="#63b8ff" points="545.51,-131.66 552.46,-123.67 542.04,-125.58 545.51,-131.66"/>
</a>
</g>
</g>
<!-- Node16 -->
<g id="Node000016" class="node">
<title>Node16</title>
<g id="a_Node000016"><a xlink:href="code__8008C1D0_8c.html#ae02351b6bbb678b552ec8864b47fc56c" target="_top" xlink:title=" ">
<polygon fill="white" stroke="#666666" points="630,-530.54 539,-530.54 539,-511.54 630,-511.54 630,-530.54"/>
<text text-anchor="middle" x="584.5" y="-518.54" font-family="Helvetica,sans-Serif" font-size="10.00">func_8008F3E0</text>
</a>
</g>
</g>
<!-- Node4&#45;&gt;Node16 -->
<g id="edge15_Node000004_Node000016" class="edge">
<title>Node4&#45;&gt;Node16</title>
<g id="a_edge15_Node000004_Node000016"><a xlink:title=" ">
<path fill="none" stroke="#63b8ff" d="M457.77,-290C460.96,-324.35 475.98,-439.25 538,-503.04 538.93,-504 539.92,-504.91 540.96,-505.77"/>
<polygon fill="#63b8ff" stroke="#63b8ff" points="539.37,-508.92 549.65,-511.5 543.22,-503.07 539.37,-508.92"/>
</a>
</g>
</g>
<!-- Node17 -->
<g id="Node000017" class="node">
<title>Node17</title>
<g id="a_Node000017"><a xlink:href="code__8008C1D0_8c.html#afcf39ca15166fb7561402462930cd979" target="_top" xlink:title=" ">
<polygon fill="white" stroke="#666666" points="630.5,-86.54 538.5,-86.54 538.5,-67.54 630.5,-67.54 630.5,-86.54"/>
<text text-anchor="middle" x="584.5" y="-74.54" font-family="Helvetica,sans-Serif" font-size="10.00">func_8008F5A4</text>
</a>
</g>
</g>
<!-- Node4&#45;&gt;Node17 -->
<g id="edge16_Node000004_Node000017" class="edge">
<title>Node4&#45;&gt;Node17</title>
<g id="a_edge16_Node000004_Node000017"><a xlink:title=" ">
<path fill="none" stroke="#63b8ff" d="M458.54,-270.53C463.87,-240.53 484.25,-146.89 538,-95.04 539.11,-93.97 540.29,-92.97 541.52,-92.02"/>
<polygon fill="#63b8ff" stroke="#63b8ff" points="543.67,-94.8 550.31,-86.55 539.97,-88.86 543.67,-94.8"/>
</a>
</g>
</g>
<!-- Node22 -->
<g id="Node000022" class="node">
<title>Node22</title>
<g id="a_Node000022"><a xlink:href="code__8008C1D0_8c.html#ab6d84742231847170dd64267f0519cdf" target="_top" xlink:title=" ">
<polygon fill="white" stroke="#666666" points="631,-493.54 538,-493.54 538,-474.54 631,-474.54 631,-493.54"/>
<text text-anchor="middle" x="584.5" y="-481.54" font-family="Helvetica,sans-Serif" font-size="10.00">func_8008FEDC</text>
</a>
</g>
</g>
<!-- Node4&#45;&gt;Node22 -->
<g id="edge21_Node000004_Node000022" class="edge">
<title>Node4&#45;&gt;Node22</title>
<g id="a_edge21_Node000004_Node000022"><a xlink:title=" ">
<path fill="none" stroke="#63b8ff" d="M458.52,-289.61C463.8,-319.77 484.06,-413.91 538,-466.04 539.11,-467.11 540.29,-468.12 541.52,-469.07"/>
<polygon fill="#63b8ff" stroke="#63b8ff" points="539.97,-472.23 550.31,-474.54 543.67,-466.29 539.97,-472.23"/>
</a>
</g>
</g>
<!-- Node17&#45;&gt;Node18 -->
<g id="edge17_Node000017_Node000018" class="edge">
<title>Node17&#45;&gt;Node18</title>
<g id="a_edge17_Node000017_Node000018"><a xlink:title=" ">
<path fill="none" stroke="#63b8ff" d="M630.81,-77.04C639.08,-77.04 647.79,-77.04 656.31,-77.04"/>
<polygon fill="#63b8ff" stroke="#63b8ff" points="656.58,-80.54 666.58,-77.04 656.58,-73.54 656.58,-80.54"/>
</a>
</g>
</g>
<!-- Node19 -->
<g id="Node000019" class="node">
<title>Node19</title>
<g id="a_Node000019"><a xlink:href="code__8008C1D0_8c.html#a1c7552c4a370cc015c2726e40f1fdb06" target="_top" xlink:title=" ">
<polygon fill="white" stroke="#666666" points="888,-123.54 795,-123.54 795,-104.54 888,-104.54 888,-123.54"/>
<text text-anchor="middle" x="841.5" y="-111.54" font-family="Helvetica,sans-Serif" font-size="10.00">func_8008FD4C</text>
</a>
</g>
</g>
<!-- Node18&#45;&gt;Node19 -->
<g id="edge18_Node000018_Node000019" class="edge">
<title>Node18&#45;&gt;Node19</title>
<g id="a_edge18_Node000018_Node000019"><a xlink:title=" ">
<path fill="none" stroke="#63b8ff" d="M746.58,-86.57C762.1,-91.11 780.87,-96.6 797.53,-101.48"/>
<polygon fill="#63b8ff" stroke="#63b8ff" points="797.01,-104.97 807.59,-104.42 798.98,-98.25 797.01,-104.97"/>
</a>
</g>
</g>
<!-- Node20 -->
<g id="Node000020" class="node">
<title>Node20</title>
<g id="a_Node000020"><a xlink:href="external_8c.html#a517352d45a01341217ab2c073b3b223f" target="_top" xlink:title=" ">
<polygon fill="white" stroke="#666666" points="887.5,-86.54 795.5,-86.54 795.5,-67.54 887.5,-67.54 887.5,-86.54"/>
<text text-anchor="middle" x="841.5" y="-74.54" font-family="Helvetica,sans-Serif" font-size="10.00">func_800C9060</text>
</a>
</g>
</g>
<!-- Node18&#45;&gt;Node20 -->
<g id="edge19_Node000018_Node000020" class="edge">
<title>Node18&#45;&gt;Node20</title>
<g id="a_edge19_Node000018_Node000020"><a xlink:title=" ">
<path fill="none" stroke="#63b8ff" d="M759.31,-77.04C767.58,-77.04 776.29,-77.04 784.81,-77.04"/>
<polygon fill="#63b8ff" stroke="#63b8ff" points="785.08,-80.54 795.08,-77.04 785.08,-73.54 785.08,-80.54"/>
</a>
</g>
</g>
<!-- Node21 -->
<g id="Node000021" class="node">
<title>Node21</title>
<g id="a_Node000021"><a xlink:href="external_8c.html#a62e16f9600e7e9beda2c9d2df10f3561" target="_top" xlink:title=" ">
<polygon fill="white" stroke="#666666" points="996,-123.54 924,-123.54 924,-104.54 996,-104.54 996,-123.54"/>
<text text-anchor="middle" x="960" y="-111.54" font-family="Helvetica,sans-Serif" font-size="10.00">play_sound</text>
</a>
</g>
</g>
<!-- Node20&#45;&gt;Node21 -->
<g id="edge20_Node000020_Node000021" class="edge">
<title>Node20&#45;&gt;Node21</title>
<g id="a_edge20_Node000020_Node000021"><a xlink:title=" ">
<path fill="none" stroke="#63b8ff" d="M872.5,-86.57C886.66,-91.07 903.75,-96.5 919,-101.34"/>
<polygon fill="#63b8ff" stroke="#63b8ff" points="918.1,-104.73 928.7,-104.42 920.22,-98.06 918.1,-104.73"/>
</a>
</g>
</g>
<!-- Node23&#45;&gt;Node21 -->
<g id="edge23_Node000023_Node000021" class="edge">
<title>Node23&#45;&gt;Node21</title>
<g id="a_edge23_Node000023_Node000021"><a xlink:title=" ">
<path fill="none" stroke="#63b8ff" d="M720.81,-447.51C754.26,-400.69 901.35,-194.76 946.06,-132.16"/>
<polygon fill="#63b8ff" stroke="#63b8ff" points="949.14,-133.86 952.11,-123.69 943.45,-129.79 949.14,-133.86"/>
</a>
</g>
</g>
</g>
</svg>

<g id="navigator" transform="translate(0 0)" fill="#404254">
  <rect fill="#f2f5e9" fill-opacity="0.5" stroke="#606060" stroke-width=".5" x="0" y="0" width="60" height="60"/>
  <use id="zoomplus" xlink:href="#zoomPlus" x="17" y="9" onmousedown="handleZoom(evt,'in')"/>
  <use id="zoomminus" xlink:href="#zoomMin" x="42" y="9" onmousedown="handleZoom(evt,'out')"/>
  <use id="reset" xlink:href="#resetDef" x="30" y="36" onmousedown="handleReset()"/>
   <use id="arrowup" xlink:href="#arrowUp" x="0" y="0" onmousedown="handlePan(0,-1)"/>
  <use id="arrowright" xlink:href="#arrowRight" x="0" y="0" onmousedown="handlePan(1,0)"/>
  <use id="arrowdown" xlink:href="#arrowDown" x="0" y="0" onmousedown="handlePan(0,1)"/>
  <use id="arrowleft" xlink:href="#arrowLeft" x="0" y="0" onmousedown="handlePan(-1,0)"/>
</g>
<svg viewBox="0 0 15 15" width="100%" height="30px" preserveAspectRatio="xMaxYMin meet">
 <g id="arrow_out" transform="scale(0.3 0.3)">
  <a xlink:href="code__8008C1D0_8h_a5114cf2ba3d4b3c2b9648af64ce6d8cc_cgraph_org.svg" target="_base">
   <rect id="button" ry="5" rx="5" y="6" x="6" height="38" width="38"
        fill="#f2f5e9" fill-opacity="0.5" stroke="#606060" stroke-width="1.0"/>
   <path id="arrow"
     d="M 11.500037,31.436501 C 11.940474,20.09759 22.043105,11.32322 32.158766,21.979434 L 37.068811,17.246167 C 37.068811,17.246167 37.088388,32 37.088388,32 L 22.160133,31.978069 C 22.160133,31.978069 26.997745,27.140456 26.997745,27.140456 C 18.528582,18.264221 13.291696,25.230495 11.500037,31.436501 z"
     style="fill:#404040;"/>
  </a>
 </g>
</svg>

<style type='text/css'>
<![CDATA[
[data-mouse-over-selected='false'] { opacity: 0.7; }
[data-mouse-over-selected='true']  { opacity: 1.0; }
]]>
</style>
<script type="application/ecmascript"><![CDATA[
document.addEventListener('DOMContentLoaded', (event) => {
  highlightEdges();
  highlightAdjacentNodes();
});
]]></script>
</svg>
