<?xml version="1.0" encoding="UTF-8" standalone="no"?>
<!DOCTYPE svg PUBLIC "-//W3C//DTD SVG 1.1//EN"
 "http://www.w3.org/Graphics/SVG/1.1/DTD/svg11.dtd">
<!-- Generated by graphviz version 2.43.0 (0)
 -->
<!-- Title: func_8008DF98 Pages: 1 -->
<!--zoomable 608 -->

<svg id="main" version="1.1" xmlns="http://www.w3.org/2000/svg" xmlns:xlink="http://www.w3.org/1999/xlink" xml:space="preserve" onload="init(evt)">
<style type="text/css"><![CDATA[
.node, .edge {opacity: 0.7;}
.node.selected, .edge.selected {opacity: 1;}
.edge:hover path { stroke: red; }
.edge:hover polygon { stroke: red; fill: red; }
]]></style>

<defs>
  <circle id="rim" cx="0" cy="0" r="7"/>
  <circle id="rim2" cx="0" cy="0" r="3.5"/>
  <g id="zoomPlus">
    <use xlink:href="#rim" fill="#404040"><set attributeName="fill" to="#808080" begin="zoomplus.mouseover" end="zoomplus.mouseout"/></use>
    <path d="M-4,0h8M0,-4v8" fill="none" stroke="white" stroke-width="1.5" pointer-events="none"/>
  </g>
  <g id="zoomMin">
    <use xlink:href="#rim" fill="#404040"><set attributeName="fill" to="#808080" begin="zoomminus.mouseover" end="zoomminus.mouseout"/></use>
    <path d="M-4,0h8" fill="none" stroke="white" stroke-width="1.5" pointer-events="none"/>
  </g>
  <g id="arrowUp" transform="translate(30 24)">
    <use xlink:href="#rim"/>
    <path pointer-events="none" fill="none" stroke="white" stroke-width="1.5" d="M0,-3.0v7 M-2.5,-0.5L0,-3.0L2.5,-0.5"/>
  </g>
  <g id="arrowRight" transform="rotate(90) translate(36 -43)">
    <use xlink:href="#rim"/>
    <path pointer-events="none" fill="none" stroke="white" stroke-width="1.5" d="M0,-3.0v7 M-2.5,-0.5L0,-3.0L2.5,-0.5"/>
  </g>
  <g id="arrowDown" transform="rotate(180) translate(-30 -48)">
    <use xlink:href="#rim"/>
    <path pointer-events="none" fill="none" stroke="white" stroke-width="1.5" d="M0,-3.0v7 M-2.5,-0.5L0,-3.0L2.5,-0.5"/>
  </g>
  <g id="arrowLeft" transform="rotate(270) translate(-36 17)">
    <use xlink:href="#rim"/>
    <path pointer-events="none" fill="none" stroke="white" stroke-width="1.5" d="M0,-3.0v7 M-2.5,-0.5L0,-3.0L2.5,-0.5"/>
  </g>
  <g id="resetDef">
    <use xlink:href="#rim2" fill="#404040"><set attributeName="fill" to="#808080" begin="reset.mouseover" end="reset.mouseout"/></use>
  </g>
</defs>
<script type="application/ecmascript">
var viewWidth = 722;
var viewHeight = 608;
var sectionId = 'dynsection-49';
</script>
<script type="application/ecmascript" xlink:href="svg.min.js"/>
<svg id="graph" class="graph">
<g id="viewport">
<title>func_8008DF98</title>
<!-- Node1 -->
<g id="Node000001" class="node">
<title>Node1</title>
<g id="a_Node000001"><a xlink:title=" ">
<polygon fill="#999999" stroke="#666666" points="92,-432.15 0,-432.15 0,-413.15 92,-413.15 92,-432.15"/>
<text text-anchor="middle" x="46" y="-420.15" font-family="Helvetica,sans-Serif" font-size="10.00">func_8008DF98</text>
</a>
</g>
</g>
<!-- Node2 -->
<g id="Node000002" class="node">
<title>Node2</title>
<g id="a_Node000002"><a xlink:href="code__80005FD0_8c.html#a06783cccfdd317d1f883612230c6cf5c" target="_top" xlink:title=" ">
<polygon fill="white" stroke="#666666" points="220,-600.15 128,-600.15 128,-581.15 220,-581.15 220,-600.15"/>
<text text-anchor="middle" x="174" y="-588.15" font-family="Helvetica,sans-Serif" font-size="10.00">func_800098FC</text>
</a>
</g>
</g>
<!-- Node1&#45;&gt;Node2 -->
<g id="edge1_Node000001_Node000002" class="edge">
<title>Node1&#45;&gt;Node2</title>
<g id="a_edge1_Node000001_Node000002"><a xlink:title=" ">
<path fill="none" stroke="#63b8ff" d="M50.23,-432.26C59.05,-457.27 85.75,-525.34 128,-566.65 131.53,-570.11 135.66,-573.2 139.97,-575.92"/>
<polygon fill="#63b8ff" stroke="#63b8ff" points="138.47,-579.09 148.9,-580.98 141.92,-573 138.47,-579.09"/>
</a>
</g>
</g>
<!-- Node6 -->
<g id="Node000006" class="node">
<title>Node6</title>
<g id="a_Node000006"><a xlink:href="code__80057C60_8c.html#a0a55fae21abd30d3c618adef1a9f3ccd" target="_top" xlink:title=" ">
<polygon fill="white" stroke="#666666" points="477,-183.15 385,-183.15 385,-164.15 477,-164.15 477,-183.15"/>
<text text-anchor="middle" x="431" y="-171.15" font-family="Helvetica,sans-Serif" font-size="10.00">func_8006B8B4</text>
</a>
</g>
</g>
<!-- Node1&#45;&gt;Node6 -->
<g id="edge5_Node000001_Node000006" class="edge">
<title>Node1&#45;&gt;Node6</title>
<g id="a_edge5_Node000001_Node000006"><a xlink:title=" ">
<path fill="none" stroke="#63b8ff" d="M56.53,-432.22C96.63,-471.32 253.9,-613.24 349,-533.65 383.8,-504.53 374.81,-376.87 385,-332.65 396.76,-281.61 414.64,-222.5 423.92,-192.79"/>
<polygon fill="#63b8ff" stroke="#63b8ff" points="427.26,-193.84 426.93,-183.25 420.59,-191.74 427.26,-193.84"/>
</a>
</g>
</g>
<!-- Node9 -->
<g id="Node000009" class="node">
<title>Node9</title>
<g id="a_Node000009"><a xlink:href="code__8008C1D0_8c.html#a5cdc06d2091fc6d20759448c40b17d54" target="_top" xlink:title=" ">
<polygon fill="white" stroke="#666666" points="220,-302.15 128,-302.15 128,-283.15 220,-283.15 220,-302.15"/>
<text text-anchor="middle" x="174" y="-290.15" font-family="Helvetica,sans-Serif" font-size="10.00">func_8008C354</text>
</a>
</g>
</g>
<!-- Node1&#45;&gt;Node9 -->
<g id="edge9_Node000001_Node000009" class="edge">
<title>Node1&#45;&gt;Node9</title>
<g id="a_edge9_Node000001_Node000009"><a xlink:title=" ">
<path fill="none" stroke="#63b8ff" d="M56.47,-412.88C77.83,-390.85 129.95,-337.07 156.65,-309.52"/>
<polygon fill="#63b8ff" stroke="#63b8ff" points="159.32,-311.8 163.76,-302.19 154.29,-306.93 159.32,-311.8"/>
</a>
</g>
</g>
<!-- Node24 -->
<g id="Node000024" class="node">
<title>Node24</title>
<g id="a_Node000024"><a xlink:href="external_8c.html#a1a1bdc0f5d3b6fd4a86b9d62e93a076e" target="_top" xlink:title=" ">
<polygon fill="white" stroke="#666666" points="477,-113.15 385,-113.15 385,-94.15 477,-94.15 477,-113.15"/>
<text text-anchor="middle" x="431" y="-101.15" font-family="Helvetica,sans-Serif" font-size="10.00">func_800C90F4</text>
</a>
</g>
</g>
<!-- Node1&#45;&gt;Node24 -->
<g id="edge25_Node000001_Node000024" class="edge">
<title>Node1&#45;&gt;Node24</title>
<g id="a_edge25_Node000001_Node000024"><a xlink:title=" ">
<path fill="none" stroke="#63b8ff" d="M48.35,-412.82C56.16,-360.08 100.84,-109.5 256,-14.65 291.27,6.9 311.2,2.06 349,-14.65 381.48,-29.01 406.54,-63.54 419.71,-85.12"/>
<polygon fill="#63b8ff" stroke="#63b8ff" points="416.84,-87.14 424.91,-94.01 422.88,-83.61 416.84,-87.14"/>
</a>
</g>
</g>
<!-- Node3 -->
<g id="Node000003" class="node">
<title>Node3</title>
<g id="a_Node000003"><a xlink:href="external_8c.html#aad3025d980410fa157174acbf923f8c0" target="_top" xlink:title=" ">
<polygon fill="white" stroke="#666666" points="349,-600.15 256,-600.15 256,-581.15 349,-581.15 349,-600.15"/>
<text text-anchor="middle" x="302.5" y="-588.15" font-family="Helvetica,sans-Serif" font-size="10.00">func_800C92CC</text>
</a>
</g>
</g>
<!-- Node2&#45;&gt;Node3 -->
<g id="edge2_Node000002_Node000003" class="edge">
<title>Node2&#45;&gt;Node3</title>
<g id="a_edge2_Node000002_Node000003"><a xlink:title=" ">
<path fill="none" stroke="#63b8ff" d="M220.31,-590.65C228.48,-590.65 237.08,-590.65 245.5,-590.65"/>
<polygon fill="#63b8ff" stroke="#63b8ff" points="245.65,-594.15 255.65,-590.65 245.65,-587.15 245.65,-594.15"/>
</a>
</g>
</g>
<!-- Node4 -->
<g id="Node000004" class="node">
<title>Node4</title>
<g id="a_Node000004"><a xlink:href="external_8h.html#ae82eb9565bbd324f028121f490e7c9a7" target="_top" xlink:title=" ">
<polygon fill="white" stroke="#666666" points="477,-600.15 385,-600.15 385,-581.15 477,-581.15 477,-600.15"/>
<text text-anchor="middle" x="431" y="-588.15" font-family="Helvetica,sans-Serif" font-size="10.00">func_800C1C88</text>
</a>
</g>
</g>
<!-- Node3&#45;&gt;Node4 -->
<g id="edge3_Node000003_Node000004" class="edge">
<title>Node3&#45;&gt;Node4</title>
<g id="a_edge3_Node000003_Node000004"><a xlink:title=" ">
<path fill="none" stroke="#63b8ff" d="M349.17,-590.65C357.42,-590.65 366.11,-590.65 374.6,-590.65"/>
<polygon fill="#63b8ff" stroke="#63b8ff" points="374.82,-594.15 384.82,-590.65 374.82,-587.15 374.82,-594.15"/>
</a>
</g>
</g>
<!-- Node5 -->
<g id="Node000005" class="node">
<title>Node5</title>
<g id="a_Node000005"><a xlink:href="external_8c.html#a62e16f9600e7e9beda2c9d2df10f3561" target="_top" xlink:title=" ">
<polygon fill="white" stroke="#666666" points="714,-178.15 642,-178.15 642,-159.15 714,-159.15 714,-178.15"/>
<text text-anchor="middle" x="678" y="-166.15" font-family="Helvetica,sans-Serif" font-size="10.00">play_sound</text>
</a>
</g>
</g>
<!-- Node3&#45;&gt;Node5 -->
<g id="edge4_Node000003_Node000005" class="edge">
<title>Node3&#45;&gt;Node5</title>
<g id="a_edge4_Node000003_Node000005"><a xlink:title=" ">
<path fill="none" stroke="#63b8ff" d="M319.42,-580.92C328.52,-575.01 339.89,-567.01 349,-558.65 488.27,-430.91 623.49,-244.82 664.45,-186.69"/>
<polygon fill="#63b8ff" stroke="#63b8ff" points="667.53,-188.4 670.4,-178.2 661.8,-184.38 667.53,-188.4"/>
</a>
</g>
</g>
<!-- Node7 -->
<g id="Node000007" class="node">
<title>Node7</title>
<g id="a_Node000007"><a xlink:href="code__8008C1D0_8c.html#a1c7552c4a370cc015c2726e40f1fdb06" target="_top" xlink:title=" ">
<polygon fill="white" stroke="#666666" points="606,-215.15 513,-215.15 513,-196.15 606,-196.15 606,-215.15"/>
<text text-anchor="middle" x="559.5" y="-203.15" font-family="Helvetica,sans-Serif" font-size="10.00">func_8008FD4C</text>
</a>
</g>
</g>
<!-- Node6&#45;&gt;Node7 -->
<g id="edge6_Node000006_Node000007" class="edge">
<title>Node6&#45;&gt;Node7</title>
<g id="a_edge6_Node000006_Node000007"><a xlink:title=" ">
<path fill="none" stroke="#63b8ff" d="M469.61,-183.17C482.62,-186.46 497.37,-190.19 511.07,-193.66"/>
<polygon fill="#63b8ff" stroke="#63b8ff" points="510.26,-197.06 520.81,-196.12 511.98,-190.28 510.26,-197.06"/>
</a>
</g>
</g>
<!-- Node8 -->
<g id="Node000008" class="node">
<title>Node8</title>
<g id="a_Node000008"><a xlink:href="external_8c.html#a517352d45a01341217ab2c073b3b223f" target="_top" xlink:title=" ">
<polygon fill="white" stroke="#666666" points="605.5,-178.15 513.5,-178.15 513.5,-159.15 605.5,-159.15 605.5,-178.15"/>
<text text-anchor="middle" x="559.5" y="-166.15" font-family="Helvetica,sans-Serif" font-size="10.00">func_800C9060</text>
</a>
</g>
</g>
<!-- Node6&#45;&gt;Node8 -->
<g id="edge7_Node000006_Node000008" class="edge">
<title>Node6&#45;&gt;Node8</title>
<g id="a_edge7_Node000006_Node000008"><a xlink:title=" ">
<path fill="none" stroke="#63b8ff" d="M477.31,-171.86C485.58,-171.54 494.29,-171.19 502.81,-170.86"/>
<polygon fill="#63b8ff" stroke="#63b8ff" points="503.23,-174.34 513.08,-170.45 502.95,-167.35 503.23,-174.34"/>
</a>
</g>
</g>
<!-- Node8&#45;&gt;Node5 -->
<g id="edge8_Node000008_Node000005" class="edge">
<title>Node8&#45;&gt;Node5</title>
<g id="a_edge8_Node000008_Node000005"><a xlink:title=" ">
<path fill="none" stroke="#63b8ff" d="M605.54,-168.65C614.1,-168.65 623.06,-168.65 631.63,-168.65"/>
<polygon fill="#63b8ff" stroke="#63b8ff" points="631.83,-172.15 641.83,-168.65 631.83,-165.15 631.83,-172.15"/>
</a>
</g>
</g>
<!-- Node10 -->
<g id="Node000010" class="node">
<title>Node10</title>
<g id="a_Node000010"><a xlink:href="code__8008C1D0_8c.html#ad164a912d7ef76f24e7b5cfb9169c16f" target="_top" xlink:title=" ">
<polygon fill="white" stroke="#666666" points="349,-524.15 256,-524.15 256,-505.15 349,-505.15 349,-524.15"/>
<text text-anchor="middle" x="302.5" y="-512.15" font-family="Helvetica,sans-Serif" font-size="10.00">func_8008C6D0</text>
</a>
</g>
</g>
<!-- Node9&#45;&gt;Node10 -->
<g id="edge10_Node000009_Node000010" class="edge">
<title>Node9&#45;&gt;Node10</title>
<g id="a_edge10_Node000009_Node000010"><a xlink:title=" ">
<path fill="none" stroke="#63b8ff" d="M176.11,-302.22C180.3,-334.22 198.03,-438.76 256,-496.65 256.95,-497.6 257.95,-498.5 259,-499.35"/>
<polygon fill="#63b8ff" stroke="#63b8ff" points="257.45,-502.51 267.74,-505.02 261.25,-496.64 257.45,-502.51"/>
</a>
</g>
</g>
<!-- Node11 -->
<g id="Node000011" class="node">
<title>Node11</title>
<g id="a_Node000011"><a xlink:href="code__8008C1D0_8c.html#a105203221e314be241a95e006b62ef80" target="_top" xlink:title=" ">
<polygon fill="white" stroke="#666666" points="348.5,-487.15 256.5,-487.15 256.5,-468.15 348.5,-468.15 348.5,-487.15"/>
<text text-anchor="middle" x="302.5" y="-475.15" font-family="Helvetica,sans-Serif" font-size="10.00">func_8008C8C4</text>
</a>
</g>
</g>
<!-- Node9&#45;&gt;Node11 -->
<g id="edge11_Node000009_Node000011" class="edge">
<title>Node9&#45;&gt;Node11</title>
<g id="a_edge11_Node000009_Node000011"><a xlink:title=" ">
<path fill="none" stroke="#63b8ff" d="M177.1,-302.43C183.67,-330.74 206.39,-413.63 256,-459.65 257.13,-460.7 258.33,-461.69 259.58,-462.62"/>
<polygon fill="#63b8ff" stroke="#63b8ff" points="258.07,-465.81 268.43,-468.02 261.71,-459.83 258.07,-465.81"/>
</a>
</g>
</g>
<!-- Node12 -->
<g id="Node000012" class="node">
<title>Node12</title>
<g id="a_Node000012"><a xlink:href="code__8008C1D0_8c.html#acab450a6af6eca812ad3987a292a5165" target="_top" xlink:title=" ">
<polygon fill="white" stroke="#666666" points="348.5,-450.15 256.5,-450.15 256.5,-431.15 348.5,-431.15 348.5,-450.15"/>
<text text-anchor="middle" x="302.5" y="-438.15" font-family="Helvetica,sans-Serif" font-size="10.00">func_8008D0E4</text>
</a>
</g>
</g>
<!-- Node9&#45;&gt;Node12 -->
<g id="edge12_Node000009_Node000012" class="edge">
<title>Node9&#45;&gt;Node12</title>
<g id="a_edge12_Node000009_Node000012"><a xlink:title=" ">
<path fill="none" stroke="#63b8ff" d="M178.51,-302.27C187.64,-325.99 214.34,-387.91 256,-422.65 257.52,-423.92 259.13,-425.1 260.82,-426.21"/>
<polygon fill="#63b8ff" stroke="#63b8ff" points="259.24,-429.34 269.68,-431.12 262.63,-423.21 259.24,-429.34"/>
</a>
</g>
</g>
<!-- Node13 -->
<g id="Node000013" class="node">
<title>Node13</title>
<g id="a_Node000013"><a xlink:href="code__8008C1D0_8c.html#a663cb8df8b606cf00e361977c9d6d834" target="_top" xlink:title=" ">
<polygon fill="white" stroke="#666666" points="349,-413.15 256,-413.15 256,-394.15 349,-394.15 349,-413.15"/>
<text text-anchor="middle" x="302.5" y="-401.15" font-family="Helvetica,sans-Serif" font-size="10.00">func_8008D3B0</text>
</a>
</g>
</g>
<!-- Node9&#45;&gt;Node13 -->
<g id="edge13_Node000009_Node000013" class="edge">
<title>Node9&#45;&gt;Node13</title>
<g id="a_edge13_Node000009_Node000013"><a xlink:title=" ">
<path fill="none" stroke="#63b8ff" d="M180.98,-302.16C193.06,-320.63 222.08,-361.67 256,-385.65 257.86,-386.97 259.83,-388.21 261.86,-389.37"/>
<polygon fill="#63b8ff" stroke="#63b8ff" points="260.57,-392.63 271.08,-393.98 263.7,-386.37 260.57,-392.63"/>
</a>
</g>
</g>
<!-- Node14 -->
<g id="Node000014" class="node">
<title>Node14</title>
<g id="a_Node000014"><a xlink:href="code__8008C1D0_8c.html#ae7bb91110e710a8f32fcd4c56c56f934" target="_top" xlink:title=" ">
<polygon fill="white" stroke="#666666" points="348.5,-376.15 256.5,-376.15 256.5,-357.15 348.5,-357.15 348.5,-376.15"/>
<text text-anchor="middle" x="302.5" y="-364.15" font-family="Helvetica,sans-Serif" font-size="10.00">func_8008D554</text>
</a>
</g>
</g>
<!-- Node9&#45;&gt;Node14 -->
<g id="edge14_Node000009_Node000014" class="edge">
<title>Node9&#45;&gt;Node14</title>
<g id="a_edge14_Node000009_Node000014"><a xlink:title=" ">
<path fill="none" stroke="#63b8ff" d="M187.06,-302.31C202.42,-314.28 230.07,-334.79 256,-348.65 258.85,-350.18 261.85,-351.64 264.9,-353.04"/>
<polygon fill="#63b8ff" stroke="#63b8ff" points="263.52,-356.25 274.09,-356.98 266.29,-349.82 263.52,-356.25"/>
</a>
</g>
</g>
<!-- Node15 -->
<g id="Node000015" class="node">
<title>Node15</title>
<g id="a_Node000015"><a xlink:href="code__8008C1D0_8c.html#a5f19eaaa048055d292d02c717e635786" target="_top" xlink:title=" ">
<polygon fill="white" stroke="#666666" points="348.5,-339.15 256.5,-339.15 256.5,-320.15 348.5,-320.15 348.5,-339.15"/>
<text text-anchor="middle" x="302.5" y="-327.15" font-family="Helvetica,sans-Serif" font-size="10.00">func_8008D760</text>
</a>
</g>
</g>
<!-- Node9&#45;&gt;Node15 -->
<g id="edge15_Node000009_Node000015" class="edge">
<title>Node9&#45;&gt;Node15</title>
<g id="a_edge15_Node000009_Node000015"><a xlink:title=" ">
<path fill="none" stroke="#63b8ff" d="M207.58,-302.18C223.1,-306.72 241.87,-312.21 258.53,-317.09"/>
<polygon fill="#63b8ff" stroke="#63b8ff" points="258.01,-320.58 268.59,-320.03 259.98,-313.86 258.01,-320.58"/>
</a>
</g>
</g>
<!-- Node16 -->
<g id="Node000016" class="node">
<title>Node16</title>
<g id="a_Node000016"><a xlink:href="code__8008C1D0_8c.html#a4ea2da0616ee3c475e4be217dc0bc71f" target="_top" xlink:title=" ">
<polygon fill="white" stroke="#666666" points="349,-302.15 256,-302.15 256,-283.15 349,-283.15 349,-302.15"/>
<text text-anchor="middle" x="302.5" y="-290.15" font-family="Helvetica,sans-Serif" font-size="10.00">func_8008D97C</text>
</a>
</g>
</g>
<!-- Node9&#45;&gt;Node16 -->
<g id="edge16_Node000009_Node000016" class="edge">
<title>Node9&#45;&gt;Node16</title>
<g id="a_edge16_Node000009_Node000016"><a xlink:title=" ">
<path fill="none" stroke="#63b8ff" d="M220.31,-292.65C228.48,-292.65 237.08,-292.65 245.5,-292.65"/>
<polygon fill="#63b8ff" stroke="#63b8ff" points="245.65,-296.15 255.65,-292.65 245.65,-289.15 245.65,-296.15"/>
</a>
</g>
</g>
<!-- Node17 -->
<g id="Node000017" class="node">
<title>Node17</title>
<g id="a_Node000017"><a xlink:href="code__8008C1D0_8c.html#a4a437d6caeeaa794bcce43ec60c097e9" target="_top" xlink:title=" ">
<polygon fill="white" stroke="#666666" points="348,-265.15 257,-265.15 257,-246.15 348,-246.15 348,-265.15"/>
<text text-anchor="middle" x="302.5" y="-253.15" font-family="Helvetica,sans-Serif" font-size="10.00">func_8008E884</text>
</a>
</g>
</g>
<!-- Node9&#45;&gt;Node17 -->
<g id="edge17_Node000009_Node000017" class="edge">
<title>Node9&#45;&gt;Node17</title>
<g id="a_edge17_Node000009_Node000017"><a xlink:title=" ">
<path fill="none" stroke="#63b8ff" d="M207.58,-283.13C223.1,-278.59 241.87,-273.1 258.53,-268.22"/>
<polygon fill="#63b8ff" stroke="#63b8ff" points="259.98,-271.45 268.59,-265.28 258.01,-264.73 259.98,-271.45"/>
</a>
</g>
</g>
<!-- Node18 -->
<g id="Node000018" class="node">
<title>Node18</title>
<g id="a_Node000018"><a xlink:href="code__8008C1D0_8c.html#a4e2c6d0ba50b7c13695f74f1c2bc7b18" target="_top" xlink:title=" ">
<polygon fill="white" stroke="#666666" points="348.5,-228.15 256.5,-228.15 256.5,-209.15 348.5,-209.15 348.5,-228.15"/>
<text text-anchor="middle" x="302.5" y="-216.15" font-family="Helvetica,sans-Serif" font-size="10.00">func_8008EC34</text>
</a>
</g>
</g>
<!-- Node9&#45;&gt;Node18 -->
<g id="edge18_Node000009_Node000018" class="edge">
<title>Node9&#45;&gt;Node18</title>
<g id="a_edge18_Node000009_Node000018"><a xlink:title=" ">
<path fill="none" stroke="#63b8ff" d="M187.4,-283.07C202.88,-271.38 230.44,-251.49 256,-237.65 259.46,-235.78 263.14,-233.97 266.86,-232.26"/>
<polygon fill="#63b8ff" stroke="#63b8ff" points="268.3,-235.45 276.05,-228.22 265.48,-229.04 268.3,-235.45"/>
</a>
</g>
</g>
<!-- Node19 -->
<g id="Node000019" class="node">
<title>Node19</title>
<g id="a_Node000019"><a xlink:href="code__8008C1D0_8c.html#ae48f5d9507d1966754bc1aa1bddc4136" target="_top" xlink:title=" ">
<polygon fill="white" stroke="#666666" points="348.5,-191.15 256.5,-191.15 256.5,-172.15 348.5,-172.15 348.5,-191.15"/>
<text text-anchor="middle" x="302.5" y="-179.15" font-family="Helvetica,sans-Serif" font-size="10.00">func_8008EEC4</text>
</a>
</g>
</g>
<!-- Node9&#45;&gt;Node19 -->
<g id="edge19_Node000009_Node000019" class="edge">
<title>Node9&#45;&gt;Node19</title>
<g id="a_edge19_Node000009_Node000019"><a xlink:title=" ">
<path fill="none" stroke="#63b8ff" d="M181.24,-283.03C193.54,-264.73 222.63,-224.59 256,-200.65 258.49,-198.87 261.18,-197.21 263.96,-195.67"/>
<polygon fill="#63b8ff" stroke="#63b8ff" points="265.59,-198.77 273.01,-191.21 262.5,-192.49 265.59,-198.77"/>
</a>
</g>
</g>
<!-- Node20 -->
<g id="Node000020" class="node">
<title>Node20</title>
<g id="a_Node000020"><a xlink:href="code__8008C1D0_8c.html#a77e26f2cff6381f9ba1575f8da060571" target="_top" xlink:title=" ">
<polygon fill="white" stroke="#666666" points="348,-154.15 257,-154.15 257,-135.15 348,-135.15 348,-154.15"/>
<text text-anchor="middle" x="302.5" y="-142.15" font-family="Helvetica,sans-Serif" font-size="10.00">func_8008F0E8</text>
</a>
</g>
</g>
<!-- Node9&#45;&gt;Node20 -->
<g id="edge20_Node000009_Node000020" class="edge">
<title>Node9&#45;&gt;Node20</title>
<g id="a_edge20_Node000009_Node000020"><a xlink:title=" ">
<path fill="none" stroke="#63b8ff" d="M178.71,-282.82C188.11,-259.14 215.04,-198.35 256,-163.65 257.94,-162.01 260.05,-160.49 262.25,-159.09"/>
<polygon fill="#63b8ff" stroke="#63b8ff" points="264.01,-162.12 271.11,-154.26 260.66,-155.97 264.01,-162.12"/>
</a>
</g>
</g>
<!-- Node21 -->
<g id="Node000021" class="node">
<title>Node21</title>
<g id="a_Node000021"><a xlink:href="code__8008C1D0_8c.html#ae02351b6bbb678b552ec8864b47fc56c" target="_top" xlink:title=" ">
<polygon fill="white" stroke="#666666" points="348,-117.15 257,-117.15 257,-98.15 348,-98.15 348,-117.15"/>
<text text-anchor="middle" x="302.5" y="-105.15" font-family="Helvetica,sans-Serif" font-size="10.00">func_8008F3E0</text>
</a>
</g>
</g>
<!-- Node9&#45;&gt;Node21 -->
<g id="edge21_Node000009_Node000021" class="edge">
<title>Node9&#45;&gt;Node21</title>
<g id="a_edge21_Node000009_Node000021"><a xlink:title=" ">
<path fill="none" stroke="#63b8ff" d="M177.16,-282.98C183.89,-254.96 207.01,-172.86 256,-126.65 257.49,-125.24 259.11,-123.93 260.81,-122.71"/>
<polygon fill="#63b8ff" stroke="#63b8ff" points="263.03,-125.46 269.83,-117.34 259.45,-119.45 263.03,-125.46"/>
</a>
</g>
</g>
<!-- Node22 -->
<g id="Node000022" class="node">
<title>Node22</title>
<g id="a_Node000022"><a xlink:href="code__8008C1D0_8c.html#afcf39ca15166fb7561402462930cd979" target="_top" xlink:title=" ">
<polygon fill="white" stroke="#666666" points="348.5,-80.15 256.5,-80.15 256.5,-61.15 348.5,-61.15 348.5,-80.15"/>
<text text-anchor="middle" x="302.5" y="-68.15" font-family="Helvetica,sans-Serif" font-size="10.00">func_8008F5A4</text>
</a>
</g>
</g>
<!-- Node9&#45;&gt;Node22 -->
<g id="edge22_Node000009_Node000022" class="edge">
<title>Node9&#45;&gt;Node22</title>
<g id="a_edge22_Node000009_Node000022"><a xlink:title=" ">
<path fill="none" stroke="#63b8ff" d="M176.23,-282.73C180.71,-250.5 199.04,-147.53 256,-89.65 257.4,-88.24 258.91,-86.92 260.52,-85.69"/>
<polygon fill="#63b8ff" stroke="#63b8ff" points="262.49,-88.59 269.13,-80.33 258.79,-82.65 262.49,-88.59"/>
</a>
</g>
</g>
<!-- Node23 -->
<g id="Node000023" class="node">
<title>Node23</title>
<g id="a_Node000023"><a xlink:href="code__8008C1D0_8c.html#ab6d84742231847170dd64267f0519cdf" target="_top" xlink:title=" ">
<polygon fill="white" stroke="#666666" points="349,-43.15 256,-43.15 256,-24.15 349,-24.15 349,-43.15"/>
<text text-anchor="middle" x="302.5" y="-31.15" font-family="Helvetica,sans-Serif" font-size="10.00">func_8008FEDC</text>
</a>
</g>
</g>
<!-- Node9&#45;&gt;Node23 -->
<g id="edge24_Node000009_Node000023" class="edge">
<title>Node9&#45;&gt;Node23</title>
<g id="a_edge24_Node000009_Node000023"><a xlink:title=" ">
<path fill="none" stroke="#63b8ff" d="M175.5,-282.99C177.85,-247.51 190.63,-122.78 256,-52.65 257.36,-51.2 258.84,-49.85 260.42,-48.6"/>
<polygon fill="#63b8ff" stroke="#63b8ff" points="262.4,-51.49 268.95,-43.16 258.64,-45.59 262.4,-51.49"/>
</a>
</g>
</g>
<!-- Node22&#45;&gt;Node6 -->
<g id="edge23_Node000022_Node000006" class="edge">
<title>Node22&#45;&gt;Node6</title>
<g id="a_edge23_Node000022_Node000006"><a xlink:title=" ">
<path fill="none" stroke="#63b8ff" d="M331.38,-80.18C337.44,-82.82 343.63,-85.98 349,-89.65 363.54,-99.59 395.71,-134.8 414.84,-156.35"/>
<polygon fill="#63b8ff" stroke="#63b8ff" points="412.46,-158.94 421.7,-164.12 417.71,-154.31 412.46,-158.94"/>
</a>
</g>
</g>
<!-- Node24&#45;&gt;Node5 -->
<g id="edge26_Node000024_Node000005" class="edge">
<title>Node24&#45;&gt;Node5</title>
<g id="a_edge26_Node000024_Node000005"><a xlink:title=" ">
<path fill="none" stroke="#63b8ff" d="M467.89,-113.18C511.35,-124.71 584.6,-144.14 631.85,-156.68"/>
<polygon fill="#63b8ff" stroke="#63b8ff" points="631.25,-160.14 641.81,-159.32 633.04,-153.37 631.25,-160.14"/>
</a>
</g>
</g>
</g>
</svg>

<g id="navigator" transform="translate(0 0)" fill="#404254">
  <rect fill="#f2f5e9" fill-opacity="0.5" stroke="#606060" stroke-width=".5" x="0" y="0" width="60" height="60"/>
  <use id="zoomplus" xlink:href="#zoomPlus" x="17" y="9" onmousedown="handleZoom(evt,'in')"/>
  <use id="zoomminus" xlink:href="#zoomMin" x="42" y="9" onmousedown="handleZoom(evt,'out')"/>
  <use id="reset" xlink:href="#resetDef" x="30" y="36" onmousedown="handleReset()"/>
   <use id="arrowup" xlink:href="#arrowUp" x="0" y="0" onmousedown="handlePan(0,-1)"/>
  <use id="arrowright" xlink:href="#arrowRight" x="0" y="0" onmousedown="handlePan(1,0)"/>
  <use id="arrowdown" xlink:href="#arrowDown" x="0" y="0" onmousedown="handlePan(0,1)"/>
  <use id="arrowleft" xlink:href="#arrowLeft" x="0" y="0" onmousedown="handlePan(-1,0)"/>
</g>
<svg viewBox="0 0 15 15" width="100%" height="30px" preserveAspectRatio="xMaxYMin meet">
 <g id="arrow_out" transform="scale(0.3 0.3)">
  <a xlink:href="code__8008C1D0_8c_af917b00ce9706fa68a375ab96957c106_cgraph_org.svg" target="_base">
   <rect id="button" ry="5" rx="5" y="6" x="6" height="38" width="38"
        fill="#f2f5e9" fill-opacity="0.5" stroke="#606060" stroke-width="1.0"/>
   <path id="arrow"
     d="M 11.500037,31.436501 C 11.940474,20.09759 22.043105,11.32322 32.158766,21.979434 L 37.068811,17.246167 C 37.068811,17.246167 37.088388,32 37.088388,32 L 22.160133,31.978069 C 22.160133,31.978069 26.997745,27.140456 26.997745,27.140456 C 18.528582,18.264221 13.291696,25.230495 11.500037,31.436501 z"
     style="fill:#404040;"/>
  </a>
 </g>
</svg>

<style type='text/css'>
<![CDATA[
[data-mouse-over-selected='false'] { opacity: 0.7; }
[data-mouse-over-selected='true']  { opacity: 1.0; }
]]>
</style>
<script type="application/ecmascript"><![CDATA[
document.addEventListener('DOMContentLoaded', (event) => {
  highlightEdges();
  highlightAdjacentNodes();
});
]]></script>
</svg>
