<?xml version="1.0" encoding="UTF-8" standalone="no"?>
<!DOCTYPE svg PUBLIC "-//W3C//DTD SVG 1.1//EN"
 "http://www.w3.org/Graphics/SVG/1.1/DTD/svg11.dtd">
<!-- Generated by graphviz version 2.43.0 (0)
 -->
<!-- Title: func_80090970 Pages: 1 -->
<!--zoomable 919 -->

<svg id="main" version="1.1" xmlns="http://www.w3.org/2000/svg" xmlns:xlink="http://www.w3.org/1999/xlink" xml:space="preserve" onload="init(evt)">
<style type="text/css"><![CDATA[
.node, .edge {opacity: 0.7;}
.node.selected, .edge.selected {opacity: 1;}
.edge:hover path { stroke: red; }
.edge:hover polygon { stroke: red; fill: red; }
]]></style>

<defs>
  <circle id="rim" cx="0" cy="0" r="7"/>
  <circle id="rim2" cx="0" cy="0" r="3.5"/>
  <g id="zoomPlus">
    <use xlink:href="#rim" fill="#404040"><set attributeName="fill" to="#808080" begin="zoomplus.mouseover" end="zoomplus.mouseout"/></use>
    <path d="M-4,0h8M0,-4v8" fill="none" stroke="white" stroke-width="1.5" pointer-events="none"/>
  </g>
  <g id="zoomMin">
    <use xlink:href="#rim" fill="#404040"><set attributeName="fill" to="#808080" begin="zoomminus.mouseover" end="zoomminus.mouseout"/></use>
    <path d="M-4,0h8" fill="none" stroke="white" stroke-width="1.5" pointer-events="none"/>
  </g>
  <g id="arrowUp" transform="translate(30 24)">
    <use xlink:href="#rim"/>
    <path pointer-events="none" fill="none" stroke="white" stroke-width="1.5" d="M0,-3.0v7 M-2.5,-0.5L0,-3.0L2.5,-0.5"/>
  </g>
  <g id="arrowRight" transform="rotate(90) translate(36 -43)">
    <use xlink:href="#rim"/>
    <path pointer-events="none" fill="none" stroke="white" stroke-width="1.5" d="M0,-3.0v7 M-2.5,-0.5L0,-3.0L2.5,-0.5"/>
  </g>
  <g id="arrowDown" transform="rotate(180) translate(-30 -48)">
    <use xlink:href="#rim"/>
    <path pointer-events="none" fill="none" stroke="white" stroke-width="1.5" d="M0,-3.0v7 M-2.5,-0.5L0,-3.0L2.5,-0.5"/>
  </g>
  <g id="arrowLeft" transform="rotate(270) translate(-36 17)">
    <use xlink:href="#rim"/>
    <path pointer-events="none" fill="none" stroke="white" stroke-width="1.5" d="M0,-3.0v7 M-2.5,-0.5L0,-3.0L2.5,-0.5"/>
  </g>
  <g id="resetDef">
    <use xlink:href="#rim2" fill="#404040"><set attributeName="fill" to="#808080" begin="reset.mouseover" end="reset.mouseout"/></use>
  </g>
</defs>
<script type="application/ecmascript">
var viewWidth = 904;
var viewHeight = 919;
var sectionId = 'dynsection-113';
</script>
<script type="application/ecmascript" xlink:href="svg.min.js"/>
<svg id="graph" class="graph">
<g id="viewport">
<title>func_80090970</title>
<!-- Node1 -->
<g id="Node000001" class="node">
<title>Node1</title>
<g id="a_Node000001"><a xlink:title=" ">
<polygon fill="#999999" stroke="#666666" points="91,-241 0,-241 0,-222 91,-222 91,-241"/>
<text text-anchor="middle" x="45.5" y="-229" font-family="Helvetica,sans-Serif" font-size="10.00">func_80090970</text>
</a>
</g>
</g>
<!-- Node2 -->
<g id="Node000002" class="node">
<title>Node2</title>
<g id="a_Node000002"><a xlink:href="math__util_8c.html#ae69cbf5c8d4b3b0dba2d7b4d4673689f" target="_top" xlink:title=" ">
<polygon fill="white" stroke="#666666" points="219.5,-911 181.5,-911 181.5,-892 219.5,-892 219.5,-911"/>
<text text-anchor="middle" x="200.5" y="-899" font-family="Helvetica,sans-Serif" font-size="10.00">coss</text>
</a>
</g>
</g>
<!-- Node1&#45;&gt;Node2 -->
<g id="edge1_Node000001_Node000002" class="edge">
<title>Node1&#45;&gt;Node2</title>
<g id="a_edge1_Node000001_Node000002"><a xlink:title=" ">
<path fill="none" stroke="#63b8ff" d="M46.34,-241.29C45.35,-314.35 42.54,-774.65 127,-877.5 137.73,-890.57 155.77,-896.57 171.17,-899.31"/>
<polygon fill="#63b8ff" stroke="#63b8ff" points="170.9,-902.8 181.29,-900.73 171.87,-895.87 170.9,-902.8"/>
</a>
</g>
</g>
<!-- Node3 -->
<g id="Node000003" class="node">
<title>Node3</title>
<g id="a_Node000003"><a xlink:href="code__80057C60_8c.html#a0a55fae21abd30d3c618adef1a9f3ccd" target="_top" xlink:title=" ">
<polygon fill="white" stroke="#666666" points="659,-391 567,-391 567,-372 659,-372 659,-391"/>
<text text-anchor="middle" x="613" y="-379" font-family="Helvetica,sans-Serif" font-size="10.00">func_8006B8B4</text>
</a>
</g>
</g>
<!-- Node1&#45;&gt;Node3 -->
<g id="edge2_Node000001_Node000003" class="edge">
<title>Node1&#45;&gt;Node3</title>
<g id="a_edge2_Node000001_Node000003"><a xlink:title=" ">
<path fill="none" stroke="#63b8ff" d="M48.8,-241.42C65.3,-309.96 172.73,-714.33 438,-844.5 475.11,-862.71 499.35,-871.09 531,-844.5 600.08,-786.46 610.25,-483.24 611.75,-401.71"/>
<polygon fill="#63b8ff" stroke="#63b8ff" points="615.25,-401.39 611.91,-391.34 608.25,-401.28 615.25,-401.39"/>
</a>
</g>
</g>
<!-- Node7 -->
<g id="Node000007" class="node">
<title>Node7</title>
<g id="a_Node000007"><a xlink:href="code__8008C1D0_8c.html#a5cdc06d2091fc6d20759448c40b17d54" target="_top" xlink:title=" ">
<polygon fill="white" stroke="#666666" points="402,-557 310,-557 310,-538 402,-538 402,-557"/>
<text text-anchor="middle" x="356" y="-545" font-family="Helvetica,sans-Serif" font-size="10.00">func_8008C354</text>
</a>
</g>
</g>
<!-- Node1&#45;&gt;Node7 -->
<g id="edge6_Node000001_Node000007" class="edge">
<title>Node1&#45;&gt;Node7</title>
<g id="a_edge6_Node000001_Node000007"><a xlink:title=" ">
<path fill="none" stroke="#63b8ff" d="M50.94,-241.28C61.72,-264.39 91.08,-323.49 127,-364.5 191.01,-437.57 286.74,-503.67 330.99,-532.38"/>
<polygon fill="#63b8ff" stroke="#63b8ff" points="329.32,-535.46 339.62,-537.92 333.1,-529.57 329.32,-535.46"/>
</a>
</g>
</g>
<!-- Node22 -->
<g id="Node000022" class="node">
<title>Node22</title>
<g id="a_Node000022"><a xlink:href="code__8008C1D0_8c.html#ae77e5662a7ef9f09c2e2150a36883d04" target="_top" xlink:title=" ">
<polygon fill="white" stroke="#666666" points="246,-355 155,-355 155,-336 246,-336 246,-355"/>
<text text-anchor="middle" x="200.5" y="-343" font-family="Helvetica,sans-Serif" font-size="10.00">func_8008F104</text>
</a>
</g>
</g>
<!-- Node1&#45;&gt;Node22 -->
<g id="edge22_Node000001_Node000022" class="edge">
<title>Node1&#45;&gt;Node22</title>
<g id="a_edge22_Node000001_Node000022"><a xlink:title=" ">
<path fill="none" stroke="#63b8ff" d="M51.96,-241.28C63.29,-260.67 91.33,-304.03 127,-326.5 132.49,-329.96 138.59,-332.79 144.86,-335.11"/>
<polygon fill="#63b8ff" stroke="#63b8ff" points="144.19,-338.57 154.79,-338.35 146.36,-331.92 144.19,-338.57"/>
</a>
</g>
</g>
<!-- Node24 -->
<g id="Node000024" class="node">
<title>Node24</title>
<g id="a_Node000024"><a xlink:href="code__8008C1D0_8c.html#a46d8d97f33dcfea927972f9c9cb6ece4" target="_top" xlink:title=" ">
<polygon fill="white" stroke="#666666" points="246.5,-317 154.5,-317 154.5,-298 246.5,-298 246.5,-317"/>
<text text-anchor="middle" x="200.5" y="-305" font-family="Helvetica,sans-Serif" font-size="10.00">func_8008FB30</text>
</a>
</g>
</g>
<!-- Node1&#45;&gt;Node24 -->
<g id="edge26_Node000001_Node000024" class="edge">
<title>Node1&#45;&gt;Node24</title>
<g id="a_edge26_Node000001_Node000024"><a xlink:title=" ">
<path fill="none" stroke="#63b8ff" d="M59.01,-241.03C74.36,-252.36 101.49,-271.28 127,-283.5 135.79,-287.71 145.5,-291.48 154.89,-294.71"/>
<polygon fill="#63b8ff" stroke="#63b8ff" points="153.91,-298.07 164.5,-297.89 156.1,-291.43 153.91,-298.07"/>
</a>
</g>
</g>
<!-- Node27 -->
<g id="Node000027" class="node">
<title>Node27</title>
<g id="a_Node000027"><a xlink:href="external_8c.html#a77dd28bb660c9e64fef58443fb7a1f0e" target="_top" xlink:title=" ">
<polygon fill="white" stroke="#666666" points="530.5,-243 438.5,-243 438.5,-224 530.5,-224 530.5,-243"/>
<text text-anchor="middle" x="484.5" y="-231" font-family="Helvetica,sans-Serif" font-size="10.00">func_800C9018</text>
</a>
</g>
</g>
<!-- Node1&#45;&gt;Node27 -->
<g id="edge35_Node000001_Node000027" class="edge">
<title>Node1&#45;&gt;Node27</title>
<g id="a_edge35_Node000001_Node000027"><a xlink:title=" ">
<path fill="none" stroke="#63b8ff" d="M79.09,-241.01C93.62,-244.77 111.03,-248.64 127,-250.5 233.18,-262.86 358.15,-250.84 428.36,-241.69"/>
<polygon fill="#63b8ff" stroke="#63b8ff" points="428.87,-245.15 438.32,-240.36 427.94,-238.21 428.87,-245.15"/>
</a>
</g>
</g>
<!-- Node29 -->
<g id="Node000029" class="node">
<title>Node29</title>
<g id="a_Node000029"><a xlink:href="code__8008C1D0_8c.html#a086cd6754f206c99bed839ed8f26091c" target="_top" xlink:title=" ">
<polygon fill="white" stroke="#666666" points="246,-241 155,-241 155,-222 246,-222 246,-241"/>
<text text-anchor="middle" x="200.5" y="-229" font-family="Helvetica,sans-Serif" font-size="10.00">func_80090178</text>
</a>
</g>
</g>
<!-- Node1&#45;&gt;Node29 -->
<g id="edge32_Node000001_Node000029" class="edge">
<title>Node1&#45;&gt;Node29</title>
<g id="a_edge32_Node000001_Node000029"><a xlink:title=" ">
<path fill="none" stroke="#63b8ff" d="M91.17,-231.5C107.9,-231.5 127.11,-231.5 144.67,-231.5"/>
<polygon fill="#63b8ff" stroke="#63b8ff" points="144.78,-235 154.78,-231.5 144.78,-228 144.78,-235"/>
</a>
</g>
</g>
<!-- Node30 -->
<g id="Node000030" class="node">
<title>Node30</title>
<g id="a_Node000030"><a xlink:href="code__80091750_8c.html#a0f56c6a0f23881435e2aa1fd48fd2b87" target="_top" xlink:title=" ">
<polygon fill="white" stroke="#666666" points="246,-204 155,-204 155,-185 246,-185 246,-204"/>
<text text-anchor="middle" x="200.5" y="-192" font-family="Helvetica,sans-Serif" font-size="10.00">func_8009E020</text>
</a>
</g>
</g>
<!-- Node1&#45;&gt;Node30 -->
<g id="edge33_Node000001_Node000030" class="edge">
<title>Node1&#45;&gt;Node30</title>
<g id="a_edge33_Node000001_Node000030"><a xlink:title=" ">
<path fill="none" stroke="#63b8ff" d="M85.9,-221.97C105.46,-217.24 129.28,-211.48 150.05,-206.46"/>
<polygon fill="#63b8ff" stroke="#63b8ff" points="151.07,-209.81 159.97,-204.06 149.42,-203.01 151.07,-209.81"/>
</a>
</g>
</g>
<!-- Node31 -->
<g id="Node000031" class="node">
<title>Node31</title>
<g id="a_Node000031"><a xlink:href="code__80091750_8c.html#ae2395e2543fb15accf6b045cdc8dc552" target="_top" xlink:title=" ">
<polygon fill="white" stroke="#666666" points="246,-167 155,-167 155,-148 246,-148 246,-167"/>
<text text-anchor="middle" x="200.5" y="-155" font-family="Helvetica,sans-Serif" font-size="10.00">func_8009E088</text>
</a>
</g>
</g>
<!-- Node1&#45;&gt;Node31 -->
<g id="edge34_Node000001_Node000031" class="edge">
<title>Node1&#45;&gt;Node31</title>
<g id="a_edge34_Node000001_Node000031"><a xlink:title=" ">
<path fill="none" stroke="#63b8ff" d="M57.43,-221.92C72.21,-209.45 99.86,-187.8 127,-175.5 132.74,-172.9 138.91,-170.64 145.14,-168.68"/>
<polygon fill="#63b8ff" stroke="#63b8ff" points="146.29,-171.99 154.93,-165.85 144.35,-165.27 146.29,-171.99"/>
</a>
</g>
</g>
<!-- Node32 -->
<g id="Node000032" class="node">
<title>Node32</title>
<g id="a_Node000032"><a xlink:href="math__util_8c.html#a963f23fd2ffec93350816627af02b9da" target="_top" xlink:title=" ">
<polygon fill="white" stroke="#666666" points="274,-130 127,-130 127,-111 274,-111 274,-130"/>
<text text-anchor="middle" x="200.5" y="-118" font-family="Helvetica,sans-Serif" font-size="10.00">get_angle_between_points</text>
</a>
</g>
</g>
<!-- Node1&#45;&gt;Node32 -->
<g id="edge36_Node000001_Node000032" class="edge">
<title>Node1&#45;&gt;Node32</title>
<g id="a_edge36_Node000001_Node000032"><a xlink:title=" ">
<path fill="none" stroke="#63b8ff" d="M51.99,-221.88C63.38,-202.84 91.51,-160.28 127,-138.5 129.68,-136.86 132.5,-135.36 135.41,-134.01"/>
<polygon fill="#63b8ff" stroke="#63b8ff" points="137.01,-137.13 144.95,-130.12 134.37,-130.65 137.01,-137.13"/>
</a>
</g>
</g>
<!-- Node35 -->
<g id="Node000035" class="node">
<title>Node35</title>
<g id="a_Node000035"><a xlink:href="render__player_8c.html#a35eebbf671cc37666be29a2a9b6f3c8c" target="_top" xlink:title=" ">
<polygon fill="white" stroke="#666666" points="255.5,-93 145.5,-93 145.5,-74 255.5,-74 255.5,-93"/>
<text text-anchor="middle" x="200.5" y="-81" font-family="Helvetica,sans-Serif" font-size="10.00">move_f32_towards</text>
</a>
</g>
</g>
<!-- Node1&#45;&gt;Node35 -->
<g id="edge39_Node000001_Node000035" class="edge">
<title>Node1&#45;&gt;Node35</title>
<g id="a_edge39_Node000001_Node000035"><a xlink:title=" ">
<path fill="none" stroke="#63b8ff" d="M49.58,-221.89C57.86,-197.63 83.02,-133.55 127,-101.5 129.81,-99.45 132.83,-97.64 135.98,-96.02"/>
<polygon fill="#63b8ff" stroke="#63b8ff" points="137.39,-99.23 145.14,-92.01 134.58,-92.82 137.39,-99.23"/>
</a>
</g>
</g>
<!-- Node36 -->
<g id="Node000036" class="node">
<title>Node36</title>
<g id="a_Node000036"><a xlink:href="render__player_8c.html#a5dafdbffa1d571f864872c9aa37eedef" target="_top" xlink:title=" ">
<polygon fill="white" stroke="#666666" points="256,-56 145,-56 145,-37 256,-37 256,-56"/>
<text text-anchor="middle" x="200.5" y="-44" font-family="Helvetica,sans-Serif" font-size="10.00">move_s16_towards</text>
</a>
</g>
</g>
<!-- Node1&#45;&gt;Node36 -->
<g id="edge40_Node000001_Node000036" class="edge">
<title>Node1&#45;&gt;Node36</title>
<g id="a_edge40_Node000001_Node000036"><a xlink:title=" ">
<path fill="none" stroke="#63b8ff" d="M48.2,-221.8C53.79,-193.01 74.3,-107.33 127,-64.5 129.62,-62.37 132.45,-60.49 135.43,-58.83"/>
<polygon fill="#63b8ff" stroke="#63b8ff" points="137.16,-61.88 144.73,-54.47 134.19,-55.55 137.16,-61.88"/>
</a>
</g>
</g>
<!-- Node37 -->
<g id="Node000037" class="node">
<title>Node37</title>
<g id="a_Node000037"><a xlink:href="math__util_8c.html#a19ed3bd78fd2d3e2bd0a29f6caf48545" target="_top" xlink:title=" ">
<polygon fill="white" stroke="#666666" points="218.5,-19 182.5,-19 182.5,0 218.5,0 218.5,-19"/>
<text text-anchor="middle" x="200.5" y="-7" font-family="Helvetica,sans-Serif" font-size="10.00">sins</text>
</a>
</g>
</g>
<!-- Node1&#45;&gt;Node37 -->
<g id="edge41_Node000001_Node000037" class="edge">
<title>Node1&#45;&gt;Node37</title>
<g id="a_edge41_Node000001_Node000037"><a xlink:title=" ">
<path fill="none" stroke="#63b8ff" d="M47.29,-221.63C50.49,-188.66 65.41,-81.42 127,-27.5 139.33,-16.71 157.14,-12.18 172.03,-10.37"/>
<polygon fill="#63b8ff" stroke="#63b8ff" points="172.57,-13.83 182.23,-9.48 171.96,-6.86 172.57,-13.83"/>
</a>
</g>
</g>
<!-- Node4 -->
<g id="Node000004" class="node">
<title>Node4</title>
<g id="a_Node000004"><a xlink:href="code__8008C1D0_8c.html#a1c7552c4a370cc015c2726e40f1fdb06" target="_top" xlink:title=" ">
<polygon fill="white" stroke="#666666" points="788,-392 695,-392 695,-373 788,-373 788,-392"/>
<text text-anchor="middle" x="741.5" y="-380" font-family="Helvetica,sans-Serif" font-size="10.00">func_8008FD4C</text>
</a>
</g>
</g>
<!-- Node3&#45;&gt;Node4 -->
<g id="edge3_Node000003_Node000004" class="edge">
<title>Node3&#45;&gt;Node4</title>
<g id="a_edge3_Node000003_Node000004"><a xlink:title=" ">
<path fill="none" stroke="#63b8ff" d="M659.31,-381.86C667.48,-381.92 676.08,-381.99 684.5,-382.06"/>
<polygon fill="#63b8ff" stroke="#63b8ff" points="684.63,-385.56 694.65,-382.14 684.68,-378.56 684.63,-385.56"/>
</a>
</g>
</g>
<!-- Node5 -->
<g id="Node000005" class="node">
<title>Node5</title>
<g id="a_Node000005"><a xlink:href="external_8c.html#a517352d45a01341217ab2c073b3b223f" target="_top" xlink:title=" ">
<polygon fill="white" stroke="#666666" points="787.5,-355 695.5,-355 695.5,-336 787.5,-336 787.5,-355"/>
<text text-anchor="middle" x="741.5" y="-343" font-family="Helvetica,sans-Serif" font-size="10.00">func_800C9060</text>
</a>
</g>
</g>
<!-- Node3&#45;&gt;Node5 -->
<g id="edge4_Node000003_Node000005" class="edge">
<title>Node3&#45;&gt;Node5</title>
<g id="a_edge4_Node000003_Node000005"><a xlink:title=" ">
<path fill="none" stroke="#63b8ff" d="M647.57,-371.95C662.72,-367.63 680.82,-362.49 696.99,-357.88"/>
<polygon fill="#63b8ff" stroke="#63b8ff" points="698.12,-361.2 706.78,-355.1 696.2,-354.47 698.12,-361.2"/>
</a>
</g>
</g>
<!-- Node6 -->
<g id="Node000006" class="node">
<title>Node6</title>
<g id="a_Node000006"><a xlink:href="external_8c.html#a62e16f9600e7e9beda2c9d2df10f3561" target="_top" xlink:title=" ">
<polygon fill="white" stroke="#666666" points="896,-336 824,-336 824,-317 896,-317 896,-336"/>
<text text-anchor="middle" x="860" y="-324" font-family="Helvetica,sans-Serif" font-size="10.00">play_sound</text>
</a>
</g>
</g>
<!-- Node5&#45;&gt;Node6 -->
<g id="edge5_Node000005_Node000006" class="edge">
<title>Node5&#45;&gt;Node6</title>
<g id="a_edge5_Node000005_Node000006"><a xlink:title=" ">
<path fill="none" stroke="#63b8ff" d="M787.54,-338.15C796.19,-336.74 805.26,-335.27 813.91,-333.85"/>
<polygon fill="#63b8ff" stroke="#63b8ff" points="814.53,-337.3 823.83,-332.24 813.4,-330.39 814.53,-337.3"/>
</a>
</g>
</g>
<!-- Node8 -->
<g id="Node000008" class="node">
<title>Node8</title>
<g id="a_Node000008"><a xlink:href="code__8008C1D0_8c.html#ad164a912d7ef76f24e7b5cfb9169c16f" target="_top" xlink:title=" ">
<polygon fill="white" stroke="#666666" points="531,-835 438,-835 438,-816 531,-816 531,-835"/>
<text text-anchor="middle" x="484.5" y="-823" font-family="Helvetica,sans-Serif" font-size="10.00">func_8008C6D0</text>
</a>
</g>
</g>
<!-- Node7&#45;&gt;Node8 -->
<g id="edge7_Node000007_Node000008" class="edge">
<title>Node7&#45;&gt;Node8</title>
<g id="a_edge7_Node000007_Node000008"><a xlink:title=" ">
<path fill="none" stroke="#63b8ff" d="M357.17,-557.21C358.32,-594.66 367.41,-731.43 438,-807.5 438.88,-808.45 439.81,-809.34 440.79,-810.19"/>
<polygon fill="#63b8ff" stroke="#63b8ff" points="438.82,-813.08 449.05,-815.85 442.77,-807.31 438.82,-813.08"/>
</a>
</g>
</g>
<!-- Node9 -->
<g id="Node000009" class="node">
<title>Node9</title>
<g id="a_Node000009"><a xlink:href="code__8008C1D0_8c.html#a105203221e314be241a95e006b62ef80" target="_top" xlink:title=" ">
<polygon fill="white" stroke="#666666" points="530.5,-798 438.5,-798 438.5,-779 530.5,-779 530.5,-798"/>
<text text-anchor="middle" x="484.5" y="-786" font-family="Helvetica,sans-Serif" font-size="10.00">func_8008C8C4</text>
</a>
</g>
</g>
<!-- Node7&#45;&gt;Node9 -->
<g id="edge8_Node000007_Node000009" class="edge">
<title>Node7&#45;&gt;Node9</title>
<g id="a_edge8_Node000007_Node000009"><a xlink:title=" ">
<path fill="none" stroke="#63b8ff" d="M357.77,-557.46C360.96,-591.81 375.98,-706.7 438,-770.5 438.93,-771.46 439.92,-772.37 440.96,-773.23"/>
<polygon fill="#63b8ff" stroke="#63b8ff" points="439.37,-776.38 449.65,-778.95 443.22,-770.53 439.37,-776.38"/>
</a>
</g>
</g>
<!-- Node10 -->
<g id="Node000010" class="node">
<title>Node10</title>
<g id="a_Node000010"><a xlink:href="code__8008C1D0_8c.html#acab450a6af6eca812ad3987a292a5165" target="_top" xlink:title=" ">
<polygon fill="white" stroke="#666666" points="530.5,-761 438.5,-761 438.5,-742 530.5,-742 530.5,-761"/>
<text text-anchor="middle" x="484.5" y="-749" font-family="Helvetica,sans-Serif" font-size="10.00">func_8008D0E4</text>
</a>
</g>
</g>
<!-- Node7&#45;&gt;Node10 -->
<g id="edge9_Node000007_Node000010" class="edge">
<title>Node7&#45;&gt;Node10</title>
<g id="a_edge9_Node000007_Node000010"><a xlink:title=" ">
<path fill="none" stroke="#63b8ff" d="M358.52,-557.07C363.8,-587.22 384.06,-681.36 438,-733.5 439.11,-734.57 440.29,-735.58 441.52,-736.53"/>
<polygon fill="#63b8ff" stroke="#63b8ff" points="439.97,-739.69 450.31,-742 443.67,-733.74 439.97,-739.69"/>
</a>
</g>
</g>
<!-- Node11 -->
<g id="Node000011" class="node">
<title>Node11</title>
<g id="a_Node000011"><a xlink:href="code__8008C1D0_8c.html#a663cb8df8b606cf00e361977c9d6d834" target="_top" xlink:title=" ">
<polygon fill="white" stroke="#666666" points="531,-724 438,-724 438,-705 531,-705 531,-724"/>
<text text-anchor="middle" x="484.5" y="-712" font-family="Helvetica,sans-Serif" font-size="10.00">func_8008D3B0</text>
</a>
</g>
</g>
<!-- Node7&#45;&gt;Node11 -->
<g id="edge10_Node000007_Node000011" class="edge">
<title>Node7&#45;&gt;Node11</title>
<g id="a_edge10_Node000007_Node000011"><a xlink:title=" ">
<path fill="none" stroke="#63b8ff" d="M359.75,-557.35C367.57,-583.61 392.37,-656.09 438,-696.5 439.31,-697.66 440.71,-698.75 442.16,-699.78"/>
<polygon fill="#63b8ff" stroke="#63b8ff" points="440.63,-702.94 451.04,-704.95 444.16,-696.89 440.63,-702.94"/>
</a>
</g>
</g>
<!-- Node12 -->
<g id="Node000012" class="node">
<title>Node12</title>
<g id="a_Node000012"><a xlink:href="code__8008C1D0_8c.html#ae7bb91110e710a8f32fcd4c56c56f934" target="_top" xlink:title=" ">
<polygon fill="white" stroke="#666666" points="530.5,-687 438.5,-687 438.5,-668 530.5,-668 530.5,-687"/>
<text text-anchor="middle" x="484.5" y="-675" font-family="Helvetica,sans-Serif" font-size="10.00">func_8008D554</text>
</a>
</g>
</g>
<!-- Node7&#45;&gt;Node12 -->
<g id="edge11_Node000007_Node000012" class="edge">
<title>Node7&#45;&gt;Node12</title>
<g id="a_edge11_Node000007_Node000012"><a xlink:title=" ">
<path fill="none" stroke="#63b8ff" d="M361.49,-557.01C371.98,-578.26 400.11,-630.05 438,-659.5 439.61,-660.75 441.32,-661.93 443.09,-663.03"/>
<polygon fill="#63b8ff" stroke="#63b8ff" points="441.88,-666.35 452.35,-667.94 445.16,-660.16 441.88,-666.35"/>
</a>
</g>
</g>
<!-- Node13 -->
<g id="Node000013" class="node">
<title>Node13</title>
<g id="a_Node000013"><a xlink:href="code__8008C1D0_8c.html#a5f19eaaa048055d292d02c717e635786" target="_top" xlink:title=" ">
<polygon fill="white" stroke="#666666" points="530.5,-650 438.5,-650 438.5,-631 530.5,-631 530.5,-650"/>
<text text-anchor="middle" x="484.5" y="-638" font-family="Helvetica,sans-Serif" font-size="10.00">func_8008D760</text>
</a>
</g>
</g>
<!-- Node7&#45;&gt;Node13 -->
<g id="edge12_Node000007_Node000013" class="edge">
<title>Node7&#45;&gt;Node13</title>
<g id="a_edge12_Node000007_Node000013"><a xlink:title=" ">
<path fill="none" stroke="#63b8ff" d="M365.54,-557.5C379.37,-573.19 408.16,-603.71 438,-622.5 440.28,-623.94 442.69,-625.29 445.17,-626.57"/>
<polygon fill="#63b8ff" stroke="#63b8ff" points="443.77,-629.77 454.32,-630.82 446.72,-623.43 443.77,-629.77"/>
</a>
</g>
</g>
<!-- Node14 -->
<g id="Node000014" class="node">
<title>Node14</title>
<g id="a_Node000014"><a xlink:href="code__8008C1D0_8c.html#a4ea2da0616ee3c475e4be217dc0bc71f" target="_top" xlink:title=" ">
<polygon fill="white" stroke="#666666" points="531,-613 438,-613 438,-594 531,-594 531,-613"/>
<text text-anchor="middle" x="484.5" y="-601" font-family="Helvetica,sans-Serif" font-size="10.00">func_8008D97C</text>
</a>
</g>
</g>
<!-- Node7&#45;&gt;Node14 -->
<g id="edge13_Node000007_Node000014" class="edge">
<title>Node7&#45;&gt;Node14</title>
<g id="a_edge13_Node000007_Node000014"><a xlink:title=" ">
<path fill="none" stroke="#63b8ff" d="M376.49,-557.06C392.8,-564.96 416.75,-576.32 438,-585.5 441.48,-587 445.13,-588.53 448.78,-590.02"/>
<polygon fill="#63b8ff" stroke="#63b8ff" points="447.77,-593.39 458.35,-593.87 450.38,-586.89 447.77,-593.39"/>
</a>
</g>
</g>
<!-- Node15 -->
<g id="Node000015" class="node">
<title>Node15</title>
<g id="a_Node000015"><a xlink:href="code__8008C1D0_8c.html#a4a437d6caeeaa794bcce43ec60c097e9" target="_top" xlink:title=" ">
<polygon fill="white" stroke="#666666" points="530,-576 439,-576 439,-557 530,-557 530,-576"/>
<text text-anchor="middle" x="484.5" y="-564" font-family="Helvetica,sans-Serif" font-size="10.00">func_8008E884</text>
</a>
</g>
</g>
<!-- Node7&#45;&gt;Node15 -->
<g id="edge14_Node000007_Node000015" class="edge">
<title>Node7&#45;&gt;Node15</title>
<g id="a_edge14_Node000007_Node000015"><a xlink:title=" ">
<path fill="none" stroke="#63b8ff" d="M402.31,-554.31C410.97,-555.61 420.11,-556.98 429.01,-558.32"/>
<polygon fill="#63b8ff" stroke="#63b8ff" points="428.52,-561.78 438.93,-559.81 429.56,-554.86 428.52,-561.78"/>
</a>
</g>
</g>
<!-- Node16 -->
<g id="Node000016" class="node">
<title>Node16</title>
<g id="a_Node000016"><a xlink:href="code__8008C1D0_8c.html#a4e2c6d0ba50b7c13695f74f1c2bc7b18" target="_top" xlink:title=" ">
<polygon fill="white" stroke="#666666" points="530.5,-539 438.5,-539 438.5,-520 530.5,-520 530.5,-539"/>
<text text-anchor="middle" x="484.5" y="-527" font-family="Helvetica,sans-Serif" font-size="10.00">func_8008EC34</text>
</a>
</g>
</g>
<!-- Node7&#45;&gt;Node16 -->
<g id="edge15_Node000007_Node000016" class="edge">
<title>Node7&#45;&gt;Node16</title>
<g id="a_edge15_Node000007_Node000016"><a xlink:title=" ">
<path fill="none" stroke="#63b8ff" d="M402.31,-541.05C410.67,-539.86 419.48,-538.61 428.1,-537.38"/>
<polygon fill="#63b8ff" stroke="#63b8ff" points="428.67,-540.84 438.08,-535.96 427.69,-533.91 428.67,-540.84"/>
</a>
</g>
</g>
<!-- Node17 -->
<g id="Node000017" class="node">
<title>Node17</title>
<g id="a_Node000017"><a xlink:href="code__8008C1D0_8c.html#ae48f5d9507d1966754bc1aa1bddc4136" target="_top" xlink:title=" ">
<polygon fill="white" stroke="#666666" points="530.5,-502 438.5,-502 438.5,-483 530.5,-483 530.5,-502"/>
<text text-anchor="middle" x="484.5" y="-490" font-family="Helvetica,sans-Serif" font-size="10.00">func_8008EEC4</text>
</a>
</g>
</g>
<!-- Node7&#45;&gt;Node17 -->
<g id="edge16_Node000007_Node000017" class="edge">
<title>Node7&#45;&gt;Node17</title>
<g id="a_edge16_Node000007_Node000017"><a xlink:title=" ">
<path fill="none" stroke="#63b8ff" d="M378.26,-537.89C394.56,-530.56 417.65,-520.27 438,-511.5 442.18,-509.7 446.59,-507.82 450.95,-505.99"/>
<polygon fill="#63b8ff" stroke="#63b8ff" points="452.44,-509.16 460.31,-502.06 449.73,-502.7 452.44,-509.16"/>
</a>
</g>
</g>
<!-- Node18 -->
<g id="Node000018" class="node">
<title>Node18</title>
<g id="a_Node000018"><a xlink:href="code__8008C1D0_8c.html#a77e26f2cff6381f9ba1575f8da060571" target="_top" xlink:title=" ">
<polygon fill="white" stroke="#666666" points="530,-465 439,-465 439,-446 530,-446 530,-465"/>
<text text-anchor="middle" x="484.5" y="-453" font-family="Helvetica,sans-Serif" font-size="10.00">func_8008F0E8</text>
</a>
</g>
</g>
<!-- Node7&#45;&gt;Node18 -->
<g id="edge17_Node000007_Node000018" class="edge">
<title>Node7&#45;&gt;Node18</title>
<g id="a_edge17_Node000007_Node000018"><a xlink:title=" ">
<path fill="none" stroke="#63b8ff" d="M365.63,-537.85C379.6,-522.69 408.57,-493.14 438,-474.5 440.82,-472.71 443.84,-471.03 446.93,-469.46"/>
<polygon fill="#63b8ff" stroke="#63b8ff" points="448.69,-472.5 456.28,-465.1 445.74,-466.15 448.69,-472.5"/>
</a>
</g>
</g>
<!-- Node19 -->
<g id="Node000019" class="node">
<title>Node19</title>
<g id="a_Node000019"><a xlink:href="code__8008C1D0_8c.html#ae02351b6bbb678b552ec8864b47fc56c" target="_top" xlink:title=" ">
<polygon fill="white" stroke="#666666" points="530,-428 439,-428 439,-409 530,-409 530,-428"/>
<text text-anchor="middle" x="484.5" y="-416" font-family="Helvetica,sans-Serif" font-size="10.00">func_8008F3E0</text>
</a>
</g>
</g>
<!-- Node7&#45;&gt;Node19 -->
<g id="edge18_Node000007_Node000019" class="edge">
<title>Node7&#45;&gt;Node19</title>
<g id="a_edge18_Node000007_Node000019"><a xlink:title=" ">
<path fill="none" stroke="#63b8ff" d="M361.74,-537.9C372.53,-516.95 400.89,-466.65 438,-437.5 440.06,-435.88 442.28,-434.38 444.59,-432.98"/>
<polygon fill="#63b8ff" stroke="#63b8ff" points="446.58,-435.9 453.81,-428.15 443.33,-429.7 446.58,-435.9"/>
</a>
</g>
</g>
<!-- Node20 -->
<g id="Node000020" class="node">
<title>Node20</title>
<g id="a_Node000020"><a xlink:href="code__8008C1D0_8c.html#afcf39ca15166fb7561402462930cd979" target="_top" xlink:title=" ">
<polygon fill="white" stroke="#666666" points="530.5,-391 438.5,-391 438.5,-372 530.5,-372 530.5,-391"/>
<text text-anchor="middle" x="484.5" y="-379" font-family="Helvetica,sans-Serif" font-size="10.00">func_8008F5A4</text>
</a>
</g>
</g>
<!-- Node7&#45;&gt;Node20 -->
<g id="edge19_Node000007_Node000020" class="edge">
<title>Node7&#45;&gt;Node20</title>
<g id="a_edge19_Node000007_Node000020"><a xlink:title=" ">
<path fill="none" stroke="#63b8ff" d="M359.83,-537.83C367.86,-512.03 393.11,-440.79 438,-400.5 439.71,-398.97 441.56,-397.55 443.5,-396.23"/>
<polygon fill="#63b8ff" stroke="#63b8ff" points="445.51,-399.12 452.46,-391.13 442.04,-393.04 445.51,-399.12"/>
</a>
</g>
</g>
<!-- Node21 -->
<g id="Node000021" class="node">
<title>Node21</title>
<g id="a_Node000021"><a xlink:href="code__8008C1D0_8c.html#ab6d84742231847170dd64267f0519cdf" target="_top" xlink:title=" ">
<polygon fill="white" stroke="#666666" points="531,-354 438,-354 438,-335 531,-335 531,-354"/>
<text text-anchor="middle" x="484.5" y="-342" font-family="Helvetica,sans-Serif" font-size="10.00">func_8008FEDC</text>
</a>
</g>
</g>
<!-- Node7&#45;&gt;Node21 -->
<g id="edge21_Node000007_Node000021" class="edge">
<title>Node7&#45;&gt;Node21</title>
<g id="a_edge21_Node000007_Node000021"><a xlink:title=" ">
<path fill="none" stroke="#63b8ff" d="M358.67,-537.65C364.29,-507.5 385.18,-415.32 438,-363.5 439.47,-362.06 441.06,-360.73 442.74,-359.49"/>
<polygon fill="#63b8ff" stroke="#63b8ff" points="444.97,-362.23 451.71,-354.06 441.34,-356.24 444.97,-362.23"/>
</a>
</g>
</g>
<!-- Node20&#45;&gt;Node3 -->
<g id="edge20_Node000020_Node000003" class="edge">
<title>Node20&#45;&gt;Node3</title>
<g id="a_edge20_Node000020_Node000003"><a xlink:title=" ">
<path fill="none" stroke="#63b8ff" d="M530.81,-381.5C539.08,-381.5 547.79,-381.5 556.31,-381.5"/>
<polygon fill="#63b8ff" stroke="#63b8ff" points="556.58,-385 566.58,-381.5 556.58,-378 556.58,-385"/>
</a>
</g>
</g>
<!-- Node22&#45;&gt;Node7 -->
<g id="edge23_Node000022_Node000007" class="edge">
<title>Node22&#45;&gt;Node7</title>
<g id="a_edge23_Node000022_Node000007"><a xlink:title=" ">
<path fill="none" stroke="#63b8ff" d="M208.9,-355.24C233.12,-387.11 310.2,-488.54 341.55,-529.8"/>
<polygon fill="#63b8ff" stroke="#63b8ff" points="338.83,-532.01 347.67,-537.85 344.41,-527.78 338.83,-532.01"/>
</a>
</g>
</g>
<!-- Node23 -->
<g id="Node000023" class="node">
<title>Node23</title>
<g id="a_Node000023"><a xlink:href="external_8c.html#a1a1bdc0f5d3b6fd4a86b9d62e93a076e" target="_top" xlink:title=" ">
<polygon fill="white" stroke="#666666" points="530.5,-317 438.5,-317 438.5,-298 530.5,-298 530.5,-317"/>
<text text-anchor="middle" x="484.5" y="-305" font-family="Helvetica,sans-Serif" font-size="10.00">func_800C90F4</text>
</a>
</g>
</g>
<!-- Node22&#45;&gt;Node23 -->
<g id="edge24_Node000022_Node000023" class="edge">
<title>Node22&#45;&gt;Node23</title>
<g id="a_edge24_Node000022_Node000023"><a xlink:title=" ">
<path fill="none" stroke="#63b8ff" d="M246.32,-342.98C287.1,-340.29 348.86,-335.17 402,-326.5 413.53,-324.62 425.87,-322.04 437.36,-319.4"/>
<polygon fill="#63b8ff" stroke="#63b8ff" points="438.27,-322.78 447.2,-317.07 436.66,-315.96 438.27,-322.78"/>
</a>
</g>
</g>
<!-- Node23&#45;&gt;Node6 -->
<g id="edge25_Node000023_Node000006" class="edge">
<title>Node23&#45;&gt;Node6</title>
<g id="a_edge25_Node000023_Node000006"><a xlink:title=" ">
<path fill="none" stroke="#63b8ff" d="M530.55,-309.79C602.3,-313.44 741.76,-320.54 813.68,-324.19"/>
<polygon fill="#63b8ff" stroke="#63b8ff" points="813.62,-327.7 823.78,-324.71 813.97,-320.7 813.62,-327.7"/>
</a>
</g>
</g>
<!-- Node25 -->
<g id="Node000025" class="node">
<title>Node25</title>
<g id="a_Node000025"><a xlink:href="external_8c.html#aa00f6fbb1195ee18da20e61bd6ef5d97" target="_top" xlink:title=" ">
<polygon fill="white" stroke="#666666" points="402,-317 310,-317 310,-298 402,-298 402,-317"/>
<text text-anchor="middle" x="356" y="-305" font-family="Helvetica,sans-Serif" font-size="10.00">func_800CB064</text>
</a>
</g>
</g>
<!-- Node24&#45;&gt;Node25 -->
<g id="edge27_Node000024_Node000025" class="edge">
<title>Node24&#45;&gt;Node25</title>
<g id="a_edge27_Node000024_Node000025"><a xlink:title=" ">
<path fill="none" stroke="#63b8ff" d="M246.72,-307.5C263.36,-307.5 282.38,-307.5 299.8,-307.5"/>
<polygon fill="#63b8ff" stroke="#63b8ff" points="299.83,-311 309.83,-307.5 299.83,-304 299.83,-311"/>
</a>
</g>
</g>
<!-- Node25&#45;&gt;Node23 -->
<g id="edge31_Node000025_Node000023" class="edge">
<title>Node25&#45;&gt;Node23</title>
<g id="a_edge31_Node000025_Node000023"><a xlink:title=" ">
<path fill="none" stroke="#63b8ff" d="M402.31,-307.5C410.58,-307.5 419.29,-307.5 427.81,-307.5"/>
<polygon fill="#63b8ff" stroke="#63b8ff" points="428.08,-311 438.08,-307.5 428.08,-304 428.08,-311"/>
</a>
</g>
</g>
<!-- Node26 -->
<g id="Node000026" class="node">
<title>Node26</title>
<g id="a_Node000026"><a xlink:href="external_8c.html#ad79a8b3dfe27cebca94c2d9e2cc54d2b" target="_top" xlink:title=" ">
<polygon fill="white" stroke="#666666" points="530.5,-280 438.5,-280 438.5,-261 530.5,-261 530.5,-280"/>
<text text-anchor="middle" x="484.5" y="-268" font-family="Helvetica,sans-Serif" font-size="10.00">func_800C36C4</text>
</a>
</g>
</g>
<!-- Node25&#45;&gt;Node26 -->
<g id="edge28_Node000025_Node000026" class="edge">
<title>Node25&#45;&gt;Node26</title>
<g id="a_edge28_Node000025_Node000026"><a xlink:title=" ">
<path fill="none" stroke="#63b8ff" d="M389.58,-297.97C405.1,-293.43 423.87,-287.94 440.53,-283.07"/>
<polygon fill="#63b8ff" stroke="#63b8ff" points="441.98,-286.29 450.59,-280.12 440.01,-279.57 441.98,-286.29"/>
</a>
</g>
</g>
<!-- Node25&#45;&gt;Node27 -->
<g id="edge29_Node000025_Node000027" class="edge">
<title>Node25&#45;&gt;Node27</title>
<g id="a_edge29_Node000025_Node000027"><a xlink:title=" ">
<path fill="none" stroke="#63b8ff" d="M377.27,-297.9C385.21,-293.83 394.26,-288.8 402,-283.5 419.42,-271.57 420.04,-263.59 438,-252.5 440.84,-250.75 443.87,-249.09 446.97,-247.53"/>
<polygon fill="#63b8ff" stroke="#63b8ff" points="448.73,-250.57 456.34,-243.19 445.79,-244.22 448.73,-250.57"/>
</a>
</g>
</g>
<!-- Node28 -->
<g id="Node000028" class="node">
<title>Node28</title>
<g id="a_Node000028"><a xlink:href="external_8h.html#a69165d21844ba08a94405ec729d386d4" target="_top" xlink:title=" ">
<polygon fill="white" stroke="#666666" points="659,-243 567,-243 567,-224 659,-224 659,-243"/>
<text text-anchor="middle" x="613" y="-231" font-family="Helvetica,sans-Serif" font-size="10.00">func_800C5578</text>
</a>
</g>
</g>
<!-- Node27&#45;&gt;Node28 -->
<g id="edge30_Node000027_Node000028" class="edge">
<title>Node27&#45;&gt;Node28</title>
<g id="a_edge30_Node000027_Node000028"><a xlink:title=" ">
<path fill="none" stroke="#63b8ff" d="M530.81,-233.5C539.08,-233.5 547.79,-233.5 556.31,-233.5"/>
<polygon fill="#63b8ff" stroke="#63b8ff" points="556.58,-237 566.58,-233.5 556.58,-230 556.58,-237"/>
</a>
</g>
</g>
<!-- Node33 -->
<g id="Node000033" class="node">
<title>Node33</title>
<g id="a_Node000033"><a xlink:href="math__util_8c.html#aaa39a297477f56051975259f4bddd829" target="_top" xlink:title=" ">
<polygon fill="white" stroke="#666666" points="381,-130 331,-130 331,-111 381,-111 381,-130"/>
<text text-anchor="middle" x="356" y="-118" font-family="Helvetica,sans-Serif" font-size="10.00">atan2s</text>
</a>
</g>
</g>
<!-- Node32&#45;&gt;Node33 -->
<g id="edge37_Node000032_Node000033" class="edge">
<title>Node32&#45;&gt;Node33</title>
<g id="a_edge37_Node000032_Node000033"><a xlink:title=" ">
<path fill="none" stroke="#63b8ff" d="M274.2,-120.5C290.51,-120.5 307.05,-120.5 320.89,-120.5"/>
<polygon fill="#63b8ff" stroke="#63b8ff" points="320.89,-124 330.89,-120.5 320.89,-117 320.89,-124"/>
</a>
</g>
</g>
<!-- Node34 -->
<g id="Node000034" class="node">
<title>Node34</title>
<g id="a_Node000034"><a xlink:href="math__util_8c.html#a0273b0ea0783a06996c28669a7438ed9" target="_top" xlink:title=" ">
<polygon fill="white" stroke="#666666" points="525.5,-130 443.5,-130 443.5,-111 525.5,-111 525.5,-130"/>
<text text-anchor="middle" x="484.5" y="-118" font-family="Helvetica,sans-Serif" font-size="10.00">atan2_lookup</text>
</a>
</g>
</g>
<!-- Node33&#45;&gt;Node34 -->
<g id="edge38_Node000033_Node000034" class="edge">
<title>Node33&#45;&gt;Node34</title>
<g id="a_edge38_Node000033_Node000034"><a xlink:title=" ">
<path fill="none" stroke="#63b8ff" d="M381.09,-120.5C395.84,-120.5 415.28,-120.5 433.25,-120.5"/>
<polygon fill="#63b8ff" stroke="#63b8ff" points="433.33,-124 443.33,-120.5 433.33,-117 433.33,-124"/>
</a>
</g>
</g>
</g>
</svg>

<g id="navigator" transform="translate(0 0)" fill="#404254">
  <rect fill="#f2f5e9" fill-opacity="0.5" stroke="#606060" stroke-width=".5" x="0" y="0" width="60" height="60"/>
  <use id="zoomplus" xlink:href="#zoomPlus" x="17" y="9" onmousedown="handleZoom(evt,'in')"/>
  <use id="zoomminus" xlink:href="#zoomMin" x="42" y="9" onmousedown="handleZoom(evt,'out')"/>
  <use id="reset" xlink:href="#resetDef" x="30" y="36" onmousedown="handleReset()"/>
   <use id="arrowup" xlink:href="#arrowUp" x="0" y="0" onmousedown="handlePan(0,-1)"/>
  <use id="arrowright" xlink:href="#arrowRight" x="0" y="0" onmousedown="handlePan(1,0)"/>
  <use id="arrowdown" xlink:href="#arrowDown" x="0" y="0" onmousedown="handlePan(0,1)"/>
  <use id="arrowleft" xlink:href="#arrowLeft" x="0" y="0" onmousedown="handlePan(-1,0)"/>
</g>
<svg viewBox="0 0 15 15" width="100%" height="30px" preserveAspectRatio="xMaxYMin meet">
 <g id="arrow_out" transform="scale(0.3 0.3)">
  <a xlink:href="code__8008C1D0_8c_a2f6824139333e232c4aad8621d00cdee_cgraph_org.svg" target="_base">
   <rect id="button" ry="5" rx="5" y="6" x="6" height="38" width="38"
        fill="#f2f5e9" fill-opacity="0.5" stroke="#606060" stroke-width="1.0"/>
   <path id="arrow"
     d="M 11.500037,31.436501 C 11.940474,20.09759 22.043105,11.32322 32.158766,21.979434 L 37.068811,17.246167 C 37.068811,17.246167 37.088388,32 37.088388,32 L 22.160133,31.978069 C 22.160133,31.978069 26.997745,27.140456 26.997745,27.140456 C 18.528582,18.264221 13.291696,25.230495 11.500037,31.436501 z"
     style="fill:#404040;"/>
  </a>
 </g>
</svg>

<style type='text/css'>
<![CDATA[
[data-mouse-over-selected='false'] { opacity: 0.7; }
[data-mouse-over-selected='true']  { opacity: 1.0; }
]]>
</style>
<script type="application/ecmascript"><![CDATA[
document.addEventListener('DOMContentLoaded', (event) => {
  highlightEdges();
  highlightAdjacentNodes();
});
]]></script>
</svg>
