<?xml version="1.0" encoding="UTF-8" standalone="no"?>
<!DOCTYPE svg PUBLIC "-//W3C//DTD SVG 1.1//EN"
 "http://www.w3.org/Graphics/SVG/1.1/DTD/svg11.dtd">
<!-- Generated by graphviz version 2.43.0 (0)
 -->
<!-- Title: func_8008F650 Pages: 1 -->
<svg width="487pt" height="312pt"
 viewBox="0.00 0.00 487.00 311.55" xmlns="http://www.w3.org/2000/svg" xmlns:xlink="http://www.w3.org/1999/xlink">

<svg id="main" version="1.1" xmlns="http://www.w3.org/2000/svg" xmlns:xlink="http://www.w3.org/1999/xlink" xml:space="preserve" onload="init(evt)">
<style type="text/css"><![CDATA[
.node, .edge {opacity: 0.7;}
.node.selected, .edge.selected {opacity: 1;}
.edge:hover path { stroke: red; }
.edge:hover polygon { stroke: red; fill: red; }
]]></style>
<script type="application/ecmascript" xlink:href="svg.min.js"/>
<svg id="graph" class="graph">
<g id="graph0" class="graph" transform="scale(1 1) rotate(0) translate(4 307.55)">
<title>func_8008F650</title>
<!-- Node1 -->
<g id="Node000001" class="node">
<title>Node1</title>
<g id="a_Node000001"><a xlink:title=" ">
<polygon fill="#999999" stroke="#666666" points="91,-113 0,-113 0,-94 91,-94 91,-113"/>
<text text-anchor="middle" x="45.5" y="-101" font-family="Helvetica,sans-Serif" font-size="10.00">func_8008F650</text>
</a>
</g>
</g>
<!-- Node2 -->
<g id="Node000002" class="node">
<title>Node2</title>
<g id="a_Node000002"><a xlink:href="external_8c.html#ac32b332e8b9a73af543741393186060d" target="_top" xlink:title=" ">
<polygon fill="white" stroke="#666666" points="220.5,-187 128.5,-187 128.5,-168 220.5,-168 220.5,-187"/>
<text text-anchor="middle" x="174.5" y="-175" font-family="Helvetica,sans-Serif" font-size="10.00">func_800CA730</text>
</a>
</g>
</g>
<!-- Node1&#45;&gt;Node2 -->
<g id="edge1_Node000001_Node000002" class="edge">
<title>Node1&#45;&gt;Node2</title>
<g id="a_edge1_Node000001_Node000002"><a xlink:title=" ">
<path fill="none" stroke="#63b8ff" d="M62.84,-113.02C84.44,-125.61 122.72,-147.91 148.1,-162.7"/>
<polygon fill="#63b8ff" stroke="#63b8ff" points="146.41,-165.77 156.82,-167.78 149.94,-159.72 146.41,-165.77"/>
</a>
</g>
</g>
<!-- Node11 -->
<g id="Node000011" class="node">
<title>Node11</title>
<g id="a_Node000011"><a xlink:href="external_8c.html#a3138069310bbed5109964d607d51811f" target="_top" xlink:title=" ">
<polygon fill="white" stroke="#666666" points="222,-57 127,-57 127,-38 222,-38 222,-57"/>
<text text-anchor="middle" x="174.5" y="-45" font-family="Helvetica,sans-Serif" font-size="10.00">func_800CAACC</text>
</a>
</g>
</g>
<!-- Node1&#45;&gt;Node11 -->
<g id="edge11_Node000001_Node000011" class="edge">
<title>Node1&#45;&gt;Node11</title>
<g id="a_edge11_Node000001_Node000011"><a xlink:title=" ">
<path fill="none" stroke="#63b8ff" d="M68.33,-93.87C88.81,-84.84 119.64,-71.25 142.63,-61.11"/>
<polygon fill="#63b8ff" stroke="#63b8ff" points="144.21,-64.24 151.95,-57 141.39,-57.83 144.21,-64.24"/>
</a>
</g>
</g>
<!-- Node3 -->
<g id="Node000003" class="node">
<title>Node3</title>
<g id="a_Node000003"><a xlink:href="external_8c.html#ac48b7cbfcaa7737f892877ead85e4ba7" target="_top" xlink:title=" ">
<polygon fill="white" stroke="#666666" points="479,-187 387,-187 387,-168 479,-168 479,-187"/>
<text text-anchor="middle" x="433" y="-175" font-family="Helvetica,sans-Serif" font-size="10.00">func_800C3448</text>
</a>
</g>
</g>
<!-- Node2&#45;&gt;Node3 -->
<g id="edge2_Node000002_Node000003" class="edge">
<title>Node2&#45;&gt;Node3</title>
<g id="a_edge2_Node000002_Node000003"><a xlink:title=" ">
<path fill="none" stroke="#63b8ff" d="M179.02,-187.07C188.01,-209.92 214.25,-267.39 258,-289.5 294.89,-308.14 314.19,-308.31 351,-289.5 389.3,-269.93 413.67,-222.88 424.85,-196.4"/>
<polygon fill="#63b8ff" stroke="#63b8ff" points="428.12,-197.65 428.6,-187.06 421.62,-195.04 428.12,-197.65"/>
</a>
</g>
</g>
<!-- Node4 -->
<g id="Node000004" class="node">
<title>Node4</title>
<g id="a_Node000004"><a xlink:href="external_8c.html#ab2ecda68e1fb6f957aafd4c5742e2f63" target="_top" xlink:title=" ">
<polygon fill="white" stroke="#666666" points="350.5,-280 258.5,-280 258.5,-261 350.5,-261 350.5,-280"/>
<text text-anchor="middle" x="304.5" y="-268" font-family="Helvetica,sans-Serif" font-size="10.00">func_800C3508</text>
</a>
</g>
</g>
<!-- Node2&#45;&gt;Node4 -->
<g id="edge3_Node000002_Node000004" class="edge">
<title>Node2&#45;&gt;Node4</title>
<g id="a_edge3_Node000002_Node000004"><a xlink:title=" ">
<path fill="none" stroke="#63b8ff" d="M184.23,-187.49C198.38,-203.16 227.77,-233.66 258,-252.5 260.43,-254.02 263.02,-255.45 265.67,-256.78"/>
<polygon fill="#63b8ff" stroke="#63b8ff" points="264.27,-259.99 274.82,-260.98 267.19,-253.63 264.27,-259.99"/>
</a>
</g>
</g>
<!-- Node5 -->
<g id="Node000005" class="node">
<title>Node5</title>
<g id="a_Node000005"><a xlink:href="external_8c.html#a2aea7abf056e029f247b18edb62aa218" target="_top" xlink:title=" ">
<polygon fill="white" stroke="#666666" points="350.5,-243 258.5,-243 258.5,-224 350.5,-224 350.5,-243"/>
<text text-anchor="middle" x="304.5" y="-231" font-family="Helvetica,sans-Serif" font-size="10.00">func_800C357C</text>
</a>
</g>
</g>
<!-- Node2&#45;&gt;Node5 -->
<g id="edge4_Node000002_Node000005" class="edge">
<title>Node2&#45;&gt;Node5</title>
<g id="a_edge4_Node000002_Node000005"><a xlink:title=" ">
<path fill="none" stroke="#63b8ff" d="M195.37,-187.02C211.99,-194.9 236.4,-206.26 258,-215.5 261.49,-216.99 265.14,-218.51 268.79,-220"/>
<polygon fill="#63b8ff" stroke="#63b8ff" points="267.78,-223.36 278.37,-223.84 270.39,-216.87 267.78,-223.36"/>
</a>
</g>
</g>
<!-- Node6 -->
<g id="Node000006" class="node">
<title>Node6</title>
<g id="a_Node000006"><a xlink:href="external_8c.html#aea29af4ab009f59caa57f45987b0ea86" target="_top" xlink:title=" ">
<polygon fill="white" stroke="#666666" points="350.5,-206 258.5,-206 258.5,-187 350.5,-187 350.5,-206"/>
<text text-anchor="middle" x="304.5" y="-194" font-family="Helvetica,sans-Serif" font-size="10.00">func_800C3608</text>
</a>
</g>
</g>
<!-- Node2&#45;&gt;Node6 -->
<g id="edge5_Node000002_Node000006" class="edge">
<title>Node2&#45;&gt;Node6</title>
<g id="a_edge5_Node000002_Node000006"><a xlink:title=" ">
<path fill="none" stroke="#63b8ff" d="M220.63,-184.2C229.61,-185.53 239.14,-186.95 248.42,-188.32"/>
<polygon fill="#63b8ff" stroke="#63b8ff" points="247.94,-191.79 258.35,-189.8 248.97,-184.87 247.94,-191.79"/>
</a>
</g>
</g>
<!-- Node7 -->
<g id="Node000007" class="node">
<title>Node7</title>
<g id="a_Node000007"><a xlink:href="external_8c.html#afcb6c1c892ff72b06f548327e6e21586" target="_top" xlink:title=" ">
<polygon fill="white" stroke="#666666" points="351,-169 258,-169 258,-150 351,-150 351,-169"/>
<text text-anchor="middle" x="304.5" y="-157" font-family="Helvetica,sans-Serif" font-size="10.00">func_800C8EAC</text>
</a>
</g>
</g>
<!-- Node2&#45;&gt;Node7 -->
<g id="edge6_Node000002_Node000007" class="edge">
<title>Node2&#45;&gt;Node7</title>
<g id="a_edge6_Node000002_Node000007"><a xlink:title=" ">
<path fill="none" stroke="#63b8ff" d="M220.63,-171.15C229.41,-169.92 238.72,-168.61 247.8,-167.33"/>
<polygon fill="#63b8ff" stroke="#63b8ff" points="248.5,-170.77 257.92,-165.91 247.53,-163.84 248.5,-170.77"/>
</a>
</g>
</g>
<!-- Node8 -->
<g id="Node000008" class="node">
<title>Node8</title>
<g id="a_Node000008"><a xlink:href="external_8c.html#a77dd28bb660c9e64fef58443fb7a1f0e" target="_top" xlink:title=" ">
<polygon fill="white" stroke="#666666" points="350.5,-132 258.5,-132 258.5,-113 350.5,-113 350.5,-132"/>
<text text-anchor="middle" x="304.5" y="-120" font-family="Helvetica,sans-Serif" font-size="10.00">func_800C9018</text>
</a>
</g>
</g>
<!-- Node2&#45;&gt;Node8 -->
<g id="edge8_Node000002_Node000008" class="edge">
<title>Node2&#45;&gt;Node8</title>
<g id="a_edge8_Node000002_Node000008"><a xlink:title=" ">
<path fill="none" stroke="#63b8ff" d="M197.17,-167.93C213.79,-160.62 237.3,-150.34 258,-141.5 262.19,-139.71 266.6,-137.85 270.96,-136.01"/>
<polygon fill="#63b8ff" stroke="#63b8ff" points="272.45,-139.18 280.32,-132.09 269.75,-132.73 272.45,-139.18"/>
</a>
</g>
</g>
<!-- Node10 -->
<g id="Node000010" class="node">
<title>Node10</title>
<g id="a_Node000010"><a xlink:href="external_8c.html#a62e16f9600e7e9beda2c9d2df10f3561" target="_top" xlink:title=" ">
<polygon fill="white" stroke="#666666" points="340.5,-95 268.5,-95 268.5,-76 340.5,-76 340.5,-95"/>
<text text-anchor="middle" x="304.5" y="-83" font-family="Helvetica,sans-Serif" font-size="10.00">play_sound</text>
</a>
</g>
</g>
<!-- Node2&#45;&gt;Node10 -->
<g id="edge10_Node000002_Node000010" class="edge">
<title>Node2&#45;&gt;Node10</title>
<g id="a_edge10_Node000002_Node000010"><a xlink:title=" ">
<path fill="none" stroke="#63b8ff" d="M184.33,-167.86C198.61,-152.73 228.18,-123.19 258,-104.5 260.83,-102.73 263.85,-101.05 266.94,-99.49"/>
<polygon fill="#63b8ff" stroke="#63b8ff" points="268.71,-102.53 276.3,-95.14 265.76,-96.18 268.71,-102.53"/>
</a>
</g>
</g>
<!-- Node7&#45;&gt;Node3 -->
<g id="edge7_Node000007_Node000003" class="edge">
<title>Node7&#45;&gt;Node3</title>
<g id="a_edge7_Node000007_Node000003"><a xlink:title=" ">
<path fill="none" stroke="#63b8ff" d="M351.17,-166C359.51,-167.19 368.3,-168.44 376.88,-169.66"/>
<polygon fill="#63b8ff" stroke="#63b8ff" points="376.43,-173.13 386.82,-171.07 377.41,-166.2 376.43,-173.13"/>
</a>
</g>
</g>
<!-- Node9 -->
<g id="Node000009" class="node">
<title>Node9</title>
<g id="a_Node000009"><a xlink:href="external_8h.html#a69165d21844ba08a94405ec729d386d4" target="_top" xlink:title=" ">
<polygon fill="white" stroke="#666666" points="479,-113 387,-113 387,-94 479,-94 479,-113"/>
<text text-anchor="middle" x="433" y="-101" font-family="Helvetica,sans-Serif" font-size="10.00">func_800C5578</text>
</a>
</g>
</g>
<!-- Node8&#45;&gt;Node9 -->
<g id="edge9_Node000008_Node000009" class="edge">
<title>Node8&#45;&gt;Node9</title>
<g id="a_edge9_Node000008_Node000009"><a xlink:title=" ">
<path fill="none" stroke="#63b8ff" d="M350.81,-115.69C359.17,-114.44 367.98,-113.12 376.6,-111.82"/>
<polygon fill="#63b8ff" stroke="#63b8ff" points="377.21,-115.27 386.58,-110.32 376.17,-108.35 377.21,-115.27"/>
</a>
</g>
</g>
<!-- Node11&#45;&gt;Node9 -->
<g id="edge13_Node000011_Node000009" class="edge">
<title>Node11&#45;&gt;Node9</title>
<g id="a_edge13_Node000011_Node000009"><a xlink:title=" ">
<path fill="none" stroke="#63b8ff" d="M222.04,-48.95C257.84,-50.99 308.24,-55.86 351,-67.5 369.94,-72.66 390.11,-81.61 405.58,-89.3"/>
<polygon fill="#63b8ff" stroke="#63b8ff" points="404.06,-92.45 414.56,-93.87 407.24,-86.21 404.06,-92.45"/>
</a>
</g>
</g>
<!-- Node12 -->
<g id="Node000012" class="node">
<title>Node12</title>
<g id="a_Node000012"><a xlink:href="external_8c.html#a1c8490eb4720c317dd29ed76a1c4ea32" target="_top" xlink:title=" ">
<polygon fill="white" stroke="#666666" points="350.5,-19 258.5,-19 258.5,0 350.5,0 350.5,-19"/>
<text text-anchor="middle" x="304.5" y="-7" font-family="Helvetica,sans-Serif" font-size="10.00">func_800C21E8</text>
</a>
</g>
</g>
<!-- Node11&#45;&gt;Node12 -->
<g id="edge12_Node000011_Node000012" class="edge">
<title>Node11&#45;&gt;Node12</title>
<g id="a_edge12_Node000011_Node000012"><a xlink:title=" ">
<path fill="none" stroke="#63b8ff" d="M207.8,-37.91C224.02,-33.1 243.88,-27.2 261.29,-22.03"/>
<polygon fill="#63b8ff" stroke="#63b8ff" points="262.62,-25.29 271.21,-19.09 260.63,-18.58 262.62,-25.29"/>
</a>
</g>
</g>
</g>
</svg>
</svg>

<style type='text/css'>
<![CDATA[
[data-mouse-over-selected='false'] { opacity: 0.7; }
[data-mouse-over-selected='true']  { opacity: 1.0; }
]]>
</style>
<script type="application/ecmascript"><![CDATA[
document.addEventListener('DOMContentLoaded', (event) => {
  highlightEdges();
  highlightAdjacentNodes();
});
]]></script>
</svg>
