<?xml version="1.0" encoding="UTF-8" standalone="no"?>
<!DOCTYPE svg PUBLIC "-//W3C//DTD SVG 1.1//EN"
 "http://www.w3.org/Graphics/SVG/1.1/DTD/svg11.dtd">
<!-- Generated by graphviz version 2.43.0 (0)
 -->
<!-- Title: src/code_800029B0.h Pages: 1 -->
<!--zoomable 203 -->

<svg id="main" version="1.1" xmlns="http://www.w3.org/2000/svg" xmlns:xlink="http://www.w3.org/1999/xlink" xml:space="preserve" onload="init(evt)">
<style type="text/css"><![CDATA[
.node, .edge {opacity: 0.7;}
.node.selected, .edge.selected {opacity: 1;}
.edge:hover path { stroke: red; }
.edge:hover polygon { stroke: red; fill: red; }
]]></style>

<defs>
  <circle id="rim" cx="0" cy="0" r="7"/>
  <circle id="rim2" cx="0" cy="0" r="3.5"/>
  <g id="zoomPlus">
    <use xlink:href="#rim" fill="#404040"><set attributeName="fill" to="#808080" begin="zoomplus.mouseover" end="zoomplus.mouseout"/></use>
    <path d="M-4,0h8M0,-4v8" fill="none" stroke="white" stroke-width="1.5" pointer-events="none"/>
  </g>
  <g id="zoomMin">
    <use xlink:href="#rim" fill="#404040"><set attributeName="fill" to="#808080" begin="zoomminus.mouseover" end="zoomminus.mouseout"/></use>
    <path d="M-4,0h8" fill="none" stroke="white" stroke-width="1.5" pointer-events="none"/>
  </g>
  <g id="arrowUp" transform="translate(30 24)">
    <use xlink:href="#rim"/>
    <path pointer-events="none" fill="none" stroke="white" stroke-width="1.5" d="M0,-3.0v7 M-2.5,-0.5L0,-3.0L2.5,-0.5"/>
  </g>
  <g id="arrowRight" transform="rotate(90) translate(36 -43)">
    <use xlink:href="#rim"/>
    <path pointer-events="none" fill="none" stroke="white" stroke-width="1.5" d="M0,-3.0v7 M-2.5,-0.5L0,-3.0L2.5,-0.5"/>
  </g>
  <g id="arrowDown" transform="rotate(180) translate(-30 -48)">
    <use xlink:href="#rim"/>
    <path pointer-events="none" fill="none" stroke="white" stroke-width="1.5" d="M0,-3.0v7 M-2.5,-0.5L0,-3.0L2.5,-0.5"/>
  </g>
  <g id="arrowLeft" transform="rotate(270) translate(-36 17)">
    <use xlink:href="#rim"/>
    <path pointer-events="none" fill="none" stroke="white" stroke-width="1.5" d="M0,-3.0v7 M-2.5,-0.5L0,-3.0L2.5,-0.5"/>
  </g>
  <g id="resetDef">
    <use xlink:href="#rim2" fill="#404040"><set attributeName="fill" to="#808080" begin="reset.mouseover" end="reset.mouseout"/></use>
  </g>
</defs>
<script type="application/ecmascript">
var viewWidth = 3999;
var viewHeight = 203;
var sectionId = 'dynsection-1';
</script>
<script type="application/ecmascript" xlink:href="svg.min.js"/>
<svg id="graph" class="graph">
<g id="viewport">
<title>src/code_800029B0.h</title>
<!-- Node1 -->
<g id="Node000001" class="node">
<title>Node1</title>
<g id="a_Node000001"><a xlink:title=" ">
<polygon fill="#999999" stroke="#666666" points="1959,-195 1839,-195 1839,-176 1959,-176 1959,-195"/>
<text text-anchor="middle" x="1899" y="-183" font-family="Helvetica,sans-Serif" font-size="10.00">src/code_800029B0.h</text>
</a>
</g>
</g>
<!-- Node2 -->
<g id="Node000002" class="node">
<title>Node2</title>
<g id="a_Node000002"><a xlink:href="banana_2render_8inc_8c.html" target="_top" xlink:title=" ">
<polygon fill="white" stroke="#666666" points="162,-134.5 0,-134.5 0,-115.5 162,-115.5 162,-134.5"/>
<text text-anchor="middle" x="81" y="-122.5" font-family="Helvetica,sans-Serif" font-size="10.00">src/actors/banana/render.inc.c</text>
</a>
</g>
</g>
<!-- Node1&#45;&gt;Node2 -->
<g id="edge1_Node000001_Node000002" class="edge">
<title>Node1&#45;&gt;Node2</title>
<g id="a_edge1_Node000001_Node000002"><a xlink:title=" ">
<path fill="none" stroke="#63b8ff" d="M1828.79,-183.82C1547.99,-180.91 505.09,-168.39 176,-140 161.38,-138.74 145.59,-136.69 131.16,-134.55"/>
<polygon fill="#63b8ff" stroke="#63b8ff" points="1828.81,-187.32 1838.85,-183.92 1828.89,-180.32 1828.81,-187.32"/>
</a>
</g>
</g>
<!-- Node3 -->
<g id="Node000003" class="node">
<title>Node3</title>
<g id="a_Node000003"><a xlink:href="actors_8c.html" target="_top" xlink:title=" ">
<polygon fill="white" stroke="#666666" points="188.5,-74 83.5,-74 83.5,-55 188.5,-55 188.5,-74"/>
<text text-anchor="middle" x="136" y="-62" font-family="Helvetica,sans-Serif" font-size="10.00">src/racing/actors.c</text>
</a>
</g>
</g>
<!-- Node1&#45;&gt;Node3 -->
<g id="edge25_Node000001_Node000003" class="edge">
<title>Node1&#45;&gt;Node3</title>
<g id="a_edge25_Node000001_Node000003"><a xlink:title=" ">
<path fill="none" stroke="#63b8ff" d="M1828.71,-184.12C1518.53,-182.25 284.24,-172.79 209,-140 192.57,-132.84 157.88,-92.19 143.01,-74.14"/>
<polygon fill="#63b8ff" stroke="#63b8ff" points="1828.9,-187.62 1838.92,-184.18 1828.94,-180.62 1828.9,-187.62"/>
</a>
</g>
</g>
<!-- Node4 -->
<g id="Node000004" class="node">
<title>Node4</title>
<g id="a_Node000004"><a xlink:href="green__shell_2update_8inc_8c.html" target="_top" xlink:title=" ">
<polygon fill="white" stroke="#666666" points="341.5,-140 218.5,-140 218.5,-110 341.5,-110 341.5,-140"/>
<text text-anchor="start" x="226.5" y="-128" font-family="Helvetica,sans-Serif" font-size="10.00">src/actors/green_shell</text>
<text text-anchor="middle" x="280" y="-117" font-family="Helvetica,sans-Serif" font-size="10.00">/update.inc.c</text>
</a>
</g>
</g>
<!-- Node1&#45;&gt;Node4 -->
<g id="edge3_Node000001_Node000004" class="edge">
<title>Node1&#45;&gt;Node4</title>
<g id="a_edge3_Node000001_Node000004"><a xlink:title=" ">
<path fill="none" stroke="#63b8ff" d="M1828.85,-183.91C1567.07,-181.47 647.43,-170.86 356,-140 351.33,-139.51 346.52,-138.88 341.69,-138.18"/>
<polygon fill="#63b8ff" stroke="#63b8ff" points="1828.95,-187.41 1838.98,-184 1829.02,-180.41 1828.95,-187.41"/>
</a>
</g>
</g>
<!-- Node5 -->
<g id="Node000005" class="node">
<title>Node5</title>
<g id="a_Node000005"><a xlink:href="actors__extended_8c.html" target="_top" xlink:title=" ">
<polygon fill="white" stroke="#666666" points="448,-74 292,-74 292,-55 448,-55 448,-74"/>
<text text-anchor="middle" x="370" y="-62" font-family="Helvetica,sans-Serif" font-size="10.00">src/racing/actors_extended.c</text>
</a>
</g>
</g>
<!-- Node1&#45;&gt;Node5 -->
<g id="edge26_Node000001_Node000005" class="edge">
<title>Node1&#45;&gt;Node5</title>
<g id="a_edge26_Node000001_Node000005"><a xlink:title=" ">
<path fill="none" stroke="#63b8ff" d="M1828.23,-184.76C1537.26,-185.55 445.75,-185.45 389,-140 369,-123.98 368.31,-90.08 369.22,-74.14"/>
<polygon fill="#63b8ff" stroke="#63b8ff" points="1828.66,-188.26 1838.65,-184.73 1828.64,-181.26 1828.66,-188.26"/>
</a>
</g>
</g>
<!-- Node6 -->
<g id="Node000006" class="node">
<title>Node6</title>
<g id="a_Node000006"><a xlink:href="other__shell_2update_8inc_8c.html" target="_top" xlink:title=" ">
<polygon fill="white" stroke="#666666" points="519.5,-140 398.5,-140 398.5,-110 519.5,-110 519.5,-140"/>
<text text-anchor="start" x="406.5" y="-128" font-family="Helvetica,sans-Serif" font-size="10.00">src/actors/other_shell</text>
<text text-anchor="middle" x="459" y="-117" font-family="Helvetica,sans-Serif" font-size="10.00">/update.inc.c</text>
</a>
</g>
</g>
<!-- Node1&#45;&gt;Node6 -->
<g id="edge5_Node000001_Node000006" class="edge">
<title>Node1&#45;&gt;Node6</title>
<g id="a_edge5_Node000001_Node000006"><a xlink:title=" ">
<path fill="none" stroke="#63b8ff" d="M1828.66,-183.78C1585.86,-181.04 783.78,-169.89 528,-140 525.33,-139.69 522.61,-139.33 519.86,-138.93"/>
<polygon fill="#63b8ff" stroke="#63b8ff" points="1828.74,-187.28 1838.78,-183.89 1828.82,-180.28 1828.74,-187.28"/>
</a>
</g>
</g>
<!-- Node7 -->
<g id="Node000007" class="node">
<title>Node7</title>
<g id="a_Node000007"><a xlink:href="external_8c.html" target="_top" xlink:title=" ">
<polygon fill="white" stroke="#666666" points="650.5,-134.5 537.5,-134.5 537.5,-115.5 650.5,-115.5 650.5,-134.5"/>
<text text-anchor="middle" x="594" y="-122.5" font-family="Helvetica,sans-Serif" font-size="10.00">src/audio/external.c</text>
</a>
</g>
</g>
<!-- Node1&#45;&gt;Node7 -->
<g id="edge7_Node000001_Node000007" class="edge">
<title>Node1&#45;&gt;Node7</title>
<g id="a_edge7_Node000001_Node000007"><a xlink:title=" ">
<path fill="none" stroke="#63b8ff" d="M1828.56,-183.61C1601.12,-180.46 887.82,-168.52 659,-140 648.92,-138.74 638.09,-136.7 628.21,-134.55"/>
<polygon fill="#63b8ff" stroke="#63b8ff" points="1828.65,-187.11 1838.7,-183.74 1828.75,-180.11 1828.65,-187.11"/>
</a>
</g>
</g>
<!-- Node8 -->
<g id="Node000008" class="node">
<title>Node8</title>
<g id="a_Node000008"><a xlink:href="camera_8c.html" target="_top" xlink:title=" ">
<polygon fill="white" stroke="#666666" points="747.5,-134.5 668.5,-134.5 668.5,-115.5 747.5,-115.5 747.5,-134.5"/>
<text text-anchor="middle" x="708" y="-122.5" font-family="Helvetica,sans-Serif" font-size="10.00">src/camera.c</text>
</a>
</g>
</g>
<!-- Node1&#45;&gt;Node8 -->
<g id="edge8_Node000001_Node000008" class="edge">
<title>Node1&#45;&gt;Node8</title>
<g id="a_edge8_Node000001_Node000008"><a xlink:title=" ">
<path fill="none" stroke="#63b8ff" d="M1828.56,-184.01C1612.95,-182.16 964.04,-173.86 756,-140 748.46,-138.77 740.43,-136.73 733.14,-134.59"/>
<polygon fill="#63b8ff" stroke="#63b8ff" points="1828.77,-187.51 1838.8,-184.1 1828.83,-180.51 1828.77,-187.51"/>
</a>
</g>
</g>
<!-- Node9 -->
<g id="Node000009" class="node">
<title>Node9</title>
<g id="a_Node000009"><a xlink:href="code__800029B0_8c.html" target="_top" xlink:title=" ">
<polygon fill="white" stroke="#666666" points="884.5,-134.5 765.5,-134.5 765.5,-115.5 884.5,-115.5 884.5,-134.5"/>
<text text-anchor="middle" x="825" y="-122.5" font-family="Helvetica,sans-Serif" font-size="10.00">src/code_800029B0.c</text>
</a>
</g>
</g>
<!-- Node1&#45;&gt;Node9 -->
<g id="edge9_Node000001_Node000009" class="edge">
<title>Node1&#45;&gt;Node9</title>
<g id="a_edge9_Node000001_Node000009"><a xlink:title=" ">
<path fill="none" stroke="#63b8ff" d="M1828.52,-185.14C1664.14,-185.83 1242.79,-182.84 894,-140 883.45,-138.7 872.1,-136.67 861.71,-134.55"/>
<polygon fill="#63b8ff" stroke="#63b8ff" points="1828.99,-188.64 1838.98,-185.09 1828.96,-181.64 1828.99,-188.64"/>
</a>
</g>
</g>
<!-- Node10 -->
<g id="Node000010" class="node">
<title>Node10</title>
<g id="a_Node000010"><a xlink:href="code__80005FD0_8c.html" target="_top" xlink:title=" ">
<polygon fill="white" stroke="#666666" points="1023,-134.5 903,-134.5 903,-115.5 1023,-115.5 1023,-134.5"/>
<text text-anchor="middle" x="963" y="-122.5" font-family="Helvetica,sans-Serif" font-size="10.00">src/code_80005FD0.c</text>
</a>
</g>
</g>
<!-- Node1&#45;&gt;Node10 -->
<g id="edge10_Node000001_Node000010" class="edge">
<title>Node1&#45;&gt;Node10</title>
<g id="a_edge10_Node000001_Node000010"><a xlink:title=" ">
<path fill="none" stroke="#63b8ff" d="M1828.51,-184.43C1680.4,-183.5 1326.24,-177.19 1032,-140 1021.45,-138.67 1010.1,-136.62 999.72,-134.5"/>
<polygon fill="#63b8ff" stroke="#63b8ff" points="1828.79,-187.93 1838.81,-184.49 1828.83,-180.93 1828.79,-187.93"/>
</a>
</g>
</g>
<!-- Node11 -->
<g id="Node000011" class="node">
<title>Node11</title>
<g id="a_Node000011"><a xlink:href="code__80057C60_8c.html" target="_top" xlink:title=" ">
<polygon fill="white" stroke="#666666" points="1160.5,-134.5 1041.5,-134.5 1041.5,-115.5 1160.5,-115.5 1160.5,-134.5"/>
<text text-anchor="middle" x="1101" y="-122.5" font-family="Helvetica,sans-Serif" font-size="10.00">src/code_80057C60.c</text>
</a>
</g>
</g>
<!-- Node1&#45;&gt;Node11 -->
<g id="edge11_Node000001_Node000011" class="edge">
<title>Node1&#45;&gt;Node11</title>
<g id="a_edge11_Node000001_Node000011"><a xlink:title=" ">
<path fill="none" stroke="#63b8ff" d="M1828.36,-183.52C1697.67,-180.98 1409.5,-171.92 1169,-140 1158.72,-138.64 1147.68,-136.61 1137.54,-134.52"/>
<polygon fill="#63b8ff" stroke="#63b8ff" points="1828.57,-187.03 1838.63,-183.72 1828.7,-180.03 1828.57,-187.03"/>
</a>
</g>
</g>
<!-- Node12 -->
<g id="Node000012" class="node">
<title>Node12</title>
<g id="a_Node000012"><a xlink:href="code__8006E9C0_8c.html" target="_top" xlink:title=" ">
<polygon fill="white" stroke="#666666" points="1297.5,-134.5 1178.5,-134.5 1178.5,-115.5 1297.5,-115.5 1297.5,-134.5"/>
<text text-anchor="middle" x="1238" y="-122.5" font-family="Helvetica,sans-Serif" font-size="10.00">src/code_8006E9C0.c</text>
</a>
</g>
</g>
<!-- Node1&#45;&gt;Node12 -->
<g id="edge12_Node000001_Node000012" class="edge">
<title>Node1&#45;&gt;Node12</title>
<g id="a_edge12_Node000001_Node000012"><a xlink:title=" ">
<path fill="none" stroke="#63b8ff" d="M1828.88,-182.15C1717.59,-177.76 1493.89,-166.28 1306,-140 1295.97,-138.6 1285.2,-136.61 1275.26,-134.57"/>
<polygon fill="#63b8ff" stroke="#63b8ff" points="1828.84,-185.65 1838.97,-182.54 1829.11,-178.65 1828.84,-185.65"/>
</a>
</g>
</g>
<!-- Node13 -->
<g id="Node000013" class="node">
<title>Node13</title>
<g id="a_Node000013"><a xlink:href="code__80091440_8c.html" target="_top" xlink:title=" ">
<polygon fill="white" stroke="#666666" points="1434.5,-134.5 1315.5,-134.5 1315.5,-115.5 1434.5,-115.5 1434.5,-134.5"/>
<text text-anchor="middle" x="1375" y="-122.5" font-family="Helvetica,sans-Serif" font-size="10.00">src/code_80091440.c</text>
</a>
</g>
</g>
<!-- Node1&#45;&gt;Node13 -->
<g id="edge13_Node000001_Node000013" class="edge">
<title>Node1&#45;&gt;Node13</title>
<g id="a_edge13_Node000001_Node000013"><a xlink:title=" ">
<path fill="none" stroke="#63b8ff" d="M1828.94,-179.97C1739.17,-173.65 1578.93,-160.57 1443,-140 1433.23,-138.52 1422.74,-136.55 1413,-134.56"/>
<polygon fill="#63b8ff" stroke="#63b8ff" points="1828.78,-183.47 1839,-180.68 1829.26,-176.49 1828.78,-183.47"/>
</a>
</g>
</g>
<!-- Node14 -->
<g id="Node000014" class="node">
<title>Node14</title>
<g id="a_Node000014"><a xlink:href="code__80091750_8c.html" target="_top" xlink:title=" ">
<polygon fill="white" stroke="#666666" points="1571.5,-134.5 1452.5,-134.5 1452.5,-115.5 1571.5,-115.5 1571.5,-134.5"/>
<text text-anchor="middle" x="1512" y="-122.5" font-family="Helvetica,sans-Serif" font-size="10.00">src/code_80091750.c</text>
</a>
</g>
</g>
<!-- Node1&#45;&gt;Node14 -->
<g id="edge14_Node000001_Node000014" class="edge">
<title>Node1&#45;&gt;Node14</title>
<g id="a_edge14_Node000001_Node000014"><a xlink:title=" ">
<path fill="none" stroke="#63b8ff" d="M1828.69,-175.91C1764.12,-167.73 1665.88,-154.54 1581,-140 1571.6,-138.39 1561.53,-136.46 1552.06,-134.56"/>
<polygon fill="#63b8ff" stroke="#63b8ff" points="1828.39,-179.41 1838.75,-177.18 1829.27,-172.46 1828.39,-179.41"/>
</a>
</g>
</g>
<!-- Node15 -->
<g id="Node000015" class="node">
<title>Node15</title>
<g id="a_Node000015"><a xlink:href="all__variables_8h.html" target="_top" xlink:title=" ">
<polygon fill="white" stroke="#666666" points="1728,-134.5 1590,-134.5 1590,-115.5 1728,-115.5 1728,-134.5"/>
<text text-anchor="middle" x="1659" y="-122.5" font-family="Helvetica,sans-Serif" font-size="10.00">src/debug/all_variables.h</text>
</a>
</g>
</g>
<!-- Node1&#45;&gt;Node15 -->
<g id="edge15_Node000001_Node000015" class="edge">
<title>Node1&#45;&gt;Node15</title>
<g id="a_edge15_Node000001_Node000015"><a xlink:title=" ">
<path fill="none" stroke="#63b8ff" d="M1854.32,-173.61C1807.94,-162.3 1736.35,-144.85 1693.94,-134.52"/>
<polygon fill="#63b8ff" stroke="#63b8ff" points="1853.56,-177.03 1864.1,-175.99 1855.22,-170.22 1853.56,-177.03"/>
</a>
</g>
</g>
<!-- Node18 -->
<g id="Node000018" class="node">
<title>Node18</title>
<g id="a_Node000018"><a xlink:href="effects_8c.html" target="_top" xlink:title=" ">
<polygon fill="white" stroke="#666666" points="1821.5,-134.5 1746.5,-134.5 1746.5,-115.5 1821.5,-115.5 1821.5,-134.5"/>
<text text-anchor="middle" x="1784" y="-122.5" font-family="Helvetica,sans-Serif" font-size="10.00">src/effects.c</text>
</a>
</g>
</g>
<!-- Node1&#45;&gt;Node18 -->
<g id="edge18_Node000001_Node000018" class="edge">
<title>Node1&#45;&gt;Node18</title>
<g id="a_edge18_Node000001_Node000018"><a xlink:title=" ">
<path fill="none" stroke="#63b8ff" d="M1872.91,-171.23C1850.89,-160.03 1820.01,-144.32 1801.04,-134.67"/>
<polygon fill="#63b8ff" stroke="#63b8ff" points="1871.53,-174.45 1882.03,-175.87 1874.71,-168.21 1871.53,-174.45"/>
</a>
</g>
</g>
<!-- Node19 -->
<g id="Node000019" class="node">
<title>Node19</title>
<g id="a_Node000019"><a xlink:href="ceremony__and__credits_8c.html" target="_top" xlink:title=" ">
<polygon fill="white" stroke="#666666" points="1958.5,-140 1839.5,-140 1839.5,-110 1958.5,-110 1958.5,-140"/>
<text text-anchor="start" x="1847.5" y="-128" font-family="Helvetica,sans-Serif" font-size="10.00">src/ending/ceremony</text>
<text text-anchor="middle" x="1899" y="-117" font-family="Helvetica,sans-Serif" font-size="10.00">_and_credits.c</text>
</a>
</g>
</g>
<!-- Node1&#45;&gt;Node19 -->
<g id="edge19_Node000001_Node000019" class="edge">
<title>Node1&#45;&gt;Node19</title>
<g id="a_edge19_Node000001_Node000019"><a xlink:title=" ">
<path fill="none" stroke="#63b8ff" d="M1899,-165.65C1899,-157.36 1899,-147.78 1899,-140.11"/>
<polygon fill="#63b8ff" stroke="#63b8ff" points="1895.5,-165.87 1899,-175.87 1902.5,-165.87 1895.5,-165.87"/>
</a>
</g>
</g>
<!-- Node20 -->
<g id="Node000020" class="node">
<title>Node20</title>
<g id="a_Node000020"><a xlink:href="code__80280000_8c.html" target="_top" xlink:title=" ">
<polygon fill="white" stroke="#666666" points="2131.5,-134.5 1976.5,-134.5 1976.5,-115.5 2131.5,-115.5 2131.5,-134.5"/>
<text text-anchor="middle" x="2054" y="-122.5" font-family="Helvetica,sans-Serif" font-size="10.00">src/ending/code_80280000.c</text>
</a>
</g>
</g>
<!-- Node1&#45;&gt;Node20 -->
<g id="edge20_Node000001_Node000020" class="edge">
<title>Node1&#45;&gt;Node20</title>
<g id="a_edge20_Node000001_Node000020"><a xlink:title=" ">
<path fill="none" stroke="#63b8ff" d="M1931.12,-172.38C1961.08,-161.07 2005.02,-144.49 2031.43,-134.52"/>
<polygon fill="#63b8ff" stroke="#63b8ff" points="1929.66,-169.19 1921.54,-175.99 1932.13,-175.74 1929.66,-169.19"/>
</a>
</g>
</g>
<!-- Node21 -->
<g id="Node000021" class="node">
<title>Node21</title>
<g id="a_Node000021"><a xlink:href="code__80281780_8c.html" target="_top" xlink:title=" ">
<polygon fill="white" stroke="#666666" points="2304.5,-134.5 2149.5,-134.5 2149.5,-115.5 2304.5,-115.5 2304.5,-134.5"/>
<text text-anchor="middle" x="2227" y="-122.5" font-family="Helvetica,sans-Serif" font-size="10.00">src/ending/code_80281780.c</text>
</a>
</g>
</g>
<!-- Node1&#45;&gt;Node21 -->
<g id="edge21_Node000001_Node000021" class="edge">
<title>Node1&#45;&gt;Node21</title>
<g id="a_edge21_Node000001_Node000021"><a xlink:title=" ">
<path fill="none" stroke="#63b8ff" d="M1956.9,-174.17C2020.16,-162.89 2120.31,-145.03 2179.25,-134.52"/>
<polygon fill="#63b8ff" stroke="#63b8ff" points="1955.92,-170.79 1946.69,-175.99 1957.15,-177.68 1955.92,-170.79"/>
</a>
</g>
</g>
<!-- Node22 -->
<g id="Node000022" class="node">
<title>Node22</title>
<g id="a_Node000022"><a xlink:href="main_8c.html" target="_top" xlink:title=" ">
<polygon fill="white" stroke="#666666" points="2389.5,-134.5 2322.5,-134.5 2322.5,-115.5 2389.5,-115.5 2389.5,-134.5"/>
<text text-anchor="middle" x="2356" y="-122.5" font-family="Helvetica,sans-Serif" font-size="10.00">src/main.c</text>
</a>
</g>
</g>
<!-- Node1&#45;&gt;Node22 -->
<g id="edge22_Node000001_Node000022" class="edge">
<title>Node1&#45;&gt;Node22</title>
<g id="a_edge22_Node000001_Node000022"><a xlink:title=" ">
<path fill="none" stroke="#63b8ff" d="M1969.18,-181.57C2052.29,-177.06 2194.54,-166 2314,-140 2320.31,-138.63 2327,-136.65 2333.14,-134.61"/>
<polygon fill="#63b8ff" stroke="#63b8ff" points="1968.89,-178.08 1959.09,-182.11 1969.26,-185.07 1968.89,-178.08"/>
</a>
</g>
</g>
<!-- Node23 -->
<g id="Node000023" class="node">
<title>Node23</title>
<g id="a_Node000023"><a xlink:href="menus_8c.html" target="_top" xlink:title=" ">
<polygon fill="white" stroke="#666666" points="2482.5,-134.5 2407.5,-134.5 2407.5,-115.5 2482.5,-115.5 2482.5,-134.5"/>
<text text-anchor="middle" x="2445" y="-122.5" font-family="Helvetica,sans-Serif" font-size="10.00">src/menus.c</text>
</a>
</g>
</g>
<!-- Node1&#45;&gt;Node23 -->
<g id="edge23_Node000001_Node000023" class="edge">
<title>Node1&#45;&gt;Node23</title>
<g id="a_edge23_Node000001_Node000023"><a xlink:title=" ">
<path fill="none" stroke="#63b8ff" d="M1969.22,-182.82C2066.55,-179.45 2247.6,-169.45 2399,-140 2406.05,-138.63 2413.55,-136.6 2420.41,-134.51"/>
<polygon fill="#63b8ff" stroke="#63b8ff" points="1969.09,-179.32 1959.21,-183.15 1969.32,-186.31 1969.09,-179.32"/>
</a>
</g>
</g>
<!-- Node24 -->
<g id="Node000024" class="node">
<title>Node24</title>
<g id="a_Node000024"><a xlink:href="player__controller_8c.html" target="_top" xlink:title=" ">
<polygon fill="white" stroke="#666666" points="2624,-134.5 2500,-134.5 2500,-115.5 2624,-115.5 2624,-134.5"/>
<text text-anchor="middle" x="2562" y="-122.5" font-family="Helvetica,sans-Serif" font-size="10.00">src/player_controller.c</text>
</a>
</g>
</g>
<!-- Node1&#45;&gt;Node24 -->
<g id="edge24_Node000001_Node000024" class="edge">
<title>Node1&#45;&gt;Node24</title>
<g id="a_edge24_Node000001_Node000024"><a xlink:title=" ">
<path fill="none" stroke="#63b8ff" d="M1969.1,-182.02C2080.37,-177.46 2304.04,-165.75 2492,-140 2502.31,-138.59 2513.4,-136.59 2523.63,-134.55"/>
<polygon fill="#63b8ff" stroke="#63b8ff" points="1968.87,-178.53 1959.02,-182.43 1969.15,-185.52 1968.87,-178.53"/>
</a>
</g>
</g>
<!-- Node25 -->
<g id="Node000025" class="node">
<title>Node25</title>
<g id="a_Node000025"><a xlink:href="collision_8c.html" target="_top" xlink:title=" ">
<polygon fill="white" stroke="#666666" points="2758,-134.5 2642,-134.5 2642,-115.5 2758,-115.5 2758,-134.5"/>
<text text-anchor="middle" x="2700" y="-122.5" font-family="Helvetica,sans-Serif" font-size="10.00">src/racing/collision.c</text>
</a>
</g>
</g>
<!-- Node1&#45;&gt;Node25 -->
<g id="edge27_Node000001_Node000025" class="edge">
<title>Node1&#45;&gt;Node25</title>
<g id="a_edge27_Node000001_Node000025"><a xlink:title=" ">
<path fill="none" stroke="#63b8ff" d="M1969.53,-183.63C2100.72,-181.25 2390.92,-172.45 2633,-140 2643.13,-138.64 2654.01,-136.62 2664,-134.53"/>
<polygon fill="#63b8ff" stroke="#63b8ff" points="1969.16,-180.13 1959.23,-183.81 1969.29,-187.13 1969.16,-180.13"/>
</a>
</g>
</g>
<!-- Node26 -->
<g id="Node000026" class="node">
<title>Node26</title>
<g id="a_Node000026"><a xlink:href="memory_8c.html" target="_top" xlink:title=" ">
<polygon fill="white" stroke="#666666" points="2891.5,-134.5 2776.5,-134.5 2776.5,-115.5 2891.5,-115.5 2891.5,-134.5"/>
<text text-anchor="middle" x="2834" y="-122.5" font-family="Helvetica,sans-Serif" font-size="10.00">src/racing/memory.c</text>
</a>
</g>
</g>
<!-- Node1&#45;&gt;Node26 -->
<g id="edge28_Node000001_Node000026" class="edge">
<title>Node1&#45;&gt;Node26</title>
<g id="a_edge28_Node000001_Node000026"><a xlink:title=" ">
<path fill="none" stroke="#63b8ff" d="M1969.31,-184.57C2117.47,-183.92 2472.35,-178.1 2767,-140 2777.25,-138.67 2788.28,-136.63 2798.36,-134.51"/>
<polygon fill="#63b8ff" stroke="#63b8ff" points="1968.99,-181.07 1959.01,-184.61 1969.02,-188.07 1968.99,-181.07"/>
</a>
</g>
</g>
<!-- Node27 -->
<g id="Node000027" class="node">
<title>Node27</title>
<g id="a_Node000027"><a xlink:href="race__logic_8c.html" target="_top" xlink:title=" ">
<polygon fill="white" stroke="#666666" points="3034.5,-134.5 2909.5,-134.5 2909.5,-115.5 3034.5,-115.5 3034.5,-134.5"/>
<text text-anchor="middle" x="2972" y="-122.5" font-family="Helvetica,sans-Serif" font-size="10.00">src/racing/race_logic.c</text>
</a>
</g>
</g>
<!-- Node1&#45;&gt;Node27 -->
<g id="edge29_Node000001_Node000027" class="edge">
<title>Node1&#45;&gt;Node27</title>
<g id="a_edge29_Node000001_Node000027"><a xlink:title=" ">
<path fill="none" stroke="#63b8ff" d="M1969.55,-185C2133.62,-185.37 2553.35,-181.76 2901,-140 2911.85,-138.7 2923.53,-136.66 2934.22,-134.54"/>
<polygon fill="#63b8ff" stroke="#63b8ff" points="1969.13,-181.5 1959.12,-184.97 1969.11,-188.5 1969.13,-181.5"/>
</a>
</g>
</g>
<!-- Node28 -->
<g id="Node000028" class="node">
<title>Node28</title>
<g id="a_Node000028"><a xlink:href="render__courses_8c.html" target="_top" xlink:title=" ">
<polygon fill="white" stroke="#666666" points="3201.5,-134.5 3052.5,-134.5 3052.5,-115.5 3201.5,-115.5 3201.5,-134.5"/>
<text text-anchor="middle" x="3127" y="-122.5" font-family="Helvetica,sans-Serif" font-size="10.00">src/racing/render_courses.c</text>
</a>
</g>
</g>
<!-- Node1&#45;&gt;Node28 -->
<g id="edge30_Node000001_Node000028" class="edge">
<title>Node1&#45;&gt;Node28</title>
<g id="a_edge30_Node000001_Node000028"><a xlink:title=" ">
<path fill="none" stroke="#63b8ff" d="M1969.19,-184.9C2148.63,-185.23 2638.55,-181.9 3044,-140 3056.65,-138.69 3070.28,-136.66 3082.78,-134.54"/>
<polygon fill="#63b8ff" stroke="#63b8ff" points="1969.1,-181.4 1959.1,-184.87 1969.09,-188.4 1969.1,-181.4"/>
</a>
</g>
</g>
<!-- Node29 -->
<g id="Node000029" class="node">
<title>Node29</title>
<g id="a_Node000029"><a xlink:href="skybox__and__splitscreen_8c.html" target="_top" xlink:title=" ">
<polygon fill="white" stroke="#666666" points="3344.5,-140 3219.5,-140 3219.5,-110 3344.5,-110 3344.5,-140"/>
<text text-anchor="start" x="3227.5" y="-128" font-family="Helvetica,sans-Serif" font-size="10.00">src/racing/skybox_and</text>
<text text-anchor="middle" x="3282" y="-117" font-family="Helvetica,sans-Serif" font-size="10.00">_splitscreen.c</text>
</a>
</g>
</g>
<!-- Node1&#45;&gt;Node29 -->
<g id="edge31_Node000001_Node000029" class="edge">
<title>Node1&#45;&gt;Node29</title>
<g id="a_edge31_Node000001_Node000029"><a xlink:title=" ">
<path fill="none" stroke="#63b8ff" d="M1969.46,-183.6C2205.52,-180.37 2967.26,-167.98 3211,-140 3213.75,-139.68 3216.54,-139.32 3219.37,-138.92"/>
<polygon fill="#63b8ff" stroke="#63b8ff" points="1969.24,-180.11 1959.29,-183.74 1969.33,-187.11 1969.24,-180.11"/>
</a>
</g>
</g>
<!-- Node30 -->
<g id="Node000030" class="node">
<title>Node30</title>
<g id="a_Node000030"><a xlink:href="render__objects_8c.html" target="_top" xlink:title=" ">
<polygon fill="white" stroke="#666666" points="3477,-134.5 3363,-134.5 3363,-115.5 3477,-115.5 3477,-134.5"/>
<text text-anchor="middle" x="3420" y="-122.5" font-family="Helvetica,sans-Serif" font-size="10.00">src/render_objects.c</text>
</a>
</g>
</g>
<!-- Node1&#45;&gt;Node30 -->
<g id="edge32_Node000001_Node000030" class="edge">
<title>Node1&#45;&gt;Node30</title>
<g id="a_edge32_Node000001_Node000030"><a xlink:title=" ">
<path fill="none" stroke="#63b8ff" d="M1969.36,-184.01C2221.77,-182 3081.15,-172.84 3354,-140 3364.35,-138.75 3375.48,-136.68 3385.6,-134.51"/>
<polygon fill="#63b8ff" stroke="#63b8ff" points="1969.19,-180.51 1959.22,-184.09 1969.25,-187.51 1969.19,-180.51"/>
</a>
</g>
</g>
<!-- Node31 -->
<g id="Node000031" class="node">
<title>Node31</title>
<g id="a_Node000031"><a xlink:href="render__player_8c.html" target="_top" xlink:title=" ">
<polygon fill="white" stroke="#666666" points="3604.5,-134.5 3495.5,-134.5 3495.5,-115.5 3604.5,-115.5 3604.5,-134.5"/>
<text text-anchor="middle" x="3550" y="-122.5" font-family="Helvetica,sans-Serif" font-size="10.00">src/render_player.c</text>
</a>
</g>
</g>
<!-- Node1&#45;&gt;Node31 -->
<g id="edge33_Node000001_Node000031" class="edge">
<title>Node1&#45;&gt;Node31</title>
<g id="a_edge33_Node000001_Node000031"><a xlink:title=" ">
<path fill="none" stroke="#63b8ff" d="M1969.38,-184.28C2236.29,-183.17 3186.15,-176.67 3486,-140 3496.05,-138.77 3506.84,-136.7 3516.66,-134.53"/>
<polygon fill="#63b8ff" stroke="#63b8ff" points="1969.03,-180.78 1959.05,-184.32 1969.06,-187.78 1969.03,-180.78"/>
</a>
</g>
</g>
<!-- Node32 -->
<g id="Node000032" class="node">
<title>Node32</title>
<g id="a_Node000032"><a xlink:href="spawn__players_8c.html" target="_top" xlink:title=" ">
<polygon fill="white" stroke="#666666" points="3737.5,-134.5 3622.5,-134.5 3622.5,-115.5 3737.5,-115.5 3737.5,-134.5"/>
<text text-anchor="middle" x="3680" y="-122.5" font-family="Helvetica,sans-Serif" font-size="10.00">src/spawn_players.c</text>
</a>
</g>
</g>
<!-- Node1&#45;&gt;Node32 -->
<g id="edge34_Node000001_Node000032" class="edge">
<title>Node1&#45;&gt;Node32</title>
<g id="a_edge34_Node000001_Node000032"><a xlink:title=" ">
<path fill="none" stroke="#63b8ff" d="M1969.41,-184.39C2249.83,-183.7 3287.67,-178.52 3614,-140 3624.35,-138.78 3635.48,-136.71 3645.6,-134.54"/>
<polygon fill="#63b8ff" stroke="#63b8ff" points="1969.36,-180.89 1959.37,-184.42 1969.37,-187.89 1969.36,-180.89"/>
</a>
</g>
</g>
<!-- Node33 -->
<g id="Node000033" class="node">
<title>Node33</title>
<g id="a_Node000033"><a xlink:href="staff__ghosts_8c.html" target="_top" xlink:title=" ">
<polygon fill="white" stroke="#666666" points="3856.5,-134.5 3755.5,-134.5 3755.5,-115.5 3856.5,-115.5 3856.5,-134.5"/>
<text text-anchor="middle" x="3806" y="-122.5" font-family="Helvetica,sans-Serif" font-size="10.00">src/staff_ghosts.c</text>
</a>
</g>
</g>
<!-- Node1&#45;&gt;Node33 -->
<g id="edge35_Node000001_Node000033" class="edge">
<title>Node1&#45;&gt;Node33</title>
<g id="a_edge35_Node000001_Node000033"><a xlink:title=" ">
<path fill="none" stroke="#63b8ff" d="M1969.47,-184.77C2263.51,-185.59 3393.72,-185.66 3747,-140 3756.29,-138.8 3766.25,-136.74 3775.3,-134.57"/>
<polygon fill="#63b8ff" stroke="#63b8ff" points="1969.37,-181.27 1959.36,-184.74 1969.35,-188.27 1969.37,-181.27"/>
</a>
</g>
</g>
<!-- Node34 -->
<g id="Node000034" class="node">
<title>Node34</title>
<g id="a_Node000034"><a xlink:href="update__objects_8c.html" target="_top" xlink:title=" ">
<polygon fill="white" stroke="#666666" points="3991,-134.5 3875,-134.5 3875,-115.5 3991,-115.5 3991,-134.5"/>
<text text-anchor="middle" x="3933" y="-122.5" font-family="Helvetica,sans-Serif" font-size="10.00">src/update_objects.c</text>
</a>
</g>
</g>
<!-- Node1&#45;&gt;Node34 -->
<g id="edge36_Node000001_Node000034" class="edge">
<title>Node1&#45;&gt;Node34</title>
<g id="a_edge36_Node000001_Node000034"><a xlink:title=" ">
<path fill="none" stroke="#63b8ff" d="M1969.39,-184.64C2274.89,-184.97 3487.47,-183.46 3866,-140 3876.51,-138.79 3887.81,-136.73 3898.08,-134.56"/>
<polygon fill="#63b8ff" stroke="#63b8ff" points="1969.34,-181.14 1959.34,-184.63 1969.33,-188.14 1969.34,-181.14"/>
</a>
</g>
</g>
<!-- Node2&#45;&gt;Node3 -->
<g id="edge2_Node000002_Node000003" class="edge">
<title>Node2&#45;&gt;Node3</title>
<g id="a_edge2_Node000002_Node000003"><a xlink:title=" ">
<path fill="none" stroke="#63b8ff" d="M96.26,-107.77C106.49,-96.89 119.55,-82.99 127.85,-74.17"/>
<polygon fill="#63b8ff" stroke="#63b8ff" points="93.42,-105.69 89.12,-115.37 98.52,-110.48 93.42,-105.69"/>
</a>
</g>
</g>
<!-- Node4&#45;&gt;Node5 -->
<g id="edge4_Node000004_Node000005" class="edge">
<title>Node4&#45;&gt;Node5</title>
<g id="a_edge4_Node000004_Node000005"><a xlink:title=" ">
<path fill="none" stroke="#63b8ff" d="M310.23,-104.35C326.04,-94.07 344.59,-82.02 356.78,-74.09"/>
<polygon fill="#63b8ff" stroke="#63b8ff" points="308.26,-101.45 301.79,-109.84 312.08,-107.32 308.26,-101.45"/>
</a>
</g>
</g>
<!-- Node6&#45;&gt;Node5 -->
<g id="edge6_Node000006_Node000005" class="edge">
<title>Node6&#45;&gt;Node5</title>
<g id="a_edge6_Node000006_Node000005"><a xlink:title=" ">
<path fill="none" stroke="#63b8ff" d="M428.67,-104.06C413.13,-93.85 395.02,-81.95 383.08,-74.09"/>
<polygon fill="#63b8ff" stroke="#63b8ff" points="427.18,-107.27 437.46,-109.84 431.02,-101.42 427.18,-107.27"/>
</a>
</g>
</g>
<!-- Node16 -->
<g id="Node000016" class="node">
<title>Node16</title>
<g id="a_Node000016"><a xlink:href="debug_8inc_8c.html" target="_top" xlink:title=" ">
<polygon fill="white" stroke="#666666" points="1720,-74 1598,-74 1598,-55 1720,-55 1720,-74"/>
<text text-anchor="middle" x="1659" y="-62" font-family="Helvetica,sans-Serif" font-size="10.00">src/debug/debug.inc.c</text>
</a>
</g>
</g>
<!-- Node15&#45;&gt;Node16 -->
<g id="edge16_Node000015_Node000016" class="edge">
<title>Node15&#45;&gt;Node16</title>
<g id="a_edge16_Node000015_Node000016"><a xlink:title=" ">
<path fill="none" stroke="#63b8ff" d="M1659,-105.16C1659,-94.74 1659,-82.3 1659,-74.17"/>
<polygon fill="#63b8ff" stroke="#63b8ff" points="1655.5,-105.37 1659,-115.37 1662.5,-105.37 1655.5,-105.37"/>
</a>
</g>
</g>
<!-- Node17 -->
<g id="Node000017" class="node">
<title>Node17</title>
<g id="a_Node000017"><a xlink:href="debug_8c.html" target="_top" xlink:title=" ">
<polygon fill="white" stroke="#666666" points="1711.5,-19 1606.5,-19 1606.5,0 1711.5,0 1711.5,-19"/>
<text text-anchor="middle" x="1659" y="-7" font-family="Helvetica,sans-Serif" font-size="10.00">src/debug/debug.c</text>
</a>
</g>
</g>
<!-- Node16&#45;&gt;Node17 -->
<g id="edge17_Node000016_Node000017" class="edge">
<title>Node16&#45;&gt;Node17</title>
<g id="a_edge17_Node000016_Node000017"><a xlink:title=" ">
<path fill="none" stroke="#63b8ff" d="M1659,-44.66C1659,-35.93 1659,-25.99 1659,-19.09"/>
<polygon fill="#63b8ff" stroke="#63b8ff" points="1655.5,-44.75 1659,-54.75 1662.5,-44.75 1655.5,-44.75"/>
</a>
</g>
</g>
</g>
</svg>

<g id="navigator" transform="translate(0 0)" fill="#404254">
  <rect fill="#f2f5e9" fill-opacity="0.5" stroke="#606060" stroke-width=".5" x="0" y="0" width="60" height="60"/>
  <use id="zoomplus" xlink:href="#zoomPlus" x="17" y="9" onmousedown="handleZoom(evt,'in')"/>
  <use id="zoomminus" xlink:href="#zoomMin" x="42" y="9" onmousedown="handleZoom(evt,'out')"/>
  <use id="reset" xlink:href="#resetDef" x="30" y="36" onmousedown="handleReset()"/>
   <use id="arrowup" xlink:href="#arrowUp" x="0" y="0" onmousedown="handlePan(0,-1)"/>
  <use id="arrowright" xlink:href="#arrowRight" x="0" y="0" onmousedown="handlePan(1,0)"/>
  <use id="arrowdown" xlink:href="#arrowDown" x="0" y="0" onmousedown="handlePan(0,1)"/>
  <use id="arrowleft" xlink:href="#arrowLeft" x="0" y="0" onmousedown="handlePan(-1,0)"/>
</g>
<svg viewBox="0 0 15 15" width="100%" height="30px" preserveAspectRatio="xMaxYMin meet">
 <g id="arrow_out" transform="scale(0.3 0.3)">
  <a xlink:href="code__800029B0_8h__dep__incl_org.svg" target="_base">
   <rect id="button" ry="5" rx="5" y="6" x="6" height="38" width="38"
        fill="#f2f5e9" fill-opacity="0.5" stroke="#606060" stroke-width="1.0"/>
   <path id="arrow"
     d="M 11.500037,31.436501 C 11.940474,20.09759 22.043105,11.32322 32.158766,21.979434 L 37.068811,17.246167 C 37.068811,17.246167 37.088388,32 37.088388,32 L 22.160133,31.978069 C 22.160133,31.978069 26.997745,27.140456 26.997745,27.140456 C 18.528582,18.264221 13.291696,25.230495 11.500037,31.436501 z"
     style="fill:#404040;"/>
  </a>
 </g>
</svg>

<style type='text/css'>
<![CDATA[
[data-mouse-over-selected='false'] { opacity: 0.7; }
[data-mouse-over-selected='true']  { opacity: 1.0; }
]]>
</style>
<script type="application/ecmascript"><![CDATA[
document.addEventListener('DOMContentLoaded', (event) => {
  highlightEdges();
  highlightAdjacentNodes();
});
]]></script>
</svg>
