<?xml version="1.0" encoding="UTF-8" standalone="no"?>
<!DOCTYPE svg PUBLIC "-//W3C//DTD SVG 1.1//EN"
 "http://www.w3.org/Graphics/SVG/1.1/DTD/svg11.dtd">
<!-- Generated by graphviz version 2.43.0 (0)
 -->
<!-- Title: func_8008E6C0 Pages: 1 -->
<svg width="723pt" height="659pt"
 viewBox="0.00 0.00 723.00 659.00" xmlns="http://www.w3.org/2000/svg" xmlns:xlink="http://www.w3.org/1999/xlink">
<g id="graph0" class="graph" transform="scale(1 1) rotate(0) translate(4 655)">
<title>func_8008E6C0</title>
<!-- Node1 -->
<g id="Node000001" class="node">
<title>Node1</title>
<g id="a_Node000001"><a xlink:title=" ">
<polygon fill="#999999" stroke="#666666" points="92,-206 0,-206 0,-187 92,-187 92,-206"/>
<text text-anchor="middle" x="46" y="-194" font-family="Helvetica,sans-Serif" font-size="10.00">func_8008E6C0</text>
</a>
</g>
</g>
<!-- Node2 -->
<g id="Node000002" class="node">
<title>Node2</title>
<g id="a_Node000002"><a xlink:href="code__80005FD0_8c.html#a06783cccfdd317d1f883612230c6cf5c" target="_top" xlink:title=" ">
<polygon fill="white" stroke="#666666" points="220.5,-539 128.5,-539 128.5,-520 220.5,-520 220.5,-539"/>
<text text-anchor="middle" x="174.5" y="-527" font-family="Helvetica,sans-Serif" font-size="10.00">func_800098FC</text>
</a>
</g>
</g>
<!-- Node1&#45;&gt;Node2 -->
<g id="edge1_Node000001_Node000002" class="edge">
<title>Node1&#45;&gt;Node2</title>
<g id="a_edge1_Node000001_Node000002"><a xlink:title=" ">
<path fill="none" stroke="#63b8ff" d="M50.65,-206.11C68.04,-251.87 142.59,-448.14 166.26,-510.44"/>
<polygon fill="#63b8ff" stroke="#63b8ff" points="163.01,-511.75 169.84,-519.85 169.56,-509.26 163.01,-511.75"/>
</a>
</g>
</g>
<!-- Node6 -->
<g id="Node000006" class="node">
<title>Node6</title>
<g id="a_Node000006"><a xlink:href="code__8008C1D0_8c.html#a1698463639e133ec28807bb36a303efe" target="_top" xlink:title=" ">
<polygon fill="white" stroke="#666666" points="220.5,-373 128.5,-373 128.5,-354 220.5,-354 220.5,-373"/>
<text text-anchor="middle" x="174.5" y="-361" font-family="Helvetica,sans-Serif" font-size="10.00">func_8008C310</text>
</a>
</g>
</g>
<!-- Node1&#45;&gt;Node6 -->
<g id="edge5_Node000001_Node000006" class="edge">
<title>Node1&#45;&gt;Node6</title>
<g id="a_edge5_Node000001_Node000006"><a xlink:title=" ">
<path fill="none" stroke="#63b8ff" d="M49.75,-206.35C57.57,-232.61 82.37,-305.09 128,-345.5 129.31,-346.66 130.71,-347.75 132.16,-348.78"/>
<polygon fill="#63b8ff" stroke="#63b8ff" points="130.63,-351.94 141.04,-353.95 134.16,-345.89 130.63,-351.94"/>
</a>
</g>
</g>
<!-- Node7 -->
<g id="Node000007" class="node">
<title>Node7</title>
<g id="a_Node000007"><a xlink:href="code__8008C1D0_8c.html#a5cdc06d2091fc6d20759448c40b17d54" target="_top" xlink:title=" ">
<polygon fill="white" stroke="#666666" points="220.5,-336 128.5,-336 128.5,-317 220.5,-317 220.5,-336"/>
<text text-anchor="middle" x="174.5" y="-324" font-family="Helvetica,sans-Serif" font-size="10.00">func_8008C354</text>
</a>
</g>
</g>
<!-- Node1&#45;&gt;Node7 -->
<g id="edge6_Node000001_Node000007" class="edge">
<title>Node1&#45;&gt;Node7</title>
<g id="a_edge6_Node000001_Node000007"><a xlink:title=" ">
<path fill="none" stroke="#63b8ff" d="M56.51,-206.27C77.95,-228.31 130.28,-282.09 157.09,-309.63"/>
<polygon fill="#63b8ff" stroke="#63b8ff" points="154.74,-312.24 164.23,-316.97 159.76,-307.36 154.74,-312.24"/>
</a>
</g>
</g>
<!-- Node23 -->
<g id="Node000023" class="node">
<title>Node23</title>
<g id="a_Node000023"><a xlink:href="external_8c.html#a517352d45a01341217ab2c073b3b223f" target="_top" xlink:title=" ">
<polygon fill="white" stroke="#666666" points="606.5,-114 514.5,-114 514.5,-95 606.5,-95 606.5,-114"/>
<text text-anchor="middle" x="560.5" y="-102" font-family="Helvetica,sans-Serif" font-size="10.00">func_800C9060</text>
</a>
</g>
</g>
<!-- Node1&#45;&gt;Node23 -->
<g id="edge25_Node000001_Node000023" class="edge">
<title>Node1&#45;&gt;Node23</title>
<g id="a_edge25_Node000001_Node000023"><a xlink:title=" ">
<path fill="none" stroke="#63b8ff" d="M62.58,-186.96C96.42,-166.86 179.86,-120.66 257,-104.5 341.79,-86.74 442.91,-91.87 504.11,-97.76"/>
<polygon fill="#63b8ff" stroke="#63b8ff" points="504.02,-101.27 514.32,-98.79 504.72,-94.31 504.02,-101.27"/>
</a>
</g>
</g>
<!-- Node25 -->
<g id="Node000025" class="node">
<title>Node25</title>
<g id="a_Node000025"><a xlink:href="external_8c.html#a1a1bdc0f5d3b6fd4a86b9d62e93a076e" target="_top" xlink:title=" ">
<polygon fill="white" stroke="#666666" points="478,-57 386,-57 386,-38 478,-38 478,-57"/>
<text text-anchor="middle" x="432" y="-45" font-family="Helvetica,sans-Serif" font-size="10.00">func_800C90F4</text>
</a>
</g>
</g>
<!-- Node1&#45;&gt;Node25 -->
<g id="edge26_Node000001_Node000025" class="edge">
<title>Node1&#45;&gt;Node25</title>
<g id="a_edge26_Node000001_Node000025"><a xlink:title=" ">
<path fill="none" stroke="#63b8ff" d="M49.94,-186.82C57.91,-162.47 82.46,-98.64 128,-71.5 204.48,-25.92 311.77,-30 376.03,-38.07"/>
<polygon fill="#63b8ff" stroke="#63b8ff" points="375.59,-41.55 385.96,-39.4 376.51,-34.61 375.59,-41.55"/>
</a>
</g>
</g>
<!-- Node26 -->
<g id="Node000026" class="node">
<title>Node26</title>
<g id="a_Node000026"><a xlink:href="external_8c.html#a6e2f5efc821aca257d25ca153a5ee494" target="_top" xlink:title=" ">
<polygon fill="white" stroke="#666666" points="221,-19 128,-19 128,0 221,0 221,-19"/>
<text text-anchor="middle" x="174.5" y="-7" font-family="Helvetica,sans-Serif" font-size="10.00">func_800CA24C</text>
</a>
</g>
</g>
<!-- Node1&#45;&gt;Node26 -->
<g id="edge28_Node000001_Node000026" class="edge">
<title>Node1&#45;&gt;Node26</title>
<g id="a_edge28_Node000001_Node000026"><a xlink:title=" ">
<path fill="none" stroke="#63b8ff" d="M49.52,-186.81C57.07,-159.5 81.87,-80.76 128,-33.5 131.41,-30.01 135.43,-26.91 139.66,-24.21"/>
<polygon fill="#63b8ff" stroke="#63b8ff" points="141.51,-27.18 148.47,-19.19 138.05,-21.1 141.51,-27.18"/>
</a>
</g>
</g>
<!-- Node3 -->
<g id="Node000003" class="node">
<title>Node3</title>
<g id="a_Node000003"><a xlink:href="external_8c.html#aad3025d980410fa157174acbf923f8c0" target="_top" xlink:title=" ">
<polygon fill="white" stroke="#666666" points="350,-651 257,-651 257,-632 350,-632 350,-651"/>
<text text-anchor="middle" x="303.5" y="-639" font-family="Helvetica,sans-Serif" font-size="10.00">func_800C92CC</text>
</a>
</g>
</g>
<!-- Node2&#45;&gt;Node3 -->
<g id="edge2_Node000002_Node000003" class="edge">
<title>Node2&#45;&gt;Node3</title>
<g id="a_edge2_Node000002_Node000003"><a xlink:title=" ">
<path fill="none" stroke="#63b8ff" d="M181.51,-539.11C193.64,-557.78 222.81,-599.27 257,-623.5 258.86,-624.82 260.83,-626.06 262.86,-627.22"/>
<polygon fill="#63b8ff" stroke="#63b8ff" points="261.56,-630.48 272.07,-631.83 264.7,-624.22 261.56,-630.48"/>
</a>
</g>
</g>
<!-- Node4 -->
<g id="Node000004" class="node">
<title>Node4</title>
<g id="a_Node000004"><a xlink:href="external_8h.html#ae82eb9565bbd324f028121f490e7c9a7" target="_top" xlink:title=" ">
<polygon fill="white" stroke="#666666" points="478,-651 386,-651 386,-632 478,-632 478,-651"/>
<text text-anchor="middle" x="432" y="-639" font-family="Helvetica,sans-Serif" font-size="10.00">func_800C1C88</text>
</a>
</g>
</g>
<!-- Node3&#45;&gt;Node4 -->
<g id="edge3_Node000003_Node000004" class="edge">
<title>Node3&#45;&gt;Node4</title>
<g id="a_edge3_Node000003_Node000004"><a xlink:title=" ">
<path fill="none" stroke="#63b8ff" d="M350.17,-641.5C358.42,-641.5 367.11,-641.5 375.6,-641.5"/>
<polygon fill="#63b8ff" stroke="#63b8ff" points="375.82,-645 385.82,-641.5 375.82,-638 375.82,-645"/>
</a>
</g>
</g>
<!-- Node5 -->
<g id="Node000005" class="node">
<title>Node5</title>
<g id="a_Node000005"><a xlink:href="external_8c.html#a62e16f9600e7e9beda2c9d2df10f3561" target="_top" xlink:title=" ">
<polygon fill="white" stroke="#666666" points="715,-114 643,-114 643,-95 715,-95 715,-114"/>
<text text-anchor="middle" x="679" y="-102" font-family="Helvetica,sans-Serif" font-size="10.00">play_sound</text>
</a>
</g>
</g>
<!-- Node3&#45;&gt;Node5 -->
<g id="edge4_Node000003_Node000005" class="edge">
<title>Node3&#45;&gt;Node5</title>
<g id="a_edge4_Node000003_Node000005"><a xlink:title=" ">
<path fill="none" stroke="#63b8ff" d="M336.3,-631.95C341.18,-629.65 345.94,-626.86 350,-623.5 530.31,-474.09 642.71,-198.89 670.96,-123.84"/>
<polygon fill="#63b8ff" stroke="#63b8ff" points="674.32,-124.85 674.52,-114.26 667.76,-122.41 674.32,-124.85"/>
</a>
</g>
</g>
<!-- Node8 -->
<g id="Node000008" class="node">
<title>Node8</title>
<g id="a_Node000008"><a xlink:href="code__8008C1D0_8c.html#ad164a912d7ef76f24e7b5cfb9169c16f" target="_top" xlink:title=" ">
<polygon fill="white" stroke="#666666" points="350,-614 257,-614 257,-595 350,-595 350,-614"/>
<text text-anchor="middle" x="303.5" y="-602" font-family="Helvetica,sans-Serif" font-size="10.00">func_8008C6D0</text>
</a>
</g>
</g>
<!-- Node7&#45;&gt;Node8 -->
<g id="edge7_Node000007_Node000008" class="edge">
<title>Node7&#45;&gt;Node8</title>
<g id="a_edge7_Node000007_Node000008"><a xlink:title=" ">
<path fill="none" stroke="#63b8ff" d="M210.03,-336.25C214.22,-338.68 218.05,-341.72 221,-345.5 287.55,-430.94 189.65,-501.69 257,-586.5 257.5,-587.12 258.02,-587.73 258.56,-588.31"/>
<polygon fill="#63b8ff" stroke="#63b8ff" points="256.66,-591.27 266.66,-594.75 261.01,-585.79 256.66,-591.27"/>
</a>
</g>
</g>
<!-- Node9 -->
<g id="Node000009" class="node">
<title>Node9</title>
<g id="a_Node000009"><a xlink:href="code__8008C1D0_8c.html#a105203221e314be241a95e006b62ef80" target="_top" xlink:title=" ">
<polygon fill="white" stroke="#666666" points="349.5,-577 257.5,-577 257.5,-558 349.5,-558 349.5,-577"/>
<text text-anchor="middle" x="303.5" y="-565" font-family="Helvetica,sans-Serif" font-size="10.00">func_8008C8C4</text>
</a>
</g>
</g>
<!-- Node7&#45;&gt;Node9 -->
<g id="edge8_Node000007_Node000009" class="edge">
<title>Node7&#45;&gt;Node9</title>
<g id="a_edge8_Node000007_Node000009"><a xlink:title=" ">
<path fill="none" stroke="#63b8ff" d="M209.48,-336.06C213.87,-338.53 217.9,-341.62 221,-345.5 278.53,-417.38 198.8,-478.16 257,-549.5 257.61,-550.25 258.26,-550.97 258.93,-551.65"/>
<polygon fill="#63b8ff" stroke="#63b8ff" points="257.11,-554.67 267.19,-557.95 261.36,-549.1 257.11,-554.67"/>
</a>
</g>
</g>
<!-- Node10 -->
<g id="Node000010" class="node">
<title>Node10</title>
<g id="a_Node000010"><a xlink:href="code__8008C1D0_8c.html#acab450a6af6eca812ad3987a292a5165" target="_top" xlink:title=" ">
<polygon fill="white" stroke="#666666" points="349.5,-540 257.5,-540 257.5,-521 349.5,-521 349.5,-540"/>
<text text-anchor="middle" x="303.5" y="-528" font-family="Helvetica,sans-Serif" font-size="10.00">func_8008D0E4</text>
</a>
</g>
</g>
<!-- Node7&#45;&gt;Node10 -->
<g id="edge9_Node000007_Node000010" class="edge">
<title>Node7&#45;&gt;Node10</title>
<g id="a_edge9_Node000007_Node000010"><a xlink:title=" ">
<path fill="none" stroke="#63b8ff" d="M209.35,-336.17C213.75,-338.62 217.83,-341.68 221,-345.5 269.55,-403.88 207.9,-454.58 257,-512.5 257.62,-513.24 258.28,-513.94 258.97,-514.62"/>
<polygon fill="#63b8ff" stroke="#63b8ff" points="257.2,-517.67 267.31,-520.85 261.39,-512.06 257.2,-517.67"/>
</a>
</g>
</g>
<!-- Node11 -->
<g id="Node000011" class="node">
<title>Node11</title>
<g id="a_Node000011"><a xlink:href="code__8008C1D0_8c.html#a663cb8df8b606cf00e361977c9d6d834" target="_top" xlink:title=" ">
<polygon fill="white" stroke="#666666" points="350,-503 257,-503 257,-484 350,-484 350,-503"/>
<text text-anchor="middle" x="303.5" y="-491" font-family="Helvetica,sans-Serif" font-size="10.00">func_8008D3B0</text>
</a>
</g>
</g>
<!-- Node7&#45;&gt;Node11 -->
<g id="edge10_Node000007_Node000011" class="edge">
<title>Node7&#45;&gt;Node11</title>
<g id="a_edge10_Node000007_Node000011"><a xlink:title=" ">
<path fill="none" stroke="#63b8ff" d="M208.7,-336.08C213.3,-338.56 217.6,-341.65 221,-345.5 260.65,-390.47 216.93,-430.91 257,-475.5 257.77,-476.35 258.58,-477.17 259.43,-477.94"/>
<polygon fill="#63b8ff" stroke="#63b8ff" points="257.76,-481.04 267.95,-483.94 261.79,-475.32 257.76,-481.04"/>
</a>
</g>
</g>
<!-- Node12 -->
<g id="Node000012" class="node">
<title>Node12</title>
<g id="a_Node000012"><a xlink:href="code__8008C1D0_8c.html#ae7bb91110e710a8f32fcd4c56c56f934" target="_top" xlink:title=" ">
<polygon fill="white" stroke="#666666" points="349.5,-466 257.5,-466 257.5,-447 349.5,-447 349.5,-466"/>
<text text-anchor="middle" x="303.5" y="-454" font-family="Helvetica,sans-Serif" font-size="10.00">func_8008D554</text>
</a>
</g>
</g>
<!-- Node7&#45;&gt;Node12 -->
<g id="edge11_Node000007_Node000012" class="edge">
<title>Node7&#45;&gt;Node12</title>
<g id="a_edge11_Node000007_Node000012"><a xlink:title=" ">
<path fill="none" stroke="#63b8ff" d="M207.91,-336.15C212.72,-338.62 217.3,-341.7 221,-345.5 251.93,-377.25 225.78,-407.04 257,-438.5 257.94,-439.45 258.94,-440.35 259.99,-441.2"/>
<polygon fill="#63b8ff" stroke="#63b8ff" points="258.43,-444.37 268.72,-446.89 262.25,-438.5 258.43,-444.37"/>
</a>
</g>
</g>
<!-- Node13 -->
<g id="Node000013" class="node">
<title>Node13</title>
<g id="a_Node000013"><a xlink:href="code__8008C1D0_8c.html#a5f19eaaa048055d292d02c717e635786" target="_top" xlink:title=" ">
<polygon fill="white" stroke="#666666" points="349.5,-429 257.5,-429 257.5,-410 349.5,-410 349.5,-429"/>
<text text-anchor="middle" x="303.5" y="-417" font-family="Helvetica,sans-Serif" font-size="10.00">func_8008D760</text>
</a>
</g>
</g>
<!-- Node7&#45;&gt;Node13 -->
<g id="edge12_Node000007_Node000013" class="edge">
<title>Node7&#45;&gt;Node13</title>
<g id="a_edge12_Node000007_Node000013"><a xlink:title=" ">
<path fill="none" stroke="#63b8ff" d="M205.86,-336.14C211.24,-338.67 216.54,-341.76 221,-345.5 243.68,-364.5 234.14,-382.71 257,-401.5 258.53,-402.75 260.15,-403.93 261.84,-405.03"/>
<polygon fill="#63b8ff" stroke="#63b8ff" points="260.27,-408.16 270.72,-409.92 263.65,-402.03 260.27,-408.16"/>
</a>
</g>
</g>
<!-- Node14 -->
<g id="Node000014" class="node">
<title>Node14</title>
<g id="a_Node000014"><a xlink:href="code__8008C1D0_8c.html#a4ea2da0616ee3c475e4be217dc0bc71f" target="_top" xlink:title=" ">
<polygon fill="white" stroke="#666666" points="350,-392 257,-392 257,-373 350,-373 350,-392"/>
<text text-anchor="middle" x="303.5" y="-380" font-family="Helvetica,sans-Serif" font-size="10.00">func_8008D97C</text>
</a>
</g>
</g>
<!-- Node7&#45;&gt;Node14 -->
<g id="edge13_Node000007_Node000014" class="edge">
<title>Node7&#45;&gt;Node14</title>
<g id="a_edge13_Node000007_Node000014"><a xlink:title=" ">
<path fill="none" stroke="#63b8ff" d="M199.76,-336.16C206.68,-339.04 214.19,-342.29 221,-345.5 237.36,-353.22 240.56,-356.94 257,-364.5 260.36,-366.05 263.9,-367.59 267.45,-369.08"/>
<polygon fill="#63b8ff" stroke="#63b8ff" points="266.2,-372.35 276.78,-372.89 268.85,-365.87 266.2,-372.35"/>
</a>
</g>
</g>
<!-- Node15 -->
<g id="Node000015" class="node">
<title>Node15</title>
<g id="a_Node000015"><a xlink:href="code__8008C1D0_8c.html#a4a437d6caeeaa794bcce43ec60c097e9" target="_top" xlink:title=" ">
<polygon fill="white" stroke="#666666" points="349,-355 258,-355 258,-336 349,-336 349,-355"/>
<text text-anchor="middle" x="303.5" y="-343" font-family="Helvetica,sans-Serif" font-size="10.00">func_8008E884</text>
</a>
</g>
</g>
<!-- Node7&#45;&gt;Node15 -->
<g id="edge14_Node000007_Node000015" class="edge">
<title>Node7&#45;&gt;Node15</title>
<g id="a_edge14_Node000007_Node000015"><a xlink:title=" ">
<path fill="none" stroke="#63b8ff" d="M220.63,-333.25C229.44,-334.57 238.76,-335.96 247.84,-337.32"/>
<polygon fill="#63b8ff" stroke="#63b8ff" points="247.53,-340.82 257.94,-338.83 248.57,-333.89 247.53,-340.82"/>
</a>
</g>
</g>
<!-- Node16 -->
<g id="Node000016" class="node">
<title>Node16</title>
<g id="a_Node000016"><a xlink:href="code__8008C1D0_8c.html#a4e2c6d0ba50b7c13695f74f1c2bc7b18" target="_top" xlink:title=" ">
<polygon fill="white" stroke="#666666" points="349.5,-318 257.5,-318 257.5,-299 349.5,-299 349.5,-318"/>
<text text-anchor="middle" x="303.5" y="-306" font-family="Helvetica,sans-Serif" font-size="10.00">func_8008EC34</text>
</a>
</g>
</g>
<!-- Node7&#45;&gt;Node16 -->
<g id="edge15_Node000007_Node000016" class="edge">
<title>Node7&#45;&gt;Node16</title>
<g id="a_edge15_Node000007_Node000016"><a xlink:title=" ">
<path fill="none" stroke="#63b8ff" d="M220.63,-320.1C229.14,-318.9 238.13,-317.62 246.91,-316.38"/>
<polygon fill="#63b8ff" stroke="#63b8ff" points="247.67,-319.81 257.08,-314.94 246.69,-312.87 247.67,-319.81"/>
</a>
</g>
</g>
<!-- Node17 -->
<g id="Node000017" class="node">
<title>Node17</title>
<g id="a_Node000017"><a xlink:href="code__8008C1D0_8c.html#ae48f5d9507d1966754bc1aa1bddc4136" target="_top" xlink:title=" ">
<polygon fill="white" stroke="#666666" points="349.5,-281 257.5,-281 257.5,-262 349.5,-262 349.5,-281"/>
<text text-anchor="middle" x="303.5" y="-269" font-family="Helvetica,sans-Serif" font-size="10.00">func_8008EEC4</text>
</a>
</g>
</g>
<!-- Node7&#45;&gt;Node17 -->
<g id="edge16_Node000007_Node000017" class="edge">
<title>Node7&#45;&gt;Node17</title>
<g id="a_edge16_Node000007_Node000017"><a xlink:title=" ">
<path fill="none" stroke="#63b8ff" d="M196.9,-316.91C213.31,-309.58 236.53,-299.29 257,-290.5 261.18,-288.7 265.59,-286.83 269.95,-285"/>
<polygon fill="#63b8ff" stroke="#63b8ff" points="271.44,-288.17 279.31,-281.07 268.74,-281.71 271.44,-288.17"/>
</a>
</g>
</g>
<!-- Node18 -->
<g id="Node000018" class="node">
<title>Node18</title>
<g id="a_Node000018"><a xlink:href="code__8008C1D0_8c.html#a77e26f2cff6381f9ba1575f8da060571" target="_top" xlink:title=" ">
<polygon fill="white" stroke="#666666" points="349,-244 258,-244 258,-225 349,-225 349,-244"/>
<text text-anchor="middle" x="303.5" y="-232" font-family="Helvetica,sans-Serif" font-size="10.00">func_8008F0E8</text>
</a>
</g>
</g>
<!-- Node7&#45;&gt;Node18 -->
<g id="edge17_Node000007_Node000018" class="edge">
<title>Node7&#45;&gt;Node18</title>
<g id="a_edge17_Node000007_Node000018"><a xlink:title=" ">
<path fill="none" stroke="#63b8ff" d="M184.2,-316.85C198.27,-301.71 227.44,-272.15 257,-253.5 259.82,-251.72 262.84,-250.04 265.93,-248.47"/>
<polygon fill="#63b8ff" stroke="#63b8ff" points="267.7,-251.51 275.29,-244.11 264.74,-245.16 267.7,-251.51"/>
</a>
</g>
</g>
<!-- Node19 -->
<g id="Node000019" class="node">
<title>Node19</title>
<g id="a_Node000019"><a xlink:href="code__8008C1D0_8c.html#ae02351b6bbb678b552ec8864b47fc56c" target="_top" xlink:title=" ">
<polygon fill="white" stroke="#666666" points="349,-207 258,-207 258,-188 349,-188 349,-207"/>
<text text-anchor="middle" x="303.5" y="-195" font-family="Helvetica,sans-Serif" font-size="10.00">func_8008F3E0</text>
</a>
</g>
</g>
<!-- Node7&#45;&gt;Node19 -->
<g id="edge18_Node000007_Node000019" class="edge">
<title>Node7&#45;&gt;Node19</title>
<g id="a_edge18_Node000007_Node000019"><a xlink:title=" ">
<path fill="none" stroke="#63b8ff" d="M180.28,-316.91C191.17,-295.95 219.76,-245.66 257,-216.5 259.06,-214.88 261.29,-213.38 263.6,-211.99"/>
<polygon fill="#63b8ff" stroke="#63b8ff" points="265.58,-214.9 272.82,-207.16 262.33,-208.7 265.58,-214.9"/>
</a>
</g>
</g>
<!-- Node20 -->
<g id="Node000020" class="node">
<title>Node20</title>
<g id="a_Node000020"><a xlink:href="code__8008C1D0_8c.html#afcf39ca15166fb7561402462930cd979" target="_top" xlink:title=" ">
<polygon fill="white" stroke="#666666" points="349.5,-170 257.5,-170 257.5,-151 349.5,-151 349.5,-170"/>
<text text-anchor="middle" x="303.5" y="-158" font-family="Helvetica,sans-Serif" font-size="10.00">func_8008F5A4</text>
</a>
</g>
</g>
<!-- Node7&#45;&gt;Node20 -->
<g id="edge19_Node000007_Node000020" class="edge">
<title>Node7&#45;&gt;Node20</title>
<g id="a_edge19_Node000007_Node000020"><a xlink:title=" ">
<path fill="none" stroke="#63b8ff" d="M178.37,-316.83C186.48,-291.03 211.99,-219.78 257,-179.5 258.71,-177.97 260.56,-176.55 262.51,-175.24"/>
<polygon fill="#63b8ff" stroke="#63b8ff" points="264.51,-178.12 271.47,-170.14 261.05,-172.04 264.51,-178.12"/>
</a>
</g>
</g>
<!-- Node24 -->
<g id="Node000024" class="node">
<title>Node24</title>
<g id="a_Node000024"><a xlink:href="code__8008C1D0_8c.html#ab6d84742231847170dd64267f0519cdf" target="_top" xlink:title=" ">
<polygon fill="white" stroke="#666666" points="350,-133 257,-133 257,-114 350,-114 350,-133"/>
<text text-anchor="middle" x="303.5" y="-121" font-family="Helvetica,sans-Serif" font-size="10.00">func_8008FEDC</text>
</a>
</g>
</g>
<!-- Node7&#45;&gt;Node24 -->
<g id="edge24_Node000007_Node000024" class="edge">
<title>Node7&#45;&gt;Node24</title>
<g id="a_edge24_Node000007_Node000024"><a xlink:title=" ">
<path fill="none" stroke="#63b8ff" d="M177.2,-316.65C182.91,-286.5 204.07,-194.31 257,-142.5 258.47,-141.06 260.06,-139.73 261.74,-138.49"/>
<polygon fill="#63b8ff" stroke="#63b8ff" points="263.97,-141.23 270.72,-133.06 260.35,-135.24 263.97,-141.23"/>
</a>
</g>
</g>
<!-- Node21 -->
<g id="Node000021" class="node">
<title>Node21</title>
<g id="a_Node000021"><a xlink:href="code__80057C60_8c.html#a0a55fae21abd30d3c618adef1a9f3ccd" target="_top" xlink:title=" ">
<polygon fill="white" stroke="#666666" points="478,-151 386,-151 386,-132 478,-132 478,-151"/>
<text text-anchor="middle" x="432" y="-139" font-family="Helvetica,sans-Serif" font-size="10.00">func_8006B8B4</text>
</a>
</g>
</g>
<!-- Node20&#45;&gt;Node21 -->
<g id="edge20_Node000020_Node000021" class="edge">
<title>Node20&#45;&gt;Node21</title>
<g id="a_edge20_Node000020_Node000021"><a xlink:title=" ">
<path fill="none" stroke="#63b8ff" d="M349.81,-153.69C358.17,-152.44 366.98,-151.12 375.6,-149.82"/>
<polygon fill="#63b8ff" stroke="#63b8ff" points="376.21,-153.27 385.58,-148.32 375.17,-146.35 376.21,-153.27"/>
</a>
</g>
</g>
<!-- Node22 -->
<g id="Node000022" class="node">
<title>Node22</title>
<g id="a_Node000022"><a xlink:href="code__8008C1D0_8c.html#a1c7552c4a370cc015c2726e40f1fdb06" target="_top" xlink:title=" ">
<polygon fill="white" stroke="#666666" points="607,-151 514,-151 514,-132 607,-132 607,-151"/>
<text text-anchor="middle" x="560.5" y="-139" font-family="Helvetica,sans-Serif" font-size="10.00">func_8008FD4C</text>
</a>
</g>
</g>
<!-- Node21&#45;&gt;Node22 -->
<g id="edge21_Node000021_Node000022" class="edge">
<title>Node21&#45;&gt;Node22</title>
<g id="a_edge21_Node000021_Node000022"><a xlink:title=" ">
<path fill="none" stroke="#63b8ff" d="M478.31,-141.5C486.48,-141.5 495.08,-141.5 503.5,-141.5"/>
<polygon fill="#63b8ff" stroke="#63b8ff" points="503.65,-145 513.65,-141.5 503.65,-138 503.65,-145"/>
</a>
</g>
</g>
<!-- Node21&#45;&gt;Node23 -->
<g id="edge22_Node000021_Node000023" class="edge">
<title>Node21&#45;&gt;Node23</title>
<g id="a_edge22_Node000021_Node000023"><a xlink:title=" ">
<path fill="none" stroke="#63b8ff" d="M465.58,-131.97C481.1,-127.43 499.87,-121.94 516.53,-117.07"/>
<polygon fill="#63b8ff" stroke="#63b8ff" points="517.98,-120.29 526.59,-114.12 516.01,-113.57 517.98,-120.29"/>
</a>
</g>
</g>
<!-- Node23&#45;&gt;Node5 -->
<g id="edge23_Node000023_Node000005" class="edge">
<title>Node23&#45;&gt;Node5</title>
<g id="a_edge23_Node000023_Node000005"><a xlink:title=" ">
<path fill="none" stroke="#63b8ff" d="M606.54,-104.5C615.1,-104.5 624.06,-104.5 632.63,-104.5"/>
<polygon fill="#63b8ff" stroke="#63b8ff" points="632.83,-108 642.83,-104.5 632.83,-101 632.83,-108"/>
</a>
</g>
</g>
<!-- Node25&#45;&gt;Node5 -->
<g id="edge27_Node000025_Node000005" class="edge">
<title>Node25&#45;&gt;Node5</title>
<g id="a_edge27_Node000025_Node000005"><a xlink:title=" ">
<path fill="none" stroke="#63b8ff" d="M478.2,-56.77C513.4,-64.13 563.43,-74.92 607,-85.5 615.74,-87.62 625.05,-90.02 633.95,-92.37"/>
<polygon fill="#63b8ff" stroke="#63b8ff" points="633.21,-95.8 643.77,-95 635.02,-89.03 633.21,-95.8"/>
</a>
</g>
</g>
</g>
</svg>
