<?xml version="1.0" encoding="UTF-8" standalone="no"?>
<!DOCTYPE svg PUBLIC "-//W3C//DTD SVG 1.1//EN"
 "http://www.w3.org/Graphics/SVG/1.1/DTD/svg11.dtd">
<!-- Generated by graphviz version 2.43.0 (0)
 -->
<!-- Title: src/code_80004740.h Pages: 1 -->
<!--zoomable 335 -->

<svg id="main" version="1.1" xmlns="http://www.w3.org/2000/svg" xmlns:xlink="http://www.w3.org/1999/xlink" xml:space="preserve" onload="init(evt)">
<style type="text/css"><![CDATA[
.node, .edge {opacity: 0.7;}
.node.selected, .edge.selected {opacity: 1;}
.edge:hover path { stroke: red; }
.edge:hover polygon { stroke: red; fill: red; }
]]></style>

<defs>
  <circle id="rim" cx="0" cy="0" r="7"/>
  <circle id="rim2" cx="0" cy="0" r="3.5"/>
  <g id="zoomPlus">
    <use xlink:href="#rim" fill="#404040"><set attributeName="fill" to="#808080" begin="zoomplus.mouseover" end="zoomplus.mouseout"/></use>
    <path d="M-4,0h8M0,-4v8" fill="none" stroke="white" stroke-width="1.5" pointer-events="none"/>
  </g>
  <g id="zoomMin">
    <use xlink:href="#rim" fill="#404040"><set attributeName="fill" to="#808080" begin="zoomminus.mouseover" end="zoomminus.mouseout"/></use>
    <path d="M-4,0h8" fill="none" stroke="white" stroke-width="1.5" pointer-events="none"/>
  </g>
  <g id="arrowUp" transform="translate(30 24)">
    <use xlink:href="#rim"/>
    <path pointer-events="none" fill="none" stroke="white" stroke-width="1.5" d="M0,-3.0v7 M-2.5,-0.5L0,-3.0L2.5,-0.5"/>
  </g>
  <g id="arrowRight" transform="rotate(90) translate(36 -43)">
    <use xlink:href="#rim"/>
    <path pointer-events="none" fill="none" stroke="white" stroke-width="1.5" d="M0,-3.0v7 M-2.5,-0.5L0,-3.0L2.5,-0.5"/>
  </g>
  <g id="arrowDown" transform="rotate(180) translate(-30 -48)">
    <use xlink:href="#rim"/>
    <path pointer-events="none" fill="none" stroke="white" stroke-width="1.5" d="M0,-3.0v7 M-2.5,-0.5L0,-3.0L2.5,-0.5"/>
  </g>
  <g id="arrowLeft" transform="rotate(270) translate(-36 17)">
    <use xlink:href="#rim"/>
    <path pointer-events="none" fill="none" stroke="white" stroke-width="1.5" d="M0,-3.0v7 M-2.5,-0.5L0,-3.0L2.5,-0.5"/>
  </g>
  <g id="resetDef">
    <use xlink:href="#rim2" fill="#404040"><set attributeName="fill" to="#808080" begin="reset.mouseover" end="reset.mouseout"/></use>
  </g>
</defs>
<script type="application/ecmascript">
var viewWidth = 2433;
var viewHeight = 335;
var sectionId = 'dynsection-1';
</script>
<script type="application/ecmascript" xlink:href="svg.min.js"/>
<svg id="graph" class="graph">
<g id="viewport">
<title>src/code_80004740.h</title>
<!-- Node1 -->
<g id="Node000001" class="node">
<title>Node1</title>
<g id="a_Node000001"><a xlink:title=" ">
<polygon fill="#999999" stroke="#666666" points="1384.5,-327 1265.5,-327 1265.5,-308 1384.5,-308 1384.5,-327"/>
<text text-anchor="middle" x="1325" y="-315" font-family="Helvetica,sans-Serif" font-size="10.00">src/code_80004740.h</text>
</a>
</g>
</g>
<!-- Node2 -->
<g id="Node000002" class="node">
<title>Node2</title>
<g id="a_Node000002"><a xlink:href="koopa__troopa__beach_2course__data_8inc_8c.html" target="_top" xlink:title=" ">
<polygon fill="white" stroke="#666666" points="647.5,-272 508.5,-272 508.5,-242 647.5,-242 647.5,-272"/>
<text text-anchor="start" x="516.5" y="-260" font-family="Helvetica,sans-Serif" font-size="10.00">courses/koopa_troopa</text>
<text text-anchor="middle" x="578" y="-249" font-family="Helvetica,sans-Serif" font-size="10.00">_beach/course_data.inc.c</text>
</a>
</g>
</g>
<!-- Node1&#45;&gt;Node2 -->
<g id="edge1_Node000001_Node000002" class="edge">
<title>Node1&#45;&gt;Node2</title>
<g id="a_edge1_Node000001_Node000002"><a xlink:title=" ">
<path fill="none" stroke="#63b8ff" d="M1255.07,-314.35C1133.22,-310.04 874.22,-298.4 657,-272 653.96,-271.63 650.86,-271.22 647.73,-270.78"/>
<polygon fill="#63b8ff" stroke="#63b8ff" points="1255.25,-317.86 1265.37,-314.71 1255.5,-310.86 1255.25,-317.86"/>
</a>
</g>
</g>
<!-- Node3 -->
<g id="Node000003" class="node">
<title>Node3</title>
<g id="a_Node000003"><a xlink:href="koopa__troopa__beach_2course__data_8inc_8h.html" target="_top" xlink:title=" ">
<polygon fill="white" stroke="#666666" points="944,-272 804,-272 804,-242 944,-242 944,-272"/>
<text text-anchor="start" x="812" y="-260" font-family="Helvetica,sans-Serif" font-size="10.00">courses/koopa_troopa</text>
<text text-anchor="middle" x="874" y="-249" font-family="Helvetica,sans-Serif" font-size="10.00">_beach/course_data.inc.h</text>
</a>
</g>
</g>
<!-- Node1&#45;&gt;Node3 -->
<g id="edge2_Node000001_Node000003" class="edge">
<title>Node1&#45;&gt;Node3</title>
<g id="a_edge2_Node000001_Node000003"><a xlink:title=" ">
<path fill="none" stroke="#63b8ff" d="M1255.21,-309.26C1180.53,-301.25 1058.66,-287.42 954,-272 950.79,-271.53 947.51,-271.03 944.21,-270.51"/>
<polygon fill="#63b8ff" stroke="#63b8ff" points="1255.12,-312.77 1265.43,-310.35 1255.86,-305.81 1255.12,-312.77"/>
</a>
</g>
</g>
<!-- Node12 -->
<g id="Node000012" class="node">
<title>Node12</title>
<g id="a_Node000012"><a xlink:href="all__variables_8h.html" target="_top" xlink:title=" ">
<polygon fill="white" stroke="#666666" points="2425,-134.5 2287,-134.5 2287,-115.5 2425,-115.5 2425,-134.5"/>
<text text-anchor="middle" x="2356" y="-122.5" font-family="Helvetica,sans-Serif" font-size="10.00">src/debug/all_variables.h</text>
</a>
</g>
</g>
<!-- Node1&#45;&gt;Node12 -->
<g id="edge32_Node000001_Node000012" class="edge">
<title>Node1&#45;&gt;Node12</title>
<g id="a_edge32_Node000001_Node000012"><a xlink:title=" ">
<path fill="none" stroke="#63b8ff" d="M1375.66,-305.41C1403.81,-298.11 1438.92,-287.09 1468,-272 1487.41,-261.93 1486.7,-250.12 1507,-242 1648.08,-185.55 1696.3,-225.51 1847,-206 2039.19,-181.12 2086.84,-171.79 2278,-140 2288.18,-138.31 2299.09,-136.41 2309.43,-134.56"/>
<polygon fill="#63b8ff" stroke="#63b8ff" points="1374.48,-302.1 1365.63,-307.93 1376.18,-308.88 1374.48,-302.1"/>
</a>
</g>
</g>
<!-- Node16 -->
<g id="Node000016" class="node">
<title>Node16</title>
<g id="a_Node000016"><a xlink:href="render__objects_8c.html" target="_top" xlink:title=" ">
<polygon fill="white" stroke="#666666" points="1120,-134.5 1006,-134.5 1006,-115.5 1120,-115.5 1120,-134.5"/>
<text text-anchor="middle" x="1063" y="-122.5" font-family="Helvetica,sans-Serif" font-size="10.00">src/render_objects.c</text>
</a>
</g>
</g>
<!-- Node1&#45;&gt;Node16 -->
<g id="edge33_Node000001_Node000016" class="edge">
<title>Node1&#45;&gt;Node16</title>
<g id="a_edge33_Node000001_Node000016"><a xlink:title=" ">
<path fill="none" stroke="#63b8ff" d="M1309.52,-300.23C1292.25,-283.07 1262.68,-256.54 1232,-242 1162.6,-209.11 1111.32,-265.69 1063,-206 1046.22,-185.27 1054.61,-150.64 1059.85,-134.61"/>
<polygon fill="#63b8ff" stroke="#63b8ff" points="1307.46,-303.12 1316.96,-307.8 1312.46,-298.22 1307.46,-303.12"/>
</a>
</g>
</g>
<!-- Node19 -->
<g id="Node000019" class="node">
<title>Node19</title>
<g id="a_Node000019"><a xlink:href="rainbow__road_2course__data_8inc_8c.html" target="_top" xlink:title=" ">
<polygon fill="white" stroke="#666666" points="1638.5,-272 1515.5,-272 1515.5,-242 1638.5,-242 1638.5,-272"/>
<text text-anchor="start" x="1523.5" y="-260" font-family="Helvetica,sans-Serif" font-size="10.00">courses/rainbow_road</text>
<text text-anchor="middle" x="1577" y="-249" font-family="Helvetica,sans-Serif" font-size="10.00">/course_data.inc.c</text>
</a>
</g>
</g>
<!-- Node1&#45;&gt;Node19 -->
<g id="edge21_Node000001_Node000019" class="edge">
<title>Node1&#45;&gt;Node19</title>
<g id="a_edge21_Node000001_Node000019"><a xlink:title=" ">
<path fill="none" stroke="#63b8ff" d="M1371.59,-305.68C1412.39,-296.21 1471.93,-282.39 1516.42,-272.06"/>
<polygon fill="#63b8ff" stroke="#63b8ff" points="1370.59,-302.32 1361.64,-307.99 1372.18,-309.14 1370.59,-302.32"/>
</a>
</g>
</g>
<!-- Node20 -->
<g id="Node000020" class="node">
<title>Node20</title>
<g id="a_Node000020"><a xlink:href="rainbow__road_2course__data_8inc_8h.html" target="_top" xlink:title=" ">
<polygon fill="white" stroke="#666666" points="1085.5,-272 962.5,-272 962.5,-242 1085.5,-242 1085.5,-272"/>
<text text-anchor="start" x="970.5" y="-260" font-family="Helvetica,sans-Serif" font-size="10.00">courses/rainbow_road</text>
<text text-anchor="middle" x="1024" y="-249" font-family="Helvetica,sans-Serif" font-size="10.00">/course_data.inc.h</text>
</a>
</g>
</g>
<!-- Node1&#45;&gt;Node20 -->
<g id="edge22_Node000001_Node000020" class="edge">
<title>Node1&#45;&gt;Node20</title>
<g id="a_edge22_Node000001_Node000020"><a xlink:title=" ">
<path fill="none" stroke="#63b8ff" d="M1270.58,-306.03C1223.97,-297.04 1155.06,-283.73 1095,-272 1091.92,-271.4 1088.76,-270.78 1085.57,-270.15"/>
<polygon fill="#63b8ff" stroke="#63b8ff" points="1269.99,-309.48 1280.47,-307.93 1271.31,-302.6 1269.99,-309.48"/>
</a>
</g>
</g>
<!-- Node21 -->
<g id="Node000021" class="node">
<title>Node21</title>
<g id="a_Node000021"><a xlink:href="sherbet__land_2course__data_8inc_8c.html" target="_top" xlink:title=" ">
<polygon fill="white" stroke="#666666" points="1777,-272 1657,-272 1657,-242 1777,-242 1777,-272"/>
<text text-anchor="start" x="1665" y="-260" font-family="Helvetica,sans-Serif" font-size="10.00">courses/sherbet_land</text>
<text text-anchor="middle" x="1717" y="-249" font-family="Helvetica,sans-Serif" font-size="10.00">/course_data.inc.c</text>
</a>
</g>
</g>
<!-- Node1&#45;&gt;Node21 -->
<g id="edge24_Node000001_Node000021" class="edge">
<title>Node1&#45;&gt;Node21</title>
<g id="a_edge24_Node000001_Node000021"><a xlink:title=" ">
<path fill="none" stroke="#63b8ff" d="M1394.92,-308.16C1460.47,-300.04 1561.13,-286.78 1648,-272 1650.89,-271.51 1653.85,-270.99 1656.83,-270.44"/>
<polygon fill="#63b8ff" stroke="#63b8ff" points="1394.2,-304.73 1384.7,-309.42 1395.06,-311.67 1394.2,-304.73"/>
</a>
</g>
</g>
<!-- Node22 -->
<g id="Node000022" class="node">
<title>Node22</title>
<g id="a_Node000022"><a xlink:href="sherbet__land_2course__data_8inc_8h.html" target="_top" xlink:title=" ">
<polygon fill="white" stroke="#666666" points="786,-272 666,-272 666,-242 786,-242 786,-272"/>
<text text-anchor="start" x="674" y="-260" font-family="Helvetica,sans-Serif" font-size="10.00">courses/sherbet_land</text>
<text text-anchor="middle" x="726" y="-249" font-family="Helvetica,sans-Serif" font-size="10.00">/course_data.inc.h</text>
</a>
</g>
</g>
<!-- Node1&#45;&gt;Node22 -->
<g id="edge25_Node000001_Node000022" class="edge">
<title>Node1&#45;&gt;Node22</title>
<g id="a_edge25_Node000001_Node000022"><a xlink:title=" ">
<path fill="none" stroke="#63b8ff" d="M1254.99,-313.22C1153.29,-307.87 958.93,-295.43 795,-272 792.1,-271.58 789.13,-271.12 786.14,-270.63"/>
<polygon fill="#63b8ff" stroke="#63b8ff" points="1254.96,-316.73 1265.13,-313.75 1255.33,-309.74 1254.96,-316.73"/>
</a>
</g>
</g>
<!-- Node24 -->
<g id="Node000024" class="node">
<title>Node24</title>
<g id="a_Node000024"><a xlink:href="yoshi__valley_2course__data_8inc_8c.html" target="_top" xlink:title=" ">
<polygon fill="white" stroke="#666666" points="1914.5,-272 1795.5,-272 1795.5,-242 1914.5,-242 1914.5,-272"/>
<text text-anchor="start" x="1803.5" y="-260" font-family="Helvetica,sans-Serif" font-size="10.00">courses/yoshi_valley</text>
<text text-anchor="middle" x="1855" y="-249" font-family="Helvetica,sans-Serif" font-size="10.00">/course_data.inc.c</text>
</a>
</g>
</g>
<!-- Node1&#45;&gt;Node24 -->
<g id="edge28_Node000001_Node000024" class="edge">
<title>Node1&#45;&gt;Node24</title>
<g id="a_edge28_Node000001_Node000024"><a xlink:title=" ">
<path fill="none" stroke="#63b8ff" d="M1394.69,-312.04C1485.21,-305.73 1647.98,-292.61 1786,-272 1789.02,-271.55 1792.11,-271.05 1795.23,-270.52"/>
<polygon fill="#63b8ff" stroke="#63b8ff" points="1394.29,-308.56 1384.55,-312.74 1394.77,-315.54 1394.29,-308.56"/>
</a>
</g>
</g>
<!-- Node25 -->
<g id="Node000025" class="node">
<title>Node25</title>
<g id="a_Node000025"><a xlink:href="yoshi__valley_2course__data_8inc_8h.html" target="_top" xlink:title=" ">
<polygon fill="white" stroke="#666666" points="1222.5,-272 1103.5,-272 1103.5,-242 1222.5,-242 1222.5,-272"/>
<text text-anchor="start" x="1111.5" y="-260" font-family="Helvetica,sans-Serif" font-size="10.00">courses/yoshi_valley</text>
<text text-anchor="middle" x="1163" y="-249" font-family="Helvetica,sans-Serif" font-size="10.00">/course_data.inc.h</text>
</a>
</g>
</g>
<!-- Node1&#45;&gt;Node25 -->
<g id="edge29_Node000001_Node000025" class="edge">
<title>Node1&#45;&gt;Node25</title>
<g id="a_edge29_Node000001_Node000025"><a xlink:title=" ">
<path fill="none" stroke="#63b8ff" d="M1292,-304.58C1265.92,-295.16 1229.46,-282 1201.95,-272.06"/>
<polygon fill="#63b8ff" stroke="#63b8ff" points="1290.85,-307.89 1301.44,-307.99 1293.23,-301.31 1290.85,-307.89"/>
</a>
</g>
</g>
<!-- Node26 -->
<g id="Node000026" class="node">
<title>Node26</title>
<g id="a_Node000026"><a xlink:href="code__80004740_8c.html" target="_top" xlink:title=" ">
<polygon fill="white" stroke="#666666" points="2051.5,-266.5 1932.5,-266.5 1932.5,-247.5 2051.5,-247.5 2051.5,-266.5"/>
<text text-anchor="middle" x="1992" y="-254.5" font-family="Helvetica,sans-Serif" font-size="10.00">src/code_80004740.c</text>
</a>
</g>
</g>
<!-- Node1&#45;&gt;Node26 -->
<g id="edge31_Node000001_Node000026" class="edge">
<title>Node1&#45;&gt;Node26</title>
<g id="a_edge31_Node000001_Node000026"><a xlink:title=" ">
<path fill="none" stroke="#63b8ff" d="M1394.94,-314.23C1507.05,-309.93 1733.71,-298.54 1924,-272 1934.15,-270.58 1945.05,-268.57 1955.09,-266.5"/>
<polygon fill="#63b8ff" stroke="#63b8ff" points="1394.65,-310.74 1384.78,-314.61 1394.91,-317.73 1394.65,-310.74"/>
</a>
</g>
</g>
<!-- Node27 -->
<g id="Node000027" class="node">
<title>Node27</title>
<g id="a_Node000027"><a xlink:href="update__objects_8h.html" target="_top" xlink:title=" ">
<polygon fill="white" stroke="#666666" points="1458.5,-266.5 1341.5,-266.5 1341.5,-247.5 1458.5,-247.5 1458.5,-266.5"/>
<text text-anchor="middle" x="1400" y="-254.5" font-family="Helvetica,sans-Serif" font-size="10.00">src/update_objects.h</text>
</a>
</g>
</g>
<!-- Node1&#45;&gt;Node27 -->
<g id="edge34_Node000001_Node000027" class="edge">
<title>Node1&#45;&gt;Node27</title>
<g id="a_edge34_Node000001_Node000027"><a xlink:title=" ">
<path fill="none" stroke="#63b8ff" d="M1344.18,-301.54C1358.35,-290.49 1377.13,-275.84 1388.89,-266.67"/>
<polygon fill="#63b8ff" stroke="#63b8ff" points="1341.8,-298.96 1336.07,-307.87 1346.1,-304.48 1341.8,-298.96"/>
</a>
</g>
</g>
<!-- Node4 -->
<g id="Node000004" class="node">
<title>Node4</title>
<g id="a_Node000004"><a xlink:href="all__course__data_8h.html" target="_top" xlink:title=" ">
<polygon fill="white" stroke="#666666" points="1015.5,-206 908.5,-206 908.5,-176 1015.5,-176 1015.5,-206"/>
<text text-anchor="start" x="916.5" y="-194" font-family="Helvetica,sans-Serif" font-size="10.00">courses/all_course</text>
<text text-anchor="middle" x="962" y="-183" font-family="Helvetica,sans-Serif" font-size="10.00">_data.h</text>
</a>
</g>
</g>
<!-- Node3&#45;&gt;Node4 -->
<g id="edge3_Node000003_Node000004" class="edge">
<title>Node3&#45;&gt;Node4</title>
<g id="a_edge3_Node000003_Node000004"><a xlink:title=" ">
<path fill="none" stroke="#63b8ff" d="M901.84,-235.75C915.07,-226.13 930.57,-214.86 942.52,-206.16"/>
<polygon fill="#63b8ff" stroke="#63b8ff" points="899.56,-233.08 893.53,-241.8 903.68,-238.75 899.56,-233.08"/>
</a>
</g>
</g>
<!-- Node18 -->
<g id="Node000018" class="node">
<title>Node18</title>
<g id="a_Node000018"><a xlink:href="palm__tree_2render_8inc_8c.html" target="_top" xlink:title=" ">
<polygon fill="white" stroke="#666666" points="436,-206 320,-206 320,-176 436,-176 436,-206"/>
<text text-anchor="start" x="328" y="-194" font-family="Helvetica,sans-Serif" font-size="10.00">src/actors/palm_tree</text>
<text text-anchor="middle" x="378" y="-183" font-family="Helvetica,sans-Serif" font-size="10.00">/render.inc.c</text>
</a>
</g>
</g>
<!-- Node3&#45;&gt;Node18 -->
<g id="edge19_Node000003_Node000018" class="edge">
<title>Node3&#45;&gt;Node18</title>
<g id="a_edge19_Node000003_Node000018"><a xlink:title=" ">
<path fill="none" stroke="#63b8ff" d="M793.8,-241.87C660.03,-222.24 514.9,-206.2 436.15,-197.93"/>
<polygon fill="#63b8ff" stroke="#63b8ff" points="793.42,-245.35 803.82,-243.35 794.44,-238.43 793.42,-245.35"/>
</a>
</g>
</g>
<!-- Node5 -->
<g id="Node000005" class="node">
<title>Node5</title>
<g id="a_Node000005"><a xlink:href="paddle__boat_2render_8inc_8c.html" target="_top" xlink:title=" ">
<polygon fill="white" stroke="#666666" points="479.5,-140 352.5,-140 352.5,-110 479.5,-110 479.5,-140"/>
<text text-anchor="start" x="360.5" y="-128" font-family="Helvetica,sans-Serif" font-size="10.00">src/actors/paddle_boat</text>
<text text-anchor="middle" x="416" y="-117" font-family="Helvetica,sans-Serif" font-size="10.00">/render.inc.c</text>
</a>
</g>
</g>
<!-- Node4&#45;&gt;Node5 -->
<g id="edge4_Node000004_Node000005" class="edge">
<title>Node4&#45;&gt;Node5</title>
<g id="a_edge4_Node000004_Node000005"><a xlink:title=" ">
<path fill="none" stroke="#63b8ff" d="M898.32,-185.05C807.12,-177.57 634.17,-161.88 488,-140 485.23,-139.59 482.4,-139.14 479.55,-138.67"/>
<polygon fill="#63b8ff" stroke="#63b8ff" points="898.24,-188.56 908.49,-185.88 898.81,-181.58 898.24,-188.56"/>
</a>
</g>
</g>
<!-- Node6 -->
<g id="Node000006" class="node">
<title>Node6</title>
<g id="a_Node000006"><a xlink:href="actors_8c.html" target="_top" xlink:title=" ">
<polygon fill="white" stroke="#666666" points="468.5,-74 363.5,-74 363.5,-55 468.5,-55 468.5,-74"/>
<text text-anchor="middle" x="416" y="-62" font-family="Helvetica,sans-Serif" font-size="10.00">src/racing/actors.c</text>
</a>
</g>
</g>
<!-- Node4&#45;&gt;Node6 -->
<g id="edge15_Node000004_Node000006" class="edge">
<title>Node4&#45;&gt;Node6</title>
<g id="a_edge15_Node000004_Node000006"><a xlink:title=" ">
<path fill="none" stroke="#63b8ff" d="M969.08,-165.79C972.66,-148.02 973.73,-124.54 960,-110 926.69,-74.74 598.67,-67.42 468.67,-65.9"/>
<polygon fill="#63b8ff" stroke="#63b8ff" points="965.62,-165.19 966.71,-175.73 972.43,-166.82 965.62,-165.19"/>
</a>
</g>
</g>
<!-- Node7 -->
<g id="Node000007" class="node">
<title>Node7</title>
<g id="a_Node000007"><a xlink:href="trees_2render_8inc_8c.html" target="_top" xlink:title=" ">
<polygon fill="white" stroke="#666666" points="648.5,-134.5 497.5,-134.5 497.5,-115.5 648.5,-115.5 648.5,-134.5"/>
<text text-anchor="middle" x="573" y="-122.5" font-family="Helvetica,sans-Serif" font-size="10.00">src/actors/trees/render.inc.c</text>
</a>
</g>
</g>
<!-- Node4&#45;&gt;Node7 -->
<g id="edge6_Node000004_Node000007" class="edge">
<title>Node4&#45;&gt;Node7</title>
<g id="a_edge6_Node000004_Node000007"><a xlink:title=" ">
<path fill="none" stroke="#63b8ff" d="M898.51,-179.56C837.01,-169.45 741.11,-153.68 658,-140 647.23,-138.23 635.69,-136.33 624.69,-134.52"/>
<polygon fill="#63b8ff" stroke="#63b8ff" points="898.02,-183.03 908.46,-181.2 899.16,-176.12 898.02,-183.03"/>
</a>
</g>
</g>
<!-- Node8 -->
<g id="Node000008" class="node">
<title>Node8</title>
<g id="a_Node000008"><a xlink:href="code__800029B0_8c.html" target="_top" xlink:title=" ">
<polygon fill="white" stroke="#666666" points="1394.5,-134.5 1275.5,-134.5 1275.5,-115.5 1394.5,-115.5 1394.5,-134.5"/>
<text text-anchor="middle" x="1335" y="-122.5" font-family="Helvetica,sans-Serif" font-size="10.00">src/code_800029B0.c</text>
</a>
</g>
</g>
<!-- Node4&#45;&gt;Node8 -->
<g id="edge8_Node000004_Node000008" class="edge">
<title>Node4&#45;&gt;Node8</title>
<g id="a_edge8_Node000004_Node000008"><a xlink:title=" ">
<path fill="none" stroke="#63b8ff" d="M1025.55,-180.35C1087.33,-170.79 1183.78,-155.38 1267,-140 1276.01,-138.34 1285.66,-136.42 1294.78,-134.56"/>
<polygon fill="#63b8ff" stroke="#63b8ff" points="1024.91,-176.91 1015.56,-181.89 1025.97,-183.83 1024.91,-176.91"/>
</a>
</g>
</g>
<!-- Node9 -->
<g id="Node000009" class="node">
<title>Node9</title>
<g id="a_Node000009"><a xlink:href="code__80005FD0_8c.html" target="_top" xlink:title=" ">
<polygon fill="white" stroke="#666666" points="334,-134.5 214,-134.5 214,-115.5 334,-115.5 334,-134.5"/>
<text text-anchor="middle" x="274" y="-122.5" font-family="Helvetica,sans-Serif" font-size="10.00">src/code_80005FD0.c</text>
</a>
</g>
</g>
<!-- Node4&#45;&gt;Node9 -->
<g id="edge9_Node000004_Node000009" class="edge">
<title>Node4&#45;&gt;Node9</title>
<g id="a_edge9_Node000004_Node000009"><a xlink:title=" ">
<path fill="none" stroke="#63b8ff" d="M898.04,-185.81C762.23,-176.75 448.86,-154.96 343,-140 332.83,-138.56 321.91,-136.56 311.82,-134.52"/>
<polygon fill="#63b8ff" stroke="#63b8ff" points="898.07,-189.32 908.28,-186.49 898.54,-182.33 898.07,-189.32"/>
</a>
</g>
</g>
<!-- Node10 -->
<g id="Node000010" class="node">
<title>Node10</title>
<g id="a_Node000010"><a xlink:href="code__8006E9C0_8c.html" target="_top" xlink:title=" ">
<polygon fill="white" stroke="#666666" points="1257.5,-134.5 1138.5,-134.5 1138.5,-115.5 1257.5,-115.5 1257.5,-134.5"/>
<text text-anchor="middle" x="1198" y="-122.5" font-family="Helvetica,sans-Serif" font-size="10.00">src/code_8006E9C0.c</text>
</a>
</g>
</g>
<!-- Node4&#45;&gt;Node10 -->
<g id="edge10_Node000004_Node000010" class="edge">
<title>Node4&#45;&gt;Node10</title>
<g id="a_edge10_Node000004_Node000010"><a xlink:title=" ">
<path fill="none" stroke="#63b8ff" d="M1023.63,-173.29C1069.51,-160.84 1130.24,-144.37 1166.59,-134.52"/>
<polygon fill="#63b8ff" stroke="#63b8ff" points="1022.53,-169.96 1013.79,-175.95 1024.36,-176.72 1022.53,-169.96"/>
</a>
</g>
</g>
<!-- Node11 -->
<g id="Node000011" class="node">
<title>Node11</title>
<g id="a_Node000011"><a xlink:href="path__spawn__data_8c.html" target="_top" xlink:title=" ">
<polygon fill="white" stroke="#666666" points="783.5,-140 666.5,-140 666.5,-110 783.5,-110 783.5,-140"/>
<text text-anchor="start" x="674.5" y="-128" font-family="Helvetica,sans-Serif" font-size="10.00">src/data/path_spawn</text>
<text text-anchor="middle" x="725" y="-117" font-family="Helvetica,sans-Serif" font-size="10.00">_data.c</text>
</a>
</g>
</g>
<!-- Node4&#45;&gt;Node11 -->
<g id="edge11_Node000004_Node000011" class="edge">
<title>Node4&#45;&gt;Node11</title>
<g id="a_edge11_Node000004_Node000011"><a xlink:title=" ">
<path fill="none" stroke="#63b8ff" d="M899.99,-173.25C861.7,-162.91 813.14,-149.8 776.89,-140.01"/>
<polygon fill="#63b8ff" stroke="#63b8ff" points="899.42,-176.73 909.99,-175.95 901.25,-169.97 899.42,-176.73"/>
</a>
</g>
</g>
<!-- Node4&#45;&gt;Node12 -->
<g id="edge12_Node000004_Node000012" class="edge">
<title>Node4&#45;&gt;Node12</title>
<g id="a_edge12_Node000004_Node000012"><a xlink:title=" ">
<path fill="none" stroke="#63b8ff" d="M1025.81,-180.09C1038.12,-178.48 1050.94,-177.01 1063,-176 1601.35,-130.85 1740.66,-195.87 2278,-140 2290.04,-138.75 2303.02,-136.7 2314.87,-134.56"/>
<polygon fill="#63b8ff" stroke="#63b8ff" points="1025.05,-176.66 1015.61,-181.47 1025.99,-183.6 1025.05,-176.66"/>
</a>
</g>
</g>
<!-- Node15 -->
<g id="Node000015" class="node">
<title>Node15</title>
<g id="a_Node000015"><a xlink:href="render__courses_8c.html" target="_top" xlink:title=" ">
<polygon fill="white" stroke="#666666" points="950.5,-134.5 801.5,-134.5 801.5,-115.5 950.5,-115.5 950.5,-134.5"/>
<text text-anchor="middle" x="876" y="-122.5" font-family="Helvetica,sans-Serif" font-size="10.00">src/racing/render_courses.c</text>
</a>
</g>
</g>
<!-- Node4&#45;&gt;Node15 -->
<g id="edge16_Node000004_Node000015" class="edge">
<title>Node4&#45;&gt;Node15</title>
<g id="a_edge16_Node000004_Node000015"><a xlink:title=" ">
<path fill="none" stroke="#63b8ff" d="M934.57,-169.58C918.83,-157.87 899.88,-143.77 887.88,-134.84"/>
<polygon fill="#63b8ff" stroke="#63b8ff" points="932.8,-172.63 942.91,-175.8 936.98,-167.02 932.8,-172.63"/>
</a>
</g>
</g>
<!-- Node4&#45;&gt;Node16 -->
<g id="edge17_Node000004_Node000016" class="edge">
<title>Node4&#45;&gt;Node16</title>
<g id="a_edge17_Node000004_Node000016"><a xlink:title=" ">
<path fill="none" stroke="#63b8ff" d="M992.99,-170.36C1011.83,-158.42 1034.95,-143.77 1049.34,-134.66"/>
<polygon fill="#63b8ff" stroke="#63b8ff" points="990.99,-167.49 984.42,-175.8 994.74,-173.4 990.99,-167.49"/>
</a>
</g>
</g>
<!-- Node17 -->
<g id="Node000017" class="node">
<title>Node17</title>
<g id="a_Node000017"><a xlink:href="update__objects_8c.html" target="_top" xlink:title=" ">
<polygon fill="white" stroke="#666666" points="1529,-134.5 1413,-134.5 1413,-115.5 1529,-115.5 1529,-134.5"/>
<text text-anchor="middle" x="1471" y="-122.5" font-family="Helvetica,sans-Serif" font-size="10.00">src/update_objects.c</text>
</a>
</g>
</g>
<!-- Node4&#45;&gt;Node17 -->
<g id="edge18_Node000004_Node000017" class="edge">
<title>Node4&#45;&gt;Node17</title>
<g id="a_edge18_Node000004_Node000017"><a xlink:title=" ">
<path fill="none" stroke="#63b8ff" d="M1025.88,-180.82C1038.19,-179.15 1050.99,-177.47 1063,-176 1214.28,-157.54 1253.44,-163.62 1404,-140 1413.63,-138.49 1423.96,-136.51 1433.56,-134.52"/>
<polygon fill="#63b8ff" stroke="#63b8ff" points="1025.11,-177.4 1015.68,-182.23 1026.07,-184.33 1025.11,-177.4"/>
</a>
</g>
</g>
<!-- Node5&#45;&gt;Node6 -->
<g id="edge5_Node000005_Node000006" class="edge">
<title>Node5&#45;&gt;Node6</title>
<g id="a_edge5_Node000005_Node000006"><a xlink:title=" ">
<path fill="none" stroke="#63b8ff" d="M416,-99.75C416,-90.72 416,-81.03 416,-74.27"/>
<polygon fill="#63b8ff" stroke="#63b8ff" points="412.5,-99.84 416,-109.84 419.5,-99.84 412.5,-99.84"/>
</a>
</g>
</g>
<!-- Node7&#45;&gt;Node6 -->
<g id="edge7_Node000007_Node000006" class="edge">
<title>Node7&#45;&gt;Node6</title>
<g id="a_edge7_Node000007_Node000006"><a xlink:title=" ">
<path fill="none" stroke="#63b8ff" d="M540.47,-111.88C510.12,-100.57 465.61,-83.99 438.86,-74.02"/>
<polygon fill="#63b8ff" stroke="#63b8ff" points="539.58,-115.28 550.17,-115.49 542.02,-108.72 539.58,-115.28"/>
</a>
</g>
</g>
<!-- Node13 -->
<g id="Node000013" class="node">
<title>Node13</title>
<g id="a_Node000013"><a xlink:href="debug_8inc_8c.html" target="_top" xlink:title=" ">
<polygon fill="white" stroke="#666666" points="2417,-74 2295,-74 2295,-55 2417,-55 2417,-74"/>
<text text-anchor="middle" x="2356" y="-62" font-family="Helvetica,sans-Serif" font-size="10.00">src/debug/debug.inc.c</text>
</a>
</g>
</g>
<!-- Node12&#45;&gt;Node13 -->
<g id="edge13_Node000012_Node000013" class="edge">
<title>Node12&#45;&gt;Node13</title>
<g id="a_edge13_Node000012_Node000013"><a xlink:title=" ">
<path fill="none" stroke="#63b8ff" d="M2356,-105.16C2356,-94.74 2356,-82.3 2356,-74.17"/>
<polygon fill="#63b8ff" stroke="#63b8ff" points="2352.5,-105.37 2356,-115.37 2359.5,-105.37 2352.5,-105.37"/>
</a>
</g>
</g>
<!-- Node14 -->
<g id="Node000014" class="node">
<title>Node14</title>
<g id="a_Node000014"><a xlink:href="debug_8c.html" target="_top" xlink:title=" ">
<polygon fill="white" stroke="#666666" points="2408.5,-19 2303.5,-19 2303.5,0 2408.5,0 2408.5,-19"/>
<text text-anchor="middle" x="2356" y="-7" font-family="Helvetica,sans-Serif" font-size="10.00">src/debug/debug.c</text>
</a>
</g>
</g>
<!-- Node13&#45;&gt;Node14 -->
<g id="edge14_Node000013_Node000014" class="edge">
<title>Node13&#45;&gt;Node14</title>
<g id="a_edge14_Node000013_Node000014"><a xlink:title=" ">
<path fill="none" stroke="#63b8ff" d="M2356,-44.66C2356,-35.93 2356,-25.99 2356,-19.09"/>
<polygon fill="#63b8ff" stroke="#63b8ff" points="2352.5,-44.75 2356,-54.75 2359.5,-44.75 2352.5,-44.75"/>
</a>
</g>
</g>
<!-- Node18&#45;&gt;Node6 -->
<g id="edge20_Node000018_Node000006" class="edge">
<title>Node18&#45;&gt;Node6</title>
<g id="a_edge20_Node000018_Node000006"><a xlink:title=" ">
<path fill="none" stroke="#63b8ff" d="M309.84,-182.14C248.1,-172.24 171.53,-151.26 205,-110 224.57,-85.87 307.48,-74.32 363.36,-69.18"/>
<polygon fill="#63b8ff" stroke="#63b8ff" points="309.58,-185.64 319.99,-183.69 310.64,-178.72 309.58,-185.64"/>
</a>
</g>
</g>
<!-- Node20&#45;&gt;Node4 -->
<g id="edge23_Node000020_Node000004" class="edge">
<title>Node20&#45;&gt;Node4</title>
<g id="a_edge23_Node000020_Node000004"><a xlink:title=" ">
<path fill="none" stroke="#63b8ff" d="M1003.04,-234.37C994.03,-225.06 983.74,-214.44 975.72,-206.16"/>
<polygon fill="#63b8ff" stroke="#63b8ff" points="1000.77,-237.05 1010.24,-241.8 1005.8,-232.18 1000.77,-237.05"/>
</a>
</g>
</g>
<!-- Node22&#45;&gt;Node4 -->
<g id="edge26_Node000022_Node000004" class="edge">
<title>Node22&#45;&gt;Node4</title>
<g id="a_edge26_Node000022_Node000004"><a xlink:title=" ">
<path fill="none" stroke="#63b8ff" d="M787.75,-239.25C825.88,-228.91 874.24,-215.8 910.33,-206.01"/>
<polygon fill="#63b8ff" stroke="#63b8ff" points="786.53,-235.96 777.79,-241.95 788.36,-242.72 786.53,-235.96"/>
</a>
</g>
</g>
<!-- Node23 -->
<g id="Node000023" class="node">
<title>Node23</title>
<g id="a_Node000023"><a xlink:href="sherbet__land_2course__offsets_8inc_8c.html" target="_top" xlink:title=" ">
<polygon fill="white" stroke="#666666" points="120,-206 0,-206 0,-176 120,-176 120,-206"/>
<text text-anchor="start" x="8" y="-194" font-family="Helvetica,sans-Serif" font-size="10.00">courses/sherbet_land</text>
<text text-anchor="middle" x="60" y="-183" font-family="Helvetica,sans-Serif" font-size="10.00">/course_offsets.inc.c</text>
</a>
</g>
</g>
<!-- Node22&#45;&gt;Node23 -->
<g id="edge27_Node000022_Node000023" class="edge">
<title>Node22&#45;&gt;Node23</title>
<g id="a_edge27_Node000022_Node000023"><a xlink:title=" ">
<path fill="none" stroke="#63b8ff" d="M655.79,-241.97C424.35,-211.46 361.82,-235.29 134,-206 129.46,-205.42 124.78,-204.73 120.08,-203.98"/>
<polygon fill="#63b8ff" stroke="#63b8ff" points="655.49,-245.46 665.87,-243.31 656.42,-238.52 655.49,-245.46"/>
</a>
</g>
</g>
<!-- Node25&#45;&gt;Node4 -->
<g id="edge30_Node000025_Node000004" class="edge">
<title>Node25&#45;&gt;Node4</title>
<g id="a_edge30_Node000025_Node000004"><a xlink:title=" ">
<path fill="none" stroke="#63b8ff" d="M1109.16,-238.86C1076.88,-228.58 1036.36,-215.68 1006.01,-206.01"/>
<polygon fill="#63b8ff" stroke="#63b8ff" points="1108.3,-242.26 1118.89,-241.95 1110.42,-235.59 1108.3,-242.26"/>
</a>
</g>
</g>
<!-- Node27&#45;&gt;Node6 -->
<g id="edge51_Node000027_Node000006" class="edge">
<title>Node27&#45;&gt;Node6</title>
<g id="a_edge51_Node000027_Node000006"><a xlink:title=" ">
<path fill="none" stroke="#63b8ff" d="M1331.27,-249.58C1300.87,-246.92 1264.68,-244 1232,-242 1027.56,-229.49 508.15,-261.52 311,-206 253.16,-189.71 223.4,-191.83 193,-140 186.25,-128.5 184.54,-120.31 193,-110 214.12,-84.24 304.3,-73.11 363.31,-68.51"/>
<polygon fill="#63b8ff" stroke="#63b8ff" points="1331.08,-253.08 1341.35,-250.47 1331.69,-246.11 1331.08,-253.08"/>
</a>
</g>
</g>
<!-- Node27&#45;&gt;Node9 -->
<g id="edge35_Node000027_Node000009" class="edge">
<title>Node27&#45;&gt;Node9</title>
<g id="a_edge35_Node000027_Node000009"><a xlink:title=" ">
<path fill="none" stroke="#63b8ff" d="M1331.26,-249.53C1234.84,-240.36 1053.96,-222.82 900,-206 652.19,-178.93 589.14,-179.49 343,-140 333.34,-138.45 322.99,-136.5 313.31,-134.56"/>
<polygon fill="#63b8ff" stroke="#63b8ff" points="1331.18,-253.03 1341.46,-250.5 1331.84,-246.07 1331.18,-253.03"/>
</a>
</g>
</g>
<!-- Node27&#45;&gt;Node10 -->
<g id="edge37_Node000027_Node000010" class="edge">
<title>Node27&#45;&gt;Node10</title>
<g id="a_edge37_Node000027_Node000010"><a xlink:title=" ">
<path fill="none" stroke="#63b8ff" d="M1410.27,-238.3C1419,-220.66 1428.08,-193.71 1414,-176 1411.23,-172.52 1299.66,-147.96 1237.99,-134.6"/>
<polygon fill="#63b8ff" stroke="#63b8ff" points="1406.99,-237.01 1405.35,-247.47 1413.16,-240.32 1406.99,-237.01"/>
</a>
</g>
</g>
<!-- Node27&#45;&gt;Node12 -->
<g id="edge50_Node000027_Node000012" class="edge">
<title>Node27&#45;&gt;Node12</title>
<g id="a_edge50_Node000027_Node000012"><a xlink:title=" ">
<path fill="none" stroke="#63b8ff" d="M1453.98,-245.59C1460.39,-244.37 1466.84,-243.15 1473,-242 1560.92,-225.58 1589.25,-242.29 1671,-206 1690.99,-197.13 1689.53,-183.69 1710,-176 1828.39,-131.51 2152.44,-155.2 2278,-140 2289.61,-138.59 2302.11,-136.58 2313.63,-134.51"/>
<polygon fill="#63b8ff" stroke="#63b8ff" points="1453.16,-242.18 1443.99,-247.49 1454.47,-249.06 1453.16,-242.18"/>
</a>
</g>
</g>
<!-- Node27&#45;&gt;Node16 -->
<g id="edge54_Node000027_Node000016" class="edge">
<title>Node27&#45;&gt;Node16</title>
<g id="a_edge54_Node000027_Node000016"><a xlink:title=" ">
<path fill="none" stroke="#63b8ff" d="M1401.1,-237.41C1401.1,-219.03 1397.94,-191.46 1381,-176 1339.39,-138 1185.5,-149.77 1130,-140 1120.87,-138.39 1111.09,-136.47 1101.89,-134.56"/>
<polygon fill="#63b8ff" stroke="#63b8ff" points="1397.6,-237.38 1400.8,-247.48 1404.6,-237.59 1397.6,-237.38"/>
</a>
</g>
</g>
<!-- Node27&#45;&gt;Node17 -->
<g id="edge55_Node000027_Node000017" class="edge">
<title>Node27&#45;&gt;Node17</title>
<g id="a_edge55_Node000027_Node000017"><a xlink:title=" ">
<path fill="none" stroke="#63b8ff" d="M1420.58,-240.99C1431.47,-232.01 1444.18,-219.69 1452,-206 1465.46,-182.45 1469.4,-149.79 1470.55,-134.51"/>
<polygon fill="#63b8ff" stroke="#63b8ff" points="1418.41,-238.25 1412.71,-247.18 1422.73,-243.75 1418.41,-238.25"/>
</a>
</g>
</g>
<!-- Node28 -->
<g id="Node000028" class="node">
<title>Node28</title>
<g id="a_Node000028"><a xlink:href="code__80057C60_8c.html" target="_top" xlink:title=" ">
<polygon fill="white" stroke="#666666" points="1666.5,-134.5 1547.5,-134.5 1547.5,-115.5 1666.5,-115.5 1666.5,-134.5"/>
<text text-anchor="middle" x="1607" y="-122.5" font-family="Helvetica,sans-Serif" font-size="10.00">src/code_80057C60.c</text>
</a>
</g>
</g>
<!-- Node27&#45;&gt;Node28 -->
<g id="edge36_Node000027_Node000028" class="edge">
<title>Node27&#45;&gt;Node28</title>
<g id="a_edge36_Node000027_Node000028"><a xlink:title=" ">
<path fill="none" stroke="#63b8ff" d="M1422.17,-242.07C1465.09,-215.12 1558.37,-156.54 1593.37,-134.56"/>
<polygon fill="#63b8ff" stroke="#63b8ff" points="1420.19,-239.19 1413.58,-247.47 1423.91,-245.12 1420.19,-239.19"/>
</a>
</g>
</g>
<!-- Node29 -->
<g id="Node000029" class="node">
<title>Node29</title>
<g id="a_Node000029"><a xlink:href="code__8006E9C0_8h.html" target="_top" xlink:title=" ">
<polygon fill="white" stroke="#666666" points="1662,-200.5 1542,-200.5 1542,-181.5 1662,-181.5 1662,-200.5"/>
<text text-anchor="middle" x="1602" y="-188.5" font-family="Helvetica,sans-Serif" font-size="10.00">src/code_8006E9C0.h</text>
</a>
</g>
</g>
<!-- Node27&#45;&gt;Node29 -->
<g id="edge38_Node000027_Node000029" class="edge">
<title>Node27&#45;&gt;Node29</title>
<g id="a_edge38_Node000027_Node000029"><a xlink:title=" ">
<path fill="none" stroke="#63b8ff" d="M1436.85,-244.32C1476.7,-231.7 1539.28,-211.87 1574.87,-200.6"/>
<polygon fill="#63b8ff" stroke="#63b8ff" points="1435.72,-241.01 1427.24,-247.37 1437.83,-247.68 1435.72,-241.01"/>
</a>
</g>
</g>
<!-- Node34 -->
<g id="Node000034" class="node">
<title>Node34</title>
<g id="a_Node000034"><a xlink:href="code__80086E70_8c.html" target="_top" xlink:title=" ">
<polygon fill="white" stroke="#666666" points="1837.5,-200.5 1718.5,-200.5 1718.5,-181.5 1837.5,-181.5 1837.5,-200.5"/>
<text text-anchor="middle" x="1778" y="-188.5" font-family="Helvetica,sans-Serif" font-size="10.00">src/code_80086E70.c</text>
</a>
</g>
</g>
<!-- Node27&#45;&gt;Node34 -->
<g id="edge49_Node000027_Node000034" class="edge">
<title>Node27&#45;&gt;Node34</title>
<g id="a_edge49_Node000027_Node000034"><a xlink:title=" ">
<path fill="none" stroke="#63b8ff" d="M1453.43,-245.53C1460.02,-244.31 1466.66,-243.1 1473,-242 1575.37,-224.21 1601.61,-223.66 1704,-206 1713.79,-204.31 1724.29,-202.39 1734.22,-200.53"/>
<polygon fill="#63b8ff" stroke="#63b8ff" points="1452.37,-242.17 1443.19,-247.46 1453.66,-249.05 1452.37,-242.17"/>
</a>
</g>
</g>
<!-- Node35 -->
<g id="Node000035" class="node">
<title>Node35</title>
<g id="a_Node000035"><a xlink:href="actors__extended_8c.html" target="_top" xlink:title=" ">
<polygon fill="white" stroke="#666666" points="1228,-200.5 1072,-200.5 1072,-181.5 1228,-181.5 1228,-200.5"/>
<text text-anchor="middle" x="1150" y="-188.5" font-family="Helvetica,sans-Serif" font-size="10.00">src/racing/actors_extended.c</text>
</a>
</g>
</g>
<!-- Node27&#45;&gt;Node35 -->
<g id="edge52_Node000027_Node000035" class="edge">
<title>Node27&#45;&gt;Node35</title>
<g id="a_edge52_Node000027_Node000035"><a xlink:title=" ">
<path fill="none" stroke="#63b8ff" d="M1356.81,-244.94C1307.52,-232.32 1227.97,-211.96 1183.26,-200.51"/>
<polygon fill="#63b8ff" stroke="#63b8ff" points="1355.99,-248.35 1366.54,-247.44 1357.72,-241.56 1355.99,-248.35"/>
</a>
</g>
</g>
<!-- Node36 -->
<g id="Node000036" class="node">
<title>Node36</title>
<g id="a_Node000036"><a xlink:href="race__logic_8c.html" target="_top" xlink:title=" ">
<polygon fill="white" stroke="#666666" points="1371.5,-200.5 1246.5,-200.5 1246.5,-181.5 1371.5,-181.5 1371.5,-200.5"/>
<text text-anchor="middle" x="1309" y="-188.5" font-family="Helvetica,sans-Serif" font-size="10.00">src/racing/race_logic.c</text>
</a>
</g>
</g>
<!-- Node27&#45;&gt;Node36 -->
<g id="edge53_Node000027_Node000036" class="edge">
<title>Node27&#45;&gt;Node36</title>
<g id="a_edge53_Node000027_Node000036"><a xlink:title=" ">
<path fill="none" stroke="#63b8ff" d="M1379.15,-241.33C1361.3,-228.78 1336.2,-211.13 1321.37,-200.7"/>
<polygon fill="#63b8ff" stroke="#63b8ff" points="1377.53,-244.48 1387.73,-247.37 1381.56,-238.75 1377.53,-244.48"/>
</a>
</g>
</g>
<!-- Node29&#45;&gt;Node8 -->
<g id="edge39_Node000029_Node000008" class="edge">
<title>Node29&#45;&gt;Node8</title>
<g id="a_edge39_Node000029_Node000008"><a xlink:title=" ">
<path fill="none" stroke="#63b8ff" d="M1556.53,-179.1C1503.94,-166.49 1418.47,-146.01 1370.52,-134.51"/>
<polygon fill="#63b8ff" stroke="#63b8ff" points="1555.73,-182.51 1566.27,-181.44 1557.36,-175.7 1555.73,-182.51"/>
</a>
</g>
</g>
<!-- Node29&#45;&gt;Node10 -->
<g id="edge41_Node000029_Node000010" class="edge">
<title>Node29&#45;&gt;Node10</title>
<g id="a_edge41_Node000029_Node000010"><a xlink:title=" ">
<path fill="none" stroke="#63b8ff" d="M1531.79,-180.6C1463.89,-171.26 1358.17,-156.04 1267,-140 1257.73,-138.37 1247.79,-136.45 1238.43,-134.57"/>
<polygon fill="#63b8ff" stroke="#63b8ff" points="1531.56,-184.1 1541.94,-181.99 1532.51,-177.17 1531.56,-184.1"/>
</a>
</g>
</g>
<!-- Node29&#45;&gt;Node12 -->
<g id="edge43_Node000029_Node000012" class="edge">
<title>Node29&#45;&gt;Node12</title>
<g id="a_edge43_Node000029_Node000012"><a xlink:title=" ">
<path fill="none" stroke="#63b8ff" d="M1652.11,-179.63C1660.08,-178.24 1668.24,-176.96 1676,-176 1942,-143.02 2011.85,-171.73 2278,-140 2289.61,-138.62 2302.11,-136.61 2313.63,-134.54"/>
<polygon fill="#63b8ff" stroke="#63b8ff" points="1651.39,-176.2 1642.18,-181.44 1652.64,-183.09 1651.39,-176.2"/>
</a>
</g>
</g>
<!-- Node29&#45;&gt;Node16 -->
<g id="edge46_Node000029_Node000016" class="edge">
<title>Node29&#45;&gt;Node16</title>
<g id="a_edge46_Node000029_Node000016"><a xlink:title=" ">
<path fill="none" stroke="#63b8ff" d="M1531.69,-184.77C1439.21,-177.39 1271.82,-162.27 1130,-140 1120.37,-138.49 1110.04,-136.51 1100.44,-134.52"/>
<polygon fill="#63b8ff" stroke="#63b8ff" points="1531.52,-188.27 1541.77,-185.57 1532.08,-181.29 1531.52,-188.27"/>
</a>
</g>
</g>
<!-- Node29&#45;&gt;Node17 -->
<g id="edge48_Node000029_Node000017" class="edge">
<title>Node29&#45;&gt;Node17</title>
<g id="a_edge48_Node000029_Node000017"><a xlink:title=" ">
<path fill="none" stroke="#63b8ff" d="M1575.11,-176.86C1549.3,-164.25 1511.04,-145.56 1488.81,-134.7"/>
<polygon fill="#63b8ff" stroke="#63b8ff" points="1573.81,-180.12 1584.33,-181.37 1576.88,-173.83 1573.81,-180.12"/>
</a>
</g>
</g>
<!-- Node29&#45;&gt;Node28 -->
<g id="edge40_Node000029_Node000028" class="edge">
<title>Node29&#45;&gt;Node28</title>
<g id="a_edge40_Node000029_Node000028"><a xlink:title=" ">
<path fill="none" stroke="#63b8ff" d="M1603.48,-171.08C1604.41,-159.13 1605.58,-144.22 1606.3,-134.91"/>
<polygon fill="#63b8ff" stroke="#63b8ff" points="1599.96,-171.13 1602.67,-181.37 1606.94,-171.67 1599.96,-171.13"/>
</a>
</g>
</g>
<!-- Node30 -->
<g id="Node000030" class="node">
<title>Node30</title>
<g id="a_Node000030"><a xlink:href="code__80091750_8c.html" target="_top" xlink:title=" ">
<polygon fill="white" stroke="#666666" points="2095.5,-134.5 1976.5,-134.5 1976.5,-115.5 2095.5,-115.5 2095.5,-134.5"/>
<text text-anchor="middle" x="2036" y="-122.5" font-family="Helvetica,sans-Serif" font-size="10.00">src/code_80091750.c</text>
</a>
</g>
</g>
<!-- Node29&#45;&gt;Node30 -->
<g id="edge42_Node000029_Node000030" class="edge">
<title>Node29&#45;&gt;Node30</title>
<g id="a_edge42_Node000029_Node000030"><a xlink:title=" ">
<path fill="none" stroke="#63b8ff" d="M1654.85,-179.57C1661.95,-178.3 1669.14,-177.07 1676,-176 1805.2,-155.84 1838.97,-161.2 1968,-140 1977.51,-138.44 1987.72,-136.48 1997.26,-134.54"/>
<polygon fill="#63b8ff" stroke="#63b8ff" points="1653.77,-176.21 1644.57,-181.46 1655.04,-183.1 1653.77,-176.21"/>
</a>
</g>
</g>
<!-- Node31 -->
<g id="Node000031" class="node">
<title>Node31</title>
<g id="a_Node000031"><a xlink:href="code__80280000_8c.html" target="_top" xlink:title=" ">
<polygon fill="white" stroke="#666666" points="2268.5,-134.5 2113.5,-134.5 2113.5,-115.5 2268.5,-115.5 2268.5,-134.5"/>
<text text-anchor="middle" x="2191" y="-122.5" font-family="Helvetica,sans-Serif" font-size="10.00">src/ending/code_80280000.c</text>
</a>
</g>
</g>
<!-- Node29&#45;&gt;Node31 -->
<g id="edge44_Node000029_Node000031" class="edge">
<title>Node29&#45;&gt;Node31</title>
<g id="a_edge44_Node000029_Node000031"><a xlink:title=" ">
<path fill="none" stroke="#63b8ff" d="M1652.96,-179.65C1660.66,-178.29 1668.52,-177.02 1676,-176 1865.59,-150.18 1915.1,-163.39 2105,-140 2117.31,-138.48 2130.56,-136.5 2142.88,-134.51"/>
<polygon fill="#63b8ff" stroke="#63b8ff" points="1652.19,-176.23 1642.98,-181.47 1653.44,-183.12 1652.19,-176.23"/>
</a>
</g>
</g>
<!-- Node32 -->
<g id="Node000032" class="node">
<title>Node32</title>
<g id="a_Node000032"><a xlink:href="code__80281780_8c.html" target="_top" xlink:title=" ">
<polygon fill="white" stroke="#666666" points="1839.5,-134.5 1684.5,-134.5 1684.5,-115.5 1839.5,-115.5 1839.5,-134.5"/>
<text text-anchor="middle" x="1762" y="-122.5" font-family="Helvetica,sans-Serif" font-size="10.00">src/ending/code_80281780.c</text>
</a>
</g>
</g>
<!-- Node29&#45;&gt;Node32 -->
<g id="edge45_Node000029_Node000032" class="edge">
<title>Node29&#45;&gt;Node32</title>
<g id="a_edge45_Node000029_Node000032"><a xlink:title=" ">
<path fill="none" stroke="#63b8ff" d="M1633.22,-177.51C1664.85,-164.86 1712.92,-145.63 1740.51,-134.6"/>
<polygon fill="#63b8ff" stroke="#63b8ff" points="1631.56,-174.41 1623.58,-181.37 1634.16,-180.9 1631.56,-174.41"/>
</a>
</g>
</g>
<!-- Node33 -->
<g id="Node000033" class="node">
<title>Node33</title>
<g id="a_Node000033"><a xlink:href="staff__ghosts_8c.html" target="_top" xlink:title=" ">
<polygon fill="white" stroke="#666666" points="1958.5,-134.5 1857.5,-134.5 1857.5,-115.5 1958.5,-115.5 1958.5,-134.5"/>
<text text-anchor="middle" x="1908" y="-122.5" font-family="Helvetica,sans-Serif" font-size="10.00">src/staff_ghosts.c</text>
</a>
</g>
</g>
<!-- Node29&#45;&gt;Node33 -->
<g id="edge47_Node000029_Node000033" class="edge">
<title>Node29&#45;&gt;Node33</title>
<g id="a_edge47_Node000029_Node000033"><a xlink:title=" ">
<path fill="none" stroke="#63b8ff" d="M1656.24,-179.56C1706.35,-169.78 1782.84,-154.54 1849,-140 1856.71,-138.31 1864.97,-136.4 1872.79,-134.56"/>
<polygon fill="#63b8ff" stroke="#63b8ff" points="1655.41,-176.15 1646.27,-181.5 1656.75,-183.02 1655.41,-176.15"/>
</a>
</g>
</g>
</g>
</svg>

<g id="navigator" transform="translate(0 0)" fill="#404254">
  <rect fill="#f2f5e9" fill-opacity="0.5" stroke="#606060" stroke-width=".5" x="0" y="0" width="60" height="60"/>
  <use id="zoomplus" xlink:href="#zoomPlus" x="17" y="9" onmousedown="handleZoom(evt,'in')"/>
  <use id="zoomminus" xlink:href="#zoomMin" x="42" y="9" onmousedown="handleZoom(evt,'out')"/>
  <use id="reset" xlink:href="#resetDef" x="30" y="36" onmousedown="handleReset()"/>
   <use id="arrowup" xlink:href="#arrowUp" x="0" y="0" onmousedown="handlePan(0,-1)"/>
  <use id="arrowright" xlink:href="#arrowRight" x="0" y="0" onmousedown="handlePan(1,0)"/>
  <use id="arrowdown" xlink:href="#arrowDown" x="0" y="0" onmousedown="handlePan(0,1)"/>
  <use id="arrowleft" xlink:href="#arrowLeft" x="0" y="0" onmousedown="handlePan(-1,0)"/>
</g>
<svg viewBox="0 0 15 15" width="100%" height="30px" preserveAspectRatio="xMaxYMin meet">
 <g id="arrow_out" transform="scale(0.3 0.3)">
  <a xlink:href="code__80004740_8h__dep__incl_org.svg" target="_base">
   <rect id="button" ry="5" rx="5" y="6" x="6" height="38" width="38"
        fill="#f2f5e9" fill-opacity="0.5" stroke="#606060" stroke-width="1.0"/>
   <path id="arrow"
     d="M 11.500037,31.436501 C 11.940474,20.09759 22.043105,11.32322 32.158766,21.979434 L 37.068811,17.246167 C 37.068811,17.246167 37.088388,32 37.088388,32 L 22.160133,31.978069 C 22.160133,31.978069 26.997745,27.140456 26.997745,27.140456 C 18.528582,18.264221 13.291696,25.230495 11.500037,31.436501 z"
     style="fill:#404040;"/>
  </a>
 </g>
</svg>

<style type='text/css'>
<![CDATA[
[data-mouse-over-selected='false'] { opacity: 0.7; }
[data-mouse-over-selected='true']  { opacity: 1.0; }
]]>
</style>
<script type="application/ecmascript"><![CDATA[
document.addEventListener('DOMContentLoaded', (event) => {
  highlightEdges();
  highlightAdjacentNodes();
});
]]></script>
</svg>
