<?xml version="1.0" encoding="UTF-8" standalone="no"?>
<!DOCTYPE svg PUBLIC "-//W3C//DTD SVG 1.1//EN"
 "http://www.w3.org/Graphics/SVG/1.1/DTD/svg11.dtd">
<!-- Generated by graphviz version 2.43.0 (0)
 -->
<!-- Title: func_8008FDF4 Pages: 1 -->
<svg width="722pt" height="508pt"
 viewBox="0.00 0.00 722.00 508.00" xmlns="http://www.w3.org/2000/svg" xmlns:xlink="http://www.w3.org/1999/xlink">
<g id="graph0" class="graph" transform="scale(1 1) rotate(0) translate(4 504)">
<title>func_8008FDF4</title>
<!-- Node1 -->
<g id="Node000001" class="node">
<title>Node1</title>
<g id="a_Node000001"><a xlink:title=" ">
<polygon fill="#999999" stroke="#666666" points="92,-259 0,-259 0,-240 92,-240 92,-259"/>
<text text-anchor="middle" x="46" y="-247" font-family="Helvetica,sans-Serif" font-size="10.00">func_8008FDF4</text>
</a>
</g>
</g>
<!-- Node2 -->
<g id="Node000002" class="node">
<title>Node2</title>
<g id="a_Node000002"><a xlink:href="code__8008C1D0_8c.html#a5cdc06d2091fc6d20759448c40b17d54" target="_top" xlink:title=" ">
<polygon fill="white" stroke="#666666" points="220,-259 128,-259 128,-240 220,-240 220,-259"/>
<text text-anchor="middle" x="174" y="-247" font-family="Helvetica,sans-Serif" font-size="10.00">func_8008C354</text>
</a>
</g>
</g>
<!-- Node1&#45;&gt;Node2 -->
<g id="edge1_Node000001_Node000002" class="edge">
<title>Node1&#45;&gt;Node2</title>
<g id="a_edge1_Node000001_Node000002"><a xlink:title=" ">
<path fill="none" stroke="#63b8ff" d="M92.13,-249.5C100.37,-249.5 109.04,-249.5 117.53,-249.5"/>
<polygon fill="#63b8ff" stroke="#63b8ff" points="117.76,-253 127.76,-249.5 117.76,-246 117.76,-253"/>
</a>
</g>
</g>
<!-- Node3 -->
<g id="Node000003" class="node">
<title>Node3</title>
<g id="a_Node000003"><a xlink:href="code__8008C1D0_8c.html#ad164a912d7ef76f24e7b5cfb9169c16f" target="_top" xlink:title=" ">
<polygon fill="white" stroke="#666666" points="349,-500 256,-500 256,-481 349,-481 349,-500"/>
<text text-anchor="middle" x="302.5" y="-488" font-family="Helvetica,sans-Serif" font-size="10.00">func_8008C6D0</text>
</a>
</g>
</g>
<!-- Node2&#45;&gt;Node3 -->
<g id="edge2_Node000002_Node000003" class="edge">
<title>Node2&#45;&gt;Node3</title>
<g id="a_edge2_Node000002_Node000003"><a xlink:title=" ">
<path fill="none" stroke="#63b8ff" d="M175.77,-259.46C178.96,-293.81 193.98,-408.7 256,-472.5 256.93,-473.46 257.92,-474.37 258.96,-475.23"/>
<polygon fill="#63b8ff" stroke="#63b8ff" points="257.37,-478.38 267.65,-480.95 261.22,-472.53 257.37,-478.38"/>
</a>
</g>
</g>
<!-- Node4 -->
<g id="Node000004" class="node">
<title>Node4</title>
<g id="a_Node000004"><a xlink:href="code__8008C1D0_8c.html#a105203221e314be241a95e006b62ef80" target="_top" xlink:title=" ">
<polygon fill="white" stroke="#666666" points="348.5,-463 256.5,-463 256.5,-444 348.5,-444 348.5,-463"/>
<text text-anchor="middle" x="302.5" y="-451" font-family="Helvetica,sans-Serif" font-size="10.00">func_8008C8C4</text>
</a>
</g>
</g>
<!-- Node2&#45;&gt;Node4 -->
<g id="edge3_Node000002_Node000004" class="edge">
<title>Node2&#45;&gt;Node4</title>
<g id="a_edge3_Node000002_Node000004"><a xlink:title=" ">
<path fill="none" stroke="#63b8ff" d="M176.52,-259.07C181.8,-289.22 202.06,-383.36 256,-435.5 257.11,-436.57 258.29,-437.58 259.52,-438.53"/>
<polygon fill="#63b8ff" stroke="#63b8ff" points="257.97,-441.69 268.31,-444 261.67,-435.74 257.97,-441.69"/>
</a>
</g>
</g>
<!-- Node5 -->
<g id="Node000005" class="node">
<title>Node5</title>
<g id="a_Node000005"><a xlink:href="code__8008C1D0_8c.html#acab450a6af6eca812ad3987a292a5165" target="_top" xlink:title=" ">
<polygon fill="white" stroke="#666666" points="348.5,-426 256.5,-426 256.5,-407 348.5,-407 348.5,-426"/>
<text text-anchor="middle" x="302.5" y="-414" font-family="Helvetica,sans-Serif" font-size="10.00">func_8008D0E4</text>
</a>
</g>
</g>
<!-- Node2&#45;&gt;Node5 -->
<g id="edge4_Node000002_Node000005" class="edge">
<title>Node2&#45;&gt;Node5</title>
<g id="a_edge4_Node000002_Node000005"><a xlink:title=" ">
<path fill="none" stroke="#63b8ff" d="M177.75,-259.35C185.57,-285.61 210.37,-358.09 256,-398.5 257.31,-399.66 258.71,-400.75 260.16,-401.78"/>
<polygon fill="#63b8ff" stroke="#63b8ff" points="258.63,-404.94 269.04,-406.95 262.16,-398.89 258.63,-404.94"/>
</a>
</g>
</g>
<!-- Node6 -->
<g id="Node000006" class="node">
<title>Node6</title>
<g id="a_Node000006"><a xlink:href="code__8008C1D0_8c.html#a663cb8df8b606cf00e361977c9d6d834" target="_top" xlink:title=" ">
<polygon fill="white" stroke="#666666" points="349,-389 256,-389 256,-370 349,-370 349,-389"/>
<text text-anchor="middle" x="302.5" y="-377" font-family="Helvetica,sans-Serif" font-size="10.00">func_8008D3B0</text>
</a>
</g>
</g>
<!-- Node2&#45;&gt;Node6 -->
<g id="edge5_Node000002_Node000006" class="edge">
<title>Node2&#45;&gt;Node6</title>
<g id="a_edge5_Node000002_Node000006"><a xlink:title=" ">
<path fill="none" stroke="#63b8ff" d="M179.49,-259.01C189.98,-280.26 218.11,-332.05 256,-361.5 257.61,-362.75 259.32,-363.93 261.09,-365.03"/>
<polygon fill="#63b8ff" stroke="#63b8ff" points="259.88,-368.35 270.35,-369.94 263.16,-362.16 259.88,-368.35"/>
</a>
</g>
</g>
<!-- Node7 -->
<g id="Node000007" class="node">
<title>Node7</title>
<g id="a_Node000007"><a xlink:href="code__8008C1D0_8c.html#ae7bb91110e710a8f32fcd4c56c56f934" target="_top" xlink:title=" ">
<polygon fill="white" stroke="#666666" points="348.5,-352 256.5,-352 256.5,-333 348.5,-333 348.5,-352"/>
<text text-anchor="middle" x="302.5" y="-340" font-family="Helvetica,sans-Serif" font-size="10.00">func_8008D554</text>
</a>
</g>
</g>
<!-- Node2&#45;&gt;Node7 -->
<g id="edge6_Node000002_Node000007" class="edge">
<title>Node2&#45;&gt;Node7</title>
<g id="a_edge6_Node000002_Node000007"><a xlink:title=" ">
<path fill="none" stroke="#63b8ff" d="M183.54,-259.5C197.37,-275.19 226.16,-305.71 256,-324.5 258.28,-325.94 260.69,-327.29 263.17,-328.57"/>
<polygon fill="#63b8ff" stroke="#63b8ff" points="261.77,-331.77 272.32,-332.82 264.72,-325.43 261.77,-331.77"/>
</a>
</g>
</g>
<!-- Node8 -->
<g id="Node000008" class="node">
<title>Node8</title>
<g id="a_Node000008"><a xlink:href="code__8008C1D0_8c.html#a5f19eaaa048055d292d02c717e635786" target="_top" xlink:title=" ">
<polygon fill="white" stroke="#666666" points="348.5,-315 256.5,-315 256.5,-296 348.5,-296 348.5,-315"/>
<text text-anchor="middle" x="302.5" y="-303" font-family="Helvetica,sans-Serif" font-size="10.00">func_8008D760</text>
</a>
</g>
</g>
<!-- Node2&#45;&gt;Node8 -->
<g id="edge7_Node000002_Node000008" class="edge">
<title>Node2&#45;&gt;Node8</title>
<g id="a_edge7_Node000002_Node000008"><a xlink:title=" ">
<path fill="none" stroke="#63b8ff" d="M194.49,-259.06C210.8,-266.96 234.75,-278.32 256,-287.5 259.48,-289 263.13,-290.53 266.78,-292.02"/>
<polygon fill="#63b8ff" stroke="#63b8ff" points="265.77,-295.39 276.35,-295.87 268.38,-288.89 265.77,-295.39"/>
</a>
</g>
</g>
<!-- Node9 -->
<g id="Node000009" class="node">
<title>Node9</title>
<g id="a_Node000009"><a xlink:href="code__8008C1D0_8c.html#a4ea2da0616ee3c475e4be217dc0bc71f" target="_top" xlink:title=" ">
<polygon fill="white" stroke="#666666" points="349,-278 256,-278 256,-259 349,-259 349,-278"/>
<text text-anchor="middle" x="302.5" y="-266" font-family="Helvetica,sans-Serif" font-size="10.00">func_8008D97C</text>
</a>
</g>
</g>
<!-- Node2&#45;&gt;Node9 -->
<g id="edge8_Node000002_Node000009" class="edge">
<title>Node2&#45;&gt;Node9</title>
<g id="a_edge8_Node000002_Node000009"><a xlink:title=" ">
<path fill="none" stroke="#63b8ff" d="M220.31,-256.31C228.48,-257.53 237.08,-258.82 245.5,-260.09"/>
<polygon fill="#63b8ff" stroke="#63b8ff" points="245.24,-263.59 255.65,-261.61 246.28,-256.67 245.24,-263.59"/>
</a>
</g>
</g>
<!-- Node10 -->
<g id="Node000010" class="node">
<title>Node10</title>
<g id="a_Node000010"><a xlink:href="code__8008C1D0_8c.html#a4a437d6caeeaa794bcce43ec60c097e9" target="_top" xlink:title=" ">
<polygon fill="white" stroke="#666666" points="348,-241 257,-241 257,-222 348,-222 348,-241"/>
<text text-anchor="middle" x="302.5" y="-229" font-family="Helvetica,sans-Serif" font-size="10.00">func_8008E884</text>
</a>
</g>
</g>
<!-- Node2&#45;&gt;Node10 -->
<g id="edge9_Node000002_Node000010" class="edge">
<title>Node2&#45;&gt;Node10</title>
<g id="a_edge9_Node000002_Node000010"><a xlink:title=" ">
<path fill="none" stroke="#63b8ff" d="M220.31,-243.05C228.97,-241.82 238.11,-240.52 247.01,-239.25"/>
<polygon fill="#63b8ff" stroke="#63b8ff" points="247.52,-242.72 256.93,-237.84 246.54,-235.79 247.52,-242.72"/>
</a>
</g>
</g>
<!-- Node11 -->
<g id="Node000011" class="node">
<title>Node11</title>
<g id="a_Node000011"><a xlink:href="code__8008C1D0_8c.html#a4e2c6d0ba50b7c13695f74f1c2bc7b18" target="_top" xlink:title=" ">
<polygon fill="white" stroke="#666666" points="348.5,-204 256.5,-204 256.5,-185 348.5,-185 348.5,-204"/>
<text text-anchor="middle" x="302.5" y="-192" font-family="Helvetica,sans-Serif" font-size="10.00">func_8008EC34</text>
</a>
</g>
</g>
<!-- Node2&#45;&gt;Node11 -->
<g id="edge10_Node000002_Node000011" class="edge">
<title>Node2&#45;&gt;Node11</title>
<g id="a_edge10_Node000002_Node000011"><a xlink:title=" ">
<path fill="none" stroke="#63b8ff" d="M196.26,-239.89C212.56,-232.56 235.65,-222.27 256,-213.5 260.18,-211.7 264.59,-209.82 268.95,-207.99"/>
<polygon fill="#63b8ff" stroke="#63b8ff" points="270.44,-211.16 278.31,-204.06 267.73,-204.7 270.44,-211.16"/>
</a>
</g>
</g>
<!-- Node12 -->
<g id="Node000012" class="node">
<title>Node12</title>
<g id="a_Node000012"><a xlink:href="code__8008C1D0_8c.html#ae48f5d9507d1966754bc1aa1bddc4136" target="_top" xlink:title=" ">
<polygon fill="white" stroke="#666666" points="348.5,-167 256.5,-167 256.5,-148 348.5,-148 348.5,-167"/>
<text text-anchor="middle" x="302.5" y="-155" font-family="Helvetica,sans-Serif" font-size="10.00">func_8008EEC4</text>
</a>
</g>
</g>
<!-- Node2&#45;&gt;Node12 -->
<g id="edge11_Node000002_Node000012" class="edge">
<title>Node2&#45;&gt;Node12</title>
<g id="a_edge11_Node000002_Node000012"><a xlink:title=" ">
<path fill="none" stroke="#63b8ff" d="M183.63,-239.85C197.6,-224.69 226.57,-195.14 256,-176.5 258.82,-174.71 261.84,-173.03 264.93,-171.46"/>
<polygon fill="#63b8ff" stroke="#63b8ff" points="266.69,-174.5 274.28,-167.1 263.74,-168.15 266.69,-174.5"/>
</a>
</g>
</g>
<!-- Node13 -->
<g id="Node000013" class="node">
<title>Node13</title>
<g id="a_Node000013"><a xlink:href="code__8008C1D0_8c.html#a77e26f2cff6381f9ba1575f8da060571" target="_top" xlink:title=" ">
<polygon fill="white" stroke="#666666" points="348,-130 257,-130 257,-111 348,-111 348,-130"/>
<text text-anchor="middle" x="302.5" y="-118" font-family="Helvetica,sans-Serif" font-size="10.00">func_8008F0E8</text>
</a>
</g>
</g>
<!-- Node2&#45;&gt;Node13 -->
<g id="edge12_Node000002_Node000013" class="edge">
<title>Node2&#45;&gt;Node13</title>
<g id="a_edge12_Node000002_Node000013"><a xlink:title=" ">
<path fill="none" stroke="#63b8ff" d="M179.74,-239.9C190.53,-218.95 218.89,-168.65 256,-139.5 258.06,-137.88 260.28,-136.38 262.59,-134.98"/>
<polygon fill="#63b8ff" stroke="#63b8ff" points="264.58,-137.9 271.81,-130.15 261.33,-131.7 264.58,-137.9"/>
</a>
</g>
</g>
<!-- Node14 -->
<g id="Node000014" class="node">
<title>Node14</title>
<g id="a_Node000014"><a xlink:href="code__8008C1D0_8c.html#ae02351b6bbb678b552ec8864b47fc56c" target="_top" xlink:title=" ">
<polygon fill="white" stroke="#666666" points="348,-93 257,-93 257,-74 348,-74 348,-93"/>
<text text-anchor="middle" x="302.5" y="-81" font-family="Helvetica,sans-Serif" font-size="10.00">func_8008F3E0</text>
</a>
</g>
</g>
<!-- Node2&#45;&gt;Node14 -->
<g id="edge13_Node000002_Node000014" class="edge">
<title>Node2&#45;&gt;Node14</title>
<g id="a_edge13_Node000002_Node000014"><a xlink:title=" ">
<path fill="none" stroke="#63b8ff" d="M177.83,-239.83C185.86,-214.03 211.11,-142.79 256,-102.5 257.71,-100.97 259.56,-99.55 261.5,-98.23"/>
<polygon fill="#63b8ff" stroke="#63b8ff" points="263.51,-101.12 270.46,-93.13 260.04,-95.04 263.51,-101.12"/>
</a>
</g>
</g>
<!-- Node15 -->
<g id="Node000015" class="node">
<title>Node15</title>
<g id="a_Node000015"><a xlink:href="code__8008C1D0_8c.html#afcf39ca15166fb7561402462930cd979" target="_top" xlink:title=" ">
<polygon fill="white" stroke="#666666" points="348.5,-56 256.5,-56 256.5,-37 348.5,-37 348.5,-56"/>
<text text-anchor="middle" x="302.5" y="-44" font-family="Helvetica,sans-Serif" font-size="10.00">func_8008F5A4</text>
</a>
</g>
</g>
<!-- Node2&#45;&gt;Node15 -->
<g id="edge14_Node000002_Node000015" class="edge">
<title>Node2&#45;&gt;Node15</title>
<g id="a_edge14_Node000002_Node000015"><a xlink:title=" ">
<path fill="none" stroke="#63b8ff" d="M176.67,-239.65C182.29,-209.5 203.18,-117.32 256,-65.5 257.47,-64.06 259.06,-62.73 260.74,-61.49"/>
<polygon fill="#63b8ff" stroke="#63b8ff" points="262.97,-64.23 269.71,-56.06 259.34,-58.24 262.97,-64.23"/>
</a>
</g>
</g>
<!-- Node20 -->
<g id="Node000020" class="node">
<title>Node20</title>
<g id="a_Node000020"><a xlink:href="code__8008C1D0_8c.html#ab6d84742231847170dd64267f0519cdf" target="_top" xlink:title=" ">
<polygon fill="white" stroke="#666666" points="349,-19 256,-19 256,0 349,0 349,-19"/>
<text text-anchor="middle" x="302.5" y="-7" font-family="Helvetica,sans-Serif" font-size="10.00">func_8008FEDC</text>
</a>
</g>
</g>
<!-- Node2&#45;&gt;Node20 -->
<g id="edge19_Node000002_Node000020" class="edge">
<title>Node2&#45;&gt;Node20</title>
<g id="a_edge19_Node000002_Node000020"><a xlink:title=" ">
<path fill="none" stroke="#63b8ff" d="M175.85,-239.67C179.27,-205.76 194.98,-92.28 256,-28.5 257.38,-27.06 258.88,-25.73 260.47,-24.49"/>
<polygon fill="#63b8ff" stroke="#63b8ff" points="262.44,-27.38 269.03,-19.09 258.71,-21.46 262.44,-27.38"/>
</a>
</g>
</g>
<!-- Node16 -->
<g id="Node000016" class="node">
<title>Node16</title>
<g id="a_Node000016"><a xlink:href="code__80057C60_8c.html#a0a55fae21abd30d3c618adef1a9f3ccd" target="_top" xlink:title=" ">
<polygon fill="white" stroke="#666666" points="477,-56 385,-56 385,-37 477,-37 477,-56"/>
<text text-anchor="middle" x="431" y="-44" font-family="Helvetica,sans-Serif" font-size="10.00">func_8006B8B4</text>
</a>
</g>
</g>
<!-- Node15&#45;&gt;Node16 -->
<g id="edge15_Node000015_Node000016" class="edge">
<title>Node15&#45;&gt;Node16</title>
<g id="a_edge15_Node000015_Node000016"><a xlink:title=" ">
<path fill="none" stroke="#63b8ff" d="M348.81,-46.5C357.08,-46.5 365.79,-46.5 374.31,-46.5"/>
<polygon fill="#63b8ff" stroke="#63b8ff" points="374.58,-50 384.58,-46.5 374.58,-43 374.58,-50"/>
</a>
</g>
</g>
<!-- Node17 -->
<g id="Node000017" class="node">
<title>Node17</title>
<g id="a_Node000017"><a xlink:href="code__8008C1D0_8c.html#a1c7552c4a370cc015c2726e40f1fdb06" target="_top" xlink:title=" ">
<polygon fill="white" stroke="#666666" points="606,-75 513,-75 513,-56 606,-56 606,-75"/>
<text text-anchor="middle" x="559.5" y="-63" font-family="Helvetica,sans-Serif" font-size="10.00">func_8008FD4C</text>
</a>
</g>
</g>
<!-- Node16&#45;&gt;Node17 -->
<g id="edge16_Node000016_Node000017" class="edge">
<title>Node16&#45;&gt;Node17</title>
<g id="a_edge16_Node000016_Node000017"><a xlink:title=" ">
<path fill="none" stroke="#63b8ff" d="M477.31,-53.31C485.48,-54.53 494.08,-55.82 502.5,-57.09"/>
<polygon fill="#63b8ff" stroke="#63b8ff" points="502.24,-60.59 512.65,-58.61 503.28,-53.67 502.24,-60.59"/>
</a>
</g>
</g>
<!-- Node18 -->
<g id="Node000018" class="node">
<title>Node18</title>
<g id="a_Node000018"><a xlink:href="external_8c.html#a517352d45a01341217ab2c073b3b223f" target="_top" xlink:title=" ">
<polygon fill="white" stroke="#666666" points="605.5,-38 513.5,-38 513.5,-19 605.5,-19 605.5,-38"/>
<text text-anchor="middle" x="559.5" y="-26" font-family="Helvetica,sans-Serif" font-size="10.00">func_800C9060</text>
</a>
</g>
</g>
<!-- Node16&#45;&gt;Node18 -->
<g id="edge17_Node000016_Node000018" class="edge">
<title>Node16&#45;&gt;Node18</title>
<g id="a_edge17_Node000016_Node000018"><a xlink:title=" ">
<path fill="none" stroke="#63b8ff" d="M477.31,-40.05C485.67,-38.86 494.48,-37.61 503.1,-36.38"/>
<polygon fill="#63b8ff" stroke="#63b8ff" points="503.67,-39.84 513.08,-34.96 502.69,-32.91 503.67,-39.84"/>
</a>
</g>
</g>
<!-- Node19 -->
<g id="Node000019" class="node">
<title>Node19</title>
<g id="a_Node000019"><a xlink:href="external_8c.html#a62e16f9600e7e9beda2c9d2df10f3561" target="_top" xlink:title=" ">
<polygon fill="white" stroke="#666666" points="714,-38 642,-38 642,-19 714,-19 714,-38"/>
<text text-anchor="middle" x="678" y="-26" font-family="Helvetica,sans-Serif" font-size="10.00">play_sound</text>
</a>
</g>
</g>
<!-- Node18&#45;&gt;Node19 -->
<g id="edge18_Node000018_Node000019" class="edge">
<title>Node18&#45;&gt;Node19</title>
<g id="a_edge18_Node000018_Node000019"><a xlink:title=" ">
<path fill="none" stroke="#63b8ff" d="M605.54,-28.5C614.1,-28.5 623.06,-28.5 631.63,-28.5"/>
<polygon fill="#63b8ff" stroke="#63b8ff" points="631.83,-32 641.83,-28.5 631.83,-25 631.83,-32"/>
</a>
</g>
</g>
</g>
</svg>
