<?xml version="1.0" encoding="UTF-8" standalone="no"?>
<!DOCTYPE svg PUBLIC "-//W3C//DTD SVG 1.1//EN"
 "http://www.w3.org/Graphics/SVG/1.1/DTD/svg11.dtd">
<!-- Generated by graphviz version 2.43.0 (0)
 -->
<!-- Title: src/code_800029B0.h Pages: 1 -->
<svg width="3800pt" height="203pt"
 viewBox="0.00 0.00 3800.00 203.00" xmlns="http://www.w3.org/2000/svg" xmlns:xlink="http://www.w3.org/1999/xlink">
<g id="graph0" class="graph" transform="scale(1 1) rotate(0) translate(4 199)">
<title>src/code_800029B0.h</title>
<!-- Node1 -->
<g id="Node000001" class="node">
<title>Node1</title>
<g id="a_Node000001"><a xlink:title=" ">
<polygon fill="#999999" stroke="#666666" points="2006.5,-195 1886.5,-195 1886.5,-176 2006.5,-176 2006.5,-195"/>
<text text-anchor="middle" x="1946.5" y="-183" font-family="Helvetica,sans-Serif" font-size="10.00">src/code_800029B0.h</text>
</a>
</g>
</g>
<!-- Node2 -->
<g id="Node000002" class="node">
<title>Node2</title>
<g id="a_Node000002"><a xlink:href="external_8c.html" target="_top" xlink:title=" ">
<polygon fill="white" stroke="#666666" points="113,-134.5 0,-134.5 0,-115.5 113,-115.5 113,-134.5"/>
<text text-anchor="middle" x="56.5" y="-122.5" font-family="Helvetica,sans-Serif" font-size="10.00">src/audio/external.c</text>
</a>
</g>
</g>
<!-- Node1&#45;&gt;Node2 -->
<g id="edge1_Node000001_Node000002" class="edge">
<title>Node1&#45;&gt;Node2</title>
<g id="a_edge1_Node000001_Node000002"><a xlink:title=" ">
<path fill="none" stroke="#63b8ff" d="M1876.06,-184.52C1584.52,-184.33 471.33,-180.9 122.5,-140 112.15,-138.79 101.01,-136.72 90.9,-134.55"/>
<polygon fill="#63b8ff" stroke="#63b8ff" points="1876.49,-188.02 1886.49,-184.53 1876.49,-181.02 1876.49,-188.02"/>
</a>
</g>
</g>
<!-- Node3 -->
<g id="Node000003" class="node">
<title>Node3</title>
<g id="a_Node000003"><a xlink:href="camera_8c.html" target="_top" xlink:title=" ">
<polygon fill="white" stroke="#666666" points="210,-134.5 131,-134.5 131,-115.5 210,-115.5 210,-134.5"/>
<text text-anchor="middle" x="170.5" y="-122.5" font-family="Helvetica,sans-Serif" font-size="10.00">src/camera.c</text>
</a>
</g>
</g>
<!-- Node1&#45;&gt;Node3 -->
<g id="edge2_Node000001_Node000003" class="edge">
<title>Node1&#45;&gt;Node3</title>
<g id="a_edge2_Node000001_Node000003"><a xlink:title=" ">
<path fill="none" stroke="#63b8ff" d="M1875.97,-183.73C1572.36,-180.29 384.77,-165.32 219.5,-140 211.63,-138.79 203.24,-136.71 195.66,-134.5"/>
<polygon fill="#63b8ff" stroke="#63b8ff" points="1876.35,-187.24 1886.39,-183.85 1876.43,-180.24 1876.35,-187.24"/>
</a>
</g>
</g>
<!-- Node4 -->
<g id="Node000004" class="node">
<title>Node4</title>
<g id="a_Node000004"><a xlink:href="code__800029B0_8c.html" target="_top" xlink:title=" ">
<polygon fill="white" stroke="#666666" points="347,-134.5 228,-134.5 228,-115.5 347,-115.5 347,-134.5"/>
<text text-anchor="middle" x="287.5" y="-122.5" font-family="Helvetica,sans-Serif" font-size="10.00">src/code_800029B0.c</text>
</a>
</g>
</g>
<!-- Node1&#45;&gt;Node4 -->
<g id="edge3_Node000001_Node000004" class="edge">
<title>Node1&#45;&gt;Node4</title>
<g id="a_edge3_Node000001_Node000004"><a xlink:title=" ">
<path fill="none" stroke="#63b8ff" d="M1876.01,-184.14C1608.65,-182.53 657.19,-174.45 356.5,-140 345.69,-138.76 334.06,-136.69 323.48,-134.52"/>
<polygon fill="#63b8ff" stroke="#63b8ff" points="1876.33,-187.64 1886.35,-184.2 1876.37,-180.64 1876.33,-187.64"/>
</a>
</g>
</g>
<!-- Node5 -->
<g id="Node000005" class="node">
<title>Node5</title>
<g id="a_Node000005"><a xlink:href="code__80005FD0_8c.html" target="_top" xlink:title=" ">
<polygon fill="white" stroke="#666666" points="485.5,-134.5 365.5,-134.5 365.5,-115.5 485.5,-115.5 485.5,-134.5"/>
<text text-anchor="middle" x="425.5" y="-122.5" font-family="Helvetica,sans-Serif" font-size="10.00">src/code_80005FD0.c</text>
</a>
</g>
</g>
<!-- Node1&#45;&gt;Node5 -->
<g id="edge4_Node000001_Node000005" class="edge">
<title>Node1&#45;&gt;Node5</title>
<g id="a_edge4_Node000001_Node000005"><a xlink:title=" ">
<path fill="none" stroke="#63b8ff" d="M1876.34,-183.9C1624.67,-181.5 767.78,-171.18 495.5,-140 484.66,-138.76 473.01,-136.72 462.37,-134.57"/>
<polygon fill="#63b8ff" stroke="#63b8ff" points="1876.42,-187.4 1886.46,-183.99 1876.49,-180.4 1876.42,-187.4"/>
</a>
</g>
</g>
<!-- Node6 -->
<g id="Node000006" class="node">
<title>Node6</title>
<g id="a_Node000006"><a xlink:href="code__80057C60_8c.html" target="_top" xlink:title=" ">
<polygon fill="white" stroke="#666666" points="623,-134.5 504,-134.5 504,-115.5 623,-115.5 623,-134.5"/>
<text text-anchor="middle" x="563.5" y="-122.5" font-family="Helvetica,sans-Serif" font-size="10.00">src/code_80057C60.c</text>
</a>
</g>
</g>
<!-- Node1&#45;&gt;Node6 -->
<g id="edge5_Node000001_Node000006" class="edge">
<title>Node1&#45;&gt;Node6</title>
<g id="a_edge5_Node000001_Node000006"><a xlink:title=" ">
<path fill="none" stroke="#63b8ff" d="M1875.93,-183.66C1639.49,-180.6 876.54,-168.69 632.5,-140 621.82,-138.74 610.33,-136.7 599.84,-134.55"/>
<polygon fill="#63b8ff" stroke="#63b8ff" points="1876.07,-187.16 1886.12,-183.79 1876.16,-180.16 1876.07,-187.16"/>
</a>
</g>
</g>
<!-- Node7 -->
<g id="Node000007" class="node">
<title>Node7</title>
<g id="a_Node000007"><a xlink:href="code__8006E9C0_8c.html" target="_top" xlink:title=" ">
<polygon fill="white" stroke="#666666" points="760,-134.5 641,-134.5 641,-115.5 760,-115.5 760,-134.5"/>
<text text-anchor="middle" x="700.5" y="-122.5" font-family="Helvetica,sans-Serif" font-size="10.00">src/code_8006E9C0.c</text>
</a>
</g>
</g>
<!-- Node1&#45;&gt;Node7 -->
<g id="edge6_Node000001_Node000007" class="edge">
<title>Node1&#45;&gt;Node7</title>
<g id="a_edge6_Node000001_Node000007"><a xlink:title=" ">
<path fill="none" stroke="#63b8ff" d="M1876.32,-183.34C1656.91,-179.49 985.73,-165.85 769.5,-140 758.82,-138.72 747.33,-136.67 736.85,-134.52"/>
<polygon fill="#63b8ff" stroke="#63b8ff" points="1876.36,-186.84 1886.42,-183.52 1876.48,-179.85 1876.36,-186.84"/>
</a>
</g>
</g>
<!-- Node8 -->
<g id="Node000008" class="node">
<title>Node8</title>
<g id="a_Node000008"><a xlink:href="code__80071F00_8c.html" target="_top" xlink:title=" ">
<polygon fill="white" stroke="#666666" points="897,-134.5 778,-134.5 778,-115.5 897,-115.5 897,-134.5"/>
<text text-anchor="middle" x="837.5" y="-122.5" font-family="Helvetica,sans-Serif" font-size="10.00">src/code_80071F00.c</text>
</a>
</g>
</g>
<!-- Node1&#45;&gt;Node8 -->
<g id="edge7_Node000001_Node000008" class="edge">
<title>Node1&#45;&gt;Node8</title>
<g id="a_edge7_Node000001_Node000008"><a xlink:title=" ">
<path fill="none" stroke="#63b8ff" d="M1876.23,-185.3C1708.05,-186.37 1269.34,-184.29 906.5,-140 895.94,-138.71 884.59,-136.68 874.21,-134.56"/>
<polygon fill="#63b8ff" stroke="#63b8ff" points="1876.46,-188.79 1886.44,-185.22 1876.41,-181.79 1876.46,-188.79"/>
</a>
</g>
</g>
<!-- Node9 -->
<g id="Node000009" class="node">
<title>Node9</title>
<g id="a_Node000009"><a xlink:href="code__8008C1D0_8c.html" target="_top" xlink:title=" ">
<polygon fill="white" stroke="#666666" points="1036,-134.5 915,-134.5 915,-115.5 1036,-115.5 1036,-134.5"/>
<text text-anchor="middle" x="975.5" y="-122.5" font-family="Helvetica,sans-Serif" font-size="10.00">src/code_8008C1D0.c</text>
</a>
</g>
</g>
<!-- Node1&#45;&gt;Node9 -->
<g id="edge8_Node000001_Node000009" class="edge">
<title>Node1&#45;&gt;Node9</title>
<g id="a_edge8_Node000001_Node000009"><a xlink:title=" ">
<path fill="none" stroke="#63b8ff" d="M1876.27,-184.56C1724.2,-183.92 1353.35,-178.17 1045.5,-140 1034.8,-138.67 1023.29,-136.63 1012.75,-134.51"/>
<polygon fill="#63b8ff" stroke="#63b8ff" points="1876.39,-188.06 1886.4,-184.6 1876.41,-181.06 1876.39,-188.06"/>
</a>
</g>
</g>
<!-- Node10 -->
<g id="Node000010" class="node">
<title>Node10</title>
<g id="a_Node000010"><a xlink:href="code__80091440_8c.html" target="_top" xlink:title=" ">
<polygon fill="white" stroke="#666666" points="1173,-134.5 1054,-134.5 1054,-115.5 1173,-115.5 1173,-134.5"/>
<text text-anchor="middle" x="1113.5" y="-122.5" font-family="Helvetica,sans-Serif" font-size="10.00">src/code_80091440.c</text>
</a>
</g>
</g>
<!-- Node1&#45;&gt;Node10 -->
<g id="edge9_Node000001_Node000010" class="edge">
<title>Node1&#45;&gt;Node10</title>
<g id="a_edge9_Node000001_Node000010"><a xlink:title=" ">
<path fill="none" stroke="#63b8ff" d="M1876.1,-183.73C1741.04,-181.53 1436.43,-172.99 1182.5,-140 1172.08,-138.65 1160.87,-136.62 1150.58,-134.53"/>
<polygon fill="#63b8ff" stroke="#63b8ff" points="1876.25,-187.24 1886.3,-183.89 1876.36,-180.24 1876.25,-187.24"/>
</a>
</g>
</g>
<!-- Node11 -->
<g id="Node000011" class="node">
<title>Node11</title>
<g id="a_Node000011"><a xlink:href="code__80091750_8c.html" target="_top" xlink:title=" ">
<polygon fill="white" stroke="#666666" points="1310,-134.5 1191,-134.5 1191,-115.5 1310,-115.5 1310,-134.5"/>
<text text-anchor="middle" x="1250.5" y="-122.5" font-family="Helvetica,sans-Serif" font-size="10.00">src/code_80091750.c</text>
</a>
</g>
</g>
<!-- Node1&#45;&gt;Node11 -->
<g id="edge10_Node000001_Node000011" class="edge">
<title>Node1&#45;&gt;Node11</title>
<g id="a_edge10_Node000001_Node000011"><a xlink:title=" ">
<path fill="none" stroke="#63b8ff" d="M1875.95,-182.47C1759.56,-178.45 1520.24,-167.37 1319.5,-140 1309.21,-138.6 1298.14,-136.58 1287.95,-134.52"/>
<polygon fill="#63b8ff" stroke="#63b8ff" points="1876.03,-185.97 1886.14,-182.81 1876.27,-178.98 1876.03,-185.97"/>
</a>
</g>
</g>
<!-- Node12 -->
<g id="Node000012" class="node">
<title>Node12</title>
<g id="a_Node000012"><a xlink:href="all__variables_8h.html" target="_top" xlink:title=" ">
<polygon fill="white" stroke="#666666" points="1466.5,-134.5 1328.5,-134.5 1328.5,-115.5 1466.5,-115.5 1466.5,-134.5"/>
<text text-anchor="middle" x="1397.5" y="-122.5" font-family="Helvetica,sans-Serif" font-size="10.00">src/debug/all_variables.h</text>
</a>
</g>
</g>
<!-- Node1&#45;&gt;Node12 -->
<g id="edge11_Node000001_Node000012" class="edge">
<title>Node1&#45;&gt;Node12</title>
<g id="a_edge11_Node000001_Node000012"><a xlink:title=" ">
<path fill="none" stroke="#63b8ff" d="M1876.19,-179.63C1784.12,-172.84 1617.8,-159.18 1476.5,-140 1465.32,-138.48 1453.31,-136.52 1442.1,-134.56"/>
<polygon fill="#63b8ff" stroke="#63b8ff" points="1876,-183.12 1886.23,-180.36 1876.51,-176.14 1876,-183.12"/>
</a>
</g>
</g>
<!-- Node15 -->
<g id="Node000015" class="node">
<title>Node15</title>
<g id="a_Node000015"><a xlink:href="ceremony__and__credits_8c.html" target="_top" xlink:title=" ">
<polygon fill="white" stroke="#666666" points="1604,-140 1485,-140 1485,-110 1604,-110 1604,-140"/>
<text text-anchor="start" x="1493" y="-128" font-family="Helvetica,sans-Serif" font-size="10.00">src/ending/ceremony</text>
<text text-anchor="middle" x="1544.5" y="-117" font-family="Helvetica,sans-Serif" font-size="10.00">_and_credits.c</text>
</a>
</g>
</g>
<!-- Node1&#45;&gt;Node15 -->
<g id="edge14_Node000001_Node000015" class="edge">
<title>Node1&#45;&gt;Node15</title>
<g id="a_edge14_Node000001_Node000015"><a xlink:title=" ">
<path fill="none" stroke="#63b8ff" d="M1876.37,-176.52C1808.83,-168.51 1703.91,-155.2 1613.5,-140 1610.49,-139.49 1607.4,-138.95 1604.29,-138.39"/>
<polygon fill="#63b8ff" stroke="#63b8ff" points="1876.12,-180.01 1886.46,-177.71 1876.94,-173.06 1876.12,-180.01"/>
</a>
</g>
</g>
<!-- Node16 -->
<g id="Node000016" class="node">
<title>Node16</title>
<g id="a_Node000016"><a xlink:href="code__80280000_8c.html" target="_top" xlink:title=" ">
<polygon fill="white" stroke="#666666" points="1777,-134.5 1622,-134.5 1622,-115.5 1777,-115.5 1777,-134.5"/>
<text text-anchor="middle" x="1699.5" y="-122.5" font-family="Helvetica,sans-Serif" font-size="10.00">src/ending/code_80280000.c</text>
</a>
</g>
</g>
<!-- Node1&#45;&gt;Node16 -->
<g id="edge15_Node000001_Node000016" class="edge">
<title>Node1&#45;&gt;Node16</title>
<g id="a_edge15_Node000001_Node000016"><a xlink:title=" ">
<path fill="none" stroke="#63b8ff" d="M1900.82,-173.68C1853.09,-162.38 1779.2,-144.88 1735.46,-134.52"/>
<polygon fill="#63b8ff" stroke="#63b8ff" points="1900.05,-177.09 1910.58,-175.99 1901.66,-170.28 1900.05,-177.09"/>
</a>
</g>
</g>
<!-- Node17 -->
<g id="Node000017" class="node">
<title>Node17</title>
<g id="a_Node000017"><a xlink:href="code__80281780_8c.html" target="_top" xlink:title=" ">
<polygon fill="white" stroke="#666666" points="1950,-134.5 1795,-134.5 1795,-115.5 1950,-115.5 1950,-134.5"/>
<text text-anchor="middle" x="1872.5" y="-122.5" font-family="Helvetica,sans-Serif" font-size="10.00">src/ending/code_80281780.c</text>
</a>
</g>
</g>
<!-- Node1&#45;&gt;Node17 -->
<g id="edge16_Node000001_Node000017" class="edge">
<title>Node1&#45;&gt;Node17</title>
<g id="a_edge16_Node000001_Node000017"><a xlink:title=" ">
<path fill="none" stroke="#63b8ff" d="M1927.57,-169.54C1913.6,-158.49 1895.07,-143.84 1883.46,-134.67"/>
<polygon fill="#63b8ff" stroke="#63b8ff" points="1925.57,-172.41 1935.58,-175.87 1929.91,-166.92 1925.57,-172.41"/>
</a>
</g>
</g>
<!-- Node18 -->
<g id="Node000018" class="node">
<title>Node18</title>
<g id="a_Node000018"><a xlink:href="hud__renderer_8c.html" target="_top" xlink:title=" ">
<polygon fill="white" stroke="#666666" points="2074.5,-134.5 1968.5,-134.5 1968.5,-115.5 2074.5,-115.5 2074.5,-134.5"/>
<text text-anchor="middle" x="2021.5" y="-122.5" font-family="Helvetica,sans-Serif" font-size="10.00">src/hud_renderer.c</text>
</a>
</g>
</g>
<!-- Node1&#45;&gt;Node18 -->
<g id="edge17_Node000001_Node000018" class="edge">
<title>Node1&#45;&gt;Node18</title>
<g id="a_edge17_Node000001_Node000018"><a xlink:title=" ">
<path fill="none" stroke="#63b8ff" d="M1965.68,-169.54C1979.85,-158.49 1998.63,-143.84 2010.39,-134.67"/>
<polygon fill="#63b8ff" stroke="#63b8ff" points="1963.3,-166.96 1957.57,-175.87 1967.6,-172.48 1963.3,-166.96"/>
</a>
</g>
</g>
<!-- Node19 -->
<g id="Node000019" class="node">
<title>Node19</title>
<g id="a_Node000019"><a xlink:href="main_8c.html" target="_top" xlink:title=" ">
<polygon fill="white" stroke="#666666" points="2160,-134.5 2093,-134.5 2093,-115.5 2160,-115.5 2160,-134.5"/>
<text text-anchor="middle" x="2126.5" y="-122.5" font-family="Helvetica,sans-Serif" font-size="10.00">src/main.c</text>
</a>
</g>
</g>
<!-- Node1&#45;&gt;Node19 -->
<g id="edge18_Node000001_Node000019" class="edge">
<title>Node1&#45;&gt;Node19</title>
<g id="a_edge18_Node000001_Node000019"><a xlink:title=" ">
<path fill="none" stroke="#63b8ff" d="M1982.4,-172.85C2010.03,-163.87 2049.19,-151.16 2083.5,-140 2088.88,-138.25 2094.63,-136.38 2100.12,-134.59"/>
<polygon fill="#63b8ff" stroke="#63b8ff" points="1981.2,-169.56 1972.77,-175.97 1983.36,-176.22 1981.2,-169.56"/>
</a>
</g>
</g>
<!-- Node20 -->
<g id="Node000020" class="node">
<title>Node20</title>
<g id="a_Node000020"><a xlink:href="menus_8c.html" target="_top" xlink:title=" ">
<polygon fill="white" stroke="#666666" points="2253,-134.5 2178,-134.5 2178,-115.5 2253,-115.5 2253,-134.5"/>
<text text-anchor="middle" x="2215.5" y="-122.5" font-family="Helvetica,sans-Serif" font-size="10.00">src/menus.c</text>
</a>
</g>
</g>
<!-- Node1&#45;&gt;Node20 -->
<g id="edge19_Node000001_Node000020" class="edge">
<title>Node1&#45;&gt;Node20</title>
<g id="a_edge19_Node000001_Node000020"><a xlink:title=" ">
<path fill="none" stroke="#63b8ff" d="M2006.32,-174.22C2051.43,-166.06 2114.68,-153.78 2169.5,-140 2175.81,-138.41 2182.55,-136.49 2188.87,-134.59"/>
<polygon fill="#63b8ff" stroke="#63b8ff" points="2005.64,-170.78 1996.41,-175.99 2006.87,-177.67 2005.64,-170.78"/>
</a>
</g>
</g>
<!-- Node21 -->
<g id="Node000021" class="node">
<title>Node21</title>
<g id="a_Node000021"><a xlink:href="player__controller_8c.html" target="_top" xlink:title=" ">
<polygon fill="white" stroke="#666666" points="2394.5,-134.5 2270.5,-134.5 2270.5,-115.5 2394.5,-115.5 2394.5,-134.5"/>
<text text-anchor="middle" x="2332.5" y="-122.5" font-family="Helvetica,sans-Serif" font-size="10.00">src/player_controller.c</text>
</a>
</g>
</g>
<!-- Node1&#45;&gt;Node21 -->
<g id="edge20_Node000001_Node000021" class="edge">
<title>Node1&#45;&gt;Node21</title>
<g id="a_edge20_Node000001_Node000021"><a xlink:title=" ">
<path fill="none" stroke="#63b8ff" d="M2016.65,-175.8C2080.81,-167.56 2178.26,-154.34 2262.5,-140 2272.03,-138.38 2282.25,-136.44 2291.86,-134.54"/>
<polygon fill="#63b8ff" stroke="#63b8ff" points="2016.13,-172.34 2006.65,-177.08 2017.01,-179.28 2016.13,-172.34"/>
</a>
</g>
</g>
<!-- Node22 -->
<g id="Node000022" class="node">
<title>Node22</title>
<g id="a_Node000022"><a xlink:href="actors_8c.html" target="_top" xlink:title=" ">
<polygon fill="white" stroke="#666666" points="2518,-134.5 2413,-134.5 2413,-115.5 2518,-115.5 2518,-134.5"/>
<text text-anchor="middle" x="2465.5" y="-122.5" font-family="Helvetica,sans-Serif" font-size="10.00">src/racing/actors.c</text>
</a>
</g>
</g>
<!-- Node1&#45;&gt;Node22 -->
<g id="edge21_Node000001_Node000022" class="edge">
<title>Node1&#45;&gt;Node22</title>
<g id="a_edge21_Node000001_Node000022"><a xlink:title=" ">
<path fill="none" stroke="#63b8ff" d="M2016.78,-180.39C2106.81,-174.51 2267.47,-161.89 2403.5,-140 2412.54,-138.54 2422.24,-136.56 2431.21,-134.55"/>
<polygon fill="#63b8ff" stroke="#63b8ff" points="2016.45,-176.91 2006.69,-181.04 2016.9,-183.89 2016.45,-176.91"/>
</a>
</g>
</g>
<!-- Node23 -->
<g id="Node000023" class="node">
<title>Node23</title>
<g id="a_Node000023"><a xlink:href="actors__extended_8c.html" target="_top" xlink:title=" ">
<polygon fill="white" stroke="#666666" points="2692.5,-134.5 2536.5,-134.5 2536.5,-115.5 2692.5,-115.5 2692.5,-134.5"/>
<text text-anchor="middle" x="2614.5" y="-122.5" font-family="Helvetica,sans-Serif" font-size="10.00">src/racing/actors_extended.c</text>
</a>
</g>
</g>
<!-- Node1&#45;&gt;Node23 -->
<g id="edge22_Node000001_Node000023" class="edge">
<title>Node1&#45;&gt;Node23</title>
<g id="a_edge22_Node000001_Node000023"><a xlink:title=" ">
<path fill="none" stroke="#63b8ff" d="M2017.14,-180.99C2126.69,-175.11 2344.05,-161.75 2527.5,-140 2539.96,-138.52 2553.36,-136.56 2565.83,-134.56"/>
<polygon fill="#63b8ff" stroke="#63b8ff" points="2016.68,-177.51 2006.88,-181.53 2017.05,-184.5 2016.68,-177.51"/>
</a>
</g>
</g>
<!-- Node24 -->
<g id="Node000024" class="node">
<title>Node24</title>
<g id="a_Node000024"><a xlink:href="collision_8c.html" target="_top" xlink:title=" ">
<polygon fill="white" stroke="#666666" points="2826.5,-134.5 2710.5,-134.5 2710.5,-115.5 2826.5,-115.5 2826.5,-134.5"/>
<text text-anchor="middle" x="2768.5" y="-122.5" font-family="Helvetica,sans-Serif" font-size="10.00">src/racing/collision.c</text>
</a>
</g>
</g>
<!-- Node1&#45;&gt;Node24 -->
<g id="edge23_Node000001_Node000024" class="edge">
<title>Node1&#45;&gt;Node24</title>
<g id="a_edge23_Node000001_Node000024"><a xlink:title=" ">
<path fill="none" stroke="#63b8ff" d="M2017.11,-183.8C2151.11,-181.7 2451.29,-173.33 2701.5,-140 2711.63,-138.65 2722.52,-136.63 2732.5,-134.54"/>
<polygon fill="#63b8ff" stroke="#63b8ff" points="2016.92,-180.3 2006.98,-183.95 2017.03,-187.3 2016.92,-180.3"/>
</a>
</g>
</g>
<!-- Node25 -->
<g id="Node000025" class="node">
<title>Node25</title>
<g id="a_Node000025"><a xlink:href="memory_8c.html" target="_top" xlink:title=" ">
<polygon fill="white" stroke="#666666" points="2960,-134.5 2845,-134.5 2845,-115.5 2960,-115.5 2960,-134.5"/>
<text text-anchor="middle" x="2902.5" y="-122.5" font-family="Helvetica,sans-Serif" font-size="10.00">src/racing/memory.c</text>
</a>
</g>
</g>
<!-- Node1&#45;&gt;Node25 -->
<g id="edge24_Node000001_Node000025" class="edge">
<title>Node1&#45;&gt;Node25</title>
<g id="a_edge24_Node000001_Node000025"><a xlink:title=" ">
<path fill="none" stroke="#63b8ff" d="M2016.66,-184.7C2167.27,-184.3 2532.48,-179 2835.5,-140 2845.75,-138.68 2856.78,-136.64 2866.86,-134.52"/>
<polygon fill="#63b8ff" stroke="#63b8ff" points="2016.61,-181.2 2006.62,-184.72 2016.62,-188.2 2016.61,-181.2"/>
</a>
</g>
</g>
<!-- Node26 -->
<g id="Node000026" class="node">
<title>Node26</title>
<g id="a_Node000026"><a xlink:href="race__logic_8c.html" target="_top" xlink:title=" ">
<polygon fill="white" stroke="#666666" points="3103,-134.5 2978,-134.5 2978,-115.5 3103,-115.5 3103,-134.5"/>
<text text-anchor="middle" x="3040.5" y="-122.5" font-family="Helvetica,sans-Serif" font-size="10.00">src/racing/race_logic.c</text>
</a>
</g>
</g>
<!-- Node1&#45;&gt;Node26 -->
<g id="edge25_Node000001_Node000026" class="edge">
<title>Node1&#45;&gt;Node26</title>
<g id="a_edge25_Node000001_Node000026"><a xlink:title=" ">
<path fill="none" stroke="#63b8ff" d="M2016.81,-185.09C2183.1,-185.7 2613.34,-182.61 2969.5,-140 2980.35,-138.7 2992.03,-136.67 3002.72,-134.55"/>
<polygon fill="#63b8ff" stroke="#63b8ff" points="2016.73,-181.59 2006.72,-185.05 2016.7,-188.59 2016.73,-181.59"/>
</a>
</g>
</g>
<!-- Node27 -->
<g id="Node000027" class="node">
<title>Node27</title>
<g id="a_Node000027"><a xlink:href="render__courses_8c.html" target="_top" xlink:title=" ">
<polygon fill="white" stroke="#666666" points="3270,-134.5 3121,-134.5 3121,-115.5 3270,-115.5 3270,-134.5"/>
<text text-anchor="middle" x="3195.5" y="-122.5" font-family="Helvetica,sans-Serif" font-size="10.00">src/racing/render_courses.c</text>
</a>
</g>
</g>
<!-- Node1&#45;&gt;Node27 -->
<g id="edge26_Node000001_Node000027" class="edge">
<title>Node1&#45;&gt;Node27</title>
<g id="a_edge26_Node000001_Node000027"><a xlink:title=" ">
<path fill="none" stroke="#63b8ff" d="M2017,-184.97C2198.92,-185.49 2698.87,-182.6 3112.5,-140 3125.15,-138.7 3138.78,-136.66 3151.28,-134.55"/>
<polygon fill="#63b8ff" stroke="#63b8ff" points="2016.78,-181.47 2006.77,-184.93 2016.75,-188.47 2016.78,-181.47"/>
</a>
</g>
</g>
<!-- Node28 -->
<g id="Node000028" class="node">
<title>Node28</title>
<g id="a_Node000028"><a xlink:href="skybox__and__splitscreen_8c.html" target="_top" xlink:title=" ">
<polygon fill="white" stroke="#666666" points="3413,-140 3288,-140 3288,-110 3413,-110 3413,-140"/>
<text text-anchor="start" x="3296" y="-128" font-family="Helvetica,sans-Serif" font-size="10.00">src/racing/skybox_and</text>
<text text-anchor="middle" x="3350.5" y="-117" font-family="Helvetica,sans-Serif" font-size="10.00">_splitscreen.c</text>
</a>
</g>
</g>
<!-- Node1&#45;&gt;Node28 -->
<g id="edge27_Node000001_Node000028" class="edge">
<title>Node1&#45;&gt;Node28</title>
<g id="a_edge27_Node000001_Node000028"><a xlink:title=" ">
<path fill="none" stroke="#63b8ff" d="M2016.86,-183.65C2255.26,-180.53 3031.43,-168.41 3279.5,-140 3282.25,-139.69 3285.04,-139.32 3287.87,-138.92"/>
<polygon fill="#63b8ff" stroke="#63b8ff" points="2016.54,-180.15 2006.59,-183.78 2016.63,-187.15 2016.54,-180.15"/>
</a>
</g>
</g>
<!-- Node29 -->
<g id="Node000029" class="node">
<title>Node29</title>
<g id="a_Node000029"><a xlink:href="render__player_8c.html" target="_top" xlink:title=" ">
<polygon fill="white" stroke="#666666" points="3540,-134.5 3431,-134.5 3431,-115.5 3540,-115.5 3540,-134.5"/>
<text text-anchor="middle" x="3485.5" y="-122.5" font-family="Helvetica,sans-Serif" font-size="10.00">src/render_player.c</text>
</a>
</g>
</g>
<!-- Node1&#45;&gt;Node29 -->
<g id="edge28_Node000001_Node000029" class="edge">
<title>Node1&#45;&gt;Node29</title>
<g id="a_edge28_Node000001_Node000029"><a xlink:title=" ">
<path fill="none" stroke="#63b8ff" d="M2017.02,-184.14C2272,-182.54 3145.56,-174.63 3422.5,-140 3432.39,-138.76 3443.02,-136.69 3452.68,-134.52"/>
<polygon fill="#63b8ff" stroke="#63b8ff" points="2016.76,-180.64 2006.78,-184.2 2016.8,-187.64 2016.76,-180.64"/>
</a>
</g>
</g>
<!-- Node30 -->
<g id="Node000030" class="node">
<title>Node30</title>
<g id="a_Node000030"><a xlink:href="spawn__players_8c.html" target="_top" xlink:title=" ">
<polygon fill="white" stroke="#666666" points="3673,-134.5 3558,-134.5 3558,-115.5 3673,-115.5 3673,-134.5"/>
<text text-anchor="middle" x="3615.5" y="-122.5" font-family="Helvetica,sans-Serif" font-size="10.00">src/spawn_players.c</text>
</a>
</g>
</g>
<!-- Node1&#45;&gt;Node30 -->
<g id="edge29_Node000001_Node000030" class="edge">
<title>Node1&#45;&gt;Node30</title>
<g id="a_edge29_Node000001_Node000030"><a xlink:title=" ">
<path fill="none" stroke="#63b8ff" d="M2016.73,-184.24C2285.13,-183 3246.19,-176.08 3549.5,-140 3559.85,-138.77 3570.98,-136.7 3581.1,-134.53"/>
<polygon fill="#63b8ff" stroke="#63b8ff" points="2016.7,-180.74 2006.72,-184.29 2016.73,-187.74 2016.7,-180.74"/>
</a>
</g>
</g>
<!-- Node31 -->
<g id="Node000031" class="node">
<title>Node31</title>
<g id="a_Node000031"><a xlink:href="staff__ghosts_8c.html" target="_top" xlink:title=" ">
<polygon fill="white" stroke="#666666" points="3792,-134.5 3691,-134.5 3691,-115.5 3792,-115.5 3792,-134.5"/>
<text text-anchor="middle" x="3741.5" y="-122.5" font-family="Helvetica,sans-Serif" font-size="10.00">src/staff_ghosts.c</text>
</a>
</g>
</g>
<!-- Node1&#45;&gt;Node31 -->
<g id="edge30_Node000001_Node000031" class="edge">
<title>Node1&#45;&gt;Node31</title>
<g id="a_edge30_Node000001_Node000031"><a xlink:title=" ">
<path fill="none" stroke="#63b8ff" d="M2016.85,-184.64C2299.4,-184.91 3352.29,-182.94 3682.5,-140 3691.79,-138.79 3701.75,-136.73 3710.8,-134.56"/>
<polygon fill="#63b8ff" stroke="#63b8ff" points="2016.74,-181.14 2006.73,-184.63 2016.73,-188.14 2016.74,-181.14"/>
</a>
</g>
</g>
<!-- Node13 -->
<g id="Node000013" class="node">
<title>Node13</title>
<g id="a_Node000013"><a xlink:href="debug_8inc_8c.html" target="_top" xlink:title=" ">
<polygon fill="white" stroke="#666666" points="1458.5,-74 1336.5,-74 1336.5,-55 1458.5,-55 1458.5,-74"/>
<text text-anchor="middle" x="1397.5" y="-62" font-family="Helvetica,sans-Serif" font-size="10.00">src/debug/debug.inc.c</text>
</a>
</g>
</g>
<!-- Node12&#45;&gt;Node13 -->
<g id="edge12_Node000012_Node000013" class="edge">
<title>Node12&#45;&gt;Node13</title>
<g id="a_edge12_Node000012_Node000013"><a xlink:title=" ">
<path fill="none" stroke="#63b8ff" d="M1397.5,-105.16C1397.5,-94.74 1397.5,-82.3 1397.5,-74.17"/>
<polygon fill="#63b8ff" stroke="#63b8ff" points="1394,-105.37 1397.5,-115.37 1401,-105.37 1394,-105.37"/>
</a>
</g>
</g>
<!-- Node14 -->
<g id="Node000014" class="node">
<title>Node14</title>
<g id="a_Node000014"><a xlink:href="debug_8c.html" target="_top" xlink:title=" ">
<polygon fill="white" stroke="#666666" points="1450,-19 1345,-19 1345,0 1450,0 1450,-19"/>
<text text-anchor="middle" x="1397.5" y="-7" font-family="Helvetica,sans-Serif" font-size="10.00">src/debug/debug.c</text>
</a>
</g>
</g>
<!-- Node13&#45;&gt;Node14 -->
<g id="edge13_Node000013_Node000014" class="edge">
<title>Node13&#45;&gt;Node14</title>
<g id="a_edge13_Node000013_Node000014"><a xlink:title=" ">
<path fill="none" stroke="#63b8ff" d="M1397.5,-44.66C1397.5,-35.93 1397.5,-25.99 1397.5,-19.09"/>
<polygon fill="#63b8ff" stroke="#63b8ff" points="1394,-44.75 1397.5,-54.75 1401,-44.75 1394,-44.75"/>
</a>
</g>
</g>
</g>
</svg>
