<?xml version="1.0" encoding="UTF-8" standalone="no"?>
<!DOCTYPE svg PUBLIC "-//W3C//DTD SVG 1.1//EN"
 "http://www.w3.org/Graphics/SVG/1.1/DTD/svg11.dtd">
<!-- Generated by graphviz version 2.43.0 (0)
 -->
<!-- Title: func_8008E118 Pages: 1 -->
<!--zoomable 573 -->

<svg id="main" version="1.1" xmlns="http://www.w3.org/2000/svg" xmlns:xlink="http://www.w3.org/1999/xlink" xml:space="preserve" onload="init(evt)">
<style type="text/css"><![CDATA[
.node, .edge {opacity: 0.7;}
.node.selected, .edge.selected {opacity: 1;}
.edge:hover path { stroke: red; }
.edge:hover polygon { stroke: red; fill: red; }
]]></style>

<defs>
  <circle id="rim" cx="0" cy="0" r="7"/>
  <circle id="rim2" cx="0" cy="0" r="3.5"/>
  <g id="zoomPlus">
    <use xlink:href="#rim" fill="#404040"><set attributeName="fill" to="#808080" begin="zoomplus.mouseover" end="zoomplus.mouseout"/></use>
    <path d="M-4,0h8M0,-4v8" fill="none" stroke="white" stroke-width="1.5" pointer-events="none"/>
  </g>
  <g id="zoomMin">
    <use xlink:href="#rim" fill="#404040"><set attributeName="fill" to="#808080" begin="zoomminus.mouseover" end="zoomminus.mouseout"/></use>
    <path d="M-4,0h8" fill="none" stroke="white" stroke-width="1.5" pointer-events="none"/>
  </g>
  <g id="arrowUp" transform="translate(30 24)">
    <use xlink:href="#rim"/>
    <path pointer-events="none" fill="none" stroke="white" stroke-width="1.5" d="M0,-3.0v7 M-2.5,-0.5L0,-3.0L2.5,-0.5"/>
  </g>
  <g id="arrowRight" transform="rotate(90) translate(36 -43)">
    <use xlink:href="#rim"/>
    <path pointer-events="none" fill="none" stroke="white" stroke-width="1.5" d="M0,-3.0v7 M-2.5,-0.5L0,-3.0L2.5,-0.5"/>
  </g>
  <g id="arrowDown" transform="rotate(180) translate(-30 -48)">
    <use xlink:href="#rim"/>
    <path pointer-events="none" fill="none" stroke="white" stroke-width="1.5" d="M0,-3.0v7 M-2.5,-0.5L0,-3.0L2.5,-0.5"/>
  </g>
  <g id="arrowLeft" transform="rotate(270) translate(-36 17)">
    <use xlink:href="#rim"/>
    <path pointer-events="none" fill="none" stroke="white" stroke-width="1.5" d="M0,-3.0v7 M-2.5,-0.5L0,-3.0L2.5,-0.5"/>
  </g>
  <g id="resetDef">
    <use xlink:href="#rim2" fill="#404040"><set attributeName="fill" to="#808080" begin="reset.mouseover" end="reset.mouseout"/></use>
  </g>
</defs>
<script type="application/ecmascript">
var viewWidth = 1004;
var viewHeight = 573;
var sectionId = 'dynsection-48';
</script>
<script type="application/ecmascript" xlink:href="svg.min.js"/>
<svg id="graph" class="graph">
<g id="viewport">
<title>func_8008E118</title>
<!-- Node1 -->
<g id="Node000001" class="node">
<title>Node1</title>
<g id="a_Node000001"><a xlink:title=" ">
<polygon fill="#999999" stroke="#666666" points="91,-287 0,-287 0,-268 91,-268 91,-287"/>
<text text-anchor="middle" x="45.5" y="-275" font-family="Helvetica,sans-Serif" font-size="10.00">func_8008E118</text>
</a>
</g>
</g>
<!-- Node2 -->
<g id="Node000002" class="node">
<title>Node2</title>
<g id="a_Node000002"><a xlink:href="player__controller_8c.html#ac7a97dc1bb35fea10379d0fa68c83f3e" target="_top" xlink:title=" ">
<polygon fill="white" stroke="#666666" points="218.5,-325 127.5,-325 127.5,-306 218.5,-306 218.5,-325"/>
<text text-anchor="middle" x="173" y="-313" font-family="Helvetica,sans-Serif" font-size="10.00">func_80031F48</text>
</a>
</g>
</g>
<!-- Node1&#45;&gt;Node2 -->
<g id="edge1_Node000001_Node000002" class="edge">
<title>Node1&#45;&gt;Node2</title>
<g id="a_edge1_Node000001_Node000002"><a xlink:title=" ">
<path fill="none" stroke="#63b8ff" d="M78.17,-287.09C94.07,-291.9 113.54,-297.8 130.61,-302.97"/>
<polygon fill="#63b8ff" stroke="#63b8ff" points="129.76,-306.37 140.34,-305.91 131.78,-299.67 129.76,-306.37"/>
</a>
</g>
</g>
<!-- Node23 -->
<g id="Node000023" class="node">
<title>Node23</title>
<g id="a_Node000023"><a xlink:href="external_8c.html#a1a1bdc0f5d3b6fd4a86b9d62e93a076e" target="_top" xlink:title=" ">
<polygon fill="white" stroke="#666666" points="502,-357 410,-357 410,-338 502,-338 502,-357"/>
<text text-anchor="middle" x="456" y="-345" font-family="Helvetica,sans-Serif" font-size="10.00">func_800C90F4</text>
</a>
</g>
</g>
<!-- Node1&#45;&gt;Node23 -->
<g id="edge34_Node000001_Node000023" class="edge">
<title>Node1&#45;&gt;Node23</title>
<g id="a_edge34_Node000001_Node000023"><a xlink:title=" ">
<path fill="none" stroke="#63b8ff" d="M57.47,-287.1C72.3,-299.64 100,-321.5 127,-334.5 180.35,-360.19 196.37,-363.2 255,-371.5 307.37,-378.92 321.66,-379.09 374,-371.5 389.3,-369.28 405.73,-364.82 419.77,-360.34"/>
<polygon fill="#63b8ff" stroke="#63b8ff" points="421.13,-363.58 429.52,-357.11 418.93,-356.93 421.13,-363.58"/>
</a>
</g>
</g>
<!-- Node25 -->
<g id="Node000025" class="node">
<title>Node25</title>
<g id="a_Node000025"><a xlink:href="code__8008C1D0_8c.html#a91101066503279f64d1972e074533e32" target="_top" xlink:title=" ">
<polygon fill="white" stroke="#666666" points="362,-277 267,-277 267,-258 362,-258 362,-277"/>
<text text-anchor="middle" x="314.5" y="-265" font-family="Helvetica,sans-Serif" font-size="10.00">func_8008DABC</text>
</a>
</g>
</g>
<!-- Node1&#45;&gt;Node25 -->
<g id="edge25_Node000001_Node000025" class="edge">
<title>Node1&#45;&gt;Node25</title>
<g id="a_edge25_Node000001_Node000025"><a xlink:title=" ">
<path fill="none" stroke="#63b8ff" d="M91.19,-275.83C136.65,-274.12 207.25,-271.48 256.66,-269.63"/>
<polygon fill="#63b8ff" stroke="#63b8ff" points="257.01,-273.12 266.87,-269.25 256.74,-266.12 257.01,-273.12"/>
</a>
</g>
</g>
<!-- Node29 -->
<g id="Node000029" class="node">
<title>Node29</title>
<g id="a_Node000029"><a xlink:href="code__8008C1D0_8c.html#ab03baba14bfbe9feac872f1585494a38" target="_top" xlink:title=" ">
<polygon fill="white" stroke="#666666" points="219,-211 127,-211 127,-192 219,-192 219,-211"/>
<text text-anchor="middle" x="173" y="-199" font-family="Helvetica,sans-Serif" font-size="10.00">func_8008E3C0</text>
</a>
</g>
</g>
<!-- Node1&#45;&gt;Node29 -->
<g id="edge32_Node000001_Node000029" class="edge">
<title>Node1&#45;&gt;Node29</title>
<g id="a_edge32_Node000001_Node000029"><a xlink:title=" ">
<path fill="none" stroke="#63b8ff" d="M60.53,-267.93C76.41,-257.21 103.19,-239.5 127,-225.5 132.38,-222.34 138.2,-219.1 143.83,-216.06"/>
<polygon fill="#63b8ff" stroke="#63b8ff" points="145.79,-218.98 152.98,-211.2 142.5,-212.8 145.79,-218.98"/>
</a>
</g>
</g>
<!-- Node30 -->
<g id="Node000030" class="node">
<title>Node30</title>
<g id="a_Node000030"><a xlink:href="render__player_8c.html#a35eebbf671cc37666be29a2a9b6f3c8c" target="_top" xlink:title=" ">
<polygon fill="white" stroke="#666666" points="369.5,-230 259.5,-230 259.5,-211 369.5,-211 369.5,-230"/>
<text text-anchor="middle" x="314.5" y="-218" font-family="Helvetica,sans-Serif" font-size="10.00">move_f32_towards</text>
</a>
</g>
</g>
<!-- Node1&#45;&gt;Node30 -->
<g id="edge35_Node000001_Node000030" class="edge">
<title>Node1&#45;&gt;Node30</title>
<g id="a_edge35_Node000001_Node000030"><a xlink:title=" ">
<path fill="none" stroke="#63b8ff" d="M91.19,-267.96C137.3,-258.12 209.28,-242.75 258.77,-232.18"/>
<polygon fill="#63b8ff" stroke="#63b8ff" points="259.62,-235.58 268.66,-230.07 258.15,-228.74 259.62,-235.58"/>
</a>
</g>
</g>
<!-- Node3 -->
<g id="Node000003" class="node">
<title>Node3</title>
<g id="a_Node000003"><a xlink:href="code__8008C1D0_8c.html#ae77e5662a7ef9f09c2e2150a36883d04" target="_top" xlink:title=" ">
<polygon fill="white" stroke="#666666" points="360,-314 269,-314 269,-295 360,-295 360,-314"/>
<text text-anchor="middle" x="314.5" y="-302" font-family="Helvetica,sans-Serif" font-size="10.00">func_8008F104</text>
</a>
</g>
</g>
<!-- Node2&#45;&gt;Node3 -->
<g id="edge2_Node000002_Node000003" class="edge">
<title>Node2&#45;&gt;Node3</title>
<g id="a_edge2_Node000002_Node000003"><a xlink:title=" ">
<path fill="none" stroke="#63b8ff" d="M218.52,-311.99C231.36,-310.98 245.51,-309.86 258.88,-308.81"/>
<polygon fill="#63b8ff" stroke="#63b8ff" points="259.23,-312.29 268.92,-308.02 258.68,-305.31 259.23,-312.29"/>
</a>
</g>
</g>
<!-- Node24 -->
<g id="Node000024" class="node">
<title>Node24</title>
<g id="a_Node000024"><a xlink:href="player__controller_8c.html#aafeb0470c7da44e1440ffa4848f7d500" target="_top" xlink:title=" ">
<polygon fill="white" stroke="#666666" points="374,-362.5 255,-362.5 255,-332.5 374,-332.5 374,-362.5"/>
<text text-anchor="start" x="263" y="-350.5" font-family="Helvetica,sans-Serif" font-size="10.00">get_player_index_for</text>
<text text-anchor="middle" x="314.5" y="-339.5" font-family="Helvetica,sans-Serif" font-size="10.00">_player</text>
</a>
</g>
</g>
<!-- Node2&#45;&gt;Node24 -->
<g id="edge24_Node000002_Node000024" class="edge">
<title>Node2&#45;&gt;Node24</title>
<g id="a_edge24_Node000002_Node000024"><a xlink:title=" ">
<path fill="none" stroke="#63b8ff" d="M215.48,-325.01C224.75,-327.14 234.83,-329.45 244.88,-331.76"/>
<polygon fill="#63b8ff" stroke="#63b8ff" points="244.36,-335.23 254.89,-334.05 245.92,-328.41 244.36,-335.23"/>
</a>
</g>
</g>
<!-- Node4 -->
<g id="Node000004" class="node">
<title>Node4</title>
<g id="a_Node000004"><a xlink:href="code__8008C1D0_8c.html#a5cdc06d2091fc6d20759448c40b17d54" target="_top" xlink:title=" ">
<polygon fill="white" stroke="#666666" points="502,-296 410,-296 410,-277 502,-277 502,-296"/>
<text text-anchor="middle" x="456" y="-284" font-family="Helvetica,sans-Serif" font-size="10.00">func_8008C354</text>
</a>
</g>
</g>
<!-- Node3&#45;&gt;Node4 -->
<g id="edge3_Node000003_Node000004" class="edge">
<title>Node3&#45;&gt;Node4</title>
<g id="a_edge3_Node000003_Node000004"><a xlink:title=" ">
<path fill="none" stroke="#63b8ff" d="M360.02,-298.76C372.73,-297.12 386.73,-295.31 399.99,-293.6"/>
<polygon fill="#63b8ff" stroke="#63b8ff" points="400.47,-297.06 409.94,-292.31 399.58,-290.12 400.47,-297.06"/>
</a>
</g>
</g>
<!-- Node3&#45;&gt;Node23 -->
<g id="edge22_Node000003_Node000023" class="edge">
<title>Node3&#45;&gt;Node23</title>
<g id="a_edge22_Node000003_Node000023"><a xlink:title=" ">
<path fill="none" stroke="#63b8ff" d="M346.46,-314.04C366.51,-320.22 392.82,-328.33 414.52,-335.02"/>
<polygon fill="#63b8ff" stroke="#63b8ff" points="413.54,-338.38 424.13,-337.98 415.6,-331.69 413.54,-338.38"/>
</a>
</g>
</g>
<!-- Node5 -->
<g id="Node000005" class="node">
<title>Node5</title>
<g id="a_Node000005"><a xlink:href="code__8008C1D0_8c.html#ad164a912d7ef76f24e7b5cfb9169c16f" target="_top" xlink:title=" ">
<polygon fill="white" stroke="#666666" points="631,-352 538,-352 538,-333 631,-333 631,-352"/>
<text text-anchor="middle" x="584.5" y="-340" font-family="Helvetica,sans-Serif" font-size="10.00">func_8008C6D0</text>
</a>
</g>
</g>
<!-- Node4&#45;&gt;Node5 -->
<g id="edge4_Node000004_Node000005" class="edge">
<title>Node4&#45;&gt;Node5</title>
<g id="a_edge4_Node000004_Node000005"><a xlink:title=" ">
<path fill="none" stroke="#63b8ff" d="M476.49,-296.06C492.8,-303.96 516.75,-315.32 538,-324.5 541.48,-326 545.13,-327.53 548.78,-329.02"/>
<polygon fill="#63b8ff" stroke="#63b8ff" points="547.77,-332.39 558.35,-332.87 550.38,-325.89 547.77,-332.39"/>
</a>
</g>
</g>
<!-- Node6 -->
<g id="Node000006" class="node">
<title>Node6</title>
<g id="a_Node000006"><a xlink:href="code__8008C1D0_8c.html#a105203221e314be241a95e006b62ef80" target="_top" xlink:title=" ">
<polygon fill="white" stroke="#666666" points="630.5,-315 538.5,-315 538.5,-296 630.5,-296 630.5,-315"/>
<text text-anchor="middle" x="584.5" y="-303" font-family="Helvetica,sans-Serif" font-size="10.00">func_8008C8C4</text>
</a>
</g>
</g>
<!-- Node4&#45;&gt;Node6 -->
<g id="edge5_Node000004_Node000006" class="edge">
<title>Node4&#45;&gt;Node6</title>
<g id="a_edge5_Node000004_Node000006"><a xlink:title=" ">
<path fill="none" stroke="#63b8ff" d="M502.31,-293.31C510.67,-294.56 519.48,-295.88 528.1,-297.18"/>
<polygon fill="#63b8ff" stroke="#63b8ff" points="527.67,-300.65 538.08,-298.68 528.71,-293.73 527.67,-300.65"/>
</a>
</g>
</g>
<!-- Node7 -->
<g id="Node000007" class="node">
<title>Node7</title>
<g id="a_Node000007"><a xlink:href="code__8008C1D0_8c.html#acab450a6af6eca812ad3987a292a5165" target="_top" xlink:title=" ">
<polygon fill="white" stroke="#666666" points="630.5,-278 538.5,-278 538.5,-259 630.5,-259 630.5,-278"/>
<text text-anchor="middle" x="584.5" y="-266" font-family="Helvetica,sans-Serif" font-size="10.00">func_8008D0E4</text>
</a>
</g>
</g>
<!-- Node4&#45;&gt;Node7 -->
<g id="edge6_Node000004_Node000007" class="edge">
<title>Node4&#45;&gt;Node7</title>
<g id="a_edge6_Node000004_Node000007"><a xlink:title=" ">
<path fill="none" stroke="#63b8ff" d="M502.31,-280.05C510.67,-278.86 519.48,-277.61 528.1,-276.38"/>
<polygon fill="#63b8ff" stroke="#63b8ff" points="528.67,-279.84 538.08,-274.96 527.69,-272.91 528.67,-279.84"/>
</a>
</g>
</g>
<!-- Node8 -->
<g id="Node000008" class="node">
<title>Node8</title>
<g id="a_Node000008"><a xlink:href="code__8008C1D0_8c.html#a663cb8df8b606cf00e361977c9d6d834" target="_top" xlink:title=" ">
<polygon fill="white" stroke="#666666" points="631,-241 538,-241 538,-222 631,-222 631,-241"/>
<text text-anchor="middle" x="584.5" y="-229" font-family="Helvetica,sans-Serif" font-size="10.00">func_8008D3B0</text>
</a>
</g>
</g>
<!-- Node4&#45;&gt;Node8 -->
<g id="edge7_Node000004_Node000008" class="edge">
<title>Node4&#45;&gt;Node8</title>
<g id="a_edge7_Node000004_Node000008"><a xlink:title=" ">
<path fill="none" stroke="#63b8ff" d="M477.18,-276.93C493.49,-269.28 517.09,-258.4 538,-249.5 541.49,-248.01 545.14,-246.5 548.8,-245.01"/>
<polygon fill="#63b8ff" stroke="#63b8ff" points="550.39,-248.14 558.37,-241.17 547.79,-241.65 550.39,-248.14"/>
</a>
</g>
</g>
<!-- Node9 -->
<g id="Node000009" class="node">
<title>Node9</title>
<g id="a_Node000009"><a xlink:href="code__8008C1D0_8c.html#ae7bb91110e710a8f32fcd4c56c56f934" target="_top" xlink:title=" ">
<polygon fill="white" stroke="#666666" points="630.5,-204 538.5,-204 538.5,-185 630.5,-185 630.5,-204"/>
<text text-anchor="middle" x="584.5" y="-192" font-family="Helvetica,sans-Serif" font-size="10.00">func_8008D554</text>
</a>
</g>
</g>
<!-- Node4&#45;&gt;Node9 -->
<g id="edge8_Node000004_Node000009" class="edge">
<title>Node4&#45;&gt;Node9</title>
<g id="a_edge8_Node000004_Node000009"><a xlink:title=" ">
<path fill="none" stroke="#63b8ff" d="M465.56,-276.64C479.44,-261.18 508.28,-231.07 538,-212.5 540.43,-210.98 543.01,-209.55 545.66,-208.21"/>
<polygon fill="#63b8ff" stroke="#63b8ff" points="547.19,-211.36 554.81,-204.01 544.26,-205 547.19,-211.36"/>
</a>
</g>
</g>
<!-- Node10 -->
<g id="Node000010" class="node">
<title>Node10</title>
<g id="a_Node000010"><a xlink:href="code__8008C1D0_8c.html#a5f19eaaa048055d292d02c717e635786" target="_top" xlink:title=" ">
<polygon fill="white" stroke="#666666" points="630.5,-167 538.5,-167 538.5,-148 630.5,-148 630.5,-167"/>
<text text-anchor="middle" x="584.5" y="-155" font-family="Helvetica,sans-Serif" font-size="10.00">func_8008D760</text>
</a>
</g>
</g>
<!-- Node4&#45;&gt;Node10 -->
<g id="edge9_Node000004_Node000010" class="edge">
<title>Node4&#45;&gt;Node10</title>
<g id="a_edge9_Node000004_Node000010"><a xlink:title=" ">
<path fill="none" stroke="#63b8ff" d="M461.67,-276.76C472.33,-255.51 500.45,-204.55 538,-175.5 539.61,-174.25 541.32,-173.08 543.1,-171.98"/>
<polygon fill="#63b8ff" stroke="#63b8ff" points="545.17,-174.85 552.37,-167.07 541.89,-168.66 545.17,-174.85"/>
</a>
</g>
</g>
<!-- Node11 -->
<g id="Node000011" class="node">
<title>Node11</title>
<g id="a_Node000011"><a xlink:href="code__8008C1D0_8c.html#a4ea2da0616ee3c475e4be217dc0bc71f" target="_top" xlink:title=" ">
<polygon fill="white" stroke="#666666" points="631,-130 538,-130 538,-111 631,-111 631,-130"/>
<text text-anchor="middle" x="584.5" y="-118" font-family="Helvetica,sans-Serif" font-size="10.00">func_8008D97C</text>
</a>
</g>
</g>
<!-- Node4&#45;&gt;Node11 -->
<g id="edge10_Node000004_Node000011" class="edge">
<title>Node4&#45;&gt;Node11</title>
<g id="a_edge10_Node000004_Node000011"><a xlink:title=" ">
<path fill="none" stroke="#63b8ff" d="M459.77,-276.72C467.64,-250.63 492.55,-178.63 538,-138.5 539.31,-137.34 540.71,-136.25 542.17,-135.23"/>
<polygon fill="#63b8ff" stroke="#63b8ff" points="544.16,-138.12 551.05,-130.06 540.64,-132.07 544.16,-138.12"/>
</a>
</g>
</g>
<!-- Node12 -->
<g id="Node000012" class="node">
<title>Node12</title>
<g id="a_Node000012"><a xlink:href="code__8008C1D0_8c.html#a4a437d6caeeaa794bcce43ec60c097e9" target="_top" xlink:title=" ">
<polygon fill="white" stroke="#666666" points="630,-93 539,-93 539,-74 630,-74 630,-93"/>
<text text-anchor="middle" x="584.5" y="-81" font-family="Helvetica,sans-Serif" font-size="10.00">func_8008E884</text>
</a>
</g>
</g>
<!-- Node4&#45;&gt;Node12 -->
<g id="edge11_Node000004_Node000012" class="edge">
<title>Node4&#45;&gt;Node12</title>
<g id="a_edge11_Node000004_Node000012"><a xlink:title=" ">
<path fill="none" stroke="#63b8ff" d="M460.16,-276.77C471.46,-242.47 510.62,-127.91 538,-101.5 539.11,-100.43 540.29,-99.42 541.52,-98.47"/>
<polygon fill="#63b8ff" stroke="#63b8ff" points="543.67,-101.26 550.31,-93.01 539.97,-95.32 543.67,-101.26"/>
</a>
</g>
</g>
<!-- Node13 -->
<g id="Node000013" class="node">
<title>Node13</title>
<g id="a_Node000013"><a xlink:href="code__8008C1D0_8c.html#a4e2c6d0ba50b7c13695f74f1c2bc7b18" target="_top" xlink:title=" ">
<polygon fill="white" stroke="#666666" points="630.5,-56 538.5,-56 538.5,-37 630.5,-37 630.5,-56"/>
<text text-anchor="middle" x="584.5" y="-44" font-family="Helvetica,sans-Serif" font-size="10.00">func_8008EC34</text>
</a>
</g>
</g>
<!-- Node4&#45;&gt;Node13 -->
<g id="edge12_Node000004_Node000013" class="edge">
<title>Node4&#45;&gt;Node13</title>
<g id="a_edge12_Node000004_Node000013"><a xlink:title=" ">
<path fill="none" stroke="#63b8ff" d="M460.29,-276.79C474.48,-235.07 530.02,-72.69 538,-64.5 538.93,-63.54 539.92,-62.63 540.96,-61.77"/>
<polygon fill="#63b8ff" stroke="#63b8ff" points="543.22,-64.47 549.66,-56.05 539.38,-58.62 543.22,-64.47"/>
</a>
</g>
</g>
<!-- Node14 -->
<g id="Node000014" class="node">
<title>Node14</title>
<g id="a_Node000014"><a xlink:href="code__8008C1D0_8c.html#ae48f5d9507d1966754bc1aa1bddc4136" target="_top" xlink:title=" ">
<polygon fill="white" stroke="#666666" points="630.5,-537 538.5,-537 538.5,-518 630.5,-518 630.5,-537"/>
<text text-anchor="middle" x="584.5" y="-525" font-family="Helvetica,sans-Serif" font-size="10.00">func_8008EEC4</text>
</a>
</g>
</g>
<!-- Node4&#45;&gt;Node14 -->
<g id="edge13_Node000004_Node000014" class="edge">
<title>Node4&#45;&gt;Node14</title>
<g id="a_edge13_Node000004_Node000014"><a xlink:title=" ">
<path fill="none" stroke="#63b8ff" d="M471,-296.16C481.2,-303.96 494.5,-315.87 502,-329.5 541.31,-400.99 485.71,-446.88 538,-509.5 538.62,-510.24 539.27,-510.95 539.96,-511.64"/>
<polygon fill="#63b8ff" stroke="#63b8ff" points="538.17,-514.67 548.26,-517.89 542.38,-509.08 538.17,-514.67"/>
</a>
</g>
</g>
<!-- Node15 -->
<g id="Node000015" class="node">
<title>Node15</title>
<g id="a_Node000015"><a xlink:href="code__8008C1D0_8c.html#a77e26f2cff6381f9ba1575f8da060571" target="_top" xlink:title=" ">
<polygon fill="white" stroke="#666666" points="630,-500 539,-500 539,-481 630,-481 630,-500"/>
<text text-anchor="middle" x="584.5" y="-488" font-family="Helvetica,sans-Serif" font-size="10.00">func_8008F0E8</text>
</a>
</g>
</g>
<!-- Node4&#45;&gt;Node15 -->
<g id="edge14_Node000004_Node000015" class="edge">
<title>Node4&#45;&gt;Node15</title>
<g id="a_edge14_Node000004_Node000015"><a xlink:title=" ">
<path fill="none" stroke="#63b8ff" d="M470.81,-296.27C480.91,-304.13 494.17,-316.05 502,-329.5 534.98,-386.13 494.77,-423.24 538,-472.5 538.73,-473.33 539.5,-474.12 540.31,-474.88"/>
<polygon fill="#63b8ff" stroke="#63b8ff" points="538.27,-477.72 548.42,-480.75 542.37,-472.05 538.27,-477.72"/>
</a>
</g>
</g>
<!-- Node16 -->
<g id="Node000016" class="node">
<title>Node16</title>
<g id="a_Node000016"><a xlink:href="code__8008C1D0_8c.html#ae02351b6bbb678b552ec8864b47fc56c" target="_top" xlink:title=" ">
<polygon fill="white" stroke="#666666" points="630,-426 539,-426 539,-407 630,-407 630,-426"/>
<text text-anchor="middle" x="584.5" y="-414" font-family="Helvetica,sans-Serif" font-size="10.00">func_8008F3E0</text>
</a>
</g>
</g>
<!-- Node4&#45;&gt;Node16 -->
<g id="edge15_Node000004_Node000016" class="edge">
<title>Node4&#45;&gt;Node16</title>
<g id="a_edge15_Node000004_Node000016"><a xlink:title=" ">
<path fill="none" stroke="#63b8ff" d="M469.14,-296.18C478.85,-304.34 492.39,-316.72 502,-329.5 522.78,-357.15 512.3,-375.35 538,-398.5 539.14,-399.53 540.35,-400.51 541.62,-401.43"/>
<polygon fill="#63b8ff" stroke="#63b8ff" points="540.14,-404.63 550.52,-406.77 543.75,-398.62 540.14,-404.63"/>
</a>
</g>
</g>
<!-- Node17 -->
<g id="Node000017" class="node">
<title>Node17</title>
<g id="a_Node000017"><a xlink:href="code__8008C1D0_8c.html#afcf39ca15166fb7561402462930cd979" target="_top" xlink:title=" ">
<polygon fill="white" stroke="#666666" points="630.5,-463 538.5,-463 538.5,-444 630.5,-444 630.5,-463"/>
<text text-anchor="middle" x="584.5" y="-451" font-family="Helvetica,sans-Serif" font-size="10.00">func_8008F5A4</text>
</a>
</g>
</g>
<!-- Node4&#45;&gt;Node17 -->
<g id="edge16_Node000004_Node000017" class="edge">
<title>Node4&#45;&gt;Node17</title>
<g id="a_edge16_Node000004_Node000017"><a xlink:title=" ">
<path fill="none" stroke="#63b8ff" d="M470.09,-296.13C480.07,-304.08 493.52,-316.2 502,-329.5 528.75,-371.45 503.7,-399.46 538,-435.5 538.89,-436.43 539.83,-437.32 540.82,-438.16"/>
<polygon fill="#63b8ff" stroke="#63b8ff" points="538.88,-441.08 549.13,-443.77 542.8,-435.27 538.88,-441.08"/>
</a>
</g>
</g>
<!-- Node22 -->
<g id="Node000022" class="node">
<title>Node22</title>
<g id="a_Node000022"><a xlink:href="code__8008C1D0_8c.html#ab6d84742231847170dd64267f0519cdf" target="_top" xlink:title=" ">
<polygon fill="white" stroke="#666666" points="631,-389 538,-389 538,-370 631,-370 631,-389"/>
<text text-anchor="middle" x="584.5" y="-377" font-family="Helvetica,sans-Serif" font-size="10.00">func_8008FEDC</text>
</a>
</g>
</g>
<!-- Node4&#45;&gt;Node22 -->
<g id="edge21_Node000004_Node000022" class="edge">
<title>Node4&#45;&gt;Node22</title>
<g id="a_edge21_Node000004_Node000022"><a xlink:title=" ">
<path fill="none" stroke="#63b8ff" d="M466.95,-296.1C486.79,-315.19 530.05,-356.5 538,-361.5 540.28,-362.94 542.69,-364.29 545.17,-365.57"/>
<polygon fill="#63b8ff" stroke="#63b8ff" points="543.77,-368.77 554.32,-369.82 546.72,-362.43 543.77,-368.77"/>
</a>
</g>
</g>
<!-- Node18 -->
<g id="Node000018" class="node">
<title>Node18</title>
<g id="a_Node000018"><a xlink:href="code__80057C60_8c.html#a0a55fae21abd30d3c618adef1a9f3ccd" target="_top" xlink:title=" ">
<polygon fill="white" stroke="#666666" points="759,-463 667,-463 667,-444 759,-444 759,-463"/>
<text text-anchor="middle" x="713" y="-451" font-family="Helvetica,sans-Serif" font-size="10.00">func_8006B8B4</text>
</a>
</g>
</g>
<!-- Node17&#45;&gt;Node18 -->
<g id="edge17_Node000017_Node000018" class="edge">
<title>Node17&#45;&gt;Node18</title>
<g id="a_edge17_Node000017_Node000018"><a xlink:title=" ">
<path fill="none" stroke="#63b8ff" d="M630.81,-453.5C639.08,-453.5 647.79,-453.5 656.31,-453.5"/>
<polygon fill="#63b8ff" stroke="#63b8ff" points="656.58,-457 666.58,-453.5 656.58,-450 656.58,-457"/>
</a>
</g>
</g>
<!-- Node19 -->
<g id="Node000019" class="node">
<title>Node19</title>
<g id="a_Node000019"><a xlink:href="code__8008C1D0_8c.html#a1c7552c4a370cc015c2726e40f1fdb06" target="_top" xlink:title=" ">
<polygon fill="white" stroke="#666666" points="888,-481 795,-481 795,-462 888,-462 888,-481"/>
<text text-anchor="middle" x="841.5" y="-469" font-family="Helvetica,sans-Serif" font-size="10.00">func_8008FD4C</text>
</a>
</g>
</g>
<!-- Node18&#45;&gt;Node19 -->
<g id="edge18_Node000018_Node000019" class="edge">
<title>Node18&#45;&gt;Node19</title>
<g id="a_edge18_Node000018_Node000019"><a xlink:title=" ">
<path fill="none" stroke="#63b8ff" d="M759.31,-459.95C767.48,-461.11 776.08,-462.33 784.5,-463.53"/>
<polygon fill="#63b8ff" stroke="#63b8ff" points="784.26,-467.03 794.65,-464.98 785.25,-460.1 784.26,-467.03"/>
</a>
</g>
</g>
<!-- Node20 -->
<g id="Node000020" class="node">
<title>Node20</title>
<g id="a_Node000020"><a xlink:href="external_8c.html#a517352d45a01341217ab2c073b3b223f" target="_top" xlink:title=" ">
<polygon fill="white" stroke="#666666" points="887.5,-444 795.5,-444 795.5,-425 887.5,-425 887.5,-444"/>
<text text-anchor="middle" x="841.5" y="-432" font-family="Helvetica,sans-Serif" font-size="10.00">func_800C9060</text>
</a>
</g>
</g>
<!-- Node18&#45;&gt;Node20 -->
<g id="edge19_Node000018_Node000020" class="edge">
<title>Node18&#45;&gt;Node20</title>
<g id="a_edge19_Node000018_Node000020"><a xlink:title=" ">
<path fill="none" stroke="#63b8ff" d="M759.31,-446.69C767.67,-445.44 776.48,-444.12 785.1,-442.82"/>
<polygon fill="#63b8ff" stroke="#63b8ff" points="785.71,-446.27 795.08,-441.32 784.67,-439.35 785.71,-446.27"/>
</a>
</g>
</g>
<!-- Node21 -->
<g id="Node000021" class="node">
<title>Node21</title>
<g id="a_Node000021"><a xlink:href="external_8c.html#a62e16f9600e7e9beda2c9d2df10f3561" target="_top" xlink:title=" ">
<polygon fill="white" stroke="#666666" points="996,-444 924,-444 924,-425 996,-425 996,-444"/>
<text text-anchor="middle" x="960" y="-432" font-family="Helvetica,sans-Serif" font-size="10.00">play_sound</text>
</a>
</g>
</g>
<!-- Node20&#45;&gt;Node21 -->
<g id="edge20_Node000020_Node000021" class="edge">
<title>Node20&#45;&gt;Node21</title>
<g id="a_edge20_Node000020_Node000021"><a xlink:title=" ">
<path fill="none" stroke="#63b8ff" d="M887.54,-434.5C896.1,-434.5 905.06,-434.5 913.63,-434.5"/>
<polygon fill="#63b8ff" stroke="#63b8ff" points="913.83,-438 923.83,-434.5 913.83,-431 913.83,-438"/>
</a>
</g>
</g>
<!-- Node23&#45;&gt;Node21 -->
<g id="edge23_Node000023_Node000021" class="edge">
<title>Node23&#45;&gt;Node21</title>
<g id="a_edge23_Node000023_Node000021"><a xlink:title=" ">
<path fill="none" stroke="#63b8ff" d="M457.42,-357.26C459.44,-390.78 471.15,-501.53 538,-546.5 607.28,-593.1 785.66,-538.83 888,-490.5 908.69,-480.73 928.84,-463.93 942.35,-451.28"/>
<polygon fill="#63b8ff" stroke="#63b8ff" points="945.09,-453.5 949.85,-444.03 940.23,-448.46 945.09,-453.5"/>
</a>
</g>
</g>
<!-- Node25&#45;&gt;Node4 -->
<g id="edge30_Node000025_Node000004" class="edge">
<title>Node25&#45;&gt;Node4</title>
<g id="a_edge30_Node000025_Node000004"><a xlink:title=" ">
<path fill="none" stroke="#63b8ff" d="M362.34,-273.88C374.34,-275.51 387.35,-277.29 399.73,-278.97"/>
<polygon fill="#63b8ff" stroke="#63b8ff" points="399.56,-282.48 409.94,-280.36 400.5,-275.54 399.56,-282.48"/>
</a>
</g>
</g>
<!-- Node25&#45;&gt;Node23 -->
<g id="edge31_Node000025_Node000023" class="edge">
<title>Node25&#45;&gt;Node23</title>
<g id="a_edge31_Node000025_Node000023"><a xlink:title=" ">
<path fill="none" stroke="#63b8ff" d="M351.22,-277.02C358.93,-279.64 366.9,-282.8 374,-286.5 397.45,-298.7 421.27,-317.58 436.95,-331.11"/>
<polygon fill="#63b8ff" stroke="#63b8ff" points="434.95,-334.01 444.77,-337.99 439.57,-328.75 434.95,-334.01"/>
</a>
</g>
</g>
<!-- Node26 -->
<g id="Node000026" class="node">
<title>Node26</title>
<g id="a_Node000026"><a xlink:href="code__80005FD0_8c.html#a06783cccfdd317d1f883612230c6cf5c" target="_top" xlink:title=" ">
<polygon fill="white" stroke="#666666" points="502,-148 410,-148 410,-129 502,-129 502,-148"/>
<text text-anchor="middle" x="456" y="-136" font-family="Helvetica,sans-Serif" font-size="10.00">func_800098FC</text>
</a>
</g>
</g>
<!-- Node25&#45;&gt;Node26 -->
<g id="edge26_Node000025_Node000026" class="edge">
<title>Node25&#45;&gt;Node26</title>
<g id="a_edge26_Node000025_Node000026"><a xlink:title=" ">
<path fill="none" stroke="#63b8ff" d="M340.51,-257.96C351.43,-253.09 364,-246.51 374,-238.5 403.63,-214.78 429.6,-178.51 443.72,-156.79"/>
<polygon fill="#63b8ff" stroke="#63b8ff" points="446.78,-158.51 449.19,-148.19 440.87,-154.75 446.78,-158.51"/>
</a>
</g>
</g>
<!-- Node27 -->
<g id="Node000027" class="node">
<title>Node27</title>
<g id="a_Node000027"><a xlink:href="external_8c.html#aad3025d980410fa157174acbf923f8c0" target="_top" xlink:title=" ">
<polygon fill="white" stroke="#666666" points="631,-19 538,-19 538,0 631,0 631,-19"/>
<text text-anchor="middle" x="584.5" y="-7" font-family="Helvetica,sans-Serif" font-size="10.00">func_800C92CC</text>
</a>
</g>
</g>
<!-- Node26&#45;&gt;Node27 -->
<g id="edge27_Node000026_Node000027" class="edge">
<title>Node26&#45;&gt;Node27</title>
<g id="a_edge27_Node000026_Node000027"><a xlink:title=" ">
<path fill="none" stroke="#63b8ff" d="M461.67,-128.76C472.33,-107.51 500.45,-56.55 538,-27.5 539.61,-26.25 541.32,-25.08 543.1,-23.98"/>
<polygon fill="#63b8ff" stroke="#63b8ff" points="545.17,-26.85 552.37,-19.07 541.89,-20.66 545.17,-26.85"/>
</a>
</g>
</g>
<!-- Node27&#45;&gt;Node21 -->
<g id="edge29_Node000027_Node000021" class="edge">
<title>Node27&#45;&gt;Node21</title>
<g id="a_edge29_Node000027_Node000021"><a xlink:title=" ">
<path fill="none" stroke="#63b8ff" d="M631.33,-3.13C668.96,-0.39 721.9,-2.51 759,-28.5 897.7,-125.67 944.62,-347 955.98,-414.55"/>
<polygon fill="#63b8ff" stroke="#63b8ff" points="952.57,-415.36 957.61,-424.68 959.48,-414.25 952.57,-415.36"/>
</a>
</g>
</g>
<!-- Node28 -->
<g id="Node000028" class="node">
<title>Node28</title>
<g id="a_Node000028"><a xlink:href="external_8h.html#ae82eb9565bbd324f028121f490e7c9a7" target="_top" xlink:title=" ">
<polygon fill="white" stroke="#666666" points="759,-57 667,-57 667,-38 759,-38 759,-57"/>
<text text-anchor="middle" x="713" y="-45" font-family="Helvetica,sans-Serif" font-size="10.00">func_800C1C88</text>
</a>
</g>
</g>
<!-- Node27&#45;&gt;Node28 -->
<g id="edge28_Node000027_Node000028" class="edge">
<title>Node27&#45;&gt;Node28</title>
<g id="a_edge28_Node000027_Node000028"><a xlink:title=" ">
<path fill="none" stroke="#63b8ff" d="M617.42,-19.09C633.45,-23.9 653.07,-29.8 670.28,-34.97"/>
<polygon fill="#63b8ff" stroke="#63b8ff" points="669.5,-38.39 680.09,-37.91 671.52,-31.69 669.5,-38.39"/>
</a>
</g>
</g>
<!-- Node29&#45;&gt;Node30 -->
<g id="edge33_Node000029_Node000030" class="edge">
<title>Node29&#45;&gt;Node30</title>
<g id="a_edge33_Node000029_Node000030"><a xlink:title=" ">
<path fill="none" stroke="#63b8ff" d="M219.29,-207.67C228.84,-208.97 239.09,-210.36 249.18,-211.74"/>
<polygon fill="#63b8ff" stroke="#63b8ff" points="248.81,-215.22 259.19,-213.1 249.76,-208.29 248.81,-215.22"/>
</a>
</g>
</g>
</g>
</svg>

<g id="navigator" transform="translate(0 0)" fill="#404254">
  <rect fill="#f2f5e9" fill-opacity="0.5" stroke="#606060" stroke-width=".5" x="0" y="0" width="60" height="60"/>
  <use id="zoomplus" xlink:href="#zoomPlus" x="17" y="9" onmousedown="handleZoom(evt,'in')"/>
  <use id="zoomminus" xlink:href="#zoomMin" x="42" y="9" onmousedown="handleZoom(evt,'out')"/>
  <use id="reset" xlink:href="#resetDef" x="30" y="36" onmousedown="handleReset()"/>
   <use id="arrowup" xlink:href="#arrowUp" x="0" y="0" onmousedown="handlePan(0,-1)"/>
  <use id="arrowright" xlink:href="#arrowRight" x="0" y="0" onmousedown="handlePan(1,0)"/>
  <use id="arrowdown" xlink:href="#arrowDown" x="0" y="0" onmousedown="handlePan(0,1)"/>
  <use id="arrowleft" xlink:href="#arrowLeft" x="0" y="0" onmousedown="handlePan(-1,0)"/>
</g>
<svg viewBox="0 0 15 15" width="100%" height="30px" preserveAspectRatio="xMaxYMin meet">
 <g id="arrow_out" transform="scale(0.3 0.3)">
  <a xlink:href="code__8008C1D0_8h_a8cdbabd678825eaf1c9b92f4d2e823d6_cgraph_org.svg" target="_base">
   <rect id="button" ry="5" rx="5" y="6" x="6" height="38" width="38"
        fill="#f2f5e9" fill-opacity="0.5" stroke="#606060" stroke-width="1.0"/>
   <path id="arrow"
     d="M 11.500037,31.436501 C 11.940474,20.09759 22.043105,11.32322 32.158766,21.979434 L 37.068811,17.246167 C 37.068811,17.246167 37.088388,32 37.088388,32 L 22.160133,31.978069 C 22.160133,31.978069 26.997745,27.140456 26.997745,27.140456 C 18.528582,18.264221 13.291696,25.230495 11.500037,31.436501 z"
     style="fill:#404040;"/>
  </a>
 </g>
</svg>

<style type='text/css'>
<![CDATA[
[data-mouse-over-selected='false'] { opacity: 0.7; }
[data-mouse-over-selected='true']  { opacity: 1.0; }
]]>
</style>
<script type="application/ecmascript"><![CDATA[
document.addEventListener('DOMContentLoaded', (event) => {
  highlightEdges();
  highlightAdjacentNodes();
});
]]></script>
</svg>
