<?xml version="1.0" encoding="UTF-8" standalone="no"?>
<!DOCTYPE svg PUBLIC "-//W3C//DTD SVG 1.1//EN"
 "http://www.w3.org/Graphics/SVG/1.1/DTD/svg11.dtd">
<!-- Generated by graphviz version 2.43.0 (0)
 -->
<!-- Title: func_8008F8DC Pages: 1 -->
<svg width="485pt" height="101pt"
 viewBox="0.00 0.00 485.00 101.00" xmlns="http://www.w3.org/2000/svg" xmlns:xlink="http://www.w3.org/1999/xlink">
<g id="graph0" class="graph" transform="scale(1 1) rotate(0) translate(4 97)">
<title>func_8008F8DC</title>
<!-- Node1 -->
<g id="Node000001" class="node">
<title>Node1</title>
<g id="a_Node000001"><a xlink:title=" ">
<polygon fill="#999999" stroke="#666666" points="93,-56 0,-56 0,-37 93,-37 93,-56"/>
<text text-anchor="middle" x="46.5" y="-44" font-family="Helvetica,sans-Serif" font-size="10.00">func_8008F8DC</text>
</a>
</g>
</g>
<!-- Node2 -->
<g id="Node000002" class="node">
<title>Node2</title>
<g id="a_Node000002"><a xlink:href="external_8c.html#aa00f6fbb1195ee18da20e61bd6ef5d97" target="_top" xlink:title=" ">
<polygon fill="white" stroke="#666666" points="221,-56 129,-56 129,-37 221,-37 221,-56"/>
<text text-anchor="middle" x="175" y="-44" font-family="Helvetica,sans-Serif" font-size="10.00">func_800CB064</text>
</a>
</g>
</g>
<!-- Node1&#45;&gt;Node2 -->
<g id="edge1_Node000001_Node000002" class="edge">
<title>Node1&#45;&gt;Node2</title>
<g id="a_edge1_Node000001_Node000002"><a xlink:title=" ">
<path fill="none" stroke="#63b8ff" d="M93.17,-46.5C101.42,-46.5 110.11,-46.5 118.6,-46.5"/>
<polygon fill="#63b8ff" stroke="#63b8ff" points="118.82,-50 128.82,-46.5 118.82,-43 118.82,-50"/>
</a>
</g>
</g>
<!-- Node3 -->
<g id="Node000003" class="node">
<title>Node3</title>
<g id="a_Node000003"><a xlink:href="external_8c.html#ad79a8b3dfe27cebca94c2d9e2cc54d2b" target="_top" xlink:title=" ">
<polygon fill="white" stroke="#666666" points="349,-93 257,-93 257,-74 349,-74 349,-93"/>
<text text-anchor="middle" x="303" y="-81" font-family="Helvetica,sans-Serif" font-size="10.00">func_800C36C4</text>
</a>
</g>
</g>
<!-- Node2&#45;&gt;Node3 -->
<g id="edge2_Node000002_Node000003" class="edge">
<title>Node2&#45;&gt;Node3</title>
<g id="a_edge2_Node000002_Node000003"><a xlink:title=" ">
<path fill="none" stroke="#63b8ff" d="M208.45,-56.03C223.91,-60.57 242.6,-66.06 259.2,-70.93"/>
<polygon fill="#63b8ff" stroke="#63b8ff" points="258.64,-74.42 269.22,-73.88 260.62,-67.7 258.64,-74.42"/>
</a>
</g>
</g>
<!-- Node4 -->
<g id="Node000004" class="node">
<title>Node4</title>
<g id="a_Node000004"><a xlink:href="external_8c.html#a77dd28bb660c9e64fef58443fb7a1f0e" target="_top" xlink:title=" ">
<polygon fill="white" stroke="#666666" points="349,-56 257,-56 257,-37 349,-37 349,-56"/>
<text text-anchor="middle" x="303" y="-44" font-family="Helvetica,sans-Serif" font-size="10.00">func_800C9018</text>
</a>
</g>
</g>
<!-- Node2&#45;&gt;Node4 -->
<g id="edge3_Node000002_Node000004" class="edge">
<title>Node2&#45;&gt;Node4</title>
<g id="a_edge3_Node000002_Node000004"><a xlink:title=" ">
<path fill="none" stroke="#63b8ff" d="M221.13,-46.5C229.37,-46.5 238.04,-46.5 246.53,-46.5"/>
<polygon fill="#63b8ff" stroke="#63b8ff" points="246.76,-50 256.76,-46.5 246.76,-43 246.76,-50"/>
</a>
</g>
</g>
<!-- Node6 -->
<g id="Node000006" class="node">
<title>Node6</title>
<g id="a_Node000006"><a xlink:href="external_8c.html#a1a1bdc0f5d3b6fd4a86b9d62e93a076e" target="_top" xlink:title=" ">
<polygon fill="white" stroke="#666666" points="349,-19 257,-19 257,0 349,0 349,-19"/>
<text text-anchor="middle" x="303" y="-7" font-family="Helvetica,sans-Serif" font-size="10.00">func_800C90F4</text>
</a>
</g>
</g>
<!-- Node2&#45;&gt;Node6 -->
<g id="edge5_Node000002_Node000006" class="edge">
<title>Node2&#45;&gt;Node6</title>
<g id="a_edge5_Node000002_Node000006"><a xlink:title=" ">
<path fill="none" stroke="#63b8ff" d="M208.45,-36.97C223.91,-32.43 242.6,-26.94 259.2,-22.07"/>
<polygon fill="#63b8ff" stroke="#63b8ff" points="260.62,-25.3 269.22,-19.12 258.64,-18.58 260.62,-25.3"/>
</a>
</g>
</g>
<!-- Node5 -->
<g id="Node000005" class="node">
<title>Node5</title>
<g id="a_Node000005"><a xlink:href="external_8h.html#a69165d21844ba08a94405ec729d386d4" target="_top" xlink:title=" ">
<polygon fill="white" stroke="#666666" points="477,-56 385,-56 385,-37 477,-37 477,-56"/>
<text text-anchor="middle" x="431" y="-44" font-family="Helvetica,sans-Serif" font-size="10.00">func_800C5578</text>
</a>
</g>
</g>
<!-- Node4&#45;&gt;Node5 -->
<g id="edge4_Node000004_Node000005" class="edge">
<title>Node4&#45;&gt;Node5</title>
<g id="a_edge4_Node000004_Node000005"><a xlink:title=" ">
<path fill="none" stroke="#63b8ff" d="M349.13,-46.5C357.37,-46.5 366.04,-46.5 374.53,-46.5"/>
<polygon fill="#63b8ff" stroke="#63b8ff" points="374.76,-50 384.76,-46.5 374.76,-43 374.76,-50"/>
</a>
</g>
</g>
<!-- Node7 -->
<g id="Node000007" class="node">
<title>Node7</title>
<g id="a_Node000007"><a xlink:href="external_8c.html#a62e16f9600e7e9beda2c9d2df10f3561" target="_top" xlink:title=" ">
<polygon fill="white" stroke="#666666" points="467,-19 395,-19 395,0 467,0 467,-19"/>
<text text-anchor="middle" x="431" y="-7" font-family="Helvetica,sans-Serif" font-size="10.00">play_sound</text>
</a>
</g>
</g>
<!-- Node6&#45;&gt;Node7 -->
<g id="edge6_Node000006_Node000007" class="edge">
<title>Node6&#45;&gt;Node7</title>
<g id="a_edge6_Node000006_Node000007"><a xlink:title=" ">
<path fill="none" stroke="#63b8ff" d="M349.13,-9.5C360.59,-9.5 372.92,-9.5 384.4,-9.5"/>
<polygon fill="#63b8ff" stroke="#63b8ff" points="384.66,-13 394.66,-9.5 384.66,-6 384.66,-13"/>
</a>
</g>
</g>
</g>
</svg>
