<?xml version="1.0" encoding="UTF-8" standalone="no"?>
<!DOCTYPE svg PUBLIC "-//W3C//DTD SVG 1.1//EN"
 "http://www.w3.org/Graphics/SVG/1.1/DTD/svg11.dtd">
<!-- Generated by graphviz version 2.43.0 (0)
 -->
<!-- Title: func_8003E37C Pages: 1 -->
<!--zoomable 528 -->

<svg id="main" version="1.1" xmlns="http://www.w3.org/2000/svg" xmlns:xlink="http://www.w3.org/1999/xlink" xml:space="preserve" onload="init(evt)">
<style type="text/css"><![CDATA[
.node, .edge {opacity: 0.7;}
.node.selected, .edge.selected {opacity: 1;}
.edge:hover path { stroke: red; }
.edge:hover polygon { stroke: red; fill: red; }
]]></style>

<defs>
  <circle id="rim" cx="0" cy="0" r="7"/>
  <circle id="rim2" cx="0" cy="0" r="3.5"/>
  <g id="zoomPlus">
    <use xlink:href="#rim" fill="#404040"><set attributeName="fill" to="#808080" begin="zoomplus.mouseover" end="zoomplus.mouseout"/></use>
    <path d="M-4,0h8M0,-4v8" fill="none" stroke="white" stroke-width="1.5" pointer-events="none"/>
  </g>
  <g id="zoomMin">
    <use xlink:href="#rim" fill="#404040"><set attributeName="fill" to="#808080" begin="zoomminus.mouseover" end="zoomminus.mouseout"/></use>
    <path d="M-4,0h8" fill="none" stroke="white" stroke-width="1.5" pointer-events="none"/>
  </g>
  <g id="arrowUp" transform="translate(30 24)">
    <use xlink:href="#rim"/>
    <path pointer-events="none" fill="none" stroke="white" stroke-width="1.5" d="M0,-3.0v7 M-2.5,-0.5L0,-3.0L2.5,-0.5"/>
  </g>
  <g id="arrowRight" transform="rotate(90) translate(36 -43)">
    <use xlink:href="#rim"/>
    <path pointer-events="none" fill="none" stroke="white" stroke-width="1.5" d="M0,-3.0v7 M-2.5,-0.5L0,-3.0L2.5,-0.5"/>
  </g>
  <g id="arrowDown" transform="rotate(180) translate(-30 -48)">
    <use xlink:href="#rim"/>
    <path pointer-events="none" fill="none" stroke="white" stroke-width="1.5" d="M0,-3.0v7 M-2.5,-0.5L0,-3.0L2.5,-0.5"/>
  </g>
  <g id="arrowLeft" transform="rotate(270) translate(-36 17)">
    <use xlink:href="#rim"/>
    <path pointer-events="none" fill="none" stroke="white" stroke-width="1.5" d="M0,-3.0v7 M-2.5,-0.5L0,-3.0L2.5,-0.5"/>
  </g>
  <g id="resetDef">
    <use xlink:href="#rim2" fill="#404040"><set attributeName="fill" to="#808080" begin="reset.mouseover" end="reset.mouseout"/></use>
  </g>
</defs>
<script type="application/ecmascript">
var viewWidth = 1065;
var viewHeight = 528;
var sectionId = 'dynsection-6';
</script>
<script type="application/ecmascript" xlink:href="svg.min.js"/>
<svg id="graph" class="graph">
<g id="viewport">
<title>func_8003E37C</title>
<!-- Node1 -->
<g id="Node000001" class="node">
<title>Node1</title>
<g id="a_Node000001"><a xlink:title=" ">
<polygon fill="#999999" stroke="#666666" points="92,-240 0,-240 0,-221 92,-221 92,-240"/>
<text text-anchor="middle" x="46" y="-228" font-family="Helvetica,sans-Serif" font-size="10.00">func_8003E37C</text>
</a>
</g>
</g>
<!-- Node2 -->
<g id="Node000002" class="node">
<title>Node2</title>
<g id="a_Node000002"><a xlink:href="player__controller_8c.html#aaba04d0928ff8eaf7ef6c6cea1b93d7d" target="_top" xlink:title=" ">
<polygon fill="white" stroke="#666666" points="250,-296 158,-296 158,-277 250,-277 250,-296"/>
<text text-anchor="middle" x="204" y="-284" font-family="Helvetica,sans-Serif" font-size="10.00">func_8002A5F4</text>
</a>
</g>
</g>
<!-- Node1&#45;&gt;Node2 -->
<g id="edge1_Node000001_Node000002" class="edge">
<title>Node1&#45;&gt;Node2</title>
<g id="a_edge1_Node000001_Node000002"><a xlink:title=" ">
<path fill="none" stroke="#63b8ff" d="M65.59,-240.16C81.75,-248.27 105.98,-259.75 128,-267.5 135.05,-269.98 142.57,-272.28 150.04,-274.36"/>
<polygon fill="#63b8ff" stroke="#63b8ff" points="149.2,-277.76 159.77,-276.96 151.01,-271 149.2,-277.76"/>
</a>
</g>
</g>
<!-- Node3 -->
<g id="Node000003" class="node">
<title>Node3</title>
<g id="a_Node000003"><a xlink:href="player__controller_8c.html#ac7a97dc1bb35fea10379d0fa68c83f3e" target="_top" xlink:title=" ">
<polygon fill="white" stroke="#666666" points="249.5,-259 158.5,-259 158.5,-240 249.5,-240 249.5,-259"/>
<text text-anchor="middle" x="204" y="-247" font-family="Helvetica,sans-Serif" font-size="10.00">func_80031F48</text>
</a>
</g>
</g>
<!-- Node1&#45;&gt;Node3 -->
<g id="edge2_Node000001_Node000003" class="edge">
<title>Node1&#45;&gt;Node3</title>
<g id="a_edge2_Node000001_Node000003"><a xlink:title=" ">
<path fill="none" stroke="#63b8ff" d="M92.12,-236C109.66,-238.13 129.91,-240.6 148.27,-242.83"/>
<polygon fill="#63b8ff" stroke="#63b8ff" points="147.9,-246.31 158.25,-244.05 148.75,-239.37 147.9,-246.31"/>
</a>
</g>
</g>
<!-- Node10 -->
<g id="Node000010" class="node">
<title>Node10</title>
<g id="a_Node000010"><a xlink:href="code__8008C1D0_8c.html#ae7bb91110e710a8f32fcd4c56c56f934" target="_top" xlink:title=" ">
<polygon fill="white" stroke="#666666" points="691.5,-19 599.5,-19 599.5,0 691.5,0 691.5,-19"/>
<text text-anchor="middle" x="645.5" y="-7" font-family="Helvetica,sans-Serif" font-size="10.00">func_8008D554</text>
</a>
</g>
</g>
<!-- Node1&#45;&gt;Node10 -->
<g id="edge26_Node000001_Node000010" class="edge">
<title>Node1&#45;&gt;Node10</title>
<g id="a_edge26_Node000001_Node000010"><a xlink:title=" ">
<path fill="none" stroke="#63b8ff" d="M92.23,-227.09C139.91,-222.55 216.74,-212.49 280,-191.5 431.31,-141.3 453.82,-93.35 599,-27.5 602.37,-25.97 605.91,-24.44 609.47,-22.96"/>
<polygon fill="#63b8ff" stroke="#63b8ff" points="610.86,-26.17 618.81,-19.16 608.22,-19.68 610.86,-26.17"/>
</a>
</g>
</g>
<!-- Node26 -->
<g id="Node000026" class="node">
<title>Node26</title>
<g id="a_Node000026"><a xlink:href="math__util_8c.html#ad5bb0138c68b50f119d3cb7966f522b7" target="_top" xlink:title=" ">
<polygon fill="white" stroke="#666666" points="280,-183 128,-183 128,-164 280,-164 280,-183"/>
<text text-anchor="middle" x="204" y="-171" font-family="Helvetica,sans-Serif" font-size="10.00">mtxf_translate_vec3f_mat3</text>
</a>
</g>
</g>
<!-- Node1&#45;&gt;Node26 -->
<g id="edge27_Node000001_Node000026" class="edge">
<title>Node1&#45;&gt;Node26</title>
<g id="a_edge27_Node000001_Node000026"><a xlink:title=" ">
<path fill="none" stroke="#63b8ff" d="M69.17,-220.93C85.35,-214.08 107.88,-204.81 128,-197.5 138.82,-193.57 150.64,-189.63 161.63,-186.11"/>
<polygon fill="#63b8ff" stroke="#63b8ff" points="162.96,-189.36 171.43,-183.01 160.84,-182.69 162.96,-189.36"/>
</a>
</g>
</g>
<!-- Node4 -->
<g id="Node000004" class="node">
<title>Node4</title>
<g id="a_Node000004"><a xlink:href="code__8008C1D0_8c.html#ae77e5662a7ef9f09c2e2150a36883d04" target="_top" xlink:title=" ">
<polygon fill="white" stroke="#666666" points="421,-259 330,-259 330,-240 421,-240 421,-259"/>
<text text-anchor="middle" x="375.5" y="-247" font-family="Helvetica,sans-Serif" font-size="10.00">func_8008F104</text>
</a>
</g>
</g>
<!-- Node3&#45;&gt;Node4 -->
<g id="edge3_Node000003_Node000004" class="edge">
<title>Node3&#45;&gt;Node4</title>
<g id="a_edge3_Node000003_Node000004"><a xlink:title=" ">
<path fill="none" stroke="#63b8ff" d="M249.53,-249.5C271.05,-249.5 297.08,-249.5 319.79,-249.5"/>
<polygon fill="#63b8ff" stroke="#63b8ff" points="319.97,-253 329.97,-249.5 319.97,-246 319.97,-253"/>
</a>
</g>
</g>
<!-- Node25 -->
<g id="Node000025" class="node">
<title>Node25</title>
<g id="a_Node000025"><a xlink:href="player__controller_8c.html#aafeb0470c7da44e1440ffa4848f7d500" target="_top" xlink:title=" ">
<polygon fill="white" stroke="#666666" points="435,-307.5 316,-307.5 316,-277.5 435,-277.5 435,-307.5"/>
<text text-anchor="start" x="324" y="-295.5" font-family="Helvetica,sans-Serif" font-size="10.00">get_player_index_for</text>
<text text-anchor="middle" x="375.5" y="-284.5" font-family="Helvetica,sans-Serif" font-size="10.00">_player</text>
</a>
</g>
</g>
<!-- Node3&#45;&gt;Node25 -->
<g id="edge25_Node000003_Node000025" class="edge">
<title>Node3&#45;&gt;Node25</title>
<g id="a_edge25_Node000003_Node000025"><a xlink:title=" ">
<path fill="none" stroke="#63b8ff" d="M245.52,-259.04C256.71,-261.73 268.83,-264.68 280,-267.5 289.28,-269.84 299.06,-272.36 308.67,-274.88"/>
<polygon fill="#63b8ff" stroke="#63b8ff" points="308.03,-278.33 318.59,-277.48 309.81,-271.56 308.03,-278.33"/>
</a>
</g>
</g>
<!-- Node5 -->
<g id="Node000005" class="node">
<title>Node5</title>
<g id="a_Node000005"><a xlink:href="code__8008C1D0_8c.html#a5cdc06d2091fc6d20759448c40b17d54" target="_top" xlink:title=" ">
<polygon fill="white" stroke="#666666" points="563,-259 471,-259 471,-240 563,-240 563,-259"/>
<text text-anchor="middle" x="517" y="-247" font-family="Helvetica,sans-Serif" font-size="10.00">func_8008C354</text>
</a>
</g>
</g>
<!-- Node4&#45;&gt;Node5 -->
<g id="edge4_Node000004_Node000005" class="edge">
<title>Node4&#45;&gt;Node5</title>
<g id="a_edge4_Node000004_Node000005"><a xlink:title=" ">
<path fill="none" stroke="#63b8ff" d="M421.02,-249.5C433.61,-249.5 447.46,-249.5 460.6,-249.5"/>
<polygon fill="#63b8ff" stroke="#63b8ff" points="460.94,-253 470.94,-249.5 460.94,-246 460.94,-253"/>
</a>
</g>
</g>
<!-- Node24 -->
<g id="Node000024" class="node">
<title>Node24</title>
<g id="a_Node000024"><a xlink:href="external_8c.html#a1a1bdc0f5d3b6fd4a86b9d62e93a076e" target="_top" xlink:title=" ">
<polygon fill="white" stroke="#666666" points="820,-487 728,-487 728,-468 820,-468 820,-487"/>
<text text-anchor="middle" x="774" y="-475" font-family="Helvetica,sans-Serif" font-size="10.00">func_800C90F4</text>
</a>
</g>
</g>
<!-- Node4&#45;&gt;Node24 -->
<g id="edge23_Node000004_Node000024" class="edge">
<title>Node4&#45;&gt;Node24</title>
<g id="a_edge23_Node000004_Node000024"><a xlink:title=" ">
<path fill="none" stroke="#63b8ff" d="M417.85,-259.11C423.93,-261.58 429.87,-264.66 435,-268.5 538.42,-345.93 484.75,-448.19 599,-508.5 647,-533.83 711.73,-509.36 747.16,-491.82"/>
<polygon fill="#63b8ff" stroke="#63b8ff" points="749.05,-494.78 756.34,-487.1 745.85,-488.56 749.05,-494.78"/>
</a>
</g>
</g>
<!-- Node6 -->
<g id="Node000006" class="node">
<title>Node6</title>
<g id="a_Node000006"><a xlink:href="code__8008C1D0_8c.html#ad164a912d7ef76f24e7b5cfb9169c16f" target="_top" xlink:title=" ">
<polygon fill="white" stroke="#666666" points="692,-463 599,-463 599,-444 692,-444 692,-463"/>
<text text-anchor="middle" x="645.5" y="-451" font-family="Helvetica,sans-Serif" font-size="10.00">func_8008C6D0</text>
</a>
</g>
</g>
<!-- Node5&#45;&gt;Node6 -->
<g id="edge5_Node000005_Node000006" class="edge">
<title>Node5&#45;&gt;Node6</title>
<g id="a_edge5_Node000005_Node000006"><a xlink:title=" ">
<path fill="none" stroke="#63b8ff" d="M519.66,-259.4C525.23,-289.72 545.99,-382.39 599,-434.5 600.47,-435.94 602.06,-437.28 603.73,-438.52"/>
<polygon fill="#63b8ff" stroke="#63b8ff" points="602.34,-441.76 612.7,-443.95 605.96,-435.78 602.34,-441.76"/>
</a>
</g>
</g>
<!-- Node7 -->
<g id="Node000007" class="node">
<title>Node7</title>
<g id="a_Node000007"><a xlink:href="code__8008C1D0_8c.html#a105203221e314be241a95e006b62ef80" target="_top" xlink:title=" ">
<polygon fill="white" stroke="#666666" points="691.5,-426 599.5,-426 599.5,-407 691.5,-407 691.5,-426"/>
<text text-anchor="middle" x="645.5" y="-414" font-family="Helvetica,sans-Serif" font-size="10.00">func_8008C8C4</text>
</a>
</g>
</g>
<!-- Node5&#45;&gt;Node7 -->
<g id="edge6_Node000005_Node000007" class="edge">
<title>Node5&#45;&gt;Node7</title>
<g id="a_edge6_Node000005_Node000007"><a xlink:title=" ">
<path fill="none" stroke="#63b8ff" d="M520.81,-259.23C528.79,-285.21 553.93,-356.94 599,-397.5 600.71,-399.04 602.55,-400.46 604.5,-401.77"/>
<polygon fill="#63b8ff" stroke="#63b8ff" points="603.03,-404.97 613.45,-406.88 606.5,-398.89 603.03,-404.97"/>
</a>
</g>
</g>
<!-- Node8 -->
<g id="Node000008" class="node">
<title>Node8</title>
<g id="a_Node000008"><a xlink:href="code__8008C1D0_8c.html#acab450a6af6eca812ad3987a292a5165" target="_top" xlink:title=" ">
<polygon fill="white" stroke="#666666" points="691.5,-389 599.5,-389 599.5,-370 691.5,-370 691.5,-389"/>
<text text-anchor="middle" x="645.5" y="-377" font-family="Helvetica,sans-Serif" font-size="10.00">func_8008D0E4</text>
</a>
</g>
</g>
<!-- Node5&#45;&gt;Node8 -->
<g id="edge7_Node000005_Node000008" class="edge">
<title>Node5&#45;&gt;Node8</title>
<g id="a_edge7_Node000005_Node000008"><a xlink:title=" ">
<path fill="none" stroke="#63b8ff" d="M522.72,-259.18C533.46,-280.33 561.73,-331.09 599,-360.5 601.06,-362.12 603.28,-363.63 605.58,-365.03"/>
<polygon fill="#63b8ff" stroke="#63b8ff" points="604.31,-368.31 614.8,-369.86 607.57,-362.12 604.31,-368.31"/>
</a>
</g>
</g>
<!-- Node9 -->
<g id="Node000009" class="node">
<title>Node9</title>
<g id="a_Node000009"><a xlink:href="code__8008C1D0_8c.html#a663cb8df8b606cf00e361977c9d6d834" target="_top" xlink:title=" ">
<polygon fill="white" stroke="#666666" points="692,-352 599,-352 599,-333 692,-333 692,-352"/>
<text text-anchor="middle" x="645.5" y="-340" font-family="Helvetica,sans-Serif" font-size="10.00">func_8008D3B0</text>
</a>
</g>
</g>
<!-- Node5&#45;&gt;Node9 -->
<g id="edge8_Node000005_Node000009" class="edge">
<title>Node5&#45;&gt;Node9</title>
<g id="a_edge8_Node000005_Node000009"><a xlink:title=" ">
<path fill="none" stroke="#63b8ff" d="M526.61,-259.29C540.54,-274.67 569.45,-304.65 599,-323.5 601.81,-325.3 604.83,-326.99 607.91,-328.56"/>
<polygon fill="#63b8ff" stroke="#63b8ff" points="606.72,-331.87 617.26,-332.93 609.68,-325.52 606.72,-331.87"/>
</a>
</g>
</g>
<!-- Node5&#45;&gt;Node10 -->
<g id="edge9_Node000005_Node000010" class="edge">
<title>Node5&#45;&gt;Node10</title>
<g id="a_edge9_Node000005_Node000010"><a xlink:title=" ">
<path fill="none" stroke="#63b8ff" d="M545.24,-239.94C551.96,-236.38 558.51,-231.65 563,-225.5 615.72,-153.25 542.28,-96.65 599,-27.5 599.61,-26.75 600.26,-26.04 600.94,-25.35"/>
<polygon fill="#63b8ff" stroke="#63b8ff" points="603.36,-27.9 609.21,-19.07 599.13,-22.33 603.36,-27.9"/>
</a>
</g>
</g>
<!-- Node11 -->
<g id="Node000011" class="node">
<title>Node11</title>
<g id="a_Node000011"><a xlink:href="code__8008C1D0_8c.html#a5f19eaaa048055d292d02c717e635786" target="_top" xlink:title=" ">
<polygon fill="white" stroke="#666666" points="691.5,-315 599.5,-315 599.5,-296 691.5,-296 691.5,-315"/>
<text text-anchor="middle" x="645.5" y="-303" font-family="Helvetica,sans-Serif" font-size="10.00">func_8008D760</text>
</a>
</g>
</g>
<!-- Node5&#45;&gt;Node11 -->
<g id="edge10_Node000005_Node000011" class="edge">
<title>Node5&#45;&gt;Node11</title>
<g id="a_edge10_Node000005_Node000011"><a xlink:title=" ">
<path fill="none" stroke="#63b8ff" d="M538.56,-259.12C554.88,-266.7 578.32,-277.46 599,-286.5 603.17,-288.32 607.57,-290.21 611.93,-292.05"/>
<polygon fill="#63b8ff" stroke="#63b8ff" points="610.71,-295.34 621.29,-295.98 613.42,-288.88 610.71,-295.34"/>
</a>
</g>
</g>
<!-- Node12 -->
<g id="Node000012" class="node">
<title>Node12</title>
<g id="a_Node000012"><a xlink:href="code__8008C1D0_8c.html#a4ea2da0616ee3c475e4be217dc0bc71f" target="_top" xlink:title=" ">
<polygon fill="white" stroke="#666666" points="692,-278 599,-278 599,-259 692,-259 692,-278"/>
<text text-anchor="middle" x="645.5" y="-266" font-family="Helvetica,sans-Serif" font-size="10.00">func_8008D97C</text>
</a>
</g>
</g>
<!-- Node5&#45;&gt;Node12 -->
<g id="edge11_Node000005_Node000012" class="edge">
<title>Node5&#45;&gt;Node12</title>
<g id="a_edge11_Node000005_Node000012"><a xlink:title=" ">
<path fill="none" stroke="#63b8ff" d="M563.31,-256.31C571.48,-257.53 580.08,-258.82 588.5,-260.09"/>
<polygon fill="#63b8ff" stroke="#63b8ff" points="588.24,-263.59 598.65,-261.61 589.28,-256.67 588.24,-263.59"/>
</a>
</g>
</g>
<!-- Node13 -->
<g id="Node000013" class="node">
<title>Node13</title>
<g id="a_Node000013"><a xlink:href="code__8008C1D0_8c.html#a4a437d6caeeaa794bcce43ec60c097e9" target="_top" xlink:title=" ">
<polygon fill="white" stroke="#666666" points="691,-241 600,-241 600,-222 691,-222 691,-241"/>
<text text-anchor="middle" x="645.5" y="-229" font-family="Helvetica,sans-Serif" font-size="10.00">func_8008E884</text>
</a>
</g>
</g>
<!-- Node5&#45;&gt;Node13 -->
<g id="edge12_Node000005_Node000013" class="edge">
<title>Node5&#45;&gt;Node13</title>
<g id="a_edge12_Node000005_Node000013"><a xlink:title=" ">
<path fill="none" stroke="#63b8ff" d="M563.31,-243.05C571.97,-241.82 581.11,-240.52 590.01,-239.25"/>
<polygon fill="#63b8ff" stroke="#63b8ff" points="590.52,-242.72 599.93,-237.84 589.54,-235.79 590.52,-242.72"/>
</a>
</g>
</g>
<!-- Node14 -->
<g id="Node000014" class="node">
<title>Node14</title>
<g id="a_Node000014"><a xlink:href="code__8008C1D0_8c.html#a4e2c6d0ba50b7c13695f74f1c2bc7b18" target="_top" xlink:title=" ">
<polygon fill="white" stroke="#666666" points="691.5,-204 599.5,-204 599.5,-185 691.5,-185 691.5,-204"/>
<text text-anchor="middle" x="645.5" y="-192" font-family="Helvetica,sans-Serif" font-size="10.00">func_8008EC34</text>
</a>
</g>
</g>
<!-- Node5&#45;&gt;Node14 -->
<g id="edge13_Node000005_Node000014" class="edge">
<title>Node5&#45;&gt;Node14</title>
<g id="a_edge13_Node000005_Node000014"><a xlink:title=" ">
<path fill="none" stroke="#63b8ff" d="M538.18,-239.93C554.49,-232.28 578.09,-221.4 599,-212.5 602.49,-211.01 606.14,-209.5 609.8,-208.01"/>
<polygon fill="#63b8ff" stroke="#63b8ff" points="611.39,-211.14 619.37,-204.17 608.79,-204.65 611.39,-211.14"/>
</a>
</g>
</g>
<!-- Node15 -->
<g id="Node000015" class="node">
<title>Node15</title>
<g id="a_Node000015"><a xlink:href="code__8008C1D0_8c.html#ae48f5d9507d1966754bc1aa1bddc4136" target="_top" xlink:title=" ">
<polygon fill="white" stroke="#666666" points="691.5,-167 599.5,-167 599.5,-148 691.5,-148 691.5,-167"/>
<text text-anchor="middle" x="645.5" y="-155" font-family="Helvetica,sans-Serif" font-size="10.00">func_8008EEC4</text>
</a>
</g>
</g>
<!-- Node5&#45;&gt;Node15 -->
<g id="edge14_Node000005_Node000015" class="edge">
<title>Node5&#45;&gt;Node15</title>
<g id="a_edge14_Node000005_Node000015"><a xlink:title=" ">
<path fill="none" stroke="#63b8ff" d="M540.8,-239.88C548.34,-236.07 556.47,-231.21 563,-225.5 583.62,-207.48 577.4,-192.33 599,-175.5 600.61,-174.25 602.32,-173.07 604.09,-171.97"/>
<polygon fill="#63b8ff" stroke="#63b8ff" points="606.16,-174.83 613.35,-167.05 602.87,-168.65 606.16,-174.83"/>
</a>
</g>
</g>
<!-- Node16 -->
<g id="Node000016" class="node">
<title>Node16</title>
<g id="a_Node000016"><a xlink:href="code__8008C1D0_8c.html#a77e26f2cff6381f9ba1575f8da060571" target="_top" xlink:title=" ">
<polygon fill="white" stroke="#666666" points="691,-130 600,-130 600,-111 691,-111 691,-130"/>
<text text-anchor="middle" x="645.5" y="-118" font-family="Helvetica,sans-Serif" font-size="10.00">func_8008F0E8</text>
</a>
</g>
</g>
<!-- Node5&#45;&gt;Node16 -->
<g id="edge15_Node000005_Node000016" class="edge">
<title>Node5&#45;&gt;Node16</title>
<g id="a_edge15_Node000005_Node000016"><a xlink:title=" ">
<path fill="none" stroke="#63b8ff" d="M543.47,-239.76C550.5,-236.12 557.65,-231.4 563,-225.5 591.11,-194.5 569.18,-167.86 599,-138.5 599.95,-137.56 600.96,-136.67 602.01,-135.82"/>
<polygon fill="#63b8ff" stroke="#63b8ff" points="604.27,-138.54 610.79,-130.18 600.48,-132.65 604.27,-138.54"/>
</a>
</g>
</g>
<!-- Node17 -->
<g id="Node000017" class="node">
<title>Node17</title>
<g id="a_Node000017"><a xlink:href="code__8008C1D0_8c.html#ae02351b6bbb678b552ec8864b47fc56c" target="_top" xlink:title=" ">
<polygon fill="white" stroke="#666666" points="691,-93 600,-93 600,-74 691,-74 691,-93"/>
<text text-anchor="middle" x="645.5" y="-81" font-family="Helvetica,sans-Serif" font-size="10.00">func_8008F3E0</text>
</a>
</g>
</g>
<!-- Node5&#45;&gt;Node17 -->
<g id="edge16_Node000005_Node000017" class="edge">
<title>Node5&#45;&gt;Node17</title>
<g id="a_edge16_Node000005_Node000017"><a xlink:title=" ">
<path fill="none" stroke="#63b8ff" d="M544.36,-239.88C551.24,-236.28 558.09,-231.55 563,-225.5 599.16,-180.94 560.38,-143.94 599,-101.5 599.77,-100.65 600.59,-99.84 601.44,-99.07"/>
<polygon fill="#63b8ff" stroke="#63b8ff" points="603.8,-101.7 609.99,-93.1 599.79,-95.96 603.8,-101.7"/>
</a>
</g>
</g>
<!-- Node18 -->
<g id="Node000018" class="node">
<title>Node18</title>
<g id="a_Node000018"><a xlink:href="code__8008C1D0_8c.html#afcf39ca15166fb7561402462930cd979" target="_top" xlink:title=" ">
<polygon fill="white" stroke="#666666" points="691.5,-56 599.5,-56 599.5,-37 691.5,-37 691.5,-56"/>
<text text-anchor="middle" x="645.5" y="-44" font-family="Helvetica,sans-Serif" font-size="10.00">func_8008F5A4</text>
</a>
</g>
</g>
<!-- Node5&#45;&gt;Node18 -->
<g id="edge17_Node000005_Node000018" class="edge">
<title>Node5&#45;&gt;Node18</title>
<g id="a_edge17_Node000005_Node000018"><a xlink:title=" ">
<path fill="none" stroke="#63b8ff" d="M545.08,-239.82C551.8,-236.26 558.39,-231.56 563,-225.5 607.4,-167.15 551.37,-120.25 599,-64.5 599.63,-63.77 600.29,-63.06 600.98,-62.38"/>
<polygon fill="#63b8ff" stroke="#63b8ff" points="603.4,-64.95 609.34,-56.18 599.22,-59.33 603.4,-64.95"/>
</a>
</g>
</g>
<!-- Node23 -->
<g id="Node000023" class="node">
<title>Node23</title>
<g id="a_Node000023"><a xlink:href="code__8008C1D0_8c.html#ab6d84742231847170dd64267f0519cdf" target="_top" xlink:title=" ">
<polygon fill="white" stroke="#666666" points="692,-500 599,-500 599,-481 692,-481 692,-500"/>
<text text-anchor="middle" x="645.5" y="-488" font-family="Helvetica,sans-Serif" font-size="10.00">func_8008FEDC</text>
</a>
</g>
</g>
<!-- Node5&#45;&gt;Node23 -->
<g id="edge22_Node000005_Node000023" class="edge">
<title>Node5&#45;&gt;Node23</title>
<g id="a_edge22_Node000005_Node000023"><a xlink:title=" ">
<path fill="none" stroke="#63b8ff" d="M518.83,-259.37C522.21,-293.43 537.79,-407.42 599,-471.5 600.37,-472.94 601.88,-474.27 603.47,-475.51"/>
<polygon fill="#63b8ff" stroke="#63b8ff" points="601.71,-478.54 612.03,-480.92 605.44,-472.62 601.71,-478.54"/>
</a>
</g>
</g>
<!-- Node19 -->
<g id="Node000019" class="node">
<title>Node19</title>
<g id="a_Node000019"><a xlink:href="code__80057C60_8c.html#a0a55fae21abd30d3c618adef1a9f3ccd" target="_top" xlink:title=" ">
<polygon fill="white" stroke="#666666" points="820,-259 728,-259 728,-240 820,-240 820,-259"/>
<text text-anchor="middle" x="774" y="-247" font-family="Helvetica,sans-Serif" font-size="10.00">func_8006B8B4</text>
</a>
</g>
</g>
<!-- Node18&#45;&gt;Node19 -->
<g id="edge18_Node000018_Node000019" class="edge">
<title>Node18&#45;&gt;Node19</title>
<g id="a_edge18_Node000018_Node000019"><a xlink:title=" ">
<path fill="none" stroke="#63b8ff" d="M679.69,-56.01C684.18,-58.28 688.45,-61.08 692,-64.5 740.71,-111.49 762.02,-192.8 769.55,-229.96"/>
<polygon fill="#63b8ff" stroke="#63b8ff" points="766.15,-230.82 771.46,-239.98 773.03,-229.5 766.15,-230.82"/>
</a>
</g>
</g>
<!-- Node20 -->
<g id="Node000020" class="node">
<title>Node20</title>
<g id="a_Node000020"><a xlink:href="code__8008C1D0_8c.html#a1c7552c4a370cc015c2726e40f1fdb06" target="_top" xlink:title=" ">
<polygon fill="white" stroke="#666666" points="949,-296 856,-296 856,-277 949,-277 949,-296"/>
<text text-anchor="middle" x="902.5" y="-284" font-family="Helvetica,sans-Serif" font-size="10.00">func_8008FD4C</text>
</a>
</g>
</g>
<!-- Node19&#45;&gt;Node20 -->
<g id="edge19_Node000019_Node000020" class="edge">
<title>Node19&#45;&gt;Node20</title>
<g id="a_edge19_Node000019_Node000020"><a xlink:title=" ">
<path fill="none" stroke="#63b8ff" d="M807.58,-259.03C823.1,-263.57 841.87,-269.06 858.53,-273.93"/>
<polygon fill="#63b8ff" stroke="#63b8ff" points="858.01,-277.43 868.59,-276.88 859.98,-270.71 858.01,-277.43"/>
</a>
</g>
</g>
<!-- Node21 -->
<g id="Node000021" class="node">
<title>Node21</title>
<g id="a_Node000021"><a xlink:href="external_8c.html#a517352d45a01341217ab2c073b3b223f" target="_top" xlink:title=" ">
<polygon fill="white" stroke="#666666" points="948.5,-259 856.5,-259 856.5,-240 948.5,-240 948.5,-259"/>
<text text-anchor="middle" x="902.5" y="-247" font-family="Helvetica,sans-Serif" font-size="10.00">func_800C9060</text>
</a>
</g>
</g>
<!-- Node19&#45;&gt;Node21 -->
<g id="edge20_Node000019_Node000021" class="edge">
<title>Node19&#45;&gt;Node21</title>
<g id="a_edge20_Node000019_Node000021"><a xlink:title=" ">
<path fill="none" stroke="#63b8ff" d="M820.31,-249.5C828.58,-249.5 837.29,-249.5 845.81,-249.5"/>
<polygon fill="#63b8ff" stroke="#63b8ff" points="846.08,-253 856.08,-249.5 846.08,-246 846.08,-253"/>
</a>
</g>
</g>
<!-- Node22 -->
<g id="Node000022" class="node">
<title>Node22</title>
<g id="a_Node000022"><a xlink:href="external_8c.html#a62e16f9600e7e9beda2c9d2df10f3561" target="_top" xlink:title=" ">
<polygon fill="white" stroke="#666666" points="1057,-296 985,-296 985,-277 1057,-277 1057,-296"/>
<text text-anchor="middle" x="1021" y="-284" font-family="Helvetica,sans-Serif" font-size="10.00">play_sound</text>
</a>
</g>
</g>
<!-- Node21&#45;&gt;Node22 -->
<g id="edge21_Node000021_Node000022" class="edge">
<title>Node21&#45;&gt;Node22</title>
<g id="a_edge21_Node000021_Node000022"><a xlink:title=" ">
<path fill="none" stroke="#63b8ff" d="M933.5,-259.03C947.66,-263.52 964.75,-268.95 980,-273.8"/>
<polygon fill="#63b8ff" stroke="#63b8ff" points="979.1,-277.18 989.7,-276.88 981.22,-270.51 979.1,-277.18"/>
</a>
</g>
</g>
<!-- Node24&#45;&gt;Node22 -->
<g id="edge24_Node000024_Node000022" class="edge">
<title>Node24&#45;&gt;Node22</title>
<g id="a_edge24_Node000024_Node000022"><a xlink:title=" ">
<path fill="none" stroke="#63b8ff" d="M787.49,-467.77C827.13,-436.86 950.44,-340.73 999.53,-302.46"/>
<polygon fill="#63b8ff" stroke="#63b8ff" points="1001.8,-305.12 1007.54,-296.21 997.5,-299.6 1001.8,-305.12"/>
</a>
</g>
</g>
</g>
</svg>

<g id="navigator" transform="translate(0 0)" fill="#404254">
  <rect fill="#f2f5e9" fill-opacity="0.5" stroke="#606060" stroke-width=".5" x="0" y="0" width="60" height="60"/>
  <use id="zoomplus" xlink:href="#zoomPlus" x="17" y="9" onmousedown="handleZoom(evt,'in')"/>
  <use id="zoomminus" xlink:href="#zoomMin" x="42" y="9" onmousedown="handleZoom(evt,'out')"/>
  <use id="reset" xlink:href="#resetDef" x="30" y="36" onmousedown="handleReset()"/>
   <use id="arrowup" xlink:href="#arrowUp" x="0" y="0" onmousedown="handlePan(0,-1)"/>
  <use id="arrowright" xlink:href="#arrowRight" x="0" y="0" onmousedown="handlePan(1,0)"/>
  <use id="arrowdown" xlink:href="#arrowDown" x="0" y="0" onmousedown="handlePan(0,1)"/>
  <use id="arrowleft" xlink:href="#arrowLeft" x="0" y="0" onmousedown="handlePan(-1,0)"/>
</g>
<svg viewBox="0 0 15 15" width="100%" height="30px" preserveAspectRatio="xMaxYMin meet">
 <g id="arrow_out" transform="scale(0.3 0.3)">
  <a xlink:href="code__8003DC40_8c_a8b75605ee8cee0dd3be6138ab62e7122_cgraph_org.svg" target="_base">
   <rect id="button" ry="5" rx="5" y="6" x="6" height="38" width="38"
        fill="#f2f5e9" fill-opacity="0.5" stroke="#606060" stroke-width="1.0"/>
   <path id="arrow"
     d="M 11.500037,31.436501 C 11.940474,20.09759 22.043105,11.32322 32.158766,21.979434 L 37.068811,17.246167 C 37.068811,17.246167 37.088388,32 37.088388,32 L 22.160133,31.978069 C 22.160133,31.978069 26.997745,27.140456 26.997745,27.140456 C 18.528582,18.264221 13.291696,25.230495 11.500037,31.436501 z"
     style="fill:#404040;"/>
  </a>
 </g>
</svg>

<style type='text/css'>
<![CDATA[
[data-mouse-over-selected='false'] { opacity: 0.7; }
[data-mouse-over-selected='true']  { opacity: 1.0; }
]]>
</style>
<script type="application/ecmascript"><![CDATA[
document.addEventListener('DOMContentLoaded', (event) => {
  highlightEdges();
  highlightAdjacentNodes();
});
]]></script>
</svg>
