<?xml version="1.0" encoding="UTF-8" standalone="no"?>
<!DOCTYPE svg PUBLIC "-//W3C//DTD SVG 1.1//EN"
 "http://www.w3.org/Graphics/SVG/1.1/DTD/svg11.dtd">
<!-- Generated by graphviz version 2.43.0 (0)
 -->
<!-- Title: src/code_800029B0.h Pages: 1 -->
<svg width="4122pt" height="203pt"
 viewBox="0.00 0.00 4122.00 203.00" xmlns="http://www.w3.org/2000/svg" xmlns:xlink="http://www.w3.org/1999/xlink">
<g id="graph0" class="graph" transform="scale(1 1) rotate(0) translate(4 199)">
<title>src/code_800029B0.h</title>
<!-- Node1 -->
<g id="Node000001" class="node">
<title>Node1</title>
<g id="a_Node000001"><a xlink:title=" ">
<polygon fill="#999999" stroke="#666666" points="2024,-195 1904,-195 1904,-176 2024,-176 2024,-195"/>
<text text-anchor="middle" x="1964" y="-183" font-family="Helvetica,sans-Serif" font-size="10.00">src/code_800029B0.h</text>
</a>
</g>
</g>
<!-- Node2 -->
<g id="Node000002" class="node">
<title>Node2</title>
<g id="a_Node000002"><a xlink:href="banana_2render_8inc_8c.html" target="_top" xlink:title=" ">
<polygon fill="white" stroke="#666666" points="162,-134.5 0,-134.5 0,-115.5 162,-115.5 162,-134.5"/>
<text text-anchor="middle" x="81" y="-122.5" font-family="Helvetica,sans-Serif" font-size="10.00">src/actors/banana/render.inc.c</text>
</a>
</g>
</g>
<!-- Node1&#45;&gt;Node2 -->
<g id="edge1_Node000001_Node000002" class="edge">
<title>Node1&#45;&gt;Node2</title>
<g id="a_edge1_Node000001_Node000002"><a xlink:title=" ">
<path fill="none" stroke="#63b8ff" d="M1893.57,-183.89C1605.81,-181.23 518.46,-169.39 176,-140 161.38,-138.75 145.59,-136.7 131.16,-134.55"/>
<polygon fill="#63b8ff" stroke="#63b8ff" points="1893.84,-187.39 1903.87,-183.99 1893.9,-180.39 1893.84,-187.39"/>
</a>
</g>
</g>
<!-- Node3 -->
<g id="Node000003" class="node">
<title>Node3</title>
<g id="a_Node000003"><a xlink:href="actors_8c.html" target="_top" xlink:title=" ">
<polygon fill="white" stroke="#666666" points="242.5,-74 137.5,-74 137.5,-55 242.5,-55 242.5,-74"/>
<text text-anchor="middle" x="190" y="-62" font-family="Helvetica,sans-Serif" font-size="10.00">src/racing/actors.c</text>
</a>
</g>
</g>
<!-- Node1&#45;&gt;Node3 -->
<g id="edge27_Node000001_Node000003" class="edge">
<title>Node1&#45;&gt;Node3</title>
<g id="a_edge27_Node000001_Node000003"><a xlink:title=" ">
<path fill="none" stroke="#63b8ff" d="M1893.68,-183.87C1570.55,-180.82 242.48,-166.7 209,-140 188.96,-124.02 188.29,-90.1 189.21,-74.14"/>
<polygon fill="#63b8ff" stroke="#63b8ff" points="1893.82,-187.37 1903.85,-183.96 1893.88,-180.37 1893.82,-187.37"/>
</a>
</g>
</g>
<!-- Node4 -->
<g id="Node000004" class="node">
<title>Node4</title>
<g id="a_Node000004"><a xlink:href="falling__rock_2update_8inc_8c.html" target="_top" xlink:title=" ">
<polygon fill="white" stroke="#666666" points="323.5,-140 218.5,-140 218.5,-110 323.5,-110 323.5,-140"/>
<text text-anchor="start" x="226.5" y="-128" font-family="Helvetica,sans-Serif" font-size="10.00">src/actors/falling</text>
<text text-anchor="middle" x="271" y="-117" font-family="Helvetica,sans-Serif" font-size="10.00">_rock/update.inc.c</text>
</a>
</g>
</g>
<!-- Node1&#45;&gt;Node4 -->
<g id="edge3_Node000001_Node000004" class="edge">
<title>Node1&#45;&gt;Node4</title>
<g id="a_edge3_Node000001_Node000004"><a xlink:title=" ">
<path fill="none" stroke="#63b8ff" d="M1893.86,-184.44C1622.46,-183.91 641.01,-179.28 332,-140 329.31,-139.66 326.56,-139.25 323.79,-138.79"/>
<polygon fill="#63b8ff" stroke="#63b8ff" points="1893.97,-187.94 1903.98,-184.46 1893.98,-180.94 1893.97,-187.94"/>
</a>
</g>
</g>
<!-- Node5 -->
<g id="Node000005" class="node">
<title>Node5</title>
<g id="a_Node000005"><a xlink:href="green__shell_2update_8inc_8c.html" target="_top" xlink:title=" ">
<polygon fill="white" stroke="#666666" points="464.5,-140 341.5,-140 341.5,-110 464.5,-110 464.5,-140"/>
<text text-anchor="start" x="349.5" y="-128" font-family="Helvetica,sans-Serif" font-size="10.00">src/actors/green_shell</text>
<text text-anchor="middle" x="403" y="-117" font-family="Helvetica,sans-Serif" font-size="10.00">/update.inc.c</text>
</a>
</g>
</g>
<!-- Node1&#45;&gt;Node5 -->
<g id="edge5_Node000001_Node000005" class="edge">
<title>Node1&#45;&gt;Node5</title>
<g id="a_edge5_Node000001_Node000005"><a xlink:title=" ">
<path fill="none" stroke="#63b8ff" d="M1893.52,-183.81C1637.69,-181.09 758.38,-169.74 479,-140 474.33,-139.5 469.52,-138.88 464.69,-138.18"/>
<polygon fill="#63b8ff" stroke="#63b8ff" points="1893.76,-187.31 1903.8,-183.92 1893.84,-180.31 1893.76,-187.31"/>
</a>
</g>
</g>
<!-- Node6 -->
<g id="Node000006" class="node">
<title>Node6</title>
<g id="a_Node000006"><a xlink:href="actors__extended_8c.html" target="_top" xlink:title=" ">
<polygon fill="white" stroke="#666666" points="571,-74 415,-74 415,-55 571,-55 571,-74"/>
<text text-anchor="middle" x="493" y="-62" font-family="Helvetica,sans-Serif" font-size="10.00">src/racing/actors_extended.c</text>
</a>
</g>
</g>
<!-- Node1&#45;&gt;Node6 -->
<g id="edge28_Node000001_Node000006" class="edge">
<title>Node1&#45;&gt;Node6</title>
<g id="a_edge28_Node000001_Node000006"><a xlink:title=" ">
<path fill="none" stroke="#63b8ff" d="M1893.59,-184.68C1610.31,-185.08 566.39,-183.61 512,-140 492.01,-123.97 491.32,-90.08 492.22,-74.13"/>
<polygon fill="#63b8ff" stroke="#63b8ff" points="1893.75,-188.18 1903.74,-184.66 1893.74,-181.18 1893.75,-188.18"/>
</a>
</g>
</g>
<!-- Node7 -->
<g id="Node000007" class="node">
<title>Node7</title>
<g id="a_Node000007"><a xlink:href="other__shell_2update_8inc_8c.html" target="_top" xlink:title=" ">
<polygon fill="white" stroke="#666666" points="642.5,-140 521.5,-140 521.5,-110 642.5,-110 642.5,-140"/>
<text text-anchor="start" x="529.5" y="-128" font-family="Helvetica,sans-Serif" font-size="10.00">src/actors/other_shell</text>
<text text-anchor="middle" x="582" y="-117" font-family="Helvetica,sans-Serif" font-size="10.00">/update.inc.c</text>
</a>
</g>
</g>
<!-- Node1&#45;&gt;Node7 -->
<g id="edge7_Node000001_Node000007" class="edge">
<title>Node1&#45;&gt;Node7</title>
<g id="a_edge7_Node000001_Node000007"><a xlink:title=" ">
<path fill="none" stroke="#63b8ff" d="M1893.48,-183.66C1657.23,-180.59 894.85,-168.67 651,-140 648.33,-139.69 645.61,-139.32 642.86,-138.92"/>
<polygon fill="#63b8ff" stroke="#63b8ff" points="1893.62,-187.16 1903.66,-183.79 1893.71,-180.16 1893.62,-187.16"/>
</a>
</g>
</g>
<!-- Node8 -->
<g id="Node000008" class="node">
<title>Node8</title>
<g id="a_Node000008"><a xlink:href="external_8c.html" target="_top" xlink:title=" ">
<polygon fill="white" stroke="#666666" points="773.5,-134.5 660.5,-134.5 660.5,-115.5 773.5,-115.5 773.5,-134.5"/>
<text text-anchor="middle" x="717" y="-122.5" font-family="Helvetica,sans-Serif" font-size="10.00">src/audio/external.c</text>
</a>
</g>
</g>
<!-- Node1&#45;&gt;Node8 -->
<g id="edge9_Node000001_Node000008" class="edge">
<title>Node1&#45;&gt;Node8</title>
<g id="a_edge9_Node000001_Node000008"><a xlink:title=" ">
<path fill="none" stroke="#63b8ff" d="M1893.51,-183.46C1673.13,-179.96 998.99,-167.24 782,-140 771.92,-138.73 761.09,-136.68 751.22,-134.54"/>
<polygon fill="#63b8ff" stroke="#63b8ff" points="1893.6,-186.96 1903.65,-183.62 1893.71,-179.96 1893.6,-186.96"/>
</a>
</g>
</g>
<!-- Node9 -->
<g id="Node000009" class="node">
<title>Node9</title>
<g id="a_Node000009"><a xlink:href="camera_8c.html" target="_top" xlink:title=" ">
<polygon fill="white" stroke="#666666" points="870.5,-134.5 791.5,-134.5 791.5,-115.5 870.5,-115.5 870.5,-134.5"/>
<text text-anchor="middle" x="831" y="-122.5" font-family="Helvetica,sans-Serif" font-size="10.00">src/camera.c</text>
</a>
</g>
</g>
<!-- Node1&#45;&gt;Node9 -->
<g id="edge10_Node000001_Node000009" class="edge">
<title>Node1&#45;&gt;Node9</title>
<g id="a_edge10_Node000001_Node000009"><a xlink:title=" ">
<path fill="none" stroke="#63b8ff" d="M1893.59,-183.84C1685.44,-181.54 1075.34,-172.17 879,-140 871.46,-138.76 863.43,-136.72 856.14,-134.58"/>
<polygon fill="#63b8ff" stroke="#63b8ff" points="1893.74,-187.34 1903.78,-183.95 1893.82,-180.34 1893.74,-187.34"/>
</a>
</g>
</g>
<!-- Node10 -->
<g id="Node000010" class="node">
<title>Node10</title>
<g id="a_Node000010"><a xlink:href="code__800029B0_8c.html" target="_top" xlink:title=" ">
<polygon fill="white" stroke="#666666" points="1007.5,-134.5 888.5,-134.5 888.5,-115.5 1007.5,-115.5 1007.5,-134.5"/>
<text text-anchor="middle" x="948" y="-122.5" font-family="Helvetica,sans-Serif" font-size="10.00">src/code_800029B0.c</text>
</a>
</g>
</g>
<!-- Node1&#45;&gt;Node10 -->
<g id="edge11_Node000001_Node000010" class="edge">
<title>Node1&#45;&gt;Node10</title>
<g id="a_edge11_Node000001_Node000010"><a xlink:title=" ">
<path fill="none" stroke="#63b8ff" d="M1893.87,-184.87C1736.41,-184.89 1343.05,-180.5 1017,-140 1006.45,-138.69 995.1,-136.65 984.71,-134.53"/>
<polygon fill="#63b8ff" stroke="#63b8ff" points="1893.9,-188.37 1903.9,-184.86 1893.9,-181.37 1893.9,-188.37"/>
</a>
</g>
</g>
<!-- Node11 -->
<g id="Node000011" class="node">
<title>Node11</title>
<g id="a_Node000011"><a xlink:href="code__80005FD0_8c.html" target="_top" xlink:title=" ">
<polygon fill="white" stroke="#666666" points="1146,-134.5 1026,-134.5 1026,-115.5 1146,-115.5 1146,-134.5"/>
<text text-anchor="middle" x="1086" y="-122.5" font-family="Helvetica,sans-Serif" font-size="10.00">src/code_80005FD0.c</text>
</a>
</g>
</g>
<!-- Node1&#45;&gt;Node11 -->
<g id="edge12_Node000001_Node000011" class="edge">
<title>Node1&#45;&gt;Node11</title>
<g id="a_edge12_Node000001_Node000011"><a xlink:title=" ">
<path fill="none" stroke="#63b8ff" d="M1893.63,-184.06C1752.81,-182.42 1426.55,-174.83 1155,-140 1144.57,-138.66 1133.37,-136.64 1123.08,-134.55"/>
<polygon fill="#63b8ff" stroke="#63b8ff" points="1893.81,-187.56 1903.85,-184.17 1893.89,-180.56 1893.81,-187.56"/>
</a>
</g>
</g>
<!-- Node12 -->
<g id="Node000012" class="node">
<title>Node12</title>
<g id="a_Node000012"><a xlink:href="code__80057C60_8c.html" target="_top" xlink:title=" ">
<polygon fill="white" stroke="#666666" points="1283.5,-134.5 1164.5,-134.5 1164.5,-115.5 1283.5,-115.5 1283.5,-134.5"/>
<text text-anchor="middle" x="1224" y="-122.5" font-family="Helvetica,sans-Serif" font-size="10.00">src/code_80057C60.c</text>
</a>
</g>
</g>
<!-- Node1&#45;&gt;Node12 -->
<g id="edge13_Node000001_Node000012" class="edge">
<title>Node1&#45;&gt;Node12</title>
<g id="a_edge13_Node000001_Node000012"><a xlink:title=" ">
<path fill="none" stroke="#63b8ff" d="M1893.94,-183.02C1771.39,-179.72 1510.35,-169.57 1292,-140 1281.85,-138.63 1270.94,-136.62 1260.9,-134.55"/>
<polygon fill="#63b8ff" stroke="#63b8ff" points="1893.85,-186.51 1903.94,-183.28 1894.04,-179.52 1893.85,-186.51"/>
</a>
</g>
</g>
<!-- Node13 -->
<g id="Node000013" class="node">
<title>Node13</title>
<g id="a_Node000013"><a xlink:href="code__8006E9C0_8c.html" target="_top" xlink:title=" ">
<polygon fill="white" stroke="#666666" points="1420.5,-134.5 1301.5,-134.5 1301.5,-115.5 1420.5,-115.5 1420.5,-134.5"/>
<text text-anchor="middle" x="1361" y="-122.5" font-family="Helvetica,sans-Serif" font-size="10.00">src/code_8006E9C0.c</text>
</a>
</g>
</g>
<!-- Node1&#45;&gt;Node13 -->
<g id="edge14_Node000001_Node000013" class="edge">
<title>Node1&#45;&gt;Node13</title>
<g id="a_edge14_Node000001_Node000013"><a xlink:title=" ">
<path fill="none" stroke="#63b8ff" d="M1893.73,-181.35C1791.18,-176.14 1594.67,-163.86 1429,-140 1418.98,-138.56 1408.21,-136.55 1398.27,-134.51"/>
<polygon fill="#63b8ff" stroke="#63b8ff" points="1893.8,-184.86 1903.96,-181.86 1894.15,-177.87 1893.8,-184.86"/>
</a>
</g>
</g>
<!-- Node14 -->
<g id="Node000014" class="node">
<title>Node14</title>
<g id="a_Node000014"><a xlink:href="code__80091440_8c.html" target="_top" xlink:title=" ">
<polygon fill="white" stroke="#666666" points="1557.5,-134.5 1438.5,-134.5 1438.5,-115.5 1557.5,-115.5 1557.5,-134.5"/>
<text text-anchor="middle" x="1498" y="-122.5" font-family="Helvetica,sans-Serif" font-size="10.00">src/code_80091440.c</text>
</a>
</g>
</g>
<!-- Node1&#45;&gt;Node14 -->
<g id="edge15_Node000001_Node000014" class="edge">
<title>Node1&#45;&gt;Node14</title>
<g id="a_edge15_Node000001_Node000014"><a xlink:title=" ">
<path fill="none" stroke="#63b8ff" d="M1893.35,-178.57C1813.57,-171.42 1680.02,-158.07 1566,-140 1556.36,-138.47 1546.01,-136.51 1536.37,-134.54"/>
<polygon fill="#63b8ff" stroke="#63b8ff" points="1893.49,-182.1 1903.76,-179.5 1894.11,-175.13 1893.49,-182.1"/>
</a>
</g>
</g>
<!-- Node15 -->
<g id="Node000015" class="node">
<title>Node15</title>
<g id="a_Node000015"><a xlink:href="code__80091750_8c.html" target="_top" xlink:title=" ">
<polygon fill="white" stroke="#666666" points="1694.5,-134.5 1575.5,-134.5 1575.5,-115.5 1694.5,-115.5 1694.5,-134.5"/>
<text text-anchor="middle" x="1635" y="-122.5" font-family="Helvetica,sans-Serif" font-size="10.00">src/code_80091750.c</text>
</a>
</g>
</g>
<!-- Node1&#45;&gt;Node15 -->
<g id="edge16_Node000001_Node000015" class="edge">
<title>Node1&#45;&gt;Node15</title>
<g id="a_edge16_Node000001_Node000015"><a xlink:title=" ">
<path fill="none" stroke="#63b8ff" d="M1901.25,-174.31C1848.53,-165.62 1771.24,-152.57 1704,-140 1694.99,-138.32 1685.34,-136.42 1676.19,-134.57"/>
<polygon fill="#63b8ff" stroke="#63b8ff" points="1900.7,-177.77 1911.13,-175.94 1901.83,-170.86 1900.7,-177.77"/>
</a>
</g>
</g>
<!-- Node16 -->
<g id="Node000016" class="node">
<title>Node16</title>
<g id="a_Node000016"><a xlink:href="all__variables_8h.html" target="_top" xlink:title=" ">
<polygon fill="white" stroke="#666666" points="1851,-134.5 1713,-134.5 1713,-115.5 1851,-115.5 1851,-134.5"/>
<text text-anchor="middle" x="1782" y="-122.5" font-family="Helvetica,sans-Serif" font-size="10.00">src/debug/all_variables.h</text>
</a>
</g>
</g>
<!-- Node1&#45;&gt;Node16 -->
<g id="edge17_Node000001_Node000016" class="edge">
<title>Node1&#45;&gt;Node16</title>
<g id="a_edge17_Node000001_Node000016"><a xlink:title=" ">
<path fill="none" stroke="#63b8ff" d="M1927.65,-172.82C1892.45,-161.5 1839.92,-144.62 1808.5,-134.52"/>
<polygon fill="#63b8ff" stroke="#63b8ff" points="1926.94,-176.27 1937.54,-175.99 1929.09,-169.6 1926.94,-176.27"/>
</a>
</g>
</g>
<!-- Node19 -->
<g id="Node000019" class="node">
<title>Node19</title>
<g id="a_Node000019"><a xlink:href="effects_8c.html" target="_top" xlink:title=" ">
<polygon fill="white" stroke="#666666" points="1944.5,-134.5 1869.5,-134.5 1869.5,-115.5 1944.5,-115.5 1944.5,-134.5"/>
<text text-anchor="middle" x="1907" y="-122.5" font-family="Helvetica,sans-Serif" font-size="10.00">src/effects.c</text>
</a>
</g>
</g>
<!-- Node1&#45;&gt;Node19 -->
<g id="edge20_Node000001_Node000019" class="edge">
<title>Node1&#45;&gt;Node19</title>
<g id="a_edge20_Node000001_Node000019"><a xlink:title=" ">
<path fill="none" stroke="#63b8ff" d="M1948.5,-168.59C1937.85,-157.67 1924.13,-143.58 1915.45,-134.67"/>
<polygon fill="#63b8ff" stroke="#63b8ff" points="1946.1,-171.15 1955.59,-175.87 1951.12,-166.26 1946.1,-171.15"/>
</a>
</g>
</g>
<!-- Node20 -->
<g id="Node000020" class="node">
<title>Node20</title>
<g id="a_Node000020"><a xlink:href="ceremony__and__credits_8c.html" target="_top" xlink:title=" ">
<polygon fill="white" stroke="#666666" points="2081.5,-140 1962.5,-140 1962.5,-110 2081.5,-110 2081.5,-140"/>
<text text-anchor="start" x="1970.5" y="-128" font-family="Helvetica,sans-Serif" font-size="10.00">src/ending/ceremony</text>
<text text-anchor="middle" x="2022" y="-117" font-family="Helvetica,sans-Serif" font-size="10.00">_and_credits.c</text>
</a>
</g>
</g>
<!-- Node1&#45;&gt;Node20 -->
<g id="edge21_Node000001_Node000020" class="edge">
<title>Node1&#45;&gt;Node20</title>
<g id="a_edge21_Node000001_Node000020"><a xlink:title=" ">
<path fill="none" stroke="#63b8ff" d="M1979.67,-168.7C1988.51,-159.78 1999.46,-148.74 2008.01,-140.11"/>
<polygon fill="#63b8ff" stroke="#63b8ff" points="1977.11,-166.3 1972.56,-175.87 1982.08,-171.23 1977.11,-166.3"/>
</a>
</g>
</g>
<!-- Node21 -->
<g id="Node000021" class="node">
<title>Node21</title>
<g id="a_Node000021"><a xlink:href="code__80280000_8c.html" target="_top" xlink:title=" ">
<polygon fill="white" stroke="#666666" points="2254.5,-134.5 2099.5,-134.5 2099.5,-115.5 2254.5,-115.5 2254.5,-134.5"/>
<text text-anchor="middle" x="2177" y="-122.5" font-family="Helvetica,sans-Serif" font-size="10.00">src/ending/code_80280000.c</text>
</a>
</g>
</g>
<!-- Node1&#45;&gt;Node21 -->
<g id="edge22_Node000001_Node000021" class="edge">
<title>Node1&#45;&gt;Node21</title>
<g id="a_edge22_Node000001_Node000021"><a xlink:title=" ">
<path fill="none" stroke="#63b8ff" d="M2004.69,-173.32C2045.88,-162.01 2108.67,-144.77 2145.99,-134.52"/>
<polygon fill="#63b8ff" stroke="#63b8ff" points="2003.69,-169.97 1994.97,-175.99 2005.54,-176.72 2003.69,-169.97"/>
</a>
</g>
</g>
<!-- Node22 -->
<g id="Node000022" class="node">
<title>Node22</title>
<g id="a_Node000022"><a xlink:href="code__80281780_8c.html" target="_top" xlink:title=" ">
<polygon fill="white" stroke="#666666" points="2427.5,-134.5 2272.5,-134.5 2272.5,-115.5 2427.5,-115.5 2427.5,-134.5"/>
<text text-anchor="middle" x="2350" y="-122.5" font-family="Helvetica,sans-Serif" font-size="10.00">src/ending/code_80281780.c</text>
</a>
</g>
</g>
<!-- Node1&#45;&gt;Node22 -->
<g id="edge23_Node000001_Node000022" class="edge">
<title>Node1&#45;&gt;Node22</title>
<g id="a_edge23_Node000001_Node000022"><a xlink:title=" ">
<path fill="none" stroke="#63b8ff" d="M2033.49,-174.48C2094.32,-165.63 2185.06,-152.28 2264,-140 2275.06,-138.28 2286.91,-136.38 2298.18,-134.56"/>
<polygon fill="#63b8ff" stroke="#63b8ff" points="2032.63,-171.06 2023.24,-175.96 2033.64,-177.99 2032.63,-171.06"/>
</a>
</g>
</g>
<!-- Node23 -->
<g id="Node000023" class="node">
<title>Node23</title>
<g id="a_Node000023"><a xlink:href="main_8c.html" target="_top" xlink:title=" ">
<polygon fill="white" stroke="#666666" points="2512.5,-134.5 2445.5,-134.5 2445.5,-115.5 2512.5,-115.5 2512.5,-134.5"/>
<text text-anchor="middle" x="2479" y="-122.5" font-family="Helvetica,sans-Serif" font-size="10.00">src/main.c</text>
</a>
</g>
</g>
<!-- Node1&#45;&gt;Node23 -->
<g id="edge24_Node000001_Node000023" class="edge">
<title>Node1&#45;&gt;Node23</title>
<g id="a_edge24_Node000001_Node000023"><a xlink:title=" ">
<path fill="none" stroke="#63b8ff" d="M2034.15,-182.88C2127.17,-179.6 2296,-169.72 2437,-140 2443.47,-138.64 2450.33,-136.61 2456.59,-134.52"/>
<polygon fill="#63b8ff" stroke="#63b8ff" points="2033.89,-179.39 2024.02,-183.22 2034.13,-186.38 2033.89,-179.39"/>
</a>
</g>
</g>
<!-- Node24 -->
<g id="Node000024" class="node">
<title>Node24</title>
<g id="a_Node000024"><a xlink:href="menus_8c.html" target="_top" xlink:title=" ">
<polygon fill="white" stroke="#666666" points="2605.5,-134.5 2530.5,-134.5 2530.5,-115.5 2605.5,-115.5 2605.5,-134.5"/>
<text text-anchor="middle" x="2568" y="-122.5" font-family="Helvetica,sans-Serif" font-size="10.00">src/menus.c</text>
</a>
</g>
</g>
<!-- Node1&#45;&gt;Node24 -->
<g id="edge25_Node000001_Node000024" class="edge">
<title>Node1&#45;&gt;Node24</title>
<g id="a_edge25_Node000001_Node000024"><a xlink:title=" ">
<path fill="none" stroke="#63b8ff" d="M2034.31,-183.74C2140.75,-181.5 2348.75,-172.87 2522,-140 2529.05,-138.66 2536.56,-136.64 2543.42,-134.55"/>
<polygon fill="#63b8ff" stroke="#63b8ff" points="2033.95,-180.25 2024.02,-183.94 2034.09,-187.24 2033.95,-180.25"/>
</a>
</g>
</g>
<!-- Node25 -->
<g id="Node000025" class="node">
<title>Node25</title>
<g id="a_Node000025"><a xlink:href="player__controller_8c.html" target="_top" xlink:title=" ">
<polygon fill="white" stroke="#666666" points="2747,-134.5 2623,-134.5 2623,-115.5 2747,-115.5 2747,-134.5"/>
<text text-anchor="middle" x="2685" y="-122.5" font-family="Helvetica,sans-Serif" font-size="10.00">src/player_controller.c</text>
</a>
</g>
</g>
<!-- Node1&#45;&gt;Node25 -->
<g id="edge26_Node000001_Node000025" class="edge">
<title>Node1&#45;&gt;Node25</title>
<g id="a_edge26_Node000001_Node000025"><a xlink:title=" ">
<path fill="none" stroke="#63b8ff" d="M2034.53,-182.66C2154.32,-178.87 2404.97,-168.06 2615,-140 2625.44,-138.6 2636.67,-136.59 2647,-134.53"/>
<polygon fill="#63b8ff" stroke="#63b8ff" points="2034.28,-179.17 2024.39,-182.98 2034.5,-186.16 2034.28,-179.17"/>
</a>
</g>
</g>
<!-- Node26 -->
<g id="Node000026" class="node">
<title>Node26</title>
<g id="a_Node000026"><a xlink:href="collision_8c.html" target="_top" xlink:title=" ">
<polygon fill="white" stroke="#666666" points="2881,-134.5 2765,-134.5 2765,-115.5 2881,-115.5 2881,-134.5"/>
<text text-anchor="middle" x="2823" y="-122.5" font-family="Helvetica,sans-Serif" font-size="10.00">src/racing/collision.c</text>
</a>
</g>
</g>
<!-- Node1&#45;&gt;Node26 -->
<g id="edge29_Node000001_Node000026" class="edge">
<title>Node1&#45;&gt;Node26</title>
<g id="a_edge29_Node000001_Node000026"><a xlink:title=" ">
<path fill="none" stroke="#63b8ff" d="M2034.21,-184.08C2172.8,-182.47 2491.09,-174.92 2756,-140 2766.13,-138.66 2777.02,-136.65 2787.01,-134.55"/>
<polygon fill="#63b8ff" stroke="#63b8ff" points="2034.11,-180.58 2024.15,-184.19 2034.18,-187.58 2034.11,-180.58"/>
</a>
</g>
</g>
<!-- Node27 -->
<g id="Node000027" class="node">
<title>Node27</title>
<g id="a_Node000027"><a xlink:href="memory_8c.html" target="_top" xlink:title=" ">
<polygon fill="white" stroke="#666666" points="3014.5,-134.5 2899.5,-134.5 2899.5,-115.5 3014.5,-115.5 3014.5,-134.5"/>
<text text-anchor="middle" x="2957" y="-122.5" font-family="Helvetica,sans-Serif" font-size="10.00">src/racing/memory.c</text>
</a>
</g>
</g>
<!-- Node1&#45;&gt;Node27 -->
<g id="edge30_Node000001_Node000027" class="edge">
<title>Node1&#45;&gt;Node27</title>
<g id="a_edge30_Node000001_Node000027"><a xlink:title=" ">
<path fill="none" stroke="#63b8ff" d="M2034.48,-184.9C2189.72,-184.95 2572.6,-180.53 2890,-140 2900.26,-138.69 2911.28,-136.65 2921.36,-134.54"/>
<polygon fill="#63b8ff" stroke="#63b8ff" points="2034.14,-181.4 2024.14,-184.89 2034.14,-188.4 2034.14,-181.4"/>
</a>
</g>
</g>
<!-- Node28 -->
<g id="Node000028" class="node">
<title>Node28</title>
<g id="a_Node000028"><a xlink:href="race__logic_8c.html" target="_top" xlink:title=" ">
<polygon fill="white" stroke="#666666" points="3157.5,-134.5 3032.5,-134.5 3032.5,-115.5 3157.5,-115.5 3157.5,-134.5"/>
<text text-anchor="middle" x="3095" y="-122.5" font-family="Helvetica,sans-Serif" font-size="10.00">src/racing/race_logic.c</text>
</a>
</g>
</g>
<!-- Node1&#45;&gt;Node28 -->
<g id="edge31_Node000001_Node000028" class="edge">
<title>Node1&#45;&gt;Node28</title>
<g id="a_edge31_Node000001_Node000028"><a xlink:title=" ">
<path fill="none" stroke="#63b8ff" d="M2034.11,-185.25C2204.37,-186.25 2652.97,-184.11 3024,-140 3034.85,-138.71 3046.53,-136.68 3057.22,-134.56"/>
<polygon fill="#63b8ff" stroke="#63b8ff" points="2034.05,-181.74 2024.02,-185.18 2034,-188.74 2034.05,-181.74"/>
</a>
</g>
</g>
<!-- Node29 -->
<g id="Node000029" class="node">
<title>Node29</title>
<g id="a_Node000029"><a xlink:href="render__courses_8c.html" target="_top" xlink:title=" ">
<polygon fill="white" stroke="#666666" points="3324.5,-134.5 3175.5,-134.5 3175.5,-115.5 3324.5,-115.5 3324.5,-134.5"/>
<text text-anchor="middle" x="3250" y="-122.5" font-family="Helvetica,sans-Serif" font-size="10.00">src/racing/render_courses.c</text>
</a>
</g>
</g>
<!-- Node1&#45;&gt;Node29 -->
<g id="edge32_Node000001_Node000029" class="edge">
<title>Node1&#45;&gt;Node29</title>
<g id="a_edge32_Node000001_Node000029"><a xlink:title=" ">
<path fill="none" stroke="#63b8ff" d="M2034.45,-185.09C2220.21,-185.95 2738.49,-183.88 3167,-140 3179.65,-138.7 3193.28,-136.67 3205.78,-134.56"/>
<polygon fill="#63b8ff" stroke="#63b8ff" points="2034.29,-181.59 2024.28,-185.04 2034.26,-188.59 2034.29,-181.59"/>
</a>
</g>
</g>
<!-- Node30 -->
<g id="Node000030" class="node">
<title>Node30</title>
<g id="a_Node000030"><a xlink:href="skybox__and__splitscreen_8c.html" target="_top" xlink:title=" ">
<polygon fill="white" stroke="#666666" points="3467.5,-140 3342.5,-140 3342.5,-110 3467.5,-110 3467.5,-140"/>
<text text-anchor="start" x="3350.5" y="-128" font-family="Helvetica,sans-Serif" font-size="10.00">src/racing/skybox_and</text>
<text text-anchor="middle" x="3405" y="-117" font-family="Helvetica,sans-Serif" font-size="10.00">_splitscreen.c</text>
</a>
</g>
</g>
<!-- Node1&#45;&gt;Node30 -->
<g id="edge33_Node000001_Node000030" class="edge">
<title>Node1&#45;&gt;Node30</title>
<g id="a_edge33_Node000001_Node000030"><a xlink:title=" ">
<path fill="none" stroke="#63b8ff" d="M2034.28,-183.72C2276.89,-180.81 3078.33,-169.16 3334,-140 3336.75,-139.69 3339.54,-139.32 3342.37,-138.92"/>
<polygon fill="#63b8ff" stroke="#63b8ff" points="2034.13,-180.23 2024.18,-183.84 2034.22,-187.23 2034.13,-180.23"/>
</a>
</g>
</g>
<!-- Node31 -->
<g id="Node000031" class="node">
<title>Node31</title>
<g id="a_Node000031"><a xlink:href="render__objects_8c.html" target="_top" xlink:title=" ">
<polygon fill="white" stroke="#666666" points="3600,-134.5 3486,-134.5 3486,-115.5 3600,-115.5 3600,-134.5"/>
<text text-anchor="middle" x="3543" y="-122.5" font-family="Helvetica,sans-Serif" font-size="10.00">src/render_objects.c</text>
</a>
</g>
</g>
<!-- Node1&#45;&gt;Node31 -->
<g id="edge34_Node000001_Node000031" class="edge">
<title>Node1&#45;&gt;Node31</title>
<g id="a_edge34_Node000001_Node000031"><a xlink:title=" ">
<path fill="none" stroke="#63b8ff" d="M2034.13,-184.11C2292.66,-182.41 3192.16,-174.12 3477,-140 3487.35,-138.76 3498.48,-136.69 3508.6,-134.52"/>
<polygon fill="#63b8ff" stroke="#63b8ff" points="2034.09,-180.61 2024.11,-184.17 2034.13,-187.61 2034.09,-180.61"/>
</a>
</g>
</g>
<!-- Node32 -->
<g id="Node000032" class="node">
<title>Node32</title>
<g id="a_Node000032"><a xlink:href="render__player_8c.html" target="_top" xlink:title=" ">
<polygon fill="white" stroke="#666666" points="3727.5,-134.5 3618.5,-134.5 3618.5,-115.5 3727.5,-115.5 3727.5,-134.5"/>
<text text-anchor="middle" x="3673" y="-122.5" font-family="Helvetica,sans-Serif" font-size="10.00">src/render_player.c</text>
</a>
</g>
</g>
<!-- Node1&#45;&gt;Node32 -->
<g id="edge35_Node000001_Node000032" class="edge">
<title>Node1&#45;&gt;Node32</title>
<g id="a_edge35_Node000001_Node000032"><a xlink:title=" ">
<path fill="none" stroke="#63b8ff" d="M2034.22,-184.36C2307.09,-183.55 3297.15,-177.98 3609,-140 3619.05,-138.78 3629.85,-136.71 3639.66,-134.54"/>
<polygon fill="#63b8ff" stroke="#63b8ff" points="2034.05,-180.86 2024.06,-184.39 2034.07,-187.86 2034.05,-180.86"/>
</a>
</g>
</g>
<!-- Node33 -->
<g id="Node000033" class="node">
<title>Node33</title>
<g id="a_Node000033"><a xlink:href="spawn__players_8c.html" target="_top" xlink:title=" ">
<polygon fill="white" stroke="#666666" points="3860.5,-134.5 3745.5,-134.5 3745.5,-115.5 3860.5,-115.5 3860.5,-134.5"/>
<text text-anchor="middle" x="3803" y="-122.5" font-family="Helvetica,sans-Serif" font-size="10.00">src/spawn_players.c</text>
</a>
</g>
</g>
<!-- Node1&#45;&gt;Node33 -->
<g id="edge36_Node000001_Node000033" class="edge">
<title>Node1&#45;&gt;Node33</title>
<g id="a_edge36_Node000001_Node000033"><a xlink:title=" ">
<path fill="none" stroke="#63b8ff" d="M2034.38,-184.46C2320.68,-184.04 3398.68,-179.78 3737,-140 3747.35,-138.78 3758.49,-136.72 3768.6,-134.55"/>
<polygon fill="#63b8ff" stroke="#63b8ff" points="2034.12,-180.96 2024.13,-184.48 2034.13,-187.96 2034.12,-180.96"/>
</a>
</g>
</g>
<!-- Node34 -->
<g id="Node000034" class="node">
<title>Node34</title>
<g id="a_Node000034"><a xlink:href="staff__ghosts_8c.html" target="_top" xlink:title=" ">
<polygon fill="white" stroke="#666666" points="3979.5,-134.5 3878.5,-134.5 3878.5,-115.5 3979.5,-115.5 3979.5,-134.5"/>
<text text-anchor="middle" x="3929" y="-122.5" font-family="Helvetica,sans-Serif" font-size="10.00">src/staff_ghosts.c</text>
</a>
</g>
</g>
<!-- Node1&#45;&gt;Node34 -->
<g id="edge37_Node000001_Node000034" class="edge">
<title>Node1&#45;&gt;Node34</title>
<g id="a_edge37_Node000001_Node000034"><a xlink:title=" ">
<path fill="none" stroke="#63b8ff" d="M2034.67,-184.83C2334.75,-185.93 3504.81,-187.06 3870,-140 3879.29,-138.8 3889.25,-136.75 3898.3,-134.57"/>
<polygon fill="#63b8ff" stroke="#63b8ff" points="2034.37,-181.33 2024.36,-184.79 2034.35,-188.33 2034.37,-181.33"/>
</a>
</g>
</g>
<!-- Node35 -->
<g id="Node000035" class="node">
<title>Node35</title>
<g id="a_Node000035"><a xlink:href="update__objects_8c.html" target="_top" xlink:title=" ">
<polygon fill="white" stroke="#666666" points="4114,-134.5 3998,-134.5 3998,-115.5 4114,-115.5 4114,-134.5"/>
<text text-anchor="middle" x="4056" y="-122.5" font-family="Helvetica,sans-Serif" font-size="10.00">src/update_objects.c</text>
</a>
</g>
</g>
<!-- Node1&#45;&gt;Node35 -->
<g id="edge38_Node000001_Node000035" class="edge">
<title>Node1&#45;&gt;Node35</title>
<g id="a_edge38_Node000001_Node000035"><a xlink:title=" ">
<path fill="none" stroke="#63b8ff" d="M2034.39,-184.69C2345.44,-185.27 3598.43,-184.71 3989,-140 3999.51,-138.8 4010.81,-136.74 4021.08,-134.56"/>
<polygon fill="#63b8ff" stroke="#63b8ff" points="2034.17,-181.19 2024.16,-184.67 2034.15,-188.19 2034.17,-181.19"/>
</a>
</g>
</g>
<!-- Node2&#45;&gt;Node3 -->
<g id="edge2_Node000002_Node000003" class="edge">
<title>Node2&#45;&gt;Node3</title>
<g id="a_edge2_Node000002_Node000003"><a xlink:title=" ">
<path fill="none" stroke="#63b8ff" d="M106.01,-110.58C126.86,-99.38 155.95,-83.77 173.85,-74.17"/>
<polygon fill="#63b8ff" stroke="#63b8ff" points="104.24,-107.56 97.08,-115.37 107.55,-113.72 104.24,-107.56"/>
</a>
</g>
</g>
<!-- Node4&#45;&gt;Node3 -->
<g id="edge4_Node000004_Node000003" class="edge">
<title>Node4&#45;&gt;Node3</title>
<g id="a_edge4_Node000004_Node000003"><a xlink:title=" ">
<path fill="none" stroke="#63b8ff" d="M243.05,-103.82C229.09,-93.73 212.92,-82.05 202.14,-74.27"/>
<polygon fill="#63b8ff" stroke="#63b8ff" points="241.24,-106.82 251.39,-109.84 245.33,-101.15 241.24,-106.82"/>
</a>
</g>
</g>
<!-- Node5&#45;&gt;Node6 -->
<g id="edge6_Node000005_Node000006" class="edge">
<title>Node5&#45;&gt;Node6</title>
<g id="a_edge6_Node000005_Node000006"><a xlink:title=" ">
<path fill="none" stroke="#63b8ff" d="M433.23,-104.35C449.04,-94.07 467.59,-82.02 479.78,-74.09"/>
<polygon fill="#63b8ff" stroke="#63b8ff" points="431.26,-101.45 424.79,-109.84 435.08,-107.32 431.26,-101.45"/>
</a>
</g>
</g>
<!-- Node7&#45;&gt;Node6 -->
<g id="edge8_Node000007_Node000006" class="edge">
<title>Node7&#45;&gt;Node6</title>
<g id="a_edge8_Node000007_Node000006"><a xlink:title=" ">
<path fill="none" stroke="#63b8ff" d="M551.67,-104.06C536.13,-93.85 518.02,-81.95 506.08,-74.09"/>
<polygon fill="#63b8ff" stroke="#63b8ff" points="550.18,-107.27 560.46,-109.84 554.02,-101.42 550.18,-107.27"/>
</a>
</g>
</g>
<!-- Node17 -->
<g id="Node000017" class="node">
<title>Node17</title>
<g id="a_Node000017"><a xlink:href="debug_8inc_8c.html" target="_top" xlink:title=" ">
<polygon fill="white" stroke="#666666" points="1843,-74 1721,-74 1721,-55 1843,-55 1843,-74"/>
<text text-anchor="middle" x="1782" y="-62" font-family="Helvetica,sans-Serif" font-size="10.00">src/debug/debug.inc.c</text>
</a>
</g>
</g>
<!-- Node16&#45;&gt;Node17 -->
<g id="edge18_Node000016_Node000017" class="edge">
<title>Node16&#45;&gt;Node17</title>
<g id="a_edge18_Node000016_Node000017"><a xlink:title=" ">
<path fill="none" stroke="#63b8ff" d="M1782,-105.16C1782,-94.74 1782,-82.3 1782,-74.17"/>
<polygon fill="#63b8ff" stroke="#63b8ff" points="1778.5,-105.37 1782,-115.37 1785.5,-105.37 1778.5,-105.37"/>
</a>
</g>
</g>
<!-- Node18 -->
<g id="Node000018" class="node">
<title>Node18</title>
<g id="a_Node000018"><a xlink:href="debug_8c.html" target="_top" xlink:title=" ">
<polygon fill="white" stroke="#666666" points="1834.5,-19 1729.5,-19 1729.5,0 1834.5,0 1834.5,-19"/>
<text text-anchor="middle" x="1782" y="-7" font-family="Helvetica,sans-Serif" font-size="10.00">src/debug/debug.c</text>
</a>
</g>
</g>
<!-- Node17&#45;&gt;Node18 -->
<g id="edge19_Node000017_Node000018" class="edge">
<title>Node17&#45;&gt;Node18</title>
<g id="a_edge19_Node000017_Node000018"><a xlink:title=" ">
<path fill="none" stroke="#63b8ff" d="M1782,-44.66C1782,-35.93 1782,-25.99 1782,-19.09"/>
<polygon fill="#63b8ff" stroke="#63b8ff" points="1778.5,-44.75 1782,-54.75 1785.5,-44.75 1778.5,-44.75"/>
</a>
</g>
</g>
</g>
</svg>
