<?xml version="1.0" encoding="UTF-8" standalone="no"?>
<!DOCTYPE svg PUBLIC "-//W3C//DTD SVG 1.1//EN"
 "http://www.w3.org/Graphics/SVG/1.1/DTD/svg11.dtd">
<!-- Generated by graphviz version 2.43.0 (0)
 -->
<!-- Title: func_80005FD0 Pages: 1 -->
<svg width="1938pt" height="460pt"
 viewBox="0.00 0.00 1938.00 460.00" xmlns="http://www.w3.org/2000/svg" xmlns:xlink="http://www.w3.org/1999/xlink">
<g id="graph0" class="graph" transform="scale(1 1) rotate(0) translate(4 456)">
<title>func_80005FD0</title>
<!-- Node1 -->
<g id="Node000001" class="node">
<title>Node1</title>
<g id="a_Node000001"><a xlink:title=" ">
<polygon fill="#999999" stroke="#666666" points="1930,-235 1838,-235 1838,-216 1930,-216 1930,-235"/>
<text text-anchor="middle" x="1884" y="-223" font-family="Helvetica,sans-Serif" font-size="10.00">func_80005FD0</text>
</a>
</g>
</g>
<!-- Node2 -->
<g id="Node000002" class="node">
<title>Node2</title>
<g id="a_Node000002"><a xlink:href="code__80005FD0_8c.html#aa39e2aaaacd04e16311cb002a50102f2" target="_top" xlink:title=" ">
<polygon fill="white" stroke="#666666" points="1802,-254 1708,-254 1708,-235 1802,-235 1802,-254"/>
<text text-anchor="middle" x="1755" y="-242" font-family="Helvetica,sans-Serif" font-size="10.00">func_8000D6D0</text>
</a>
</g>
</g>
<!-- Node1&#45;&gt;Node2 -->
<g id="edge1_Node000001_Node000002" class="edge">
<title>Node1&#45;&gt;Node2</title>
<g id="a_edge1_Node000001_Node000002"><a xlink:title=" ">
<path fill="none" stroke="#63b8ff" d="M1827.95,-233.74C1819.39,-235.02 1810.62,-236.33 1802.27,-237.58"/>
<polygon fill="#63b8ff" stroke="#63b8ff" points="1828.49,-237.19 1837.87,-232.25 1827.46,-230.27 1828.49,-237.19"/>
</a>
</g>
</g>
<!-- Node32 -->
<g id="Node000032" class="node">
<title>Node32</title>
<g id="a_Node000032"><a xlink:href="code__80005FD0_8c.html#a5a0e67ccde01cf1fb86f9fbd14161e4e" target="_top" xlink:title=" ">
<polygon fill="white" stroke="#666666" points="1801,-291 1709,-291 1709,-272 1801,-272 1801,-291"/>
<text text-anchor="middle" x="1755" y="-279" font-family="Helvetica,sans-Serif" font-size="10.00">func_8000D940</text>
</a>
</g>
</g>
<!-- Node1&#45;&gt;Node32 -->
<g id="edge42_Node000001_Node000032" class="edge">
<title>Node1&#45;&gt;Node32</title>
<g id="a_edge42_Node000001_Node000032"><a xlink:title=" ">
<path fill="none" stroke="#63b8ff" d="M1854.49,-239.44C1839.06,-246.83 1819.61,-255.93 1802,-263.5 1795.38,-266.34 1788.15,-269.26 1781.43,-271.89"/>
<polygon fill="#63b8ff" stroke="#63b8ff" points="1856.04,-242.57 1863.52,-235.08 1852.99,-236.27 1856.04,-242.57"/>
</a>
</g>
</g>
<!-- Node41 -->
<g id="Node000041" class="node">
<title>Node41</title>
<g id="a_Node000041"><a xlink:href="code__80005FD0_8c.html#a999bc47d5faecbe08adb45a4114cd52f" target="_top" xlink:title=" ">
<polygon fill="white" stroke="#666666" points="1657,-216 1562,-216 1562,-197 1657,-197 1657,-216"/>
<text text-anchor="middle" x="1609.5" y="-204" font-family="Helvetica,sans-Serif" font-size="10.00">func_8000DBAC</text>
</a>
</g>
</g>
<!-- Node1&#45;&gt;Node41 -->
<g id="edge59_Node000001_Node000041" class="edge">
<title>Node1&#45;&gt;Node41</title>
<g id="a_edge59_Node000001_Node000041"><a xlink:title=" ">
<path fill="none" stroke="#63b8ff" d="M1827.68,-221.64C1777.57,-218.15 1704.55,-213.06 1657.28,-209.76"/>
<polygon fill="#63b8ff" stroke="#63b8ff" points="1827.48,-225.14 1837.7,-222.34 1827.96,-218.15 1827.48,-225.14"/>
</a>
</g>
</g>
<!-- Node42 -->
<g id="Node000042" class="node">
<title>Node42</title>
<g id="a_Node000042"><a xlink:href="code__80005FD0_8c.html#a729f7f5e21d05aa84945ba750d554c76" target="_top" xlink:title=" ">
<polygon fill="white" stroke="#666666" points="1511,-178.5 1382,-178.5 1382,-148.5 1511,-148.5 1511,-178.5"/>
<text text-anchor="start" x="1390" y="-166.5" font-family="Helvetica,sans-Serif" font-size="10.00">update_vehicle_paddle</text>
<text text-anchor="middle" x="1446.5" y="-155.5" font-family="Helvetica,sans-Serif" font-size="10.00">_boats</text>
</a>
</g>
</g>
<!-- Node1&#45;&gt;Node42 -->
<g id="edge65_Node000001_Node000042" class="edge">
<title>Node1&#45;&gt;Node42</title>
<g id="a_edge65_Node000001_Node000042"><a xlink:title=" ">
<path fill="none" stroke="#63b8ff" d="M1827.65,-215.19C1819.06,-213.61 1810.29,-212 1802,-210.5 1744.26,-200.05 1730.09,-195.73 1672,-187.5 1617.86,-179.83 1556.06,-173.39 1511.03,-169.12"/>
<polygon fill="#63b8ff" stroke="#63b8ff" points="1827.13,-218.65 1837.6,-217.03 1828.4,-211.77 1827.13,-218.65"/>
</a>
</g>
</g>
<!-- Node3 -->
<g id="Node000003" class="node">
<title>Node3</title>
<g id="a_Node000003"><a xlink:href="code__80005FD0_8c.html#a93313abf66f75a07eec17a337f7d9ba2" target="_top" xlink:title=" ">
<polygon fill="white" stroke="#666666" points="1655,-254 1564,-254 1564,-235 1655,-235 1655,-254"/>
<text text-anchor="middle" x="1609.5" y="-242" font-family="Helvetica,sans-Serif" font-size="10.00">func_80012220</text>
</a>
</g>
</g>
<!-- Node2&#45;&gt;Node3 -->
<g id="edge2_Node000002_Node000003" class="edge">
<title>Node2&#45;&gt;Node3</title>
<g id="a_edge2_Node000002_Node000003"><a xlink:title=" ">
<path fill="none" stroke="#63b8ff" d="M1697.7,-244.5C1683.57,-244.5 1668.61,-244.5 1655.14,-244.5"/>
<polygon fill="#63b8ff" stroke="#63b8ff" points="1697.81,-248 1707.81,-244.5 1697.81,-241 1697.81,-248"/>
</a>
</g>
</g>
<!-- Node12 -->
<g id="Node000012" class="node">
<title>Node12</title>
<g id="a_Node000012"><a xlink:href="code__80005FD0_8c.html#a81c4dea988ca9590da6176b35de2c37c" target="_top" xlink:title=" ">
<polygon fill="white" stroke="#666666" points="1655,-112 1564,-112 1564,-93 1655,-93 1655,-112"/>
<text text-anchor="middle" x="1609.5" y="-100" font-family="Helvetica,sans-Serif" font-size="10.00">func_800139E4</text>
</a>
</g>
</g>
<!-- Node2&#45;&gt;Node12 -->
<g id="edge11_Node000002_Node000012" class="edge">
<title>Node2&#45;&gt;Node12</title>
<g id="a_edge11_Node000002_Node000012"><a xlink:title=" ">
<path fill="none" stroke="#63b8ff" d="M1736.83,-227.51C1706.54,-197.54 1644.57,-136.21 1620.43,-112.33"/>
<polygon fill="#63b8ff" stroke="#63b8ff" points="1734.57,-230.19 1744.14,-234.74 1739.49,-225.22 1734.57,-230.19"/>
</a>
</g>
</g>
<!-- Node22 -->
<g id="Node000022" class="node">
<title>Node22</title>
<g id="a_Node000022"><a xlink:href="code__80005FD0_8c.html#aca890afb34ef4a0ef9b2a0397ea8cce3" target="_top" xlink:title=" ">
<polygon fill="white" stroke="#666666" points="1655.5,-309 1563.5,-309 1563.5,-290 1655.5,-290 1655.5,-309"/>
<text text-anchor="middle" x="1609.5" y="-297" font-family="Helvetica,sans-Serif" font-size="10.00">func_80013D20</text>
</a>
</g>
</g>
<!-- Node2&#45;&gt;Node22 -->
<g id="edge27_Node000002_Node000022" class="edge">
<title>Node2&#45;&gt;Node22</title>
<g id="a_edge27_Node000002_Node000022"><a xlink:title=" ">
<path fill="none" stroke="#63b8ff" d="M1719.58,-257.69C1693.75,-267.59 1658.97,-280.92 1635.69,-289.84"/>
<polygon fill="#63b8ff" stroke="#63b8ff" points="1720.92,-260.93 1729,-254.08 1718.41,-254.39 1720.92,-260.93"/>
</a>
</g>
</g>
<!-- Node4 -->
<g id="Node000004" class="node">
<title>Node4</title>
<g id="a_Node000004"><a xlink:href="code__80005FD0_8c.html#afd6fa1e9b8e8378fffcaa462fdc81ef6" target="_top" xlink:title=" ">
<polygon fill="white" stroke="#666666" points="1504.5,-253 1388.5,-253 1388.5,-234 1504.5,-234 1504.5,-253"/>
<text text-anchor="middle" x="1446.5" y="-241" font-family="Helvetica,sans-Serif" font-size="10.00">init_course_vehicles</text>
</a>
</g>
</g>
<!-- Node3&#45;&gt;Node4 -->
<g id="edge3_Node000003_Node000004" class="edge">
<title>Node3&#45;&gt;Node4</title>
<g id="a_edge3_Node000003_Node000004"><a xlink:title=" ">
<path fill="none" stroke="#63b8ff" d="M1553.55,-244.16C1537.83,-244.06 1520.64,-243.95 1504.78,-243.86"/>
<polygon fill="#63b8ff" stroke="#63b8ff" points="1553.63,-247.66 1563.65,-244.22 1553.67,-240.66 1553.63,-247.66"/>
</a>
</g>
</g>
<!-- Node5 -->
<g id="Node000005" class="node">
<title>Node5</title>
<g id="a_Node000005"><a xlink:href="actors_8c.html#a8ed0774c05b9577fcf2db1dd958941b1" target="_top" xlink:title=" ">
<polygon fill="white" stroke="#666666" points="1086,-245 960,-245 960,-226 1086,-226 1086,-245"/>
<text text-anchor="middle" x="1023" y="-233" font-family="Helvetica,sans-Serif" font-size="10.00">load_common_texture</text>
</a>
</g>
</g>
<!-- Node4&#45;&gt;Node5 -->
<g id="edge4_Node000004_Node000005" class="edge">
<title>Node4&#45;&gt;Node5</title>
<g id="a_edge4_Node000004_Node000005"><a xlink:title=" ">
<path fill="none" stroke="#63b8ff" d="M1378.2,-242.22C1297.81,-240.7 1164.42,-238.17 1086.3,-236.68"/>
<polygon fill="#63b8ff" stroke="#63b8ff" points="1378.15,-245.72 1388.22,-242.41 1378.28,-238.72 1378.15,-245.72"/>
</a>
</g>
</g>
<!-- Node6 -->
<g id="Node000006" class="node">
<title>Node6</title>
<g id="a_Node000006"><a xlink:href="code__800029B0_8c.html#aca6165112fc92e65ad6477e785a7098c" target="_top" xlink:title=" ">
<polygon fill="white" stroke="#666666" points="889,-245 819,-245 819,-226 889,-226 889,-245"/>
<text text-anchor="middle" x="854" y="-233" font-family="Helvetica,sans-Serif" font-size="10.00">setup_race</text>
</a>
</g>
</g>
<!-- Node5&#45;&gt;Node6 -->
<g id="edge5_Node000005_Node000006" class="edge">
<title>Node5&#45;&gt;Node6</title>
<g id="a_edge5_Node000005_Node000006"><a xlink:title=" ">
<path fill="none" stroke="#63b8ff" d="M949.6,-235.5C928.58,-235.5 906.6,-235.5 889.13,-235.5"/>
<polygon fill="#63b8ff" stroke="#63b8ff" points="949.82,-239 959.82,-235.5 949.82,-232 949.82,-239"/>
</a>
</g>
</g>
<!-- Node7 -->
<g id="Node000007" class="node">
<title>Node7</title>
<g id="a_Node000007"><a xlink:href="main_8c.html#ad0625ed56ac663d3ec7ae8f1ba50c735" target="_top" xlink:title=" ">
<polygon fill="white" stroke="#666666" points="748,-245 640,-245 640,-226 748,-226 748,-245"/>
<text text-anchor="middle" x="694" y="-233" font-family="Helvetica,sans-Serif" font-size="10.00">update_gamestate</text>
</a>
</g>
</g>
<!-- Node6&#45;&gt;Node7 -->
<g id="edge6_Node000006_Node000007" class="edge">
<title>Node6&#45;&gt;Node7</title>
<g id="a_edge6_Node000006_Node000007"><a xlink:title=" ">
<path fill="none" stroke="#63b8ff" d="M808.65,-235.5C789.87,-235.5 767.82,-235.5 748.17,-235.5"/>
<polygon fill="#63b8ff" stroke="#63b8ff" points="808.72,-239 818.72,-235.5 808.72,-232 808.72,-239"/>
</a>
</g>
</g>
<!-- Node8 -->
<g id="Node000008" class="node">
<title>Node8</title>
<g id="a_Node000008"><a xlink:href="main_8c.html#a633ed517e458daeb768f5361895dcac9" target="_top" xlink:title=" ">
<polygon fill="white" stroke="#666666" points="452,-308 339,-308 339,-289 452,-289 452,-308"/>
<text text-anchor="middle" x="395.5" y="-296" font-family="Helvetica,sans-Serif" font-size="10.00">thread5_game_loop</text>
</a>
</g>
</g>
<!-- Node7&#45;&gt;Node8 -->
<g id="edge7_Node000007_Node000008" class="edge">
<title>Node7&#45;&gt;Node8</title>
<g id="a_edge7_Node000007_Node000008"><a xlink:title=" ">
<path fill="none" stroke="#63b8ff" d="M638.11,-247.16C581.47,-259.2 494.17,-277.75 441.47,-288.95"/>
<polygon fill="#63b8ff" stroke="#63b8ff" points="638.91,-250.57 647.97,-245.07 637.46,-243.72 638.91,-250.57"/>
</a>
</g>
</g>
<!-- Node9 -->
<g id="Node000009" class="node">
<title>Node9</title>
<g id="a_Node000009"><a xlink:href="main_8c.html#a023b8f272e4efbd33f371e91ffff6b30" target="_top" xlink:title=" ">
<polygon fill="white" stroke="#666666" points="303,-308 217,-308 217,-289 303,-289 303,-308"/>
<text text-anchor="middle" x="260" y="-296" font-family="Helvetica,sans-Serif" font-size="10.00">thread3_video</text>
</a>
</g>
</g>
<!-- Node8&#45;&gt;Node9 -->
<g id="edge8_Node000008_Node000009" class="edge">
<title>Node8&#45;&gt;Node9</title>
<g id="a_edge8_Node000008_Node000009"><a xlink:title=" ">
<path fill="none" stroke="#63b8ff" d="M328.57,-298.5C319.94,-298.5 311.3,-298.5 303.21,-298.5"/>
<polygon fill="#63b8ff" stroke="#63b8ff" points="328.66,-302 338.66,-298.5 328.66,-295 328.66,-302"/>
</a>
</g>
</g>
<!-- Node10 -->
<g id="Node000010" class="node">
<title>Node10</title>
<g id="a_Node000010"><a xlink:href="main_8c.html#a1e35d2b842121e6aea373f09381616e5" target="_top" xlink:title=" ">
<polygon fill="white" stroke="#666666" points="181,-308 104,-308 104,-289 181,-289 181,-308"/>
<text text-anchor="middle" x="142.5" y="-296" font-family="Helvetica,sans-Serif" font-size="10.00">thread1_idle</text>
</a>
</g>
</g>
<!-- Node9&#45;&gt;Node10 -->
<g id="edge9_Node000009_Node000010" class="edge">
<title>Node9&#45;&gt;Node10</title>
<g id="a_edge9_Node000009_Node000010"><a xlink:title=" ">
<path fill="none" stroke="#63b8ff" d="M206.9,-298.5C198.2,-298.5 189.33,-298.5 181.09,-298.5"/>
<polygon fill="#63b8ff" stroke="#63b8ff" points="206.98,-302 216.98,-298.5 206.98,-295 206.98,-302"/>
</a>
</g>
</g>
<!-- Node11 -->
<g id="Node000011" class="node">
<title>Node11</title>
<g id="a_Node000011"><a xlink:href="main_8c.html#a4f87d43525fe95f60ea92bc8a3b70e62" target="_top" xlink:title=" ">
<polygon fill="white" stroke="#666666" points="68,-308 0,-308 0,-289 68,-289 68,-308"/>
<text text-anchor="middle" x="34" y="-296" font-family="Helvetica,sans-Serif" font-size="10.00">main_func</text>
</a>
</g>
</g>
<!-- Node10&#45;&gt;Node11 -->
<g id="edge10_Node000010_Node000011" class="edge">
<title>Node10&#45;&gt;Node11</title>
<g id="a_edge10_Node000010_Node000011"><a xlink:title=" ">
<path fill="none" stroke="#63b8ff" d="M93.95,-298.5C85.29,-298.5 76.44,-298.5 68.31,-298.5"/>
<polygon fill="#63b8ff" stroke="#63b8ff" points="93.95,-302 103.95,-298.5 93.95,-295 93.95,-302"/>
</a>
</g>
</g>
<!-- Node13 -->
<g id="Node000013" class="node">
<title>Node13</title>
<g id="a_Node000013"><a xlink:href="code__80005FD0_8c.html#a38ce2545c5f2c06a99d94d735f024fc0" target="_top" xlink:title=" ">
<polygon fill="white" stroke="#666666" points="1492,-19 1401,-19 1401,0 1492,0 1492,-19"/>
<text text-anchor="middle" x="1446.5" y="-7" font-family="Helvetica,sans-Serif" font-size="10.00">func_800147E0</text>
</a>
</g>
</g>
<!-- Node12&#45;&gt;Node13 -->
<g id="edge12_Node000012_Node000013" class="edge">
<title>Node12&#45;&gt;Node13</title>
<g id="a_edge12_Node000012_Node000013"><a xlink:title=" ">
<path fill="none" stroke="#63b8ff" d="M1591.23,-85.88C1572.75,-68.96 1541.91,-43.05 1511,-27.5 1504.35,-24.15 1496.98,-21.35 1489.69,-19.02"/>
<polygon fill="#63b8ff" stroke="#63b8ff" points="1588.88,-88.48 1598.58,-92.75 1593.66,-83.36 1588.88,-88.48"/>
</a>
</g>
</g>
<!-- Node19 -->
<g id="Node000019" class="node">
<title>Node19</title>
<g id="a_Node000019"><a xlink:href="code__80005FD0_8c.html#ad7ec44b95b034a1b04853213f1d928ca" target="_top" xlink:title=" ">
<polygon fill="white" stroke="#666666" points="1492,-130 1401,-130 1401,-111 1492,-111 1492,-130"/>
<text text-anchor="middle" x="1446.5" y="-118" font-family="Helvetica,sans-Serif" font-size="10.00">func_80014934</text>
</a>
</g>
</g>
<!-- Node12&#45;&gt;Node19 -->
<g id="edge21_Node000012_Node000019" class="edge">
<title>Node12&#45;&gt;Node19</title>
<g id="a_edge21_Node000012_Node000019"><a xlink:title=" ">
<path fill="none" stroke="#63b8ff" d="M1553.71,-108.63C1533.64,-110.87 1511.18,-113.38 1492.11,-115.51"/>
<polygon fill="#63b8ff" stroke="#63b8ff" points="1554.1,-112.1 1563.65,-107.51 1553.33,-105.15 1554.1,-112.1"/>
</a>
</g>
</g>
<!-- Node20 -->
<g id="Node000020" class="node">
<title>Node20</title>
<g id="a_Node000020"><a xlink:href="code__80005FD0_8c.html#af3aae9dad721ce28a06e6cd071f20dd6" target="_top" xlink:title=" ">
<polygon fill="white" stroke="#666666" points="1492.5,-93 1400.5,-93 1400.5,-74 1492.5,-74 1492.5,-93"/>
<text text-anchor="middle" x="1446.5" y="-81" font-family="Helvetica,sans-Serif" font-size="10.00">func_80014A88</text>
</a>
</g>
</g>
<!-- Node12&#45;&gt;Node20 -->
<g id="edge23_Node000012_Node000020" class="edge">
<title>Node12&#45;&gt;Node20</title>
<g id="a_edge23_Node000012_Node000020"><a xlink:title=" ">
<path fill="none" stroke="#63b8ff" d="M1553.52,-96.01C1533.69,-93.67 1511.56,-91.06 1492.67,-88.83"/>
<polygon fill="#63b8ff" stroke="#63b8ff" points="1553.31,-99.51 1563.65,-97.21 1554.13,-92.56 1553.31,-99.51"/>
</a>
</g>
</g>
<!-- Node21 -->
<g id="Node000021" class="node">
<title>Node21</title>
<g id="a_Node000021"><a xlink:href="code__80005FD0_8c.html#af8d770b76281ba995dc87bc9e27722d7" target="_top" xlink:title=" ">
<polygon fill="white" stroke="#666666" points="1493.5,-56 1399.5,-56 1399.5,-37 1493.5,-37 1493.5,-56"/>
<text text-anchor="middle" x="1446.5" y="-44" font-family="Helvetica,sans-Serif" font-size="10.00">func_80014BDC</text>
</a>
</g>
</g>
<!-- Node12&#45;&gt;Node21 -->
<g id="edge25_Node000012_Node000021" class="edge">
<title>Node12&#45;&gt;Node21</title>
<g id="a_edge25_Node000012_Node000021"><a xlink:title=" ">
<path fill="none" stroke="#63b8ff" d="M1576.54,-89.16C1557.64,-81.49 1533.15,-71.94 1511,-64.5 1502.2,-61.55 1492.61,-58.66 1483.62,-56.09"/>
<polygon fill="#63b8ff" stroke="#63b8ff" points="1575.29,-92.43 1585.87,-92.97 1577.94,-85.95 1575.29,-92.43"/>
</a>
</g>
</g>
<!-- Node14 -->
<g id="Node000014" class="node">
<title>Node14</title>
<g id="a_Node000014"><a xlink:href="code__80005FD0_8c.html#a1b88258c47677456a6de78bbce674c21" target="_top" xlink:title=" ">
<polygon fill="white" stroke="#666666" points="1344.5,-104 1251.5,-104 1251.5,-85 1344.5,-85 1344.5,-104"/>
<text text-anchor="middle" x="1298" y="-92" font-family="Helvetica,sans-Serif" font-size="10.00">func_8000F2DC</text>
</a>
</g>
</g>
<!-- Node13&#45;&gt;Node14 -->
<g id="edge13_Node000013_Node000014" class="edge">
<title>Node13&#45;&gt;Node14</title>
<g id="a_edge13_Node000013_Node000014"><a xlink:title=" ">
<path fill="none" stroke="#63b8ff" d="M1393.02,-22.53C1389.22,-24.03 1385.51,-25.69 1382,-27.5 1352.07,-42.99 1322.75,-70.32 1308.29,-84.83"/>
<polygon fill="#63b8ff" stroke="#63b8ff" points="1394.34,-25.78 1402.58,-19.11 1391.98,-19.19 1394.34,-25.78"/>
</a>
</g>
</g>
<!-- Node15 -->
<g id="Node000015" class="node">
<title>Node15</title>
<g id="a_Node000015"><a xlink:href="code__80005FD0_8c.html#a325ddded54aab32025174f6aedd5e391" target="_top" xlink:title=" ">
<polygon fill="white" stroke="#666666" points="1214,-107 1122,-107 1122,-88 1214,-88 1214,-107"/>
<text text-anchor="middle" x="1168" y="-95" font-family="Helvetica,sans-Serif" font-size="10.00">func_8001C05C</text>
</a>
</g>
</g>
<!-- Node14&#45;&gt;Node15 -->
<g id="edge14_Node000014_Node000015" class="edge">
<title>Node14&#45;&gt;Node15</title>
<g id="a_edge14_Node000014_Node000015"><a xlink:title=" ">
<path fill="none" stroke="#63b8ff" d="M1241.09,-95.81C1232.07,-96.02 1222.83,-96.24 1214.1,-96.44"/>
<polygon fill="#63b8ff" stroke="#63b8ff" points="1241.24,-99.31 1251.15,-95.57 1241.07,-92.31 1241.24,-99.31"/>
</a>
</g>
</g>
<!-- Node17 -->
<g id="Node000017" class="node">
<title>Node17</title>
<g id="a_Node000017"><a xlink:href="spawn__players_8c.html#afb1c307e34d73d9c004936d2752c44ce" target="_top" xlink:title=" ">
<polygon fill="white" stroke="#666666" points="1214,-181 1122,-181 1122,-162 1214,-162 1214,-181"/>
<text text-anchor="middle" x="1168" y="-169" font-family="Helvetica,sans-Serif" font-size="10.00">func_8003C0F0</text>
</a>
</g>
</g>
<!-- Node14&#45;&gt;Node17 -->
<g id="edge17_Node000014_Node000017" class="edge">
<title>Node14&#45;&gt;Node17</title>
<g id="a_edge17_Node000014_Node000017"><a xlink:title=" ">
<path fill="none" stroke="#63b8ff" d="M1272.26,-109.38C1246.56,-124.84 1207.11,-148.58 1185.15,-161.78"/>
<polygon fill="#63b8ff" stroke="#63b8ff" points="1274.28,-112.25 1281.05,-104.1 1270.67,-106.25 1274.28,-112.25"/>
</a>
</g>
</g>
<!-- Node16 -->
<g id="Node000016" class="node">
<title>Node16</title>
<g id="a_Node000016"><a xlink:href="code__80281780_8c.html#af227cfd0f1fd3d6adbe9a29ad59b4dc8" target="_top" xlink:title=" ">
<polygon fill="white" stroke="#666666" points="924,-208 784,-208 784,-189 924,-189 924,-208"/>
<text text-anchor="middle" x="854" y="-196" font-family="Helvetica,sans-Serif" font-size="10.00">load_ceremony_cutscene</text>
</a>
</g>
</g>
<!-- Node15&#45;&gt;Node16 -->
<g id="edge15_Node000015_Node000016" class="edge">
<title>Node15&#45;&gt;Node16</title>
<g id="a_edge15_Node000015_Node000016"><a xlink:title=" ">
<path fill="none" stroke="#63b8ff" d="M1128.03,-110.11C1064.76,-130.6 941.06,-170.64 884.5,-188.95"/>
<polygon fill="#63b8ff" stroke="#63b8ff" points="1129.21,-113.41 1137.65,-107 1127.06,-106.75 1129.21,-113.41"/>
</a>
</g>
</g>
<!-- Node16&#45;&gt;Node7 -->
<g id="edge16_Node000016_Node000007" class="edge">
<title>Node16&#45;&gt;Node7</title>
<g id="a_edge16_Node000016_Node000007"><a xlink:title=" ">
<path fill="none" stroke="#63b8ff" d="M802.37,-210.36C780.87,-215.39 756.13,-221.18 735.83,-225.94"/>
<polygon fill="#63b8ff" stroke="#63b8ff" points="803.37,-213.72 812.31,-208.03 801.78,-206.9 803.37,-213.72"/>
</a>
</g>
</g>
<!-- Node18 -->
<g id="Node000018" class="node">
<title>Node18</title>
<g id="a_Node000018"><a xlink:href="spawn__players_8c.html#ac1a9412b931cfa517a2382c2fc605399" target="_top" xlink:title=" ">
<polygon fill="white" stroke="#666666" points="1069,-208 977,-208 977,-189 1069,-189 1069,-208"/>
<text text-anchor="middle" x="1023" y="-196" font-family="Helvetica,sans-Serif" font-size="10.00">func_8003D080</text>
</a>
</g>
</g>
<!-- Node17&#45;&gt;Node18 -->
<g id="edge18_Node000017_Node000018" class="edge">
<title>Node17&#45;&gt;Node18</title>
<g id="a_edge18_Node000017_Node000018"><a xlink:title=" ">
<path fill="none" stroke="#63b8ff" d="M1111.75,-181.93C1097.76,-184.57 1082.89,-187.38 1069.44,-189.92"/>
<polygon fill="#63b8ff" stroke="#63b8ff" points="1112.58,-185.34 1121.75,-180.04 1111.28,-178.46 1112.58,-185.34"/>
</a>
</g>
</g>
<!-- Node18&#45;&gt;Node6 -->
<g id="edge20_Node000018_Node000006" class="edge">
<title>Node18&#45;&gt;Node6</title>
<g id="a_edge20_Node000018_Node000006"><a xlink:title=" ">
<path fill="none" stroke="#63b8ff" d="M969.22,-210.19C943.06,-215.99 912.22,-222.82 889.18,-227.93"/>
<polygon fill="#63b8ff" stroke="#63b8ff" points="969.99,-213.61 978.99,-208.03 968.47,-206.77 969.99,-213.61"/>
</a>
</g>
</g>
<!-- Node18&#45;&gt;Node16 -->
<g id="edge19_Node000018_Node000016" class="edge">
<title>Node18&#45;&gt;Node16</title>
<g id="a_edge19_Node000018_Node000016"><a xlink:title=" ">
<path fill="none" stroke="#63b8ff" d="M966.64,-198.5C953.02,-198.5 938.27,-198.5 924.09,-198.5"/>
<polygon fill="#63b8ff" stroke="#63b8ff" points="966.81,-202 976.81,-198.5 966.81,-195 966.81,-202"/>
</a>
</g>
</g>
<!-- Node19&#45;&gt;Node14 -->
<g id="edge22_Node000019_Node000014" class="edge">
<title>Node19&#45;&gt;Node14</title>
<g id="a_edge22_Node000019_Node000014"><a xlink:title=" ">
<path fill="none" stroke="#63b8ff" d="M1390.52,-110.74C1375.43,-108.06 1359.25,-105.19 1344.74,-102.62"/>
<polygon fill="#63b8ff" stroke="#63b8ff" points="1390.29,-114.26 1400.75,-112.56 1391.51,-107.36 1390.29,-114.26"/>
</a>
</g>
</g>
<!-- Node20&#45;&gt;Node14 -->
<g id="edge24_Node000020_Node000014" class="edge">
<title>Node20&#45;&gt;Node14</title>
<g id="a_edge24_Node000020_Node000014"><a xlink:title=" ">
<path fill="none" stroke="#63b8ff" d="M1390.13,-87.66C1375.08,-88.79 1358.95,-90 1344.51,-91.08"/>
<polygon fill="#63b8ff" stroke="#63b8ff" points="1390.64,-91.13 1400.35,-86.89 1390.12,-84.15 1390.64,-91.13"/>
</a>
</g>
</g>
<!-- Node21&#45;&gt;Node14 -->
<g id="edge26_Node000021_Node000014" class="edge">
<title>Node21&#45;&gt;Node14</title>
<g id="a_edge26_Node000021_Node000014"><a xlink:title=" ">
<path fill="none" stroke="#63b8ff" d="M1400.45,-58.85C1394.23,-60.67 1387.94,-62.59 1382,-64.5 1362.31,-70.84 1340.31,-78.84 1323.9,-84.98"/>
<polygon fill="#63b8ff" stroke="#63b8ff" points="1401.46,-62.19 1410.1,-56.06 1399.52,-55.47 1401.46,-62.19"/>
</a>
</g>
</g>
<!-- Node23 -->
<g id="Node000023" class="node">
<title>Node23</title>
<g id="a_Node000023"><a xlink:href="code__80005FD0_8c.html#a394feba900a9c8821d8f73a7830a6a57" target="_top" xlink:title=" ">
<polygon fill="white" stroke="#666666" points="1492.5,-327 1400.5,-327 1400.5,-308 1492.5,-308 1492.5,-327"/>
<text text-anchor="middle" x="1446.5" y="-315" font-family="Helvetica,sans-Serif" font-size="10.00">func_8001487C</text>
</a>
</g>
</g>
<!-- Node22&#45;&gt;Node23 -->
<g id="edge28_Node000022_Node000023" class="edge">
<title>Node22&#45;&gt;Node23</title>
<g id="a_edge28_Node000022_Node000023"><a xlink:title=" ">
<path fill="none" stroke="#63b8ff" d="M1553.15,-305.69C1533.43,-307.89 1511.48,-310.35 1492.71,-312.44"/>
<polygon fill="#63b8ff" stroke="#63b8ff" points="1553.67,-309.15 1563.22,-304.56 1552.9,-302.19 1553.67,-309.15"/>
</a>
</g>
</g>
<!-- Node29 -->
<g id="Node000029" class="node">
<title>Node29</title>
<g id="a_Node000029"><a xlink:href="code__80005FD0_8c.html#a05d157370926e46f3be0d52c84ef4e93" target="_top" xlink:title=" ">
<polygon fill="white" stroke="#666666" points="1492.5,-290 1400.5,-290 1400.5,-271 1492.5,-271 1492.5,-290"/>
<text text-anchor="middle" x="1446.5" y="-278" font-family="Helvetica,sans-Serif" font-size="10.00">func_800149D0</text>
</a>
</g>
</g>
<!-- Node22&#45;&gt;Node29 -->
<g id="edge36_Node000022_Node000029" class="edge">
<title>Node22&#45;&gt;Node29</title>
<g id="a_edge36_Node000022_Node000029"><a xlink:title=" ">
<path fill="none" stroke="#63b8ff" d="M1553.15,-292.97C1533.43,-290.64 1511.48,-288.05 1492.71,-285.84"/>
<polygon fill="#63b8ff" stroke="#63b8ff" points="1552.88,-296.46 1563.22,-294.16 1553.7,-289.51 1552.88,-296.46"/>
</a>
</g>
</g>
<!-- Node30 -->
<g id="Node000030" class="node">
<title>Node30</title>
<g id="a_Node000030"><a xlink:href="code__80005FD0_8c.html#a9a279fe9140cea9ff4c0284a5495a65e" target="_top" xlink:title=" ">
<polygon fill="white" stroke="#666666" points="1492.5,-401 1400.5,-401 1400.5,-382 1492.5,-382 1492.5,-401"/>
<text text-anchor="middle" x="1446.5" y="-389" font-family="Helvetica,sans-Serif" font-size="10.00">func_80014B24</text>
</a>
</g>
</g>
<!-- Node22&#45;&gt;Node30 -->
<g id="edge38_Node000022_Node000030" class="edge">
<title>Node22&#45;&gt;Node30</title>
<g id="a_edge38_Node000022_Node000030"><a xlink:title=" ">
<path fill="none" stroke="#63b8ff" d="M1591.19,-315.88C1572.68,-332.57 1541.81,-358.13 1511,-373.5 1504.34,-376.82 1496.96,-379.62 1489.67,-381.94"/>
<polygon fill="#63b8ff" stroke="#63b8ff" points="1593.55,-318.46 1598.55,-309.12 1588.82,-313.3 1593.55,-318.46"/>
</a>
</g>
</g>
<!-- Node31 -->
<g id="Node000031" class="node">
<title>Node31</title>
<g id="a_Node000031"><a xlink:href="code__80005FD0_8c.html#aa067ddc50eb34e003eae0cb05aac50cc" target="_top" xlink:title=" ">
<polygon fill="white" stroke="#666666" points="1492.5,-364 1400.5,-364 1400.5,-345 1492.5,-345 1492.5,-364"/>
<text text-anchor="middle" x="1446.5" y="-352" font-family="Helvetica,sans-Serif" font-size="10.00">func_80014C78</text>
</a>
</g>
</g>
<!-- Node22&#45;&gt;Node31 -->
<g id="edge40_Node000022_Node000031" class="edge">
<title>Node22&#45;&gt;Node31</title>
<g id="a_edge40_Node000022_Node000031"><a xlink:title=" ">
<path fill="none" stroke="#63b8ff" d="M1575.76,-312.74C1556.95,-320.13 1532.81,-329.29 1511,-336.5 1502.08,-339.45 1492.36,-342.36 1483.26,-344.95"/>
<polygon fill="#63b8ff" stroke="#63b8ff" points="1577.06,-315.99 1585.06,-309.05 1574.48,-309.48 1577.06,-315.99"/>
</a>
</g>
</g>
<!-- Node24 -->
<g id="Node000024" class="node">
<title>Node24</title>
<g id="a_Node000024"><a xlink:href="code__80005FD0_8c.html#aef8687777d0e50889371f98024d0bb12" target="_top" xlink:title=" ">
<polygon fill="white" stroke="#666666" points="1346,-326 1250,-326 1250,-307 1346,-307 1346,-326"/>
<text text-anchor="middle" x="1298" y="-314" font-family="Helvetica,sans-Serif" font-size="10.00">update_vehicles</text>
</a>
</g>
</g>
<!-- Node23&#45;&gt;Node24 -->
<g id="edge29_Node000023_Node000024" class="edge">
<title>Node23&#45;&gt;Node24</title>
<g id="a_edge29_Node000023_Node000024"><a xlink:title=" ">
<path fill="none" stroke="#63b8ff" d="M1390.01,-317.12C1375.51,-317.02 1360.03,-316.92 1346.03,-316.82"/>
<polygon fill="#63b8ff" stroke="#63b8ff" points="1390.33,-320.62 1400.35,-317.19 1390.37,-313.62 1390.33,-320.62"/>
</a>
</g>
</g>
<!-- Node25 -->
<g id="Node000025" class="node">
<title>Node25</title>
<g id="a_Node000025"><a xlink:href="race__logic_8c.html#af3b28af56eee680540843d3bd6bd24ba" target="_top" xlink:title=" ">
<polygon fill="white" stroke="#666666" points="1068.5,-324 977.5,-324 977.5,-305 1068.5,-305 1068.5,-324"/>
<text text-anchor="middle" x="1023" y="-312" font-family="Helvetica,sans-Serif" font-size="10.00">func_8028F474</text>
</a>
</g>
</g>
<!-- Node24&#45;&gt;Node25 -->
<g id="edge30_Node000024_Node000025" class="edge">
<title>Node24&#45;&gt;Node25</title>
<g id="a_edge30_Node000024_Node000025"><a xlink:title=" ">
<path fill="none" stroke="#63b8ff" d="M1239.58,-316.08C1188.73,-315.71 1115.51,-315.17 1068.85,-314.83"/>
<polygon fill="#63b8ff" stroke="#63b8ff" points="1239.73,-319.58 1249.76,-316.15 1239.78,-312.58 1239.73,-319.58"/>
</a>
</g>
</g>
<!-- Node28 -->
<g id="Node000028" class="node">
<title>Node28</title>
<g id="a_Node000028"><a xlink:href="podium__ceremony__actors_8c.html#a7ea229c65f264670fc828b95e8321154" target="_top" xlink:title=" ">
<polygon fill="white" stroke="#666666" points="921,-362 787,-362 787,-343 921,-343 921,-362"/>
<text text-anchor="middle" x="854" y="-350" font-family="Helvetica,sans-Serif" font-size="10.00">podium_ceremony_loop</text>
</a>
</g>
</g>
<!-- Node24&#45;&gt;Node28 -->
<g id="edge34_Node000024_Node000028" class="edge">
<title>Node24&#45;&gt;Node28</title>
<g id="a_edge34_Node000024_Node000028"><a xlink:title=" ">
<path fill="none" stroke="#63b8ff" d="M1239.72,-326.17C1231.11,-327.42 1222.34,-328.58 1214,-329.5 1112.19,-340.71 993.49,-347 921.32,-350.07"/>
<polygon fill="#63b8ff" stroke="#63b8ff" points="1240.33,-329.62 1249.7,-324.67 1239.29,-322.7 1240.33,-329.62"/>
</a>
</g>
</g>
<!-- Node26 -->
<g id="Node000026" class="node">
<title>Node26</title>
<g id="a_Node000026"><a xlink:href="main_8c.html#afff87ffcbfee4f1f37d443110aa7b52a" target="_top" xlink:title=" ">
<polygon fill="white" stroke="#666666" points="900,-324 808,-324 808,-305 900,-305 900,-324"/>
<text text-anchor="middle" x="854" y="-312" font-family="Helvetica,sans-Serif" font-size="10.00">race_logic_loop</text>
</a>
</g>
</g>
<!-- Node25&#45;&gt;Node26 -->
<g id="edge31_Node000025_Node000026" class="edge">
<title>Node25&#45;&gt;Node26</title>
<g id="a_edge31_Node000025_Node000026"><a xlink:title=" ">
<path fill="none" stroke="#63b8ff" d="M967.18,-314.5C945.47,-314.5 920.82,-314.5 900.17,-314.5"/>
<polygon fill="#63b8ff" stroke="#63b8ff" points="967.25,-318 977.25,-314.5 967.25,-311 967.25,-318"/>
</a>
</g>
</g>
<!-- Node27 -->
<g id="Node000027" class="node">
<title>Node27</title>
<g id="a_Node000027"><a xlink:href="main_8c.html#ae04143ce8113cdafa007c642eb620bc8" target="_top" xlink:title=" ">
<polygon fill="white" stroke="#666666" points="604,-343 488,-343 488,-324 604,-324 604,-343"/>
<text text-anchor="middle" x="546" y="-331" font-family="Helvetica,sans-Serif" font-size="10.00">game_state_handler</text>
</a>
</g>
</g>
<!-- Node26&#45;&gt;Node27 -->
<g id="edge32_Node000026_Node000027" class="edge">
<title>Node26&#45;&gt;Node27</title>
<g id="a_edge32_Node000026_Node000027"><a xlink:title=" ">
<path fill="none" stroke="#63b8ff" d="M797.63,-317.94C742.86,-321.34 659.43,-326.52 604.08,-329.96"/>
<polygon fill="#63b8ff" stroke="#63b8ff" points="798.08,-321.42 807.85,-317.3 797.65,-314.43 798.08,-321.42"/>
</a>
</g>
</g>
<!-- Node27&#45;&gt;Node8 -->
<g id="edge33_Node000027_Node000008" class="edge">
<title>Node27&#45;&gt;Node8</title>
<g id="a_edge33_Node000027_Node000008"><a xlink:title=" ">
<path fill="none" stroke="#63b8ff" d="M494.56,-321.61C475.81,-317.19 454.78,-312.24 437.03,-308.05"/>
<polygon fill="#63b8ff" stroke="#63b8ff" points="493.89,-325.05 504.42,-323.94 495.49,-318.24 493.89,-325.05"/>
</a>
</g>
</g>
<!-- Node28&#45;&gt;Node27 -->
<g id="edge35_Node000028_Node000027" class="edge">
<title>Node28&#45;&gt;Node27</title>
<g id="a_edge35_Node000028_Node000027"><a xlink:title=" ">
<path fill="none" stroke="#63b8ff" d="M776.85,-347.77C723.34,-344.45 652.89,-340.07 604.15,-337.05"/>
<polygon fill="#63b8ff" stroke="#63b8ff" points="776.78,-351.27 786.98,-348.4 777.22,-344.29 776.78,-351.27"/>
</a>
</g>
</g>
<!-- Node29&#45;&gt;Node24 -->
<g id="edge37_Node000029_Node000024" class="edge">
<title>Node29&#45;&gt;Node24</title>
<g id="a_edge37_Node000029_Node000024"><a xlink:title=" ">
<path fill="none" stroke="#63b8ff" d="M1396.85,-292.45C1377.66,-297.17 1355.91,-302.52 1337.8,-306.97"/>
<polygon fill="#63b8ff" stroke="#63b8ff" points="1397.75,-295.84 1406.63,-290.05 1396.08,-289.04 1397.75,-295.84"/>
</a>
</g>
</g>
<!-- Node30&#45;&gt;Node24 -->
<g id="edge39_Node000030_Node000024" class="edge">
<title>Node30&#45;&gt;Node24</title>
<g id="a_edge39_Node000030_Node000024"><a xlink:title=" ">
<path fill="none" stroke="#63b8ff" d="M1394.8,-378.76C1390.4,-377.17 1386.08,-375.41 1382,-373.5 1354.31,-360.5 1325.69,-338.64 1310.35,-326.1"/>
<polygon fill="#63b8ff" stroke="#63b8ff" points="1393.88,-382.14 1404.47,-381.99 1396.1,-375.5 1393.88,-382.14"/>
</a>
</g>
</g>
<!-- Node31&#45;&gt;Node24 -->
<g id="edge41_Node000031_Node000024" class="edge">
<title>Node31&#45;&gt;Node24</title>
<g id="a_edge41_Node000031_Node000024"><a xlink:title=" ">
<path fill="none" stroke="#63b8ff" d="M1398.8,-342.39C1378.4,-337.1 1354.82,-330.98 1335.7,-326.02"/>
<polygon fill="#63b8ff" stroke="#63b8ff" points="1397.97,-345.79 1408.53,-344.91 1399.73,-339.01 1397.97,-345.79"/>
</a>
</g>
</g>
<!-- Node32&#45;&gt;Node3 -->
<g id="edge43_Node000032_Node000003" class="edge">
<title>Node32&#45;&gt;Node3</title>
<g id="a_edge43_Node000032_Node000003"><a xlink:title=" ">
<path fill="none" stroke="#63b8ff" d="M1707.26,-269.45C1688,-264.48 1665.98,-258.81 1647.83,-254.12"/>
<polygon fill="#63b8ff" stroke="#63b8ff" points="1706.49,-272.86 1717.05,-271.97 1708.24,-266.09 1706.49,-272.86"/>
</a>
</g>
</g>
<!-- Node32&#45;&gt;Node12 -->
<g id="edge44_Node000032_Node000012" class="edge">
<title>Node32&#45;&gt;Node12</title>
<g id="a_edge44_Node000032_Node000012"><a xlink:title=" ">
<path fill="none" stroke="#63b8ff" d="M1711.6,-266.5C1710.34,-265.56 1709.14,-264.56 1708,-263.5 1680.67,-238 1691.04,-219.67 1672,-187.5 1654.93,-158.66 1630.63,-127.36 1618.31,-112.04"/>
<polygon fill="#63b8ff" stroke="#63b8ff" points="1710.18,-269.73 1720.54,-271.94 1713.82,-263.75 1710.18,-269.73"/>
</a>
</g>
</g>
<!-- Node32&#45;&gt;Node22 -->
<g id="edge45_Node000032_Node000022" class="edge">
<title>Node32&#45;&gt;Node22</title>
<g id="a_edge45_Node000032_Node000022"><a xlink:title=" ">
<path fill="none" stroke="#63b8ff" d="M1698.84,-288.42C1684.62,-290.2 1669.49,-292.1 1655.84,-293.81"/>
<polygon fill="#63b8ff" stroke="#63b8ff" points="1699.5,-291.86 1708.99,-287.15 1698.63,-284.92 1699.5,-291.86"/>
</a>
</g>
</g>
<!-- Node33 -->
<g id="Node000033" class="node">
<title>Node33</title>
<g id="a_Node000033"><a xlink:href="update__objects_8c.html#a51a16401cf202c55bdae59edc1f510ce" target="_top" xlink:title=" ">
<polygon fill="white" stroke="#666666" points="1655.5,-392 1563.5,-392 1563.5,-373 1655.5,-373 1655.5,-392"/>
<text text-anchor="middle" x="1609.5" y="-380" font-family="Helvetica,sans-Serif" font-size="10.00">func_8008275C</text>
</a>
</g>
</g>
<!-- Node32&#45;&gt;Node33 -->
<g id="edge46_Node000032_Node000033" class="edge">
<title>Node32&#45;&gt;Node33</title>
<g id="a_edge46_Node000032_Node000033"><a xlink:title=" ">
<path fill="none" stroke="#63b8ff" d="M1731.96,-297.01C1701.89,-318.18 1648.91,-355.47 1624.07,-372.95"/>
<polygon fill="#63b8ff" stroke="#63b8ff" points="1734.34,-299.62 1740.5,-291 1730.31,-293.9 1734.34,-299.62"/>
</a>
</g>
</g>
<!-- Node40 -->
<g id="Node000040" class="node">
<title>Node40</title>
<g id="a_Node000040"><a xlink:href="update__objects_8c.html#a2ebe9de1966d2cadcfe6d13c13eba1a0" target="_top" xlink:title=" ">
<polygon fill="white" stroke="#666666" points="1672,-452 1547,-452 1547,-433 1672,-433 1672,-452"/>
<text text-anchor="middle" x="1609.5" y="-440" font-family="Helvetica,sans-Serif" font-size="10.00">update_chain_chomps</text>
</a>
</g>
</g>
<!-- Node32&#45;&gt;Node40 -->
<g id="edge57_Node000032_Node000040" class="edge">
<title>Node32&#45;&gt;Node40</title>
<g id="a_edge57_Node000032_Node000040"><a xlink:title=" ">
<path fill="none" stroke="#63b8ff" d="M1744.37,-299.95C1730.67,-324.98 1703.68,-370.18 1672,-401.5 1659.04,-414.31 1641.54,-425.52 1628.52,-432.97"/>
<polygon fill="#63b8ff" stroke="#63b8ff" points="1747.46,-301.59 1749.1,-291.12 1741.29,-298.28 1747.46,-301.59"/>
</a>
</g>
</g>
<!-- Node34 -->
<g id="Node000034" class="node">
<title>Node34</title>
<g id="a_Node000034"><a xlink:href="update__objects_8c.html#ae061dff0cfaf1ef11c4609d97c895440" target="_top" xlink:title=" ">
<polygon fill="white" stroke="#666666" points="1494.5,-438 1398.5,-438 1398.5,-419 1494.5,-419 1494.5,-438"/>
<text text-anchor="middle" x="1446.5" y="-426" font-family="Helvetica,sans-Serif" font-size="10.00">update_seagulls</text>
</a>
</g>
</g>
<!-- Node33&#45;&gt;Node34 -->
<g id="edge47_Node000033_Node000034" class="edge">
<title>Node33&#45;&gt;Node34</title>
<g id="a_edge47_Node000033_Node000034"><a xlink:title=" ">
<path fill="none" stroke="#63b8ff" d="M1565.47,-394.89C1548.5,-399.77 1528.84,-405.41 1511,-410.5 1501.3,-413.27 1490.77,-416.26 1481.12,-418.99"/>
<polygon fill="#63b8ff" stroke="#63b8ff" points="1566.47,-398.25 1575.12,-392.12 1564.54,-391.52 1566.47,-398.25"/>
</a>
</g>
</g>
<!-- Node35 -->
<g id="Node000035" class="node">
<title>Node35</title>
<g id="a_Node000035"><a xlink:href="code__80057C60_8c.html#a22c0f603a5c87f883a26284082d099f8" target="_top" xlink:title=" ">
<polygon fill="white" stroke="#666666" points="1341,-438 1255,-438 1255,-419 1341,-419 1341,-438"/>
<text text-anchor="middle" x="1298" y="-426" font-family="Helvetica,sans-Serif" font-size="10.00">update_object</text>
</a>
</g>
</g>
<!-- Node34&#45;&gt;Node35 -->
<g id="edge48_Node000034_Node000035" class="edge">
<title>Node34&#45;&gt;Node35</title>
<g id="a_edge48_Node000034_Node000035"><a xlink:title=" ">
<path fill="none" stroke="#63b8ff" d="M1388.21,-428.5C1372.51,-428.5 1355.79,-428.5 1341.12,-428.5"/>
<polygon fill="#63b8ff" stroke="#63b8ff" points="1388.34,-432 1398.34,-428.5 1388.34,-425 1388.34,-432"/>
</a>
</g>
</g>
<!-- Node36 -->
<g id="Node000036" class="node">
<title>Node36</title>
<g id="a_Node000036"><a xlink:href="code__80057C60_8c.html#a48f7fc1ba7acccec2d7b6e0a59f65dc5" target="_top" xlink:title=" ">
<polygon fill="white" stroke="#666666" points="1214,-438 1122,-438 1122,-419 1214,-419 1214,-438"/>
<text text-anchor="middle" x="1168" y="-426" font-family="Helvetica,sans-Serif" font-size="10.00">func_80059D00</text>
</a>
</g>
</g>
<!-- Node35&#45;&gt;Node36 -->
<g id="edge49_Node000035_Node000036" class="edge">
<title>Node35&#45;&gt;Node36</title>
<g id="a_edge49_Node000035_Node000036"><a xlink:title=" ">
<path fill="none" stroke="#63b8ff" d="M1244.48,-428.5C1234.47,-428.5 1224.07,-428.5 1214.3,-428.5"/>
<polygon fill="#63b8ff" stroke="#63b8ff" points="1244.73,-432 1254.73,-428.5 1244.73,-425 1244.73,-432"/>
</a>
</g>
</g>
<!-- Node37 -->
<g id="Node000037" class="node">
<title>Node37</title>
<g id="a_Node000037"><a xlink:href="code__80057C60_8c.html#a86b7dba9c0715c4d7fdf8ce61c0738bc" target="_top" xlink:title=" ">
<polygon fill="white" stroke="#666666" points="1069,-400 977,-400 977,-381 1069,-381 1069,-400"/>
<text text-anchor="middle" x="1023" y="-388" font-family="Helvetica,sans-Serif" font-size="10.00">func_8005A070</text>
</a>
</g>
</g>
<!-- Node35&#45;&gt;Node37 -->
<g id="edge56_Node000035_Node000037" class="edge">
<title>Node35&#45;&gt;Node37</title>
<g id="a_edge56_Node000035_Node000037"><a xlink:title=" ">
<path fill="none" stroke="#63b8ff" d="M1247.25,-416.79C1236.34,-414.48 1224.81,-412.24 1214,-410.5 1164.71,-402.59 1107.71,-397.06 1069.1,-393.86"/>
<polygon fill="#63b8ff" stroke="#63b8ff" points="1246.55,-420.22 1257.06,-418.92 1248.03,-413.38 1246.55,-420.22"/>
</a>
</g>
</g>
<!-- Node36&#45;&gt;Node37 -->
<g id="edge50_Node000036_Node000037" class="edge">
<title>Node36&#45;&gt;Node37</title>
<g id="a_edge50_Node000036_Node000037"><a xlink:title=" ">
<path fill="none" stroke="#63b8ff" d="M1121.19,-416.33C1101.41,-411.07 1078.62,-405.01 1060.07,-400.09"/>
<polygon fill="#63b8ff" stroke="#63b8ff" points="1120.35,-419.73 1130.92,-418.91 1122.15,-412.96 1120.35,-419.73"/>
</a>
</g>
</g>
<!-- Node37&#45;&gt;Node26 -->
<g id="edge55_Node000037_Node000026" class="edge">
<title>Node37&#45;&gt;Node26</title>
<g id="a_edge55_Node000037_Node000026"><a xlink:title=" ">
<path fill="none" stroke="#63b8ff" d="M999.18,-375.38C979.81,-363.07 950.95,-345.91 924,-334.5 914.47,-330.46 903.86,-326.94 893.88,-324.02"/>
<polygon fill="#63b8ff" stroke="#63b8ff" points="997.32,-378.35 1007.62,-380.83 1001.11,-372.47 997.32,-378.35"/>
</a>
</g>
</g>
<!-- Node37&#45;&gt;Node28 -->
<g id="edge54_Node000037_Node000028" class="edge">
<title>Node37&#45;&gt;Node28</title>
<g id="a_edge54_Node000037_Node000028"><a xlink:title=" ">
<path fill="none" stroke="#63b8ff" d="M970.04,-378.68C946.49,-373.32 919.03,-367.07 896.84,-362.02"/>
<polygon fill="#63b8ff" stroke="#63b8ff" points="969.33,-382.1 979.86,-380.91 970.88,-375.28 969.33,-382.1"/>
</a>
</g>
</g>
<!-- Node38 -->
<g id="Node000038" class="node">
<title>Node38</title>
<g id="a_Node000038"><a xlink:href="code__80280000_8c.html#a4d9b0156b64d7a67e4cb21cde391ca43" target="_top" xlink:title=" ">
<polygon fill="white" stroke="#666666" points="899.5,-400 808.5,-400 808.5,-381 899.5,-381 899.5,-400"/>
<text text-anchor="middle" x="854" y="-388" font-family="Helvetica,sans-Serif" font-size="10.00">func_80280000</text>
</a>
</g>
</g>
<!-- Node37&#45;&gt;Node38 -->
<g id="edge51_Node000037_Node000038" class="edge">
<title>Node37&#45;&gt;Node38</title>
<g id="a_edge51_Node000037_Node000038"><a xlink:title=" ">
<path fill="none" stroke="#63b8ff" d="M966.71,-390.5C944.93,-390.5 920.26,-390.5 899.65,-390.5"/>
<polygon fill="#63b8ff" stroke="#63b8ff" points="966.81,-394 976.81,-390.5 966.81,-387 966.81,-394"/>
</a>
</g>
</g>
<!-- Node39 -->
<g id="Node000039" class="node">
<title>Node39</title>
<g id="a_Node000039"><a xlink:href="code__80280000_8c.html#aa28a69be4eda3b8667366c6c7b556024" target="_top" xlink:title=" ">
<polygon fill="white" stroke="#666666" points="732,-400 656,-400 656,-381 732,-381 732,-400"/>
<text text-anchor="middle" x="694" y="-388" font-family="Helvetica,sans-Serif" font-size="10.00">credits_loop</text>
</a>
</g>
</g>
<!-- Node38&#45;&gt;Node39 -->
<g id="edge52_Node000038_Node000039" class="edge">
<title>Node38&#45;&gt;Node39</title>
<g id="a_edge52_Node000038_Node000039"><a xlink:title=" ">
<path fill="none" stroke="#63b8ff" d="M798.04,-390.5C776.29,-390.5 751.85,-390.5 732.23,-390.5"/>
<polygon fill="#63b8ff" stroke="#63b8ff" points="798.15,-394 808.15,-390.5 798.15,-387 798.15,-394"/>
</a>
</g>
</g>
<!-- Node39&#45;&gt;Node27 -->
<g id="edge53_Node000039_Node000027" class="edge">
<title>Node39&#45;&gt;Node27</title>
<g id="a_edge53_Node000039_Node000027"><a xlink:title=" ">
<path fill="none" stroke="#63b8ff" d="M659.18,-377.3C632.37,-366.83 595.55,-352.45 571.52,-343.07"/>
<polygon fill="#63b8ff" stroke="#63b8ff" points="657.97,-380.58 668.56,-380.96 660.52,-374.06 657.97,-380.58"/>
</a>
</g>
</g>
<!-- Node40&#45;&gt;Node35 -->
<g id="edge58_Node000040_Node000035" class="edge">
<title>Node40&#45;&gt;Node35</title>
<g id="a_edge58_Node000040_Node000035"><a xlink:title=" ">
<path fill="none" stroke="#63b8ff" d="M1536.6,-449C1491.97,-451.82 1433.49,-453.32 1382,-447.5 1365.55,-445.64 1347.61,-441.77 1332.62,-438.01"/>
<polygon fill="#63b8ff" stroke="#63b8ff" points="1537.03,-452.48 1546.77,-448.32 1536.56,-445.5 1537.03,-452.48"/>
</a>
</g>
</g>
<!-- Node41&#45;&gt;Node4 -->
<g id="edge60_Node000041_Node000004" class="edge">
<title>Node41&#45;&gt;Node4</title>
<g id="a_edge60_Node000041_Node000004"><a xlink:title=" ">
<path fill="none" stroke="#63b8ff" d="M1557.2,-218.29C1535.23,-223.34 1509.89,-229.16 1489.1,-233.94"/>
<polygon fill="#63b8ff" stroke="#63b8ff" points="1558.08,-221.68 1567.04,-216.03 1556.51,-214.86 1558.08,-221.68"/>
</a>
</g>
</g>
<!-- Node41&#45;&gt;Node42 -->
<g id="edge61_Node000041_Node000042" class="edge">
<title>Node41&#45;&gt;Node42</title>
<g id="a_edge61_Node000041_Node000042"><a xlink:title=" ">
<path fill="none" stroke="#63b8ff" d="M1562.88,-194.32C1544.47,-189.4 1523.04,-183.68 1503.69,-178.51"/>
<polygon fill="#63b8ff" stroke="#63b8ff" points="1562.2,-197.76 1572.77,-196.96 1564.01,-190.99 1562.2,-197.76"/>
</a>
</g>
</g>
<!-- Node43 -->
<g id="Node000043" class="node">
<title>Node43</title>
<g id="a_Node000043"><a xlink:href="code__80005FD0_8c.html#aa4a9c388d068cd83d2e2a4f6c30705e4" target="_top" xlink:title=" ">
<polygon fill="white" stroke="#666666" points="1508.5,-216 1384.5,-216 1384.5,-197 1508.5,-197 1508.5,-216"/>
<text text-anchor="middle" x="1446.5" y="-204" font-family="Helvetica,sans-Serif" font-size="10.00">update_vehicle_trains</text>
</a>
</g>
</g>
<!-- Node41&#45;&gt;Node43 -->
<g id="edge63_Node000041_Node000043" class="edge">
<title>Node41&#45;&gt;Node43</title>
<g id="a_edge63_Node000041_Node000043"><a xlink:title=" ">
<path fill="none" stroke="#63b8ff" d="M1551.54,-206.5C1537.65,-206.5 1522.73,-206.5 1508.66,-206.5"/>
<polygon fill="#63b8ff" stroke="#63b8ff" points="1551.93,-210 1561.93,-206.5 1551.93,-203 1551.93,-210"/>
</a>
</g>
</g>
<!-- Node42&#45;&gt;Node24 -->
<g id="edge62_Node000042_Node000024" class="edge">
<title>Node42&#45;&gt;Node24</title>
<g id="a_edge62_Node000042_Node000024"><a xlink:title=" ">
<path fill="none" stroke="#63b8ff" d="M1386.95,-183.85C1385.24,-185.01 1383.58,-186.22 1382,-187.5 1339.76,-221.67 1312.14,-283.3 1302.65,-306.92"/>
<polygon fill="#63b8ff" stroke="#63b8ff" points="1389.08,-186.66 1395.92,-178.57 1385.53,-180.63 1389.08,-186.66"/>
</a>
</g>
</g>
<!-- Node43&#45;&gt;Node24 -->
<g id="edge64_Node000043_Node000024" class="edge">
<title>Node43&#45;&gt;Node24</title>
<g id="a_edge64_Node000043_Node000024"><a xlink:title=" ">
<path fill="none" stroke="#63b8ff" d="M1390.32,-220C1387.43,-221.36 1384.64,-222.86 1382,-224.5 1346.56,-246.54 1317.17,-288.01 1305.01,-306.8"/>
<polygon fill="#63b8ff" stroke="#63b8ff" points="1391.86,-223.15 1399.76,-216.09 1389.18,-216.68 1391.86,-223.15"/>
</a>
</g>
</g>
</g>
</svg>
