<?xml version="1.0" encoding="UTF-8" standalone="no"?>
<!DOCTYPE svg PUBLIC "-//W3C//DTD SVG 1.1//EN"
 "http://www.w3.org/Graphics/SVG/1.1/DTD/svg11.dtd">
<!-- Generated by graphviz version 2.43.0 (0)
 -->
<!-- Title: src/code_80004740.h Pages: 1 -->
<!--zoomable 335 -->

<svg id="main" version="1.1" xmlns="http://www.w3.org/2000/svg" xmlns:xlink="http://www.w3.org/1999/xlink" xml:space="preserve" onload="init(evt)">
<style type="text/css"><![CDATA[
.node, .edge {opacity: 0.7;}
.node.selected, .edge.selected {opacity: 1;}
.edge:hover path { stroke: red; }
.edge:hover polygon { stroke: red; fill: red; }
]]></style>

<defs>
  <circle id="rim" cx="0" cy="0" r="7"/>
  <circle id="rim2" cx="0" cy="0" r="3.5"/>
  <g id="zoomPlus">
    <use xlink:href="#rim" fill="#404040"><set attributeName="fill" to="#808080" begin="zoomplus.mouseover" end="zoomplus.mouseout"/></use>
    <path d="M-4,0h8M0,-4v8" fill="none" stroke="white" stroke-width="1.5" pointer-events="none"/>
  </g>
  <g id="zoomMin">
    <use xlink:href="#rim" fill="#404040"><set attributeName="fill" to="#808080" begin="zoomminus.mouseover" end="zoomminus.mouseout"/></use>
    <path d="M-4,0h8" fill="none" stroke="white" stroke-width="1.5" pointer-events="none"/>
  </g>
  <g id="arrowUp" transform="translate(30 24)">
    <use xlink:href="#rim"/>
    <path pointer-events="none" fill="none" stroke="white" stroke-width="1.5" d="M0,-3.0v7 M-2.5,-0.5L0,-3.0L2.5,-0.5"/>
  </g>
  <g id="arrowRight" transform="rotate(90) translate(36 -43)">
    <use xlink:href="#rim"/>
    <path pointer-events="none" fill="none" stroke="white" stroke-width="1.5" d="M0,-3.0v7 M-2.5,-0.5L0,-3.0L2.5,-0.5"/>
  </g>
  <g id="arrowDown" transform="rotate(180) translate(-30 -48)">
    <use xlink:href="#rim"/>
    <path pointer-events="none" fill="none" stroke="white" stroke-width="1.5" d="M0,-3.0v7 M-2.5,-0.5L0,-3.0L2.5,-0.5"/>
  </g>
  <g id="arrowLeft" transform="rotate(270) translate(-36 17)">
    <use xlink:href="#rim"/>
    <path pointer-events="none" fill="none" stroke="white" stroke-width="1.5" d="M0,-3.0v7 M-2.5,-0.5L0,-3.0L2.5,-0.5"/>
  </g>
  <g id="resetDef">
    <use xlink:href="#rim2" fill="#404040"><set attributeName="fill" to="#808080" begin="reset.mouseover" end="reset.mouseout"/></use>
  </g>
</defs>
<script type="application/ecmascript">
var viewWidth = 2429;
var viewHeight = 335;
var sectionId = 'dynsection-1';
</script>
<script type="application/ecmascript" xlink:href="svg.min.js"/>
<svg id="graph" class="graph">
<g id="viewport">
<title>src/code_80004740.h</title>
<!-- Node1 -->
<g id="Node000001" class="node">
<title>Node1</title>
<g id="a_Node000001"><a xlink:title=" ">
<polygon fill="#999999" stroke="#666666" points="1380.5,-327 1261.5,-327 1261.5,-308 1380.5,-308 1380.5,-327"/>
<text text-anchor="middle" x="1321" y="-315" font-family="Helvetica,sans-Serif" font-size="10.00">src/code_80004740.h</text>
</a>
</g>
</g>
<!-- Node2 -->
<g id="Node000002" class="node">
<title>Node2</title>
<g id="a_Node000002"><a xlink:href="koopa__troopa__beach_2course__data_8inc_8c.html" target="_top" xlink:title=" ">
<polygon fill="white" stroke="#666666" points="643.5,-272 504.5,-272 504.5,-242 643.5,-242 643.5,-272"/>
<text text-anchor="start" x="512.5" y="-260" font-family="Helvetica,sans-Serif" font-size="10.00">courses/koopa_troopa</text>
<text text-anchor="middle" x="574" y="-249" font-family="Helvetica,sans-Serif" font-size="10.00">_beach/course_data.inc.c</text>
</a>
</g>
</g>
<!-- Node1&#45;&gt;Node2 -->
<g id="edge1_Node000001_Node000002" class="edge">
<title>Node1&#45;&gt;Node2</title>
<g id="a_edge1_Node000001_Node000002"><a xlink:title=" ">
<path fill="none" stroke="#63b8ff" d="M1251.07,-314.35C1129.22,-310.04 870.22,-298.4 653,-272 649.96,-271.63 646.86,-271.22 643.73,-270.78"/>
<polygon fill="#63b8ff" stroke="#63b8ff" points="1251.25,-317.86 1261.37,-314.71 1251.5,-310.86 1251.25,-317.86"/>
</a>
</g>
</g>
<!-- Node3 -->
<g id="Node000003" class="node">
<title>Node3</title>
<g id="a_Node000003"><a xlink:href="koopa__troopa__beach_2course__data_8inc_8h.html" target="_top" xlink:title=" ">
<polygon fill="white" stroke="#666666" points="940,-272 800,-272 800,-242 940,-242 940,-272"/>
<text text-anchor="start" x="808" y="-260" font-family="Helvetica,sans-Serif" font-size="10.00">courses/koopa_troopa</text>
<text text-anchor="middle" x="870" y="-249" font-family="Helvetica,sans-Serif" font-size="10.00">_beach/course_data.inc.h</text>
</a>
</g>
</g>
<!-- Node1&#45;&gt;Node3 -->
<g id="edge2_Node000001_Node000003" class="edge">
<title>Node1&#45;&gt;Node3</title>
<g id="a_edge2_Node000001_Node000003"><a xlink:title=" ">
<path fill="none" stroke="#63b8ff" d="M1251.21,-309.26C1176.53,-301.25 1054.66,-287.42 950,-272 946.79,-271.53 943.51,-271.03 940.21,-270.51"/>
<polygon fill="#63b8ff" stroke="#63b8ff" points="1251.12,-312.77 1261.43,-310.35 1251.86,-305.81 1251.12,-312.77"/>
</a>
</g>
</g>
<!-- Node12 -->
<g id="Node000012" class="node">
<title>Node12</title>
<g id="a_Node000012"><a xlink:href="all__variables_8h.html" target="_top" xlink:title=" ">
<polygon fill="white" stroke="#666666" points="2421,-134.5 2283,-134.5 2283,-115.5 2421,-115.5 2421,-134.5"/>
<text text-anchor="middle" x="2352" y="-122.5" font-family="Helvetica,sans-Serif" font-size="10.00">src/debug/all_variables.h</text>
</a>
</g>
</g>
<!-- Node1&#45;&gt;Node12 -->
<g id="edge32_Node000001_Node000012" class="edge">
<title>Node1&#45;&gt;Node12</title>
<g id="a_edge32_Node000001_Node000012"><a xlink:title=" ">
<path fill="none" stroke="#63b8ff" d="M1371.66,-305.41C1399.81,-298.11 1434.92,-287.09 1464,-272 1483.41,-261.93 1482.7,-250.12 1503,-242 1644.08,-185.55 1692.3,-225.51 1843,-206 2035.19,-181.12 2082.84,-171.79 2274,-140 2284.18,-138.31 2295.09,-136.41 2305.43,-134.56"/>
<polygon fill="#63b8ff" stroke="#63b8ff" points="1370.48,-302.1 1361.63,-307.93 1372.18,-308.88 1370.48,-302.1"/>
</a>
</g>
</g>
<!-- Node16 -->
<g id="Node000016" class="node">
<title>Node16</title>
<g id="a_Node000016"><a xlink:href="render__objects_8c.html" target="_top" xlink:title=" ">
<polygon fill="white" stroke="#666666" points="1116,-134.5 1002,-134.5 1002,-115.5 1116,-115.5 1116,-134.5"/>
<text text-anchor="middle" x="1059" y="-122.5" font-family="Helvetica,sans-Serif" font-size="10.00">src/render_objects.c</text>
</a>
</g>
</g>
<!-- Node1&#45;&gt;Node16 -->
<g id="edge33_Node000001_Node000016" class="edge">
<title>Node1&#45;&gt;Node16</title>
<g id="a_edge33_Node000001_Node000016"><a xlink:title=" ">
<path fill="none" stroke="#63b8ff" d="M1305.52,-300.23C1288.25,-283.07 1258.68,-256.54 1228,-242 1158.6,-209.11 1107.32,-265.69 1059,-206 1042.22,-185.27 1050.61,-150.64 1055.85,-134.61"/>
<polygon fill="#63b8ff" stroke="#63b8ff" points="1303.46,-303.12 1312.96,-307.8 1308.46,-298.22 1303.46,-303.12"/>
</a>
</g>
</g>
<!-- Node19 -->
<g id="Node000019" class="node">
<title>Node19</title>
<g id="a_Node000019"><a xlink:href="rainbow__road_2course__data_8inc_8c.html" target="_top" xlink:title=" ">
<polygon fill="white" stroke="#666666" points="1634.5,-272 1511.5,-272 1511.5,-242 1634.5,-242 1634.5,-272"/>
<text text-anchor="start" x="1519.5" y="-260" font-family="Helvetica,sans-Serif" font-size="10.00">courses/rainbow_road</text>
<text text-anchor="middle" x="1573" y="-249" font-family="Helvetica,sans-Serif" font-size="10.00">/course_data.inc.c</text>
</a>
</g>
</g>
<!-- Node1&#45;&gt;Node19 -->
<g id="edge21_Node000001_Node000019" class="edge">
<title>Node1&#45;&gt;Node19</title>
<g id="a_edge21_Node000001_Node000019"><a xlink:title=" ">
<path fill="none" stroke="#63b8ff" d="M1367.59,-305.68C1408.39,-296.21 1467.93,-282.39 1512.42,-272.06"/>
<polygon fill="#63b8ff" stroke="#63b8ff" points="1366.59,-302.32 1357.64,-307.99 1368.18,-309.14 1366.59,-302.32"/>
</a>
</g>
</g>
<!-- Node20 -->
<g id="Node000020" class="node">
<title>Node20</title>
<g id="a_Node000020"><a xlink:href="rainbow__road_2course__data_8inc_8h.html" target="_top" xlink:title=" ">
<polygon fill="white" stroke="#666666" points="1081.5,-272 958.5,-272 958.5,-242 1081.5,-242 1081.5,-272"/>
<text text-anchor="start" x="966.5" y="-260" font-family="Helvetica,sans-Serif" font-size="10.00">courses/rainbow_road</text>
<text text-anchor="middle" x="1020" y="-249" font-family="Helvetica,sans-Serif" font-size="10.00">/course_data.inc.h</text>
</a>
</g>
</g>
<!-- Node1&#45;&gt;Node20 -->
<g id="edge22_Node000001_Node000020" class="edge">
<title>Node1&#45;&gt;Node20</title>
<g id="a_edge22_Node000001_Node000020"><a xlink:title=" ">
<path fill="none" stroke="#63b8ff" d="M1266.58,-306.03C1219.97,-297.04 1151.06,-283.73 1091,-272 1087.92,-271.4 1084.76,-270.78 1081.57,-270.15"/>
<polygon fill="#63b8ff" stroke="#63b8ff" points="1265.99,-309.48 1276.47,-307.93 1267.31,-302.6 1265.99,-309.48"/>
</a>
</g>
</g>
<!-- Node21 -->
<g id="Node000021" class="node">
<title>Node21</title>
<g id="a_Node000021"><a xlink:href="sherbet__land_2course__data_8inc_8c.html" target="_top" xlink:title=" ">
<polygon fill="white" stroke="#666666" points="1773,-272 1653,-272 1653,-242 1773,-242 1773,-272"/>
<text text-anchor="start" x="1661" y="-260" font-family="Helvetica,sans-Serif" font-size="10.00">courses/sherbet_land</text>
<text text-anchor="middle" x="1713" y="-249" font-family="Helvetica,sans-Serif" font-size="10.00">/course_data.inc.c</text>
</a>
</g>
</g>
<!-- Node1&#45;&gt;Node21 -->
<g id="edge24_Node000001_Node000021" class="edge">
<title>Node1&#45;&gt;Node21</title>
<g id="a_edge24_Node000001_Node000021"><a xlink:title=" ">
<path fill="none" stroke="#63b8ff" d="M1390.92,-308.16C1456.47,-300.04 1557.13,-286.78 1644,-272 1646.89,-271.51 1649.85,-270.99 1652.83,-270.44"/>
<polygon fill="#63b8ff" stroke="#63b8ff" points="1390.2,-304.73 1380.7,-309.42 1391.06,-311.67 1390.2,-304.73"/>
</a>
</g>
</g>
<!-- Node22 -->
<g id="Node000022" class="node">
<title>Node22</title>
<g id="a_Node000022"><a xlink:href="sherbet__land_2course__data_8inc_8h.html" target="_top" xlink:title=" ">
<polygon fill="white" stroke="#666666" points="782,-272 662,-272 662,-242 782,-242 782,-272"/>
<text text-anchor="start" x="670" y="-260" font-family="Helvetica,sans-Serif" font-size="10.00">courses/sherbet_land</text>
<text text-anchor="middle" x="722" y="-249" font-family="Helvetica,sans-Serif" font-size="10.00">/course_data.inc.h</text>
</a>
</g>
</g>
<!-- Node1&#45;&gt;Node22 -->
<g id="edge25_Node000001_Node000022" class="edge">
<title>Node1&#45;&gt;Node22</title>
<g id="a_edge25_Node000001_Node000022"><a xlink:title=" ">
<path fill="none" stroke="#63b8ff" d="M1250.99,-313.22C1149.29,-307.87 954.93,-295.43 791,-272 788.1,-271.58 785.13,-271.12 782.14,-270.63"/>
<polygon fill="#63b8ff" stroke="#63b8ff" points="1250.96,-316.73 1261.13,-313.75 1251.33,-309.74 1250.96,-316.73"/>
</a>
</g>
</g>
<!-- Node24 -->
<g id="Node000024" class="node">
<title>Node24</title>
<g id="a_Node000024"><a xlink:href="yoshi__valley_2course__data_8inc_8c.html" target="_top" xlink:title=" ">
<polygon fill="white" stroke="#666666" points="1910.5,-272 1791.5,-272 1791.5,-242 1910.5,-242 1910.5,-272"/>
<text text-anchor="start" x="1799.5" y="-260" font-family="Helvetica,sans-Serif" font-size="10.00">courses/yoshi_valley</text>
<text text-anchor="middle" x="1851" y="-249" font-family="Helvetica,sans-Serif" font-size="10.00">/course_data.inc.c</text>
</a>
</g>
</g>
<!-- Node1&#45;&gt;Node24 -->
<g id="edge28_Node000001_Node000024" class="edge">
<title>Node1&#45;&gt;Node24</title>
<g id="a_edge28_Node000001_Node000024"><a xlink:title=" ">
<path fill="none" stroke="#63b8ff" d="M1390.69,-312.04C1481.21,-305.73 1643.98,-292.61 1782,-272 1785.02,-271.55 1788.11,-271.05 1791.23,-270.52"/>
<polygon fill="#63b8ff" stroke="#63b8ff" points="1390.29,-308.56 1380.55,-312.74 1390.77,-315.54 1390.29,-308.56"/>
</a>
</g>
</g>
<!-- Node25 -->
<g id="Node000025" class="node">
<title>Node25</title>
<g id="a_Node000025"><a xlink:href="yoshi__valley_2course__data_8inc_8h.html" target="_top" xlink:title=" ">
<polygon fill="white" stroke="#666666" points="1218.5,-272 1099.5,-272 1099.5,-242 1218.5,-242 1218.5,-272"/>
<text text-anchor="start" x="1107.5" y="-260" font-family="Helvetica,sans-Serif" font-size="10.00">courses/yoshi_valley</text>
<text text-anchor="middle" x="1159" y="-249" font-family="Helvetica,sans-Serif" font-size="10.00">/course_data.inc.h</text>
</a>
</g>
</g>
<!-- Node1&#45;&gt;Node25 -->
<g id="edge29_Node000001_Node000025" class="edge">
<title>Node1&#45;&gt;Node25</title>
<g id="a_edge29_Node000001_Node000025"><a xlink:title=" ">
<path fill="none" stroke="#63b8ff" d="M1288,-304.58C1261.92,-295.16 1225.46,-282 1197.95,-272.06"/>
<polygon fill="#63b8ff" stroke="#63b8ff" points="1286.85,-307.89 1297.44,-307.99 1289.23,-301.31 1286.85,-307.89"/>
</a>
</g>
</g>
<!-- Node26 -->
<g id="Node000026" class="node">
<title>Node26</title>
<g id="a_Node000026"><a xlink:href="code__80004740_8c.html" target="_top" xlink:title=" ">
<polygon fill="white" stroke="#666666" points="2047.5,-266.5 1928.5,-266.5 1928.5,-247.5 2047.5,-247.5 2047.5,-266.5"/>
<text text-anchor="middle" x="1988" y="-254.5" font-family="Helvetica,sans-Serif" font-size="10.00">src/code_80004740.c</text>
</a>
</g>
</g>
<!-- Node1&#45;&gt;Node26 -->
<g id="edge31_Node000001_Node000026" class="edge">
<title>Node1&#45;&gt;Node26</title>
<g id="a_edge31_Node000001_Node000026"><a xlink:title=" ">
<path fill="none" stroke="#63b8ff" d="M1390.94,-314.23C1503.05,-309.93 1729.71,-298.54 1920,-272 1930.15,-270.58 1941.05,-268.57 1951.09,-266.5"/>
<polygon fill="#63b8ff" stroke="#63b8ff" points="1390.65,-310.74 1380.78,-314.61 1390.91,-317.73 1390.65,-310.74"/>
</a>
</g>
</g>
<!-- Node27 -->
<g id="Node000027" class="node">
<title>Node27</title>
<g id="a_Node000027"><a xlink:href="update__objects_8h.html" target="_top" xlink:title=" ">
<polygon fill="white" stroke="#666666" points="1454.5,-266.5 1337.5,-266.5 1337.5,-247.5 1454.5,-247.5 1454.5,-266.5"/>
<text text-anchor="middle" x="1396" y="-254.5" font-family="Helvetica,sans-Serif" font-size="10.00">src/update_objects.h</text>
</a>
</g>
</g>
<!-- Node1&#45;&gt;Node27 -->
<g id="edge34_Node000001_Node000027" class="edge">
<title>Node1&#45;&gt;Node27</title>
<g id="a_edge34_Node000001_Node000027"><a xlink:title=" ">
<path fill="none" stroke="#63b8ff" d="M1340.18,-301.54C1354.35,-290.49 1373.13,-275.84 1384.89,-266.67"/>
<polygon fill="#63b8ff" stroke="#63b8ff" points="1337.8,-298.96 1332.07,-307.87 1342.1,-304.48 1337.8,-298.96"/>
</a>
</g>
</g>
<!-- Node4 -->
<g id="Node000004" class="node">
<title>Node4</title>
<g id="a_Node000004"><a xlink:href="all__course__data_8h.html" target="_top" xlink:title=" ">
<polygon fill="white" stroke="#666666" points="1011.5,-206 904.5,-206 904.5,-176 1011.5,-176 1011.5,-206"/>
<text text-anchor="start" x="912.5" y="-194" font-family="Helvetica,sans-Serif" font-size="10.00">courses/all_course</text>
<text text-anchor="middle" x="958" y="-183" font-family="Helvetica,sans-Serif" font-size="10.00">_data.h</text>
</a>
</g>
</g>
<!-- Node3&#45;&gt;Node4 -->
<g id="edge3_Node000003_Node000004" class="edge">
<title>Node3&#45;&gt;Node4</title>
<g id="a_edge3_Node000003_Node000004"><a xlink:title=" ">
<path fill="none" stroke="#63b8ff" d="M897.84,-235.75C911.07,-226.13 926.57,-214.86 938.52,-206.16"/>
<polygon fill="#63b8ff" stroke="#63b8ff" points="895.56,-233.08 889.53,-241.8 899.68,-238.75 895.56,-233.08"/>
</a>
</g>
</g>
<!-- Node18 -->
<g id="Node000018" class="node">
<title>Node18</title>
<g id="a_Node000018"><a xlink:href="palm__tree_2render_8inc_8c.html" target="_top" xlink:title=" ">
<polygon fill="white" stroke="#666666" points="435,-206 319,-206 319,-176 435,-176 435,-206"/>
<text text-anchor="start" x="327" y="-194" font-family="Helvetica,sans-Serif" font-size="10.00">src/actors/palm_tree</text>
<text text-anchor="middle" x="377" y="-183" font-family="Helvetica,sans-Serif" font-size="10.00">/render.inc.c</text>
</a>
</g>
</g>
<!-- Node3&#45;&gt;Node18 -->
<g id="edge19_Node000003_Node000018" class="edge">
<title>Node3&#45;&gt;Node18</title>
<g id="a_edge19_Node000003_Node000018"><a xlink:title=" ">
<path fill="none" stroke="#63b8ff" d="M789.88,-241.88C657.19,-222.35 513.33,-206.29 435.07,-197.99"/>
<polygon fill="#63b8ff" stroke="#63b8ff" points="789.42,-245.35 799.82,-243.36 790.44,-238.43 789.42,-245.35"/>
</a>
</g>
</g>
<!-- Node5 -->
<g id="Node000005" class="node">
<title>Node5</title>
<g id="a_Node000005"><a xlink:href="paddle__boat_2render_8inc_8c.html" target="_top" xlink:title=" ">
<polygon fill="white" stroke="#666666" points="479.5,-140 352.5,-140 352.5,-110 479.5,-110 479.5,-140"/>
<text text-anchor="start" x="360.5" y="-128" font-family="Helvetica,sans-Serif" font-size="10.00">src/actors/paddle_boat</text>
<text text-anchor="middle" x="416" y="-117" font-family="Helvetica,sans-Serif" font-size="10.00">/render.inc.c</text>
</a>
</g>
</g>
<!-- Node4&#45;&gt;Node5 -->
<g id="edge4_Node000004_Node000005" class="edge">
<title>Node4&#45;&gt;Node5</title>
<g id="a_edge4_Node000004_Node000005"><a xlink:title=" ">
<path fill="none" stroke="#63b8ff" d="M894.27,-184.9C803.85,-177.28 633.27,-161.49 489,-140 485.94,-139.54 482.81,-139.05 479.65,-138.53"/>
<polygon fill="#63b8ff" stroke="#63b8ff" points="894.1,-188.4 904.36,-185.74 894.69,-181.42 894.1,-188.4"/>
</a>
</g>
</g>
<!-- Node6 -->
<g id="Node000006" class="node">
<title>Node6</title>
<g id="a_Node000006"><a xlink:href="actors_8c.html" target="_top" xlink:title=" ">
<polygon fill="white" stroke="#666666" points="468.5,-74 363.5,-74 363.5,-55 468.5,-55 468.5,-74"/>
<text text-anchor="middle" x="416" y="-62" font-family="Helvetica,sans-Serif" font-size="10.00">src/racing/actors.c</text>
</a>
</g>
</g>
<!-- Node4&#45;&gt;Node6 -->
<g id="edge15_Node000004_Node000006" class="edge">
<title>Node4&#45;&gt;Node6</title>
<g id="a_edge15_Node000004_Node000006"><a xlink:title=" ">
<path fill="none" stroke="#63b8ff" d="M965.08,-165.79C968.65,-148.02 969.73,-124.54 956,-110 922.98,-75.03 598.13,-67.54 468.76,-65.93"/>
<polygon fill="#63b8ff" stroke="#63b8ff" points="961.62,-165.2 962.71,-175.74 968.43,-166.82 961.62,-165.2"/>
</a>
</g>
</g>
<!-- Node7 -->
<g id="Node000007" class="node">
<title>Node7</title>
<g id="a_Node000007"><a xlink:href="tree_2render_8inc_8c.html" target="_top" xlink:title=" ">
<polygon fill="white" stroke="#666666" points="644,-134.5 498,-134.5 498,-115.5 644,-115.5 644,-134.5"/>
<text text-anchor="middle" x="571" y="-122.5" font-family="Helvetica,sans-Serif" font-size="10.00">src/actors/tree/render.inc.c</text>
</a>
</g>
</g>
<!-- Node4&#45;&gt;Node7 -->
<g id="edge6_Node000004_Node000007" class="edge">
<title>Node4&#45;&gt;Node7</title>
<g id="a_edge6_Node000004_Node000007"><a xlink:title=" ">
<path fill="none" stroke="#63b8ff" d="M894.5,-179.63C832.99,-169.57 737.09,-153.84 654,-140 643.48,-138.25 632.21,-136.36 621.47,-134.55"/>
<polygon fill="#63b8ff" stroke="#63b8ff" points="894.01,-183.1 904.45,-181.26 895.14,-176.19 894.01,-183.1"/>
</a>
</g>
</g>
<!-- Node8 -->
<g id="Node000008" class="node">
<title>Node8</title>
<g id="a_Node000008"><a xlink:href="code__800029B0_8c.html" target="_top" xlink:title=" ">
<polygon fill="white" stroke="#666666" points="1390.5,-134.5 1271.5,-134.5 1271.5,-115.5 1390.5,-115.5 1390.5,-134.5"/>
<text text-anchor="middle" x="1331" y="-122.5" font-family="Helvetica,sans-Serif" font-size="10.00">src/code_800029B0.c</text>
</a>
</g>
</g>
<!-- Node4&#45;&gt;Node8 -->
<g id="edge8_Node000004_Node000008" class="edge">
<title>Node4&#45;&gt;Node8</title>
<g id="a_edge8_Node000004_Node000008"><a xlink:title=" ">
<path fill="none" stroke="#63b8ff" d="M1021.55,-180.35C1083.33,-170.79 1179.78,-155.38 1263,-140 1272.01,-138.34 1281.66,-136.42 1290.78,-134.56"/>
<polygon fill="#63b8ff" stroke="#63b8ff" points="1020.91,-176.91 1011.56,-181.89 1021.97,-183.83 1020.91,-176.91"/>
</a>
</g>
</g>
<!-- Node9 -->
<g id="Node000009" class="node">
<title>Node9</title>
<g id="a_Node000009"><a xlink:href="code__80005FD0_8c.html" target="_top" xlink:title=" ">
<polygon fill="white" stroke="#666666" points="334,-134.5 214,-134.5 214,-115.5 334,-115.5 334,-134.5"/>
<text text-anchor="middle" x="274" y="-122.5" font-family="Helvetica,sans-Serif" font-size="10.00">src/code_80005FD0.c</text>
</a>
</g>
</g>
<!-- Node4&#45;&gt;Node9 -->
<g id="edge9_Node000004_Node000009" class="edge">
<title>Node4&#45;&gt;Node9</title>
<g id="a_edge9_Node000004_Node000009"><a xlink:title=" ">
<path fill="none" stroke="#63b8ff" d="M893.95,-185.77C758.76,-176.67 448.05,-154.87 343,-140 332.83,-138.56 321.91,-136.56 311.82,-134.52"/>
<polygon fill="#63b8ff" stroke="#63b8ff" points="893.94,-189.27 904.15,-186.45 894.41,-182.29 893.94,-189.27"/>
</a>
</g>
</g>
<!-- Node10 -->
<g id="Node000010" class="node">
<title>Node10</title>
<g id="a_Node000010"><a xlink:href="code__8006E9C0_8c.html" target="_top" xlink:title=" ">
<polygon fill="white" stroke="#666666" points="1253.5,-134.5 1134.5,-134.5 1134.5,-115.5 1253.5,-115.5 1253.5,-134.5"/>
<text text-anchor="middle" x="1194" y="-122.5" font-family="Helvetica,sans-Serif" font-size="10.00">src/code_8006E9C0.c</text>
</a>
</g>
</g>
<!-- Node4&#45;&gt;Node10 -->
<g id="edge10_Node000004_Node000010" class="edge">
<title>Node4&#45;&gt;Node10</title>
<g id="a_edge10_Node000004_Node000010"><a xlink:title=" ">
<path fill="none" stroke="#63b8ff" d="M1019.63,-173.29C1065.51,-160.84 1126.24,-144.37 1162.59,-134.52"/>
<polygon fill="#63b8ff" stroke="#63b8ff" points="1018.53,-169.96 1009.79,-175.95 1020.36,-176.72 1018.53,-169.96"/>
</a>
</g>
</g>
<!-- Node11 -->
<g id="Node000011" class="node">
<title>Node11</title>
<g id="a_Node000011"><a xlink:href="path__spawn__data_8c.html" target="_top" xlink:title=" ">
<polygon fill="white" stroke="#666666" points="779.5,-140 662.5,-140 662.5,-110 779.5,-110 779.5,-140"/>
<text text-anchor="start" x="670.5" y="-128" font-family="Helvetica,sans-Serif" font-size="10.00">src/data/path_spawn</text>
<text text-anchor="middle" x="721" y="-117" font-family="Helvetica,sans-Serif" font-size="10.00">_data.c</text>
</a>
</g>
</g>
<!-- Node4&#45;&gt;Node11 -->
<g id="edge11_Node000004_Node000011" class="edge">
<title>Node4&#45;&gt;Node11</title>
<g id="a_edge11_Node000004_Node000011"><a xlink:title=" ">
<path fill="none" stroke="#63b8ff" d="M895.99,-173.25C857.7,-162.91 809.14,-149.8 772.89,-140.01"/>
<polygon fill="#63b8ff" stroke="#63b8ff" points="895.42,-176.73 905.99,-175.95 897.25,-169.97 895.42,-176.73"/>
</a>
</g>
</g>
<!-- Node4&#45;&gt;Node12 -->
<g id="edge12_Node000004_Node000012" class="edge">
<title>Node4&#45;&gt;Node12</title>
<g id="a_edge12_Node000004_Node000012"><a xlink:title=" ">
<path fill="none" stroke="#63b8ff" d="M1021.81,-180.09C1034.12,-178.48 1046.94,-177.01 1059,-176 1597.35,-130.85 1736.66,-195.87 2274,-140 2286.04,-138.75 2299.02,-136.7 2310.87,-134.56"/>
<polygon fill="#63b8ff" stroke="#63b8ff" points="1021.05,-176.66 1011.61,-181.47 1021.99,-183.6 1021.05,-176.66"/>
</a>
</g>
</g>
<!-- Node15 -->
<g id="Node000015" class="node">
<title>Node15</title>
<g id="a_Node000015"><a xlink:href="render__courses_8c.html" target="_top" xlink:title=" ">
<polygon fill="white" stroke="#666666" points="946.5,-134.5 797.5,-134.5 797.5,-115.5 946.5,-115.5 946.5,-134.5"/>
<text text-anchor="middle" x="872" y="-122.5" font-family="Helvetica,sans-Serif" font-size="10.00">src/racing/render_courses.c</text>
</a>
</g>
</g>
<!-- Node4&#45;&gt;Node15 -->
<g id="edge16_Node000004_Node000015" class="edge">
<title>Node4&#45;&gt;Node15</title>
<g id="a_edge16_Node000004_Node000015"><a xlink:title=" ">
<path fill="none" stroke="#63b8ff" d="M930.57,-169.58C914.83,-157.87 895.88,-143.77 883.88,-134.84"/>
<polygon fill="#63b8ff" stroke="#63b8ff" points="928.8,-172.63 938.91,-175.8 932.98,-167.02 928.8,-172.63"/>
</a>
</g>
</g>
<!-- Node4&#45;&gt;Node16 -->
<g id="edge17_Node000004_Node000016" class="edge">
<title>Node4&#45;&gt;Node16</title>
<g id="a_edge17_Node000004_Node000016"><a xlink:title=" ">
<path fill="none" stroke="#63b8ff" d="M988.99,-170.36C1007.83,-158.42 1030.95,-143.77 1045.34,-134.66"/>
<polygon fill="#63b8ff" stroke="#63b8ff" points="986.99,-167.49 980.42,-175.8 990.74,-173.4 986.99,-167.49"/>
</a>
</g>
</g>
<!-- Node17 -->
<g id="Node000017" class="node">
<title>Node17</title>
<g id="a_Node000017"><a xlink:href="update__objects_8c.html" target="_top" xlink:title=" ">
<polygon fill="white" stroke="#666666" points="1525,-134.5 1409,-134.5 1409,-115.5 1525,-115.5 1525,-134.5"/>
<text text-anchor="middle" x="1467" y="-122.5" font-family="Helvetica,sans-Serif" font-size="10.00">src/update_objects.c</text>
</a>
</g>
</g>
<!-- Node4&#45;&gt;Node17 -->
<g id="edge18_Node000004_Node000017" class="edge">
<title>Node4&#45;&gt;Node17</title>
<g id="a_edge18_Node000004_Node000017"><a xlink:title=" ">
<path fill="none" stroke="#63b8ff" d="M1021.88,-180.82C1034.19,-179.15 1046.99,-177.47 1059,-176 1210.28,-157.54 1249.44,-163.62 1400,-140 1409.63,-138.49 1419.96,-136.51 1429.56,-134.52"/>
<polygon fill="#63b8ff" stroke="#63b8ff" points="1021.11,-177.4 1011.68,-182.23 1022.07,-184.33 1021.11,-177.4"/>
</a>
</g>
</g>
<!-- Node5&#45;&gt;Node6 -->
<g id="edge5_Node000005_Node000006" class="edge">
<title>Node5&#45;&gt;Node6</title>
<g id="a_edge5_Node000005_Node000006"><a xlink:title=" ">
<path fill="none" stroke="#63b8ff" d="M416,-99.75C416,-90.72 416,-81.03 416,-74.27"/>
<polygon fill="#63b8ff" stroke="#63b8ff" points="412.5,-99.84 416,-109.84 419.5,-99.84 412.5,-99.84"/>
</a>
</g>
</g>
<!-- Node7&#45;&gt;Node6 -->
<g id="edge7_Node000007_Node000006" class="edge">
<title>Node7&#45;&gt;Node6</title>
<g id="a_edge7_Node000007_Node000006"><a xlink:title=" ">
<path fill="none" stroke="#63b8ff" d="M538.88,-111.88C508.92,-100.57 464.98,-83.99 438.57,-74.02"/>
<polygon fill="#63b8ff" stroke="#63b8ff" points="537.87,-115.24 548.46,-115.49 540.34,-108.69 537.87,-115.24"/>
</a>
</g>
</g>
<!-- Node13 -->
<g id="Node000013" class="node">
<title>Node13</title>
<g id="a_Node000013"><a xlink:href="debug_8inc_8c.html" target="_top" xlink:title=" ">
<polygon fill="white" stroke="#666666" points="2413,-74 2291,-74 2291,-55 2413,-55 2413,-74"/>
<text text-anchor="middle" x="2352" y="-62" font-family="Helvetica,sans-Serif" font-size="10.00">src/debug/debug.inc.c</text>
</a>
</g>
</g>
<!-- Node12&#45;&gt;Node13 -->
<g id="edge13_Node000012_Node000013" class="edge">
<title>Node12&#45;&gt;Node13</title>
<g id="a_edge13_Node000012_Node000013"><a xlink:title=" ">
<path fill="none" stroke="#63b8ff" d="M2352,-105.16C2352,-94.74 2352,-82.3 2352,-74.17"/>
<polygon fill="#63b8ff" stroke="#63b8ff" points="2348.5,-105.37 2352,-115.37 2355.5,-105.37 2348.5,-105.37"/>
</a>
</g>
</g>
<!-- Node14 -->
<g id="Node000014" class="node">
<title>Node14</title>
<g id="a_Node000014"><a xlink:href="debug_8c.html" target="_top" xlink:title=" ">
<polygon fill="white" stroke="#666666" points="2404.5,-19 2299.5,-19 2299.5,0 2404.5,0 2404.5,-19"/>
<text text-anchor="middle" x="2352" y="-7" font-family="Helvetica,sans-Serif" font-size="10.00">src/debug/debug.c</text>
</a>
</g>
</g>
<!-- Node13&#45;&gt;Node14 -->
<g id="edge14_Node000013_Node000014" class="edge">
<title>Node13&#45;&gt;Node14</title>
<g id="a_edge14_Node000013_Node000014"><a xlink:title=" ">
<path fill="none" stroke="#63b8ff" d="M2352,-44.66C2352,-35.93 2352,-25.99 2352,-19.09"/>
<polygon fill="#63b8ff" stroke="#63b8ff" points="2348.5,-44.75 2352,-54.75 2355.5,-44.75 2348.5,-44.75"/>
</a>
</g>
</g>
<!-- Node18&#45;&gt;Node6 -->
<g id="edge20_Node000018_Node000006" class="edge">
<title>Node18&#45;&gt;Node6</title>
<g id="a_edge20_Node000018_Node000006"><a xlink:title=" ">
<path fill="none" stroke="#63b8ff" d="M308.68,-181.97C247.38,-171.97 171.79,-150.95 205,-110 224.57,-85.87 307.48,-74.32 363.36,-69.18"/>
<polygon fill="#63b8ff" stroke="#63b8ff" points="308.34,-185.46 318.76,-183.54 309.42,-178.54 308.34,-185.46"/>
</a>
</g>
</g>
<!-- Node20&#45;&gt;Node4 -->
<g id="edge23_Node000020_Node000004" class="edge">
<title>Node20&#45;&gt;Node4</title>
<g id="a_edge23_Node000020_Node000004"><a xlink:title=" ">
<path fill="none" stroke="#63b8ff" d="M999.04,-234.37C990.03,-225.06 979.74,-214.44 971.72,-206.16"/>
<polygon fill="#63b8ff" stroke="#63b8ff" points="996.77,-237.05 1006.24,-241.8 1001.8,-232.18 996.77,-237.05"/>
</a>
</g>
</g>
<!-- Node22&#45;&gt;Node4 -->
<g id="edge26_Node000022_Node000004" class="edge">
<title>Node22&#45;&gt;Node4</title>
<g id="a_edge26_Node000022_Node000004"><a xlink:title=" ">
<path fill="none" stroke="#63b8ff" d="M783.75,-239.25C821.88,-228.91 870.24,-215.8 906.33,-206.01"/>
<polygon fill="#63b8ff" stroke="#63b8ff" points="782.53,-235.96 773.79,-241.95 784.36,-242.72 782.53,-235.96"/>
</a>
</g>
</g>
<!-- Node23 -->
<g id="Node000023" class="node">
<title>Node23</title>
<g id="a_Node000023"><a xlink:href="sherbet__land_2course__offsets_8inc_8c.html" target="_top" xlink:title=" ">
<polygon fill="white" stroke="#666666" points="120,-206 0,-206 0,-176 120,-176 120,-206"/>
<text text-anchor="start" x="8" y="-194" font-family="Helvetica,sans-Serif" font-size="10.00">courses/sherbet_land</text>
<text text-anchor="middle" x="60" y="-183" font-family="Helvetica,sans-Serif" font-size="10.00">/course_offsets.inc.c</text>
</a>
</g>
</g>
<!-- Node22&#45;&gt;Node23 -->
<g id="edge27_Node000022_Node000023" class="edge">
<title>Node22&#45;&gt;Node23</title>
<g id="a_edge27_Node000022_Node000023"><a xlink:title=" ">
<path fill="none" stroke="#63b8ff" d="M651.86,-241.98C422.13,-211.63 360.08,-235.12 134,-206 129.46,-205.42 124.78,-204.73 120.08,-203.98"/>
<polygon fill="#63b8ff" stroke="#63b8ff" points="651.49,-245.46 661.87,-243.32 652.42,-238.52 651.49,-245.46"/>
</a>
</g>
</g>
<!-- Node25&#45;&gt;Node4 -->
<g id="edge30_Node000025_Node000004" class="edge">
<title>Node25&#45;&gt;Node4</title>
<g id="a_edge30_Node000025_Node000004"><a xlink:title=" ">
<path fill="none" stroke="#63b8ff" d="M1105.16,-238.86C1072.88,-228.58 1032.36,-215.68 1002.01,-206.01"/>
<polygon fill="#63b8ff" stroke="#63b8ff" points="1104.3,-242.26 1114.89,-241.95 1106.42,-235.59 1104.3,-242.26"/>
</a>
</g>
</g>
<!-- Node27&#45;&gt;Node6 -->
<g id="edge51_Node000027_Node000006" class="edge">
<title>Node27&#45;&gt;Node6</title>
<g id="a_edge51_Node000027_Node000006"><a xlink:title=" ">
<path fill="none" stroke="#63b8ff" d="M1327.27,-249.59C1296.87,-246.93 1260.68,-244 1228,-242 1024.23,-229.52 506.41,-261.71 310,-206 252.56,-189.71 223.11,-191.55 193,-140 186.28,-128.49 184.54,-120.31 193,-110 214.12,-84.24 304.3,-73.11 363.31,-68.51"/>
<polygon fill="#63b8ff" stroke="#63b8ff" points="1327.08,-253.08 1337.35,-250.48 1327.69,-246.11 1327.08,-253.08"/>
</a>
</g>
</g>
<!-- Node27&#45;&gt;Node9 -->
<g id="edge35_Node000027_Node000009" class="edge">
<title>Node27&#45;&gt;Node9</title>
<g id="a_edge35_Node000027_Node000009"><a xlink:title=" ">
<path fill="none" stroke="#63b8ff" d="M1327.26,-249.55C1230.84,-240.4 1049.95,-222.88 896,-206 649.95,-179.02 587.38,-179.31 343,-140 333.35,-138.45 322.99,-136.5 313.31,-134.55"/>
<polygon fill="#63b8ff" stroke="#63b8ff" points="1327.17,-253.05 1337.46,-250.51 1327.83,-246.08 1327.17,-253.05"/>
</a>
</g>
</g>
<!-- Node27&#45;&gt;Node10 -->
<g id="edge37_Node000027_Node000010" class="edge">
<title>Node27&#45;&gt;Node10</title>
<g id="a_edge37_Node000027_Node000010"><a xlink:title=" ">
<path fill="none" stroke="#63b8ff" d="M1406.27,-238.3C1415,-220.66 1424.08,-193.71 1410,-176 1407.23,-172.52 1295.66,-147.96 1233.99,-134.6"/>
<polygon fill="#63b8ff" stroke="#63b8ff" points="1402.99,-237.01 1401.35,-247.47 1409.16,-240.32 1402.99,-237.01"/>
</a>
</g>
</g>
<!-- Node27&#45;&gt;Node12 -->
<g id="edge50_Node000027_Node000012" class="edge">
<title>Node27&#45;&gt;Node12</title>
<g id="a_edge50_Node000027_Node000012"><a xlink:title=" ">
<path fill="none" stroke="#63b8ff" d="M1449.98,-245.59C1456.39,-244.37 1462.84,-243.15 1469,-242 1556.92,-225.58 1585.25,-242.29 1667,-206 1686.99,-197.13 1685.53,-183.69 1706,-176 1824.39,-131.51 2148.44,-155.2 2274,-140 2285.61,-138.59 2298.11,-136.58 2309.63,-134.51"/>
<polygon fill="#63b8ff" stroke="#63b8ff" points="1449.16,-242.18 1439.99,-247.49 1450.47,-249.06 1449.16,-242.18"/>
</a>
</g>
</g>
<!-- Node27&#45;&gt;Node16 -->
<g id="edge54_Node000027_Node000016" class="edge">
<title>Node27&#45;&gt;Node16</title>
<g id="a_edge54_Node000027_Node000016"><a xlink:title=" ">
<path fill="none" stroke="#63b8ff" d="M1397.1,-237.41C1397.1,-219.03 1393.94,-191.46 1377,-176 1335.39,-138 1181.5,-149.77 1126,-140 1116.87,-138.39 1107.09,-136.47 1097.89,-134.56"/>
<polygon fill="#63b8ff" stroke="#63b8ff" points="1393.6,-237.38 1396.8,-247.48 1400.6,-237.59 1393.6,-237.38"/>
</a>
</g>
</g>
<!-- Node27&#45;&gt;Node17 -->
<g id="edge55_Node000027_Node000017" class="edge">
<title>Node27&#45;&gt;Node17</title>
<g id="a_edge55_Node000027_Node000017"><a xlink:title=" ">
<path fill="none" stroke="#63b8ff" d="M1416.58,-240.99C1427.47,-232.01 1440.18,-219.69 1448,-206 1461.46,-182.45 1465.4,-149.79 1466.55,-134.51"/>
<polygon fill="#63b8ff" stroke="#63b8ff" points="1414.41,-238.25 1408.71,-247.18 1418.73,-243.75 1414.41,-238.25"/>
</a>
</g>
</g>
<!-- Node28 -->
<g id="Node000028" class="node">
<title>Node28</title>
<g id="a_Node000028"><a xlink:href="code__80057C60_8c.html" target="_top" xlink:title=" ">
<polygon fill="white" stroke="#666666" points="1662.5,-134.5 1543.5,-134.5 1543.5,-115.5 1662.5,-115.5 1662.5,-134.5"/>
<text text-anchor="middle" x="1603" y="-122.5" font-family="Helvetica,sans-Serif" font-size="10.00">src/code_80057C60.c</text>
</a>
</g>
</g>
<!-- Node27&#45;&gt;Node28 -->
<g id="edge36_Node000027_Node000028" class="edge">
<title>Node27&#45;&gt;Node28</title>
<g id="a_edge36_Node000027_Node000028"><a xlink:title=" ">
<path fill="none" stroke="#63b8ff" d="M1418.17,-242.07C1461.09,-215.12 1554.37,-156.54 1589.37,-134.56"/>
<polygon fill="#63b8ff" stroke="#63b8ff" points="1416.19,-239.19 1409.58,-247.47 1419.91,-245.12 1416.19,-239.19"/>
</a>
</g>
</g>
<!-- Node29 -->
<g id="Node000029" class="node">
<title>Node29</title>
<g id="a_Node000029"><a xlink:href="code__8006E9C0_8h.html" target="_top" xlink:title=" ">
<polygon fill="white" stroke="#666666" points="1658,-200.5 1538,-200.5 1538,-181.5 1658,-181.5 1658,-200.5"/>
<text text-anchor="middle" x="1598" y="-188.5" font-family="Helvetica,sans-Serif" font-size="10.00">src/code_8006E9C0.h</text>
</a>
</g>
</g>
<!-- Node27&#45;&gt;Node29 -->
<g id="edge38_Node000027_Node000029" class="edge">
<title>Node27&#45;&gt;Node29</title>
<g id="a_edge38_Node000027_Node000029"><a xlink:title=" ">
<path fill="none" stroke="#63b8ff" d="M1432.85,-244.32C1472.7,-231.7 1535.28,-211.87 1570.87,-200.6"/>
<polygon fill="#63b8ff" stroke="#63b8ff" points="1431.72,-241.01 1423.24,-247.37 1433.83,-247.68 1431.72,-241.01"/>
</a>
</g>
</g>
<!-- Node34 -->
<g id="Node000034" class="node">
<title>Node34</title>
<g id="a_Node000034"><a xlink:href="code__80086E70_8c.html" target="_top" xlink:title=" ">
<polygon fill="white" stroke="#666666" points="1833.5,-200.5 1714.5,-200.5 1714.5,-181.5 1833.5,-181.5 1833.5,-200.5"/>
<text text-anchor="middle" x="1774" y="-188.5" font-family="Helvetica,sans-Serif" font-size="10.00">src/code_80086E70.c</text>
</a>
</g>
</g>
<!-- Node27&#45;&gt;Node34 -->
<g id="edge49_Node000027_Node000034" class="edge">
<title>Node27&#45;&gt;Node34</title>
<g id="a_edge49_Node000027_Node000034"><a xlink:title=" ">
<path fill="none" stroke="#63b8ff" d="M1449.43,-245.53C1456.02,-244.31 1462.66,-243.1 1469,-242 1571.37,-224.21 1597.61,-223.66 1700,-206 1709.79,-204.31 1720.29,-202.39 1730.22,-200.53"/>
<polygon fill="#63b8ff" stroke="#63b8ff" points="1448.37,-242.17 1439.19,-247.46 1449.66,-249.05 1448.37,-242.17"/>
</a>
</g>
</g>
<!-- Node35 -->
<g id="Node000035" class="node">
<title>Node35</title>
<g id="a_Node000035"><a xlink:href="actors__extended_8c.html" target="_top" xlink:title=" ">
<polygon fill="white" stroke="#666666" points="1224,-200.5 1068,-200.5 1068,-181.5 1224,-181.5 1224,-200.5"/>
<text text-anchor="middle" x="1146" y="-188.5" font-family="Helvetica,sans-Serif" font-size="10.00">src/racing/actors_extended.c</text>
</a>
</g>
</g>
<!-- Node27&#45;&gt;Node35 -->
<g id="edge52_Node000027_Node000035" class="edge">
<title>Node27&#45;&gt;Node35</title>
<g id="a_edge52_Node000027_Node000035"><a xlink:title=" ">
<path fill="none" stroke="#63b8ff" d="M1352.81,-244.94C1303.52,-232.32 1223.97,-211.96 1179.26,-200.51"/>
<polygon fill="#63b8ff" stroke="#63b8ff" points="1351.99,-248.35 1362.54,-247.44 1353.72,-241.56 1351.99,-248.35"/>
</a>
</g>
</g>
<!-- Node36 -->
<g id="Node000036" class="node">
<title>Node36</title>
<g id="a_Node000036"><a xlink:href="race__logic_8c.html" target="_top" xlink:title=" ">
<polygon fill="white" stroke="#666666" points="1367.5,-200.5 1242.5,-200.5 1242.5,-181.5 1367.5,-181.5 1367.5,-200.5"/>
<text text-anchor="middle" x="1305" y="-188.5" font-family="Helvetica,sans-Serif" font-size="10.00">src/racing/race_logic.c</text>
</a>
</g>
</g>
<!-- Node27&#45;&gt;Node36 -->
<g id="edge53_Node000027_Node000036" class="edge">
<title>Node27&#45;&gt;Node36</title>
<g id="a_edge53_Node000027_Node000036"><a xlink:title=" ">
<path fill="none" stroke="#63b8ff" d="M1375.15,-241.33C1357.3,-228.78 1332.2,-211.13 1317.37,-200.7"/>
<polygon fill="#63b8ff" stroke="#63b8ff" points="1373.53,-244.48 1383.73,-247.37 1377.56,-238.75 1373.53,-244.48"/>
</a>
</g>
</g>
<!-- Node29&#45;&gt;Node8 -->
<g id="edge39_Node000029_Node000008" class="edge">
<title>Node29&#45;&gt;Node8</title>
<g id="a_edge39_Node000029_Node000008"><a xlink:title=" ">
<path fill="none" stroke="#63b8ff" d="M1552.53,-179.1C1499.94,-166.49 1414.47,-146.01 1366.52,-134.51"/>
<polygon fill="#63b8ff" stroke="#63b8ff" points="1551.73,-182.51 1562.27,-181.44 1553.36,-175.7 1551.73,-182.51"/>
</a>
</g>
</g>
<!-- Node29&#45;&gt;Node10 -->
<g id="edge41_Node000029_Node000010" class="edge">
<title>Node29&#45;&gt;Node10</title>
<g id="a_edge41_Node000029_Node000010"><a xlink:title=" ">
<path fill="none" stroke="#63b8ff" d="M1527.79,-180.6C1459.89,-171.26 1354.17,-156.04 1263,-140 1253.73,-138.37 1243.79,-136.45 1234.43,-134.57"/>
<polygon fill="#63b8ff" stroke="#63b8ff" points="1527.56,-184.1 1537.94,-181.99 1528.51,-177.17 1527.56,-184.1"/>
</a>
</g>
</g>
<!-- Node29&#45;&gt;Node12 -->
<g id="edge43_Node000029_Node000012" class="edge">
<title>Node29&#45;&gt;Node12</title>
<g id="a_edge43_Node000029_Node000012"><a xlink:title=" ">
<path fill="none" stroke="#63b8ff" d="M1648.11,-179.63C1656.08,-178.24 1664.24,-176.96 1672,-176 1938,-143.02 2007.85,-171.73 2274,-140 2285.61,-138.62 2298.11,-136.61 2309.63,-134.54"/>
<polygon fill="#63b8ff" stroke="#63b8ff" points="1647.39,-176.2 1638.18,-181.44 1648.64,-183.09 1647.39,-176.2"/>
</a>
</g>
</g>
<!-- Node29&#45;&gt;Node16 -->
<g id="edge46_Node000029_Node000016" class="edge">
<title>Node29&#45;&gt;Node16</title>
<g id="a_edge46_Node000029_Node000016"><a xlink:title=" ">
<path fill="none" stroke="#63b8ff" d="M1527.69,-184.77C1435.21,-177.39 1267.82,-162.27 1126,-140 1116.37,-138.49 1106.04,-136.51 1096.44,-134.52"/>
<polygon fill="#63b8ff" stroke="#63b8ff" points="1527.52,-188.27 1537.77,-185.57 1528.08,-181.29 1527.52,-188.27"/>
</a>
</g>
</g>
<!-- Node29&#45;&gt;Node17 -->
<g id="edge48_Node000029_Node000017" class="edge">
<title>Node29&#45;&gt;Node17</title>
<g id="a_edge48_Node000029_Node000017"><a xlink:title=" ">
<path fill="none" stroke="#63b8ff" d="M1571.11,-176.86C1545.3,-164.25 1507.04,-145.56 1484.81,-134.7"/>
<polygon fill="#63b8ff" stroke="#63b8ff" points="1569.81,-180.12 1580.33,-181.37 1572.88,-173.83 1569.81,-180.12"/>
</a>
</g>
</g>
<!-- Node29&#45;&gt;Node28 -->
<g id="edge40_Node000029_Node000028" class="edge">
<title>Node29&#45;&gt;Node28</title>
<g id="a_edge40_Node000029_Node000028"><a xlink:title=" ">
<path fill="none" stroke="#63b8ff" d="M1599.48,-171.08C1600.41,-159.13 1601.58,-144.22 1602.3,-134.91"/>
<polygon fill="#63b8ff" stroke="#63b8ff" points="1595.96,-171.13 1598.67,-181.37 1602.94,-171.67 1595.96,-171.13"/>
</a>
</g>
</g>
<!-- Node30 -->
<g id="Node000030" class="node">
<title>Node30</title>
<g id="a_Node000030"><a xlink:href="code__80091750_8c.html" target="_top" xlink:title=" ">
<polygon fill="white" stroke="#666666" points="2091.5,-134.5 1972.5,-134.5 1972.5,-115.5 2091.5,-115.5 2091.5,-134.5"/>
<text text-anchor="middle" x="2032" y="-122.5" font-family="Helvetica,sans-Serif" font-size="10.00">src/code_80091750.c</text>
</a>
</g>
</g>
<!-- Node29&#45;&gt;Node30 -->
<g id="edge42_Node000029_Node000030" class="edge">
<title>Node29&#45;&gt;Node30</title>
<g id="a_edge42_Node000029_Node000030"><a xlink:title=" ">
<path fill="none" stroke="#63b8ff" d="M1650.85,-179.57C1657.95,-178.3 1665.14,-177.07 1672,-176 1801.2,-155.84 1834.97,-161.2 1964,-140 1973.51,-138.44 1983.72,-136.48 1993.26,-134.54"/>
<polygon fill="#63b8ff" stroke="#63b8ff" points="1649.77,-176.21 1640.57,-181.46 1651.04,-183.1 1649.77,-176.21"/>
</a>
</g>
</g>
<!-- Node31 -->
<g id="Node000031" class="node">
<title>Node31</title>
<g id="a_Node000031"><a xlink:href="code__80280000_8c.html" target="_top" xlink:title=" ">
<polygon fill="white" stroke="#666666" points="2264.5,-134.5 2109.5,-134.5 2109.5,-115.5 2264.5,-115.5 2264.5,-134.5"/>
<text text-anchor="middle" x="2187" y="-122.5" font-family="Helvetica,sans-Serif" font-size="10.00">src/ending/code_80280000.c</text>
</a>
</g>
</g>
<!-- Node29&#45;&gt;Node31 -->
<g id="edge44_Node000029_Node000031" class="edge">
<title>Node29&#45;&gt;Node31</title>
<g id="a_edge44_Node000029_Node000031"><a xlink:title=" ">
<path fill="none" stroke="#63b8ff" d="M1648.96,-179.65C1656.66,-178.29 1664.52,-177.02 1672,-176 1861.59,-150.18 1911.1,-163.39 2101,-140 2113.31,-138.48 2126.56,-136.5 2138.88,-134.51"/>
<polygon fill="#63b8ff" stroke="#63b8ff" points="1648.19,-176.23 1638.98,-181.47 1649.44,-183.12 1648.19,-176.23"/>
</a>
</g>
</g>
<!-- Node32 -->
<g id="Node000032" class="node">
<title>Node32</title>
<g id="a_Node000032"><a xlink:href="code__80281780_8c.html" target="_top" xlink:title=" ">
<polygon fill="white" stroke="#666666" points="1835.5,-134.5 1680.5,-134.5 1680.5,-115.5 1835.5,-115.5 1835.5,-134.5"/>
<text text-anchor="middle" x="1758" y="-122.5" font-family="Helvetica,sans-Serif" font-size="10.00">src/ending/code_80281780.c</text>
</a>
</g>
</g>
<!-- Node29&#45;&gt;Node32 -->
<g id="edge45_Node000029_Node000032" class="edge">
<title>Node29&#45;&gt;Node32</title>
<g id="a_edge45_Node000029_Node000032"><a xlink:title=" ">
<path fill="none" stroke="#63b8ff" d="M1629.22,-177.51C1660.85,-164.86 1708.92,-145.63 1736.51,-134.6"/>
<polygon fill="#63b8ff" stroke="#63b8ff" points="1627.56,-174.41 1619.58,-181.37 1630.16,-180.9 1627.56,-174.41"/>
</a>
</g>
</g>
<!-- Node33 -->
<g id="Node000033" class="node">
<title>Node33</title>
<g id="a_Node000033"><a xlink:href="staff__ghosts_8c.html" target="_top" xlink:title=" ">
<polygon fill="white" stroke="#666666" points="1954.5,-134.5 1853.5,-134.5 1853.5,-115.5 1954.5,-115.5 1954.5,-134.5"/>
<text text-anchor="middle" x="1904" y="-122.5" font-family="Helvetica,sans-Serif" font-size="10.00">src/staff_ghosts.c</text>
</a>
</g>
</g>
<!-- Node29&#45;&gt;Node33 -->
<g id="edge47_Node000029_Node000033" class="edge">
<title>Node29&#45;&gt;Node33</title>
<g id="a_edge47_Node000029_Node000033"><a xlink:title=" ">
<path fill="none" stroke="#63b8ff" d="M1652.24,-179.56C1702.35,-169.78 1778.84,-154.54 1845,-140 1852.71,-138.31 1860.97,-136.4 1868.79,-134.56"/>
<polygon fill="#63b8ff" stroke="#63b8ff" points="1651.41,-176.15 1642.27,-181.5 1652.75,-183.02 1651.41,-176.15"/>
</a>
</g>
</g>
</g>
</svg>

<g id="navigator" transform="translate(0 0)" fill="#404254">
  <rect fill="#f2f5e9" fill-opacity="0.5" stroke="#606060" stroke-width=".5" x="0" y="0" width="60" height="60"/>
  <use id="zoomplus" xlink:href="#zoomPlus" x="17" y="9" onmousedown="handleZoom(evt,'in')"/>
  <use id="zoomminus" xlink:href="#zoomMin" x="42" y="9" onmousedown="handleZoom(evt,'out')"/>
  <use id="reset" xlink:href="#resetDef" x="30" y="36" onmousedown="handleReset()"/>
   <use id="arrowup" xlink:href="#arrowUp" x="0" y="0" onmousedown="handlePan(0,-1)"/>
  <use id="arrowright" xlink:href="#arrowRight" x="0" y="0" onmousedown="handlePan(1,0)"/>
  <use id="arrowdown" xlink:href="#arrowDown" x="0" y="0" onmousedown="handlePan(0,1)"/>
  <use id="arrowleft" xlink:href="#arrowLeft" x="0" y="0" onmousedown="handlePan(-1,0)"/>
</g>
<svg viewBox="0 0 15 15" width="100%" height="30px" preserveAspectRatio="xMaxYMin meet">
 <g id="arrow_out" transform="scale(0.3 0.3)">
  <a xlink:href="code__80004740_8h__dep__incl_org.svg" target="_base">
   <rect id="button" ry="5" rx="5" y="6" x="6" height="38" width="38"
        fill="#f2f5e9" fill-opacity="0.5" stroke="#606060" stroke-width="1.0"/>
   <path id="arrow"
     d="M 11.500037,31.436501 C 11.940474,20.09759 22.043105,11.32322 32.158766,21.979434 L 37.068811,17.246167 C 37.068811,17.246167 37.088388,32 37.088388,32 L 22.160133,31.978069 C 22.160133,31.978069 26.997745,27.140456 26.997745,27.140456 C 18.528582,18.264221 13.291696,25.230495 11.500037,31.436501 z"
     style="fill:#404040;"/>
  </a>
 </g>
</svg>

<style type='text/css'>
<![CDATA[
[data-mouse-over-selected='false'] { opacity: 0.7; }
[data-mouse-over-selected='true']  { opacity: 1.0; }
]]>
</style>
<script type="application/ecmascript"><![CDATA[
document.addEventListener('DOMContentLoaded', (event) => {
  highlightEdges();
  highlightAdjacentNodes();
});
]]></script>
</svg>
