<?xml version="1.0" encoding="UTF-8" standalone="no"?>
<!DOCTYPE svg PUBLIC "-//W3C//DTD SVG 1.1//EN"
 "http://www.w3.org/Graphics/SVG/1.1/DTD/svg11.dtd">
<!-- Generated by graphviz version 2.43.0 (0)
 -->
<!-- Title: func_8000D2B4 Pages: 1 -->
<!--zoomable 409 -->

<svg id="main" version="1.1" xmlns="http://www.w3.org/2000/svg" xmlns:xlink="http://www.w3.org/1999/xlink" xml:space="preserve" onload="init(evt)">
<style type="text/css"><![CDATA[
.node, .edge {opacity: 0.7;}
.node.selected, .edge.selected {opacity: 1;}
.edge:hover path { stroke: red; }
.edge:hover polygon { stroke: red; fill: red; }
]]></style>

<defs>
  <circle id="rim" cx="0" cy="0" r="7"/>
  <circle id="rim2" cx="0" cy="0" r="3.5"/>
  <g id="zoomPlus">
    <use xlink:href="#rim" fill="#404040"><set attributeName="fill" to="#808080" begin="zoomplus.mouseover" end="zoomplus.mouseout"/></use>
    <path d="M-4,0h8M0,-4v8" fill="none" stroke="white" stroke-width="1.5" pointer-events="none"/>
  </g>
  <g id="zoomMin">
    <use xlink:href="#rim" fill="#404040"><set attributeName="fill" to="#808080" begin="zoomminus.mouseover" end="zoomminus.mouseout"/></use>
    <path d="M-4,0h8" fill="none" stroke="white" stroke-width="1.5" pointer-events="none"/>
  </g>
  <g id="arrowUp" transform="translate(30 24)">
    <use xlink:href="#rim"/>
    <path pointer-events="none" fill="none" stroke="white" stroke-width="1.5" d="M0,-3.0v7 M-2.5,-0.5L0,-3.0L2.5,-0.5"/>
  </g>
  <g id="arrowRight" transform="rotate(90) translate(36 -43)">
    <use xlink:href="#rim"/>
    <path pointer-events="none" fill="none" stroke="white" stroke-width="1.5" d="M0,-3.0v7 M-2.5,-0.5L0,-3.0L2.5,-0.5"/>
  </g>
  <g id="arrowDown" transform="rotate(180) translate(-30 -48)">
    <use xlink:href="#rim"/>
    <path pointer-events="none" fill="none" stroke="white" stroke-width="1.5" d="M0,-3.0v7 M-2.5,-0.5L0,-3.0L2.5,-0.5"/>
  </g>
  <g id="arrowLeft" transform="rotate(270) translate(-36 17)">
    <use xlink:href="#rim"/>
    <path pointer-events="none" fill="none" stroke="white" stroke-width="1.5" d="M0,-3.0v7 M-2.5,-0.5L0,-3.0L2.5,-0.5"/>
  </g>
  <g id="resetDef">
    <use xlink:href="#rim2" fill="#404040"><set attributeName="fill" to="#808080" begin="reset.mouseover" end="reset.mouseout"/></use>
  </g>
</defs>
<script type="application/ecmascript">
var viewWidth = 1926;
var viewHeight = 409;
var sectionId = 'dynsection-49';
</script>
<script type="application/ecmascript" xlink:href="svg.min.js"/>
<svg id="graph" class="graph">
<g id="viewport">
<title>func_8000D2B4</title>
<!-- Node1 -->
<g id="Node000001" class="node">
<title>Node1</title>
<g id="a_Node000001"><a xlink:title=" ">
<polygon fill="#999999" stroke="#666666" points="1918,-179.19 1825,-179.19 1825,-160.19 1918,-160.19 1918,-179.19"/>
<text text-anchor="middle" x="1871.5" y="-167.19" font-family="Helvetica,sans-Serif" font-size="10.00">func_8000D2B4</text>
</a>
</g>
</g>
<!-- Node2 -->
<g id="Node000002" class="node">
<title>Node2</title>
<g id="a_Node000002"><a xlink:href="code__80005FD0_8c.html#aa39e2aaaacd04e16311cb002a50102f2" target="_top" xlink:title=" ">
<polygon fill="white" stroke="#666666" points="1789,-234.19 1695,-234.19 1695,-215.19 1789,-215.19 1789,-234.19"/>
<text text-anchor="middle" x="1742" y="-222.19" font-family="Helvetica,sans-Serif" font-size="10.00">func_8000D6D0</text>
</a>
</g>
</g>
<!-- Node1&#45;&gt;Node2 -->
<g id="edge1_Node000001_Node000002" class="edge">
<title>Node1&#45;&gt;Node2</title>
<g id="a_edge1_Node000001_Node000002"><a xlink:title=" ">
<path fill="none" stroke="#63b8ff" d="M1839.01,-183.28C1816.15,-193.14 1785.79,-206.24 1765.38,-215.04"/>
<polygon fill="#63b8ff" stroke="#63b8ff" points="1840.5,-186.45 1848.29,-179.27 1837.72,-180.02 1840.5,-186.45"/>
</a>
</g>
</g>
<!-- Node32 -->
<g id="Node000032" class="node">
<title>Node32</title>
<g id="a_Node000032"><a xlink:href="code__80005FD0_8c.html#a5a0e67ccde01cf1fb86f9fbd14161e4e" target="_top" xlink:title=" ">
<polygon fill="white" stroke="#666666" points="1788,-179.19 1696,-179.19 1696,-160.19 1788,-160.19 1788,-179.19"/>
<text text-anchor="middle" x="1742" y="-167.19" font-family="Helvetica,sans-Serif" font-size="10.00">func_8000D940</text>
</a>
</g>
</g>
<!-- Node1&#45;&gt;Node32 -->
<g id="edge42_Node000001_Node000032" class="edge">
<title>Node1&#45;&gt;Node32</title>
<g id="a_edge42_Node000001_Node000032"><a xlink:title=" ">
<path fill="none" stroke="#63b8ff" d="M1814.65,-169.69C1805.86,-169.69 1796.87,-169.69 1788.35,-169.69"/>
<polygon fill="#63b8ff" stroke="#63b8ff" points="1814.83,-173.19 1824.83,-169.69 1814.83,-166.19 1814.83,-173.19"/>
</a>
</g>
</g>
<!-- Node41 -->
<g id="Node000041" class="node">
<title>Node41</title>
<g id="a_Node000041"><a xlink:href="code__80005FD0_8c.html#ad7cfd2edb9055380080a6c1c577d042f" target="_top" xlink:title=" ">
<polygon fill="white" stroke="#666666" points="1788.5,-67.19 1695.5,-67.19 1695.5,-48.19 1788.5,-48.19 1788.5,-67.19"/>
<text text-anchor="middle" x="1742" y="-55.19" font-family="Helvetica,sans-Serif" font-size="10.00">func_8000DF8C</text>
</a>
</g>
</g>
<!-- Node1&#45;&gt;Node41 -->
<g id="edge59_Node000001_Node000041" class="edge">
<title>Node1&#45;&gt;Node41</title>
<g id="a_edge59_Node000001_Node000041"><a xlink:title=" ">
<path fill="none" stroke="#63b8ff" d="M1852.03,-153.46C1825.03,-129.75 1775.65,-86.37 1753.84,-67.22"/>
<polygon fill="#63b8ff" stroke="#63b8ff" points="1849.81,-156.17 1859.63,-160.14 1854.43,-150.92 1849.81,-156.17"/>
</a>
</g>
</g>
<!-- Node3 -->
<g id="Node000003" class="node">
<title>Node3</title>
<g id="a_Node000003"><a xlink:href="code__80005FD0_8c.html#a93313abf66f75a07eec17a337f7d9ba2" target="_top" xlink:title=" ">
<polygon fill="white" stroke="#666666" points="1642,-290.19 1551,-290.19 1551,-271.19 1642,-271.19 1642,-290.19"/>
<text text-anchor="middle" x="1596.5" y="-278.19" font-family="Helvetica,sans-Serif" font-size="10.00">func_80012220</text>
</a>
</g>
</g>
<!-- Node2&#45;&gt;Node3 -->
<g id="edge2_Node000002_Node000003" class="edge">
<title>Node2&#45;&gt;Node3</title>
<g id="a_edge2_Node000002_Node000003"><a xlink:title=" ">
<path fill="none" stroke="#63b8ff" d="M1713.31,-238.78C1697.62,-246.45 1677.49,-255.75 1659,-262.69 1650.88,-265.75 1641.99,-268.61 1633.57,-271.11"/>
<polygon fill="#63b8ff" stroke="#63b8ff" points="1715.04,-241.83 1722.45,-234.26 1711.94,-235.56 1715.04,-241.83"/>
</a>
</g>
</g>
<!-- Node12 -->
<g id="Node000012" class="node">
<title>Node12</title>
<g id="a_Node000012"><a xlink:href="code__80005FD0_8c.html#a81c4dea988ca9590da6176b35de2c37c" target="_top" xlink:title=" ">
<polygon fill="white" stroke="#666666" points="1642,-253.19 1551,-253.19 1551,-234.19 1642,-234.19 1642,-253.19"/>
<text text-anchor="middle" x="1596.5" y="-241.19" font-family="Helvetica,sans-Serif" font-size="10.00">func_800139E4</text>
</a>
</g>
</g>
<!-- Node2&#45;&gt;Node12 -->
<g id="edge11_Node000002_Node000012" class="edge">
<title>Node2&#45;&gt;Node12</title>
<g id="a_edge11_Node000002_Node000012"><a xlink:title=" ">
<path fill="none" stroke="#63b8ff" d="M1684.7,-232.15C1670.57,-234.02 1655.61,-236 1642.14,-237.78"/>
<polygon fill="#63b8ff" stroke="#63b8ff" points="1685.35,-235.59 1694.81,-230.81 1684.43,-228.65 1685.35,-235.59"/>
</a>
</g>
</g>
<!-- Node22 -->
<g id="Node000022" class="node">
<title>Node22</title>
<g id="a_Node000022"><a xlink:href="code__80005FD0_8c.html#aca890afb34ef4a0ef9b2a0397ea8cce3" target="_top" xlink:title=" ">
<polygon fill="white" stroke="#666666" points="1642.5,-179.19 1550.5,-179.19 1550.5,-160.19 1642.5,-160.19 1642.5,-179.19"/>
<text text-anchor="middle" x="1596.5" y="-167.19" font-family="Helvetica,sans-Serif" font-size="10.00">func_80013D20</text>
</a>
</g>
</g>
<!-- Node2&#45;&gt;Node22 -->
<g id="edge27_Node000002_Node000022" class="edge">
<title>Node2&#45;&gt;Node22</title>
<g id="a_edge27_Node000002_Node000022"><a xlink:title=" ">
<path fill="none" stroke="#63b8ff" d="M1706.58,-211.5C1680.75,-201.6 1645.97,-188.27 1622.69,-179.35"/>
<polygon fill="#63b8ff" stroke="#63b8ff" points="1705.41,-214.8 1716,-215.11 1707.92,-208.27 1705.41,-214.8"/>
</a>
</g>
</g>
<!-- Node4 -->
<g id="Node000004" class="node">
<title>Node4</title>
<g id="a_Node000004"><a xlink:href="code__80005FD0_8c.html#afd6fa1e9b8e8378fffcaa462fdc81ef6" target="_top" xlink:title=" ">
<polygon fill="white" stroke="#666666" points="1498,-401.19 1382,-401.19 1382,-382.19 1498,-382.19 1498,-401.19"/>
<text text-anchor="middle" x="1440" y="-389.19" font-family="Helvetica,sans-Serif" font-size="10.00">init_course_vehicles</text>
</a>
</g>
</g>
<!-- Node3&#45;&gt;Node4 -->
<g id="edge3_Node000003_Node000004" class="edge">
<title>Node3&#45;&gt;Node4</title>
<g id="a_edge3_Node000003_Node000004"><a xlink:title=" ">
<path fill="none" stroke="#63b8ff" d="M1581.63,-298.09C1564.19,-318.88 1532.34,-353.4 1498,-373.69 1492.37,-377.02 1486.06,-379.8 1479.75,-382.1"/>
<polygon fill="#63b8ff" stroke="#63b8ff" points="1584.34,-300.3 1587.99,-290.35 1578.94,-295.86 1584.34,-300.3"/>
</a>
</g>
</g>
<!-- Node5 -->
<g id="Node000005" class="node">
<title>Node5</title>
<g id="a_Node000005"><a xlink:href="actors_8c.html#a8ed0774c05b9577fcf2db1dd958941b1" target="_top" xlink:title=" ">
<polygon fill="white" stroke="#666666" points="1086,-364.19 960,-364.19 960,-345.19 1086,-345.19 1086,-364.19"/>
<text text-anchor="middle" x="1023" y="-352.19" font-family="Helvetica,sans-Serif" font-size="10.00">load_common_texture</text>
</a>
</g>
</g>
<!-- Node4&#45;&gt;Node5 -->
<g id="edge4_Node000004_Node000005" class="edge">
<title>Node4&#45;&gt;Node5</title>
<g id="a_edge4_Node000004_Node000005"><a xlink:title=" ">
<path fill="none" stroke="#63b8ff" d="M1371.4,-385.67C1292.38,-378.62 1162.67,-367.06 1086.09,-360.23"/>
<polygon fill="#63b8ff" stroke="#63b8ff" points="1371.46,-389.19 1381.73,-386.59 1372.08,-382.21 1371.46,-389.19"/>
</a>
</g>
</g>
<!-- Node6 -->
<g id="Node000006" class="node">
<title>Node6</title>
<g id="a_Node000006"><a xlink:href="code__800029B0_8c.html#aca6165112fc92e65ad6477e785a7098c" target="_top" xlink:title=" ">
<polygon fill="white" stroke="#666666" points="889,-327.19 819,-327.19 819,-308.19 889,-308.19 889,-327.19"/>
<text text-anchor="middle" x="854" y="-315.19" font-family="Helvetica,sans-Serif" font-size="10.00">setup_race</text>
</a>
</g>
</g>
<!-- Node5&#45;&gt;Node6 -->
<g id="edge5_Node000005_Node000006" class="edge">
<title>Node5&#45;&gt;Node6</title>
<g id="a_edge5_Node000005_Node000006"><a xlink:title=" ">
<path fill="none" stroke="#63b8ff" d="M969.22,-343C943.06,-337.2 912.22,-330.37 889.18,-325.27"/>
<polygon fill="#63b8ff" stroke="#63b8ff" points="968.47,-346.42 978.99,-345.17 969.99,-339.58 968.47,-346.42"/>
</a>
</g>
</g>
<!-- Node7 -->
<g id="Node000007" class="node">
<title>Node7</title>
<g id="a_Node000007"><a xlink:href="main_8c.html#ad0625ed56ac663d3ec7ae8f1ba50c735" target="_top" xlink:title=" ">
<polygon fill="white" stroke="#666666" points="748,-289.19 640,-289.19 640,-270.19 748,-270.19 748,-289.19"/>
<text text-anchor="middle" x="694" y="-277.19" font-family="Helvetica,sans-Serif" font-size="10.00">update_gamestate</text>
</a>
</g>
</g>
<!-- Node6&#45;&gt;Node7 -->
<g id="edge6_Node000006_Node000007" class="edge">
<title>Node6&#45;&gt;Node7</title>
<g id="a_edge6_Node000006_Node000007"><a xlink:title=" ">
<path fill="none" stroke="#63b8ff" d="M808.73,-307.05C785.42,-301.44 757.07,-294.62 734.51,-289.2"/>
<polygon fill="#63b8ff" stroke="#63b8ff" points="808.18,-310.51 818.72,-309.45 809.81,-303.71 808.18,-310.51"/>
</a>
</g>
</g>
<!-- Node8 -->
<g id="Node000008" class="node">
<title>Node8</title>
<g id="a_Node000008"><a xlink:href="main_8c.html#a633ed517e458daeb768f5361895dcac9" target="_top" xlink:title=" ">
<polygon fill="white" stroke="#666666" points="452,-181.19 339,-181.19 339,-162.19 452,-162.19 452,-181.19"/>
<text text-anchor="middle" x="395.5" y="-169.19" font-family="Helvetica,sans-Serif" font-size="10.00">thread5_game_loop</text>
</a>
</g>
</g>
<!-- Node7&#45;&gt;Node8 -->
<g id="edge7_Node000007_Node000008" class="edge">
<title>Node7&#45;&gt;Node8</title>
<g id="a_edge7_Node000007_Node000008"><a xlink:title=" ">
<path fill="none" stroke="#63b8ff" d="M657.18,-266.65C596.77,-244.64 476,-200.65 422.75,-181.26"/>
<polygon fill="#63b8ff" stroke="#63b8ff" points="656.09,-269.98 666.69,-270.11 658.49,-263.4 656.09,-269.98"/>
</a>
</g>
</g>
<!-- Node9 -->
<g id="Node000009" class="node">
<title>Node9</title>
<g id="a_Node000009"><a xlink:href="main_8c.html#a023b8f272e4efbd33f371e91ffff6b30" target="_top" xlink:title=" ">
<polygon fill="white" stroke="#666666" points="303,-181.19 217,-181.19 217,-162.19 303,-162.19 303,-181.19"/>
<text text-anchor="middle" x="260" y="-169.19" font-family="Helvetica,sans-Serif" font-size="10.00">thread3_video</text>
</a>
</g>
</g>
<!-- Node8&#45;&gt;Node9 -->
<g id="edge8_Node000008_Node000009" class="edge">
<title>Node8&#45;&gt;Node9</title>
<g id="a_edge8_Node000008_Node000009"><a xlink:title=" ">
<path fill="none" stroke="#63b8ff" d="M328.57,-171.69C319.94,-171.69 311.3,-171.69 303.21,-171.69"/>
<polygon fill="#63b8ff" stroke="#63b8ff" points="328.66,-175.19 338.66,-171.69 328.66,-168.19 328.66,-175.19"/>
</a>
</g>
</g>
<!-- Node10 -->
<g id="Node000010" class="node">
<title>Node10</title>
<g id="a_Node000010"><a xlink:href="main_8c.html#a1e35d2b842121e6aea373f09381616e5" target="_top" xlink:title=" ">
<polygon fill="white" stroke="#666666" points="181,-181.19 104,-181.19 104,-162.19 181,-162.19 181,-181.19"/>
<text text-anchor="middle" x="142.5" y="-169.19" font-family="Helvetica,sans-Serif" font-size="10.00">thread1_idle</text>
</a>
</g>
</g>
<!-- Node9&#45;&gt;Node10 -->
<g id="edge9_Node000009_Node000010" class="edge">
<title>Node9&#45;&gt;Node10</title>
<g id="a_edge9_Node000009_Node000010"><a xlink:title=" ">
<path fill="none" stroke="#63b8ff" d="M206.9,-171.69C198.2,-171.69 189.33,-171.69 181.09,-171.69"/>
<polygon fill="#63b8ff" stroke="#63b8ff" points="206.98,-175.19 216.98,-171.69 206.98,-168.19 206.98,-175.19"/>
</a>
</g>
</g>
<!-- Node11 -->
<g id="Node000011" class="node">
<title>Node11</title>
<g id="a_Node000011"><a xlink:href="main_8c.html#a4f87d43525fe95f60ea92bc8a3b70e62" target="_top" xlink:title=" ">
<polygon fill="white" stroke="#666666" points="68,-181.19 0,-181.19 0,-162.19 68,-162.19 68,-181.19"/>
<text text-anchor="middle" x="34" y="-169.19" font-family="Helvetica,sans-Serif" font-size="10.00">main_func</text>
</a>
</g>
</g>
<!-- Node10&#45;&gt;Node11 -->
<g id="edge10_Node000010_Node000011" class="edge">
<title>Node10&#45;&gt;Node11</title>
<g id="a_edge10_Node000010_Node000011"><a xlink:title=" ">
<path fill="none" stroke="#63b8ff" d="M93.95,-171.69C85.29,-171.69 76.44,-171.69 68.31,-171.69"/>
<polygon fill="#63b8ff" stroke="#63b8ff" points="93.95,-175.19 103.95,-171.69 93.95,-168.19 93.95,-175.19"/>
</a>
</g>
</g>
<!-- Node13 -->
<g id="Node000013" class="node">
<title>Node13</title>
<g id="a_Node000013"><a xlink:href="code__80005FD0_8c.html#a38ce2545c5f2c06a99d94d735f024fc0" target="_top" xlink:title=" ">
<polygon fill="white" stroke="#666666" points="1485.5,-364.19 1394.5,-364.19 1394.5,-345.19 1485.5,-345.19 1485.5,-364.19"/>
<text text-anchor="middle" x="1440" y="-352.19" font-family="Helvetica,sans-Serif" font-size="10.00">func_800147E0</text>
</a>
</g>
</g>
<!-- Node12&#45;&gt;Node13 -->
<g id="edge12_Node000012_Node000013" class="edge">
<title>Node12&#45;&gt;Node13</title>
<g id="a_edge12_Node000012_Node000013"><a xlink:title=" ">
<path fill="none" stroke="#63b8ff" d="M1541.73,-257.2C1538.98,-258.83 1536.38,-260.65 1534,-262.69 1506.24,-286.5 1525.69,-312.8 1498,-336.69 1494.07,-340.08 1489.5,-342.84 1484.7,-345.07"/>
<polygon fill="#63b8ff" stroke="#63b8ff" points="1543.48,-260.23 1550.87,-252.64 1540.36,-253.97 1543.48,-260.23"/>
</a>
</g>
</g>
<!-- Node19 -->
<g id="Node000019" class="node">
<title>Node19</title>
<g id="a_Node000019"><a xlink:href="code__80005FD0_8c.html#ad7ec44b95b034a1b04853213f1d928ca" target="_top" xlink:title=" ">
<polygon fill="white" stroke="#666666" points="1485.5,-327.19 1394.5,-327.19 1394.5,-308.19 1485.5,-308.19 1485.5,-327.19"/>
<text text-anchor="middle" x="1440" y="-315.19" font-family="Helvetica,sans-Serif" font-size="10.00">func_80014934</text>
</a>
</g>
</g>
<!-- Node12&#45;&gt;Node19 -->
<g id="edge21_Node000012_Node000019" class="edge">
<title>Node12&#45;&gt;Node19</title>
<g id="a_edge21_Node000012_Node000019"><a xlink:title=" ">
<path fill="none" stroke="#63b8ff" d="M1544.76,-257.08C1541.02,-258.76 1537.39,-260.62 1534,-262.69 1514.43,-274.67 1517.53,-287.65 1498,-299.69 1492.52,-303.07 1486.36,-305.87 1480.15,-308.17"/>
<polygon fill="#63b8ff" stroke="#63b8ff" points="1546.24,-260.26 1554.23,-253.31 1543.64,-253.76 1546.24,-260.26"/>
</a>
</g>
</g>
<!-- Node20 -->
<g id="Node000020" class="node">
<title>Node20</title>
<g id="a_Node000020"><a xlink:href="code__80005FD0_8c.html#af3aae9dad721ce28a06e6cd071f20dd6" target="_top" xlink:title=" ">
<polygon fill="white" stroke="#666666" points="1486,-290.19 1394,-290.19 1394,-271.19 1486,-271.19 1486,-290.19"/>
<text text-anchor="middle" x="1440" y="-278.19" font-family="Helvetica,sans-Serif" font-size="10.00">func_80014A88</text>
</a>
</g>
</g>
<!-- Node12&#45;&gt;Node20 -->
<g id="edge23_Node000012_Node000020" class="edge">
<title>Node12&#45;&gt;Node20</title>
<g id="a_edge23_Node000012_Node000020"><a xlink:title=" ">
<path fill="none" stroke="#63b8ff" d="M1545.7,-255.62C1524.75,-260.64 1500.69,-266.4 1480.92,-271.13"/>
<polygon fill="#63b8ff" stroke="#63b8ff" points="1546.8,-258.95 1555.71,-253.22 1545.17,-252.15 1546.8,-258.95"/>
</a>
</g>
</g>
<!-- Node21 -->
<g id="Node000021" class="node">
<title>Node21</title>
<g id="a_Node000021"><a xlink:href="code__80005FD0_8c.html#af8d770b76281ba995dc87bc9e27722d7" target="_top" xlink:title=" ">
<polygon fill="white" stroke="#666666" points="1487,-253.19 1393,-253.19 1393,-234.19 1487,-234.19 1487,-253.19"/>
<text text-anchor="middle" x="1440" y="-241.19" font-family="Helvetica,sans-Serif" font-size="10.00">func_80014BDC</text>
</a>
</g>
</g>
<!-- Node12&#45;&gt;Node21 -->
<g id="edge25_Node000012_Node000021" class="edge">
<title>Node12&#45;&gt;Node21</title>
<g id="a_edge25_Node000012_Node000021"><a xlink:title=" ">
<path fill="none" stroke="#63b8ff" d="M1540.73,-243.69C1523.22,-243.69 1504.03,-243.69 1487.2,-243.69"/>
<polygon fill="#63b8ff" stroke="#63b8ff" points="1540.81,-247.19 1550.81,-243.69 1540.81,-240.19 1540.81,-247.19"/>
</a>
</g>
</g>
<!-- Node14 -->
<g id="Node000014" class="node">
<title>Node14</title>
<g id="a_Node000014"><a xlink:href="code__80005FD0_8c.html#a1b88258c47677456a6de78bbce674c21" target="_top" xlink:title=" ">
<polygon fill="white" stroke="#666666" points="1344.5,-308.19 1251.5,-308.19 1251.5,-289.19 1344.5,-289.19 1344.5,-308.19"/>
<text text-anchor="middle" x="1298" y="-296.19" font-family="Helvetica,sans-Serif" font-size="10.00">func_8000F2DC</text>
</a>
</g>
</g>
<!-- Node13&#45;&gt;Node14 -->
<g id="edge13_Node000013_Node000014" class="edge">
<title>Node13&#45;&gt;Node14</title>
<g id="a_edge13_Node000013_Node000014"><a xlink:title=" ">
<path fill="none" stroke="#63b8ff" d="M1396.7,-341.98C1391.71,-340.29 1386.72,-338.51 1382,-336.69 1359.67,-328.09 1334.8,-316.42 1318.16,-308.29"/>
<polygon fill="#63b8ff" stroke="#63b8ff" points="1395.61,-345.31 1406.21,-345.1 1397.8,-338.66 1395.61,-345.31"/>
</a>
</g>
</g>
<!-- Node15 -->
<g id="Node000015" class="node">
<title>Node15</title>
<g id="a_Node000015"><a xlink:href="code__80005FD0_8c.html#a325ddded54aab32025174f6aedd5e391" target="_top" xlink:title=" ">
<polygon fill="white" stroke="#666666" points="1214,-289.19 1122,-289.19 1122,-270.19 1214,-270.19 1214,-289.19"/>
<text text-anchor="middle" x="1168" y="-277.19" font-family="Helvetica,sans-Serif" font-size="10.00">func_8001C05C</text>
</a>
</g>
</g>
<!-- Node14&#45;&gt;Node15 -->
<g id="edge14_Node000014_Node000015" class="edge">
<title>Node14&#45;&gt;Node15</title>
<g id="a_edge14_Node000014_Node000015"><a xlink:title=" ">
<path fill="none" stroke="#63b8ff" d="M1241.09,-290.4C1232.07,-289.06 1222.83,-287.68 1214.1,-286.39"/>
<polygon fill="#63b8ff" stroke="#63b8ff" points="1240.75,-293.88 1251.15,-291.89 1241.77,-286.96 1240.75,-293.88"/>
</a>
</g>
</g>
<!-- Node17 -->
<g id="Node000017" class="node">
<title>Node17</title>
<g id="a_Node000017"><a xlink:href="spawn__players_8c.html#afb1c307e34d73d9c004936d2752c44ce" target="_top" xlink:title=" ">
<polygon fill="white" stroke="#666666" points="1214,-326.19 1122,-326.19 1122,-307.19 1214,-307.19 1214,-326.19"/>
<text text-anchor="middle" x="1168" y="-314.19" font-family="Helvetica,sans-Serif" font-size="10.00">func_8003C0F0</text>
</a>
</g>
</g>
<!-- Node14&#45;&gt;Node17 -->
<g id="edge17_Node000014_Node000017" class="edge">
<title>Node14&#45;&gt;Node17</title>
<g id="a_edge17_Node000014_Node000017"><a xlink:title=" ">
<path fill="none" stroke="#63b8ff" d="M1241.09,-306.56C1232.07,-307.82 1222.83,-309.12 1214.1,-310.35"/>
<polygon fill="#63b8ff" stroke="#63b8ff" points="1241.74,-310 1251.15,-305.14 1240.76,-303.07 1241.74,-310"/>
</a>
</g>
</g>
<!-- Node16 -->
<g id="Node000016" class="node">
<title>Node16</title>
<g id="a_Node000016"><a xlink:href="code__80281780_8c.html#af227cfd0f1fd3d6adbe9a29ad59b4dc8" target="_top" xlink:title=" ">
<polygon fill="white" stroke="#666666" points="924,-289.19 784,-289.19 784,-270.19 924,-270.19 924,-289.19"/>
<text text-anchor="middle" x="854" y="-277.19" font-family="Helvetica,sans-Serif" font-size="10.00">load_ceremony_cutscene</text>
</a>
</g>
</g>
<!-- Node15&#45;&gt;Node16 -->
<g id="edge15_Node000015_Node000016" class="edge">
<title>Node15&#45;&gt;Node16</title>
<g id="a_edge15_Node000015_Node000016"><a xlink:title=" ">
<path fill="none" stroke="#63b8ff" d="M1111.87,-279.69C1059.55,-279.69 980.73,-279.69 924.21,-279.69"/>
<polygon fill="#63b8ff" stroke="#63b8ff" points="1111.97,-283.19 1121.97,-279.69 1111.97,-276.19 1111.97,-283.19"/>
</a>
</g>
</g>
<!-- Node16&#45;&gt;Node7 -->
<g id="edge16_Node000016_Node000007" class="edge">
<title>Node16&#45;&gt;Node7</title>
<g id="a_edge16_Node000016_Node000007"><a xlink:title=" ">
<path fill="none" stroke="#63b8ff" d="M773.58,-279.69C764.94,-279.69 756.31,-279.69 748.09,-279.69"/>
<polygon fill="#63b8ff" stroke="#63b8ff" points="773.7,-283.19 783.7,-279.69 773.7,-276.19 773.7,-283.19"/>
</a>
</g>
</g>
<!-- Node18 -->
<g id="Node000018" class="node">
<title>Node18</title>
<g id="a_Node000018"><a xlink:href="spawn__players_8c.html#ac1a9412b931cfa517a2382c2fc605399" target="_top" xlink:title=" ">
<polygon fill="white" stroke="#666666" points="1069,-327.19 977,-327.19 977,-308.19 1069,-308.19 1069,-327.19"/>
<text text-anchor="middle" x="1023" y="-315.19" font-family="Helvetica,sans-Serif" font-size="10.00">func_8003D080</text>
</a>
</g>
</g>
<!-- Node17&#45;&gt;Node18 -->
<g id="edge18_Node000017_Node000018" class="edge">
<title>Node17&#45;&gt;Node18</title>
<g id="a_edge18_Node000017_Node000018"><a xlink:title=" ">
<path fill="none" stroke="#63b8ff" d="M1111.75,-317.08C1097.76,-317.18 1082.89,-317.28 1069.44,-317.38"/>
<polygon fill="#63b8ff" stroke="#63b8ff" points="1111.78,-320.58 1121.75,-317.01 1111.73,-313.58 1111.78,-320.58"/>
</a>
</g>
</g>
<!-- Node18&#45;&gt;Node6 -->
<g id="edge20_Node000018_Node000006" class="edge">
<title>Node18&#45;&gt;Node6</title>
<g id="a_edge20_Node000018_Node000006"><a xlink:title=" ">
<path fill="none" stroke="#63b8ff" d="M966.49,-317.69C940.9,-317.69 911.35,-317.69 889.1,-317.69"/>
<polygon fill="#63b8ff" stroke="#63b8ff" points="966.81,-321.19 976.81,-317.69 966.81,-314.19 966.81,-321.19"/>
</a>
</g>
</g>
<!-- Node18&#45;&gt;Node16 -->
<g id="edge19_Node000018_Node000016" class="edge">
<title>Node18&#45;&gt;Node16</title>
<g id="a_edge19_Node000018_Node000016"><a xlink:title=" ">
<path fill="none" stroke="#63b8ff" d="M970.04,-305.87C946.49,-300.51 919.03,-294.26 896.84,-289.21"/>
<polygon fill="#63b8ff" stroke="#63b8ff" points="969.33,-309.3 979.86,-308.1 970.88,-302.47 969.33,-309.3"/>
</a>
</g>
</g>
<!-- Node19&#45;&gt;Node14 -->
<g id="edge22_Node000019_Node000014" class="edge">
<title>Node19&#45;&gt;Node14</title>
<g id="a_edge22_Node000019_Node000014"><a xlink:title=" ">
<path fill="none" stroke="#63b8ff" d="M1384.06,-310.24C1371.03,-308.47 1357.27,-306.6 1344.7,-304.9"/>
<polygon fill="#63b8ff" stroke="#63b8ff" points="1383.94,-313.75 1394.32,-311.63 1384.88,-306.82 1383.94,-313.75"/>
</a>
</g>
</g>
<!-- Node20&#45;&gt;Node14 -->
<g id="edge24_Node000020_Node000014" class="edge">
<title>Node20&#45;&gt;Node14</title>
<g id="a_edge24_Node000020_Node000014"><a xlink:title=" ">
<path fill="none" stroke="#63b8ff" d="M1383.8,-287.79C1370.93,-289.45 1357.36,-291.19 1344.94,-292.79"/>
<polygon fill="#63b8ff" stroke="#63b8ff" points="1384.46,-291.23 1393.93,-286.49 1383.57,-284.29 1384.46,-291.23"/>
</a>
</g>
</g>
<!-- Node21&#45;&gt;Node14 -->
<g id="edge26_Node000021_Node000014" class="edge">
<title>Node21&#45;&gt;Node14</title>
<g id="a_edge26_Node000021_Node000014"><a xlink:title=" ">
<path fill="none" stroke="#63b8ff" d="M1399.09,-256.5C1393.33,-258.49 1387.49,-260.59 1382,-262.69 1360.44,-270.95 1336.27,-281.59 1319.6,-289.16"/>
<polygon fill="#63b8ff" stroke="#63b8ff" points="1400.3,-259.79 1408.65,-253.26 1398.06,-253.16 1400.3,-259.79"/>
</a>
</g>
</g>
<!-- Node23 -->
<g id="Node000023" class="node">
<title>Node23</title>
<g id="a_Node000023"><a xlink:href="code__80005FD0_8c.html#a394feba900a9c8821d8f73a7830a6a57" target="_top" xlink:title=" ">
<polygon fill="white" stroke="#666666" points="1486,-216.19 1394,-216.19 1394,-197.19 1486,-197.19 1486,-216.19"/>
<text text-anchor="middle" x="1440" y="-204.19" font-family="Helvetica,sans-Serif" font-size="10.00">func_8001487C</text>
</a>
</g>
</g>
<!-- Node22&#45;&gt;Node23 -->
<g id="edge28_Node000022_Node000023" class="edge">
<title>Node22&#45;&gt;Node23</title>
<g id="a_edge28_Node000022_Node000023"><a xlink:title=" ">
<path fill="none" stroke="#63b8ff" d="M1545.7,-181.62C1524.75,-186.64 1500.69,-192.4 1480.92,-197.13"/>
<polygon fill="#63b8ff" stroke="#63b8ff" points="1546.8,-184.95 1555.71,-179.22 1545.17,-178.15 1546.8,-184.95"/>
</a>
</g>
</g>
<!-- Node29 -->
<g id="Node000029" class="node">
<title>Node29</title>
<g id="a_Node000029"><a xlink:href="code__80005FD0_8c.html#a05d157370926e46f3be0d52c84ef4e93" target="_top" xlink:title=" ">
<polygon fill="white" stroke="#666666" points="1486,-179.19 1394,-179.19 1394,-160.19 1486,-160.19 1486,-179.19"/>
<text text-anchor="middle" x="1440" y="-167.19" font-family="Helvetica,sans-Serif" font-size="10.00">func_800149D0</text>
</a>
</g>
</g>
<!-- Node22&#45;&gt;Node29 -->
<g id="edge36_Node000022_Node000029" class="edge">
<title>Node22&#45;&gt;Node29</title>
<g id="a_edge36_Node000022_Node000029"><a xlink:title=" ">
<path fill="none" stroke="#63b8ff" d="M1540.19,-169.69C1522.47,-169.69 1503.07,-169.69 1486.16,-169.69"/>
<polygon fill="#63b8ff" stroke="#63b8ff" points="1540.4,-173.19 1550.4,-169.69 1540.4,-166.19 1540.4,-173.19"/>
</a>
</g>
</g>
<!-- Node30 -->
<g id="Node000030" class="node">
<title>Node30</title>
<g id="a_Node000030"><a xlink:href="code__80005FD0_8c.html#a9a279fe9140cea9ff4c0284a5495a65e" target="_top" xlink:title=" ">
<polygon fill="white" stroke="#666666" points="1486,-142.19 1394,-142.19 1394,-123.19 1486,-123.19 1486,-142.19"/>
<text text-anchor="middle" x="1440" y="-130.19" font-family="Helvetica,sans-Serif" font-size="10.00">func_80014B24</text>
</a>
</g>
</g>
<!-- Node22&#45;&gt;Node30 -->
<g id="edge38_Node000022_Node000030" class="edge">
<title>Node22&#45;&gt;Node30</title>
<g id="a_edge38_Node000022_Node000030"><a xlink:title=" ">
<path fill="none" stroke="#63b8ff" d="M1545.7,-157.77C1524.75,-152.75 1500.69,-146.99 1480.92,-142.25"/>
<polygon fill="#63b8ff" stroke="#63b8ff" points="1545.17,-161.24 1555.71,-160.17 1546.8,-154.43 1545.17,-161.24"/>
</a>
</g>
</g>
<!-- Node31 -->
<g id="Node000031" class="node">
<title>Node31</title>
<g id="a_Node000031"><a xlink:href="code__80005FD0_8c.html#aa067ddc50eb34e003eae0cb05aac50cc" target="_top" xlink:title=" ">
<polygon fill="white" stroke="#666666" points="1486,-105.19 1394,-105.19 1394,-86.19 1486,-86.19 1486,-105.19"/>
<text text-anchor="middle" x="1440" y="-93.19" font-family="Helvetica,sans-Serif" font-size="10.00">func_80014C78</text>
</a>
</g>
</g>
<!-- Node22&#45;&gt;Node31 -->
<g id="edge40_Node000022_Node000031" class="edge">
<title>Node22&#45;&gt;Node31</title>
<g id="a_edge40_Node000022_Node000031"><a xlink:title=" ">
<path fill="none" stroke="#63b8ff" d="M1570.55,-154.9C1546.65,-140.86 1512.19,-120.99 1498,-114.69 1490.18,-111.22 1481.52,-108.03 1473.37,-105.29"/>
<polygon fill="#63b8ff" stroke="#63b8ff" points="1569.05,-158.07 1579.44,-160.13 1572.6,-152.04 1569.05,-158.07"/>
</a>
</g>
</g>
<!-- Node24 -->
<g id="Node000024" class="node">
<title>Node24</title>
<g id="a_Node000024"><a xlink:href="code__80005FD0_8c.html#aef8687777d0e50889371f98024d0bb12" target="_top" xlink:title=" ">
<polygon fill="white" stroke="#666666" points="1346,-143.19 1250,-143.19 1250,-124.19 1346,-124.19 1346,-143.19"/>
<text text-anchor="middle" x="1298" y="-131.19" font-family="Helvetica,sans-Serif" font-size="10.00">update_vehicles</text>
</a>
</g>
</g>
<!-- Node23&#45;&gt;Node24 -->
<g id="edge29_Node000023_Node000024" class="edge">
<title>Node23&#45;&gt;Node24</title>
<g id="a_edge29_Node000023_Node000024"><a xlink:title=" ">
<path fill="none" stroke="#63b8ff" d="M1393.89,-193.75C1389.81,-192.19 1385.79,-190.5 1382,-188.69 1355.01,-175.81 1326.6,-155.22 1311.01,-143.22"/>
<polygon fill="#63b8ff" stroke="#63b8ff" points="1392.84,-197.1 1403.44,-197.15 1395.19,-190.5 1392.84,-197.1"/>
</a>
</g>
</g>
<!-- Node25 -->
<g id="Node000025" class="node">
<title>Node25</title>
<g id="a_Node000025"><a xlink:href="race__logic_8c.html#af3b28af56eee680540843d3bd6bd24ba" target="_top" xlink:title=" ">
<polygon fill="white" stroke="#666666" points="1068.5,-143.19 977.5,-143.19 977.5,-124.19 1068.5,-124.19 1068.5,-143.19"/>
<text text-anchor="middle" x="1023" y="-131.19" font-family="Helvetica,sans-Serif" font-size="10.00">func_8028F474</text>
</a>
</g>
</g>
<!-- Node24&#45;&gt;Node25 -->
<g id="edge30_Node000024_Node000025" class="edge">
<title>Node24&#45;&gt;Node25</title>
<g id="a_edge30_Node000024_Node000025"><a xlink:title=" ">
<path fill="none" stroke="#63b8ff" d="M1239.58,-133.69C1188.73,-133.69 1115.51,-133.69 1068.85,-133.69"/>
<polygon fill="#63b8ff" stroke="#63b8ff" points="1239.76,-137.19 1249.76,-133.69 1239.76,-130.19 1239.76,-137.19"/>
</a>
</g>
</g>
<!-- Node28 -->
<g id="Node000028" class="node">
<title>Node28</title>
<g id="a_Node000028"><a xlink:href="podium__ceremony__actors_8c.html#a7ea229c65f264670fc828b95e8321154" target="_top" xlink:title=" ">
<polygon fill="white" stroke="#666666" points="921,-181.19 787,-181.19 787,-162.19 921,-162.19 921,-181.19"/>
<text text-anchor="middle" x="854" y="-169.19" font-family="Helvetica,sans-Serif" font-size="10.00">podium_ceremony_loop</text>
</a>
</g>
</g>
<!-- Node24&#45;&gt;Node28 -->
<g id="edge34_Node000024_Node000028" class="edge">
<title>Node24&#45;&gt;Node28</title>
<g id="a_edge34_Node000024_Node000028"><a xlink:title=" ">
<path fill="none" stroke="#63b8ff" d="M1239.73,-144.12C1231.13,-145.47 1222.35,-146.71 1214,-147.69 1112.1,-159.66 993.18,-166.15 921.02,-169.27"/>
<polygon fill="#63b8ff" stroke="#63b8ff" points="1240.4,-147.56 1249.71,-142.51 1239.28,-140.65 1240.4,-147.56"/>
</a>
</g>
</g>
<!-- Node26 -->
<g id="Node000026" class="node">
<title>Node26</title>
<g id="a_Node000026"><a xlink:href="main_8c.html#afff87ffcbfee4f1f37d443110aa7b52a" target="_top" xlink:title=" ">
<polygon fill="white" stroke="#666666" points="900,-143.19 808,-143.19 808,-124.19 900,-124.19 900,-143.19"/>
<text text-anchor="middle" x="854" y="-131.19" font-family="Helvetica,sans-Serif" font-size="10.00">race_logic_loop</text>
</a>
</g>
</g>
<!-- Node25&#45;&gt;Node26 -->
<g id="edge31_Node000025_Node000026" class="edge">
<title>Node25&#45;&gt;Node26</title>
<g id="a_edge31_Node000025_Node000026"><a xlink:title=" ">
<path fill="none" stroke="#63b8ff" d="M967.18,-133.69C945.47,-133.69 920.82,-133.69 900.17,-133.69"/>
<polygon fill="#63b8ff" stroke="#63b8ff" points="967.25,-137.19 977.25,-133.69 967.25,-130.19 967.25,-137.19"/>
</a>
</g>
</g>
<!-- Node27 -->
<g id="Node000027" class="node">
<title>Node27</title>
<g id="a_Node000027"><a xlink:href="main_8c.html#ae04143ce8113cdafa007c642eb620bc8" target="_top" xlink:title=" ">
<polygon fill="white" stroke="#666666" points="604,-162.19 488,-162.19 488,-143.19 604,-143.19 604,-162.19"/>
<text text-anchor="middle" x="546" y="-150.19" font-family="Helvetica,sans-Serif" font-size="10.00">game_state_handler</text>
</a>
</g>
</g>
<!-- Node26&#45;&gt;Node27 -->
<g id="edge32_Node000026_Node000027" class="edge">
<title>Node26&#45;&gt;Node27</title>
<g id="a_edge32_Node000026_Node000027"><a xlink:title=" ">
<path fill="none" stroke="#63b8ff" d="M797.63,-137.13C742.86,-140.53 659.43,-145.71 604.08,-149.15"/>
<polygon fill="#63b8ff" stroke="#63b8ff" points="798.08,-140.61 807.85,-136.5 797.65,-133.62 798.08,-140.61"/>
</a>
</g>
</g>
<!-- Node27&#45;&gt;Node8 -->
<g id="edge33_Node000027_Node000008" class="edge">
<title>Node27&#45;&gt;Node8</title>
<g id="a_edge33_Node000027_Node000008"><a xlink:title=" ">
<path fill="none" stroke="#63b8ff" d="M477.42,-161.34C469.02,-162.42 460.5,-163.51 452.3,-164.55"/>
<polygon fill="#63b8ff" stroke="#63b8ff" points="478.11,-164.78 487.59,-160.04 477.22,-157.84 478.11,-164.78"/>
</a>
</g>
</g>
<!-- Node28&#45;&gt;Node27 -->
<g id="edge35_Node000028_Node000027" class="edge">
<title>Node28&#45;&gt;Node27</title>
<g id="a_edge35_Node000028_Node000027"><a xlink:title=" ">
<path fill="none" stroke="#63b8ff" d="M776.85,-166.97C723.34,-163.64 652.89,-159.27 604.15,-156.24"/>
<polygon fill="#63b8ff" stroke="#63b8ff" points="776.78,-170.47 786.98,-167.59 777.22,-163.48 776.78,-170.47"/>
</a>
</g>
</g>
<!-- Node29&#45;&gt;Node24 -->
<g id="edge37_Node000029_Node000024" class="edge">
<title>Node29&#45;&gt;Node24</title>
<g id="a_edge37_Node000029_Node000024"><a xlink:title=" ">
<path fill="none" stroke="#63b8ff" d="M1392.05,-157.62C1373.9,-152.95 1353.43,-147.69 1336.32,-143.29"/>
<polygon fill="#63b8ff" stroke="#63b8ff" points="1391.29,-161.04 1401.85,-160.14 1393.04,-154.26 1391.29,-161.04"/>
</a>
</g>
</g>
<!-- Node30&#45;&gt;Node24 -->
<g id="edge39_Node000030_Node000024" class="edge">
<title>Node30&#45;&gt;Node24</title>
<g id="a_edge39_Node000030_Node000024"><a xlink:title=" ">
<path fill="none" stroke="#63b8ff" d="M1383.74,-133.09C1371.39,-133.18 1358.4,-133.27 1346.39,-133.36"/>
<polygon fill="#63b8ff" stroke="#63b8ff" points="1383.96,-136.59 1393.93,-133.02 1383.91,-129.59 1383.96,-136.59"/>
</a>
</g>
</g>
<!-- Node31&#45;&gt;Node24 -->
<g id="edge41_Node000031_Node000024" class="edge">
<title>Node31&#45;&gt;Node24</title>
<g id="a_edge41_Node000031_Node000024"><a xlink:title=" ">
<path fill="none" stroke="#63b8ff" d="M1393.88,-107.94C1374.59,-113.18 1352.39,-119.2 1334.32,-124.11"/>
<polygon fill="#63b8ff" stroke="#63b8ff" points="1394.94,-111.28 1403.67,-105.28 1393.1,-104.52 1394.94,-111.28"/>
</a>
</g>
</g>
<!-- Node32&#45;&gt;Node3 -->
<g id="edge43_Node000032_Node000003" class="edge">
<title>Node32&#45;&gt;Node3</title>
<g id="a_edge43_Node000032_Node000003"><a xlink:title=" ">
<path fill="none" stroke="#63b8ff" d="M1718.52,-185.43C1710.6,-191.56 1701.94,-198.97 1695,-206.69 1675.22,-228.7 1682.7,-244.97 1659,-262.69 1653.92,-266.49 1648.06,-269.49 1642.01,-271.86"/>
<polygon fill="#63b8ff" stroke="#63b8ff" points="1720.79,-188.11 1726.72,-179.33 1716.61,-182.5 1720.79,-188.11"/>
</a>
</g>
</g>
<!-- Node32&#45;&gt;Node12 -->
<g id="edge44_Node000032_Node000012" class="edge">
<title>Node32&#45;&gt;Node12</title>
<g id="a_edge44_Node000032_Node000012"><a xlink:title=" ">
<path fill="none" stroke="#63b8ff" d="M1713.5,-183.88C1684.98,-198.58 1641.17,-221.17 1616.35,-233.97"/>
<polygon fill="#63b8ff" stroke="#63b8ff" points="1715.25,-186.91 1722.53,-179.22 1712.04,-180.69 1715.25,-186.91"/>
</a>
</g>
</g>
<!-- Node32&#45;&gt;Node22 -->
<g id="edge45_Node000032_Node000022" class="edge">
<title>Node32&#45;&gt;Node22</title>
<g id="a_edge45_Node000032_Node000022"><a xlink:title=" ">
<path fill="none" stroke="#63b8ff" d="M1685.84,-169.69C1671.62,-169.69 1656.49,-169.69 1642.84,-169.69"/>
<polygon fill="#63b8ff" stroke="#63b8ff" points="1685.99,-173.19 1695.99,-169.69 1685.99,-166.19 1685.99,-173.19"/>
</a>
</g>
</g>
<!-- Node33 -->
<g id="Node000033" class="node">
<title>Node33</title>
<g id="a_Node000033"><a xlink:href="update__objects_8c.html#a51a16401cf202c55bdae59edc1f510ce" target="_top" xlink:title=" ">
<polygon fill="white" stroke="#666666" points="1642.5,-123.19 1550.5,-123.19 1550.5,-104.19 1642.5,-104.19 1642.5,-123.19"/>
<text text-anchor="middle" x="1596.5" y="-111.19" font-family="Helvetica,sans-Serif" font-size="10.00">func_8008275C</text>
</a>
</g>
</g>
<!-- Node32&#45;&gt;Node33 -->
<g id="edge46_Node000032_Node000033" class="edge">
<title>Node32&#45;&gt;Node33</title>
<g id="a_edge46_Node000032_Node000033"><a xlink:title=" ">
<path fill="none" stroke="#63b8ff" d="M1706.8,-156.35C1680.63,-146.14 1645.18,-132.3 1621.85,-123.19"/>
<polygon fill="#63b8ff" stroke="#63b8ff" points="1705.74,-159.69 1716.33,-160.07 1708.29,-153.17 1705.74,-159.69"/>
</a>
</g>
</g>
<!-- Node40 -->
<g id="Node000040" class="node">
<title>Node40</title>
<g id="a_Node000040"><a xlink:href="update__objects_8c.html#a2ebe9de1966d2cadcfe6d13c13eba1a0" target="_top" xlink:title=" ">
<polygon fill="white" stroke="#666666" points="1659,-49.19 1534,-49.19 1534,-30.19 1659,-30.19 1659,-49.19"/>
<text text-anchor="middle" x="1596.5" y="-37.19" font-family="Helvetica,sans-Serif" font-size="10.00">update_chain_chomps</text>
</a>
</g>
</g>
<!-- Node32&#45;&gt;Node40 -->
<g id="edge57_Node000032_Node000040" class="edge">
<title>Node32&#45;&gt;Node40</title>
<g id="a_edge57_Node000032_Node000040"><a xlink:title=" ">
<path fill="none" stroke="#63b8ff" d="M1722.44,-152.88C1691.94,-125.25 1632.19,-71.12 1608.02,-49.22"/>
<polygon fill="#63b8ff" stroke="#63b8ff" points="1720.45,-155.8 1730.21,-159.92 1725.15,-150.61 1720.45,-155.8"/>
</a>
</g>
</g>
<!-- Node34 -->
<g id="Node000034" class="node">
<title>Node34</title>
<g id="a_Node000034"><a xlink:href="update__objects_8c.html#ae061dff0cfaf1ef11c4609d97c895440" target="_top" xlink:title=" ">
<polygon fill="white" stroke="#666666" points="1488,-68.19 1392,-68.19 1392,-49.19 1488,-49.19 1488,-68.19"/>
<text text-anchor="middle" x="1440" y="-56.19" font-family="Helvetica,sans-Serif" font-size="10.00">update_seagulls</text>
</a>
</g>
</g>
<!-- Node33&#45;&gt;Node34 -->
<g id="edge47_Node000033_Node000034" class="edge">
<title>Node33&#45;&gt;Node34</title>
<g id="a_edge47_Node000033_Node000034"><a xlink:title=" ">
<path fill="none" stroke="#63b8ff" d="M1560.81,-100.58C1542.23,-93.63 1518.93,-85.04 1498,-77.69 1489.04,-74.55 1479.25,-71.24 1470.35,-68.28"/>
<polygon fill="#63b8ff" stroke="#63b8ff" points="1559.74,-103.91 1570.33,-104.15 1562.19,-97.36 1559.74,-103.91"/>
</a>
</g>
</g>
<!-- Node35 -->
<g id="Node000035" class="node">
<title>Node35</title>
<g id="a_Node000035"><a xlink:href="code__80057C60_8c.html#a22c0f603a5c87f883a26284082d099f8" target="_top" xlink:title=" ">
<polygon fill="white" stroke="#666666" points="1341,-68.19 1255,-68.19 1255,-49.19 1341,-49.19 1341,-68.19"/>
<text text-anchor="middle" x="1298" y="-56.19" font-family="Helvetica,sans-Serif" font-size="10.00">update_object</text>
</a>
</g>
</g>
<!-- Node34&#45;&gt;Node35 -->
<g id="edge48_Node000034_Node000035" class="edge">
<title>Node34&#45;&gt;Node35</title>
<g id="a_edge48_Node000034_Node000035"><a xlink:title=" ">
<path fill="none" stroke="#63b8ff" d="M1381.82,-58.69C1368.31,-58.69 1354.14,-58.69 1341.41,-58.69"/>
<polygon fill="#63b8ff" stroke="#63b8ff" points="1381.99,-62.19 1391.99,-58.69 1381.99,-55.19 1381.99,-62.19"/>
</a>
</g>
</g>
<!-- Node36 -->
<g id="Node000036" class="node">
<title>Node36</title>
<g id="a_Node000036"><a xlink:href="code__80057C60_8c.html#a48f7fc1ba7acccec2d7b6e0a59f65dc5" target="_top" xlink:title=" ">
<polygon fill="white" stroke="#666666" points="1214,-67.19 1122,-67.19 1122,-48.19 1214,-48.19 1214,-67.19"/>
<text text-anchor="middle" x="1168" y="-55.19" font-family="Helvetica,sans-Serif" font-size="10.00">func_80059D00</text>
</a>
</g>
</g>
<!-- Node35&#45;&gt;Node36 -->
<g id="edge49_Node000035_Node000036" class="edge">
<title>Node35&#45;&gt;Node36</title>
<g id="a_edge49_Node000035_Node000036"><a xlink:title=" ">
<path fill="none" stroke="#63b8ff" d="M1244.48,-58.28C1234.47,-58.21 1224.07,-58.12 1214.3,-58.05"/>
<polygon fill="#63b8ff" stroke="#63b8ff" points="1244.71,-61.79 1254.73,-58.36 1244.76,-54.79 1244.71,-61.79"/>
</a>
</g>
</g>
<!-- Node37 -->
<g id="Node000037" class="node">
<title>Node37</title>
<g id="a_Node000037"><a xlink:href="code__80057C60_8c.html#a86b7dba9c0715c4d7fdf8ce61c0738bc" target="_top" xlink:title=" ">
<polygon fill="white" stroke="#666666" points="1069,-105.19 977,-105.19 977,-86.19 1069,-86.19 1069,-105.19"/>
<text text-anchor="middle" x="1023" y="-93.19" font-family="Helvetica,sans-Serif" font-size="10.00">func_8005A070</text>
</a>
</g>
</g>
<!-- Node35&#45;&gt;Node37 -->
<g id="edge56_Node000035_Node000037" class="edge">
<title>Node35&#45;&gt;Node37</title>
<g id="a_edge56_Node000035_Node000037"><a xlink:title=" ">
<path fill="none" stroke="#63b8ff" d="M1247.59,-70.37C1236.58,-72.71 1224.93,-74.97 1214,-76.69 1164.72,-84.48 1107.71,-89.67 1069.1,-92.64"/>
<polygon fill="#63b8ff" stroke="#63b8ff" points="1248.46,-73.77 1257.49,-68.22 1246.97,-66.93 1248.46,-73.77"/>
</a>
</g>
</g>
<!-- Node36&#45;&gt;Node37 -->
<g id="edge50_Node000036_Node000037" class="edge">
<title>Node36&#45;&gt;Node37</title>
<g id="a_edge50_Node000036_Node000037"><a xlink:title=" ">
<path fill="none" stroke="#63b8ff" d="M1121.19,-69.87C1101.41,-75.12 1078.62,-81.18 1060.07,-86.11"/>
<polygon fill="#63b8ff" stroke="#63b8ff" points="1122.15,-73.23 1130.92,-67.28 1120.35,-66.47 1122.15,-73.23"/>
</a>
</g>
</g>
<!-- Node37&#45;&gt;Node26 -->
<g id="edge55_Node000037_Node000026" class="edge">
<title>Node37&#45;&gt;Node26</title>
<g id="a_edge55_Node000037_Node000026"><a xlink:title=" ">
<path fill="none" stroke="#63b8ff" d="M970.04,-107.52C946.49,-112.88 919.03,-119.12 896.84,-124.17"/>
<polygon fill="#63b8ff" stroke="#63b8ff" points="970.88,-110.91 979.86,-105.28 969.33,-104.09 970.88,-110.91"/>
</a>
</g>
</g>
<!-- Node37&#45;&gt;Node28 -->
<g id="edge54_Node000037_Node000028" class="edge">
<title>Node37&#45;&gt;Node28</title>
<g id="a_edge54_Node000037_Node000028"><a xlink:title=" ">
<path fill="none" stroke="#63b8ff" d="M972.97,-108.98C968.45,-110.95 964.05,-113.18 960,-115.69 940.51,-127.79 943.75,-141.02 924,-152.69 917.48,-156.55 910.14,-159.65 902.76,-162.13"/>
<polygon fill="#63b8ff" stroke="#63b8ff" points="974.32,-112.21 982.35,-105.3 971.76,-105.69 974.32,-112.21"/>
</a>
</g>
</g>
<!-- Node38 -->
<g id="Node000038" class="node">
<title>Node38</title>
<g id="a_Node000038"><a xlink:href="code__80280000_8c.html#a4d9b0156b64d7a67e4cb21cde391ca43" target="_top" xlink:title=" ">
<polygon fill="white" stroke="#666666" points="899.5,-105.19 808.5,-105.19 808.5,-86.19 899.5,-86.19 899.5,-105.19"/>
<text text-anchor="middle" x="854" y="-93.19" font-family="Helvetica,sans-Serif" font-size="10.00">func_80280000</text>
</a>
</g>
</g>
<!-- Node37&#45;&gt;Node38 -->
<g id="edge51_Node000037_Node000038" class="edge">
<title>Node37&#45;&gt;Node38</title>
<g id="a_edge51_Node000037_Node000038"><a xlink:title=" ">
<path fill="none" stroke="#63b8ff" d="M966.71,-95.69C944.93,-95.69 920.26,-95.69 899.65,-95.69"/>
<polygon fill="#63b8ff" stroke="#63b8ff" points="966.81,-99.19 976.81,-95.69 966.81,-92.19 966.81,-99.19"/>
</a>
</g>
</g>
<!-- Node39 -->
<g id="Node000039" class="node">
<title>Node39</title>
<g id="a_Node000039"><a xlink:href="code__80280000_8c.html#aa28a69be4eda3b8667366c6c7b556024" target="_top" xlink:title=" ">
<polygon fill="white" stroke="#666666" points="732,-105.19 656,-105.19 656,-86.19 732,-86.19 732,-105.19"/>
<text text-anchor="middle" x="694" y="-93.19" font-family="Helvetica,sans-Serif" font-size="10.00">credits_loop</text>
</a>
</g>
</g>
<!-- Node38&#45;&gt;Node39 -->
<g id="edge52_Node000038_Node000039" class="edge">
<title>Node38&#45;&gt;Node39</title>
<g id="a_edge52_Node000038_Node000039"><a xlink:title=" ">
<path fill="none" stroke="#63b8ff" d="M798.04,-95.69C776.29,-95.69 751.85,-95.69 732.23,-95.69"/>
<polygon fill="#63b8ff" stroke="#63b8ff" points="798.15,-99.19 808.15,-95.69 798.15,-92.19 798.15,-99.19"/>
</a>
</g>
</g>
<!-- Node39&#45;&gt;Node27 -->
<g id="edge53_Node000039_Node000027" class="edge">
<title>Node39&#45;&gt;Node27</title>
<g id="a_edge53_Node000039_Node000027"><a xlink:title=" ">
<path fill="none" stroke="#63b8ff" d="M659.18,-108.9C632.37,-119.36 595.55,-133.74 571.52,-143.12"/>
<polygon fill="#63b8ff" stroke="#63b8ff" points="660.52,-112.13 668.56,-105.23 657.97,-105.61 660.52,-112.13"/>
</a>
</g>
</g>
<!-- Node40&#45;&gt;Node35 -->
<g id="edge58_Node000040_Node000035" class="edge">
<title>Node40&#45;&gt;Node35</title>
<g id="a_edge58_Node000040_Node000035"><a xlink:title=" ">
<path fill="none" stroke="#63b8ff" d="M1523.62,-36.31C1482.11,-35.28 1428.97,-35.55 1382,-40.69 1366.46,-42.4 1349.56,-45.77 1335.09,-49.15"/>
<polygon fill="#63b8ff" stroke="#63b8ff" points="1523.55,-39.81 1533.64,-36.58 1523.75,-32.81 1523.55,-39.81"/>
</a>
</g>
</g>
<!-- Node41&#45;&gt;Node24 -->
<g id="edge60_Node000041_Node000024" class="edge">
<title>Node41&#45;&gt;Node24</title>
<g id="a_edge60_Node000041_Node000024"><a xlink:title=" ">
<path fill="none" stroke="#63b8ff" d="M1715.64,-43.29C1699.89,-35.18 1678.91,-25.87 1659,-21.69 1538.23,3.65 1491.27,16.65 1382,-40.69 1372.27,-45.8 1325.78,-101.29 1306.95,-124.04"/>
<polygon fill="#63b8ff" stroke="#63b8ff" points="1714.25,-46.51 1724.72,-48.12 1717.54,-40.33 1714.25,-46.51"/>
</a>
</g>
</g>
</g>
</svg>

<g id="navigator" transform="translate(0 0)" fill="#404254">
  <rect fill="#f2f5e9" fill-opacity="0.5" stroke="#606060" stroke-width=".5" x="0" y="0" width="60" height="60"/>
  <use id="zoomplus" xlink:href="#zoomPlus" x="17" y="9" onmousedown="handleZoom(evt,'in')"/>
  <use id="zoomminus" xlink:href="#zoomMin" x="42" y="9" onmousedown="handleZoom(evt,'out')"/>
  <use id="reset" xlink:href="#resetDef" x="30" y="36" onmousedown="handleReset()"/>
   <use id="arrowup" xlink:href="#arrowUp" x="0" y="0" onmousedown="handlePan(0,-1)"/>
  <use id="arrowright" xlink:href="#arrowRight" x="0" y="0" onmousedown="handlePan(1,0)"/>
  <use id="arrowdown" xlink:href="#arrowDown" x="0" y="0" onmousedown="handlePan(0,1)"/>
  <use id="arrowleft" xlink:href="#arrowLeft" x="0" y="0" onmousedown="handlePan(-1,0)"/>
</g>
<svg viewBox="0 0 15 15" width="100%" height="30px" preserveAspectRatio="xMaxYMin meet">
 <g id="arrow_out" transform="scale(0.3 0.3)">
  <a xlink:href="code__80005FD0_8c_aff1ba4b22fc22c38fcf28007ccaaa752_icgraph_org.svg" target="_base">
   <rect id="button" ry="5" rx="5" y="6" x="6" height="38" width="38"
        fill="#f2f5e9" fill-opacity="0.5" stroke="#606060" stroke-width="1.0"/>
   <path id="arrow"
     d="M 11.500037,31.436501 C 11.940474,20.09759 22.043105,11.32322 32.158766,21.979434 L 37.068811,17.246167 C 37.068811,17.246167 37.088388,32 37.088388,32 L 22.160133,31.978069 C 22.160133,31.978069 26.997745,27.140456 26.997745,27.140456 C 18.528582,18.264221 13.291696,25.230495 11.500037,31.436501 z"
     style="fill:#404040;"/>
  </a>
 </g>
</svg>

<style type='text/css'>
<![CDATA[
[data-mouse-over-selected='false'] { opacity: 0.7; }
[data-mouse-over-selected='true']  { opacity: 1.0; }
]]>
</style>
<script type="application/ecmascript"><![CDATA[
document.addEventListener('DOMContentLoaded', (event) => {
  highlightEdges();
  highlightAdjacentNodes();
});
]]></script>
</svg>
