<?xml version="1.0" encoding="UTF-8" standalone="no"?>
<!DOCTYPE svg PUBLIC "-//W3C//DTD SVG 1.1//EN"
 "http://www.w3.org/Graphics/SVG/1.1/DTD/svg11.dtd">
<!-- Generated by graphviz version 2.43.0 (0)
 -->
<!-- Title: setup_race Pages: 1 -->
<!--zoomable 1414 -->

<svg id="main" version="1.1" xmlns="http://www.w3.org/2000/svg" xmlns:xlink="http://www.w3.org/1999/xlink" xml:space="preserve" onload="init(evt)">
<style type="text/css"><![CDATA[
.node, .edge {opacity: 0.7;}
.node.selected, .edge.selected {opacity: 1;}
.edge:hover path { stroke: red; }
.edge:hover polygon { stroke: red; fill: red; }
]]></style>

<defs>
  <circle id="rim" cx="0" cy="0" r="7"/>
  <circle id="rim2" cx="0" cy="0" r="3.5"/>
  <g id="zoomPlus">
    <use xlink:href="#rim" fill="#404040"><set attributeName="fill" to="#808080" begin="zoomplus.mouseover" end="zoomplus.mouseout"/></use>
    <path d="M-4,0h8M0,-4v8" fill="none" stroke="white" stroke-width="1.5" pointer-events="none"/>
  </g>
  <g id="zoomMin">
    <use xlink:href="#rim" fill="#404040"><set attributeName="fill" to="#808080" begin="zoomminus.mouseover" end="zoomminus.mouseout"/></use>
    <path d="M-4,0h8" fill="none" stroke="white" stroke-width="1.5" pointer-events="none"/>
  </g>
  <g id="arrowUp" transform="translate(30 24)">
    <use xlink:href="#rim"/>
    <path pointer-events="none" fill="none" stroke="white" stroke-width="1.5" d="M0,-3.0v7 M-2.5,-0.5L0,-3.0L2.5,-0.5"/>
  </g>
  <g id="arrowRight" transform="rotate(90) translate(36 -43)">
    <use xlink:href="#rim"/>
    <path pointer-events="none" fill="none" stroke="white" stroke-width="1.5" d="M0,-3.0v7 M-2.5,-0.5L0,-3.0L2.5,-0.5"/>
  </g>
  <g id="arrowDown" transform="rotate(180) translate(-30 -48)">
    <use xlink:href="#rim"/>
    <path pointer-events="none" fill="none" stroke="white" stroke-width="1.5" d="M0,-3.0v7 M-2.5,-0.5L0,-3.0L2.5,-0.5"/>
  </g>
  <g id="arrowLeft" transform="rotate(270) translate(-36 17)">
    <use xlink:href="#rim"/>
    <path pointer-events="none" fill="none" stroke="white" stroke-width="1.5" d="M0,-3.0v7 M-2.5,-0.5L0,-3.0L2.5,-0.5"/>
  </g>
  <g id="resetDef">
    <use xlink:href="#rim2" fill="#404040"><set attributeName="fill" to="#808080" begin="reset.mouseover" end="reset.mouseout"/></use>
  </g>
</defs>
<script type="application/ecmascript">
var viewWidth = 546;
var viewHeight = 1414;
var sectionId = 'dynsection-9';
</script>
<script type="application/ecmascript" xlink:href="svg.min.js"/>
<svg id="graph" class="graph">
<g id="viewport">
<title>setup_race</title>
<!-- Node1 -->
<g id="Node000001" class="node">
<title>Node1</title>
<g id="a_Node000001"><a xlink:title=" ">
<polygon fill="#999999" stroke="#666666" points="70,-300 0,-300 0,-281 70,-281 70,-300"/>
<text text-anchor="middle" x="35" y="-288" font-family="Helvetica,sans-Serif" font-size="10.00">setup_race</text>
</a>
</g>
</g>
<!-- Node2 -->
<g id="Node000002" class="node">
<title>Node2</title>
<g id="a_Node000002"><a xlink:href="staff__ghosts_8c.html#ad3fe55bff348a8b6cfc02f327bda8544" target="_top" xlink:title=" ">
<polygon fill="white" stroke="#666666" points="214.5,-1313 123.5,-1313 123.5,-1294 214.5,-1294 214.5,-1313"/>
<text text-anchor="middle" x="169" y="-1301" font-family="Helvetica,sans-Serif" font-size="10.00">func_80005310</text>
</a>
</g>
</g>
<!-- Node1&#45;&gt;Node2 -->
<g id="edge1_Node000001_Node000002" class="edge">
<title>Node1&#45;&gt;Node2</title>
<g id="a_edge1_Node000001_Node000002"><a xlink:title=" ">
<path fill="none" stroke="#63b8ff" d="M35.8,-300.27C34.58,-370.08 30.51,-799.83 106,-1137.5 118.31,-1192.56 144.8,-1253.91 158.83,-1284.3"/>
<polygon fill="#63b8ff" stroke="#63b8ff" points="155.82,-1286.12 163.24,-1293.69 162.16,-1283.15 155.82,-1286.12"/>
</a>
</g>
</g>
<!-- Node67 -->
<g id="Node000067" class="node">
<title>Node67</title>
<g id="a_Node000067"><a xlink:href="spawn__players_8c.html#ac1a9412b931cfa517a2382c2fc605399" target="_top" xlink:title=" ">
<polygon fill="white" stroke="#666666" points="215,-1128 123,-1128 123,-1109 215,-1109 215,-1128"/>
<text text-anchor="middle" x="169" y="-1116" font-family="Helvetica,sans-Serif" font-size="10.00">func_8003D080</text>
</a>
</g>
</g>
<!-- Node1&#45;&gt;Node67 -->
<g id="edge8_Node000001_Node000067" class="edge">
<title>Node1&#45;&gt;Node67</title>
<g id="a_edge8_Node000001_Node000067"><a xlink:title=" ">
<path fill="none" stroke="#63b8ff" d="M36.42,-300.12C39.11,-358.14 55.36,-667.23 106,-913.5 120.32,-983.14 147.84,-1063.12 160.85,-1099.14"/>
<polygon fill="#63b8ff" stroke="#63b8ff" points="157.68,-1100.65 164.39,-1108.85 164.25,-1098.25 157.68,-1100.65"/>
</a>
</g>
</g>
<!-- Node355 -->
<g id="Node000355" class="node">
<title>Node355</title>
<g id="a_Node000355"><a xlink:href="code__80091750_8c.html#a11daab0c2cb2700179b2325d2c619769" target="_top" xlink:title=" ">
<polygon fill="white" stroke="#666666" points="214,-904 124,-904 124,-885 214,-885 214,-904"/>
<text text-anchor="middle" x="169" y="-892" font-family="Helvetica,sans-Serif" font-size="10.00">func_80091FA4</text>
</a>
</g>
</g>
<!-- Node1&#45;&gt;Node355 -->
<g id="edge14_Node000001_Node000355" class="edge">
<title>Node1&#45;&gt;Node355</title>
<g id="a_edge14_Node000001_Node000355"><a xlink:title=" ">
<path fill="none" stroke="#63b8ff" d="M36.73,-300.05C40.55,-347.74 59.79,-564.49 106,-735.5 120.1,-787.7 145.6,-846.27 159.09,-875.61"/>
<polygon fill="#63b8ff" stroke="#63b8ff" points="155.93,-877.11 163.32,-884.71 162.28,-874.16 155.93,-877.11"/>
</a>
</g>
</g>
<!-- Node361 -->
<g id="Node000361" class="node">
<title>Node361</title>
<g id="a_Node000361"><a xlink:href="external_8c.html#aa02fab8bd5588ff8301d0f0f91e1cb1c" target="_top" xlink:title=" ">
<polygon fill="white" stroke="#666666" points="215,-726 123,-726 123,-707 215,-707 215,-726"/>
<text text-anchor="middle" x="169" y="-714" font-family="Helvetica,sans-Serif" font-size="10.00">func_800CA008</text>
</a>
</g>
</g>
<!-- Node1&#45;&gt;Node361 -->
<g id="edge22_Node000001_Node000361" class="edge">
<title>Node1&#45;&gt;Node361</title>
<g id="a_edge22_Node000001_Node000361"><a xlink:title=" ">
<path fill="none" stroke="#63b8ff" d="M37.9,-300.25C45.05,-336.35 71.7,-465.57 106,-568.5 121.85,-616.07 146.07,-669.92 159.04,-697.69"/>
<polygon fill="#63b8ff" stroke="#63b8ff" points="156,-699.44 163.43,-706.99 162.33,-696.46 156,-699.44"/>
</a>
</g>
</g>
<!-- Node362 -->
<g id="Node000362" class="node">
<title>Node362</title>
<g id="a_Node000362"><a xlink:href="external_8c.html#a12c3e6c147828cc102e748904808ea4a" target="_top" xlink:title=" ">
<polygon fill="white" stroke="#666666" points="215.5,-559 122.5,-559 122.5,-540 215.5,-540 215.5,-559"/>
<text text-anchor="middle" x="169" y="-547" font-family="Helvetica,sans-Serif" font-size="10.00">func_800CB2C4</text>
</a>
</g>
</g>
<!-- Node1&#45;&gt;Node362 -->
<g id="edge25_Node000001_Node000362" class="edge">
<title>Node1&#45;&gt;Node362</title>
<g id="a_edge25_Node000001_Node000362"><a xlink:title=" ">
<path fill="none" stroke="#63b8ff" d="M40.85,-300.03C60.26,-338.1 132.46,-479.76 158.53,-530.92"/>
<polygon fill="#63b8ff" stroke="#63b8ff" points="155.44,-532.57 163.1,-539.89 161.68,-529.39 155.44,-532.57"/>
</a>
</g>
</g>
<!-- Node402 -->
<g id="Node000402" class="node">
<title>Node402</title>
<g id="a_Node000402"><a xlink:href="render__courses_8c.html#afa7a12f363eeadd8ea6926eaf62657ef" target="_top" xlink:title=" ">
<polygon fill="white" stroke="#666666" points="215,-319 123,-319 123,-300 215,-300 215,-319"/>
<text text-anchor="middle" x="169" y="-307" font-family="Helvetica,sans-Serif" font-size="10.00">func_80295D88</text>
</a>
</g>
</g>
<!-- Node1&#45;&gt;Node402 -->
<g id="edge33_Node000001_Node000402" class="edge">
<title>Node1&#45;&gt;Node402</title>
<g id="a_edge33_Node000001_Node000402"><a xlink:title=" ">
<path fill="none" stroke="#63b8ff" d="M70.34,-295.44C83.25,-297.3 98.27,-299.46 112.61,-301.53"/>
<polygon fill="#63b8ff" stroke="#63b8ff" points="112.5,-305.05 122.89,-303.01 113.49,-298.12 112.5,-305.05"/>
</a>
</g>
</g>
<!-- Node422 -->
<g id="Node000422" class="node">
<title>Node422</title>
<g id="a_Node000422"><a xlink:href="render__courses_8c.html#a797b6e3f31cceb40f23f76cc7cd28582" target="_top" xlink:title=" ">
<polygon fill="white" stroke="#666666" points="214.5,-282 123.5,-282 123.5,-263 214.5,-263 214.5,-282"/>
<text text-anchor="middle" x="169" y="-270" font-family="Helvetica,sans-Serif" font-size="10.00">func_802969F8</text>
</a>
</g>
</g>
<!-- Node1&#45;&gt;Node422 -->
<g id="edge44_Node000001_Node000422" class="edge">
<title>Node1&#45;&gt;Node422</title>
<g id="a_edge44_Node000001_Node000422"><a xlink:title=" ">
<path fill="none" stroke="#63b8ff" d="M70.34,-285.82C83.49,-284.02 98.85,-281.93 113.44,-279.94"/>
<polygon fill="#63b8ff" stroke="#63b8ff" points="113.95,-283.4 123.38,-278.58 113,-276.47 113.95,-283.4"/>
</a>
</g>
</g>
<!-- Node423 -->
<g id="Node000423" class="node">
<title>Node423</title>
<g id="a_Node000423"><a xlink:href="skybox__and__splitscreen_8c.html#a1520a44a27c37f0b2554764974afb428" target="_top" xlink:title=" ">
<polygon fill="white" stroke="#666666" points="215.5,-245 122.5,-245 122.5,-226 215.5,-226 215.5,-245"/>
<text text-anchor="middle" x="169" y="-233" font-family="Helvetica,sans-Serif" font-size="10.00">func_802A4D18</text>
</a>
</g>
</g>
<!-- Node1&#45;&gt;Node423 -->
<g id="edge45_Node000001_Node000423" class="edge">
<title>Node1&#45;&gt;Node423</title>
<g id="a_edge45_Node000001_Node000423"><a xlink:title=" ">
<path fill="none" stroke="#63b8ff" d="M52.58,-280.91C66.52,-273.11 87.14,-262.17 106,-254.5 111.48,-252.27 117.32,-250.16 123.14,-248.21"/>
<polygon fill="#63b8ff" stroke="#63b8ff" points="124.41,-251.48 132.86,-245.08 122.27,-244.81 124.41,-251.48"/>
</a>
</g>
</g>
<!-- Node424 -->
<g id="Node000424" class="node">
<title>Node424</title>
<g id="a_Node000424"><a xlink:href="skybox__and__splitscreen_8c.html#a3ccbc877132c17e7864318f295367fb7" target="_top" xlink:title=" ">
<polygon fill="white" stroke="#666666" points="215.5,-208 122.5,-208 122.5,-189 215.5,-189 215.5,-208"/>
<text text-anchor="middle" x="169" y="-196" font-family="Helvetica,sans-Serif" font-size="10.00">func_802A74BC</text>
</a>
</g>
</g>
<!-- Node1&#45;&gt;Node424 -->
<g id="edge46_Node000001_Node000424" class="edge">
<title>Node1&#45;&gt;Node424</title>
<g id="a_edge46_Node000001_Node000424"><a xlink:title=" ">
<path fill="none" stroke="#63b8ff" d="M42.6,-280.95C53.84,-265.4 78.19,-234.62 106,-217.5 109.41,-215.4 113.06,-213.52 116.84,-211.84"/>
<polygon fill="#63b8ff" stroke="#63b8ff" points="118.37,-214.99 126.37,-208.04 115.78,-208.49 118.37,-214.99"/>
</a>
</g>
</g>
<!-- Node425 -->
<g id="Node000425" class="node">
<title>Node425</title>
<g id="a_Node000425"><a xlink:href="code__8006E9C0_8c.html#a47667a5a47fd4ca740865e963ce795c9" target="_top" xlink:title=" ">
<polygon fill="#fff0f0" stroke="red" points="197,-171 141,-171 141,-152 197,-152 197,-171"/>
<text text-anchor="middle" x="169" y="-159" font-family="Helvetica,sans-Serif" font-size="10.00">init_hud</text>
</a>
</g>
</g>
<!-- Node1&#45;&gt;Node425 -->
<g id="edge47_Node000001_Node000425" class="edge">
<title>Node1&#45;&gt;Node425</title>
<g id="a_edge47_Node000001_Node000425"><a xlink:title=" ">
<path fill="none" stroke="#63b8ff" d="M39.41,-280.95C47.52,-259.64 69.98,-207.92 106,-180.5 113.29,-174.95 122.21,-171.01 130.99,-168.21"/>
<polygon fill="#63b8ff" stroke="#63b8ff" points="132.03,-171.56 140.74,-165.52 130.17,-164.81 132.03,-171.56"/>
</a>
</g>
</g>
<!-- Node460 -->
<g id="Node000460" class="node">
<title>Node460</title>
<g id="a_Node000460"><a xlink:href="actors_8c.html#a8ed0774c05b9577fcf2db1dd958941b1" target="_top" xlink:title=" ">
<polygon fill="#fff0f0" stroke="red" points="232,-134 106,-134 106,-115 232,-115 232,-134"/>
<text text-anchor="middle" x="169" y="-122" font-family="Helvetica,sans-Serif" font-size="10.00">load_common_texture</text>
</a>
</g>
</g>
<!-- Node1&#45;&gt;Node460 -->
<g id="edge50_Node000001_Node000460" class="edge">
<title>Node1&#45;&gt;Node460</title>
<g id="a_edge50_Node000001_Node000460"><a xlink:title=" ">
<path fill="none" stroke="#63b8ff" d="M37.76,-280.98C43.1,-254.95 61.48,-181.91 106,-143.5 107.98,-141.79 110.1,-140.24 112.34,-138.83"/>
<polygon fill="#63b8ff" stroke="#63b8ff" points="114.19,-141.81 121.39,-134.04 110.92,-135.62 114.19,-141.81"/>
</a>
</g>
</g>
<!-- Node490 -->
<g id="Node000490" class="node">
<title>Node490</title>
<g id="a_Node000490"><a xlink:href="memory_8c.html#a3b9e88d491e09bc5a2392c1fcafd5a20" target="_top" xlink:title="Loads &amp; DMAs course data. Vtx, textures, displaylists, etc.">
<polygon fill="#fff0f0" stroke="red" points="206.5,-97 131.5,-97 131.5,-78 206.5,-78 206.5,-97"/>
<text text-anchor="middle" x="169" y="-85" font-family="Helvetica,sans-Serif" font-size="10.00">load_course</text>
</a>
</g>
</g>
<!-- Node1&#45;&gt;Node490 -->
<g id="edge51_Node000001_Node000490" class="edge">
<title>Node1&#45;&gt;Node490</title>
<g id="a_edge51_Node000001_Node000490"><a xlink:title=" ">
<path fill="none" stroke="#63b8ff" d="M36.76,-280.88C39.69,-250.59 52.85,-156.25 106,-106.5 110.48,-102.31 115.85,-99.04 121.54,-96.5"/>
<polygon fill="#63b8ff" stroke="#63b8ff" points="123.17,-99.63 131.32,-92.85 120.73,-93.07 123.17,-99.63"/>
</a>
</g>
</g>
<!-- Node3 -->
<g id="Node000003" class="node">
<title>Node3</title>
<g id="a_Node000003"><a xlink:href="staff__ghosts_8c.html#a1e6c535e2e2e430c9088d9a634788aba" target="_top" xlink:title=" ">
<polygon fill="#fff0f0" stroke="red" points="384.5,-1406 293.5,-1406 293.5,-1387 384.5,-1387 384.5,-1406"/>
<text text-anchor="middle" x="339" y="-1394" font-family="Helvetica,sans-Serif" font-size="10.00">func_80004EF0</text>
</a>
</g>
</g>
<!-- Node2&#45;&gt;Node3 -->
<g id="edge2_Node000002_Node000003" class="edge">
<title>Node2&#45;&gt;Node3</title>
<g id="a_edge2_Node000002_Node000003"><a xlink:title=" ">
<path fill="none" stroke="#63b8ff" d="M179.67,-1313.09C196.28,-1329.04 231.97,-1360.98 268,-1378.5 272.94,-1380.9 278.23,-1383.01 283.62,-1384.85"/>
<polygon fill="#63b8ff" stroke="#63b8ff" points="282.76,-1388.25 293.35,-1387.88 284.85,-1381.56 282.76,-1388.25"/>
</a>
</g>
</g>
<!-- Node16 -->
<g id="Node000016" class="node">
<title>Node16</title>
<g id="a_Node000016"><a xlink:href="staff__ghosts_8c.html#aadf834e73dfafcf240157efbda08b28c" target="_top" xlink:title=" ">
<polygon fill="white" stroke="#666666" points="385,-1369 293,-1369 293,-1350 385,-1350 385,-1369"/>
<text text-anchor="middle" x="339" y="-1357" font-family="Helvetica,sans-Serif" font-size="10.00">func_80004FB0</text>
</a>
</g>
</g>
<!-- Node2&#45;&gt;Node16 -->
<g id="edge3_Node000002_Node000016" class="edge">
<title>Node2&#45;&gt;Node16</title>
<g id="a_edge3_Node000002_Node000016"><a xlink:title=" ">
<path fill="none" stroke="#63b8ff" d="M192.31,-1313.02C211.99,-1321.21 241.59,-1333.02 268,-1341.5 274.34,-1343.54 281.06,-1345.5 287.73,-1347.34"/>
<polygon fill="#63b8ff" stroke="#63b8ff" points="286.85,-1350.73 297.42,-1349.93 288.66,-1343.97 286.85,-1350.73"/>
</a>
</g>
</g>
<!-- Node17 -->
<g id="Node000017" class="node">
<title>Node17</title>
<g id="a_Node000017"><a xlink:href="staff__ghosts_8c.html#af117ae63ba55ebd8aa5c6b879178d697" target="_top" xlink:title=" ">
<polygon fill="white" stroke="#666666" points="384.5,-1332 293.5,-1332 293.5,-1313 384.5,-1313 384.5,-1332"/>
<text text-anchor="middle" x="339" y="-1320" font-family="Helvetica,sans-Serif" font-size="10.00">func_80004FF8</text>
</a>
</g>
</g>
<!-- Node2&#45;&gt;Node17 -->
<g id="edge4_Node000002_Node000017" class="edge">
<title>Node2&#45;&gt;Node17</title>
<g id="a_edge4_Node000002_Node000017"><a xlink:title=" ">
<path fill="none" stroke="#63b8ff" d="M214.58,-1308.54C235.65,-1310.93 261.01,-1313.79 283.24,-1316.31"/>
<polygon fill="#63b8ff" stroke="#63b8ff" points="282.88,-1319.79 293.21,-1317.43 283.67,-1312.83 282.88,-1319.79"/>
</a>
</g>
</g>
<!-- Node18 -->
<g id="Node000018" class="node">
<title>Node18</title>
<g id="a_Node000018"><a xlink:href="code__80091750_8c.html#aeaaf45d9941e43e3b6558dcbfa6d43b5" target="_top" xlink:title=" ">
<polygon fill="#fff0f0" stroke="red" points="384.5,-1295 293.5,-1295 293.5,-1276 384.5,-1276 384.5,-1295"/>
<text text-anchor="middle" x="339" y="-1283" font-family="Helvetica,sans-Serif" font-size="10.00">func_80091EE4</text>
</a>
</g>
</g>
<!-- Node2&#45;&gt;Node18 -->
<g id="edge5_Node000002_Node000018" class="edge">
<title>Node2&#45;&gt;Node18</title>
<g id="a_edge5_Node000002_Node000018"><a xlink:title=" ">
<path fill="none" stroke="#63b8ff" d="M214.58,-1298.72C235.65,-1296.47 261.01,-1293.75 283.24,-1291.37"/>
<polygon fill="#63b8ff" stroke="#63b8ff" points="283.64,-1294.84 293.21,-1290.3 282.9,-1287.88 283.64,-1294.84"/>
</a>
</g>
</g>
<!-- Node64 -->
<g id="Node000064" class="node">
<title>Node64</title>
<g id="a_Node000064"><a xlink:href="staff__ghosts_8c.html#a80fa9da37c18f25041a3ec02cec5cd25" target="_top" xlink:title=" ">
<polygon fill="#fff0f0" stroke="red" points="384.5,-1258 293.5,-1258 293.5,-1239 384.5,-1239 384.5,-1258"/>
<text text-anchor="middle" x="339" y="-1246" font-family="Helvetica,sans-Serif" font-size="10.00">set_staff_ghost</text>
</a>
</g>
</g>
<!-- Node2&#45;&gt;Node64 -->
<g id="edge7_Node000002_Node000064" class="edge">
<title>Node2&#45;&gt;Node64</title>
<g id="a_edge7_Node000002_Node000064"><a xlink:title=" ">
<path fill="none" stroke="#63b8ff" d="M194.36,-1293.88C214.07,-1286.26 242.61,-1275.59 268,-1267.5 275.26,-1265.19 282.99,-1262.91 290.58,-1260.77"/>
<polygon fill="#63b8ff" stroke="#63b8ff" points="291.7,-1264.09 300.41,-1258.06 289.83,-1257.35 291.7,-1264.09"/>
</a>
</g>
</g>
<!-- Node19 -->
<g id="Node000019" class="node">
<title>Node19</title>
<g id="a_Node000019"><a xlink:href="save_8c.html#aefd3604da4aa5ae9ed1eb8fd042ff5e9" target="_top" xlink:title=" ">
<polygon fill="#fff0f0" stroke="red" points="538,-1165 446,-1165 446,-1146 538,-1146 538,-1165"/>
<text text-anchor="middle" x="492" y="-1153" font-family="Helvetica,sans-Serif" font-size="10.00">func_800B5F30</text>
</a>
</g>
</g>
<!-- Node18&#45;&gt;Node19 -->
<g id="edge6_Node000018_Node000019" class="edge">
<title>Node18&#45;&gt;Node19</title>
<g id="a_edge6_Node000018_Node000019"><a xlink:title=" ">
<path fill="none" stroke="#63b8ff" d="M384.57,-1278.96C393.49,-1276.34 402.43,-1272.66 410,-1267.5 445.03,-1243.63 470.29,-1199.37 482.58,-1174.23"/>
<polygon fill="#63b8ff" stroke="#63b8ff" points="485.81,-1175.56 486.91,-1165.03 479.48,-1172.58 485.81,-1175.56"/>
</a>
</g>
</g>
<!-- Node68 -->
<g id="Node000068" class="node">
<title>Node68</title>
<g id="a_Node000068"><a xlink:href="camera_8c.html#a2699fb853dad47cc722031ca412a31ea" target="_top" xlink:title=" ">
<polygon fill="#fff0f0" stroke="red" points="376,-1221 302,-1221 302,-1202 376,-1202 376,-1221"/>
<text text-anchor="middle" x="339" y="-1209" font-family="Helvetica,sans-Serif" font-size="10.00">camera_init</text>
</a>
</g>
</g>
<!-- Node67&#45;&gt;Node68 -->
<g id="edge9_Node000067_Node000068" class="edge">
<title>Node67&#45;&gt;Node68</title>
<g id="a_edge9_Node000067_Node000068"><a xlink:title=" ">
<path fill="none" stroke="#63b8ff" d="M179.67,-1128.09C196.28,-1144.04 231.97,-1175.98 268,-1193.5 275.46,-1197.13 283.74,-1200.08 291.91,-1202.47"/>
<polygon fill="#63b8ff" stroke="#63b8ff" points="291.2,-1205.9 301.77,-1205.11 293.01,-1199.14 291.2,-1205.9"/>
</a>
</g>
</g>
<!-- Node74 -->
<g id="Node000074" class="node">
<title>Node74</title>
<g id="a_Node000074"><a xlink:href="spawn__players_8c.html#afb1c307e34d73d9c004936d2752c44ce" target="_top" xlink:title=" ">
<polygon fill="#fff0f0" stroke="red" points="385,-1184 293,-1184 293,-1165 385,-1165 385,-1184"/>
<text text-anchor="middle" x="339" y="-1172" font-family="Helvetica,sans-Serif" font-size="10.00">func_8003C0F0</text>
</a>
</g>
</g>
<!-- Node67&#45;&gt;Node74 -->
<g id="edge10_Node000067_Node000074" class="edge">
<title>Node67&#45;&gt;Node74</title>
<g id="a_edge10_Node000067_Node000074"><a xlink:title=" ">
<path fill="none" stroke="#63b8ff" d="M192.31,-1128.02C211.99,-1136.21 241.59,-1148.02 268,-1156.5 274.34,-1158.54 281.06,-1160.5 287.73,-1162.34"/>
<polygon fill="#63b8ff" stroke="#63b8ff" points="286.85,-1165.73 297.42,-1164.93 288.66,-1158.97 286.85,-1165.73"/>
</a>
</g>
</g>
<!-- Node157 -->
<g id="Node000157" class="node">
<title>Node157</title>
<g id="a_Node000157"><a xlink:href="spawn__players_8c.html#a400676f9bd53662b5636a7f191f947aa" target="_top" xlink:title=" ">
<polygon fill="#fff0f0" stroke="red" points="385.5,-1147 292.5,-1147 292.5,-1128 385.5,-1128 385.5,-1147"/>
<text text-anchor="middle" x="339" y="-1135" font-family="Helvetica,sans-Serif" font-size="10.00">func_8003CD78</text>
</a>
</g>
</g>
<!-- Node67&#45;&gt;Node157 -->
<g id="edge11_Node000067_Node000157" class="edge">
<title>Node67&#45;&gt;Node157</title>
<g id="a_edge11_Node000067_Node000157"><a xlink:title=" ">
<path fill="none" stroke="#63b8ff" d="M215.02,-1123.59C235.66,-1125.93 260.34,-1128.72 282.15,-1131.18"/>
<polygon fill="#63b8ff" stroke="#63b8ff" points="281.94,-1134.68 292.27,-1132.33 282.73,-1127.73 281.94,-1134.68"/>
</a>
</g>
</g>
<!-- Node159 -->
<g id="Node000159" class="node">
<title>Node159</title>
<g id="a_Node000159"><a xlink:href="spawn__players_8c.html#a786871d4fec99acdd5a14b48c1c38a7c" target="_top" xlink:title=" ">
<polygon fill="#fff0f0" stroke="red" points="385.5,-1110 292.5,-1110 292.5,-1091 385.5,-1091 385.5,-1110"/>
<text text-anchor="middle" x="339" y="-1098" font-family="Helvetica,sans-Serif" font-size="10.00">func_8003CD98</text>
</a>
</g>
</g>
<!-- Node67&#45;&gt;Node159 -->
<g id="edge12_Node000067_Node000159" class="edge">
<title>Node67&#45;&gt;Node159</title>
<g id="a_edge12_Node000067_Node000159"><a xlink:title=" ">
<path fill="none" stroke="#63b8ff" d="M215.02,-1113.68C235.66,-1111.46 260.34,-1108.82 282.15,-1106.48"/>
<polygon fill="#63b8ff" stroke="#63b8ff" points="282.7,-1109.95 292.27,-1105.4 281.95,-1102.98 282.7,-1109.95"/>
</a>
</g>
</g>
<!-- Node353 -->
<g id="Node000353" class="node">
<title>Node353</title>
<g id="a_Node000353"><a xlink:href="code__80057C60_8c.html#a07b43c07e7afcf3fcccf63622bb991e1" target="_top" xlink:title=" ">
<polygon fill="#fff0f0" stroke="red" points="385,-1073 293,-1073 293,-1054 385,-1054 385,-1073"/>
<text text-anchor="middle" x="339" y="-1061" font-family="Helvetica,sans-Serif" font-size="10.00">func_8005D290</text>
</a>
</g>
</g>
<!-- Node67&#45;&gt;Node353 -->
<g id="edge13_Node000067_Node000353" class="edge">
<title>Node67&#45;&gt;Node353</title>
<g id="a_edge13_Node000067_Node000353"><a xlink:title=" ">
<path fill="none" stroke="#63b8ff" d="M194.36,-1108.88C214.07,-1101.26 242.61,-1090.59 268,-1082.5 275.26,-1080.19 282.99,-1077.91 290.58,-1075.77"/>
<polygon fill="#63b8ff" stroke="#63b8ff" points="291.7,-1079.09 300.41,-1073.06 289.83,-1072.35 291.7,-1079.09"/>
</a>
</g>
</g>
<!-- Node355&#45;&gt;Node19 -->
<g id="edge20_Node000355_Node000019" class="edge">
<title>Node355&#45;&gt;Node19</title>
<g id="a_edge20_Node000355_Node000019"><a xlink:title=" ">
<path fill="none" stroke="#63b8ff" d="M175.73,-904.29C189.03,-926.13 224.22,-979.05 268,-1006.5 323.45,-1041.27 356.06,-1008.43 410,-1045.5 444.36,-1069.11 469.72,-1112.16 482.25,-1136.82"/>
<polygon fill="#63b8ff" stroke="#63b8ff" points="479.14,-1138.43 486.68,-1145.87 485.42,-1135.35 479.14,-1138.43"/>
</a>
</g>
</g>
<!-- Node356 -->
<g id="Node000356" class="node">
<title>Node356</title>
<g id="a_Node000356"><a xlink:href="code__80091750_8h.html#a7ebaf40e959e7475b365a1f44879faef" target="_top" xlink:title=" ">
<polygon fill="white" stroke="#666666" points="399,-997 279,-997 279,-978 399,-978 399,-997"/>
<text text-anchor="middle" x="339" y="-985" font-family="Helvetica,sans-Serif" font-size="10.00">add_8018D9E0_entry</text>
</a>
</g>
</g>
<!-- Node355&#45;&gt;Node356 -->
<g id="edge15_Node000355_Node000356" class="edge">
<title>Node355&#45;&gt;Node356</title>
<g id="a_edge15_Node000355_Node000356"><a xlink:title=" ">
<path fill="none" stroke="#63b8ff" d="M179.67,-904.09C196.28,-920.04 231.97,-951.98 268,-969.5 271.98,-971.43 276.19,-973.18 280.5,-974.75"/>
<polygon fill="#63b8ff" stroke="#63b8ff" points="279.42,-978.08 290.01,-977.9 281.62,-971.43 279.42,-978.08"/>
</a>
</g>
</g>
<!-- Node357 -->
<g id="Node000357" class="node">
<title>Node357</title>
<g id="a_Node000357"><a xlink:href="code__80091750_8c.html#a43d067e97313b62650b013e0384a7c8d" target="_top" xlink:title=" ">
<polygon fill="white" stroke="#666666" points="384.5,-960 293.5,-960 293.5,-941 384.5,-941 384.5,-960"/>
<text text-anchor="middle" x="339" y="-948" font-family="Helvetica,sans-Serif" font-size="10.00">func_80092258</text>
</a>
</g>
</g>
<!-- Node355&#45;&gt;Node357 -->
<g id="edge16_Node000355_Node000357" class="edge">
<title>Node355&#45;&gt;Node357</title>
<g id="a_edge16_Node000355_Node000357"><a xlink:title=" ">
<path fill="none" stroke="#63b8ff" d="M192.31,-904.02C211.99,-912.21 241.59,-924.02 268,-932.5 274.34,-934.54 281.06,-936.5 287.73,-938.34"/>
<polygon fill="#63b8ff" stroke="#63b8ff" points="286.85,-941.73 297.42,-940.93 288.66,-934.97 286.85,-941.73"/>
</a>
</g>
</g>
<!-- Node358 -->
<g id="Node000358" class="node">
<title>Node358</title>
<g id="a_Node000358"><a xlink:href="code__80091750_8c.html#a7a0cf091b9ff05148cef31479f41f941" target="_top" xlink:title=" ">
<polygon fill="white" stroke="#666666" points="384.5,-923 293.5,-923 293.5,-904 384.5,-904 384.5,-923"/>
<text text-anchor="middle" x="339" y="-911" font-family="Helvetica,sans-Serif" font-size="10.00">func_80099110</text>
</a>
</g>
</g>
<!-- Node355&#45;&gt;Node358 -->
<g id="edge17_Node000355_Node000358" class="edge">
<title>Node355&#45;&gt;Node358</title>
<g id="a_edge17_Node000355_Node000358"><a xlink:title=" ">
<path fill="none" stroke="#63b8ff" d="M214.14,-899.49C235.3,-901.89 260.86,-904.78 283.24,-907.31"/>
<polygon fill="#63b8ff" stroke="#63b8ff" points="282.95,-910.8 293.28,-908.44 283.74,-903.84 282.95,-910.8"/>
</a>
</g>
</g>
<!-- Node359 -->
<g id="Node000359" class="node">
<title>Node359</title>
<g id="a_Node000359"><a xlink:href="code__80091750_8c.html#ae938fb8c5b56456f2f0caf7dd552a51e" target="_top" xlink:title=" ">
<polygon fill="white" stroke="#666666" points="385,-886 293,-886 293,-867 385,-867 385,-886"/>
<text text-anchor="middle" x="339" y="-874" font-family="Helvetica,sans-Serif" font-size="10.00">func_8009A344</text>
</a>
</g>
</g>
<!-- Node355&#45;&gt;Node359 -->
<g id="edge18_Node000355_Node000359" class="edge">
<title>Node355&#45;&gt;Node359</title>
<g id="a_edge18_Node000355_Node000359"><a xlink:title=" ">
<path fill="none" stroke="#63b8ff" d="M214.14,-889.77C235.22,-887.51 260.65,-884.79 282.98,-882.4"/>
<polygon fill="#63b8ff" stroke="#63b8ff" points="283.42,-885.87 292.99,-881.32 282.67,-878.91 283.42,-885.87"/>
</a>
</g>
</g>
<!-- Node360 -->
<g id="Node000360" class="node">
<title>Node360</title>
<g id="a_Node000360"><a xlink:href="code__80091750_8c.html#ae589fecc0d3c5ab633b900b91c33a2cd" target="_top" xlink:title=" ">
<polygon fill="white" stroke="#666666" points="384.5,-849 293.5,-849 293.5,-830 384.5,-830 384.5,-849"/>
<text text-anchor="middle" x="339" y="-837" font-family="Helvetica,sans-Serif" font-size="10.00">func_8009E620</text>
</a>
</g>
</g>
<!-- Node355&#45;&gt;Node360 -->
<g id="edge19_Node000355_Node000360" class="edge">
<title>Node355&#45;&gt;Node360</title>
<g id="a_edge19_Node000355_Node000360"><a xlink:title=" ">
<path fill="none" stroke="#63b8ff" d="M194.36,-884.88C214.07,-877.26 242.61,-866.59 268,-858.5 275.26,-856.19 282.99,-853.91 290.58,-851.77"/>
<polygon fill="#63b8ff" stroke="#63b8ff" points="291.7,-855.09 300.41,-849.06 289.83,-848.35 291.7,-855.09"/>
</a>
</g>
</g>
<!-- Node123 -->
<g id="Node000123" class="node">
<title>Node123</title>
<g id="a_Node000123"><a xlink:href="memory_8c.html#ac5e2d1703b505404099b1205ee1b96cd" target="_top" xlink:title="Returns the address of the next available memory location and updates the memory pointer to reference...">
<polygon fill="white" stroke="#666666" points="394,-811.5 284,-811.5 284,-781.5 394,-781.5 394,-811.5"/>
<text text-anchor="start" x="292" y="-799.5" font-family="Helvetica,sans-Serif" font-size="10.00">get_next_available</text>
<text text-anchor="middle" x="339" y="-788.5" font-family="Helvetica,sans-Serif" font-size="10.00">_memory_addr</text>
</a>
</g>
</g>
<!-- Node355&#45;&gt;Node123 -->
<g id="edge21_Node000355_Node000123" class="edge">
<title>Node355&#45;&gt;Node123</title>
<g id="a_edge21_Node000355_Node000123"><a xlink:title=" ">
<path fill="none" stroke="#63b8ff" d="M180.73,-884.8C198.02,-869.58 233.59,-839.93 268,-821.5 271.95,-819.39 276.11,-817.39 280.35,-815.51"/>
<polygon fill="#63b8ff" stroke="#63b8ff" points="281.85,-818.68 289.74,-811.6 279.16,-812.22 281.85,-818.68"/>
</a>
</g>
</g>
<!-- Node213 -->
<g id="Node000213" class="node">
<title>Node213</title>
<g id="a_Node000213"><a xlink:href="external_8c.html#ac48b7cbfcaa7737f892877ead85e4ba7" target="_top" xlink:title=" ">
<polygon fill="white" stroke="#666666" points="385,-763 293,-763 293,-744 385,-744 385,-763"/>
<text text-anchor="middle" x="339" y="-751" font-family="Helvetica,sans-Serif" font-size="10.00">func_800C3448</text>
</a>
</g>
</g>
<!-- Node361&#45;&gt;Node213 -->
<g id="edge23_Node000361_Node000213" class="edge">
<title>Node361&#45;&gt;Node213</title>
<g id="a_edge23_Node000361_Node000213"><a xlink:title=" ">
<path fill="none" stroke="#63b8ff" d="M213.26,-726.03C235.03,-730.82 261.61,-736.68 284.63,-741.75"/>
<polygon fill="#63b8ff" stroke="#63b8ff" points="284.07,-745.21 294.59,-743.94 285.58,-738.37 284.07,-745.21"/>
</a>
</g>
</g>
<!-- Node168 -->
<g id="Node000168" class="node">
<title>Node168</title>
<g id="a_Node000168"><a xlink:href="external_8c.html#ad79a8b3dfe27cebca94c2d9e2cc54d2b" target="_top" xlink:title=" ">
<polygon fill="white" stroke="#666666" points="385,-726 293,-726 293,-707 385,-707 385,-726"/>
<text text-anchor="middle" x="339" y="-714" font-family="Helvetica,sans-Serif" font-size="10.00">func_800C36C4</text>
</a>
</g>
</g>
<!-- Node361&#45;&gt;Node168 -->
<g id="edge24_Node000361_Node000168" class="edge">
<title>Node361&#45;&gt;Node168</title>
<g id="a_edge24_Node000361_Node000168"><a xlink:title=" ">
<path fill="none" stroke="#63b8ff" d="M215.02,-716.5C235.83,-716.5 260.74,-716.5 282.68,-716.5"/>
<polygon fill="#63b8ff" stroke="#63b8ff" points="282.85,-720 292.85,-716.5 282.85,-713 282.85,-720"/>
</a>
</g>
</g>
<!-- Node363 -->
<g id="Node000363" class="node">
<title>Node363</title>
<g id="a_Node000363"><a xlink:href="external_8c.html#a9101650b9d48873724dacc81ddf1f359" target="_top" xlink:title=" ">
<polygon fill="#fff0f0" stroke="red" points="385,-689 293,-689 293,-670 385,-670 385,-689"/>
<text text-anchor="middle" x="339" y="-677" font-family="Helvetica,sans-Serif" font-size="10.00">func_800C1F8C</text>
</a>
</g>
</g>
<!-- Node362&#45;&gt;Node363 -->
<g id="edge26_Node000362_Node000363" class="edge">
<title>Node362&#45;&gt;Node363</title>
<g id="a_edge26_Node000362_Node000363"><a xlink:title=" ">
<path fill="none" stroke="#63b8ff" d="M175.5,-559.02C188.58,-580.76 223.78,-634.27 268,-661.5 272.67,-664.38 277.8,-666.8 283.08,-668.83"/>
<polygon fill="#63b8ff" stroke="#63b8ff" points="282.09,-672.19 292.68,-672.09 284.34,-665.57 282.09,-672.19"/>
</a>
</g>
</g>
<!-- Node368 -->
<g id="Node000368" class="node">
<title>Node368</title>
<g id="a_Node000368"><a xlink:href="external_8c.html#ade88f98a6c4693d844c22b6a0cc79007" target="_top" xlink:title=" ">
<polygon fill="#fff0f0" stroke="red" points="385,-652 293,-652 293,-633 385,-633 385,-652"/>
<text text-anchor="middle" x="339" y="-640" font-family="Helvetica,sans-Serif" font-size="10.00">func_800C2274</text>
</a>
</g>
</g>
<!-- Node362&#45;&gt;Node368 -->
<g id="edge27_Node000362_Node000368" class="edge">
<title>Node362&#45;&gt;Node368</title>
<g id="a_edge27_Node000362_Node000368"><a xlink:title=" ">
<path fill="none" stroke="#63b8ff" d="M179.67,-559.09C196.28,-575.04 231.97,-606.98 268,-624.5 272.87,-626.87 278.08,-628.95 283.39,-630.77"/>
<polygon fill="#63b8ff" stroke="#63b8ff" points="282.39,-634.12 292.98,-633.78 284.49,-627.44 282.39,-634.12"/>
</a>
</g>
</g>
<!-- Node370 -->
<g id="Node000370" class="node">
<title>Node370</title>
<g id="a_Node000370"><a xlink:href="external_8c.html#a4a32f1b7f771a18da063fd2b47392a9d" target="_top" xlink:title=" ">
<polygon fill="white" stroke="#666666" points="385,-615 293,-615 293,-596 385,-596 385,-615"/>
<text text-anchor="middle" x="339" y="-603" font-family="Helvetica,sans-Serif" font-size="10.00">func_800C3478</text>
</a>
</g>
</g>
<!-- Node362&#45;&gt;Node370 -->
<g id="edge28_Node000362_Node000370" class="edge">
<title>Node362&#45;&gt;Node370</title>
<g id="a_edge28_Node000362_Node000370"><a xlink:title=" ">
<path fill="none" stroke="#63b8ff" d="M192.31,-559.02C211.99,-567.21 241.59,-579.02 268,-587.5 274.34,-589.54 281.06,-591.5 287.73,-593.34"/>
<polygon fill="#63b8ff" stroke="#63b8ff" points="286.85,-596.73 297.42,-595.93 288.66,-589.97 286.85,-596.73"/>
</a>
</g>
</g>
<!-- Node371 -->
<g id="Node000371" class="node">
<title>Node371</title>
<g id="a_Node000371"><a xlink:href="external_8c.html#a9509bffa6aa3d47d1550d3d5683b9361" target="_top" xlink:title=" ">
<polygon fill="white" stroke="#666666" points="385,-578 293,-578 293,-559 385,-559 385,-578"/>
<text text-anchor="middle" x="339" y="-566" font-family="Helvetica,sans-Serif" font-size="10.00">func_800C5848</text>
</a>
</g>
</g>
<!-- Node362&#45;&gt;Node371 -->
<g id="edge29_Node000362_Node000371" class="edge">
<title>Node362&#45;&gt;Node371</title>
<g id="a_edge29_Node000362_Node000371"><a xlink:title=" ">
<path fill="none" stroke="#63b8ff" d="M215.91,-554.69C236.54,-557.03 261.06,-559.8 282.7,-562.25"/>
<polygon fill="#63b8ff" stroke="#63b8ff" points="282.4,-565.73 292.73,-563.38 283.19,-558.78 282.4,-565.73"/>
</a>
</g>
</g>
<!-- Node372 -->
<g id="Node000372" class="node">
<title>Node372</title>
<g id="a_Node000372"><a xlink:href="external_8c.html#a2b1be7122c397e0e6cbd0438a625b983" target="_top" xlink:title=" ">
<polygon fill="#fff0f0" stroke="red" points="385,-541 293,-541 293,-522 385,-522 385,-541"/>
<text text-anchor="middle" x="339" y="-529" font-family="Helvetica,sans-Serif" font-size="10.00">func_800C59C4</text>
</a>
</g>
</g>
<!-- Node362&#45;&gt;Node372 -->
<g id="edge30_Node000362_Node000372" class="edge">
<title>Node362&#45;&gt;Node372</title>
<g id="a_edge30_Node000362_Node000372"><a xlink:title=" ">
<path fill="none" stroke="#63b8ff" d="M215.91,-544.58C236.54,-542.37 261.06,-539.74 282.7,-537.43"/>
<polygon fill="#63b8ff" stroke="#63b8ff" points="283.16,-540.9 292.73,-536.35 282.41,-533.94 283.16,-540.9"/>
</a>
</g>
</g>
<!-- Node374 -->
<g id="Node000374" class="node">
<title>Node374</title>
<g id="a_Node000374"><a xlink:href="external_8c.html#aebe0a7e33d0961a0ad7e4ba40a49a032" target="_top" xlink:title=" ">
<polygon fill="#fff0f0" stroke="red" points="386,-504 292,-504 292,-485 386,-485 386,-504"/>
<text text-anchor="middle" x="339" y="-492" font-family="Helvetica,sans-Serif" font-size="10.00">func_800C8CCC</text>
</a>
</g>
</g>
<!-- Node362&#45;&gt;Node374 -->
<g id="edge31_Node000362_Node000374" class="edge">
<title>Node362&#45;&gt;Node374</title>
<g id="a_edge31_Node000362_Node000374"><a xlink:title=" ">
<path fill="none" stroke="#63b8ff" d="M194.36,-539.88C214.07,-532.26 242.61,-521.59 268,-513.5 275.26,-511.19 282.99,-508.91 290.58,-506.77"/>
<polygon fill="#63b8ff" stroke="#63b8ff" points="291.7,-510.09 300.41,-504.06 289.83,-503.35 291.7,-510.09"/>
</a>
</g>
</g>
<!-- Node401 -->
<g id="Node000401" class="node">
<title>Node401</title>
<g id="a_Node000401"><a xlink:href="port__eu_8c.html#a01e0fb6ba3bfcf5f10f894ca7effbaea" target="_top" xlink:title=" ">
<polygon fill="#fff0f0" stroke="red" points="385.5,-467 292.5,-467 292.5,-448 385.5,-448 385.5,-467"/>
<text text-anchor="middle" x="339" y="-455" font-family="Helvetica,sans-Serif" font-size="10.00">func_800CBC24</text>
</a>
</g>
</g>
<!-- Node362&#45;&gt;Node401 -->
<g id="edge32_Node000362_Node000401" class="edge">
<title>Node362&#45;&gt;Node401</title>
<g id="a_edge32_Node000362_Node000401"><a xlink:title=" ">
<path fill="none" stroke="#63b8ff" d="M180.01,-539.98C196.86,-524.47 232.51,-493.76 268,-476.5 272.88,-474.13 278.11,-472.01 283.42,-470.14"/>
<polygon fill="#63b8ff" stroke="#63b8ff" points="284.59,-473.44 293.02,-467.02 282.43,-466.78 284.59,-473.44"/>
</a>
</g>
</g>
<!-- Node403 -->
<g id="Node000403" class="node">
<title>Node403</title>
<g id="a_Node000403"><a xlink:href="collision_8c.html#a018be865ee771f721ef5b2d504831285" target="_top" xlink:title=" ">
<polygon fill="#fff0f0" stroke="red" points="409,-412 269,-412 269,-393 409,-393 409,-412"/>
<text text-anchor="middle" x="339" y="-400" font-family="Helvetica,sans-Serif" font-size="10.00">find_vtx_and_set_colours</text>
</a>
</g>
</g>
<!-- Node402&#45;&gt;Node403 -->
<g id="edge34_Node000402_Node000403" class="edge">
<title>Node402&#45;&gt;Node403</title>
<g id="a_edge34_Node000402_Node000403"><a xlink:title=" ">
<path fill="none" stroke="#63b8ff" d="M179.67,-319.09C196.28,-335.04 231.97,-366.98 268,-384.5 271.98,-386.43 276.19,-388.18 280.5,-389.75"/>
<polygon fill="#63b8ff" stroke="#63b8ff" points="279.42,-393.08 290.01,-392.9 281.62,-386.43 279.42,-393.08"/>
</a>
</g>
</g>
<!-- Node405 -->
<g id="Node000405" class="node">
<title>Node405</title>
<g id="a_Node000405"><a xlink:href="render__courses_8c.html#ab02cdf6684f984a12e7388fe973bc89a" target="_top" xlink:title=" ">
<polygon fill="#fff0f0" stroke="red" points="385,-375 293,-375 293,-356 385,-356 385,-375"/>
<text text-anchor="middle" x="339" y="-363" font-family="Helvetica,sans-Serif" font-size="10.00">func_80295C6C</text>
</a>
</g>
</g>
<!-- Node402&#45;&gt;Node405 -->
<g id="edge36_Node000402_Node000405" class="edge">
<title>Node402&#45;&gt;Node405</title>
<g id="a_edge36_Node000402_Node000405"><a xlink:title=" ">
<path fill="none" stroke="#63b8ff" d="M192.31,-319.02C211.99,-327.21 241.59,-339.02 268,-347.5 274.34,-349.54 281.06,-351.5 287.73,-353.34"/>
<polygon fill="#63b8ff" stroke="#63b8ff" points="286.85,-356.73 297.42,-355.93 288.66,-349.97 286.85,-356.73"/>
</a>
</g>
</g>
<!-- Node409 -->
<g id="Node000409" class="node">
<title>Node409</title>
<g id="a_Node000409"><a xlink:href="render__courses_8c.html#a95e4ea5c2df6f334ba984f7383834ec7" target="_top" xlink:title=" ">
<polygon fill="white" stroke="#666666" points="385.5,-338 292.5,-338 292.5,-319 385.5,-319 385.5,-338"/>
<text text-anchor="middle" x="339" y="-326" font-family="Helvetica,sans-Serif" font-size="10.00">func_80295D6C</text>
</a>
</g>
</g>
<!-- Node402&#45;&gt;Node409 -->
<g id="edge37_Node000402_Node000409" class="edge">
<title>Node402&#45;&gt;Node409</title>
<g id="a_edge37_Node000402_Node000409"><a xlink:title=" ">
<path fill="none" stroke="#63b8ff" d="M215.02,-314.59C235.66,-316.93 260.34,-319.72 282.15,-322.18"/>
<polygon fill="#63b8ff" stroke="#63b8ff" points="281.94,-325.68 292.27,-323.33 282.73,-318.73 281.94,-325.68"/>
</a>
</g>
</g>
<!-- Node410 -->
<g id="Node000410" class="node">
<title>Node410</title>
<g id="a_Node000410"><a xlink:href="math__util_8c.html#aea3e7d8ddce5e03ee04274ca611c9922" target="_top" xlink:title=" ">
<polygon fill="#fff0f0" stroke="red" points="386,-301 292,-301 292,-282 386,-282 386,-301"/>
<text text-anchor="middle" x="339" y="-289" font-family="Helvetica,sans-Serif" font-size="10.00">func_802B5CAC</text>
</a>
</g>
</g>
<!-- Node402&#45;&gt;Node410 -->
<g id="edge38_Node000402_Node000410" class="edge">
<title>Node402&#45;&gt;Node410</title>
<g id="a_edge38_Node000402_Node000410"><a xlink:title=" ">
<path fill="none" stroke="#63b8ff" d="M215.02,-304.68C235.58,-302.47 260.14,-299.84 281.88,-297.51"/>
<polygon fill="#63b8ff" stroke="#63b8ff" points="282.41,-300.98 291.98,-296.43 281.66,-294.02 282.41,-300.98"/>
</a>
</g>
</g>
<!-- Node411 -->
<g id="Node000411" class="node">
<title>Node411</title>
<g id="a_Node000411"><a xlink:href="math__util_8c.html#aeedfb800465850c03caa0f3224c24dee" target="_top" xlink:title=" ">
<polygon fill="#fff0f0" stroke="red" points="385.5,-264 292.5,-264 292.5,-245 385.5,-245 385.5,-264"/>
<text text-anchor="middle" x="339" y="-252" font-family="Helvetica,sans-Serif" font-size="10.00">func_802B5D64</text>
</a>
</g>
</g>
<!-- Node402&#45;&gt;Node411 -->
<g id="edge39_Node000402_Node000411" class="edge">
<title>Node402&#45;&gt;Node411</title>
<g id="a_edge39_Node000402_Node000411"><a xlink:title=" ">
<path fill="none" stroke="#63b8ff" d="M207.09,-299.92C215.38,-297.45 224.07,-294.6 232,-291.5 248.66,-284.98 251.29,-279.87 268,-273.5 274.32,-271.09 281.08,-268.85 287.8,-266.82"/>
<polygon fill="#63b8ff" stroke="#63b8ff" points="288.94,-270.14 297.58,-264 287,-263.41 288.94,-270.14"/>
</a>
</g>
</g>
<!-- Node412 -->
<g id="Node000412" class="node">
<title>Node412</title>
<g id="a_Node000412"><a xlink:href="collision_8c.html#a6275a3a99f8faf62b7c64d9aeca44c48" target="_top" xlink:title=" ">
<polygon fill="white" stroke="#666666" points="390,-227 288,-227 288,-208 390,-208 390,-227"/>
<text text-anchor="middle" x="339" y="-215" font-family="Helvetica,sans-Serif" font-size="10.00">nullify_displaylist</text>
</a>
</g>
</g>
<!-- Node402&#45;&gt;Node412 -->
<g id="edge40_Node000402_Node000412" class="edge">
<title>Node402&#45;&gt;Node412</title>
<g id="a_edge40_Node000402_Node000412"><a xlink:title=" ">
<path fill="none" stroke="#63b8ff" d="M215.16,-300.54C221.15,-298.19 226.95,-295.23 232,-291.5 255.49,-274.13 244.36,-253.67 268,-236.5 271.23,-234.15 274.74,-232.1 278.4,-230.29"/>
<polygon fill="#63b8ff" stroke="#63b8ff" points="279.92,-233.45 287.76,-226.31 277.18,-227.01 279.92,-233.45"/>
</a>
</g>
</g>
<!-- Node413 -->
<g id="Node000413" class="node">
<title>Node413</title>
<g id="a_Node000413"><a xlink:href="render__courses_8c.html#aa4af1c42d08a2df94b3140023cf94b15" target="_top" xlink:title=" ">
<polygon fill="#fff0f0" stroke="red" points="410,-190 268,-190 268,-171 410,-171 410,-190"/>
<text text-anchor="middle" x="339" y="-178" font-family="Helvetica,sans-Serif" font-size="10.00">parse_course_displaylists</text>
</a>
</g>
</g>
<!-- Node402&#45;&gt;Node413 -->
<g id="edge41_Node000402_Node000413" class="edge">
<title>Node402&#45;&gt;Node413</title>
<g id="a_edge41_Node000402_Node000413"><a xlink:title=" ">
<path fill="none" stroke="#63b8ff" d="M215.28,-301.72C221.39,-299.21 227.2,-295.88 232,-291.5 264.42,-261.89 235.32,-228.83 268,-199.5 269.75,-197.93 271.62,-196.48 273.58,-195.16"/>
<polygon fill="#63b8ff" stroke="#63b8ff" points="275.65,-198.01 282.67,-190.07 272.24,-191.9 275.65,-198.01"/>
</a>
</g>
</g>
<!-- Node420 -->
<g id="Node000420" class="node">
<title>Node420</title>
<g id="a_Node000420"><a xlink:href="collision_8c.html#aa13f1808c91cd97a2cf834f8167dc5db" target="_top" xlink:title=" ">
<polygon fill="#fff0f0" stroke="red" points="400,-152.5 278,-152.5 278,-122.5 400,-122.5 400,-152.5"/>
<text text-anchor="start" x="286" y="-140.5" font-family="Helvetica,sans-Serif" font-size="10.00">set_vertex_data_with</text>
<text text-anchor="middle" x="339" y="-129.5" font-family="Helvetica,sans-Serif" font-size="10.00">_default_section_id</text>
</a>
</g>
</g>
<!-- Node402&#45;&gt;Node420 -->
<g id="edge42_Node000402_Node000420" class="edge">
<title>Node402&#45;&gt;Node420</title>
<g id="a_edge42_Node000402_Node000420"><a xlink:title=" ">
<path fill="none" stroke="#63b8ff" d="M215.06,-302.41C221.35,-299.81 227.27,-296.28 232,-291.5 273.87,-249.19 227.43,-206.05 268,-162.5 269.24,-161.17 270.56,-159.91 271.93,-158.72"/>
<polygon fill="#63b8ff" stroke="#63b8ff" points="274.37,-161.27 280.44,-152.59 270.28,-155.59 274.37,-161.27"/>
</a>
</g>
</g>
<!-- Node421 -->
<g id="Node000421" class="node">
<title>Node421</title>
<g id="a_Node000421"><a xlink:href="collision_8c.html#a4743302e3fe799bc9307a95799761aca" target="_top" xlink:title=" ">
<polygon fill="#fff0f0" stroke="red" points="400,-104.5 278,-104.5 278,-74.5 400,-74.5 400,-104.5"/>
<text text-anchor="start" x="286" y="-92.5" font-family="Helvetica,sans-Serif" font-size="10.00">set_vertex_data_with</text>
<text text-anchor="middle" x="339" y="-81.5" font-family="Helvetica,sans-Serif" font-size="10.00">_defaults</text>
</a>
</g>
</g>
<!-- Node402&#45;&gt;Node421 -->
<g id="edge43_Node000402_Node000421" class="edge">
<title>Node402&#45;&gt;Node421</title>
<g id="a_edge43_Node000402_Node000421"><a xlink:title=" ">
<path fill="none" stroke="#63b8ff" d="M215.06,-302.84C221.43,-300.19 227.37,-296.53 232,-291.5 286.66,-232.11 214.78,-174.18 268,-113.5 268.76,-112.63 269.56,-111.79 270.38,-110.99"/>
<polygon fill="#63b8ff" stroke="#63b8ff" points="272.88,-113.47 278.52,-104.51 268.52,-108 272.88,-113.47"/>
</a>
</g>
</g>
<!-- Node403&#45;&gt;Node403 -->
<g id="edge35_Node000403_Node000403" class="edge">
<title>Node403&#45;&gt;Node403</title>
<g id="a_edge35_Node000403_Node000403"><a xlink:title=" ">
<path fill="none" stroke="#63b8ff" d="M315.57,-412.08C304.18,-420.73 311.98,-430 339,-430 356.73,-430 366.19,-426.01 367.37,-420.82"/>
<polygon fill="#63b8ff" stroke="#63b8ff" points="370.4,-419.06 362.43,-412.08 364.31,-422.51 370.4,-419.06"/>
</a>
</g>
</g>
<!-- Node426 -->
<g id="Node000426" class="node">
<title>Node426</title>
<g id="a_Node000426"><a xlink:href="code__8006E9C0_8h.html#a0a15839e2884f0317e950c05b03e4f0b" target="_top" xlink:title=" ">
<polygon fill="white" stroke="#666666" points="384,-56 294,-56 294,-37 384,-37 384,-56"/>
<text text-anchor="middle" x="339" y="-44" font-family="Helvetica,sans-Serif" font-size="10.00">func_8006FA94</text>
</a>
</g>
</g>
<!-- Node425&#45;&gt;Node426 -->
<g id="edge48_Node000425_Node000426" class="edge">
<title>Node425&#45;&gt;Node426</title>
<g id="a_edge48_Node000425_Node000426"><a xlink:title=" ">
<path fill="none" stroke="#63b8ff" d="M197.13,-158.72C208.96,-156.31 222.31,-151.83 232,-143.5 260.94,-118.6 238.84,-90.15 268,-65.5 272.8,-61.45 278.38,-58.25 284.26,-55.73"/>
<polygon fill="#63b8ff" stroke="#63b8ff" points="285.48,-59.01 293.69,-52.31 283.09,-52.43 285.48,-59.01"/>
</a>
</g>
</g>
<!-- Node427 -->
<g id="Node000427" class="node">
<title>Node427</title>
<g id="a_Node000427"><a xlink:href="code__8006E9C0_8c.html#a7ce8b772e14372f2078703a39e676d2a" target="_top" xlink:title=" ">
<polygon fill="#fff0f0" stroke="red" points="384.5,-19 293.5,-19 293.5,0 384.5,0 384.5,-19"/>
<text text-anchor="middle" x="339" y="-7" font-family="Helvetica,sans-Serif" font-size="10.00">func_80070148</text>
</a>
</g>
</g>
<!-- Node425&#45;&gt;Node427 -->
<g id="edge49_Node000425_Node000427" class="edge">
<title>Node425&#45;&gt;Node427</title>
<g id="a_edge49_Node000425_Node000427"><a xlink:title=" ">
<path fill="none" stroke="#63b8ff" d="M197.02,-159.41C209.12,-157.16 222.72,-152.61 232,-143.5 270.52,-105.68 228.9,-64.72 268,-27.5 272.59,-23.13 278.1,-19.78 283.98,-17.22"/>
<polygon fill="#63b8ff" stroke="#63b8ff" points="285.22,-20.5 293.45,-13.82 282.86,-13.91 285.22,-20.5"/>
</a>
</g>
</g>
</g>
</svg>

<g id="navigator" transform="translate(0 0)" fill="#404254">
  <rect fill="#f2f5e9" fill-opacity="0.5" stroke="#606060" stroke-width=".5" x="0" y="0" width="60" height="60"/>
  <use id="zoomplus" xlink:href="#zoomPlus" x="17" y="9" onmousedown="handleZoom(evt,'in')"/>
  <use id="zoomminus" xlink:href="#zoomMin" x="42" y="9" onmousedown="handleZoom(evt,'out')"/>
  <use id="reset" xlink:href="#resetDef" x="30" y="36" onmousedown="handleReset()"/>
   <use id="arrowup" xlink:href="#arrowUp" x="0" y="0" onmousedown="handlePan(0,-1)"/>
  <use id="arrowright" xlink:href="#arrowRight" x="0" y="0" onmousedown="handlePan(1,0)"/>
  <use id="arrowdown" xlink:href="#arrowDown" x="0" y="0" onmousedown="handlePan(0,1)"/>
  <use id="arrowleft" xlink:href="#arrowLeft" x="0" y="0" onmousedown="handlePan(-1,0)"/>
</g>
<svg viewBox="0 0 15 15" width="100%" height="30px" preserveAspectRatio="xMaxYMin meet">
 <g id="arrow_out" transform="scale(0.3 0.3)">
  <a xlink:href="code__800029B0_8h_aca6165112fc92e65ad6477e785a7098c_cgraph_org.svg" target="_base">
   <rect id="button" ry="5" rx="5" y="6" x="6" height="38" width="38"
        fill="#f2f5e9" fill-opacity="0.5" stroke="#606060" stroke-width="1.0"/>
   <path id="arrow"
     d="M 11.500037,31.436501 C 11.940474,20.09759 22.043105,11.32322 32.158766,21.979434 L 37.068811,17.246167 C 37.068811,17.246167 37.088388,32 37.088388,32 L 22.160133,31.978069 C 22.160133,31.978069 26.997745,27.140456 26.997745,27.140456 C 18.528582,18.264221 13.291696,25.230495 11.500037,31.436501 z"
     style="fill:#404040;"/>
  </a>
 </g>
</svg>

<style type='text/css'>
<![CDATA[
[data-mouse-over-selected='false'] { opacity: 0.7; }
[data-mouse-over-selected='true']  { opacity: 1.0; }
]]>
</style>
<script type="application/ecmascript"><![CDATA[
document.addEventListener('DOMContentLoaded', (event) => {
  highlightEdges();
  highlightAdjacentNodes();
});
]]></script>
</svg>
