<?xml version="1.0" encoding="UTF-8" standalone="no"?>
<!DOCTYPE svg PUBLIC "-//W3C//DTD SVG 1.1//EN"
 "http://www.w3.org/Graphics/SVG/1.1/DTD/svg11.dtd">
<!-- Generated by graphviz version 2.43.0 (0)
 -->
<!-- Title: func_8003F46C Pages: 1 -->
<!--zoomable 532 -->

<svg id="main" version="1.1" xmlns="http://www.w3.org/2000/svg" xmlns:xlink="http://www.w3.org/1999/xlink" xml:space="preserve" onload="init(evt)">
<style type="text/css"><![CDATA[
.node, .edge {opacity: 0.7;}
.node.selected, .edge.selected {opacity: 1;}
.edge:hover path { stroke: red; }
.edge:hover polygon { stroke: red; fill: red; }
]]></style>

<defs>
  <circle id="rim" cx="0" cy="0" r="7"/>
  <circle id="rim2" cx="0" cy="0" r="3.5"/>
  <g id="zoomPlus">
    <use xlink:href="#rim" fill="#404040"><set attributeName="fill" to="#808080" begin="zoomplus.mouseover" end="zoomplus.mouseout"/></use>
    <path d="M-4,0h8M0,-4v8" fill="none" stroke="white" stroke-width="1.5" pointer-events="none"/>
  </g>
  <g id="zoomMin">
    <use xlink:href="#rim" fill="#404040"><set attributeName="fill" to="#808080" begin="zoomminus.mouseover" end="zoomminus.mouseout"/></use>
    <path d="M-4,0h8" fill="none" stroke="white" stroke-width="1.5" pointer-events="none"/>
  </g>
  <g id="arrowUp" transform="translate(30 24)">
    <use xlink:href="#rim"/>
    <path pointer-events="none" fill="none" stroke="white" stroke-width="1.5" d="M0,-3.0v7 M-2.5,-0.5L0,-3.0L2.5,-0.5"/>
  </g>
  <g id="arrowRight" transform="rotate(90) translate(36 -43)">
    <use xlink:href="#rim"/>
    <path pointer-events="none" fill="none" stroke="white" stroke-width="1.5" d="M0,-3.0v7 M-2.5,-0.5L0,-3.0L2.5,-0.5"/>
  </g>
  <g id="arrowDown" transform="rotate(180) translate(-30 -48)">
    <use xlink:href="#rim"/>
    <path pointer-events="none" fill="none" stroke="white" stroke-width="1.5" d="M0,-3.0v7 M-2.5,-0.5L0,-3.0L2.5,-0.5"/>
  </g>
  <g id="arrowLeft" transform="rotate(270) translate(-36 17)">
    <use xlink:href="#rim"/>
    <path pointer-events="none" fill="none" stroke="white" stroke-width="1.5" d="M0,-3.0v7 M-2.5,-0.5L0,-3.0L2.5,-0.5"/>
  </g>
  <g id="resetDef">
    <use xlink:href="#rim2" fill="#404040"><set attributeName="fill" to="#808080" begin="reset.mouseover" end="reset.mouseout"/></use>
  </g>
</defs>
<script type="application/ecmascript">
var viewWidth = 1193;
var viewHeight = 532;
var sectionId = 'dynsection-17';
</script>
<script type="application/ecmascript" xlink:href="svg.min.js"/>
<svg id="graph" class="graph">
<g id="viewport">
<title>func_8003F46C</title>
<!-- Node1 -->
<g id="Node000001" class="node">
<title>Node1</title>
<g id="a_Node000001"><a xlink:title=" ">
<polygon fill="#999999" stroke="#666666" points="92,-429.05 0,-429.05 0,-410.05 92,-410.05 92,-429.05"/>
<text text-anchor="middle" x="46" y="-417.05" font-family="Helvetica,sans-Serif" font-size="10.00">func_8003F46C</text>
</a>
</g>
</g>
<!-- Node2 -->
<g id="Node000002" class="node">
<title>Node2</title>
<g id="a_Node000002"><a xlink:href="player__controller_8c.html#aaba04d0928ff8eaf7ef6c6cea1b93d7d" target="_top" xlink:title=" ">
<polygon fill="white" stroke="#666666" points="378,-447.05 286,-447.05 286,-428.05 378,-428.05 378,-447.05"/>
<text text-anchor="middle" x="332" y="-435.05" font-family="Helvetica,sans-Serif" font-size="10.00">func_8002A5F4</text>
</a>
</g>
</g>
<!-- Node1&#45;&gt;Node2 -->
<g id="edge1_Node000001_Node000002" class="edge">
<title>Node1&#45;&gt;Node2</title>
<g id="a_edge1_Node000001_Node000002"><a xlink:title=" ">
<path fill="none" stroke="#63b8ff" d="M51.81,-429.31C62.34,-449.42 89.61,-495.08 128,-512.55 165.22,-529.49 180.9,-524.52 220,-512.55 257.33,-501.12 293.43,-472.43 313.87,-454.03"/>
<polygon fill="#63b8ff" stroke="#63b8ff" points="316.41,-456.44 321.38,-447.08 311.66,-451.3 316.41,-456.44"/>
</a>
</g>
</g>
<!-- Node3 -->
<g id="Node000003" class="node">
<title>Node3</title>
<g id="a_Node000003"><a xlink:href="code__8003DC40_8c.html#af86fd40399bc8c0a64023e2a905d1874" target="_top" xlink:title=" ">
<polygon fill="white" stroke="#666666" points="219.5,-503.05 128.5,-503.05 128.5,-484.05 219.5,-484.05 219.5,-503.05"/>
<text text-anchor="middle" x="174" y="-491.05" font-family="Helvetica,sans-Serif" font-size="10.00">func_8003E048</text>
</a>
</g>
</g>
<!-- Node1&#45;&gt;Node3 -->
<g id="edge2_Node000001_Node000003" class="edge">
<title>Node1&#45;&gt;Node3</title>
<g id="a_edge2_Node000001_Node000003"><a xlink:title=" ">
<path fill="none" stroke="#63b8ff" d="M59.07,-429.19C74.43,-441.14 102.09,-461.64 128,-475.55 130.89,-477.1 133.95,-478.6 137.05,-480.02"/>
<polygon fill="#63b8ff" stroke="#63b8ff" points="135.81,-483.3 146.37,-484.05 138.58,-476.87 135.81,-483.3"/>
</a>
</g>
</g>
<!-- Node28 -->
<g id="Node000028" class="node">
<title>Node28</title>
<g id="a_Node000028"><a xlink:href="code__8003DC40_8c.html#a8b75605ee8cee0dd3be6138ab62e7122" target="_top" xlink:title=" ">
<polygon fill="white" stroke="#666666" points="220,-466.05 128,-466.05 128,-447.05 220,-447.05 220,-466.05"/>
<text text-anchor="middle" x="174" y="-454.05" font-family="Helvetica,sans-Serif" font-size="10.00">func_8003E37C</text>
</a>
</g>
</g>
<!-- Node1&#45;&gt;Node28 -->
<g id="edge30_Node000001_Node000028" class="edge">
<title>Node1&#45;&gt;Node28</title>
<g id="a_edge30_Node000001_Node000028"><a xlink:title=" ">
<path fill="none" stroke="#63b8ff" d="M79.45,-429.08C94.91,-433.62 113.6,-439.11 130.2,-443.98"/>
<polygon fill="#63b8ff" stroke="#63b8ff" points="129.64,-447.46 140.22,-446.92 131.62,-440.75 129.64,-447.46"/>
</a>
</g>
</g>
<!-- Node29 -->
<g id="Node000029" class="node">
<title>Node29</title>
<g id="a_Node000029"><a xlink:href="code__8003DC40_8c.html#a4007ada78f38cc543ab7d1e6618c3e85" target="_top" xlink:title=" ">
<polygon fill="white" stroke="#666666" points="220,-355.05 128,-355.05 128,-336.05 220,-336.05 220,-355.05"/>
<text text-anchor="middle" x="174" y="-343.05" font-family="Helvetica,sans-Serif" font-size="10.00">func_8003E6EC</text>
</a>
</g>
</g>
<!-- Node1&#45;&gt;Node29 -->
<g id="edge35_Node000001_Node000029" class="edge">
<title>Node1&#45;&gt;Node29</title>
<g id="a_edge35_Node000001_Node000029"><a xlink:title=" ">
<path fill="none" stroke="#63b8ff" d="M59.41,-409.98C74.9,-398.31 102.46,-378.43 128,-364.55 131.32,-362.74 134.86,-360.99 138.43,-359.32"/>
<polygon fill="#63b8ff" stroke="#63b8ff" points="140.11,-362.4 147.83,-355.15 137.27,-356 140.11,-362.4"/>
</a>
</g>
</g>
<!-- Node31 -->
<g id="Node000031" class="node">
<title>Node31</title>
<g id="a_Node000031"><a xlink:href="code__8003DC40_8c.html#a8fdf759d268ff1452797387d5e6f0567" target="_top" xlink:title=" ">
<polygon fill="white" stroke="#666666" points="220,-318.05 128,-318.05 128,-299.05 220,-299.05 220,-318.05"/>
<text text-anchor="middle" x="174" y="-306.05" font-family="Helvetica,sans-Serif" font-size="10.00">func_8003E9EC</text>
</a>
</g>
</g>
<!-- Node1&#45;&gt;Node31 -->
<g id="edge40_Node000001_Node000031" class="edge">
<title>Node1&#45;&gt;Node31</title>
<g id="a_edge40_Node000001_Node000031"><a xlink:title=" ">
<path fill="none" stroke="#63b8ff" d="M53.25,-409.94C65.56,-391.65 94.67,-351.55 128,-327.55 130.47,-325.77 133.12,-324.12 135.87,-322.59"/>
<polygon fill="#63b8ff" stroke="#63b8ff" points="137.43,-325.73 144.83,-318.14 134.31,-319.46 137.43,-325.73"/>
</a>
</g>
</g>
<!-- Node32 -->
<g id="Node000032" class="node">
<title>Node32</title>
<g id="a_Node000032"><a xlink:href="code__8003DC40_8c.html#a7e1a572441336f7a7f1029e6a356fa67" target="_top" xlink:title=" ">
<polygon fill="white" stroke="#666666" points="220,-392.05 128,-392.05 128,-373.05 220,-373.05 220,-392.05"/>
<text text-anchor="middle" x="174" y="-380.05" font-family="Helvetica,sans-Serif" font-size="10.00">func_8003EE2C</text>
</a>
</g>
</g>
<!-- Node1&#45;&gt;Node32 -->
<g id="edge45_Node000001_Node000032" class="edge">
<title>Node1&#45;&gt;Node32</title>
<g id="a_edge45_Node000001_Node000032"><a xlink:title=" ">
<path fill="none" stroke="#63b8ff" d="M79.45,-410.02C94.91,-405.48 113.6,-399.99 130.2,-395.12"/>
<polygon fill="#63b8ff" stroke="#63b8ff" points="131.62,-398.35 140.22,-392.17 129.64,-391.63 131.62,-398.35"/>
</a>
</g>
</g>
<!-- Node33 -->
<g id="Node000033" class="node">
<title>Node33</title>
<g id="a_Node000033"><a xlink:href="code__8003DC40_8c.html#a20c8bb37bffce1a6775d07965107421e" target="_top" xlink:title=" ">
<polygon fill="white" stroke="#666666" points="219.5,-429.05 128.5,-429.05 128.5,-410.05 219.5,-410.05 219.5,-429.05"/>
<text text-anchor="middle" x="174" y="-417.05" font-family="Helvetica,sans-Serif" font-size="10.00">func_8003F138</text>
</a>
</g>
</g>
<!-- Node1&#45;&gt;Node33 -->
<g id="edge50_Node000001_Node000033" class="edge">
<title>Node1&#45;&gt;Node33</title>
<g id="a_edge50_Node000001_Node000033"><a xlink:title=" ">
<path fill="none" stroke="#63b8ff" d="M92.13,-419.55C100.56,-419.55 109.45,-419.55 118.13,-419.55"/>
<polygon fill="#63b8ff" stroke="#63b8ff" points="118.18,-423.05 128.18,-419.55 118.18,-416.05 118.18,-423.05"/>
</a>
</g>
</g>
<!-- Node3&#45;&gt;Node2 -->
<g id="edge3_Node000003_Node000002" class="edge">
<title>Node3&#45;&gt;Node2</title>
<g id="a_edge3_Node000003_Node000002"><a xlink:title=" ">
<path fill="none" stroke="#63b8ff" d="M201.82,-483.92C227.53,-474.69 266.54,-460.69 294.96,-450.49"/>
<polygon fill="#63b8ff" stroke="#63b8ff" points="296.3,-453.72 304.53,-447.05 293.94,-447.13 296.3,-453.72"/>
</a>
</g>
</g>
<!-- Node4 -->
<g id="Node000004" class="node">
<title>Node4</title>
<g id="a_Node000004"><a xlink:href="player__controller_8c.html#ac7a97dc1bb35fea10379d0fa68c83f3e" target="_top" xlink:title=" ">
<polygon fill="white" stroke="#666666" points="377.5,-410.05 286.5,-410.05 286.5,-391.05 377.5,-391.05 377.5,-410.05"/>
<text text-anchor="middle" x="332" y="-398.05" font-family="Helvetica,sans-Serif" font-size="10.00">func_80031F48</text>
</a>
</g>
</g>
<!-- Node3&#45;&gt;Node4 -->
<g id="edge4_Node000003_Node000004" class="edge">
<title>Node3&#45;&gt;Node4</title>
<g id="a_edge4_Node000003_Node000004"><a xlink:title=" ">
<path fill="none" stroke="#63b8ff" d="M206.43,-483.93C211.26,-481.64 215.98,-478.87 220,-475.55 242.82,-456.72 231.98,-436.83 256,-419.55 262.07,-415.18 269.05,-411.81 276.25,-409.22"/>
<polygon fill="#63b8ff" stroke="#63b8ff" points="277.65,-412.45 286.15,-406.14 275.57,-405.77 277.65,-412.45"/>
</a>
</g>
</g>
<!-- Node11 -->
<g id="Node000011" class="node">
<title>Node11</title>
<g id="a_Node000011"><a xlink:href="code__8008C1D0_8c.html#ae7bb91110e710a8f32fcd4c56c56f934" target="_top" xlink:title=" ">
<polygon fill="white" stroke="#666666" points="819.5,-523.05 727.5,-523.05 727.5,-504.05 819.5,-504.05 819.5,-523.05"/>
<text text-anchor="middle" x="773.5" y="-511.05" font-family="Helvetica,sans-Serif" font-size="10.00">func_8008D554</text>
</a>
</g>
</g>
<!-- Node3&#45;&gt;Node11 -->
<g id="edge28_Node000003_Node000011" class="edge">
<title>Node3&#45;&gt;Node11</title>
<g id="a_edge28_Node000003_Node000011"><a xlink:title=" ">
<path fill="none" stroke="#63b8ff" d="M219.91,-495.05C327.53,-498.65 599.9,-507.77 717.28,-511.7"/>
<polygon fill="#63b8ff" stroke="#63b8ff" points="717.37,-515.21 727.48,-512.04 717.6,-508.21 717.37,-515.21"/>
</a>
</g>
</g>
<!-- Node27 -->
<g id="Node000027" class="node">
<title>Node27</title>
<g id="a_Node000027"><a xlink:href="math__util_8c.html#ad5bb0138c68b50f119d3cb7966f522b7" target="_top" xlink:title=" ">
<polygon fill="white" stroke="#666666" points="408,-373.05 256,-373.05 256,-354.05 408,-354.05 408,-373.05"/>
<text text-anchor="middle" x="332" y="-361.05" font-family="Helvetica,sans-Serif" font-size="10.00">mtxf_translate_vec3f_mat3</text>
</a>
</g>
</g>
<!-- Node3&#45;&gt;Node27 -->
<g id="edge29_Node000003_Node000027" class="edge">
<title>Node3&#45;&gt;Node27</title>
<g id="a_edge29_Node000003_Node000027"><a xlink:title=" ">
<path fill="none" stroke="#63b8ff" d="M208.42,-483.89C212.67,-481.65 216.69,-478.9 220,-475.55 251.16,-444.03 222.82,-411.93 256,-382.55 257.76,-380.99 259.62,-379.56 261.58,-378.24"/>
<polygon fill="#63b8ff" stroke="#63b8ff" points="263.61,-381.12 270.62,-373.17 260.18,-375.01 263.61,-381.12"/>
</a>
</g>
</g>
<!-- Node5 -->
<g id="Node000005" class="node">
<title>Node5</title>
<g id="a_Node000005"><a xlink:href="code__8008C1D0_8c.html#ae77e5662a7ef9f09c2e2150a36883d04" target="_top" xlink:title=" ">
<polygon fill="white" stroke="#666666" points="549,-282.05 458,-282.05 458,-263.05 549,-263.05 549,-282.05"/>
<text text-anchor="middle" x="503.5" y="-270.05" font-family="Helvetica,sans-Serif" font-size="10.00">func_8008F104</text>
</a>
</g>
</g>
<!-- Node4&#45;&gt;Node5 -->
<g id="edge5_Node000004_Node000005" class="edge">
<title>Node4&#45;&gt;Node5</title>
<g id="a_edge5_Node000004_Node000005"><a xlink:title=" ">
<path fill="none" stroke="#63b8ff" d="M377.64,-394.64C388.11,-391.98 398.86,-388.13 408,-382.55 445.94,-359.38 476.5,-315.84 491.81,-291.06"/>
<polygon fill="#63b8ff" stroke="#63b8ff" points="494.94,-292.64 497.08,-282.27 488.93,-289.04 494.94,-292.64"/>
</a>
</g>
</g>
<!-- Node26 -->
<g id="Node000026" class="node">
<title>Node26</title>
<g id="a_Node000026"><a xlink:href="player__controller_8c.html#aafeb0470c7da44e1440ffa4848f7d500" target="_top" xlink:title=" ">
<polygon fill="white" stroke="#666666" points="563,-415.55 444,-415.55 444,-385.55 563,-385.55 563,-415.55"/>
<text text-anchor="start" x="452" y="-403.55" font-family="Helvetica,sans-Serif" font-size="10.00">get_player_index_for</text>
<text text-anchor="middle" x="503.5" y="-392.55" font-family="Helvetica,sans-Serif" font-size="10.00">_player</text>
</a>
</g>
</g>
<!-- Node4&#45;&gt;Node26 -->
<g id="edge27_Node000004_Node000026" class="edge">
<title>Node4&#45;&gt;Node26</title>
<g id="a_edge27_Node000004_Node000026"><a xlink:title=" ">
<path fill="none" stroke="#63b8ff" d="M377.53,-400.55C394.74,-400.55 414.84,-400.55 433.81,-400.55"/>
<polygon fill="#63b8ff" stroke="#63b8ff" points="433.91,-404.05 443.91,-400.55 433.91,-397.05 433.91,-404.05"/>
</a>
</g>
</g>
<!-- Node6 -->
<g id="Node000006" class="node">
<title>Node6</title>
<g id="a_Node000006"><a xlink:href="code__8008C1D0_8c.html#a5cdc06d2091fc6d20759448c40b17d54" target="_top" xlink:title=" ">
<polygon fill="white" stroke="#666666" points="691,-282.05 599,-282.05 599,-263.05 691,-263.05 691,-282.05"/>
<text text-anchor="middle" x="645" y="-270.05" font-family="Helvetica,sans-Serif" font-size="10.00">func_8008C354</text>
</a>
</g>
</g>
<!-- Node5&#45;&gt;Node6 -->
<g id="edge6_Node000005_Node000006" class="edge">
<title>Node5&#45;&gt;Node6</title>
<g id="a_edge6_Node000005_Node000006"><a xlink:title=" ">
<path fill="none" stroke="#63b8ff" d="M549.02,-272.55C561.61,-272.55 575.46,-272.55 588.6,-272.55"/>
<polygon fill="#63b8ff" stroke="#63b8ff" points="588.94,-276.05 598.94,-272.55 588.94,-269.05 588.94,-276.05"/>
</a>
</g>
</g>
<!-- Node25 -->
<g id="Node000025" class="node">
<title>Node25</title>
<g id="a_Node000025"><a xlink:href="external_8c.html#a1a1bdc0f5d3b6fd4a86b9d62e93a076e" target="_top" xlink:title=" ">
<polygon fill="white" stroke="#666666" points="948,-133.05 856,-133.05 856,-114.05 948,-114.05 948,-133.05"/>
<text text-anchor="middle" x="902" y="-121.05" font-family="Helvetica,sans-Serif" font-size="10.00">func_800C90F4</text>
</a>
</g>
</g>
<!-- Node5&#45;&gt;Node25 -->
<g id="edge25_Node000005_Node000025" class="edge">
<title>Node5&#45;&gt;Node25</title>
<g id="a_edge25_Node000005_Node000025"><a xlink:title=" ">
<path fill="none" stroke="#63b8ff" d="M508.9,-262.96C527.91,-222.91 607.41,-68.47 727,-13.55 764.56,3.7 783.11,5.1 820,-13.55 857.58,-32.54 881.99,-78.1 893.43,-104.24"/>
<polygon fill="#63b8ff" stroke="#63b8ff" points="890.34,-105.93 897.42,-113.82 896.8,-103.24 890.34,-105.93"/>
</a>
</g>
</g>
<!-- Node7 -->
<g id="Node000007" class="node">
<title>Node7</title>
<g id="a_Node000007"><a xlink:href="code__8008C1D0_8c.html#ad164a912d7ef76f24e7b5cfb9169c16f" target="_top" xlink:title=" ">
<polygon fill="white" stroke="#666666" points="820,-264.05 727,-264.05 727,-245.05 820,-245.05 820,-264.05"/>
<text text-anchor="middle" x="773.5" y="-252.05" font-family="Helvetica,sans-Serif" font-size="10.00">func_8008C6D0</text>
</a>
</g>
</g>
<!-- Node6&#45;&gt;Node7 -->
<g id="edge7_Node000006_Node000007" class="edge">
<title>Node6&#45;&gt;Node7</title>
<g id="a_edge7_Node000006_Node000007"><a xlink:title=" ">
<path fill="none" stroke="#63b8ff" d="M691.31,-266.1C699.48,-264.94 708.08,-263.72 716.5,-262.52"/>
<polygon fill="#63b8ff" stroke="#63b8ff" points="717.25,-265.95 726.65,-261.07 716.26,-259.02 717.25,-265.95"/>
</a>
</g>
</g>
<!-- Node8 -->
<g id="Node000008" class="node">
<title>Node8</title>
<g id="a_Node000008"><a xlink:href="code__8008C1D0_8c.html#a105203221e314be241a95e006b62ef80" target="_top" xlink:title=" ">
<polygon fill="white" stroke="#666666" points="819.5,-227.05 727.5,-227.05 727.5,-208.05 819.5,-208.05 819.5,-227.05"/>
<text text-anchor="middle" x="773.5" y="-215.05" font-family="Helvetica,sans-Serif" font-size="10.00">func_8008C8C4</text>
</a>
</g>
</g>
<!-- Node6&#45;&gt;Node8 -->
<g id="edge8_Node000006_Node000008" class="edge">
<title>Node6&#45;&gt;Node8</title>
<g id="a_edge8_Node000006_Node000008"><a xlink:title=" ">
<path fill="none" stroke="#63b8ff" d="M667.26,-262.94C683.56,-255.61 706.65,-245.32 727,-236.55 731.18,-234.75 735.59,-232.87 739.95,-231.04"/>
<polygon fill="#63b8ff" stroke="#63b8ff" points="741.44,-234.21 749.31,-227.11 738.73,-227.75 741.44,-234.21"/>
</a>
</g>
</g>
<!-- Node9 -->
<g id="Node000009" class="node">
<title>Node9</title>
<g id="a_Node000009"><a xlink:href="code__8008C1D0_8c.html#acab450a6af6eca812ad3987a292a5165" target="_top" xlink:title=" ">
<polygon fill="white" stroke="#666666" points="819.5,-190.05 727.5,-190.05 727.5,-171.05 819.5,-171.05 819.5,-190.05"/>
<text text-anchor="middle" x="773.5" y="-178.05" font-family="Helvetica,sans-Serif" font-size="10.00">func_8008D0E4</text>
</a>
</g>
</g>
<!-- Node6&#45;&gt;Node9 -->
<g id="edge9_Node000006_Node000009" class="edge">
<title>Node6&#45;&gt;Node9</title>
<g id="a_edge9_Node000006_Node000009"><a xlink:title=" ">
<path fill="none" stroke="#63b8ff" d="M654.63,-262.9C668.6,-247.74 697.57,-218.19 727,-199.55 729.82,-197.76 732.84,-196.08 735.93,-194.51"/>
<polygon fill="#63b8ff" stroke="#63b8ff" points="737.69,-197.55 745.28,-190.15 734.74,-191.2 737.69,-197.55"/>
</a>
</g>
</g>
<!-- Node10 -->
<g id="Node000010" class="node">
<title>Node10</title>
<g id="a_Node000010"><a xlink:href="code__8008C1D0_8c.html#a663cb8df8b606cf00e361977c9d6d834" target="_top" xlink:title=" ">
<polygon fill="white" stroke="#666666" points="820,-153.05 727,-153.05 727,-134.05 820,-134.05 820,-153.05"/>
<text text-anchor="middle" x="773.5" y="-141.05" font-family="Helvetica,sans-Serif" font-size="10.00">func_8008D3B0</text>
</a>
</g>
</g>
<!-- Node6&#45;&gt;Node10 -->
<g id="edge10_Node000006_Node000010" class="edge">
<title>Node6&#45;&gt;Node10</title>
<g id="a_edge10_Node000006_Node000010"><a xlink:title=" ">
<path fill="none" stroke="#63b8ff" d="M650.74,-262.95C661.53,-242 689.89,-191.7 727,-162.55 729.06,-160.93 731.28,-159.43 733.59,-158.03"/>
<polygon fill="#63b8ff" stroke="#63b8ff" points="735.58,-160.94 742.81,-153.2 732.33,-154.74 735.58,-160.94"/>
</a>
</g>
</g>
<!-- Node6&#45;&gt;Node11 -->
<g id="edge11_Node000006_Node000011" class="edge">
<title>Node6&#45;&gt;Node11</title>
<g id="a_edge11_Node000006_Node000011"><a xlink:title=" ">
<path fill="none" stroke="#63b8ff" d="M646.77,-282.51C649.96,-316.86 664.98,-431.75 727,-495.55 727.93,-496.51 728.92,-497.42 729.96,-498.28"/>
<polygon fill="#63b8ff" stroke="#63b8ff" points="728.37,-501.43 738.65,-504 732.22,-495.58 728.37,-501.43"/>
</a>
</g>
</g>
<!-- Node12 -->
<g id="Node000012" class="node">
<title>Node12</title>
<g id="a_Node000012"><a xlink:href="code__8008C1D0_8c.html#a5f19eaaa048055d292d02c717e635786" target="_top" xlink:title=" ">
<polygon fill="white" stroke="#666666" points="819.5,-116.05 727.5,-116.05 727.5,-97.05 819.5,-97.05 819.5,-116.05"/>
<text text-anchor="middle" x="773.5" y="-104.05" font-family="Helvetica,sans-Serif" font-size="10.00">func_8008D760</text>
</a>
</g>
</g>
<!-- Node6&#45;&gt;Node12 -->
<g id="edge12_Node000006_Node000012" class="edge">
<title>Node6&#45;&gt;Node12</title>
<g id="a_edge12_Node000006_Node000012"><a xlink:title=" ">
<path fill="none" stroke="#63b8ff" d="M648.83,-262.88C656.86,-237.08 682.11,-165.83 727,-125.55 728.71,-124.02 730.56,-122.6 732.5,-121.28"/>
<polygon fill="#63b8ff" stroke="#63b8ff" points="734.51,-124.17 741.46,-116.18 731.04,-118.08 734.51,-124.17"/>
</a>
</g>
</g>
<!-- Node13 -->
<g id="Node000013" class="node">
<title>Node13</title>
<g id="a_Node000013"><a xlink:href="code__8008C1D0_8c.html#a4ea2da0616ee3c475e4be217dc0bc71f" target="_top" xlink:title=" ">
<polygon fill="white" stroke="#666666" points="820,-79.05 727,-79.05 727,-60.05 820,-60.05 820,-79.05"/>
<text text-anchor="middle" x="773.5" y="-67.05" font-family="Helvetica,sans-Serif" font-size="10.00">func_8008D97C</text>
</a>
</g>
</g>
<!-- Node6&#45;&gt;Node13 -->
<g id="edge13_Node000006_Node000013" class="edge">
<title>Node6&#45;&gt;Node13</title>
<g id="a_edge13_Node000006_Node000013"><a xlink:title=" ">
<path fill="none" stroke="#63b8ff" d="M647.67,-262.7C653.29,-232.55 674.18,-140.37 727,-88.55 728.47,-87.11 730.06,-85.77 731.74,-84.53"/>
<polygon fill="#63b8ff" stroke="#63b8ff" points="733.97,-87.28 740.71,-79.11 730.34,-81.29 733.97,-87.28"/>
</a>
</g>
</g>
<!-- Node14 -->
<g id="Node000014" class="node">
<title>Node14</title>
<g id="a_Node000014"><a xlink:href="code__8008C1D0_8c.html#a4a437d6caeeaa794bcce43ec60c097e9" target="_top" xlink:title=" ">
<polygon fill="white" stroke="#666666" points="819,-42.05 728,-42.05 728,-23.05 819,-23.05 819,-42.05"/>
<text text-anchor="middle" x="773.5" y="-30.05" font-family="Helvetica,sans-Serif" font-size="10.00">func_8008E884</text>
</a>
</g>
</g>
<!-- Node6&#45;&gt;Node14 -->
<g id="edge14_Node000006_Node000014" class="edge">
<title>Node6&#45;&gt;Node14</title>
<g id="a_edge14_Node000006_Node000014"><a xlink:title=" ">
<path fill="none" stroke="#63b8ff" d="M646.85,-262.72C650.27,-228.81 665.98,-115.33 727,-51.55 728.38,-50.11 729.88,-48.78 731.47,-47.54"/>
<polygon fill="#63b8ff" stroke="#63b8ff" points="733.44,-50.43 740.03,-42.14 729.71,-44.51 733.44,-50.43"/>
</a>
</g>
</g>
<!-- Node15 -->
<g id="Node000015" class="node">
<title>Node15</title>
<g id="a_Node000015"><a xlink:href="code__8008C1D0_8c.html#a4e2c6d0ba50b7c13695f74f1c2bc7b18" target="_top" xlink:title=" ">
<polygon fill="white" stroke="#666666" points="819.5,-486.05 727.5,-486.05 727.5,-467.05 819.5,-467.05 819.5,-486.05"/>
<text text-anchor="middle" x="773.5" y="-474.05" font-family="Helvetica,sans-Serif" font-size="10.00">func_8008EC34</text>
</a>
</g>
</g>
<!-- Node6&#45;&gt;Node15 -->
<g id="edge15_Node000006_Node000015" class="edge">
<title>Node6&#45;&gt;Node15</title>
<g id="a_edge15_Node000006_Node000015"><a xlink:title=" ">
<path fill="none" stroke="#63b8ff" d="M647.52,-282.12C652.8,-312.27 673.06,-406.41 727,-458.55 728.11,-459.62 729.29,-460.63 730.52,-461.58"/>
<polygon fill="#63b8ff" stroke="#63b8ff" points="728.97,-464.73 739.31,-467.05 732.67,-458.79 728.97,-464.73"/>
</a>
</g>
</g>
<!-- Node16 -->
<g id="Node000016" class="node">
<title>Node16</title>
<g id="a_Node000016"><a xlink:href="code__8008C1D0_8c.html#ae48f5d9507d1966754bc1aa1bddc4136" target="_top" xlink:title=" ">
<polygon fill="white" stroke="#666666" points="819.5,-449.05 727.5,-449.05 727.5,-430.05 819.5,-430.05 819.5,-449.05"/>
<text text-anchor="middle" x="773.5" y="-437.05" font-family="Helvetica,sans-Serif" font-size="10.00">func_8008EEC4</text>
</a>
</g>
</g>
<!-- Node6&#45;&gt;Node16 -->
<g id="edge16_Node000006_Node000016" class="edge">
<title>Node6&#45;&gt;Node16</title>
<g id="a_edge16_Node000006_Node000016"><a xlink:title=" ">
<path fill="none" stroke="#63b8ff" d="M648.75,-282.39C656.57,-308.66 681.37,-381.14 727,-421.55 728.31,-422.71 729.71,-423.8 731.16,-424.83"/>
<polygon fill="#63b8ff" stroke="#63b8ff" points="729.63,-427.99 740.04,-429.99 733.16,-421.94 729.63,-427.99"/>
</a>
</g>
</g>
<!-- Node17 -->
<g id="Node000017" class="node">
<title>Node17</title>
<g id="a_Node000017"><a xlink:href="code__8008C1D0_8c.html#a77e26f2cff6381f9ba1575f8da060571" target="_top" xlink:title=" ">
<polygon fill="white" stroke="#666666" points="819,-412.05 728,-412.05 728,-393.05 819,-393.05 819,-412.05"/>
<text text-anchor="middle" x="773.5" y="-400.05" font-family="Helvetica,sans-Serif" font-size="10.00">func_8008F0E8</text>
</a>
</g>
</g>
<!-- Node6&#45;&gt;Node17 -->
<g id="edge17_Node000006_Node000017" class="edge">
<title>Node6&#45;&gt;Node17</title>
<g id="a_edge17_Node000006_Node000017"><a xlink:title=" ">
<path fill="none" stroke="#63b8ff" d="M650.49,-282.05C660.98,-303.3 689.11,-355.1 727,-384.55 728.61,-385.8 730.32,-386.97 732.09,-388.08"/>
<polygon fill="#63b8ff" stroke="#63b8ff" points="730.88,-391.4 741.35,-392.99 734.16,-385.21 730.88,-391.4"/>
</a>
</g>
</g>
<!-- Node18 -->
<g id="Node000018" class="node">
<title>Node18</title>
<g id="a_Node000018"><a xlink:href="code__8008C1D0_8c.html#ae02351b6bbb678b552ec8864b47fc56c" target="_top" xlink:title=" ">
<polygon fill="white" stroke="#666666" points="819,-375.05 728,-375.05 728,-356.05 819,-356.05 819,-375.05"/>
<text text-anchor="middle" x="773.5" y="-363.05" font-family="Helvetica,sans-Serif" font-size="10.00">func_8008F3E0</text>
</a>
</g>
</g>
<!-- Node6&#45;&gt;Node18 -->
<g id="edge18_Node000006_Node000018" class="edge">
<title>Node6&#45;&gt;Node18</title>
<g id="a_edge18_Node000006_Node000018"><a xlink:title=" ">
<path fill="none" stroke="#63b8ff" d="M654.54,-282.55C668.37,-298.24 697.16,-328.76 727,-347.55 729.28,-348.98 731.69,-350.34 734.17,-351.61"/>
<polygon fill="#63b8ff" stroke="#63b8ff" points="732.77,-354.82 743.32,-355.87 735.72,-348.48 732.77,-354.82"/>
</a>
</g>
</g>
<!-- Node19 -->
<g id="Node000019" class="node">
<title>Node19</title>
<g id="a_Node000019"><a xlink:href="code__8008C1D0_8c.html#afcf39ca15166fb7561402462930cd979" target="_top" xlink:title=" ">
<polygon fill="white" stroke="#666666" points="819.5,-338.05 727.5,-338.05 727.5,-319.05 819.5,-319.05 819.5,-338.05"/>
<text text-anchor="middle" x="773.5" y="-326.05" font-family="Helvetica,sans-Serif" font-size="10.00">func_8008F5A4</text>
</a>
</g>
</g>
<!-- Node6&#45;&gt;Node19 -->
<g id="edge19_Node000006_Node000019" class="edge">
<title>Node6&#45;&gt;Node19</title>
<g id="a_edge19_Node000006_Node000019"><a xlink:title=" ">
<path fill="none" stroke="#63b8ff" d="M665.49,-282.11C681.8,-290.01 705.75,-301.37 727,-310.55 730.48,-312.05 734.13,-313.58 737.78,-315.07"/>
<polygon fill="#63b8ff" stroke="#63b8ff" points="736.77,-318.44 747.35,-318.92 739.38,-311.94 736.77,-318.44"/>
</a>
</g>
</g>
<!-- Node24 -->
<g id="Node000024" class="node">
<title>Node24</title>
<g id="a_Node000024"><a xlink:href="code__8008C1D0_8c.html#ab6d84742231847170dd64267f0519cdf" target="_top" xlink:title=" ">
<polygon fill="white" stroke="#666666" points="820,-301.05 727,-301.05 727,-282.05 820,-282.05 820,-301.05"/>
<text text-anchor="middle" x="773.5" y="-289.05" font-family="Helvetica,sans-Serif" font-size="10.00">func_8008FEDC</text>
</a>
</g>
</g>
<!-- Node6&#45;&gt;Node24 -->
<g id="edge24_Node000006_Node000024" class="edge">
<title>Node6&#45;&gt;Node24</title>
<g id="a_edge24_Node000006_Node000024"><a xlink:title=" ">
<path fill="none" stroke="#63b8ff" d="M691.31,-279.35C699.48,-280.58 708.08,-281.87 716.5,-283.14"/>
<polygon fill="#63b8ff" stroke="#63b8ff" points="716.24,-286.64 726.65,-284.66 717.28,-279.72 716.24,-286.64"/>
</a>
</g>
</g>
<!-- Node20 -->
<g id="Node000020" class="node">
<title>Node20</title>
<g id="a_Node000020"><a xlink:href="code__80057C60_8c.html#a0a55fae21abd30d3c618adef1a9f3ccd" target="_top" xlink:title=" ">
<polygon fill="white" stroke="#666666" points="948,-305.05 856,-305.05 856,-286.05 948,-286.05 948,-305.05"/>
<text text-anchor="middle" x="902" y="-293.05" font-family="Helvetica,sans-Serif" font-size="10.00">func_8006B8B4</text>
</a>
</g>
</g>
<!-- Node19&#45;&gt;Node20 -->
<g id="edge20_Node000019_Node000020" class="edge">
<title>Node19&#45;&gt;Node20</title>
<g id="a_edge20_Node000019_Node000020"><a xlink:title=" ">
<path fill="none" stroke="#63b8ff" d="M811.09,-319C824.73,-315.45 840.38,-311.36 854.77,-307.61"/>
<polygon fill="#63b8ff" stroke="#63b8ff" points="855.7,-310.98 864.49,-305.07 853.93,-304.21 855.7,-310.98"/>
</a>
</g>
</g>
<!-- Node21 -->
<g id="Node000021" class="node">
<title>Node21</title>
<g id="a_Node000021"><a xlink:href="code__8008C1D0_8c.html#a1c7552c4a370cc015c2726e40f1fdb06" target="_top" xlink:title=" ">
<polygon fill="white" stroke="#666666" points="1077,-268.05 984,-268.05 984,-249.05 1077,-249.05 1077,-268.05"/>
<text text-anchor="middle" x="1030.5" y="-256.05" font-family="Helvetica,sans-Serif" font-size="10.00">func_8008FD4C</text>
</a>
</g>
</g>
<!-- Node20&#45;&gt;Node21 -->
<g id="edge21_Node000020_Node000021" class="edge">
<title>Node20&#45;&gt;Node21</title>
<g id="a_edge21_Node000020_Node000021"><a xlink:title=" ">
<path fill="none" stroke="#63b8ff" d="M935.58,-286.02C951.1,-281.48 969.87,-275.99 986.53,-271.12"/>
<polygon fill="#63b8ff" stroke="#63b8ff" points="987.98,-274.34 996.59,-268.17 986.01,-267.62 987.98,-274.34"/>
</a>
</g>
</g>
<!-- Node22 -->
<g id="Node000022" class="node">
<title>Node22</title>
<g id="a_Node000022"><a xlink:href="external_8c.html#a517352d45a01341217ab2c073b3b223f" target="_top" xlink:title=" ">
<polygon fill="white" stroke="#666666" points="1076.5,-305.05 984.5,-305.05 984.5,-286.05 1076.5,-286.05 1076.5,-305.05"/>
<text text-anchor="middle" x="1030.5" y="-293.05" font-family="Helvetica,sans-Serif" font-size="10.00">func_800C9060</text>
</a>
</g>
</g>
<!-- Node20&#45;&gt;Node22 -->
<g id="edge22_Node000020_Node000022" class="edge">
<title>Node20&#45;&gt;Node22</title>
<g id="a_edge22_Node000020_Node000022"><a xlink:title=" ">
<path fill="none" stroke="#63b8ff" d="M948.31,-295.55C956.58,-295.55 965.29,-295.55 973.81,-295.55"/>
<polygon fill="#63b8ff" stroke="#63b8ff" points="974.08,-299.05 984.08,-295.55 974.08,-292.05 974.08,-299.05"/>
</a>
</g>
</g>
<!-- Node23 -->
<g id="Node000023" class="node">
<title>Node23</title>
<g id="a_Node000023"><a xlink:href="external_8c.html#a62e16f9600e7e9beda2c9d2df10f3561" target="_top" xlink:title=" ">
<polygon fill="white" stroke="#666666" points="1185,-235.05 1113,-235.05 1113,-216.05 1185,-216.05 1185,-235.05"/>
<text text-anchor="middle" x="1149" y="-223.05" font-family="Helvetica,sans-Serif" font-size="10.00">play_sound</text>
</a>
</g>
</g>
<!-- Node22&#45;&gt;Node23 -->
<g id="edge23_Node000022_Node000023" class="edge">
<title>Node22&#45;&gt;Node23</title>
<g id="a_edge23_Node000022_Node000023"><a xlink:title=" ">
<path fill="none" stroke="#63b8ff" d="M1058.97,-285.99C1065.04,-283.52 1071.35,-280.67 1077,-277.55 1095.61,-267.28 1114.96,-252.81 1128.75,-241.74"/>
<polygon fill="#63b8ff" stroke="#63b8ff" points="1131.04,-244.4 1136.56,-235.36 1126.61,-238.98 1131.04,-244.4"/>
</a>
</g>
</g>
<!-- Node25&#45;&gt;Node23 -->
<g id="edge26_Node000025_Node000023" class="edge">
<title>Node25&#45;&gt;Node23</title>
<g id="a_edge26_Node000025_Node000023"><a xlink:title=" ">
<path fill="none" stroke="#63b8ff" d="M926.05,-133.14C969.83,-151.37 1065.11,-191.04 1115.4,-211.98"/>
<polygon fill="#63b8ff" stroke="#63b8ff" points="1114.26,-215.29 1124.83,-215.9 1116.95,-208.83 1114.26,-215.29"/>
</a>
</g>
</g>
<!-- Node28&#45;&gt;Node2 -->
<g id="edge31_Node000028_Node000002" class="edge">
<title>Node28&#45;&gt;Node2</title>
<g id="a_edge31_Node000028_Node000002"><a xlink:title=" ">
<path fill="none" stroke="#63b8ff" d="M220.12,-451.05C237.58,-448.93 257.74,-446.47 276.04,-444.24"/>
<polygon fill="#63b8ff" stroke="#63b8ff" points="276.48,-447.72 285.98,-443.03 275.63,-440.77 276.48,-447.72"/>
</a>
</g>
</g>
<!-- Node28&#45;&gt;Node4 -->
<g id="edge32_Node000028_Node000004" class="edge">
<title>Node28&#45;&gt;Node4</title>
<g id="a_edge32_Node000028_Node000004"><a xlink:title=" ">
<path fill="none" stroke="#63b8ff" d="M200.43,-446.92C206.87,-444.33 213.74,-441.44 220,-438.55 236.42,-430.96 239.11,-426.04 256,-419.55 262.49,-417.06 269.41,-414.8 276.34,-412.77"/>
<polygon fill="#63b8ff" stroke="#63b8ff" points="277.73,-416.02 286.43,-409.98 275.86,-409.27 277.73,-416.02"/>
</a>
</g>
</g>
<!-- Node28&#45;&gt;Node11 -->
<g id="edge33_Node000028_Node000011" class="edge">
<title>Node28&#45;&gt;Node11</title>
<g id="a_edge33_Node000028_Node000011"><a xlink:title=" ">
<path fill="none" stroke="#63b8ff" d="M220.26,-460.19C310.09,-467.53 517.25,-484.98 691,-503.55 699.46,-504.45 708.4,-505.48 717.14,-506.52"/>
<polygon fill="#63b8ff" stroke="#63b8ff" points="716.92,-510.02 727.26,-507.74 717.76,-503.07 716.92,-510.02"/>
</a>
</g>
</g>
<!-- Node28&#45;&gt;Node27 -->
<g id="edge34_Node000028_Node000027" class="edge">
<title>Node28&#45;&gt;Node27</title>
<g id="a_edge34_Node000028_Node000027"><a xlink:title=" ">
<path fill="none" stroke="#63b8ff" d="M206.43,-446.93C211.26,-444.64 215.98,-441.87 220,-438.55 242.82,-419.72 231.98,-399.83 256,-382.55 258.67,-380.63 261.52,-378.9 264.48,-377.34"/>
<polygon fill="#63b8ff" stroke="#63b8ff" points="266,-380.5 273.67,-373.19 263.12,-374.12 266,-380.5"/>
</a>
</g>
</g>
<!-- Node29&#45;&gt;Node2 -->
<g id="edge36_Node000029_Node000002" class="edge">
<title>Node29&#45;&gt;Node2</title>
<g id="a_edge36_Node000029_Node000002"><a xlink:title=" ">
<path fill="none" stroke="#63b8ff" d="M205,-355.26C210.32,-357.78 215.57,-360.85 220,-364.55 242.43,-383.27 232.11,-402.73 256,-419.55 262.02,-423.79 268.92,-427.04 276.04,-429.52"/>
<polygon fill="#63b8ff" stroke="#63b8ff" points="275.23,-432.94 285.82,-432.47 277.25,-426.23 275.23,-432.94"/>
</a>
</g>
</g>
<!-- Node29&#45;&gt;Node4 -->
<g id="edge37_Node000029_Node000004" class="edge">
<title>Node29&#45;&gt;Node4</title>
<g id="a_edge37_Node000029_Node000004"><a xlink:title=" ">
<path fill="none" stroke="#63b8ff" d="M198.48,-355.13C205.45,-358.06 213.07,-361.36 220,-364.55 236.25,-372.03 239.19,-376.42 256,-382.55 262.51,-384.92 269.45,-387.07 276.38,-388.99"/>
<polygon fill="#63b8ff" stroke="#63b8ff" points="275.92,-392.49 286.48,-391.63 277.7,-385.71 275.92,-392.49"/>
</a>
</g>
</g>
<!-- Node29&#45;&gt;Node27 -->
<g id="edge39_Node000029_Node000027" class="edge">
<title>Node29&#45;&gt;Node27</title>
<g id="a_edge39_Node000029_Node000027"><a xlink:title=" ">
<path fill="none" stroke="#63b8ff" d="M220.12,-350.76C228.23,-351.69 236.92,-352.69 245.73,-353.71"/>
<polygon fill="#63b8ff" stroke="#63b8ff" points="245.37,-357.19 255.71,-354.86 246.17,-350.24 245.37,-357.19"/>
</a>
</g>
</g>
<!-- Node30 -->
<g id="Node000030" class="node">
<title>Node30</title>
<g id="a_Node000030"><a xlink:href="code__8003DC40_8c.html#affd83124d01ca03e902632488c2edec1" target="_top" xlink:title=" ">
<polygon fill="white" stroke="#666666" points="378.5,-336.05 285.5,-336.05 285.5,-317.05 378.5,-317.05 378.5,-336.05"/>
<text text-anchor="middle" x="332" y="-324.05" font-family="Helvetica,sans-Serif" font-size="10.00">func_8003DC40</text>
</a>
</g>
</g>
<!-- Node29&#45;&gt;Node30 -->
<g id="edge38_Node000029_Node000030" class="edge">
<title>Node29&#45;&gt;Node30</title>
<g id="a_edge38_Node000029_Node000030"><a xlink:title=" ">
<path fill="none" stroke="#63b8ff" d="M220.12,-340.05C237.35,-337.95 257.2,-335.54 275.3,-333.33"/>
<polygon fill="#63b8ff" stroke="#63b8ff" points="275.94,-336.78 285.44,-332.1 275.09,-329.83 275.94,-336.78"/>
</a>
</g>
</g>
<!-- Node31&#45;&gt;Node2 -->
<g id="edge41_Node000031_Node000002" class="edge">
<title>Node31&#45;&gt;Node2</title>
<g id="a_edge41_Node000031_Node000002"><a xlink:title=" ">
<path fill="none" stroke="#63b8ff" d="M207.04,-318.26C211.8,-320.73 216.33,-323.78 220,-327.55 250.63,-359.01 222.89,-390.71 256,-419.55 261.69,-424.51 268.51,-428.16 275.69,-430.83"/>
<polygon fill="#63b8ff" stroke="#63b8ff" points="275.04,-434.29 285.63,-433.9 277.11,-427.6 275.04,-434.29"/>
</a>
</g>
</g>
<!-- Node31&#45;&gt;Node4 -->
<g id="edge42_Node000031_Node000004" class="edge">
<title>Node31&#45;&gt;Node4</title>
<g id="a_edge42_Node000031_Node000004"><a xlink:title=" ">
<path fill="none" stroke="#63b8ff" d="M205,-318.26C210.32,-320.78 215.57,-323.85 220,-327.55 242.43,-346.27 232.11,-365.73 256,-382.55 262.1,-386.84 269.09,-390.12 276.3,-392.62"/>
<polygon fill="#63b8ff" stroke="#63b8ff" points="275.62,-396.07 286.21,-395.57 277.62,-389.36 275.62,-396.07"/>
</a>
</g>
</g>
<!-- Node31&#45;&gt;Node27 -->
<g id="edge44_Node000031_Node000027" class="edge">
<title>Node31&#45;&gt;Node27</title>
<g id="a_edge44_Node000031_Node000027"><a xlink:title=" ">
<path fill="none" stroke="#63b8ff" d="M198.48,-318.13C205.45,-321.06 213.07,-324.36 220,-327.55 236.25,-335.03 239.19,-339.42 256,-345.55 261.86,-347.69 268.07,-349.64 274.32,-351.41"/>
<polygon fill="#63b8ff" stroke="#63b8ff" points="273.54,-354.82 284.1,-354.04 275.35,-348.06 273.54,-354.82"/>
</a>
</g>
</g>
<!-- Node31&#45;&gt;Node30 -->
<g id="edge43_Node000031_Node000030" class="edge">
<title>Node31&#45;&gt;Node30</title>
<g id="a_edge43_Node000031_Node000030"><a xlink:title=" ">
<path fill="none" stroke="#63b8ff" d="M220.12,-313.76C237.35,-315.74 257.2,-318.03 275.3,-320.12"/>
<polygon fill="#63b8ff" stroke="#63b8ff" points="275.1,-323.62 285.44,-321.29 275.91,-316.67 275.1,-323.62"/>
</a>
</g>
</g>
<!-- Node32&#45;&gt;Node2 -->
<g id="edge46_Node000032_Node000002" class="edge">
<title>Node32&#45;&gt;Node2</title>
<g id="a_edge46_Node000032_Node000002"><a xlink:title=" ">
<path fill="none" stroke="#63b8ff" d="M198.48,-392.13C205.45,-395.06 213.07,-398.36 220,-401.55 236.25,-409.03 239.19,-413.42 256,-419.55 262.34,-421.86 269.09,-423.96 275.84,-425.84"/>
<polygon fill="#63b8ff" stroke="#63b8ff" points="275.13,-429.27 285.69,-428.44 276.91,-422.5 275.13,-429.27"/>
</a>
</g>
</g>
<!-- Node32&#45;&gt;Node4 -->
<g id="edge47_Node000032_Node000004" class="edge">
<title>Node32&#45;&gt;Node4</title>
<g id="a_edge47_Node000032_Node000004"><a xlink:title=" ">
<path fill="none" stroke="#63b8ff" d="M220.12,-387.76C237.66,-389.78 257.91,-392.12 276.27,-394.23"/>
<polygon fill="#63b8ff" stroke="#63b8ff" points="275.91,-397.72 286.25,-395.39 276.72,-390.76 275.91,-397.72"/>
</a>
</g>
</g>
<!-- Node32&#45;&gt;Node27 -->
<g id="edge49_Node000032_Node000027" class="edge">
<title>Node32&#45;&gt;Node27</title>
<g id="a_edge49_Node000032_Node000027"><a xlink:title=" ">
<path fill="none" stroke="#63b8ff" d="M220.12,-377.05C228.23,-376.07 236.92,-375.01 245.73,-373.93"/>
<polygon fill="#63b8ff" stroke="#63b8ff" points="246.2,-377.4 255.71,-372.72 245.36,-370.45 246.2,-377.4"/>
</a>
</g>
</g>
<!-- Node32&#45;&gt;Node30 -->
<g id="edge48_Node000032_Node000030" class="edge">
<title>Node32&#45;&gt;Node30</title>
<g id="a_edge48_Node000032_Node000030"><a xlink:title=" ">
<path fill="none" stroke="#63b8ff" d="M200.43,-372.92C206.87,-370.33 213.74,-367.44 220,-364.55 236.42,-356.96 239.11,-352.04 256,-345.55 262.4,-343.09 269.23,-340.85 276.07,-338.85"/>
<polygon fill="#63b8ff" stroke="#63b8ff" points="277.34,-342.13 286.04,-336.09 275.47,-335.39 277.34,-342.13"/>
</a>
</g>
</g>
<!-- Node33&#45;&gt;Node2 -->
<g id="edge51_Node000033_Node000002" class="edge">
<title>Node33&#45;&gt;Node2</title>
<g id="a_edge51_Node000033_Node000002"><a xlink:title=" ">
<path fill="none" stroke="#63b8ff" d="M219.7,-424.71C237.18,-426.72 257.39,-429.06 275.76,-431.18"/>
<polygon fill="#63b8ff" stroke="#63b8ff" points="275.41,-434.66 285.75,-432.33 276.22,-427.7 275.41,-434.66"/>
</a>
</g>
</g>
<!-- Node33&#45;&gt;Node4 -->
<g id="edge52_Node000033_Node000004" class="edge">
<title>Node33&#45;&gt;Node4</title>
<g id="a_edge52_Node000033_Node000004"><a xlink:title=" ">
<path fill="none" stroke="#63b8ff" d="M219.7,-414.1C237.33,-411.96 257.74,-409.47 276.24,-407.22"/>
<polygon fill="#63b8ff" stroke="#63b8ff" points="276.79,-410.68 286.29,-405.99 275.94,-403.73 276.79,-410.68"/>
</a>
</g>
</g>
<!-- Node33&#45;&gt;Node27 -->
<g id="edge53_Node000033_Node000027" class="edge">
<title>Node33&#45;&gt;Node27</title>
<g id="a_edge53_Node000033_Node000027"><a xlink:title=" ">
<path fill="none" stroke="#63b8ff" d="M200.43,-409.92C206.87,-407.33 213.74,-404.44 220,-401.55 236.42,-393.96 239.11,-389.04 256,-382.55 262.4,-380.09 269.23,-377.85 276.07,-375.85"/>
<polygon fill="#63b8ff" stroke="#63b8ff" points="277.34,-379.13 286.04,-373.09 275.47,-372.39 277.34,-379.13"/>
</a>
</g>
</g>
</g>
</svg>

<g id="navigator" transform="translate(0 0)" fill="#404254">
  <rect fill="#f2f5e9" fill-opacity="0.5" stroke="#606060" stroke-width=".5" x="0" y="0" width="60" height="60"/>
  <use id="zoomplus" xlink:href="#zoomPlus" x="17" y="9" onmousedown="handleZoom(evt,'in')"/>
  <use id="zoomminus" xlink:href="#zoomMin" x="42" y="9" onmousedown="handleZoom(evt,'out')"/>
  <use id="reset" xlink:href="#resetDef" x="30" y="36" onmousedown="handleReset()"/>
   <use id="arrowup" xlink:href="#arrowUp" x="0" y="0" onmousedown="handlePan(0,-1)"/>
  <use id="arrowright" xlink:href="#arrowRight" x="0" y="0" onmousedown="handlePan(1,0)"/>
  <use id="arrowdown" xlink:href="#arrowDown" x="0" y="0" onmousedown="handlePan(0,1)"/>
  <use id="arrowleft" xlink:href="#arrowLeft" x="0" y="0" onmousedown="handlePan(-1,0)"/>
</g>
<svg viewBox="0 0 15 15" width="100%" height="30px" preserveAspectRatio="xMaxYMin meet">
 <g id="arrow_out" transform="scale(0.3 0.3)">
  <a xlink:href="code__8003DC40_8h_abd40186b75c00aa006ff50af55a94238_cgraph_org.svg" target="_base">
   <rect id="button" ry="5" rx="5" y="6" x="6" height="38" width="38"
        fill="#f2f5e9" fill-opacity="0.5" stroke="#606060" stroke-width="1.0"/>
   <path id="arrow"
     d="M 11.500037,31.436501 C 11.940474,20.09759 22.043105,11.32322 32.158766,21.979434 L 37.068811,17.246167 C 37.068811,17.246167 37.088388,32 37.088388,32 L 22.160133,31.978069 C 22.160133,31.978069 26.997745,27.140456 26.997745,27.140456 C 18.528582,18.264221 13.291696,25.230495 11.500037,31.436501 z"
     style="fill:#404040;"/>
  </a>
 </g>
</svg>

<style type='text/css'>
<![CDATA[
[data-mouse-over-selected='false'] { opacity: 0.7; }
[data-mouse-over-selected='true']  { opacity: 1.0; }
]]>
</style>
<script type="application/ecmascript"><![CDATA[
document.addEventListener('DOMContentLoaded', (event) => {
  highlightEdges();
  highlightAdjacentNodes();
});
]]></script>
</svg>
