<?xml version="1.0" encoding="UTF-8" standalone="no"?>
<!DOCTYPE svg PUBLIC "-//W3C//DTD SVG 1.1//EN"
 "http://www.w3.org/Graphics/SVG/1.1/DTD/svg11.dtd">
<!-- Generated by graphviz version 2.43.0 (0)
 -->
<!-- Title: func_8008FA38 Pages: 1 -->
<svg width="721pt" height="583pt"
 viewBox="0.00 0.00 721.00 583.00" xmlns="http://www.w3.org/2000/svg" xmlns:xlink="http://www.w3.org/1999/xlink">
<g id="graph0" class="graph" transform="scale(1 1) rotate(0) translate(4 579)">
<title>func_8008FA38</title>
<!-- Node1 -->
<g id="Node000001" class="node">
<title>Node1</title>
<g id="a_Node000001"><a xlink:title=" ">
<polygon fill="#999999" stroke="#666666" points="90,-186 0,-186 0,-167 90,-167 90,-186"/>
<text text-anchor="middle" x="45" y="-174" font-family="Helvetica,sans-Serif" font-size="10.00">func_8008FA38</text>
</a>
</g>
</g>
<!-- Node2 -->
<g id="Node000002" class="node">
<title>Node2</title>
<g id="a_Node000002"><a xlink:href="code__8008C1D0_8c.html#a5cdc06d2091fc6d20759448c40b17d54" target="_top" xlink:title=" ">
<polygon fill="white" stroke="#666666" points="218,-316 126,-316 126,-297 218,-297 218,-316"/>
<text text-anchor="middle" x="172" y="-304" font-family="Helvetica,sans-Serif" font-size="10.00">func_8008C354</text>
</a>
</g>
</g>
<!-- Node1&#45;&gt;Node2 -->
<g id="edge1_Node000001_Node000002" class="edge">
<title>Node1&#45;&gt;Node2</title>
<g id="a_edge1_Node000001_Node000002"><a xlink:title=" ">
<path fill="none" stroke="#63b8ff" d="M55.4,-186.27C76.58,-208.31 128.3,-262.09 154.78,-289.63"/>
<polygon fill="#63b8ff" stroke="#63b8ff" points="152.38,-292.19 161.84,-296.97 157.43,-287.33 152.38,-292.19"/>
</a>
</g>
</g>
<!-- Node21 -->
<g id="Node000021" class="node">
<title>Node21</title>
<g id="a_Node000021"><a xlink:href="external_8c.html#a8e12528517df50a5fac9f139bfafb0c8" target="_top" xlink:title=" ">
<polygon fill="white" stroke="#666666" points="476,-56 383,-56 383,-37 476,-37 476,-56"/>
<text text-anchor="middle" x="429.5" y="-44" font-family="Helvetica,sans-Serif" font-size="10.00">func_800CAFC0</text>
</a>
</g>
</g>
<!-- Node1&#45;&gt;Node21 -->
<g id="edge20_Node000001_Node000021" class="edge">
<title>Node1&#45;&gt;Node21</title>
<g id="a_edge20_Node000001_Node000021"><a xlink:title=" ">
<path fill="none" stroke="#63b8ff" d="M59.79,-166.69C91.99,-144.35 175.39,-89.76 254,-65.5 292.4,-53.65 337.53,-48.97 372.28,-47.21"/>
<polygon fill="#63b8ff" stroke="#63b8ff" points="372.88,-50.69 382.71,-46.76 372.57,-43.7 372.88,-50.69"/>
</a>
</g>
</g>
<!-- Node3 -->
<g id="Node000003" class="node">
<title>Node3</title>
<g id="a_Node000003"><a xlink:href="code__8008C1D0_8c.html#ad164a912d7ef76f24e7b5cfb9169c16f" target="_top" xlink:title=" ">
<polygon fill="white" stroke="#666666" points="347,-575 254,-575 254,-556 347,-556 347,-575"/>
<text text-anchor="middle" x="300.5" y="-563" font-family="Helvetica,sans-Serif" font-size="10.00">func_8008C6D0</text>
</a>
</g>
</g>
<!-- Node2&#45;&gt;Node3 -->
<g id="edge2_Node000002_Node000003" class="edge">
<title>Node2&#45;&gt;Node3</title>
<g id="a_edge2_Node000002_Node000003"><a xlink:title=" ">
<path fill="none" stroke="#63b8ff" d="M173.45,-316.24C175.6,-352.01 187.77,-477.7 254,-547.5 254.89,-548.44 255.83,-549.32 256.82,-550.17"/>
<polygon fill="#63b8ff" stroke="#63b8ff" points="254.87,-553.08 265.12,-555.78 258.8,-547.28 254.87,-553.08"/>
</a>
</g>
</g>
<!-- Node4 -->
<g id="Node000004" class="node">
<title>Node4</title>
<g id="a_Node000004"><a xlink:href="code__8008C1D0_8c.html#a105203221e314be241a95e006b62ef80" target="_top" xlink:title=" ">
<polygon fill="white" stroke="#666666" points="346.5,-538 254.5,-538 254.5,-519 346.5,-519 346.5,-538"/>
<text text-anchor="middle" x="300.5" y="-526" font-family="Helvetica,sans-Serif" font-size="10.00">func_8008C8C4</text>
</a>
</g>
</g>
<!-- Node2&#45;&gt;Node4 -->
<g id="edge3_Node000002_Node000004" class="edge">
<title>Node2&#45;&gt;Node4</title>
<g id="a_edge3_Node000002_Node000004"><a xlink:title=" ">
<path fill="none" stroke="#63b8ff" d="M174.11,-316.07C178.3,-348.07 196.03,-452.6 254,-510.5 254.95,-511.45 255.95,-512.34 257,-513.19"/>
<polygon fill="#63b8ff" stroke="#63b8ff" points="255.45,-516.36 265.74,-518.86 259.25,-510.49 255.45,-516.36"/>
</a>
</g>
</g>
<!-- Node5 -->
<g id="Node000005" class="node">
<title>Node5</title>
<g id="a_Node000005"><a xlink:href="code__8008C1D0_8c.html#acab450a6af6eca812ad3987a292a5165" target="_top" xlink:title=" ">
<polygon fill="white" stroke="#666666" points="346.5,-501 254.5,-501 254.5,-482 346.5,-482 346.5,-501"/>
<text text-anchor="middle" x="300.5" y="-489" font-family="Helvetica,sans-Serif" font-size="10.00">func_8008D0E4</text>
</a>
</g>
</g>
<!-- Node2&#45;&gt;Node5 -->
<g id="edge4_Node000002_Node000005" class="edge">
<title>Node2&#45;&gt;Node5</title>
<g id="a_edge4_Node000002_Node000005"><a xlink:title=" ">
<path fill="none" stroke="#63b8ff" d="M175.1,-316.28C181.67,-344.58 204.39,-427.48 254,-473.5 255.13,-474.55 256.33,-475.54 257.58,-476.47"/>
<polygon fill="#63b8ff" stroke="#63b8ff" points="256.07,-479.65 266.43,-481.87 259.71,-473.67 256.07,-479.65"/>
</a>
</g>
</g>
<!-- Node6 -->
<g id="Node000006" class="node">
<title>Node6</title>
<g id="a_Node000006"><a xlink:href="code__8008C1D0_8c.html#a663cb8df8b606cf00e361977c9d6d834" target="_top" xlink:title=" ">
<polygon fill="white" stroke="#666666" points="347,-464 254,-464 254,-445 347,-445 347,-464"/>
<text text-anchor="middle" x="300.5" y="-452" font-family="Helvetica,sans-Serif" font-size="10.00">func_8008D3B0</text>
</a>
</g>
</g>
<!-- Node2&#45;&gt;Node6 -->
<g id="edge5_Node000002_Node000006" class="edge">
<title>Node2&#45;&gt;Node6</title>
<g id="a_edge5_Node000002_Node000006"><a xlink:title=" ">
<path fill="none" stroke="#63b8ff" d="M176.51,-316.11C185.64,-339.83 212.34,-401.75 254,-436.5 255.52,-437.77 257.13,-438.95 258.82,-440.06"/>
<polygon fill="#63b8ff" stroke="#63b8ff" points="257.24,-443.18 267.68,-444.97 260.63,-437.06 257.24,-443.18"/>
</a>
</g>
</g>
<!-- Node7 -->
<g id="Node000007" class="node">
<title>Node7</title>
<g id="a_Node000007"><a xlink:href="code__8008C1D0_8c.html#ae7bb91110e710a8f32fcd4c56c56f934" target="_top" xlink:title=" ">
<polygon fill="white" stroke="#666666" points="346.5,-427 254.5,-427 254.5,-408 346.5,-408 346.5,-427"/>
<text text-anchor="middle" x="300.5" y="-415" font-family="Helvetica,sans-Serif" font-size="10.00">func_8008D554</text>
</a>
</g>
</g>
<!-- Node2&#45;&gt;Node7 -->
<g id="edge6_Node000002_Node000007" class="edge">
<title>Node2&#45;&gt;Node7</title>
<g id="a_edge6_Node000002_Node000007"><a xlink:title=" ">
<path fill="none" stroke="#63b8ff" d="M178.98,-316C191.06,-334.48 220.08,-375.52 254,-399.5 255.86,-400.82 257.83,-402.05 259.86,-403.21"/>
<polygon fill="#63b8ff" stroke="#63b8ff" points="258.57,-406.48 269.08,-407.82 261.7,-400.22 258.57,-406.48"/>
</a>
</g>
</g>
<!-- Node8 -->
<g id="Node000008" class="node">
<title>Node8</title>
<g id="a_Node000008"><a xlink:href="code__8008C1D0_8c.html#a5f19eaaa048055d292d02c717e635786" target="_top" xlink:title=" ">
<polygon fill="white" stroke="#666666" points="346.5,-390 254.5,-390 254.5,-371 346.5,-371 346.5,-390"/>
<text text-anchor="middle" x="300.5" y="-378" font-family="Helvetica,sans-Serif" font-size="10.00">func_8008D760</text>
</a>
</g>
</g>
<!-- Node2&#45;&gt;Node8 -->
<g id="edge7_Node000002_Node000008" class="edge">
<title>Node2&#45;&gt;Node8</title>
<g id="a_edge7_Node000002_Node000008"><a xlink:title=" ">
<path fill="none" stroke="#63b8ff" d="M185.06,-316.15C200.42,-328.13 228.07,-348.64 254,-362.5 256.85,-364.02 259.85,-365.49 262.9,-366.88"/>
<polygon fill="#63b8ff" stroke="#63b8ff" points="261.52,-370.1 272.09,-370.83 264.29,-363.67 261.52,-370.1"/>
</a>
</g>
</g>
<!-- Node9 -->
<g id="Node000009" class="node">
<title>Node9</title>
<g id="a_Node000009"><a xlink:href="code__8008C1D0_8c.html#a4ea2da0616ee3c475e4be217dc0bc71f" target="_top" xlink:title=" ">
<polygon fill="white" stroke="#666666" points="347,-353 254,-353 254,-334 347,-334 347,-353"/>
<text text-anchor="middle" x="300.5" y="-341" font-family="Helvetica,sans-Serif" font-size="10.00">func_8008D97C</text>
</a>
</g>
</g>
<!-- Node2&#45;&gt;Node9 -->
<g id="edge8_Node000002_Node000009" class="edge">
<title>Node2&#45;&gt;Node9</title>
<g id="a_edge8_Node000002_Node000009"><a xlink:title=" ">
<path fill="none" stroke="#63b8ff" d="M205.58,-316.03C221.1,-320.57 239.87,-326.06 256.53,-330.93"/>
<polygon fill="#63b8ff" stroke="#63b8ff" points="256.01,-334.43 266.59,-333.88 257.98,-327.71 256.01,-334.43"/>
</a>
</g>
</g>
<!-- Node10 -->
<g id="Node000010" class="node">
<title>Node10</title>
<g id="a_Node000010"><a xlink:href="code__8008C1D0_8c.html#a4a437d6caeeaa794bcce43ec60c097e9" target="_top" xlink:title=" ">
<polygon fill="white" stroke="#666666" points="346,-316 255,-316 255,-297 346,-297 346,-316"/>
<text text-anchor="middle" x="300.5" y="-304" font-family="Helvetica,sans-Serif" font-size="10.00">func_8008E884</text>
</a>
</g>
</g>
<!-- Node2&#45;&gt;Node10 -->
<g id="edge9_Node000002_Node000010" class="edge">
<title>Node2&#45;&gt;Node10</title>
<g id="a_edge9_Node000002_Node000010"><a xlink:title=" ">
<path fill="none" stroke="#63b8ff" d="M218.31,-306.5C226.87,-306.5 235.91,-306.5 244.73,-306.5"/>
<polygon fill="#63b8ff" stroke="#63b8ff" points="244.93,-310 254.93,-306.5 244.93,-303 244.93,-310"/>
</a>
</g>
</g>
<!-- Node11 -->
<g id="Node000011" class="node">
<title>Node11</title>
<g id="a_Node000011"><a xlink:href="code__8008C1D0_8c.html#a4e2c6d0ba50b7c13695f74f1c2bc7b18" target="_top" xlink:title=" ">
<polygon fill="white" stroke="#666666" points="346.5,-279 254.5,-279 254.5,-260 346.5,-260 346.5,-279"/>
<text text-anchor="middle" x="300.5" y="-267" font-family="Helvetica,sans-Serif" font-size="10.00">func_8008EC34</text>
</a>
</g>
</g>
<!-- Node2&#45;&gt;Node11 -->
<g id="edge10_Node000002_Node000011" class="edge">
<title>Node2&#45;&gt;Node11</title>
<g id="a_edge10_Node000002_Node000011"><a xlink:title=" ">
<path fill="none" stroke="#63b8ff" d="M205.58,-296.97C221.1,-292.43 239.87,-286.94 256.53,-282.07"/>
<polygon fill="#63b8ff" stroke="#63b8ff" points="257.98,-285.29 266.59,-279.12 256.01,-278.57 257.98,-285.29"/>
</a>
</g>
</g>
<!-- Node12 -->
<g id="Node000012" class="node">
<title>Node12</title>
<g id="a_Node000012"><a xlink:href="code__8008C1D0_8c.html#ae48f5d9507d1966754bc1aa1bddc4136" target="_top" xlink:title=" ">
<polygon fill="white" stroke="#666666" points="346.5,-242 254.5,-242 254.5,-223 346.5,-223 346.5,-242"/>
<text text-anchor="middle" x="300.5" y="-230" font-family="Helvetica,sans-Serif" font-size="10.00">func_8008EEC4</text>
</a>
</g>
</g>
<!-- Node2&#45;&gt;Node12 -->
<g id="edge11_Node000002_Node000012" class="edge">
<title>Node2&#45;&gt;Node12</title>
<g id="a_edge11_Node000002_Node000012"><a xlink:title=" ">
<path fill="none" stroke="#63b8ff" d="M185.4,-296.91C200.88,-285.23 228.44,-265.33 254,-251.5 257.46,-249.63 261.14,-247.82 264.86,-246.1"/>
<polygon fill="#63b8ff" stroke="#63b8ff" points="266.3,-249.29 274.05,-242.07 263.48,-242.88 266.3,-249.29"/>
</a>
</g>
</g>
<!-- Node13 -->
<g id="Node000013" class="node">
<title>Node13</title>
<g id="a_Node000013"><a xlink:href="code__8008C1D0_8c.html#a77e26f2cff6381f9ba1575f8da060571" target="_top" xlink:title=" ">
<polygon fill="white" stroke="#666666" points="346,-205 255,-205 255,-186 346,-186 346,-205"/>
<text text-anchor="middle" x="300.5" y="-193" font-family="Helvetica,sans-Serif" font-size="10.00">func_8008F0E8</text>
</a>
</g>
</g>
<!-- Node2&#45;&gt;Node13 -->
<g id="edge12_Node000002_Node000013" class="edge">
<title>Node2&#45;&gt;Node13</title>
<g id="a_edge12_Node000002_Node000013"><a xlink:title=" ">
<path fill="none" stroke="#63b8ff" d="M179.24,-296.88C191.54,-278.57 220.63,-238.44 254,-214.5 256.49,-212.71 259.18,-211.05 261.96,-209.52"/>
<polygon fill="#63b8ff" stroke="#63b8ff" points="263.59,-212.62 271.01,-205.06 260.5,-206.34 263.59,-212.62"/>
</a>
</g>
</g>
<!-- Node14 -->
<g id="Node000014" class="node">
<title>Node14</title>
<g id="a_Node000014"><a xlink:href="code__8008C1D0_8c.html#ae02351b6bbb678b552ec8864b47fc56c" target="_top" xlink:title=" ">
<polygon fill="white" stroke="#666666" points="346,-168 255,-168 255,-149 346,-149 346,-168"/>
<text text-anchor="middle" x="300.5" y="-156" font-family="Helvetica,sans-Serif" font-size="10.00">func_8008F3E0</text>
</a>
</g>
</g>
<!-- Node2&#45;&gt;Node14 -->
<g id="edge13_Node000002_Node000014" class="edge">
<title>Node2&#45;&gt;Node14</title>
<g id="a_edge13_Node000002_Node000014"><a xlink:title=" ">
<path fill="none" stroke="#63b8ff" d="M176.71,-296.66C186.11,-272.98 213.04,-212.2 254,-177.5 255.94,-175.85 258.05,-174.33 260.25,-172.93"/>
<polygon fill="#63b8ff" stroke="#63b8ff" points="262.01,-175.96 269.11,-168.1 258.66,-169.82 262.01,-175.96"/>
</a>
</g>
</g>
<!-- Node15 -->
<g id="Node000015" class="node">
<title>Node15</title>
<g id="a_Node000015"><a xlink:href="code__8008C1D0_8c.html#afcf39ca15166fb7561402462930cd979" target="_top" xlink:title=" ">
<polygon fill="white" stroke="#666666" points="346.5,-131 254.5,-131 254.5,-112 346.5,-112 346.5,-131"/>
<text text-anchor="middle" x="300.5" y="-119" font-family="Helvetica,sans-Serif" font-size="10.00">func_8008F5A4</text>
</a>
</g>
</g>
<!-- Node2&#45;&gt;Node15 -->
<g id="edge14_Node000002_Node000015" class="edge">
<title>Node2&#45;&gt;Node15</title>
<g id="a_edge14_Node000002_Node000015"><a xlink:title=" ">
<path fill="none" stroke="#63b8ff" d="M175.16,-296.82C181.89,-268.81 205.01,-186.71 254,-140.5 255.49,-139.09 257.11,-137.78 258.81,-136.56"/>
<polygon fill="#63b8ff" stroke="#63b8ff" points="261.03,-139.31 267.83,-131.19 257.45,-133.29 261.03,-139.31"/>
</a>
</g>
</g>
<!-- Node20 -->
<g id="Node000020" class="node">
<title>Node20</title>
<g id="a_Node000020"><a xlink:href="code__8008C1D0_8c.html#ab6d84742231847170dd64267f0519cdf" target="_top" xlink:title=" ">
<polygon fill="white" stroke="#666666" points="347,-94 254,-94 254,-75 347,-75 347,-94"/>
<text text-anchor="middle" x="300.5" y="-82" font-family="Helvetica,sans-Serif" font-size="10.00">func_8008FEDC</text>
</a>
</g>
</g>
<!-- Node2&#45;&gt;Node20 -->
<g id="edge19_Node000002_Node000020" class="edge">
<title>Node2&#45;&gt;Node20</title>
<g id="a_edge19_Node000002_Node000020"><a xlink:title=" ">
<path fill="none" stroke="#63b8ff" d="M174.23,-296.57C178.71,-264.34 197.04,-161.37 254,-103.5 255.4,-102.08 256.91,-100.76 258.52,-99.54"/>
<polygon fill="#63b8ff" stroke="#63b8ff" points="260.49,-102.44 267.13,-94.18 256.79,-96.5 260.49,-102.44"/>
</a>
</g>
</g>
<!-- Node16 -->
<g id="Node000016" class="node">
<title>Node16</title>
<g id="a_Node000016"><a xlink:href="code__80057C60_8c.html#a0a55fae21abd30d3c618adef1a9f3ccd" target="_top" xlink:title=" ">
<polygon fill="white" stroke="#666666" points="475.5,-130 383.5,-130 383.5,-111 475.5,-111 475.5,-130"/>
<text text-anchor="middle" x="429.5" y="-118" font-family="Helvetica,sans-Serif" font-size="10.00">func_8006B8B4</text>
</a>
</g>
</g>
<!-- Node15&#45;&gt;Node16 -->
<g id="edge15_Node000015_Node000016" class="edge">
<title>Node15&#45;&gt;Node16</title>
<g id="a_edge15_Node000015_Node000016"><a xlink:title=" ">
<path fill="none" stroke="#63b8ff" d="M346.63,-121.14C355.14,-121.08 364.13,-121.01 372.91,-120.94"/>
<polygon fill="#63b8ff" stroke="#63b8ff" points="373.11,-124.44 383.08,-120.86 373.06,-117.44 373.11,-124.44"/>
</a>
</g>
</g>
<!-- Node17 -->
<g id="Node000017" class="node">
<title>Node17</title>
<g id="a_Node000017"><a xlink:href="code__8008C1D0_8c.html#a1c7552c4a370cc015c2726e40f1fdb06" target="_top" xlink:title=" ">
<polygon fill="white" stroke="#666666" points="605,-130 512,-130 512,-111 605,-111 605,-130"/>
<text text-anchor="middle" x="558.5" y="-118" font-family="Helvetica,sans-Serif" font-size="10.00">func_8008FD4C</text>
</a>
</g>
</g>
<!-- Node16&#45;&gt;Node17 -->
<g id="edge16_Node000016_Node000017" class="edge">
<title>Node16&#45;&gt;Node17</title>
<g id="a_edge16_Node000016_Node000017"><a xlink:title=" ">
<path fill="none" stroke="#63b8ff" d="M475.63,-120.5C484.04,-120.5 492.91,-120.5 501.59,-120.5"/>
<polygon fill="#63b8ff" stroke="#63b8ff" points="501.66,-124 511.66,-120.5 501.66,-117 501.66,-124"/>
</a>
</g>
</g>
<!-- Node18 -->
<g id="Node000018" class="node">
<title>Node18</title>
<g id="a_Node000018"><a xlink:href="external_8c.html#a517352d45a01341217ab2c073b3b223f" target="_top" xlink:title=" ">
<polygon fill="white" stroke="#666666" points="604.5,-93 512.5,-93 512.5,-74 604.5,-74 604.5,-93"/>
<text text-anchor="middle" x="558.5" y="-81" font-family="Helvetica,sans-Serif" font-size="10.00">func_800C9060</text>
</a>
</g>
</g>
<!-- Node16&#45;&gt;Node18 -->
<g id="edge17_Node000016_Node000018" class="edge">
<title>Node16&#45;&gt;Node18</title>
<g id="a_edge17_Node000016_Node000018"><a xlink:title=" ">
<path fill="none" stroke="#63b8ff" d="M463.21,-110.97C478.93,-106.39 497.99,-100.84 514.84,-95.93"/>
<polygon fill="#63b8ff" stroke="#63b8ff" points="515.84,-99.28 524.46,-93.12 513.88,-92.56 515.84,-99.28"/>
</a>
</g>
</g>
<!-- Node19 -->
<g id="Node000019" class="node">
<title>Node19</title>
<g id="a_Node000019"><a xlink:href="external_8c.html#a62e16f9600e7e9beda2c9d2df10f3561" target="_top" xlink:title=" ">
<polygon fill="white" stroke="#666666" points="713,-56 641,-56 641,-37 713,-37 713,-56"/>
<text text-anchor="middle" x="677" y="-44" font-family="Helvetica,sans-Serif" font-size="10.00">play_sound</text>
</a>
</g>
</g>
<!-- Node18&#45;&gt;Node19 -->
<g id="edge18_Node000018_Node000019" class="edge">
<title>Node18&#45;&gt;Node19</title>
<g id="a_edge18_Node000018_Node000019"><a xlink:title=" ">
<path fill="none" stroke="#63b8ff" d="M589.5,-73.97C603.66,-69.48 620.75,-64.05 636,-59.2"/>
<polygon fill="#63b8ff" stroke="#63b8ff" points="637.22,-62.49 645.7,-56.12 635.1,-55.82 637.22,-62.49"/>
</a>
</g>
</g>
<!-- Node21&#45;&gt;Node18 -->
<g id="edge24_Node000021_Node000018" class="edge">
<title>Node21&#45;&gt;Node18</title>
<g id="a_edge24_Node000021_Node000018"><a xlink:title=" ">
<path fill="none" stroke="#63b8ff" d="M463.21,-56.03C478.93,-60.61 497.99,-66.16 514.84,-71.07"/>
<polygon fill="#63b8ff" stroke="#63b8ff" points="513.88,-74.44 524.46,-73.88 515.84,-67.72 513.88,-74.44"/>
</a>
</g>
</g>
<!-- Node22 -->
<g id="Node000022" class="node">
<title>Node22</title>
<g id="a_Node000022"><a xlink:href="external_8c.html#ad79a8b3dfe27cebca94c2d9e2cc54d2b" target="_top" xlink:title=" ">
<polygon fill="white" stroke="#666666" points="604.5,-56 512.5,-56 512.5,-37 604.5,-37 604.5,-56"/>
<text text-anchor="middle" x="558.5" y="-44" font-family="Helvetica,sans-Serif" font-size="10.00">func_800C36C4</text>
</a>
</g>
</g>
<!-- Node21&#45;&gt;Node22 -->
<g id="edge21_Node000021_Node000022" class="edge">
<title>Node21&#45;&gt;Node22</title>
<g id="a_edge21_Node000021_Node000022"><a xlink:title=" ">
<path fill="none" stroke="#63b8ff" d="M476.35,-46.5C484.63,-46.5 493.35,-46.5 501.88,-46.5"/>
<polygon fill="#63b8ff" stroke="#63b8ff" points="502.14,-50 512.14,-46.5 502.14,-43 502.14,-50"/>
</a>
</g>
</g>
<!-- Node23 -->
<g id="Node000023" class="node">
<title>Node23</title>
<g id="a_Node000023"><a xlink:href="external_8c.html#a2b65c4d6ed9dd00129edf89393b589ed" target="_top" xlink:title=" ">
<polygon fill="white" stroke="#666666" points="604.5,-19 512.5,-19 512.5,0 604.5,0 604.5,-19"/>
<text text-anchor="middle" x="558.5" y="-7" font-family="Helvetica,sans-Serif" font-size="10.00">func_800C8F80</text>
</a>
</g>
</g>
<!-- Node21&#45;&gt;Node23 -->
<g id="edge22_Node000021_Node000023" class="edge">
<title>Node21&#45;&gt;Node23</title>
<g id="a_edge22_Node000021_Node000023"><a xlink:title=" ">
<path fill="none" stroke="#63b8ff" d="M463.21,-36.97C478.93,-32.39 497.99,-26.84 514.84,-21.93"/>
<polygon fill="#63b8ff" stroke="#63b8ff" points="515.84,-25.28 524.46,-19.12 513.88,-18.56 515.84,-25.28"/>
</a>
</g>
</g>
<!-- Node23&#45;&gt;Node19 -->
<g id="edge23_Node000023_Node000019" class="edge">
<title>Node23&#45;&gt;Node19</title>
<g id="a_edge23_Node000023_Node000019"><a xlink:title=" ">
<path fill="none" stroke="#63b8ff" d="M589.5,-19.03C603.66,-23.52 620.75,-28.95 636,-33.8"/>
<polygon fill="#63b8ff" stroke="#63b8ff" points="635.1,-37.18 645.7,-36.88 637.22,-30.51 635.1,-37.18"/>
</a>
</g>
</g>
</g>
</svg>
