<?xml version="1.0" encoding="UTF-8" standalone="no"?>
<!DOCTYPE svg PUBLIC "-//W3C//DTD SVG 1.1//EN"
 "http://www.w3.org/Graphics/SVG/1.1/DTD/svg11.dtd">
<!-- Generated by graphviz version 2.43.0 (0)
 -->
<!-- Title: func_8007A910 Pages: 1 -->
<!--zoomable 766 -->

<svg id="main" version="1.1" xmlns="http://www.w3.org/2000/svg" xmlns:xlink="http://www.w3.org/1999/xlink" xml:space="preserve" onload="init(evt)">
<style type="text/css"><![CDATA[
.node, .edge {opacity: 0.7;}
.node.selected, .edge.selected {opacity: 1;}
.edge:hover path { stroke: red; }
.edge:hover polygon { stroke: red; fill: red; }
]]></style>

<defs>
  <circle id="rim" cx="0" cy="0" r="7"/>
  <circle id="rim2" cx="0" cy="0" r="3.5"/>
  <g id="zoomPlus">
    <use xlink:href="#rim" fill="#404040"><set attributeName="fill" to="#808080" begin="zoomplus.mouseover" end="zoomplus.mouseout"/></use>
    <path d="M-4,0h8M0,-4v8" fill="none" stroke="white" stroke-width="1.5" pointer-events="none"/>
  </g>
  <g id="zoomMin">
    <use xlink:href="#rim" fill="#404040"><set attributeName="fill" to="#808080" begin="zoomminus.mouseover" end="zoomminus.mouseout"/></use>
    <path d="M-4,0h8" fill="none" stroke="white" stroke-width="1.5" pointer-events="none"/>
  </g>
  <g id="arrowUp" transform="translate(30 24)">
    <use xlink:href="#rim"/>
    <path pointer-events="none" fill="none" stroke="white" stroke-width="1.5" d="M0,-3.0v7 M-2.5,-0.5L0,-3.0L2.5,-0.5"/>
  </g>
  <g id="arrowRight" transform="rotate(90) translate(36 -43)">
    <use xlink:href="#rim"/>
    <path pointer-events="none" fill="none" stroke="white" stroke-width="1.5" d="M0,-3.0v7 M-2.5,-0.5L0,-3.0L2.5,-0.5"/>
  </g>
  <g id="arrowDown" transform="rotate(180) translate(-30 -48)">
    <use xlink:href="#rim"/>
    <path pointer-events="none" fill="none" stroke="white" stroke-width="1.5" d="M0,-3.0v7 M-2.5,-0.5L0,-3.0L2.5,-0.5"/>
  </g>
  <g id="arrowLeft" transform="rotate(270) translate(-36 17)">
    <use xlink:href="#rim"/>
    <path pointer-events="none" fill="none" stroke="white" stroke-width="1.5" d="M0,-3.0v7 M-2.5,-0.5L0,-3.0L2.5,-0.5"/>
  </g>
  <g id="resetDef">
    <use xlink:href="#rim2" fill="#404040"><set attributeName="fill" to="#808080" begin="reset.mouseover" end="reset.mouseout"/></use>
  </g>
</defs>
<script type="application/ecmascript">
var viewWidth = 1030;
var viewHeight = 766;
var sectionId = 'dynsection-312';
</script>
<script type="application/ecmascript" xlink:href="svg.min.js"/>
<svg id="graph" class="graph">
<g id="viewport">
<title>func_8007A910</title>
<!-- Node1 -->
<g id="Node000001" class="node">
<title>Node1</title>
<g id="a_Node000001"><a xlink:title=" ">
<polygon fill="#999999" stroke="#666666" points="92,-56 0,-56 0,-37 92,-37 92,-56"/>
<text text-anchor="middle" x="46" y="-44" font-family="Helvetica,sans-Serif" font-size="10.00">func_8007A910</text>
</a>
</g>
</g>
<!-- Node2 -->
<g id="Node000002" class="node">
<title>Node2</title>
<g id="a_Node000002"><a xlink:href="code__80071F00_8c.html#a31147e0e1c7b87bb3f17f11ed1aec1fe" target="_top" xlink:title=" ">
<polygon fill="white" stroke="#666666" points="219.5,-93 128.5,-93 128.5,-74 219.5,-74 219.5,-93"/>
<text text-anchor="middle" x="174" y="-81" font-family="Helvetica,sans-Serif" font-size="10.00">func_80079860</text>
</a>
</g>
</g>
<!-- Node1&#45;&gt;Node2 -->
<g id="edge1_Node000001_Node000002" class="edge">
<title>Node1&#45;&gt;Node2</title>
<g id="a_edge1_Node000001_Node000002"><a xlink:title=" ">
<path fill="none" stroke="#63b8ff" d="M79.45,-56.03C94.91,-60.57 113.6,-66.06 130.2,-70.93"/>
<polygon fill="#63b8ff" stroke="#63b8ff" points="129.64,-74.42 140.22,-73.88 131.62,-67.7 129.64,-74.42"/>
</a>
</g>
</g>
<!-- Node43 -->
<g id="Node000043" class="node">
<title>Node43</title>
<g id="a_Node000043"><a xlink:href="code__80071F00_8c.html#a1fd996dd0611651c7995794011429bff" target="_top" xlink:title=" ">
<polygon fill="white" stroke="#666666" points="220,-38 128,-38 128,-19 220,-19 220,-38"/>
<text text-anchor="middle" x="174" y="-26" font-family="Helvetica,sans-Serif" font-size="10.00">func_8007A88C</text>
</a>
</g>
</g>
<!-- Node1&#45;&gt;Node43 -->
<g id="edge45_Node000001_Node000043" class="edge">
<title>Node1&#45;&gt;Node43</title>
<g id="a_edge45_Node000001_Node000043"><a xlink:title=" ">
<path fill="none" stroke="#63b8ff" d="M92.13,-40.05C100.46,-38.86 109.23,-37.61 117.81,-36.38"/>
<polygon fill="#63b8ff" stroke="#63b8ff" points="118.35,-39.84 127.76,-34.96 117.36,-32.91 118.35,-39.84"/>
</a>
</g>
</g>
<!-- Node3 -->
<g id="Node000003" class="node">
<title>Node3</title>
<g id="a_Node000003"><a xlink:href="code__80071F00_8c.html#ab7e91b1ebcbec57dfed6e185a2f67580" target="_top" xlink:title=" ">
<polygon fill="white" stroke="#666666" points="348.5,-56 257.5,-56 257.5,-37 348.5,-37 348.5,-56"/>
<text text-anchor="middle" x="303" y="-44" font-family="Helvetica,sans-Serif" font-size="10.00">func_80072354</text>
</a>
</g>
</g>
<!-- Node2&#45;&gt;Node3 -->
<g id="edge2_Node000002_Node000003" class="edge">
<title>Node2&#45;&gt;Node3</title>
<g id="a_edge2_Node000002_Node000003"><a xlink:title=" ">
<path fill="none" stroke="#63b8ff" d="M207.71,-73.97C223.43,-69.39 242.49,-63.84 259.34,-58.93"/>
<polygon fill="#63b8ff" stroke="#63b8ff" points="260.34,-62.28 268.96,-56.12 258.38,-55.56 260.34,-62.28"/>
</a>
</g>
</g>
<!-- Node4 -->
<g id="Node000004" class="node">
<title>Node4</title>
<g id="a_Node000004"><a xlink:href="code__80071F00_8c.html#a4cddfb6eec34ca24cca8d7cb72c78310" target="_top" xlink:title=" ">
<polygon fill="white" stroke="#666666" points="349,-130 257,-130 257,-111 349,-111 349,-130"/>
<text text-anchor="middle" x="303" y="-118" font-family="Helvetica,sans-Serif" font-size="10.00">func_800797AC</text>
</a>
</g>
</g>
<!-- Node2&#45;&gt;Node4 -->
<g id="edge3_Node000002_Node000004" class="edge">
<title>Node2&#45;&gt;Node4</title>
<g id="a_edge3_Node000002_Node000004"><a xlink:title=" ">
<path fill="none" stroke="#63b8ff" d="M207.71,-93.03C223.43,-97.61 242.49,-103.16 259.34,-108.07"/>
<polygon fill="#63b8ff" stroke="#63b8ff" points="258.38,-111.44 268.96,-110.88 260.34,-104.72 258.38,-111.44"/>
</a>
</g>
</g>
<!-- Node8 -->
<g id="Node000008" class="node">
<title>Node8</title>
<g id="a_Node000008"><a xlink:href="code__8008C1D0_8c.html#a17332237b5c2a4249328a35071e23bf7" target="_top" xlink:title=" ">
<polygon fill="white" stroke="#666666" points="348.5,-203 257.5,-203 257.5,-184 348.5,-184 348.5,-203"/>
<text text-anchor="middle" x="303" y="-191" font-family="Helvetica,sans-Serif" font-size="10.00">func_80090778</text>
</a>
</g>
</g>
<!-- Node2&#45;&gt;Node8 -->
<g id="edge7_Node000002_Node000008" class="edge">
<title>Node2&#45;&gt;Node8</title>
<g id="a_edge7_Node000002_Node000008"><a xlink:title=" ">
<path fill="none" stroke="#63b8ff" d="M186.27,-93.26C208.07,-112.15 256.23,-153.86 283.04,-177.08"/>
<polygon fill="#63b8ff" stroke="#63b8ff" points="281.09,-180.02 290.94,-183.92 285.67,-174.72 281.09,-180.02"/>
</a>
</g>
</g>
<!-- Node42 -->
<g id="Node000042" class="node">
<title>Node42</title>
<g id="a_Node000042"><a xlink:href="collision_8c.html#a0371e15af0413f7e110eb91a9995bcb7" target="_top" xlink:title=" ">
<polygon fill="white" stroke="#666666" points="350,-93 256,-93 256,-74 350,-74 350,-93"/>
<text text-anchor="middle" x="303" y="-81" font-family="Helvetica,sans-Serif" font-size="10.00">func_802ABDF4</text>
</a>
</g>
</g>
<!-- Node2&#45;&gt;Node42 -->
<g id="edge44_Node000002_Node000042" class="edge">
<title>Node2&#45;&gt;Node42</title>
<g id="a_edge44_Node000002_Node000042"><a xlink:title=" ">
<path fill="none" stroke="#63b8ff" d="M219.78,-83.5C228.19,-83.5 237.09,-83.5 245.81,-83.5"/>
<polygon fill="#63b8ff" stroke="#63b8ff" points="245.91,-87 255.91,-83.5 245.91,-80 245.91,-87"/>
</a>
</g>
</g>
<!-- Node5 -->
<g id="Node000005" class="node">
<title>Node5</title>
<g id="a_Node000005"><a xlink:href="code__80071F00_8c.html#a2c88cc32dff07c6af5fe74d00b9fa279" target="_top" xlink:title=" ">
<polygon fill="white" stroke="#666666" points="491.5,-117 399.5,-117 399.5,-98 491.5,-98 491.5,-117"/>
<text text-anchor="middle" x="445.5" y="-105" font-family="Helvetica,sans-Serif" font-size="10.00">func_800722A4</text>
</a>
</g>
</g>
<!-- Node4&#45;&gt;Node5 -->
<g id="edge4_Node000004_Node000005" class="edge">
<title>Node4&#45;&gt;Node5</title>
<g id="a_edge4_Node000004_Node000005"><a xlink:title=" ">
<path fill="none" stroke="#63b8ff" d="M349.23,-116.32C362.01,-115.13 376.07,-113.83 389.37,-112.6"/>
<polygon fill="#63b8ff" stroke="#63b8ff" points="389.72,-116.08 399.36,-111.68 389.08,-109.11 389.72,-116.08"/>
</a>
</g>
</g>
<!-- Node6 -->
<g id="Node000006" class="node">
<title>Node6</title>
<g id="a_Node000006"><a xlink:href="code__80071F00_8c.html#abdebd086b5ff081f83af3d9205f39cd3" target="_top" xlink:title=" ">
<polygon fill="white" stroke="#666666" points="479.5,-43 411.5,-43 411.5,-24 479.5,-24 479.5,-43"/>
<text text-anchor="middle" x="445.5" y="-31" font-family="Helvetica,sans-Serif" font-size="10.00">init_object</text>
</a>
</g>
</g>
<!-- Node4&#45;&gt;Node6 -->
<g id="edge5_Node000004_Node000006" class="edge">
<title>Node4&#45;&gt;Node6</title>
<g id="a_edge5_Node000004_Node000006"><a xlink:title=" ">
<path fill="none" stroke="#63b8ff" d="M330.28,-110.87C336.86,-108.13 343.81,-104.94 350,-101.5 377.6,-86.14 406.71,-64.2 425.21,-49.43"/>
<polygon fill="#63b8ff" stroke="#63b8ff" points="427.58,-52.02 433.15,-43.01 423.17,-46.58 427.58,-52.02"/>
</a>
</g>
</g>
<!-- Node7 -->
<g id="Node000007" class="node">
<title>Node7</title>
<g id="a_Node000007"><a xlink:href="code__80071F00_8c.html#a4b4f00a7df0f9bc44914cd922c3cd51b" target="_top" xlink:title=" ">
<polygon fill="white" stroke="#666666" points="656,-43 541,-43 541,-24 656,-24 656,-43"/>
<text text-anchor="middle" x="598.5" y="-31" font-family="Helvetica,sans-Serif" font-size="10.00">set_object_unk_0CB</text>
</a>
</g>
</g>
<!-- Node6&#45;&gt;Node7 -->
<g id="edge6_Node000006_Node000007" class="edge">
<title>Node6&#45;&gt;Node7</title>
<g id="a_edge6_Node000006_Node000007"><a xlink:title=" ">
<path fill="none" stroke="#63b8ff" d="M479.64,-33.5C494.66,-33.5 512.99,-33.5 530.68,-33.5"/>
<polygon fill="#63b8ff" stroke="#63b8ff" points="530.99,-37 540.99,-33.5 530.99,-30 530.99,-37"/>
</a>
</g>
</g>
<!-- Node9 -->
<g id="Node000009" class="node">
<title>Node9</title>
<g id="a_Node000009"><a xlink:href="code__8008C1D0_8c.html#a5cdc06d2091fc6d20759448c40b17d54" target="_top" xlink:title=" ">
<polygon fill="white" stroke="#666666" points="491.5,-499 399.5,-499 399.5,-480 491.5,-480 491.5,-499"/>
<text text-anchor="middle" x="445.5" y="-487" font-family="Helvetica,sans-Serif" font-size="10.00">func_8008C354</text>
</a>
</g>
</g>
<!-- Node8&#45;&gt;Node9 -->
<g id="edge8_Node000008_Node000009" class="edge">
<title>Node8&#45;&gt;Node9</title>
<g id="a_edge8_Node000008_Node000009"><a xlink:title=" ">
<path fill="none" stroke="#63b8ff" d="M308.52,-203.01C328.41,-244.93 408.48,-413.61 435.52,-470.59"/>
<polygon fill="#63b8ff" stroke="#63b8ff" points="432.48,-472.34 439.93,-479.87 438.8,-469.34 432.48,-472.34"/>
</a>
</g>
</g>
<!-- Node28 -->
<g id="Node000028" class="node">
<title>Node28</title>
<g id="a_Node000028"><a xlink:href="code__8008C1D0_8c.html#ab03baba14bfbe9feac872f1585494a38" target="_top" xlink:title=" ">
<polygon fill="white" stroke="#666666" points="491.5,-240 399.5,-240 399.5,-221 491.5,-221 491.5,-240"/>
<text text-anchor="middle" x="445.5" y="-228" font-family="Helvetica,sans-Serif" font-size="10.00">func_8008E3C0</text>
</a>
</g>
</g>
<!-- Node8&#45;&gt;Node28 -->
<g id="edge27_Node000008_Node000028" class="edge">
<title>Node8&#45;&gt;Node28</title>
<g id="a_edge27_Node000008_Node000028"><a xlink:title=" ">
<path fill="none" stroke="#63b8ff" d="M340.18,-203.03C357.83,-207.67 379.25,-213.32 398.09,-218.28"/>
<polygon fill="#63b8ff" stroke="#63b8ff" points="397.39,-221.71 407.95,-220.88 399.17,-214.94 397.39,-221.71"/>
</a>
</g>
</g>
<!-- Node30 -->
<g id="Node000030" class="node">
<title>Node30</title>
<g id="a_Node000030"><a xlink:href="code__8008C1D0_8c.html#ae1bacd987d7f12fc5960f838a7dbe137" target="_top" xlink:title=" ">
<polygon fill="white" stroke="#666666" points="491.5,-203 399.5,-203 399.5,-184 491.5,-184 491.5,-203"/>
<text text-anchor="middle" x="445.5" y="-191" font-family="Helvetica,sans-Serif" font-size="10.00">func_8008F86C</text>
</a>
</g>
</g>
<!-- Node8&#45;&gt;Node30 -->
<g id="edge29_Node000008_Node000030" class="edge">
<title>Node8&#45;&gt;Node30</title>
<g id="a_edge29_Node000008_Node000030"><a xlink:title=" ">
<path fill="none" stroke="#63b8ff" d="M348.84,-193.5C361.64,-193.5 375.74,-193.5 389.09,-193.5"/>
<polygon fill="#63b8ff" stroke="#63b8ff" points="389.12,-197 399.12,-193.5 389.12,-190 389.12,-197"/>
</a>
</g>
</g>
<!-- Node41 -->
<g id="Node000041" class="node">
<title>Node41</title>
<g id="a_Node000041"><a xlink:href="player__controller_8c.html#aafeb0470c7da44e1440ffa4848f7d500" target="_top" xlink:title=" ">
<polygon fill="white" stroke="#666666" points="505,-165.5 386,-165.5 386,-135.5 505,-135.5 505,-165.5"/>
<text text-anchor="start" x="394" y="-153.5" font-family="Helvetica,sans-Serif" font-size="10.00">get_player_index_for</text>
<text text-anchor="middle" x="445.5" y="-142.5" font-family="Helvetica,sans-Serif" font-size="10.00">_player</text>
</a>
</g>
</g>
<!-- Node8&#45;&gt;Node41 -->
<g id="edge43_Node000008_Node000041" class="edge">
<title>Node8&#45;&gt;Node41</title>
<g id="a_edge43_Node000008_Node000041"><a xlink:title=" ">
<path fill="none" stroke="#63b8ff" d="M335.18,-183.96C349.98,-179.43 368.17,-173.86 385.44,-168.57"/>
<polygon fill="#63b8ff" stroke="#63b8ff" points="386.93,-171.78 395.47,-165.51 384.88,-165.09 386.93,-171.78"/>
</a>
</g>
</g>
<!-- Node10 -->
<g id="Node000010" class="node">
<title>Node10</title>
<g id="a_Node000010"><a xlink:href="code__8008C1D0_8c.html#ad164a912d7ef76f24e7b5cfb9169c16f" target="_top" xlink:title=" ">
<polygon fill="white" stroke="#666666" points="645,-425 552,-425 552,-406 645,-406 645,-425"/>
<text text-anchor="middle" x="598.5" y="-413" font-family="Helvetica,sans-Serif" font-size="10.00">func_8008C6D0</text>
</a>
</g>
</g>
<!-- Node9&#45;&gt;Node10 -->
<g id="edge9_Node000009_Node000010" class="edge">
<title>Node9&#45;&gt;Node10</title>
<g id="a_edge9_Node000009_Node000010"><a xlink:title=" ">
<path fill="none" stroke="#63b8ff" d="M460.74,-479.98C478.83,-468.18 511.26,-447.98 541,-434.5 545.71,-432.36 550.73,-430.34 555.77,-428.46"/>
<polygon fill="#63b8ff" stroke="#63b8ff" points="557.14,-431.69 565.39,-425.04 554.79,-425.09 557.14,-431.69"/>
</a>
</g>
</g>
<!-- Node11 -->
<g id="Node000011" class="node">
<title>Node11</title>
<g id="a_Node000011"><a xlink:href="code__8008C1D0_8c.html#a105203221e314be241a95e006b62ef80" target="_top" xlink:title=" ">
<polygon fill="white" stroke="#666666" points="644.5,-388 552.5,-388 552.5,-369 644.5,-369 644.5,-388"/>
<text text-anchor="middle" x="598.5" y="-376" font-family="Helvetica,sans-Serif" font-size="10.00">func_8008C8C4</text>
</a>
</g>
</g>
<!-- Node9&#45;&gt;Node11 -->
<g id="edge10_Node000009_Node000011" class="edge">
<title>Node9&#45;&gt;Node11</title>
<g id="a_edge10_Node000009_Node000011"><a xlink:title=" ">
<path fill="none" stroke="#63b8ff" d="M453.77,-480C468.37,-461.55 503.09,-420.65 541,-397.5 544.38,-395.44 548.01,-393.56 551.75,-391.87"/>
<polygon fill="#63b8ff" stroke="#63b8ff" points="553.22,-395.05 561.15,-388.04 550.57,-388.57 553.22,-395.05"/>
</a>
</g>
</g>
<!-- Node12 -->
<g id="Node000012" class="node">
<title>Node12</title>
<g id="a_Node000012"><a xlink:href="code__8008C1D0_8c.html#acab450a6af6eca812ad3987a292a5165" target="_top" xlink:title=" ">
<polygon fill="white" stroke="#666666" points="644.5,-351 552.5,-351 552.5,-332 644.5,-332 644.5,-351"/>
<text text-anchor="middle" x="598.5" y="-339" font-family="Helvetica,sans-Serif" font-size="10.00">func_8008D0E4</text>
</a>
</g>
</g>
<!-- Node9&#45;&gt;Node12 -->
<g id="edge11_Node000009_Node000012" class="edge">
<title>Node9&#45;&gt;Node12</title>
<g id="a_edge11_Node000009_Node000012"><a xlink:title=" ">
<path fill="none" stroke="#63b8ff" d="M450.95,-479.83C462.42,-456 495.29,-393.93 541,-360.5 543.63,-358.58 546.47,-356.84 549.43,-355.27"/>
<polygon fill="#63b8ff" stroke="#63b8ff" points="550.94,-358.42 558.55,-351.05 548.01,-352.07 550.94,-358.42"/>
</a>
</g>
</g>
<!-- Node13 -->
<g id="Node000013" class="node">
<title>Node13</title>
<g id="a_Node000013"><a xlink:href="code__8008C1D0_8c.html#a663cb8df8b606cf00e361977c9d6d834" target="_top" xlink:title=" ">
<polygon fill="white" stroke="#666666" points="645,-314 552,-314 552,-295 645,-295 645,-314"/>
<text text-anchor="middle" x="598.5" y="-302" font-family="Helvetica,sans-Serif" font-size="10.00">func_8008D3B0</text>
</a>
</g>
</g>
<!-- Node9&#45;&gt;Node13 -->
<g id="edge12_Node000009_Node000013" class="edge">
<title>Node9&#45;&gt;Node13</title>
<g id="a_edge12_Node000009_Node000013"><a xlink:title=" ">
<path fill="none" stroke="#63b8ff" d="M449.35,-479.63C458.09,-451.11 487.24,-367.77 541,-323.5 543.14,-321.74 545.44,-320.14 547.86,-318.69"/>
<polygon fill="#63b8ff" stroke="#63b8ff" points="549.67,-321.7 556.99,-314.04 546.49,-315.46 549.67,-321.7"/>
</a>
</g>
</g>
<!-- Node14 -->
<g id="Node000014" class="node">
<title>Node14</title>
<g id="a_Node000014"><a xlink:href="code__8008C1D0_8c.html#ae7bb91110e710a8f32fcd4c56c56f934" target="_top" xlink:title=" ">
<polygon fill="white" stroke="#666666" points="644.5,-277 552.5,-277 552.5,-258 644.5,-258 644.5,-277"/>
<text text-anchor="middle" x="598.5" y="-265" font-family="Helvetica,sans-Serif" font-size="10.00">func_8008D554</text>
</a>
</g>
</g>
<!-- Node9&#45;&gt;Node14 -->
<g id="edge13_Node000009_Node000014" class="edge">
<title>Node9&#45;&gt;Node14</title>
<g id="a_edge13_Node000009_Node000014"><a xlink:title=" ">
<path fill="none" stroke="#63b8ff" d="M448.2,-479.83C454.39,-447.53 478.7,-342.22 541,-286.5 542.75,-284.93 544.64,-283.49 546.63,-282.17"/>
<polygon fill="#63b8ff" stroke="#63b8ff" points="548.77,-284.99 555.84,-277.1 545.39,-278.85 548.77,-284.99"/>
</a>
</g>
</g>
<!-- Node15 -->
<g id="Node000015" class="node">
<title>Node15</title>
<g id="a_Node000015"><a xlink:href="code__8008C1D0_8c.html#a5f19eaaa048055d292d02c717e635786" target="_top" xlink:title=" ">
<polygon fill="white" stroke="#666666" points="644.5,-758 552.5,-758 552.5,-739 644.5,-739 644.5,-758"/>
<text text-anchor="middle" x="598.5" y="-746" font-family="Helvetica,sans-Serif" font-size="10.00">func_8008D760</text>
</a>
</g>
</g>
<!-- Node9&#45;&gt;Node15 -->
<g id="edge14_Node000009_Node000015" class="edge">
<title>Node9&#45;&gt;Node15</title>
<g id="a_edge14_Node000009_Node000015"><a xlink:title=" ">
<path fill="none" stroke="#63b8ff" d="M447.4,-499.43C451.25,-535.85 469.5,-663.52 541,-730.5 542.27,-731.69 543.61,-732.79 545.01,-733.83"/>
<polygon fill="#63b8ff" stroke="#63b8ff" points="543.26,-736.86 553.64,-738.99 546.86,-730.85 543.26,-736.86"/>
</a>
</g>
</g>
<!-- Node16 -->
<g id="Node000016" class="node">
<title>Node16</title>
<g id="a_Node000016"><a xlink:href="code__8008C1D0_8c.html#a4ea2da0616ee3c475e4be217dc0bc71f" target="_top" xlink:title=" ">
<polygon fill="white" stroke="#666666" points="645,-721 552,-721 552,-702 645,-702 645,-721"/>
<text text-anchor="middle" x="598.5" y="-709" font-family="Helvetica,sans-Serif" font-size="10.00">func_8008D97C</text>
</a>
</g>
</g>
<!-- Node9&#45;&gt;Node16 -->
<g id="edge15_Node000009_Node000016" class="edge">
<title>Node9&#45;&gt;Node16</title>
<g id="a_edge15_Node000009_Node000016"><a xlink:title=" ">
<path fill="none" stroke="#63b8ff" d="M448.15,-499.25C454.18,-531.83 478.06,-637.99 541,-693.5 542.33,-694.67 543.73,-695.76 545.19,-696.79"/>
<polygon fill="#63b8ff" stroke="#63b8ff" points="543.71,-699.97 554.12,-701.91 547.19,-693.9 543.71,-699.97"/>
</a>
</g>
</g>
<!-- Node17 -->
<g id="Node000017" class="node">
<title>Node17</title>
<g id="a_Node000017"><a xlink:href="code__8008C1D0_8c.html#a4a437d6caeeaa794bcce43ec60c097e9" target="_top" xlink:title=" ">
<polygon fill="white" stroke="#666666" points="644,-684 553,-684 553,-665 644,-665 644,-684"/>
<text text-anchor="middle" x="598.5" y="-672" font-family="Helvetica,sans-Serif" font-size="10.00">func_8008E884</text>
</a>
</g>
</g>
<!-- Node9&#45;&gt;Node17 -->
<g id="edge16_Node000009_Node000017" class="edge">
<title>Node9&#45;&gt;Node17</title>
<g id="a_edge16_Node000009_Node000017"><a xlink:title=" ">
<path fill="none" stroke="#63b8ff" d="M449.18,-499.06C457.62,-527.47 486.44,-612.19 541,-656.5 542.59,-657.79 544.27,-658.99 546.02,-660.1"/>
<polygon fill="#63b8ff" stroke="#63b8ff" points="544.78,-663.4 555.25,-664.98 548.05,-657.21 544.78,-663.4"/>
</a>
</g>
</g>
<!-- Node18 -->
<g id="Node000018" class="node">
<title>Node18</title>
<g id="a_Node000018"><a xlink:href="code__8008C1D0_8c.html#a4e2c6d0ba50b7c13695f74f1c2bc7b18" target="_top" xlink:title=" ">
<polygon fill="white" stroke="#666666" points="644.5,-647 552.5,-647 552.5,-628 644.5,-628 644.5,-647"/>
<text text-anchor="middle" x="598.5" y="-635" font-family="Helvetica,sans-Serif" font-size="10.00">func_8008EC34</text>
</a>
</g>
</g>
<!-- Node9&#45;&gt;Node18 -->
<g id="edge17_Node000009_Node000018" class="edge">
<title>Node9&#45;&gt;Node18</title>
<g id="a_edge17_Node000009_Node000018"><a xlink:title=" ">
<path fill="none" stroke="#63b8ff" d="M450.9,-499.29C462.24,-523.41 494.85,-586.18 541,-619.5 542.9,-620.87 544.91,-622.14 546.99,-623.32"/>
<polygon fill="#63b8ff" stroke="#63b8ff" points="545.96,-626.7 556.49,-627.89 548.99,-620.4 545.96,-626.7"/>
</a>
</g>
</g>
<!-- Node19 -->
<g id="Node000019" class="node">
<title>Node19</title>
<g id="a_Node000019"><a xlink:href="code__8008C1D0_8c.html#ae48f5d9507d1966754bc1aa1bddc4136" target="_top" xlink:title=" ">
<polygon fill="white" stroke="#666666" points="644.5,-573 552.5,-573 552.5,-554 644.5,-554 644.5,-573"/>
<text text-anchor="middle" x="598.5" y="-561" font-family="Helvetica,sans-Serif" font-size="10.00">func_8008EEC4</text>
</a>
</g>
</g>
<!-- Node9&#45;&gt;Node19 -->
<g id="edge18_Node000009_Node000019" class="edge">
<title>Node9&#45;&gt;Node19</title>
<g id="a_edge18_Node000009_Node000019"><a xlink:title=" ">
<path fill="none" stroke="#63b8ff" d="M460.37,-499.08C478.32,-511.17 510.9,-532 541,-545.5 545.07,-547.33 549.39,-549.05 553.74,-550.66"/>
<polygon fill="#63b8ff" stroke="#63b8ff" points="552.68,-553.99 563.27,-553.97 554.98,-547.38 552.68,-553.99"/>
</a>
</g>
</g>
<!-- Node20 -->
<g id="Node000020" class="node">
<title>Node20</title>
<g id="a_Node000020"><a xlink:href="code__8008C1D0_8c.html#a77e26f2cff6381f9ba1575f8da060571" target="_top" xlink:title=" ">
<polygon fill="white" stroke="#666666" points="644,-536 553,-536 553,-517 644,-517 644,-536"/>
<text text-anchor="middle" x="598.5" y="-524" font-family="Helvetica,sans-Serif" font-size="10.00">func_8008F0E8</text>
</a>
</g>
</g>
<!-- Node9&#45;&gt;Node20 -->
<g id="edge19_Node000009_Node000020" class="edge">
<title>Node9&#45;&gt;Node20</title>
<g id="a_edge19_Node000009_Node000020"><a xlink:title=" ">
<path fill="none" stroke="#63b8ff" d="M485.39,-499.03C504.69,-503.76 528.2,-509.52 548.69,-514.54"/>
<polygon fill="#63b8ff" stroke="#63b8ff" points="547.94,-517.96 558.48,-516.94 549.6,-511.16 547.94,-517.96"/>
</a>
</g>
</g>
<!-- Node21 -->
<g id="Node000021" class="node">
<title>Node21</title>
<g id="a_Node000021"><a xlink:href="code__8008C1D0_8c.html#ae02351b6bbb678b552ec8864b47fc56c" target="_top" xlink:title=" ">
<polygon fill="white" stroke="#666666" points="644,-499 553,-499 553,-480 644,-480 644,-499"/>
<text text-anchor="middle" x="598.5" y="-487" font-family="Helvetica,sans-Serif" font-size="10.00">func_8008F3E0</text>
</a>
</g>
</g>
<!-- Node9&#45;&gt;Node21 -->
<g id="edge20_Node000009_Node000021" class="edge">
<title>Node9&#45;&gt;Node21</title>
<g id="a_edge20_Node000009_Node000021"><a xlink:title=" ">
<path fill="none" stroke="#63b8ff" d="M491.8,-489.5C507.78,-489.5 525.9,-489.5 542.58,-489.5"/>
<polygon fill="#63b8ff" stroke="#63b8ff" points="542.75,-493 552.75,-489.5 542.75,-486 542.75,-493"/>
</a>
</g>
</g>
<!-- Node22 -->
<g id="Node000022" class="node">
<title>Node22</title>
<g id="a_Node000022"><a xlink:href="code__8008C1D0_8c.html#afcf39ca15166fb7561402462930cd979" target="_top" xlink:title=" ">
<polygon fill="white" stroke="#666666" points="644.5,-610 552.5,-610 552.5,-591 644.5,-591 644.5,-610"/>
<text text-anchor="middle" x="598.5" y="-598" font-family="Helvetica,sans-Serif" font-size="10.00">func_8008F5A4</text>
</a>
</g>
</g>
<!-- Node9&#45;&gt;Node22 -->
<g id="edge21_Node000009_Node000022" class="edge">
<title>Node9&#45;&gt;Node22</title>
<g id="a_edge21_Node000009_Node000022"><a xlink:title=" ">
<path fill="none" stroke="#63b8ff" d="M453.72,-499.16C468.21,-517.92 502.77,-559.43 541,-582.5 543.78,-584.18 546.73,-585.71 549.76,-587.12"/>
<polygon fill="#63b8ff" stroke="#63b8ff" points="548.47,-590.37 559.05,-590.95 551.14,-583.9 548.47,-590.37"/>
</a>
</g>
</g>
<!-- Node27 -->
<g id="Node000027" class="node">
<title>Node27</title>
<g id="a_Node000027"><a xlink:href="code__8008C1D0_8c.html#ab6d84742231847170dd64267f0519cdf" target="_top" xlink:title=" ">
<polygon fill="white" stroke="#666666" points="645,-462 552,-462 552,-443 645,-443 645,-462"/>
<text text-anchor="middle" x="598.5" y="-450" font-family="Helvetica,sans-Serif" font-size="10.00">func_8008FEDC</text>
</a>
</g>
</g>
<!-- Node9&#45;&gt;Node27 -->
<g id="edge26_Node000009_Node000027" class="edge">
<title>Node9&#45;&gt;Node27</title>
<g id="a_edge26_Node000009_Node000027"><a xlink:title=" ">
<path fill="none" stroke="#63b8ff" d="M485.39,-479.97C504.69,-475.24 528.2,-469.48 548.69,-464.46"/>
<polygon fill="#63b8ff" stroke="#63b8ff" points="549.6,-467.84 558.48,-462.06 547.94,-461.04 549.6,-467.84"/>
</a>
</g>
</g>
<!-- Node23 -->
<g id="Node000023" class="node">
<title>Node23</title>
<g id="a_Node000023"><a xlink:href="code__80057C60_8c.html#a0a55fae21abd30d3c618adef1a9f3ccd" target="_top" xlink:title=" ">
<polygon fill="white" stroke="#666666" points="784.5,-555 692.5,-555 692.5,-536 784.5,-536 784.5,-555"/>
<text text-anchor="middle" x="738.5" y="-543" font-family="Helvetica,sans-Serif" font-size="10.00">func_8006B8B4</text>
</a>
</g>
</g>
<!-- Node22&#45;&gt;Node23 -->
<g id="edge22_Node000022_Node000023" class="edge">
<title>Node22&#45;&gt;Node23</title>
<g id="a_edge22_Node000022_Node000023"><a xlink:title=" ">
<path fill="none" stroke="#63b8ff" d="M631.7,-590.96C639.7,-588.4 648.22,-585.49 656,-582.5 673.9,-575.61 693.47,-566.77 708.96,-559.46"/>
<polygon fill="#63b8ff" stroke="#63b8ff" points="710.5,-562.6 718.01,-555.13 707.48,-556.28 710.5,-562.6"/>
</a>
</g>
</g>
<!-- Node24 -->
<g id="Node000024" class="node">
<title>Node24</title>
<g id="a_Node000024"><a xlink:href="code__8008C1D0_8c.html#a1c7552c4a370cc015c2726e40f1fdb06" target="_top" xlink:title=" ">
<polygon fill="white" stroke="#666666" points="914,-555 821,-555 821,-536 914,-536 914,-555"/>
<text text-anchor="middle" x="867.5" y="-543" font-family="Helvetica,sans-Serif" font-size="10.00">func_8008FD4C</text>
</a>
</g>
</g>
<!-- Node23&#45;&gt;Node24 -->
<g id="edge23_Node000023_Node000024" class="edge">
<title>Node23&#45;&gt;Node24</title>
<g id="a_edge23_Node000023_Node000024"><a xlink:title=" ">
<path fill="none" stroke="#63b8ff" d="M784.63,-545.5C793.04,-545.5 801.91,-545.5 810.59,-545.5"/>
<polygon fill="#63b8ff" stroke="#63b8ff" points="810.66,-549 820.66,-545.5 810.66,-542 810.66,-549"/>
</a>
</g>
</g>
<!-- Node25 -->
<g id="Node000025" class="node">
<title>Node25</title>
<g id="a_Node000025"><a xlink:href="external_8c.html#a517352d45a01341217ab2c073b3b223f" target="_top" xlink:title=" ">
<polygon fill="white" stroke="#666666" points="913.5,-463 821.5,-463 821.5,-444 913.5,-444 913.5,-463"/>
<text text-anchor="middle" x="867.5" y="-451" font-family="Helvetica,sans-Serif" font-size="10.00">func_800C9060</text>
</a>
</g>
</g>
<!-- Node23&#45;&gt;Node25 -->
<g id="edge24_Node000023_Node000025" class="edge">
<title>Node23&#45;&gt;Node25</title>
<g id="a_edge24_Node000023_Node000025"><a xlink:title=" ">
<path fill="none" stroke="#63b8ff" d="M753.09,-535.65C775.05,-519.75 818.53,-488.25 844.81,-469.21"/>
<polygon fill="#63b8ff" stroke="#63b8ff" points="846.96,-471.98 853.01,-463.27 842.85,-466.31 846.96,-471.98"/>
</a>
</g>
</g>
<!-- Node26 -->
<g id="Node000026" class="node">
<title>Node26</title>
<g id="a_Node000026"><a xlink:href="external_8c.html#a62e16f9600e7e9beda2c9d2df10f3561" target="_top" xlink:title=" ">
<polygon fill="white" stroke="#666666" points="1022,-389 950,-389 950,-370 1022,-370 1022,-389"/>
<text text-anchor="middle" x="986" y="-377" font-family="Helvetica,sans-Serif" font-size="10.00">play_sound</text>
</a>
</g>
</g>
<!-- Node25&#45;&gt;Node26 -->
<g id="edge25_Node000025_Node000026" class="edge">
<title>Node25&#45;&gt;Node26</title>
<g id="a_edge25_Node000025_Node000026"><a xlink:title=" ">
<path fill="none" stroke="#63b8ff" d="M883.73,-443.83C903.44,-431.31 938,-409.35 961.19,-394.62"/>
<polygon fill="#63b8ff" stroke="#63b8ff" points="963.2,-397.49 969.77,-389.18 959.45,-391.58 963.2,-397.49"/>
</a>
</g>
</g>
<!-- Node29 -->
<g id="Node000029" class="node">
<title>Node29</title>
<g id="a_Node000029"><a xlink:href="render__player_8c.html#a35eebbf671cc37666be29a2a9b6f3c8c" target="_top" xlink:title=" ">
<polygon fill="white" stroke="#666666" points="653.5,-240 543.5,-240 543.5,-221 653.5,-221 653.5,-240"/>
<text text-anchor="middle" x="598.5" y="-228" font-family="Helvetica,sans-Serif" font-size="10.00">move_f32_towards</text>
</a>
</g>
</g>
<!-- Node28&#45;&gt;Node29 -->
<g id="edge28_Node000028_Node000029" class="edge">
<title>Node28&#45;&gt;Node29</title>
<g id="a_edge28_Node000028_Node000029"><a xlink:title=" ">
<path fill="none" stroke="#63b8ff" d="M491.8,-230.5C504.88,-230.5 519.39,-230.5 533.38,-230.5"/>
<polygon fill="#63b8ff" stroke="#63b8ff" points="533.44,-234 543.44,-230.5 533.44,-227 533.44,-234"/>
</a>
</g>
</g>
<!-- Node31 -->
<g id="Node000031" class="node">
<title>Node31</title>
<g id="a_Node000031"><a xlink:href="external_8c.html#ac32b332e8b9a73af543741393186060d" target="_top" xlink:title=" ">
<polygon fill="white" stroke="#666666" points="644.5,-203 552.5,-203 552.5,-184 644.5,-184 644.5,-203"/>
<text text-anchor="middle" x="598.5" y="-191" font-family="Helvetica,sans-Serif" font-size="10.00">func_800CA730</text>
</a>
</g>
</g>
<!-- Node30&#45;&gt;Node31 -->
<g id="edge30_Node000030_Node000031" class="edge">
<title>Node30&#45;&gt;Node31</title>
<g id="a_edge30_Node000030_Node000031"><a xlink:title=" ">
<path fill="none" stroke="#63b8ff" d="M491.8,-193.5C507.7,-193.5 525.74,-193.5 542.36,-193.5"/>
<polygon fill="#63b8ff" stroke="#63b8ff" points="542.49,-197 552.49,-193.5 542.49,-190 542.49,-197"/>
</a>
</g>
</g>
<!-- Node39 -->
<g id="Node000039" class="node">
<title>Node39</title>
<g id="a_Node000039"><a xlink:href="external_8c.html#a3138069310bbed5109964d607d51811f" target="_top" xlink:title=" ">
<polygon fill="white" stroke="#666666" points="646,-92 551,-92 551,-73 646,-73 646,-92"/>
<text text-anchor="middle" x="598.5" y="-80" font-family="Helvetica,sans-Serif" font-size="10.00">func_800CAACC</text>
</a>
</g>
</g>
<!-- Node30&#45;&gt;Node39 -->
<g id="edge40_Node000030_Node000039" class="edge">
<title>Node30&#45;&gt;Node39</title>
<g id="a_edge40_Node000030_Node000039"><a xlink:title=" ">
<path fill="none" stroke="#63b8ff" d="M484.78,-183.93C491.77,-181.4 498.8,-178.29 505,-174.5 537.81,-154.46 567.78,-120.54 584.25,-99.97"/>
<polygon fill="#63b8ff" stroke="#63b8ff" points="587.04,-102.08 590.45,-92.04 581.53,-97.76 587.04,-102.08"/>
</a>
</g>
</g>
<!-- Node31&#45;&gt;Node26 -->
<g id="edge39_Node000031_Node000026" class="edge">
<title>Node31&#45;&gt;Node26</title>
<g id="a_edge39_Node000031_Node000026"><a xlink:title=" ">
<path fill="none" stroke="#63b8ff" d="M639.21,-203.06C645.18,-205.54 651,-208.64 656,-212.5 679.12,-230.36 669.25,-249.17 692,-267.5 767.12,-328.02 878.57,-358.41 940.1,-371.39"/>
<polygon fill="#63b8ff" stroke="#63b8ff" points="939.4,-374.82 949.9,-373.4 940.81,-367.96 939.4,-374.82"/>
</a>
</g>
</g>
<!-- Node32 -->
<g id="Node000032" class="node">
<title>Node32</title>
<g id="a_Node000032"><a xlink:href="external_8c.html#ac48b7cbfcaa7737f892877ead85e4ba7" target="_top" xlink:title=" ">
<polygon fill="white" stroke="#666666" points="913.5,-231 821.5,-231 821.5,-212 913.5,-212 913.5,-231"/>
<text text-anchor="middle" x="867.5" y="-219" font-family="Helvetica,sans-Serif" font-size="10.00">func_800C3448</text>
</a>
</g>
</g>
<!-- Node31&#45;&gt;Node32 -->
<g id="edge31_Node000031_Node000032" class="edge">
<title>Node31&#45;&gt;Node32</title>
<g id="a_edge31_Node000031_Node000032"><a xlink:title=" ">
<path fill="none" stroke="#63b8ff" d="M636.23,-203.01C643.07,-205.56 649.96,-208.7 656,-212.5 675.42,-224.72 670.86,-240.57 692,-249.5 740.7,-270.07 802.89,-250.26 838.36,-235.12"/>
<polygon fill="#63b8ff" stroke="#63b8ff" points="839.9,-238.26 847.62,-231.01 837.06,-231.87 839.9,-238.26"/>
</a>
</g>
</g>
<!-- Node33 -->
<g id="Node000033" class="node">
<title>Node33</title>
<g id="a_Node000033"><a xlink:href="external_8c.html#ab2ecda68e1fb6f957aafd4c5742e2f63" target="_top" xlink:title=" ">
<polygon fill="white" stroke="#666666" points="784.5,-240 692.5,-240 692.5,-221 784.5,-221 784.5,-240"/>
<text text-anchor="middle" x="738.5" y="-228" font-family="Helvetica,sans-Serif" font-size="10.00">func_800C3508</text>
</a>
</g>
</g>
<!-- Node31&#45;&gt;Node33 -->
<g id="edge32_Node000031_Node000033" class="edge">
<title>Node31&#45;&gt;Node33</title>
<g id="a_edge32_Node000031_Node000033"><a xlink:title=" ">
<path fill="none" stroke="#63b8ff" d="M635.04,-203.03C652.37,-207.67 673.41,-213.32 691.91,-218.28"/>
<polygon fill="#63b8ff" stroke="#63b8ff" points="691.04,-221.67 701.6,-220.88 692.85,-214.9 691.04,-221.67"/>
</a>
</g>
</g>
<!-- Node34 -->
<g id="Node000034" class="node">
<title>Node34</title>
<g id="a_Node000034"><a xlink:href="external_8c.html#a2aea7abf056e029f247b18edb62aa218" target="_top" xlink:title=" ">
<polygon fill="white" stroke="#666666" points="784.5,-129 692.5,-129 692.5,-110 784.5,-110 784.5,-129"/>
<text text-anchor="middle" x="738.5" y="-117" font-family="Helvetica,sans-Serif" font-size="10.00">func_800C357C</text>
</a>
</g>
</g>
<!-- Node31&#45;&gt;Node34 -->
<g id="edge33_Node000031_Node000034" class="edge">
<title>Node31&#45;&gt;Node34</title>
<g id="a_edge33_Node000031_Node000034"><a xlink:title=" ">
<path fill="none" stroke="#63b8ff" d="M613.81,-183.8C631.63,-171.96 663.24,-151.77 692,-137.5 695.14,-135.94 698.45,-134.42 701.79,-132.96"/>
<polygon fill="#63b8ff" stroke="#63b8ff" points="703.3,-136.12 711.19,-129.04 700.61,-129.66 703.3,-136.12"/>
</a>
</g>
</g>
<!-- Node35 -->
<g id="Node000035" class="node">
<title>Node35</title>
<g id="a_Node000035"><a xlink:href="external_8c.html#aea29af4ab009f59caa57f45987b0ea86" target="_top" xlink:title=" ">
<polygon fill="white" stroke="#666666" points="784.5,-354 692.5,-354 692.5,-335 784.5,-335 784.5,-354"/>
<text text-anchor="middle" x="738.5" y="-342" font-family="Helvetica,sans-Serif" font-size="10.00">func_800C3608</text>
</a>
</g>
</g>
<!-- Node31&#45;&gt;Node35 -->
<g id="edge34_Node000031_Node000035" class="edge">
<title>Node31&#45;&gt;Node35</title>
<g id="a_edge34_Node000031_Node000035"><a xlink:title=" ">
<path fill="none" stroke="#63b8ff" d="M642.43,-203.07C647.44,-205.53 652.13,-208.62 656,-212.5 691.73,-248.32 659.27,-281.92 692,-320.5 694.94,-323.96 698.51,-327 702.34,-329.64"/>
<polygon fill="#63b8ff" stroke="#63b8ff" points="700.62,-332.69 711,-334.8 704.2,-326.68 700.62,-332.69"/>
</a>
</g>
</g>
<!-- Node36 -->
<g id="Node000036" class="node">
<title>Node36</title>
<g id="a_Node000036"><a xlink:href="external_8c.html#afcb6c1c892ff72b06f548327e6e21586" target="_top" xlink:title=" ">
<polygon fill="white" stroke="#666666" points="785,-203 692,-203 692,-184 785,-184 785,-203"/>
<text text-anchor="middle" x="738.5" y="-191" font-family="Helvetica,sans-Serif" font-size="10.00">func_800C8EAC</text>
</a>
</g>
</g>
<!-- Node31&#45;&gt;Node36 -->
<g id="edge35_Node000031_Node000036" class="edge">
<title>Node31&#45;&gt;Node36</title>
<g id="a_edge35_Node000031_Node000036"><a xlink:title=" ">
<path fill="none" stroke="#63b8ff" d="M644.69,-193.5C656.48,-193.5 669.33,-193.5 681.6,-193.5"/>
<polygon fill="#63b8ff" stroke="#63b8ff" points="681.74,-197 691.74,-193.5 681.74,-190 681.74,-197"/>
</a>
</g>
</g>
<!-- Node37 -->
<g id="Node000037" class="node">
<title>Node37</title>
<g id="a_Node000037"><a xlink:href="external_8c.html#a77dd28bb660c9e64fef58443fb7a1f0e" target="_top" xlink:title=" ">
<polygon fill="white" stroke="#666666" points="784.5,-166 692.5,-166 692.5,-147 784.5,-147 784.5,-166"/>
<text text-anchor="middle" x="738.5" y="-154" font-family="Helvetica,sans-Serif" font-size="10.00">func_800C9018</text>
</a>
</g>
</g>
<!-- Node31&#45;&gt;Node37 -->
<g id="edge37_Node000031_Node000037" class="edge">
<title>Node31&#45;&gt;Node37</title>
<g id="a_edge37_Node000031_Node000037"><a xlink:title=" ">
<path fill="none" stroke="#63b8ff" d="M635.04,-183.97C652.37,-179.33 673.41,-173.68 691.91,-168.72"/>
<polygon fill="#63b8ff" stroke="#63b8ff" points="692.85,-172.1 701.6,-166.12 691.04,-165.33 692.85,-172.1"/>
</a>
</g>
</g>
<!-- Node36&#45;&gt;Node32 -->
<g id="edge36_Node000036_Node000032" class="edge">
<title>Node36&#45;&gt;Node32</title>
<g id="a_edge36_Node000036_Node000032"><a xlink:title=" ">
<path fill="none" stroke="#63b8ff" d="M782.85,-203.06C792.66,-205.22 803.18,-207.54 813.34,-209.78"/>
<polygon fill="#63b8ff" stroke="#63b8ff" points="812.83,-213.25 823.34,-211.99 814.33,-206.41 812.83,-213.25"/>
</a>
</g>
</g>
<!-- Node38 -->
<g id="Node000038" class="node">
<title>Node38</title>
<g id="a_Node000038"><a xlink:href="external_8h.html#a69165d21844ba08a94405ec729d386d4" target="_top" xlink:title=" ">
<polygon fill="white" stroke="#666666" points="913.5,-138 821.5,-138 821.5,-119 913.5,-119 913.5,-138"/>
<text text-anchor="middle" x="867.5" y="-126" font-family="Helvetica,sans-Serif" font-size="10.00">func_800C5578</text>
</a>
</g>
</g>
<!-- Node37&#45;&gt;Node38 -->
<g id="edge38_Node000037_Node000038" class="edge">
<title>Node37&#45;&gt;Node38</title>
<g id="a_edge38_Node000037_Node000038"><a xlink:title=" ">
<path fill="none" stroke="#63b8ff" d="M782.85,-146.94C792.66,-144.78 803.18,-142.46 813.34,-140.22"/>
<polygon fill="#63b8ff" stroke="#63b8ff" points="814.33,-143.59 823.34,-138.01 812.83,-136.75 814.33,-143.59"/>
</a>
</g>
</g>
<!-- Node39&#45;&gt;Node38 -->
<g id="edge42_Node000039_Node000038" class="edge">
<title>Node39&#45;&gt;Node38</title>
<g id="a_edge42_Node000039_Node000038"><a xlink:title=" ">
<path fill="none" stroke="#63b8ff" d="M625.52,-72.98C662.17,-61.09 730.61,-44.47 785,-63.5 811.77,-72.87 836.3,-95.12 851.3,-110.97"/>
<polygon fill="#63b8ff" stroke="#63b8ff" points="848.92,-113.55 858.24,-118.58 854.09,-108.83 848.92,-113.55"/>
</a>
</g>
</g>
<!-- Node40 -->
<g id="Node000040" class="node">
<title>Node40</title>
<g id="a_Node000040"><a xlink:href="external_8c.html#a1c8490eb4720c317dd29ed76a1c4ea32" target="_top" xlink:title=" ">
<polygon fill="white" stroke="#666666" points="784.5,-92 692.5,-92 692.5,-73 784.5,-73 784.5,-92"/>
<text text-anchor="middle" x="738.5" y="-80" font-family="Helvetica,sans-Serif" font-size="10.00">func_800C21E8</text>
</a>
</g>
</g>
<!-- Node39&#45;&gt;Node40 -->
<g id="edge41_Node000039_Node000040" class="edge">
<title>Node39&#45;&gt;Node40</title>
<g id="a_edge41_Node000039_Node000040"><a xlink:title=" ">
<path fill="none" stroke="#63b8ff" d="M646.22,-82.5C657.71,-82.5 670.13,-82.5 681.99,-82.5"/>
<polygon fill="#63b8ff" stroke="#63b8ff" points="682.23,-86 692.23,-82.5 682.23,-79 682.23,-86"/>
</a>
</g>
</g>
<!-- Node44 -->
<g id="Node000044" class="node">
<title>Node44</title>
<g id="a_Node000044"><a xlink:href="code__80071F00_8c.html#ada7490dae077ee7c5e2d5ef5e485ddb5" target="_top" xlink:title=" ">
<polygon fill="white" stroke="#666666" points="348.5,-19 257.5,-19 257.5,0 348.5,0 348.5,-19"/>
<text text-anchor="middle" x="303" y="-7" font-family="Helvetica,sans-Serif" font-size="10.00">func_800790E4</text>
</a>
</g>
</g>
<!-- Node43&#45;&gt;Node44 -->
<g id="edge46_Node000043_Node000044" class="edge">
<title>Node43&#45;&gt;Node44</title>
<g id="a_edge46_Node000043_Node000044"><a xlink:title=" ">
<path fill="none" stroke="#63b8ff" d="M220.13,-21.75C228.94,-20.43 238.26,-19.04 247.34,-17.68"/>
<polygon fill="#63b8ff" stroke="#63b8ff" points="248.07,-21.11 257.44,-16.17 247.03,-14.18 248.07,-21.11"/>
</a>
</g>
</g>
<!-- Node44&#45;&gt;Node6 -->
<g id="edge47_Node000044_Node000006" class="edge">
<title>Node44&#45;&gt;Node6</title>
<g id="a_edge47_Node000044_Node000006"><a xlink:title=" ">
<path fill="none" stroke="#63b8ff" d="M348.84,-17.16C365.6,-20.02 384.59,-23.27 401.21,-26.1"/>
<polygon fill="#63b8ff" stroke="#63b8ff" points="400.76,-29.58 411.21,-27.81 401.94,-22.68 400.76,-29.58"/>
</a>
</g>
</g>
</g>
</svg>

<g id="navigator" transform="translate(0 0)" fill="#404254">
  <rect fill="#f2f5e9" fill-opacity="0.5" stroke="#606060" stroke-width=".5" x="0" y="0" width="60" height="60"/>
  <use id="zoomplus" xlink:href="#zoomPlus" x="17" y="9" onmousedown="handleZoom(evt,'in')"/>
  <use id="zoomminus" xlink:href="#zoomMin" x="42" y="9" onmousedown="handleZoom(evt,'out')"/>
  <use id="reset" xlink:href="#resetDef" x="30" y="36" onmousedown="handleReset()"/>
   <use id="arrowup" xlink:href="#arrowUp" x="0" y="0" onmousedown="handlePan(0,-1)"/>
  <use id="arrowright" xlink:href="#arrowRight" x="0" y="0" onmousedown="handlePan(1,0)"/>
  <use id="arrowdown" xlink:href="#arrowDown" x="0" y="0" onmousedown="handlePan(0,1)"/>
  <use id="arrowleft" xlink:href="#arrowLeft" x="0" y="0" onmousedown="handlePan(-1,0)"/>
</g>
<svg viewBox="0 0 15 15" width="100%" height="30px" preserveAspectRatio="xMaxYMin meet">
 <g id="arrow_out" transform="scale(0.3 0.3)">
  <a xlink:href="code__80071F00_8c_ac2ef76567c814c21e149a422ac6606d6_cgraph_org.svg" target="_base">
   <rect id="button" ry="5" rx="5" y="6" x="6" height="38" width="38"
        fill="#f2f5e9" fill-opacity="0.5" stroke="#606060" stroke-width="1.0"/>
   <path id="arrow"
     d="M 11.500037,31.436501 C 11.940474,20.09759 22.043105,11.32322 32.158766,21.979434 L 37.068811,17.246167 C 37.068811,17.246167 37.088388,32 37.088388,32 L 22.160133,31.978069 C 22.160133,31.978069 26.997745,27.140456 26.997745,27.140456 C 18.528582,18.264221 13.291696,25.230495 11.500037,31.436501 z"
     style="fill:#404040;"/>
  </a>
 </g>
</svg>

<style type='text/css'>
<![CDATA[
[data-mouse-over-selected='false'] { opacity: 0.7; }
[data-mouse-over-selected='true']  { opacity: 1.0; }
]]>
</style>
<script type="application/ecmascript"><![CDATA[
document.addEventListener('DOMContentLoaded', (event) => {
  highlightEdges();
  highlightAdjacentNodes();
});
]]></script>
</svg>
