<?xml version="1.0" encoding="UTF-8" standalone="no"?>
<!DOCTYPE svg PUBLIC "-//W3C//DTD SVG 1.1//EN"
 "http://www.w3.org/Graphics/SVG/1.1/DTD/svg11.dtd">
<!-- Generated by graphviz version 2.43.0 (0)
 -->
<!-- Title: src/code_80004740.h Pages: 1 -->
<!--zoomable 335 -->

<svg id="main" version="1.1" xmlns="http://www.w3.org/2000/svg" xmlns:xlink="http://www.w3.org/1999/xlink" xml:space="preserve" onload="init(evt)">
<style type="text/css"><![CDATA[
.node, .edge {opacity: 0.7;}
.node.selected, .edge.selected {opacity: 1;}
.edge:hover path { stroke: red; }
.edge:hover polygon { stroke: red; fill: red; }
]]></style>

<defs>
  <circle id="rim" cx="0" cy="0" r="7"/>
  <circle id="rim2" cx="0" cy="0" r="3.5"/>
  <g id="zoomPlus">
    <use xlink:href="#rim" fill="#404040"><set attributeName="fill" to="#808080" begin="zoomplus.mouseover" end="zoomplus.mouseout"/></use>
    <path d="M-4,0h8M0,-4v8" fill="none" stroke="white" stroke-width="1.5" pointer-events="none"/>
  </g>
  <g id="zoomMin">
    <use xlink:href="#rim" fill="#404040"><set attributeName="fill" to="#808080" begin="zoomminus.mouseover" end="zoomminus.mouseout"/></use>
    <path d="M-4,0h8" fill="none" stroke="white" stroke-width="1.5" pointer-events="none"/>
  </g>
  <g id="arrowUp" transform="translate(30 24)">
    <use xlink:href="#rim"/>
    <path pointer-events="none" fill="none" stroke="white" stroke-width="1.5" d="M0,-3.0v7 M-2.5,-0.5L0,-3.0L2.5,-0.5"/>
  </g>
  <g id="arrowRight" transform="rotate(90) translate(36 -43)">
    <use xlink:href="#rim"/>
    <path pointer-events="none" fill="none" stroke="white" stroke-width="1.5" d="M0,-3.0v7 M-2.5,-0.5L0,-3.0L2.5,-0.5"/>
  </g>
  <g id="arrowDown" transform="rotate(180) translate(-30 -48)">
    <use xlink:href="#rim"/>
    <path pointer-events="none" fill="none" stroke="white" stroke-width="1.5" d="M0,-3.0v7 M-2.5,-0.5L0,-3.0L2.5,-0.5"/>
  </g>
  <g id="arrowLeft" transform="rotate(270) translate(-36 17)">
    <use xlink:href="#rim"/>
    <path pointer-events="none" fill="none" stroke="white" stroke-width="1.5" d="M0,-3.0v7 M-2.5,-0.5L0,-3.0L2.5,-0.5"/>
  </g>
  <g id="resetDef">
    <use xlink:href="#rim2" fill="#404040"><set attributeName="fill" to="#808080" begin="reset.mouseover" end="reset.mouseout"/></use>
  </g>
</defs>
<script type="application/ecmascript">
var viewWidth = 2237;
var viewHeight = 335;
var sectionId = 'dynsection-1';
</script>
<script type="application/ecmascript" xlink:href="svg.min.js"/>
<svg id="graph" class="graph">
<g id="viewport">
<title>src/code_80004740.h</title>
<!-- Node1 -->
<g id="Node000001" class="node">
<title>Node1</title>
<g id="a_Node000001"><a xlink:title=" ">
<polygon fill="#999999" stroke="#666666" points="1407.35,-327 1288.35,-327 1288.35,-308 1407.35,-308 1407.35,-327"/>
<text text-anchor="middle" x="1347.85" y="-315" font-family="Helvetica,sans-Serif" font-size="10.00">src/code_80004740.h</text>
</a>
</g>
</g>
<!-- Node2 -->
<g id="Node000002" class="node">
<title>Node2</title>
<g id="a_Node000002"><a xlink:href="koopa__troopa__beach_2course__data_8c.html" target="_top" xlink:title=" ">
<polygon fill="white" stroke="#666666" points="642.35,-272 519.35,-272 519.35,-242 642.35,-242 642.35,-272"/>
<text text-anchor="start" x="527.35" y="-260" font-family="Helvetica,sans-Serif" font-size="10.00">courses/koopa_troopa</text>
<text text-anchor="middle" x="580.85" y="-249" font-family="Helvetica,sans-Serif" font-size="10.00">_beach/course_data.c</text>
</a>
</g>
</g>
<!-- Node1&#45;&gt;Node2 -->
<g id="edge1_Node000001_Node000002" class="edge">
<title>Node1&#45;&gt;Node2</title>
<g id="a_edge1_Node000001_Node000002"><a xlink:title=" ">
<path fill="none" stroke="#63b8ff" d="M1277.64,-315.12C1151.61,-311.94 878.87,-301.94 650.85,-272 648.14,-271.64 645.39,-271.25 642.61,-270.82"/>
<polygon fill="#63b8ff" stroke="#63b8ff" points="1277.83,-318.62 1287.91,-315.37 1278,-311.62 1277.83,-318.62"/>
</a>
</g>
</g>
<!-- Node3 -->
<g id="Node000003" class="node">
<title>Node3</title>
<g id="a_Node000003"><a xlink:href="koopa__troopa__beach_2course__data_8h.html" target="_top" xlink:title=" ">
<polygon fill="white" stroke="#666666" points="783.35,-272 660.35,-272 660.35,-242 783.35,-242 783.35,-272"/>
<text text-anchor="start" x="668.35" y="-260" font-family="Helvetica,sans-Serif" font-size="10.00">courses/koopa_troopa</text>
<text text-anchor="middle" x="721.85" y="-249" font-family="Helvetica,sans-Serif" font-size="10.00">_beach/course_data.h</text>
</a>
</g>
</g>
<!-- Node1&#45;&gt;Node3 -->
<g id="edge2_Node000001_Node000003" class="edge">
<title>Node1&#45;&gt;Node3</title>
<g id="a_edge2_Node000001_Node000003"><a xlink:title=" ">
<path fill="none" stroke="#63b8ff" d="M1277.72,-313.53C1171.99,-308.47 965.65,-296.25 791.85,-272 789.15,-271.62 786.39,-271.21 783.62,-270.76"/>
<polygon fill="#63b8ff" stroke="#63b8ff" points="1277.79,-317.04 1287.94,-314.02 1278.12,-310.05 1277.79,-317.04"/>
</a>
</g>
</g>
<!-- Node12 -->
<g id="Node000012" class="node">
<title>Node12</title>
<g id="a_Node000012"><a xlink:href="all__variables_8h.html" target="_top" xlink:title=" ">
<polygon fill="white" stroke="#666666" points="2228.85,-134.5 2090.85,-134.5 2090.85,-115.5 2228.85,-115.5 2228.85,-134.5"/>
<text text-anchor="middle" x="2159.85" y="-122.5" font-family="Helvetica,sans-Serif" font-size="10.00">src/debug/all_variables.h</text>
</a>
</g>
</g>
<!-- Node1&#45;&gt;Node12 -->
<g id="edge30_Node000001_Node000012" class="edge">
<title>Node1&#45;&gt;Node12</title>
<g id="a_edge30_Node000001_Node000012"><a xlink:title=" ">
<path fill="none" stroke="#63b8ff" d="M1417.65,-307.22C1454.11,-300.6 1498.75,-289.65 1535.85,-272 1555.59,-262.61 1554.4,-249.74 1574.85,-242 1684.41,-200.51 1998.13,-262.36 2100.85,-206 2130.35,-189.81 2149.14,-151.87 2156.42,-134.7"/>
<polygon fill="#63b8ff" stroke="#63b8ff" points="1416.84,-303.8 1407.59,-308.97 1418.04,-310.7 1416.84,-303.8"/>
</a>
</g>
</g>
<!-- Node16 -->
<g id="Node000016" class="node">
<title>Node16</title>
<g id="a_Node000016"><a xlink:href="render__objects_8c.html" target="_top" xlink:title=" ">
<polygon fill="white" stroke="#666666" points="885.85,-134.5 771.85,-134.5 771.85,-115.5 885.85,-115.5 885.85,-134.5"/>
<text text-anchor="middle" x="828.85" y="-122.5" font-family="Helvetica,sans-Serif" font-size="10.00">src/render_objects.c</text>
</a>
</g>
</g>
<!-- Node1&#45;&gt;Node16 -->
<g id="edge31_Node000001_Node000016" class="edge">
<title>Node1&#45;&gt;Node16</title>
<g id="a_edge31_Node000001_Node000016"><a xlink:title=" ">
<path fill="none" stroke="#63b8ff" d="M1336.98,-299.57C1316.26,-268.91 1267.86,-204.68 1208.85,-176 1082.51,-114.59 1033.49,-162.6 894.85,-140 885.48,-138.47 875.44,-136.51 866.08,-134.54"/>
<polygon fill="#63b8ff" stroke="#63b8ff" points="1334.08,-301.52 1342.51,-307.94 1339.92,-297.66 1334.08,-301.52"/>
</a>
</g>
</g>
<!-- Node18 -->
<g id="Node000018" class="node">
<title>Node18</title>
<g id="a_Node000018"><a xlink:href="rainbow__road_2course__data_8c.html" target="_top" xlink:title=" ">
<polygon fill="white" stroke="#666666" points="1706.35,-272 1583.35,-272 1583.35,-242 1706.35,-242 1706.35,-272"/>
<text text-anchor="start" x="1591.35" y="-260" font-family="Helvetica,sans-Serif" font-size="10.00">courses/rainbow_road</text>
<text text-anchor="middle" x="1644.85" y="-249" font-family="Helvetica,sans-Serif" font-size="10.00">/course_data.c</text>
</a>
</g>
</g>
<!-- Node1&#45;&gt;Node18 -->
<g id="edge19_Node000001_Node000018" class="edge">
<title>Node1&#45;&gt;Node18</title>
<g id="a_edge19_Node000001_Node000018"><a xlink:title=" ">
<path fill="none" stroke="#63b8ff" d="M1400.9,-306.05C1452.05,-295.97 1529.42,-280.73 1583.27,-270.13"/>
<polygon fill="#63b8ff" stroke="#63b8ff" points="1400.17,-302.63 1391.03,-307.99 1401.52,-309.49 1400.17,-302.63"/>
</a>
</g>
</g>
<!-- Node19 -->
<g id="Node000019" class="node">
<title>Node19</title>
<g id="a_Node000019"><a xlink:href="rainbow__road_2course__data_8h.html" target="_top" xlink:title=" ">
<polygon fill="white" stroke="#666666" points="924.35,-272 801.35,-272 801.35,-242 924.35,-242 924.35,-272"/>
<text text-anchor="start" x="809.35" y="-260" font-family="Helvetica,sans-Serif" font-size="10.00">courses/rainbow_road</text>
<text text-anchor="middle" x="862.85" y="-249" font-family="Helvetica,sans-Serif" font-size="10.00">/course_data.h</text>
</a>
</g>
</g>
<!-- Node1&#45;&gt;Node19 -->
<g id="edge20_Node000001_Node000019" class="edge">
<title>Node1&#45;&gt;Node19</title>
<g id="a_edge20_Node000001_Node000019"><a xlink:title=" ">
<path fill="none" stroke="#63b8ff" d="M1278.15,-310.97C1195.5,-303.96 1053.69,-290.52 932.85,-272 930.15,-271.59 927.4,-271.14 924.63,-270.67"/>
<polygon fill="#63b8ff" stroke="#63b8ff" points="1277.92,-314.46 1288.18,-311.81 1278.51,-307.49 1277.92,-314.46"/>
</a>
</g>
</g>
<!-- Node20 -->
<g id="Node000020" class="node">
<title>Node20</title>
<g id="a_Node000020"><a xlink:href="sherbet__land_2course__data_8c.html" target="_top" xlink:title=" ">
<polygon fill="white" stroke="#666666" points="1844.85,-272 1724.85,-272 1724.85,-242 1844.85,-242 1844.85,-272"/>
<text text-anchor="start" x="1732.85" y="-260" font-family="Helvetica,sans-Serif" font-size="10.00">courses/sherbet_land</text>
<text text-anchor="middle" x="1784.85" y="-249" font-family="Helvetica,sans-Serif" font-size="10.00">/course_data.c</text>
</a>
</g>
</g>
<!-- Node1&#45;&gt;Node20 -->
<g id="edge22_Node000001_Node000020" class="edge">
<title>Node1&#45;&gt;Node20</title>
<g id="a_edge22_Node000001_Node000020"><a xlink:title=" ">
<path fill="none" stroke="#63b8ff" d="M1417.8,-309.72C1492.01,-302.14 1612.55,-288.7 1715.85,-272 1718.74,-271.53 1721.7,-271.03 1724.69,-270.5"/>
<polygon fill="#63b8ff" stroke="#63b8ff" points="1417.24,-306.26 1407.65,-310.75 1417.95,-313.22 1417.24,-306.26"/>
</a>
</g>
</g>
<!-- Node21 -->
<g id="Node000021" class="node">
<title>Node21</title>
<g id="a_Node000021"><a xlink:href="sherbet__land_2course__data_8h.html" target="_top" xlink:title=" ">
<polygon fill="white" stroke="#666666" points="1199.85,-272 1079.85,-272 1079.85,-242 1199.85,-242 1199.85,-272"/>
<text text-anchor="start" x="1087.85" y="-260" font-family="Helvetica,sans-Serif" font-size="10.00">courses/sherbet_land</text>
<text text-anchor="middle" x="1139.85" y="-249" font-family="Helvetica,sans-Serif" font-size="10.00">/course_data.h</text>
</a>
</g>
</g>
<!-- Node1&#45;&gt;Node21 -->
<g id="edge23_Node000001_Node000021" class="edge">
<title>Node1&#45;&gt;Node21</title>
<g id="a_edge23_Node000001_Node000021"><a xlink:title=" ">
<path fill="none" stroke="#63b8ff" d="M1307.67,-305.2C1274.06,-295.75 1225.95,-282.22 1189.85,-272.06"/>
<polygon fill="#63b8ff" stroke="#63b8ff" points="1307.03,-308.66 1317.6,-307.99 1308.92,-301.92 1307.03,-308.66"/>
</a>
</g>
</g>
<!-- Node23 -->
<g id="Node000023" class="node">
<title>Node23</title>
<g id="a_Node000023"><a xlink:href="yoshi__valley_2course__data_8c.html" target="_top" xlink:title=" ">
<polygon fill="white" stroke="#666666" points="1982.35,-272 1863.35,-272 1863.35,-242 1982.35,-242 1982.35,-272"/>
<text text-anchor="start" x="1871.35" y="-260" font-family="Helvetica,sans-Serif" font-size="10.00">courses/yoshi_valley</text>
<text text-anchor="middle" x="1922.85" y="-249" font-family="Helvetica,sans-Serif" font-size="10.00">/course_data.c</text>
</a>
</g>
</g>
<!-- Node1&#45;&gt;Node23 -->
<g id="edge26_Node000001_Node000023" class="edge">
<title>Node1&#45;&gt;Node23</title>
<g id="a_edge26_Node000001_Node000023"><a xlink:title=" ">
<path fill="none" stroke="#63b8ff" d="M1417.75,-312.84C1515.65,-307.16 1698.96,-294.45 1853.85,-272 1856.87,-271.56 1859.96,-271.08 1863.08,-270.55"/>
<polygon fill="#63b8ff" stroke="#63b8ff" points="1417.47,-309.36 1407.69,-313.42 1417.87,-316.34 1417.47,-309.36"/>
</a>
</g>
</g>
<!-- Node24 -->
<g id="Node000024" class="node">
<title>Node24</title>
<g id="a_Node000024"><a xlink:href="yoshi__valley_2course__data_8h.html" target="_top" xlink:title=" ">
<polygon fill="white" stroke="#666666" points="1061.35,-272 942.35,-272 942.35,-242 1061.35,-242 1061.35,-272"/>
<text text-anchor="start" x="950.35" y="-260" font-family="Helvetica,sans-Serif" font-size="10.00">courses/yoshi_valley</text>
<text text-anchor="middle" x="1001.85" y="-249" font-family="Helvetica,sans-Serif" font-size="10.00">/course_data.h</text>
</a>
</g>
</g>
<!-- Node1&#45;&gt;Node24 -->
<g id="edge27_Node000001_Node000024" class="edge">
<title>Node1&#45;&gt;Node24</title>
<g id="a_edge27_Node000001_Node000024"><a xlink:title=" ">
<path fill="none" stroke="#63b8ff" d="M1280.26,-306.43C1224.09,-297.88 1142.13,-284.95 1070.85,-272 1067.84,-271.45 1064.76,-270.88 1061.66,-270.29"/>
<polygon fill="#63b8ff" stroke="#63b8ff" points="1280.02,-309.94 1290.43,-307.98 1281.07,-303.02 1280.02,-309.94"/>
</a>
</g>
</g>
<!-- Node25 -->
<g id="Node000025" class="node">
<title>Node25</title>
<g id="a_Node000025"><a xlink:href="code__80004740_8c.html" target="_top" xlink:title=" ">
<polygon fill="white" stroke="#666666" points="2119.35,-266.5 2000.35,-266.5 2000.35,-247.5 2119.35,-247.5 2119.35,-266.5"/>
<text text-anchor="middle" x="2059.85" y="-254.5" font-family="Helvetica,sans-Serif" font-size="10.00">src/code_80004740.c</text>
</a>
</g>
</g>
<!-- Node1&#45;&gt;Node25 -->
<g id="edge29_Node000001_Node000025" class="edge">
<title>Node1&#45;&gt;Node25</title>
<g id="a_edge29_Node000001_Node000025"><a xlink:title=" ">
<path fill="none" stroke="#63b8ff" d="M1417.64,-314.74C1536.16,-311.07 1784.15,-300.43 1991.85,-272 2002,-270.61 2012.9,-268.6 2022.95,-266.54"/>
<polygon fill="#63b8ff" stroke="#63b8ff" points="1417.5,-311.24 1407.61,-315.04 1417.71,-318.24 1417.5,-311.24"/>
</a>
</g>
</g>
<!-- Node26 -->
<g id="Node000026" class="node">
<title>Node26</title>
<g id="a_Node000026"><a xlink:href="update__objects_8h.html" target="_top" xlink:title=" ">
<polygon fill="white" stroke="#666666" points="1526.35,-266.5 1409.35,-266.5 1409.35,-247.5 1526.35,-247.5 1526.35,-266.5"/>
<text text-anchor="middle" x="1467.85" y="-254.5" font-family="Helvetica,sans-Serif" font-size="10.00">src/update_objects.h</text>
</a>
</g>
</g>
<!-- Node1&#45;&gt;Node26 -->
<g id="edge32_Node000001_Node000026" class="edge">
<title>Node1&#45;&gt;Node26</title>
<g id="a_edge32_Node000001_Node000026"><a xlink:title=" ">
<path fill="none" stroke="#63b8ff" d="M1374.55,-303.48C1397.68,-292.21 1430.46,-276.23 1450.38,-266.52"/>
<polygon fill="#63b8ff" stroke="#63b8ff" points="1372.75,-300.47 1365.3,-307.99 1375.82,-306.76 1372.75,-300.47"/>
</a>
</g>
</g>
<!-- Node4 -->
<g id="Node000004" class="node">
<title>Node4</title>
<g id="a_Node000004"><a xlink:href="all__course__data_8h.html" target="_top" xlink:title=" ">
<polygon fill="white" stroke="#666666" points="882.35,-206 775.35,-206 775.35,-176 882.35,-176 882.35,-206"/>
<text text-anchor="start" x="783.35" y="-194" font-family="Helvetica,sans-Serif" font-size="10.00">courses/all_course</text>
<text text-anchor="middle" x="828.85" y="-183" font-family="Helvetica,sans-Serif" font-size="10.00">_data.h</text>
</a>
</g>
</g>
<!-- Node3&#45;&gt;Node4 -->
<g id="edge3_Node000003_Node000004" class="edge">
<title>Node3&#45;&gt;Node4</title>
<g id="a_edge3_Node000003_Node000004"><a xlink:title=" ">
<path fill="none" stroke="#63b8ff" d="M754.12,-236.69C770.64,-226.82 790.38,-215.01 805.42,-206.01"/>
<polygon fill="#63b8ff" stroke="#63b8ff" points="752.11,-233.82 745.33,-241.95 755.71,-239.83 752.11,-233.82"/>
</a>
</g>
</g>
<!-- Node5 -->
<g id="Node000005" class="node">
<title>Node5</title>
<g id="a_Node000005"><a xlink:href="paddle__boat_2render_8inc_8c.html" target="_top" xlink:title=" ">
<polygon fill="white" stroke="#666666" points="145.35,-140 18.35,-140 18.35,-110 145.35,-110 145.35,-140"/>
<text text-anchor="start" x="26.35" y="-128" font-family="Helvetica,sans-Serif" font-size="10.00">src/actors/paddle_boat</text>
<text text-anchor="middle" x="81.85" y="-117" font-family="Helvetica,sans-Serif" font-size="10.00">/render.inc.c</text>
</a>
</g>
</g>
<!-- Node4&#45;&gt;Node5 -->
<g id="edge4_Node000004_Node000005" class="edge">
<title>Node4&#45;&gt;Node5</title>
<g id="a_edge4_Node000004_Node000005"><a xlink:title=" ">
<path fill="none" stroke="#63b8ff" d="M765.13,-187.79C645.09,-183.07 377.36,-169.9 153.85,-140 151.07,-139.63 148.24,-139.22 145.38,-138.78"/>
<polygon fill="#63b8ff" stroke="#63b8ff" points="765.12,-191.29 775.25,-188.18 765.39,-184.3 765.12,-191.29"/>
</a>
</g>
</g>
<!-- Node6 -->
<g id="Node000006" class="node">
<title>Node6</title>
<g id="a_Node000006"><a xlink:href="actors_8c.html" target="_top" xlink:title=" ">
<polygon fill="white" stroke="#666666" points="213.35,-74 108.35,-74 108.35,-55 213.35,-55 213.35,-74"/>
<text text-anchor="middle" x="160.85" y="-62" font-family="Helvetica,sans-Serif" font-size="10.00">src/racing/actors.c</text>
</a>
</g>
</g>
<!-- Node4&#45;&gt;Node6 -->
<g id="edge15_Node000004_Node000006" class="edge">
<title>Node4&#45;&gt;Node6</title>
<g id="a_edge15_Node000004_Node000006"><a xlink:title=" ">
<path fill="none" stroke="#63b8ff" d="M765.1,-188.47C576.82,-183.65 34.67,-167.44 8.85,-140 -25.19,-103.83 51.96,-82.95 108.32,-72.93"/>
<polygon fill="#63b8ff" stroke="#63b8ff" points="765.04,-191.97 775.13,-188.73 765.22,-184.97 765.04,-191.97"/>
</a>
</g>
</g>
<!-- Node7 -->
<g id="Node000007" class="node">
<title>Node7</title>
<g id="a_Node000007"><a xlink:href="trees_2render_8inc_8c.html" target="_top" xlink:title=" ">
<polygon fill="white" stroke="#666666" points="314.35,-134.5 163.35,-134.5 163.35,-115.5 314.35,-115.5 314.35,-134.5"/>
<text text-anchor="middle" x="238.85" y="-122.5" font-family="Helvetica,sans-Serif" font-size="10.00">src/actors/trees/render.inc.c</text>
</a>
</g>
</g>
<!-- Node4&#45;&gt;Node7 -->
<g id="edge6_Node000004_Node000007" class="edge">
<title>Node4&#45;&gt;Node7</title>
<g id="a_edge6_Node000004_Node000007"><a xlink:title=" ">
<path fill="none" stroke="#63b8ff" d="M765.03,-185.07C668.91,-177.33 481.37,-161.02 322.85,-140 311.12,-138.45 298.52,-136.5 286.74,-134.55"/>
<polygon fill="#63b8ff" stroke="#63b8ff" points="764.91,-188.57 775.16,-185.88 765.47,-181.59 764.91,-188.57"/>
</a>
</g>
</g>
<!-- Node8 -->
<g id="Node000008" class="node">
<title>Node8</title>
<g id="a_Node000008"><a xlink:href="code__800029B0_8c.html" target="_top" xlink:title=" ">
<polygon fill="white" stroke="#666666" points="1295.35,-134.5 1176.35,-134.5 1176.35,-115.5 1295.35,-115.5 1295.35,-134.5"/>
<text text-anchor="middle" x="1235.85" y="-122.5" font-family="Helvetica,sans-Serif" font-size="10.00">src/code_800029B0.c</text>
</a>
</g>
</g>
<!-- Node4&#45;&gt;Node8 -->
<g id="edge8_Node000004_Node000008" class="edge">
<title>Node4&#45;&gt;Node8</title>
<g id="a_edge8_Node000004_Node000008"><a xlink:title=" ">
<path fill="none" stroke="#63b8ff" d="M892.69,-181.59C960.77,-172.38 1071.67,-156.68 1166.85,-140 1176.24,-138.35 1186.31,-136.41 1195.78,-134.51"/>
<polygon fill="#63b8ff" stroke="#63b8ff" points="892,-178.15 882.55,-182.96 892.93,-185.09 892,-178.15"/>
</a>
</g>
</g>
<!-- Node9 -->
<g id="Node000009" class="node">
<title>Node9</title>
<g id="a_Node000009"><a xlink:href="code__80005FD0_8c.html" target="_top" xlink:title=" ">
<polygon fill="white" stroke="#666666" points="753.85,-134.5 633.85,-134.5 633.85,-115.5 753.85,-115.5 753.85,-134.5"/>
<text text-anchor="middle" x="693.85" y="-122.5" font-family="Helvetica,sans-Serif" font-size="10.00">src/code_80005FD0.c</text>
</a>
</g>
</g>
<!-- Node4&#45;&gt;Node9 -->
<g id="edge9_Node000004_Node000009" class="edge">
<title>Node4&#45;&gt;Node9</title>
<g id="a_edge9_Node000004_Node000009"><a xlink:title=" ">
<path fill="none" stroke="#63b8ff" d="M790.08,-171.62C764.31,-159.41 731.69,-143.94 711.81,-134.52"/>
<polygon fill="#63b8ff" stroke="#63b8ff" points="788.68,-174.83 799.22,-175.95 791.68,-168.51 788.68,-174.83"/>
</a>
</g>
</g>
<!-- Node10 -->
<g id="Node000010" class="node">
<title>Node10</title>
<g id="a_Node000010"><a xlink:href="code__8006E9C0_8c.html" target="_top" xlink:title=" ">
<polygon fill="white" stroke="#666666" points="1023.35,-134.5 904.35,-134.5 904.35,-115.5 1023.35,-115.5 1023.35,-134.5"/>
<text text-anchor="middle" x="963.85" y="-122.5" font-family="Helvetica,sans-Serif" font-size="10.00">src/code_8006E9C0.c</text>
</a>
</g>
</g>
<!-- Node4&#45;&gt;Node10 -->
<g id="edge10_Node000004_Node000010" class="edge">
<title>Node4&#45;&gt;Node10</title>
<g id="a_edge10_Node000004_Node000010"><a xlink:title=" ">
<path fill="none" stroke="#63b8ff" d="M867.62,-171.62C893.38,-159.41 926,-143.94 945.88,-134.52"/>
<polygon fill="#63b8ff" stroke="#63b8ff" points="866.01,-168.51 858.47,-175.95 869.01,-174.83 866.01,-168.51"/>
</a>
</g>
</g>
<!-- Node11 -->
<g id="Node000011" class="node">
<title>Node11</title>
<g id="a_Node000011"><a xlink:href="path__spawn__data_8c.html" target="_top" xlink:title=" ">
<polygon fill="white" stroke="#666666" points="449.35,-140 332.35,-140 332.35,-110 449.35,-110 449.35,-140"/>
<text text-anchor="start" x="340.35" y="-128" font-family="Helvetica,sans-Serif" font-size="10.00">src/data/path_spawn</text>
<text text-anchor="middle" x="390.85" y="-117" font-family="Helvetica,sans-Serif" font-size="10.00">_data.c</text>
</a>
</g>
</g>
<!-- Node4&#45;&gt;Node11 -->
<g id="edge11_Node000004_Node000011" class="edge">
<title>Node4&#45;&gt;Node11</title>
<g id="a_edge11_Node000004_Node000011"><a xlink:title=" ">
<path fill="none" stroke="#63b8ff" d="M765.11,-182.83C691.03,-174.16 565.21,-158.43 457.85,-140 455.15,-139.54 452.4,-139.05 449.63,-138.53"/>
<polygon fill="#63b8ff" stroke="#63b8ff" points="764.87,-186.32 775.21,-184 765.68,-179.37 764.87,-186.32"/>
</a>
</g>
</g>
<!-- Node4&#45;&gt;Node12 -->
<g id="edge12_Node000004_Node000012" class="edge">
<title>Node4&#45;&gt;Node12</title>
<g id="a_edge12_Node000004_Node000012"><a xlink:title=" ">
<path fill="none" stroke="#63b8ff" d="M892.75,-185.94C941.53,-182.93 1010.41,-178.87 1070.85,-176 1503.1,-155.5 1612.44,-173.95 2043.85,-140 2061.24,-138.63 2080.04,-136.6 2097.33,-134.51"/>
<polygon fill="#63b8ff" stroke="#63b8ff" points="892.42,-182.45 882.65,-186.57 892.85,-189.44 892.42,-182.45"/>
</a>
</g>
</g>
<!-- Node15 -->
<g id="Node000015" class="node">
<title>Node15</title>
<g id="a_Node000015"><a xlink:href="render__courses_8c.html" target="_top" xlink:title=" ">
<polygon fill="white" stroke="#666666" points="616.35,-134.5 467.35,-134.5 467.35,-115.5 616.35,-115.5 616.35,-134.5"/>
<text text-anchor="middle" x="541.85" y="-122.5" font-family="Helvetica,sans-Serif" font-size="10.00">src/racing/render_courses.c</text>
</a>
</g>
</g>
<!-- Node4&#45;&gt;Node15 -->
<g id="edge16_Node000004_Node000015" class="edge">
<title>Node4&#45;&gt;Node15</title>
<g id="a_edge16_Node000004_Node000015"><a xlink:title=" ">
<path fill="none" stroke="#63b8ff" d="M765.26,-175.82C708.55,-163.17 627.38,-145.07 580.09,-134.53"/>
<polygon fill="#63b8ff" stroke="#63b8ff" points="764.68,-179.28 775.2,-178.04 766.2,-172.44 764.68,-179.28"/>
</a>
</g>
</g>
<!-- Node4&#45;&gt;Node16 -->
<g id="edge17_Node000004_Node000016" class="edge">
<title>Node4&#45;&gt;Node16</title>
<g id="a_edge17_Node000004_Node000016"><a xlink:title=" ">
<path fill="none" stroke="#63b8ff" d="M828.85,-165.6C828.85,-154.8 828.85,-142.78 828.85,-134.84"/>
<polygon fill="#63b8ff" stroke="#63b8ff" points="825.35,-165.8 828.85,-175.8 832.35,-165.8 825.35,-165.8"/>
</a>
</g>
</g>
<!-- Node17 -->
<g id="Node000017" class="node">
<title>Node17</title>
<g id="a_Node000017"><a xlink:href="update__objects_8c.html" target="_top" xlink:title=" ">
<polygon fill="white" stroke="#666666" points="1157.85,-134.5 1041.85,-134.5 1041.85,-115.5 1157.85,-115.5 1157.85,-134.5"/>
<text text-anchor="middle" x="1099.85" y="-122.5" font-family="Helvetica,sans-Serif" font-size="10.00">src/update_objects.c</text>
</a>
</g>
</g>
<!-- Node4&#45;&gt;Node17 -->
<g id="edge18_Node000004_Node000017" class="edge">
<title>Node4&#45;&gt;Node17</title>
<g id="a_edge18_Node000004_Node000017"><a xlink:title=" ">
<path fill="none" stroke="#63b8ff" d="M892.43,-174.98C945.77,-162.39 1020.05,-144.84 1063.73,-134.53"/>
<polygon fill="#63b8ff" stroke="#63b8ff" points="891.32,-171.65 882.39,-177.36 892.92,-178.46 891.32,-171.65"/>
</a>
</g>
</g>
<!-- Node5&#45;&gt;Node6 -->
<g id="edge5_Node000005_Node000006" class="edge">
<title>Node5&#45;&gt;Node6</title>
<g id="a_edge5_Node000005_Node000006"><a xlink:title=" ">
<path fill="none" stroke="#63b8ff" d="M109.1,-103.82C122.72,-93.73 138.49,-82.05 149.01,-74.27"/>
<polygon fill="#63b8ff" stroke="#63b8ff" points="106.92,-101.07 100.97,-109.84 111.09,-106.7 106.92,-101.07"/>
</a>
</g>
</g>
<!-- Node7&#45;&gt;Node6 -->
<g id="edge7_Node000007_Node000006" class="edge">
<title>Node7&#45;&gt;Node6</title>
<g id="a_edge7_Node000007_Node000006"><a xlink:title=" ">
<path fill="none" stroke="#63b8ff" d="M219.31,-109.35C204.54,-98.27 184.75,-83.43 172.4,-74.17"/>
<polygon fill="#63b8ff" stroke="#63b8ff" points="217.24,-112.17 227.34,-115.37 221.44,-106.57 217.24,-112.17"/>
</a>
</g>
</g>
<!-- Node13 -->
<g id="Node000013" class="node">
<title>Node13</title>
<g id="a_Node000013"><a xlink:href="debug_8inc_8c.html" target="_top" xlink:title=" ">
<polygon fill="white" stroke="#666666" points="2220.85,-74 2098.85,-74 2098.85,-55 2220.85,-55 2220.85,-74"/>
<text text-anchor="middle" x="2159.85" y="-62" font-family="Helvetica,sans-Serif" font-size="10.00">src/debug/debug.inc.c</text>
</a>
</g>
</g>
<!-- Node12&#45;&gt;Node13 -->
<g id="edge13_Node000012_Node000013" class="edge">
<title>Node12&#45;&gt;Node13</title>
<g id="a_edge13_Node000012_Node000013"><a xlink:title=" ">
<path fill="none" stroke="#63b8ff" d="M2159.85,-105.16C2159.85,-94.74 2159.85,-82.3 2159.85,-74.17"/>
<polygon fill="#63b8ff" stroke="#63b8ff" points="2156.35,-105.37 2159.85,-115.37 2163.35,-105.37 2156.35,-105.37"/>
</a>
</g>
</g>
<!-- Node14 -->
<g id="Node000014" class="node">
<title>Node14</title>
<g id="a_Node000014"><a xlink:href="debug_8c.html" target="_top" xlink:title=" ">
<polygon fill="white" stroke="#666666" points="2212.35,-19 2107.35,-19 2107.35,0 2212.35,0 2212.35,-19"/>
<text text-anchor="middle" x="2159.85" y="-7" font-family="Helvetica,sans-Serif" font-size="10.00">src/debug/debug.c</text>
</a>
</g>
</g>
<!-- Node13&#45;&gt;Node14 -->
<g id="edge14_Node000013_Node000014" class="edge">
<title>Node13&#45;&gt;Node14</title>
<g id="a_edge14_Node000013_Node000014"><a xlink:title=" ">
<path fill="none" stroke="#63b8ff" d="M2159.85,-44.66C2159.85,-35.93 2159.85,-25.99 2159.85,-19.09"/>
<polygon fill="#63b8ff" stroke="#63b8ff" points="2156.35,-44.75 2159.85,-54.75 2163.35,-44.75 2156.35,-44.75"/>
</a>
</g>
</g>
<!-- Node19&#45;&gt;Node4 -->
<g id="edge21_Node000019_Node000004" class="edge">
<title>Node19&#45;&gt;Node4</title>
<g id="a_edge21_Node000019_Node000004"><a xlink:title=" ">
<path fill="none" stroke="#63b8ff" d="M850.61,-232.96C845.85,-224 840.55,-214.03 836.37,-206.16"/>
<polygon fill="#63b8ff" stroke="#63b8ff" points="847.52,-234.61 855.3,-241.8 853.7,-231.32 847.52,-234.61"/>
</a>
</g>
</g>
<!-- Node21&#45;&gt;Node4 -->
<g id="edge24_Node000021_Node000004" class="edge">
<title>Node21&#45;&gt;Node4</title>
<g id="a_edge24_Node000021_Node000004"><a xlink:title=" ">
<path fill="none" stroke="#63b8ff" d="M1069.55,-241.53C1012.84,-229.86 934.26,-213.69 882.52,-203.05"/>
<polygon fill="#63b8ff" stroke="#63b8ff" points="1069.01,-245 1079.51,-243.58 1070.42,-238.14 1069.01,-245"/>
</a>
</g>
</g>
<!-- Node22 -->
<g id="Node000022" class="node">
<title>Node22</title>
<g id="a_Node000022"><a xlink:href="sherbet__land_2course__offsets_8c.html" target="_top" xlink:title=" ">
<polygon fill="white" stroke="#666666" points="1199.85,-206 1079.85,-206 1079.85,-176 1199.85,-176 1199.85,-206"/>
<text text-anchor="start" x="1087.85" y="-194" font-family="Helvetica,sans-Serif" font-size="10.00">courses/sherbet_land</text>
<text text-anchor="middle" x="1139.85" y="-183" font-family="Helvetica,sans-Serif" font-size="10.00">/course_offsets.c</text>
</a>
</g>
</g>
<!-- Node21&#45;&gt;Node22 -->
<g id="edge25_Node000021_Node000022" class="edge">
<title>Node21&#45;&gt;Node22</title>
<g id="a_edge25_Node000021_Node000022"><a xlink:title=" ">
<path fill="none" stroke="#63b8ff" d="M1139.85,-231.54C1139.85,-222.96 1139.85,-213.61 1139.85,-206.16"/>
<polygon fill="#63b8ff" stroke="#63b8ff" points="1136.35,-231.8 1139.85,-241.8 1143.35,-231.8 1136.35,-231.8"/>
</a>
</g>
</g>
<!-- Node24&#45;&gt;Node4 -->
<g id="edge28_Node000024_Node000004" class="edge">
<title>Node24&#45;&gt;Node4</title>
<g id="a_edge28_Node000024_Node000004"><a xlink:title=" ">
<path fill="none" stroke="#63b8ff" d="M954.42,-238.46C926.83,-228.25 892.51,-215.55 866.72,-206.01"/>
<polygon fill="#63b8ff" stroke="#63b8ff" points="953.29,-241.77 963.88,-241.95 955.72,-235.2 953.29,-241.77"/>
</a>
</g>
</g>
<!-- Node26&#45;&gt;Node6 -->
<g id="edge49_Node000026_Node000006" class="edge">
<title>Node26&#45;&gt;Node6</title>
<g id="a_edge49_Node000026_Node000006"><a xlink:title=" ">
<path fill="none" stroke="#63b8ff" d="M1498.21,-243.35C1519.61,-234.01 1548.64,-220.45 1572.85,-206 1592.24,-194.43 1592.7,-183.9 1613.85,-176 1794.96,-108.32 2178.94,-248.32 2043.85,-110 2010.99,-76.35 515.61,-67.24 213.66,-65.74"/>
<polygon fill="#63b8ff" stroke="#63b8ff" points="1496.76,-240.16 1488.96,-247.34 1499.53,-246.59 1496.76,-240.16"/>
</a>
</g>
</g>
<!-- Node26&#45;&gt;Node9 -->
<g id="edge33_Node000026_Node000009" class="edge">
<title>Node26&#45;&gt;Node9</title>
<g id="a_edge33_Node000026_Node000009"><a xlink:title=" ">
<path fill="none" stroke="#63b8ff" d="M1419.71,-245.16C1381.4,-236.07 1326.63,-222.02 1279.85,-206 1247.44,-194.9 1242.12,-184.15 1208.85,-176 1015.69,-128.7 959.76,-167.82 762.85,-140 752.68,-138.56 741.76,-136.56 731.67,-134.52"/>
<polygon fill="#63b8ff" stroke="#63b8ff" points="1419.03,-248.6 1429.57,-247.48 1420.64,-241.79 1419.03,-248.6"/>
</a>
</g>
</g>
<!-- Node26&#45;&gt;Node10 -->
<g id="edge35_Node000026_Node000010" class="edge">
<title>Node26&#45;&gt;Node10</title>
<g id="a_edge35_Node000026_Node000010"><a xlink:title=" ">
<path fill="none" stroke="#63b8ff" d="M1434.67,-243.72C1411.79,-234.65 1381.08,-221.27 1355.85,-206 1337.44,-194.86 1337.69,-184.32 1317.85,-176 1200.1,-126.64 1158.83,-160.71 1032.85,-140 1023.2,-138.41 1012.84,-136.45 1003.16,-134.5"/>
<polygon fill="#63b8ff" stroke="#63b8ff" points="1433.68,-247.09 1444.27,-247.45 1436.22,-240.56 1433.68,-247.09"/>
</a>
</g>
</g>
<!-- Node26&#45;&gt;Node12 -->
<g id="edge48_Node000026_Node000012" class="edge">
<title>Node26&#45;&gt;Node12</title>
<g id="a_edge48_Node000026_Node000012"><a xlink:title=" ">
<path fill="none" stroke="#63b8ff" d="M1517.55,-245.63C1525.32,-244.25 1533.28,-242.98 1540.85,-242 1657.48,-226.9 1960.28,-251.21 2068.85,-206 2088.27,-197.91 2132.88,-153.63 2151.48,-134.65"/>
<polygon fill="#63b8ff" stroke="#63b8ff" points="1516.68,-242.23 1507.49,-247.49 1517.96,-249.12 1516.68,-242.23"/>
</a>
</g>
</g>
<!-- Node26&#45;&gt;Node16 -->
<g id="edge52_Node000026_Node000016" class="edge">
<title>Node26&#45;&gt;Node16</title>
<g id="a_edge52_Node000026_Node000016"><a xlink:title=" ">
<path fill="none" stroke="#63b8ff" d="M1420.69,-244.8C1390.25,-236.5 1350.4,-223.57 1317.85,-206 1298.91,-195.78 1299.82,-184 1279.85,-176 1120.3,-112.13 1064.75,-165.87 894.85,-140 885.24,-138.54 874.92,-136.55 865.36,-134.53"/>
<polygon fill="#63b8ff" stroke="#63b8ff" points="1420.06,-248.26 1430.63,-247.44 1421.86,-241.49 1420.06,-248.26"/>
</a>
</g>
</g>
<!-- Node26&#45;&gt;Node17 -->
<g id="edge53_Node000026_Node000017" class="edge">
<title>Node26&#45;&gt;Node17</title>
<g id="a_edge53_Node000026_Node000017"><a xlink:title=" ">
<path fill="none" stroke="#63b8ff" d="M1447.65,-241.41C1416.09,-218.63 1358.39,-177.09 1355.85,-176 1277.65,-142.5 1251.29,-156.58 1167.85,-140 1159.1,-138.26 1149.73,-136.36 1140.82,-134.53"/>
<polygon fill="#63b8ff" stroke="#63b8ff" points="1445.63,-244.27 1455.79,-247.29 1449.73,-238.59 1445.63,-244.27"/>
</a>
</g>
</g>
<!-- Node27 -->
<g id="Node000027" class="node">
<title>Node27</title>
<g id="a_Node000027"><a xlink:href="code__80057C60_8c.html" target="_top" xlink:title=" ">
<polygon fill="white" stroke="#666666" points="2034.35,-134.5 1915.35,-134.5 1915.35,-115.5 2034.35,-115.5 2034.35,-134.5"/>
<text text-anchor="middle" x="1974.85" y="-122.5" font-family="Helvetica,sans-Serif" font-size="10.00">src/code_80057C60.c</text>
</a>
</g>
</g>
<!-- Node26&#45;&gt;Node27 -->
<g id="edge34_Node000026_Node000027" class="edge">
<title>Node26&#45;&gt;Node27</title>
<g id="a_edge34_Node000026_Node000027"><a xlink:title=" ">
<path fill="none" stroke="#63b8ff" d="M1488.03,-241.39C1519.58,-218.57 1577.26,-176.99 1579.85,-176 1716.43,-123.82 1762.42,-162.77 1906.85,-140 1916.49,-138.48 1926.84,-136.52 1936.48,-134.55"/>
<polygon fill="#63b8ff" stroke="#63b8ff" points="1485.95,-238.57 1479.9,-247.27 1490.05,-244.25 1485.95,-238.57"/>
</a>
</g>
</g>
<!-- Node28 -->
<g id="Node000028" class="node">
<title>Node28</title>
<g id="a_Node000028"><a xlink:href="code__8006E9C0_8h.html" target="_top" xlink:title=" ">
<polygon fill="white" stroke="#666666" points="1527.85,-200.5 1407.85,-200.5 1407.85,-181.5 1527.85,-181.5 1527.85,-200.5"/>
<text text-anchor="middle" x="1467.85" y="-188.5" font-family="Helvetica,sans-Serif" font-size="10.00">src/code_8006E9C0.h</text>
</a>
</g>
</g>
<!-- Node26&#45;&gt;Node28 -->
<g id="edge36_Node000026_Node000028" class="edge">
<title>Node26&#45;&gt;Node28</title>
<g id="a_edge36_Node000026_Node000028"><a xlink:title=" ">
<path fill="none" stroke="#63b8ff" d="M1467.85,-237.08C1467.85,-225.13 1467.85,-210.22 1467.85,-200.91"/>
<polygon fill="#63b8ff" stroke="#63b8ff" points="1464.35,-237.37 1467.85,-247.37 1471.35,-237.37 1464.35,-237.37"/>
</a>
</g>
</g>
<!-- Node33 -->
<g id="Node000033" class="node">
<title>Node33</title>
<g id="a_Node000033"><a xlink:href="code__80086E70_8c.html" target="_top" xlink:title=" ">
<polygon fill="white" stroke="#666666" points="1741.35,-200.5 1622.35,-200.5 1622.35,-181.5 1741.35,-181.5 1741.35,-200.5"/>
<text text-anchor="middle" x="1681.85" y="-188.5" font-family="Helvetica,sans-Serif" font-size="10.00">src/code_80086E70.c</text>
</a>
</g>
</g>
<!-- Node26&#45;&gt;Node33 -->
<g id="edge47_Node000026_Node000033" class="edge">
<title>Node26&#45;&gt;Node33</title>
<g id="a_edge47_Node000026_Node000033"><a xlink:title=" ">
<path fill="none" stroke="#63b8ff" d="M1506.35,-244.48C1548.54,-231.87 1615.24,-211.92 1653.1,-200.6"/>
<polygon fill="#63b8ff" stroke="#63b8ff" points="1505.29,-241.15 1496.71,-247.37 1507.29,-247.86 1505.29,-241.15"/>
</a>
</g>
</g>
<!-- Node34 -->
<g id="Node000034" class="node">
<title>Node34</title>
<g id="a_Node000034"><a xlink:href="actors__extended_8c.html" target="_top" xlink:title=" ">
<polygon fill="white" stroke="#666666" points="1915.85,-200.5 1759.85,-200.5 1759.85,-181.5 1915.85,-181.5 1915.85,-200.5"/>
<text text-anchor="middle" x="1837.85" y="-188.5" font-family="Helvetica,sans-Serif" font-size="10.00">src/racing/actors_extended.c</text>
</a>
</g>
</g>
<!-- Node26&#45;&gt;Node34 -->
<g id="edge50_Node000026_Node000034" class="edge">
<title>Node26&#45;&gt;Node34</title>
<g id="a_edge50_Node000026_Node000034"><a xlink:title=" ">
<path fill="none" stroke="#63b8ff" d="M1521.55,-245.56C1528.05,-244.34 1534.6,-243.13 1540.85,-242 1626.14,-226.64 1725.49,-210.21 1784.94,-200.54"/>
<polygon fill="#63b8ff" stroke="#63b8ff" points="1520.61,-242.17 1511.44,-247.47 1521.91,-249.05 1520.61,-242.17"/>
</a>
</g>
</g>
<!-- Node35 -->
<g id="Node000035" class="node">
<title>Node35</title>
<g id="a_Node000035"><a xlink:href="race__logic_8c.html" target="_top" xlink:title=" ">
<polygon fill="white" stroke="#666666" points="2059.35,-200.5 1934.35,-200.5 1934.35,-181.5 2059.35,-181.5 2059.35,-200.5"/>
<text text-anchor="middle" x="1996.85" y="-188.5" font-family="Helvetica,sans-Serif" font-size="10.00">src/racing/race_logic.c</text>
</a>
</g>
</g>
<!-- Node26&#45;&gt;Node35 -->
<g id="edge51_Node000026_Node000035" class="edge">
<title>Node26&#45;&gt;Node35</title>
<g id="a_edge51_Node000026_Node000035"><a xlink:title=" ">
<path fill="none" stroke="#63b8ff" d="M1518.65,-245.61C1526.07,-244.28 1533.64,-243.03 1540.85,-242 1710.55,-217.83 1755.18,-230.39 1924.85,-206 1935.18,-204.51 1946.28,-202.54 1956.6,-200.55"/>
<polygon fill="#63b8ff" stroke="#63b8ff" points="1517.85,-242.2 1508.66,-247.46 1519.13,-249.08 1517.85,-242.2"/>
</a>
</g>
</g>
<!-- Node28&#45;&gt;Node8 -->
<g id="edge37_Node000028_Node000008" class="edge">
<title>Node28&#45;&gt;Node8</title>
<g id="a_edge37_Node000028_Node000008"><a xlink:title=" ">
<path fill="none" stroke="#63b8ff" d="M1426.68,-178.64C1380.97,-166.03 1308.23,-145.97 1267.01,-134.6"/>
<polygon fill="#63b8ff" stroke="#63b8ff" points="1425.99,-182.08 1436.56,-181.37 1427.85,-175.34 1425.99,-182.08"/>
</a>
</g>
</g>
<!-- Node28&#45;&gt;Node10 -->
<g id="edge39_Node000028_Node000010" class="edge">
<title>Node28&#45;&gt;Node10</title>
<g id="a_edge39_Node000028_Node000010"><a xlink:title=" ">
<path fill="none" stroke="#63b8ff" d="M1397.73,-181.09C1383.85,-179.37 1369.39,-177.6 1355.85,-176 1212.4,-159.04 1175.55,-162.38 1032.85,-140 1023.07,-138.47 1012.57,-136.5 1002.78,-134.53"/>
<polygon fill="#63b8ff" stroke="#63b8ff" points="1397.35,-184.57 1407.7,-182.33 1398.21,-177.62 1397.35,-184.57"/>
</a>
</g>
</g>
<!-- Node28&#45;&gt;Node12 -->
<g id="edge41_Node000028_Node000012" class="edge">
<title>Node28&#45;&gt;Node12</title>
<g id="a_edge41_Node000028_Node000012"><a xlink:title=" ">
<path fill="none" stroke="#63b8ff" d="M1537.96,-183.1C1562.01,-180.78 1589.1,-178.22 1613.85,-176 1804.86,-158.85 1853.06,-159.49 2043.85,-140 2059.69,-138.38 2076.72,-136.44 2092.73,-134.52"/>
<polygon fill="#63b8ff" stroke="#63b8ff" points="1537.47,-179.63 1527.85,-184.08 1538.15,-186.6 1537.47,-179.63"/>
</a>
</g>
</g>
<!-- Node28&#45;&gt;Node16 -->
<g id="edge44_Node000028_Node000016" class="edge">
<title>Node28&#45;&gt;Node16</title>
<g id="a_edge44_Node000028_Node000016"><a xlink:title=" ">
<path fill="none" stroke="#63b8ff" d="M1397.47,-183.31C1372.35,-180.96 1343.83,-178.32 1317.85,-176 1129.91,-159.23 1081.49,-167.63 894.85,-140 885.11,-138.56 874.66,-136.56 865.01,-134.52"/>
<polygon fill="#63b8ff" stroke="#63b8ff" points="1397.36,-186.82 1407.64,-184.27 1398.01,-179.85 1397.36,-186.82"/>
</a>
</g>
</g>
<!-- Node28&#45;&gt;Node17 -->
<g id="edge46_Node000028_Node000017" class="edge">
<title>Node28&#45;&gt;Node17</title>
<g id="a_edge46_Node000028_Node000017"><a xlink:title=" ">
<path fill="none" stroke="#63b8ff" d="M1414.15,-179.65C1407.32,-178.39 1400.42,-177.15 1393.85,-176 1293.64,-158.54 1267.9,-158.26 1167.85,-140 1158.72,-138.33 1148.93,-136.4 1139.7,-134.52"/>
<polygon fill="#63b8ff" stroke="#63b8ff" points="1413.59,-183.11 1424.06,-181.5 1414.87,-176.23 1413.59,-183.11"/>
</a>
</g>
</g>
<!-- Node28&#45;&gt;Node27 -->
<g id="edge38_Node000028_Node000027" class="edge">
<title>Node28&#45;&gt;Node27</title>
<g id="a_edge38_Node000028_Node000027"><a xlink:title=" ">
<path fill="none" stroke="#63b8ff" d="M1519.63,-179.6C1527.07,-178.28 1534.64,-177.04 1541.85,-176 1703.2,-152.83 1745.68,-164.47 1906.85,-140 1916.62,-138.52 1927.11,-136.55 1936.85,-134.55"/>
<polygon fill="#63b8ff" stroke="#63b8ff" points="1518.82,-176.19 1509.61,-181.43 1520.08,-183.08 1518.82,-176.19"/>
</a>
</g>
</g>
<!-- Node29 -->
<g id="Node000029" class="node">
<title>Node29</title>
<g id="a_Node000029"><a xlink:href="code__80091750_8c.html" target="_top" xlink:title=" ">
<polygon fill="white" stroke="#666666" points="1897.35,-134.5 1778.35,-134.5 1778.35,-115.5 1897.35,-115.5 1897.35,-134.5"/>
<text text-anchor="middle" x="1837.85" y="-122.5" font-family="Helvetica,sans-Serif" font-size="10.00">src/code_80091750.c</text>
</a>
</g>
</g>
<!-- Node28&#45;&gt;Node29 -->
<g id="edge40_Node000028_Node000029" class="edge">
<title>Node28&#45;&gt;Node29</title>
<g id="a_edge40_Node000028_Node000029"><a xlink:title=" ">
<path fill="none" stroke="#63b8ff" d="M1521.54,-179.64C1528.37,-178.38 1535.27,-177.14 1541.85,-176 1642.93,-158.46 1668.91,-158.35 1769.85,-140 1778.98,-138.34 1788.77,-136.41 1797.99,-134.53"/>
<polygon fill="#63b8ff" stroke="#63b8ff" points="1520.82,-176.22 1511.63,-181.49 1522.1,-183.1 1520.82,-176.22"/>
</a>
</g>
</g>
<!-- Node30 -->
<g id="Node000030" class="node">
<title>Node30</title>
<g id="a_Node000030"><a xlink:href="code__80280000_8c.html" target="_top" xlink:title=" ">
<polygon fill="white" stroke="#666666" points="1468.35,-134.5 1313.35,-134.5 1313.35,-115.5 1468.35,-115.5 1468.35,-134.5"/>
<text text-anchor="middle" x="1390.85" y="-122.5" font-family="Helvetica,sans-Serif" font-size="10.00">src/ending/code_80280000.c</text>
</a>
</g>
</g>
<!-- Node28&#45;&gt;Node30 -->
<g id="edge42_Node000028_Node000030" class="edge">
<title>Node28&#45;&gt;Node30</title>
<g id="a_edge42_Node000028_Node000030"><a xlink:title=" ">
<path fill="none" stroke="#63b8ff" d="M1449.41,-174.68C1434.47,-162.26 1413.92,-145.18 1401.56,-134.91"/>
<polygon fill="#63b8ff" stroke="#63b8ff" points="1447.53,-177.67 1457.46,-181.37 1452.01,-172.28 1447.53,-177.67"/>
</a>
</g>
</g>
<!-- Node31 -->
<g id="Node000031" class="node">
<title>Node31</title>
<g id="a_Node000031"><a xlink:href="code__80281780_8c.html" target="_top" xlink:title=" ">
<polygon fill="white" stroke="#666666" points="1641.35,-134.5 1486.35,-134.5 1486.35,-115.5 1641.35,-115.5 1641.35,-134.5"/>
<text text-anchor="middle" x="1563.85" y="-122.5" font-family="Helvetica,sans-Serif" font-size="10.00">src/ending/code_80281780.c</text>
</a>
</g>
</g>
<!-- Node28&#45;&gt;Node31 -->
<g id="edge43_Node000028_Node000031" class="edge">
<title>Node28&#45;&gt;Node31</title>
<g id="a_edge43_Node000028_Node000031"><a xlink:title=" ">
<path fill="none" stroke="#63b8ff" d="M1489.33,-175.68C1508.19,-163.11 1535.01,-145.23 1550.8,-134.7"/>
<polygon fill="#63b8ff" stroke="#63b8ff" points="1487.17,-172.91 1480.79,-181.37 1491.06,-178.73 1487.17,-172.91"/>
</a>
</g>
</g>
<!-- Node32 -->
<g id="Node000032" class="node">
<title>Node32</title>
<g id="a_Node000032"><a xlink:href="staff__ghosts_8c.html" target="_top" xlink:title=" ">
<polygon fill="white" stroke="#666666" points="1760.35,-134.5 1659.35,-134.5 1659.35,-115.5 1760.35,-115.5 1760.35,-134.5"/>
<text text-anchor="middle" x="1709.85" y="-122.5" font-family="Helvetica,sans-Serif" font-size="10.00">src/staff_ghosts.c</text>
</a>
</g>
</g>
<!-- Node28&#45;&gt;Node32 -->
<g id="edge45_Node000028_Node000032" class="edge">
<title>Node28&#45;&gt;Node32</title>
<g id="a_edge45_Node000028_Node000032"><a xlink:title=" ">
<path fill="none" stroke="#63b8ff" d="M1509.96,-178.86C1557.69,-166.24 1634.46,-145.94 1677.65,-134.51"/>
<polygon fill="#63b8ff" stroke="#63b8ff" points="1509.01,-175.49 1500.23,-181.44 1510.8,-182.26 1509.01,-175.49"/>
</a>
</g>
</g>
</g>
</svg>

<g id="navigator" transform="translate(0 0)" fill="#404254">
  <rect fill="#f2f5e9" fill-opacity="0.5" stroke="#606060" stroke-width=".5" x="0" y="0" width="60" height="60"/>
  <use id="zoomplus" xlink:href="#zoomPlus" x="17" y="9" onmousedown="handleZoom(evt,'in')"/>
  <use id="zoomminus" xlink:href="#zoomMin" x="42" y="9" onmousedown="handleZoom(evt,'out')"/>
  <use id="reset" xlink:href="#resetDef" x="30" y="36" onmousedown="handleReset()"/>
   <use id="arrowup" xlink:href="#arrowUp" x="0" y="0" onmousedown="handlePan(0,-1)"/>
  <use id="arrowright" xlink:href="#arrowRight" x="0" y="0" onmousedown="handlePan(1,0)"/>
  <use id="arrowdown" xlink:href="#arrowDown" x="0" y="0" onmousedown="handlePan(0,1)"/>
  <use id="arrowleft" xlink:href="#arrowLeft" x="0" y="0" onmousedown="handlePan(-1,0)"/>
</g>
<svg viewBox="0 0 15 15" width="100%" height="30px" preserveAspectRatio="xMaxYMin meet">
 <g id="arrow_out" transform="scale(0.3 0.3)">
  <a xlink:href="code__80004740_8h__dep__incl_org.svg" target="_base">
   <rect id="button" ry="5" rx="5" y="6" x="6" height="38" width="38"
        fill="#f2f5e9" fill-opacity="0.5" stroke="#606060" stroke-width="1.0"/>
   <path id="arrow"
     d="M 11.500037,31.436501 C 11.940474,20.09759 22.043105,11.32322 32.158766,21.979434 L 37.068811,17.246167 C 37.068811,17.246167 37.088388,32 37.088388,32 L 22.160133,31.978069 C 22.160133,31.978069 26.997745,27.140456 26.997745,27.140456 C 18.528582,18.264221 13.291696,25.230495 11.500037,31.436501 z"
     style="fill:#404040;"/>
  </a>
 </g>
</svg>

<style type='text/css'>
<![CDATA[
[data-mouse-over-selected='false'] { opacity: 0.7; }
[data-mouse-over-selected='true']  { opacity: 1.0; }
]]>
</style>
<script type="application/ecmascript"><![CDATA[
document.addEventListener('DOMContentLoaded', (event) => {
  highlightEdges();
  highlightAdjacentNodes();
});
]]></script>
</svg>
