<?xml version="1.0" encoding="UTF-8" standalone="no"?>
<!DOCTYPE svg PUBLIC "-//W3C//DTD SVG 1.1//EN"
 "http://www.w3.org/Graphics/SVG/1.1/DTD/svg11.dtd">
<!-- Generated by graphviz version 2.43.0 (0)
 -->
<!-- Title: src/code_800029B0.h Pages: 1 -->
<svg width="4439pt" height="203pt"
 viewBox="0.00 0.00 4439.00 203.00" xmlns="http://www.w3.org/2000/svg" xmlns:xlink="http://www.w3.org/1999/xlink">
<g id="graph0" class="graph" transform="scale(1 1) rotate(0) translate(4 199)">
<title>src/code_800029B0.h</title>
<!-- Node1 -->
<g id="Node000001" class="node">
<title>Node1</title>
<g id="a_Node000001"><a xlink:title=" ">
<polygon fill="#999999" stroke="#666666" points="2221,-195 2101,-195 2101,-176 2221,-176 2221,-195"/>
<text text-anchor="middle" x="2161" y="-183" font-family="Helvetica,sans-Serif" font-size="10.00">src/code_800029B0.h</text>
</a>
</g>
</g>
<!-- Node2 -->
<g id="Node000002" class="node">
<title>Node2</title>
<g id="a_Node000002"><a xlink:href="banana_2render_8inc_8c.html" target="_top" xlink:title=" ">
<polygon fill="white" stroke="#666666" points="162,-134.5 0,-134.5 0,-115.5 162,-115.5 162,-134.5"/>
<text text-anchor="middle" x="81" y="-122.5" font-family="Helvetica,sans-Serif" font-size="10.00">src/actors/banana/render.inc.c</text>
</a>
</g>
</g>
<!-- Node1&#45;&gt;Node2 -->
<g id="edge1_Node000001_Node000002" class="edge">
<title>Node1&#45;&gt;Node2</title>
<g id="a_edge1_Node000001_Node000002"><a xlink:title=" ">
<path fill="none" stroke="#63b8ff" d="M2090.53,-184.09C1783.32,-182.14 559.35,-172.42 176,-140 161.22,-138.75 145.23,-136.68 130.66,-134.5"/>
<polygon fill="#63b8ff" stroke="#63b8ff" points="2090.62,-187.59 2100.64,-184.16 2090.66,-180.59 2090.62,-187.59"/>
</a>
</g>
</g>
<!-- Node3 -->
<g id="Node000003" class="node">
<title>Node3</title>
<g id="a_Node000003"><a xlink:href="actors_8c.html" target="_top" xlink:title=" ">
<polygon fill="white" stroke="#666666" points="285.5,-74 180.5,-74 180.5,-55 285.5,-55 285.5,-74"/>
<text text-anchor="middle" x="233" y="-62" font-family="Helvetica,sans-Serif" font-size="10.00">src/racing/actors.c</text>
</a>
</g>
</g>
<!-- Node1&#45;&gt;Node3 -->
<g id="edge31_Node000001_Node000003" class="edge">
<title>Node1&#45;&gt;Node3</title>
<g id="a_edge31_Node000001_Node000003"><a xlink:title=" ">
<path fill="none" stroke="#63b8ff" d="M2090.65,-184.23C1745.07,-182.75 242.55,-174.32 209,-140 190.95,-121.54 212.91,-89.44 225.44,-74.12"/>
<polygon fill="#63b8ff" stroke="#63b8ff" points="2090.76,-187.73 2100.77,-184.27 2090.79,-180.73 2090.76,-187.73"/>
</a>
</g>
</g>
<!-- Node4 -->
<g id="Node000004" class="node">
<title>Node4</title>
<g id="a_Node000004"><a xlink:href="banana_2update_8inc_8c.html" target="_top" xlink:title=" ">
<polygon fill="white" stroke="#666666" points="640.5,-134.5 475.5,-134.5 475.5,-115.5 640.5,-115.5 640.5,-134.5"/>
<text text-anchor="middle" x="558" y="-122.5" font-family="Helvetica,sans-Serif" font-size="10.00">src/actors/banana/update.inc.c</text>
</a>
</g>
</g>
<!-- Node1&#45;&gt;Node4 -->
<g id="edge3_Node000001_Node000004" class="edge">
<title>Node1&#45;&gt;Node4</title>
<g id="a_edge3_Node000001_Node000004"><a xlink:title=" ">
<path fill="none" stroke="#63b8ff" d="M2090.44,-183.48C1832.25,-179.59 939.18,-164.63 655,-140 640.08,-138.71 623.96,-136.65 609.22,-134.5"/>
<polygon fill="#63b8ff" stroke="#63b8ff" points="2090.76,-186.99 2100.81,-183.64 2090.86,-179.99 2090.76,-186.99"/>
</a>
</g>
</g>
<!-- Node5 -->
<g id="Node000005" class="node">
<title>Node5</title>
<g id="a_Node000005"><a xlink:href="actors__extended_8c.html" target="_top" xlink:title=" ">
<polygon fill="white" stroke="#666666" points="792,-74 636,-74 636,-55 792,-55 792,-74"/>
<text text-anchor="middle" x="714" y="-62" font-family="Helvetica,sans-Serif" font-size="10.00">src/racing/actors_extended.c</text>
</a>
</g>
</g>
<!-- Node1&#45;&gt;Node5 -->
<g id="edge32_Node000001_Node000005" class="edge">
<title>Node1&#45;&gt;Node5</title>
<g id="a_edge32_Node000001_Node000005"><a xlink:title=" ">
<path fill="none" stroke="#63b8ff" d="M2090.32,-183.69C1799.92,-180.2 712.69,-165.45 688,-140 669.88,-121.32 692.98,-89.33 706.09,-74.08"/>
<polygon fill="#63b8ff" stroke="#63b8ff" points="2090.68,-187.19 2100.72,-183.81 2090.76,-180.2 2090.68,-187.19"/>
</a>
</g>
</g>
<!-- Node6 -->
<g id="Node000006" class="node">
<title>Node6</title>
<g id="a_Node000006"><a xlink:href="fake__item__box_2render_8inc_8c.html" target="_top" xlink:title=" ">
<polygon fill="white" stroke="#666666" points="334,-140 218,-140 218,-110 334,-110 334,-140"/>
<text text-anchor="start" x="226" y="-128" font-family="Helvetica,sans-Serif" font-size="10.00">src/actors/fake_item</text>
<text text-anchor="middle" x="276" y="-117" font-family="Helvetica,sans-Serif" font-size="10.00">_box/render.inc.c</text>
</a>
</g>
</g>
<!-- Node1&#45;&gt;Node6 -->
<g id="edge5_Node000001_Node000006" class="edge">
<title>Node1&#45;&gt;Node6</title>
<g id="a_edge5_Node000001_Node000006"><a xlink:title=" ">
<path fill="none" stroke="#63b8ff" d="M2090.31,-184.48C1798.99,-184.15 690.55,-180.23 343,-140 340.17,-139.67 337.28,-139.28 334.36,-138.85"/>
<polygon fill="#63b8ff" stroke="#63b8ff" points="2090.73,-187.98 2100.73,-184.49 2090.73,-180.98 2090.73,-187.98"/>
</a>
</g>
</g>
<!-- Node7 -->
<g id="Node000007" class="node">
<title>Node7</title>
<g id="a_Node000007"><a xlink:href="falling__rock_2update_8inc_8c.html" target="_top" xlink:title=" ">
<polygon fill="white" stroke="#666666" points="457.5,-140 352.5,-140 352.5,-110 457.5,-110 457.5,-140"/>
<text text-anchor="start" x="360.5" y="-128" font-family="Helvetica,sans-Serif" font-size="10.00">src/actors/falling</text>
<text text-anchor="middle" x="405" y="-117" font-family="Helvetica,sans-Serif" font-size="10.00">_rock/update.inc.c</text>
</a>
</g>
</g>
<!-- Node1&#45;&gt;Node7 -->
<g id="edge7_Node000001_Node000007" class="edge">
<title>Node1&#45;&gt;Node7</title>
<g id="a_edge7_Node000001_Node000007"><a xlink:title=" ">
<path fill="none" stroke="#63b8ff" d="M2090.51,-184.52C1812.01,-184.32 787.85,-180.74 466,-140 463.31,-139.66 460.55,-139.25 457.79,-138.79"/>
<polygon fill="#63b8ff" stroke="#63b8ff" points="2090.88,-188.02 2100.88,-184.53 2090.88,-181.02 2090.88,-188.02"/>
</a>
</g>
</g>
<!-- Node8 -->
<g id="Node000008" class="node">
<title>Node8</title>
<g id="a_Node000008"><a xlink:href="green__shell_2update_8inc_8c.html" target="_top" xlink:title=" ">
<polygon fill="white" stroke="#666666" points="820.5,-140 697.5,-140 697.5,-110 820.5,-110 820.5,-140"/>
<text text-anchor="start" x="705.5" y="-128" font-family="Helvetica,sans-Serif" font-size="10.00">src/actors/green_shell</text>
<text text-anchor="middle" x="759" y="-117" font-family="Helvetica,sans-Serif" font-size="10.00">/update.inc.c</text>
</a>
</g>
</g>
<!-- Node1&#45;&gt;Node8 -->
<g id="edge9_Node000001_Node000008" class="edge">
<title>Node1&#45;&gt;Node8</title>
<g id="a_edge9_Node000001_Node000008"><a xlink:title=" ">
<path fill="none" stroke="#63b8ff" d="M2090.69,-183.67C1852.46,-180.63 1076.85,-168.73 829,-140 826.29,-139.69 823.53,-139.32 820.75,-138.92"/>
<polygon fill="#63b8ff" stroke="#63b8ff" points="2090.91,-187.18 2100.96,-183.8 2091,-180.18 2090.91,-187.18"/>
</a>
</g>
</g>
<!-- Node9 -->
<g id="Node000009" class="node">
<title>Node9</title>
<g id="a_Node000009"><a xlink:href="other__shell_2update_8inc_8c.html" target="_top" xlink:title=" ">
<polygon fill="white" stroke="#666666" points="959.5,-140 838.5,-140 838.5,-110 959.5,-110 959.5,-140"/>
<text text-anchor="start" x="846.5" y="-128" font-family="Helvetica,sans-Serif" font-size="10.00">src/actors/other_shell</text>
<text text-anchor="middle" x="899" y="-117" font-family="Helvetica,sans-Serif" font-size="10.00">/update.inc.c</text>
</a>
</g>
</g>
<!-- Node1&#45;&gt;Node9 -->
<g id="edge11_Node000001_Node000009" class="edge">
<title>Node1&#45;&gt;Node9</title>
<g id="a_edge11_Node000001_Node000009"><a xlink:title=" ">
<path fill="none" stroke="#63b8ff" d="M2090.63,-183.38C1869.05,-179.62 1187.43,-166.18 968,-140 965.33,-139.68 962.61,-139.31 959.87,-138.91"/>
<polygon fill="#63b8ff" stroke="#63b8ff" points="2090.78,-186.88 2100.83,-183.55 2090.89,-179.88 2090.78,-186.88"/>
</a>
</g>
</g>
<!-- Node10 -->
<g id="Node000010" class="node">
<title>Node10</title>
<g id="a_Node000010"><a xlink:href="external_8c.html" target="_top" xlink:title=" ">
<polygon fill="white" stroke="#666666" points="1090.5,-134.5 977.5,-134.5 977.5,-115.5 1090.5,-115.5 1090.5,-134.5"/>
<text text-anchor="middle" x="1034" y="-122.5" font-family="Helvetica,sans-Serif" font-size="10.00">src/audio/external.c</text>
</a>
</g>
</g>
<!-- Node1&#45;&gt;Node10 -->
<g id="edge13_Node000001_Node000010" class="edge">
<title>Node1&#45;&gt;Node10</title>
<g id="a_edge13_Node000001_Node000010"><a xlink:title=" ">
<path fill="none" stroke="#63b8ff" d="M2090.74,-183.12C1885.92,-178.84 1291.72,-164.61 1099,-140 1088.92,-138.71 1078.09,-136.66 1068.22,-134.51"/>
<polygon fill="#63b8ff" stroke="#63b8ff" points="2090.71,-186.62 2100.78,-183.33 2090.86,-179.62 2090.71,-186.62"/>
</a>
</g>
</g>
<!-- Node11 -->
<g id="Node000011" class="node">
<title>Node11</title>
<g id="a_Node000011"><a xlink:href="camera_8c.html" target="_top" xlink:title=" ">
<polygon fill="white" stroke="#666666" points="1187.5,-134.5 1108.5,-134.5 1108.5,-115.5 1187.5,-115.5 1187.5,-134.5"/>
<text text-anchor="middle" x="1148" y="-122.5" font-family="Helvetica,sans-Serif" font-size="10.00">src/camera.c</text>
</a>
</g>
</g>
<!-- Node1&#45;&gt;Node11 -->
<g id="edge14_Node000001_Node000011" class="edge">
<title>Node1&#45;&gt;Node11</title>
<g id="a_edge14_Node000001_Node000011"><a xlink:title=" ">
<path fill="none" stroke="#63b8ff" d="M2090.56,-183.42C1898.44,-180.14 1368.19,-168.66 1196,-140 1188.46,-138.75 1180.44,-136.7 1173.15,-134.55"/>
<polygon fill="#63b8ff" stroke="#63b8ff" points="2090.76,-186.93 2100.82,-183.59 2090.88,-179.93 2090.76,-186.93"/>
</a>
</g>
</g>
<!-- Node12 -->
<g id="Node000012" class="node">
<title>Node12</title>
<g id="a_Node000012"><a xlink:href="code__800029B0_8c.html" target="_top" xlink:title=" ">
<polygon fill="white" stroke="#666666" points="1324.5,-134.5 1205.5,-134.5 1205.5,-115.5 1324.5,-115.5 1324.5,-134.5"/>
<text text-anchor="middle" x="1265" y="-122.5" font-family="Helvetica,sans-Serif" font-size="10.00">src/code_800029B0.c</text>
</a>
</g>
</g>
<!-- Node1&#45;&gt;Node12 -->
<g id="edge15_Node000001_Node000012" class="edge">
<title>Node1&#45;&gt;Node12</title>
<g id="a_edge15_Node000001_Node000012"><a xlink:title=" ">
<path fill="none" stroke="#63b8ff" d="M2090.41,-184.18C1947.2,-182.76 1612.46,-175.55 1334,-140 1323.57,-138.67 1312.36,-136.65 1302.08,-134.56"/>
<polygon fill="#63b8ff" stroke="#63b8ff" points="2090.77,-187.68 2100.8,-184.27 2090.83,-180.68 2090.77,-187.68"/>
</a>
</g>
</g>
<!-- Node13 -->
<g id="Node000013" class="node">
<title>Node13</title>
<g id="a_Node000013"><a xlink:href="code__80005FD0_8c.html" target="_top" xlink:title=" ">
<polygon fill="white" stroke="#666666" points="1463,-134.5 1343,-134.5 1343,-115.5 1463,-115.5 1463,-134.5"/>
<text text-anchor="middle" x="1403" y="-122.5" font-family="Helvetica,sans-Serif" font-size="10.00">src/code_80005FD0.c</text>
</a>
</g>
</g>
<!-- Node1&#45;&gt;Node13 -->
<g id="edge16_Node000001_Node000013" class="edge">
<title>Node1&#45;&gt;Node13</title>
<g id="a_edge16_Node000001_Node000013"><a xlink:title=" ">
<path fill="none" stroke="#63b8ff" d="M2090.63,-183.1C1965.61,-179.92 1696.78,-169.92 1472,-140 1461.7,-138.63 1450.63,-136.63 1440.45,-134.56"/>
<polygon fill="#63b8ff" stroke="#63b8ff" points="2090.74,-186.61 2100.83,-183.36 2090.92,-179.61 2090.74,-186.61"/>
</a>
</g>
</g>
<!-- Node14 -->
<g id="Node000014" class="node">
<title>Node14</title>
<g id="a_Node000014"><a xlink:href="code__80057C60_8c.html" target="_top" xlink:title=" ">
<polygon fill="white" stroke="#666666" points="1600.5,-134.5 1481.5,-134.5 1481.5,-115.5 1600.5,-115.5 1600.5,-134.5"/>
<text text-anchor="middle" x="1541" y="-122.5" font-family="Helvetica,sans-Serif" font-size="10.00">src/code_80057C60.c</text>
</a>
</g>
</g>
<!-- Node1&#45;&gt;Node14 -->
<g id="edge17_Node000001_Node000014" class="edge">
<title>Node1&#45;&gt;Node14</title>
<g id="a_edge17_Node000001_Node000014"><a xlink:title=" ">
<path fill="none" stroke="#63b8ff" d="M2090.52,-181.59C1985.28,-176.61 1781.02,-164.55 1609,-140 1598.98,-138.57 1588.21,-136.57 1578.27,-134.53"/>
<polygon fill="#63b8ff" stroke="#63b8ff" points="2090.54,-185.09 2100.7,-182.06 2090.87,-178.1 2090.54,-185.09"/>
</a>
</g>
</g>
<!-- Node15 -->
<g id="Node000015" class="node">
<title>Node15</title>
<g id="a_Node000015"><a xlink:href="code__8006E9C0_8c.html" target="_top" xlink:title=" ">
<polygon fill="white" stroke="#666666" points="1737.5,-134.5 1618.5,-134.5 1618.5,-115.5 1737.5,-115.5 1737.5,-134.5"/>
<text text-anchor="middle" x="1678" y="-122.5" font-family="Helvetica,sans-Serif" font-size="10.00">src/code_8006E9C0.c</text>
</a>
</g>
</g>
<!-- Node1&#45;&gt;Node15 -->
<g id="edge18_Node000001_Node000015" class="edge">
<title>Node1&#45;&gt;Node15</title>
<g id="a_edge18_Node000001_Node000015"><a xlink:title=" ">
<path fill="none" stroke="#63b8ff" d="M2090.94,-179.06C2008.21,-172.15 1866.62,-158.84 1746,-140 1736.35,-138.49 1726,-136.54 1716.36,-134.57"/>
<polygon fill="#63b8ff" stroke="#63b8ff" points="2090.72,-182.55 2100.97,-179.89 2091.3,-175.58 2090.72,-182.55"/>
</a>
</g>
</g>
<!-- Node16 -->
<g id="Node000016" class="node">
<title>Node16</title>
<g id="a_Node000016"><a xlink:href="code__80091440_8c.html" target="_top" xlink:title=" ">
<polygon fill="white" stroke="#666666" points="1874.5,-134.5 1755.5,-134.5 1755.5,-115.5 1874.5,-115.5 1874.5,-134.5"/>
<text text-anchor="middle" x="1815" y="-122.5" font-family="Helvetica,sans-Serif" font-size="10.00">src/code_80091440.c</text>
</a>
</g>
</g>
<!-- Node1&#45;&gt;Node16 -->
<g id="edge19_Node000001_Node000016" class="edge">
<title>Node1&#45;&gt;Node16</title>
<g id="a_edge19_Node000001_Node000016"><a xlink:title=" ">
<path fill="none" stroke="#63b8ff" d="M2092.89,-174.46C2036.52,-165.94 1954.4,-153.06 1883,-140 1873.87,-138.33 1864.08,-136.4 1854.85,-134.51"/>
<polygon fill="#63b8ff" stroke="#63b8ff" points="2092.69,-177.97 2103.1,-176 2093.74,-171.05 2092.69,-177.97"/>
</a>
</g>
</g>
<!-- Node17 -->
<g id="Node000017" class="node">
<title>Node17</title>
<g id="a_Node000017"><a xlink:href="code__80091750_8c.html" target="_top" xlink:title=" ">
<polygon fill="white" stroke="#666666" points="2011.5,-134.5 1892.5,-134.5 1892.5,-115.5 2011.5,-115.5 2011.5,-134.5"/>
<text text-anchor="middle" x="1952" y="-122.5" font-family="Helvetica,sans-Serif" font-size="10.00">src/code_80091750.c</text>
</a>
</g>
</g>
<!-- Node1&#45;&gt;Node17 -->
<g id="edge20_Node000001_Node000017" class="edge">
<title>Node1&#45;&gt;Node17</title>
<g id="a_edge20_Node000001_Node000017"><a xlink:title=" ">
<path fill="none" stroke="#63b8ff" d="M2120.81,-173.25C2080.4,-161.94 2018.97,-144.75 1982.43,-134.52"/>
<polygon fill="#63b8ff" stroke="#63b8ff" points="2120.04,-176.67 2130.61,-175.99 2121.92,-169.93 2120.04,-176.67"/>
</a>
</g>
</g>
<!-- Node18 -->
<g id="Node000018" class="node">
<title>Node18</title>
<g id="a_Node000018"><a xlink:href="all__variables_8h.html" target="_top" xlink:title=" ">
<polygon fill="white" stroke="#666666" points="2168,-134.5 2030,-134.5 2030,-115.5 2168,-115.5 2168,-134.5"/>
<text text-anchor="middle" x="2099" y="-122.5" font-family="Helvetica,sans-Serif" font-size="10.00">src/debug/all_variables.h</text>
</a>
</g>
</g>
<!-- Node1&#45;&gt;Node18 -->
<g id="edge21_Node000001_Node000018" class="edge">
<title>Node1&#45;&gt;Node18</title>
<g id="a_edge21_Node000001_Node000018"><a xlink:title=" ">
<path fill="none" stroke="#63b8ff" d="M2144.48,-168.91C2132.85,-157.94 2117.72,-143.67 2108.19,-134.67"/>
<polygon fill="#63b8ff" stroke="#63b8ff" points="2142.18,-171.55 2151.85,-175.87 2146.98,-166.46 2142.18,-171.55"/>
</a>
</g>
</g>
<!-- Node21 -->
<g id="Node000021" class="node">
<title>Node21</title>
<g id="a_Node000021"><a xlink:href="effects_8c.html" target="_top" xlink:title=" ">
<polygon fill="white" stroke="#666666" points="2261.5,-134.5 2186.5,-134.5 2186.5,-115.5 2261.5,-115.5 2261.5,-134.5"/>
<text text-anchor="middle" x="2224" y="-122.5" font-family="Helvetica,sans-Serif" font-size="10.00">src/effects.c</text>
</a>
</g>
</g>
<!-- Node1&#45;&gt;Node21 -->
<g id="edge24_Node000001_Node000021" class="edge">
<title>Node1&#45;&gt;Node21</title>
<g id="a_edge24_Node000001_Node000021"><a xlink:title=" ">
<path fill="none" stroke="#63b8ff" d="M2177.79,-168.91C2189.6,-157.94 2204.97,-143.67 2214.67,-134.67"/>
<polygon fill="#63b8ff" stroke="#63b8ff" points="2175.24,-166.5 2170.3,-175.87 2180.01,-171.63 2175.24,-166.5"/>
</a>
</g>
</g>
<!-- Node22 -->
<g id="Node000022" class="node">
<title>Node22</title>
<g id="a_Node000022"><a xlink:href="ceremony__and__credits_8c.html" target="_top" xlink:title=" ">
<polygon fill="white" stroke="#666666" points="2398.5,-140 2279.5,-140 2279.5,-110 2398.5,-110 2398.5,-140"/>
<text text-anchor="start" x="2287.5" y="-128" font-family="Helvetica,sans-Serif" font-size="10.00">src/ending/ceremony</text>
<text text-anchor="middle" x="2339" y="-117" font-family="Helvetica,sans-Serif" font-size="10.00">_and_credits.c</text>
</a>
</g>
</g>
<!-- Node1&#45;&gt;Node22 -->
<g id="edge25_Node000001_Node000022" class="edge">
<title>Node1&#45;&gt;Node22</title>
<g id="a_edge25_Node000001_Node000022"><a xlink:title=" ">
<path fill="none" stroke="#63b8ff" d="M2196.51,-172.83C2225.21,-163.4 2265.71,-150.09 2296.21,-140.06"/>
<polygon fill="#63b8ff" stroke="#63b8ff" points="2195.29,-169.55 2186.88,-175.99 2197.48,-176.2 2195.29,-169.55"/>
</a>
</g>
</g>
<!-- Node23 -->
<g id="Node000023" class="node">
<title>Node23</title>
<g id="a_Node000023"><a xlink:href="code__80280000_8c.html" target="_top" xlink:title=" ">
<polygon fill="white" stroke="#666666" points="2571.5,-134.5 2416.5,-134.5 2416.5,-115.5 2571.5,-115.5 2571.5,-134.5"/>
<text text-anchor="middle" x="2494" y="-122.5" font-family="Helvetica,sans-Serif" font-size="10.00">src/ending/code_80280000.c</text>
</a>
</g>
</g>
<!-- Node1&#45;&gt;Node23 -->
<g id="edge26_Node000001_Node000023" class="edge">
<title>Node1&#45;&gt;Node23</title>
<g id="a_edge26_Node000001_Node000023"><a xlink:title=" ">
<path fill="none" stroke="#63b8ff" d="M2219.39,-174.24C2283.59,-162.96 2385.56,-145.05 2445.52,-134.52"/>
<polygon fill="#63b8ff" stroke="#63b8ff" points="2218.66,-170.82 2209.42,-175.99 2219.88,-177.71 2218.66,-170.82"/>
</a>
</g>
</g>
<!-- Node24 -->
<g id="Node000024" class="node">
<title>Node24</title>
<g id="a_Node000024"><a xlink:href="code__80281780_8c.html" target="_top" xlink:title=" ">
<polygon fill="white" stroke="#666666" points="2744.5,-134.5 2589.5,-134.5 2589.5,-115.5 2744.5,-115.5 2744.5,-134.5"/>
<text text-anchor="middle" x="2667" y="-122.5" font-family="Helvetica,sans-Serif" font-size="10.00">src/ending/code_80281780.c</text>
</a>
</g>
</g>
<!-- Node1&#45;&gt;Node24 -->
<g id="edge27_Node000001_Node000024" class="edge">
<title>Node1&#45;&gt;Node24</title>
<g id="a_edge27_Node000001_Node000024"><a xlink:title=" ">
<path fill="none" stroke="#63b8ff" d="M2231.42,-178.25C2314.97,-170.55 2458.39,-156.46 2581,-140 2592.84,-138.41 2605.57,-136.47 2617.5,-134.54"/>
<polygon fill="#63b8ff" stroke="#63b8ff" points="2230.93,-174.78 2221.29,-179.18 2231.57,-181.75 2230.93,-174.78"/>
</a>
</g>
</g>
<!-- Node25 -->
<g id="Node000025" class="node">
<title>Node25</title>
<g id="a_Node000025"><a xlink:href="main_8c.html" target="_top" xlink:title=" ">
<polygon fill="white" stroke="#666666" points="2829.5,-134.5 2762.5,-134.5 2762.5,-115.5 2829.5,-115.5 2829.5,-134.5"/>
<text text-anchor="middle" x="2796" y="-122.5" font-family="Helvetica,sans-Serif" font-size="10.00">src/main.c</text>
</a>
</g>
</g>
<!-- Node1&#45;&gt;Node25 -->
<g id="edge28_Node000001_Node000025" class="edge">
<title>Node1&#45;&gt;Node25</title>
<g id="a_edge28_Node000001_Node000025"><a xlink:title=" ">
<path fill="none" stroke="#63b8ff" d="M2231.57,-184.8C2343.47,-184.03 2568,-177.38 2754,-140 2760.48,-138.7 2767.35,-136.69 2773.61,-134.6"/>
<polygon fill="#63b8ff" stroke="#63b8ff" points="2231.41,-181.3 2221.43,-184.85 2231.45,-188.3 2231.41,-181.3"/>
</a>
</g>
</g>
<!-- Node26 -->
<g id="Node000026" class="node">
<title>Node26</title>
<g id="a_Node000026"><a xlink:href="menus_8c.html" target="_top" xlink:title=" ">
<polygon fill="white" stroke="#666666" points="2922.5,-134.5 2847.5,-134.5 2847.5,-115.5 2922.5,-115.5 2922.5,-134.5"/>
<text text-anchor="middle" x="2885" y="-122.5" font-family="Helvetica,sans-Serif" font-size="10.00">src/menus.c</text>
</a>
</g>
</g>
<!-- Node1&#45;&gt;Node26 -->
<g id="edge29_Node000001_Node000026" class="edge">
<title>Node1&#45;&gt;Node26</title>
<g id="a_edge29_Node000001_Node000026"><a xlink:title=" ">
<path fill="none" stroke="#63b8ff" d="M2231.54,-185.18C2355.5,-185.19 2620.03,-179.96 2839,-140 2846.06,-138.71 2853.57,-136.71 2860.43,-134.62"/>
<polygon fill="#63b8ff" stroke="#63b8ff" points="2231.43,-181.68 2221.43,-185.16 2231.42,-188.68 2231.43,-181.68"/>
</a>
</g>
</g>
<!-- Node27 -->
<g id="Node000027" class="node">
<title>Node27</title>
<g id="a_Node000027"><a xlink:href="player__controller_8c.html" target="_top" xlink:title=" ">
<polygon fill="white" stroke="#666666" points="3064,-134.5 2940,-134.5 2940,-115.5 3064,-115.5 3064,-134.5"/>
<text text-anchor="middle" x="3002" y="-122.5" font-family="Helvetica,sans-Serif" font-size="10.00">src/player_controller.c</text>
</a>
</g>
</g>
<!-- Node1&#45;&gt;Node27 -->
<g id="edge30_Node000001_Node000027" class="edge">
<title>Node1&#45;&gt;Node27</title>
<g id="a_edge30_Node000001_Node000027"><a xlink:title=" ">
<path fill="none" stroke="#63b8ff" d="M2231.52,-183.72C2367.54,-181.49 2675.37,-172.91 2932,-140 2942.57,-138.64 2953.94,-136.62 2964.38,-134.53"/>
<polygon fill="#63b8ff" stroke="#63b8ff" points="2231.19,-180.22 2221.25,-183.88 2231.3,-187.22 2231.19,-180.22"/>
</a>
</g>
</g>
<!-- Node28 -->
<g id="Node000028" class="node">
<title>Node28</title>
<g id="a_Node000028"><a xlink:href="collision_8c.html" target="_top" xlink:title=" ">
<polygon fill="white" stroke="#666666" points="3198,-134.5 3082,-134.5 3082,-115.5 3198,-115.5 3198,-134.5"/>
<text text-anchor="middle" x="3140" y="-122.5" font-family="Helvetica,sans-Serif" font-size="10.00">src/racing/collision.c</text>
</a>
</g>
</g>
<!-- Node1&#45;&gt;Node28 -->
<g id="edge33_Node000001_Node000028" class="edge">
<title>Node1&#45;&gt;Node28</title>
<g id="a_edge33_Node000001_Node000028"><a xlink:title=" ">
<path fill="none" stroke="#63b8ff" d="M2231.26,-184.82C2384.7,-184.71 2760.98,-179.96 3073,-140 3083.25,-138.69 3094.28,-136.65 3104.36,-134.53"/>
<polygon fill="#63b8ff" stroke="#63b8ff" points="2231.04,-181.32 2221.04,-184.82 2231.04,-188.32 2231.04,-181.32"/>
</a>
</g>
</g>
<!-- Node29 -->
<g id="Node000029" class="node">
<title>Node29</title>
<g id="a_Node000029"><a xlink:href="memory_8c.html" target="_top" xlink:title=" ">
<polygon fill="white" stroke="#666666" points="3331.5,-134.5 3216.5,-134.5 3216.5,-115.5 3331.5,-115.5 3331.5,-134.5"/>
<text text-anchor="middle" x="3274" y="-122.5" font-family="Helvetica,sans-Serif" font-size="10.00">src/racing/memory.c</text>
</a>
</g>
</g>
<!-- Node1&#45;&gt;Node29 -->
<g id="edge34_Node000001_Node000029" class="edge">
<title>Node1&#45;&gt;Node29</title>
<g id="a_edge34_Node000001_Node000029"><a xlink:title=" ">
<path fill="none" stroke="#63b8ff" d="M2231.56,-183C2434.54,-178.46 3017.53,-163.66 3207,-140 3217.38,-138.7 3228.54,-136.64 3238.71,-134.5"/>
<polygon fill="#63b8ff" stroke="#63b8ff" points="2231.24,-179.51 2221.32,-183.23 2231.39,-186.51 2231.24,-179.51"/>
</a>
</g>
</g>
<!-- Node30 -->
<g id="Node000030" class="node">
<title>Node30</title>
<g id="a_Node000030"><a xlink:href="race__logic_8c.html" target="_top" xlink:title=" ">
<polygon fill="white" stroke="#666666" points="3474.5,-134.5 3349.5,-134.5 3349.5,-115.5 3474.5,-115.5 3474.5,-134.5"/>
<text text-anchor="middle" x="3412" y="-122.5" font-family="Helvetica,sans-Serif" font-size="10.00">src/racing/race_logic.c</text>
</a>
</g>
</g>
<!-- Node1&#45;&gt;Node30 -->
<g id="edge35_Node000001_Node000030" class="edge">
<title>Node1&#45;&gt;Node30</title>
<g id="a_edge35_Node000001_Node000030"><a xlink:title=" ">
<path fill="none" stroke="#63b8ff" d="M2231.35,-183.3C2451.3,-179.31 3124.15,-165.31 3341,-140 3351.98,-138.72 3363.8,-136.66 3374.59,-134.52"/>
<polygon fill="#63b8ff" stroke="#63b8ff" points="2231.16,-179.8 2221.23,-183.48 2231.29,-186.8 2231.16,-179.8"/>
</a>
</g>
</g>
<!-- Node31 -->
<g id="Node000031" class="node">
<title>Node31</title>
<g id="a_Node000031"><a xlink:href="render__courses_8c.html" target="_top" xlink:title=" ">
<polygon fill="white" stroke="#666666" points="3641.5,-134.5 3492.5,-134.5 3492.5,-115.5 3641.5,-115.5 3641.5,-134.5"/>
<text text-anchor="middle" x="3567" y="-122.5" font-family="Helvetica,sans-Serif" font-size="10.00">src/racing/render_courses.c</text>
</a>
</g>
</g>
<!-- Node1&#45;&gt;Node31 -->
<g id="edge36_Node000001_Node000031" class="edge">
<title>Node1&#45;&gt;Node31</title>
<g id="a_edge36_Node000001_Node000031"><a xlink:title=" ">
<path fill="none" stroke="#63b8ff" d="M2231.62,-183.37C2469.09,-179.37 3237.71,-164.8 3484,-140 3496.79,-138.71 3510.6,-136.65 3523.21,-134.51"/>
<polygon fill="#63b8ff" stroke="#63b8ff" points="2231.32,-179.87 2221.38,-183.54 2231.44,-186.87 2231.32,-179.87"/>
</a>
</g>
</g>
<!-- Node32 -->
<g id="Node000032" class="node">
<title>Node32</title>
<g id="a_Node000032"><a xlink:href="skybox__and__splitscreen_8c.html" target="_top" xlink:title=" ">
<polygon fill="white" stroke="#666666" points="3784.5,-140 3659.5,-140 3659.5,-110 3784.5,-110 3784.5,-140"/>
<text text-anchor="start" x="3667.5" y="-128" font-family="Helvetica,sans-Serif" font-size="10.00">src/racing/skybox_and</text>
<text text-anchor="middle" x="3722" y="-117" font-family="Helvetica,sans-Serif" font-size="10.00">_splitscreen.c</text>
</a>
</g>
</g>
<!-- Node1&#45;&gt;Node32 -->
<g id="edge37_Node000001_Node000032" class="edge">
<title>Node1&#45;&gt;Node32</title>
<g id="a_edge37_Node000001_Node000032"><a xlink:title=" ">
<path fill="none" stroke="#63b8ff" d="M2231.29,-183.94C2487.47,-181.65 3370.72,-171.6 3651,-140 3653.75,-139.69 3656.55,-139.33 3659.37,-138.93"/>
<polygon fill="#63b8ff" stroke="#63b8ff" points="2230.97,-180.44 2221,-184.03 2231.03,-187.44 2230.97,-180.44"/>
</a>
</g>
</g>
<!-- Node33 -->
<g id="Node000033" class="node">
<title>Node33</title>
<g id="a_Node000033"><a xlink:href="render__objects_8c.html" target="_top" xlink:title=" ">
<polygon fill="white" stroke="#666666" points="3917,-134.5 3803,-134.5 3803,-115.5 3917,-115.5 3917,-134.5"/>
<text text-anchor="middle" x="3860" y="-122.5" font-family="Helvetica,sans-Serif" font-size="10.00">src/render_objects.c</text>
</a>
</g>
</g>
<!-- Node1&#45;&gt;Node33 -->
<g id="edge38_Node000001_Node000033" class="edge">
<title>Node1&#45;&gt;Node33</title>
<g id="a_edge38_Node000001_Node000033"><a xlink:title=" ">
<path fill="none" stroke="#63b8ff" d="M2231.16,-184.29C2502.66,-183.19 3484.48,-176.74 3794,-140 3804.35,-138.77 3815.48,-136.7 3825.6,-134.53"/>
<polygon fill="#63b8ff" stroke="#63b8ff" points="2231.03,-180.79 2221.04,-184.33 2231.06,-187.79 2231.03,-180.79"/>
</a>
</g>
</g>
<!-- Node34 -->
<g id="Node000034" class="node">
<title>Node34</title>
<g id="a_Node000034"><a xlink:href="render__player_8c.html" target="_top" xlink:title=" ">
<polygon fill="white" stroke="#666666" points="4044.5,-134.5 3935.5,-134.5 3935.5,-115.5 4044.5,-115.5 4044.5,-134.5"/>
<text text-anchor="middle" x="3990" y="-122.5" font-family="Helvetica,sans-Serif" font-size="10.00">src/render_player.c</text>
</a>
</g>
</g>
<!-- Node1&#45;&gt;Node34 -->
<g id="edge39_Node000001_Node000034" class="edge">
<title>Node1&#45;&gt;Node34</title>
<g id="a_edge39_Node000001_Node000034"><a xlink:title=" ">
<path fill="none" stroke="#63b8ff" d="M2231.55,-184.51C2517.3,-184.28 3589.53,-180.67 3926,-140 3936.05,-138.79 3946.85,-136.72 3956.66,-134.55"/>
<polygon fill="#63b8ff" stroke="#63b8ff" points="2231.31,-181.01 2221.31,-184.52 2231.32,-188.01 2231.31,-181.01"/>
</a>
</g>
</g>
<!-- Node35 -->
<g id="Node000035" class="node">
<title>Node35</title>
<g id="a_Node000035"><a xlink:href="spawn__players_8c.html" target="_top" xlink:title=" ">
<polygon fill="white" stroke="#666666" points="4177.5,-134.5 4062.5,-134.5 4062.5,-115.5 4177.5,-115.5 4177.5,-134.5"/>
<text text-anchor="middle" x="4120" y="-122.5" font-family="Helvetica,sans-Serif" font-size="10.00">src/spawn_players.c</text>
</a>
</g>
</g>
<!-- Node1&#45;&gt;Node35 -->
<g id="edge40_Node000001_Node000035" class="edge">
<title>Node1&#45;&gt;Node35</title>
<g id="a_edge40_Node000001_Node000035"><a xlink:title=" ">
<path fill="none" stroke="#63b8ff" d="M2231.65,-184.59C2530.38,-184.72 3690.97,-182.4 4054,-140 4064.35,-138.79 4075.49,-136.73 4085.6,-134.56"/>
<polygon fill="#63b8ff" stroke="#63b8ff" points="2231.39,-181.09 2221.39,-184.59 2231.39,-188.09 2231.39,-181.09"/>
</a>
</g>
</g>
<!-- Node36 -->
<g id="Node000036" class="node">
<title>Node36</title>
<g id="a_Node000036"><a xlink:href="staff__ghosts_8c.html" target="_top" xlink:title=" ">
<polygon fill="white" stroke="#666666" points="4296.5,-134.5 4195.5,-134.5 4195.5,-115.5 4296.5,-115.5 4296.5,-134.5"/>
<text text-anchor="middle" x="4246" y="-122.5" font-family="Helvetica,sans-Serif" font-size="10.00">src/staff_ghosts.c</text>
</a>
</g>
</g>
<!-- Node1&#45;&gt;Node36 -->
<g id="edge41_Node000001_Node000036" class="edge">
<title>Node1&#45;&gt;Node36</title>
<g id="a_edge41_Node000001_Node000036"><a xlink:title=" ">
<path fill="none" stroke="#63b8ff" d="M2231.05,-183.84C2565.3,-180.57 3990.07,-165.24 4187,-140 4196.4,-138.8 4206.48,-136.71 4215.6,-134.51"/>
<polygon fill="#63b8ff" stroke="#63b8ff" points="2230.98,-180.34 2221.01,-183.94 2231.04,-187.34 2230.98,-180.34"/>
</a>
</g>
</g>
<!-- Node37 -->
<g id="Node000037" class="node">
<title>Node37</title>
<g id="a_Node000037"><a xlink:href="update__objects_8c.html" target="_top" xlink:title=" ">
<polygon fill="white" stroke="#666666" points="4431,-134.5 4315,-134.5 4315,-115.5 4431,-115.5 4431,-134.5"/>
<text text-anchor="middle" x="4373" y="-122.5" font-family="Helvetica,sans-Serif" font-size="10.00">src/update_objects.c</text>
</a>
</g>
</g>
<!-- Node1&#45;&gt;Node37 -->
<g id="edge42_Node000001_Node000037" class="edge">
<title>Node1&#45;&gt;Node37</title>
<g id="a_edge42_Node000001_Node000037"><a xlink:title=" ">
<path fill="none" stroke="#63b8ff" d="M2231.3,-184.79C2553.43,-185.86 3890.47,-187.31 4306,-140 4316.51,-138.8 4327.81,-136.75 4338.08,-134.57"/>
<polygon fill="#63b8ff" stroke="#63b8ff" points="2231.18,-181.29 2221.17,-184.76 2231.16,-188.29 2231.18,-181.29"/>
</a>
</g>
</g>
<!-- Node2&#45;&gt;Node3 -->
<g id="edge2_Node000002_Node000003" class="edge">
<title>Node2&#45;&gt;Node3</title>
<g id="a_edge2_Node000002_Node000003"><a xlink:title=" ">
<path fill="none" stroke="#63b8ff" d="M112.5,-111.88C141.88,-100.57 184.97,-83.99 210.87,-74.02"/>
<polygon fill="#63b8ff" stroke="#63b8ff" points="111.18,-108.64 103.1,-115.49 113.69,-115.17 111.18,-108.64"/>
</a>
</g>
</g>
<!-- Node4&#45;&gt;Node5 -->
<g id="edge4_Node000004_Node000005" class="edge">
<title>Node4&#45;&gt;Node5</title>
<g id="a_edge4_Node000004_Node000005"><a xlink:title=" ">
<path fill="none" stroke="#63b8ff" d="M590.33,-111.88C620.48,-100.57 664.7,-83.99 691.29,-74.02"/>
<polygon fill="#63b8ff" stroke="#63b8ff" points="588.82,-108.71 580.68,-115.49 591.28,-115.26 588.82,-108.71"/>
</a>
</g>
</g>
<!-- Node6&#45;&gt;Node3 -->
<g id="edge6_Node000006_Node000003" class="edge">
<title>Node6&#45;&gt;Node3</title>
<g id="a_edge6_Node000006_Node000003"><a xlink:title=" ">
<path fill="none" stroke="#63b8ff" d="M259.47,-101.51C252.47,-91.99 244.74,-81.47 239.44,-74.27"/>
<polygon fill="#63b8ff" stroke="#63b8ff" points="256.85,-103.85 265.59,-109.84 262.49,-99.71 256.85,-103.85"/>
</a>
</g>
</g>
<!-- Node7&#45;&gt;Node3 -->
<g id="edge8_Node000007_Node000003" class="edge">
<title>Node7&#45;&gt;Node3</title>
<g id="a_edge8_Node000007_Node000003"><a xlink:title=" ">
<path fill="none" stroke="#63b8ff" d="M354.25,-106.74C322.61,-95.98 283.28,-82.6 258.15,-74.05"/>
<polygon fill="#63b8ff" stroke="#63b8ff" points="353.21,-110.08 363.8,-109.99 355.46,-103.45 353.21,-110.08"/>
</a>
</g>
</g>
<!-- Node8&#45;&gt;Node5 -->
<g id="edge10_Node000008_Node000005" class="edge">
<title>Node8&#45;&gt;Node5</title>
<g id="a_edge10_Node000008_Node000005"><a xlink:title=" ">
<path fill="none" stroke="#63b8ff" d="M741.92,-101.8C734.54,-92.21 726.34,-81.54 720.74,-74.27"/>
<polygon fill="#63b8ff" stroke="#63b8ff" points="739.24,-104.05 748.11,-109.84 744.78,-99.78 739.24,-104.05"/>
</a>
</g>
</g>
<!-- Node9&#45;&gt;Node5 -->
<g id="edge12_Node000009_Node000005" class="edge">
<title>Node9&#45;&gt;Node5</title>
<g id="a_edge12_Node000009_Node000005"><a xlink:title=" ">
<path fill="none" stroke="#63b8ff" d="M844.86,-106.88C810.75,-96.09 768.19,-82.64 741.05,-74.05"/>
<polygon fill="#63b8ff" stroke="#63b8ff" points="844.1,-110.31 854.69,-109.99 846.21,-103.64 844.1,-110.31"/>
</a>
</g>
</g>
<!-- Node19 -->
<g id="Node000019" class="node">
<title>Node19</title>
<g id="a_Node000019"><a xlink:href="debug_8inc_8c.html" target="_top" xlink:title=" ">
<polygon fill="white" stroke="#666666" points="2160,-74 2038,-74 2038,-55 2160,-55 2160,-74"/>
<text text-anchor="middle" x="2099" y="-62" font-family="Helvetica,sans-Serif" font-size="10.00">src/debug/debug.inc.c</text>
</a>
</g>
</g>
<!-- Node18&#45;&gt;Node19 -->
<g id="edge22_Node000018_Node000019" class="edge">
<title>Node18&#45;&gt;Node19</title>
<g id="a_edge22_Node000018_Node000019"><a xlink:title=" ">
<path fill="none" stroke="#63b8ff" d="M2099,-105.16C2099,-94.74 2099,-82.3 2099,-74.17"/>
<polygon fill="#63b8ff" stroke="#63b8ff" points="2095.5,-105.37 2099,-115.37 2102.5,-105.37 2095.5,-105.37"/>
</a>
</g>
</g>
<!-- Node20 -->
<g id="Node000020" class="node">
<title>Node20</title>
<g id="a_Node000020"><a xlink:href="debug_8c.html" target="_top" xlink:title=" ">
<polygon fill="white" stroke="#666666" points="2151.5,-19 2046.5,-19 2046.5,0 2151.5,0 2151.5,-19"/>
<text text-anchor="middle" x="2099" y="-7" font-family="Helvetica,sans-Serif" font-size="10.00">src/debug/debug.c</text>
</a>
</g>
</g>
<!-- Node19&#45;&gt;Node20 -->
<g id="edge23_Node000019_Node000020" class="edge">
<title>Node19&#45;&gt;Node20</title>
<g id="a_edge23_Node000019_Node000020"><a xlink:title=" ">
<path fill="none" stroke="#63b8ff" d="M2099,-44.66C2099,-35.93 2099,-25.99 2099,-19.09"/>
<polygon fill="#63b8ff" stroke="#63b8ff" points="2095.5,-44.75 2099,-54.75 2102.5,-44.75 2095.5,-44.75"/>
</a>
</g>
</g>
</g>
</svg>
