<?xml version="1.0" encoding="UTF-8" standalone="no"?>
<!DOCTYPE svg PUBLIC "-//W3C//DTD SVG 1.1//EN"
 "http://www.w3.org/Graphics/SVG/1.1/DTD/svg11.dtd">
<!-- Generated by graphviz version 2.43.0 (0)
 -->
<!-- Title: init_course_vehicles Pages: 1 -->
<!--zoomable 436 -->

<svg id="main" version="1.1" xmlns="http://www.w3.org/2000/svg" xmlns:xlink="http://www.w3.org/1999/xlink" xml:space="preserve" onload="init(evt)">
<style type="text/css"><![CDATA[
.node, .edge {opacity: 0.7;}
.node.selected, .edge.selected {opacity: 1;}
.edge:hover path { stroke: red; }
.edge:hover polygon { stroke: red; fill: red; }
]]></style>

<defs>
  <circle id="rim" cx="0" cy="0" r="7"/>
  <circle id="rim2" cx="0" cy="0" r="3.5"/>
  <g id="zoomPlus">
    <use xlink:href="#rim" fill="#404040"><set attributeName="fill" to="#808080" begin="zoomplus.mouseover" end="zoomplus.mouseout"/></use>
    <path d="M-4,0h8M0,-4v8" fill="none" stroke="white" stroke-width="1.5" pointer-events="none"/>
  </g>
  <g id="zoomMin">
    <use xlink:href="#rim" fill="#404040"><set attributeName="fill" to="#808080" begin="zoomminus.mouseover" end="zoomminus.mouseout"/></use>
    <path d="M-4,0h8" fill="none" stroke="white" stroke-width="1.5" pointer-events="none"/>
  </g>
  <g id="arrowUp" transform="translate(30 24)">
    <use xlink:href="#rim"/>
    <path pointer-events="none" fill="none" stroke="white" stroke-width="1.5" d="M0,-3.0v7 M-2.5,-0.5L0,-3.0L2.5,-0.5"/>
  </g>
  <g id="arrowRight" transform="rotate(90) translate(36 -43)">
    <use xlink:href="#rim"/>
    <path pointer-events="none" fill="none" stroke="white" stroke-width="1.5" d="M0,-3.0v7 M-2.5,-0.5L0,-3.0L2.5,-0.5"/>
  </g>
  <g id="arrowDown" transform="rotate(180) translate(-30 -48)">
    <use xlink:href="#rim"/>
    <path pointer-events="none" fill="none" stroke="white" stroke-width="1.5" d="M0,-3.0v7 M-2.5,-0.5L0,-3.0L2.5,-0.5"/>
  </g>
  <g id="arrowLeft" transform="rotate(270) translate(-36 17)">
    <use xlink:href="#rim"/>
    <path pointer-events="none" fill="none" stroke="white" stroke-width="1.5" d="M0,-3.0v7 M-2.5,-0.5L0,-3.0L2.5,-0.5"/>
  </g>
  <g id="resetDef">
    <use xlink:href="#rim2" fill="#404040"><set attributeName="fill" to="#808080" begin="reset.mouseover" end="reset.mouseout"/></use>
  </g>
</defs>
<script type="application/ecmascript">
var viewWidth = 1591;
var viewHeight = 436;
var sectionId = 'dynsection-229';
</script>
<script type="application/ecmascript" xlink:href="svg.min.js"/>
<svg id="graph" class="graph">
<g id="viewport">
<title>init_course_vehicles</title>
<!-- Node1 -->
<g id="Node000001" class="node">
<title>Node1</title>
<g id="a_Node000001"><a xlink:title=" ">
<polygon fill="#999999" stroke="#666666" points="116,-93 0,-93 0,-74 116,-74 116,-93"/>
<text text-anchor="middle" x="58" y="-81" font-family="Helvetica,sans-Serif" font-size="10.00">init_course_vehicles</text>
</a>
</g>
</g>
<!-- Node2 -->
<g id="Node000002" class="node">
<title>Node2</title>
<g id="a_Node000002"><a xlink:href="actors_8c.html#a24d84b2c349ccb02fa767a4e49c4f2c5" target="_top" xlink:title=" ">
<polygon fill="white" stroke="#666666" points="273,-298 152,-298 152,-279 273,-279 273,-298"/>
<text text-anchor="middle" x="212.5" y="-286" font-family="Helvetica,sans-Serif" font-size="10.00">addActorToEmptySlot</text>
</a>
</g>
</g>
<!-- Node1&#45;&gt;Node2 -->
<g id="edge1_Node000001_Node000002" class="edge">
<title>Node1&#45;&gt;Node2</title>
<g id="a_edge1_Node000001_Node000002"><a xlink:title=" ">
<path fill="none" stroke="#63b8ff" d="M66.15,-93.11C89.96,-125.12 166.81,-228.43 198.08,-270.46"/>
<polygon fill="#63b8ff" stroke="#63b8ff" points="195.41,-272.74 204.19,-278.67 201.03,-268.56 195.41,-272.74"/>
</a>
</g>
</g>
<!-- Node25 -->
<g id="Node000025" class="node">
<title>Node25</title>
<g id="a_Node000025"><a xlink:href="code__80005FD0_8c.html#a999bc47d5faecbe08adb45a4114cd52f" target="_top" xlink:title=" ">
<polygon fill="white" stroke="#666666" points="404,-56 309,-56 309,-37 404,-37 404,-56"/>
<text text-anchor="middle" x="356.5" y="-44" font-family="Helvetica,sans-Serif" font-size="10.00">func_8000DBAC</text>
</a>
</g>
</g>
<!-- Node1&#45;&gt;Node25 -->
<g id="edge27_Node000001_Node000025" class="edge">
<title>Node1&#45;&gt;Node25</title>
<g id="a_edge27_Node000001_Node000025"><a xlink:title=" ">
<path fill="none" stroke="#63b8ff" d="M116.17,-76.37C168.7,-69.81 246.15,-60.15 298.6,-53.6"/>
<polygon fill="#63b8ff" stroke="#63b8ff" points="299.25,-57.05 308.74,-52.33 298.39,-50.1 299.25,-57.05"/>
</a>
</g>
</g>
<!-- Node32 -->
<g id="Node000032" class="node">
<title>Node32</title>
<g id="a_Node000032"><a xlink:href="code__80005FD0_8c.html#a93313abf66f75a07eec17a337f7d9ba2" target="_top" xlink:title=" ">
<polygon fill="white" stroke="#666666" points="258,-112 167,-112 167,-93 258,-93 258,-112"/>
<text text-anchor="middle" x="212.5" y="-100" font-family="Helvetica,sans-Serif" font-size="10.00">func_80012220</text>
</a>
</g>
</g>
<!-- Node1&#45;&gt;Node32 -->
<g id="edge34_Node000001_Node000032" class="edge">
<title>Node1&#45;&gt;Node32</title>
<g id="a_edge34_Node000001_Node000032"><a xlink:title=" ">
<path fill="none" stroke="#63b8ff" d="M116.22,-90.63C129.42,-92.27 143.44,-94.02 156.55,-95.65"/>
<polygon fill="#63b8ff" stroke="#63b8ff" points="156.47,-99.17 166.83,-96.93 157.34,-92.22 156.47,-99.17"/>
</a>
</g>
</g>
<!-- Node42 -->
<g id="Node000042" class="node">
<title>Node42</title>
<g id="a_Node000042"><a xlink:href="math__util_8c.html#a9092c945c52b3a3481228b2724991e3c" target="_top" xlink:title=" ">
<polygon fill="white" stroke="#666666" points="245,-36 180,-36 180,-17 245,-17 245,-36"/>
<text text-anchor="middle" x="212.5" y="-24" font-family="Helvetica,sans-Serif" font-size="10.00">vec3s_set</text>
</a>
</g>
</g>
<!-- Node1&#45;&gt;Node42 -->
<g id="edge51_Node000001_Node000042" class="edge">
<title>Node1&#45;&gt;Node42</title>
<g id="a_edge51_Node000001_Node000042"><a xlink:title=" ">
<path fill="none" stroke="#63b8ff" d="M84.53,-73.96C109.71,-64.55 148.4,-50.09 176.45,-39.6"/>
<polygon fill="#63b8ff" stroke="#63b8ff" points="177.75,-42.85 185.89,-36.07 175.3,-36.29 177.75,-42.85"/>
</a>
</g>
</g>
<!-- Node3 -->
<g id="Node000003" class="node">
<title>Node3</title>
<g id="a_Node000003"><a xlink:href="actors_8c.html#a39c023177b5a7686cdd1fc65b8b953e1" target="_top" xlink:title=" ">
<polygon fill="white" stroke="#666666" points="518,-298 456,-298 456,-279 518,-279 518,-298"/>
<text text-anchor="middle" x="487" y="-286" font-family="Helvetica,sans-Serif" font-size="10.00">actor_init</text>
</a>
</g>
</g>
<!-- Node2&#45;&gt;Node3 -->
<g id="edge2_Node000002_Node000003" class="edge">
<title>Node2&#45;&gt;Node3</title>
<g id="a_edge2_Node000002_Node000003"><a xlink:title=" ">
<path fill="none" stroke="#63b8ff" d="M273.3,-288.5C325.63,-288.5 400.19,-288.5 445.72,-288.5"/>
<polygon fill="#63b8ff" stroke="#63b8ff" points="445.8,-292 455.8,-288.5 445.8,-285 445.8,-292"/>
</a>
</g>
</g>
<!-- Node24 -->
<g id="Node000024" class="node">
<title>Node24</title>
<g id="a_Node000024"><a xlink:href="actors_8c.html#a0c9d11d8956bf92c32a5e9bafd7036e6" target="_top" xlink:title=" ">
<polygon fill="white" stroke="#666666" points="402,-378 311,-378 311,-359 402,-359 402,-378"/>
<text text-anchor="middle" x="356.5" y="-366" font-family="Helvetica,sans-Serif" font-size="10.00">func_8029E890</text>
</a>
</g>
</g>
<!-- Node2&#45;&gt;Node24 -->
<g id="edge23_Node000002_Node000024" class="edge">
<title>Node2&#45;&gt;Node24</title>
<g id="a_edge23_Node000002_Node000024"><a xlink:title=" ">
<path fill="none" stroke="#63b8ff" d="M230.63,-298.15C255.15,-311.96 300.47,-337.5 329.24,-353.71"/>
<polygon fill="#63b8ff" stroke="#63b8ff" points="327.88,-356.96 338.31,-358.82 331.32,-350.86 327.88,-356.96"/>
</a>
</g>
</g>
<!-- Node4 -->
<g id="Node000004" class="node">
<title>Node4</title>
<g id="a_Node000004"><a xlink:href="actors_8c.html#a1a9bccb586242555a9123ebd4ab70f2a" target="_top" xlink:title=" ">
<polygon fill="white" stroke="#666666" points="703.5,-365.5 571.5,-365.5 571.5,-335.5 703.5,-335.5 703.5,-365.5"/>
<text text-anchor="start" x="579.5" y="-353.5" font-family="Helvetica,sans-Serif" font-size="10.00">cleanup_red_and_green</text>
<text text-anchor="middle" x="637.5" y="-342.5" font-family="Helvetica,sans-Serif" font-size="10.00">_shells</text>
</a>
</g>
</g>
<!-- Node3&#45;&gt;Node4 -->
<g id="edge3_Node000003_Node000004" class="edge">
<title>Node3&#45;&gt;Node4</title>
<g id="a_edge3_Node000003_Node000004"><a xlink:title=" ">
<path fill="none" stroke="#63b8ff" d="M507.34,-298.05C523.82,-306.04 548.23,-317.55 570,-326.5 574.38,-328.3 578.95,-330.11 583.56,-331.87"/>
<polygon fill="#63b8ff" stroke="#63b8ff" points="582.41,-335.18 593.01,-335.42 584.88,-328.63 582.41,-335.18"/>
</a>
</g>
</g>
<!-- Node16 -->
<g id="Node000016" class="node">
<title>Node16</title>
<g id="a_Node000016"><a xlink:href="collision_8c.html#ad72fef3ffe32191d73b1822f512ebf3f" target="_top" xlink:title=" ">
<polygon fill="white" stroke="#666666" points="685,-317 590,-317 590,-298 685,-298 685,-317"/>
<text text-anchor="middle" x="637.5" y="-305" font-family="Helvetica,sans-Serif" font-size="10.00">func_802AAAAC</text>
</a>
</g>
</g>
<!-- Node3&#45;&gt;Node16 -->
<g id="edge15_Node000003_Node000016" class="edge">
<title>Node3&#45;&gt;Node16</title>
<g id="a_edge15_Node000003_Node000016"><a xlink:title=" ">
<path fill="none" stroke="#63b8ff" d="M518.05,-292.34C535.75,-294.61 558.72,-297.55 579.71,-300.23"/>
<polygon fill="#63b8ff" stroke="#63b8ff" points="579.46,-303.73 589.82,-301.53 580.35,-296.79 579.46,-303.73"/>
</a>
</g>
</g>
<!-- Node18 -->
<g id="Node000018" class="node">
<title>Node18</title>
<g id="a_Node000018"><a xlink:href="collision_8c.html#a365367628b7140a7a880beeecce9c305" target="_top" xlink:title=" ">
<polygon fill="white" stroke="#666666" points="864.5,-203 769.5,-203 769.5,-184 864.5,-184 864.5,-203"/>
<text text-anchor="middle" x="817" y="-191" font-family="Helvetica,sans-Serif" font-size="10.00">func_802ADDC8</text>
</a>
</g>
</g>
<!-- Node3&#45;&gt;Node18 -->
<g id="edge17_Node000003_Node000018" class="edge">
<title>Node3&#45;&gt;Node18</title>
<g id="a_edge17_Node000003_Node000018"><a xlink:title=" ">
<path fill="none" stroke="#63b8ff" d="M507.16,-278.92C523.54,-271.02 547.9,-259.94 570,-252.5 633.48,-231.14 708.62,-214.3 759.01,-204.16"/>
<polygon fill="#63b8ff" stroke="#63b8ff" points="759.93,-207.55 769.06,-202.16 758.57,-200.68 759.93,-207.55"/>
</a>
</g>
</g>
<!-- Node22 -->
<g id="Node000022" class="node">
<title>Node22</title>
<g id="a_Node000022"><a xlink:href="math__util_8c.html#af7b470ed76fce07b8042a47c96e5690b" target="_top" xlink:title=" ">
<polygon fill="white" stroke="#666666" points="691,-280 584,-280 584,-261 691,-261 691,-280"/>
<text text-anchor="middle" x="637.5" y="-268" font-family="Helvetica,sans-Serif" font-size="10.00">vec3f_copy_return</text>
</a>
</g>
</g>
<!-- Node3&#45;&gt;Node22 -->
<g id="edge21_Node000003_Node000022" class="edge">
<title>Node3&#45;&gt;Node22</title>
<g id="a_edge21_Node000003_Node000022"><a xlink:title=" ">
<path fill="none" stroke="#63b8ff" d="M518.05,-284.86C534.15,-282.91 554.59,-280.43 573.96,-278.08"/>
<polygon fill="#63b8ff" stroke="#63b8ff" points="574.45,-281.55 583.95,-276.87 573.6,-274.6 574.45,-281.55"/>
</a>
</g>
</g>
<!-- Node23 -->
<g id="Node000023" class="node">
<title>Node23</title>
<g id="a_Node000023"><a xlink:href="math__util_8c.html#a0e270ee67600c8c9c2f140c647d008a1" target="_top" xlink:title=" ">
<polygon fill="white" stroke="#666666" points="674.5,-204 600.5,-204 600.5,-185 674.5,-185 674.5,-204"/>
<text text-anchor="middle" x="637.5" y="-192" font-family="Helvetica,sans-Serif" font-size="10.00">vec3s_copy</text>
</a>
</g>
</g>
<!-- Node3&#45;&gt;Node23 -->
<g id="edge22_Node000003_Node000023" class="edge">
<title>Node3&#45;&gt;Node23</title>
<g id="a_edge22_Node000003_Node000023"><a xlink:title=" ">
<path fill="none" stroke="#63b8ff" d="M497.21,-278.63C511.53,-263.78 540.55,-235.62 570,-218.5 577.17,-214.33 585.18,-210.7 593.1,-207.6"/>
<polygon fill="#63b8ff" stroke="#63b8ff" points="594.46,-210.82 602.64,-204.09 592.05,-204.25 594.46,-210.82"/>
</a>
</g>
</g>
<!-- Node5 -->
<g id="Node000005" class="node">
<title>Node5</title>
<g id="a_Node000005"><a xlink:href="actors_8c.html#a694ec6ef7548b8618aeb35c038d3a9b9" target="_top" xlink:title=" ">
<polygon fill="white" stroke="#666666" points="858.5,-357 775.5,-357 775.5,-338 858.5,-338 858.5,-357"/>
<text text-anchor="middle" x="817" y="-345" font-family="Helvetica,sans-Serif" font-size="10.00">destroy_actor</text>
</a>
</g>
</g>
<!-- Node4&#45;&gt;Node5 -->
<g id="edge4_Node000004_Node000005" class="edge">
<title>Node4&#45;&gt;Node5</title>
<g id="a_edge4_Node000004_Node000005"><a xlink:title=" ">
<path fill="none" stroke="#63b8ff" d="M703.59,-349.4C723.97,-349.06 746.14,-348.68 765.37,-348.36"/>
<polygon fill="#63b8ff" stroke="#63b8ff" points="765.49,-351.85 775.43,-348.19 765.37,-344.86 765.49,-351.85"/>
</a>
</g>
</g>
<!-- Node15 -->
<g id="Node000015" class="node">
<title>Node15</title>
<g id="a_Node000015"><a xlink:href="code__80005FD0_8c.html#acb7b3d384c78d219f4b7040e78f6a2f2" target="_top" xlink:title=" ">
<polygon fill="white" stroke="#666666" points="893,-405.5 741,-405.5 741,-375.5 893,-375.5 893,-405.5"/>
<text text-anchor="start" x="749" y="-393.5" font-family="Helvetica,sans-Serif" font-size="10.00">remove_actor_in_unexpired</text>
<text text-anchor="middle" x="817" y="-382.5" font-family="Helvetica,sans-Serif" font-size="10.00">_actor_list</text>
</a>
</g>
</g>
<!-- Node4&#45;&gt;Node15 -->
<g id="edge14_Node000004_Node000015" class="edge">
<title>Node4&#45;&gt;Node15</title>
<g id="a_edge14_Node000004_Node000015"><a xlink:title=" ">
<path fill="none" stroke="#63b8ff" d="M703.59,-365.17C715.26,-367.8 727.52,-370.56 739.48,-373.26"/>
<polygon fill="#63b8ff" stroke="#63b8ff" points="738.91,-376.72 749.43,-375.5 740.45,-369.89 738.91,-376.72"/>
</a>
</g>
</g>
<!-- Node6 -->
<g id="Node000006" class="node">
<title>Node6</title>
<g id="a_Node000006"><a xlink:href="actors_8c.html#a15517665ab054722a5c980c0f1008cd0" target="_top" xlink:title=" ">
<polygon fill="white" stroke="#666666" points="1022,-400 929,-400 929,-381 1022,-381 1022,-400"/>
<text text-anchor="middle" x="975.5" y="-388" font-family="Helvetica,sans-Serif" font-size="10.00">func_8029E7DC</text>
</a>
</g>
</g>
<!-- Node5&#45;&gt;Node6 -->
<g id="edge5_Node000005_Node000006" class="edge">
<title>Node5&#45;&gt;Node6</title>
<g id="a_edge5_Node000005_Node000006"><a xlink:title=" ">
<path fill="none" stroke="#63b8ff" d="M857,-357.08C868.61,-360.01 881.34,-363.31 893,-366.5 906.26,-370.13 920.68,-374.3 933.64,-378.14"/>
<polygon fill="#63b8ff" stroke="#63b8ff" points="932.65,-381.49 943.23,-380.99 934.64,-374.78 932.65,-381.49"/>
</a>
</g>
</g>
<!-- Node7 -->
<g id="Node000007" class="node">
<title>Node7</title>
<g id="a_Node000007"><a xlink:href="external_8c.html#ae72057869772019e4464c87d4e16c682" target="_top" xlink:title=" ">
<polygon fill="white" stroke="#666666" points="1150,-400 1058,-400 1058,-381 1150,-381 1150,-400"/>
<text text-anchor="middle" x="1104" y="-388" font-family="Helvetica,sans-Serif" font-size="10.00">func_800C99E0</text>
</a>
</g>
</g>
<!-- Node6&#45;&gt;Node7 -->
<g id="edge6_Node000006_Node000007" class="edge">
<title>Node6&#45;&gt;Node7</title>
<g id="a_edge6_Node000006_Node000007"><a xlink:title=" ">
<path fill="none" stroke="#63b8ff" d="M1022.17,-390.5C1030.42,-390.5 1039.11,-390.5 1047.6,-390.5"/>
<polygon fill="#63b8ff" stroke="#63b8ff" points="1047.82,-394 1057.82,-390.5 1047.82,-387 1047.82,-394"/>
</a>
</g>
</g>
<!-- Node8 -->
<g id="Node000008" class="node">
<title>Node8</title>
<g id="a_Node000008"><a xlink:href="external_8c.html#aeb87c527482a244173df36a1f3d4f446" target="_top" xlink:title=" ">
<polygon fill="white" stroke="#666666" points="1278,-419 1186,-419 1186,-400 1278,-400 1278,-419"/>
<text text-anchor="middle" x="1232" y="-407" font-family="Helvetica,sans-Serif" font-size="10.00">func_800C21E8</text>
</a>
</g>
</g>
<!-- Node7&#45;&gt;Node8 -->
<g id="edge7_Node000007_Node000008" class="edge">
<title>Node7&#45;&gt;Node8</title>
<g id="a_edge7_Node000007_Node000008"><a xlink:title=" ">
<path fill="none" stroke="#63b8ff" d="M1150.13,-397.31C1158.46,-398.56 1167.23,-399.88 1175.81,-401.18"/>
<polygon fill="#63b8ff" stroke="#63b8ff" points="1175.35,-404.65 1185.76,-402.68 1176.39,-397.73 1175.35,-404.65"/>
</a>
</g>
</g>
<!-- Node9 -->
<g id="Node000009" class="node">
<title>Node9</title>
<g id="a_Node000009"><a xlink:href="external_8c.html#a028d40421b90c38f68ebfd5acc626f2e" target="_top" xlink:title=" ">
<polygon fill="white" stroke="#666666" points="1278,-382 1186,-382 1186,-363 1278,-363 1278,-382"/>
<text text-anchor="middle" x="1232" y="-370" font-family="Helvetica,sans-Serif" font-size="10.00">func_800C5578</text>
</a>
</g>
</g>
<!-- Node7&#45;&gt;Node9 -->
<g id="edge8_Node000007_Node000009" class="edge">
<title>Node7&#45;&gt;Node9</title>
<g id="a_edge8_Node000007_Node000009"><a xlink:title=" ">
<path fill="none" stroke="#63b8ff" d="M1150.13,-384.05C1158.46,-382.86 1167.23,-381.61 1175.81,-380.38"/>
<polygon fill="#63b8ff" stroke="#63b8ff" points="1176.35,-383.84 1185.76,-378.96 1175.36,-376.91 1176.35,-383.84"/>
</a>
</g>
</g>
<!-- Node10 -->
<g id="Node000010" class="node">
<title>Node10</title>
<g id="a_Node000010"><a xlink:href="external_8c.html#ac0fb767de7e14a03f1bcfa53f0abd23b" target="_top" xlink:title=" ">
<polygon fill="white" stroke="#666666" points="1454,-419 1314,-419 1314,-400 1454,-400 1454,-419"/>
<text text-anchor="middle" x="1384" y="-407" font-family="Helvetica,sans-Serif" font-size="10.00">delete_sound_from_bank</text>
</a>
</g>
</g>
<!-- Node9&#45;&gt;Node10 -->
<g id="edge9_Node000009_Node000010" class="edge">
<title>Node9&#45;&gt;Node10</title>
<g id="a_edge9_Node000009_Node000010"><a xlink:title=" ">
<path fill="none" stroke="#63b8ff" d="M1271.63,-382.03C1290.8,-386.76 1314.16,-392.52 1334.52,-397.54"/>
<polygon fill="#63b8ff" stroke="#63b8ff" points="1333.69,-400.94 1344.24,-399.94 1335.37,-394.15 1333.69,-400.94"/>
</a>
</g>
</g>
<!-- Node12 -->
<g id="Node000012" class="node">
<title>Node12</title>
<g id="a_Node000012"><a xlink:href="external_8c.html#ab83bd36e63f0f1baddcb2482b5ad31b0" target="_top" xlink:title=" ">
<polygon fill="white" stroke="#666666" points="1430.5,-382 1337.5,-382 1337.5,-363 1430.5,-363 1430.5,-382"/>
<text text-anchor="middle" x="1384" y="-370" font-family="Helvetica,sans-Serif" font-size="10.00">func_800C41CC</text>
</a>
</g>
</g>
<!-- Node9&#45;&gt;Node12 -->
<g id="edge11_Node000009_Node000012" class="edge">
<title>Node9&#45;&gt;Node12</title>
<g id="a_edge11_Node000009_Node000012"><a xlink:title=" ">
<path fill="none" stroke="#63b8ff" d="M1278,-372.5C1293.37,-372.5 1310.74,-372.5 1326.86,-372.5"/>
<polygon fill="#63b8ff" stroke="#63b8ff" points="1327.25,-376 1337.25,-372.5 1327.25,-369 1327.25,-376"/>
</a>
</g>
</g>
<!-- Node13 -->
<g id="Node000013" class="node">
<title>Node13</title>
<g id="a_Node000013"><a xlink:href="port__eu_8c.html#aa89dfaecca46c6d071f08c1898d1f7c9" target="_top" xlink:title=" ">
<polygon fill="white" stroke="#666666" points="1430.5,-345 1337.5,-345 1337.5,-326 1430.5,-326 1430.5,-345"/>
<text text-anchor="middle" x="1384" y="-333" font-family="Helvetica,sans-Serif" font-size="10.00">func_800CBBE8</text>
</a>
</g>
</g>
<!-- Node9&#45;&gt;Node13 -->
<g id="edge12_Node000009_Node000013" class="edge">
<title>Node9&#45;&gt;Node13</title>
<g id="a_edge12_Node000009_Node000013"><a xlink:title=" ">
<path fill="none" stroke="#63b8ff" d="M1271.63,-362.97C1290.8,-358.24 1314.16,-352.48 1334.52,-347.46"/>
<polygon fill="#63b8ff" stroke="#63b8ff" points="1335.37,-350.85 1344.24,-345.06 1333.69,-344.06 1335.37,-350.85"/>
</a>
</g>
</g>
<!-- Node11 -->
<g id="Node000011" class="node">
<title>Node11</title>
<g id="a_Node000011"><a xlink:href="external_8c.html#a358ac55e8ab5262dcae8037334be06d7" target="_top" xlink:title=" ">
<polygon fill="white" stroke="#666666" points="1582.5,-419 1490.5,-419 1490.5,-400 1582.5,-400 1582.5,-419"/>
<text text-anchor="middle" x="1536.5" y="-407" font-family="Helvetica,sans-Serif" font-size="10.00">func_800C40F0</text>
</a>
</g>
</g>
<!-- Node10&#45;&gt;Node11 -->
<g id="edge10_Node000010_Node000011" class="edge">
<title>Node10&#45;&gt;Node11</title>
<g id="a_edge10_Node000010_Node000011"><a xlink:title=" ">
<path fill="none" stroke="#63b8ff" d="M1454.08,-409.5C1462.87,-409.5 1471.78,-409.5 1480.31,-409.5"/>
<polygon fill="#63b8ff" stroke="#63b8ff" points="1480.5,-413 1490.5,-409.5 1480.5,-406 1480.5,-413"/>
</a>
</g>
</g>
<!-- Node14 -->
<g id="Node000014" class="node">
<title>Node14</title>
<g id="a_Node000014"><a xlink:href="port__eu_8c.html#af361a20d2e08f30c53a237ca481ff734" target="_top" xlink:title=" ">
<polygon fill="white" stroke="#666666" points="1583,-345 1490,-345 1490,-326 1583,-326 1583,-345"/>
<text text-anchor="middle" x="1536.5" y="-333" font-family="Helvetica,sans-Serif" font-size="10.00">func_800CBB48</text>
</a>
</g>
</g>
<!-- Node13&#45;&gt;Node14 -->
<g id="edge13_Node000013_Node000014" class="edge">
<title>Node13&#45;&gt;Node14</title>
<g id="a_edge13_Node000013_Node000014"><a xlink:title=" ">
<path fill="none" stroke="#63b8ff" d="M1430.56,-335.5C1445.96,-335.5 1463.34,-335.5 1479.46,-335.5"/>
<polygon fill="#63b8ff" stroke="#63b8ff" points="1479.83,-339 1489.83,-335.5 1479.83,-332 1479.83,-339"/>
</a>
</g>
</g>
<!-- Node17 -->
<g id="Node000017" class="node">
<title>Node17</title>
<g id="a_Node000017"><a xlink:href="math__util_8c.html#a79fd07a0971ec96a3ff0801963a2fa7f" target="_top" xlink:title=" ">
<polygon fill="white" stroke="#666666" points="849,-317 785,-317 785,-298 849,-298 849,-317"/>
<text text-anchor="middle" x="817" y="-305" font-family="Helvetica,sans-Serif" font-size="10.00">vec3f_set</text>
</a>
</g>
</g>
<!-- Node16&#45;&gt;Node17 -->
<g id="edge16_Node000016_Node000017" class="edge">
<title>Node16&#45;&gt;Node17</title>
<g id="a_edge16_Node000016_Node000017"><a xlink:title=" ">
<path fill="none" stroke="#63b8ff" d="M685.14,-307.5C712.88,-307.5 747.78,-307.5 774.56,-307.5"/>
<polygon fill="#63b8ff" stroke="#63b8ff" points="774.76,-311 784.76,-307.5 774.76,-304 774.76,-311"/>
</a>
</g>
</g>
<!-- Node19 -->
<g id="Node000019" class="node">
<title>Node19</title>
<g id="a_Node000019"><a xlink:href="collision_8c.html#afce45acb8da354da0a5b501003be1aef" target="_top" xlink:title=" ">
<polygon fill="white" stroke="#666666" points="1022,-166 929,-166 929,-147 1022,-147 1022,-166"/>
<text text-anchor="middle" x="975.5" y="-154" font-family="Helvetica,sans-Serif" font-size="10.00">func_802AAE4C</text>
</a>
</g>
</g>
<!-- Node18&#45;&gt;Node19 -->
<g id="edge18_Node000018_Node000019" class="edge">
<title>Node18&#45;&gt;Node19</title>
<g id="a_edge18_Node000018_Node000019"><a xlink:title=" ">
<path fill="none" stroke="#63b8ff" d="M858.3,-183.97C878.4,-179.22 902.89,-173.43 924.21,-168.39"/>
<polygon fill="#63b8ff" stroke="#63b8ff" points="925.14,-171.77 934.06,-166.06 923.53,-164.96 925.14,-171.77"/>
</a>
</g>
</g>
<!-- Node20 -->
<g id="Node000020" class="node">
<title>Node20</title>
<g id="a_Node000020"><a xlink:href="collision_8c.html#adcc608ea0eae3bf9a27ab79ec64b4899" target="_top" xlink:title=" ">
<polygon fill="white" stroke="#666666" points="1021.5,-240 929.5,-240 929.5,-221 1021.5,-221 1021.5,-240"/>
<text text-anchor="middle" x="975.5" y="-228" font-family="Helvetica,sans-Serif" font-size="10.00">func_802AB288</text>
</a>
</g>
</g>
<!-- Node18&#45;&gt;Node20 -->
<g id="edge19_Node000018_Node000020" class="edge">
<title>Node18&#45;&gt;Node20</title>
<g id="a_edge19_Node000018_Node000020"><a xlink:title=" ">
<path fill="none" stroke="#63b8ff" d="M858.3,-203.03C878.4,-207.78 902.89,-213.57 924.21,-218.61"/>
<polygon fill="#63b8ff" stroke="#63b8ff" points="923.53,-222.04 934.06,-220.94 925.14,-215.23 923.53,-222.04"/>
</a>
</g>
</g>
<!-- Node21 -->
<g id="Node000021" class="node">
<title>Node21</title>
<g id="a_Node000021"><a xlink:href="collision_8c.html#ab440aa3fc960b7b4b5ad8e4bcaa06b00" target="_top" xlink:title=" ">
<polygon fill="white" stroke="#666666" points="1022,-203 929,-203 929,-184 1022,-184 1022,-203"/>
<text text-anchor="middle" x="975.5" y="-191" font-family="Helvetica,sans-Serif" font-size="10.00">func_802AB6C4</text>
</a>
</g>
</g>
<!-- Node18&#45;&gt;Node21 -->
<g id="edge20_Node000018_Node000021" class="edge">
<title>Node18&#45;&gt;Node21</title>
<g id="a_edge20_Node000018_Node000021"><a xlink:title=" ">
<path fill="none" stroke="#63b8ff" d="M864.53,-193.5C881.55,-193.5 900.99,-193.5 918.73,-193.5"/>
<polygon fill="#63b8ff" stroke="#63b8ff" points="918.96,-197 928.96,-193.5 918.96,-190 918.96,-197"/>
</a>
</g>
</g>
<!-- Node24&#45;&gt;Node3 -->
<g id="edge24_Node000024_Node000003" class="edge">
<title>Node24&#45;&gt;Node3</title>
<g id="a_edge24_Node000024_Node000003"><a xlink:title=" ">
<path fill="none" stroke="#63b8ff" d="M373,-358.85C395.09,-345.1 435.84,-319.73 461.9,-303.51"/>
<polygon fill="#63b8ff" stroke="#63b8ff" points="463.81,-306.44 470.44,-298.18 460.11,-300.5 463.81,-306.44"/>
</a>
</g>
</g>
<!-- Node24&#45;&gt;Node6 -->
<g id="edge25_Node000024_Node000006" class="edge">
<title>Node24&#45;&gt;Node6</title>
<g id="a_edge25_Node000024_Node000006"><a xlink:title=" ">
<path fill="none" stroke="#63b8ff" d="M391.78,-378.04C406.52,-381.82 424,-385.89 440,-388.5 639.02,-421.03 693.4,-443.28 893,-414.5 908.39,-412.28 924.92,-407.82 939.05,-403.34"/>
<polygon fill="#63b8ff" stroke="#63b8ff" points="940.46,-406.56 948.86,-400.11 938.27,-399.91 940.46,-406.56"/>
</a>
</g>
</g>
<!-- Node24&#45;&gt;Node15 -->
<g id="edge26_Node000024_Node000015" class="edge">
<title>Node24&#45;&gt;Node15</title>
<g id="a_edge26_Node000024_Node000015"><a xlink:title=" ">
<path fill="none" stroke="#63b8ff" d="M402.3,-370.65C478.25,-374.29 633.5,-381.74 730.72,-386.41"/>
<polygon fill="#63b8ff" stroke="#63b8ff" points="730.66,-389.91 740.82,-386.89 731,-382.92 730.66,-389.91"/>
</a>
</g>
</g>
<!-- Node26 -->
<g id="Node000026" class="node">
<title>Node26</title>
<g id="a_Node000026"><a xlink:href="code__80005FD0_8c.html#ac0d96d9d8c5772c7fe5edbb8da736086" target="_top" xlink:title=" ">
<polygon fill="white" stroke="#666666" points="533,-56 441,-56 441,-37 533,-37 533,-56"/>
<text text-anchor="middle" x="487" y="-44" font-family="Helvetica,sans-Serif" font-size="10.00">func_80005FD0</text>
</a>
</g>
</g>
<!-- Node25&#45;&gt;Node26 -->
<g id="edge28_Node000025_Node000026" class="edge">
<title>Node25&#45;&gt;Node26</title>
<g id="a_edge28_Node000025_Node000026"><a xlink:title=" ">
<path fill="none" stroke="#63b8ff" d="M404.25,-46.5C412.82,-46.5 421.83,-46.5 430.61,-46.5"/>
<polygon fill="#63b8ff" stroke="#63b8ff" points="430.78,-50 440.78,-46.5 430.78,-43 430.78,-50"/>
</a>
</g>
</g>
<!-- Node30 -->
<g id="Node000030" class="node">
<title>Node30</title>
<g id="a_Node000030"><a xlink:href="code__80005FD0_8c.html#a4047ab6e0dd92db5e168ed0cb8627f06" target="_top" xlink:title=" ">
<polygon fill="white" stroke="#666666" points="533,-19 441,-19 441,0 533,0 533,-19"/>
<text text-anchor="middle" x="487" y="-7" font-family="Helvetica,sans-Serif" font-size="10.00">func_8000D100</text>
</a>
</g>
</g>
<!-- Node25&#45;&gt;Node30 -->
<g id="edge32_Node000025_Node000030" class="edge">
<title>Node25&#45;&gt;Node30</title>
<g id="a_edge32_Node000025_Node000030"><a xlink:title=" ">
<path fill="none" stroke="#63b8ff" d="M390.59,-36.97C406.51,-32.39 425.78,-26.84 442.83,-21.93"/>
<polygon fill="#63b8ff" stroke="#63b8ff" points="443.93,-25.26 452.57,-19.12 442,-18.53 443.93,-25.26"/>
</a>
</g>
</g>
<!-- Node31 -->
<g id="Node000031" class="node">
<title>Node31</title>
<g id="a_Node000031"><a xlink:href="math_8h.html#a37bde043e94a6f074c78f10518fb5d99" target="_top" xlink:title=" ">
<polygon fill="white" stroke="#666666" points="506.5,-93 467.5,-93 467.5,-74 506.5,-74 506.5,-93"/>
<text text-anchor="middle" x="487" y="-81" font-family="Helvetica,sans-Serif" font-size="10.00">sqrtf</text>
</a>
</g>
</g>
<!-- Node25&#45;&gt;Node31 -->
<g id="edge33_Node000025_Node000031" class="edge">
<title>Node25&#45;&gt;Node31</title>
<g id="a_edge33_Node000025_Node000031"><a xlink:title=" ">
<path fill="none" stroke="#63b8ff" d="M390.59,-56.03C411.36,-62.01 437.86,-69.64 457.66,-75.34"/>
<polygon fill="#63b8ff" stroke="#63b8ff" points="456.76,-78.72 467.34,-78.13 458.7,-72 456.76,-78.72"/>
</a>
</g>
</g>
<!-- Node27 -->
<g id="Node000027" class="node">
<title>Node27</title>
<g id="a_Node000027"><a xlink:href="math__util_8c.html#a84cf9d4ec33146a64c230ed4cec56632" target="_top" xlink:title=" ">
<polygon fill="white" stroke="#666666" points="705,-55.5 570,-55.5 570,-25.5 705,-25.5 705,-55.5"/>
<text text-anchor="start" x="578" y="-43.5" font-family="Helvetica,sans-Serif" font-size="10.00">get_angle_between_two</text>
<text text-anchor="middle" x="637.5" y="-32.5" font-family="Helvetica,sans-Serif" font-size="10.00">_vectors</text>
</a>
</g>
</g>
<!-- Node26&#45;&gt;Node27 -->
<g id="edge29_Node000026_Node000027" class="edge">
<title>Node26&#45;&gt;Node27</title>
<g id="a_edge29_Node000026_Node000027"><a xlink:title=" ">
<path fill="none" stroke="#63b8ff" d="M533.36,-44.67C541.73,-44.33 550.67,-43.97 559.67,-43.6"/>
<polygon fill="#63b8ff" stroke="#63b8ff" points="559.97,-47.1 569.82,-43.19 559.69,-40.1 559.97,-47.1"/>
</a>
</g>
</g>
<!-- Node28 -->
<g id="Node000028" class="node">
<title>Node28</title>
<g id="a_Node000028"><a xlink:href="math__util_8c.html#aaa39a297477f56051975259f4bddd829" target="_top" xlink:title=" ">
<polygon fill="white" stroke="#666666" points="842,-50 792,-50 792,-31 842,-31 842,-50"/>
<text text-anchor="middle" x="817" y="-38" font-family="Helvetica,sans-Serif" font-size="10.00">atan2s</text>
</a>
</g>
</g>
<!-- Node27&#45;&gt;Node28 -->
<g id="edge30_Node000027_Node000028" class="edge">
<title>Node27&#45;&gt;Node28</title>
<g id="a_edge30_Node000027_Node000028"><a xlink:title=" ">
<path fill="none" stroke="#63b8ff" d="M705.1,-40.5C731.14,-40.5 759.89,-40.5 781.6,-40.5"/>
<polygon fill="#63b8ff" stroke="#63b8ff" points="781.64,-44 791.64,-40.5 781.64,-37 781.64,-44"/>
</a>
</g>
</g>
<!-- Node29 -->
<g id="Node000029" class="node">
<title>Node29</title>
<g id="a_Node000029"><a xlink:href="math__util_8c.html#a0273b0ea0783a06996c28669a7438ed9" target="_top" xlink:title=" ">
<polygon fill="white" stroke="#666666" points="1016.5,-50 934.5,-50 934.5,-31 1016.5,-31 1016.5,-50"/>
<text text-anchor="middle" x="975.5" y="-38" font-family="Helvetica,sans-Serif" font-size="10.00">atan2_lookup</text>
</a>
</g>
</g>
<!-- Node28&#45;&gt;Node29 -->
<g id="edge31_Node000028_Node000029" class="edge">
<title>Node28&#45;&gt;Node29</title>
<g id="a_edge31_Node000028_Node000029"><a xlink:title=" ">
<path fill="none" stroke="#63b8ff" d="M842.11,-40.5C863.85,-40.5 896.54,-40.5 923.99,-40.5"/>
<polygon fill="#63b8ff" stroke="#63b8ff" points="924.22,-44 934.22,-40.5 924.22,-37 924.22,-44"/>
</a>
</g>
</g>
<!-- Node33 -->
<g id="Node000033" class="node">
<title>Node33</title>
<g id="a_Node000033"><a xlink:href="code__80005FD0_8c.html#aa39e2aaaacd04e16311cb002a50102f2" target="_top" xlink:title=" ">
<polygon fill="white" stroke="#666666" points="403.5,-93 309.5,-93 309.5,-74 403.5,-74 403.5,-93"/>
<text text-anchor="middle" x="356.5" y="-81" font-family="Helvetica,sans-Serif" font-size="10.00">func_8000D6D0</text>
</a>
</g>
</g>
<!-- Node32&#45;&gt;Node33 -->
<g id="edge35_Node000032_Node000033" class="edge">
<title>Node32&#45;&gt;Node33</title>
<g id="a_edge35_Node000032_Node000033"><a xlink:title=" ">
<path fill="none" stroke="#63b8ff" d="M258.04,-96.54C271,-94.81 285.34,-92.89 298.94,-91.07"/>
<polygon fill="#63b8ff" stroke="#63b8ff" points="299.71,-94.5 309.16,-89.7 298.78,-87.56 299.71,-94.5"/>
</a>
</g>
</g>
<!-- Node41 -->
<g id="Node000041" class="node">
<title>Node41</title>
<g id="a_Node000041"><a xlink:href="code__80005FD0_8c.html#a5a0e67ccde01cf1fb86f9fbd14161e4e" target="_top" xlink:title=" ">
<polygon fill="white" stroke="#666666" points="402.5,-130 310.5,-130 310.5,-111 402.5,-111 402.5,-130"/>
<text text-anchor="middle" x="356.5" y="-118" font-family="Helvetica,sans-Serif" font-size="10.00">func_8000D940</text>
</a>
</g>
</g>
<!-- Node32&#45;&gt;Node41 -->
<g id="edge46_Node000032_Node000041" class="edge">
<title>Node32&#45;&gt;Node41</title>
<g id="a_edge46_Node000032_Node000041"><a xlink:title=" ">
<path fill="none" stroke="#63b8ff" d="M258.04,-108.15C271.39,-109.84 286.2,-111.72 300.16,-113.48"/>
<polygon fill="#63b8ff" stroke="#63b8ff" points="299.78,-116.96 310.14,-114.75 300.66,-110.02 299.78,-116.96"/>
</a>
</g>
</g>
<!-- Node33&#45;&gt;Node26 -->
<g id="edge36_Node000033_Node000026" class="edge">
<title>Node33&#45;&gt;Node26</title>
<g id="a_edge36_Node000033_Node000026"><a xlink:title=" ">
<path fill="none" stroke="#63b8ff" d="M390.59,-73.97C406.51,-69.39 425.78,-63.84 442.83,-58.93"/>
<polygon fill="#63b8ff" stroke="#63b8ff" points="443.93,-62.26 452.57,-56.12 442,-55.53 443.93,-62.26"/>
</a>
</g>
</g>
<!-- Node33&#45;&gt;Node31 -->
<g id="edge45_Node000033_Node000031" class="edge">
<title>Node33&#45;&gt;Node31</title>
<g id="a_edge45_Node000033_Node000031"><a xlink:title=" ">
<path fill="none" stroke="#63b8ff" d="M403.53,-83.5C421.43,-83.5 441.4,-83.5 457.2,-83.5"/>
<polygon fill="#63b8ff" stroke="#63b8ff" points="457.39,-87 467.39,-83.5 457.39,-80 457.39,-87"/>
</a>
</g>
</g>
<!-- Node34 -->
<g id="Node000034" class="node">
<title>Node34</title>
<g id="a_Node000034"><a xlink:href="code__80005FD0_8c.html#a74ddc182369789b289326b99494d7e65" target="_top" xlink:title=" ">
<polygon fill="white" stroke="#666666" points="534,-167 440,-167 440,-148 534,-148 534,-167"/>
<text text-anchor="middle" x="487" y="-155" font-family="Helvetica,sans-Serif" font-size="10.00">func_8000BBD8</text>
</a>
</g>
</g>
<!-- Node33&#45;&gt;Node34 -->
<g id="edge37_Node000033_Node000034" class="edge">
<title>Node33&#45;&gt;Node34</title>
<g id="a_edge37_Node000033_Node000034"><a xlink:title=" ">
<path fill="none" stroke="#63b8ff" d="M386.48,-93.18C392.51,-95.78 398.65,-98.89 404,-102.5 423.02,-115.33 420.88,-126.81 440,-139.5 442.13,-140.91 444.38,-142.24 446.7,-143.48"/>
<polygon fill="#63b8ff" stroke="#63b8ff" points="445.34,-146.71 455.87,-147.85 448.35,-140.39 445.34,-146.71"/>
</a>
</g>
</g>
<!-- Node35 -->
<g id="Node000035" class="node">
<title>Node35</title>
<g id="a_Node000035"><a xlink:href="code__80005FD0_8c.html#aff1ba4b22fc22c38fcf28007ccaaa752" target="_top" xlink:title=" ">
<polygon fill="white" stroke="#666666" points="533.5,-130 440.5,-130 440.5,-111 533.5,-111 533.5,-130"/>
<text text-anchor="middle" x="487" y="-118" font-family="Helvetica,sans-Serif" font-size="10.00">func_8000D2B4</text>
</a>
</g>
</g>
<!-- Node33&#45;&gt;Node35 -->
<g id="edge38_Node000033_Node000035" class="edge">
<title>Node33&#45;&gt;Node35</title>
<g id="a_edge38_Node000033_Node000035"><a xlink:title=" ">
<path fill="none" stroke="#63b8ff" d="M390.59,-93.03C406.51,-97.61 425.78,-103.16 442.83,-108.07"/>
<polygon fill="#63b8ff" stroke="#63b8ff" points="442,-111.47 452.57,-110.88 443.93,-104.74 442,-111.47"/>
</a>
</g>
</g>
<!-- Node36 -->
<g id="Node000036" class="node">
<title>Node36</title>
<g id="a_Node000036"><a xlink:href="code__80005FD0_8c.html#a5e2697d9cd076588f22575cc1920497e" target="_top" xlink:title=" ">
<polygon fill="white" stroke="#666666" points="684.5,-167 590.5,-167 590.5,-148 684.5,-148 684.5,-167"/>
<text text-anchor="middle" x="637.5" y="-155" font-family="Helvetica,sans-Serif" font-size="10.00">func_8000C9DC</text>
</a>
</g>
</g>
<!-- Node35&#45;&gt;Node36 -->
<g id="edge39_Node000035_Node000036" class="edge">
<title>Node35&#45;&gt;Node36</title>
<g id="a_edge39_Node000035_Node000036"><a xlink:title=" ">
<path fill="none" stroke="#63b8ff" d="M526.24,-130.03C545.14,-134.74 568.13,-140.47 588.23,-145.47"/>
<polygon fill="#63b8ff" stroke="#63b8ff" points="587.58,-148.92 598.13,-147.94 589.27,-142.13 587.58,-148.92"/>
</a>
</g>
</g>
<!-- Node37 -->
<g id="Node000037" class="node">
<title>Node37</title>
<g id="a_Node000037"><a xlink:href="code__80005FD0_8c.html#a7d3c0ba065700817ec51167b24bb795e" target="_top" xlink:title=" ">
<polygon fill="white" stroke="#666666" points="683.5,-130 591.5,-130 591.5,-111 683.5,-111 683.5,-130"/>
<text text-anchor="middle" x="637.5" y="-118" font-family="Helvetica,sans-Serif" font-size="10.00">func_8000CBF8</text>
</a>
</g>
</g>
<!-- Node35&#45;&gt;Node37 -->
<g id="edge40_Node000035_Node000037" class="edge">
<title>Node35&#45;&gt;Node37</title>
<g id="a_edge40_Node000035_Node000037"><a xlink:title=" ">
<path fill="none" stroke="#63b8ff" d="M533.77,-120.5C548.8,-120.5 565.66,-120.5 581.32,-120.5"/>
<polygon fill="#63b8ff" stroke="#63b8ff" points="581.39,-124 591.39,-120.5 581.39,-117 581.39,-124"/>
</a>
</g>
</g>
<!-- Node38 -->
<g id="Node000038" class="node">
<title>Node38</title>
<g id="a_Node000038"><a xlink:href="code__80005FD0_8c.html#aae3d2d6e27d79a30dfe68c64e771b5b1" target="_top" xlink:title=" ">
<polygon fill="white" stroke="#666666" points="684,-93 591,-93 591,-74 684,-74 684,-93"/>
<text text-anchor="middle" x="637.5" y="-81" font-family="Helvetica,sans-Serif" font-size="10.00">func_8000D24C</text>
</a>
</g>
</g>
<!-- Node35&#45;&gt;Node38 -->
<g id="edge41_Node000035_Node000038" class="edge">
<title>Node35&#45;&gt;Node38</title>
<g id="a_edge41_Node000035_Node000038"><a xlink:title=" ">
<path fill="none" stroke="#63b8ff" d="M526.24,-110.97C545.14,-106.26 568.13,-100.53 588.23,-95.53"/>
<polygon fill="#63b8ff" stroke="#63b8ff" points="589.27,-98.87 598.13,-93.06 587.58,-92.08 589.27,-98.87"/>
</a>
</g>
</g>
<!-- Node38&#45;&gt;Node18 -->
<g id="edge44_Node000038_Node000018" class="edge">
<title>Node38&#45;&gt;Node18</title>
<g id="a_edge44_Node000038_Node000018"><a xlink:title=" ">
<path fill="none" stroke="#63b8ff" d="M683.34,-93.12C690.83,-95.61 698.32,-98.7 705,-102.5 724.13,-113.39 724.22,-122.27 741,-136.5 758.31,-151.18 778.89,-166.69 794.11,-177.82"/>
<polygon fill="#63b8ff" stroke="#63b8ff" points="792.24,-180.79 802.39,-183.83 796.35,-175.12 792.24,-180.79"/>
</a>
</g>
</g>
<!-- Node39 -->
<g id="Node000039" class="node">
<title>Node39</title>
<g id="a_Node000039"><a xlink:href="code__80005FD0_8c.html#a49d61a10af04072545a1a7d7ab83fd1f" target="_top" xlink:title=" ">
<polygon fill="white" stroke="#666666" points="863.5,-127 770.5,-127 770.5,-108 863.5,-108 863.5,-127"/>
<text text-anchor="middle" x="817" y="-115" font-family="Helvetica,sans-Serif" font-size="10.00">func_8000C0BC</text>
</a>
</g>
</g>
<!-- Node38&#45;&gt;Node39 -->
<g id="edge42_Node000038_Node000039" class="edge">
<title>Node38&#45;&gt;Node39</title>
<g id="a_edge42_Node000038_Node000039"><a xlink:title=" ">
<path fill="none" stroke="#63b8ff" d="M684.21,-92.26C707.5,-96.72 736.01,-102.18 760.55,-106.88"/>
<polygon fill="#63b8ff" stroke="#63b8ff" points="759.96,-110.33 770.44,-108.77 761.28,-103.45 759.96,-110.33"/>
</a>
</g>
</g>
<!-- Node40 -->
<g id="Node000040" class="node">
<title>Node40</title>
<g id="a_Node000040"><a xlink:href="collision_8c.html#af3327ccb63774d1f6603c18d70097061" target="_top" xlink:title=" ">
<polygon fill="white" stroke="#666666" points="864,-90 770,-90 770,-71 864,-71 864,-90"/>
<text text-anchor="middle" x="817" y="-78" font-family="Helvetica,sans-Serif" font-size="10.00">func_802ABD40</text>
</a>
</g>
</g>
<!-- Node38&#45;&gt;Node40 -->
<g id="edge43_Node000038_Node000040" class="edge">
<title>Node38&#45;&gt;Node40</title>
<g id="a_edge43_Node000038_Node000040"><a xlink:title=" ">
<path fill="none" stroke="#63b8ff" d="M684.21,-82.73C707.22,-82.34 735.32,-81.86 759.65,-81.45"/>
<polygon fill="#63b8ff" stroke="#63b8ff" points="759.89,-84.95 769.83,-81.28 759.77,-77.95 759.89,-84.95"/>
</a>
</g>
</g>
<!-- Node41&#45;&gt;Node26 -->
<g id="edge47_Node000041_Node000026" class="edge">
<title>Node41&#45;&gt;Node26</title>
<g id="a_edge47_Node000041_Node000026"><a xlink:title=" ">
<path fill="none" stroke="#63b8ff" d="M387.99,-110.94C393.54,-108.59 399.11,-105.78 404,-102.5 423.32,-89.54 420.7,-77.5 440,-64.5 442.12,-63.07 444.36,-61.74 446.68,-60.49"/>
<polygon fill="#63b8ff" stroke="#63b8ff" points="448.34,-63.57 455.84,-56.09 445.31,-57.26 448.34,-63.57"/>
</a>
</g>
</g>
<!-- Node41&#45;&gt;Node31 -->
<g id="edge50_Node000041_Node000031" class="edge">
<title>Node41&#45;&gt;Node31</title>
<g id="a_edge50_Node000041_Node000031"><a xlink:title=" ">
<path fill="none" stroke="#63b8ff" d="M390.59,-110.97C411.36,-104.99 437.86,-97.36 457.66,-91.66"/>
<polygon fill="#63b8ff" stroke="#63b8ff" points="458.7,-95 467.34,-88.87 456.76,-88.28 458.7,-95"/>
</a>
</g>
</g>
<!-- Node41&#45;&gt;Node34 -->
<g id="edge48_Node000041_Node000034" class="edge">
<title>Node41&#45;&gt;Node34</title>
<g id="a_edge48_Node000041_Node000034"><a xlink:title=" ">
<path fill="none" stroke="#63b8ff" d="M390.59,-130.03C406.51,-134.61 425.78,-140.16 442.83,-145.07"/>
<polygon fill="#63b8ff" stroke="#63b8ff" points="442,-148.47 452.57,-147.88 443.93,-141.74 442,-148.47"/>
</a>
</g>
</g>
<!-- Node41&#45;&gt;Node35 -->
<g id="edge49_Node000041_Node000035" class="edge">
<title>Node41&#45;&gt;Node35</title>
<g id="a_edge49_Node000041_Node000035"><a xlink:title=" ">
<path fill="none" stroke="#63b8ff" d="M402.8,-120.5C411.62,-120.5 420.97,-120.5 430.08,-120.5"/>
<polygon fill="#63b8ff" stroke="#63b8ff" points="430.24,-124 440.24,-120.5 430.24,-117 430.24,-124"/>
</a>
</g>
</g>
</g>
</svg>

<g id="navigator" transform="translate(0 0)" fill="#404254">
  <rect fill="#f2f5e9" fill-opacity="0.5" stroke="#606060" stroke-width=".5" x="0" y="0" width="60" height="60"/>
  <use id="zoomplus" xlink:href="#zoomPlus" x="17" y="9" onmousedown="handleZoom(evt,'in')"/>
  <use id="zoomminus" xlink:href="#zoomMin" x="42" y="9" onmousedown="handleZoom(evt,'out')"/>
  <use id="reset" xlink:href="#resetDef" x="30" y="36" onmousedown="handleReset()"/>
   <use id="arrowup" xlink:href="#arrowUp" x="0" y="0" onmousedown="handlePan(0,-1)"/>
  <use id="arrowright" xlink:href="#arrowRight" x="0" y="0" onmousedown="handlePan(1,0)"/>
  <use id="arrowdown" xlink:href="#arrowDown" x="0" y="0" onmousedown="handlePan(0,1)"/>
  <use id="arrowleft" xlink:href="#arrowLeft" x="0" y="0" onmousedown="handlePan(-1,0)"/>
</g>
<svg viewBox="0 0 15 15" width="100%" height="30px" preserveAspectRatio="xMaxYMin meet">
 <g id="arrow_out" transform="scale(0.3 0.3)">
  <a xlink:href="code__80005FD0_8h_afd6fa1e9b8e8378fffcaa462fdc81ef6_cgraph_org.svg" target="_base">
   <rect id="button" ry="5" rx="5" y="6" x="6" height="38" width="38"
        fill="#f2f5e9" fill-opacity="0.5" stroke="#606060" stroke-width="1.0"/>
   <path id="arrow"
     d="M 11.500037,31.436501 C 11.940474,20.09759 22.043105,11.32322 32.158766,21.979434 L 37.068811,17.246167 C 37.068811,17.246167 37.088388,32 37.088388,32 L 22.160133,31.978069 C 22.160133,31.978069 26.997745,27.140456 26.997745,27.140456 C 18.528582,18.264221 13.291696,25.230495 11.500037,31.436501 z"
     style="fill:#404040;"/>
  </a>
 </g>
</svg>

<style type='text/css'>
<![CDATA[
[data-mouse-over-selected='false'] { opacity: 0.7; }
[data-mouse-over-selected='true']  { opacity: 1.0; }
]]>
</style>
<script type="application/ecmascript"><![CDATA[
document.addEventListener('DOMContentLoaded', (event) => {
  highlightEdges();
  highlightAdjacentNodes();
});
]]></script>
</svg>
