<?xml version="1.0" encoding="UTF-8" standalone="no"?>
<!DOCTYPE svg PUBLIC "-//W3C//DTD SVG 1.1//EN"
 "http://www.w3.org/Graphics/SVG/1.1/DTD/svg11.dtd">
<!-- Generated by graphviz version 2.43.0 (0)
 -->
<!-- Title: func_8000CBF8 Pages: 1 -->
<!--zoomable 436 -->

<svg id="main" version="1.1" xmlns="http://www.w3.org/2000/svg" xmlns:xlink="http://www.w3.org/1999/xlink" xml:space="preserve" onload="init(evt)">
<style type="text/css"><![CDATA[
.node, .edge {opacity: 0.7;}
.node.selected, .edge.selected {opacity: 1;}
.edge:hover path { stroke: red; }
.edge:hover polygon { stroke: red; fill: red; }
]]></style>

<defs>
  <circle id="rim" cx="0" cy="0" r="7"/>
  <circle id="rim2" cx="0" cy="0" r="3.5"/>
  <g id="zoomPlus">
    <use xlink:href="#rim" fill="#404040"><set attributeName="fill" to="#808080" begin="zoomplus.mouseover" end="zoomplus.mouseout"/></use>
    <path d="M-4,0h8M0,-4v8" fill="none" stroke="white" stroke-width="1.5" pointer-events="none"/>
  </g>
  <g id="zoomMin">
    <use xlink:href="#rim" fill="#404040"><set attributeName="fill" to="#808080" begin="zoomminus.mouseover" end="zoomminus.mouseout"/></use>
    <path d="M-4,0h8" fill="none" stroke="white" stroke-width="1.5" pointer-events="none"/>
  </g>
  <g id="arrowUp" transform="translate(30 24)">
    <use xlink:href="#rim"/>
    <path pointer-events="none" fill="none" stroke="white" stroke-width="1.5" d="M0,-3.0v7 M-2.5,-0.5L0,-3.0L2.5,-0.5"/>
  </g>
  <g id="arrowRight" transform="rotate(90) translate(36 -43)">
    <use xlink:href="#rim"/>
    <path pointer-events="none" fill="none" stroke="white" stroke-width="1.5" d="M0,-3.0v7 M-2.5,-0.5L0,-3.0L2.5,-0.5"/>
  </g>
  <g id="arrowDown" transform="rotate(180) translate(-30 -48)">
    <use xlink:href="#rim"/>
    <path pointer-events="none" fill="none" stroke="white" stroke-width="1.5" d="M0,-3.0v7 M-2.5,-0.5L0,-3.0L2.5,-0.5"/>
  </g>
  <g id="arrowLeft" transform="rotate(270) translate(-36 17)">
    <use xlink:href="#rim"/>
    <path pointer-events="none" fill="none" stroke="white" stroke-width="1.5" d="M0,-3.0v7 M-2.5,-0.5L0,-3.0L2.5,-0.5"/>
  </g>
  <g id="resetDef">
    <use xlink:href="#rim2" fill="#404040"><set attributeName="fill" to="#808080" begin="reset.mouseover" end="reset.mouseout"/></use>
  </g>
</defs>
<script type="application/ecmascript">
var viewWidth = 2054;
var viewHeight = 436;
var sectionId = 'dynsection-40';
</script>
<script type="application/ecmascript" xlink:href="svg.min.js"/>
<svg id="graph" class="graph">
<g id="viewport">
<title>func_8000CBF8</title>
<!-- Node1 -->
<g id="Node000001" class="node">
<title>Node1</title>
<g id="a_Node000001"><a xlink:title=" ">
<polygon fill="#999999" stroke="#666666" points="2046,-242 1954,-242 1954,-223 2046,-223 2046,-242"/>
<text text-anchor="middle" x="2000" y="-230" font-family="Helvetica,sans-Serif" font-size="10.00">func_8000CBF8</text>
</a>
</g>
</g>
<!-- Node2 -->
<g id="Node000002" class="node">
<title>Node2</title>
<g id="a_Node000002"><a xlink:href="code__80005FD0_8c.html#a3d324f572c792c0d1e5242d91e8e91f2" target="_top" xlink:title=" ">
<polygon fill="white" stroke="#666666" points="1918,-270 1825,-270 1825,-251 1918,-251 1918,-270"/>
<text text-anchor="middle" x="1871.5" y="-258" font-family="Helvetica,sans-Serif" font-size="10.00">func_8000CD24</text>
</a>
</g>
</g>
<!-- Node1&#45;&gt;Node2 -->
<g id="edge1_Node000001_Node000002" class="edge">
<title>Node1&#45;&gt;Node2</title>
<g id="a_edge1_Node000001_Node000002"><a xlink:title=" ">
<path fill="none" stroke="#63b8ff" d="M1945.85,-244.26C1935.73,-246.51 1925.25,-248.82 1915.49,-250.99"/>
<polygon fill="#63b8ff" stroke="#63b8ff" points="1946.81,-247.64 1955.82,-242.06 1945.3,-240.8 1946.81,-247.64"/>
</a>
</g>
</g>
<!-- Node4 -->
<g id="Node000004" class="node">
<title>Node4</title>
<g id="a_Node000004"><a xlink:href="code__80005FD0_8c.html#aff1ba4b22fc22c38fcf28007ccaaa752" target="_top" xlink:title=" ">
<polygon fill="white" stroke="#666666" points="1918,-224 1825,-224 1825,-205 1918,-205 1918,-224"/>
<text text-anchor="middle" x="1871.5" y="-212" font-family="Helvetica,sans-Serif" font-size="10.00">func_8000D2B4</text>
</a>
</g>
</g>
<!-- Node1&#45;&gt;Node4 -->
<g id="edge3_Node000001_Node000004" class="edge">
<title>Node1&#45;&gt;Node4</title>
<g id="a_edge3_Node000001_Node000004"><a xlink:title=" ">
<path fill="none" stroke="#63b8ff" d="M1943.55,-224.61C1935.14,-223.41 1926.53,-222.19 1918.35,-221.02"/>
<polygon fill="#63b8ff" stroke="#63b8ff" points="1943.29,-228.11 1953.69,-226.05 1944.28,-221.18 1943.29,-228.11"/>
</a>
</g>
</g>
<!-- Node3 -->
<g id="Node000003" class="node">
<title>Node3</title>
<g id="a_Node000003"><a xlink:href="code__80005FD0_8c.html#aebb583cea651e46979b4827eba66cbde" target="_top" xlink:title=" ">
<polygon fill="white" stroke="#666666" points="1787.5,-280 1696.5,-280 1696.5,-261 1787.5,-261 1787.5,-280"/>
<text text-anchor="middle" x="1742" y="-268" font-family="Helvetica,sans-Serif" font-size="10.00">func_800090F0</text>
</a>
</g>
</g>
<!-- Node2&#45;&gt;Node3 -->
<g id="edge2_Node000002_Node000003" class="edge">
<title>Node2&#45;&gt;Node3</title>
<g id="a_edge2_Node000002_Node000003"><a xlink:title=" ">
<path fill="none" stroke="#63b8ff" d="M1814.81,-264.87C1805.82,-265.57 1796.62,-266.29 1787.92,-266.98"/>
<polygon fill="#63b8ff" stroke="#63b8ff" points="1815.13,-268.35 1824.83,-264.08 1814.59,-261.37 1815.13,-268.35"/>
</a>
</g>
</g>
<!-- Node5 -->
<g id="Node000005" class="node">
<title>Node5</title>
<g id="a_Node000005"><a xlink:href="code__80005FD0_8c.html#aa39e2aaaacd04e16311cb002a50102f2" target="_top" xlink:title=" ">
<polygon fill="white" stroke="#666666" points="1789,-243 1695,-243 1695,-224 1789,-224 1789,-243"/>
<text text-anchor="middle" x="1742" y="-231" font-family="Helvetica,sans-Serif" font-size="10.00">func_8000D6D0</text>
</a>
</g>
</g>
<!-- Node4&#45;&gt;Node5 -->
<g id="edge4_Node000004_Node000005" class="edge">
<title>Node4&#45;&gt;Node5</title>
<g id="a_edge4_Node000004_Node000005"><a xlink:title=" ">
<path fill="none" stroke="#63b8ff" d="M1814.89,-222.79C1806.32,-224.06 1797.55,-225.37 1789.21,-226.61"/>
<polygon fill="#63b8ff" stroke="#63b8ff" points="1815.45,-226.24 1824.83,-221.31 1814.42,-219.32 1815.45,-226.24"/>
</a>
</g>
</g>
<!-- Node35 -->
<g id="Node000035" class="node">
<title>Node35</title>
<g id="a_Node000035"><a xlink:href="code__80005FD0_8c.html#a5a0e67ccde01cf1fb86f9fbd14161e4e" target="_top" xlink:title=" ">
<polygon fill="white" stroke="#666666" points="1788,-206 1696,-206 1696,-187 1788,-187 1788,-206"/>
<text text-anchor="middle" x="1742" y="-194" font-family="Helvetica,sans-Serif" font-size="10.00">func_8000D940</text>
</a>
</g>
</g>
<!-- Node4&#45;&gt;Node35 -->
<g id="edge45_Node000004_Node000035" class="edge">
<title>Node4&#45;&gt;Node35</title>
<g id="a_edge45_Node000004_Node000035"><a xlink:title=" ">
<path fill="none" stroke="#63b8ff" d="M1814.65,-206.61C1805.86,-205.37 1796.87,-204.1 1788.35,-202.9"/>
<polygon fill="#63b8ff" stroke="#63b8ff" points="1814.44,-210.12 1824.83,-208.05 1815.42,-203.19 1814.44,-210.12"/>
</a>
</g>
</g>
<!-- Node44 -->
<g id="Node000044" class="node">
<title>Node44</title>
<g id="a_Node000044"><a xlink:href="code__80005FD0_8c.html#ad7cfd2edb9055380080a6c1c577d042f" target="_top" xlink:title=" ">
<polygon fill="white" stroke="#666666" points="1788.5,-113 1695.5,-113 1695.5,-94 1788.5,-94 1788.5,-113"/>
<text text-anchor="middle" x="1742" y="-101" font-family="Helvetica,sans-Serif" font-size="10.00">func_8000DF8C</text>
</a>
</g>
</g>
<!-- Node4&#45;&gt;Node44 -->
<g id="edge62_Node000004_Node000044" class="edge">
<title>Node4&#45;&gt;Node44</title>
<g id="a_edge62_Node000004_Node000044"><a xlink:title=" ">
<path fill="none" stroke="#63b8ff" d="M1851.56,-198.01C1824.58,-174.52 1775.92,-132.16 1754.11,-113.17"/>
<polygon fill="#63b8ff" stroke="#63b8ff" points="1849.34,-200.72 1859.19,-204.65 1853.94,-195.44 1849.34,-200.72"/>
</a>
</g>
</g>
<!-- Node6 -->
<g id="Node000006" class="node">
<title>Node6</title>
<g id="a_Node000006"><a xlink:href="code__80005FD0_8c.html#a93313abf66f75a07eec17a337f7d9ba2" target="_top" xlink:title=" ">
<polygon fill="white" stroke="#666666" points="1642,-317 1551,-317 1551,-298 1642,-298 1642,-317"/>
<text text-anchor="middle" x="1596.5" y="-305" font-family="Helvetica,sans-Serif" font-size="10.00">func_80012220</text>
</a>
</g>
</g>
<!-- Node5&#45;&gt;Node6 -->
<g id="edge5_Node000005_Node000006" class="edge">
<title>Node5&#45;&gt;Node6</title>
<g id="a_edge5_Node000005_Node000006"><a xlink:title=" ">
<path fill="none" stroke="#63b8ff" d="M1703.65,-247.36C1700.64,-248.95 1697.72,-250.66 1695,-252.5 1676,-265.37 1678.66,-277.67 1659,-289.5 1653.38,-292.89 1647.08,-295.67 1640.72,-297.94"/>
<polygon fill="#63b8ff" stroke="#63b8ff" points="1705.29,-250.46 1712.82,-243.01 1702.28,-244.14 1705.29,-250.46"/>
</a>
</g>
</g>
<!-- Node15 -->
<g id="Node000015" class="node">
<title>Node15</title>
<g id="a_Node000015"><a xlink:href="code__80005FD0_8c.html#a81c4dea988ca9590da6176b35de2c37c" target="_top" xlink:title=" ">
<polygon fill="white" stroke="#666666" points="1642,-280 1551,-280 1551,-261 1642,-261 1642,-280"/>
<text text-anchor="middle" x="1596.5" y="-268" font-family="Helvetica,sans-Serif" font-size="10.00">func_800139E4</text>
</a>
</g>
</g>
<!-- Node5&#45;&gt;Node15 -->
<g id="edge14_Node000005_Node000015" class="edge">
<title>Node5&#45;&gt;Node15</title>
<g id="a_edge14_Node000005_Node000015"><a xlink:title=" ">
<path fill="none" stroke="#63b8ff" d="M1694.26,-245.55C1675,-250.52 1652.98,-256.19 1634.83,-260.88"/>
<polygon fill="#63b8ff" stroke="#63b8ff" points="1695.24,-248.91 1704.05,-243.03 1693.49,-242.14 1695.24,-248.91"/>
</a>
</g>
</g>
<!-- Node25 -->
<g id="Node000025" class="node">
<title>Node25</title>
<g id="a_Node000025"><a xlink:href="code__80005FD0_8c.html#aca890afb34ef4a0ef9b2a0397ea8cce3" target="_top" xlink:title=" ">
<polygon fill="white" stroke="#666666" points="1642.5,-206 1550.5,-206 1550.5,-187 1642.5,-187 1642.5,-206"/>
<text text-anchor="middle" x="1596.5" y="-194" font-family="Helvetica,sans-Serif" font-size="10.00">func_80013D20</text>
</a>
</g>
</g>
<!-- Node5&#45;&gt;Node25 -->
<g id="edge30_Node000005_Node000025" class="edge">
<title>Node5&#45;&gt;Node25</title>
<g id="a_edge30_Node000005_Node000025"><a xlink:title=" ">
<path fill="none" stroke="#63b8ff" d="M1694.26,-221.45C1675,-216.48 1652.98,-210.81 1634.83,-206.12"/>
<polygon fill="#63b8ff" stroke="#63b8ff" points="1693.49,-224.86 1704.05,-223.97 1695.24,-218.09 1693.49,-224.86"/>
</a>
</g>
</g>
<!-- Node7 -->
<g id="Node000007" class="node">
<title>Node7</title>
<g id="a_Node000007"><a xlink:href="code__80005FD0_8c.html#afd6fa1e9b8e8378fffcaa462fdc81ef6" target="_top" xlink:title=" ">
<polygon fill="white" stroke="#666666" points="1498,-428 1382,-428 1382,-409 1498,-409 1498,-428"/>
<text text-anchor="middle" x="1440" y="-416" font-family="Helvetica,sans-Serif" font-size="10.00">init_course_vehicles</text>
</a>
</g>
</g>
<!-- Node6&#45;&gt;Node7 -->
<g id="edge6_Node000006_Node000007" class="edge">
<title>Node6&#45;&gt;Node7</title>
<g id="a_edge6_Node000006_Node000007"><a xlink:title=" ">
<path fill="none" stroke="#63b8ff" d="M1581.63,-324.9C1564.19,-345.69 1532.34,-380.2 1498,-400.5 1492.37,-403.83 1486.06,-406.61 1479.75,-408.91"/>
<polygon fill="#63b8ff" stroke="#63b8ff" points="1584.34,-327.11 1587.99,-317.16 1578.94,-322.66 1584.34,-327.11"/>
</a>
</g>
</g>
<!-- Node8 -->
<g id="Node000008" class="node">
<title>Node8</title>
<g id="a_Node000008"><a xlink:href="actors_8c.html#a8ed0774c05b9577fcf2db1dd958941b1" target="_top" xlink:title=" ">
<polygon fill="white" stroke="#666666" points="1086,-390 960,-390 960,-371 1086,-371 1086,-390"/>
<text text-anchor="middle" x="1023" y="-378" font-family="Helvetica,sans-Serif" font-size="10.00">load_common_texture</text>
</a>
</g>
</g>
<!-- Node7&#45;&gt;Node8 -->
<g id="edge7_Node000007_Node000008" class="edge">
<title>Node7&#45;&gt;Node8</title>
<g id="a_edge7_Node000007_Node000008"><a xlink:title=" ">
<path fill="none" stroke="#63b8ff" d="M1371.4,-412.31C1292.38,-405.07 1162.67,-393.2 1086.09,-386.19"/>
<polygon fill="#63b8ff" stroke="#63b8ff" points="1371.45,-415.83 1381.73,-413.26 1372.09,-408.86 1371.45,-415.83"/>
</a>
</g>
</g>
<!-- Node9 -->
<g id="Node000009" class="node">
<title>Node9</title>
<g id="a_Node000009"><a xlink:href="code__800029B0_8c.html#aca6165112fc92e65ad6477e785a7098c" target="_top" xlink:title=" ">
<polygon fill="white" stroke="#666666" points="889,-353 819,-353 819,-334 889,-334 889,-353"/>
<text text-anchor="middle" x="854" y="-341" font-family="Helvetica,sans-Serif" font-size="10.00">setup_race</text>
</a>
</g>
</g>
<!-- Node8&#45;&gt;Node9 -->
<g id="edge8_Node000008_Node000009" class="edge">
<title>Node8&#45;&gt;Node9</title>
<g id="a_edge8_Node000008_Node000009"><a xlink:title=" ">
<path fill="none" stroke="#63b8ff" d="M969.22,-368.81C943.06,-363.01 912.22,-356.18 889.18,-351.07"/>
<polygon fill="#63b8ff" stroke="#63b8ff" points="968.47,-372.23 978.99,-370.97 969.99,-365.39 968.47,-372.23"/>
</a>
</g>
</g>
<!-- Node10 -->
<g id="Node000010" class="node">
<title>Node10</title>
<g id="a_Node000010"><a xlink:href="main_8c.html#ad0625ed56ac663d3ec7ae8f1ba50c735" target="_top" xlink:title=" ">
<polygon fill="white" stroke="#666666" points="748,-315 640,-315 640,-296 748,-296 748,-315"/>
<text text-anchor="middle" x="694" y="-303" font-family="Helvetica,sans-Serif" font-size="10.00">update_gamestate</text>
</a>
</g>
</g>
<!-- Node9&#45;&gt;Node10 -->
<g id="edge9_Node000009_Node000010" class="edge">
<title>Node9&#45;&gt;Node10</title>
<g id="a_edge9_Node000009_Node000010"><a xlink:title=" ">
<path fill="none" stroke="#63b8ff" d="M808.73,-332.85C785.42,-327.25 757.07,-320.43 734.51,-315"/>
<polygon fill="#63b8ff" stroke="#63b8ff" points="808.18,-336.32 818.72,-335.25 809.81,-329.51 808.18,-336.32"/>
</a>
</g>
</g>
<!-- Node11 -->
<g id="Node000011" class="node">
<title>Node11</title>
<g id="a_Node000011"><a xlink:href="main_8c.html#a633ed517e458daeb768f5361895dcac9" target="_top" xlink:title=" ">
<polygon fill="white" stroke="#666666" points="452,-207 339,-207 339,-188 452,-188 452,-207"/>
<text text-anchor="middle" x="395.5" y="-195" font-family="Helvetica,sans-Serif" font-size="10.00">thread5_game_loop</text>
</a>
</g>
</g>
<!-- Node10&#45;&gt;Node11 -->
<g id="edge10_Node000010_Node000011" class="edge">
<title>Node10&#45;&gt;Node11</title>
<g id="a_edge10_Node000010_Node000011"><a xlink:title=" ">
<path fill="none" stroke="#63b8ff" d="M657.18,-292.45C596.77,-270.45 476,-226.46 422.75,-207.06"/>
<polygon fill="#63b8ff" stroke="#63b8ff" points="656.09,-295.78 666.69,-295.92 658.49,-289.2 656.09,-295.78"/>
</a>
</g>
</g>
<!-- Node12 -->
<g id="Node000012" class="node">
<title>Node12</title>
<g id="a_Node000012"><a xlink:href="main_8c.html#a023b8f272e4efbd33f371e91ffff6b30" target="_top" xlink:title=" ">
<polygon fill="white" stroke="#666666" points="303,-207 217,-207 217,-188 303,-188 303,-207"/>
<text text-anchor="middle" x="260" y="-195" font-family="Helvetica,sans-Serif" font-size="10.00">thread3_video</text>
</a>
</g>
</g>
<!-- Node11&#45;&gt;Node12 -->
<g id="edge11_Node000011_Node000012" class="edge">
<title>Node11&#45;&gt;Node12</title>
<g id="a_edge11_Node000011_Node000012"><a xlink:title=" ">
<path fill="none" stroke="#63b8ff" d="M328.57,-197.5C319.94,-197.5 311.3,-197.5 303.21,-197.5"/>
<polygon fill="#63b8ff" stroke="#63b8ff" points="328.66,-201 338.66,-197.5 328.66,-194 328.66,-201"/>
</a>
</g>
</g>
<!-- Node13 -->
<g id="Node000013" class="node">
<title>Node13</title>
<g id="a_Node000013"><a xlink:href="main_8c.html#a1e35d2b842121e6aea373f09381616e5" target="_top" xlink:title=" ">
<polygon fill="white" stroke="#666666" points="181,-207 104,-207 104,-188 181,-188 181,-207"/>
<text text-anchor="middle" x="142.5" y="-195" font-family="Helvetica,sans-Serif" font-size="10.00">thread1_idle</text>
</a>
</g>
</g>
<!-- Node12&#45;&gt;Node13 -->
<g id="edge12_Node000012_Node000013" class="edge">
<title>Node12&#45;&gt;Node13</title>
<g id="a_edge12_Node000012_Node000013"><a xlink:title=" ">
<path fill="none" stroke="#63b8ff" d="M206.9,-197.5C198.2,-197.5 189.33,-197.5 181.09,-197.5"/>
<polygon fill="#63b8ff" stroke="#63b8ff" points="206.98,-201 216.98,-197.5 206.98,-194 206.98,-201"/>
</a>
</g>
</g>
<!-- Node14 -->
<g id="Node000014" class="node">
<title>Node14</title>
<g id="a_Node000014"><a xlink:href="main_8c.html#a4f87d43525fe95f60ea92bc8a3b70e62" target="_top" xlink:title=" ">
<polygon fill="white" stroke="#666666" points="68,-207 0,-207 0,-188 68,-188 68,-207"/>
<text text-anchor="middle" x="34" y="-195" font-family="Helvetica,sans-Serif" font-size="10.00">main_func</text>
</a>
</g>
</g>
<!-- Node13&#45;&gt;Node14 -->
<g id="edge13_Node000013_Node000014" class="edge">
<title>Node13&#45;&gt;Node14</title>
<g id="a_edge13_Node000013_Node000014"><a xlink:title=" ">
<path fill="none" stroke="#63b8ff" d="M93.95,-197.5C85.29,-197.5 76.44,-197.5 68.31,-197.5"/>
<polygon fill="#63b8ff" stroke="#63b8ff" points="93.95,-201 103.95,-197.5 93.95,-194 93.95,-201"/>
</a>
</g>
</g>
<!-- Node16 -->
<g id="Node000016" class="node">
<title>Node16</title>
<g id="a_Node000016"><a xlink:href="code__80005FD0_8c.html#a38ce2545c5f2c06a99d94d735f024fc0" target="_top" xlink:title=" ">
<polygon fill="white" stroke="#666666" points="1485.5,-317 1394.5,-317 1394.5,-298 1485.5,-298 1485.5,-317"/>
<text text-anchor="middle" x="1440" y="-305" font-family="Helvetica,sans-Serif" font-size="10.00">func_800147E0</text>
</a>
</g>
</g>
<!-- Node15&#45;&gt;Node16 -->
<g id="edge15_Node000015_Node000016" class="edge">
<title>Node15&#45;&gt;Node16</title>
<g id="a_edge15_Node000015_Node000016"><a xlink:title=" ">
<path fill="none" stroke="#63b8ff" d="M1545.7,-282.43C1524.75,-287.44 1500.69,-293.21 1480.92,-297.94"/>
<polygon fill="#63b8ff" stroke="#63b8ff" points="1546.8,-285.76 1555.71,-280.03 1545.17,-278.95 1546.8,-285.76"/>
</a>
</g>
</g>
<!-- Node22 -->
<g id="Node000022" class="node">
<title>Node22</title>
<g id="a_Node000022"><a xlink:href="code__80005FD0_8c.html#ad7ec44b95b034a1b04853213f1d928ca" target="_top" xlink:title=" ">
<polygon fill="white" stroke="#666666" points="1485.5,-280 1394.5,-280 1394.5,-261 1485.5,-261 1485.5,-280"/>
<text text-anchor="middle" x="1440" y="-268" font-family="Helvetica,sans-Serif" font-size="10.00">func_80014934</text>
</a>
</g>
</g>
<!-- Node15&#45;&gt;Node22 -->
<g id="edge24_Node000015_Node000022" class="edge">
<title>Node15&#45;&gt;Node22</title>
<g id="a_edge24_Node000015_Node000022"><a xlink:title=" ">
<path fill="none" stroke="#63b8ff" d="M1540.71,-270.5C1522.65,-270.5 1502.79,-270.5 1485.59,-270.5"/>
<polygon fill="#63b8ff" stroke="#63b8ff" points="1540.81,-274 1550.81,-270.5 1540.81,-267 1540.81,-274"/>
</a>
</g>
</g>
<!-- Node23 -->
<g id="Node000023" class="node">
<title>Node23</title>
<g id="a_Node000023"><a xlink:href="code__80005FD0_8c.html#af3aae9dad721ce28a06e6cd071f20dd6" target="_top" xlink:title=" ">
<polygon fill="white" stroke="#666666" points="1486,-391 1394,-391 1394,-372 1486,-372 1486,-391"/>
<text text-anchor="middle" x="1440" y="-379" font-family="Helvetica,sans-Serif" font-size="10.00">func_80014A88</text>
</a>
</g>
</g>
<!-- Node15&#45;&gt;Node23 -->
<g id="edge26_Node000015_Node000023" class="edge">
<title>Node15&#45;&gt;Node23</title>
<g id="a_edge26_Node000015_Node000023"><a xlink:title=" ">
<path fill="none" stroke="#63b8ff" d="M1541.73,-284C1538.98,-285.63 1536.38,-287.46 1534,-289.5 1506.24,-313.31 1525.69,-339.61 1498,-363.5 1494.07,-366.89 1489.5,-369.64 1484.7,-371.88"/>
<polygon fill="#63b8ff" stroke="#63b8ff" points="1543.48,-287.04 1550.87,-279.44 1540.36,-280.78 1543.48,-287.04"/>
</a>
</g>
</g>
<!-- Node24 -->
<g id="Node000024" class="node">
<title>Node24</title>
<g id="a_Node000024"><a xlink:href="code__80005FD0_8c.html#af8d770b76281ba995dc87bc9e27722d7" target="_top" xlink:title=" ">
<polygon fill="white" stroke="#666666" points="1487,-354 1393,-354 1393,-335 1487,-335 1487,-354"/>
<text text-anchor="middle" x="1440" y="-342" font-family="Helvetica,sans-Serif" font-size="10.00">func_80014BDC</text>
</a>
</g>
</g>
<!-- Node15&#45;&gt;Node24 -->
<g id="edge28_Node000015_Node000024" class="edge">
<title>Node15&#45;&gt;Node24</title>
<g id="a_edge28_Node000015_Node000024"><a xlink:title=" ">
<path fill="none" stroke="#63b8ff" d="M1544.76,-283.89C1541.02,-285.56 1537.39,-287.43 1534,-289.5 1514.43,-301.48 1517.53,-314.46 1498,-326.5 1492.52,-329.88 1486.36,-332.67 1480.15,-334.97"/>
<polygon fill="#63b8ff" stroke="#63b8ff" points="1546.24,-287.07 1554.23,-280.11 1543.64,-280.57 1546.24,-287.07"/>
</a>
</g>
</g>
<!-- Node17 -->
<g id="Node000017" class="node">
<title>Node17</title>
<g id="a_Node000017"><a xlink:href="code__80005FD0_8c.html#a1b88258c47677456a6de78bbce674c21" target="_top" xlink:title=" ">
<polygon fill="white" stroke="#666666" points="1344.5,-335 1251.5,-335 1251.5,-316 1344.5,-316 1344.5,-335"/>
<text text-anchor="middle" x="1298" y="-323" font-family="Helvetica,sans-Serif" font-size="10.00">func_8000F2DC</text>
</a>
</g>
</g>
<!-- Node16&#45;&gt;Node17 -->
<g id="edge16_Node000016_Node000017" class="edge">
<title>Node16&#45;&gt;Node17</title>
<g id="a_edge16_Node000016_Node000017"><a xlink:title=" ">
<path fill="none" stroke="#63b8ff" d="M1384.06,-314.56C1371.03,-316.24 1357.27,-318.01 1344.7,-319.62"/>
<polygon fill="#63b8ff" stroke="#63b8ff" points="1384.85,-317.99 1394.32,-313.24 1383.95,-311.05 1384.85,-317.99"/>
</a>
</g>
</g>
<!-- Node18 -->
<g id="Node000018" class="node">
<title>Node18</title>
<g id="a_Node000018"><a xlink:href="code__80005FD0_8c.html#a325ddded54aab32025174f6aedd5e391" target="_top" xlink:title=" ">
<polygon fill="white" stroke="#666666" points="1214,-316 1122,-316 1122,-297 1214,-297 1214,-316"/>
<text text-anchor="middle" x="1168" y="-304" font-family="Helvetica,sans-Serif" font-size="10.00">func_8001C05C</text>
</a>
</g>
</g>
<!-- Node17&#45;&gt;Node18 -->
<g id="edge17_Node000017_Node000018" class="edge">
<title>Node17&#45;&gt;Node18</title>
<g id="a_edge17_Node000017_Node000018"><a xlink:title=" ">
<path fill="none" stroke="#63b8ff" d="M1241.09,-317.2C1232.07,-315.86 1222.83,-314.49 1214.1,-313.19"/>
<polygon fill="#63b8ff" stroke="#63b8ff" points="1240.75,-320.69 1251.15,-318.69 1241.77,-313.76 1240.75,-320.69"/>
</a>
</g>
</g>
<!-- Node20 -->
<g id="Node000020" class="node">
<title>Node20</title>
<g id="a_Node000020"><a xlink:href="spawn__players_8c.html#afb1c307e34d73d9c004936d2752c44ce" target="_top" xlink:title=" ">
<polygon fill="white" stroke="#666666" points="1214,-353 1122,-353 1122,-334 1214,-334 1214,-353"/>
<text text-anchor="middle" x="1168" y="-341" font-family="Helvetica,sans-Serif" font-size="10.00">func_8003C0F0</text>
</a>
</g>
</g>
<!-- Node17&#45;&gt;Node20 -->
<g id="edge20_Node000017_Node000020" class="edge">
<title>Node17&#45;&gt;Node20</title>
<g id="a_edge20_Node000017_Node000020"><a xlink:title=" ">
<path fill="none" stroke="#63b8ff" d="M1241.09,-333.36C1232.07,-334.63 1222.83,-335.93 1214.1,-337.16"/>
<polygon fill="#63b8ff" stroke="#63b8ff" points="1241.74,-336.81 1251.15,-331.95 1240.76,-329.87 1241.74,-336.81"/>
</a>
</g>
</g>
<!-- Node19 -->
<g id="Node000019" class="node">
<title>Node19</title>
<g id="a_Node000019"><a xlink:href="code__80281780_8c.html#af227cfd0f1fd3d6adbe9a29ad59b4dc8" target="_top" xlink:title=" ">
<polygon fill="white" stroke="#666666" points="924,-315 784,-315 784,-296 924,-296 924,-315"/>
<text text-anchor="middle" x="854" y="-303" font-family="Helvetica,sans-Serif" font-size="10.00">load_ceremony_cutscene</text>
</a>
</g>
</g>
<!-- Node18&#45;&gt;Node19 -->
<g id="edge18_Node000018_Node000019" class="edge">
<title>Node18&#45;&gt;Node19</title>
<g id="a_edge18_Node000018_Node000019"><a xlink:title=" ">
<path fill="none" stroke="#63b8ff" d="M1111.87,-306.32C1059.55,-306.16 980.73,-305.9 924.21,-305.72"/>
<polygon fill="#63b8ff" stroke="#63b8ff" points="1111.95,-309.82 1121.97,-306.36 1111.98,-302.82 1111.95,-309.82"/>
</a>
</g>
</g>
<!-- Node19&#45;&gt;Node10 -->
<g id="edge19_Node000019_Node000010" class="edge">
<title>Node19&#45;&gt;Node10</title>
<g id="a_edge19_Node000019_Node000010"><a xlink:title=" ">
<path fill="none" stroke="#63b8ff" d="M773.58,-305.5C764.94,-305.5 756.31,-305.5 748.09,-305.5"/>
<polygon fill="#63b8ff" stroke="#63b8ff" points="773.7,-309 783.7,-305.5 773.7,-302 773.7,-309"/>
</a>
</g>
</g>
<!-- Node21 -->
<g id="Node000021" class="node">
<title>Node21</title>
<g id="a_Node000021"><a xlink:href="spawn__players_8c.html#ac1a9412b931cfa517a2382c2fc605399" target="_top" xlink:title=" ">
<polygon fill="white" stroke="#666666" points="1069,-353 977,-353 977,-334 1069,-334 1069,-353"/>
<text text-anchor="middle" x="1023" y="-341" font-family="Helvetica,sans-Serif" font-size="10.00">func_8003D080</text>
</a>
</g>
</g>
<!-- Node20&#45;&gt;Node21 -->
<g id="edge21_Node000020_Node000021" class="edge">
<title>Node20&#45;&gt;Node21</title>
<g id="a_edge21_Node000020_Node000021"><a xlink:title=" ">
<path fill="none" stroke="#63b8ff" d="M1111.75,-343.5C1097.76,-343.5 1082.89,-343.5 1069.44,-343.5"/>
<polygon fill="#63b8ff" stroke="#63b8ff" points="1111.75,-347 1121.75,-343.5 1111.75,-340 1111.75,-347"/>
</a>
</g>
</g>
<!-- Node21&#45;&gt;Node9 -->
<g id="edge23_Node000021_Node000009" class="edge">
<title>Node21&#45;&gt;Node9</title>
<g id="a_edge23_Node000021_Node000009"><a xlink:title=" ">
<path fill="none" stroke="#63b8ff" d="M966.49,-343.5C940.9,-343.5 911.35,-343.5 889.1,-343.5"/>
<polygon fill="#63b8ff" stroke="#63b8ff" points="966.81,-347 976.81,-343.5 966.81,-340 966.81,-347"/>
</a>
</g>
</g>
<!-- Node21&#45;&gt;Node19 -->
<g id="edge22_Node000021_Node000019" class="edge">
<title>Node21&#45;&gt;Node19</title>
<g id="a_edge22_Node000021_Node000019"><a xlink:title=" ">
<path fill="none" stroke="#63b8ff" d="M970.04,-331.68C946.49,-326.32 919.03,-320.07 896.84,-315.02"/>
<polygon fill="#63b8ff" stroke="#63b8ff" points="969.33,-335.1 979.86,-333.91 970.88,-328.28 969.33,-335.1"/>
</a>
</g>
</g>
<!-- Node22&#45;&gt;Node17 -->
<g id="edge25_Node000022_Node000017" class="edge">
<title>Node22&#45;&gt;Node17</title>
<g id="a_edge25_Node000022_Node000017"><a xlink:title=" ">
<path fill="none" stroke="#63b8ff" d="M1399.09,-283.31C1393.33,-285.3 1387.49,-287.4 1382,-289.5 1360.44,-297.75 1336.27,-308.4 1319.6,-315.97"/>
<polygon fill="#63b8ff" stroke="#63b8ff" points="1400.3,-286.59 1408.65,-280.07 1398.06,-279.96 1400.3,-286.59"/>
</a>
</g>
</g>
<!-- Node23&#45;&gt;Node17 -->
<g id="edge27_Node000023_Node000017" class="edge">
<title>Node23&#45;&gt;Node17</title>
<g id="a_edge27_Node000023_Node000017"><a xlink:title=" ">
<path fill="none" stroke="#63b8ff" d="M1396.7,-368.78C1391.71,-367.1 1386.72,-365.32 1382,-363.5 1359.67,-354.9 1334.8,-343.22 1318.16,-335.09"/>
<polygon fill="#63b8ff" stroke="#63b8ff" points="1395.61,-372.11 1406.21,-371.91 1397.8,-365.46 1395.61,-372.11"/>
</a>
</g>
</g>
<!-- Node24&#45;&gt;Node17 -->
<g id="edge29_Node000024_Node000017" class="edge">
<title>Node24&#45;&gt;Node17</title>
<g id="a_edge29_Node000024_Node000017"><a xlink:title=" ">
<path fill="none" stroke="#63b8ff" d="M1382.79,-336.87C1370.14,-335.15 1356.86,-333.35 1344.7,-331.7"/>
<polygon fill="#63b8ff" stroke="#63b8ff" points="1382.39,-340.35 1392.77,-338.23 1383.33,-333.41 1382.39,-340.35"/>
</a>
</g>
</g>
<!-- Node26 -->
<g id="Node000026" class="node">
<title>Node26</title>
<g id="a_Node000026"><a xlink:href="code__80005FD0_8c.html#a394feba900a9c8821d8f73a7830a6a57" target="_top" xlink:title=" ">
<polygon fill="white" stroke="#666666" points="1486,-206 1394,-206 1394,-187 1486,-187 1486,-206"/>
<text text-anchor="middle" x="1440" y="-194" font-family="Helvetica,sans-Serif" font-size="10.00">func_8001487C</text>
</a>
</g>
</g>
<!-- Node25&#45;&gt;Node26 -->
<g id="edge31_Node000025_Node000026" class="edge">
<title>Node25&#45;&gt;Node26</title>
<g id="a_edge31_Node000025_Node000026"><a xlink:title=" ">
<path fill="none" stroke="#63b8ff" d="M1540.19,-196.5C1522.47,-196.5 1503.07,-196.5 1486.16,-196.5"/>
<polygon fill="#63b8ff" stroke="#63b8ff" points="1540.4,-200 1550.4,-196.5 1540.4,-193 1540.4,-200"/>
</a>
</g>
</g>
<!-- Node32 -->
<g id="Node000032" class="node">
<title>Node32</title>
<g id="a_Node000032"><a xlink:href="code__80005FD0_8c.html#a05d157370926e46f3be0d52c84ef4e93" target="_top" xlink:title=" ">
<polygon fill="white" stroke="#666666" points="1486,-169 1394,-169 1394,-150 1486,-150 1486,-169"/>
<text text-anchor="middle" x="1440" y="-157" font-family="Helvetica,sans-Serif" font-size="10.00">func_800149D0</text>
</a>
</g>
</g>
<!-- Node25&#45;&gt;Node32 -->
<g id="edge39_Node000025_Node000032" class="edge">
<title>Node25&#45;&gt;Node32</title>
<g id="a_edge39_Node000025_Node000032"><a xlink:title=" ">
<path fill="none" stroke="#63b8ff" d="M1545.7,-184.57C1524.75,-179.56 1500.69,-173.79 1480.92,-169.06"/>
<polygon fill="#63b8ff" stroke="#63b8ff" points="1545.17,-188.05 1555.71,-186.97 1546.8,-181.24 1545.17,-188.05"/>
</a>
</g>
</g>
<!-- Node33 -->
<g id="Node000033" class="node">
<title>Node33</title>
<g id="a_Node000033"><a xlink:href="code__80005FD0_8c.html#a9a279fe9140cea9ff4c0284a5495a65e" target="_top" xlink:title=" ">
<polygon fill="white" stroke="#666666" points="1486,-132 1394,-132 1394,-113 1486,-113 1486,-132"/>
<text text-anchor="middle" x="1440" y="-120" font-family="Helvetica,sans-Serif" font-size="10.00">func_80014B24</text>
</a>
</g>
</g>
<!-- Node25&#45;&gt;Node33 -->
<g id="edge41_Node000025_Node000033" class="edge">
<title>Node25&#45;&gt;Node33</title>
<g id="a_edge41_Node000025_Node000033"><a xlink:title=" ">
<path fill="none" stroke="#63b8ff" d="M1571.71,-181.37C1552.37,-169.49 1524.1,-153.08 1498,-141.5 1490.18,-138.03 1481.52,-134.83 1473.37,-132.09"/>
<polygon fill="#63b8ff" stroke="#63b8ff" points="1570.1,-184.49 1580.44,-186.79 1573.79,-178.54 1570.1,-184.49"/>
</a>
</g>
</g>
<!-- Node34 -->
<g id="Node000034" class="node">
<title>Node34</title>
<g id="a_Node000034"><a xlink:href="code__80005FD0_8c.html#aa067ddc50eb34e003eae0cb05aac50cc" target="_top" xlink:title=" ">
<polygon fill="white" stroke="#666666" points="1486,-243 1394,-243 1394,-224 1486,-224 1486,-243"/>
<text text-anchor="middle" x="1440" y="-231" font-family="Helvetica,sans-Serif" font-size="10.00">func_80014C78</text>
</a>
</g>
</g>
<!-- Node25&#45;&gt;Node34 -->
<g id="edge43_Node000025_Node000034" class="edge">
<title>Node25&#45;&gt;Node34</title>
<g id="a_edge43_Node000025_Node000034"><a xlink:title=" ">
<path fill="none" stroke="#63b8ff" d="M1545.7,-208.43C1524.75,-213.44 1500.69,-219.21 1480.92,-223.94"/>
<polygon fill="#63b8ff" stroke="#63b8ff" points="1546.8,-211.76 1555.71,-206.03 1545.17,-204.95 1546.8,-211.76"/>
</a>
</g>
</g>
<!-- Node27 -->
<g id="Node000027" class="node">
<title>Node27</title>
<g id="a_Node000027"><a xlink:href="code__80005FD0_8c.html#aef8687777d0e50889371f98024d0bb12" target="_top" xlink:title=" ">
<polygon fill="white" stroke="#666666" points="1346,-169 1250,-169 1250,-150 1346,-150 1346,-169"/>
<text text-anchor="middle" x="1298" y="-157" font-family="Helvetica,sans-Serif" font-size="10.00">update_vehicles</text>
</a>
</g>
</g>
<!-- Node26&#45;&gt;Node27 -->
<g id="edge32_Node000026_Node000027" class="edge">
<title>Node26&#45;&gt;Node27</title>
<g id="a_edge32_Node000026_Node000027"><a xlink:title=" ">
<path fill="none" stroke="#63b8ff" d="M1393.14,-184.38C1374.41,-179.43 1353.05,-173.78 1335.42,-169.12"/>
<polygon fill="#63b8ff" stroke="#63b8ff" points="1392.38,-187.8 1402.95,-186.97 1394.17,-181.03 1392.38,-187.8"/>
</a>
</g>
</g>
<!-- Node28 -->
<g id="Node000028" class="node">
<title>Node28</title>
<g id="a_Node000028"><a xlink:href="race__logic_8c.html#af3b28af56eee680540843d3bd6bd24ba" target="_top" xlink:title=" ">
<polygon fill="white" stroke="#666666" points="1068.5,-169 977.5,-169 977.5,-150 1068.5,-150 1068.5,-169"/>
<text text-anchor="middle" x="1023" y="-157" font-family="Helvetica,sans-Serif" font-size="10.00">func_8028F474</text>
</a>
</g>
</g>
<!-- Node27&#45;&gt;Node28 -->
<g id="edge33_Node000027_Node000028" class="edge">
<title>Node27&#45;&gt;Node28</title>
<g id="a_edge33_Node000027_Node000028"><a xlink:title=" ">
<path fill="none" stroke="#63b8ff" d="M1239.58,-159.5C1188.73,-159.5 1115.51,-159.5 1068.85,-159.5"/>
<polygon fill="#63b8ff" stroke="#63b8ff" points="1239.76,-163 1249.76,-159.5 1239.76,-156 1239.76,-163"/>
</a>
</g>
</g>
<!-- Node31 -->
<g id="Node000031" class="node">
<title>Node31</title>
<g id="a_Node000031"><a xlink:href="podium__ceremony__actors_8c.html#a7ea229c65f264670fc828b95e8321154" target="_top" xlink:title=" ">
<polygon fill="white" stroke="#666666" points="921,-207 787,-207 787,-188 921,-188 921,-207"/>
<text text-anchor="middle" x="854" y="-195" font-family="Helvetica,sans-Serif" font-size="10.00">podium_ceremony_loop</text>
</a>
</g>
</g>
<!-- Node27&#45;&gt;Node31 -->
<g id="edge37_Node000027_Node000031" class="edge">
<title>Node27&#45;&gt;Node31</title>
<g id="a_edge37_Node000027_Node000031"><a xlink:title=" ">
<path fill="none" stroke="#63b8ff" d="M1239.73,-169.93C1231.13,-171.27 1222.35,-172.52 1214,-173.5 1112.1,-185.47 993.18,-191.96 921.02,-195.07"/>
<polygon fill="#63b8ff" stroke="#63b8ff" points="1240.4,-173.37 1249.71,-168.32 1239.28,-166.46 1240.4,-173.37"/>
</a>
</g>
</g>
<!-- Node29 -->
<g id="Node000029" class="node">
<title>Node29</title>
<g id="a_Node000029"><a xlink:href="main_8c.html#afff87ffcbfee4f1f37d443110aa7b52a" target="_top" xlink:title=" ">
<polygon fill="white" stroke="#666666" points="900,-169 808,-169 808,-150 900,-150 900,-169"/>
<text text-anchor="middle" x="854" y="-157" font-family="Helvetica,sans-Serif" font-size="10.00">race_logic_loop</text>
</a>
</g>
</g>
<!-- Node28&#45;&gt;Node29 -->
<g id="edge34_Node000028_Node000029" class="edge">
<title>Node28&#45;&gt;Node29</title>
<g id="a_edge34_Node000028_Node000029"><a xlink:title=" ">
<path fill="none" stroke="#63b8ff" d="M967.18,-159.5C945.47,-159.5 920.82,-159.5 900.17,-159.5"/>
<polygon fill="#63b8ff" stroke="#63b8ff" points="967.25,-163 977.25,-159.5 967.25,-156 967.25,-163"/>
</a>
</g>
</g>
<!-- Node30 -->
<g id="Node000030" class="node">
<title>Node30</title>
<g id="a_Node000030"><a xlink:href="main_8c.html#ae04143ce8113cdafa007c642eb620bc8" target="_top" xlink:title=" ">
<polygon fill="white" stroke="#666666" points="604,-188 488,-188 488,-169 604,-169 604,-188"/>
<text text-anchor="middle" x="546" y="-176" font-family="Helvetica,sans-Serif" font-size="10.00">game_state_handler</text>
</a>
</g>
</g>
<!-- Node29&#45;&gt;Node30 -->
<g id="edge35_Node000029_Node000030" class="edge">
<title>Node29&#45;&gt;Node30</title>
<g id="a_edge35_Node000029_Node000030"><a xlink:title=" ">
<path fill="none" stroke="#63b8ff" d="M797.63,-162.94C742.86,-166.34 659.43,-171.52 604.08,-174.96"/>
<polygon fill="#63b8ff" stroke="#63b8ff" points="798.08,-166.42 807.85,-162.3 797.65,-159.43 798.08,-166.42"/>
</a>
</g>
</g>
<!-- Node30&#45;&gt;Node11 -->
<g id="edge36_Node000030_Node000011" class="edge">
<title>Node30&#45;&gt;Node11</title>
<g id="a_edge36_Node000030_Node000011"><a xlink:title=" ">
<path fill="none" stroke="#63b8ff" d="M477.42,-187.15C469.02,-188.22 460.5,-189.31 452.3,-190.36"/>
<polygon fill="#63b8ff" stroke="#63b8ff" points="478.11,-190.59 487.59,-185.85 477.22,-183.64 478.11,-190.59"/>
</a>
</g>
</g>
<!-- Node31&#45;&gt;Node30 -->
<g id="edge38_Node000031_Node000030" class="edge">
<title>Node31&#45;&gt;Node30</title>
<g id="a_edge38_Node000031_Node000030"><a xlink:title=" ">
<path fill="none" stroke="#63b8ff" d="M776.85,-192.77C723.34,-189.45 652.89,-185.07 604.15,-182.05"/>
<polygon fill="#63b8ff" stroke="#63b8ff" points="776.78,-196.27 786.98,-193.4 777.22,-189.29 776.78,-196.27"/>
</a>
</g>
</g>
<!-- Node32&#45;&gt;Node27 -->
<g id="edge40_Node000032_Node000027" class="edge">
<title>Node32&#45;&gt;Node27</title>
<g id="a_edge40_Node000032_Node000027"><a xlink:title=" ">
<path fill="none" stroke="#63b8ff" d="M1383.74,-159.5C1371.39,-159.5 1358.4,-159.5 1346.39,-159.5"/>
<polygon fill="#63b8ff" stroke="#63b8ff" points="1383.93,-163 1393.93,-159.5 1383.93,-156 1383.93,-163"/>
</a>
</g>
</g>
<!-- Node33&#45;&gt;Node27 -->
<g id="edge42_Node000033_Node000027" class="edge">
<title>Node33&#45;&gt;Node27</title>
<g id="a_edge42_Node000033_Node000027"><a xlink:title=" ">
<path fill="none" stroke="#63b8ff" d="M1393.14,-134.62C1374.41,-139.57 1353.05,-145.22 1335.42,-149.88"/>
<polygon fill="#63b8ff" stroke="#63b8ff" points="1394.17,-137.97 1402.95,-132.03 1392.38,-131.2 1394.17,-137.97"/>
</a>
</g>
</g>
<!-- Node34&#45;&gt;Node27 -->
<g id="edge44_Node000034_Node000027" class="edge">
<title>Node34&#45;&gt;Node27</title>
<g id="a_edge44_Node000034_Node000027"><a xlink:title=" ">
<path fill="none" stroke="#63b8ff" d="M1393.37,-220.4C1389.47,-218.89 1385.63,-217.25 1382,-215.5 1354.76,-202.35 1326.21,-181.21 1310.71,-169.01"/>
<polygon fill="#63b8ff" stroke="#63b8ff" points="1392.52,-223.81 1403.12,-223.9 1394.89,-217.23 1392.52,-223.81"/>
</a>
</g>
</g>
<!-- Node35&#45;&gt;Node6 -->
<g id="edge46_Node000035_Node000006" class="edge">
<title>Node35&#45;&gt;Node6</title>
<g id="a_edge46_Node000035_Node000006"><a xlink:title=" ">
<path fill="none" stroke="#63b8ff" d="M1700.29,-211.22C1698.41,-212.54 1696.64,-213.96 1695,-215.5 1668.36,-240.56 1686.94,-265.9 1659,-289.5 1654.07,-293.66 1648.22,-296.86 1642.11,-299.33"/>
<polygon fill="#63b8ff" stroke="#63b8ff" points="1702.12,-214.21 1708.98,-206.14 1698.59,-208.17 1702.12,-214.21"/>
</a>
</g>
</g>
<!-- Node35&#45;&gt;Node15 -->
<g id="edge47_Node000035_Node000015" class="edge">
<title>Node35&#45;&gt;Node15</title>
<g id="a_edge47_Node000035_Node000015"><a xlink:title=" ">
<path fill="none" stroke="#63b8ff" d="M1707,-209.99C1702.93,-211.77 1698.85,-213.63 1695,-215.5 1665.29,-229.95 1632.04,-249.46 1613.06,-260.94"/>
<polygon fill="#63b8ff" stroke="#63b8ff" points="1708.56,-213.13 1716.4,-206.01 1705.83,-206.69 1708.56,-213.13"/>
</a>
</g>
</g>
<!-- Node35&#45;&gt;Node25 -->
<g id="edge48_Node000035_Node000025" class="edge">
<title>Node35&#45;&gt;Node25</title>
<g id="a_edge48_Node000035_Node000025"><a xlink:title=" ">
<path fill="none" stroke="#63b8ff" d="M1685.84,-196.5C1671.62,-196.5 1656.49,-196.5 1642.84,-196.5"/>
<polygon fill="#63b8ff" stroke="#63b8ff" points="1685.99,-200 1695.99,-196.5 1685.99,-193 1685.99,-200"/>
</a>
</g>
</g>
<!-- Node36 -->
<g id="Node000036" class="node">
<title>Node36</title>
<g id="a_Node000036"><a xlink:href="update__objects_8c.html#a51a16401cf202c55bdae59edc1f510ce" target="_top" xlink:title=" ">
<polygon fill="white" stroke="#666666" points="1642.5,-132 1550.5,-132 1550.5,-113 1642.5,-113 1642.5,-132"/>
<text text-anchor="middle" x="1596.5" y="-120" font-family="Helvetica,sans-Serif" font-size="10.00">func_8008275C</text>
</a>
</g>
</g>
<!-- Node35&#45;&gt;Node36 -->
<g id="edge49_Node000035_Node000036" class="edge">
<title>Node35&#45;&gt;Node36</title>
<g id="a_edge49_Node000035_Node000036"><a xlink:title=" ">
<path fill="none" stroke="#63b8ff" d="M1713.5,-182.32C1684.98,-167.61 1641.17,-145.02 1616.35,-132.22"/>
<polygon fill="#63b8ff" stroke="#63b8ff" points="1712.04,-185.5 1722.53,-186.98 1715.25,-179.28 1712.04,-185.5"/>
</a>
</g>
</g>
<!-- Node43 -->
<g id="Node000043" class="node">
<title>Node43</title>
<g id="a_Node000043"><a xlink:href="update__objects_8c.html#a2ebe9de1966d2cadcfe6d13c13eba1a0" target="_top" xlink:title=" ">
<polygon fill="white" stroke="#666666" points="1659,-19 1534,-19 1534,0 1659,0 1659,-19"/>
<text text-anchor="middle" x="1596.5" y="-7" font-family="Helvetica,sans-Serif" font-size="10.00">update_chain_chomps</text>
</a>
</g>
</g>
<!-- Node35&#45;&gt;Node43 -->
<g id="edge60_Node000035_Node000043" class="edge">
<title>Node35&#45;&gt;Node43</title>
<g id="a_edge60_Node000035_Node000043"><a xlink:title=" ">
<path fill="none" stroke="#63b8ff" d="M1727.36,-178.72C1697.65,-140.01 1627.92,-49.14 1604.97,-19.24"/>
<polygon fill="#63b8ff" stroke="#63b8ff" points="1724.82,-181.17 1733.69,-186.97 1730.38,-176.91 1724.82,-181.17"/>
</a>
</g>
</g>
<!-- Node37 -->
<g id="Node000037" class="node">
<title>Node37</title>
<g id="a_Node000037"><a xlink:href="update__objects_8c.html#ae061dff0cfaf1ef11c4609d97c895440" target="_top" xlink:title=" ">
<polygon fill="white" stroke="#666666" points="1488,-95 1392,-95 1392,-76 1488,-76 1488,-95"/>
<text text-anchor="middle" x="1440" y="-83" font-family="Helvetica,sans-Serif" font-size="10.00">update_seagulls</text>
</a>
</g>
</g>
<!-- Node36&#45;&gt;Node37 -->
<g id="edge50_Node000036_Node000037" class="edge">
<title>Node36&#45;&gt;Node37</title>
<g id="a_edge50_Node000036_Node000037"><a xlink:title=" ">
<path fill="none" stroke="#63b8ff" d="M1545.7,-110.57C1524.75,-105.56 1500.69,-99.79 1480.92,-95.06"/>
<polygon fill="#63b8ff" stroke="#63b8ff" points="1545.17,-114.05 1555.71,-112.97 1546.8,-107.24 1545.17,-114.05"/>
</a>
</g>
</g>
<!-- Node38 -->
<g id="Node000038" class="node">
<title>Node38</title>
<g id="a_Node000038"><a xlink:href="code__80057C60_8c.html#a22c0f603a5c87f883a26284082d099f8" target="_top" xlink:title=" ">
<polygon fill="white" stroke="#666666" points="1341,-94 1255,-94 1255,-75 1341,-75 1341,-94"/>
<text text-anchor="middle" x="1298" y="-82" font-family="Helvetica,sans-Serif" font-size="10.00">update_object</text>
</a>
</g>
</g>
<!-- Node37&#45;&gt;Node38 -->
<g id="edge51_Node000037_Node000038" class="edge">
<title>Node37&#45;&gt;Node38</title>
<g id="a_edge51_Node000037_Node000038"><a xlink:title=" ">
<path fill="none" stroke="#63b8ff" d="M1381.82,-85.09C1368.31,-85 1354.14,-84.89 1341.41,-84.8"/>
<polygon fill="#63b8ff" stroke="#63b8ff" points="1381.97,-88.59 1391.99,-85.16 1382.02,-81.59 1381.97,-88.59"/>
</a>
</g>
</g>
<!-- Node39 -->
<g id="Node000039" class="node">
<title>Node39</title>
<g id="a_Node000039"><a xlink:href="code__80057C60_8c.html#a48f7fc1ba7acccec2d7b6e0a59f65dc5" target="_top" xlink:title=" ">
<polygon fill="white" stroke="#666666" points="1214,-131 1122,-131 1122,-112 1214,-112 1214,-131"/>
<text text-anchor="middle" x="1168" y="-119" font-family="Helvetica,sans-Serif" font-size="10.00">func_80059D00</text>
</a>
</g>
</g>
<!-- Node38&#45;&gt;Node39 -->
<g id="edge52_Node000038_Node000039" class="edge">
<title>Node38&#45;&gt;Node39</title>
<g id="a_edge52_Node000038_Node000039"><a xlink:title=" ">
<path fill="none" stroke="#63b8ff" d="M1254.36,-96.83C1237.41,-101.73 1218.19,-107.28 1202.3,-111.88"/>
<polygon fill="#63b8ff" stroke="#63b8ff" points="1255.4,-100.17 1264.04,-94.03 1253.46,-93.44 1255.4,-100.17"/>
</a>
</g>
</g>
<!-- Node40 -->
<g id="Node000040" class="node">
<title>Node40</title>
<g id="a_Node000040"><a xlink:href="code__80057C60_8c.html#a86b7dba9c0715c4d7fdf8ce61c0738bc" target="_top" xlink:title=" ">
<polygon fill="white" stroke="#666666" points="1069,-131 977,-131 977,-112 1069,-112 1069,-131"/>
<text text-anchor="middle" x="1023" y="-119" font-family="Helvetica,sans-Serif" font-size="10.00">func_8005A070</text>
</a>
</g>
</g>
<!-- Node38&#45;&gt;Node40 -->
<g id="edge59_Node000038_Node000040" class="edge">
<title>Node38&#45;&gt;Node40</title>
<g id="a_edge59_Node000038_Node000040"><a xlink:title=" ">
<path fill="none" stroke="#63b8ff" d="M1244.38,-88.68C1209.56,-91.75 1162.93,-96.44 1122,-102.5 1104.51,-105.09 1085.4,-108.63 1068.74,-111.96"/>
<polygon fill="#63b8ff" stroke="#63b8ff" points="1245.13,-92.13 1254.79,-87.78 1244.53,-85.16 1245.13,-92.13"/>
</a>
</g>
</g>
<!-- Node39&#45;&gt;Node40 -->
<g id="edge53_Node000039_Node000040" class="edge">
<title>Node39&#45;&gt;Node40</title>
<g id="a_edge53_Node000039_Node000040"><a xlink:title=" ">
<path fill="none" stroke="#63b8ff" d="M1111.75,-121.5C1097.76,-121.5 1082.89,-121.5 1069.44,-121.5"/>
<polygon fill="#63b8ff" stroke="#63b8ff" points="1111.75,-125 1121.75,-121.5 1111.75,-118 1111.75,-125"/>
</a>
</g>
</g>
<!-- Node40&#45;&gt;Node29 -->
<g id="edge58_Node000040_Node000029" class="edge">
<title>Node40&#45;&gt;Node29</title>
<g id="a_edge58_Node000040_Node000029"><a xlink:title=" ">
<path fill="none" stroke="#63b8ff" d="M970.04,-133.32C946.49,-138.68 919.03,-144.93 896.84,-149.98"/>
<polygon fill="#63b8ff" stroke="#63b8ff" points="970.88,-136.72 979.86,-131.09 969.33,-129.9 970.88,-136.72"/>
</a>
</g>
</g>
<!-- Node40&#45;&gt;Node31 -->
<g id="edge57_Node000040_Node000031" class="edge">
<title>Node40&#45;&gt;Node31</title>
<g id="a_edge57_Node000040_Node000031"><a xlink:title=" ">
<path fill="none" stroke="#63b8ff" d="M972.97,-134.79C968.45,-136.76 964.05,-138.99 960,-141.5 940.51,-153.6 943.75,-166.82 924,-178.5 917.48,-182.36 910.14,-185.45 902.76,-187.94"/>
<polygon fill="#63b8ff" stroke="#63b8ff" points="974.32,-138.02 982.35,-131.1 971.76,-131.5 974.32,-138.02"/>
</a>
</g>
</g>
<!-- Node41 -->
<g id="Node000041" class="node">
<title>Node41</title>
<g id="a_Node000041"><a xlink:href="code__80280000_8c.html#a4d9b0156b64d7a67e4cb21cde391ca43" target="_top" xlink:title=" ">
<polygon fill="white" stroke="#666666" points="899.5,-131 808.5,-131 808.5,-112 899.5,-112 899.5,-131"/>
<text text-anchor="middle" x="854" y="-119" font-family="Helvetica,sans-Serif" font-size="10.00">func_80280000</text>
</a>
</g>
</g>
<!-- Node40&#45;&gt;Node41 -->
<g id="edge54_Node000040_Node000041" class="edge">
<title>Node40&#45;&gt;Node41</title>
<g id="a_edge54_Node000040_Node000041"><a xlink:title=" ">
<path fill="none" stroke="#63b8ff" d="M966.71,-121.5C944.93,-121.5 920.26,-121.5 899.65,-121.5"/>
<polygon fill="#63b8ff" stroke="#63b8ff" points="966.81,-125 976.81,-121.5 966.81,-118 966.81,-125"/>
</a>
</g>
</g>
<!-- Node42 -->
<g id="Node000042" class="node">
<title>Node42</title>
<g id="a_Node000042"><a xlink:href="code__80280000_8c.html#aa28a69be4eda3b8667366c6c7b556024" target="_top" xlink:title=" ">
<polygon fill="white" stroke="#666666" points="732,-131 656,-131 656,-112 732,-112 732,-131"/>
<text text-anchor="middle" x="694" y="-119" font-family="Helvetica,sans-Serif" font-size="10.00">credits_loop</text>
</a>
</g>
</g>
<!-- Node41&#45;&gt;Node42 -->
<g id="edge55_Node000041_Node000042" class="edge">
<title>Node41&#45;&gt;Node42</title>
<g id="a_edge55_Node000041_Node000042"><a xlink:title=" ">
<path fill="none" stroke="#63b8ff" d="M798.04,-121.5C776.29,-121.5 751.85,-121.5 732.23,-121.5"/>
<polygon fill="#63b8ff" stroke="#63b8ff" points="798.15,-125 808.15,-121.5 798.15,-118 798.15,-125"/>
</a>
</g>
</g>
<!-- Node42&#45;&gt;Node30 -->
<g id="edge56_Node000042_Node000030" class="edge">
<title>Node42&#45;&gt;Node30</title>
<g id="a_edge56_Node000042_Node000030"><a xlink:title=" ">
<path fill="none" stroke="#63b8ff" d="M659.18,-134.7C632.37,-145.17 595.55,-159.55 571.52,-168.93"/>
<polygon fill="#63b8ff" stroke="#63b8ff" points="660.52,-137.94 668.56,-131.04 657.97,-131.42 660.52,-137.94"/>
</a>
</g>
</g>
<!-- Node43&#45;&gt;Node38 -->
<g id="edge61_Node000043_Node000038" class="edge">
<title>Node43&#45;&gt;Node38</title>
<g id="a_edge61_Node000043_Node000038"><a xlink:title=" ">
<path fill="none" stroke="#63b8ff" d="M1523.47,-9.8C1481.25,-11.88 1427.45,-17.86 1382,-33.5 1354.33,-43.02 1326.16,-62.96 1310.79,-74.9"/>
<polygon fill="#63b8ff" stroke="#63b8ff" points="1523.82,-13.29 1533.67,-9.37 1523.52,-6.3 1523.82,-13.29"/>
</a>
</g>
</g>
<!-- Node44&#45;&gt;Node27 -->
<g id="edge63_Node000044_Node000027" class="edge">
<title>Node44&#45;&gt;Node27</title>
<g id="a_edge63_Node000044_Node000027"><a xlink:title=" ">
<path fill="none" stroke="#63b8ff" d="M1709.57,-90.09C1645,-64.67 1494.09,-16.3 1382,-66.5 1371.98,-70.99 1325.66,-126.84 1306.91,-149.77"/>
<polygon fill="#63b8ff" stroke="#63b8ff" points="1708.58,-93.47 1719.17,-93.95 1711.2,-86.97 1708.58,-93.47"/>
</a>
</g>
</g>
</g>
</svg>

<g id="navigator" transform="translate(0 0)" fill="#404254">
  <rect fill="#f2f5e9" fill-opacity="0.5" stroke="#606060" stroke-width=".5" x="0" y="0" width="60" height="60"/>
  <use id="zoomplus" xlink:href="#zoomPlus" x="17" y="9" onmousedown="handleZoom(evt,'in')"/>
  <use id="zoomminus" xlink:href="#zoomMin" x="42" y="9" onmousedown="handleZoom(evt,'out')"/>
  <use id="reset" xlink:href="#resetDef" x="30" y="36" onmousedown="handleReset()"/>
   <use id="arrowup" xlink:href="#arrowUp" x="0" y="0" onmousedown="handlePan(0,-1)"/>
  <use id="arrowright" xlink:href="#arrowRight" x="0" y="0" onmousedown="handlePan(1,0)"/>
  <use id="arrowdown" xlink:href="#arrowDown" x="0" y="0" onmousedown="handlePan(0,1)"/>
  <use id="arrowleft" xlink:href="#arrowLeft" x="0" y="0" onmousedown="handlePan(-1,0)"/>
</g>
<svg viewBox="0 0 15 15" width="100%" height="30px" preserveAspectRatio="xMaxYMin meet">
 <g id="arrow_out" transform="scale(0.3 0.3)">
  <a xlink:href="code__80005FD0_8c_a7d3c0ba065700817ec51167b24bb795e_icgraph_org.svg" target="_base">
   <rect id="button" ry="5" rx="5" y="6" x="6" height="38" width="38"
        fill="#f2f5e9" fill-opacity="0.5" stroke="#606060" stroke-width="1.0"/>
   <path id="arrow"
     d="M 11.500037,31.436501 C 11.940474,20.09759 22.043105,11.32322 32.158766,21.979434 L 37.068811,17.246167 C 37.068811,17.246167 37.088388,32 37.088388,32 L 22.160133,31.978069 C 22.160133,31.978069 26.997745,27.140456 26.997745,27.140456 C 18.528582,18.264221 13.291696,25.230495 11.500037,31.436501 z"
     style="fill:#404040;"/>
  </a>
 </g>
</svg>

<style type='text/css'>
<![CDATA[
[data-mouse-over-selected='false'] { opacity: 0.7; }
[data-mouse-over-selected='true']  { opacity: 1.0; }
]]>
</style>
<script type="application/ecmascript"><![CDATA[
document.addEventListener('DOMContentLoaded', (event) => {
  highlightEdges();
  highlightAdjacentNodes();
});
]]></script>
</svg>
