<?xml version="1.0" encoding="UTF-8" standalone="no"?>
<!DOCTYPE svg PUBLIC "-//W3C//DTD SVG 1.1//EN"
 "http://www.w3.org/Graphics/SVG/1.1/DTD/svg11.dtd">
<!-- Generated by graphviz version 2.43.0 (0)
 -->
<!-- Title: func_80079860 Pages: 1 -->
<svg width="901pt" height="806pt"
 viewBox="0.00 0.00 901.00 806.00" xmlns="http://www.w3.org/2000/svg" xmlns:xlink="http://www.w3.org/1999/xlink">
<g id="graph0" class="graph" transform="scale(1 1) rotate(0) translate(4 802)">
<title>func_80079860</title>
<!-- Node1 -->
<g id="Node000001" class="node">
<title>Node1</title>
<g id="a_Node000001"><a xlink:title=" ">
<polygon fill="#999999" stroke="#666666" points="91,-410 0,-410 0,-391 91,-391 91,-410"/>
<text text-anchor="middle" x="45.5" y="-398" font-family="Helvetica,sans-Serif" font-size="10.00">func_80079860</text>
</a>
</g>
</g>
<!-- Node2 -->
<g id="Node000002" class="node">
<title>Node2</title>
<g id="a_Node000002"><a xlink:href="code__80071F00_8c.html#ab7e91b1ebcbec57dfed6e185a2f67580" target="_top" xlink:title=" ">
<polygon fill="white" stroke="#666666" points="219.5,-531 128.5,-531 128.5,-512 219.5,-512 219.5,-531"/>
<text text-anchor="middle" x="174" y="-519" font-family="Helvetica,sans-Serif" font-size="10.00">func_80072354</text>
</a>
</g>
</g>
<!-- Node1&#45;&gt;Node2 -->
<g id="edge1_Node000001_Node000002" class="edge">
<title>Node1&#45;&gt;Node2</title>
<g id="a_edge1_Node000001_Node000002"><a xlink:title=" ">
<path fill="none" stroke="#63b8ff" d="M51.64,-410.14C62.8,-430.2 91.14,-476.79 127,-503.5 128.79,-504.83 130.69,-506.08 132.66,-507.24"/>
<polygon fill="#63b8ff" stroke="#63b8ff" points="131.12,-510.39 141.62,-511.85 134.32,-504.16 131.12,-510.39"/>
</a>
</g>
</g>
<!-- Node3 -->
<g id="Node000003" class="node">
<title>Node3</title>
<g id="a_Node000003"><a xlink:href="code__80071F00_8c.html#a4cddfb6eec34ca24cca8d7cb72c78310" target="_top" xlink:title=" ">
<polygon fill="white" stroke="#666666" points="220,-494 128,-494 128,-475 220,-475 220,-494"/>
<text text-anchor="middle" x="174" y="-482" font-family="Helvetica,sans-Serif" font-size="10.00">func_800797AC</text>
</a>
</g>
</g>
<!-- Node1&#45;&gt;Node3 -->
<g id="edge2_Node000001_Node000003" class="edge">
<title>Node1&#45;&gt;Node3</title>
<g id="a_edge2_Node000001_Node000003"><a xlink:title=" ">
<path fill="none" stroke="#63b8ff" d="M61.01,-410.14C82.84,-424.63 124.32,-452.17 150.21,-469.37"/>
<polygon fill="#63b8ff" stroke="#63b8ff" points="148.39,-472.36 158.66,-474.98 152.26,-466.53 148.39,-472.36"/>
</a>
</g>
</g>
<!-- Node7 -->
<g id="Node000007" class="node">
<title>Node7</title>
<g id="a_Node000007"><a xlink:href="code__8008C1D0_8c.html#a17332237b5c2a4249328a35071e23bf7" target="_top" xlink:title=" ">
<polygon fill="white" stroke="#666666" points="219.5,-392 128.5,-392 128.5,-373 219.5,-373 219.5,-392"/>
<text text-anchor="middle" x="174" y="-380" font-family="Helvetica,sans-Serif" font-size="10.00">func_80090778</text>
</a>
</g>
</g>
<!-- Node1&#45;&gt;Node7 -->
<g id="edge6_Node000001_Node000007" class="edge">
<title>Node1&#45;&gt;Node7</title>
<g id="a_edge6_Node000001_Node000007"><a xlink:title=" ">
<path fill="none" stroke="#63b8ff" d="M91.1,-394.15C99.89,-392.9 109.2,-391.58 118.27,-390.29"/>
<polygon fill="#63b8ff" stroke="#63b8ff" points="118.97,-393.72 128.38,-388.85 117.98,-386.79 118.97,-393.72"/>
</a>
</g>
</g>
<!-- Node41 -->
<g id="Node000041" class="node">
<title>Node41</title>
<g id="a_Node000041"><a xlink:href="collision_8c.html#a0371e15af0413f7e110eb91a9995bcb7" target="_top" xlink:title=" ">
<polygon fill="white" stroke="#666666" points="221,-355 127,-355 127,-336 221,-336 221,-355"/>
<text text-anchor="middle" x="174" y="-343" font-family="Helvetica,sans-Serif" font-size="10.00">func_802ABDF4</text>
</a>
</g>
</g>
<!-- Node1&#45;&gt;Node41 -->
<g id="edge43_Node000001_Node000041" class="edge">
<title>Node1&#45;&gt;Node41</title>
<g id="a_edge43_Node000001_Node000041"><a xlink:title=" ">
<path fill="none" stroke="#63b8ff" d="M67.61,-390.86C83.81,-383.51 106.75,-373.21 127,-364.5 131.22,-362.68 135.68,-360.8 140.08,-358.96"/>
<polygon fill="#63b8ff" stroke="#63b8ff" points="141.65,-362.1 149.54,-355.04 138.97,-355.64 141.65,-362.1"/>
</a>
</g>
</g>
<!-- Node4 -->
<g id="Node000004" class="node">
<title>Node4</title>
<g id="a_Node000004"><a xlink:href="code__80071F00_8c.html#a2c88cc32dff07c6af5fe74d00b9fa279" target="_top" xlink:title=" ">
<polygon fill="white" stroke="#666666" points="362.5,-557 270.5,-557 270.5,-538 362.5,-538 362.5,-557"/>
<text text-anchor="middle" x="316.5" y="-545" font-family="Helvetica,sans-Serif" font-size="10.00">func_800722A4</text>
</a>
</g>
</g>
<!-- Node3&#45;&gt;Node4 -->
<g id="edge3_Node000003_Node000004" class="edge">
<title>Node3&#45;&gt;Node4</title>
<g id="a_edge3_Node000003_Node000004"><a xlink:title=" ">
<path fill="none" stroke="#63b8ff" d="M201.29,-494.12C207.87,-496.86 214.81,-500.05 221,-503.5 238.24,-513.11 239.33,-520.7 257,-529.5 260.59,-531.29 264.39,-532.94 268.27,-534.46"/>
<polygon fill="#63b8ff" stroke="#63b8ff" points="267.37,-537.85 277.97,-537.95 269.74,-531.27 267.37,-537.85"/>
</a>
</g>
</g>
<!-- Node5 -->
<g id="Node000005" class="node">
<title>Node5</title>
<g id="a_Node000005"><a xlink:href="code__80071F00_8c.html#abdebd086b5ff081f83af3d9205f39cd3" target="_top" xlink:title=" ">
<polygon fill="white" stroke="#666666" points="350.5,-520 282.5,-520 282.5,-501 350.5,-501 350.5,-520"/>
<text text-anchor="middle" x="316.5" y="-508" font-family="Helvetica,sans-Serif" font-size="10.00">init_object</text>
</a>
</g>
</g>
<!-- Node3&#45;&gt;Node5 -->
<g id="edge4_Node000003_Node000005" class="edge">
<title>Node3&#45;&gt;Node5</title>
<g id="a_edge4_Node000003_Node000005"><a xlink:title=" ">
<path fill="none" stroke="#63b8ff" d="M220.23,-492.87C236.97,-495.97 255.89,-499.47 272.43,-502.53"/>
<polygon fill="#63b8ff" stroke="#63b8ff" points="271.92,-505.99 282.39,-504.37 273.19,-499.11 271.92,-505.99"/>
</a>
</g>
</g>
<!-- Node6 -->
<g id="Node000006" class="node">
<title>Node6</title>
<g id="a_Node000006"><a xlink:href="code__80071F00_8c.html#a4b4f00a7df0f9bc44914cd922c3cd51b" target="_top" xlink:title=" ">
<polygon fill="white" stroke="#666666" points="527,-798 412,-798 412,-779 527,-779 527,-798"/>
<text text-anchor="middle" x="469.5" y="-786" font-family="Helvetica,sans-Serif" font-size="10.00">set_object_unk_0CB</text>
</a>
</g>
</g>
<!-- Node5&#45;&gt;Node6 -->
<g id="edge5_Node000005_Node000006" class="edge">
<title>Node5&#45;&gt;Node6</title>
<g id="a_edge5_Node000005_Node000006"><a xlink:title=" ">
<path fill="none" stroke="#63b8ff" d="M350.64,-514.58C360.11,-517.34 369.58,-521.92 376,-529.5 445.98,-612.16 341.79,-688.04 412,-770.5 412.63,-771.24 413.29,-771.94 413.97,-772.62"/>
<polygon fill="#63b8ff" stroke="#63b8ff" points="412.12,-775.61 422.21,-778.85 416.34,-770.03 412.12,-775.61"/>
</a>
</g>
</g>
<!-- Node8 -->
<g id="Node000008" class="node">
<title>Node8</title>
<g id="a_Node000008"><a xlink:href="code__8008C1D0_8c.html#a5cdc06d2091fc6d20759448c40b17d54" target="_top" xlink:title=" ">
<polygon fill="white" stroke="#666666" points="362.5,-483 270.5,-483 270.5,-464 362.5,-464 362.5,-483"/>
<text text-anchor="middle" x="316.5" y="-471" font-family="Helvetica,sans-Serif" font-size="10.00">func_8008C354</text>
</a>
</g>
</g>
<!-- Node7&#45;&gt;Node8 -->
<g id="edge7_Node000007_Node000008" class="edge">
<title>Node7&#45;&gt;Node8</title>
<g id="a_edge7_Node000007_Node000008"><a xlink:title=" ">
<path fill="none" stroke="#63b8ff" d="M189.77,-392.07C214.06,-407.8 262.63,-439.26 291.78,-458.14"/>
<polygon fill="#63b8ff" stroke="#63b8ff" points="290.21,-461.29 300.5,-463.79 294.01,-455.41 290.21,-461.29"/>
</a>
</g>
</g>
<!-- Node27 -->
<g id="Node000027" class="node">
<title>Node27</title>
<g id="a_Node000027"><a xlink:href="code__8008C1D0_8c.html#ab03baba14bfbe9feac872f1585494a38" target="_top" xlink:title=" ">
<polygon fill="white" stroke="#666666" points="362.5,-360 270.5,-360 270.5,-341 362.5,-341 362.5,-360"/>
<text text-anchor="middle" x="316.5" y="-348" font-family="Helvetica,sans-Serif" font-size="10.00">func_8008E3C0</text>
</a>
</g>
</g>
<!-- Node7&#45;&gt;Node27 -->
<g id="edge26_Node000007_Node000027" class="edge">
<title>Node7&#45;&gt;Node27</title>
<g id="a_edge26_Node000007_Node000027"><a xlink:title=" ">
<path fill="none" stroke="#63b8ff" d="M216.77,-372.99C231.51,-369.63 248.25,-365.82 263.71,-362.3"/>
<polygon fill="#63b8ff" stroke="#63b8ff" points="264.67,-365.67 273.64,-360.03 263.12,-358.84 264.67,-365.67"/>
</a>
</g>
</g>
<!-- Node29 -->
<g id="Node000029" class="node">
<title>Node29</title>
<g id="a_Node000029"><a xlink:href="code__8008C1D0_8c.html#ae1bacd987d7f12fc5960f838a7dbe137" target="_top" xlink:title=" ">
<polygon fill="white" stroke="#666666" points="362.5,-231 270.5,-231 270.5,-212 362.5,-212 362.5,-231"/>
<text text-anchor="middle" x="316.5" y="-219" font-family="Helvetica,sans-Serif" font-size="10.00">func_8008F86C</text>
</a>
</g>
</g>
<!-- Node7&#45;&gt;Node29 -->
<g id="edge28_Node000007_Node000029" class="edge">
<title>Node7&#45;&gt;Node29</title>
<g id="a_edge28_Node000007_Node000029"><a xlink:title=" ">
<path fill="none" stroke="#63b8ff" d="M207.09,-372.92C212.04,-370.62 216.87,-367.84 221,-364.5 263.64,-330.02 293.86,-271.09 307.44,-240.77"/>
<polygon fill="#63b8ff" stroke="#63b8ff" points="310.77,-241.89 311.55,-231.32 304.35,-239.1 310.77,-241.89"/>
</a>
</g>
</g>
<!-- Node40 -->
<g id="Node000040" class="node">
<title>Node40</title>
<g id="a_Node000040"><a xlink:href="player__controller_8c.html#aafeb0470c7da44e1440ffa4848f7d500" target="_top" xlink:title=" ">
<polygon fill="white" stroke="#666666" points="376,-193.5 257,-193.5 257,-163.5 376,-163.5 376,-193.5"/>
<text text-anchor="start" x="265" y="-181.5" font-family="Helvetica,sans-Serif" font-size="10.00">get_player_index_for</text>
<text text-anchor="middle" x="316.5" y="-170.5" font-family="Helvetica,sans-Serif" font-size="10.00">_player</text>
</a>
</g>
</g>
<!-- Node7&#45;&gt;Node40 -->
<g id="edge42_Node000007_Node000040" class="edge">
<title>Node7&#45;&gt;Node40</title>
<g id="a_edge42_Node000007_Node000040"><a xlink:title=" ">
<path fill="none" stroke="#63b8ff" d="M210.55,-372.88C214.48,-370.64 218.1,-367.89 221,-364.5 268.98,-308.48 209.48,-258.91 257,-202.5 257.72,-201.64 258.49,-200.81 259.28,-200.01"/>
<polygon fill="#63b8ff" stroke="#63b8ff" points="261.63,-202.61 267.16,-193.57 257.2,-197.19 261.63,-202.61"/>
</a>
</g>
</g>
<!-- Node9 -->
<g id="Node000009" class="node">
<title>Node9</title>
<g id="a_Node000009"><a xlink:href="code__8008C1D0_8c.html#ad164a912d7ef76f24e7b5cfb9169c16f" target="_top" xlink:title=" ">
<polygon fill="white" stroke="#666666" points="516,-761 423,-761 423,-742 516,-742 516,-761"/>
<text text-anchor="middle" x="469.5" y="-749" font-family="Helvetica,sans-Serif" font-size="10.00">func_8008C6D0</text>
</a>
</g>
</g>
<!-- Node8&#45;&gt;Node9 -->
<g id="edge8_Node000008_Node000009" class="edge">
<title>Node8&#45;&gt;Node9</title>
<g id="a_edge8_Node000008_Node000009"><a xlink:title=" ">
<path fill="none" stroke="#63b8ff" d="M362.62,-482.25C367.69,-484.84 372.34,-488.18 376,-492.5 445.98,-575.16 341.79,-651.04 412,-733.5 412.75,-734.38 413.54,-735.22 414.38,-736.02"/>
<polygon fill="#63b8ff" stroke="#63b8ff" points="412.61,-739.07 422.74,-742.16 416.75,-733.42 412.61,-739.07"/>
</a>
</g>
</g>
<!-- Node10 -->
<g id="Node000010" class="node">
<title>Node10</title>
<g id="a_Node000010"><a xlink:href="code__8008C1D0_8c.html#a105203221e314be241a95e006b62ef80" target="_top" xlink:title=" ">
<polygon fill="white" stroke="#666666" points="515.5,-724 423.5,-724 423.5,-705 515.5,-705 515.5,-724"/>
<text text-anchor="middle" x="469.5" y="-712" font-family="Helvetica,sans-Serif" font-size="10.00">func_8008C8C4</text>
</a>
</g>
</g>
<!-- Node8&#45;&gt;Node10 -->
<g id="edge9_Node000008_Node000010" class="edge">
<title>Node8&#45;&gt;Node10</title>
<g id="a_edge9_Node000008_Node000010"><a xlink:title=" ">
<path fill="none" stroke="#63b8ff" d="M362.51,-482.34C367.6,-484.91 372.29,-488.23 376,-492.5 436.41,-561.98 351.39,-627.19 412,-696.5 412.9,-697.52 413.85,-698.49 414.85,-699.4"/>
<polygon fill="#63b8ff" stroke="#63b8ff" points="413.18,-702.51 423.38,-705.38 417.2,-696.78 413.18,-702.51"/>
</a>
</g>
</g>
<!-- Node11 -->
<g id="Node000011" class="node">
<title>Node11</title>
<g id="a_Node000011"><a xlink:href="code__8008C1D0_8c.html#acab450a6af6eca812ad3987a292a5165" target="_top" xlink:title=" ">
<polygon fill="white" stroke="#666666" points="515.5,-687 423.5,-687 423.5,-668 515.5,-668 515.5,-687"/>
<text text-anchor="middle" x="469.5" y="-675" font-family="Helvetica,sans-Serif" font-size="10.00">func_8008D0E4</text>
</a>
</g>
</g>
<!-- Node8&#45;&gt;Node11 -->
<g id="edge10_Node000008_Node000011" class="edge">
<title>Node8&#45;&gt;Node11</title>
<g id="a_edge10_Node000008_Node000011"><a xlink:title=" ">
<path fill="none" stroke="#63b8ff" d="M362.65,-482.62C367.65,-485.15 372.28,-488.38 376,-492.5 426.89,-548.85 360.95,-603.29 412,-659.5 412.9,-660.49 413.84,-661.42 414.84,-662.3"/>
<polygon fill="#63b8ff" stroke="#63b8ff" points="413.03,-665.3 423.24,-668.11 417.01,-659.55 413.03,-665.3"/>
</a>
</g>
</g>
<!-- Node12 -->
<g id="Node000012" class="node">
<title>Node12</title>
<g id="a_Node000012"><a xlink:href="code__8008C1D0_8c.html#a663cb8df8b606cf00e361977c9d6d834" target="_top" xlink:title=" ">
<polygon fill="white" stroke="#666666" points="516,-650 423,-650 423,-631 516,-631 516,-650"/>
<text text-anchor="middle" x="469.5" y="-638" font-family="Helvetica,sans-Serif" font-size="10.00">func_8008D3B0</text>
</a>
</g>
</g>
<!-- Node8&#45;&gt;Node12 -->
<g id="edge11_Node000008_Node000012" class="edge">
<title>Node8&#45;&gt;Node12</title>
<g id="a_edge11_Node000008_Node000012"><a xlink:title=" ">
<path fill="none" stroke="#63b8ff" d="M362.72,-482.97C367.65,-485.44 372.23,-488.57 376,-492.5 417.45,-535.81 370.43,-579.3 412,-622.5 412.92,-623.46 413.9,-624.37 414.92,-625.23"/>
<polygon fill="#63b8ff" stroke="#63b8ff" points="413.19,-628.28 423.45,-630.92 417.07,-622.46 413.19,-628.28"/>
</a>
</g>
</g>
<!-- Node13 -->
<g id="Node000013" class="node">
<title>Node13</title>
<g id="a_Node000013"><a xlink:href="code__8008C1D0_8c.html#ae7bb91110e710a8f32fcd4c56c56f934" target="_top" xlink:title=" ">
<polygon fill="white" stroke="#666666" points="515.5,-613 423.5,-613 423.5,-594 515.5,-594 515.5,-613"/>
<text text-anchor="middle" x="469.5" y="-601" font-family="Helvetica,sans-Serif" font-size="10.00">func_8008D554</text>
</a>
</g>
</g>
<!-- Node8&#45;&gt;Node13 -->
<g id="edge12_Node000008_Node000013" class="edge">
<title>Node8&#45;&gt;Node13</title>
<g id="a_edge12_Node000008_Node000013"><a xlink:title=" ">
<path fill="none" stroke="#63b8ff" d="M361.76,-483.06C366.97,-485.52 371.89,-488.61 376,-492.5 408.19,-522.96 379.72,-555.13 412,-585.5 413.12,-586.56 414.31,-587.55 415.55,-588.49"/>
<polygon fill="#63b8ff" stroke="#63b8ff" points="413.98,-591.64 424.34,-593.87 417.64,-585.66 413.98,-591.64"/>
</a>
</g>
</g>
<!-- Node14 -->
<g id="Node000014" class="node">
<title>Node14</title>
<g id="a_Node000014"><a xlink:href="code__8008C1D0_8c.html#a5f19eaaa048055d292d02c717e635786" target="_top" xlink:title=" ">
<polygon fill="white" stroke="#666666" points="515.5,-576 423.5,-576 423.5,-557 515.5,-557 515.5,-576"/>
<text text-anchor="middle" x="469.5" y="-564" font-family="Helvetica,sans-Serif" font-size="10.00">func_8008D760</text>
</a>
</g>
</g>
<!-- Node8&#45;&gt;Node14 -->
<g id="edge13_Node000008_Node000014" class="edge">
<title>Node8&#45;&gt;Node14</title>
<g id="a_edge13_Node000008_Node000014"><a xlink:title=" ">
<path fill="none" stroke="#63b8ff" d="M359.25,-483.1C365.21,-485.57 371.01,-488.65 376,-492.5 399.43,-510.56 388.52,-530.5 412,-548.5 413.79,-549.87 415.69,-551.14 417.67,-552.32"/>
<polygon fill="#63b8ff" stroke="#63b8ff" points="416.22,-555.51 426.72,-556.88 419.37,-549.26 416.22,-555.51"/>
</a>
</g>
</g>
<!-- Node15 -->
<g id="Node000015" class="node">
<title>Node15</title>
<g id="a_Node000015"><a xlink:href="code__8008C1D0_8c.html#a4ea2da0616ee3c475e4be217dc0bc71f" target="_top" xlink:title=" ">
<polygon fill="white" stroke="#666666" points="516,-539 423,-539 423,-520 516,-520 516,-539"/>
<text text-anchor="middle" x="469.5" y="-527" font-family="Helvetica,sans-Serif" font-size="10.00">func_8008D97C</text>
</a>
</g>
</g>
<!-- Node8&#45;&gt;Node15 -->
<g id="edge14_Node000008_Node000015" class="edge">
<title>Node8&#45;&gt;Node15</title>
<g id="a_edge14_Node000008_Node000015"><a xlink:title=" ">
<path fill="none" stroke="#63b8ff" d="M350.35,-483.08C358.82,-485.84 367.84,-489.05 376,-492.5 392.66,-499.54 395.32,-504.5 412,-511.5 416.4,-513.34 421.05,-515.11 425.73,-516.76"/>
<polygon fill="#63b8ff" stroke="#63b8ff" points="424.69,-520.11 435.28,-520 426.93,-513.48 424.69,-520.11"/>
</a>
</g>
</g>
<!-- Node16 -->
<g id="Node000016" class="node">
<title>Node16</title>
<g id="a_Node000016"><a xlink:href="code__8008C1D0_8c.html#a4a437d6caeeaa794bcce43ec60c097e9" target="_top" xlink:title=" ">
<polygon fill="white" stroke="#666666" points="515,-502 424,-502 424,-483 515,-483 515,-502"/>
<text text-anchor="middle" x="469.5" y="-490" font-family="Helvetica,sans-Serif" font-size="10.00">func_8008E884</text>
</a>
</g>
</g>
<!-- Node8&#45;&gt;Node16 -->
<g id="edge15_Node000008_Node000016" class="edge">
<title>Node8&#45;&gt;Node16</title>
<g id="a_edge15_Node000008_Node000016"><a xlink:title=" ">
<path fill="none" stroke="#63b8ff" d="M362.8,-479.2C378.78,-481.21 396.9,-483.49 413.58,-485.59"/>
<polygon fill="#63b8ff" stroke="#63b8ff" points="413.39,-489.09 423.75,-486.87 414.26,-482.15 413.39,-489.09"/>
</a>
</g>
</g>
<!-- Node17 -->
<g id="Node000017" class="node">
<title>Node17</title>
<g id="a_Node000017"><a xlink:href="code__8008C1D0_8c.html#a4e2c6d0ba50b7c13695f74f1c2bc7b18" target="_top" xlink:title=" ">
<polygon fill="white" stroke="#666666" points="515.5,-465 423.5,-465 423.5,-446 515.5,-446 515.5,-465"/>
<text text-anchor="middle" x="469.5" y="-453" font-family="Helvetica,sans-Serif" font-size="10.00">func_8008EC34</text>
</a>
</g>
</g>
<!-- Node8&#45;&gt;Node17 -->
<g id="edge16_Node000008_Node000017" class="edge">
<title>Node8&#45;&gt;Node17</title>
<g id="a_edge16_Node000008_Node000017"><a xlink:title=" ">
<path fill="none" stroke="#63b8ff" d="M362.8,-468.1C378.7,-466.2 396.74,-464.05 413.36,-462.07"/>
<polygon fill="#63b8ff" stroke="#63b8ff" points="413.97,-465.52 423.49,-460.87 413.14,-458.57 413.97,-465.52"/>
</a>
</g>
</g>
<!-- Node18 -->
<g id="Node000018" class="node">
<title>Node18</title>
<g id="a_Node000018"><a xlink:href="code__8008C1D0_8c.html#ae48f5d9507d1966754bc1aa1bddc4136" target="_top" xlink:title=" ">
<polygon fill="white" stroke="#666666" points="515.5,-428 423.5,-428 423.5,-409 515.5,-409 515.5,-428"/>
<text text-anchor="middle" x="469.5" y="-416" font-family="Helvetica,sans-Serif" font-size="10.00">func_8008EEC4</text>
</a>
</g>
</g>
<!-- Node8&#45;&gt;Node18 -->
<g id="edge17_Node000008_Node000018" class="edge">
<title>Node8&#45;&gt;Node18</title>
<g id="a_edge17_Node000008_Node000018"><a xlink:title=" ">
<path fill="none" stroke="#63b8ff" d="M341.88,-463.91C360.9,-456.5 388.04,-446.09 412,-437.5 417.68,-435.46 423.7,-433.37 429.62,-431.35"/>
<polygon fill="#63b8ff" stroke="#63b8ff" points="431.04,-434.56 439.39,-428.04 428.8,-427.93 431.04,-434.56"/>
</a>
</g>
</g>
<!-- Node19 -->
<g id="Node000019" class="node">
<title>Node19</title>
<g id="a_Node000019"><a xlink:href="code__8008C1D0_8c.html#a77e26f2cff6381f9ba1575f8da060571" target="_top" xlink:title=" ">
<polygon fill="white" stroke="#666666" points="515,-391 424,-391 424,-372 515,-372 515,-391"/>
<text text-anchor="middle" x="469.5" y="-379" font-family="Helvetica,sans-Serif" font-size="10.00">func_8008F0E8</text>
</a>
</g>
</g>
<!-- Node8&#45;&gt;Node19 -->
<g id="edge18_Node000008_Node000019" class="edge">
<title>Node8&#45;&gt;Node19</title>
<g id="a_edge18_Node000008_Node000019"><a xlink:title=" ">
<path fill="none" stroke="#63b8ff" d="M327.47,-463.94C343.89,-448.66 378.18,-418.59 412,-400.5 415.96,-398.38 420.19,-396.44 424.5,-394.67"/>
<polygon fill="#63b8ff" stroke="#63b8ff" points="425.87,-397.9 433.97,-391.07 423.38,-391.35 425.87,-397.9"/>
</a>
</g>
</g>
<!-- Node20 -->
<g id="Node000020" class="node">
<title>Node20</title>
<g id="a_Node000020"><a xlink:href="code__8008C1D0_8c.html#ae02351b6bbb678b552ec8864b47fc56c" target="_top" xlink:title=" ">
<polygon fill="white" stroke="#666666" points="515,-354 424,-354 424,-335 515,-335 515,-354"/>
<text text-anchor="middle" x="469.5" y="-342" font-family="Helvetica,sans-Serif" font-size="10.00">func_8008F3E0</text>
</a>
</g>
</g>
<!-- Node8&#45;&gt;Node20 -->
<g id="edge19_Node000008_Node000020" class="edge">
<title>Node8&#45;&gt;Node20</title>
<g id="a_edge19_Node000008_Node000020"><a xlink:title=" ">
<path fill="none" stroke="#63b8ff" d="M323.29,-463.73C336.39,-442.43 370.44,-391.49 412,-363.5 414.92,-361.53 418.06,-359.75 421.32,-358.14"/>
<polygon fill="#63b8ff" stroke="#63b8ff" points="422.92,-361.26 430.69,-354.06 420.13,-354.85 422.92,-361.26"/>
</a>
</g>
</g>
<!-- Node21 -->
<g id="Node000021" class="node">
<title>Node21</title>
<g id="a_Node000021"><a xlink:href="code__8008C1D0_8c.html#afcf39ca15166fb7561402462930cd979" target="_top" xlink:title=" ">
<polygon fill="white" stroke="#666666" points="515.5,-317 423.5,-317 423.5,-298 515.5,-298 515.5,-317"/>
<text text-anchor="middle" x="469.5" y="-305" font-family="Helvetica,sans-Serif" font-size="10.00">func_8008F5A4</text>
</a>
</g>
</g>
<!-- Node8&#45;&gt;Node21 -->
<g id="edge20_Node000008_Node000021" class="edge">
<title>Node8&#45;&gt;Node21</title>
<g id="a_edge20_Node000008_Node000021"><a xlink:title=" ">
<path fill="none" stroke="#63b8ff" d="M322.67,-463.72C338.47,-434.11 386.63,-346.27 412,-326.5 414.41,-324.62 417.02,-322.92 419.75,-321.39"/>
<polygon fill="#63b8ff" stroke="#63b8ff" points="421.29,-324.53 428.76,-317.02 418.24,-318.23 421.29,-324.53"/>
</a>
</g>
</g>
<!-- Node26 -->
<g id="Node000026" class="node">
<title>Node26</title>
<g id="a_Node000026"><a xlink:href="code__8008C1D0_8c.html#ab6d84742231847170dd64267f0519cdf" target="_top" xlink:title=" ">
<polygon fill="white" stroke="#666666" points="516,-280 423,-280 423,-261 516,-261 516,-280"/>
<text text-anchor="middle" x="469.5" y="-268" font-family="Helvetica,sans-Serif" font-size="10.00">func_8008FEDC</text>
</a>
</g>
</g>
<!-- Node8&#45;&gt;Node26 -->
<g id="edge25_Node000008_Node000026" class="edge">
<title>Node8&#45;&gt;Node26</title>
<g id="a_edge25_Node000008_Node000026"><a xlink:title=" ">
<path fill="none" stroke="#63b8ff" d="M323.28,-463.91C334.13,-445.75 358.07,-405 376,-369.5 393.58,-334.7 383.11,-315.68 412,-289.5 413.74,-287.92 415.63,-286.47 417.6,-285.14"/>
<polygon fill="#63b8ff" stroke="#63b8ff" points="419.74,-287.96 426.79,-280.05 416.35,-281.83 419.74,-287.96"/>
</a>
</g>
</g>
<!-- Node22 -->
<g id="Node000022" class="node">
<title>Node22</title>
<g id="a_Node000022"><a xlink:href="code__80057C60_8c.html#a0a55fae21abd30d3c618adef1a9f3ccd" target="_top" xlink:title=" ">
<polygon fill="white" stroke="#666666" points="655.5,-357 563.5,-357 563.5,-338 655.5,-338 655.5,-357"/>
<text text-anchor="middle" x="609.5" y="-345" font-family="Helvetica,sans-Serif" font-size="10.00">func_8006B8B4</text>
</a>
</g>
</g>
<!-- Node21&#45;&gt;Node22 -->
<g id="edge21_Node000021_Node000022" class="edge">
<title>Node21&#45;&gt;Node22</title>
<g id="a_edge21_Node000021_Node000022"><a xlink:title=" ">
<path fill="none" stroke="#63b8ff" d="M503.55,-317.08C522.25,-322.5 545.82,-329.33 565.88,-335.15"/>
<polygon fill="#63b8ff" stroke="#63b8ff" points="565.14,-338.57 575.72,-338 567.09,-331.85 565.14,-338.57"/>
</a>
</g>
</g>
<!-- Node23 -->
<g id="Node000023" class="node">
<title>Node23</title>
<g id="a_Node000023"><a xlink:href="code__8008C1D0_8c.html#a1c7552c4a370cc015c2726e40f1fdb06" target="_top" xlink:title=" ">
<polygon fill="white" stroke="#666666" points="785,-394 692,-394 692,-375 785,-375 785,-394"/>
<text text-anchor="middle" x="738.5" y="-382" font-family="Helvetica,sans-Serif" font-size="10.00">func_8008FD4C</text>
</a>
</g>
</g>
<!-- Node22&#45;&gt;Node23 -->
<g id="edge22_Node000022_Node000023" class="edge">
<title>Node22&#45;&gt;Node23</title>
<g id="a_edge22_Node000022_Node000023"><a xlink:title=" ">
<path fill="none" stroke="#63b8ff" d="M643.21,-357.03C658.93,-361.61 677.99,-367.16 694.84,-372.07"/>
<polygon fill="#63b8ff" stroke="#63b8ff" points="693.88,-375.44 704.46,-374.88 695.84,-368.72 693.88,-375.44"/>
</a>
</g>
</g>
<!-- Node24 -->
<g id="Node000024" class="node">
<title>Node24</title>
<g id="a_Node000024"><a xlink:href="external_8c.html#a517352d45a01341217ab2c073b3b223f" target="_top" xlink:title=" ">
<polygon fill="white" stroke="#666666" points="784.5,-357 692.5,-357 692.5,-338 784.5,-338 784.5,-357"/>
<text text-anchor="middle" x="738.5" y="-345" font-family="Helvetica,sans-Serif" font-size="10.00">func_800C9060</text>
</a>
</g>
</g>
<!-- Node22&#45;&gt;Node24 -->
<g id="edge23_Node000022_Node000024" class="edge">
<title>Node22&#45;&gt;Node24</title>
<g id="a_edge23_Node000022_Node000024"><a xlink:title=" ">
<path fill="none" stroke="#63b8ff" d="M655.63,-347.5C664.14,-347.5 673.13,-347.5 681.91,-347.5"/>
<polygon fill="#63b8ff" stroke="#63b8ff" points="682.08,-351 692.08,-347.5 682.08,-344 682.08,-351"/>
</a>
</g>
</g>
<!-- Node25 -->
<g id="Node000025" class="node">
<title>Node25</title>
<g id="a_Node000025"><a xlink:href="external_8c.html#a62e16f9600e7e9beda2c9d2df10f3561" target="_top" xlink:title=" ">
<polygon fill="white" stroke="#666666" points="893,-338 821,-338 821,-319 893,-319 893,-338"/>
<text text-anchor="middle" x="857" y="-326" font-family="Helvetica,sans-Serif" font-size="10.00">play_sound</text>
</a>
</g>
</g>
<!-- Node24&#45;&gt;Node25 -->
<g id="edge24_Node000024_Node000025" class="edge">
<title>Node24&#45;&gt;Node25</title>
<g id="a_edge24_Node000024_Node000025"><a xlink:title=" ">
<path fill="none" stroke="#63b8ff" d="M784.54,-340.15C793.19,-338.74 802.26,-337.27 810.91,-335.85"/>
<polygon fill="#63b8ff" stroke="#63b8ff" points="811.53,-339.3 820.83,-334.24 810.4,-332.39 811.53,-339.3"/>
</a>
</g>
</g>
<!-- Node28 -->
<g id="Node000028" class="node">
<title>Node28</title>
<g id="a_Node000028"><a xlink:href="render__player_8c.html#a35eebbf671cc37666be29a2a9b6f3c8c" target="_top" xlink:title=" ">
<polygon fill="white" stroke="#666666" points="524.5,-243 414.5,-243 414.5,-224 524.5,-224 524.5,-243"/>
<text text-anchor="middle" x="469.5" y="-231" font-family="Helvetica,sans-Serif" font-size="10.00">move_f32_towards</text>
</a>
</g>
</g>
<!-- Node27&#45;&gt;Node28 -->
<g id="edge27_Node000027_Node000028" class="edge">
<title>Node27&#45;&gt;Node28</title>
<g id="a_edge27_Node000027_Node000028"><a xlink:title=" ">
<path fill="none" stroke="#63b8ff" d="M324.19,-340.95C338.25,-321.55 372.85,-277.26 412,-252.5 415.16,-250.5 418.55,-248.69 422.05,-247.05"/>
<polygon fill="#63b8ff" stroke="#63b8ff" points="423.59,-250.2 431.46,-243.1 420.89,-243.74 423.59,-250.2"/>
</a>
</g>
</g>
<!-- Node30 -->
<g id="Node000030" class="node">
<title>Node30</title>
<g id="a_Node000030"><a xlink:href="external_8c.html#ac32b332e8b9a73af543741393186060d" target="_top" xlink:title=" ">
<polygon fill="white" stroke="#666666" points="515.5,-206 423.5,-206 423.5,-187 515.5,-187 515.5,-206"/>
<text text-anchor="middle" x="469.5" y="-194" font-family="Helvetica,sans-Serif" font-size="10.00">func_800CA730</text>
</a>
</g>
</g>
<!-- Node29&#45;&gt;Node30 -->
<g id="edge29_Node000029_Node000030" class="edge">
<title>Node29&#45;&gt;Node30</title>
<g id="a_edge29_Node000029_Node000030"><a xlink:title=" ">
<path fill="none" stroke="#63b8ff" d="M362.8,-214C378.7,-211.37 396.74,-208.38 413.36,-205.63"/>
<polygon fill="#63b8ff" stroke="#63b8ff" points="414.19,-209.04 423.49,-203.95 413.05,-202.13 414.19,-209.04"/>
</a>
</g>
</g>
<!-- Node38 -->
<g id="Node000038" class="node">
<title>Node38</title>
<g id="a_Node000038"><a xlink:href="external_8c.html#a3138069310bbed5109964d607d51811f" target="_top" xlink:title=" ">
<polygon fill="white" stroke="#666666" points="517,-57 422,-57 422,-38 517,-38 517,-57"/>
<text text-anchor="middle" x="469.5" y="-45" font-family="Helvetica,sans-Serif" font-size="10.00">func_800CAACC</text>
</a>
</g>
</g>
<!-- Node29&#45;&gt;Node38 -->
<g id="edge39_Node000029_Node000038" class="edge">
<title>Node29&#45;&gt;Node38</title>
<g id="a_edge39_Node000029_Node000038"><a xlink:title=" ">
<path fill="none" stroke="#63b8ff" d="M359.66,-211.92C365.51,-209.45 371.16,-206.36 376,-202.5 422,-165.8 450.28,-99.55 462.09,-66.84"/>
<polygon fill="#63b8ff" stroke="#63b8ff" points="465.49,-67.72 465.47,-57.12 458.88,-65.42 465.49,-67.72"/>
</a>
</g>
</g>
<!-- Node30&#45;&gt;Node25 -->
<g id="edge38_Node000030_Node000025" class="edge">
<title>Node30&#45;&gt;Node25</title>
<g id="a_edge38_Node000030_Node000025"><a xlink:title=" ">
<path fill="none" stroke="#63b8ff" d="M512.33,-206.05C517.57,-208.31 522.61,-211.08 527,-214.5 550.93,-233.15 538,-255.32 563,-272.5 602.61,-299.72 738.82,-316.91 810.72,-324.3"/>
<polygon fill="#63b8ff" stroke="#63b8ff" points="810.55,-327.8 820.85,-325.32 811.25,-320.84 810.55,-327.8"/>
</a>
</g>
</g>
<!-- Node31 -->
<g id="Node000031" class="node">
<title>Node31</title>
<g id="a_Node000031"><a xlink:href="external_8c.html#ac48b7cbfcaa7737f892877ead85e4ba7" target="_top" xlink:title=" ">
<polygon fill="white" stroke="#666666" points="784.5,-141 692.5,-141 692.5,-122 784.5,-122 784.5,-141"/>
<text text-anchor="middle" x="738.5" y="-129" font-family="Helvetica,sans-Serif" font-size="10.00">func_800C3448</text>
</a>
</g>
</g>
<!-- Node30&#45;&gt;Node31 -->
<g id="edge30_Node000030_Node000031" class="edge">
<title>Node30&#45;&gt;Node31</title>
<g id="a_edge30_Node000030_Node000031"><a xlink:title=" ">
<path fill="none" stroke="#63b8ff" d="M509.65,-206.11C515.69,-208.39 521.68,-211.16 527,-214.5 546.71,-226.87 541.63,-243.31 563,-252.5 600.97,-268.83 619.51,-271.92 656,-252.5 696.64,-230.87 720.66,-178.95 731.17,-150.66"/>
<polygon fill="#63b8ff" stroke="#63b8ff" points="734.52,-151.68 734.54,-141.09 727.92,-149.36 734.52,-151.68"/>
</a>
</g>
</g>
<!-- Node32 -->
<g id="Node000032" class="node">
<title>Node32</title>
<g id="a_Node000032"><a xlink:href="external_8c.html#ab2ecda68e1fb6f957aafd4c5742e2f63" target="_top" xlink:title=" ">
<polygon fill="white" stroke="#666666" points="655.5,-243 563.5,-243 563.5,-224 655.5,-224 655.5,-243"/>
<text text-anchor="middle" x="609.5" y="-231" font-family="Helvetica,sans-Serif" font-size="10.00">func_800C3508</text>
</a>
</g>
</g>
<!-- Node30&#45;&gt;Node32 -->
<g id="edge31_Node000030_Node000032" class="edge">
<title>Node30&#45;&gt;Node32</title>
<g id="a_edge31_Node000030_Node000032"><a xlink:title=" ">
<path fill="none" stroke="#63b8ff" d="M506.04,-206.03C523.37,-210.67 544.41,-216.32 562.91,-221.28"/>
<polygon fill="#63b8ff" stroke="#63b8ff" points="562.04,-224.67 572.6,-223.88 563.85,-217.9 562.04,-224.67"/>
</a>
</g>
</g>
<!-- Node33 -->
<g id="Node000033" class="node">
<title>Node33</title>
<g id="a_Node000033"><a xlink:href="external_8c.html#a2aea7abf056e029f247b18edb62aa218" target="_top" xlink:title=" ">
<polygon fill="white" stroke="#666666" points="655.5,-206 563.5,-206 563.5,-187 655.5,-187 655.5,-206"/>
<text text-anchor="middle" x="609.5" y="-194" font-family="Helvetica,sans-Serif" font-size="10.00">func_800C357C</text>
</a>
</g>
</g>
<!-- Node30&#45;&gt;Node33 -->
<g id="edge32_Node000030_Node000033" class="edge">
<title>Node30&#45;&gt;Node33</title>
<g id="a_edge32_Node000030_Node000033"><a xlink:title=" ">
<path fill="none" stroke="#63b8ff" d="M515.69,-196.5C527.6,-196.5 540.59,-196.5 552.98,-196.5"/>
<polygon fill="#63b8ff" stroke="#63b8ff" points="553.21,-200 563.21,-196.5 553.21,-193 553.21,-200"/>
</a>
</g>
</g>
<!-- Node34 -->
<g id="Node000034" class="node">
<title>Node34</title>
<g id="a_Node000034"><a xlink:href="external_8c.html#aea29af4ab009f59caa57f45987b0ea86" target="_top" xlink:title=" ">
<polygon fill="white" stroke="#666666" points="655.5,-169 563.5,-169 563.5,-150 655.5,-150 655.5,-169"/>
<text text-anchor="middle" x="609.5" y="-157" font-family="Helvetica,sans-Serif" font-size="10.00">func_800C3608</text>
</a>
</g>
</g>
<!-- Node30&#45;&gt;Node34 -->
<g id="edge33_Node000030_Node000034" class="edge">
<title>Node30&#45;&gt;Node34</title>
<g id="a_edge33_Node000030_Node000034"><a xlink:title=" ">
<path fill="none" stroke="#63b8ff" d="M506.04,-186.97C523.37,-182.33 544.41,-176.68 562.91,-171.72"/>
<polygon fill="#63b8ff" stroke="#63b8ff" points="563.85,-175.1 572.6,-169.12 562.04,-168.33 563.85,-175.1"/>
</a>
</g>
</g>
<!-- Node35 -->
<g id="Node000035" class="node">
<title>Node35</title>
<g id="a_Node000035"><a xlink:href="external_8c.html#afcb6c1c892ff72b06f548327e6e21586" target="_top" xlink:title=" ">
<polygon fill="white" stroke="#666666" points="656,-132 563,-132 563,-113 656,-113 656,-132"/>
<text text-anchor="middle" x="609.5" y="-120" font-family="Helvetica,sans-Serif" font-size="10.00">func_800C8EAC</text>
</a>
</g>
</g>
<!-- Node30&#45;&gt;Node35 -->
<g id="edge34_Node000030_Node000035" class="edge">
<title>Node30&#45;&gt;Node35</title>
<g id="a_edge34_Node000030_Node000035"><a xlink:title=" ">
<path fill="none" stroke="#63b8ff" d="M484.81,-186.8C502.63,-174.96 534.24,-154.77 563,-140.5 566.14,-138.94 569.45,-137.42 572.79,-135.96"/>
<polygon fill="#63b8ff" stroke="#63b8ff" points="574.3,-139.12 582.19,-132.04 571.61,-132.66 574.3,-139.12"/>
</a>
</g>
</g>
<!-- Node36 -->
<g id="Node000036" class="node">
<title>Node36</title>
<g id="a_Node000036"><a xlink:href="external_8c.html#a77dd28bb660c9e64fef58443fb7a1f0e" target="_top" xlink:title=" ">
<polygon fill="white" stroke="#666666" points="655.5,-95 563.5,-95 563.5,-76 655.5,-76 655.5,-95"/>
<text text-anchor="middle" x="609.5" y="-83" font-family="Helvetica,sans-Serif" font-size="10.00">func_800C9018</text>
</a>
</g>
</g>
<!-- Node30&#45;&gt;Node36 -->
<g id="edge36_Node000030_Node000036" class="edge">
<title>Node30&#45;&gt;Node36</title>
<g id="a_edge36_Node000030_Node000036"><a xlink:title=" ">
<path fill="none" stroke="#63b8ff" d="M477.88,-186.77C492.36,-168.26 526.29,-127.67 563,-103.5 565.25,-102.02 567.64,-100.63 570.1,-99.33"/>
<polygon fill="#63b8ff" stroke="#63b8ff" points="571.67,-102.46 579.21,-95.02 568.67,-96.13 571.67,-102.46"/>
</a>
</g>
</g>
<!-- Node35&#45;&gt;Node31 -->
<g id="edge35_Node000035_Node000031" class="edge">
<title>Node35&#45;&gt;Node31</title>
<g id="a_edge35_Node000035_Node000031"><a xlink:title=" ">
<path fill="none" stroke="#63b8ff" d="M656.35,-125.75C664.72,-126.34 673.54,-126.97 682.16,-127.58"/>
<polygon fill="#63b8ff" stroke="#63b8ff" points="681.92,-131.07 692.14,-128.29 682.42,-124.09 681.92,-131.07"/>
</a>
</g>
</g>
<!-- Node37 -->
<g id="Node000037" class="node">
<title>Node37</title>
<g id="a_Node000037"><a xlink:href="external_8h.html#a69165d21844ba08a94405ec729d386d4" target="_top" xlink:title=" ">
<polygon fill="white" stroke="#666666" points="784.5,-85 692.5,-85 692.5,-66 784.5,-66 784.5,-85"/>
<text text-anchor="middle" x="738.5" y="-73" font-family="Helvetica,sans-Serif" font-size="10.00">func_800C5578</text>
</a>
</g>
</g>
<!-- Node36&#45;&gt;Node37 -->
<g id="edge37_Node000036_Node000037" class="edge">
<title>Node36&#45;&gt;Node37</title>
<g id="a_edge37_Node000036_Node000037"><a xlink:title=" ">
<path fill="none" stroke="#63b8ff" d="M655.63,-81.95C664.14,-81.28 673.13,-80.57 681.91,-79.88"/>
<polygon fill="#63b8ff" stroke="#63b8ff" points="682.39,-83.35 692.08,-79.08 681.84,-76.37 682.39,-83.35"/>
</a>
</g>
</g>
<!-- Node38&#45;&gt;Node37 -->
<g id="edge41_Node000038_Node000037" class="edge">
<title>Node38&#45;&gt;Node37</title>
<g id="a_edge41_Node000038_Node000037"><a xlink:title=" ">
<path fill="none" stroke="#63b8ff" d="M517.01,-52.16C554.54,-55.95 608.68,-61.46 656,-66.5 664.44,-67.4 673.38,-68.37 682.12,-69.32"/>
<polygon fill="#63b8ff" stroke="#63b8ff" points="681.92,-72.82 692.24,-70.44 682.69,-65.87 681.92,-72.82"/>
</a>
</g>
</g>
<!-- Node39 -->
<g id="Node000039" class="node">
<title>Node39</title>
<g id="a_Node000039"><a xlink:href="external_8c.html#a1c8490eb4720c317dd29ed76a1c4ea32" target="_top" xlink:title=" ">
<polygon fill="white" stroke="#666666" points="655.5,-19 563.5,-19 563.5,0 655.5,0 655.5,-19"/>
<text text-anchor="middle" x="609.5" y="-7" font-family="Helvetica,sans-Serif" font-size="10.00">func_800C21E8</text>
</a>
</g>
</g>
<!-- Node38&#45;&gt;Node39 -->
<g id="edge40_Node000038_Node000039" class="edge">
<title>Node38&#45;&gt;Node39</title>
<g id="a_edge40_Node000038_Node000039"><a xlink:title=" ">
<path fill="none" stroke="#63b8ff" d="M505.32,-37.91C523.14,-33.01 545.02,-26.98 564.04,-21.74"/>
<polygon fill="#63b8ff" stroke="#63b8ff" points="564.98,-25.12 573.69,-19.09 563.12,-18.37 564.98,-25.12"/>
</a>
</g>
</g>
</g>
</svg>
