<?xml version="1.0" encoding="UTF-8" standalone="no"?>
<!DOCTYPE svg PUBLIC "-//W3C//DTD SVG 1.1//EN"
 "http://www.w3.org/Graphics/SVG/1.1/DTD/svg11.dtd">
<!-- Generated by graphviz version 2.43.0 (0)
 -->
<!-- Title: func_800098FC Pages: 1 -->
<svg width="2181pt" height="378pt"
 viewBox="0.00 0.00 2181.00 378.00" xmlns="http://www.w3.org/2000/svg" xmlns:xlink="http://www.w3.org/1999/xlink">
<g id="graph0" class="graph" transform="scale(1 1) rotate(0) translate(4 374)">
<title>func_800098FC</title>
<!-- Node1 -->
<g id="Node000001" class="node">
<title>Node1</title>
<g id="a_Node000001"><a xlink:title=" ">
<polygon fill="#999999" stroke="#666666" points="2173,-122 2081,-122 2081,-103 2173,-103 2173,-122"/>
<text text-anchor="middle" x="2127" y="-110" font-family="Helvetica,sans-Serif" font-size="10.00">func_800098FC</text>
</a>
</g>
</g>
<!-- Node2 -->
<g id="Node000002" class="node">
<title>Node2</title>
<g id="a_Node000002"><a xlink:href="effects_8c.html#a4db388444870e3607555465cde8d2b69" target="_top" xlink:title=" ">
<polygon fill="white" stroke="#666666" points="1889,-181.5 1748,-181.5 1748,-151.5 1889,-151.5 1889,-181.5"/>
<text text-anchor="start" x="1756" y="-169.5" font-family="Helvetica,sans-Serif" font-size="10.00">apply_hit_by_item_sound</text>
<text text-anchor="middle" x="1818.5" y="-158.5" font-family="Helvetica,sans-Serif" font-size="10.00">_effect</text>
</a>
</g>
</g>
<!-- Node1&#45;&gt;Node2 -->
<g id="edge1_Node000001_Node000002" class="edge">
<title>Node1&#45;&gt;Node2</title>
<g id="a_edge1_Node000001_Node000002"><a xlink:title=" ">
<path fill="none" stroke="#63b8ff" d="M2105.97,-128.33C2090.35,-139.65 2067.58,-153.99 2045,-160.5 1994.29,-175.12 1934.49,-176.01 1889.22,-173.58"/>
<polygon fill="#63b8ff" stroke="#63b8ff" points="2108.38,-130.89 2114.29,-122.1 2104.19,-125.29 2108.38,-130.89"/>
</a>
</g>
</g>
<!-- Node28 -->
<g id="Node000028" class="node">
<title>Node28</title>
<g id="a_Node000028"><a xlink:href="effects_8c.html#aece20fae49c1ae118b247aec04f52f83" target="_top" xlink:title=" ">
<polygon fill="white" stroke="#666666" points="2037.5,-151.5 1932.5,-151.5 1932.5,-121.5 2037.5,-121.5 2037.5,-151.5"/>
<text text-anchor="start" x="1940.5" y="-139.5" font-family="Helvetica,sans-Serif" font-size="10.00">apply_hit_rotating</text>
<text text-anchor="middle" x="1985" y="-128.5" font-family="Helvetica,sans-Serif" font-size="10.00">_sound_effect</text>
</a>
</g>
</g>
<!-- Node1&#45;&gt;Node28 -->
<g id="edge39_Node000001_Node000028" class="edge">
<title>Node1&#45;&gt;Node28</title>
<g id="a_edge39_Node000001_Node000028"><a xlink:title=" ">
<path fill="none" stroke="#63b8ff" d="M2071.05,-121.92C2060.11,-123.8 2048.64,-125.76 2037.8,-127.62"/>
<polygon fill="#63b8ff" stroke="#63b8ff" points="2071.67,-125.37 2080.93,-120.23 2070.48,-118.47 2071.67,-125.37"/>
</a>
</g>
</g>
<!-- Node29 -->
<g id="Node000029" class="node">
<title>Node29</title>
<g id="a_Node000029"><a xlink:href="effects_8c.html#a2e2b359005e34837a43e9705201f1b5c" target="_top" xlink:title=" ">
<polygon fill="white" stroke="#666666" points="1883,-19 1754,-19 1754,0 1883,0 1883,-19"/>
<text text-anchor="middle" x="1818.5" y="-7" font-family="Helvetica,sans-Serif" font-size="10.00">apply_hit_sound_effect</text>
</a>
</g>
</g>
<!-- Node1&#45;&gt;Node29 -->
<g id="edge41_Node000001_Node000029" class="edge">
<title>Node1&#45;&gt;Node29</title>
<g id="a_edge41_Node000001_Node000029"><a xlink:title=" ">
<path fill="none" stroke="#63b8ff" d="M2114.95,-94.35C2101.33,-73.83 2076.14,-41.36 2045,-26.5 1994.51,-2.4 1930.36,0.13 1883.4,-2.35"/>
<polygon fill="#63b8ff" stroke="#63b8ff" points="2112.03,-96.29 2120.37,-102.83 2117.93,-92.52 2112.03,-96.29"/>
</a>
</g>
</g>
<!-- Node35 -->
<g id="Node000035" class="node">
<title>Node35</title>
<g id="a_Node000035"><a xlink:href="effects_8c.html#a5332b3e2f6c9720f7fd0eea6b7af3359" target="_top" xlink:title=" ">
<polygon fill="white" stroke="#666666" points="2045,-103.5 1925,-103.5 1925,-73.5 2045,-73.5 2045,-103.5"/>
<text text-anchor="start" x="1933" y="-91.5" font-family="Helvetica,sans-Serif" font-size="10.00">apply_reverse_sound</text>
<text text-anchor="middle" x="1985" y="-80.5" font-family="Helvetica,sans-Serif" font-size="10.00">_effect</text>
</a>
</g>
</g>
<!-- Node1&#45;&gt;Node35 -->
<g id="edge54_Node000001_Node000035" class="edge">
<title>Node1&#45;&gt;Node35</title>
<g id="a_edge54_Node000001_Node000035"><a xlink:title=" ">
<path fill="none" stroke="#63b8ff" d="M2070.8,-103.04C2062.34,-101.59 2053.58,-100.09 2045.04,-98.62"/>
<polygon fill="#63b8ff" stroke="#63b8ff" points="2070.48,-106.53 2080.93,-104.77 2071.67,-99.63 2070.48,-106.53"/>
</a>
</g>
</g>
<!-- Node36 -->
<g id="Node000036" class="node">
<title>Node36</title>
<g id="a_Node000036"><a xlink:href="effects_8c.html#a6fc4c8f6786be15941bfce0c8575b7cf" target="_top" xlink:title=" ">
<polygon fill="white" stroke="#666666" points="2031,-55 1939,-55 1939,-36 2031,-36 2031,-55"/>
<text text-anchor="middle" x="1985" y="-43" font-family="Helvetica,sans-Serif" font-size="10.00">func_8008C528</text>
</a>
</g>
</g>
<!-- Node1&#45;&gt;Node36 -->
<g id="edge56_Node000001_Node000036" class="edge">
<title>Node1&#45;&gt;Node36</title>
<g id="a_edge56_Node000001_Node000036"><a xlink:title=" ">
<path fill="none" stroke="#63b8ff" d="M2103.32,-97.2C2087.48,-86.98 2065.56,-73.76 2045,-64.5 2037.15,-60.96 2028.45,-57.78 2020.19,-55.08"/>
<polygon fill="#63b8ff" stroke="#63b8ff" points="2101.61,-100.26 2111.89,-102.82 2105.45,-94.41 2101.61,-100.26"/>
</a>
</g>
</g>
<!-- Node37 -->
<g id="Node000037" class="node">
<title>Node37</title>
<g id="a_Node000037"><a xlink:href="effects_8c.html#af25de8f70a7ecb552619235df793b951" target="_top" xlink:title=" ">
<polygon fill="white" stroke="#666666" points="2031,-276 1939,-276 1939,-257 2031,-257 2031,-276"/>
<text text-anchor="middle" x="1985" y="-264" font-family="Helvetica,sans-Serif" font-size="10.00">func_8008C73C</text>
</a>
</g>
</g>
<!-- Node1&#45;&gt;Node37 -->
<g id="edge58_Node000001_Node000037" class="edge">
<title>Node1&#45;&gt;Node37</title>
<g id="a_edge58_Node000001_Node000037"><a xlink:title=" ">
<path fill="none" stroke="#63b8ff" d="M2110.16,-129.93C2080.57,-162.47 2017.83,-231.49 1994.75,-256.87"/>
<polygon fill="#63b8ff" stroke="#63b8ff" points="2113.11,-131.89 2117.24,-122.13 2107.93,-127.18 2113.11,-131.89"/>
</a>
</g>
</g>
<!-- Node3 -->
<g id="Node000003" class="node">
<title>Node3</title>
<g id="a_Node000003"><a xlink:href="player__controller_8c.html#aaec6b5c8b1638cd94b024a5697252c28" target="_top" xlink:title=" ">
<polygon fill="white" stroke="#666666" points="1705,-133 1594,-133 1594,-114 1705,-114 1705,-133"/>
<text text-anchor="middle" x="1649.5" y="-121" font-family="Helvetica,sans-Serif" font-size="10.00">apply_sound_effect</text>
</a>
</g>
</g>
<!-- Node2&#45;&gt;Node3 -->
<g id="edge2_Node000002_Node000003" class="edge">
<title>Node2&#45;&gt;Node3</title>
<g id="a_edge2_Node000002_Node000003"><a xlink:title=" ">
<path fill="none" stroke="#63b8ff" d="M1749.23,-148.92C1728.2,-143.51 1705.84,-137.75 1687.73,-133.09"/>
<polygon fill="#63b8ff" stroke="#63b8ff" points="1748.53,-152.36 1759.09,-151.46 1750.28,-145.58 1748.53,-152.36"/>
</a>
</g>
</g>
<!-- Node4 -->
<g id="Node000004" class="node">
<title>Node4</title>
<g id="a_Node000004"><a xlink:href="player__controller_8c.html#a13b756fb91193f3e7a699b24395c6bb6" target="_top" xlink:title=" ">
<polygon fill="white" stroke="#666666" points="1551,-133 1459,-133 1459,-114 1551,-114 1551,-133"/>
<text text-anchor="middle" x="1505" y="-121" font-family="Helvetica,sans-Serif" font-size="10.00">func_8002B830</text>
</a>
</g>
</g>
<!-- Node3&#45;&gt;Node4 -->
<g id="edge3_Node000003_Node000004" class="edge">
<title>Node3&#45;&gt;Node4</title>
<g id="a_edge3_Node000003_Node000004"><a xlink:title=" ">
<path fill="none" stroke="#63b8ff" d="M1583.76,-123.5C1572.71,-123.5 1561.46,-123.5 1551.06,-123.5"/>
<polygon fill="#63b8ff" stroke="#63b8ff" points="1583.81,-127 1593.81,-123.5 1583.81,-120 1583.81,-127"/>
</a>
</g>
</g>
<!-- Node5 -->
<g id="Node000005" class="node">
<title>Node5</title>
<g id="a_Node000005"><a xlink:href="player__controller_8c.html#a8e6865020b9110bd4dc3353cb7ef0a00" target="_top" xlink:title=" ">
<polygon fill="white" stroke="#666666" points="1423,-133 1292,-133 1292,-114 1423,-114 1423,-133"/>
<text text-anchor="middle" x="1357.5" y="-121" font-family="Helvetica,sans-Serif" font-size="10.00">control_cpu_movement</text>
</a>
</g>
</g>
<!-- Node4&#45;&gt;Node5 -->
<g id="edge4_Node000004_Node000005" class="edge">
<title>Node4&#45;&gt;Node5</title>
<g id="a_edge4_Node000004_Node000005"><a xlink:title=" ">
<path fill="none" stroke="#63b8ff" d="M1448.49,-123.5C1440.23,-123.5 1431.64,-123.5 1423.21,-123.5"/>
<polygon fill="#63b8ff" stroke="#63b8ff" points="1448.76,-127 1458.76,-123.5 1448.76,-120 1448.76,-127"/>
</a>
</g>
</g>
<!-- Node18 -->
<g id="Node000018" class="node">
<title>Node18</title>
<g id="a_Node000018"><a xlink:href="player__controller_8c.html#aafe8b94ccd61104120a9bf0ee954a901" target="_top" xlink:title=" ">
<polygon fill="white" stroke="#666666" points="1403.5,-207 1311.5,-207 1311.5,-188 1403.5,-188 1403.5,-207"/>
<text text-anchor="middle" x="1357.5" y="-195" font-family="Helvetica,sans-Serif" font-size="10.00">func_8002D268</text>
</a>
</g>
</g>
<!-- Node4&#45;&gt;Node18 -->
<g id="edge20_Node000004_Node000018" class="edge">
<title>Node4&#45;&gt;Node18</title>
<g id="a_edge20_Node000004_Node000018"><a xlink:title=" ">
<path fill="none" stroke="#63b8ff" d="M1467.19,-137.56C1464.34,-139.09 1461.58,-140.74 1459,-142.5 1440.05,-155.44 1442.73,-167.79 1423,-179.5 1417.1,-183 1410.5,-185.84 1403.82,-188.15"/>
<polygon fill="#63b8ff" stroke="#63b8ff" points="1468.97,-140.59 1476.44,-133.08 1465.91,-134.29 1468.97,-140.59"/>
</a>
</g>
</g>
<!-- Node26 -->
<g id="Node000026" class="node">
<title>Node26</title>
<g id="a_Node000026"><a xlink:href="player__controller_8c.html#a5bc20a94d467b8daf131fe16ab6a83d7" target="_top" xlink:title=" ">
<polygon fill="white" stroke="#666666" points="1403,-170 1312,-170 1312,-151 1403,-151 1403,-170"/>
<text text-anchor="middle" x="1357.5" y="-158" font-family="Helvetica,sans-Serif" font-size="10.00">func_8002E594</text>
</a>
</g>
</g>
<!-- Node4&#45;&gt;Node26 -->
<g id="edge33_Node000004_Node000026" class="edge">
<title>Node4&#45;&gt;Node26</title>
<g id="a_edge33_Node000004_Node000026"><a xlink:title=" ">
<path fill="none" stroke="#63b8ff" d="M1456.84,-135.49C1437.16,-140.5 1414.63,-146.23 1396.1,-150.94"/>
<polygon fill="#63b8ff" stroke="#63b8ff" points="1457.7,-138.89 1466.53,-133.03 1455.98,-132.1 1457.7,-138.89"/>
</a>
</g>
</g>
<!-- Node27 -->
<g id="Node000027" class="node">
<title>Node27</title>
<g id="a_Node000027"><a xlink:href="player__controller_8c.html#a105e6b6fca9198633b8990b0da71cd25" target="_top" xlink:title=" ">
<polygon fill="white" stroke="#666666" points="1403.5,-96 1311.5,-96 1311.5,-77 1403.5,-77 1403.5,-96"/>
<text text-anchor="middle" x="1357.5" y="-84" font-family="Helvetica,sans-Serif" font-size="10.00">func_80038C6C</text>
</a>
</g>
</g>
<!-- Node4&#45;&gt;Node27 -->
<g id="edge37_Node000004_Node000027" class="edge">
<title>Node4&#45;&gt;Node27</title>
<g id="a_edge37_Node000004_Node000027"><a xlink:title=" ">
<path fill="none" stroke="#63b8ff" d="M1456.84,-111.51C1437.16,-106.5 1414.63,-100.77 1396.1,-96.06"/>
<polygon fill="#63b8ff" stroke="#63b8ff" points="1455.98,-114.9 1466.53,-113.97 1457.7,-108.11 1455.98,-114.9"/>
</a>
</g>
</g>
<!-- Node6 -->
<g id="Node000006" class="node">
<title>Node6</title>
<g id="a_Node000006"><a xlink:href="player__controller_8c.html#a9f21890266acabb27e962652c5ef4cfc" target="_top" xlink:title=" ">
<polygon fill="white" stroke="#666666" points="1255,-133 1164,-133 1164,-114 1255,-114 1255,-133"/>
<text text-anchor="middle" x="1209.5" y="-121" font-family="Helvetica,sans-Serif" font-size="10.00">func_80028864</text>
</a>
</g>
</g>
<!-- Node5&#45;&gt;Node6 -->
<g id="edge5_Node000005_Node000006" class="edge">
<title>Node5&#45;&gt;Node6</title>
<g id="a_edge5_Node000005_Node000006"><a xlink:title=" ">
<path fill="none" stroke="#63b8ff" d="M1281.45,-123.5C1272.44,-123.5 1263.47,-123.5 1255.09,-123.5"/>
<polygon fill="#63b8ff" stroke="#63b8ff" points="1281.61,-127 1291.61,-123.5 1281.61,-120 1281.61,-127"/>
</a>
</g>
</g>
<!-- Node7 -->
<g id="Node000007" class="node">
<title>Node7</title>
<g id="a_Node000007"><a xlink:href="player__controller_8c.html#af9d8e2fa807dab2737045c3c2517a46e" target="_top" xlink:title=" ">
<polygon fill="white" stroke="#666666" points="1102,-133 1011,-133 1011,-114 1102,-114 1102,-133"/>
<text text-anchor="middle" x="1056.5" y="-121" font-family="Helvetica,sans-Serif" font-size="10.00">func_80028E70</text>
</a>
</g>
</g>
<!-- Node6&#45;&gt;Node7 -->
<g id="edge6_Node000006_Node000007" class="edge">
<title>Node6&#45;&gt;Node7</title>
<g id="a_edge6_Node000006_Node000007"><a xlink:title=" ">
<path fill="none" stroke="#63b8ff" d="M1153.35,-123.5C1136.54,-123.5 1118.26,-123.5 1102.22,-123.5"/>
<polygon fill="#63b8ff" stroke="#63b8ff" points="1153.6,-127 1163.6,-123.5 1153.6,-120 1153.6,-127"/>
</a>
</g>
</g>
<!-- Node8 -->
<g id="Node000008" class="node">
<title>Node8</title>
<g id="a_Node000008"><a xlink:href="player__controller_8c.html#a60b22a77aa4cf0b2be0942a3e115a1eb" target="_top" xlink:title=" ">
<polygon fill="white" stroke="#666666" points="925.5,-170 834.5,-170 834.5,-151 925.5,-151 925.5,-170"/>
<text text-anchor="middle" x="880" y="-158" font-family="Helvetica,sans-Serif" font-size="10.00">func_80028F70</text>
</a>
</g>
</g>
<!-- Node7&#45;&gt;Node8 -->
<g id="edge7_Node000007_Node000008" class="edge">
<title>Node7&#45;&gt;Node8</title>
<g id="a_edge7_Node000007_Node000008"><a xlink:title=" ">
<path fill="none" stroke="#63b8ff" d="M1000.51,-135.16C976.44,-140.26 948.56,-146.17 925.79,-151"/>
<polygon fill="#63b8ff" stroke="#63b8ff" points="1001.51,-138.53 1010.56,-133.03 1000.05,-131.68 1001.51,-138.53"/>
</a>
</g>
</g>
<!-- Node16 -->
<g id="Node000016" class="node">
<title>Node16</title>
<g id="a_Node000016"><a xlink:href="player__controller_8c.html#ac7bf3fa7a7efacb6f6bad44477c2c7ed" target="_top" xlink:title=" ">
<polygon fill="white" stroke="#666666" points="925.5,-96 834.5,-96 834.5,-77 925.5,-77 925.5,-96"/>
<text text-anchor="middle" x="880" y="-84" font-family="Helvetica,sans-Serif" font-size="10.00">func_80029060</text>
</a>
</g>
</g>
<!-- Node7&#45;&gt;Node16 -->
<g id="edge16_Node000007_Node000016" class="edge">
<title>Node7&#45;&gt;Node16</title>
<g id="a_edge16_Node000007_Node000016"><a xlink:title=" ">
<path fill="none" stroke="#63b8ff" d="M1000.51,-111.84C976.44,-106.74 948.56,-100.83 925.79,-96"/>
<polygon fill="#63b8ff" stroke="#63b8ff" points="1000.05,-115.32 1010.56,-113.97 1001.51,-108.47 1000.05,-115.32"/>
</a>
</g>
</g>
<!-- Node17 -->
<g id="Node000017" class="node">
<title>Node17</title>
<g id="a_Node000017"><a xlink:href="player__controller_8c.html#a31f653813b5697d0af1bb9c16cdc4c76" target="_top" xlink:title=" ">
<polygon fill="white" stroke="#666666" points="925.5,-133 834.5,-133 834.5,-114 925.5,-114 925.5,-133"/>
<text text-anchor="middle" x="880" y="-121" font-family="Helvetica,sans-Serif" font-size="10.00">func_80029158</text>
</a>
</g>
</g>
<!-- Node7&#45;&gt;Node17 -->
<g id="edge18_Node000007_Node000017" class="edge">
<title>Node7&#45;&gt;Node17</title>
<g id="a_edge18_Node000007_Node000017"><a xlink:title=" ">
<path fill="none" stroke="#63b8ff" d="M1000.51,-123.5C976.44,-123.5 948.56,-123.5 925.79,-123.5"/>
<polygon fill="#63b8ff" stroke="#63b8ff" points="1000.56,-127 1010.56,-123.5 1000.56,-120 1000.56,-127"/>
</a>
</g>
</g>
<!-- Node9 -->
<g id="Node000009" class="node">
<title>Node9</title>
<g id="a_Node000009"><a xlink:href="podium__ceremony__actors_8c.html#a7ea229c65f264670fc828b95e8321154" target="_top" xlink:title=" ">
<polygon fill="white" stroke="#666666" points="774,-170 640,-170 640,-151 774,-151 774,-170"/>
<text text-anchor="middle" x="707" y="-158" font-family="Helvetica,sans-Serif" font-size="10.00">podium_ceremony_loop</text>
</a>
</g>
</g>
<!-- Node8&#45;&gt;Node9 -->
<g id="edge8_Node000008_Node000009" class="edge">
<title>Node8&#45;&gt;Node9</title>
<g id="a_edge8_Node000008_Node000009"><a xlink:title=" ">
<path fill="none" stroke="#63b8ff" d="M823.92,-160.5C808.07,-160.5 790.63,-160.5 774.19,-160.5"/>
<polygon fill="#63b8ff" stroke="#63b8ff" points="824.07,-164 834.07,-160.5 824.07,-157 824.07,-164"/>
</a>
</g>
</g>
<!-- Node15 -->
<g id="Node000015" class="node">
<title>Node15</title>
<g id="a_Node000015"><a xlink:href="main_8c.html#afff87ffcbfee4f1f37d443110aa7b52a" target="_top" xlink:title=" ">
<polygon fill="white" stroke="#666666" points="753,-133 661,-133 661,-114 753,-114 753,-133"/>
<text text-anchor="middle" x="707" y="-121" font-family="Helvetica,sans-Serif" font-size="10.00">race_logic_loop</text>
</a>
</g>
</g>
<!-- Node8&#45;&gt;Node15 -->
<g id="edge14_Node000008_Node000015" class="edge">
<title>Node8&#45;&gt;Node15</title>
<g id="a_edge14_Node000008_Node000015"><a xlink:title=" ">
<path fill="none" stroke="#63b8ff" d="M825.15,-148.85C801.66,-143.77 774.46,-137.88 752.18,-133.06"/>
<polygon fill="#63b8ff" stroke="#63b8ff" points="824.45,-152.28 834.96,-150.97 825.93,-145.44 824.45,-152.28"/>
</a>
</g>
</g>
<!-- Node10 -->
<g id="Node000010" class="node">
<title>Node10</title>
<g id="a_Node000010"><a xlink:href="main_8c.html#ae04143ce8113cdafa007c642eb620bc8" target="_top" xlink:title=" ">
<polygon fill="white" stroke="#666666" points="604,-170 488,-170 488,-151 604,-151 604,-170"/>
<text text-anchor="middle" x="546" y="-158" font-family="Helvetica,sans-Serif" font-size="10.00">game_state_handler</text>
</a>
</g>
</g>
<!-- Node9&#45;&gt;Node10 -->
<g id="edge9_Node000009_Node000010" class="edge">
<title>Node9&#45;&gt;Node10</title>
<g id="a_edge9_Node000009_Node000010"><a xlink:title=" ">
<path fill="none" stroke="#63b8ff" d="M629.87,-160.5C621.24,-160.5 612.56,-160.5 604.24,-160.5"/>
<polygon fill="#63b8ff" stroke="#63b8ff" points="629.95,-164 639.95,-160.5 629.95,-157 629.95,-164"/>
</a>
</g>
</g>
<!-- Node11 -->
<g id="Node000011" class="node">
<title>Node11</title>
<g id="a_Node000011"><a xlink:href="main_8c.html#a633ed517e458daeb768f5361895dcac9" target="_top" xlink:title=" ">
<polygon fill="white" stroke="#666666" points="452,-189 339,-189 339,-170 452,-170 452,-189"/>
<text text-anchor="middle" x="395.5" y="-177" font-family="Helvetica,sans-Serif" font-size="10.00">thread5_game_loop</text>
</a>
</g>
</g>
<!-- Node10&#45;&gt;Node11 -->
<g id="edge10_Node000010_Node000011" class="edge">
<title>Node10&#45;&gt;Node11</title>
<g id="a_edge10_Node000010_Node000011"><a xlink:title=" ">
<path fill="none" stroke="#63b8ff" d="M477.42,-169.15C469.02,-170.22 460.5,-171.31 452.3,-172.36"/>
<polygon fill="#63b8ff" stroke="#63b8ff" points="478.11,-172.59 487.59,-167.85 477.22,-165.64 478.11,-172.59"/>
</a>
</g>
</g>
<!-- Node12 -->
<g id="Node000012" class="node">
<title>Node12</title>
<g id="a_Node000012"><a xlink:href="main_8c.html#a023b8f272e4efbd33f371e91ffff6b30" target="_top" xlink:title=" ">
<polygon fill="white" stroke="#666666" points="303,-189 217,-189 217,-170 303,-170 303,-189"/>
<text text-anchor="middle" x="260" y="-177" font-family="Helvetica,sans-Serif" font-size="10.00">thread3_video</text>
</a>
</g>
</g>
<!-- Node11&#45;&gt;Node12 -->
<g id="edge11_Node000011_Node000012" class="edge">
<title>Node11&#45;&gt;Node12</title>
<g id="a_edge11_Node000011_Node000012"><a xlink:title=" ">
<path fill="none" stroke="#63b8ff" d="M328.57,-179.5C319.94,-179.5 311.3,-179.5 303.21,-179.5"/>
<polygon fill="#63b8ff" stroke="#63b8ff" points="328.66,-183 338.66,-179.5 328.66,-176 328.66,-183"/>
</a>
</g>
</g>
<!-- Node13 -->
<g id="Node000013" class="node">
<title>Node13</title>
<g id="a_Node000013"><a xlink:href="main_8c.html#a1e35d2b842121e6aea373f09381616e5" target="_top" xlink:title=" ">
<polygon fill="white" stroke="#666666" points="181,-189 104,-189 104,-170 181,-170 181,-189"/>
<text text-anchor="middle" x="142.5" y="-177" font-family="Helvetica,sans-Serif" font-size="10.00">thread1_idle</text>
</a>
</g>
</g>
<!-- Node12&#45;&gt;Node13 -->
<g id="edge12_Node000012_Node000013" class="edge">
<title>Node12&#45;&gt;Node13</title>
<g id="a_edge12_Node000012_Node000013"><a xlink:title=" ">
<path fill="none" stroke="#63b8ff" d="M206.9,-179.5C198.2,-179.5 189.33,-179.5 181.09,-179.5"/>
<polygon fill="#63b8ff" stroke="#63b8ff" points="206.98,-183 216.98,-179.5 206.98,-176 206.98,-183"/>
</a>
</g>
</g>
<!-- Node14 -->
<g id="Node000014" class="node">
<title>Node14</title>
<g id="a_Node000014"><a xlink:href="main_8c.html#a4f87d43525fe95f60ea92bc8a3b70e62" target="_top" xlink:title=" ">
<polygon fill="white" stroke="#666666" points="68,-189 0,-189 0,-170 68,-170 68,-189"/>
<text text-anchor="middle" x="34" y="-177" font-family="Helvetica,sans-Serif" font-size="10.00">main_func</text>
</a>
</g>
</g>
<!-- Node13&#45;&gt;Node14 -->
<g id="edge13_Node000013_Node000014" class="edge">
<title>Node13&#45;&gt;Node14</title>
<g id="a_edge13_Node000013_Node000014"><a xlink:title=" ">
<path fill="none" stroke="#63b8ff" d="M93.95,-179.5C85.29,-179.5 76.44,-179.5 68.31,-179.5"/>
<polygon fill="#63b8ff" stroke="#63b8ff" points="93.95,-183 103.95,-179.5 93.95,-176 93.95,-183"/>
</a>
</g>
</g>
<!-- Node15&#45;&gt;Node10 -->
<g id="edge15_Node000015_Node000010" class="edge">
<title>Node15&#45;&gt;Node10</title>
<g id="a_edge15_Node000015_Node000010"><a xlink:title=" ">
<path fill="none" stroke="#63b8ff" d="M655.05,-135.36C633.41,-140.39 608.52,-146.18 588.08,-150.94"/>
<polygon fill="#63b8ff" stroke="#63b8ff" points="656.11,-138.7 665.05,-133.03 654.52,-131.89 656.11,-138.7"/>
</a>
</g>
</g>
<!-- Node16&#45;&gt;Node15 -->
<g id="edge17_Node000016_Node000015" class="edge">
<title>Node16&#45;&gt;Node15</title>
<g id="a_edge17_Node000016_Node000015"><a xlink:title=" ">
<path fill="none" stroke="#63b8ff" d="M825.15,-98.15C801.66,-103.23 774.46,-109.12 752.18,-113.94"/>
<polygon fill="#63b8ff" stroke="#63b8ff" points="825.93,-101.56 834.96,-96.03 824.45,-94.72 825.93,-101.56"/>
</a>
</g>
</g>
<!-- Node17&#45;&gt;Node15 -->
<g id="edge19_Node000017_Node000015" class="edge">
<title>Node17&#45;&gt;Node15</title>
<g id="a_edge19_Node000017_Node000015"><a xlink:title=" ">
<path fill="none" stroke="#63b8ff" d="M823.85,-123.5C801.02,-123.5 774.89,-123.5 753.22,-123.5"/>
<polygon fill="#63b8ff" stroke="#63b8ff" points="824.07,-127 834.07,-123.5 824.07,-120 824.07,-127"/>
</a>
</g>
</g>
<!-- Node18&#45;&gt;Node6 -->
<g id="edge21_Node000018_Node000006" class="edge">
<title>Node18&#45;&gt;Node6</title>
<g id="a_edge21_Node000018_Node000006"><a xlink:title=" ">
<path fill="none" stroke="#63b8ff" d="M1301.6,-184.41C1298.27,-182.94 1295.04,-181.31 1292,-179.5 1272.27,-167.79 1274.97,-155.4 1256,-142.5 1250.62,-138.84 1244.43,-135.68 1238.37,-133.04"/>
<polygon fill="#63b8ff" stroke="#63b8ff" points="1300.59,-187.77 1311.18,-188.15 1303.14,-181.25 1300.59,-187.77"/>
</a>
</g>
</g>
<!-- Node19 -->
<g id="Node000019" class="node">
<title>Node19</title>
<g id="a_Node000019"><a xlink:href="player__controller_8c.html#a76e0206999fca6c9de4d4bef2c4620ce" target="_top" xlink:title=" ">
<polygon fill="white" stroke="#666666" points="1255.5,-170 1163.5,-170 1163.5,-151 1255.5,-151 1255.5,-170"/>
<text text-anchor="middle" x="1209.5" y="-158" font-family="Helvetica,sans-Serif" font-size="10.00">func_80028C44</text>
</a>
</g>
</g>
<!-- Node18&#45;&gt;Node19 -->
<g id="edge22_Node000018_Node000019" class="edge">
<title>Node18&#45;&gt;Node19</title>
<g id="a_edge22_Node000018_Node000019"><a xlink:title=" ">
<path fill="none" stroke="#63b8ff" d="M1309.17,-185.51C1289.43,-180.5 1266.82,-174.77 1248.22,-170.06"/>
<polygon fill="#63b8ff" stroke="#63b8ff" points="1308.35,-188.91 1318.9,-187.97 1310.07,-182.12 1308.35,-188.91"/>
</a>
</g>
</g>
<!-- Node20 -->
<g id="Node000020" class="node">
<title>Node20</title>
<g id="a_Node000020"><a xlink:href="player__controller_8c.html#ae531f1b044d00354a79cb3f88b81fa12" target="_top" xlink:title=" ">
<polygon fill="white" stroke="#666666" points="1256,-207 1163,-207 1163,-188 1256,-188 1256,-207"/>
<text text-anchor="middle" x="1209.5" y="-195" font-family="Helvetica,sans-Serif" font-size="10.00">func_80028D3C</text>
</a>
</g>
</g>
<!-- Node18&#45;&gt;Node20 -->
<g id="edge24_Node000018_Node000020" class="edge">
<title>Node18&#45;&gt;Node20</title>
<g id="a_edge24_Node000018_Node000020"><a xlink:title=" ">
<path fill="none" stroke="#63b8ff" d="M1301.03,-197.5C1286.21,-197.5 1270.35,-197.5 1256.12,-197.5"/>
<polygon fill="#63b8ff" stroke="#63b8ff" points="1301.11,-201 1311.11,-197.5 1301.1,-194 1301.11,-201"/>
</a>
</g>
</g>
<!-- Node21 -->
<g id="Node000021" class="node">
<title>Node21</title>
<g id="a_Node000021"><a xlink:href="spawn__players_8c.html#a786871d4fec99acdd5a14b48c1c38a7c" target="_top" xlink:title=" ">
<polygon fill="white" stroke="#666666" points="1256,-244 1163,-244 1163,-225 1256,-225 1256,-244"/>
<text text-anchor="middle" x="1209.5" y="-232" font-family="Helvetica,sans-Serif" font-size="10.00">func_8003CD98</text>
</a>
</g>
</g>
<!-- Node18&#45;&gt;Node21 -->
<g id="edge26_Node000018_Node000021" class="edge">
<title>Node18&#45;&gt;Node21</title>
<g id="a_edge26_Node000018_Node000021"><a xlink:title=" ">
<path fill="none" stroke="#63b8ff" d="M1309.17,-209.49C1289.43,-214.5 1266.82,-220.23 1248.22,-224.94"/>
<polygon fill="#63b8ff" stroke="#63b8ff" points="1310.07,-212.88 1318.9,-207.03 1308.35,-206.09 1310.07,-212.88"/>
</a>
</g>
</g>
<!-- Node19&#45;&gt;Node7 -->
<g id="edge23_Node000019_Node000007" class="edge">
<title>Node19&#45;&gt;Node7</title>
<g id="a_edge23_Node000019_Node000007"><a xlink:title=" ">
<path fill="none" stroke="#63b8ff" d="M1159.83,-148.57C1139.35,-143.56 1115.83,-137.79 1096.52,-133.06"/>
<polygon fill="#63b8ff" stroke="#63b8ff" points="1159.07,-151.99 1169.61,-150.97 1160.73,-145.19 1159.07,-151.99"/>
</a>
</g>
</g>
<!-- Node20&#45;&gt;Node7 -->
<g id="edge25_Node000020_Node000007" class="edge">
<title>Node20&#45;&gt;Node7</title>
<g id="a_edge25_Node000020_Node000007"><a xlink:title=" ">
<path fill="none" stroke="#63b8ff" d="M1173.45,-184.09C1169.89,-182.59 1166.36,-181.05 1163,-179.5 1130.8,-164.64 1094.55,-144.65 1074.02,-133.01"/>
<polygon fill="#63b8ff" stroke="#63b8ff" points="1172.2,-187.36 1182.78,-187.9 1174.85,-180.88 1172.2,-187.36"/>
</a>
</g>
</g>
<!-- Node22 -->
<g id="Node000022" class="node">
<title>Node22</title>
<g id="a_Node000022"><a xlink:href="spawn__players_8c.html#ac1a9412b931cfa517a2382c2fc605399" target="_top" xlink:title=" ">
<polygon fill="white" stroke="#666666" points="1102.5,-244 1010.5,-244 1010.5,-225 1102.5,-225 1102.5,-244"/>
<text text-anchor="middle" x="1056.5" y="-232" font-family="Helvetica,sans-Serif" font-size="10.00">func_8003D080</text>
</a>
</g>
</g>
<!-- Node21&#45;&gt;Node22 -->
<g id="edge27_Node000021_Node000022" class="edge">
<title>Node21&#45;&gt;Node22</title>
<g id="a_edge27_Node000021_Node000022"><a xlink:title=" ">
<path fill="none" stroke="#63b8ff" d="M1152.7,-234.5C1136.17,-234.5 1118.29,-234.5 1102.54,-234.5"/>
<polygon fill="#63b8ff" stroke="#63b8ff" points="1152.79,-238 1162.79,-234.5 1152.79,-231 1152.79,-238"/>
</a>
</g>
</g>
<!-- Node23 -->
<g id="Node000023" class="node">
<title>Node23</title>
<g id="a_Node000023"><a xlink:href="code__80281780_8c.html#af227cfd0f1fd3d6adbe9a29ad59b4dc8" target="_top" xlink:title=" ">
<polygon fill="white" stroke="#666666" points="950,-245 810,-245 810,-226 950,-226 950,-245"/>
<text text-anchor="middle" x="880" y="-233" font-family="Helvetica,sans-Serif" font-size="10.00">load_ceremony_cutscene</text>
</a>
</g>
</g>
<!-- Node22&#45;&gt;Node23 -->
<g id="edge28_Node000022_Node000023" class="edge">
<title>Node22&#45;&gt;Node23</title>
<g id="a_edge28_Node000022_Node000023"><a xlink:title=" ">
<path fill="none" stroke="#63b8ff" d="M999.97,-234.82C984.15,-234.91 966.72,-235.01 950.19,-235.1"/>
<polygon fill="#63b8ff" stroke="#63b8ff" points="1000.13,-238.32 1010.11,-234.76 1000.09,-231.32 1000.13,-238.32"/>
</a>
</g>
</g>
<!-- Node25 -->
<g id="Node000025" class="node">
<title>Node25</title>
<g id="a_Node000025"><a xlink:href="code__800029B0_8c.html#aca6165112fc92e65ad6477e785a7098c" target="_top" xlink:title=" ">
<polygon fill="white" stroke="#666666" points="915,-208 845,-208 845,-189 915,-189 915,-208"/>
<text text-anchor="middle" x="880" y="-196" font-family="Helvetica,sans-Serif" font-size="10.00">setup_race</text>
</a>
</g>
</g>
<!-- Node22&#45;&gt;Node25 -->
<g id="edge31_Node000022_Node000025" class="edge">
<title>Node22&#45;&gt;Node25</title>
<g id="a_edge31_Node000022_Node000025"><a xlink:title=" ">
<path fill="none" stroke="#63b8ff" d="M1000.09,-223.07C972.2,-217.32 939.29,-210.53 915.14,-205.54"/>
<polygon fill="#63b8ff" stroke="#63b8ff" points="999.61,-226.54 1010.11,-225.14 1001.02,-219.69 999.61,-226.54"/>
</a>
</g>
</g>
<!-- Node24 -->
<g id="Node000024" class="node">
<title>Node24</title>
<g id="a_Node000024"><a xlink:href="main_8c.html#ad0625ed56ac663d3ec7ae8f1ba50c735" target="_top" xlink:title=" ">
<polygon fill="white" stroke="#666666" points="761,-208 653,-208 653,-189 761,-189 761,-208"/>
<text text-anchor="middle" x="707" y="-196" font-family="Helvetica,sans-Serif" font-size="10.00">update_gamestate</text>
</a>
</g>
</g>
<!-- Node23&#45;&gt;Node24 -->
<g id="edge29_Node000023_Node000024" class="edge">
<title>Node23&#45;&gt;Node24</title>
<g id="a_edge29_Node000023_Node000024"><a xlink:title=" ">
<path fill="none" stroke="#63b8ff" d="M825.15,-223.85C801.66,-218.77 774.46,-212.88 752.18,-208.06"/>
<polygon fill="#63b8ff" stroke="#63b8ff" points="824.45,-227.28 834.96,-225.97 825.93,-220.44 824.45,-227.28"/>
</a>
</g>
</g>
<!-- Node24&#45;&gt;Node11 -->
<g id="edge30_Node000024_Node000011" class="edge">
<title>Node24&#45;&gt;Node11</title>
<g id="a_edge30_Node000024_Node000011"><a xlink:title=" ">
<path fill="none" stroke="#63b8ff" d="M642.64,-194.61C586.62,-191.17 505.7,-186.2 452.14,-182.92"/>
<polygon fill="#63b8ff" stroke="#63b8ff" points="642.6,-198.11 652.8,-195.23 643.03,-191.13 642.6,-198.11"/>
</a>
</g>
</g>
<!-- Node25&#45;&gt;Node24 -->
<g id="edge32_Node000025_Node000024" class="edge">
<title>Node25&#45;&gt;Node24</title>
<g id="a_edge32_Node000025_Node000024"><a xlink:title=" ">
<path fill="none" stroke="#63b8ff" d="M834.57,-198.5C812.18,-198.5 784.85,-198.5 761.33,-198.5"/>
<polygon fill="#63b8ff" stroke="#63b8ff" points="834.81,-202 844.81,-198.5 834.81,-195 834.81,-202"/>
</a>
</g>
</g>
<!-- Node26&#45;&gt;Node6 -->
<g id="edge34_Node000026_Node000006" class="edge">
<title>Node26&#45;&gt;Node6</title>
<g id="a_edge34_Node000026_Node000006"><a xlink:title=" ">
<path fill="none" stroke="#63b8ff" d="M1309.17,-148.51C1289.43,-143.5 1266.82,-137.77 1248.22,-133.06"/>
<polygon fill="#63b8ff" stroke="#63b8ff" points="1308.35,-151.91 1318.9,-150.97 1310.07,-145.12 1308.35,-151.91"/>
</a>
</g>
</g>
<!-- Node26&#45;&gt;Node19 -->
<g id="edge35_Node000026_Node000019" class="edge">
<title>Node26&#45;&gt;Node19</title>
<g id="a_edge35_Node000026_Node000019"><a xlink:title=" ">
<path fill="none" stroke="#63b8ff" d="M1301.61,-160.5C1286.43,-160.5 1270.13,-160.5 1255.58,-160.5"/>
<polygon fill="#63b8ff" stroke="#63b8ff" points="1301.9,-164 1311.9,-160.5 1301.9,-157 1301.9,-164"/>
</a>
</g>
</g>
<!-- Node26&#45;&gt;Node20 -->
<g id="edge36_Node000026_Node000020" class="edge">
<title>Node26&#45;&gt;Node20</title>
<g id="a_edge36_Node000026_Node000020"><a xlink:title=" ">
<path fill="none" stroke="#63b8ff" d="M1309.17,-172.49C1289.43,-177.5 1266.82,-183.23 1248.22,-187.94"/>
<polygon fill="#63b8ff" stroke="#63b8ff" points="1310.07,-175.88 1318.9,-170.03 1308.35,-169.09 1310.07,-175.88"/>
</a>
</g>
</g>
<!-- Node27&#45;&gt;Node7 -->
<g id="edge38_Node000027_Node000007" class="edge">
<title>Node27&#45;&gt;Node7</title>
<g id="a_edge38_Node000027_Node000007"><a xlink:title=" ">
<path fill="none" stroke="#63b8ff" d="M1301.39,-90.86C1262.61,-94.19 1209.53,-99.25 1163,-105.5 1142.93,-108.19 1120.82,-111.86 1102.05,-115.18"/>
<polygon fill="#63b8ff" stroke="#63b8ff" points="1301.76,-94.34 1311.43,-90.01 1301.17,-87.37 1301.76,-94.34"/>
</a>
</g>
</g>
<!-- Node28&#45;&gt;Node3 -->
<g id="edge40_Node000028_Node000003" class="edge">
<title>Node28&#45;&gt;Node3</title>
<g id="a_edge40_Node000028_Node000003"><a xlink:title=" ">
<path fill="none" stroke="#63b8ff" d="M1922.17,-134.09C1859.89,-131.66 1764.73,-127.95 1705.14,-125.63"/>
<polygon fill="#63b8ff" stroke="#63b8ff" points="1922.13,-137.59 1932.26,-134.48 1922.4,-130.6 1922.13,-137.59"/>
</a>
</g>
</g>
<!-- Node29&#45;&gt;Node3 -->
<g id="edge48_Node000029_Node000003" class="edge">
<title>Node29&#45;&gt;Node3</title>
<g id="a_edge48_Node000029_Node000003"><a xlink:title=" ">
<path fill="none" stroke="#63b8ff" d="M1763.99,-23.1C1758.22,-25.94 1752.74,-29.37 1748,-33.5 1721.33,-56.75 1739.05,-81.69 1712,-104.5 1707.39,-108.39 1701.98,-111.48 1696.33,-113.95"/>
<polygon fill="#63b8ff" stroke="#63b8ff" points="1765.44,-26.28 1773.22,-19.09 1762.66,-19.86 1765.44,-26.28"/>
</a>
</g>
</g>
<!-- Node30 -->
<g id="Node000030" class="node">
<title>Node30</title>
<g id="a_Node000030"><a xlink:href="effects_8c.html#afcd934606edb08e59bff1545a7e447f7" target="_top" xlink:title=" ">
<polygon fill="white" stroke="#666666" points="1712,-95 1587,-95 1587,-76 1712,-76 1712,-95"/>
<text text-anchor="middle" x="1649.5" y="-83" font-family="Helvetica,sans-Serif" font-size="10.00">apply_lightning_effect</text>
</a>
</g>
</g>
<!-- Node29&#45;&gt;Node30 -->
<g id="edge42_Node000029_Node000030" class="edge">
<title>Node29&#45;&gt;Node30</title>
<g id="a_edge42_Node000029_Node000030"><a xlink:title=" ">
<path fill="none" stroke="#63b8ff" d="M1771.22,-22.5C1763.22,-25.57 1755.17,-29.23 1748,-33.5 1729.35,-44.61 1730.83,-55.7 1712,-66.5 1705.41,-70.28 1697.98,-73.39 1690.62,-75.93"/>
<polygon fill="#63b8ff" stroke="#63b8ff" points="1772.66,-25.7 1780.9,-19.03 1770.3,-19.11 1772.66,-25.7"/>
</a>
</g>
</g>
<!-- Node32 -->
<g id="Node000032" class="node">
<title>Node32</title>
<g id="a_Node000032"><a xlink:href="actors_8c.html#ab378348cf5cc8d36da064f81611f90e3" target="_top" xlink:title=" ">
<polygon fill="white" stroke="#666666" points="1705.5,-57 1593.5,-57 1593.5,-38 1705.5,-38 1705.5,-57"/>
<text text-anchor="middle" x="1649.5" y="-45" font-family="Helvetica,sans-Serif" font-size="10.00">collision_yoshi_egg</text>
</a>
</g>
</g>
<!-- Node29&#45;&gt;Node32 -->
<g id="edge49_Node000029_Node000032" class="edge">
<title>Node29&#45;&gt;Node32</title>
<g id="a_edge49_Node000029_Node000032"><a xlink:title=" ">
<path fill="none" stroke="#63b8ff" d="M1765.54,-21.32C1741.99,-26.68 1714.53,-32.93 1692.34,-37.98"/>
<polygon fill="#63b8ff" stroke="#63b8ff" points="1766.38,-24.72 1775.36,-19.09 1764.83,-17.9 1766.38,-24.72"/>
</a>
</g>
</g>
<!-- Node33 -->
<g id="Node000033" class="node">
<title>Node33</title>
<g id="a_Node000033"><a xlink:href="actors_8c.html#a5d0cc071261caa5b76190cfee9c90189" target="_top" xlink:title=" ">
<polygon fill="white" stroke="#666666" points="1551,-57 1459,-57 1459,-38 1551,-38 1551,-57"/>
<text text-anchor="middle" x="1505" y="-45" font-family="Helvetica,sans-Serif" font-size="10.00">func_802A0450</text>
</a>
</g>
</g>
<!-- Node29&#45;&gt;Node33 -->
<g id="edge53_Node000029_Node000033" class="edge">
<title>Node29&#45;&gt;Node33</title>
<g id="a_edge53_Node000029_Node000033"><a xlink:title=" ">
<path fill="none" stroke="#63b8ff" d="M1743.55,-12.8C1698.18,-15.52 1638.99,-20.31 1587,-28.5 1572.02,-30.86 1555.7,-34.48 1541.66,-37.93"/>
<polygon fill="#63b8ff" stroke="#63b8ff" points="1743.82,-16.29 1753.6,-12.22 1743.42,-9.31 1743.82,-16.29"/>
</a>
</g>
</g>
<!-- Node31 -->
<g id="Node000031" class="node">
<title>Node31</title>
<g id="a_Node000031"><a xlink:href="player__controller_8c.html#a3e56dd5a3a59a001b19bcf27621b824b" target="_top" xlink:title=" ">
<polygon fill="white" stroke="#666666" points="1543.5,-170 1466.5,-170 1466.5,-151 1543.5,-151 1543.5,-170"/>
<text text-anchor="middle" x="1505" y="-158" font-family="Helvetica,sans-Serif" font-size="10.00">apply_effect</text>
</a>
</g>
</g>
<!-- Node30&#45;&gt;Node31 -->
<g id="edge43_Node000030_Node000031" class="edge">
<title>Node30&#45;&gt;Node31</title>
<g id="a_edge43_Node000030_Node000031"><a xlink:title=" ">
<path fill="none" stroke="#63b8ff" d="M1600.05,-98.73C1595.5,-100.72 1591.07,-102.96 1587,-105.5 1567.52,-117.62 1570.07,-129.74 1551,-142.5 1546.11,-145.78 1540.52,-148.61 1534.99,-150.99"/>
<polygon fill="#63b8ff" stroke="#63b8ff" points="1601.47,-101.94 1609.49,-95.02 1598.91,-95.42 1601.47,-101.94"/>
</a>
</g>
</g>
<!-- Node31&#45;&gt;Node5 -->
<g id="edge44_Node000031_Node000005" class="edge">
<title>Node31&#45;&gt;Node5</title>
<g id="a_edge44_Node000031_Node000005"><a xlink:title=" ">
<path fill="none" stroke="#63b8ff" d="M1456.84,-148.51C1437.16,-143.5 1414.63,-137.77 1396.1,-133.06"/>
<polygon fill="#63b8ff" stroke="#63b8ff" points="1455.98,-151.9 1466.53,-150.97 1457.7,-145.11 1455.98,-151.9"/>
</a>
</g>
</g>
<!-- Node31&#45;&gt;Node18 -->
<g id="edge45_Node000031_Node000018" class="edge">
<title>Node31&#45;&gt;Node18</title>
<g id="a_edge45_Node000031_Node000018"><a xlink:title=" ">
<path fill="none" stroke="#63b8ff" d="M1456.84,-172.49C1437.16,-177.5 1414.63,-183.23 1396.1,-187.94"/>
<polygon fill="#63b8ff" stroke="#63b8ff" points="1457.7,-175.89 1466.53,-170.03 1455.98,-169.1 1457.7,-175.89"/>
</a>
</g>
</g>
<!-- Node31&#45;&gt;Node26 -->
<g id="edge46_Node000031_Node000026" class="edge">
<title>Node31&#45;&gt;Node26</title>
<g id="a_edge46_Node000031_Node000026"><a xlink:title=" ">
<path fill="none" stroke="#63b8ff" d="M1455.87,-160.5C1438.87,-160.5 1419.83,-160.5 1403.14,-160.5"/>
<polygon fill="#63b8ff" stroke="#63b8ff" points="1456.15,-164 1466.15,-160.5 1456.15,-157 1456.15,-164"/>
</a>
</g>
</g>
<!-- Node31&#45;&gt;Node27 -->
<g id="edge47_Node000031_Node000027" class="edge">
<title>Node31&#45;&gt;Node27</title>
<g id="a_edge47_Node000031_Node000027"><a xlink:title=" ">
<path fill="none" stroke="#63b8ff" d="M1465.76,-146.54C1463.41,-145.28 1461.14,-143.93 1459,-142.5 1439.93,-129.74 1442.65,-117.35 1423,-105.5 1416.6,-101.64 1409.37,-98.52 1402.13,-96.02"/>
<polygon fill="#63b8ff" stroke="#63b8ff" points="1464.48,-149.81 1475.01,-150.99 1467.51,-143.5 1464.48,-149.81"/>
</a>
</g>
</g>
<!-- Node32&#45;&gt;Node33 -->
<g id="edge50_Node000032_Node000033" class="edge">
<title>Node32&#45;&gt;Node33</title>
<g id="a_edge50_Node000032_Node000033"><a xlink:title=" ">
<path fill="none" stroke="#63b8ff" d="M1583.16,-47.5C1572.37,-47.5 1561.41,-47.5 1551.26,-47.5"/>
<polygon fill="#63b8ff" stroke="#63b8ff" points="1583.41,-51 1593.41,-47.5 1583.41,-44 1583.41,-51"/>
</a>
</g>
</g>
<!-- Node34 -->
<g id="Node000034" class="node">
<title>Node34</title>
<g id="a_Node000034"><a xlink:href="actors_8c.html#ad37e739a6957be6a447d5a26574710cc" target="_top" xlink:title=" ">
<polygon fill="white" stroke="#666666" points="1127,-58 986,-58 986,-39 1127,-39 1127,-58"/>
<text text-anchor="middle" x="1056.5" y="-46" font-family="Helvetica,sans-Serif" font-size="10.00">evaluate_player_collision</text>
</a>
</g>
</g>
<!-- Node33&#45;&gt;Node34 -->
<g id="edge51_Node000033_Node000034" class="edge">
<title>Node33&#45;&gt;Node34</title>
<g id="a_edge51_Node000033_Node000034"><a xlink:title=" ">
<path fill="none" stroke="#63b8ff" d="M1448.71,-47.62C1367.51,-47.81 1216.06,-48.14 1127.3,-48.34"/>
<polygon fill="#63b8ff" stroke="#63b8ff" points="1448.74,-51.12 1458.73,-47.6 1448.72,-44.12 1448.74,-51.12"/>
</a>
</g>
</g>
<!-- Node34&#45;&gt;Node15 -->
<g id="edge52_Node000034_Node000015" class="edge">
<title>Node34&#45;&gt;Node15</title>
<g id="a_edge52_Node000034_Node000015"><a xlink:title=" ">
<path fill="none" stroke="#63b8ff" d="M975.67,-46.77C926.9,-47.72 863.78,-52.57 810,-68.5 775.86,-78.61 740.17,-101.03 721.39,-113.91"/>
<polygon fill="#63b8ff" stroke="#63b8ff" points="975.9,-50.26 985.85,-46.62 975.8,-43.27 975.9,-50.26"/>
</a>
</g>
</g>
<!-- Node35&#45;&gt;Node3 -->
<g id="edge55_Node000035_Node000003" class="edge">
<title>Node35&#45;&gt;Node3</title>
<g id="a_edge55_Node000035_Node000003"><a xlink:title=" ">
<path fill="none" stroke="#63b8ff" d="M1914.64,-95.78C1852.39,-102.31 1762.27,-111.77 1705.04,-117.78"/>
<polygon fill="#63b8ff" stroke="#63b8ff" points="1915.18,-99.24 1924.76,-94.72 1914.45,-92.28 1915.18,-99.24"/>
</a>
</g>
</g>
<!-- Node36&#45;&gt;Node3 -->
<g id="edge57_Node000036_Node000003" class="edge">
<title>Node36&#45;&gt;Node3</title>
<g id="a_edge57_Node000036_Node000003"><a xlink:title=" ">
<path fill="none" stroke="#63b8ff" d="M1929.06,-55.55C1881.04,-64.65 1809.56,-78.98 1748,-94.5 1735.41,-97.67 1705.13,-106.76 1681.63,-113.93"/>
<polygon fill="#63b8ff" stroke="#63b8ff" points="1929.76,-58.98 1938.94,-53.68 1928.46,-52.1 1929.76,-58.98"/>
</a>
</g>
</g>
<!-- Node37&#45;&gt;Node3 -->
<g id="edge59_Node000037_Node000003" class="edge">
<title>Node37&#45;&gt;Node3</title>
<g id="a_edge59_Node000037_Node000003"><a xlink:title=" ">
<path fill="none" stroke="#63b8ff" d="M1951.89,-253.06C1933.62,-245.64 1910.22,-236.55 1889,-229.5 1827.29,-209.01 1806.94,-217.96 1748,-190.5 1714.12,-174.72 1679.13,-147.51 1661.74,-133.1"/>
<polygon fill="#63b8ff" stroke="#63b8ff" points="1950.62,-256.32 1961.2,-256.87 1953.27,-249.84 1950.62,-256.32"/>
</a>
</g>
</g>
<!-- Node38 -->
<g id="Node000038" class="node">
<title>Node38</title>
<g id="a_Node000038"><a xlink:href="player__controller_8c.html#a8a3b5f1d538adee38a21e55b2eae3941" target="_top" xlink:title=" ">
<polygon fill="white" stroke="#666666" points="1865,-370 1772,-370 1772,-351 1865,-351 1865,-370"/>
<text text-anchor="middle" x="1818.5" y="-358" font-family="Helvetica,sans-Serif" font-size="10.00">func_8002B9CC</text>
</a>
</g>
</g>
<!-- Node37&#45;&gt;Node38 -->
<g id="edge60_Node000037_Node000038" class="edge">
<title>Node37&#45;&gt;Node38</title>
<g id="a_edge60_Node000037_Node000038"><a xlink:title=" ">
<path fill="none" stroke="#63b8ff" d="M1967.41,-283.47C1949.57,-300.76 1919.63,-327.17 1889,-342.5 1881.64,-346.18 1873.46,-349.16 1865.37,-351.56"/>
<polygon fill="#63b8ff" stroke="#63b8ff" points="1970.07,-285.76 1974.71,-276.23 1965.15,-280.79 1970.07,-285.76"/>
</a>
</g>
</g>
<!-- Node40 -->
<g id="Node000040" class="node">
<title>Node40</title>
<g id="a_Node000040"><a xlink:href="effects_8c.html#abeb13f8e836713bdee19de586bb6adb9" target="_top" xlink:title=" ">
<polygon fill="white" stroke="#666666" points="1865.5,-257 1771.5,-257 1771.5,-238 1865.5,-238 1865.5,-257"/>
<text text-anchor="middle" x="1818.5" y="-245" font-family="Helvetica,sans-Serif" font-size="10.00">func_8008CDC0</text>
</a>
</g>
</g>
<!-- Node37&#45;&gt;Node40 -->
<g id="edge64_Node000037_Node000040" class="edge">
<title>Node37&#45;&gt;Node40</title>
<g id="a_edge64_Node000037_Node000040"><a xlink:title=" ">
<path fill="none" stroke="#63b8ff" d="M1928.49,-260.09C1908.04,-257.73 1885.12,-255.08 1865.6,-252.82"/>
<polygon fill="#63b8ff" stroke="#63b8ff" points="1928.28,-263.59 1938.61,-261.26 1929.08,-256.63 1928.28,-263.59"/>
</a>
</g>
</g>
<!-- Node41 -->
<g id="Node000041" class="node">
<title>Node41</title>
<g id="a_Node000041"><a xlink:href="effects_8c.html#af0e482103261c24d9986452a89c08547" target="_top" xlink:title=" ">
<polygon fill="white" stroke="#666666" points="1695.5,-232 1603.5,-232 1603.5,-213 1695.5,-213 1695.5,-232"/>
<text text-anchor="middle" x="1649.5" y="-220" font-family="Helvetica,sans-Serif" font-size="10.00">func_8008CEB0</text>
</a>
</g>
</g>
<!-- Node37&#45;&gt;Node41 -->
<g id="edge66_Node000037_Node000041" class="edge">
<title>Node37&#45;&gt;Node41</title>
<g id="a_edge66_Node000037_Node000041"><a xlink:title=" ">
<path fill="none" stroke="#63b8ff" d="M1928.36,-273.04C1880.09,-277.16 1808.64,-279.55 1748,-266.5 1717.32,-259.9 1684.65,-242.84 1666,-232"/>
<polygon fill="#63b8ff" stroke="#63b8ff" points="1928.96,-276.5 1938.6,-272.11 1928.32,-269.53 1928.96,-276.5"/>
</a>
</g>
</g>
<!-- Node42 -->
<g id="Node000042" class="node">
<title>Node42</title>
<g id="a_Node000042"><a xlink:href="effects_8c.html#af88bb4cbfc59690890829535fc793551" target="_top" xlink:title=" ">
<polygon fill="white" stroke="#666666" points="1864.5,-333 1772.5,-333 1772.5,-314 1864.5,-314 1864.5,-333"/>
<text text-anchor="middle" x="1818.5" y="-321" font-family="Helvetica,sans-Serif" font-size="10.00">func_8008D170</text>
</a>
</g>
</g>
<!-- Node37&#45;&gt;Node42 -->
<g id="edge68_Node000037_Node000042" class="edge">
<title>Node37&#45;&gt;Node42</title>
<g id="a_edge68_Node000037_Node000042"><a xlink:title=" ">
<path fill="none" stroke="#63b8ff" d="M1946.72,-279.47C1929.2,-285.56 1908.03,-292.91 1889,-299.5 1875.25,-304.26 1859.96,-309.54 1847.24,-313.94"/>
<polygon fill="#63b8ff" stroke="#63b8ff" points="1948.27,-282.63 1956.57,-276.04 1945.97,-276.02 1948.27,-282.63"/>
</a>
</g>
</g>
<!-- Node39 -->
<g id="Node000039" class="node">
<title>Node39</title>
<g id="a_Node000039"><a xlink:href="player__controller_8c.html#ad6c601ce040f0a4f5827e1e7a92efacf" target="_top" xlink:title=" ">
<polygon fill="white" stroke="#666666" points="1551,-207 1459,-207 1459,-188 1551,-188 1551,-207"/>
<text text-anchor="middle" x="1505" y="-195" font-family="Helvetica,sans-Serif" font-size="10.00">func_8002C7E4</text>
</a>
</g>
</g>
<!-- Node38&#45;&gt;Node39 -->
<g id="edge61_Node000038_Node000039" class="edge">
<title>Node38&#45;&gt;Node39</title>
<g id="a_edge61_Node000038_Node000039"><a xlink:title=" ">
<path fill="none" stroke="#63b8ff" d="M1761.7,-357.78C1712.22,-353.03 1639.82,-340.17 1587,-305.5 1547.81,-279.78 1520.42,-228.33 1510.31,-207.05"/>
<polygon fill="#63b8ff" stroke="#63b8ff" points="1761.63,-361.29 1771.89,-358.67 1762.24,-354.31 1761.63,-361.29"/>
</a>
</g>
</g>
<!-- Node39&#45;&gt;Node18 -->
<g id="edge62_Node000039_Node000018" class="edge">
<title>Node39&#45;&gt;Node18</title>
<g id="a_edge62_Node000039_Node000018"><a xlink:title=" ">
<path fill="none" stroke="#63b8ff" d="M1448.68,-197.5C1433.82,-197.5 1417.94,-197.5 1403.71,-197.5"/>
<polygon fill="#63b8ff" stroke="#63b8ff" points="1448.76,-201 1458.76,-197.5 1448.76,-194 1448.76,-201"/>
</a>
</g>
</g>
<!-- Node39&#45;&gt;Node26 -->
<g id="edge63_Node000039_Node000026" class="edge">
<title>Node39&#45;&gt;Node26</title>
<g id="a_edge63_Node000039_Node000026"><a xlink:title=" ">
<path fill="none" stroke="#63b8ff" d="M1456.84,-185.51C1437.16,-180.5 1414.63,-174.77 1396.1,-170.06"/>
<polygon fill="#63b8ff" stroke="#63b8ff" points="1455.98,-188.9 1466.53,-187.97 1457.7,-182.11 1455.98,-188.9"/>
</a>
</g>
</g>
<!-- Node40&#45;&gt;Node3 -->
<g id="edge65_Node000040_Node000003" class="edge">
<title>Node40&#45;&gt;Node3</title>
<g id="a_edge65_Node000040_Node000003"><a xlink:title=" ">
<path fill="none" stroke="#63b8ff" d="M1769.98,-234.43C1762.35,-231.4 1754.75,-227.78 1748,-223.5 1707.87,-198.04 1672.04,-152.95 1657.44,-133.21"/>
<polygon fill="#63b8ff" stroke="#63b8ff" points="1769.01,-237.8 1779.61,-237.95 1771.42,-231.23 1769.01,-237.8"/>
</a>
</g>
</g>
<!-- Node41&#45;&gt;Node31 -->
<g id="edge67_Node000041_Node000031" class="edge">
<title>Node41&#45;&gt;Node31</title>
<g id="a_edge67_Node000041_Node000031"><a xlink:title=" ">
<path fill="none" stroke="#63b8ff" d="M1617.7,-208.77C1598.54,-200.26 1573.38,-189.16 1551,-179.5 1543.84,-176.41 1536.01,-173.09 1528.92,-170.1"/>
<polygon fill="#63b8ff" stroke="#63b8ff" points="1616.3,-211.97 1626.86,-212.84 1619.14,-205.58 1616.3,-211.97"/>
</a>
</g>
</g>
<!-- Node42&#45;&gt;Node31 -->
<g id="edge69_Node000042_Node000031" class="edge">
<title>Node42&#45;&gt;Node31</title>
<g id="a_edge69_Node000042_Node000031"><a xlink:title=" ">
<path fill="none" stroke="#63b8ff" d="M1762.11,-314.99C1711.74,-304.84 1637.74,-283.65 1587,-241.5 1562.49,-221.14 1574.91,-200.56 1551,-179.5 1546.67,-175.69 1541.47,-172.56 1536.16,-170.02"/>
<polygon fill="#63b8ff" stroke="#63b8ff" points="1761.69,-318.47 1772.17,-316.93 1763.02,-311.6 1761.69,-318.47"/>
</a>
</g>
</g>
</g>
</svg>
