<?xml version="1.0" encoding="UTF-8" standalone="no"?>
<!DOCTYPE svg PUBLIC "-//W3C//DTD SVG 1.1//EN"
 "http://www.w3.org/Graphics/SVG/1.1/DTD/svg11.dtd">
<!-- Generated by graphviz version 2.43.0 (0)
 -->
<!-- Title: src/code_80057C60.h Pages: 1 -->
<!--zoomable 203 -->

<svg id="main" version="1.1" xmlns="http://www.w3.org/2000/svg" xmlns:xlink="http://www.w3.org/1999/xlink" xml:space="preserve" onload="init(evt)">
<style type="text/css"><![CDATA[
.node, .edge {opacity: 0.7;}
.node.selected, .edge.selected {opacity: 1;}
.edge:hover path { stroke: red; }
.edge:hover polygon { stroke: red; fill: red; }
]]></style>

<defs>
  <circle id="rim" cx="0" cy="0" r="7"/>
  <circle id="rim2" cx="0" cy="0" r="3.5"/>
  <g id="zoomPlus">
    <use xlink:href="#rim" fill="#404040"><set attributeName="fill" to="#808080" begin="zoomplus.mouseover" end="zoomplus.mouseout"/></use>
    <path d="M-4,0h8M0,-4v8" fill="none" stroke="white" stroke-width="1.5" pointer-events="none"/>
  </g>
  <g id="zoomMin">
    <use xlink:href="#rim" fill="#404040"><set attributeName="fill" to="#808080" begin="zoomminus.mouseover" end="zoomminus.mouseout"/></use>
    <path d="M-4,0h8" fill="none" stroke="white" stroke-width="1.5" pointer-events="none"/>
  </g>
  <g id="arrowUp" transform="translate(30 24)">
    <use xlink:href="#rim"/>
    <path pointer-events="none" fill="none" stroke="white" stroke-width="1.5" d="M0,-3.0v7 M-2.5,-0.5L0,-3.0L2.5,-0.5"/>
  </g>
  <g id="arrowRight" transform="rotate(90) translate(36 -43)">
    <use xlink:href="#rim"/>
    <path pointer-events="none" fill="none" stroke="white" stroke-width="1.5" d="M0,-3.0v7 M-2.5,-0.5L0,-3.0L2.5,-0.5"/>
  </g>
  <g id="arrowDown" transform="rotate(180) translate(-30 -48)">
    <use xlink:href="#rim"/>
    <path pointer-events="none" fill="none" stroke="white" stroke-width="1.5" d="M0,-3.0v7 M-2.5,-0.5L0,-3.0L2.5,-0.5"/>
  </g>
  <g id="arrowLeft" transform="rotate(270) translate(-36 17)">
    <use xlink:href="#rim"/>
    <path pointer-events="none" fill="none" stroke="white" stroke-width="1.5" d="M0,-3.0v7 M-2.5,-0.5L0,-3.0L2.5,-0.5"/>
  </g>
  <g id="resetDef">
    <use xlink:href="#rim2" fill="#404040"><set attributeName="fill" to="#808080" begin="reset.mouseover" end="reset.mouseout"/></use>
  </g>
</defs>
<script type="application/ecmascript">
var viewWidth = 3384;
var viewHeight = 203;
var sectionId = 'dynsection-1';
</script>
<script type="application/ecmascript" xlink:href="svg.min.js"/>
<svg id="graph" class="graph">
<g id="viewport">
<title>src/code_80057C60.h</title>
<!-- Node1 -->
<g id="Node000001" class="node">
<title>Node1</title>
<g id="a_Node000001"><a xlink:title=" ">
<polygon fill="#999999" stroke="#666666" points="1787.5,-195 1667.5,-195 1667.5,-176 1787.5,-176 1787.5,-195"/>
<text text-anchor="middle" x="1727.5" y="-183" font-family="Helvetica,sans-Serif" font-size="10.00">src/code_80057C60.h</text>
</a>
</g>
</g>
<!-- Node2 -->
<g id="Node000002" class="node">
<title>Node2</title>
<g id="a_Node000002"><a xlink:href="camera_8c.html" target="_top" xlink:title=" ">
<polygon fill="white" stroke="#666666" points="79,-134.5 0,-134.5 0,-115.5 79,-115.5 79,-134.5"/>
<text text-anchor="middle" x="39.5" y="-122.5" font-family="Helvetica,sans-Serif" font-size="10.00">src/camera.c</text>
</a>
</g>
</g>
<!-- Node1&#45;&gt;Node2 -->
<g id="edge1_Node000001_Node000002" class="edge">
<title>Node1&#45;&gt;Node2</title>
<g id="a_edge1_Node000001_Node000002"><a xlink:title=" ">
<path fill="none" stroke="#63b8ff" d="M1656.99,-184.94C1384.18,-186.26 397.69,-187.59 88.5,-140 80.72,-138.8 72.42,-136.75 64.92,-134.57"/>
<polygon fill="#63b8ff" stroke="#63b8ff" points="1657.18,-188.44 1667.16,-184.89 1657.14,-181.44 1657.18,-188.44"/>
</a>
</g>
</g>
<!-- Node3 -->
<g id="Node000003" class="node">
<title>Node3</title>
<g id="a_Node000003"><a xlink:href="code__80004740_8c.html" target="_top" xlink:title=" ">
<polygon fill="white" stroke="#666666" points="216,-134.5 97,-134.5 97,-115.5 216,-115.5 216,-134.5"/>
<text text-anchor="middle" x="156.5" y="-122.5" font-family="Helvetica,sans-Serif" font-size="10.00">src/code_80004740.c</text>
</a>
</g>
</g>
<!-- Node1&#45;&gt;Node3 -->
<g id="edge2_Node000001_Node000003" class="edge">
<title>Node1&#45;&gt;Node3</title>
<g id="a_edge2_Node000001_Node000003"><a xlink:title=" ">
<path fill="none" stroke="#63b8ff" d="M1657.07,-184.01C1399.38,-181.96 508.11,-172.62 225.5,-140 214.69,-138.75 203.06,-136.68 192.48,-134.51"/>
<polygon fill="#63b8ff" stroke="#63b8ff" points="1657.4,-187.51 1667.42,-184.09 1657.45,-180.51 1657.4,-187.51"/>
</a>
</g>
</g>
<!-- Node4 -->
<g id="Node000004" class="node">
<title>Node4</title>
<g id="a_Node000004"><a xlink:href="code__80005FD0_8c.html" target="_top" xlink:title=" ">
<polygon fill="white" stroke="#666666" points="354.5,-134.5 234.5,-134.5 234.5,-115.5 354.5,-115.5 354.5,-134.5"/>
<text text-anchor="middle" x="294.5" y="-122.5" font-family="Helvetica,sans-Serif" font-size="10.00">src/code_80005FD0.c</text>
</a>
</g>
</g>
<!-- Node1&#45;&gt;Node4 -->
<g id="edge3_Node000001_Node000004" class="edge">
<title>Node1&#45;&gt;Node4</title>
<g id="a_edge3_Node000001_Node000004"><a xlink:title=" ">
<path fill="none" stroke="#63b8ff" d="M1657.16,-183.74C1415.29,-180.87 618.68,-169.36 364.5,-140 353.67,-138.75 342.01,-136.7 331.37,-134.56"/>
<polygon fill="#63b8ff" stroke="#63b8ff" points="1657.2,-187.24 1667.24,-183.85 1657.28,-180.24 1657.2,-187.24"/>
</a>
</g>
</g>
<!-- Node5 -->
<g id="Node000005" class="node">
<title>Node5</title>
<g id="a_Node000005"><a xlink:href="code__80057C60_8c.html" target="_top" xlink:title=" ">
<polygon fill="white" stroke="#666666" points="492,-134.5 373,-134.5 373,-115.5 492,-115.5 492,-134.5"/>
<text text-anchor="middle" x="432.5" y="-122.5" font-family="Helvetica,sans-Serif" font-size="10.00">src/code_80057C60.c</text>
</a>
</g>
</g>
<!-- Node1&#45;&gt;Node5 -->
<g id="edge4_Node000001_Node000005" class="edge">
<title>Node1&#45;&gt;Node5</title>
<g id="a_edge4_Node000001_Node000005"><a xlink:title=" ">
<path fill="none" stroke="#63b8ff" d="M1657.09,-183.46C1431.41,-179.9 727.63,-166.86 501.5,-140 490.82,-138.73 479.33,-136.68 468.85,-134.54"/>
<polygon fill="#63b8ff" stroke="#63b8ff" points="1657.1,-186.96 1667.16,-183.62 1657.21,-179.96 1657.1,-186.96"/>
</a>
</g>
</g>
<!-- Node6 -->
<g id="Node000006" class="node">
<title>Node6</title>
<g id="a_Node000006"><a xlink:href="code__80057C60__var_8c.html" target="_top" xlink:title=" ">
<polygon fill="white" stroke="#666666" points="650.5,-134.5 510.5,-134.5 510.5,-115.5 650.5,-115.5 650.5,-134.5"/>
<text text-anchor="middle" x="580.5" y="-122.5" font-family="Helvetica,sans-Serif" font-size="10.00">src/code_80057C60_var.c</text>
</a>
</g>
</g>
<!-- Node1&#45;&gt;Node6 -->
<g id="edge5_Node000001_Node000006" class="edge">
<title>Node1&#45;&gt;Node6</title>
<g id="a_edge5_Node000001_Node000006"><a xlink:title=" ">
<path fill="none" stroke="#63b8ff" d="M1657.3,-184.76C1486.27,-184.7 1034.66,-180.36 660.5,-140 648.3,-138.68 635.16,-136.65 623.12,-134.53"/>
<polygon fill="#63b8ff" stroke="#63b8ff" points="1657.43,-188.26 1667.42,-184.76 1657.42,-181.26 1657.43,-188.26"/>
</a>
</g>
</g>
<!-- Node7 -->
<g id="Node000007" class="node">
<title>Node7</title>
<g id="a_Node000007"><a xlink:href="code__8006E9C0_8c.html" target="_top" xlink:title=" ">
<polygon fill="white" stroke="#666666" points="788,-134.5 669,-134.5 669,-115.5 788,-115.5 788,-134.5"/>
<text text-anchor="middle" x="728.5" y="-122.5" font-family="Helvetica,sans-Serif" font-size="10.00">src/code_8006E9C0.c</text>
</a>
</g>
</g>
<!-- Node1&#45;&gt;Node7 -->
<g id="edge6_Node000001_Node000007" class="edge">
<title>Node1&#45;&gt;Node7</title>
<g id="a_edge6_Node000001_Node000007"><a xlink:title=" ">
<path fill="none" stroke="#63b8ff" d="M1657.02,-184.78C1501.33,-184.6 1116.59,-179.77 797.5,-140 786.95,-138.68 775.6,-136.65 765.21,-134.53"/>
<polygon fill="#63b8ff" stroke="#63b8ff" points="1657.39,-188.28 1667.39,-184.79 1657.39,-181.28 1657.39,-188.28"/>
</a>
</g>
</g>
<!-- Node8 -->
<g id="Node000008" class="node">
<title>Node8</title>
<g id="a_Node000008"><a xlink:href="code__80071F00_8c.html" target="_top" xlink:title=" ">
<polygon fill="white" stroke="#666666" points="925,-134.5 806,-134.5 806,-115.5 925,-115.5 925,-134.5"/>
<text text-anchor="middle" x="865.5" y="-122.5" font-family="Helvetica,sans-Serif" font-size="10.00">src/code_80071F00.c</text>
</a>
</g>
</g>
<!-- Node1&#45;&gt;Node8 -->
<g id="edge7_Node000001_Node000008" class="edge">
<title>Node1&#45;&gt;Node8</title>
<g id="a_edge7_Node000001_Node000008"><a xlink:title=" ">
<path fill="none" stroke="#63b8ff" d="M1657.22,-183.95C1518.48,-182.11 1199.84,-174.18 934.5,-140 924.07,-138.66 912.87,-136.64 902.58,-134.54"/>
<polygon fill="#63b8ff" stroke="#63b8ff" points="1657.25,-187.45 1667.29,-184.08 1657.34,-180.45 1657.25,-187.45"/>
</a>
</g>
</g>
<!-- Node9 -->
<g id="Node000009" class="node">
<title>Node9</title>
<g id="a_Node000009"><a xlink:href="code__80086E70_8c.html" target="_top" xlink:title=" ">
<polygon fill="white" stroke="#666666" points="1062,-134.5 943,-134.5 943,-115.5 1062,-115.5 1062,-134.5"/>
<text text-anchor="middle" x="1002.5" y="-122.5" font-family="Helvetica,sans-Serif" font-size="10.00">src/code_80086E70.c</text>
</a>
</g>
</g>
<!-- Node1&#45;&gt;Node9 -->
<g id="edge8_Node000001_Node000009" class="edge">
<title>Node1&#45;&gt;Node9</title>
<g id="a_edge8_Node000001_Node000009"><a xlink:title=" ">
<path fill="none" stroke="#63b8ff" d="M1656.89,-182.77C1536.36,-179.15 1283.38,-168.55 1071.5,-140 1061.2,-138.61 1050.14,-136.6 1039.95,-134.54"/>
<polygon fill="#63b8ff" stroke="#63b8ff" points="1656.99,-186.28 1667.09,-183.07 1657.19,-179.28 1656.99,-186.28"/>
</a>
</g>
</g>
<!-- Node10 -->
<g id="Node000010" class="node">
<title>Node10</title>
<g id="a_Node000010"><a xlink:href="code__8008C1D0_8c.html" target="_top" xlink:title=" ">
<polygon fill="white" stroke="#666666" points="1201,-134.5 1080,-134.5 1080,-115.5 1201,-115.5 1201,-134.5"/>
<text text-anchor="middle" x="1140.5" y="-122.5" font-family="Helvetica,sans-Serif" font-size="10.00">src/code_8008C1D0.c</text>
</a>
</g>
</g>
<!-- Node1&#45;&gt;Node10 -->
<g id="edge9_Node000001_Node000010" class="edge">
<title>Node1&#45;&gt;Node10</title>
<g id="a_edge9_Node000001_Node000010"><a xlink:title=" ">
<path fill="none" stroke="#63b8ff" d="M1656.89,-180.92C1557.09,-175.3 1369.21,-162.63 1210.5,-140 1200.32,-138.55 1189.38,-136.57 1179.24,-134.55"/>
<polygon fill="#63b8ff" stroke="#63b8ff" points="1656.98,-184.43 1667.15,-181.49 1657.36,-177.44 1656.98,-184.43"/>
</a>
</g>
</g>
<!-- Node11 -->
<g id="Node000011" class="node">
<title>Node11</title>
<g id="a_Node000011"><a xlink:href="code__80091750_8c.html" target="_top" xlink:title=" ">
<polygon fill="white" stroke="#666666" points="1338,-134.5 1219,-134.5 1219,-115.5 1338,-115.5 1338,-134.5"/>
<text text-anchor="middle" x="1278.5" y="-122.5" font-family="Helvetica,sans-Serif" font-size="10.00">src/code_80091750.c</text>
</a>
</g>
</g>
<!-- Node1&#45;&gt;Node11 -->
<g id="edge10_Node000001_Node000011" class="edge">
<title>Node1&#45;&gt;Node11</title>
<g id="a_edge10_Node000001_Node000011"><a xlink:title=" ">
<path fill="none" stroke="#63b8ff" d="M1657.4,-178.06C1580.97,-170.63 1455.16,-157.19 1347.5,-140 1337.84,-138.46 1327.48,-136.51 1317.8,-134.57"/>
<polygon fill="#63b8ff" stroke="#63b8ff" points="1657.1,-181.55 1667.39,-179.03 1657.78,-174.58 1657.1,-181.55"/>
</a>
</g>
</g>
<!-- Node12 -->
<g id="Node000012" class="node">
<title>Node12</title>
<g id="a_Node000012"><a xlink:href="all__variables_8h.html" target="_top" xlink:title=" ">
<polygon fill="white" stroke="#666666" points="1494.5,-134.5 1356.5,-134.5 1356.5,-115.5 1494.5,-115.5 1494.5,-134.5"/>
<text text-anchor="middle" x="1425.5" y="-122.5" font-family="Helvetica,sans-Serif" font-size="10.00">src/debug/all_variables.h</text>
</a>
</g>
</g>
<!-- Node1&#45;&gt;Node12 -->
<g id="edge11_Node000001_Node000012" class="edge">
<title>Node1&#45;&gt;Node12</title>
<g id="a_edge11_Node000001_Node000012"><a xlink:title=" ">
<path fill="none" stroke="#63b8ff" d="M1673.47,-174.03C1615.18,-162.74 1523.51,-144.98 1469.47,-134.52"/>
<polygon fill="#63b8ff" stroke="#63b8ff" points="1673.1,-177.53 1683.59,-175.99 1674.43,-170.66 1673.1,-177.53"/>
</a>
</g>
</g>
<!-- Node15 -->
<g id="Node000015" class="node">
<title>Node15</title>
<g id="a_Node000015"><a xlink:href="ceremony__and__credits_8c.html" target="_top" xlink:title=" ">
<polygon fill="white" stroke="#666666" points="1632,-140 1513,-140 1513,-110 1632,-110 1632,-140"/>
<text text-anchor="start" x="1521" y="-128" font-family="Helvetica,sans-Serif" font-size="10.00">src/ending/ceremony</text>
<text text-anchor="middle" x="1572.5" y="-117" font-family="Helvetica,sans-Serif" font-size="10.00">_and_credits.c</text>
</a>
</g>
</g>
<!-- Node1&#45;&gt;Node15 -->
<g id="edge14_Node000001_Node000015" class="edge">
<title>Node1&#45;&gt;Node15</title>
<g id="a_edge14_Node000001_Node000015"><a xlink:title=" ">
<path fill="none" stroke="#63b8ff" d="M1695.59,-172.46C1670.66,-163.05 1635.97,-149.95 1609.76,-140.06"/>
<polygon fill="#63b8ff" stroke="#63b8ff" points="1694.37,-175.74 1704.96,-175.99 1696.84,-169.19 1694.37,-175.74"/>
</a>
</g>
</g>
<!-- Node16 -->
<g id="Node000016" class="node">
<title>Node16</title>
<g id="a_Node000016"><a xlink:href="code__80280000_8c.html" target="_top" xlink:title=" ">
<polygon fill="white" stroke="#666666" points="1805,-134.5 1650,-134.5 1650,-115.5 1805,-115.5 1805,-134.5"/>
<text text-anchor="middle" x="1727.5" y="-122.5" font-family="Helvetica,sans-Serif" font-size="10.00">src/ending/code_80280000.c</text>
</a>
</g>
</g>
<!-- Node1&#45;&gt;Node16 -->
<g id="edge15_Node000001_Node000016" class="edge">
<title>Node1&#45;&gt;Node16</title>
<g id="a_edge15_Node000001_Node000016"><a xlink:title=" ">
<path fill="none" stroke="#63b8ff" d="M1727.5,-165.66C1727.5,-155.24 1727.5,-142.8 1727.5,-134.67"/>
<polygon fill="#63b8ff" stroke="#63b8ff" points="1724,-165.87 1727.5,-175.87 1731,-165.87 1724,-165.87"/>
</a>
</g>
</g>
<!-- Node17 -->
<g id="Node000017" class="node">
<title>Node17</title>
<g id="a_Node000017"><a xlink:href="code__80281C40_8c.html" target="_top" xlink:title=" ">
<polygon fill="white" stroke="#666666" points="1978,-134.5 1823,-134.5 1823,-115.5 1978,-115.5 1978,-134.5"/>
<text text-anchor="middle" x="1900.5" y="-122.5" font-family="Helvetica,sans-Serif" font-size="10.00">src/ending/code_80281C40.c</text>
</a>
</g>
</g>
<!-- Node1&#45;&gt;Node17 -->
<g id="edge16_Node000001_Node000017" class="edge">
<title>Node1&#45;&gt;Node17</title>
<g id="a_edge16_Node000001_Node000017"><a xlink:title=" ">
<path fill="none" stroke="#63b8ff" d="M1762.48,-172.67C1795.94,-161.36 1845.58,-144.57 1875.31,-134.52"/>
<polygon fill="#63b8ff" stroke="#63b8ff" points="1761.01,-169.47 1752.66,-175.99 1763.25,-176.11 1761.01,-169.47"/>
</a>
</g>
</g>
<!-- Node18 -->
<g id="Node000018" class="node">
<title>Node18</title>
<g id="a_Node000018"><a xlink:href="podium__ceremony__actors_8c.html" target="_top" xlink:title=" ">
<polygon fill="white" stroke="#666666" points="2157,-140 1996,-140 1996,-110 2157,-110 2157,-140"/>
<text text-anchor="start" x="2004" y="-128" font-family="Helvetica,sans-Serif" font-size="10.00">src/ending/podium_ceremony</text>
<text text-anchor="middle" x="2076.5" y="-117" font-family="Helvetica,sans-Serif" font-size="10.00">_actors.c</text>
</a>
</g>
</g>
<!-- Node1&#45;&gt;Node18 -->
<g id="edge17_Node000001_Node000018" class="edge">
<title>Node1&#45;&gt;Node18</title>
<g id="a_edge17_Node000001_Node000018"><a xlink:title=" ">
<path fill="none" stroke="#63b8ff" d="M1788.29,-174.31C1845.85,-164.66 1932.65,-150.11 1995.95,-139.5"/>
<polygon fill="#63b8ff" stroke="#63b8ff" points="1787.53,-170.89 1778.25,-175.99 1788.69,-177.79 1787.53,-170.89"/>
</a>
</g>
</g>
<!-- Node19 -->
<g id="Node000019" class="node">
<title>Node19</title>
<g id="a_Node000019"><a xlink:href="hud__renderer_8c.html" target="_top" xlink:title=" ">
<polygon fill="white" stroke="#666666" points="2281.5,-134.5 2175.5,-134.5 2175.5,-115.5 2281.5,-115.5 2281.5,-134.5"/>
<text text-anchor="middle" x="2228.5" y="-122.5" font-family="Helvetica,sans-Serif" font-size="10.00">src/hud_renderer.c</text>
</a>
</g>
</g>
<!-- Node1&#45;&gt;Node19 -->
<g id="edge18_Node000001_Node000019" class="edge">
<title>Node1&#45;&gt;Node19</title>
<g id="a_edge18_Node000001_Node000019"><a xlink:title=" ">
<path fill="none" stroke="#63b8ff" d="M1797.82,-180.01C1884.8,-173.84 2037.22,-161.07 2166.5,-140 2175.54,-138.53 2185.24,-136.54 2194.21,-134.52"/>
<polygon fill="#63b8ff" stroke="#63b8ff" points="1797.54,-176.52 1787.8,-180.71 1798.02,-183.5 1797.54,-176.52"/>
</a>
</g>
</g>
<!-- Node20 -->
<g id="Node000020" class="node">
<title>Node20</title>
<g id="a_Node000020"><a xlink:href="main_8c.html" target="_top" xlink:title=" ">
<polygon fill="white" stroke="#666666" points="2367,-134.5 2300,-134.5 2300,-115.5 2367,-115.5 2367,-134.5"/>
<text text-anchor="middle" x="2333.5" y="-122.5" font-family="Helvetica,sans-Serif" font-size="10.00">src/main.c</text>
</a>
</g>
</g>
<!-- Node1&#45;&gt;Node20 -->
<g id="edge19_Node000001_Node000020" class="edge">
<title>Node1&#45;&gt;Node20</title>
<g id="a_edge19_Node000001_Node000020"><a xlink:title=" ">
<path fill="none" stroke="#63b8ff" d="M1797.77,-184.24C1905.04,-182.66 2115.61,-174.87 2290.5,-140 2297.12,-138.68 2304.15,-136.67 2310.56,-134.57"/>
<polygon fill="#63b8ff" stroke="#63b8ff" points="1797.67,-180.74 1787.72,-184.37 1797.76,-187.74 1797.67,-180.74"/>
</a>
</g>
</g>
<!-- Node21 -->
<g id="Node000021" class="node">
<title>Node21</title>
<g id="a_Node000021"><a xlink:href="math__util__2_8c.html" target="_top" xlink:title=" ">
<polygon fill="white" stroke="#666666" points="2485.5,-134.5 2385.5,-134.5 2385.5,-115.5 2485.5,-115.5 2485.5,-134.5"/>
<text text-anchor="middle" x="2435.5" y="-122.5" font-family="Helvetica,sans-Serif" font-size="10.00">src/math_util_2.c</text>
</a>
</g>
</g>
<!-- Node1&#45;&gt;Node21 -->
<g id="edge20_Node000001_Node000021" class="edge">
<title>Node1&#45;&gt;Node21</title>
<g id="a_edge20_Node000001_Node000021"><a xlink:title=" ">
<path fill="none" stroke="#63b8ff" d="M1797.93,-183.46C1917.52,-180.84 2167.65,-171.72 2376.5,-140 2385.45,-138.64 2395.05,-136.61 2403.84,-134.52"/>
<polygon fill="#63b8ff" stroke="#63b8ff" points="1797.73,-179.96 1787.81,-183.67 1797.88,-186.96 1797.73,-179.96"/>
</a>
</g>
</g>
<!-- Node22 -->
<g id="Node000022" class="node">
<title>Node22</title>
<g id="a_Node000022"><a xlink:href="player__controller_8c.html" target="_top" xlink:title=" ">
<polygon fill="white" stroke="#666666" points="2627.5,-134.5 2503.5,-134.5 2503.5,-115.5 2627.5,-115.5 2627.5,-134.5"/>
<text text-anchor="middle" x="2565.5" y="-122.5" font-family="Helvetica,sans-Serif" font-size="10.00">src/player_controller.c</text>
</a>
</g>
</g>
<!-- Node1&#45;&gt;Node22 -->
<g id="edge21_Node000001_Node000022" class="edge">
<title>Node1&#45;&gt;Node22</title>
<g id="a_edge21_Node000001_Node000022"><a xlink:title=" ">
<path fill="none" stroke="#63b8ff" d="M1798.16,-183.62C1933.72,-181.23 2239.48,-172.39 2494.5,-140 2505.22,-138.64 2516.75,-136.61 2527.33,-134.52"/>
<polygon fill="#63b8ff" stroke="#63b8ff" points="1797.86,-180.13 1787.92,-183.8 1797.98,-187.13 1797.86,-180.13"/>
</a>
</g>
</g>
<!-- Node23 -->
<g id="Node000023" class="node">
<title>Node23</title>
<g id="a_Node000023"><a xlink:href="race__logic_8c.html" target="_top" xlink:title=" ">
<polygon fill="white" stroke="#666666" points="2771,-134.5 2646,-134.5 2646,-115.5 2771,-115.5 2771,-134.5"/>
<text text-anchor="middle" x="2708.5" y="-122.5" font-family="Helvetica,sans-Serif" font-size="10.00">src/racing/race_logic.c</text>
</a>
</g>
</g>
<!-- Node1&#45;&gt;Node23 -->
<g id="edge22_Node000001_Node000023" class="edge">
<title>Node1&#45;&gt;Node23</title>
<g id="a_edge22_Node000001_Node000023"><a xlink:title=" ">
<path fill="none" stroke="#63b8ff" d="M1797.77,-184.48C1950.8,-183.68 2325.43,-177.66 2636.5,-140 2647.5,-138.67 2659.34,-136.63 2670.17,-134.51"/>
<polygon fill="#63b8ff" stroke="#63b8ff" points="1797.56,-180.98 1787.58,-184.52 1797.59,-187.98 1797.56,-180.98"/>
</a>
</g>
</g>
<!-- Node24 -->
<g id="Node000024" class="node">
<title>Node24</title>
<g id="a_Node000024"><a xlink:href="skybox__and__splitscreen_8c.html" target="_top" xlink:title=" ">
<polygon fill="white" stroke="#666666" points="2914,-140 2789,-140 2789,-110 2914,-110 2914,-140"/>
<text text-anchor="start" x="2797" y="-128" font-family="Helvetica,sans-Serif" font-size="10.00">src/racing/skybox_and</text>
<text text-anchor="middle" x="2851.5" y="-117" font-family="Helvetica,sans-Serif" font-size="10.00">_splitscreen.c</text>
</a>
</g>
</g>
<!-- Node1&#45;&gt;Node24 -->
<g id="edge23_Node000001_Node000024" class="edge">
<title>Node1&#45;&gt;Node24</title>
<g id="a_edge23_Node000001_Node000024"><a xlink:title=" ">
<path fill="none" stroke="#63b8ff" d="M1797.76,-185.22C1967.36,-186.15 2412.37,-183.81 2780.5,-140 2783.24,-139.67 2786.04,-139.3 2788.86,-138.89"/>
<polygon fill="#63b8ff" stroke="#63b8ff" points="1797.73,-181.72 1787.71,-185.16 1797.69,-188.72 1797.73,-181.72"/>
</a>
</g>
</g>
<!-- Node25 -->
<g id="Node000025" class="node">
<title>Node25</title>
<g id="a_Node000025"><a xlink:href="render__player_8c.html" target="_top" xlink:title=" ">
<polygon fill="white" stroke="#666666" points="3041,-134.5 2932,-134.5 2932,-115.5 3041,-115.5 3041,-134.5"/>
<text text-anchor="middle" x="2986.5" y="-122.5" font-family="Helvetica,sans-Serif" font-size="10.00">src/render_player.c</text>
</a>
</g>
</g>
<!-- Node1&#45;&gt;Node25 -->
<g id="edge24_Node000001_Node000025" class="edge">
<title>Node1&#45;&gt;Node25</title>
<g id="a_edge24_Node000001_Node000025"><a xlink:title=" ">
<path fill="none" stroke="#63b8ff" d="M1798.06,-183.56C2020.27,-180.32 2703.77,-168.26 2923.5,-140 2933.28,-138.74 2943.78,-136.69 2953.35,-134.55"/>
<polygon fill="#63b8ff" stroke="#63b8ff" points="1797.78,-180.06 1787.84,-183.7 1797.89,-187.06 1797.78,-180.06"/>
</a>
</g>
</g>
<!-- Node26 -->
<g id="Node000026" class="node">
<title>Node26</title>
<g id="a_Node000026"><a xlink:href="save_8c.html" target="_top" xlink:title=" ">
<polygon fill="white" stroke="#666666" points="3124,-134.5 3059,-134.5 3059,-115.5 3124,-115.5 3124,-134.5"/>
<text text-anchor="middle" x="3091.5" y="-122.5" font-family="Helvetica,sans-Serif" font-size="10.00">src/save.c</text>
</a>
</g>
</g>
<!-- Node1&#45;&gt;Node26 -->
<g id="edge25_Node000001_Node000026" class="edge">
<title>Node1&#45;&gt;Node26</title>
<g id="a_edge25_Node000001_Node000026"><a xlink:title=" ">
<path fill="none" stroke="#63b8ff" d="M1797.92,-184.86C2035.6,-185.66 2806.88,-184.67 3050.5,-140 3057.01,-138.81 3063.89,-136.78 3070.11,-134.63"/>
<polygon fill="#63b8ff" stroke="#63b8ff" points="1797.69,-181.36 1787.68,-184.83 1797.67,-188.36 1797.69,-181.36"/>
</a>
</g>
</g>
<!-- Node27 -->
<g id="Node000027" class="node">
<title>Node27</title>
<g id="a_Node000027"><a xlink:href="spawn__players_8c.html" target="_top" xlink:title=" ">
<polygon fill="white" stroke="#666666" points="3257,-134.5 3142,-134.5 3142,-115.5 3257,-115.5 3257,-134.5"/>
<text text-anchor="middle" x="3199.5" y="-122.5" font-family="Helvetica,sans-Serif" font-size="10.00">src/spawn_players.c</text>
</a>
</g>
</g>
<!-- Node1&#45;&gt;Node27 -->
<g id="edge26_Node000001_Node000027" class="edge">
<title>Node1&#45;&gt;Node27</title>
<g id="a_edge26_Node000001_Node000027"><a xlink:title=" ">
<path fill="none" stroke="#63b8ff" d="M1797.95,-183.92C2044.93,-181.64 2870.73,-171.77 3133.5,-140 3143.85,-138.75 3154.98,-136.68 3165.1,-134.5"/>
<polygon fill="#63b8ff" stroke="#63b8ff" points="1797.64,-180.43 1787.67,-184.02 1797.7,-187.43 1797.64,-180.43"/>
</a>
</g>
</g>
<!-- Node28 -->
<g id="Node000028" class="node">
<title>Node28</title>
<g id="a_Node000028"><a xlink:href="staff__ghosts_8c.html" target="_top" xlink:title=" ">
<polygon fill="white" stroke="#666666" points="3376,-134.5 3275,-134.5 3275,-115.5 3376,-115.5 3376,-134.5"/>
<text text-anchor="middle" x="3325.5" y="-122.5" font-family="Helvetica,sans-Serif" font-size="10.00">src/staff_ghosts.c</text>
</a>
</g>
</g>
<!-- Node1&#45;&gt;Node28 -->
<g id="edge27_Node000001_Node000028" class="edge">
<title>Node1&#45;&gt;Node28</title>
<g id="a_edge27_Node000001_Node000028"><a xlink:title=" ">
<path fill="none" stroke="#63b8ff" d="M1797.97,-184.37C2059.86,-183.59 2976.87,-178.14 3266.5,-140 3275.79,-138.78 3285.75,-136.71 3294.79,-134.54"/>
<polygon fill="#63b8ff" stroke="#63b8ff" points="1797.82,-180.87 1787.83,-184.4 1797.84,-187.87 1797.82,-180.87"/>
</a>
</g>
</g>
<!-- Node13 -->
<g id="Node000013" class="node">
<title>Node13</title>
<g id="a_Node000013"><a xlink:href="debug_8inc_8c.html" target="_top" xlink:title=" ">
<polygon fill="white" stroke="#666666" points="1486.5,-74 1364.5,-74 1364.5,-55 1486.5,-55 1486.5,-74"/>
<text text-anchor="middle" x="1425.5" y="-62" font-family="Helvetica,sans-Serif" font-size="10.00">src/debug/debug.inc.c</text>
</a>
</g>
</g>
<!-- Node12&#45;&gt;Node13 -->
<g id="edge12_Node000012_Node000013" class="edge">
<title>Node12&#45;&gt;Node13</title>
<g id="a_edge12_Node000012_Node000013"><a xlink:title=" ">
<path fill="none" stroke="#63b8ff" d="M1425.5,-105.16C1425.5,-94.74 1425.5,-82.3 1425.5,-74.17"/>
<polygon fill="#63b8ff" stroke="#63b8ff" points="1422,-105.37 1425.5,-115.37 1429,-105.37 1422,-105.37"/>
</a>
</g>
</g>
<!-- Node14 -->
<g id="Node000014" class="node">
<title>Node14</title>
<g id="a_Node000014"><a xlink:href="debug_8c.html" target="_top" xlink:title=" ">
<polygon fill="white" stroke="#666666" points="1478,-19 1373,-19 1373,0 1478,0 1478,-19"/>
<text text-anchor="middle" x="1425.5" y="-7" font-family="Helvetica,sans-Serif" font-size="10.00">src/debug/debug.c</text>
</a>
</g>
</g>
<!-- Node13&#45;&gt;Node14 -->
<g id="edge13_Node000013_Node000014" class="edge">
<title>Node13&#45;&gt;Node14</title>
<g id="a_edge13_Node000013_Node000014"><a xlink:title=" ">
<path fill="none" stroke="#63b8ff" d="M1425.5,-44.66C1425.5,-35.93 1425.5,-25.99 1425.5,-19.09"/>
<polygon fill="#63b8ff" stroke="#63b8ff" points="1422,-44.75 1425.5,-54.75 1429,-44.75 1422,-44.75"/>
</a>
</g>
</g>
</g>
</svg>

<g id="navigator" transform="translate(0 0)" fill="#404254">
  <rect fill="#f2f5e9" fill-opacity="0.5" stroke="#606060" stroke-width=".5" x="0" y="0" width="60" height="60"/>
  <use id="zoomplus" xlink:href="#zoomPlus" x="17" y="9" onmousedown="handleZoom(evt,'in')"/>
  <use id="zoomminus" xlink:href="#zoomMin" x="42" y="9" onmousedown="handleZoom(evt,'out')"/>
  <use id="reset" xlink:href="#resetDef" x="30" y="36" onmousedown="handleReset()"/>
   <use id="arrowup" xlink:href="#arrowUp" x="0" y="0" onmousedown="handlePan(0,-1)"/>
  <use id="arrowright" xlink:href="#arrowRight" x="0" y="0" onmousedown="handlePan(1,0)"/>
  <use id="arrowdown" xlink:href="#arrowDown" x="0" y="0" onmousedown="handlePan(0,1)"/>
  <use id="arrowleft" xlink:href="#arrowLeft" x="0" y="0" onmousedown="handlePan(-1,0)"/>
</g>
<svg viewBox="0 0 15 15" width="100%" height="30px" preserveAspectRatio="xMaxYMin meet">
 <g id="arrow_out" transform="scale(0.3 0.3)">
  <a xlink:href="code__80057C60_8h__dep__incl_org.svg" target="_base">
   <rect id="button" ry="5" rx="5" y="6" x="6" height="38" width="38"
        fill="#f2f5e9" fill-opacity="0.5" stroke="#606060" stroke-width="1.0"/>
   <path id="arrow"
     d="M 11.500037,31.436501 C 11.940474,20.09759 22.043105,11.32322 32.158766,21.979434 L 37.068811,17.246167 C 37.068811,17.246167 37.088388,32 37.088388,32 L 22.160133,31.978069 C 22.160133,31.978069 26.997745,27.140456 26.997745,27.140456 C 18.528582,18.264221 13.291696,25.230495 11.500037,31.436501 z"
     style="fill:#404040;"/>
  </a>
 </g>
</svg>

<style type='text/css'>
<![CDATA[
[data-mouse-over-selected='false'] { opacity: 0.7; }
[data-mouse-over-selected='true']  { opacity: 1.0; }
]]>
</style>
<script type="application/ecmascript"><![CDATA[
document.addEventListener('DOMContentLoaded', (event) => {
  highlightEdges();
  highlightAdjacentNodes();
});
]]></script>
</svg>
