<?xml version="1.0" encoding="UTF-8" standalone="no"?>
<!DOCTYPE svg PUBLIC "-//W3C//DTD SVG 1.1//EN"
 "http://www.w3.org/Graphics/SVG/1.1/DTD/svg11.dtd">
<!-- Generated by graphviz version 2.43.0 (0)
 -->
<!-- Title: src/common_textures.h Pages: 1 -->
<!--zoomable 269 -->

<svg id="main" version="1.1" xmlns="http://www.w3.org/2000/svg" xmlns:xlink="http://www.w3.org/1999/xlink" xml:space="preserve" onload="init(evt)">
<style type="text/css"><![CDATA[
.node, .edge {opacity: 0.7;}
.node.selected, .edge.selected {opacity: 1;}
.edge:hover path { stroke: red; }
.edge:hover polygon { stroke: red; fill: red; }
]]></style>

<defs>
  <circle id="rim" cx="0" cy="0" r="7"/>
  <circle id="rim2" cx="0" cy="0" r="3.5"/>
  <g id="zoomPlus">
    <use xlink:href="#rim" fill="#404040"><set attributeName="fill" to="#808080" begin="zoomplus.mouseover" end="zoomplus.mouseout"/></use>
    <path d="M-4,0h8M0,-4v8" fill="none" stroke="white" stroke-width="1.5" pointer-events="none"/>
  </g>
  <g id="zoomMin">
    <use xlink:href="#rim" fill="#404040"><set attributeName="fill" to="#808080" begin="zoomminus.mouseover" end="zoomminus.mouseout"/></use>
    <path d="M-4,0h8" fill="none" stroke="white" stroke-width="1.5" pointer-events="none"/>
  </g>
  <g id="arrowUp" transform="translate(30 24)">
    <use xlink:href="#rim"/>
    <path pointer-events="none" fill="none" stroke="white" stroke-width="1.5" d="M0,-3.0v7 M-2.5,-0.5L0,-3.0L2.5,-0.5"/>
  </g>
  <g id="arrowRight" transform="rotate(90) translate(36 -43)">
    <use xlink:href="#rim"/>
    <path pointer-events="none" fill="none" stroke="white" stroke-width="1.5" d="M0,-3.0v7 M-2.5,-0.5L0,-3.0L2.5,-0.5"/>
  </g>
  <g id="arrowDown" transform="rotate(180) translate(-30 -48)">
    <use xlink:href="#rim"/>
    <path pointer-events="none" fill="none" stroke="white" stroke-width="1.5" d="M0,-3.0v7 M-2.5,-0.5L0,-3.0L2.5,-0.5"/>
  </g>
  <g id="arrowLeft" transform="rotate(270) translate(-36 17)">
    <use xlink:href="#rim"/>
    <path pointer-events="none" fill="none" stroke="white" stroke-width="1.5" d="M0,-3.0v7 M-2.5,-0.5L0,-3.0L2.5,-0.5"/>
  </g>
  <g id="resetDef">
    <use xlink:href="#rim2" fill="#404040"><set attributeName="fill" to="#808080" begin="reset.mouseover" end="reset.mouseout"/></use>
  </g>
</defs>
<script type="application/ecmascript">
var viewWidth = 2643;
var viewHeight = 269;
var sectionId = 'dynsection-1';
</script>
<script type="application/ecmascript" xlink:href="svg.min.js"/>
<svg id="graph" class="graph">
<g id="viewport">
<title>src/common_textures.h</title>
<!-- Node1 -->
<g id="Node000001" class="node">
<title>Node1</title>
<g id="a_Node000001"><a xlink:title=" ">
<polygon fill="#999999" stroke="#666666" points="950,-261 819,-261 819,-242 950,-242 950,-261"/>
<text text-anchor="middle" x="884.5" y="-249" font-family="Helvetica,sans-Serif" font-size="10.00">src/common_textures.h</text>
</a>
</g>
</g>
<!-- Node2 -->
<g id="Node000002" class="node">
<title>Node2</title>
<g id="a_Node000002"><a xlink:href="toads__turnpike_2course__offsets_8inc_8c.html" target="_top" xlink:title=" ">
<polygon fill="white" stroke="#666666" points="129,-206 0,-206 0,-176 129,-176 129,-206"/>
<text text-anchor="start" x="8" y="-194" font-family="Helvetica,sans-Serif" font-size="10.00">courses/toads_turnpike</text>
<text text-anchor="middle" x="64.5" y="-183" font-family="Helvetica,sans-Serif" font-size="10.00">/course_offsets.inc.c</text>
</a>
</g>
</g>
<!-- Node1&#45;&gt;Node2 -->
<g id="edge1_Node000001_Node000002" class="edge">
<title>Node1&#45;&gt;Node2</title>
<g id="a_edge1_Node000001_Node000002"><a xlink:title=" ">
<path fill="none" stroke="#63b8ff" d="M808.66,-248.83C674.23,-245.23 385.49,-234.61 143.5,-206 138.8,-205.44 133.95,-204.79 129.08,-204.07"/>
<polygon fill="#63b8ff" stroke="#63b8ff" points="808.77,-252.34 818.85,-249.1 808.95,-245.34 808.77,-252.34"/>
</a>
</g>
</g>
<!-- Node3 -->
<g id="Node000003" class="node">
<title>Node3</title>
<g id="a_Node000003"><a xlink:href="trees_2render_8inc_8c.html" target="_top" xlink:title=" ">
<polygon fill="white" stroke="#666666" points="337,-200.5 186,-200.5 186,-181.5 337,-181.5 337,-200.5"/>
<text text-anchor="middle" x="261.5" y="-188.5" font-family="Helvetica,sans-Serif" font-size="10.00">src/actors/trees/render.inc.c</text>
</a>
</g>
</g>
<!-- Node1&#45;&gt;Node3 -->
<g id="edge2_Node000001_Node000003" class="edge">
<title>Node1&#45;&gt;Node3</title>
<g id="a_edge2_Node000001_Node000003"><a xlink:title=" ">
<path fill="none" stroke="#63b8ff" d="M808.63,-246.22C704.12,-239.88 510.07,-226.47 345.5,-206 333.47,-204.5 320.53,-202.53 308.49,-200.54"/>
<polygon fill="#63b8ff" stroke="#63b8ff" points="808.58,-249.73 818.77,-246.83 809,-242.74 808.58,-249.73"/>
</a>
</g>
</g>
<!-- Node4 -->
<g id="Node000004" class="node">
<title>Node4</title>
<g id="a_Node000004"><a xlink:href="actors_8c.html" target="_top" xlink:title=" ">
<polygon fill="white" stroke="#666666" points="168,-134.5 63,-134.5 63,-115.5 168,-115.5 168,-134.5"/>
<text text-anchor="middle" x="115.5" y="-122.5" font-family="Helvetica,sans-Serif" font-size="10.00">src/racing/actors.c</text>
</a>
</g>
</g>
<!-- Node1&#45;&gt;Node4 -->
<g id="edge35_Node000001_Node000004" class="edge">
<title>Node1&#45;&gt;Node4</title>
<g id="a_edge35_Node000001_Node000004"><a xlink:title=" ">
<path fill="none" stroke="#63b8ff" d="M808.73,-249.27C637.47,-246 231.15,-235.22 176.5,-206 146.47,-189.94 126.79,-151.93 119.12,-134.73"/>
<polygon fill="#63b8ff" stroke="#63b8ff" points="808.87,-252.78 818.93,-249.47 809,-245.78 808.87,-252.78"/>
</a>
</g>
</g>
<!-- Node5 -->
<g id="Node000005" class="node">
<title>Node5</title>
<g id="a_Node000005"><a xlink:href="code__80005FD0_8c.html" target="_top" xlink:title=" ">
<polygon fill="white" stroke="#666666" points="441.5,-134.5 321.5,-134.5 321.5,-115.5 441.5,-115.5 441.5,-134.5"/>
<text text-anchor="middle" x="381.5" y="-122.5" font-family="Helvetica,sans-Serif" font-size="10.00">src/code_80005FD0.c</text>
</a>
</g>
</g>
<!-- Node1&#45;&gt;Node5 -->
<g id="edge4_Node000001_Node000005" class="edge">
<title>Node1&#45;&gt;Node5</title>
<g id="a_edge4_Node000001_Node000005"><a xlink:title=" ">
<path fill="none" stroke="#63b8ff" d="M826.06,-240.18C780.9,-231.89 716.97,-219.44 661.5,-206 567.9,-183.33 458.55,-150.1 408.73,-134.58"/>
<polygon fill="#63b8ff" stroke="#63b8ff" points="825.5,-243.64 835.97,-241.99 826.76,-236.75 825.5,-243.64"/>
</a>
</g>
</g>
<!-- Node6 -->
<g id="Node000006" class="node">
<title>Node6</title>
<g id="a_Node000006"><a xlink:href="code__80005FD0_8h.html" target="_top" xlink:title=" ">
<polygon fill="white" stroke="#666666" points="1232,-200.5 1111,-200.5 1111,-181.5 1232,-181.5 1232,-200.5"/>
<text text-anchor="middle" x="1171.5" y="-188.5" font-family="Helvetica,sans-Serif" font-size="10.00">src/code_80005FD0.h</text>
</a>
</g>
</g>
<!-- Node1&#45;&gt;Node6 -->
<g id="edge5_Node000001_Node000006" class="edge">
<title>Node1&#45;&gt;Node6</title>
<g id="a_edge5_Node000001_Node000006"><a xlink:title=" ">
<path fill="none" stroke="#63b8ff" d="M936.2,-239.96C991.6,-228.67 1078.47,-210.96 1129.72,-200.52"/>
<polygon fill="#63b8ff" stroke="#63b8ff" points="935.33,-236.57 926.23,-241.99 936.73,-243.43 935.33,-236.57"/>
</a>
</g>
</g>
<!-- Node9 -->
<g id="Node000009" class="node">
<title>Node9</title>
<g id="a_Node000009"><a xlink:href="code__80057C60_8c.html" target="_top" xlink:title=" ">
<polygon fill="white" stroke="#666666" points="579,-134.5 460,-134.5 460,-115.5 579,-115.5 579,-134.5"/>
<text text-anchor="middle" x="519.5" y="-122.5" font-family="Helvetica,sans-Serif" font-size="10.00">src/code_80057C60.c</text>
</a>
</g>
</g>
<!-- Node1&#45;&gt;Node9 -->
<g id="edge26_Node000001_Node000009" class="edge">
<title>Node1&#45;&gt;Node9</title>
<g id="a_edge26_Node000001_Node000009"><a xlink:title=" ">
<path fill="none" stroke="#63b8ff" d="M847.48,-238.86C819.64,-230.03 780.6,-217.5 746.5,-206 671.87,-180.82 584.07,-149.35 542.96,-134.5"/>
<polygon fill="#63b8ff" stroke="#63b8ff" points="846.61,-242.25 857.2,-241.93 848.72,-235.58 846.61,-242.25"/>
</a>
</g>
</g>
<!-- Node10 -->
<g id="Node000010" class="node">
<title>Node10</title>
<g id="a_Node000010"><a xlink:href="code__8006E9C0_8c.html" target="_top" xlink:title=" ">
<polygon fill="white" stroke="#666666" points="716,-134.5 597,-134.5 597,-115.5 716,-115.5 716,-134.5"/>
<text text-anchor="middle" x="656.5" y="-122.5" font-family="Helvetica,sans-Serif" font-size="10.00">src/code_8006E9C0.c</text>
</a>
</g>
</g>
<!-- Node1&#45;&gt;Node10 -->
<g id="edge27_Node000001_Node000010" class="edge">
<title>Node1&#45;&gt;Node10</title>
<g id="a_edge27_Node000001_Node000010"><a xlink:title=" ">
<path fill="none" stroke="#63b8ff" d="M859.92,-237.08C812.89,-211.4 711.37,-155.96 672.28,-134.62"/>
<polygon fill="#63b8ff" stroke="#63b8ff" points="858.37,-240.22 868.83,-241.94 861.73,-234.08 858.37,-240.22"/>
</a>
</g>
</g>
<!-- Node11 -->
<g id="Node000011" class="node">
<title>Node11</title>
<g id="a_Node000011"><a xlink:href="code__80091750_8c.html" target="_top" xlink:title=" ">
<polygon fill="white" stroke="#666666" points="853,-134.5 734,-134.5 734,-115.5 853,-115.5 853,-134.5"/>
<text text-anchor="middle" x="793.5" y="-122.5" font-family="Helvetica,sans-Serif" font-size="10.00">src/code_80091750.c</text>
</a>
</g>
</g>
<!-- Node1&#45;&gt;Node11 -->
<g id="edge28_Node000001_Node000011" class="edge">
<title>Node1&#45;&gt;Node11</title>
<g id="a_edge28_Node000001_Node000011"><a xlink:title=" ">
<path fill="none" stroke="#63b8ff" d="M872.1,-233.54C852.41,-206.6 814.71,-155.02 799.8,-134.62"/>
<polygon fill="#63b8ff" stroke="#63b8ff" points="869.52,-235.93 878.25,-241.94 875.17,-231.8 869.52,-235.93"/>
</a>
</g>
</g>
<!-- Node12 -->
<g id="Node000012" class="node">
<title>Node12</title>
<g id="a_Node000012"><a xlink:href="all__variables_8h.html" target="_top" xlink:title=" ">
<polygon fill="white" stroke="#666666" points="1009.5,-134.5 871.5,-134.5 871.5,-115.5 1009.5,-115.5 1009.5,-134.5"/>
<text text-anchor="middle" x="940.5" y="-122.5" font-family="Helvetica,sans-Serif" font-size="10.00">src/debug/all_variables.h</text>
</a>
</g>
</g>
<!-- Node1&#45;&gt;Node12 -->
<g id="edge33_Node000001_Node000012" class="edge">
<title>Node1&#45;&gt;Node12</title>
<g id="a_edge33_Node000001_Node000012"><a xlink:title=" ">
<path fill="none" stroke="#63b8ff" d="M892.61,-232.46C904.85,-205.26 927.57,-154.76 936.62,-134.62"/>
<polygon fill="#63b8ff" stroke="#63b8ff" points="889.26,-231.39 888.35,-241.94 895.64,-234.26 889.26,-231.39"/>
</a>
</g>
</g>
<!-- Node17 -->
<g id="Node000017" class="node">
<title>Node17</title>
<g id="a_Node000017"><a xlink:href="podium__ceremony__actors_8c.html" target="_top" xlink:title=" ">
<polygon fill="white" stroke="#666666" points="2368,-140 2207,-140 2207,-110 2368,-110 2368,-140"/>
<text text-anchor="start" x="2215" y="-128" font-family="Helvetica,sans-Serif" font-size="10.00">src/ending/podium_ceremony</text>
<text text-anchor="middle" x="2287.5" y="-117" font-family="Helvetica,sans-Serif" font-size="10.00">_actors.c</text>
</a>
</g>
</g>
<!-- Node1&#45;&gt;Node17 -->
<g id="edge34_Node000001_Node000017" class="edge">
<title>Node1&#45;&gt;Node17</title>
<g id="a_edge34_Node000001_Node000017"><a xlink:title=" ">
<path fill="none" stroke="#63b8ff" d="M960.21,-245.23C1049.12,-238.31 1190.78,-224.79 1240.5,-206 1262.64,-197.63 1262.02,-183.42 1284.5,-176 1477.52,-112.27 1996.2,-159.83 2198.5,-140 2201.15,-139.74 2203.83,-139.45 2206.54,-139.14"/>
<polygon fill="#63b8ff" stroke="#63b8ff" points="959.88,-241.74 950.18,-246 960.42,-248.72 959.88,-241.74"/>
</a>
</g>
</g>
<!-- Node22 -->
<g id="Node000022" class="node">
<title>Node22</title>
<g id="a_Node000022"><a xlink:href="render__objects_8c.html" target="_top" xlink:title=" ">
<polygon fill="white" stroke="#666666" points="2500.5,-134.5 2386.5,-134.5 2386.5,-115.5 2500.5,-115.5 2500.5,-134.5"/>
<text text-anchor="middle" x="2443.5" y="-122.5" font-family="Helvetica,sans-Serif" font-size="10.00">src/render_objects.c</text>
</a>
</g>
</g>
<!-- Node1&#45;&gt;Node22 -->
<g id="edge37_Node000001_Node000022" class="edge">
<title>Node1&#45;&gt;Node22</title>
<g id="a_edge37_Node000001_Node000022"><a xlink:title=" ">
<path fill="none" stroke="#63b8ff" d="M960.37,-246.06C1057.53,-239.65 1220.09,-226.3 1276.5,-206 1299.47,-197.73 1299.23,-183.35 1322.5,-176 1546.18,-105.33 2144.65,-168.45 2377.5,-140 2387.73,-138.75 2398.73,-136.71 2408.75,-134.56"/>
<polygon fill="#63b8ff" stroke="#63b8ff" points="960.06,-242.57 950.31,-246.71 960.51,-249.55 960.06,-242.57"/>
</a>
</g>
</g>
<!-- Node24 -->
<g id="Node000024" class="node">
<title>Node24</title>
<g id="a_Node000024"><a xlink:href="update__objects_8c.html" target="_top" xlink:title=" ">
<polygon fill="white" stroke="#666666" points="2634.5,-134.5 2518.5,-134.5 2518.5,-115.5 2634.5,-115.5 2634.5,-134.5"/>
<text text-anchor="middle" x="2576.5" y="-122.5" font-family="Helvetica,sans-Serif" font-size="10.00">src/update_objects.c</text>
</a>
</g>
</g>
<!-- Node1&#45;&gt;Node24 -->
<g id="edge39_Node000001_Node000024" class="edge">
<title>Node1&#45;&gt;Node24</title>
<g id="a_edge39_Node000001_Node000024"><a xlink:title=" ">
<path fill="none" stroke="#63b8ff" d="M960.47,-247.19C1065.9,-241.82 1250.68,-229.38 1313.5,-206 1335.34,-197.87 1334.38,-183.33 1356.5,-176 1478.16,-135.66 2382.23,-155.17 2509.5,-140 2520,-138.75 2531.3,-136.68 2541.57,-134.5"/>
<polygon fill="#63b8ff" stroke="#63b8ff" points="960.02,-243.71 950.21,-247.7 960.37,-250.7 960.02,-243.71"/>
</a>
</g>
</g>
<!-- Node25 -->
<g id="Node000025" class="node">
<title>Node25</title>
<g id="a_Node000025"><a xlink:href="common__textures_8inc_8c.html" target="_top" xlink:title=" ">
<polygon fill="white" stroke="#666666" points="1538,-200.5 1365,-200.5 1365,-181.5 1538,-181.5 1538,-200.5"/>
<text text-anchor="middle" x="1451.5" y="-188.5" font-family="Helvetica,sans-Serif" font-size="10.00">src/data/common_textures.inc.c</text>
</a>
</g>
</g>
<!-- Node1&#45;&gt;Node25 -->
<g id="edge29_Node000001_Node000025" class="edge">
<title>Node1&#45;&gt;Node25</title>
<g id="a_edge29_Node000001_Node000025"><a xlink:title=" ">
<path fill="none" stroke="#63b8ff" d="M960.28,-244.26C1052.57,-236.43 1213.18,-222.07 1350.5,-206 1364.3,-204.39 1379.14,-202.44 1393.07,-200.53"/>
<polygon fill="#63b8ff" stroke="#63b8ff" points="959.86,-240.78 950.19,-245.11 960.45,-247.76 959.86,-240.78"/>
</a>
</g>
</g>
<!-- Node26 -->
<g id="Node000026" class="node">
<title>Node26</title>
<g id="a_Node000026"><a xlink:href="path__spawn__data_8h.html" target="_top" xlink:title=" ">
<polygon fill="white" stroke="#666666" points="472,-206 355,-206 355,-176 472,-176 472,-206"/>
<text text-anchor="start" x="363" y="-194" font-family="Helvetica,sans-Serif" font-size="10.00">src/data/path_spawn</text>
<text text-anchor="middle" x="413.5" y="-183" font-family="Helvetica,sans-Serif" font-size="10.00">_data.h</text>
</a>
</g>
</g>
<!-- Node1&#45;&gt;Node26 -->
<g id="edge30_Node000001_Node000026" class="edge">
<title>Node1&#45;&gt;Node26</title>
<g id="a_edge30_Node000001_Node000026"><a xlink:title=" ">
<path fill="none" stroke="#63b8ff" d="M808.53,-241.06C714.79,-229.42 557.43,-209.88 472.36,-199.31"/>
<polygon fill="#63b8ff" stroke="#63b8ff" points="808.16,-244.54 818.51,-242.3 809.02,-237.6 808.16,-244.54"/>
</a>
</g>
</g>
<!-- Node28 -->
<g id="Node000028" class="node">
<title>Node28</title>
<g id="a_Node000028"><a xlink:href="skybox__and__splitscreen_8c.html" target="_top" xlink:title=" ">
<polygon fill="white" stroke="#666666" points="1681,-206 1556,-206 1556,-176 1681,-176 1681,-206"/>
<text text-anchor="start" x="1564" y="-194" font-family="Helvetica,sans-Serif" font-size="10.00">src/racing/skybox_and</text>
<text text-anchor="middle" x="1618.5" y="-183" font-family="Helvetica,sans-Serif" font-size="10.00">_splitscreen.c</text>
</a>
</g>
</g>
<!-- Node1&#45;&gt;Node28 -->
<g id="edge36_Node000001_Node000028" class="edge">
<title>Node1&#45;&gt;Node28</title>
<g id="a_edge36_Node000001_Node000028"><a xlink:title=" ">
<path fill="none" stroke="#63b8ff" d="M960.28,-248.56C1083.76,-244.69 1335.85,-233.85 1547.5,-206 1550.24,-205.64 1553.03,-205.24 1555.85,-204.8"/>
<polygon fill="#63b8ff" stroke="#63b8ff" points="960.06,-245.06 950.18,-248.87 960.28,-252.06 960.06,-245.06"/>
</a>
</g>
</g>
<!-- Node29 -->
<g id="Node000029" class="node">
<title>Node29</title>
<g id="a_Node000029"><a xlink:href="render__player_8c.html" target="_top" xlink:title=" ">
<polygon fill="white" stroke="#666666" points="1808,-200.5 1699,-200.5 1699,-181.5 1808,-181.5 1808,-200.5"/>
<text text-anchor="middle" x="1753.5" y="-188.5" font-family="Helvetica,sans-Serif" font-size="10.00">src/render_player.c</text>
</a>
</g>
</g>
<!-- Node1&#45;&gt;Node29 -->
<g id="edge38_Node000001_Node000029" class="edge">
<title>Node1&#45;&gt;Node29</title>
<g id="a_edge38_Node000001_Node000029"><a xlink:title=" ">
<path fill="none" stroke="#63b8ff" d="M960.15,-250.44C1103.38,-249.4 1423.75,-242.75 1690.5,-206 1700.16,-204.67 1710.53,-202.63 1720.01,-200.51"/>
<polygon fill="#63b8ff" stroke="#63b8ff" points="960.12,-246.94 950.14,-250.5 960.17,-253.93 960.12,-246.94"/>
</a>
</g>
</g>
<!-- Node3&#45;&gt;Node4 -->
<g id="edge3_Node000003_Node000004" class="edge">
<title>Node3&#45;&gt;Node4</title>
<g id="a_edge3_Node000003_Node000004"><a xlink:title=" ">
<path fill="none" stroke="#63b8ff" d="M232.29,-177.19C203.51,-164.58 160.35,-145.66 135.34,-134.7"/>
<polygon fill="#63b8ff" stroke="#63b8ff" points="231.25,-180.56 241.81,-181.37 234.06,-174.15 231.25,-180.56"/>
</a>
</g>
</g>
<!-- Node6&#45;&gt;Node4 -->
<g id="edge20_Node000006_Node000004" class="edge">
<title>Node6&#45;&gt;Node4</title>
<g id="a_edge20_Node000006_Node000004"><a xlink:title=" ">
<path fill="none" stroke="#63b8ff" d="M1100.45,-190.69C936.68,-191.35 520.37,-187.72 176.5,-140 167.14,-138.7 157.09,-136.67 147.91,-134.55"/>
<polygon fill="#63b8ff" stroke="#63b8ff" points="1100.88,-194.19 1110.87,-190.64 1100.85,-187.19 1100.88,-194.19"/>
</a>
</g>
</g>
<!-- Node6&#45;&gt;Node5 -->
<g id="edge8_Node000006_Node000005" class="edge">
<title>Node6&#45;&gt;Node5</title>
<g id="a_edge8_Node000006_Node000005"><a xlink:title=" ">
<path fill="none" stroke="#63b8ff" d="M1100.75,-188.17C971.22,-184.13 687.47,-172.12 450.5,-140 440.2,-138.6 429.14,-136.59 418.95,-134.53"/>
<polygon fill="#63b8ff" stroke="#63b8ff" points="1100.83,-191.67 1110.93,-188.48 1101.04,-184.67 1100.83,-191.67"/>
</a>
</g>
</g>
<!-- Node7 -->
<g id="Node000007" class="node">
<title>Node7</title>
<g id="a_Node000007"><a xlink:href="external_8c.html" target="_top" xlink:title=" ">
<polygon fill="white" stroke="#666666" points="1999,-134.5 1886,-134.5 1886,-115.5 1999,-115.5 1999,-134.5"/>
<text text-anchor="middle" x="1942.5" y="-122.5" font-family="Helvetica,sans-Serif" font-size="10.00">src/audio/external.c</text>
</a>
</g>
</g>
<!-- Node6&#45;&gt;Node7 -->
<g id="edge6_Node000006_Node000007" class="edge">
<title>Node6&#45;&gt;Node7</title>
<g id="a_edge6_Node000006_Node000007"><a xlink:title=" ">
<path fill="none" stroke="#63b8ff" d="M1221.74,-179.71C1229.98,-178.28 1238.46,-176.98 1246.5,-176 1525.35,-142.16 1599.14,-177.69 1877.5,-140 1887.34,-138.67 1897.9,-136.65 1907.59,-134.56"/>
<polygon fill="#63b8ff" stroke="#63b8ff" points="1221.06,-176.28 1211.83,-181.49 1222.3,-183.17 1221.06,-176.28"/>
</a>
</g>
</g>
<!-- Node8 -->
<g id="Node000008" class="node">
<title>Node8</title>
<g id="a_Node000008"><a xlink:href="camera_8c.html" target="_top" xlink:title=" ">
<polygon fill="white" stroke="#666666" points="2096,-134.5 2017,-134.5 2017,-115.5 2096,-115.5 2096,-134.5"/>
<text text-anchor="middle" x="2056.5" y="-122.5" font-family="Helvetica,sans-Serif" font-size="10.00">src/camera.c</text>
</a>
</g>
</g>
<!-- Node6&#45;&gt;Node8 -->
<g id="edge7_Node000006_Node000008" class="edge">
<title>Node6&#45;&gt;Node8</title>
<g id="a_edge7_Node000006_Node000008"><a xlink:title=" ">
<path fill="none" stroke="#63b8ff" d="M1221.44,-179.69C1229.78,-178.25 1238.36,-176.95 1246.5,-176 1583.27,-136.8 1674.09,-195.86 2008.5,-140 2016.03,-138.74 2024.06,-136.69 2031.35,-134.55"/>
<polygon fill="#63b8ff" stroke="#63b8ff" points="1220.66,-176.28 1211.44,-181.49 1221.9,-183.16 1220.66,-176.28"/>
</a>
</g>
</g>
<!-- Node6&#45;&gt;Node9 -->
<g id="edge9_Node000006_Node000009" class="edge">
<title>Node6&#45;&gt;Node9</title>
<g id="a_edge9_Node000006_Node000009"><a xlink:title=" ">
<path fill="none" stroke="#63b8ff" d="M1100.7,-186.63C990.53,-180.78 771.58,-166.73 587.5,-140 577.6,-138.56 566.97,-136.58 557.13,-134.57"/>
<polygon fill="#63b8ff" stroke="#63b8ff" points="1100.53,-190.13 1110.7,-187.15 1100.9,-183.14 1100.53,-190.13"/>
</a>
</g>
</g>
<!-- Node6&#45;&gt;Node10 -->
<g id="edge10_Node000006_Node000010" class="edge">
<title>Node6&#45;&gt;Node10</title>
<g id="a_edge10_Node000006_Node000010"><a xlink:title=" ">
<path fill="none" stroke="#63b8ff" d="M1100.72,-184.1C1012.36,-176.28 856.74,-160.96 724.5,-140 714.86,-138.47 704.51,-136.51 694.87,-134.54"/>
<polygon fill="#63b8ff" stroke="#63b8ff" points="1100.62,-187.61 1110.89,-185 1101.24,-180.63 1100.62,-187.61"/>
</a>
</g>
</g>
<!-- Node6&#45;&gt;Node11 -->
<g id="edge11_Node000006_Node000011" class="edge">
<title>Node6&#45;&gt;Node11</title>
<g id="a_edge11_Node000006_Node000011"><a xlink:title=" ">
<path fill="none" stroke="#63b8ff" d="M1104.28,-179.91C1041.6,-170.32 945.56,-155.14 862.5,-140 853.36,-138.33 843.57,-136.42 834.31,-134.56"/>
<polygon fill="#63b8ff" stroke="#63b8ff" points="1104.02,-183.41 1114.43,-181.46 1105.08,-176.49 1104.02,-183.41"/>
</a>
</g>
</g>
<!-- Node6&#45;&gt;Node12 -->
<g id="edge12_Node000006_Node000012" class="edge">
<title>Node6&#45;&gt;Node12</title>
<g id="a_edge12_Node000006_Node000012"><a xlink:title=" ">
<path fill="none" stroke="#63b8ff" d="M1130.51,-178.64C1085,-166.03 1012.57,-145.97 971.53,-134.6"/>
<polygon fill="#63b8ff" stroke="#63b8ff" points="1129.77,-182.07 1140.35,-181.37 1131.64,-175.33 1129.77,-182.07"/>
</a>
</g>
</g>
<!-- Node15 -->
<g id="Node000015" class="node">
<title>Node15</title>
<g id="a_Node000015"><a xlink:href="effects_8c.html" target="_top" xlink:title=" ">
<polygon fill="white" stroke="#666666" points="2189,-134.5 2114,-134.5 2114,-115.5 2189,-115.5 2189,-134.5"/>
<text text-anchor="middle" x="2151.5" y="-122.5" font-family="Helvetica,sans-Serif" font-size="10.00">src/effects.c</text>
</a>
</g>
</g>
<!-- Node6&#45;&gt;Node15 -->
<g id="edge15_Node000006_Node000015" class="edge">
<title>Node6&#45;&gt;Node15</title>
<g id="a_edge15_Node000006_Node000015"><a xlink:title=" ">
<path fill="none" stroke="#63b8ff" d="M1221.44,-179.65C1229.77,-178.22 1238.36,-176.93 1246.5,-176 1626.17,-132.83 1728.81,-204.14 2105.5,-140 2112.74,-138.77 2120.44,-136.73 2127.43,-134.58"/>
<polygon fill="#63b8ff" stroke="#63b8ff" points="1220.65,-176.24 1211.43,-181.45 1221.89,-183.13 1220.65,-176.24"/>
</a>
</g>
</g>
<!-- Node16 -->
<g id="Node000016" class="node">
<title>Node16</title>
<g id="a_Node000016"><a xlink:href="code__80281780_8c.html" target="_top" xlink:title=" ">
<polygon fill="white" stroke="#666666" points="1183,-134.5 1028,-134.5 1028,-115.5 1183,-115.5 1183,-134.5"/>
<text text-anchor="middle" x="1105.5" y="-122.5" font-family="Helvetica,sans-Serif" font-size="10.00">src/ending/code_80281780.c</text>
</a>
</g>
</g>
<!-- Node6&#45;&gt;Node16 -->
<g id="edge16_Node000006_Node000016" class="edge">
<title>Node6&#45;&gt;Node16</title>
<g id="a_edge16_Node000006_Node000016"><a xlink:title=" ">
<path fill="none" stroke="#63b8ff" d="M1155.34,-174.33C1142.56,-161.94 1125.18,-145.09 1114.68,-134.91"/>
<polygon fill="#63b8ff" stroke="#63b8ff" points="1152.98,-176.92 1162.6,-181.37 1157.86,-171.89 1152.98,-176.92"/>
</a>
</g>
</g>
<!-- Node6&#45;&gt;Node17 -->
<g id="edge17_Node000006_Node000017" class="edge">
<title>Node6&#45;&gt;Node17</title>
<g id="a_edge17_Node000006_Node000017"><a xlink:title=" ">
<path fill="none" stroke="#63b8ff" d="M1221.14,-179.67C1229.57,-178.23 1238.26,-176.92 1246.5,-176 1667.3,-129.03 1777.07,-180.97 2198.5,-140 2201.15,-139.74 2203.83,-139.46 2206.55,-139.15"/>
<polygon fill="#63b8ff" stroke="#63b8ff" points="1220.26,-176.28 1211.04,-181.5 1221.5,-183.17 1220.26,-176.28"/>
</a>
</g>
</g>
<!-- Node18 -->
<g id="Node000018" class="node">
<title>Node18</title>
<g id="a_Node000018"><a xlink:href="menus_8c.html" target="_top" xlink:title=" ">
<polygon fill="white" stroke="#666666" points="1276,-134.5 1201,-134.5 1201,-115.5 1276,-115.5 1276,-134.5"/>
<text text-anchor="middle" x="1238.5" y="-122.5" font-family="Helvetica,sans-Serif" font-size="10.00">src/menus.c</text>
</a>
</g>
</g>
<!-- Node6&#45;&gt;Node18 -->
<g id="edge18_Node000006_Node000018" class="edge">
<title>Node6&#45;&gt;Node18</title>
<g id="a_edge18_Node000006_Node000018"><a xlink:title=" ">
<path fill="none" stroke="#63b8ff" d="M1187.9,-174.33C1200.88,-161.94 1218.52,-145.09 1229.18,-134.91"/>
<polygon fill="#63b8ff" stroke="#63b8ff" points="1185.35,-171.93 1180.54,-181.37 1190.18,-176.99 1185.35,-171.93"/>
</a>
</g>
</g>
<!-- Node19 -->
<g id="Node000019" class="node">
<title>Node19</title>
<g id="a_Node000019"><a xlink:href="player__controller_8c.html" target="_top" xlink:title=" ">
<polygon fill="white" stroke="#666666" points="1417.5,-134.5 1293.5,-134.5 1293.5,-115.5 1417.5,-115.5 1417.5,-134.5"/>
<text text-anchor="middle" x="1355.5" y="-122.5" font-family="Helvetica,sans-Serif" font-size="10.00">src/player_controller.c</text>
</a>
</g>
</g>
<!-- Node6&#45;&gt;Node19 -->
<g id="edge19_Node000006_Node000019" class="edge">
<title>Node6&#45;&gt;Node19</title>
<g id="a_edge19_Node000006_Node000019"><a xlink:title=" ">
<path fill="none" stroke="#63b8ff" d="M1206,-178C1242.33,-165.36 1298.65,-145.78 1330.78,-134.6"/>
<polygon fill="#63b8ff" stroke="#63b8ff" points="1204.61,-174.78 1196.32,-181.37 1206.91,-181.39 1204.61,-174.78"/>
</a>
</g>
</g>
<!-- Node20 -->
<g id="Node000020" class="node">
<title>Node20</title>
<g id="a_Node000020"><a xlink:href="actors__extended_8c.html" target="_top" xlink:title=" ">
<polygon fill="white" stroke="#666666" points="1591.5,-134.5 1435.5,-134.5 1435.5,-115.5 1591.5,-115.5 1591.5,-134.5"/>
<text text-anchor="middle" x="1513.5" y="-122.5" font-family="Helvetica,sans-Serif" font-size="10.00">src/racing/actors_extended.c</text>
</a>
</g>
</g>
<!-- Node6&#45;&gt;Node20 -->
<g id="edge21_Node000006_Node000020" class="edge">
<title>Node6&#45;&gt;Node20</title>
<g id="a_edge21_Node000006_Node000020"><a xlink:title=" ">
<path fill="none" stroke="#63b8ff" d="M1227.24,-179.57C1294.37,-167.01 1405.82,-146.15 1468,-134.51"/>
<polygon fill="#63b8ff" stroke="#63b8ff" points="1226.45,-176.16 1217.27,-181.44 1227.74,-183.04 1226.45,-176.16"/>
</a>
</g>
</g>
<!-- Node21 -->
<g id="Node000021" class="node">
<title>Node21</title>
<g id="a_Node000021"><a xlink:href="race__logic_8c.html" target="_top" xlink:title=" ">
<polygon fill="white" stroke="#666666" points="1735,-134.5 1610,-134.5 1610,-115.5 1735,-115.5 1735,-134.5"/>
<text text-anchor="middle" x="1672.5" y="-122.5" font-family="Helvetica,sans-Serif" font-size="10.00">src/racing/race_logic.c</text>
</a>
</g>
</g>
<!-- Node6&#45;&gt;Node21 -->
<g id="edge22_Node000006_Node000021" class="edge">
<title>Node6&#45;&gt;Node21</title>
<g id="a_edge22_Node000006_Node000021"><a xlink:title=" ">
<path fill="none" stroke="#63b8ff" d="M1223.73,-179.67C1231.35,-178.34 1239.12,-177.06 1246.5,-176 1403.03,-153.47 1444.05,-163.12 1600.5,-140 1610.7,-138.49 1621.66,-136.54 1631.87,-134.57"/>
<polygon fill="#63b8ff" stroke="#63b8ff" points="1223.06,-176.24 1213.84,-181.46 1224.3,-183.13 1223.06,-176.24"/>
</a>
</g>
</g>
<!-- Node6&#45;&gt;Node22 -->
<g id="edge23_Node000006_Node000022" class="edge">
<title>Node6&#45;&gt;Node22</title>
<g id="a_edge23_Node000006_Node000022"><a xlink:title=" ">
<path fill="none" stroke="#63b8ff" d="M1242.16,-180.25C1256.17,-178.6 1270.78,-177.07 1284.5,-176 1769.06,-138.08 1895.01,-198.66 2377.5,-140 2387.73,-138.76 2398.73,-136.71 2408.75,-134.57"/>
<polygon fill="#63b8ff" stroke="#63b8ff" points="1241.6,-176.79 1232.09,-181.47 1242.44,-183.74 1241.6,-176.79"/>
</a>
</g>
</g>
<!-- Node23 -->
<g id="Node000023" class="node">
<title>Node23</title>
<g id="a_Node000023"><a xlink:href="spawn__players_8c.html" target="_top" xlink:title=" ">
<polygon fill="white" stroke="#666666" points="1868,-134.5 1753,-134.5 1753,-115.5 1868,-115.5 1868,-134.5"/>
<text text-anchor="middle" x="1810.5" y="-122.5" font-family="Helvetica,sans-Serif" font-size="10.00">src/spawn_players.c</text>
</a>
</g>
</g>
<!-- Node6&#45;&gt;Node23 -->
<g id="edge24_Node000006_Node000023" class="edge">
<title>Node6&#45;&gt;Node23</title>
<g id="a_edge24_Node000006_Node000023"><a xlink:title=" ">
<path fill="none" stroke="#63b8ff" d="M1222.59,-179.67C1230.57,-178.29 1238.74,-177 1246.5,-176 1466.59,-147.6 1524.78,-171.1 1744.5,-140 1754.36,-138.6 1764.95,-136.59 1774.69,-134.53"/>
<polygon fill="#63b8ff" stroke="#63b8ff" points="1221.85,-176.25 1212.63,-181.46 1223.09,-183.14 1221.85,-176.25"/>
</a>
</g>
</g>
<!-- Node6&#45;&gt;Node24 -->
<g id="edge25_Node000006_Node000024" class="edge">
<title>Node6&#45;&gt;Node24</title>
<g id="a_edge25_Node000006_Node000024"><a xlink:title=" ">
<path fill="none" stroke="#63b8ff" d="M1242.29,-182.52C1267.57,-180.09 1296.29,-177.61 1322.5,-176 1849.3,-143.62 1985.38,-202.22 2509.5,-140 2520,-138.75 2531.3,-136.68 2541.57,-134.51"/>
<polygon fill="#63b8ff" stroke="#63b8ff" points="1241.66,-179.07 1232.05,-183.52 1242.34,-186.03 1241.66,-179.07"/>
</a>
</g>
</g>
<!-- Node13 -->
<g id="Node000013" class="node">
<title>Node13</title>
<g id="a_Node000013"><a xlink:href="debug_8inc_8c.html" target="_top" xlink:title=" ">
<polygon fill="white" stroke="#666666" points="1001.5,-74 879.5,-74 879.5,-55 1001.5,-55 1001.5,-74"/>
<text text-anchor="middle" x="940.5" y="-62" font-family="Helvetica,sans-Serif" font-size="10.00">src/debug/debug.inc.c</text>
</a>
</g>
</g>
<!-- Node12&#45;&gt;Node13 -->
<g id="edge13_Node000012_Node000013" class="edge">
<title>Node12&#45;&gt;Node13</title>
<g id="a_edge13_Node000012_Node000013"><a xlink:title=" ">
<path fill="none" stroke="#63b8ff" d="M940.5,-105.16C940.5,-94.74 940.5,-82.3 940.5,-74.17"/>
<polygon fill="#63b8ff" stroke="#63b8ff" points="937,-105.37 940.5,-115.37 944,-105.37 937,-105.37"/>
</a>
</g>
</g>
<!-- Node14 -->
<g id="Node000014" class="node">
<title>Node14</title>
<g id="a_Node000014"><a xlink:href="debug_8c.html" target="_top" xlink:title=" ">
<polygon fill="white" stroke="#666666" points="993,-19 888,-19 888,0 993,0 993,-19"/>
<text text-anchor="middle" x="940.5" y="-7" font-family="Helvetica,sans-Serif" font-size="10.00">src/debug/debug.c</text>
</a>
</g>
</g>
<!-- Node13&#45;&gt;Node14 -->
<g id="edge14_Node000013_Node000014" class="edge">
<title>Node13&#45;&gt;Node14</title>
<g id="a_edge14_Node000013_Node000014"><a xlink:title=" ">
<path fill="none" stroke="#63b8ff" d="M940.5,-44.66C940.5,-35.93 940.5,-25.99 940.5,-19.09"/>
<polygon fill="#63b8ff" stroke="#63b8ff" points="937,-44.75 940.5,-54.75 944,-44.75 937,-44.75"/>
</a>
</g>
</g>
<!-- Node26&#45;&gt;Node5 -->
<g id="edge31_Node000026_Node000005" class="edge">
<title>Node26&#45;&gt;Node5</title>
<g id="a_edge31_Node000026_Node000005"><a xlink:title=" ">
<path fill="none" stroke="#63b8ff" d="M401.81,-166.61C396.28,-155.56 390.01,-143.03 385.92,-134.84"/>
<polygon fill="#63b8ff" stroke="#63b8ff" points="398.8,-168.42 406.4,-175.8 405.06,-165.29 398.8,-168.42"/>
</a>
</g>
</g>
<!-- Node27 -->
<g id="Node000027" class="node">
<title>Node27</title>
<g id="a_Node000027"><a xlink:href="path__spawn__data_8c.html" target="_top" xlink:title=" ">
<polygon fill="white" stroke="#666666" points="303,-140 186,-140 186,-110 303,-110 303,-140"/>
<text text-anchor="start" x="194" y="-128" font-family="Helvetica,sans-Serif" font-size="10.00">src/data/path_spawn</text>
<text text-anchor="middle" x="244.5" y="-117" font-family="Helvetica,sans-Serif" font-size="10.00">_data.c</text>
</a>
</g>
</g>
<!-- Node26&#45;&gt;Node27 -->
<g id="edge32_Node000026_Node000027" class="edge">
<title>Node26&#45;&gt;Node27</title>
<g id="a_edge32_Node000026_Node000027"><a xlink:title=" ">
<path fill="none" stroke="#63b8ff" d="M366.82,-172.32C339.92,-162.14 306.58,-149.51 281.5,-140.01"/>
<polygon fill="#63b8ff" stroke="#63b8ff" points="365.82,-175.69 376.41,-175.95 368.3,-169.14 365.82,-175.69"/>
</a>
</g>
</g>
</g>
</svg>

<g id="navigator" transform="translate(0 0)" fill="#404254">
  <rect fill="#f2f5e9" fill-opacity="0.5" stroke="#606060" stroke-width=".5" x="0" y="0" width="60" height="60"/>
  <use id="zoomplus" xlink:href="#zoomPlus" x="17" y="9" onmousedown="handleZoom(evt,'in')"/>
  <use id="zoomminus" xlink:href="#zoomMin" x="42" y="9" onmousedown="handleZoom(evt,'out')"/>
  <use id="reset" xlink:href="#resetDef" x="30" y="36" onmousedown="handleReset()"/>
   <use id="arrowup" xlink:href="#arrowUp" x="0" y="0" onmousedown="handlePan(0,-1)"/>
  <use id="arrowright" xlink:href="#arrowRight" x="0" y="0" onmousedown="handlePan(1,0)"/>
  <use id="arrowdown" xlink:href="#arrowDown" x="0" y="0" onmousedown="handlePan(0,1)"/>
  <use id="arrowleft" xlink:href="#arrowLeft" x="0" y="0" onmousedown="handlePan(-1,0)"/>
</g>
<svg viewBox="0 0 15 15" width="100%" height="30px" preserveAspectRatio="xMaxYMin meet">
 <g id="arrow_out" transform="scale(0.3 0.3)">
  <a xlink:href="common__textures_8h__dep__incl_org.svg" target="_base">
   <rect id="button" ry="5" rx="5" y="6" x="6" height="38" width="38"
        fill="#f2f5e9" fill-opacity="0.5" stroke="#606060" stroke-width="1.0"/>
   <path id="arrow"
     d="M 11.500037,31.436501 C 11.940474,20.09759 22.043105,11.32322 32.158766,21.979434 L 37.068811,17.246167 C 37.068811,17.246167 37.088388,32 37.088388,32 L 22.160133,31.978069 C 22.160133,31.978069 26.997745,27.140456 26.997745,27.140456 C 18.528582,18.264221 13.291696,25.230495 11.500037,31.436501 z"
     style="fill:#404040;"/>
  </a>
 </g>
</svg>

<style type='text/css'>
<![CDATA[
[data-mouse-over-selected='false'] { opacity: 0.7; }
[data-mouse-over-selected='true']  { opacity: 1.0; }
]]>
</style>
<script type="application/ecmascript"><![CDATA[
document.addEventListener('DOMContentLoaded', (event) => {
  highlightEdges();
  highlightAdjacentNodes();
});
]]></script>
</svg>
