<?xml version="1.0" encoding="UTF-8" standalone="no"?>
<!DOCTYPE svg PUBLIC "-//W3C//DTD SVG 1.1//EN"
 "http://www.w3.org/Graphics/SVG/1.1/DTD/svg11.dtd">
<!-- Generated by graphviz version 2.43.0 (0)
 -->
<!-- Title: src/common_textures.h Pages: 1 -->
<svg width="2638pt" height="269pt"
 viewBox="0.00 0.00 2637.50 269.00" xmlns="http://www.w3.org/2000/svg" xmlns:xlink="http://www.w3.org/1999/xlink">
<g id="graph0" class="graph" transform="scale(1 1) rotate(0) translate(4 265)">
<title>src/common_textures.h</title>
<!-- Node1 -->
<g id="Node000001" class="node">
<title>Node1</title>
<g id="a_Node000001"><a xlink:title=" ">
<polygon fill="#999999" stroke="#666666" points="945,-261 814,-261 814,-242 945,-242 945,-261"/>
<text text-anchor="middle" x="879.5" y="-249" font-family="Helvetica,sans-Serif" font-size="10.00">src/common_textures.h</text>
</a>
</g>
</g>
<!-- Node2 -->
<g id="Node000002" class="node">
<title>Node2</title>
<g id="a_Node000002"><a xlink:href="toads__turnpike_2course__offsets_8inc_8c.html" target="_top" xlink:title=" ">
<polygon fill="white" stroke="#666666" points="129,-206 0,-206 0,-176 129,-176 129,-206"/>
<text text-anchor="start" x="8" y="-194" font-family="Helvetica,sans-Serif" font-size="10.00">courses/toads_turnpike</text>
<text text-anchor="middle" x="64.5" y="-183" font-family="Helvetica,sans-Serif" font-size="10.00">/course_offsets.inc.c</text>
</a>
</g>
</g>
<!-- Node1&#45;&gt;Node2 -->
<g id="edge1_Node000001_Node000002" class="edge">
<title>Node1&#45;&gt;Node2</title>
<g id="a_edge1_Node000001_Node000002"><a xlink:title=" ">
<path fill="none" stroke="#63b8ff" d="M803.66,-248.79C669.91,-245.13 383.55,-234.43 143.5,-206 138.8,-205.44 133.95,-204.79 129.08,-204.07"/>
<polygon fill="#63b8ff" stroke="#63b8ff" points="803.71,-252.29 813.8,-249.06 803.9,-245.29 803.71,-252.29"/>
</a>
</g>
</g>
<!-- Node3 -->
<g id="Node000003" class="node">
<title>Node3</title>
<g id="a_Node000003"><a xlink:href="tree_2render_8inc_8c.html" target="_top" xlink:title=" ">
<polygon fill="white" stroke="#666666" points="331.5,-200.5 185.5,-200.5 185.5,-181.5 331.5,-181.5 331.5,-200.5"/>
<text text-anchor="middle" x="258.5" y="-188.5" font-family="Helvetica,sans-Serif" font-size="10.00">src/actors/tree/render.inc.c</text>
</a>
</g>
</g>
<!-- Node1&#45;&gt;Node3 -->
<g id="edge2_Node000001_Node000003" class="edge">
<title>Node1&#45;&gt;Node3</title>
<g id="a_edge2_Node000001_Node000003"><a xlink:title=" ">
<path fill="none" stroke="#63b8ff" d="M803.62,-246.32C699.09,-240.08 505.03,-226.8 340.5,-206 328.75,-204.51 316.12,-202.54 304.37,-200.55"/>
<polygon fill="#63b8ff" stroke="#63b8ff" points="803.57,-249.82 813.76,-246.92 803.99,-242.83 803.57,-249.82"/>
</a>
</g>
</g>
<!-- Node4 -->
<g id="Node000004" class="node">
<title>Node4</title>
<g id="a_Node000004"><a xlink:href="actors_8c.html" target="_top" xlink:title=" ">
<polygon fill="white" stroke="#666666" points="163,-134.5 58,-134.5 58,-115.5 163,-115.5 163,-134.5"/>
<text text-anchor="middle" x="110.5" y="-122.5" font-family="Helvetica,sans-Serif" font-size="10.00">src/racing/actors.c</text>
</a>
</g>
</g>
<!-- Node1&#45;&gt;Node4 -->
<g id="edge35_Node000001_Node000004" class="edge">
<title>Node1&#45;&gt;Node4</title>
<g id="a_edge35_Node000001_Node000004"><a xlink:title=" ">
<path fill="none" stroke="#63b8ff" d="M803.72,-249.09C633.47,-245.44 231.24,-233.95 176.5,-206 145.23,-190.03 123.3,-151.97 114.63,-134.74"/>
<polygon fill="#63b8ff" stroke="#63b8ff" points="803.79,-252.59 813.86,-249.31 803.94,-245.59 803.79,-252.59"/>
</a>
</g>
</g>
<!-- Node5 -->
<g id="Node000005" class="node">
<title>Node5</title>
<g id="a_Node000005"><a xlink:href="code__80005FD0_8c.html" target="_top" xlink:title=" ">
<polygon fill="white" stroke="#666666" points="436.5,-134.5 316.5,-134.5 316.5,-115.5 436.5,-115.5 436.5,-134.5"/>
<text text-anchor="middle" x="376.5" y="-122.5" font-family="Helvetica,sans-Serif" font-size="10.00">src/code_80005FD0.c</text>
</a>
</g>
</g>
<!-- Node1&#45;&gt;Node5 -->
<g id="edge4_Node000001_Node000005" class="edge">
<title>Node1&#45;&gt;Node5</title>
<g id="a_edge4_Node000001_Node000005"><a xlink:title=" ">
<path fill="none" stroke="#63b8ff" d="M821.06,-240.18C775.9,-231.89 711.97,-219.44 656.5,-206 562.9,-183.33 453.55,-150.1 403.73,-134.58"/>
<polygon fill="#63b8ff" stroke="#63b8ff" points="820.5,-243.64 830.97,-241.99 821.76,-236.75 820.5,-243.64"/>
</a>
</g>
</g>
<!-- Node6 -->
<g id="Node000006" class="node">
<title>Node6</title>
<g id="a_Node000006"><a xlink:href="code__80005FD0_8h.html" target="_top" xlink:title=" ">
<polygon fill="white" stroke="#666666" points="1227,-200.5 1106,-200.5 1106,-181.5 1227,-181.5 1227,-200.5"/>
<text text-anchor="middle" x="1166.5" y="-188.5" font-family="Helvetica,sans-Serif" font-size="10.00">src/code_80005FD0.h</text>
</a>
</g>
</g>
<!-- Node1&#45;&gt;Node6 -->
<g id="edge5_Node000001_Node000006" class="edge">
<title>Node1&#45;&gt;Node6</title>
<g id="a_edge5_Node000001_Node000006"><a xlink:title=" ">
<path fill="none" stroke="#63b8ff" d="M931.2,-239.96C986.6,-228.67 1073.47,-210.96 1124.72,-200.52"/>
<polygon fill="#63b8ff" stroke="#63b8ff" points="930.33,-236.57 921.23,-241.99 931.73,-243.43 930.33,-236.57"/>
</a>
</g>
</g>
<!-- Node9 -->
<g id="Node000009" class="node">
<title>Node9</title>
<g id="a_Node000009"><a xlink:href="code__80057C60_8c.html" target="_top" xlink:title=" ">
<polygon fill="white" stroke="#666666" points="574,-134.5 455,-134.5 455,-115.5 574,-115.5 574,-134.5"/>
<text text-anchor="middle" x="514.5" y="-122.5" font-family="Helvetica,sans-Serif" font-size="10.00">src/code_80057C60.c</text>
</a>
</g>
</g>
<!-- Node1&#45;&gt;Node9 -->
<g id="edge26_Node000001_Node000009" class="edge">
<title>Node1&#45;&gt;Node9</title>
<g id="a_edge26_Node000001_Node000009"><a xlink:title=" ">
<path fill="none" stroke="#63b8ff" d="M842.48,-238.86C814.64,-230.03 775.6,-217.5 741.5,-206 666.87,-180.82 579.07,-149.35 537.96,-134.5"/>
<polygon fill="#63b8ff" stroke="#63b8ff" points="841.61,-242.25 852.2,-241.93 843.72,-235.58 841.61,-242.25"/>
</a>
</g>
</g>
<!-- Node10 -->
<g id="Node000010" class="node">
<title>Node10</title>
<g id="a_Node000010"><a xlink:href="code__8006E9C0_8c.html" target="_top" xlink:title=" ">
<polygon fill="white" stroke="#666666" points="711,-134.5 592,-134.5 592,-115.5 711,-115.5 711,-134.5"/>
<text text-anchor="middle" x="651.5" y="-122.5" font-family="Helvetica,sans-Serif" font-size="10.00">src/code_8006E9C0.c</text>
</a>
</g>
</g>
<!-- Node1&#45;&gt;Node10 -->
<g id="edge27_Node000001_Node000010" class="edge">
<title>Node1&#45;&gt;Node10</title>
<g id="a_edge27_Node000001_Node000010"><a xlink:title=" ">
<path fill="none" stroke="#63b8ff" d="M854.92,-237.08C807.89,-211.4 706.37,-155.96 667.28,-134.62"/>
<polygon fill="#63b8ff" stroke="#63b8ff" points="853.37,-240.22 863.83,-241.94 856.73,-234.08 853.37,-240.22"/>
</a>
</g>
</g>
<!-- Node11 -->
<g id="Node000011" class="node">
<title>Node11</title>
<g id="a_Node000011"><a xlink:href="code__80091750_8c.html" target="_top" xlink:title=" ">
<polygon fill="white" stroke="#666666" points="848,-134.5 729,-134.5 729,-115.5 848,-115.5 848,-134.5"/>
<text text-anchor="middle" x="788.5" y="-122.5" font-family="Helvetica,sans-Serif" font-size="10.00">src/code_80091750.c</text>
</a>
</g>
</g>
<!-- Node1&#45;&gt;Node11 -->
<g id="edge28_Node000001_Node000011" class="edge">
<title>Node1&#45;&gt;Node11</title>
<g id="a_edge28_Node000001_Node000011"><a xlink:title=" ">
<path fill="none" stroke="#63b8ff" d="M867.1,-233.54C847.41,-206.6 809.71,-155.02 794.8,-134.62"/>
<polygon fill="#63b8ff" stroke="#63b8ff" points="864.52,-235.93 873.25,-241.94 870.17,-231.8 864.52,-235.93"/>
</a>
</g>
</g>
<!-- Node12 -->
<g id="Node000012" class="node">
<title>Node12</title>
<g id="a_Node000012"><a xlink:href="all__variables_8h.html" target="_top" xlink:title=" ">
<polygon fill="white" stroke="#666666" points="1004.5,-134.5 866.5,-134.5 866.5,-115.5 1004.5,-115.5 1004.5,-134.5"/>
<text text-anchor="middle" x="935.5" y="-122.5" font-family="Helvetica,sans-Serif" font-size="10.00">src/debug/all_variables.h</text>
</a>
</g>
</g>
<!-- Node1&#45;&gt;Node12 -->
<g id="edge33_Node000001_Node000012" class="edge">
<title>Node1&#45;&gt;Node12</title>
<g id="a_edge33_Node000001_Node000012"><a xlink:title=" ">
<path fill="none" stroke="#63b8ff" d="M887.61,-232.46C899.85,-205.26 922.57,-154.76 931.62,-134.62"/>
<polygon fill="#63b8ff" stroke="#63b8ff" points="884.26,-231.39 883.35,-241.94 890.64,-234.26 884.26,-231.39"/>
</a>
</g>
</g>
<!-- Node17 -->
<g id="Node000017" class="node">
<title>Node17</title>
<g id="a_Node000017"><a xlink:href="podium__ceremony__actors_8c.html" target="_top" xlink:title=" ">
<polygon fill="white" stroke="#666666" points="2363,-140 2202,-140 2202,-110 2363,-110 2363,-140"/>
<text text-anchor="start" x="2210" y="-128" font-family="Helvetica,sans-Serif" font-size="10.00">src/ending/podium_ceremony</text>
<text text-anchor="middle" x="2282.5" y="-117" font-family="Helvetica,sans-Serif" font-size="10.00">_actors.c</text>
</a>
</g>
</g>
<!-- Node1&#45;&gt;Node17 -->
<g id="edge34_Node000001_Node000017" class="edge">
<title>Node1&#45;&gt;Node17</title>
<g id="a_edge34_Node000001_Node000017"><a xlink:title=" ">
<path fill="none" stroke="#63b8ff" d="M955.21,-245.23C1044.12,-238.31 1185.78,-224.79 1235.5,-206 1257.64,-197.63 1257.02,-183.42 1279.5,-176 1472.52,-112.27 1991.2,-159.83 2193.5,-140 2196.15,-139.74 2198.83,-139.45 2201.54,-139.14"/>
<polygon fill="#63b8ff" stroke="#63b8ff" points="954.88,-241.74 945.18,-246 955.42,-248.72 954.88,-241.74"/>
</a>
</g>
</g>
<!-- Node22 -->
<g id="Node000022" class="node">
<title>Node22</title>
<g id="a_Node000022"><a xlink:href="render__objects_8c.html" target="_top" xlink:title=" ">
<polygon fill="white" stroke="#666666" points="2495.5,-134.5 2381.5,-134.5 2381.5,-115.5 2495.5,-115.5 2495.5,-134.5"/>
<text text-anchor="middle" x="2438.5" y="-122.5" font-family="Helvetica,sans-Serif" font-size="10.00">src/render_objects.c</text>
</a>
</g>
</g>
<!-- Node1&#45;&gt;Node22 -->
<g id="edge37_Node000001_Node000022" class="edge">
<title>Node1&#45;&gt;Node22</title>
<g id="a_edge37_Node000001_Node000022"><a xlink:title=" ">
<path fill="none" stroke="#63b8ff" d="M955.37,-246.06C1052.53,-239.65 1215.09,-226.3 1271.5,-206 1294.47,-197.73 1294.23,-183.35 1317.5,-176 1541.18,-105.33 2139.65,-168.45 2372.5,-140 2382.73,-138.75 2393.73,-136.71 2403.75,-134.56"/>
<polygon fill="#63b8ff" stroke="#63b8ff" points="955.06,-242.57 945.31,-246.71 955.51,-249.55 955.06,-242.57"/>
</a>
</g>
</g>
<!-- Node24 -->
<g id="Node000024" class="node">
<title>Node24</title>
<g id="a_Node000024"><a xlink:href="update__objects_8c.html" target="_top" xlink:title=" ">
<polygon fill="white" stroke="#666666" points="2629.5,-134.5 2513.5,-134.5 2513.5,-115.5 2629.5,-115.5 2629.5,-134.5"/>
<text text-anchor="middle" x="2571.5" y="-122.5" font-family="Helvetica,sans-Serif" font-size="10.00">src/update_objects.c</text>
</a>
</g>
</g>
<!-- Node1&#45;&gt;Node24 -->
<g id="edge39_Node000001_Node000024" class="edge">
<title>Node1&#45;&gt;Node24</title>
<g id="a_edge39_Node000001_Node000024"><a xlink:title=" ">
<path fill="none" stroke="#63b8ff" d="M955.47,-247.19C1060.9,-241.82 1245.68,-229.38 1308.5,-206 1330.34,-197.87 1329.38,-183.33 1351.5,-176 1473.16,-135.66 2377.23,-155.17 2504.5,-140 2515,-138.75 2526.3,-136.68 2536.57,-134.5"/>
<polygon fill="#63b8ff" stroke="#63b8ff" points="955.02,-243.71 945.21,-247.7 955.37,-250.7 955.02,-243.71"/>
</a>
</g>
</g>
<!-- Node25 -->
<g id="Node000025" class="node">
<title>Node25</title>
<g id="a_Node000025"><a xlink:href="common__textures_8inc_8c.html" target="_top" xlink:title=" ">
<polygon fill="white" stroke="#666666" points="1533,-200.5 1360,-200.5 1360,-181.5 1533,-181.5 1533,-200.5"/>
<text text-anchor="middle" x="1446.5" y="-188.5" font-family="Helvetica,sans-Serif" font-size="10.00">src/data/common_textures.inc.c</text>
</a>
</g>
</g>
<!-- Node1&#45;&gt;Node25 -->
<g id="edge29_Node000001_Node000025" class="edge">
<title>Node1&#45;&gt;Node25</title>
<g id="a_edge29_Node000001_Node000025"><a xlink:title=" ">
<path fill="none" stroke="#63b8ff" d="M955.28,-244.26C1047.57,-236.43 1208.18,-222.07 1345.5,-206 1359.3,-204.39 1374.14,-202.44 1388.07,-200.53"/>
<polygon fill="#63b8ff" stroke="#63b8ff" points="954.86,-240.78 945.19,-245.11 955.45,-247.76 954.86,-240.78"/>
</a>
</g>
</g>
<!-- Node26 -->
<g id="Node000026" class="node">
<title>Node26</title>
<g id="a_Node000026"><a xlink:href="path__spawn__data_8h.html" target="_top" xlink:title=" ">
<polygon fill="white" stroke="#666666" points="467,-206 350,-206 350,-176 467,-176 467,-206"/>
<text text-anchor="start" x="358" y="-194" font-family="Helvetica,sans-Serif" font-size="10.00">src/data/path_spawn</text>
<text text-anchor="middle" x="408.5" y="-183" font-family="Helvetica,sans-Serif" font-size="10.00">_data.h</text>
</a>
</g>
</g>
<!-- Node1&#45;&gt;Node26 -->
<g id="edge30_Node000001_Node000026" class="edge">
<title>Node1&#45;&gt;Node26</title>
<g id="a_edge30_Node000001_Node000026"><a xlink:title=" ">
<path fill="none" stroke="#63b8ff" d="M803.53,-241.06C709.79,-229.42 552.43,-209.88 467.36,-199.31"/>
<polygon fill="#63b8ff" stroke="#63b8ff" points="803.16,-244.54 813.51,-242.3 804.02,-237.6 803.16,-244.54"/>
</a>
</g>
</g>
<!-- Node28 -->
<g id="Node000028" class="node">
<title>Node28</title>
<g id="a_Node000028"><a xlink:href="skybox__and__splitscreen_8c.html" target="_top" xlink:title=" ">
<polygon fill="white" stroke="#666666" points="1676,-206 1551,-206 1551,-176 1676,-176 1676,-206"/>
<text text-anchor="start" x="1559" y="-194" font-family="Helvetica,sans-Serif" font-size="10.00">src/racing/skybox_and</text>
<text text-anchor="middle" x="1613.5" y="-183" font-family="Helvetica,sans-Serif" font-size="10.00">_splitscreen.c</text>
</a>
</g>
</g>
<!-- Node1&#45;&gt;Node28 -->
<g id="edge36_Node000001_Node000028" class="edge">
<title>Node1&#45;&gt;Node28</title>
<g id="a_edge36_Node000001_Node000028"><a xlink:title=" ">
<path fill="none" stroke="#63b8ff" d="M955.28,-248.56C1078.76,-244.69 1330.85,-233.85 1542.5,-206 1545.24,-205.64 1548.03,-205.24 1550.85,-204.8"/>
<polygon fill="#63b8ff" stroke="#63b8ff" points="955.06,-245.06 945.18,-248.87 955.28,-252.06 955.06,-245.06"/>
</a>
</g>
</g>
<!-- Node29 -->
<g id="Node000029" class="node">
<title>Node29</title>
<g id="a_Node000029"><a xlink:href="render__player_8c.html" target="_top" xlink:title=" ">
<polygon fill="white" stroke="#666666" points="1803,-200.5 1694,-200.5 1694,-181.5 1803,-181.5 1803,-200.5"/>
<text text-anchor="middle" x="1748.5" y="-188.5" font-family="Helvetica,sans-Serif" font-size="10.00">src/render_player.c</text>
</a>
</g>
</g>
<!-- Node1&#45;&gt;Node29 -->
<g id="edge38_Node000001_Node000029" class="edge">
<title>Node1&#45;&gt;Node29</title>
<g id="a_edge38_Node000001_Node000029"><a xlink:title=" ">
<path fill="none" stroke="#63b8ff" d="M955.15,-250.44C1098.38,-249.4 1418.75,-242.75 1685.5,-206 1695.16,-204.67 1705.53,-202.63 1715.01,-200.51"/>
<polygon fill="#63b8ff" stroke="#63b8ff" points="955.12,-246.94 945.14,-250.5 955.17,-253.93 955.12,-246.94"/>
</a>
</g>
</g>
<!-- Node3&#45;&gt;Node4 -->
<g id="edge3_Node000003_Node000004" class="edge">
<title>Node3&#45;&gt;Node4</title>
<g id="a_edge3_Node000003_Node000004"><a xlink:title=" ">
<path fill="none" stroke="#63b8ff" d="M229.27,-177.36C200.1,-164.75 156.07,-145.71 130.62,-134.7"/>
<polygon fill="#63b8ff" stroke="#63b8ff" points="227.97,-180.61 238.54,-181.37 230.75,-174.19 227.97,-180.61"/>
</a>
</g>
</g>
<!-- Node6&#45;&gt;Node4 -->
<g id="edge20_Node000006_Node000004" class="edge">
<title>Node6&#45;&gt;Node4</title>
<g id="a_edge20_Node000006_Node000004"><a xlink:title=" ">
<path fill="none" stroke="#63b8ff" d="M1095.45,-190.69C931.68,-191.35 515.37,-187.72 171.5,-140 162.14,-138.7 152.09,-136.67 142.91,-134.55"/>
<polygon fill="#63b8ff" stroke="#63b8ff" points="1095.88,-194.19 1105.87,-190.64 1095.85,-187.19 1095.88,-194.19"/>
</a>
</g>
</g>
<!-- Node6&#45;&gt;Node5 -->
<g id="edge8_Node000006_Node000005" class="edge">
<title>Node6&#45;&gt;Node5</title>
<g id="a_edge8_Node000006_Node000005"><a xlink:title=" ">
<path fill="none" stroke="#63b8ff" d="M1095.75,-188.17C966.22,-184.13 682.47,-172.12 445.5,-140 435.2,-138.6 424.14,-136.59 413.95,-134.53"/>
<polygon fill="#63b8ff" stroke="#63b8ff" points="1095.83,-191.67 1105.93,-188.48 1096.04,-184.67 1095.83,-191.67"/>
</a>
</g>
</g>
<!-- Node7 -->
<g id="Node000007" class="node">
<title>Node7</title>
<g id="a_Node000007"><a xlink:href="external_8c.html" target="_top" xlink:title=" ">
<polygon fill="white" stroke="#666666" points="1994,-134.5 1881,-134.5 1881,-115.5 1994,-115.5 1994,-134.5"/>
<text text-anchor="middle" x="1937.5" y="-122.5" font-family="Helvetica,sans-Serif" font-size="10.00">src/audio/external.c</text>
</a>
</g>
</g>
<!-- Node6&#45;&gt;Node7 -->
<g id="edge6_Node000006_Node000007" class="edge">
<title>Node6&#45;&gt;Node7</title>
<g id="a_edge6_Node000006_Node000007"><a xlink:title=" ">
<path fill="none" stroke="#63b8ff" d="M1216.74,-179.71C1224.98,-178.28 1233.46,-176.98 1241.5,-176 1520.35,-142.16 1594.14,-177.69 1872.5,-140 1882.34,-138.67 1892.9,-136.65 1902.59,-134.56"/>
<polygon fill="#63b8ff" stroke="#63b8ff" points="1216.06,-176.28 1206.83,-181.49 1217.3,-183.17 1216.06,-176.28"/>
</a>
</g>
</g>
<!-- Node8 -->
<g id="Node000008" class="node">
<title>Node8</title>
<g id="a_Node000008"><a xlink:href="camera_8c.html" target="_top" xlink:title=" ">
<polygon fill="white" stroke="#666666" points="2091,-134.5 2012,-134.5 2012,-115.5 2091,-115.5 2091,-134.5"/>
<text text-anchor="middle" x="2051.5" y="-122.5" font-family="Helvetica,sans-Serif" font-size="10.00">src/camera.c</text>
</a>
</g>
</g>
<!-- Node6&#45;&gt;Node8 -->
<g id="edge7_Node000006_Node000008" class="edge">
<title>Node6&#45;&gt;Node8</title>
<g id="a_edge7_Node000006_Node000008"><a xlink:title=" ">
<path fill="none" stroke="#63b8ff" d="M1216.44,-179.69C1224.78,-178.25 1233.36,-176.95 1241.5,-176 1578.27,-136.8 1669.09,-195.86 2003.5,-140 2011.03,-138.74 2019.06,-136.69 2026.35,-134.55"/>
<polygon fill="#63b8ff" stroke="#63b8ff" points="1215.66,-176.28 1206.44,-181.49 1216.9,-183.16 1215.66,-176.28"/>
</a>
</g>
</g>
<!-- Node6&#45;&gt;Node9 -->
<g id="edge9_Node000006_Node000009" class="edge">
<title>Node6&#45;&gt;Node9</title>
<g id="a_edge9_Node000006_Node000009"><a xlink:title=" ">
<path fill="none" stroke="#63b8ff" d="M1095.7,-186.63C985.53,-180.78 766.58,-166.73 582.5,-140 572.6,-138.56 561.97,-136.58 552.13,-134.57"/>
<polygon fill="#63b8ff" stroke="#63b8ff" points="1095.53,-190.13 1105.7,-187.15 1095.9,-183.14 1095.53,-190.13"/>
</a>
</g>
</g>
<!-- Node6&#45;&gt;Node10 -->
<g id="edge10_Node000006_Node000010" class="edge">
<title>Node6&#45;&gt;Node10</title>
<g id="a_edge10_Node000006_Node000010"><a xlink:title=" ">
<path fill="none" stroke="#63b8ff" d="M1095.72,-184.1C1007.36,-176.28 851.74,-160.96 719.5,-140 709.86,-138.47 699.51,-136.51 689.87,-134.54"/>
<polygon fill="#63b8ff" stroke="#63b8ff" points="1095.62,-187.61 1105.89,-185 1096.24,-180.63 1095.62,-187.61"/>
</a>
</g>
</g>
<!-- Node6&#45;&gt;Node11 -->
<g id="edge11_Node000006_Node000011" class="edge">
<title>Node6&#45;&gt;Node11</title>
<g id="a_edge11_Node000006_Node000011"><a xlink:title=" ">
<path fill="none" stroke="#63b8ff" d="M1099.28,-179.91C1036.6,-170.32 940.56,-155.14 857.5,-140 848.36,-138.33 838.57,-136.42 829.31,-134.56"/>
<polygon fill="#63b8ff" stroke="#63b8ff" points="1099.02,-183.41 1109.43,-181.46 1100.08,-176.49 1099.02,-183.41"/>
</a>
</g>
</g>
<!-- Node6&#45;&gt;Node12 -->
<g id="edge12_Node000006_Node000012" class="edge">
<title>Node6&#45;&gt;Node12</title>
<g id="a_edge12_Node000006_Node000012"><a xlink:title=" ">
<path fill="none" stroke="#63b8ff" d="M1125.51,-178.64C1080,-166.03 1007.57,-145.97 966.53,-134.6"/>
<polygon fill="#63b8ff" stroke="#63b8ff" points="1124.77,-182.07 1135.35,-181.37 1126.64,-175.33 1124.77,-182.07"/>
</a>
</g>
</g>
<!-- Node15 -->
<g id="Node000015" class="node">
<title>Node15</title>
<g id="a_Node000015"><a xlink:href="effects_8c.html" target="_top" xlink:title=" ">
<polygon fill="white" stroke="#666666" points="2184,-134.5 2109,-134.5 2109,-115.5 2184,-115.5 2184,-134.5"/>
<text text-anchor="middle" x="2146.5" y="-122.5" font-family="Helvetica,sans-Serif" font-size="10.00">src/effects.c</text>
</a>
</g>
</g>
<!-- Node6&#45;&gt;Node15 -->
<g id="edge15_Node000006_Node000015" class="edge">
<title>Node6&#45;&gt;Node15</title>
<g id="a_edge15_Node000006_Node000015"><a xlink:title=" ">
<path fill="none" stroke="#63b8ff" d="M1216.44,-179.65C1224.77,-178.22 1233.36,-176.93 1241.5,-176 1621.17,-132.83 1723.81,-204.14 2100.5,-140 2107.74,-138.77 2115.44,-136.73 2122.43,-134.58"/>
<polygon fill="#63b8ff" stroke="#63b8ff" points="1215.65,-176.24 1206.43,-181.45 1216.89,-183.13 1215.65,-176.24"/>
</a>
</g>
</g>
<!-- Node16 -->
<g id="Node000016" class="node">
<title>Node16</title>
<g id="a_Node000016"><a xlink:href="code__80281780_8c.html" target="_top" xlink:title=" ">
<polygon fill="white" stroke="#666666" points="1178,-134.5 1023,-134.5 1023,-115.5 1178,-115.5 1178,-134.5"/>
<text text-anchor="middle" x="1100.5" y="-122.5" font-family="Helvetica,sans-Serif" font-size="10.00">src/ending/code_80281780.c</text>
</a>
</g>
</g>
<!-- Node6&#45;&gt;Node16 -->
<g id="edge16_Node000006_Node000016" class="edge">
<title>Node6&#45;&gt;Node16</title>
<g id="a_edge16_Node000006_Node000016"><a xlink:title=" ">
<path fill="none" stroke="#63b8ff" d="M1150.34,-174.33C1137.56,-161.94 1120.18,-145.09 1109.68,-134.91"/>
<polygon fill="#63b8ff" stroke="#63b8ff" points="1147.98,-176.92 1157.6,-181.37 1152.86,-171.89 1147.98,-176.92"/>
</a>
</g>
</g>
<!-- Node6&#45;&gt;Node17 -->
<g id="edge17_Node000006_Node000017" class="edge">
<title>Node6&#45;&gt;Node17</title>
<g id="a_edge17_Node000006_Node000017"><a xlink:title=" ">
<path fill="none" stroke="#63b8ff" d="M1216.14,-179.67C1224.57,-178.23 1233.26,-176.92 1241.5,-176 1662.3,-129.03 1772.07,-180.97 2193.5,-140 2196.15,-139.74 2198.83,-139.46 2201.55,-139.15"/>
<polygon fill="#63b8ff" stroke="#63b8ff" points="1215.26,-176.28 1206.04,-181.5 1216.5,-183.17 1215.26,-176.28"/>
</a>
</g>
</g>
<!-- Node18 -->
<g id="Node000018" class="node">
<title>Node18</title>
<g id="a_Node000018"><a xlink:href="menus_8c.html" target="_top" xlink:title=" ">
<polygon fill="white" stroke="#666666" points="1271,-134.5 1196,-134.5 1196,-115.5 1271,-115.5 1271,-134.5"/>
<text text-anchor="middle" x="1233.5" y="-122.5" font-family="Helvetica,sans-Serif" font-size="10.00">src/menus.c</text>
</a>
</g>
</g>
<!-- Node6&#45;&gt;Node18 -->
<g id="edge18_Node000006_Node000018" class="edge">
<title>Node6&#45;&gt;Node18</title>
<g id="a_edge18_Node000006_Node000018"><a xlink:title=" ">
<path fill="none" stroke="#63b8ff" d="M1182.9,-174.33C1195.88,-161.94 1213.52,-145.09 1224.18,-134.91"/>
<polygon fill="#63b8ff" stroke="#63b8ff" points="1180.35,-171.93 1175.54,-181.37 1185.18,-176.99 1180.35,-171.93"/>
</a>
</g>
</g>
<!-- Node19 -->
<g id="Node000019" class="node">
<title>Node19</title>
<g id="a_Node000019"><a xlink:href="player__controller_8c.html" target="_top" xlink:title=" ">
<polygon fill="white" stroke="#666666" points="1412.5,-134.5 1288.5,-134.5 1288.5,-115.5 1412.5,-115.5 1412.5,-134.5"/>
<text text-anchor="middle" x="1350.5" y="-122.5" font-family="Helvetica,sans-Serif" font-size="10.00">src/player_controller.c</text>
</a>
</g>
</g>
<!-- Node6&#45;&gt;Node19 -->
<g id="edge19_Node000006_Node000019" class="edge">
<title>Node6&#45;&gt;Node19</title>
<g id="a_edge19_Node000006_Node000019"><a xlink:title=" ">
<path fill="none" stroke="#63b8ff" d="M1201,-178C1237.33,-165.36 1293.65,-145.78 1325.78,-134.6"/>
<polygon fill="#63b8ff" stroke="#63b8ff" points="1199.61,-174.78 1191.32,-181.37 1201.91,-181.39 1199.61,-174.78"/>
</a>
</g>
</g>
<!-- Node20 -->
<g id="Node000020" class="node">
<title>Node20</title>
<g id="a_Node000020"><a xlink:href="actors__extended_8c.html" target="_top" xlink:title=" ">
<polygon fill="white" stroke="#666666" points="1586.5,-134.5 1430.5,-134.5 1430.5,-115.5 1586.5,-115.5 1586.5,-134.5"/>
<text text-anchor="middle" x="1508.5" y="-122.5" font-family="Helvetica,sans-Serif" font-size="10.00">src/racing/actors_extended.c</text>
</a>
</g>
</g>
<!-- Node6&#45;&gt;Node20 -->
<g id="edge21_Node000006_Node000020" class="edge">
<title>Node6&#45;&gt;Node20</title>
<g id="a_edge21_Node000006_Node000020"><a xlink:title=" ">
<path fill="none" stroke="#63b8ff" d="M1222.24,-179.57C1289.37,-167.01 1400.82,-146.15 1463,-134.51"/>
<polygon fill="#63b8ff" stroke="#63b8ff" points="1221.45,-176.16 1212.27,-181.44 1222.74,-183.04 1221.45,-176.16"/>
</a>
</g>
</g>
<!-- Node21 -->
<g id="Node000021" class="node">
<title>Node21</title>
<g id="a_Node000021"><a xlink:href="race__logic_8c.html" target="_top" xlink:title=" ">
<polygon fill="white" stroke="#666666" points="1730,-134.5 1605,-134.5 1605,-115.5 1730,-115.5 1730,-134.5"/>
<text text-anchor="middle" x="1667.5" y="-122.5" font-family="Helvetica,sans-Serif" font-size="10.00">src/racing/race_logic.c</text>
</a>
</g>
</g>
<!-- Node6&#45;&gt;Node21 -->
<g id="edge22_Node000006_Node000021" class="edge">
<title>Node6&#45;&gt;Node21</title>
<g id="a_edge22_Node000006_Node000021"><a xlink:title=" ">
<path fill="none" stroke="#63b8ff" d="M1218.73,-179.67C1226.35,-178.34 1234.12,-177.06 1241.5,-176 1398.03,-153.47 1439.05,-163.12 1595.5,-140 1605.7,-138.49 1616.66,-136.54 1626.87,-134.57"/>
<polygon fill="#63b8ff" stroke="#63b8ff" points="1218.06,-176.24 1208.84,-181.46 1219.3,-183.13 1218.06,-176.24"/>
</a>
</g>
</g>
<!-- Node6&#45;&gt;Node22 -->
<g id="edge23_Node000006_Node000022" class="edge">
<title>Node6&#45;&gt;Node22</title>
<g id="a_edge23_Node000006_Node000022"><a xlink:title=" ">
<path fill="none" stroke="#63b8ff" d="M1237.16,-180.25C1251.17,-178.6 1265.78,-177.07 1279.5,-176 1764.06,-138.08 1890.01,-198.66 2372.5,-140 2382.73,-138.76 2393.73,-136.71 2403.75,-134.57"/>
<polygon fill="#63b8ff" stroke="#63b8ff" points="1236.6,-176.79 1227.09,-181.47 1237.44,-183.74 1236.6,-176.79"/>
</a>
</g>
</g>
<!-- Node23 -->
<g id="Node000023" class="node">
<title>Node23</title>
<g id="a_Node000023"><a xlink:href="spawn__players_8c.html" target="_top" xlink:title=" ">
<polygon fill="white" stroke="#666666" points="1863,-134.5 1748,-134.5 1748,-115.5 1863,-115.5 1863,-134.5"/>
<text text-anchor="middle" x="1805.5" y="-122.5" font-family="Helvetica,sans-Serif" font-size="10.00">src/spawn_players.c</text>
</a>
</g>
</g>
<!-- Node6&#45;&gt;Node23 -->
<g id="edge24_Node000006_Node000023" class="edge">
<title>Node6&#45;&gt;Node23</title>
<g id="a_edge24_Node000006_Node000023"><a xlink:title=" ">
<path fill="none" stroke="#63b8ff" d="M1217.59,-179.67C1225.57,-178.29 1233.74,-177 1241.5,-176 1461.59,-147.6 1519.78,-171.1 1739.5,-140 1749.36,-138.6 1759.95,-136.59 1769.69,-134.53"/>
<polygon fill="#63b8ff" stroke="#63b8ff" points="1216.85,-176.25 1207.63,-181.46 1218.09,-183.14 1216.85,-176.25"/>
</a>
</g>
</g>
<!-- Node6&#45;&gt;Node24 -->
<g id="edge25_Node000006_Node000024" class="edge">
<title>Node6&#45;&gt;Node24</title>
<g id="a_edge25_Node000006_Node000024"><a xlink:title=" ">
<path fill="none" stroke="#63b8ff" d="M1237.29,-182.52C1262.57,-180.09 1291.29,-177.61 1317.5,-176 1844.3,-143.62 1980.38,-202.22 2504.5,-140 2515,-138.75 2526.3,-136.68 2536.57,-134.51"/>
<polygon fill="#63b8ff" stroke="#63b8ff" points="1236.66,-179.07 1227.05,-183.52 1237.34,-186.03 1236.66,-179.07"/>
</a>
</g>
</g>
<!-- Node13 -->
<g id="Node000013" class="node">
<title>Node13</title>
<g id="a_Node000013"><a xlink:href="debug_8inc_8c.html" target="_top" xlink:title=" ">
<polygon fill="white" stroke="#666666" points="996.5,-74 874.5,-74 874.5,-55 996.5,-55 996.5,-74"/>
<text text-anchor="middle" x="935.5" y="-62" font-family="Helvetica,sans-Serif" font-size="10.00">src/debug/debug.inc.c</text>
</a>
</g>
</g>
<!-- Node12&#45;&gt;Node13 -->
<g id="edge13_Node000012_Node000013" class="edge">
<title>Node12&#45;&gt;Node13</title>
<g id="a_edge13_Node000012_Node000013"><a xlink:title=" ">
<path fill="none" stroke="#63b8ff" d="M935.5,-105.16C935.5,-94.74 935.5,-82.3 935.5,-74.17"/>
<polygon fill="#63b8ff" stroke="#63b8ff" points="932,-105.37 935.5,-115.37 939,-105.37 932,-105.37"/>
</a>
</g>
</g>
<!-- Node14 -->
<g id="Node000014" class="node">
<title>Node14</title>
<g id="a_Node000014"><a xlink:href="debug_8c.html" target="_top" xlink:title=" ">
<polygon fill="white" stroke="#666666" points="988,-19 883,-19 883,0 988,0 988,-19"/>
<text text-anchor="middle" x="935.5" y="-7" font-family="Helvetica,sans-Serif" font-size="10.00">src/debug/debug.c</text>
</a>
</g>
</g>
<!-- Node13&#45;&gt;Node14 -->
<g id="edge14_Node000013_Node000014" class="edge">
<title>Node13&#45;&gt;Node14</title>
<g id="a_edge14_Node000013_Node000014"><a xlink:title=" ">
<path fill="none" stroke="#63b8ff" d="M935.5,-44.66C935.5,-35.93 935.5,-25.99 935.5,-19.09"/>
<polygon fill="#63b8ff" stroke="#63b8ff" points="932,-44.75 935.5,-54.75 939,-44.75 932,-44.75"/>
</a>
</g>
</g>
<!-- Node26&#45;&gt;Node5 -->
<g id="edge31_Node000026_Node000005" class="edge">
<title>Node26&#45;&gt;Node5</title>
<g id="a_edge31_Node000026_Node000005"><a xlink:title=" ">
<path fill="none" stroke="#63b8ff" d="M396.81,-166.61C391.28,-155.56 385.01,-143.03 380.92,-134.84"/>
<polygon fill="#63b8ff" stroke="#63b8ff" points="393.8,-168.42 401.4,-175.8 400.06,-165.29 393.8,-168.42"/>
</a>
</g>
</g>
<!-- Node27 -->
<g id="Node000027" class="node">
<title>Node27</title>
<g id="a_Node000027"><a xlink:href="path__spawn__data_8c.html" target="_top" xlink:title=" ">
<polygon fill="white" stroke="#666666" points="298,-140 181,-140 181,-110 298,-110 298,-140"/>
<text text-anchor="start" x="189" y="-128" font-family="Helvetica,sans-Serif" font-size="10.00">src/data/path_spawn</text>
<text text-anchor="middle" x="239.5" y="-117" font-family="Helvetica,sans-Serif" font-size="10.00">_data.c</text>
</a>
</g>
</g>
<!-- Node26&#45;&gt;Node27 -->
<g id="edge32_Node000026_Node000027" class="edge">
<title>Node26&#45;&gt;Node27</title>
<g id="a_edge32_Node000026_Node000027"><a xlink:title=" ">
<path fill="none" stroke="#63b8ff" d="M361.82,-172.32C334.92,-162.14 301.58,-149.51 276.5,-140.01"/>
<polygon fill="#63b8ff" stroke="#63b8ff" points="360.82,-175.69 371.41,-175.95 363.3,-169.14 360.82,-175.69"/>
</a>
</g>
</g>
</g>
</svg>
