<?xml version="1.0" encoding="UTF-8" standalone="no"?>
<!DOCTYPE svg PUBLIC "-//W3C//DTD SVG 1.1//EN"
 "http://www.w3.org/Graphics/SVG/1.1/DTD/svg11.dtd">
<!-- Generated by graphviz version 2.43.0 (0)
 -->
<!-- Title: include/defines.h Pages: 1 -->
<svg width="3970pt" height="269pt"
 viewBox="0.00 0.00 3970.00 269.00" xmlns="http://www.w3.org/2000/svg" xmlns:xlink="http://www.w3.org/1999/xlink">
<g id="graph0" class="graph" transform="scale(1 1) rotate(0) translate(4 265)">
<title>include/defines.h</title>
<!-- Node1 -->
<g id="Node000001" class="node">
<title>Node1</title>
<g id="a_Node000001"><a xlink:title=" ">
<polygon fill="#999999" stroke="#666666" points="1732,-261 1633,-261 1633,-242 1732,-242 1732,-261"/>
<text text-anchor="middle" x="1682.5" y="-249" font-family="Helvetica,sans-Serif" font-size="10.00">include/defines.h</text>
</a>
</g>
</g>
<!-- Node2 -->
<g id="Node000002" class="node">
<title>Node2</title>
<g id="a_Node000002"><a xlink:href="debug_8h.html" target="_top" xlink:title=" ">
<polygon fill="white" stroke="#666666" points="380.5,-200.5 286.5,-200.5 286.5,-181.5 380.5,-181.5 380.5,-200.5"/>
<text text-anchor="middle" x="333.5" y="-188.5" font-family="Helvetica,sans-Serif" font-size="10.00">include/debug.h</text>
</a>
</g>
</g>
<!-- Node1&#45;&gt;Node2 -->
<g id="edge1_Node000001_Node000002" class="edge">
<title>Node1&#45;&gt;Node2</title>
<g id="a_edge1_Node000001_Node000002"><a xlink:title=" ">
<path fill="none" stroke="#63b8ff" d="M1622.84,-249.86C1445.63,-247.62 906.95,-238.44 461.5,-206 434.63,-204.04 404.7,-200.83 380.54,-197.97"/>
<polygon fill="#63b8ff" stroke="#63b8ff" points="1622.96,-253.36 1633,-249.98 1623.04,-246.36 1622.96,-253.36"/>
</a>
</g>
</g>
<!-- Node3 -->
<g id="Node000003" class="node">
<title>Node3</title>
<g id="a_Node000003"><a xlink:href="all__variables_8h.html" target="_top" xlink:title=" ">
<polygon fill="white" stroke="#666666" points="567.5,-134.5 429.5,-134.5 429.5,-115.5 567.5,-115.5 567.5,-134.5"/>
<text text-anchor="middle" x="498.5" y="-122.5" font-family="Helvetica,sans-Serif" font-size="10.00">src/debug/all_variables.h</text>
</a>
</g>
</g>
<!-- Node1&#45;&gt;Node3 -->
<g id="edge22_Node000001_Node000003" class="edge">
<title>Node1&#45;&gt;Node3</title>
<g id="a_edge22_Node000001_Node000003"><a xlink:title=" ">
<path fill="none" stroke="#63b8ff" d="M1622.54,-249.56C1445.37,-246.47 926.27,-235.11 759.5,-206 668.23,-190.07 564.14,-151.81 520.05,-134.62"/>
<polygon fill="#63b8ff" stroke="#63b8ff" points="1622.65,-253.06 1632.71,-249.73 1622.78,-246.06 1622.65,-253.06"/>
</a>
</g>
</g>
<!-- Node6 -->
<g id="Node000006" class="node">
<title>Node6</title>
<g id="a_Node000006"><a xlink:href="code__80280000_8c.html" target="_top" xlink:title=" ">
<polygon fill="white" stroke="#666666" points="411,-134.5 256,-134.5 256,-115.5 411,-115.5 411,-134.5"/>
<text text-anchor="middle" x="333.5" y="-122.5" font-family="Helvetica,sans-Serif" font-size="10.00">src/ending/code_80280000.c</text>
</a>
</g>
</g>
<!-- Node1&#45;&gt;Node6 -->
<g id="edge24_Node000001_Node000006" class="edge">
<title>Node1&#45;&gt;Node6</title>
<g id="a_edge24_Node000001_Node000006"><a xlink:title=" ">
<path fill="none" stroke="#63b8ff" d="M1622.81,-249.62C1430.92,-246.55 831.22,-234.81 639.5,-206 533.34,-190.05 410.87,-151.8 358.91,-134.62"/>
<polygon fill="#63b8ff" stroke="#63b8ff" points="1622.93,-253.13 1632.98,-249.79 1623.04,-246.13 1622.93,-253.13"/>
</a>
</g>
</g>
<!-- Node8 -->
<g id="Node000008" class="node">
<title>Node8</title>
<g id="a_Node000008"><a xlink:href="main_8c.html" target="_top" xlink:title=" ">
<polygon fill="white" stroke="#666666" points="653,-134.5 586,-134.5 586,-115.5 653,-115.5 653,-134.5"/>
<text text-anchor="middle" x="619.5" y="-122.5" font-family="Helvetica,sans-Serif" font-size="10.00">src/main.c</text>
</a>
</g>
</g>
<!-- Node1&#45;&gt;Node8 -->
<g id="edge29_Node000001_Node000008" class="edge">
<title>Node1&#45;&gt;Node8</title>
<g id="a_edge29_Node000001_Node000008"><a xlink:title=" ">
<path fill="none" stroke="#63b8ff" d="M1622.61,-249.06C1461.36,-244.89 1020.61,-231.43 877.5,-206 787.23,-189.96 684.37,-151.76 640.79,-134.6"/>
<polygon fill="#63b8ff" stroke="#63b8ff" points="1622.73,-252.57 1632.82,-249.32 1622.91,-245.57 1622.73,-252.57"/>
</a>
</g>
</g>
<!-- Node9 -->
<g id="Node000009" class="node">
<title>Node9</title>
<g id="a_Node000009"><a xlink:href="external_8c.html" target="_top" xlink:title=" ">
<polygon fill="white" stroke="#666666" points="1782,-200.5 1669,-200.5 1669,-181.5 1782,-181.5 1782,-200.5"/>
<text text-anchor="middle" x="1725.5" y="-188.5" font-family="Helvetica,sans-Serif" font-size="10.00">src/audio/external.c</text>
</a>
</g>
</g>
<!-- Node1&#45;&gt;Node9 -->
<g id="edge10_Node000001_Node000009" class="edge">
<title>Node1&#45;&gt;Node9</title>
<g id="a_edge10_Node000001_Node000009"><a xlink:title=" ">
<path fill="none" stroke="#63b8ff" d="M1694.9,-233.63C1702.82,-222.85 1712.77,-209.32 1719.13,-200.67"/>
<polygon fill="#63b8ff" stroke="#63b8ff" points="1691.95,-231.74 1688.84,-241.87 1697.59,-235.88 1691.95,-231.74"/>
</a>
</g>
</g>
<!-- Node10 -->
<g id="Node000010" class="node">
<title>Node10</title>
<g id="a_Node000010"><a xlink:href="camera_8c.html" target="_top" xlink:title=" ">
<polygon fill="white" stroke="#666666" points="1879,-200.5 1800,-200.5 1800,-181.5 1879,-181.5 1879,-200.5"/>
<text text-anchor="middle" x="1839.5" y="-188.5" font-family="Helvetica,sans-Serif" font-size="10.00">src/camera.c</text>
</a>
</g>
</g>
<!-- Node1&#45;&gt;Node10 -->
<g id="edge11_Node000001_Node000010" class="edge">
<title>Node1&#45;&gt;Node10</title>
<g id="a_edge11_Node000001_Node000010"><a xlink:title=" ">
<path fill="none" stroke="#63b8ff" d="M1715.03,-238.38C1745.38,-227.07 1789.89,-210.49 1816.64,-200.52"/>
<polygon fill="#63b8ff" stroke="#63b8ff" points="1713.48,-235.22 1705.33,-241.99 1715.92,-241.78 1713.48,-235.22"/>
</a>
</g>
</g>
<!-- Node11 -->
<g id="Node000011" class="node">
<title>Node11</title>
<g id="a_Node000011"><a xlink:href="code__800029B0_8c.html" target="_top" xlink:title=" ">
<polygon fill="white" stroke="#666666" points="790,-134.5 671,-134.5 671,-115.5 790,-115.5 790,-134.5"/>
<text text-anchor="middle" x="730.5" y="-122.5" font-family="Helvetica,sans-Serif" font-size="10.00">src/code_800029B0.c</text>
</a>
</g>
</g>
<!-- Node1&#45;&gt;Node11 -->
<g id="edge12_Node000001_Node000011" class="edge">
<title>Node1&#45;&gt;Node11</title>
<g id="a_edge12_Node000001_Node000011"><a xlink:title=" ">
<path fill="none" stroke="#63b8ff" d="M1622.9,-251.02C1503.84,-251.09 1228.47,-246.4 1001.5,-206 907.32,-189.24 799.38,-151.59 753.29,-134.61"/>
<polygon fill="#63b8ff" stroke="#63b8ff" points="1622.92,-254.52 1632.91,-251 1622.9,-247.52 1622.92,-254.52"/>
</a>
</g>
</g>
<!-- Node12 -->
<g id="Node000012" class="node">
<title>Node12</title>
<g id="a_Node000012"><a xlink:href="code__80005FD0_8c.html" target="_top" xlink:title=" ">
<polygon fill="white" stroke="#666666" points="928.5,-134.5 808.5,-134.5 808.5,-115.5 928.5,-115.5 928.5,-134.5"/>
<text text-anchor="middle" x="868.5" y="-122.5" font-family="Helvetica,sans-Serif" font-size="10.00">src/code_80005FD0.c</text>
</a>
</g>
</g>
<!-- Node1&#45;&gt;Node12 -->
<g id="edge13_Node000001_Node000012" class="edge">
<title>Node1&#45;&gt;Node12</title>
<g id="a_edge13_Node000001_Node000012"><a xlink:title=" ">
<path fill="none" stroke="#63b8ff" d="M1622.66,-250.4C1518.56,-249.2 1297.81,-242.15 1115.5,-206 1029.28,-188.9 931.1,-151.43 889.2,-134.55"/>
<polygon fill="#63b8ff" stroke="#63b8ff" points="1622.63,-253.9 1632.67,-250.5 1622.71,-246.9 1622.63,-253.9"/>
</a>
</g>
</g>
<!-- Node13 -->
<g id="Node000013" class="node">
<title>Node13</title>
<g id="a_Node000013"><a xlink:href="code__80057C60_8c.html" target="_top" xlink:title=" ">
<polygon fill="white" stroke="#666666" points="1066,-134.5 947,-134.5 947,-115.5 1066,-115.5 1066,-134.5"/>
<text text-anchor="middle" x="1006.5" y="-122.5" font-family="Helvetica,sans-Serif" font-size="10.00">src/code_80057C60.c</text>
</a>
</g>
</g>
<!-- Node1&#45;&gt;Node13 -->
<g id="edge14_Node000001_Node000013" class="edge">
<title>Node1&#45;&gt;Node13</title>
<g id="a_edge14_Node000001_Node000013"><a xlink:title=" ">
<path fill="none" stroke="#63b8ff" d="M1622.68,-250.09C1532.55,-248.29 1357.07,-240.22 1212.5,-206 1139.7,-188.77 1058.28,-151.37 1023.61,-134.53"/>
<polygon fill="#63b8ff" stroke="#63b8ff" points="1622.66,-253.59 1632.72,-250.27 1622.78,-246.59 1622.66,-253.59"/>
</a>
</g>
</g>
<!-- Node14 -->
<g id="Node000014" class="node">
<title>Node14</title>
<g id="a_Node000014"><a xlink:href="code__8006E9C0_8c.html" target="_top" xlink:title=" ">
<polygon fill="white" stroke="#666666" points="1203,-134.5 1084,-134.5 1084,-115.5 1203,-115.5 1203,-134.5"/>
<text text-anchor="middle" x="1143.5" y="-122.5" font-family="Helvetica,sans-Serif" font-size="10.00">src/code_8006E9C0.c</text>
</a>
</g>
</g>
<!-- Node1&#45;&gt;Node14 -->
<g id="edge15_Node000001_Node000014" class="edge">
<title>Node1&#45;&gt;Node14</title>
<g id="a_edge15_Node000001_Node000014"><a xlink:title=" ">
<path fill="none" stroke="#63b8ff" d="M1622.7,-247.02C1526.24,-240.89 1340.82,-226.81 1278.5,-206 1228.11,-189.17 1176.16,-151.56 1154.26,-134.6"/>
<polygon fill="#63b8ff" stroke="#63b8ff" points="1622.68,-250.53 1632.88,-247.66 1623.11,-243.54 1622.68,-250.53"/>
</a>
</g>
</g>
<!-- Node15 -->
<g id="Node000015" class="node">
<title>Node15</title>
<g id="a_Node000015"><a xlink:href="code__80071F00_8c.html" target="_top" xlink:title=" ">
<polygon fill="white" stroke="#666666" points="1340,-134.5 1221,-134.5 1221,-115.5 1340,-115.5 1340,-134.5"/>
<text text-anchor="middle" x="1280.5" y="-122.5" font-family="Helvetica,sans-Serif" font-size="10.00">src/code_80071F00.c</text>
</a>
</g>
</g>
<!-- Node1&#45;&gt;Node15 -->
<g id="edge16_Node000001_Node000015" class="edge">
<title>Node1&#45;&gt;Node15</title>
<g id="a_edge16_Node000001_Node000015"><a xlink:title=" ">
<path fill="none" stroke="#63b8ff" d="M1622.79,-247.29C1521.16,-241.29 1323.17,-227.04 1299.5,-206 1278.8,-187.6 1278.56,-151.15 1279.66,-134.57"/>
<polygon fill="#63b8ff" stroke="#63b8ff" points="1622.72,-250.8 1632.91,-247.88 1623.13,-243.81 1622.72,-250.8"/>
</a>
</g>
</g>
<!-- Node16 -->
<g id="Node000016" class="node">
<title>Node16</title>
<g id="a_Node000016"><a xlink:href="code__80086E70_8c.html" target="_top" xlink:title=" ">
<polygon fill="white" stroke="#666666" points="2016,-200.5 1897,-200.5 1897,-181.5 2016,-181.5 2016,-200.5"/>
<text text-anchor="middle" x="1956.5" y="-188.5" font-family="Helvetica,sans-Serif" font-size="10.00">src/code_80086E70.c</text>
</a>
</g>
</g>
<!-- Node1&#45;&gt;Node16 -->
<g id="edge17_Node000001_Node000016" class="edge">
<title>Node1&#45;&gt;Node16</title>
<g id="a_edge17_Node000001_Node000016"><a xlink:title=" ">
<path fill="none" stroke="#63b8ff" d="M1732.18,-239.89C1785.09,-228.6 1867.78,-210.94 1916.61,-200.52"/>
<polygon fill="#63b8ff" stroke="#63b8ff" points="1731.39,-236.48 1722.34,-241.99 1732.85,-243.33 1731.39,-236.48"/>
</a>
</g>
</g>
<!-- Node17 -->
<g id="Node000017" class="node">
<title>Node17</title>
<g id="a_Node000017"><a xlink:href="code__8008C1D0_8c.html" target="_top" xlink:title=" ">
<polygon fill="white" stroke="#666666" points="2155,-200.5 2034,-200.5 2034,-181.5 2155,-181.5 2155,-200.5"/>
<text text-anchor="middle" x="2094.5" y="-188.5" font-family="Helvetica,sans-Serif" font-size="10.00">src/code_8008C1D0.c</text>
</a>
</g>
</g>
<!-- Node1&#45;&gt;Node17 -->
<g id="edge18_Node000001_Node000017" class="edge">
<title>Node1&#45;&gt;Node17</title>
<g id="a_edge18_Node000001_Node000017"><a xlink:title=" ">
<path fill="none" stroke="#63b8ff" d="M1742.26,-244.05C1810.85,-236.35 1926.62,-222.42 2025.5,-206 2035.03,-204.42 2045.24,-202.48 2054.82,-200.55"/>
<polygon fill="#63b8ff" stroke="#63b8ff" points="1741.63,-240.6 1732.08,-245.19 1742.41,-247.56 1741.63,-240.6"/>
</a>
</g>
</g>
<!-- Node18 -->
<g id="Node000018" class="node">
<title>Node18</title>
<g id="a_Node000018"><a xlink:href="code__80091750_8c.html" target="_top" xlink:title=" ">
<polygon fill="white" stroke="#666666" points="1620,-134.5 1501,-134.5 1501,-115.5 1620,-115.5 1620,-134.5"/>
<text text-anchor="middle" x="1560.5" y="-122.5" font-family="Helvetica,sans-Serif" font-size="10.00">src/code_80091750.c</text>
</a>
</g>
</g>
<!-- Node1&#45;&gt;Node18 -->
<g id="edge19_Node000001_Node000018" class="edge">
<title>Node1&#45;&gt;Node18</title>
<g id="a_edge19_Node000001_Node000018"><a xlink:title=" ">
<path fill="none" stroke="#63b8ff" d="M1622.62,-246.85C1564,-241.88 1480.65,-230.59 1460.5,-206 1434.99,-174.87 1495.54,-147.77 1533.21,-134.56"/>
<polygon fill="#63b8ff" stroke="#63b8ff" points="1622.64,-250.36 1632.89,-247.68 1623.2,-243.38 1622.64,-250.36"/>
</a>
</g>
</g>
<!-- Node19 -->
<g id="Node000019" class="node">
<title>Node19</title>
<g id="a_Node000019"><a xlink:href="code__800AF9B0_8c.html" target="_top" xlink:title=" ">
<polygon fill="white" stroke="#666666" points="2293.5,-200.5 2173.5,-200.5 2173.5,-181.5 2293.5,-181.5 2293.5,-200.5"/>
<text text-anchor="middle" x="2233.5" y="-188.5" font-family="Helvetica,sans-Serif" font-size="10.00">src/code_800AF9B0.c</text>
</a>
</g>
</g>
<!-- Node1&#45;&gt;Node19 -->
<g id="edge20_Node000001_Node000019" class="edge">
<title>Node1&#45;&gt;Node19</title>
<g id="a_edge20_Node000001_Node000019"><a xlink:title=" ">
<path fill="none" stroke="#63b8ff" d="M1742.49,-247.05C1833.9,-241.33 2013.4,-228.24 2164.5,-206 2174.54,-204.52 2185.32,-202.53 2195.31,-200.52"/>
<polygon fill="#63b8ff" stroke="#63b8ff" points="1742.09,-243.57 1732.32,-247.68 1742.52,-250.56 1742.09,-243.57"/>
</a>
</g>
</g>
<!-- Node20 -->
<g id="Node000020" class="node">
<title>Node20</title>
<g id="a_Node000020"><a xlink:href="common__textures_8inc_8c.html" target="_top" xlink:title=" ">
<polygon fill="white" stroke="#666666" points="2485,-200.5 2312,-200.5 2312,-181.5 2485,-181.5 2485,-200.5"/>
<text text-anchor="middle" x="2398.5" y="-188.5" font-family="Helvetica,sans-Serif" font-size="10.00">src/data/common_textures.inc.c</text>
</a>
</g>
</g>
<!-- Node1&#45;&gt;Node20 -->
<g id="edge21_Node000001_Node000020" class="edge">
<title>Node1&#45;&gt;Node20</title>
<g id="a_edge21_Node000001_Node000020"><a xlink:title=" ">
<path fill="none" stroke="#63b8ff" d="M1742.33,-247.66C1853.1,-242.09 2097.49,-228.28 2302.5,-206 2316.31,-204.5 2331.19,-202.51 2345.02,-200.51"/>
<polygon fill="#63b8ff" stroke="#63b8ff" points="1741.85,-244.18 1732.04,-248.18 1742.2,-251.17 1741.85,-244.18"/>
</a>
</g>
</g>
<!-- Node21 -->
<g id="Node000021" class="node">
<title>Node21</title>
<g id="a_Node000021"><a xlink:href="ceremony__and__credits_8c.html" target="_top" xlink:title=" ">
<polygon fill="white" stroke="#666666" points="2622,-206 2503,-206 2503,-176 2622,-176 2622,-206"/>
<text text-anchor="start" x="2511" y="-194" font-family="Helvetica,sans-Serif" font-size="10.00">src/ending/ceremony</text>
<text text-anchor="middle" x="2562.5" y="-183" font-family="Helvetica,sans-Serif" font-size="10.00">_and_credits.c</text>
</a>
</g>
</g>
<!-- Node1&#45;&gt;Node21 -->
<g id="edge23_Node000001_Node000021" class="edge">
<title>Node1&#45;&gt;Node21</title>
<g id="a_edge23_Node000001_Node000021"><a xlink:title=" ">
<path fill="none" stroke="#63b8ff" d="M1742.28,-250.25C1877.08,-249.03 2214.76,-242.26 2494.5,-206 2497.25,-205.64 2500.05,-205.24 2502.88,-204.8"/>
<polygon fill="#63b8ff" stroke="#63b8ff" points="1742.14,-246.75 1732.17,-250.33 1742.19,-253.75 1742.14,-246.75"/>
</a>
</g>
</g>
<!-- Node22 -->
<g id="Node000022" class="node">
<title>Node22</title>
<g id="a_Node000022"><a xlink:href="code__80281780_8c.html" target="_top" xlink:title=" ">
<polygon fill="white" stroke="#666666" points="1793,-134.5 1638,-134.5 1638,-115.5 1793,-115.5 1793,-134.5"/>
<text text-anchor="middle" x="1715.5" y="-122.5" font-family="Helvetica,sans-Serif" font-size="10.00">src/ending/code_80281780.c</text>
</a>
</g>
</g>
<!-- Node1&#45;&gt;Node22 -->
<g id="edge25_Node000001_Node000022" class="edge">
<title>Node1&#45;&gt;Node22</title>
<g id="a_edge25_Node000001_Node000022"><a xlink:title=" ">
<path fill="none" stroke="#63b8ff" d="M1622.35,-248.6C1546.77,-244.02 1431.78,-228.49 1474.5,-176 1480.59,-168.52 1597.9,-146.73 1666.57,-134.53"/>
<polygon fill="#63b8ff" stroke="#63b8ff" points="1622.56,-252.11 1632.74,-249.17 1622.95,-245.12 1622.56,-252.11"/>
</a>
</g>
</g>
<!-- Node23 -->
<g id="Node000023" class="node">
<title>Node23</title>
<g id="a_Node000023"><a xlink:href="credits_8c.html" target="_top" xlink:title=" ">
<polygon fill="white" stroke="#666666" points="2751,-200.5 2640,-200.5 2640,-181.5 2751,-181.5 2751,-200.5"/>
<text text-anchor="middle" x="2695.5" y="-188.5" font-family="Helvetica,sans-Serif" font-size="10.00">src/ending/credits.c</text>
</a>
</g>
</g>
<!-- Node1&#45;&gt;Node23 -->
<g id="edge26_Node000001_Node000023" class="edge">
<title>Node1&#45;&gt;Node23</title>
<g id="a_edge26_Node000001_Node000023"><a xlink:title=" ">
<path fill="none" stroke="#63b8ff" d="M1742.54,-251.18C1892.95,-252.13 2297.75,-250.01 2631.5,-206 2641.31,-204.71 2651.84,-202.68 2661.48,-200.56"/>
<polygon fill="#63b8ff" stroke="#63b8ff" points="1742.18,-247.68 1732.16,-251.11 1742.13,-254.68 1742.18,-247.68"/>
</a>
</g>
</g>
<!-- Node24 -->
<g id="Node000024" class="node">
<title>Node24</title>
<g id="a_Node000024"><a xlink:href="hud__renderer_8c.html" target="_top" xlink:title=" ">
<polygon fill="white" stroke="#666666" points="1917.5,-134.5 1811.5,-134.5 1811.5,-115.5 1917.5,-115.5 1917.5,-134.5"/>
<text text-anchor="middle" x="1864.5" y="-122.5" font-family="Helvetica,sans-Serif" font-size="10.00">src/hud_renderer.c</text>
</a>
</g>
</g>
<!-- Node1&#45;&gt;Node24 -->
<g id="edge27_Node000001_Node000024" class="edge">
<title>Node1&#45;&gt;Node24</title>
<g id="a_edge27_Node000001_Node000024"><a xlink:title=" ">
<path fill="none" stroke="#63b8ff" d="M1622.7,-244.44C1560.5,-235.84 1476.78,-216.43 1512.5,-176 1555.5,-127.33 1738.53,-151.17 1802.5,-140 1811.31,-138.46 1820.75,-136.5 1829.54,-134.53"/>
<polygon fill="#63b8ff" stroke="#63b8ff" points="1622.5,-247.94 1632.87,-245.77 1623.41,-241 1622.5,-247.94"/>
</a>
</g>
</g>
<!-- Node25 -->
<g id="Node000025" class="node">
<title>Node25</title>
<g id="a_Node000025"><a xlink:href="kart__dma_8c.html" target="_top" xlink:title=" ">
<polygon fill="white" stroke="#666666" points="2857.5,-200.5 2769.5,-200.5 2769.5,-181.5 2857.5,-181.5 2857.5,-200.5"/>
<text text-anchor="middle" x="2813.5" y="-188.5" font-family="Helvetica,sans-Serif" font-size="10.00">src/kart_dma.c</text>
</a>
</g>
</g>
<!-- Node1&#45;&gt;Node25 -->
<g id="edge28_Node000001_Node000025" class="edge">
<title>Node1&#45;&gt;Node25</title>
<g id="a_edge28_Node000001_Node000025"><a xlink:title=" ">
<path fill="none" stroke="#63b8ff" d="M1742.21,-249.74C1938.35,-246.98 2561.71,-235.99 2760.5,-206 2768.78,-204.75 2777.63,-202.71 2785.68,-200.56"/>
<polygon fill="#63b8ff" stroke="#63b8ff" points="1742.04,-246.24 1732.09,-249.88 1742.14,-253.24 1742.04,-246.24"/>
</a>
</g>
</g>
<!-- Node26 -->
<g id="Node000026" class="node">
<title>Node26</title>
<g id="a_Node000026"><a xlink:href="math__util__2_8c.html" target="_top" xlink:title=" ">
<polygon fill="white" stroke="#666666" points="2975.5,-200.5 2875.5,-200.5 2875.5,-181.5 2975.5,-181.5 2975.5,-200.5"/>
<text text-anchor="middle" x="2925.5" y="-188.5" font-family="Helvetica,sans-Serif" font-size="10.00">src/math_util_2.c</text>
</a>
</g>
</g>
<!-- Node1&#45;&gt;Node26 -->
<g id="edge30_Node000001_Node000026" class="edge">
<title>Node1&#45;&gt;Node26</title>
<g id="a_edge30_Node000001_Node000026"><a xlink:title=" ">
<path fill="none" stroke="#63b8ff" d="M1742.34,-249.8C1951,-247.1 2645.77,-236.04 2866.5,-206 2875.68,-204.75 2885.52,-202.71 2894.48,-200.56"/>
<polygon fill="#63b8ff" stroke="#63b8ff" points="1742.14,-246.3 1732.19,-249.93 1742.23,-253.3 1742.14,-246.3"/>
</a>
</g>
</g>
<!-- Node27 -->
<g id="Node000027" class="node">
<title>Node27</title>
<g id="a_Node000027"><a xlink:href="menus_8c.html" target="_top" xlink:title=" ">
<polygon fill="white" stroke="#666666" points="2011,-134.5 1936,-134.5 1936,-115.5 2011,-115.5 2011,-134.5"/>
<text text-anchor="middle" x="1973.5" y="-122.5" font-family="Helvetica,sans-Serif" font-size="10.00">src/menus.c</text>
</a>
</g>
</g>
<!-- Node1&#45;&gt;Node27 -->
<g id="edge31_Node000001_Node000027" class="edge">
<title>Node1&#45;&gt;Node27</title>
<g id="a_edge31_Node000001_Node000027"><a xlink:title=" ">
<path fill="none" stroke="#63b8ff" d="M1626.78,-239.58C1579.21,-227.88 1522.58,-206.73 1550.5,-176 1606.95,-113.88 1844.11,-156.06 1926.5,-140 1933.52,-138.63 1940.99,-136.65 1947.87,-134.61"/>
<polygon fill="#63b8ff" stroke="#63b8ff" points="1626.23,-243.05 1636.76,-241.94 1627.83,-236.24 1626.23,-243.05"/>
</a>
</g>
</g>
<!-- Node28 -->
<g id="Node000028" class="node">
<title>Node28</title>
<g id="a_Node000028"><a xlink:href="menus_8h.html" target="_top" xlink:title=" ">
<polygon fill="white" stroke="#666666" points="1384.5,-200.5 1308.5,-200.5 1308.5,-181.5 1384.5,-181.5 1384.5,-200.5"/>
<text text-anchor="middle" x="1346.5" y="-188.5" font-family="Helvetica,sans-Serif" font-size="10.00">src/menus.h</text>
</a>
</g>
</g>
<!-- Node1&#45;&gt;Node28 -->
<g id="edge32_Node000001_Node000028" class="edge">
<title>Node1&#45;&gt;Node28</title>
<g id="a_edge32_Node000001_Node000028"><a xlink:title=" ">
<path fill="none" stroke="#63b8ff" d="M1622.92,-243.06C1565.21,-235.41 1475.41,-222.33 1398.5,-206 1391.18,-204.45 1383.36,-202.5 1376.07,-200.55"/>
<polygon fill="#63b8ff" stroke="#63b8ff" points="1622.58,-246.55 1632.95,-244.38 1623.49,-239.61 1622.58,-246.55"/>
</a>
</g>
</g>
<!-- Node29 -->
<g id="Node000029" class="node">
<title>Node29</title>
<g id="a_Node000029"><a xlink:href="race__logic_8c.html" target="_top" xlink:title=" ">
<polygon fill="white" stroke="#666666" points="2154,-134.5 2029,-134.5 2029,-115.5 2154,-115.5 2154,-134.5"/>
<text text-anchor="middle" x="2091.5" y="-122.5" font-family="Helvetica,sans-Serif" font-size="10.00">src/racing/race_logic.c</text>
</a>
</g>
</g>
<!-- Node1&#45;&gt;Node29 -->
<g id="edge52_Node000001_Node000029" class="edge">
<title>Node1&#45;&gt;Node29</title>
<g id="a_edge52_Node000001_Node000029"><a xlink:title=" ">
<path fill="none" stroke="#63b8ff" d="M1632.06,-238.45C1615.27,-231.78 1598.35,-221.56 1588.5,-206 1581.37,-194.73 1579.47,-185.81 1588.5,-176 1621.11,-140.56 1972.8,-146.67 2020.5,-140 2030.83,-138.56 2041.92,-136.58 2052.2,-134.56"/>
<polygon fill="#63b8ff" stroke="#63b8ff" points="1631.29,-241.9 1641.88,-241.99 1633.66,-235.31 1631.29,-241.9"/>
</a>
</g>
</g>
<!-- Node31 -->
<g id="Node000031" class="node">
<title>Node31</title>
<g id="a_Node000031"><a xlink:href="save_8c.html" target="_top" xlink:title=" ">
<polygon fill="white" stroke="#666666" points="2237,-134.5 2172,-134.5 2172,-115.5 2237,-115.5 2237,-134.5"/>
<text text-anchor="middle" x="2204.5" y="-122.5" font-family="Helvetica,sans-Serif" font-size="10.00">src/save.c</text>
</a>
</g>
</g>
<!-- Node1&#45;&gt;Node31 -->
<g id="edge55_Node000001_Node000031" class="edge">
<title>Node1&#45;&gt;Node31</title>
<g id="a_edge55_Node000001_Node000031"><a xlink:title=" ">
<path fill="none" stroke="#63b8ff" d="M1659.42,-236.37C1636.83,-220.84 1608.25,-195.51 1626.5,-176 1667.35,-132.32 2104.87,-151.76 2163.5,-140 2169.84,-138.73 2176.55,-136.73 2182.66,-134.64"/>
<polygon fill="#63b8ff" stroke="#63b8ff" points="1657.71,-239.43 1667.98,-242 1661.55,-233.58 1657.71,-239.43"/>
</a>
</g>
</g>
<!-- Node32 -->
<g id="Node000032" class="node">
<title>Node32</title>
<g id="a_Node000032"><a xlink:href="spawn__players_8c.html" target="_top" xlink:title=" ">
<polygon fill="white" stroke="#666666" points="2370,-134.5 2255,-134.5 2255,-115.5 2370,-115.5 2370,-134.5"/>
<text text-anchor="middle" x="2312.5" y="-122.5" font-family="Helvetica,sans-Serif" font-size="10.00">src/spawn_players.c</text>
</a>
</g>
</g>
<!-- Node1&#45;&gt;Node32 -->
<g id="edge56_Node000001_Node000032" class="edge">
<title>Node1&#45;&gt;Node32</title>
<g id="a_edge56_Node000001_Node000032"><a xlink:title=" ">
<path fill="none" stroke="#63b8ff" d="M1669.37,-233.66C1658.05,-216.99 1645.69,-191.75 1660.5,-176 1705.19,-128.48 2181.86,-148.79 2246.5,-140 2256.48,-138.64 2267.21,-136.62 2277.05,-134.53"/>
<polygon fill="#63b8ff" stroke="#63b8ff" points="1666.66,-235.88 1675.37,-241.92 1672.32,-231.77 1666.66,-235.88"/>
</a>
</g>
</g>
<!-- Node33 -->
<g id="Node000033" class="node">
<title>Node33</title>
<g id="a_Node000033"><a xlink:href="player__controller_8c.html" target="_top" xlink:title=" ">
<polygon fill="white" stroke="#666666" points="3117.5,-200.5 2993.5,-200.5 2993.5,-181.5 3117.5,-181.5 3117.5,-200.5"/>
<text text-anchor="middle" x="3055.5" y="-188.5" font-family="Helvetica,sans-Serif" font-size="10.00">src/player_controller.c</text>
</a>
</g>
</g>
<!-- Node1&#45;&gt;Node33 -->
<g id="edge48_Node000001_Node000033" class="edge">
<title>Node1&#45;&gt;Node33</title>
<g id="a_edge48_Node000001_Node000033"><a xlink:title=" ">
<path fill="none" stroke="#63b8ff" d="M1742.23,-249.73C1963.87,-246.69 2738.99,-234.22 2984.5,-206 2995.48,-204.74 3007.31,-202.69 3018.09,-200.54"/>
<polygon fill="#63b8ff" stroke="#63b8ff" points="1742.05,-246.23 1732.1,-249.87 1742.15,-253.23 1742.05,-246.23"/>
</a>
</g>
</g>
<!-- Node34 -->
<g id="Node000034" class="node">
<title>Node34</title>
<g id="a_Node000034"><a xlink:href="actors_8c.html" target="_top" xlink:title=" ">
<polygon fill="white" stroke="#666666" points="3241,-200.5 3136,-200.5 3136,-181.5 3241,-181.5 3241,-200.5"/>
<text text-anchor="middle" x="3188.5" y="-188.5" font-family="Helvetica,sans-Serif" font-size="10.00">src/racing/actors.c</text>
</a>
</g>
</g>
<!-- Node1&#45;&gt;Node34 -->
<g id="edge49_Node000001_Node000034" class="edge">
<title>Node1&#45;&gt;Node34</title>
<g id="a_edge49_Node000001_Node000034"><a xlink:title=" ">
<path fill="none" stroke="#63b8ff" d="M1742.37,-250.18C1979.36,-248.68 2852.22,-240.87 3126.5,-206 3136.24,-204.76 3146.7,-202.69 3156.21,-200.52"/>
<polygon fill="#63b8ff" stroke="#63b8ff" points="1742.2,-246.68 1732.22,-250.24 1742.24,-253.68 1742.2,-246.68"/>
</a>
</g>
</g>
<!-- Node35 -->
<g id="Node000035" class="node">
<title>Node35</title>
<g id="a_Node000035"><a xlink:href="actors__extended_8c.html" target="_top" xlink:title=" ">
<polygon fill="white" stroke="#666666" points="3415.5,-200.5 3259.5,-200.5 3259.5,-181.5 3415.5,-181.5 3415.5,-200.5"/>
<text text-anchor="middle" x="3337.5" y="-188.5" font-family="Helvetica,sans-Serif" font-size="10.00">src/racing/actors_extended.c</text>
</a>
</g>
</g>
<!-- Node1&#45;&gt;Node35 -->
<g id="edge50_Node000001_Node000035" class="edge">
<title>Node1&#45;&gt;Node35</title>
<g id="a_edge50_Node000001_Node000035"><a xlink:title=" ">
<path fill="none" stroke="#63b8ff" d="M1742.41,-249.85C1991.94,-246.99 2949.63,-234.35 3250.5,-206 3263.9,-204.74 3278.37,-202.69 3291.59,-200.54"/>
<polygon fill="#63b8ff" stroke="#63b8ff" points="1742.06,-246.36 1732.1,-249.97 1742.14,-253.36 1742.06,-246.36"/>
</a>
</g>
</g>
<!-- Node36 -->
<g id="Node000036" class="node">
<title>Node36</title>
<g id="a_Node000036"><a xlink:href="memory_8c.html" target="_top" xlink:title=" ">
<polygon fill="white" stroke="#666666" points="3549,-200.5 3434,-200.5 3434,-181.5 3549,-181.5 3549,-200.5"/>
<text text-anchor="middle" x="3491.5" y="-188.5" font-family="Helvetica,sans-Serif" font-size="10.00">src/racing/memory.c</text>
</a>
</g>
</g>
<!-- Node1&#45;&gt;Node36 -->
<g id="edge51_Node000001_Node000036" class="edge">
<title>Node1&#45;&gt;Node36</title>
<g id="a_edge51_Node000001_Node000036"><a xlink:title=" ">
<path fill="none" stroke="#63b8ff" d="M1742.43,-250.42C2008.95,-249.84 3088.29,-245.1 3424.5,-206 3435.01,-204.78 3446.3,-202.71 3456.57,-200.54"/>
<polygon fill="#63b8ff" stroke="#63b8ff" points="1742.18,-246.92 1732.18,-250.44 1742.19,-253.92 1742.18,-246.92"/>
</a>
</g>
</g>
<!-- Node37 -->
<g id="Node000037" class="node">
<title>Node37</title>
<g id="a_Node000037"><a xlink:href="render__courses_8c.html" target="_top" xlink:title=" ">
<polygon fill="white" stroke="#666666" points="3716,-200.5 3567,-200.5 3567,-181.5 3716,-181.5 3716,-200.5"/>
<text text-anchor="middle" x="3641.5" y="-188.5" font-family="Helvetica,sans-Serif" font-size="10.00">src/racing/render_courses.c</text>
</a>
</g>
</g>
<!-- Node1&#45;&gt;Node37 -->
<g id="edge53_Node000001_Node000037" class="edge">
<title>Node1&#45;&gt;Node37</title>
<g id="a_edge53_Node000001_Node000037"><a xlink:title=" ">
<path fill="none" stroke="#63b8ff" d="M1742.38,-250.24C2021.16,-248.83 3193.69,-240.91 3558.5,-206 3571.45,-204.76 3585.42,-202.69 3598.15,-200.52"/>
<polygon fill="#63b8ff" stroke="#63b8ff" points="1742.06,-246.74 1732.07,-250.29 1742.09,-253.74 1742.06,-246.74"/>
</a>
</g>
</g>
<!-- Node38 -->
<g id="Node000038" class="node">
<title>Node38</title>
<g id="a_Node000038"><a xlink:href="render__player_8c.html" target="_top" xlink:title=" ">
<polygon fill="white" stroke="#666666" points="3843,-200.5 3734,-200.5 3734,-181.5 3843,-181.5 3843,-200.5"/>
<text text-anchor="middle" x="3788.5" y="-188.5" font-family="Helvetica,sans-Serif" font-size="10.00">src/render_player.c</text>
</a>
</g>
</g>
<!-- Node1&#45;&gt;Node38 -->
<g id="edge54_Node000001_Node000038" class="edge">
<title>Node1&#45;&gt;Node38</title>
<g id="a_edge54_Node000001_Node000038"><a xlink:title=" ">
<path fill="none" stroke="#63b8ff" d="M1742.46,-250.79C2036.38,-251.94 3326.94,-254.15 3725.5,-206 3735.51,-204.79 3746.27,-202.7 3756.01,-200.5"/>
<polygon fill="#63b8ff" stroke="#63b8ff" points="1742.44,-247.29 1732.43,-250.75 1742.41,-254.29 1742.44,-247.29"/>
</a>
</g>
</g>
<!-- Node39 -->
<g id="Node000039" class="node">
<title>Node39</title>
<g id="a_Node000039"><a xlink:href="staff__ghosts_8c.html" target="_top" xlink:title=" ">
<polygon fill="white" stroke="#666666" points="3962,-200.5 3861,-200.5 3861,-181.5 3962,-181.5 3962,-200.5"/>
<text text-anchor="middle" x="3911.5" y="-188.5" font-family="Helvetica,sans-Serif" font-size="10.00">src/staff_ghosts.c</text>
</a>
</g>
</g>
<!-- Node1&#45;&gt;Node39 -->
<g id="edge57_Node000001_Node000039" class="edge">
<title>Node1&#45;&gt;Node39</title>
<g id="a_edge57_Node000001_Node000039"><a xlink:title=" ">
<path fill="none" stroke="#63b8ff" d="M1742.63,-250.03C2070.78,-247.36 3638.49,-233.27 3852.5,-206 3861.9,-204.8 3871.98,-202.72 3881.1,-200.51"/>
<polygon fill="#63b8ff" stroke="#63b8ff" points="1742.35,-246.53 1732.38,-250.11 1742.41,-253.53 1742.35,-246.53"/>
</a>
</g>
</g>
<!-- Node2&#45;&gt;Node3 -->
<g id="edge2_Node000002_Node000003" class="edge">
<title>Node2&#45;&gt;Node3</title>
<g id="a_edge2_Node000002_Node000003"><a xlink:title=" ">
<path fill="none" stroke="#63b8ff" d="M365.27,-177.68C397.88,-165.03 447.76,-145.68 476.34,-134.6"/>
<polygon fill="#63b8ff" stroke="#63b8ff" points="363.81,-174.49 355.75,-181.37 366.34,-181.02 363.81,-174.49"/>
</a>
</g>
</g>
<!-- Node4 -->
<g id="Node000004" class="node">
<title>Node4</title>
<g id="a_Node000004"><a xlink:href="debug_8inc_8c.html" target="_top" xlink:title=" ">
<polygon fill="white" stroke="#666666" points="339.5,-74 217.5,-74 217.5,-55 339.5,-55 339.5,-74"/>
<text text-anchor="middle" x="278.5" y="-62" font-family="Helvetica,sans-Serif" font-size="10.00">src/debug/debug.inc.c</text>
</a>
</g>
</g>
<!-- Node2&#45;&gt;Node4 -->
<g id="edge6_Node000002_Node000004" class="edge">
<title>Node2&#45;&gt;Node4</title>
<g id="a_edge6_Node000002_Node000004"><a xlink:title=" ">
<path fill="none" stroke="#63b8ff" d="M293.56,-177.44C275.85,-169.66 256.73,-157.68 246.5,-140 233.39,-117.34 256.22,-88.28 269.69,-74.08"/>
<polygon fill="#63b8ff" stroke="#63b8ff" points="292.61,-180.84 303.19,-181.35 295.24,-174.35 292.61,-180.84"/>
</a>
</g>
</g>
<!-- Node5 -->
<g id="Node000005" class="node">
<title>Node5</title>
<g id="a_Node000005"><a xlink:href="debug_8c.html" target="_top" xlink:title=" ">
<polygon fill="white" stroke="#666666" points="286,-19 181,-19 181,0 286,0 286,-19"/>
<text text-anchor="middle" x="233.5" y="-7" font-family="Helvetica,sans-Serif" font-size="10.00">src/debug/debug.c</text>
</a>
</g>
</g>
<!-- Node2&#45;&gt;Node5 -->
<g id="edge5_Node000002_Node000005" class="edge">
<title>Node2&#45;&gt;Node5</title>
<g id="a_edge5_Node000002_Node000005"><a xlink:title=" ">
<path fill="none" stroke="#63b8ff" d="M298.1,-177.59C278.8,-169.37 255.63,-156.95 239.5,-140 211.78,-110.87 198.32,-93.9 208.5,-55 212.04,-41.46 220.74,-27.68 226.87,-19.12"/>
<polygon fill="#63b8ff" stroke="#63b8ff" points="296.91,-180.88 307.49,-181.39 299.54,-174.39 296.91,-180.88"/>
</a>
</g>
</g>
<!-- Node2&#45;&gt;Node6 -->
<g id="edge7_Node000002_Node000006" class="edge">
<title>Node2&#45;&gt;Node6</title>
<g id="a_edge7_Node000002_Node000006"><a xlink:title=" ">
<path fill="none" stroke="#63b8ff" d="M333.5,-171.08C333.5,-159.13 333.5,-144.22 333.5,-134.91"/>
<polygon fill="#63b8ff" stroke="#63b8ff" points="330,-171.37 333.5,-181.37 337,-171.37 330,-171.37"/>
</a>
</g>
</g>
<!-- Node7 -->
<g id="Node000007" class="node">
<title>Node7</title>
<g id="a_Node000007"><a xlink:href="podium__ceremony__actors_8c.html" target="_top" xlink:title=" ">
<polygon fill="white" stroke="#666666" points="161,-140 0,-140 0,-110 161,-110 161,-140"/>
<text text-anchor="start" x="8" y="-128" font-family="Helvetica,sans-Serif" font-size="10.00">src/ending/podium_ceremony</text>
<text text-anchor="middle" x="80.5" y="-117" font-family="Helvetica,sans-Serif" font-size="10.00">_actors.c</text>
</a>
</g>
</g>
<!-- Node2&#45;&gt;Node7 -->
<g id="edge8_Node000002_Node000007" class="edge">
<title>Node2&#45;&gt;Node7</title>
<g id="a_edge8_Node000002_Node000007"><a xlink:title=" ">
<path fill="none" stroke="#63b8ff" d="M289.84,-178.96C247.22,-168.17 182.2,-151.73 135.94,-140.02"/>
<polygon fill="#63b8ff" stroke="#63b8ff" points="289.09,-182.38 299.64,-181.44 290.81,-175.59 289.09,-182.38"/>
</a>
</g>
</g>
<!-- Node2&#45;&gt;Node8 -->
<g id="edge9_Node000002_Node000008" class="edge">
<title>Node2&#45;&gt;Node8</title>
<g id="a_edge9_Node000002_Node000008"><a xlink:title=" ">
<path fill="none" stroke="#63b8ff" d="M390.79,-180.08C440.29,-171.07 513.59,-156.66 576.5,-140 582.42,-138.43 588.72,-136.52 594.63,-134.62"/>
<polygon fill="#63b8ff" stroke="#63b8ff" points="390.12,-176.65 380.9,-181.87 391.37,-183.54 390.12,-176.65"/>
</a>
</g>
</g>
<!-- Node3&#45;&gt;Node4 -->
<g id="edge3_Node000003_Node000004" class="edge">
<title>Node3&#45;&gt;Node4</title>
<g id="a_edge3_Node000003_Node000004"><a xlink:title=" ">
<path fill="none" stroke="#63b8ff" d="M456.74,-112.9C414.2,-101.58 349.16,-84.29 310.53,-74.02"/>
<polygon fill="#63b8ff" stroke="#63b8ff" points="455.95,-116.31 466.51,-115.49 457.75,-109.54 455.95,-116.31"/>
</a>
</g>
</g>
<!-- Node4&#45;&gt;Node5 -->
<g id="edge4_Node000004_Node000005" class="edge">
<title>Node4&#45;&gt;Node5</title>
<g id="a_edge4_Node000004_Node000005"><a xlink:title=" ">
<path fill="none" stroke="#63b8ff" d="M264.45,-46.96C256.61,-37.72 247.17,-26.6 240.79,-19.09"/>
<polygon fill="#63b8ff" stroke="#63b8ff" points="261.93,-49.39 271.07,-54.75 267.26,-44.86 261.93,-49.39"/>
</a>
</g>
</g>
<!-- Node28&#45;&gt;Node3 -->
<g id="edge39_Node000028_Node000003" class="edge">
<title>Node28&#45;&gt;Node3</title>
<g id="a_edge39_Node000028_Node000003"><a xlink:title=" ">
<path fill="none" stroke="#63b8ff" d="M1298.2,-188.76C1176.61,-185.21 848.17,-173.09 576.5,-140 564.89,-138.59 552.39,-136.57 540.87,-134.5"/>
<polygon fill="#63b8ff" stroke="#63b8ff" points="1298.21,-192.26 1308.3,-189.04 1298.41,-185.26 1298.21,-192.26"/>
</a>
</g>
</g>
<!-- Node28&#45;&gt;Node8 -->
<g id="edge42_Node000028_Node000008" class="edge">
<title>Node28&#45;&gt;Node8</title>
<g id="a_edge42_Node000028_Node000008"><a xlink:title=" ">
<path fill="none" stroke="#63b8ff" d="M1298.14,-190.57C1185.39,-191.02 896.78,-187.03 661.5,-140 655.02,-138.7 648.15,-136.7 641.89,-134.61"/>
<polygon fill="#63b8ff" stroke="#63b8ff" points="1298.2,-194.07 1308.18,-190.52 1298.16,-187.07 1298.2,-194.07"/>
</a>
</g>
</g>
<!-- Node28&#45;&gt;Node11 -->
<g id="edge33_Node000028_Node000011" class="edge">
<title>Node28&#45;&gt;Node11</title>
<g id="a_edge33_Node000028_Node000011"><a xlink:title=" ">
<path fill="none" stroke="#63b8ff" d="M1297.96,-187.35C1202.24,-181.72 982.52,-166.85 799.5,-140 789.46,-138.53 778.68,-136.54 768.69,-134.52"/>
<polygon fill="#63b8ff" stroke="#63b8ff" points="1298.01,-190.85 1308.2,-187.94 1298.42,-183.87 1298.01,-190.85"/>
</a>
</g>
</g>
<!-- Node28&#45;&gt;Node12 -->
<g id="edge34_Node000028_Node000012" class="edge">
<title>Node28&#45;&gt;Node12</title>
<g id="a_edge34_Node000028_Node000012"><a xlink:title=" ">
<path fill="none" stroke="#63b8ff" d="M1297.99,-185.32C1221.22,-177.62 1067.15,-161.04 937.5,-140 927.85,-138.43 917.49,-136.48 907.81,-134.53"/>
<polygon fill="#63b8ff" stroke="#63b8ff" points="1298,-188.83 1308.3,-186.34 1298.69,-181.87 1298,-188.83"/>
</a>
</g>
</g>
<!-- Node28&#45;&gt;Node13 -->
<g id="edge35_Node000028_Node000013" class="edge">
<title>Node28&#45;&gt;Node13</title>
<g id="a_edge35_Node000028_Node000013"><a xlink:title=" ">
<path fill="none" stroke="#63b8ff" d="M1298.29,-181.37C1244.07,-171.6 1153.38,-155.08 1075.5,-140 1066.62,-138.28 1057.11,-136.38 1048.07,-134.56"/>
<polygon fill="#63b8ff" stroke="#63b8ff" points="1297.85,-184.85 1308.31,-183.17 1299.09,-177.96 1297.85,-184.85"/>
</a>
</g>
</g>
<!-- Node28&#45;&gt;Node14 -->
<g id="edge36_Node000028_Node000014" class="edge">
<title>Node28&#45;&gt;Node14</title>
<g id="a_edge36_Node000028_Node000014"><a xlink:title=" ">
<path fill="none" stroke="#63b8ff" d="M1309.46,-178.32C1269.42,-165.7 1206.53,-145.87 1170.77,-134.6"/>
<polygon fill="#63b8ff" stroke="#63b8ff" points="1308.53,-181.7 1319.12,-181.37 1310.64,-175.02 1308.53,-181.7"/>
</a>
</g>
</g>
<!-- Node28&#45;&gt;Node15 -->
<g id="edge37_Node000028_Node000015" class="edge">
<title>Node28&#45;&gt;Node15</title>
<g id="a_edge37_Node000028_Node000015"><a xlink:title=" ">
<path fill="none" stroke="#63b8ff" d="M1330.34,-174.33C1317.56,-161.94 1300.18,-145.09 1289.68,-134.91"/>
<polygon fill="#63b8ff" stroke="#63b8ff" points="1327.98,-176.92 1337.6,-181.37 1332.86,-171.89 1327.98,-176.92"/>
</a>
</g>
</g>
<!-- Node28&#45;&gt;Node18 -->
<g id="edge38_Node000028_Node000018" class="edge">
<title>Node28&#45;&gt;Node18</title>
<g id="a_edge38_Node000028_Node000018"><a xlink:title=" ">
<path fill="none" stroke="#63b8ff" d="M1385.01,-178.48C1427.2,-165.87 1493.9,-145.92 1531.76,-134.6"/>
<polygon fill="#63b8ff" stroke="#63b8ff" points="1383.94,-175.15 1375.36,-181.37 1385.94,-181.86 1383.94,-175.15"/>
</a>
</g>
</g>
<!-- Node28&#45;&gt;Node22 -->
<g id="edge40_Node000028_Node000022" class="edge">
<title>Node28&#45;&gt;Node22</title>
<g id="a_edge40_Node000028_Node000022"><a xlink:title=" ">
<path fill="none" stroke="#63b8ff" d="M1394.53,-181.67C1464.87,-169.47 1595.24,-146.86 1666.26,-134.54"/>
<polygon fill="#63b8ff" stroke="#63b8ff" points="1393.85,-178.23 1384.6,-183.39 1395.05,-185.13 1393.85,-178.23"/>
</a>
</g>
</g>
<!-- Node28&#45;&gt;Node24 -->
<g id="edge41_Node000028_Node000024" class="edge">
<title>Node28&#45;&gt;Node24</title>
<g id="a_edge41_Node000028_Node000024"><a xlink:title=" ">
<path fill="none" stroke="#63b8ff" d="M1394.99,-184.69C1512.17,-171.86 1801.25,-140.21 1802.5,-140 1811.42,-138.51 1820.99,-136.54 1829.88,-134.54"/>
<polygon fill="#63b8ff" stroke="#63b8ff" points="1394.42,-181.23 1384.86,-185.8 1395.18,-188.19 1394.42,-181.23"/>
</a>
</g>
</g>
<!-- Node28&#45;&gt;Node27 -->
<g id="edge43_Node000028_Node000027" class="edge">
<title>Node28&#45;&gt;Node27</title>
<g id="a_edge43_Node000028_Node000027"><a xlink:title=" ">
<path fill="none" stroke="#63b8ff" d="M1394.78,-185.9C1532.87,-174.18 1919.98,-141.24 1926.5,-140 1933.69,-138.63 1941.36,-136.6 1948.37,-134.51"/>
<polygon fill="#63b8ff" stroke="#63b8ff" points="1394.18,-182.44 1384.51,-186.77 1394.77,-189.42 1394.18,-182.44"/>
</a>
</g>
</g>
<!-- Node28&#45;&gt;Node29 -->
<g id="edge44_Node000028_Node000029" class="edge">
<title>Node28&#45;&gt;Node29</title>
<g id="a_edge44_Node000028_Node000029"><a xlink:title=" ">
<path fill="none" stroke="#63b8ff" d="M1394.77,-186.58C1543.96,-175.99 1989.56,-144.18 2020.5,-140 2030.96,-138.59 2042.2,-136.59 2052.58,-134.55"/>
<polygon fill="#63b8ff" stroke="#63b8ff" points="1394.28,-183.11 1384.55,-187.31 1394.77,-190.09 1394.28,-183.11"/>
</a>
</g>
</g>
<!-- Node30 -->
<g id="Node000030" class="node">
<title>Node30</title>
<g id="a_Node000030"><a xlink:href="skybox__and__splitscreen_8c.html" target="_top" xlink:title=" ">
<polygon fill="white" stroke="#666666" points="1483,-140 1358,-140 1358,-110 1483,-110 1483,-140"/>
<text text-anchor="start" x="1366" y="-128" font-family="Helvetica,sans-Serif" font-size="10.00">src/racing/skybox_and</text>
<text text-anchor="middle" x="1420.5" y="-117" font-family="Helvetica,sans-Serif" font-size="10.00">_splitscreen.c</text>
</a>
</g>
</g>
<!-- Node28&#45;&gt;Node30 -->
<g id="edge45_Node000028_Node000030" class="edge">
<title>Node28&#45;&gt;Node30</title>
<g id="a_edge45_Node000028_Node000030"><a xlink:title=" ">
<path fill="none" stroke="#63b8ff" d="M1364.17,-174.71C1376.32,-164.21 1392.33,-150.36 1404.18,-140.12"/>
<polygon fill="#63b8ff" stroke="#63b8ff" points="1361.75,-172.18 1356.48,-181.37 1366.33,-177.47 1361.75,-172.18"/>
</a>
</g>
</g>
<!-- Node28&#45;&gt;Node31 -->
<g id="edge46_Node000028_Node000031" class="edge">
<title>Node28&#45;&gt;Node31</title>
<g id="a_edge46_Node000028_Node000031"><a xlink:title=" ">
<path fill="none" stroke="#63b8ff" d="M1394.67,-187.23C1567.11,-177.27 2144.53,-143.75 2163.5,-140 2169.99,-138.72 2176.87,-136.66 2183.09,-134.52"/>
<polygon fill="#63b8ff" stroke="#63b8ff" points="1394.4,-183.74 1384.61,-187.81 1394.8,-190.72 1394.4,-183.74"/>
</a>
</g>
</g>
<!-- Node28&#45;&gt;Node32 -->
<g id="edge47_Node000028_Node000032" class="edge">
<title>Node28&#45;&gt;Node32</title>
<g id="a_edge47_Node000028_Node000032"><a xlink:title=" ">
<path fill="none" stroke="#63b8ff" d="M1394.51,-187.54C1574.88,-178.26 2204.01,-145.65 2246.5,-140 2256.49,-138.67 2267.21,-136.66 2277.05,-134.56"/>
<polygon fill="#63b8ff" stroke="#63b8ff" points="1394.32,-184.04 1384.52,-188.05 1394.68,-191.03 1394.32,-184.04"/>
</a>
</g>
</g>
</g>
</svg>
