<?xml version="1.0" encoding="UTF-8" standalone="no"?>
<!DOCTYPE svg PUBLIC "-//W3C//DTD SVG 1.1//EN"
 "http://www.w3.org/Graphics/SVG/1.1/DTD/svg11.dtd">
<!-- Generated by graphviz version 2.43.0 (0)
 -->
<!-- Title: src/actors Pages: 1 -->
<svg width="2048pt" height="141pt"
 viewBox="0.00 0.00 2048.00 141.00" xmlns="http://www.w3.org/2000/svg" xmlns:xlink="http://www.w3.org/1999/xlink">
<g id="graph0" class="graph" transform="scale(1 1) rotate(0) translate(4 137)">
<title>src/actors</title>
<g id="clust1" class="cluster">
<title>clusterdir_68267d1309a1af8e8297ef4c3efbcdba</title>
<g id="a_clust1"><a xlink:href="dir_68267d1309a1af8e8297ef4c3efbcdba.html" target="_top" xlink:title="src">
<polygon fill="#daedff" stroke="#404040" stroke-dasharray="5,2" points="8,-8 8,-125 1908,-125 1908,-8 8,-8"/>
<text text-anchor="middle" x="958" y="-113" font-family="Helvetica,sans-Serif" font-size="10.00">src</text>
</a>
</g>
</g>
<g id="clust2" class="cluster">
<title>clusterdir_520494cf19be961f9d881ed04931ae5b</title>
<g id="a_clust2"><a xlink:href="dir_520494cf19be961f9d881ed04931ae5b.html" target="_top">
<polygon fill="#daedff" stroke="#404040" stroke-width="2" points="16,-63 16,-98 1900,-98 1900,-63 16,-63"/>
</a>
</g>
</g>
<!-- dir_b624d86e5671d82a613a73eb9566e66f -->
<g id="node1" class="node">
<title>dir_b624d86e5671d82a613a73eb9566e66f</title>
<g id="a_node1"><a xlink:href="dir_b624d86e5671d82a613a73eb9566e66f.html" target="_top" xlink:title="racing">
<polygon fill="#4ea9ff" stroke="#404040" points="984.5,-35 937.5,-35 937.5,-16 984.5,-16 984.5,-35"/>
<text text-anchor="middle" x="961" y="-23" font-family="Helvetica,sans-Serif" font-size="10.00">racing</text>
</a>
</g>
</g>
<!-- dir_520494cf19be961f9d881ed04931ae5b -->
<g id="node2" class="node">
<title>dir_520494cf19be961f9d881ed04931ae5b</title>
<text text-anchor="middle" x="1868" y="-78" font-family="Helvetica,sans-Serif" font-size="10.00">actors</text>
</g>
<!-- dir_c2bf07cbd3db5f76cf529844275ce26f -->
<g id="node3" class="node">
<title>dir_c2bf07cbd3db5f76cf529844275ce26f</title>
<g id="a_node3"><a xlink:href="dir_c2bf07cbd3db5f76cf529844275ce26f.html" target="_top" xlink:title="banana">
<polygon fill="#4ea9ff" stroke="#404040" points="1672.5,-90 1619.5,-90 1619.5,-71 1672.5,-71 1672.5,-90"/>
<text text-anchor="middle" x="1646" y="-78" font-family="Helvetica,sans-Serif" font-size="10.00">banana</text>
</a>
</g>
</g>
<!-- dir_c2bf07cbd3db5f76cf529844275ce26f&#45;&gt;dir_b624d86e5671d82a613a73eb9566e66f -->
<g id="edge1" class="edge">
<title>dir_c2bf07cbd3db5f76cf529844275ce26f&#45;&gt;dir_b624d86e5671d82a613a73eb9566e66f</title>
<g id="a_edge1"><a xlink:href="dir_000003_000042.html" target="_top">
<path fill="none" stroke="#63b8ff" d="M1630.69,-70.95C1624.46,-67.88 1617.07,-64.75 1610,-63 1491.7,-33.68 1110.98,-27.85 994.91,-26.75"/>
<polygon fill="#63b8ff" stroke="#63b8ff" points="994.86,-23.25 984.83,-26.66 994.8,-30.25 994.86,-23.25"/>
</a>
</g>
<g id="a_edge1&#45;headlabel"><a xlink:href="dir_000003_000042.html" target="_top" xlink:title="2">
<text text-anchor="middle" x="998.48" y="-17.94" font-family="Helvetica,sans-Serif" font-size="10.00" fill="#63b8ff">2</text>
</a>
</g>
</g>
<!-- dir_d44c64559bbebec7f509842c48db8b23 -->
<g id="node24" class="node">
<title>dir_d44c64559bbebec7f509842c48db8b23</title>
<g id="a_node24"><a xlink:href="dir_d44c64559bbebec7f509842c48db8b23.html" target="_top" xlink:title="include">
<polygon fill="#daedff" stroke="red" points="1968,-35 1916,-35 1916,-16 1968,-16 1968,-35"/>
<text text-anchor="middle" x="1942" y="-23" font-family="Helvetica,sans-Serif" font-size="10.00">include</text>
</a>
</g>
</g>
<!-- dir_c2bf07cbd3db5f76cf529844275ce26f&#45;&gt;dir_d44c64559bbebec7f509842c48db8b23 -->
<g id="edge2" class="edge">
<title>dir_c2bf07cbd3db5f76cf529844275ce26f&#45;&gt;dir_d44c64559bbebec7f509842c48db8b23</title>
<g id="a_edge2"><a xlink:href="dir_000003_000026.html" target="_top">
<path fill="none" stroke="#63b8ff" d="M1662.08,-70.84C1668.17,-67.91 1675.25,-64.91 1682,-63 1777.9,-35.89 1809.05,-54.06 1905.97,-36.08"/>
<polygon fill="#63b8ff" stroke="#63b8ff" points="1906.73,-39.5 1915.88,-34.16 1905.4,-32.62 1906.73,-39.5"/>
</a>
</g>
<g id="a_edge2&#45;headlabel"><a xlink:href="dir_000003_000026.html" target="_top" xlink:title="2">
<text text-anchor="middle" x="1903.74" y="-40.47" font-family="Helvetica,sans-Serif" font-size="10.00" fill="#63b8ff">2</text>
</a>
</g>
</g>
<!-- dir_74937bb8182fa56f297a3fd9c5a72781 -->
<g id="node4" class="node">
<title>dir_74937bb8182fa56f297a3fd9c5a72781</title>
<g id="a_node4"><a xlink:href="dir_74937bb8182fa56f297a3fd9c5a72781.html" target="_top" xlink:title="blue_and_red_shells">
<polygon fill="#4ea9ff" stroke="#404040" points="1601,-90 1485,-90 1485,-71 1601,-71 1601,-90"/>
<text text-anchor="middle" x="1543" y="-78" font-family="Helvetica,sans-Serif" font-size="10.00">blue_and_red_shells</text>
</a>
</g>
</g>
<!-- dir_74937bb8182fa56f297a3fd9c5a72781&#45;&gt;dir_b624d86e5671d82a613a73eb9566e66f -->
<g id="edge3" class="edge">
<title>dir_74937bb8182fa56f297a3fd9c5a72781&#45;&gt;dir_b624d86e5671d82a613a73eb9566e66f</title>
<g id="a_edge3"><a xlink:href="dir_000008_000042.html" target="_top">
<path fill="none" stroke="#63b8ff" d="M1512.87,-70.92C1501.42,-67.96 1488.19,-64.92 1476,-63 1295.96,-34.66 1077.02,-28.31 994.56,-26.9"/>
<polygon fill="#63b8ff" stroke="#63b8ff" points="994.57,-23.4 984.52,-26.74 994.46,-30.4 994.57,-23.4"/>
</a>
</g>
<g id="a_edge3&#45;headlabel"><a xlink:href="dir_000008_000042.html" target="_top" xlink:title="3">
<text text-anchor="middle" x="998.21" y="-18.12" font-family="Helvetica,sans-Serif" font-size="10.00" fill="#63b8ff">3</text>
</a>
</g>
</g>
<!-- dir_74937bb8182fa56f297a3fd9c5a72781&#45;&gt;dir_d44c64559bbebec7f509842c48db8b23 -->
<g id="edge4" class="edge">
<title>dir_74937bb8182fa56f297a3fd9c5a72781&#45;&gt;dir_d44c64559bbebec7f509842c48db8b23</title>
<g id="a_edge4"><a xlink:href="dir_000008_000026.html" target="_top">
<path fill="none" stroke="#63b8ff" d="M1573.95,-70.99C1585.5,-68.07 1598.78,-65.04 1611,-63 1740.16,-41.44 1778.01,-58.71 1905.72,-36.06"/>
<polygon fill="#63b8ff" stroke="#63b8ff" points="1906.68,-39.44 1915.89,-34.2 1905.42,-32.55 1906.68,-39.44"/>
</a>
</g>
<g id="a_edge4&#45;headlabel"><a xlink:href="dir_000008_000026.html" target="_top" xlink:title="3">
<text text-anchor="middle" x="1903.65" y="-40.38" font-family="Helvetica,sans-Serif" font-size="10.00" fill="#63b8ff">3</text>
</a>
</g>
</g>
<!-- dir_1ae522896ee2dd835300d6a3fdb378ec -->
<g id="node5" class="node">
<title>dir_1ae522896ee2dd835300d6a3fdb378ec</title>
<g id="a_node5"><a xlink:href="dir_1ae522896ee2dd835300d6a3fdb378ec.html" target="_top" xlink:title="box_truck">
<polygon fill="#4ea9ff" stroke="#404040" points="1466.5,-90 1401.5,-90 1401.5,-71 1466.5,-71 1466.5,-90"/>
<text text-anchor="middle" x="1434" y="-78" font-family="Helvetica,sans-Serif" font-size="10.00">box_truck</text>
</a>
</g>
</g>
<!-- dir_1ae522896ee2dd835300d6a3fdb378ec&#45;&gt;dir_b624d86e5671d82a613a73eb9566e66f -->
<g id="edge5" class="edge">
<title>dir_1ae522896ee2dd835300d6a3fdb378ec&#45;&gt;dir_b624d86e5671d82a613a73eb9566e66f</title>
<g id="a_edge5"><a xlink:href="dir_000010_000042.html" target="_top">
<path fill="none" stroke="#63b8ff" d="M1415.55,-70.92C1408.35,-67.92 1399.93,-64.85 1392,-63 1247.03,-29.15 1068.11,-25.84 994.77,-26.07"/>
<polygon fill="#63b8ff" stroke="#63b8ff" points="994.71,-22.57 984.73,-26.12 994.75,-29.57 994.71,-22.57"/>
</a>
</g>
<g id="a_edge5&#45;headlabel"><a xlink:href="dir_000010_000042.html" target="_top" xlink:title="1">
<text text-anchor="middle" x="998.29" y="-17.21" font-family="Helvetica,sans-Serif" font-size="10.00" fill="#63b8ff">1</text>
</a>
</g>
</g>
<!-- dir_1ae522896ee2dd835300d6a3fdb378ec&#45;&gt;dir_d44c64559bbebec7f509842c48db8b23 -->
<g id="edge6" class="edge">
<title>dir_1ae522896ee2dd835300d6a3fdb378ec&#45;&gt;dir_d44c64559bbebec7f509842c48db8b23</title>
<g id="a_edge6"><a xlink:href="dir_000010_000026.html" target="_top">
<path fill="none" stroke="#63b8ff" d="M1452.43,-70.83C1459.62,-67.83 1468.05,-64.77 1476,-63 1662.29,-21.49 1718.7,-66.29 1906.01,-35.9"/>
<polygon fill="#63b8ff" stroke="#63b8ff" points="1906.61,-39.35 1915.9,-34.25 1905.46,-32.45 1906.61,-39.35"/>
</a>
</g>
<g id="a_edge6&#45;headlabel"><a xlink:href="dir_000010_000026.html" target="_top" xlink:title="2">
<text text-anchor="middle" x="1903.53" y="-40.24" font-family="Helvetica,sans-Serif" font-size="10.00" fill="#63b8ff">2</text>
</a>
</g>
</g>
<!-- dir_5bf4c70135565517cee60066cf0b486e -->
<g id="node6" class="node">
<title>dir_5bf4c70135565517cee60066cf0b486e</title>
<g id="a_node6"><a xlink:href="dir_5bf4c70135565517cee60066cf0b486e.html" target="_top" xlink:title="car">
<polygon fill="#4ea9ff" stroke="#404040" points="1383,-90 1351,-90 1351,-71 1383,-71 1383,-90"/>
<text text-anchor="middle" x="1367" y="-78" font-family="Helvetica,sans-Serif" font-size="10.00">car</text>
</a>
</g>
</g>
<!-- dir_5bf4c70135565517cee60066cf0b486e&#45;&gt;dir_b624d86e5671d82a613a73eb9566e66f -->
<g id="edge7" class="edge">
<title>dir_5bf4c70135565517cee60066cf0b486e&#45;&gt;dir_b624d86e5671d82a613a73eb9566e66f</title>
<g id="a_edge7"><a xlink:href="dir_000011_000042.html" target="_top">
<path fill="none" stroke="#63b8ff" d="M1356.42,-70.86C1352.18,-67.86 1347.1,-64.8 1342,-63 1278.36,-40.53 1075.84,-30.74 994.9,-27.65"/>
<polygon fill="#63b8ff" stroke="#63b8ff" points="994.88,-24.15 984.75,-27.28 994.62,-31.14 994.88,-24.15"/>
</a>
</g>
<g id="a_edge7&#45;headlabel"><a xlink:href="dir_000011_000042.html" target="_top" xlink:title="1">
<text text-anchor="middle" x="998.57" y="-18.94" font-family="Helvetica,sans-Serif" font-size="10.00" fill="#63b8ff">1</text>
</a>
</g>
</g>
<!-- dir_5bf4c70135565517cee60066cf0b486e&#45;&gt;dir_d44c64559bbebec7f509842c48db8b23 -->
<g id="edge8" class="edge">
<title>dir_5bf4c70135565517cee60066cf0b486e&#45;&gt;dir_d44c64559bbebec7f509842c48db8b23</title>
<g id="a_edge8"><a xlink:href="dir_000011_000026.html" target="_top">
<path fill="none" stroke="#63b8ff" d="M1377.76,-70.92C1382.22,-67.85 1387.6,-64.73 1393,-63 1500,-28.76 1782.07,-52.59 1905.84,-35.78"/>
<polygon fill="#63b8ff" stroke="#63b8ff" points="1906.53,-39.22 1915.9,-34.26 1905.49,-32.29 1906.53,-39.22"/>
</a>
</g>
<g id="a_edge8&#45;headlabel"><a xlink:href="dir_000011_000026.html" target="_top" xlink:title="1">
<text text-anchor="middle" x="1903.4" y="-40.06" font-family="Helvetica,sans-Serif" font-size="10.00" fill="#63b8ff">1</text>
</a>
</g>
</g>
<!-- dir_7aa598291e9b46b83c172d01488969a3 -->
<g id="node7" class="node">
<title>dir_7aa598291e9b46b83c172d01488969a3</title>
<g id="a_node7"><a xlink:href="dir_7aa598291e9b46b83c172d01488969a3.html" target="_top" xlink:title="cow">
<polygon fill="#4ea9ff" stroke="#404040" points="1333,-90 1297,-90 1297,-71 1333,-71 1333,-90"/>
<text text-anchor="middle" x="1315" y="-78" font-family="Helvetica,sans-Serif" font-size="10.00">cow</text>
</a>
</g>
</g>
<!-- dir_7aa598291e9b46b83c172d01488969a3&#45;&gt;dir_b624d86e5671d82a613a73eb9566e66f -->
<g id="edge9" class="edge">
<title>dir_7aa598291e9b46b83c172d01488969a3&#45;&gt;dir_b624d86e5671d82a613a73eb9566e66f</title>
<g id="a_edge9"><a xlink:href="dir_000015_000042.html" target="_top">
<path fill="none" stroke="#63b8ff" d="M1303.46,-70.91C1298.87,-67.92 1293.41,-64.85 1288,-63 1234.41,-44.65 1067.61,-32.83 995.16,-28.43"/>
<polygon fill="#63b8ff" stroke="#63b8ff" points="994.97,-24.91 984.78,-27.81 994.55,-31.9 994.97,-24.91"/>
</a>
</g>
<g id="a_edge9&#45;headlabel"><a xlink:href="dir_000015_000042.html" target="_top" xlink:title="1">
<text text-anchor="middle" x="998.72" y="-19.79" font-family="Helvetica,sans-Serif" font-size="10.00" fill="#63b8ff">1</text>
</a>
</g>
</g>
<!-- dir_7aa598291e9b46b83c172d01488969a3&#45;&gt;dir_d44c64559bbebec7f509842c48db8b23 -->
<g id="edge10" class="edge">
<title>dir_7aa598291e9b46b83c172d01488969a3&#45;&gt;dir_d44c64559bbebec7f509842c48db8b23</title>
<g id="a_edge10"><a xlink:href="dir_000015_000026.html" target="_top">
<path fill="none" stroke="#63b8ff" d="M1326.21,-70.91C1330.85,-67.84 1336.43,-64.71 1342,-63 1460.12,-26.61 1770.55,-54.06 1905.7,-35.79"/>
<polygon fill="#63b8ff" stroke="#63b8ff" points="1906.53,-39.21 1915.9,-34.27 1905.49,-32.29 1906.53,-39.21"/>
</a>
</g>
<g id="a_edge10&#45;headlabel"><a xlink:href="dir_000015_000026.html" target="_top" xlink:title="1">
<text text-anchor="middle" x="1903.39" y="-40.05" font-family="Helvetica,sans-Serif" font-size="10.00" fill="#63b8ff">1</text>
</a>
</g>
</g>
<!-- dir_8a4111354e3ab95d89c3f9aa42481ccc -->
<g id="node8" class="node">
<title>dir_8a4111354e3ab95d89c3f9aa42481ccc</title>
<g id="a_node8"><a xlink:href="dir_8a4111354e3ab95d89c3f9aa42481ccc.html" target="_top" xlink:title="fake_item_box">
<polygon fill="#4ea9ff" stroke="#404040" points="1278.5,-90 1189.5,-90 1189.5,-71 1278.5,-71 1278.5,-90"/>
<text text-anchor="middle" x="1234" y="-78" font-family="Helvetica,sans-Serif" font-size="10.00">fake_item_box</text>
</a>
</g>
</g>
<!-- dir_8a4111354e3ab95d89c3f9aa42481ccc&#45;&gt;dir_b624d86e5671d82a613a73eb9566e66f -->
<g id="edge11" class="edge">
<title>dir_8a4111354e3ab95d89c3f9aa42481ccc&#45;&gt;dir_b624d86e5671d82a613a73eb9566e66f</title>
<g id="a_edge11"><a xlink:href="dir_000022_000042.html" target="_top">
<path fill="none" stroke="#63b8ff" d="M1209.12,-70.98C1200.31,-68.17 1190.28,-65.2 1181,-63 1115.75,-47.51 1038.08,-36.27 994.67,-30.62"/>
<polygon fill="#63b8ff" stroke="#63b8ff" points="995.02,-27.14 984.65,-29.34 994.13,-34.08 995.02,-27.14"/>
</a>
</g>
<g id="a_edge11&#45;headlabel"><a xlink:href="dir_000022_000042.html" target="_top" xlink:title="2">
<text text-anchor="middle" x="998.94" y="-22.28" font-family="Helvetica,sans-Serif" font-size="10.00" fill="#63b8ff">2</text>
</a>
</g>
</g>
<!-- dir_8a4111354e3ab95d89c3f9aa42481ccc&#45;&gt;dir_d44c64559bbebec7f509842c48db8b23 -->
<g id="edge12" class="edge">
<title>dir_8a4111354e3ab95d89c3f9aa42481ccc&#45;&gt;dir_d44c64559bbebec7f509842c48db8b23</title>
<g id="a_edge12"><a xlink:href="dir_000022_000026.html" target="_top">
<path fill="none" stroke="#63b8ff" d="M1257.35,-70.96C1266.74,-67.9 1277.76,-64.77 1288,-63 1558.24,-16.42 1636.06,-77.82 1905.81,-35.88"/>
<polygon fill="#63b8ff" stroke="#63b8ff" points="1906.57,-39.3 1915.9,-34.28 1905.48,-32.39 1906.57,-39.3"/>
</a>
</g>
<g id="a_edge12&#45;headlabel"><a xlink:href="dir_000022_000026.html" target="_top" xlink:title="1">
<text text-anchor="middle" x="1903.47" y="-40.17" font-family="Helvetica,sans-Serif" font-size="10.00" fill="#63b8ff">1</text>
</a>
</g>
</g>
<!-- dir_9f92b7828d59819d17382ec6f8645008 -->
<g id="node9" class="node">
<title>dir_9f92b7828d59819d17382ec6f8645008</title>
<g id="a_node9"><a xlink:href="dir_9f92b7828d59819d17382ec6f8645008.html" target="_top" xlink:title="falling_rock">
<polygon fill="#4ea9ff" stroke="#404040" points="98,-90 24,-90 24,-71 98,-71 98,-90"/>
<text text-anchor="middle" x="61" y="-78" font-family="Helvetica,sans-Serif" font-size="10.00">falling_rock</text>
</a>
</g>
</g>
<!-- dir_9f92b7828d59819d17382ec6f8645008&#45;&gt;dir_b624d86e5671d82a613a73eb9566e66f -->
<g id="edge13" class="edge">
<title>dir_9f92b7828d59819d17382ec6f8645008&#45;&gt;dir_b624d86e5671d82a613a73eb9566e66f</title>
<g id="a_edge13"><a xlink:href="dir_000023_000042.html" target="_top">
<path fill="none" stroke="#63b8ff" d="M80.78,-70.93C88.77,-67.86 98.17,-64.73 107,-63 268.11,-31.42 788.66,-27.16 926.99,-26.59"/>
<polygon fill="#63b8ff" stroke="#63b8ff" points="927.38,-30.09 937.37,-26.55 927.35,-23.09 927.38,-30.09"/>
</a>
</g>
<g id="a_edge13&#45;headlabel"><a xlink:href="dir_000023_000042.html" target="_top" xlink:title="2">
<text text-anchor="middle" x="923.8" y="-30.44" font-family="Helvetica,sans-Serif" font-size="10.00" fill="#63b8ff">2</text>
</a>
</g>
</g>
<!-- dir_082d554c8445af69fa49f0d23f20fa3b -->
<g id="node10" class="node">
<title>dir_082d554c8445af69fa49f0d23f20fa3b</title>
<g id="a_node10"><a xlink:href="dir_082d554c8445af69fa49f0d23f20fa3b.html" target="_top" xlink:title="green_shell">
<polygon fill="#4ea9ff" stroke="#404040" points="1171.5,-90 1098.5,-90 1098.5,-71 1171.5,-71 1171.5,-90"/>
<text text-anchor="middle" x="1135" y="-78" font-family="Helvetica,sans-Serif" font-size="10.00">green_shell</text>
</a>
</g>
</g>
<!-- dir_082d554c8445af69fa49f0d23f20fa3b&#45;&gt;dir_b624d86e5671d82a613a73eb9566e66f -->
<g id="edge14" class="edge">
<title>dir_082d554c8445af69fa49f0d23f20fa3b&#45;&gt;dir_b624d86e5671d82a613a73eb9566e66f</title>
<g id="a_edge14"><a xlink:href="dir_000025_000042.html" target="_top">
<path fill="none" stroke="#63b8ff" d="M1112.17,-70.97C1104.81,-68.31 1096.59,-65.44 1089,-63 1057.15,-52.76 1020.38,-42.43 994.45,-35.38"/>
<polygon fill="#63b8ff" stroke="#63b8ff" points="995.3,-31.99 984.73,-32.76 993.48,-38.74 995.3,-31.99"/>
</a>
</g>
<g id="a_edge14&#45;headlabel"><a xlink:href="dir_000025_000042.html" target="_top" xlink:title="2">
<text text-anchor="middle" x="999.51" y="-27.68" font-family="Helvetica,sans-Serif" font-size="10.00" fill="#63b8ff">2</text>
</a>
</g>
</g>
<!-- dir_082d554c8445af69fa49f0d23f20fa3b&#45;&gt;dir_d44c64559bbebec7f509842c48db8b23 -->
<g id="edge15" class="edge">
<title>dir_082d554c8445af69fa49f0d23f20fa3b&#45;&gt;dir_d44c64559bbebec7f509842c48db8b23</title>
<g id="a_edge15"><a xlink:href="dir_000025_000026.html" target="_top">
<path fill="none" stroke="#63b8ff" d="M1154.78,-70.91C1162.77,-67.83 1172.17,-64.71 1181,-63 1496.92,-1.8 1589,-84.17 1905.98,-35.83"/>
<polygon fill="#63b8ff" stroke="#63b8ff" points="1906.56,-39.29 1915.9,-34.29 1905.48,-32.37 1906.56,-39.29"/>
</a>
</g>
<g id="a_edge15&#45;headlabel"><a xlink:href="dir_000025_000026.html" target="_top" xlink:title="3">
<text text-anchor="middle" x="1903.45" y="-40.14" font-family="Helvetica,sans-Serif" font-size="10.00" fill="#63b8ff">3</text>
</a>
</g>
</g>
<!-- dir_b358511119841a6b3a0e59dc0c8c249d -->
<g id="node11" class="node">
<title>dir_b358511119841a6b3a0e59dc0c8c249d</title>
<g id="a_node11"><a xlink:href="dir_b358511119841a6b3a0e59dc0c8c249d.html" target="_top" xlink:title="item_box">
<polygon fill="#4ea9ff" stroke="#404040" points="1080,-90 1018,-90 1018,-71 1080,-71 1080,-90"/>
<text text-anchor="middle" x="1049" y="-78" font-family="Helvetica,sans-Serif" font-size="10.00">item_box</text>
</a>
</g>
</g>
<!-- dir_b358511119841a6b3a0e59dc0c8c249d&#45;&gt;dir_b624d86e5671d82a613a73eb9566e66f -->
<g id="edge16" class="edge">
<title>dir_b358511119841a6b3a0e59dc0c8c249d&#45;&gt;dir_b624d86e5671d82a613a73eb9566e66f</title>
<g id="a_edge16"><a xlink:href="dir_000027_000042.html" target="_top">
<path fill="none" stroke="#63b8ff" d="M1034.86,-70.98C1021.21,-62.77 1000.31,-50.18 984.22,-40.49"/>
<polygon fill="#63b8ff" stroke="#63b8ff" points="985.77,-37.33 975.4,-35.17 982.16,-43.33 985.77,-37.33"/>
</a>
</g>
<g id="a_edge16&#45;headlabel"><a xlink:href="dir_000027_000042.html" target="_top" xlink:title="2">
<text text-anchor="middle" x="990.31" y="-34.25" font-family="Helvetica,sans-Serif" font-size="10.00" fill="#63b8ff">2</text>
</a>
</g>
</g>
<!-- dir_b358511119841a6b3a0e59dc0c8c249d&#45;&gt;dir_d44c64559bbebec7f509842c48db8b23 -->
<g id="edge17" class="edge">
<title>dir_b358511119841a6b3a0e59dc0c8c249d&#45;&gt;dir_d44c64559bbebec7f509842c48db8b23</title>
<g id="a_edge17"><a xlink:href="dir_000027_000026.html" target="_top">
<path fill="none" stroke="#63b8ff" d="M1066.54,-70.88C1073.65,-67.8 1082.04,-64.68 1090,-63 1265.68,-25.86 1715.25,-61.92 1905.92,-35.76"/>
<polygon fill="#63b8ff" stroke="#63b8ff" points="1906.52,-39.21 1915.9,-34.3 1905.5,-32.28 1906.52,-39.21"/>
</a>
</g>
<g id="a_edge17&#45;headlabel"><a xlink:href="dir_000027_000026.html" target="_top" xlink:title="1">
<text text-anchor="middle" x="1903.37" y="-40.04" font-family="Helvetica,sans-Serif" font-size="10.00" fill="#63b8ff">1</text>
</a>
</g>
</g>
<!-- dir_7679761027b1fa214ffd6938221a3b1c -->
<g id="node12" class="node">
<title>dir_7679761027b1fa214ffd6938221a3b1c</title>
<g id="a_node12"><a xlink:href="dir_7679761027b1fa214ffd6938221a3b1c.html" target="_top" xlink:title="kiwano_fruit">
<polygon fill="#4ea9ff" stroke="#404040" points="999.5,-90 922.5,-90 922.5,-71 999.5,-71 999.5,-90"/>
<text text-anchor="middle" x="961" y="-78" font-family="Helvetica,sans-Serif" font-size="10.00">kiwano_fruit</text>
</a>
</g>
</g>
<!-- dir_7679761027b1fa214ffd6938221a3b1c&#45;&gt;dir_b624d86e5671d82a613a73eb9566e66f -->
<g id="edge18" class="edge">
<title>dir_7679761027b1fa214ffd6938221a3b1c&#45;&gt;dir_b624d86e5671d82a613a73eb9566e66f</title>
<g id="a_edge18"><a xlink:href="dir_000029_000042.html" target="_top">
<path fill="none" stroke="#63b8ff" d="M961,-70.75C961,-63.8 961,-53.85 961,-45.13"/>
<polygon fill="#63b8ff" stroke="#63b8ff" points="964.5,-45.09 961,-35.09 957.5,-45.09 964.5,-45.09"/>
</a>
</g>
<g id="a_edge18&#45;headlabel"><a xlink:href="dir_000029_000042.html" target="_top" xlink:title="2">
<text text-anchor="middle" x="967.34" y="-46.18" font-family="Helvetica,sans-Serif" font-size="10.00" fill="#63b8ff">2</text>
</a>
</g>
</g>
<!-- dir_7679761027b1fa214ffd6938221a3b1c&#45;&gt;dir_d44c64559bbebec7f509842c48db8b23 -->
<g id="edge19" class="edge">
<title>dir_7679761027b1fa214ffd6938221a3b1c&#45;&gt;dir_d44c64559bbebec7f509842c48db8b23</title>
<g id="a_edge19"><a xlink:href="dir_000029_000026.html" target="_top">
<path fill="none" stroke="#63b8ff" d="M981.66,-70.88C990,-67.8 999.81,-64.68 1009,-63 1400.69,8.7 1513.33,-94.67 1905.99,-35.81"/>
<polygon fill="#63b8ff" stroke="#63b8ff" points="1906.55,-39.27 1915.9,-34.3 1905.49,-32.35 1906.55,-39.27"/>
</a>
</g>
<g id="a_edge19&#45;headlabel"><a xlink:href="dir_000029_000026.html" target="_top" xlink:title="3">
<text text-anchor="middle" x="1903.42" y="-40.12" font-family="Helvetica,sans-Serif" font-size="10.00" fill="#63b8ff">3</text>
</a>
</g>
</g>
<!-- dir_62d3fde728cbe4bcb49283a4ea9d1f64 -->
<g id="node13" class="node">
<title>dir_62d3fde728cbe4bcb49283a4ea9d1f64</title>
<g id="a_node13"><a xlink:href="dir_62d3fde728cbe4bcb49283a4ea9d1f64.html" target="_top" xlink:title="mario_sign">
<polygon fill="#4ea9ff" stroke="#404040" points="187.5,-90 116.5,-90 116.5,-71 187.5,-71 187.5,-90"/>
<text text-anchor="middle" x="152" y="-78" font-family="Helvetica,sans-Serif" font-size="10.00">mario_sign</text>
</a>
</g>
</g>
<!-- dir_62d3fde728cbe4bcb49283a4ea9d1f64&#45;&gt;dir_b624d86e5671d82a613a73eb9566e66f -->
<g id="edge20" class="edge">
<title>dir_62d3fde728cbe4bcb49283a4ea9d1f64&#45;&gt;dir_b624d86e5671d82a613a73eb9566e66f</title>
<g id="a_edge20"><a xlink:href="dir_000034_000042.html" target="_top">
<path fill="none" stroke="#63b8ff" d="M171.34,-70.95C179.15,-67.88 188.35,-64.75 197,-63 339.74,-34.13 798.71,-27.94 927.26,-26.75"/>
<polygon fill="#63b8ff" stroke="#63b8ff" points="927.33,-30.25 937.3,-26.67 927.27,-23.25 927.33,-30.25"/>
</a>
</g>
<g id="a_edge20&#45;headlabel"><a xlink:href="dir_000034_000042.html" target="_top" xlink:title="2">
<text text-anchor="middle" x="923.76" y="-30.63" font-family="Helvetica,sans-Serif" font-size="10.00" fill="#63b8ff">2</text>
</a>
</g>
</g>
<!-- dir_8ac8a7c7afcf091d3d7796402f7a1c36 -->
<g id="node14" class="node">
<title>dir_8ac8a7c7afcf091d3d7796402f7a1c36</title>
<g id="a_node14"><a xlink:href="dir_8ac8a7c7afcf091d3d7796402f7a1c36.html" target="_top" xlink:title="paddle_boat">
<polygon fill="#4ea9ff" stroke="#404040" points="1826.5,-90 1749.5,-90 1749.5,-71 1826.5,-71 1826.5,-90"/>
<text text-anchor="middle" x="1788" y="-78" font-family="Helvetica,sans-Serif" font-size="10.00">paddle_boat</text>
</a>
</g>
</g>
<!-- dir_8ac8a7c7afcf091d3d7796402f7a1c36&#45;&gt;dir_b624d86e5671d82a613a73eb9566e66f -->
<g id="edge22" class="edge">
<title>dir_8ac8a7c7afcf091d3d7796402f7a1c36&#45;&gt;dir_b624d86e5671d82a613a73eb9566e66f</title>
<g id="a_edge22"><a xlink:href="dir_000038_000042.html" target="_top">
<path fill="none" stroke="#63b8ff" d="M1767.77,-70.95C1759.6,-67.88 1750,-64.75 1741,-63 1594.91,-34.57 1125.59,-28.06 995,-26.78"/>
<polygon fill="#63b8ff" stroke="#63b8ff" points="994.84,-23.28 984.81,-26.68 994.77,-30.28 994.84,-23.28"/>
</a>
</g>
<g id="a_edge22&#45;headlabel"><a xlink:href="dir_000038_000042.html" target="_top" xlink:title="1">
<text text-anchor="middle" x="998.46" y="-17.97" font-family="Helvetica,sans-Serif" font-size="10.00" fill="#63b8ff">1</text>
</a>
</g>
</g>
<!-- dir_8ac8a7c7afcf091d3d7796402f7a1c36&#45;&gt;dir_d44c64559bbebec7f509842c48db8b23 -->
<g id="edge23" class="edge">
<title>dir_8ac8a7c7afcf091d3d7796402f7a1c36&#45;&gt;dir_d44c64559bbebec7f509842c48db8b23</title>
<g id="a_edge23"><a xlink:href="dir_000038_000026.html" target="_top">
<path fill="none" stroke="#63b8ff" d="M1812.74,-70.98C1838.37,-62.16 1878.63,-48.31 1907.41,-38.41"/>
<polygon fill="#63b8ff" stroke="#63b8ff" points="1908.75,-41.65 1917.06,-35.08 1906.47,-35.03 1908.75,-41.65"/>
</a>
</g>
<g id="a_edge23&#45;headlabel"><a xlink:href="dir_000038_000026.html" target="_top" xlink:title="6">
<text text-anchor="middle" x="1906.27" y="-43" font-family="Helvetica,sans-Serif" font-size="10.00" fill="#63b8ff">6</text>
</a>
</g>
</g>
<!-- dir_9d35e33a62367a6e44d3f53c24813abf -->
<g id="node25" class="node">
<title>dir_9d35e33a62367a6e44d3f53c24813abf</title>
<g id="a_node25"><a xlink:href="dir_9d35e33a62367a6e44d3f53c24813abf.html" target="_top" xlink:title="courses">
<polygon fill="#daedff" stroke="red" points="2040,-35 1986,-35 1986,-16 2040,-16 2040,-35"/>
<text text-anchor="middle" x="2013" y="-23" font-family="Helvetica,sans-Serif" font-size="10.00">courses</text>
</a>
</g>
</g>
<!-- dir_8ac8a7c7afcf091d3d7796402f7a1c36&#45;&gt;dir_9d35e33a62367a6e44d3f53c24813abf -->
<g id="edge21" class="edge">
<title>dir_8ac8a7c7afcf091d3d7796402f7a1c36&#45;&gt;dir_9d35e33a62367a6e44d3f53c24813abf</title>
<g id="a_edge21"><a xlink:href="dir_000038_000013.html" target="_top">
<path fill="none" stroke="#63b8ff" d="M1810.76,-70.97C1818.67,-68.2 1827.66,-65.25 1836,-63 1894.67,-47.17 1912.81,-48.39 1975.83,-35.17"/>
<polygon fill="#63b8ff" stroke="#63b8ff" points="1976.85,-38.52 1985.9,-33.01 1975.39,-31.68 1976.85,-38.52"/>
</a>
</g>
<g id="a_edge21&#45;headlabel"><a xlink:href="dir_000038_000013.html" target="_top" xlink:title="1">
<text text-anchor="middle" x="1973.93" y="-39.55" font-family="Helvetica,sans-Serif" font-size="10.00" fill="#63b8ff">1</text>
</a>
</g>
</g>
<!-- dir_8ec521252289760d8f929d04561ff579 -->
<g id="node15" class="node">
<title>dir_8ec521252289760d8f929d04561ff579</title>
<g id="a_node15"><a xlink:href="dir_8ec521252289760d8f929d04561ff579.html" target="_top" xlink:title="palm_tree">
<polygon fill="#4ea9ff" stroke="#404040" points="272,-90 206,-90 206,-71 272,-71 272,-90"/>
<text text-anchor="middle" x="239" y="-78" font-family="Helvetica,sans-Serif" font-size="10.00">palm_tree</text>
</a>
</g>
</g>
<!-- dir_8ec521252289760d8f929d04561ff579&#45;&gt;dir_b624d86e5671d82a613a73eb9566e66f -->
<g id="edge24" class="edge">
<title>dir_8ec521252289760d8f929d04561ff579&#45;&gt;dir_b624d86e5671d82a613a73eb9566e66f</title>
<g id="a_edge24"><a xlink:href="dir_000039_000042.html" target="_top">
<path fill="none" stroke="#63b8ff" d="M257,-70.96C264.29,-67.9 272.89,-64.76 281,-63 406.34,-35.76 807.7,-28.48 927.15,-26.89"/>
<polygon fill="#63b8ff" stroke="#63b8ff" points="927.54,-30.38 937.5,-26.75 927.45,-23.38 927.54,-30.38"/>
</a>
</g>
<g id="a_edge24&#45;headlabel"><a xlink:href="dir_000039_000042.html" target="_top" xlink:title="1">
<text text-anchor="middle" x="923.99" y="-30.77" font-family="Helvetica,sans-Serif" font-size="10.00" fill="#63b8ff">1</text>
</a>
</g>
</g>
<!-- dir_32d41aaa75ce6bc3595f304fa2abdf30 -->
<g id="node16" class="node">
<title>dir_32d41aaa75ce6bc3595f304fa2abdf30</title>
<g id="a_node16"><a xlink:href="dir_32d41aaa75ce6bc3595f304fa2abdf30.html" target="_top" xlink:title="piranha_plant">
<polygon fill="#4ea9ff" stroke="#404040" points="817.5,-90 734.5,-90 734.5,-71 817.5,-71 817.5,-90"/>
<text text-anchor="middle" x="776" y="-78" font-family="Helvetica,sans-Serif" font-size="10.00">piranha_plant</text>
</a>
</g>
</g>
<!-- dir_32d41aaa75ce6bc3595f304fa2abdf30&#45;&gt;dir_b624d86e5671d82a613a73eb9566e66f -->
<g id="edge25" class="edge">
<title>dir_32d41aaa75ce6bc3595f304fa2abdf30&#45;&gt;dir_b624d86e5671d82a613a73eb9566e66f</title>
<g id="a_edge25"><a xlink:href="dir_000040_000042.html" target="_top">
<path fill="none" stroke="#63b8ff" d="M801.61,-70.95C809.71,-68.32 818.71,-65.47 827,-63 861.01,-52.87 900.21,-42.32 927.39,-35.19"/>
<polygon fill="#63b8ff" stroke="#63b8ff" points="928.39,-38.54 937.18,-32.63 926.62,-31.77 928.39,-38.54"/>
</a>
</g>
<g id="a_edge25&#45;headlabel"><a xlink:href="dir_000040_000042.html" target="_top" xlink:title="2">
<text text-anchor="middle" x="925.63" y="-39.7" font-family="Helvetica,sans-Serif" font-size="10.00" fill="#63b8ff">2</text>
</a>
</g>
</g>
<!-- dir_32d41aaa75ce6bc3595f304fa2abdf30&#45;&gt;dir_d44c64559bbebec7f509842c48db8b23 -->
<g id="edge26" class="edge">
<title>dir_32d41aaa75ce6bc3595f304fa2abdf30&#45;&gt;dir_d44c64559bbebec7f509842c48db8b23</title>
<g id="a_edge26"><a xlink:href="dir_000040_000026.html" target="_top">
<path fill="none" stroke="#63b8ff" d="M797.74,-70.94C806.67,-67.84 817.19,-64.68 827,-63 1061.49,-22.9 1656.97,-69.95 1905.76,-35.78"/>
<polygon fill="#63b8ff" stroke="#63b8ff" points="1906.51,-39.21 1915.91,-34.31 1905.51,-32.28 1906.51,-39.21"/>
</a>
</g>
<g id="a_edge26&#45;headlabel"><a xlink:href="dir_000040_000026.html" target="_top" xlink:title="1">
<text text-anchor="middle" x="1903.36" y="-40.03" font-family="Helvetica,sans-Serif" font-size="10.00" fill="#63b8ff">1</text>
</a>
</g>
</g>
<!-- dir_182f7da4116ae772b41f20cab799c0f6 -->
<g id="node17" class="node">
<title>dir_182f7da4116ae772b41f20cab799c0f6</title>
<g id="a_node17"><a xlink:href="dir_182f7da4116ae772b41f20cab799c0f6.html" target="_top" xlink:title="railroad_crossing">
<polygon fill="#4ea9ff" stroke="#404040" points="716,-90 616,-90 616,-71 716,-71 716,-90"/>
<text text-anchor="middle" x="666" y="-78" font-family="Helvetica,sans-Serif" font-size="10.00">railroad_crossing</text>
</a>
</g>
</g>
<!-- dir_182f7da4116ae772b41f20cab799c0f6&#45;&gt;dir_b624d86e5671d82a613a73eb9566e66f -->
<g id="edge27" class="edge">
<title>dir_182f7da4116ae772b41f20cab799c0f6&#45;&gt;dir_b624d86e5671d82a613a73eb9566e66f</title>
<g id="a_edge27"><a xlink:href="dir_000043_000042.html" target="_top">
<path fill="none" stroke="#63b8ff" d="M694.52,-70.94C704.43,-68.16 715.65,-65.22 726,-63 797.16,-47.74 881.74,-36.19 927.52,-30.48"/>
<polygon fill="#63b8ff" stroke="#63b8ff" points="927.99,-33.94 937.49,-29.25 927.14,-27 927.99,-33.94"/>
</a>
</g>
<g id="a_edge27&#45;headlabel"><a xlink:href="dir_000043_000042.html" target="_top" xlink:title="2">
<text text-anchor="middle" x="924.77" y="-34.7" font-family="Helvetica,sans-Serif" font-size="10.00" fill="#63b8ff">2</text>
</a>
</g>
</g>
<!-- dir_182f7da4116ae772b41f20cab799c0f6&#45;&gt;dir_d44c64559bbebec7f509842c48db8b23 -->
<g id="edge28" class="edge">
<title>dir_182f7da4116ae772b41f20cab799c0f6&#45;&gt;dir_d44c64559bbebec7f509842c48db8b23</title>
<g id="a_edge28"><a xlink:href="dir_000043_000026.html" target="_top">
<path fill="none" stroke="#63b8ff" d="M691.69,-70.95C702.21,-67.84 714.56,-64.68 726,-63 1244.34,13.21 1388.82,-112.11 1905.95,-35.8"/>
<polygon fill="#63b8ff" stroke="#63b8ff" points="1906.53,-39.25 1915.91,-34.31 1905.5,-32.33 1906.53,-39.25"/>
</a>
</g>
<g id="a_edge28&#45;headlabel"><a xlink:href="dir_000043_000026.html" target="_top" xlink:title="1">
<text text-anchor="middle" x="1903.4" y="-40.09" font-family="Helvetica,sans-Serif" font-size="10.00" fill="#63b8ff">1</text>
</a>
</g>
</g>
<!-- dir_853fb299c43268179db801ba4361d6eb -->
<g id="node18" class="node">
<title>dir_853fb299c43268179db801ba4361d6eb</title>
<g id="a_node18"><a xlink:href="dir_853fb299c43268179db801ba4361d6eb.html" target="_top" xlink:title="school_bus">
<polygon fill="#4ea9ff" stroke="#404040" points="597.5,-90 526.5,-90 526.5,-71 597.5,-71 597.5,-90"/>
<text text-anchor="middle" x="562" y="-78" font-family="Helvetica,sans-Serif" font-size="10.00">school_bus</text>
</a>
</g>
</g>
<!-- dir_853fb299c43268179db801ba4361d6eb&#45;&gt;dir_b624d86e5671d82a613a73eb9566e66f -->
<g id="edge29" class="edge">
<title>dir_853fb299c43268179db801ba4361d6eb&#45;&gt;dir_b624d86e5671d82a613a73eb9566e66f</title>
<g id="a_edge29"><a xlink:href="dir_000046_000042.html" target="_top">
<path fill="none" stroke="#63b8ff" d="M582.28,-70.85C589.91,-67.92 598.73,-64.91 607,-63 722.52,-36.31 863.77,-29.12 927.26,-27.2"/>
<polygon fill="#63b8ff" stroke="#63b8ff" points="927.58,-30.69 937.48,-26.91 927.38,-23.69 927.58,-30.69"/>
</a>
</g>
<g id="a_edge29&#45;headlabel"><a xlink:href="dir_000046_000042.html" target="_top" xlink:title="1">
<text text-anchor="middle" x="924.06" y="-31.13" font-family="Helvetica,sans-Serif" font-size="10.00" fill="#63b8ff">1</text>
</a>
</g>
</g>
<!-- dir_853fb299c43268179db801ba4361d6eb&#45;&gt;dir_d44c64559bbebec7f509842c48db8b23 -->
<g id="edge30" class="edge">
<title>dir_853fb299c43268179db801ba4361d6eb&#45;&gt;dir_d44c64559bbebec7f509842c48db8b23</title>
<g id="a_edge30"><a xlink:href="dir_000046_000026.html" target="_top">
<path fill="none" stroke="#63b8ff" d="M581.32,-70.83C589.13,-67.74 598.33,-64.64 607,-63 888.84,-9.83 1608.73,-76.47 1905.94,-35.74"/>
<polygon fill="#63b8ff" stroke="#63b8ff" points="1906.51,-39.2 1915.91,-34.32 1905.51,-32.27 1906.51,-39.2"/>
</a>
</g>
<g id="a_edge30&#45;headlabel"><a xlink:href="dir_000046_000026.html" target="_top" xlink:title="2">
<text text-anchor="middle" x="1903.35" y="-40.02" font-family="Helvetica,sans-Serif" font-size="10.00" fill="#63b8ff">2</text>
</a>
</g>
</g>
<!-- dir_84e86b557c5631751b2666df9df09cb8 -->
<g id="node19" class="node">
<title>dir_84e86b557c5631751b2666df9df09cb8</title>
<g id="a_node19"><a xlink:href="dir_84e86b557c5631751b2666df9df09cb8.html" target="_top" xlink:title="tanker_truck">
<polygon fill="#4ea9ff" stroke="#404040" points="508.5,-90 431.5,-90 431.5,-71 508.5,-71 508.5,-90"/>
<text text-anchor="middle" x="470" y="-78" font-family="Helvetica,sans-Serif" font-size="10.00">tanker_truck</text>
</a>
</g>
</g>
<!-- dir_84e86b557c5631751b2666df9df09cb8&#45;&gt;dir_b624d86e5671d82a613a73eb9566e66f -->
<g id="edge31" class="edge">
<title>dir_84e86b557c5631751b2666df9df09cb8&#45;&gt;dir_b624d86e5671d82a613a73eb9566e66f</title>
<g id="a_edge31"><a xlink:href="dir_000050_000042.html" target="_top">
<path fill="none" stroke="#63b8ff" d="M491.18,-70.95C499.43,-67.96 509.03,-64.88 518,-63 668.1,-31.53 852.11,-26.93 926.94,-26.44"/>
<polygon fill="#63b8ff" stroke="#63b8ff" points="927.19,-29.94 937.17,-26.39 927.15,-22.94 927.19,-29.94"/>
</a>
</g>
<g id="a_edge31&#45;headlabel"><a xlink:href="dir_000050_000042.html" target="_top" xlink:title="1">
<text text-anchor="middle" x="923.6" y="-30.29" font-family="Helvetica,sans-Serif" font-size="10.00" fill="#63b8ff">1</text>
</a>
</g>
</g>
<!-- dir_84e86b557c5631751b2666df9df09cb8&#45;&gt;dir_d44c64559bbebec7f509842c48db8b23 -->
<g id="edge32" class="edge">
<title>dir_84e86b557c5631751b2666df9df09cb8&#45;&gt;dir_d44c64559bbebec7f509842c48db8b23</title>
<g id="a_edge32"><a xlink:href="dir_000050_000026.html" target="_top">
<path fill="none" stroke="#63b8ff" d="M490.18,-71C498.62,-67.86 508.63,-64.66 518,-63 819.8,-9.46 1588.8,-79.19 1905.74,-35.77"/>
<polygon fill="#63b8ff" stroke="#63b8ff" points="1906.5,-39.2 1915.91,-34.32 1905.51,-32.27 1906.5,-39.2"/>
</a>
</g>
<g id="a_edge32&#45;headlabel"><a xlink:href="dir_000050_000026.html" target="_top" xlink:title="1">
<text text-anchor="middle" x="1903.35" y="-40.02" font-family="Helvetica,sans-Serif" font-size="10.00" fill="#63b8ff">1</text>
</a>
</g>
</g>
<!-- dir_517c47473db548defbc7dba6faac8c5d -->
<g id="node20" class="node">
<title>dir_517c47473db548defbc7dba6faac8c5d</title>
<g id="a_node20"><a xlink:href="dir_517c47473db548defbc7dba6faac8c5d.html" target="_top" xlink:title="train">
<polygon fill="#4ea9ff" stroke="#404040" points="413.5,-90 374.5,-90 374.5,-71 413.5,-71 413.5,-90"/>
<text text-anchor="middle" x="394" y="-78" font-family="Helvetica,sans-Serif" font-size="10.00">train</text>
</a>
</g>
</g>
<!-- dir_517c47473db548defbc7dba6faac8c5d&#45;&gt;dir_b624d86e5671d82a613a73eb9566e66f -->
<g id="edge33" class="edge">
<title>dir_517c47473db548defbc7dba6faac8c5d&#45;&gt;dir_b624d86e5671d82a613a73eb9566e66f</title>
<g id="a_edge33"><a xlink:href="dir_000053_000042.html" target="_top">
<path fill="none" stroke="#63b8ff" d="M406.15,-70.97C411.14,-67.9 417.12,-64.77 423,-63 518.02,-34.39 824.61,-28.13 927.2,-26.83"/>
<polygon fill="#63b8ff" stroke="#63b8ff" points="927.35,-30.33 937.31,-26.71 927.27,-23.33 927.35,-30.33"/>
</a>
</g>
<g id="a_edge33&#45;headlabel"><a xlink:href="dir_000053_000042.html" target="_top" xlink:title="2">
<text text-anchor="middle" x="923.79" y="-30.71" font-family="Helvetica,sans-Serif" font-size="10.00" fill="#63b8ff">2</text>
</a>
</g>
</g>
<!-- dir_517c47473db548defbc7dba6faac8c5d&#45;&gt;dir_d44c64559bbebec7f509842c48db8b23 -->
<g id="edge34" class="edge">
<title>dir_517c47473db548defbc7dba6faac8c5d&#45;&gt;dir_d44c64559bbebec7f509842c48db8b23</title>
<g id="a_edge34"><a xlink:href="dir_000053_000026.html" target="_top">
<path fill="none" stroke="#63b8ff" d="M405.82,-70.99C410.86,-67.85 416.97,-64.66 423,-63 579.68,-19.97 1706.53,-57.89 1905.86,-35.61"/>
<polygon fill="#63b8ff" stroke="#63b8ff" points="1906.44,-39.07 1915.91,-34.32 1905.54,-32.12 1906.44,-39.07"/>
</a>
</g>
<g id="a_edge34&#45;headlabel"><a xlink:href="dir_000053_000026.html" target="_top" xlink:title="1">
<text text-anchor="middle" x="1903.23" y="-39.84" font-family="Helvetica,sans-Serif" font-size="10.00" fill="#63b8ff">1</text>
</a>
</g>
</g>
<!-- dir_744c9cc1f09c76b1f473d83866987411 -->
<g id="node21" class="node">
<title>dir_744c9cc1f09c76b1f473d83866987411</title>
<g id="a_node21"><a xlink:href="dir_744c9cc1f09c76b1f473d83866987411.html" target="_top" xlink:title="trees">
<polygon fill="#4ea9ff" stroke="#404040" points="1731.5,-90 1690.5,-90 1690.5,-71 1731.5,-71 1731.5,-90"/>
<text text-anchor="middle" x="1711" y="-78" font-family="Helvetica,sans-Serif" font-size="10.00">trees</text>
</a>
</g>
</g>
<!-- dir_744c9cc1f09c76b1f473d83866987411&#45;&gt;dir_b624d86e5671d82a613a73eb9566e66f -->
<g id="edge36" class="edge">
<title>dir_744c9cc1f09c76b1f473d83866987411&#45;&gt;dir_b624d86e5671d82a613a73eb9566e66f</title>
<g id="a_edge36"><a xlink:href="dir_000054_000042.html" target="_top">
<path fill="none" stroke="#63b8ff" d="M1698.87,-70.92C1693.88,-67.84 1687.89,-64.72 1682,-63 1550.62,-24.66 1118.71,-25.17 994.61,-26.15"/>
<polygon fill="#63b8ff" stroke="#63b8ff" points="994.53,-22.65 984.56,-26.24 994.59,-29.65 994.53,-22.65"/>
</a>
</g>
<g id="a_edge36&#45;headlabel"><a xlink:href="dir_000054_000042.html" target="_top" xlink:title="1">
<text text-anchor="middle" x="998.1" y="-17.28" font-family="Helvetica,sans-Serif" font-size="10.00" fill="#63b8ff">1</text>
</a>
</g>
</g>
<!-- dir_744c9cc1f09c76b1f473d83866987411&#45;&gt;dir_d44c64559bbebec7f509842c48db8b23 -->
<g id="edge37" class="edge">
<title>dir_744c9cc1f09c76b1f473d83866987411&#45;&gt;dir_d44c64559bbebec7f509842c48db8b23</title>
<g id="a_edge37"><a xlink:href="dir_000054_000026.html" target="_top">
<path fill="none" stroke="#63b8ff" d="M1724.29,-70.92C1729.34,-68 1735.27,-64.98 1741,-63 1810.66,-38.94 1834.76,-50.62 1905.98,-36.2"/>
<polygon fill="#63b8ff" stroke="#63b8ff" points="1906.81,-39.6 1915.87,-34.09 1905.36,-32.75 1906.81,-39.6"/>
</a>
</g>
<g id="a_edge37&#45;headlabel"><a xlink:href="dir_000054_000026.html" target="_top" xlink:title="1">
<text text-anchor="middle" x="1903.89" y="-40.63" font-family="Helvetica,sans-Serif" font-size="10.00" fill="#63b8ff">1</text>
</a>
</g>
</g>
<!-- dir_744c9cc1f09c76b1f473d83866987411&#45;&gt;dir_9d35e33a62367a6e44d3f53c24813abf -->
<g id="edge35" class="edge">
<title>dir_744c9cc1f09c76b1f473d83866987411&#45;&gt;dir_9d35e33a62367a6e44d3f53c24813abf</title>
<g id="a_edge35"><a xlink:href="dir_000054_000013.html" target="_top">
<path fill="none" stroke="#63b8ff" d="M1723.94,-70.95C1729.06,-67.97 1735.11,-64.89 1741,-63 1838.53,-31.71 1871.02,-52.07 1975.9,-34.95"/>
<polygon fill="#63b8ff" stroke="#63b8ff" points="1976.67,-38.37 1985.94,-33.24 1975.5,-31.47 1976.67,-38.37"/>
</a>
</g>
<g id="a_edge35&#45;headlabel"><a xlink:href="dir_000054_000013.html" target="_top" xlink:title="1">
<text text-anchor="middle" x="1973.61" y="-39.28" font-family="Helvetica,sans-Serif" font-size="10.00" fill="#63b8ff">1</text>
</a>
</g>
</g>
<!-- dir_565e0f503a63db633f15051bd0fb9ed2 -->
<g id="node22" class="node">
<title>dir_565e0f503a63db633f15051bd0fb9ed2</title>
<g id="a_node22"><a xlink:href="dir_565e0f503a63db633f15051bd0fb9ed2.html" target="_top" xlink:title="wario_sign">
<polygon fill="#4ea9ff" stroke="#404040" points="904.5,-90 835.5,-90 835.5,-71 904.5,-71 904.5,-90"/>
<text text-anchor="middle" x="870" y="-78" font-family="Helvetica,sans-Serif" font-size="10.00">wario_sign</text>
</a>
</g>
</g>
<!-- dir_565e0f503a63db633f15051bd0fb9ed2&#45;&gt;dir_b624d86e5671d82a613a73eb9566e66f -->
<g id="edge38" class="edge">
<title>dir_565e0f503a63db633f15051bd0fb9ed2&#45;&gt;dir_b624d86e5671d82a613a73eb9566e66f</title>
<g id="a_edge38"><a xlink:href="dir_000056_000042.html" target="_top">
<path fill="none" stroke="#63b8ff" d="M884.62,-70.98C898.86,-62.69 920.75,-49.94 937.45,-40.22"/>
<polygon fill="#63b8ff" stroke="#63b8ff" points="939.23,-43.23 946.11,-35.17 935.71,-37.18 939.23,-43.23"/>
</a>
</g>
<g id="a_edge38&#45;headlabel"><a xlink:href="dir_000056_000042.html" target="_top" xlink:title="2">
<text text-anchor="middle" x="937.56" y="-44.99" font-family="Helvetica,sans-Serif" font-size="10.00" fill="#63b8ff">2</text>
</a>
</g>
</g>
<!-- dir_565e0f503a63db633f15051bd0fb9ed2&#45;&gt;dir_d44c64559bbebec7f509842c48db8b23 -->
<g id="edge39" class="edge">
<title>dir_565e0f503a63db633f15051bd0fb9ed2&#45;&gt;dir_d44c64559bbebec7f509842c48db8b23</title>
<g id="a_edge39"><a xlink:href="dir_000056_000026.html" target="_top">
<path fill="none" stroke="#63b8ff" d="M888.88,-70.86C896.51,-67.78 905.51,-64.66 914,-63 1128.54,-20.98 1676.33,-67.22 1905.88,-35.76"/>
<polygon fill="#63b8ff" stroke="#63b8ff" points="1906.51,-39.21 1915.91,-34.3 1905.51,-32.28 1906.51,-39.21"/>
</a>
</g>
<g id="a_edge39&#45;headlabel"><a xlink:href="dir_000056_000026.html" target="_top" xlink:title="1">
<text text-anchor="middle" x="1903.36" y="-40.03" font-family="Helvetica,sans-Serif" font-size="10.00" fill="#63b8ff">1</text>
</a>
</g>
</g>
<!-- dir_d4d27fd96eedf0d64845ece7e3d1747c -->
<g id="node23" class="node">
<title>dir_d4d27fd96eedf0d64845ece7e3d1747c</title>
<g id="a_node23"><a xlink:href="dir_d4d27fd96eedf0d64845ece7e3d1747c.html" target="_top" xlink:title="yoshi_egg">
<polygon fill="#4ea9ff" stroke="#404040" points="356,-90 290,-90 290,-71 356,-71 356,-90"/>
<text text-anchor="middle" x="323" y="-78" font-family="Helvetica,sans-Serif" font-size="10.00">yoshi_egg</text>
</a>
</g>
</g>
<!-- dir_d4d27fd96eedf0d64845ece7e3d1747c&#45;&gt;dir_b624d86e5671d82a613a73eb9566e66f -->
<g id="edge40" class="edge">
<title>dir_d4d27fd96eedf0d64845ece7e3d1747c&#45;&gt;dir_b624d86e5671d82a613a73eb9566e66f</title>
<g id="a_edge40"><a xlink:href="dir_000058_000042.html" target="_top">
<path fill="none" stroke="#63b8ff" d="M341.46,-71C348.92,-67.94 357.72,-64.8 366,-63 474.28,-39.49 817.67,-29.77 927.13,-27.22"/>
<polygon fill="#63b8ff" stroke="#63b8ff" points="927.35,-30.72 937.27,-26.99 927.19,-23.72 927.35,-30.72"/>
</a>
</g>
<g id="a_edge40&#45;headlabel"><a xlink:href="dir_000058_000042.html" target="_top" xlink:title="2">
<text text-anchor="middle" x="923.82" y="-31.14" font-family="Helvetica,sans-Serif" font-size="10.00" fill="#63b8ff">2</text>
</a>
</g>
</g>
<!-- dir_d4d27fd96eedf0d64845ece7e3d1747c&#45;&gt;dir_d44c64559bbebec7f509842c48db8b23 -->
<g id="edge41" class="edge">
<title>dir_d4d27fd96eedf0d64845ece7e3d1747c&#45;&gt;dir_d44c64559bbebec7f509842c48db8b23</title>
<g id="a_edge41"><a xlink:href="dir_000058_000026.html" target="_top">
<path fill="none" stroke="#63b8ff" d="M341,-70.99C348.55,-67.84 357.52,-64.65 366,-63 700.07,2.03 1555.6,-83.7 1905.95,-35.74"/>
<polygon fill="#63b8ff" stroke="#63b8ff" points="1906.5,-39.2 1915.91,-34.32 1905.51,-32.27 1906.5,-39.2"/>
</a>
</g>
<g id="a_edge41&#45;headlabel"><a xlink:href="dir_000058_000026.html" target="_top" xlink:title="1">
<text text-anchor="middle" x="1903.34" y="-40.02" font-family="Helvetica,sans-Serif" font-size="10.00" fill="#63b8ff">1</text>
</a>
</g>
</g>
</g>
</svg>
