<?xml version="1.0" encoding="UTF-8" standalone="no"?>
<!DOCTYPE svg PUBLIC "-//W3C//DTD SVG 1.1//EN"
 "http://www.w3.org/Graphics/SVG/1.1/DTD/svg11.dtd">
<!-- Generated by graphviz version 2.43.0 (0)
 -->
<!-- Title: src/actors Pages: 1 -->
<!--zoomable 141 -->

<svg id="main" version="1.1" xmlns="http://www.w3.org/2000/svg" xmlns:xlink="http://www.w3.org/1999/xlink" xml:space="preserve" onload="init(evt)">
<style type="text/css"><![CDATA[
.node, .edge {opacity: 0.7;}
.node.selected, .edge.selected {opacity: 1;}
.edge:hover path { stroke: red; }
.edge:hover polygon { stroke: red; fill: red; }
]]></style>

<defs>
  <circle id="rim" cx="0" cy="0" r="7"/>
  <circle id="rim2" cx="0" cy="0" r="3.5"/>
  <g id="zoomPlus">
    <use xlink:href="#rim" fill="#404040"><set attributeName="fill" to="#808080" begin="zoomplus.mouseover" end="zoomplus.mouseout"/></use>
    <path d="M-4,0h8M0,-4v8" fill="none" stroke="white" stroke-width="1.5" pointer-events="none"/>
  </g>
  <g id="zoomMin">
    <use xlink:href="#rim" fill="#404040"><set attributeName="fill" to="#808080" begin="zoomminus.mouseover" end="zoomminus.mouseout"/></use>
    <path d="M-4,0h8" fill="none" stroke="white" stroke-width="1.5" pointer-events="none"/>
  </g>
  <g id="arrowUp" transform="translate(30 24)">
    <use xlink:href="#rim"/>
    <path pointer-events="none" fill="none" stroke="white" stroke-width="1.5" d="M0,-3.0v7 M-2.5,-0.5L0,-3.0L2.5,-0.5"/>
  </g>
  <g id="arrowRight" transform="rotate(90) translate(36 -43)">
    <use xlink:href="#rim"/>
    <path pointer-events="none" fill="none" stroke="white" stroke-width="1.5" d="M0,-3.0v7 M-2.5,-0.5L0,-3.0L2.5,-0.5"/>
  </g>
  <g id="arrowDown" transform="rotate(180) translate(-30 -48)">
    <use xlink:href="#rim"/>
    <path pointer-events="none" fill="none" stroke="white" stroke-width="1.5" d="M0,-3.0v7 M-2.5,-0.5L0,-3.0L2.5,-0.5"/>
  </g>
  <g id="arrowLeft" transform="rotate(270) translate(-36 17)">
    <use xlink:href="#rim"/>
    <path pointer-events="none" fill="none" stroke="white" stroke-width="1.5" d="M0,-3.0v7 M-2.5,-0.5L0,-3.0L2.5,-0.5"/>
  </g>
  <g id="resetDef">
    <use xlink:href="#rim2" fill="#404040"><set attributeName="fill" to="#808080" begin="reset.mouseover" end="reset.mouseout"/></use>
  </g>
</defs>
<script type="application/ecmascript">
var viewWidth = 770;
var viewHeight = 141;
var sectionId = 'dynsection-0';
</script>
<script type="application/ecmascript" xlink:href="svg.min.js"/>
<svg id="graph" class="graph">
<g id="viewport">
<title>src/actors</title>
<g id="clust1" class="cluster">
<title>clusterdir_68267d1309a1af8e8297ef4c3efbcdba</title>
<g id="a_clust1"><a xlink:href="dir_68267d1309a1af8e8297ef4c3efbcdba.html" target="_top" xlink:title="src">
<polygon fill="#daedff" stroke="#404040" stroke-dasharray="5,2" points="8,-8 8,-125 630,-125 630,-8 8,-8"/>
<text text-anchor="middle" x="319" y="-113" font-family="Helvetica,sans-Serif" font-size="10.00">src</text>
</a>
</g>
</g>
<g id="clust2" class="cluster">
<title>clusterdir_520494cf19be961f9d881ed04931ae5b</title>
<g id="a_clust2"><a xlink:href="dir_520494cf19be961f9d881ed04931ae5b.html" target="_top">
<polygon fill="#daedff" stroke="#404040" stroke-width="2" points="16,-63 16,-98 622,-98 622,-63 16,-63"/>
</a>
</g>
</g>
<!-- dir_b624d86e5671d82a613a73eb9566e66f -->
<g id="node1" class="node">
<title>dir_b624d86e5671d82a613a73eb9566e66f</title>
<g id="a_node1"><a xlink:href="dir_b624d86e5671d82a613a73eb9566e66f.html" target="_top" xlink:title="racing">
<polygon fill="#4ea9ff" stroke="#404040" points="329.5,-35 282.5,-35 282.5,-16 329.5,-16 329.5,-35"/>
<text text-anchor="middle" x="306" y="-23" font-family="Helvetica,sans-Serif" font-size="10.00">racing</text>
</a>
</g>
</g>
<!-- dir_520494cf19be961f9d881ed04931ae5b -->
<g id="node2" class="node">
<title>dir_520494cf19be961f9d881ed04931ae5b</title>
<text text-anchor="middle" x="590" y="-78" font-family="Helvetica,sans-Serif" font-size="10.00">actors</text>
</g>
<!-- dir_7aa598291e9b46b83c172d01488969a3 -->
<g id="node3" class="node">
<title>dir_7aa598291e9b46b83c172d01488969a3</title>
<g id="a_node3"><a xlink:href="dir_7aa598291e9b46b83c172d01488969a3.html" target="_top" xlink:title="cow">
<polygon fill="#4ea9ff" stroke="#404040" points="399,-90 363,-90 363,-71 399,-71 399,-90"/>
<text text-anchor="middle" x="381" y="-78" font-family="Helvetica,sans-Serif" font-size="10.00">cow</text>
</a>
</g>
</g>
<!-- dir_7aa598291e9b46b83c172d01488969a3&#45;&gt;dir_b624d86e5671d82a613a73eb9566e66f -->
<g id="edge1" class="edge">
<title>dir_7aa598291e9b46b83c172d01488969a3&#45;&gt;dir_b624d86e5671d82a613a73eb9566e66f</title>
<g id="a_edge1"><a xlink:href="dir_000011_000032.html" target="_top">
<path fill="none" stroke="#63b8ff" d="M368.95,-70.98C357.54,-62.92 340.17,-50.65 326.57,-41.03"/>
<polygon fill="#63b8ff" stroke="#63b8ff" points="328.46,-38.08 318.27,-35.17 324.42,-43.8 328.46,-38.08"/>
</a>
</g>
<g id="a_edge1&#45;headlabel"><a xlink:href="dir_000011_000032.html" target="_top" xlink:title="1">
<text text-anchor="middle" x="333.03" y="-35.34" font-family="Helvetica,sans-Serif" font-size="10.00" fill="#63b8ff">1</text>
</a>
</g>
</g>
<!-- dir_d44c64559bbebec7f509842c48db8b23 -->
<g id="node10" class="node">
<title>dir_d44c64559bbebec7f509842c48db8b23</title>
<g id="a_node10"><a xlink:href="dir_d44c64559bbebec7f509842c48db8b23.html" target="_top" xlink:title="include">
<polygon fill="#daedff" stroke="red" points="690,-35 638,-35 638,-16 690,-16 690,-35"/>
<text text-anchor="middle" x="664" y="-23" font-family="Helvetica,sans-Serif" font-size="10.00">include</text>
</a>
</g>
</g>
<!-- dir_7aa598291e9b46b83c172d01488969a3&#45;&gt;dir_d44c64559bbebec7f509842c48db8b23 -->
<g id="edge2" class="edge">
<title>dir_7aa598291e9b46b83c172d01488969a3&#45;&gt;dir_d44c64559bbebec7f509842c48db8b23</title>
<g id="a_edge2"><a xlink:href="dir_000011_000019.html" target="_top">
<path fill="none" stroke="#63b8ff" d="M392.55,-70.95C397.14,-67.96 402.61,-64.88 408,-63 500.38,-30.75 532.65,-53.45 627.84,-36.09"/>
<polygon fill="#63b8ff" stroke="#63b8ff" points="628.72,-39.48 637.88,-34.15 627.4,-32.61 628.72,-39.48"/>
</a>
</g>
<g id="a_edge2&#45;headlabel"><a xlink:href="dir_000011_000019.html" target="_top" xlink:title="1">
<text text-anchor="middle" x="625.73" y="-40.45" font-family="Helvetica,sans-Serif" font-size="10.00" fill="#63b8ff">1</text>
</a>
</g>
</g>
<!-- dir_7679761027b1fa214ffd6938221a3b1c -->
<g id="node4" class="node">
<title>dir_7679761027b1fa214ffd6938221a3b1c</title>
<g id="a_node4"><a xlink:href="dir_7679761027b1fa214ffd6938221a3b1c.html" target="_top" xlink:title="kiwano_fruit">
<polygon fill="#4ea9ff" stroke="#404040" points="344.5,-90 267.5,-90 267.5,-71 344.5,-71 344.5,-90"/>
<text text-anchor="middle" x="306" y="-78" font-family="Helvetica,sans-Serif" font-size="10.00">kiwano_fruit</text>
</a>
</g>
</g>
<!-- dir_7679761027b1fa214ffd6938221a3b1c&#45;&gt;dir_b624d86e5671d82a613a73eb9566e66f -->
<g id="edge3" class="edge">
<title>dir_7679761027b1fa214ffd6938221a3b1c&#45;&gt;dir_b624d86e5671d82a613a73eb9566e66f</title>
<g id="a_edge3"><a xlink:href="dir_000021_000032.html" target="_top">
<path fill="none" stroke="#63b8ff" d="M306,-70.75C306,-63.8 306,-53.85 306,-45.13"/>
<polygon fill="#63b8ff" stroke="#63b8ff" points="309.5,-45.09 306,-35.09 302.5,-45.09 309.5,-45.09"/>
</a>
</g>
<g id="a_edge3&#45;headlabel"><a xlink:href="dir_000021_000032.html" target="_top" xlink:title="2">
<text text-anchor="middle" x="312.34" y="-46.18" font-family="Helvetica,sans-Serif" font-size="10.00" fill="#63b8ff">2</text>
</a>
</g>
</g>
<!-- dir_7679761027b1fa214ffd6938221a3b1c&#45;&gt;dir_d44c64559bbebec7f509842c48db8b23 -->
<g id="edge4" class="edge">
<title>dir_7679761027b1fa214ffd6938221a3b1c&#45;&gt;dir_d44c64559bbebec7f509842c48db8b23</title>
<g id="a_edge4"><a xlink:href="dir_000021_000019.html" target="_top">
<path fill="none" stroke="#63b8ff" d="M327.68,-70.86C335.82,-67.93 345.22,-64.92 354,-63 472.95,-36.98 509.23,-57.23 628.05,-36.01"/>
<polygon fill="#63b8ff" stroke="#63b8ff" points="628.69,-39.45 637.89,-34.19 627.42,-32.57 628.69,-39.45"/>
</a>
</g>
<g id="a_edge4&#45;headlabel"><a xlink:href="dir_000021_000019.html" target="_top" xlink:title="3">
<text text-anchor="middle" x="625.67" y="-40.39" font-family="Helvetica,sans-Serif" font-size="10.00" fill="#63b8ff">3</text>
</a>
</g>
</g>
<!-- dir_8ac8a7c7afcf091d3d7796402f7a1c36 -->
<g id="node5" class="node">
<title>dir_8ac8a7c7afcf091d3d7796402f7a1c36</title>
<g id="a_node5"><a xlink:href="dir_8ac8a7c7afcf091d3d7796402f7a1c36.html" target="_top" xlink:title="paddle_boat">
<polygon fill="#4ea9ff" stroke="#404040" points="548.5,-90 471.5,-90 471.5,-71 548.5,-71 548.5,-90"/>
<text text-anchor="middle" x="510" y="-78" font-family="Helvetica,sans-Serif" font-size="10.00">paddle_boat</text>
</a>
</g>
</g>
<!-- dir_8ac8a7c7afcf091d3d7796402f7a1c36&#45;&gt;dir_b624d86e5671d82a613a73eb9566e66f -->
<g id="edge6" class="edge">
<title>dir_8ac8a7c7afcf091d3d7796402f7a1c36&#45;&gt;dir_b624d86e5671d82a613a73eb9566e66f</title>
<g id="a_edge6"><a xlink:href="dir_000029_000032.html" target="_top">
<path fill="none" stroke="#63b8ff" d="M486.71,-70.96C478.91,-68.25 470.13,-65.34 462,-63 420.34,-51 371.57,-40.08 339.8,-33.37"/>
<polygon fill="#63b8ff" stroke="#63b8ff" points="340.22,-29.89 329.71,-31.27 338.79,-36.74 340.22,-29.89"/>
</a>
</g>
<g id="a_edge6&#45;headlabel"><a xlink:href="dir_000029_000032.html" target="_top" xlink:title="1">
<text text-anchor="middle" x="344.32" y="-25.34" font-family="Helvetica,sans-Serif" font-size="10.00" fill="#63b8ff">1</text>
</a>
</g>
</g>
<!-- dir_8ac8a7c7afcf091d3d7796402f7a1c36&#45;&gt;dir_d44c64559bbebec7f509842c48db8b23 -->
<g id="edge7" class="edge">
<title>dir_8ac8a7c7afcf091d3d7796402f7a1c36&#45;&gt;dir_d44c64559bbebec7f509842c48db8b23</title>
<g id="a_edge7"><a xlink:href="dir_000029_000019.html" target="_top">
<path fill="none" stroke="#63b8ff" d="M534.74,-70.98C560.37,-62.16 600.63,-48.31 629.41,-38.41"/>
<polygon fill="#63b8ff" stroke="#63b8ff" points="630.75,-41.65 639.06,-35.08 628.47,-35.03 630.75,-41.65"/>
</a>
</g>
<g id="a_edge7&#45;headlabel"><a xlink:href="dir_000029_000019.html" target="_top" xlink:title="6">
<text text-anchor="middle" x="628.27" y="-43" font-family="Helvetica,sans-Serif" font-size="10.00" fill="#63b8ff">6</text>
</a>
</g>
</g>
<!-- dir_9d35e33a62367a6e44d3f53c24813abf -->
<g id="node11" class="node">
<title>dir_9d35e33a62367a6e44d3f53c24813abf</title>
<g id="a_node11"><a xlink:href="dir_9d35e33a62367a6e44d3f53c24813abf.html" target="_top" xlink:title="courses">
<polygon fill="#daedff" stroke="red" points="762,-35 708,-35 708,-16 762,-16 762,-35"/>
<text text-anchor="middle" x="735" y="-23" font-family="Helvetica,sans-Serif" font-size="10.00">courses</text>
</a>
</g>
</g>
<!-- dir_8ac8a7c7afcf091d3d7796402f7a1c36&#45;&gt;dir_9d35e33a62367a6e44d3f53c24813abf -->
<g id="edge5" class="edge">
<title>dir_8ac8a7c7afcf091d3d7796402f7a1c36&#45;&gt;dir_9d35e33a62367a6e44d3f53c24813abf</title>
<g id="a_edge5"><a xlink:href="dir_000029_000009.html" target="_top">
<path fill="none" stroke="#63b8ff" d="M532.76,-70.97C540.67,-68.2 549.66,-65.25 558,-63 616.67,-47.17 634.81,-48.39 697.83,-35.17"/>
<polygon fill="#63b8ff" stroke="#63b8ff" points="698.85,-38.52 707.9,-33.01 697.39,-31.68 698.85,-38.52"/>
</a>
</g>
<g id="a_edge5&#45;headlabel"><a xlink:href="dir_000029_000009.html" target="_top" xlink:title="1">
<text text-anchor="middle" x="695.93" y="-39.55" font-family="Helvetica,sans-Serif" font-size="10.00" fill="#63b8ff">1</text>
</a>
</g>
</g>
<!-- dir_32d41aaa75ce6bc3595f304fa2abdf30 -->
<g id="node6" class="node">
<title>dir_32d41aaa75ce6bc3595f304fa2abdf30</title>
<g id="a_node6"><a xlink:href="dir_32d41aaa75ce6bc3595f304fa2abdf30.html" target="_top" xlink:title="piranha_plant">
<polygon fill="#4ea9ff" stroke="#404040" points="164.5,-90 81.5,-90 81.5,-71 164.5,-71 164.5,-90"/>
<text text-anchor="middle" x="123" y="-78" font-family="Helvetica,sans-Serif" font-size="10.00">piranha_plant</text>
</a>
</g>
</g>
<!-- dir_32d41aaa75ce6bc3595f304fa2abdf30&#45;&gt;dir_b624d86e5671d82a613a73eb9566e66f -->
<g id="edge8" class="edge">
<title>dir_32d41aaa75ce6bc3595f304fa2abdf30&#45;&gt;dir_b624d86e5671d82a613a73eb9566e66f</title>
<g id="a_edge8"><a xlink:href="dir_000030_000032.html" target="_top">
<path fill="none" stroke="#63b8ff" d="M148.62,-70.97C156.71,-68.34 165.71,-65.49 174,-63 207.17,-53.05 245.33,-42.61 272.06,-35.45"/>
<polygon fill="#63b8ff" stroke="#63b8ff" points="273.3,-38.74 282.07,-32.79 271.5,-31.98 273.3,-38.74"/>
</a>
</g>
<g id="a_edge8&#45;headlabel"><a xlink:href="dir_000030_000032.html" target="_top" xlink:title="2">
<text text-anchor="middle" x="270.56" y="-39.91" font-family="Helvetica,sans-Serif" font-size="10.00" fill="#63b8ff">2</text>
</a>
</g>
</g>
<!-- dir_32d41aaa75ce6bc3595f304fa2abdf30&#45;&gt;dir_d44c64559bbebec7f509842c48db8b23 -->
<g id="edge9" class="edge">
<title>dir_32d41aaa75ce6bc3595f304fa2abdf30&#45;&gt;dir_d44c64559bbebec7f509842c48db8b23</title>
<g id="a_edge9"><a xlink:href="dir_000030_000019.html" target="_top">
<path fill="none" stroke="#63b8ff" d="M145.28,-70.94C154.09,-67.92 164.4,-64.82 174,-63 371.92,-25.58 430.15,-67.89 627.77,-35.94"/>
<polygon fill="#63b8ff" stroke="#63b8ff" points="628.61,-39.34 637.9,-34.25 627.46,-32.44 628.61,-39.34"/>
</a>
</g>
<g id="a_edge9&#45;headlabel"><a xlink:href="dir_000030_000019.html" target="_top" xlink:title="1">
<text text-anchor="middle" x="625.53" y="-40.23" font-family="Helvetica,sans-Serif" font-size="10.00" fill="#63b8ff">1</text>
</a>
</g>
</g>
<!-- dir_517c47473db548defbc7dba6faac8c5d -->
<g id="node7" class="node">
<title>dir_517c47473db548defbc7dba6faac8c5d</title>
<g id="a_node7"><a xlink:href="dir_517c47473db548defbc7dba6faac8c5d.html" target="_top" xlink:title="train">
<polygon fill="#4ea9ff" stroke="#404040" points="63.5,-90 24.5,-90 24.5,-71 63.5,-71 63.5,-90"/>
<text text-anchor="middle" x="44" y="-78" font-family="Helvetica,sans-Serif" font-size="10.00">train</text>
</a>
</g>
</g>
<!-- dir_517c47473db548defbc7dba6faac8c5d&#45;&gt;dir_b624d86e5671d82a613a73eb9566e66f -->
<g id="edge10" class="edge">
<title>dir_517c47473db548defbc7dba6faac8c5d&#45;&gt;dir_b624d86e5671d82a613a73eb9566e66f</title>
<g id="a_edge10"><a xlink:href="dir_000040_000032.html" target="_top">
<path fill="none" stroke="#63b8ff" d="M56.32,-70.88C61.04,-67.95 66.58,-64.94 72,-63 140.42,-38.52 225.89,-30.44 272.27,-27.79"/>
<polygon fill="#63b8ff" stroke="#63b8ff" points="272.56,-31.28 282.37,-27.26 272.2,-24.29 272.56,-31.28"/>
</a>
</g>
<g id="a_edge10&#45;headlabel"><a xlink:href="dir_000040_000032.html" target="_top" xlink:title="2">
<text text-anchor="middle" x="269.12" y="-31.8" font-family="Helvetica,sans-Serif" font-size="10.00" fill="#63b8ff">2</text>
</a>
</g>
</g>
<!-- dir_517c47473db548defbc7dba6faac8c5d&#45;&gt;dir_d44c64559bbebec7f509842c48db8b23 -->
<g id="edge11" class="edge">
<title>dir_517c47473db548defbc7dba6faac8c5d&#45;&gt;dir_d44c64559bbebec7f509842c48db8b23</title>
<g id="a_edge11"><a xlink:href="dir_000040_000019.html" target="_top">
<path fill="none" stroke="#63b8ff" d="M55.67,-70.91C60.49,-67.84 66.27,-64.72 72,-63 188.74,-28.02 494.55,-53.89 627.84,-35.78"/>
<polygon fill="#63b8ff" stroke="#63b8ff" points="628.53,-39.21 637.9,-34.27 627.49,-32.29 628.53,-39.21"/>
</a>
</g>
<g id="a_edge11&#45;headlabel"><a xlink:href="dir_000040_000019.html" target="_top" xlink:title="1">
<text text-anchor="middle" x="625.4" y="-40.05" font-family="Helvetica,sans-Serif" font-size="10.00" fill="#63b8ff">1</text>
</a>
</g>
</g>
<!-- dir_67c598d34ecbc289289186654533bdd4 -->
<g id="node8" class="node">
<title>dir_67c598d34ecbc289289186654533bdd4</title>
<g id="a_node8"><a xlink:href="dir_67c598d34ecbc289289186654533bdd4.html" target="_top" xlink:title="tree">
<polygon fill="#4ea9ff" stroke="#404040" points="453,-90 417,-90 417,-71 453,-71 453,-90"/>
<text text-anchor="middle" x="435" y="-78" font-family="Helvetica,sans-Serif" font-size="10.00">tree</text>
</a>
</g>
</g>
<!-- dir_67c598d34ecbc289289186654533bdd4&#45;&gt;dir_b624d86e5671d82a613a73eb9566e66f -->
<g id="edge12" class="edge">
<title>dir_67c598d34ecbc289289186654533bdd4&#45;&gt;dir_b624d86e5671d82a613a73eb9566e66f</title>
<g id="a_edge12"><a xlink:href="dir_000041_000032.html" target="_top">
<path fill="none" stroke="#63b8ff" d="M422.12,-70.89C417.74,-68.16 412.76,-65.28 408,-63 385.79,-52.38 359.63,-43.08 339.36,-36.52"/>
<polygon fill="#63b8ff" stroke="#63b8ff" points="340.23,-33.13 329.64,-33.44 338.12,-39.8 340.23,-33.13"/>
</a>
</g>
<g id="a_edge12&#45;headlabel"><a xlink:href="dir_000041_000032.html" target="_top" xlink:title="1">
<text text-anchor="middle" x="344.52" y="-29.01" font-family="Helvetica,sans-Serif" font-size="10.00" fill="#63b8ff">1</text>
</a>
</g>
</g>
<!-- dir_67c598d34ecbc289289186654533bdd4&#45;&gt;dir_d44c64559bbebec7f509842c48db8b23 -->
<g id="edge13" class="edge">
<title>dir_67c598d34ecbc289289186654533bdd4&#45;&gt;dir_d44c64559bbebec7f509842c48db8b23</title>
<g id="a_edge13"><a xlink:href="dir_000041_000019.html" target="_top">
<path fill="none" stroke="#63b8ff" d="M447.33,-70.9C452.04,-67.98 457.59,-64.96 463,-63 532.3,-37.91 556.73,-50.54 627.98,-36.19"/>
<polygon fill="#63b8ff" stroke="#63b8ff" points="628.81,-39.6 637.87,-34.09 627.36,-32.75 628.81,-39.6"/>
</a>
</g>
<g id="a_edge13&#45;headlabel"><a xlink:href="dir_000041_000019.html" target="_top" xlink:title="1">
<text text-anchor="middle" x="625.89" y="-40.62" font-family="Helvetica,sans-Serif" font-size="10.00" fill="#63b8ff">1</text>
</a>
</g>
</g>
<!-- dir_d4d27fd96eedf0d64845ece7e3d1747c -->
<g id="node9" class="node">
<title>dir_d4d27fd96eedf0d64845ece7e3d1747c</title>
<g id="a_node9"><a xlink:href="dir_d4d27fd96eedf0d64845ece7e3d1747c.html" target="_top" xlink:title="yoshi_egg">
<polygon fill="#4ea9ff" stroke="#404040" points="249,-90 183,-90 183,-71 249,-71 249,-90"/>
<text text-anchor="middle" x="216" y="-78" font-family="Helvetica,sans-Serif" font-size="10.00">yoshi_egg</text>
</a>
</g>
</g>
<!-- dir_d4d27fd96eedf0d64845ece7e3d1747c&#45;&gt;dir_b624d86e5671d82a613a73eb9566e66f -->
<g id="edge14" class="edge">
<title>dir_d4d27fd96eedf0d64845ece7e3d1747c&#45;&gt;dir_b624d86e5671d82a613a73eb9566e66f</title>
<g id="a_edge14"><a xlink:href="dir_000044_000032.html" target="_top">
<path fill="none" stroke="#63b8ff" d="M230.46,-70.98C244.42,-62.77 265.79,-50.18 282.25,-40.49"/>
<polygon fill="#63b8ff" stroke="#63b8ff" points="284.44,-43.26 291.28,-35.17 280.88,-37.23 284.44,-43.26"/>
</a>
</g>
<g id="a_edge14&#45;headlabel"><a xlink:href="dir_000044_000032.html" target="_top" xlink:title="2">
<text text-anchor="middle" x="282.78" y="-45.03" font-family="Helvetica,sans-Serif" font-size="10.00" fill="#63b8ff">2</text>
</a>
</g>
</g>
<!-- dir_d4d27fd96eedf0d64845ece7e3d1747c&#45;&gt;dir_d44c64559bbebec7f509842c48db8b23 -->
<g id="edge15" class="edge">
<title>dir_d4d27fd96eedf0d64845ece7e3d1747c&#45;&gt;dir_d44c64559bbebec7f509842c48db8b23</title>
<g id="a_edge15"><a xlink:href="dir_000044_000019.html" target="_top">
<path fill="none" stroke="#63b8ff" d="M234.89,-70.88C242.27,-67.88 250.89,-64.82 259,-63 418.74,-27.2 467.44,-62.64 627.68,-35.99"/>
<polygon fill="#63b8ff" stroke="#63b8ff" points="628.63,-39.38 637.89,-34.23 627.45,-32.48 628.63,-39.38"/>
</a>
</g>
<g id="a_edge15&#45;headlabel"><a xlink:href="dir_000044_000019.html" target="_top" xlink:title="1">
<text text-anchor="middle" x="625.57" y="-40.28" font-family="Helvetica,sans-Serif" font-size="10.00" fill="#63b8ff">1</text>
</a>
</g>
</g>
</g>
</svg>

<g id="navigator" transform="translate(0 0)" fill="#404254">
  <rect fill="#f2f5e9" fill-opacity="0.5" stroke="#606060" stroke-width=".5" x="0" y="0" width="60" height="60"/>
  <use id="zoomplus" xlink:href="#zoomPlus" x="17" y="9" onmousedown="handleZoom(evt,'in')"/>
  <use id="zoomminus" xlink:href="#zoomMin" x="42" y="9" onmousedown="handleZoom(evt,'out')"/>
  <use id="reset" xlink:href="#resetDef" x="30" y="36" onmousedown="handleReset()"/>
   <use id="arrowup" xlink:href="#arrowUp" x="0" y="0" onmousedown="handlePan(0,-1)"/>
  <use id="arrowright" xlink:href="#arrowRight" x="0" y="0" onmousedown="handlePan(1,0)"/>
  <use id="arrowdown" xlink:href="#arrowDown" x="0" y="0" onmousedown="handlePan(0,1)"/>
  <use id="arrowleft" xlink:href="#arrowLeft" x="0" y="0" onmousedown="handlePan(-1,0)"/>
</g>
<svg viewBox="0 0 15 15" width="100%" height="30px" preserveAspectRatio="xMaxYMin meet">
 <g id="arrow_out" transform="scale(0.3 0.3)">
  <a xlink:href="dir_520494cf19be961f9d881ed04931ae5b_dep_org.svg" target="_base">
   <rect id="button" ry="5" rx="5" y="6" x="6" height="38" width="38"
        fill="#f2f5e9" fill-opacity="0.5" stroke="#606060" stroke-width="1.0"/>
   <path id="arrow"
     d="M 11.500037,31.436501 C 11.940474,20.09759 22.043105,11.32322 32.158766,21.979434 L 37.068811,17.246167 C 37.068811,17.246167 37.088388,32 37.088388,32 L 22.160133,31.978069 C 22.160133,31.978069 26.997745,27.140456 26.997745,27.140456 C 18.528582,18.264221 13.291696,25.230495 11.500037,31.436501 z"
     style="fill:#404040;"/>
  </a>
 </g>
</svg>

<style type='text/css'>
<![CDATA[
[data-mouse-over-selected='false'] { opacity: 0.7; }
[data-mouse-over-selected='true']  { opacity: 1.0; }
]]>
</style>
<script type="application/ecmascript"><![CDATA[
document.addEventListener('DOMContentLoaded', (event) => {
  highlightEdges();
  highlightAdjacentNodes();
});
]]></script>
</svg>
