<?xml version="1.0" encoding="UTF-8" standalone="no"?>
<!DOCTYPE svg PUBLIC "-//W3C//DTD SVG 1.1//EN"
 "http://www.w3.org/Graphics/SVG/1.1/DTD/svg11.dtd">
<!-- Generated by graphviz version 2.43.0 (0)
 -->
<!-- Title: src/actors Pages: 1 -->
<svg width="1109pt" height="141pt"
 viewBox="0.00 0.00 1109.00 141.00" xmlns="http://www.w3.org/2000/svg" xmlns:xlink="http://www.w3.org/1999/xlink">
<g id="graph0" class="graph" transform="scale(1 1) rotate(0) translate(4 137)">
<title>src/actors</title>
<g id="clust1" class="cluster">
<title>clusterdir_68267d1309a1af8e8297ef4c3efbcdba</title>
<g id="a_clust1"><a xlink:href="dir_68267d1309a1af8e8297ef4c3efbcdba.html" target="_top" xlink:title="src">
<polygon fill="#daedff" stroke="#404040" stroke-dasharray="5,2" points="8,-8 8,-125 969,-125 969,-8 8,-8"/>
<text text-anchor="middle" x="488.5" y="-113" font-family="Helvetica,sans-Serif" font-size="10.00">src</text>
</a>
</g>
</g>
<g id="clust2" class="cluster">
<title>clusterdir_520494cf19be961f9d881ed04931ae5b</title>
<g id="a_clust2"><a xlink:href="dir_520494cf19be961f9d881ed04931ae5b.html" target="_top">
<polygon fill="#daedff" stroke="#404040" stroke-width="2" points="16,-63 16,-98 961,-98 961,-63 16,-63"/>
</a>
</g>
</g>
<!-- dir_b624d86e5671d82a613a73eb9566e66f -->
<g id="node1" class="node">
<title>dir_b624d86e5671d82a613a73eb9566e66f</title>
<g id="a_node1"><a xlink:href="dir_b624d86e5671d82a613a73eb9566e66f.html" target="_top" xlink:title="racing">
<polygon fill="#4ea9ff" stroke="#404040" points="527.5,-35 480.5,-35 480.5,-16 527.5,-16 527.5,-35"/>
<text text-anchor="middle" x="504" y="-23" font-family="Helvetica,sans-Serif" font-size="10.00">racing</text>
</a>
</g>
</g>
<!-- dir_520494cf19be961f9d881ed04931ae5b -->
<g id="node2" class="node">
<title>dir_520494cf19be961f9d881ed04931ae5b</title>
<text text-anchor="middle" x="929" y="-78" font-family="Helvetica,sans-Serif" font-size="10.00">actors</text>
</g>
<!-- dir_c2bf07cbd3db5f76cf529844275ce26f -->
<g id="node3" class="node">
<title>dir_c2bf07cbd3db5f76cf529844275ce26f</title>
<g id="a_node3"><a xlink:href="dir_c2bf07cbd3db5f76cf529844275ce26f.html" target="_top" xlink:title="banana">
<polygon fill="#4ea9ff" stroke="#404040" points="593.5,-90 540.5,-90 540.5,-71 593.5,-71 593.5,-90"/>
<text text-anchor="middle" x="567" y="-78" font-family="Helvetica,sans-Serif" font-size="10.00">banana</text>
</a>
</g>
</g>
<!-- dir_c2bf07cbd3db5f76cf529844275ce26f&#45;&gt;dir_b624d86e5671d82a613a73eb9566e66f -->
<g id="edge1" class="edge">
<title>dir_c2bf07cbd3db5f76cf529844275ce26f&#45;&gt;dir_b624d86e5671d82a613a73eb9566e66f</title>
<g id="a_edge1"><a xlink:href="dir_000003_000035.html" target="_top">
<path fill="none" stroke="#63b8ff" d="M556.88,-70.98C547.56,-63.15 533.53,-51.34 522.26,-41.86"/>
<polygon fill="#63b8ff" stroke="#63b8ff" points="524.21,-38.93 514.31,-35.17 519.71,-44.29 524.21,-38.93"/>
</a>
</g>
<g id="a_edge1&#45;headlabel"><a xlink:href="dir_000003_000035.html" target="_top" xlink:title="2">
<text text-anchor="middle" x="528.79" y="-36.57" font-family="Helvetica,sans-Serif" font-size="10.00" fill="#63b8ff">2</text>
</a>
</g>
</g>
<!-- dir_d44c64559bbebec7f509842c48db8b23 -->
<g id="node14" class="node">
<title>dir_d44c64559bbebec7f509842c48db8b23</title>
<g id="a_node14"><a xlink:href="dir_d44c64559bbebec7f509842c48db8b23.html" target="_top" xlink:title="include">
<polygon fill="#daedff" stroke="red" points="1029,-35 977,-35 977,-16 1029,-16 1029,-35"/>
<text text-anchor="middle" x="1003" y="-23" font-family="Helvetica,sans-Serif" font-size="10.00">include</text>
</a>
</g>
</g>
<!-- dir_c2bf07cbd3db5f76cf529844275ce26f&#45;&gt;dir_d44c64559bbebec7f509842c48db8b23 -->
<g id="edge2" class="edge">
<title>dir_c2bf07cbd3db5f76cf529844275ce26f&#45;&gt;dir_d44c64559bbebec7f509842c48db8b23</title>
<g id="a_edge2"><a xlink:href="dir_000003_000021.html" target="_top">
<path fill="none" stroke="#63b8ff" d="M582.68,-70.85C588.84,-67.85 596.08,-64.79 603,-63 759.4,-22.62 808.61,-62.15 966.81,-35.96"/>
<polygon fill="#63b8ff" stroke="#63b8ff" points="967.63,-39.37 976.89,-34.23 966.44,-32.47 967.63,-39.37"/>
</a>
</g>
<g id="a_edge2&#45;headlabel"><a xlink:href="dir_000003_000021.html" target="_top" xlink:title="1">
<text text-anchor="middle" x="964.57" y="-40.28" font-family="Helvetica,sans-Serif" font-size="10.00" fill="#63b8ff">1</text>
</a>
</g>
</g>
<!-- dir_7aa598291e9b46b83c172d01488969a3 -->
<g id="node4" class="node">
<title>dir_7aa598291e9b46b83c172d01488969a3</title>
<g id="a_node4"><a xlink:href="dir_7aa598291e9b46b83c172d01488969a3.html" target="_top" xlink:title="cow">
<polygon fill="#4ea9ff" stroke="#404040" points="522,-90 486,-90 486,-71 522,-71 522,-90"/>
<text text-anchor="middle" x="504" y="-78" font-family="Helvetica,sans-Serif" font-size="10.00">cow</text>
</a>
</g>
</g>
<!-- dir_7aa598291e9b46b83c172d01488969a3&#45;&gt;dir_b624d86e5671d82a613a73eb9566e66f -->
<g id="edge3" class="edge">
<title>dir_7aa598291e9b46b83c172d01488969a3&#45;&gt;dir_b624d86e5671d82a613a73eb9566e66f</title>
<g id="a_edge3"><a xlink:href="dir_000012_000035.html" target="_top">
<path fill="none" stroke="#63b8ff" d="M504,-70.75C504,-63.8 504,-53.85 504,-45.13"/>
<polygon fill="#63b8ff" stroke="#63b8ff" points="507.5,-45.09 504,-35.09 500.5,-45.09 507.5,-45.09"/>
</a>
</g>
<g id="a_edge3&#45;headlabel"><a xlink:href="dir_000012_000035.html" target="_top" xlink:title="1">
<text text-anchor="middle" x="510.34" y="-46.18" font-family="Helvetica,sans-Serif" font-size="10.00" fill="#63b8ff">1</text>
</a>
</g>
</g>
<!-- dir_7aa598291e9b46b83c172d01488969a3&#45;&gt;dir_d44c64559bbebec7f509842c48db8b23 -->
<g id="edge4" class="edge">
<title>dir_7aa598291e9b46b83c172d01488969a3&#45;&gt;dir_d44c64559bbebec7f509842c48db8b23</title>
<g id="a_edge4"><a xlink:href="dir_000012_000021.html" target="_top">
<path fill="none" stroke="#63b8ff" d="M515.69,-70.95C520.5,-67.89 526.28,-64.76 532,-63 716.53,-6.33 777.35,-66.07 966.89,-35.9"/>
<polygon fill="#63b8ff" stroke="#63b8ff" points="967.6,-39.34 976.9,-34.25 966.46,-32.43 967.6,-39.34"/>
</a>
</g>
<g id="a_edge4&#45;headlabel"><a xlink:href="dir_000012_000021.html" target="_top" xlink:title="1">
<text text-anchor="middle" x="964.52" y="-40.22" font-family="Helvetica,sans-Serif" font-size="10.00" fill="#63b8ff">1</text>
</a>
</g>
</g>
<!-- dir_082d554c8445af69fa49f0d23f20fa3b -->
<g id="node5" class="node">
<title>dir_082d554c8445af69fa49f0d23f20fa3b</title>
<g id="a_node5"><a xlink:href="dir_082d554c8445af69fa49f0d23f20fa3b.html" target="_top" xlink:title="green_shell">
<polygon fill="#4ea9ff" stroke="#404040" points="467.5,-90 394.5,-90 394.5,-71 467.5,-71 467.5,-90"/>
<text text-anchor="middle" x="431" y="-78" font-family="Helvetica,sans-Serif" font-size="10.00">green_shell</text>
</a>
</g>
</g>
<!-- dir_082d554c8445af69fa49f0d23f20fa3b&#45;&gt;dir_b624d86e5671d82a613a73eb9566e66f -->
<g id="edge5" class="edge">
<title>dir_082d554c8445af69fa49f0d23f20fa3b&#45;&gt;dir_b624d86e5671d82a613a73eb9566e66f</title>
<g id="a_edge5"><a xlink:href="dir_000020_000035.html" target="_top">
<path fill="none" stroke="#63b8ff" d="M442.73,-70.98C453.73,-63 470.42,-50.88 483.6,-41.31"/>
<polygon fill="#63b8ff" stroke="#63b8ff" points="486.02,-43.88 492.06,-35.17 481.91,-38.21 486.02,-43.88"/>
</a>
</g>
<g id="a_edge5&#45;headlabel"><a xlink:href="dir_000020_000035.html" target="_top" xlink:title="2">
<text text-anchor="middle" x="484.78" y="-45.79" font-family="Helvetica,sans-Serif" font-size="10.00" fill="#63b8ff">2</text>
</a>
</g>
</g>
<!-- dir_082d554c8445af69fa49f0d23f20fa3b&#45;&gt;dir_d44c64559bbebec7f509842c48db8b23 -->
<g id="edge6" class="edge">
<title>dir_082d554c8445af69fa49f0d23f20fa3b&#45;&gt;dir_d44c64559bbebec7f509842c48db8b23</title>
<g id="a_edge6"><a xlink:href="dir_000020_000021.html" target="_top">
<path fill="none" stroke="#63b8ff" d="M450.79,-70.99C458.79,-67.93 468.19,-64.79 477,-63 690.1,-19.71 753.34,-69.97 966.94,-35.89"/>
<polygon fill="#63b8ff" stroke="#63b8ff" points="967.6,-39.33 976.9,-34.26 966.46,-32.42 967.6,-39.33"/>
</a>
</g>
<g id="a_edge6&#45;headlabel"><a xlink:href="dir_000020_000021.html" target="_top" xlink:title="2">
<text text-anchor="middle" x="964.51" y="-40.21" font-family="Helvetica,sans-Serif" font-size="10.00" fill="#63b8ff">2</text>
</a>
</g>
</g>
<!-- dir_7679761027b1fa214ffd6938221a3b1c -->
<g id="node6" class="node">
<title>dir_7679761027b1fa214ffd6938221a3b1c</title>
<g id="a_node6"><a xlink:href="dir_7679761027b1fa214ffd6938221a3b1c.html" target="_top" xlink:title="kiwano_fruit">
<polygon fill="#4ea9ff" stroke="#404040" points="376.5,-90 299.5,-90 299.5,-71 376.5,-71 376.5,-90"/>
<text text-anchor="middle" x="338" y="-78" font-family="Helvetica,sans-Serif" font-size="10.00">kiwano_fruit</text>
</a>
</g>
</g>
<!-- dir_7679761027b1fa214ffd6938221a3b1c&#45;&gt;dir_b624d86e5671d82a613a73eb9566e66f -->
<g id="edge7" class="edge">
<title>dir_7679761027b1fa214ffd6938221a3b1c&#45;&gt;dir_b624d86e5671d82a613a73eb9566e66f</title>
<g id="a_edge7"><a xlink:href="dir_000023_000035.html" target="_top">
<path fill="none" stroke="#63b8ff" d="M362.37,-70.96C369.93,-68.35 378.29,-65.52 386,-63 414.54,-53.68 447.15,-43.64 470.85,-36.45"/>
<polygon fill="#63b8ff" stroke="#63b8ff" points="471.87,-39.8 480.42,-33.56 469.84,-33.1 471.87,-39.8"/>
</a>
</g>
<g id="a_edge7&#45;headlabel"><a xlink:href="dir_000023_000035.html" target="_top" xlink:title="2">
<text text-anchor="middle" x="469.25" y="-41.06" font-family="Helvetica,sans-Serif" font-size="10.00" fill="#63b8ff">2</text>
</a>
</g>
</g>
<!-- dir_7679761027b1fa214ffd6938221a3b1c&#45;&gt;dir_d44c64559bbebec7f509842c48db8b23 -->
<g id="edge8" class="edge">
<title>dir_7679761027b1fa214ffd6938221a3b1c&#45;&gt;dir_d44c64559bbebec7f509842c48db8b23</title>
<g id="a_edge8"><a xlink:href="dir_000023_000021.html" target="_top">
<path fill="none" stroke="#63b8ff" d="M358.68,-70.96C367.02,-67.89 376.83,-64.76 386,-63 639.26,-14.46 713.35,-75.51 967.03,-35.85"/>
<polygon fill="#63b8ff" stroke="#63b8ff" points="967.58,-39.31 976.9,-34.27 966.47,-32.4 967.58,-39.31"/>
</a>
</g>
<g id="a_edge8&#45;headlabel"><a xlink:href="dir_000023_000021.html" target="_top" xlink:title="3">
<text text-anchor="middle" x="964.48" y="-40.18" font-family="Helvetica,sans-Serif" font-size="10.00" fill="#63b8ff">3</text>
</a>
</g>
</g>
<!-- dir_44e7156490831c070e02a11e532265a8 -->
<g id="node7" class="node">
<title>dir_44e7156490831c070e02a11e532265a8</title>
<g id="a_node7"><a xlink:href="dir_44e7156490831c070e02a11e532265a8.html" target="_top" xlink:title="other_shell">
<polygon fill="#4ea9ff" stroke="#404040" points="281.5,-90 210.5,-90 210.5,-71 281.5,-71 281.5,-90"/>
<text text-anchor="middle" x="246" y="-78" font-family="Helvetica,sans-Serif" font-size="10.00">other_shell</text>
</a>
</g>
</g>
<!-- dir_44e7156490831c070e02a11e532265a8&#45;&gt;dir_b624d86e5671d82a613a73eb9566e66f -->
<g id="edge9" class="edge">
<title>dir_44e7156490831c070e02a11e532265a8&#45;&gt;dir_b624d86e5671d82a613a73eb9566e66f</title>
<g id="a_edge9"><a xlink:href="dir_000031_000035.html" target="_top">
<path fill="none" stroke="#63b8ff" d="M266.81,-70.97C274.33,-68.13 282.96,-65.14 291,-63 353.33,-46.38 428.01,-35.62 470.34,-30.35"/>
<polygon fill="#63b8ff" stroke="#63b8ff" points="470.87,-33.81 480.38,-29.12 470.03,-26.86 470.87,-33.81"/>
</a>
</g>
<g id="a_edge9&#45;headlabel"><a xlink:href="dir_000031_000035.html" target="_top" xlink:title="3">
<text text-anchor="middle" x="467.65" y="-34.56" font-family="Helvetica,sans-Serif" font-size="10.00" fill="#63b8ff">3</text>
</a>
</g>
</g>
<!-- dir_44e7156490831c070e02a11e532265a8&#45;&gt;dir_d44c64559bbebec7f509842c48db8b23 -->
<g id="edge10" class="edge">
<title>dir_44e7156490831c070e02a11e532265a8&#45;&gt;dir_d44c64559bbebec7f509842c48db8b23</title>
<g id="a_edge10"><a xlink:href="dir_000031_000021.html" target="_top">
<path fill="none" stroke="#63b8ff" d="M265.33,-70.92C273.15,-67.84 282.35,-64.72 291,-63 585.2,-4.51 671.51,-81.14 966.76,-35.87"/>
<polygon fill="#63b8ff" stroke="#63b8ff" points="967.57,-39.29 976.9,-34.28 966.48,-32.38 967.57,-39.29"/>
</a>
</g>
<g id="a_edge10&#45;headlabel"><a xlink:href="dir_000031_000021.html" target="_top" xlink:title="3">
<text text-anchor="middle" x="964.45" y="-40.15" font-family="Helvetica,sans-Serif" font-size="10.00" fill="#63b8ff">3</text>
</a>
</g>
</g>
<!-- dir_8ac8a7c7afcf091d3d7796402f7a1c36 -->
<g id="node8" class="node">
<title>dir_8ac8a7c7afcf091d3d7796402f7a1c36</title>
<g id="a_node8"><a xlink:href="dir_8ac8a7c7afcf091d3d7796402f7a1c36.html" target="_top" xlink:title="paddle_boat">
<polygon fill="#4ea9ff" stroke="#404040" points="887.5,-90 810.5,-90 810.5,-71 887.5,-71 887.5,-90"/>
<text text-anchor="middle" x="849" y="-78" font-family="Helvetica,sans-Serif" font-size="10.00">paddle_boat</text>
</a>
</g>
</g>
<!-- dir_8ac8a7c7afcf091d3d7796402f7a1c36&#45;&gt;dir_b624d86e5671d82a613a73eb9566e66f -->
<g id="edge12" class="edge">
<title>dir_8ac8a7c7afcf091d3d7796402f7a1c36&#45;&gt;dir_b624d86e5671d82a613a73eb9566e66f</title>
<g id="a_edge12"><a xlink:href="dir_000032_000035.html" target="_top">
<path fill="none" stroke="#63b8ff" d="M827.76,-70.95C819.8,-68.04 810.59,-65.01 802,-63 707.83,-40.98 593.63,-31.7 537.89,-28.27"/>
<polygon fill="#63b8ff" stroke="#63b8ff" points="538.06,-24.77 527.87,-27.67 537.64,-31.76 538.06,-24.77"/>
</a>
</g>
<g id="a_edge12&#45;headlabel"><a xlink:href="dir_000032_000035.html" target="_top" xlink:title="1">
<text text-anchor="middle" x="541.81" y="-19.65" font-family="Helvetica,sans-Serif" font-size="10.00" fill="#63b8ff">1</text>
</a>
</g>
</g>
<!-- dir_8ac8a7c7afcf091d3d7796402f7a1c36&#45;&gt;dir_d44c64559bbebec7f509842c48db8b23 -->
<g id="edge13" class="edge">
<title>dir_8ac8a7c7afcf091d3d7796402f7a1c36&#45;&gt;dir_d44c64559bbebec7f509842c48db8b23</title>
<g id="a_edge13"><a xlink:href="dir_000032_000021.html" target="_top">
<path fill="none" stroke="#63b8ff" d="M873.74,-70.98C899.37,-62.16 939.63,-48.31 968.41,-38.41"/>
<polygon fill="#63b8ff" stroke="#63b8ff" points="969.75,-41.65 978.06,-35.08 967.47,-35.03 969.75,-41.65"/>
</a>
</g>
<g id="a_edge13&#45;headlabel"><a xlink:href="dir_000032_000021.html" target="_top" xlink:title="6">
<text text-anchor="middle" x="967.27" y="-43" font-family="Helvetica,sans-Serif" font-size="10.00" fill="#63b8ff">6</text>
</a>
</g>
</g>
<!-- dir_9d35e33a62367a6e44d3f53c24813abf -->
<g id="node15" class="node">
<title>dir_9d35e33a62367a6e44d3f53c24813abf</title>
<g id="a_node15"><a xlink:href="dir_9d35e33a62367a6e44d3f53c24813abf.html" target="_top" xlink:title="courses">
<polygon fill="#daedff" stroke="red" points="1101,-35 1047,-35 1047,-16 1101,-16 1101,-35"/>
<text text-anchor="middle" x="1074" y="-23" font-family="Helvetica,sans-Serif" font-size="10.00">courses</text>
</a>
</g>
</g>
<!-- dir_8ac8a7c7afcf091d3d7796402f7a1c36&#45;&gt;dir_9d35e33a62367a6e44d3f53c24813abf -->
<g id="edge11" class="edge">
<title>dir_8ac8a7c7afcf091d3d7796402f7a1c36&#45;&gt;dir_9d35e33a62367a6e44d3f53c24813abf</title>
<g id="a_edge11"><a xlink:href="dir_000032_000010.html" target="_top">
<path fill="none" stroke="#63b8ff" d="M871.76,-70.97C879.67,-68.2 888.66,-65.25 897,-63 955.67,-47.17 973.81,-48.39 1036.83,-35.17"/>
<polygon fill="#63b8ff" stroke="#63b8ff" points="1037.85,-38.52 1046.9,-33.01 1036.39,-31.68 1037.85,-38.52"/>
</a>
</g>
<g id="a_edge11&#45;headlabel"><a xlink:href="dir_000032_000010.html" target="_top" xlink:title="1">
<text text-anchor="middle" x="1034.93" y="-39.55" font-family="Helvetica,sans-Serif" font-size="10.00" fill="#63b8ff">1</text>
</a>
</g>
</g>
<!-- dir_32d41aaa75ce6bc3595f304fa2abdf30 -->
<g id="node9" class="node">
<title>dir_32d41aaa75ce6bc3595f304fa2abdf30</title>
<g id="a_node9"><a xlink:href="dir_32d41aaa75ce6bc3595f304fa2abdf30.html" target="_top" xlink:title="piranha_plant">
<polygon fill="#4ea9ff" stroke="#404040" points="107.5,-90 24.5,-90 24.5,-71 107.5,-71 107.5,-90"/>
<text text-anchor="middle" x="66" y="-78" font-family="Helvetica,sans-Serif" font-size="10.00">piranha_plant</text>
</a>
</g>
</g>
<!-- dir_32d41aaa75ce6bc3595f304fa2abdf30&#45;&gt;dir_b624d86e5671d82a613a73eb9566e66f -->
<g id="edge14" class="edge">
<title>dir_32d41aaa75ce6bc3595f304fa2abdf30&#45;&gt;dir_b624d86e5671d82a613a73eb9566e66f</title>
<g id="a_edge14"><a xlink:href="dir_000033_000035.html" target="_top">
<path fill="none" stroke="#63b8ff" d="M88.82,-70.94C97.52,-67.99 107.61,-64.94 117,-63 245.61,-36.46 402.3,-29.18 470.08,-27.21"/>
<polygon fill="#63b8ff" stroke="#63b8ff" points="470.27,-30.71 480.17,-26.94 470.08,-23.71 470.27,-30.71"/>
</a>
</g>
<g id="a_edge14&#45;headlabel"><a xlink:href="dir_000033_000035.html" target="_top" xlink:title="2">
<text text-anchor="middle" x="466.76" y="-31.14" font-family="Helvetica,sans-Serif" font-size="10.00" fill="#63b8ff">2</text>
</a>
</g>
</g>
<!-- dir_32d41aaa75ce6bc3595f304fa2abdf30&#45;&gt;dir_d44c64559bbebec7f509842c48db8b23 -->
<g id="edge15" class="edge">
<title>dir_32d41aaa75ce6bc3595f304fa2abdf30&#45;&gt;dir_d44c64559bbebec7f509842c48db8b23</title>
<g id="a_edge15"><a xlink:href="dir_000033_000021.html" target="_top">
<path fill="none" stroke="#63b8ff" d="M87.75,-70.98C96.67,-67.88 107.19,-64.71 117,-63 488.68,1.87 595.02,-91.86 966.95,-35.82"/>
<polygon fill="#63b8ff" stroke="#63b8ff" points="967.55,-39.27 976.9,-34.3 966.49,-32.35 967.55,-39.27"/>
</a>
</g>
<g id="a_edge15&#45;headlabel"><a xlink:href="dir_000033_000021.html" target="_top" xlink:title="1">
<text text-anchor="middle" x="964.43" y="-40.12" font-family="Helvetica,sans-Serif" font-size="10.00" fill="#63b8ff">1</text>
</a>
</g>
</g>
<!-- dir_517c47473db548defbc7dba6faac8c5d -->
<g id="node10" class="node">
<title>dir_517c47473db548defbc7dba6faac8c5d</title>
<g id="a_node10"><a xlink:href="dir_517c47473db548defbc7dba6faac8c5d.html" target="_top" xlink:title="train">
<polygon fill="#4ea9ff" stroke="#404040" points="792.5,-90 753.5,-90 753.5,-71 792.5,-71 792.5,-90"/>
<text text-anchor="middle" x="773" y="-78" font-family="Helvetica,sans-Serif" font-size="10.00">train</text>
</a>
</g>
</g>
<!-- dir_517c47473db548defbc7dba6faac8c5d&#45;&gt;dir_b624d86e5671d82a613a73eb9566e66f -->
<g id="edge16" class="edge">
<title>dir_517c47473db548defbc7dba6faac8c5d&#45;&gt;dir_b624d86e5671d82a613a73eb9566e66f</title>
<g id="a_edge16"><a xlink:href="dir_000043_000035.html" target="_top">
<path fill="none" stroke="#63b8ff" d="M760.2,-70.87C755.32,-67.95 749.58,-64.94 744,-63 673.11,-38.39 584.75,-30.36 537.5,-27.75"/>
<polygon fill="#63b8ff" stroke="#63b8ff" points="537.67,-24.25 527.51,-27.24 537.32,-31.24 537.67,-24.25"/>
</a>
</g>
<g id="a_edge16&#45;headlabel"><a xlink:href="dir_000043_000035.html" target="_top" xlink:title="2">
<text text-anchor="middle" x="541.41" y="-19.1" font-family="Helvetica,sans-Serif" font-size="10.00" fill="#63b8ff">2</text>
</a>
</g>
</g>
<!-- dir_517c47473db548defbc7dba6faac8c5d&#45;&gt;dir_d44c64559bbebec7f509842c48db8b23 -->
<g id="edge17" class="edge">
<title>dir_517c47473db548defbc7dba6faac8c5d&#45;&gt;dir_d44c64559bbebec7f509842c48db8b23</title>
<g id="a_edge17"><a xlink:href="dir_000043_000021.html" target="_top">
<path fill="none" stroke="#63b8ff" d="M785.81,-70.91C790.69,-67.99 796.43,-64.97 802,-63 871.49,-38.44 895.74,-50.58 966.98,-36.2"/>
<polygon fill="#63b8ff" stroke="#63b8ff" points="967.81,-39.6 976.87,-34.09 966.36,-32.75 967.81,-39.6"/>
</a>
</g>
<g id="a_edge17&#45;headlabel"><a xlink:href="dir_000043_000021.html" target="_top" xlink:title="1">
<text text-anchor="middle" x="964.89" y="-40.62" font-family="Helvetica,sans-Serif" font-size="10.00" fill="#63b8ff">1</text>
</a>
</g>
</g>
<!-- dir_67c598d34ecbc289289186654533bdd4 -->
<g id="node11" class="node">
<title>dir_67c598d34ecbc289289186654533bdd4</title>
<g id="a_node11"><a xlink:href="dir_67c598d34ecbc289289186654533bdd4.html" target="_top" xlink:title="tree">
<polygon fill="#4ea9ff" stroke="#404040" points="735,-90 699,-90 699,-71 735,-71 735,-90"/>
<text text-anchor="middle" x="717" y="-78" font-family="Helvetica,sans-Serif" font-size="10.00">tree</text>
</a>
</g>
</g>
<!-- dir_67c598d34ecbc289289186654533bdd4&#45;&gt;dir_b624d86e5671d82a613a73eb9566e66f -->
<g id="edge18" class="edge">
<title>dir_67c598d34ecbc289289186654533bdd4&#45;&gt;dir_b624d86e5671d82a613a73eb9566e66f</title>
<g id="a_edge18"><a xlink:href="dir_000044_000035.html" target="_top">
<path fill="none" stroke="#63b8ff" d="M705.11,-70.98C700.57,-68.06 695.22,-65.03 690,-63 638.98,-43.14 575.73,-33.68 537.68,-29.49"/>
<polygon fill="#63b8ff" stroke="#63b8ff" points="537.96,-26 527.65,-28.44 537.23,-32.96 537.96,-26"/>
</a>
</g>
<g id="a_edge18&#45;headlabel"><a xlink:href="dir_000044_000035.html" target="_top" xlink:title="1">
<text text-anchor="middle" x="541.83" y="-21.05" font-family="Helvetica,sans-Serif" font-size="10.00" fill="#63b8ff">1</text>
</a>
</g>
</g>
<!-- dir_67c598d34ecbc289289186654533bdd4&#45;&gt;dir_d44c64559bbebec7f509842c48db8b23 -->
<g id="edge19" class="edge">
<title>dir_67c598d34ecbc289289186654533bdd4&#45;&gt;dir_d44c64559bbebec7f509842c48db8b23</title>
<g id="a_edge19"><a xlink:href="dir_000044_000021.html" target="_top">
<path fill="none" stroke="#63b8ff" d="M729.01,-70.95C733.78,-67.96 739.44,-64.89 745,-63 838.56,-31.23 870.84,-53.64 967.05,-36.05"/>
<polygon fill="#63b8ff" stroke="#63b8ff" points="967.72,-39.49 976.88,-34.16 966.4,-32.61 967.72,-39.49"/>
</a>
</g>
<g id="a_edge19&#45;headlabel"><a xlink:href="dir_000044_000021.html" target="_top" xlink:title="1">
<text text-anchor="middle" x="964.73" y="-40.45" font-family="Helvetica,sans-Serif" font-size="10.00" fill="#63b8ff">1</text>
</a>
</g>
</g>
<!-- dir_565e0f503a63db633f15051bd0fb9ed2 -->
<g id="node12" class="node">
<title>dir_565e0f503a63db633f15051bd0fb9ed2</title>
<g id="a_node12"><a xlink:href="dir_565e0f503a63db633f15051bd0fb9ed2.html" target="_top" xlink:title="wario_sign">
<polygon fill="#4ea9ff" stroke="#404040" points="680.5,-90 611.5,-90 611.5,-71 680.5,-71 680.5,-90"/>
<text text-anchor="middle" x="646" y="-78" font-family="Helvetica,sans-Serif" font-size="10.00">wario_sign</text>
</a>
</g>
</g>
<!-- dir_565e0f503a63db633f15051bd0fb9ed2&#45;&gt;dir_b624d86e5671d82a613a73eb9566e66f -->
<g id="edge20" class="edge">
<title>dir_565e0f503a63db633f15051bd0fb9ed2&#45;&gt;dir_b624d86e5671d82a613a73eb9566e66f</title>
<g id="a_edge20"><a xlink:href="dir_000046_000035.html" target="_top">
<path fill="none" stroke="#63b8ff" d="M623.7,-70.88C617.05,-68.33 609.74,-65.53 603,-63 581.1,-54.76 556.41,-45.66 537.16,-38.6"/>
<polygon fill="#63b8ff" stroke="#63b8ff" points="538.23,-35.27 527.64,-35.12 535.82,-41.84 538.23,-35.27"/>
</a>
</g>
<g id="a_edge20&#45;headlabel"><a xlink:href="dir_000046_000035.html" target="_top" xlink:title="2">
<text text-anchor="middle" x="542.58" y="-31.34" font-family="Helvetica,sans-Serif" font-size="10.00" fill="#63b8ff">2</text>
</a>
</g>
</g>
<!-- dir_565e0f503a63db633f15051bd0fb9ed2&#45;&gt;dir_d44c64559bbebec7f509842c48db8b23 -->
<g id="edge21" class="edge">
<title>dir_565e0f503a63db633f15051bd0fb9ed2&#45;&gt;dir_d44c64559bbebec7f509842c48db8b23</title>
<g id="a_edge21"><a xlink:href="dir_000046_000021.html" target="_top">
<path fill="none" stroke="#63b8ff" d="M665.38,-70.99C672.93,-68.01 681.74,-64.92 690,-63 809.86,-35.1 846.88,-57.3 966.95,-36.02"/>
<polygon fill="#63b8ff" stroke="#63b8ff" points="967.68,-39.44 976.89,-34.19 966.42,-32.56 967.68,-39.44"/>
</a>
</g>
<g id="a_edge21&#45;headlabel"><a xlink:href="dir_000046_000021.html" target="_top" xlink:title="1">
<text text-anchor="middle" x="964.66" y="-40.39" font-family="Helvetica,sans-Serif" font-size="10.00" fill="#63b8ff">1</text>
</a>
</g>
</g>
<!-- dir_d4d27fd96eedf0d64845ece7e3d1747c -->
<g id="node13" class="node">
<title>dir_d4d27fd96eedf0d64845ece7e3d1747c</title>
<g id="a_node13"><a xlink:href="dir_d4d27fd96eedf0d64845ece7e3d1747c.html" target="_top" xlink:title="yoshi_egg">
<polygon fill="#4ea9ff" stroke="#404040" points="192,-90 126,-90 126,-71 192,-71 192,-90"/>
<text text-anchor="middle" x="159" y="-78" font-family="Helvetica,sans-Serif" font-size="10.00">yoshi_egg</text>
</a>
</g>
</g>
<!-- dir_d4d27fd96eedf0d64845ece7e3d1747c&#45;&gt;dir_b624d86e5671d82a613a73eb9566e66f -->
<g id="edge22" class="edge">
<title>dir_d4d27fd96eedf0d64845ece7e3d1747c&#45;&gt;dir_b624d86e5671d82a613a73eb9566e66f</title>
<g id="a_edge22"><a xlink:href="dir_000048_000035.html" target="_top">
<path fill="none" stroke="#63b8ff" d="M178.37,-70.9C185.65,-67.98 194.08,-64.97 202,-63 297.34,-39.33 413.58,-30.79 470,-27.89"/>
<polygon fill="#63b8ff" stroke="#63b8ff" points="470.33,-31.37 480.15,-27.39 469.99,-24.38 470.33,-31.37"/>
</a>
</g>
<g id="a_edge22&#45;headlabel"><a xlink:href="dir_000048_000035.html" target="_top" xlink:title="2">
<text text-anchor="middle" x="466.88" y="-31.88" font-family="Helvetica,sans-Serif" font-size="10.00" fill="#63b8ff">2</text>
</a>
</g>
</g>
<!-- dir_d4d27fd96eedf0d64845ece7e3d1747c&#45;&gt;dir_d44c64559bbebec7f509842c48db8b23 -->
<g id="edge23" class="edge">
<title>dir_d4d27fd96eedf0d64845ece7e3d1747c&#45;&gt;dir_d44c64559bbebec7f509842c48db8b23</title>
<g id="a_edge23"><a xlink:href="dir_000048_000021.html" target="_top">
<path fill="none" stroke="#63b8ff" d="M177.43,-70.89C184.9,-67.82 193.7,-64.7 202,-63 534.68,4.91 632.38,-86.52 966.94,-35.83"/>
<polygon fill="#63b8ff" stroke="#63b8ff" points="967.56,-39.28 976.9,-34.29 966.49,-32.36 967.56,-39.28"/>
</a>
</g>
<g id="a_edge23&#45;headlabel"><a xlink:href="dir_000048_000021.html" target="_top" xlink:title="1">
<text text-anchor="middle" x="964.44" y="-40.13" font-family="Helvetica,sans-Serif" font-size="10.00" fill="#63b8ff">1</text>
</a>
</g>
</g>
</g>
</svg>
