<?xml version="1.0" encoding="UTF-8" standalone="no"?>
<!DOCTYPE svg PUBLIC "-//W3C//DTD SVG 1.1//EN"
 "http://www.w3.org/Graphics/SVG/1.1/DTD/svg11.dtd">
<!-- Generated by graphviz version 2.43.0 (0)
 -->
<!-- Title: src/actors Pages: 1 -->
<svg width="2049pt" height="141pt"
 viewBox="0.00 0.00 2049.00 141.00" xmlns="http://www.w3.org/2000/svg" xmlns:xlink="http://www.w3.org/1999/xlink">
<g id="graph0" class="graph" transform="scale(1 1) rotate(0) translate(4 137)">
<title>src/actors</title>
<g id="clust1" class="cluster">
<title>clusterdir_68267d1309a1af8e8297ef4c3efbcdba</title>
<g id="a_clust1"><a xlink:href="dir_68267d1309a1af8e8297ef4c3efbcdba.html" target="_top" xlink:title="src">
<polygon fill="#daedff" stroke="#404040" stroke-dasharray="5,2" points="8,-8 8,-125 1909,-125 1909,-8 8,-8"/>
<text text-anchor="middle" x="958.5" y="-113" font-family="Helvetica,sans-Serif" font-size="10.00">src</text>
</a>
</g>
</g>
<g id="clust2" class="cluster">
<title>clusterdir_520494cf19be961f9d881ed04931ae5b</title>
<g id="a_clust2"><a xlink:href="dir_520494cf19be961f9d881ed04931ae5b.html" target="_top">
<polygon fill="#daedff" stroke="#404040" stroke-width="2" points="16,-63 16,-98 1901,-98 1901,-63 16,-63"/>
</a>
</g>
</g>
<!-- dir_b624d86e5671d82a613a73eb9566e66f -->
<g id="node1" class="node">
<title>dir_b624d86e5671d82a613a73eb9566e66f</title>
<g id="a_node1"><a xlink:href="dir_b624d86e5671d82a613a73eb9566e66f.html" target="_top" xlink:title="racing">
<polygon fill="#4ea9ff" stroke="#404040" points="909.5,-35 862.5,-35 862.5,-16 909.5,-16 909.5,-35"/>
<text text-anchor="middle" x="886" y="-23" font-family="Helvetica,sans-Serif" font-size="10.00">racing</text>
</a>
</g>
</g>
<!-- dir_520494cf19be961f9d881ed04931ae5b -->
<g id="node2" class="node">
<title>dir_520494cf19be961f9d881ed04931ae5b</title>
<text text-anchor="middle" x="1869" y="-78" font-family="Helvetica,sans-Serif" font-size="10.00">actors</text>
</g>
<!-- dir_c2bf07cbd3db5f76cf529844275ce26f -->
<g id="node3" class="node">
<title>dir_c2bf07cbd3db5f76cf529844275ce26f</title>
<g id="a_node3"><a xlink:href="dir_c2bf07cbd3db5f76cf529844275ce26f.html" target="_top" xlink:title="banana">
<polygon fill="#4ea9ff" stroke="#404040" points="403.5,-90 350.5,-90 350.5,-71 403.5,-71 403.5,-90"/>
<text text-anchor="middle" x="377" y="-78" font-family="Helvetica,sans-Serif" font-size="10.00">banana</text>
</a>
</g>
</g>
<!-- dir_c2bf07cbd3db5f76cf529844275ce26f&#45;&gt;dir_b624d86e5671d82a613a73eb9566e66f -->
<g id="edge1" class="edge">
<title>dir_c2bf07cbd3db5f76cf529844275ce26f&#45;&gt;dir_b624d86e5671d82a613a73eb9566e66f</title>
<g id="a_edge1"><a xlink:href="dir_000003_000042.html" target="_top">
<path fill="none" stroke="#63b8ff" d="M392.22,-70.85C398.2,-67.85 405.25,-64.79 412,-63 495.36,-40.94 758.41,-30.58 852.3,-27.51"/>
<polygon fill="#63b8ff" stroke="#63b8ff" points="852.49,-31.01 862.38,-27.19 852.27,-24.01 852.49,-31.01"/>
</a>
</g>
<g id="a_edge1&#45;headlabel"><a xlink:href="dir_000003_000042.html" target="_top" xlink:title="2">
<text text-anchor="middle" x="848.99" y="-31.46" font-family="Helvetica,sans-Serif" font-size="10.00" fill="#63b8ff">2</text>
</a>
</g>
</g>
<!-- dir_d44c64559bbebec7f509842c48db8b23 -->
<g id="node24" class="node">
<title>dir_d44c64559bbebec7f509842c48db8b23</title>
<g id="a_node24"><a xlink:href="dir_d44c64559bbebec7f509842c48db8b23.html" target="_top" xlink:title="include">
<polygon fill="#daedff" stroke="red" points="1969,-35 1917,-35 1917,-16 1969,-16 1969,-35"/>
<text text-anchor="middle" x="1943" y="-23" font-family="Helvetica,sans-Serif" font-size="10.00">include</text>
</a>
</g>
</g>
<!-- dir_c2bf07cbd3db5f76cf529844275ce26f&#45;&gt;dir_d44c64559bbebec7f509842c48db8b23 -->
<g id="edge2" class="edge">
<title>dir_c2bf07cbd3db5f76cf529844275ce26f&#45;&gt;dir_d44c64559bbebec7f509842c48db8b23</title>
<g id="a_edge2"><a xlink:href="dir_000003_000026.html" target="_top">
<path fill="none" stroke="#63b8ff" d="M391.48,-70.99C397.6,-67.85 404.94,-64.65 412,-63 571.5,-25.72 1705.93,-58.27 1906.78,-35.63"/>
<polygon fill="#63b8ff" stroke="#63b8ff" points="1907.44,-39.07 1916.91,-34.32 1906.54,-32.13 1907.44,-39.07"/>
</a>
</g>
<g id="a_edge2&#45;headlabel"><a xlink:href="dir_000003_000026.html" target="_top" xlink:title="2">
<text text-anchor="middle" x="1904.24" y="-39.85" font-family="Helvetica,sans-Serif" font-size="10.00" fill="#63b8ff">2</text>
</a>
</g>
</g>
<!-- dir_74937bb8182fa56f297a3fd9c5a72781 -->
<g id="node4" class="node">
<title>dir_74937bb8182fa56f297a3fd9c5a72781</title>
<g id="a_node4"><a xlink:href="dir_74937bb8182fa56f297a3fd9c5a72781.html" target="_top" xlink:title="blue_and_red_shells">
<polygon fill="#4ea9ff" stroke="#404040" points="332,-90 216,-90 216,-71 332,-71 332,-90"/>
<text text-anchor="middle" x="274" y="-78" font-family="Helvetica,sans-Serif" font-size="10.00">blue_and_red_shells</text>
</a>
</g>
</g>
<!-- dir_74937bb8182fa56f297a3fd9c5a72781&#45;&gt;dir_b624d86e5671d82a613a73eb9566e66f -->
<g id="edge3" class="edge">
<title>dir_74937bb8182fa56f297a3fd9c5a72781&#45;&gt;dir_b624d86e5671d82a613a73eb9566e66f</title>
<g id="a_edge3"><a xlink:href="dir_000008_000042.html" target="_top">
<path fill="none" stroke="#63b8ff" d="M303.79,-70.98C315.32,-67.99 328.69,-64.91 341,-63 532.86,-33.19 766.43,-27.71 852.28,-26.72"/>
<polygon fill="#63b8ff" stroke="#63b8ff" points="852.5,-30.22 862.47,-26.61 852.43,-23.22 852.5,-30.22"/>
</a>
</g>
<g id="a_edge3&#45;headlabel"><a xlink:href="dir_000008_000042.html" target="_top" xlink:title="3">
<text text-anchor="middle" x="848.94" y="-30.59" font-family="Helvetica,sans-Serif" font-size="10.00" fill="#63b8ff">3</text>
</a>
</g>
</g>
<!-- dir_74937bb8182fa56f297a3fd9c5a72781&#45;&gt;dir_d44c64559bbebec7f509842c48db8b23 -->
<g id="edge4" class="edge">
<title>dir_74937bb8182fa56f297a3fd9c5a72781&#45;&gt;dir_d44c64559bbebec7f509842c48db8b23</title>
<g id="a_edge4"><a xlink:href="dir_000008_000026.html" target="_top">
<path fill="none" stroke="#63b8ff" d="M302.75,-70.92C314.5,-67.81 328.29,-64.66 341,-63 684.16,-18.26 1550.67,-84.87 1906.78,-35.77"/>
<polygon fill="#63b8ff" stroke="#63b8ff" points="1907.5,-39.2 1916.91,-34.32 1906.51,-32.27 1907.5,-39.2"/>
</a>
</g>
<g id="a_edge4&#45;headlabel"><a xlink:href="dir_000008_000026.html" target="_top" xlink:title="3">
<text text-anchor="middle" x="1904.35" y="-40.02" font-family="Helvetica,sans-Serif" font-size="10.00" fill="#63b8ff">3</text>
</a>
</g>
</g>
<!-- dir_1ae522896ee2dd835300d6a3fdb378ec -->
<g id="node5" class="node">
<title>dir_1ae522896ee2dd835300d6a3fdb378ec</title>
<g id="a_node5"><a xlink:href="dir_1ae522896ee2dd835300d6a3fdb378ec.html" target="_top" xlink:title="box_truck">
<polygon fill="#4ea9ff" stroke="#404040" points="1649.5,-90 1584.5,-90 1584.5,-71 1649.5,-71 1649.5,-90"/>
<text text-anchor="middle" x="1617" y="-78" font-family="Helvetica,sans-Serif" font-size="10.00">box_truck</text>
</a>
</g>
</g>
<!-- dir_1ae522896ee2dd835300d6a3fdb378ec&#45;&gt;dir_b624d86e5671d82a613a73eb9566e66f -->
<g id="edge6" class="edge">
<title>dir_1ae522896ee2dd835300d6a3fdb378ec&#45;&gt;dir_b624d86e5671d82a613a73eb9566e66f</title>
<g id="a_edge6"><a xlink:href="dir_000010_000042.html" target="_top">
<path fill="none" stroke="#63b8ff" d="M1599,-70.96C1591.71,-67.89 1583.12,-64.76 1575,-63 1447.87,-35.42 1040.51,-28.37 919.93,-26.86"/>
<polygon fill="#63b8ff" stroke="#63b8ff" points="919.85,-23.36 909.81,-26.74 919.77,-30.36 919.85,-23.36"/>
</a>
</g>
<g id="a_edge6&#45;headlabel"><a xlink:href="dir_000010_000042.html" target="_top" xlink:title="1">
<text text-anchor="middle" x="923.48" y="-18.06" font-family="Helvetica,sans-Serif" font-size="10.00" fill="#63b8ff">1</text>
</a>
</g>
</g>
<!-- dir_1ae522896ee2dd835300d6a3fdb378ec&#45;&gt;dir_d44c64559bbebec7f509842c48db8b23 -->
<g id="edge7" class="edge">
<title>dir_1ae522896ee2dd835300d6a3fdb378ec&#45;&gt;dir_d44c64559bbebec7f509842c48db8b23</title>
<g id="a_edge7"><a xlink:href="dir_000010_000026.html" target="_top">
<path fill="none" stroke="#63b8ff" d="M1635.89,-70.85C1643,-67.92 1651.24,-64.92 1659,-63 1766.03,-36.57 1799.58,-55.59 1906.96,-36.05"/>
<polygon fill="#63b8ff" stroke="#63b8ff" points="1907.71,-39.47 1916.88,-34.18 1906.41,-32.59 1907.71,-39.47"/>
</a>
</g>
<g id="a_edge7&#45;headlabel"><a xlink:href="dir_000010_000026.html" target="_top" xlink:title="2">
<text text-anchor="middle" x="1904.7" y="-40.43" font-family="Helvetica,sans-Serif" font-size="10.00" fill="#63b8ff">2</text>
</a>
</g>
</g>
<!-- dir_9d35e33a62367a6e44d3f53c24813abf -->
<g id="node25" class="node">
<title>dir_9d35e33a62367a6e44d3f53c24813abf</title>
<g id="a_node25"><a xlink:href="dir_9d35e33a62367a6e44d3f53c24813abf.html" target="_top" xlink:title="courses">
<polygon fill="#daedff" stroke="red" points="2041,-35 1987,-35 1987,-16 2041,-16 2041,-35"/>
<text text-anchor="middle" x="2014" y="-23" font-family="Helvetica,sans-Serif" font-size="10.00">courses</text>
</a>
</g>
</g>
<!-- dir_1ae522896ee2dd835300d6a3fdb378ec&#45;&gt;dir_9d35e33a62367a6e44d3f53c24813abf -->
<g id="edge5" class="edge">
<title>dir_1ae522896ee2dd835300d6a3fdb378ec&#45;&gt;dir_9d35e33a62367a6e44d3f53c24813abf</title>
<g id="a_edge5"><a xlink:href="dir_000010_000013.html" target="_top">
<path fill="none" stroke="#63b8ff" d="M1635.45,-70.93C1642.65,-67.94 1651.07,-64.86 1659,-63 1794.43,-31.15 1835.64,-56.44 1977.05,-34.89"/>
<polygon fill="#63b8ff" stroke="#63b8ff" points="1977.62,-38.34 1986.96,-33.33 1976.53,-31.43 1977.62,-38.34"/>
</a>
</g>
<g id="a_edge5&#45;headlabel"><a xlink:href="dir_000010_000013.html" target="_top" xlink:title="1">
<text text-anchor="middle" x="1974.51" y="-39.2" font-family="Helvetica,sans-Serif" font-size="10.00" fill="#63b8ff">1</text>
</a>
</g>
</g>
<!-- dir_5bf4c70135565517cee60066cf0b486e -->
<g id="node6" class="node">
<title>dir_5bf4c70135565517cee60066cf0b486e</title>
<g id="a_node6"><a xlink:href="dir_5bf4c70135565517cee60066cf0b486e.html" target="_top" xlink:title="car">
<polygon fill="#4ea9ff" stroke="#404040" points="110,-90 78,-90 78,-71 110,-71 110,-90"/>
<text text-anchor="middle" x="94" y="-78" font-family="Helvetica,sans-Serif" font-size="10.00">car</text>
</a>
</g>
</g>
<!-- dir_5bf4c70135565517cee60066cf0b486e&#45;&gt;dir_b624d86e5671d82a613a73eb9566e66f -->
<g id="edge8" class="edge">
<title>dir_5bf4c70135565517cee60066cf0b486e&#45;&gt;dir_b624d86e5671d82a613a73eb9566e66f</title>
<g id="a_edge8"><a xlink:href="dir_000011_000042.html" target="_top">
<path fill="none" stroke="#63b8ff" d="M104.54,-70.73C108.77,-67.72 113.86,-64.68 119,-63 189.25,-40.07 713.17,-29.48 852.21,-27.05"/>
<polygon fill="#63b8ff" stroke="#63b8ff" points="852.34,-30.55 862.28,-26.88 852.22,-23.55 852.34,-30.55"/>
</a>
</g>
<g id="a_edge8&#45;headlabel"><a xlink:href="dir_000011_000042.html" target="_top" xlink:title="1">
<text text-anchor="middle" x="848.79" y="-30.95" font-family="Helvetica,sans-Serif" font-size="10.00" fill="#63b8ff">1</text>
</a>
</g>
</g>
<!-- dir_5bf4c70135565517cee60066cf0b486e&#45;&gt;dir_d44c64559bbebec7f509842c48db8b23 -->
<g id="edge9" class="edge">
<title>dir_5bf4c70135565517cee60066cf0b486e&#45;&gt;dir_d44c64559bbebec7f509842c48db8b23</title>
<g id="a_edge9"><a xlink:href="dir_000011_000026.html" target="_top">
<path fill="none" stroke="#63b8ff" d="M104.03,-70.99C108.35,-67.85 113.63,-64.66 119,-63 306.6,-5.07 1673.46,-62.19 1906.95,-35.61"/>
<polygon fill="#63b8ff" stroke="#63b8ff" points="1907.44,-39.08 1916.91,-34.32 1906.54,-32.13 1907.44,-39.08"/>
</a>
</g>
<g id="a_edge9&#45;headlabel"><a xlink:href="dir_000011_000026.html" target="_top" xlink:title="1">
<text text-anchor="middle" x="1904.24" y="-39.85" font-family="Helvetica,sans-Serif" font-size="10.00" fill="#63b8ff">1</text>
</a>
</g>
</g>
<!-- dir_7aa598291e9b46b83c172d01488969a3 -->
<g id="node7" class="node">
<title>dir_7aa598291e9b46b83c172d01488969a3</title>
<g id="a_node7"><a xlink:href="dir_7aa598291e9b46b83c172d01488969a3.html" target="_top" xlink:title="cow">
<polygon fill="#4ea9ff" stroke="#404040" points="60,-90 24,-90 24,-71 60,-71 60,-90"/>
<text text-anchor="middle" x="42" y="-78" font-family="Helvetica,sans-Serif" font-size="10.00">cow</text>
</a>
</g>
</g>
<!-- dir_7aa598291e9b46b83c172d01488969a3&#45;&gt;dir_b624d86e5671d82a613a73eb9566e66f -->
<g id="edge10" class="edge">
<title>dir_7aa598291e9b46b83c172d01488969a3&#45;&gt;dir_b624d86e5671d82a613a73eb9566e66f</title>
<g id="a_edge10"><a xlink:href="dir_000015_000042.html" target="_top">
<path fill="none" stroke="#63b8ff" d="M53.21,-70.9C57.84,-67.82 63.43,-64.7 69,-63 144.67,-39.87 708.06,-29.35 852.39,-27.01"/>
<polygon fill="#63b8ff" stroke="#63b8ff" points="852.48,-30.51 862.43,-26.85 852.37,-23.51 852.48,-30.51"/>
</a>
</g>
<g id="a_edge10&#45;headlabel"><a xlink:href="dir_000015_000042.html" target="_top" xlink:title="1">
<text text-anchor="middle" x="848.94" y="-30.91" font-family="Helvetica,sans-Serif" font-size="10.00" fill="#63b8ff">1</text>
</a>
</g>
</g>
<!-- dir_7aa598291e9b46b83c172d01488969a3&#45;&gt;dir_d44c64559bbebec7f509842c48db8b23 -->
<g id="edge11" class="edge">
<title>dir_7aa598291e9b46b83c172d01488969a3&#45;&gt;dir_d44c64559bbebec7f509842c48db8b23</title>
<g id="a_edge11"><a xlink:href="dir_000015_000026.html" target="_top">
<path fill="none" stroke="#63b8ff" d="M52.92,-70.99C57.61,-67.84 63.3,-64.65 69,-63 262.85,-6.87 1666.81,-62.99 1906.68,-35.65"/>
<polygon fill="#63b8ff" stroke="#63b8ff" points="1907.44,-39.08 1916.91,-34.33 1906.54,-32.13 1907.44,-39.08"/>
</a>
</g>
<g id="a_edge11&#45;headlabel"><a xlink:href="dir_000015_000026.html" target="_top" xlink:title="1">
<text text-anchor="middle" x="1904.24" y="-39.85" font-family="Helvetica,sans-Serif" font-size="10.00" fill="#63b8ff">1</text>
</a>
</g>
</g>
<!-- dir_8a4111354e3ab95d89c3f9aa42481ccc -->
<g id="node8" class="node">
<title>dir_8a4111354e3ab95d89c3f9aa42481ccc</title>
<g id="a_node8"><a xlink:href="dir_8a4111354e3ab95d89c3f9aa42481ccc.html" target="_top" xlink:title="fake_item_box">
<polygon fill="#4ea9ff" stroke="#404040" points="1204.5,-90 1115.5,-90 1115.5,-71 1204.5,-71 1204.5,-90"/>
<text text-anchor="middle" x="1160" y="-78" font-family="Helvetica,sans-Serif" font-size="10.00">fake_item_box</text>
</a>
</g>
</g>
<!-- dir_8a4111354e3ab95d89c3f9aa42481ccc&#45;&gt;dir_b624d86e5671d82a613a73eb9566e66f -->
<g id="edge12" class="edge">
<title>dir_8a4111354e3ab95d89c3f9aa42481ccc&#45;&gt;dir_b624d86e5671d82a613a73eb9566e66f</title>
<g id="a_edge12"><a xlink:href="dir_000022_000042.html" target="_top">
<path fill="none" stroke="#63b8ff" d="M1135.12,-70.98C1126.31,-68.17 1116.28,-65.2 1107,-63 1041.46,-47.46 963.43,-36.24 919.82,-30.61"/>
<polygon fill="#63b8ff" stroke="#63b8ff" points="920.12,-27.12 909.76,-29.33 919.24,-34.06 920.12,-27.12"/>
</a>
</g>
<g id="a_edge12&#45;headlabel"><a xlink:href="dir_000022_000042.html" target="_top" xlink:title="2">
<text text-anchor="middle" x="924.05" y="-22.25" font-family="Helvetica,sans-Serif" font-size="10.00" fill="#63b8ff">2</text>
</a>
</g>
</g>
<!-- dir_8a4111354e3ab95d89c3f9aa42481ccc&#45;&gt;dir_d44c64559bbebec7f509842c48db8b23 -->
<g id="edge13" class="edge">
<title>dir_8a4111354e3ab95d89c3f9aa42481ccc&#45;&gt;dir_d44c64559bbebec7f509842c48db8b23</title>
<g id="a_edge13"><a xlink:href="dir_000022_000026.html" target="_top">
<path fill="none" stroke="#63b8ff" d="M1183.34,-70.94C1192.74,-67.87 1203.76,-64.74 1214,-63 1517.23,-11.48 1604.1,-82.39 1906.96,-35.84"/>
<polygon fill="#63b8ff" stroke="#63b8ff" points="1907.57,-39.29 1916.9,-34.29 1906.48,-32.38 1907.57,-39.29"/>
</a>
</g>
<g id="a_edge13&#45;headlabel"><a xlink:href="dir_000022_000026.html" target="_top" xlink:title="1">
<text text-anchor="middle" x="1904.45" y="-40.15" font-family="Helvetica,sans-Serif" font-size="10.00" fill="#63b8ff">1</text>
</a>
</g>
</g>
<!-- dir_9f92b7828d59819d17382ec6f8645008 -->
<g id="node9" class="node">
<title>dir_9f92b7828d59819d17382ec6f8645008</title>
<g id="a_node9"><a xlink:href="dir_9f92b7828d59819d17382ec6f8645008.html" target="_top" xlink:title="falling_rock">
<polygon fill="#4ea9ff" stroke="#404040" points="1566,-90 1492,-90 1492,-71 1566,-71 1566,-90"/>
<text text-anchor="middle" x="1529" y="-78" font-family="Helvetica,sans-Serif" font-size="10.00">falling_rock</text>
</a>
</g>
</g>
<!-- dir_9f92b7828d59819d17382ec6f8645008&#45;&gt;dir_b624d86e5671d82a613a73eb9566e66f -->
<g id="edge15" class="edge">
<title>dir_9f92b7828d59819d17382ec6f8645008&#45;&gt;dir_b624d86e5671d82a613a73eb9566e66f</title>
<g id="a_edge15"><a xlink:href="dir_000023_000042.html" target="_top">
<path fill="none" stroke="#63b8ff" d="M1508.75,-70.84C1500.86,-67.83 1491.64,-64.78 1483,-63 1374.11,-40.62 1029.73,-30.14 919.96,-27.31"/>
<polygon fill="#63b8ff" stroke="#63b8ff" points="919.88,-23.81 909.79,-27.06 919.7,-30.81 919.88,-23.81"/>
</a>
</g>
<g id="a_edge15&#45;headlabel"><a xlink:href="dir_000023_000042.html" target="_top" xlink:title="2">
<text text-anchor="middle" x="923.55" y="-18.56" font-family="Helvetica,sans-Serif" font-size="10.00" fill="#63b8ff">2</text>
</a>
</g>
</g>
<!-- dir_9f92b7828d59819d17382ec6f8645008&#45;&gt;dir_9d35e33a62367a6e44d3f53c24813abf -->
<g id="edge14" class="edge">
<title>dir_9f92b7828d59819d17382ec6f8645008&#45;&gt;dir_9d35e33a62367a6e44d3f53c24813abf</title>
<g id="a_edge14"><a xlink:href="dir_000023_000013.html" target="_top">
<path fill="none" stroke="#63b8ff" d="M1549.72,-70.88C1557.78,-67.88 1567.19,-64.82 1576,-63 1748.23,-27.44 1799.1,-60.64 1977.01,-34.86"/>
<polygon fill="#63b8ff" stroke="#63b8ff" points="1977.59,-38.32 1986.97,-33.38 1976.56,-31.39 1977.59,-38.32"/>
</a>
</g>
<g id="a_edge14&#45;headlabel"><a xlink:href="dir_000023_000013.html" target="_top" xlink:title="2">
<text text-anchor="middle" x="1974.45" y="-39.15" font-family="Helvetica,sans-Serif" font-size="10.00" fill="#63b8ff">2</text>
</a>
</g>
</g>
<!-- dir_082d554c8445af69fa49f0d23f20fa3b -->
<g id="node10" class="node">
<title>dir_082d554c8445af69fa49f0d23f20fa3b</title>
<g id="a_node10"><a xlink:href="dir_082d554c8445af69fa49f0d23f20fa3b.html" target="_top" xlink:title="green_shell">
<polygon fill="#4ea9ff" stroke="#404040" points="1008.5,-90 935.5,-90 935.5,-71 1008.5,-71 1008.5,-90"/>
<text text-anchor="middle" x="972" y="-78" font-family="Helvetica,sans-Serif" font-size="10.00">green_shell</text>
</a>
</g>
</g>
<!-- dir_082d554c8445af69fa49f0d23f20fa3b&#45;&gt;dir_b624d86e5671d82a613a73eb9566e66f -->
<g id="edge16" class="edge">
<title>dir_082d554c8445af69fa49f0d23f20fa3b&#45;&gt;dir_b624d86e5671d82a613a73eb9566e66f</title>
<g id="a_edge16"><a xlink:href="dir_000025_000042.html" target="_top">
<path fill="none" stroke="#63b8ff" d="M958.18,-70.98C944.85,-62.77 924.42,-50.18 908.69,-40.49"/>
<polygon fill="#63b8ff" stroke="#63b8ff" points="910.42,-37.44 900.07,-35.17 906.75,-43.4 910.42,-37.44"/>
</a>
</g>
<g id="a_edge16&#45;headlabel"><a xlink:href="dir_000025_000042.html" target="_top" xlink:title="2">
<text text-anchor="middle" x="914.97" y="-34.41" font-family="Helvetica,sans-Serif" font-size="10.00" fill="#63b8ff">2</text>
</a>
</g>
</g>
<!-- dir_082d554c8445af69fa49f0d23f20fa3b&#45;&gt;dir_d44c64559bbebec7f509842c48db8b23 -->
<g id="edge17" class="edge">
<title>dir_082d554c8445af69fa49f0d23f20fa3b&#45;&gt;dir_d44c64559bbebec7f509842c48db8b23</title>
<g id="a_edge17"><a xlink:href="dir_000025_000026.html" target="_top">
<path fill="none" stroke="#63b8ff" d="M991.77,-70.87C999.76,-67.8 1009.16,-64.68 1018,-63 1405.63,10.68 1517.81,-94.1 1906.79,-35.84"/>
<polygon fill="#63b8ff" stroke="#63b8ff" points="1907.55,-39.27 1916.9,-34.3 1906.49,-32.35 1907.55,-39.27"/>
</a>
</g>
<g id="a_edge17&#45;headlabel"><a xlink:href="dir_000025_000026.html" target="_top" xlink:title="3">
<text text-anchor="middle" x="1904.42" y="-40.12" font-family="Helvetica,sans-Serif" font-size="10.00" fill="#63b8ff">3</text>
</a>
</g>
</g>
<!-- dir_b358511119841a6b3a0e59dc0c8c249d -->
<g id="node11" class="node">
<title>dir_b358511119841a6b3a0e59dc0c8c249d</title>
<g id="a_node11"><a xlink:href="dir_b358511119841a6b3a0e59dc0c8c249d.html" target="_top" xlink:title="item_box">
<polygon fill="#4ea9ff" stroke="#404040" points="917,-90 855,-90 855,-71 917,-71 917,-90"/>
<text text-anchor="middle" x="886" y="-78" font-family="Helvetica,sans-Serif" font-size="10.00">item_box</text>
</a>
</g>
</g>
<!-- dir_b358511119841a6b3a0e59dc0c8c249d&#45;&gt;dir_b624d86e5671d82a613a73eb9566e66f -->
<g id="edge18" class="edge">
<title>dir_b358511119841a6b3a0e59dc0c8c249d&#45;&gt;dir_b624d86e5671d82a613a73eb9566e66f</title>
<g id="a_edge18"><a xlink:href="dir_000027_000042.html" target="_top">
<path fill="none" stroke="#63b8ff" d="M886,-70.75C886,-63.8 886,-53.85 886,-45.13"/>
<polygon fill="#63b8ff" stroke="#63b8ff" points="889.5,-45.09 886,-35.09 882.5,-45.09 889.5,-45.09"/>
</a>
</g>
<g id="a_edge18&#45;headlabel"><a xlink:href="dir_000027_000042.html" target="_top" xlink:title="2">
<text text-anchor="middle" x="892.34" y="-46.18" font-family="Helvetica,sans-Serif" font-size="10.00" fill="#63b8ff">2</text>
</a>
</g>
</g>
<!-- dir_b358511119841a6b3a0e59dc0c8c249d&#45;&gt;dir_d44c64559bbebec7f509842c48db8b23 -->
<g id="edge19" class="edge">
<title>dir_b358511119841a6b3a0e59dc0c8c249d&#45;&gt;dir_d44c64559bbebec7f509842c48db8b23</title>
<g id="a_edge19"><a xlink:href="dir_000027_000026.html" target="_top">
<path fill="none" stroke="#63b8ff" d="M903.53,-70.85C910.64,-67.77 919.04,-64.66 927,-63 1138.44,-18.93 1680.16,-66.8 1907,-35.74"/>
<polygon fill="#63b8ff" stroke="#63b8ff" points="1907.51,-39.2 1916.91,-34.3 1906.51,-32.28 1907.51,-39.2"/>
</a>
</g>
<g id="a_edge19&#45;headlabel"><a xlink:href="dir_000027_000026.html" target="_top" xlink:title="1">
<text text-anchor="middle" x="1904.36" y="-40.03" font-family="Helvetica,sans-Serif" font-size="10.00" fill="#63b8ff">1</text>
</a>
</g>
</g>
<!-- dir_7679761027b1fa214ffd6938221a3b1c -->
<g id="node12" class="node">
<title>dir_7679761027b1fa214ffd6938221a3b1c</title>
<g id="a_node12"><a xlink:href="dir_7679761027b1fa214ffd6938221a3b1c.html" target="_top" xlink:title="kiwano_fruit">
<polygon fill="#4ea9ff" stroke="#404040" points="836.5,-90 759.5,-90 759.5,-71 836.5,-71 836.5,-90"/>
<text text-anchor="middle" x="798" y="-78" font-family="Helvetica,sans-Serif" font-size="10.00">kiwano_fruit</text>
</a>
</g>
</g>
<!-- dir_7679761027b1fa214ffd6938221a3b1c&#45;&gt;dir_b624d86e5671d82a613a73eb9566e66f -->
<g id="edge20" class="edge">
<title>dir_7679761027b1fa214ffd6938221a3b1c&#45;&gt;dir_b624d86e5671d82a613a73eb9566e66f</title>
<g id="a_edge20"><a xlink:href="dir_000029_000042.html" target="_top">
<path fill="none" stroke="#63b8ff" d="M812.14,-70.98C825.79,-62.77 846.69,-50.18 862.78,-40.49"/>
<polygon fill="#63b8ff" stroke="#63b8ff" points="864.84,-43.33 871.6,-35.17 861.23,-37.33 864.84,-43.33"/>
</a>
</g>
<g id="a_edge20&#45;headlabel"><a xlink:href="dir_000029_000042.html" target="_top" xlink:title="2">
<text text-anchor="middle" x="863.23" y="-45.11" font-family="Helvetica,sans-Serif" font-size="10.00" fill="#63b8ff">2</text>
</a>
</g>
</g>
<!-- dir_7679761027b1fa214ffd6938221a3b1c&#45;&gt;dir_d44c64559bbebec7f509842c48db8b23 -->
<g id="edge21" class="edge">
<title>dir_7679761027b1fa214ffd6938221a3b1c&#45;&gt;dir_d44c64559bbebec7f509842c48db8b23</title>
<g id="a_edge21"><a xlink:href="dir_000029_000026.html" target="_top">
<path fill="none" stroke="#63b8ff" d="M818.66,-70.85C827,-67.77 836.81,-64.66 846,-63 1076.23,-21.42 1662.2,-69.37 1906.93,-35.75"/>
<polygon fill="#63b8ff" stroke="#63b8ff" points="1907.51,-39.21 1916.91,-34.31 1906.51,-32.28 1907.51,-39.21"/>
</a>
</g>
<g id="a_edge21&#45;headlabel"><a xlink:href="dir_000029_000026.html" target="_top" xlink:title="3">
<text text-anchor="middle" x="1904.36" y="-40.03" font-family="Helvetica,sans-Serif" font-size="10.00" fill="#63b8ff">3</text>
</a>
</g>
</g>
<!-- dir_62d3fde728cbe4bcb49283a4ea9d1f64 -->
<g id="node13" class="node">
<title>dir_62d3fde728cbe4bcb49283a4ea9d1f64</title>
<g id="a_node13"><a xlink:href="dir_62d3fde728cbe4bcb49283a4ea9d1f64.html" target="_top" xlink:title="mario_sign">
<polygon fill="#4ea9ff" stroke="#404040" points="1473.5,-90 1402.5,-90 1402.5,-71 1473.5,-71 1473.5,-90"/>
<text text-anchor="middle" x="1438" y="-78" font-family="Helvetica,sans-Serif" font-size="10.00">mario_sign</text>
</a>
</g>
</g>
<!-- dir_62d3fde728cbe4bcb49283a4ea9d1f64&#45;&gt;dir_b624d86e5671d82a613a73eb9566e66f -->
<g id="edge23" class="edge">
<title>dir_62d3fde728cbe4bcb49283a4ea9d1f64&#45;&gt;dir_b624d86e5671d82a613a73eb9566e66f</title>
<g id="a_edge23"><a xlink:href="dir_000034_000042.html" target="_top">
<path fill="none" stroke="#63b8ff" d="M1418.65,-70.87C1411.1,-67.88 1402.29,-64.81 1394,-63 1303.14,-43.14 1018.58,-31.27 920.01,-27.67"/>
<polygon fill="#63b8ff" stroke="#63b8ff" points="919.85,-24.16 909.73,-27.3 919.6,-31.16 919.85,-24.16"/>
</a>
</g>
<g id="a_edge23&#45;headlabel"><a xlink:href="dir_000034_000042.html" target="_top" xlink:title="2">
<text text-anchor="middle" x="923.55" y="-18.96" font-family="Helvetica,sans-Serif" font-size="10.00" fill="#63b8ff">2</text>
</a>
</g>
</g>
<!-- dir_62d3fde728cbe4bcb49283a4ea9d1f64&#45;&gt;dir_9d35e33a62367a6e44d3f53c24813abf -->
<g id="edge22" class="edge">
<title>dir_62d3fde728cbe4bcb49283a4ea9d1f64&#45;&gt;dir_9d35e33a62367a6e44d3f53c24813abf</title>
<g id="a_edge22"><a xlink:href="dir_000034_000013.html" target="_top">
<path fill="none" stroke="#63b8ff" d="M1457.35,-70.98C1465.16,-67.92 1474.36,-64.79 1483,-63 1695.52,-19.04 1758.05,-65.22 1976.77,-34.87"/>
<polygon fill="#63b8ff" stroke="#63b8ff" points="1977.57,-38.3 1986.97,-33.42 1976.58,-31.37 1977.57,-38.3"/>
</a>
</g>
<g id="a_edge22&#45;headlabel"><a xlink:href="dir_000034_000013.html" target="_top" xlink:title="1">
<text text-anchor="middle" x="1974.41" y="-39.11" font-family="Helvetica,sans-Serif" font-size="10.00" fill="#63b8ff">1</text>
</a>
</g>
</g>
<!-- dir_8ac8a7c7afcf091d3d7796402f7a1c36 -->
<g id="node14" class="node">
<title>dir_8ac8a7c7afcf091d3d7796402f7a1c36</title>
<g id="a_node14"><a xlink:href="dir_8ac8a7c7afcf091d3d7796402f7a1c36.html" target="_top" xlink:title="paddle_boat">
<polygon fill="#4ea9ff" stroke="#404040" points="1384.5,-90 1307.5,-90 1307.5,-71 1384.5,-71 1384.5,-90"/>
<text text-anchor="middle" x="1346" y="-78" font-family="Helvetica,sans-Serif" font-size="10.00">paddle_boat</text>
</a>
</g>
</g>
<!-- dir_8ac8a7c7afcf091d3d7796402f7a1c36&#45;&gt;dir_b624d86e5671d82a613a73eb9566e66f -->
<g id="edge25" class="edge">
<title>dir_8ac8a7c7afcf091d3d7796402f7a1c36&#45;&gt;dir_b624d86e5671d82a613a73eb9566e66f</title>
<g id="a_edge25"><a xlink:href="dir_000038_000042.html" target="_top">
<path fill="none" stroke="#63b8ff" d="M1324.81,-70.97C1316.57,-67.99 1306.96,-64.91 1298,-63 1159.71,-33.56 990.43,-27.82 919.63,-26.73"/>
<polygon fill="#63b8ff" stroke="#63b8ff" points="919.57,-23.23 909.53,-26.6 919.48,-30.23 919.57,-23.23"/>
</a>
</g>
<g id="a_edge25&#45;headlabel"><a xlink:href="dir_000038_000042.html" target="_top" xlink:title="1">
<text text-anchor="middle" x="923.2" y="-17.94" font-family="Helvetica,sans-Serif" font-size="10.00" fill="#63b8ff">1</text>
</a>
</g>
</g>
<!-- dir_8ac8a7c7afcf091d3d7796402f7a1c36&#45;&gt;dir_d44c64559bbebec7f509842c48db8b23 -->
<g id="edge26" class="edge">
<title>dir_8ac8a7c7afcf091d3d7796402f7a1c36&#45;&gt;dir_d44c64559bbebec7f509842c48db8b23</title>
<g id="a_edge26"><a xlink:href="dir_000038_000026.html" target="_top">
<path fill="none" stroke="#63b8ff" d="M1366.68,-70.98C1375.03,-67.92 1384.83,-64.79 1394,-63 1617.41,-19.45 1683.21,-71.38 1906.82,-35.9"/>
<polygon fill="#63b8ff" stroke="#63b8ff" points="1907.59,-39.33 1916.9,-34.26 1906.47,-32.42 1907.59,-39.33"/>
</a>
</g>
<g id="a_edge26&#45;headlabel"><a xlink:href="dir_000038_000026.html" target="_top" xlink:title="6">
<text text-anchor="middle" x="1904.5" y="-40.21" font-family="Helvetica,sans-Serif" font-size="10.00" fill="#63b8ff">6</text>
</a>
</g>
</g>
<!-- dir_8ac8a7c7afcf091d3d7796402f7a1c36&#45;&gt;dir_9d35e33a62367a6e44d3f53c24813abf -->
<g id="edge24" class="edge">
<title>dir_8ac8a7c7afcf091d3d7796402f7a1c36&#45;&gt;dir_9d35e33a62367a6e44d3f53c24813abf</title>
<g id="a_edge24"><a xlink:href="dir_000038_000013.html" target="_top">
<path fill="none" stroke="#63b8ff" d="M1366.68,-70.96C1375.02,-67.89 1384.83,-64.76 1394,-63 1645.96,-14.67 1718.84,-69.8 1976.93,-34.84"/>
<polygon fill="#63b8ff" stroke="#63b8ff" points="1977.55,-38.28 1986.97,-33.44 1976.59,-31.35 1977.55,-38.28"/>
</a>
</g>
<g id="a_edge24&#45;headlabel"><a xlink:href="dir_000038_000013.html" target="_top" xlink:title="1">
<text text-anchor="middle" x="1974.38" y="-39.09" font-family="Helvetica,sans-Serif" font-size="10.00" fill="#63b8ff">1</text>
</a>
</g>
</g>
<!-- dir_8ec521252289760d8f929d04561ff579 -->
<g id="node15" class="node">
<title>dir_8ec521252289760d8f929d04561ff579</title>
<g id="a_node15"><a xlink:href="dir_8ec521252289760d8f929d04561ff579.html" target="_top" xlink:title="palm_tree">
<polygon fill="#4ea9ff" stroke="#404040" points="1289,-90 1223,-90 1223,-71 1289,-71 1289,-90"/>
<text text-anchor="middle" x="1256" y="-78" font-family="Helvetica,sans-Serif" font-size="10.00">palm_tree</text>
</a>
</g>
</g>
<!-- dir_8ec521252289760d8f929d04561ff579&#45;&gt;dir_b624d86e5671d82a613a73eb9566e66f -->
<g id="edge28" class="edge">
<title>dir_8ec521252289760d8f929d04561ff579&#45;&gt;dir_b624d86e5671d82a613a73eb9566e66f</title>
<g id="a_edge28"><a xlink:href="dir_000039_000042.html" target="_top">
<path fill="none" stroke="#63b8ff" d="M1237.11,-70.85C1230,-67.93 1221.76,-64.92 1214,-63 1108.8,-36.97 980,-29.48 919.9,-27.34"/>
<polygon fill="#63b8ff" stroke="#63b8ff" points="919.95,-23.84 909.84,-27.01 919.72,-30.84 919.95,-23.84"/>
</a>
</g>
<g id="a_edge28&#45;headlabel"><a xlink:href="dir_000039_000042.html" target="_top" xlink:title="1">
<text text-anchor="middle" x="923.64" y="-18.62" font-family="Helvetica,sans-Serif" font-size="10.00" fill="#63b8ff">1</text>
</a>
</g>
</g>
<!-- dir_8ec521252289760d8f929d04561ff579&#45;&gt;dir_9d35e33a62367a6e44d3f53c24813abf -->
<g id="edge27" class="edge">
<title>dir_8ec521252289760d8f929d04561ff579&#45;&gt;dir_9d35e33a62367a6e44d3f53c24813abf</title>
<g id="a_edge27"><a xlink:href="dir_000039_000013.html" target="_top">
<path fill="none" stroke="#63b8ff" d="M1274.44,-70.91C1281.9,-67.84 1290.7,-64.72 1299,-63 1591.46,-2.56 1676.86,-74.46 1976.68,-34.86"/>
<polygon fill="#63b8ff" stroke="#63b8ff" points="1977.54,-38.27 1986.98,-33.46 1976.6,-31.34 1977.54,-38.27"/>
</a>
</g>
<g id="a_edge27&#45;headlabel"><a xlink:href="dir_000039_000013.html" target="_top" xlink:title="1">
<text text-anchor="middle" x="1974.35" y="-39.07" font-family="Helvetica,sans-Serif" font-size="10.00" fill="#63b8ff">1</text>
</a>
</g>
</g>
<!-- dir_32d41aaa75ce6bc3595f304fa2abdf30 -->
<g id="node16" class="node">
<title>dir_32d41aaa75ce6bc3595f304fa2abdf30</title>
<g id="a_node16"><a xlink:href="dir_32d41aaa75ce6bc3595f304fa2abdf30.html" target="_top" xlink:title="piranha_plant">
<polygon fill="#4ea9ff" stroke="#404040" points="504.5,-90 421.5,-90 421.5,-71 504.5,-71 504.5,-90"/>
<text text-anchor="middle" x="463" y="-78" font-family="Helvetica,sans-Serif" font-size="10.00">piranha_plant</text>
</a>
</g>
</g>
<!-- dir_32d41aaa75ce6bc3595f304fa2abdf30&#45;&gt;dir_b624d86e5671d82a613a73eb9566e66f -->
<g id="edge29" class="edge">
<title>dir_32d41aaa75ce6bc3595f304fa2abdf30&#45;&gt;dir_b624d86e5671d82a613a73eb9566e66f</title>
<g id="a_edge29"><a xlink:href="dir_000040_000042.html" target="_top">
<path fill="none" stroke="#63b8ff" d="M485.82,-70.96C494.53,-68.01 504.62,-64.95 514,-63 636.77,-37.43 786.16,-29.66 852.03,-27.39"/>
<polygon fill="#63b8ff" stroke="#63b8ff" points="852.35,-30.89 862.23,-27.06 852.12,-23.89 852.35,-30.89"/>
</a>
</g>
<g id="a_edge29&#45;headlabel"><a xlink:href="dir_000040_000042.html" target="_top" xlink:title="2">
<text text-anchor="middle" x="848.85" y="-31.34" font-family="Helvetica,sans-Serif" font-size="10.00" fill="#63b8ff">2</text>
</a>
</g>
</g>
<!-- dir_32d41aaa75ce6bc3595f304fa2abdf30&#45;&gt;dir_d44c64559bbebec7f509842c48db8b23 -->
<g id="edge30" class="edge">
<title>dir_32d41aaa75ce6bc3595f304fa2abdf30&#45;&gt;dir_d44c64559bbebec7f509842c48db8b23</title>
<g id="a_edge30"><a xlink:href="dir_000040_000026.html" target="_top">
<path fill="none" stroke="#63b8ff" d="M484.74,-70.91C493.66,-67.8 504.18,-64.65 514,-63 817.36,-12.03 1588.64,-79.39 1906.71,-35.78"/>
<polygon fill="#63b8ff" stroke="#63b8ff" points="1907.5,-39.2 1916.91,-34.32 1906.51,-32.27 1907.5,-39.2"/>
</a>
</g>
<g id="a_edge30&#45;headlabel"><a xlink:href="dir_000040_000026.html" target="_top" xlink:title="1">
<text text-anchor="middle" x="1904.35" y="-40.02" font-family="Helvetica,sans-Serif" font-size="10.00" fill="#63b8ff">1</text>
</a>
</g>
</g>
<!-- dir_182f7da4116ae772b41f20cab799c0f6 -->
<g id="node17" class="node">
<title>dir_182f7da4116ae772b41f20cab799c0f6</title>
<g id="a_node17"><a xlink:href="dir_182f7da4116ae772b41f20cab799c0f6.html" target="_top" xlink:title="railroad_crossing">
<polygon fill="#4ea9ff" stroke="#404040" points="1827,-90 1727,-90 1727,-71 1827,-71 1827,-90"/>
<text text-anchor="middle" x="1777" y="-78" font-family="Helvetica,sans-Serif" font-size="10.00">railroad_crossing</text>
</a>
</g>
</g>
<!-- dir_182f7da4116ae772b41f20cab799c0f6&#45;&gt;dir_b624d86e5671d82a613a73eb9566e66f -->
<g id="edge32" class="edge">
<title>dir_182f7da4116ae772b41f20cab799c0f6&#45;&gt;dir_b624d86e5671d82a613a73eb9566e66f</title>
<g id="a_edge32"><a xlink:href="dir_000043_000042.html" target="_top">
<path fill="none" stroke="#63b8ff" d="M1751.44,-70.97C1741.16,-67.91 1729.13,-64.78 1718,-63 1560.4,-37.85 1055.85,-28.93 919.98,-26.95"/>
<polygon fill="#63b8ff" stroke="#63b8ff" points="919.81,-23.45 909.76,-26.81 919.71,-30.45 919.81,-23.45"/>
</a>
</g>
<g id="a_edge32&#45;headlabel"><a xlink:href="dir_000043_000042.html" target="_top" xlink:title="2">
<text text-anchor="middle" x="923.45" y="-18.16" font-family="Helvetica,sans-Serif" font-size="10.00" fill="#63b8ff">2</text>
</a>
</g>
</g>
<!-- dir_182f7da4116ae772b41f20cab799c0f6&#45;&gt;dir_d44c64559bbebec7f509842c48db8b23 -->
<g id="edge33" class="edge">
<title>dir_182f7da4116ae772b41f20cab799c0f6&#45;&gt;dir_d44c64559bbebec7f509842c48db8b23</title>
<g id="a_edge33"><a xlink:href="dir_000043_000026.html" target="_top">
<path fill="none" stroke="#63b8ff" d="M1803.67,-70.98C1831.79,-62.01 1876.24,-47.82 1907.35,-37.88"/>
<polygon fill="#63b8ff" stroke="#63b8ff" points="1908.48,-41.2 1916.94,-34.82 1906.35,-34.53 1908.48,-41.2"/>
</a>
</g>
<g id="a_edge33&#45;headlabel"><a xlink:href="dir_000043_000026.html" target="_top" xlink:title="1">
<text text-anchor="middle" x="1905.92" y="-42.49" font-family="Helvetica,sans-Serif" font-size="10.00" fill="#63b8ff">1</text>
</a>
</g>
</g>
<!-- dir_182f7da4116ae772b41f20cab799c0f6&#45;&gt;dir_9d35e33a62367a6e44d3f53c24813abf -->
<g id="edge31" class="edge">
<title>dir_182f7da4116ae772b41f20cab799c0f6&#45;&gt;dir_9d35e33a62367a6e44d3f53c24813abf</title>
<g id="a_edge31"><a xlink:href="dir_000043_000013.html" target="_top">
<path fill="none" stroke="#63b8ff" d="M1806.49,-70.93C1816.17,-68.24 1827.01,-65.36 1837,-63 1896.14,-49.02 1913.86,-48.57 1976.83,-35.18"/>
<polygon fill="#63b8ff" stroke="#63b8ff" points="1977.86,-38.54 1986.9,-33.01 1976.38,-31.69 1977.86,-38.54"/>
</a>
</g>
<g id="a_edge31&#45;headlabel"><a xlink:href="dir_000043_000013.html" target="_top" xlink:title="1">
<text text-anchor="middle" x="1974.94" y="-39.57" font-family="Helvetica,sans-Serif" font-size="10.00" fill="#63b8ff">1</text>
</a>
</g>
</g>
<!-- dir_853fb299c43268179db801ba4361d6eb -->
<g id="node18" class="node">
<title>dir_853fb299c43268179db801ba4361d6eb</title>
<g id="a_node18"><a xlink:href="dir_853fb299c43268179db801ba4361d6eb.html" target="_top" xlink:title="school_bus">
<polygon fill="#4ea9ff" stroke="#404040" points="1097.5,-90 1026.5,-90 1026.5,-71 1097.5,-71 1097.5,-90"/>
<text text-anchor="middle" x="1062" y="-78" font-family="Helvetica,sans-Serif" font-size="10.00">school_bus</text>
</a>
</g>
</g>
<!-- dir_853fb299c43268179db801ba4361d6eb&#45;&gt;dir_b624d86e5671d82a613a73eb9566e66f -->
<g id="edge34" class="edge">
<title>dir_853fb299c43268179db801ba4361d6eb&#45;&gt;dir_b624d86e5671d82a613a73eb9566e66f</title>
<g id="a_edge34"><a xlink:href="dir_000046_000042.html" target="_top">
<path fill="none" stroke="#63b8ff" d="M1040.2,-70.89C1033.16,-68.22 1025.29,-65.37 1018,-63 984.86,-52.23 946.41,-41.83 919.58,-34.9"/>
<polygon fill="#63b8ff" stroke="#63b8ff" points="920.11,-31.43 909.55,-32.34 918.37,-38.21 920.11,-31.43"/>
</a>
</g>
<g id="a_edge34&#45;headlabel"><a xlink:href="dir_000046_000042.html" target="_top" xlink:title="1">
<text text-anchor="middle" x="924.3" y="-27.07" font-family="Helvetica,sans-Serif" font-size="10.00" fill="#63b8ff">1</text>
</a>
</g>
</g>
<!-- dir_853fb299c43268179db801ba4361d6eb&#45;&gt;dir_d44c64559bbebec7f509842c48db8b23 -->
<g id="edge35" class="edge">
<title>dir_853fb299c43268179db801ba4361d6eb&#45;&gt;dir_d44c64559bbebec7f509842c48db8b23</title>
<g id="a_edge35"><a xlink:href="dir_000046_000026.html" target="_top">
<path fill="none" stroke="#63b8ff" d="M1081.33,-70.89C1089.14,-67.81 1098.34,-64.69 1107,-63 1455.51,5.14 1557,-88.71 1907.01,-35.82"/>
<polygon fill="#63b8ff" stroke="#63b8ff" points="1907.55,-39.28 1916.9,-34.29 1906.49,-32.36 1907.55,-39.28"/>
</a>
</g>
<g id="a_edge35&#45;headlabel"><a xlink:href="dir_000046_000026.html" target="_top" xlink:title="2">
<text text-anchor="middle" x="1904.43" y="-40.13" font-family="Helvetica,sans-Serif" font-size="10.00" fill="#63b8ff">2</text>
</a>
</g>
</g>
<!-- dir_84e86b557c5631751b2666df9df09cb8 -->
<g id="node19" class="node">
<title>dir_84e86b557c5631751b2666df9df09cb8</title>
<g id="a_node19"><a xlink:href="dir_84e86b557c5631751b2666df9df09cb8.html" target="_top" xlink:title="tanker_truck">
<polygon fill="#4ea9ff" stroke="#404040" points="741.5,-90 664.5,-90 664.5,-71 741.5,-71 741.5,-90"/>
<text text-anchor="middle" x="703" y="-78" font-family="Helvetica,sans-Serif" font-size="10.00">tanker_truck</text>
</a>
</g>
</g>
<!-- dir_84e86b557c5631751b2666df9df09cb8&#45;&gt;dir_b624d86e5671d82a613a73eb9566e66f -->
<g id="edge36" class="edge">
<title>dir_84e86b557c5631751b2666df9df09cb8&#45;&gt;dir_b624d86e5671d82a613a73eb9566e66f</title>
<g id="a_edge36"><a xlink:href="dir_000050_000042.html" target="_top">
<path fill="none" stroke="#63b8ff" d="M726.82,-70.96C734.51,-68.3 743.08,-65.43 751,-63 785.37,-52.46 825.15,-41.9 852.58,-34.87"/>
<polygon fill="#63b8ff" stroke="#63b8ff" points="853.62,-38.22 862.45,-32.36 851.9,-31.43 853.62,-38.22"/>
</a>
</g>
<g id="a_edge36&#45;headlabel"><a xlink:href="dir_000050_000042.html" target="_top" xlink:title="1">
<text text-anchor="middle" x="850.84" y="-39.35" font-family="Helvetica,sans-Serif" font-size="10.00" fill="#63b8ff">1</text>
</a>
</g>
</g>
<!-- dir_84e86b557c5631751b2666df9df09cb8&#45;&gt;dir_d44c64559bbebec7f509842c48db8b23 -->
<g id="edge37" class="edge">
<title>dir_84e86b557c5631751b2666df9df09cb8&#45;&gt;dir_d44c64559bbebec7f509842c48db8b23</title>
<g id="a_edge37"><a xlink:href="dir_000050_000026.html" target="_top">
<path fill="none" stroke="#63b8ff" d="M723.66,-70.84C732,-67.76 741.81,-64.65 751,-63 1002.01,-17.95 1641.11,-72.21 1906.84,-35.76"/>
<polygon fill="#63b8ff" stroke="#63b8ff" points="1907.51,-39.2 1916.91,-34.31 1906.51,-32.27 1907.51,-39.2"/>
</a>
</g>
<g id="a_edge37&#45;headlabel"><a xlink:href="dir_000050_000026.html" target="_top" xlink:title="1">
<text text-anchor="middle" x="1904.36" y="-40.03" font-family="Helvetica,sans-Serif" font-size="10.00" fill="#63b8ff">1</text>
</a>
</g>
</g>
<!-- dir_517c47473db548defbc7dba6faac8c5d -->
<g id="node20" class="node">
<title>dir_517c47473db548defbc7dba6faac8c5d</title>
<g id="a_node20"><a xlink:href="dir_517c47473db548defbc7dba6faac8c5d.html" target="_top" xlink:title="train">
<polygon fill="#4ea9ff" stroke="#404040" points="646.5,-90 607.5,-90 607.5,-71 646.5,-71 646.5,-90"/>
<text text-anchor="middle" x="627" y="-78" font-family="Helvetica,sans-Serif" font-size="10.00">train</text>
</a>
</g>
</g>
<!-- dir_517c47473db548defbc7dba6faac8c5d&#45;&gt;dir_b624d86e5671d82a613a73eb9566e66f -->
<g id="edge38" class="edge">
<title>dir_517c47473db548defbc7dba6faac8c5d&#45;&gt;dir_b624d86e5671d82a613a73eb9566e66f</title>
<g id="a_edge38"><a xlink:href="dir_000053_000042.html" target="_top">
<path fill="none" stroke="#63b8ff" d="M639.8,-70.89C644.69,-67.97 650.42,-64.96 656,-63 723.11,-39.46 806.58,-31.04 852.25,-28.07"/>
<polygon fill="#63b8ff" stroke="#63b8ff" points="852.7,-31.55 862.47,-27.46 852.28,-24.56 852.7,-31.55"/>
</a>
</g>
<g id="a_edge38&#45;headlabel"><a xlink:href="dir_000053_000042.html" target="_top" xlink:title="2">
<text text-anchor="middle" x="849.28" y="-32.1" font-family="Helvetica,sans-Serif" font-size="10.00" fill="#63b8ff">2</text>
</a>
</g>
</g>
<!-- dir_517c47473db548defbc7dba6faac8c5d&#45;&gt;dir_d44c64559bbebec7f509842c48db8b23 -->
<g id="edge39" class="edge">
<title>dir_517c47473db548defbc7dba6faac8c5d&#45;&gt;dir_d44c64559bbebec7f509842c48db8b23</title>
<g id="a_edge39"><a xlink:href="dir_000053_000026.html" target="_top">
<path fill="none" stroke="#63b8ff" d="M639.11,-70.83C644.09,-67.75 650.08,-64.64 656,-63 787.82,-26.55 1733.9,-54.53 1906.86,-35.6"/>
<polygon fill="#63b8ff" stroke="#63b8ff" points="1907.43,-39.05 1916.91,-34.31 1906.54,-32.11 1907.43,-39.05"/>
</a>
</g>
<g id="a_edge39&#45;headlabel"><a xlink:href="dir_000053_000026.html" target="_top" xlink:title="1">
<text text-anchor="middle" x="1904.23" y="-39.83" font-family="Helvetica,sans-Serif" font-size="10.00" fill="#63b8ff">1</text>
</a>
</g>
</g>
<!-- dir_744c9cc1f09c76b1f473d83866987411 -->
<g id="node21" class="node">
<title>dir_744c9cc1f09c76b1f473d83866987411</title>
<g id="a_node21"><a xlink:href="dir_744c9cc1f09c76b1f473d83866987411.html" target="_top" xlink:title="trees">
<polygon fill="#4ea9ff" stroke="#404040" points="1708.5,-90 1667.5,-90 1667.5,-71 1708.5,-71 1708.5,-90"/>
<text text-anchor="middle" x="1688" y="-78" font-family="Helvetica,sans-Serif" font-size="10.00">trees</text>
</a>
</g>
</g>
<!-- dir_744c9cc1f09c76b1f473d83866987411&#45;&gt;dir_b624d86e5671d82a613a73eb9566e66f -->
<g id="edge41" class="edge">
<title>dir_744c9cc1f09c76b1f473d83866987411&#45;&gt;dir_b624d86e5671d82a613a73eb9566e66f</title>
<g id="a_edge41"><a xlink:href="dir_000054_000042.html" target="_top">
<path fill="none" stroke="#63b8ff" d="M1675.87,-70.91C1670.88,-67.83 1664.9,-64.71 1659,-63 1587.47,-42.26 1059.99,-30.07 920.02,-27.17"/>
<polygon fill="#63b8ff" stroke="#63b8ff" points="919.95,-23.67 909.88,-26.97 919.81,-30.67 919.95,-23.67"/>
</a>
</g>
<g id="a_edge41&#45;headlabel"><a xlink:href="dir_000054_000042.html" target="_top" xlink:title="1">
<text text-anchor="middle" x="923.6" y="-18.41" font-family="Helvetica,sans-Serif" font-size="10.00" fill="#63b8ff">1</text>
</a>
</g>
</g>
<!-- dir_744c9cc1f09c76b1f473d83866987411&#45;&gt;dir_d44c64559bbebec7f509842c48db8b23 -->
<g id="edge42" class="edge">
<title>dir_744c9cc1f09c76b1f473d83866987411&#45;&gt;dir_d44c64559bbebec7f509842c48db8b23</title>
<g id="a_edge42"><a xlink:href="dir_000054_000026.html" target="_top">
<path fill="none" stroke="#63b8ff" d="M1701.27,-70.86C1706.32,-67.93 1712.25,-64.92 1718,-63 1797.79,-36.32 1825.21,-51.86 1906.66,-36.2"/>
<polygon fill="#63b8ff" stroke="#63b8ff" points="1907.77,-39.54 1916.87,-34.12 1906.38,-32.68 1907.77,-39.54"/>
</a>
</g>
<g id="a_edge42&#45;headlabel"><a xlink:href="dir_000054_000026.html" target="_top" xlink:title="1">
<text text-anchor="middle" x="1904.81" y="-40.54" font-family="Helvetica,sans-Serif" font-size="10.00" fill="#63b8ff">1</text>
</a>
</g>
</g>
<!-- dir_744c9cc1f09c76b1f473d83866987411&#45;&gt;dir_9d35e33a62367a6e44d3f53c24813abf -->
<g id="edge40" class="edge">
<title>dir_744c9cc1f09c76b1f473d83866987411&#45;&gt;dir_9d35e33a62367a6e44d3f53c24813abf</title>
<g id="a_edge40"><a xlink:href="dir_000054_000013.html" target="_top">
<path fill="none" stroke="#63b8ff" d="M1700.93,-70.92C1706.05,-67.93 1712.1,-64.86 1718,-63 1825.83,-29.05 1861.49,-53.21 1977.01,-34.91"/>
<polygon fill="#63b8ff" stroke="#63b8ff" points="1977.65,-38.36 1986.95,-33.27 1976.51,-31.45 1977.65,-38.36"/>
</a>
</g>
<g id="a_edge40&#45;headlabel"><a xlink:href="dir_000054_000013.html" target="_top" xlink:title="1">
<text text-anchor="middle" x="1974.57" y="-39.24" font-family="Helvetica,sans-Serif" font-size="10.00" fill="#63b8ff">1</text>
</a>
</g>
</g>
<!-- dir_565e0f503a63db633f15051bd0fb9ed2 -->
<g id="node22" class="node">
<title>dir_565e0f503a63db633f15051bd0fb9ed2</title>
<g id="a_node22"><a xlink:href="dir_565e0f503a63db633f15051bd0fb9ed2.html" target="_top" xlink:title="wario_sign">
<polygon fill="#4ea9ff" stroke="#404040" points="197.5,-90 128.5,-90 128.5,-71 197.5,-71 197.5,-90"/>
<text text-anchor="middle" x="163" y="-78" font-family="Helvetica,sans-Serif" font-size="10.00">wario_sign</text>
</a>
</g>
</g>
<!-- dir_565e0f503a63db633f15051bd0fb9ed2&#45;&gt;dir_b624d86e5671d82a613a73eb9566e66f -->
<g id="edge43" class="edge">
<title>dir_565e0f503a63db633f15051bd0fb9ed2&#45;&gt;dir_b624d86e5671d82a613a73eb9566e66f</title>
<g id="a_edge43"><a xlink:href="dir_000056_000042.html" target="_top">
<path fill="none" stroke="#63b8ff" d="M181.9,-70.97C189.54,-67.9 198.54,-64.77 207,-63 332.34,-36.78 732.9,-28.79 852.18,-26.96"/>
<polygon fill="#63b8ff" stroke="#63b8ff" points="852.24,-30.46 862.19,-26.81 852.14,-23.46 852.24,-30.46"/>
</a>
</g>
<g id="a_edge43&#45;headlabel"><a xlink:href="dir_000056_000042.html" target="_top" xlink:title="2">
<text text-anchor="middle" x="848.69" y="-30.85" font-family="Helvetica,sans-Serif" font-size="10.00" fill="#63b8ff">2</text>
</a>
</g>
</g>
<!-- dir_565e0f503a63db633f15051bd0fb9ed2&#45;&gt;dir_d44c64559bbebec7f509842c48db8b23 -->
<g id="edge44" class="edge">
<title>dir_565e0f503a63db633f15051bd0fb9ed2&#45;&gt;dir_d44c64559bbebec7f509842c48db8b23</title>
<g id="a_edge44"><a xlink:href="dir_000056_000026.html" target="_top">
<path fill="none" stroke="#63b8ff" d="M181.43,-70.98C189.16,-67.84 198.34,-64.64 207,-63 576.24,7.09 1521.08,-88.55 1906.78,-35.76"/>
<polygon fill="#63b8ff" stroke="#63b8ff" points="1907.5,-39.2 1916.91,-34.32 1906.52,-32.27 1907.5,-39.2"/>
</a>
</g>
<g id="a_edge44&#45;headlabel"><a xlink:href="dir_000056_000026.html" target="_top" xlink:title="1">
<text text-anchor="middle" x="1904.34" y="-40.01" font-family="Helvetica,sans-Serif" font-size="10.00" fill="#63b8ff">1</text>
</a>
</g>
</g>
<!-- dir_d4d27fd96eedf0d64845ece7e3d1747c -->
<g id="node23" class="node">
<title>dir_d4d27fd96eedf0d64845ece7e3d1747c</title>
<g id="a_node23"><a xlink:href="dir_d4d27fd96eedf0d64845ece7e3d1747c.html" target="_top" xlink:title="yoshi_egg">
<polygon fill="#4ea9ff" stroke="#404040" points="589,-90 523,-90 523,-71 589,-71 589,-90"/>
<text text-anchor="middle" x="556" y="-78" font-family="Helvetica,sans-Serif" font-size="10.00">yoshi_egg</text>
</a>
</g>
</g>
<!-- dir_d4d27fd96eedf0d64845ece7e3d1747c&#45;&gt;dir_b624d86e5671d82a613a73eb9566e66f -->
<g id="edge45" class="edge">
<title>dir_d4d27fd96eedf0d64845ece7e3d1747c&#45;&gt;dir_b624d86e5671d82a613a73eb9566e66f</title>
<g id="a_edge45"><a xlink:href="dir_000058_000042.html" target="_top">
<path fill="none" stroke="#63b8ff" d="M575.37,-70.93C582.66,-68.01 591.09,-64.99 599,-63 688.73,-40.43 797.94,-31.44 852.13,-28.18"/>
<polygon fill="#63b8ff" stroke="#63b8ff" points="852.42,-31.66 862.21,-27.6 852.02,-24.68 852.42,-31.66"/>
</a>
</g>
<g id="a_edge45&#45;headlabel"><a xlink:href="dir_000058_000042.html" target="_top" xlink:title="2">
<text text-anchor="middle" x="849" y="-32.2" font-family="Helvetica,sans-Serif" font-size="10.00" fill="#63b8ff">2</text>
</a>
</g>
</g>
<!-- dir_d4d27fd96eedf0d64845ece7e3d1747c&#45;&gt;dir_d44c64559bbebec7f509842c48db8b23 -->
<g id="edge46" class="edge">
<title>dir_d4d27fd96eedf0d64845ece7e3d1747c&#45;&gt;dir_d44c64559bbebec7f509842c48db8b23</title>
<g id="a_edge46"><a xlink:href="dir_000058_000026.html" target="_top">
<path fill="none" stroke="#63b8ff" d="M574.42,-70.83C581.88,-67.74 590.68,-64.63 599,-63 882.38,-7.37 1607.63,-76.68 1906.88,-35.75"/>
<polygon fill="#63b8ff" stroke="#63b8ff" points="1907.51,-39.2 1916.91,-34.32 1906.51,-32.27 1907.51,-39.2"/>
</a>
</g>
<g id="a_edge46&#45;headlabel"><a xlink:href="dir_000058_000026.html" target="_top" xlink:title="1">
<text text-anchor="middle" x="1904.35" y="-40.02" font-family="Helvetica,sans-Serif" font-size="10.00" fill="#63b8ff">1</text>
</a>
</g>
</g>
</g>
</svg>
