<?xml version="1.0" encoding="UTF-8" standalone="no"?>
<!DOCTYPE svg PUBLIC "-//W3C//DTD SVG 1.1//EN"
 "http://www.w3.org/Graphics/SVG/1.1/DTD/svg11.dtd">
<!-- Generated by graphviz version 2.43.0 (0)
 -->
<!-- Title: src/actors Pages: 1 -->
<svg width="1998pt" height="141pt"
 viewBox="0.00 0.00 1998.00 141.00" xmlns="http://www.w3.org/2000/svg" xmlns:xlink="http://www.w3.org/1999/xlink">
<g id="graph0" class="graph" transform="scale(1 1) rotate(0) translate(4 137)">
<title>src/actors</title>
<g id="clust1" class="cluster">
<title>clusterdir_68267d1309a1af8e8297ef4c3efbcdba</title>
<g id="a_clust1"><a xlink:href="dir_68267d1309a1af8e8297ef4c3efbcdba.html" target="_top" xlink:title="src">
<polygon fill="#daedff" stroke="#404040" stroke-dasharray="5,2" points="8,-8 8,-125 1858,-125 1858,-8 8,-8"/>
<text text-anchor="middle" x="933" y="-113" font-family="Helvetica,sans-Serif" font-size="10.00">src</text>
</a>
</g>
</g>
<g id="clust2" class="cluster">
<title>clusterdir_520494cf19be961f9d881ed04931ae5b</title>
<g id="a_clust2"><a xlink:href="dir_520494cf19be961f9d881ed04931ae5b.html" target="_top">
<polygon fill="#daedff" stroke="#404040" stroke-width="2" points="16,-63 16,-98 1850,-98 1850,-63 16,-63"/>
</a>
</g>
</g>
<!-- dir_b624d86e5671d82a613a73eb9566e66f -->
<g id="node1" class="node">
<title>dir_b624d86e5671d82a613a73eb9566e66f</title>
<g id="a_node1"><a xlink:href="dir_b624d86e5671d82a613a73eb9566e66f.html" target="_top" xlink:title="racing">
<polygon fill="#4ea9ff" stroke="#404040" points="882.5,-35 835.5,-35 835.5,-16 882.5,-16 882.5,-35"/>
<text text-anchor="middle" x="859" y="-23" font-family="Helvetica,sans-Serif" font-size="10.00">racing</text>
</a>
</g>
</g>
<!-- dir_520494cf19be961f9d881ed04931ae5b -->
<g id="node2" class="node">
<title>dir_520494cf19be961f9d881ed04931ae5b</title>
<text text-anchor="middle" x="1818" y="-78" font-family="Helvetica,sans-Serif" font-size="10.00">actors</text>
</g>
<!-- dir_c2bf07cbd3db5f76cf529844275ce26f -->
<g id="node3" class="node">
<title>dir_c2bf07cbd3db5f76cf529844275ce26f</title>
<g id="a_node3"><a xlink:href="dir_c2bf07cbd3db5f76cf529844275ce26f.html" target="_top" xlink:title="banana">
<polygon fill="#4ea9ff" stroke="#404040" points="375.5,-90 322.5,-90 322.5,-71 375.5,-71 375.5,-90"/>
<text text-anchor="middle" x="349" y="-78" font-family="Helvetica,sans-Serif" font-size="10.00">banana</text>
</a>
</g>
</g>
<!-- dir_c2bf07cbd3db5f76cf529844275ce26f&#45;&gt;dir_b624d86e5671d82a613a73eb9566e66f -->
<g id="edge1" class="edge">
<title>dir_c2bf07cbd3db5f76cf529844275ce26f&#45;&gt;dir_b624d86e5671d82a613a73eb9566e66f</title>
<g id="a_edge1"><a xlink:href="dir_000003_000042.html" target="_top">
<path fill="none" stroke="#63b8ff" d="M364.22,-70.85C370.2,-67.84 377.25,-64.79 384,-63 467.54,-40.9 731.14,-30.56 825.22,-27.51"/>
<polygon fill="#63b8ff" stroke="#63b8ff" points="825.44,-31 835.33,-27.19 825.22,-24 825.44,-31"/>
</a>
</g>
<g id="a_edge1&#45;headlabel"><a xlink:href="dir_000003_000042.html" target="_top" xlink:title="2">
<text text-anchor="middle" x="821.94" y="-31.45" font-family="Helvetica,sans-Serif" font-size="10.00" fill="#63b8ff">2</text>
</a>
</g>
</g>
<!-- dir_d44c64559bbebec7f509842c48db8b23 -->
<g id="node24" class="node">
<title>dir_d44c64559bbebec7f509842c48db8b23</title>
<g id="a_node24"><a xlink:href="dir_d44c64559bbebec7f509842c48db8b23.html" target="_top" xlink:title="include">
<polygon fill="#daedff" stroke="red" points="1918,-35 1866,-35 1866,-16 1918,-16 1918,-35"/>
<text text-anchor="middle" x="1892" y="-23" font-family="Helvetica,sans-Serif" font-size="10.00">include</text>
</a>
</g>
</g>
<!-- dir_c2bf07cbd3db5f76cf529844275ce26f&#45;&gt;dir_d44c64559bbebec7f509842c48db8b23 -->
<g id="edge2" class="edge">
<title>dir_c2bf07cbd3db5f76cf529844275ce26f&#45;&gt;dir_d44c64559bbebec7f509842c48db8b23</title>
<g id="a_edge2"><a xlink:href="dir_000003_000025.html" target="_top">
<path fill="none" stroke="#63b8ff" d="M363.48,-70.99C369.6,-67.85 376.94,-64.65 384,-63 541.05,-26.27 1658.1,-57.95 1855.93,-35.61"/>
<polygon fill="#63b8ff" stroke="#63b8ff" points="1856.44,-39.07 1865.91,-34.32 1855.54,-32.13 1856.44,-39.07"/>
</a>
</g>
<g id="a_edge2&#45;headlabel"><a xlink:href="dir_000003_000025.html" target="_top" xlink:title="2">
<text text-anchor="middle" x="1853.24" y="-39.85" font-family="Helvetica,sans-Serif" font-size="10.00" fill="#63b8ff">2</text>
</a>
</g>
</g>
<!-- dir_1ae522896ee2dd835300d6a3fdb378ec -->
<g id="node4" class="node">
<title>dir_1ae522896ee2dd835300d6a3fdb378ec</title>
<g id="a_node4"><a xlink:href="dir_1ae522896ee2dd835300d6a3fdb378ec.html" target="_top" xlink:title="box_truck">
<polygon fill="#4ea9ff" stroke="#404040" points="1603.5,-90 1538.5,-90 1538.5,-71 1603.5,-71 1603.5,-90"/>
<text text-anchor="middle" x="1571" y="-78" font-family="Helvetica,sans-Serif" font-size="10.00">box_truck</text>
</a>
</g>
</g>
<!-- dir_1ae522896ee2dd835300d6a3fdb378ec&#45;&gt;dir_b624d86e5671d82a613a73eb9566e66f -->
<g id="edge4" class="edge">
<title>dir_1ae522896ee2dd835300d6a3fdb378ec&#45;&gt;dir_b624d86e5671d82a613a73eb9566e66f</title>
<g id="a_edge4"><a xlink:href="dir_000009_000042.html" target="_top">
<path fill="none" stroke="#63b8ff" d="M1553,-70.96C1545.71,-67.9 1537.11,-64.77 1529,-63 1405.65,-36.14 1010.93,-28.6 892.75,-26.92"/>
<polygon fill="#63b8ff" stroke="#63b8ff" points="892.55,-23.41 882.5,-26.78 892.45,-30.41 892.55,-23.41"/>
</a>
</g>
<g id="a_edge4&#45;headlabel"><a xlink:href="dir_000009_000042.html" target="_top" xlink:title="1">
<text text-anchor="middle" x="896.18" y="-18.12" font-family="Helvetica,sans-Serif" font-size="10.00" fill="#63b8ff">1</text>
</a>
</g>
</g>
<!-- dir_1ae522896ee2dd835300d6a3fdb378ec&#45;&gt;dir_d44c64559bbebec7f509842c48db8b23 -->
<g id="edge5" class="edge">
<title>dir_1ae522896ee2dd835300d6a3fdb378ec&#45;&gt;dir_d44c64559bbebec7f509842c48db8b23</title>
<g id="a_edge5"><a xlink:href="dir_000009_000025.html" target="_top">
<path fill="none" stroke="#63b8ff" d="M1589.89,-70.86C1597,-67.93 1605.24,-64.92 1613,-63 1717.82,-37 1750.74,-55.29 1855.83,-36.08"/>
<polygon fill="#63b8ff" stroke="#63b8ff" points="1856.71,-39.48 1865.88,-34.17 1855.41,-32.6 1856.71,-39.48"/>
</a>
</g>
<g id="a_edge5&#45;headlabel"><a xlink:href="dir_000009_000025.html" target="_top" xlink:title="2">
<text text-anchor="middle" x="1853.71" y="-40.44" font-family="Helvetica,sans-Serif" font-size="10.00" fill="#63b8ff">2</text>
</a>
</g>
</g>
<!-- dir_9d35e33a62367a6e44d3f53c24813abf -->
<g id="node25" class="node">
<title>dir_9d35e33a62367a6e44d3f53c24813abf</title>
<g id="a_node25"><a xlink:href="dir_9d35e33a62367a6e44d3f53c24813abf.html" target="_top" xlink:title="courses">
<polygon fill="#daedff" stroke="red" points="1990,-35 1936,-35 1936,-16 1990,-16 1990,-35"/>
<text text-anchor="middle" x="1963" y="-23" font-family="Helvetica,sans-Serif" font-size="10.00">courses</text>
</a>
</g>
</g>
<!-- dir_1ae522896ee2dd835300d6a3fdb378ec&#45;&gt;dir_9d35e33a62367a6e44d3f53c24813abf -->
<g id="edge3" class="edge">
<title>dir_1ae522896ee2dd835300d6a3fdb378ec&#45;&gt;dir_9d35e33a62367a6e44d3f53c24813abf</title>
<g id="a_edge3"><a xlink:href="dir_000009_000012.html" target="_top">
<path fill="none" stroke="#63b8ff" d="M1589.45,-70.94C1596.65,-67.94 1605.07,-64.87 1613,-63 1746.17,-31.59 1786.79,-56.17 1925.78,-34.93"/>
<polygon fill="#63b8ff" stroke="#63b8ff" points="1926.63,-38.34 1935.96,-33.32 1925.53,-31.43 1926.63,-38.34"/>
</a>
</g>
<g id="a_edge3&#45;headlabel"><a xlink:href="dir_000009_000012.html" target="_top" xlink:title="1">
<text text-anchor="middle" x="1923.52" y="-39.21" font-family="Helvetica,sans-Serif" font-size="10.00" fill="#63b8ff">1</text>
</a>
</g>
</g>
<!-- dir_5bf4c70135565517cee60066cf0b486e -->
<g id="node5" class="node">
<title>dir_5bf4c70135565517cee60066cf0b486e</title>
<g id="a_node5"><a xlink:href="dir_5bf4c70135565517cee60066cf0b486e.html" target="_top" xlink:title="car">
<polygon fill="#4ea9ff" stroke="#404040" points="217,-90 185,-90 185,-71 217,-71 217,-90"/>
<text text-anchor="middle" x="201" y="-78" font-family="Helvetica,sans-Serif" font-size="10.00">car</text>
</a>
</g>
</g>
<!-- dir_5bf4c70135565517cee60066cf0b486e&#45;&gt;dir_b624d86e5671d82a613a73eb9566e66f -->
<g id="edge6" class="edge">
<title>dir_5bf4c70135565517cee60066cf0b486e&#45;&gt;dir_b624d86e5671d82a613a73eb9566e66f</title>
<g id="a_edge6"><a xlink:href="dir_000010_000042.html" target="_top">
<path fill="none" stroke="#63b8ff" d="M211.55,-70.76C215.78,-67.75 220.87,-64.7 226,-63 338.59,-25.63 710.34,-25.31 825.01,-26.15"/>
<polygon fill="#63b8ff" stroke="#63b8ff" points="825.26,-29.65 835.29,-26.23 825.32,-22.65 825.26,-29.65"/>
</a>
</g>
<g id="a_edge6&#45;headlabel"><a xlink:href="dir_000010_000042.html" target="_top" xlink:title="1">
<text text-anchor="middle" x="821.64" y="-29.96" font-family="Helvetica,sans-Serif" font-size="10.00" fill="#63b8ff">1</text>
</a>
</g>
</g>
<!-- dir_5bf4c70135565517cee60066cf0b486e&#45;&gt;dir_d44c64559bbebec7f509842c48db8b23 -->
<g id="edge7" class="edge">
<title>dir_5bf4c70135565517cee60066cf0b486e&#45;&gt;dir_d44c64559bbebec7f509842c48db8b23</title>
<g id="a_edge7"><a xlink:href="dir_000010_000025.html" target="_top">
<path fill="none" stroke="#63b8ff" d="M211.03,-71C215.35,-67.86 220.63,-64.66 226,-63 396.79,-10.12 1639.87,-59.85 1855.86,-35.61"/>
<polygon fill="#63b8ff" stroke="#63b8ff" points="1856.44,-39.07 1865.91,-34.32 1855.54,-32.13 1856.44,-39.07"/>
</a>
</g>
<g id="a_edge7&#45;headlabel"><a xlink:href="dir_000010_000025.html" target="_top" xlink:title="1">
<text text-anchor="middle" x="1853.23" y="-39.84" font-family="Helvetica,sans-Serif" font-size="10.00" fill="#63b8ff">1</text>
</a>
</g>
</g>
<!-- dir_7aa598291e9b46b83c172d01488969a3 -->
<g id="node6" class="node">
<title>dir_7aa598291e9b46b83c172d01488969a3</title>
<g id="a_node6"><a xlink:href="dir_7aa598291e9b46b83c172d01488969a3.html" target="_top" xlink:title="cow">
<polygon fill="#4ea9ff" stroke="#404040" points="167,-90 131,-90 131,-71 167,-71 167,-90"/>
<text text-anchor="middle" x="149" y="-78" font-family="Helvetica,sans-Serif" font-size="10.00">cow</text>
</a>
</g>
</g>
<!-- dir_7aa598291e9b46b83c172d01488969a3&#45;&gt;dir_b624d86e5671d82a613a73eb9566e66f -->
<g id="edge8" class="edge">
<title>dir_7aa598291e9b46b83c172d01488969a3&#45;&gt;dir_b624d86e5671d82a613a73eb9566e66f</title>
<g id="a_edge8"><a xlink:href="dir_000014_000042.html" target="_top">
<path fill="none" stroke="#63b8ff" d="M160.22,-70.92C164.85,-67.85 170.44,-64.73 176,-63 299.16,-24.77 704.97,-25.14 825.17,-26.13"/>
<polygon fill="#63b8ff" stroke="#63b8ff" points="825.22,-29.63 835.25,-26.22 825.29,-22.63 825.22,-29.63"/>
</a>
</g>
<g id="a_edge8&#45;headlabel"><a xlink:href="dir_000014_000042.html" target="_top" xlink:title="1">
<text text-anchor="middle" x="821.6" y="-29.93" font-family="Helvetica,sans-Serif" font-size="10.00" fill="#63b8ff">1</text>
</a>
</g>
</g>
<!-- dir_7aa598291e9b46b83c172d01488969a3&#45;&gt;dir_d44c64559bbebec7f509842c48db8b23 -->
<g id="edge9" class="edge">
<title>dir_7aa598291e9b46b83c172d01488969a3&#45;&gt;dir_d44c64559bbebec7f509842c48db8b23</title>
<g id="a_edge9"><a xlink:href="dir_000014_000025.html" target="_top">
<path fill="none" stroke="#63b8ff" d="M159.93,-70.99C164.61,-67.85 170.3,-64.65 176,-63 353.03,-11.6 1634.38,-60.69 1855.89,-35.62"/>
<polygon fill="#63b8ff" stroke="#63b8ff" points="1856.44,-39.07 1865.91,-34.32 1855.54,-32.13 1856.44,-39.07"/>
</a>
</g>
<g id="a_edge9&#45;headlabel"><a xlink:href="dir_000014_000025.html" target="_top" xlink:title="1">
<text text-anchor="middle" x="1853.24" y="-39.85" font-family="Helvetica,sans-Serif" font-size="10.00" fill="#63b8ff">1</text>
</a>
</g>
</g>
<!-- dir_8a4111354e3ab95d89c3f9aa42481ccc -->
<g id="node7" class="node">
<title>dir_8a4111354e3ab95d89c3f9aa42481ccc</title>
<g id="a_node7"><a xlink:href="dir_8a4111354e3ab95d89c3f9aa42481ccc.html" target="_top" xlink:title="fake_item_box">
<polygon fill="#4ea9ff" stroke="#404040" points="112.5,-90 23.5,-90 23.5,-71 112.5,-71 112.5,-90"/>
<text text-anchor="middle" x="68" y="-78" font-family="Helvetica,sans-Serif" font-size="10.00">fake_item_box</text>
</a>
</g>
</g>
<!-- dir_8a4111354e3ab95d89c3f9aa42481ccc&#45;&gt;dir_b624d86e5671d82a613a73eb9566e66f -->
<g id="edge10" class="edge">
<title>dir_8a4111354e3ab95d89c3f9aa42481ccc&#45;&gt;dir_b624d86e5671d82a613a73eb9566e66f</title>
<g id="a_edge10"><a xlink:href="dir_000021_000042.html" target="_top">
<path fill="none" stroke="#63b8ff" d="M91.35,-70.99C100.75,-67.93 111.76,-64.79 122,-63 259.95,-38.89 699.8,-29.34 825.29,-27.07"/>
<polygon fill="#63b8ff" stroke="#63b8ff" points="825.51,-30.56 835.44,-26.88 825.38,-23.56 825.51,-30.56"/>
</a>
</g>
<g id="a_edge10&#45;headlabel"><a xlink:href="dir_000021_000042.html" target="_top" xlink:title="2">
<text text-anchor="middle" x="821.96" y="-30.96" font-family="Helvetica,sans-Serif" font-size="10.00" fill="#63b8ff">2</text>
</a>
</g>
</g>
<!-- dir_8a4111354e3ab95d89c3f9aa42481ccc&#45;&gt;dir_d44c64559bbebec7f509842c48db8b23 -->
<g id="edge11" class="edge">
<title>dir_8a4111354e3ab95d89c3f9aa42481ccc&#45;&gt;dir_d44c64559bbebec7f509842c48db8b23</title>
<g id="a_edge11"><a xlink:href="dir_000021_000025.html" target="_top">
<path fill="none" stroke="#63b8ff" d="M90.79,-70.98C100.3,-67.84 111.54,-64.65 122,-63 500.74,-3.31 1462.78,-89.79 1855.87,-35.75"/>
<polygon fill="#63b8ff" stroke="#63b8ff" points="1856.5,-39.2 1865.91,-34.32 1855.52,-32.27 1856.5,-39.2"/>
</a>
</g>
<g id="a_edge11&#45;headlabel"><a xlink:href="dir_000021_000025.html" target="_top" xlink:title="1">
<text text-anchor="middle" x="1853.34" y="-40.02" font-family="Helvetica,sans-Serif" font-size="10.00" fill="#63b8ff">1</text>
</a>
</g>
</g>
<!-- dir_9f92b7828d59819d17382ec6f8645008 -->
<g id="node8" class="node">
<title>dir_9f92b7828d59819d17382ec6f8645008</title>
<g id="a_node8"><a xlink:href="dir_9f92b7828d59819d17382ec6f8645008.html" target="_top" xlink:title="falling_rock">
<polygon fill="#4ea9ff" stroke="#404040" points="1520,-90 1446,-90 1446,-71 1520,-71 1520,-90"/>
<text text-anchor="middle" x="1483" y="-78" font-family="Helvetica,sans-Serif" font-size="10.00">falling_rock</text>
</a>
</g>
</g>
<!-- dir_9f92b7828d59819d17382ec6f8645008&#45;&gt;dir_b624d86e5671d82a613a73eb9566e66f -->
<g id="edge13" class="edge">
<title>dir_9f92b7828d59819d17382ec6f8645008&#45;&gt;dir_b624d86e5671d82a613a73eb9566e66f</title>
<g id="a_edge13"><a xlink:href="dir_000022_000042.html" target="_top">
<path fill="none" stroke="#63b8ff" d="M1462.75,-70.85C1454.85,-67.84 1445.64,-64.79 1437,-63 1331.93,-41.29 1000.33,-30.41 892.93,-27.39"/>
<polygon fill="#63b8ff" stroke="#63b8ff" points="892.77,-23.89 882.68,-27.11 892.58,-30.88 892.77,-23.89"/>
</a>
</g>
<g id="a_edge13&#45;headlabel"><a xlink:href="dir_000022_000042.html" target="_top" xlink:title="2">
<text text-anchor="middle" x="896.44" y="-18.65" font-family="Helvetica,sans-Serif" font-size="10.00" fill="#63b8ff">2</text>
</a>
</g>
</g>
<!-- dir_9f92b7828d59819d17382ec6f8645008&#45;&gt;dir_9d35e33a62367a6e44d3f53c24813abf -->
<g id="edge12" class="edge">
<title>dir_9f92b7828d59819d17382ec6f8645008&#45;&gt;dir_9d35e33a62367a6e44d3f53c24813abf</title>
<g id="a_edge12"><a xlink:href="dir_000022_000012.html" target="_top">
<path fill="none" stroke="#63b8ff" d="M1503.72,-70.88C1511.78,-67.89 1521.19,-64.82 1530,-63 1700,-27.83 1750.28,-60.38 1925.87,-34.89"/>
<polygon fill="#63b8ff" stroke="#63b8ff" points="1926.59,-38.32 1935.96,-33.38 1925.56,-31.39 1926.59,-38.32"/>
</a>
</g>
<g id="a_edge12&#45;headlabel"><a xlink:href="dir_000022_000012.html" target="_top" xlink:title="2">
<text text-anchor="middle" x="1923.46" y="-39.16" font-family="Helvetica,sans-Serif" font-size="10.00" fill="#63b8ff">2</text>
</a>
</g>
</g>
<!-- dir_082d554c8445af69fa49f0d23f20fa3b -->
<g id="node9" class="node">
<title>dir_082d554c8445af69fa49f0d23f20fa3b</title>
<g id="a_node9"><a xlink:href="dir_082d554c8445af69fa49f0d23f20fa3b.html" target="_top" xlink:title="green_shell">
<polygon fill="#4ea9ff" stroke="#404040" points="1069.5,-90 996.5,-90 996.5,-71 1069.5,-71 1069.5,-90"/>
<text text-anchor="middle" x="1033" y="-78" font-family="Helvetica,sans-Serif" font-size="10.00">green_shell</text>
</a>
</g>
</g>
<!-- dir_082d554c8445af69fa49f0d23f20fa3b&#45;&gt;dir_b624d86e5671d82a613a73eb9566e66f -->
<g id="edge14" class="edge">
<title>dir_082d554c8445af69fa49f0d23f20fa3b&#45;&gt;dir_b624d86e5671d82a613a73eb9566e66f</title>
<g id="a_edge14"><a xlink:href="dir_000024_000042.html" target="_top">
<path fill="none" stroke="#63b8ff" d="M1010.17,-70.97C1002.81,-68.31 994.59,-65.44 987,-63 955.15,-52.76 918.38,-42.43 892.45,-35.38"/>
<polygon fill="#63b8ff" stroke="#63b8ff" points="893.3,-31.99 882.73,-32.76 891.48,-38.74 893.3,-31.99"/>
</a>
</g>
<g id="a_edge14&#45;headlabel"><a xlink:href="dir_000024_000042.html" target="_top" xlink:title="2">
<text text-anchor="middle" x="897.51" y="-27.68" font-family="Helvetica,sans-Serif" font-size="10.00" fill="#63b8ff">2</text>
</a>
</g>
</g>
<!-- dir_082d554c8445af69fa49f0d23f20fa3b&#45;&gt;dir_d44c64559bbebec7f509842c48db8b23 -->
<g id="edge15" class="edge">
<title>dir_082d554c8445af69fa49f0d23f20fa3b&#45;&gt;dir_d44c64559bbebec7f509842c48db8b23</title>
<g id="a_edge15"><a xlink:href="dir_000024_000025.html" target="_top">
<path fill="none" stroke="#63b8ff" d="M1052.78,-70.89C1060.76,-67.82 1070.17,-64.7 1079,-63 1417.61,2.15 1516.08,-87.3 1855.78,-35.86"/>
<polygon fill="#63b8ff" stroke="#63b8ff" points="1856.56,-39.28 1865.9,-34.29 1855.49,-32.36 1856.56,-39.28"/>
</a>
</g>
<g id="a_edge15&#45;headlabel"><a xlink:href="dir_000024_000025.html" target="_top" xlink:title="3">
<text text-anchor="middle" x="1853.44" y="-40.13" font-family="Helvetica,sans-Serif" font-size="10.00" fill="#63b8ff">3</text>
</a>
</g>
</g>
<!-- dir_b358511119841a6b3a0e59dc0c8c249d -->
<g id="node10" class="node">
<title>dir_b358511119841a6b3a0e59dc0c8c249d</title>
<g id="a_node10"><a xlink:href="dir_b358511119841a6b3a0e59dc0c8c249d.html" target="_top" xlink:title="item_box">
<polygon fill="#4ea9ff" stroke="#404040" points="978,-90 916,-90 916,-71 978,-71 978,-90"/>
<text text-anchor="middle" x="947" y="-78" font-family="Helvetica,sans-Serif" font-size="10.00">item_box</text>
</a>
</g>
</g>
<!-- dir_b358511119841a6b3a0e59dc0c8c249d&#45;&gt;dir_b624d86e5671d82a613a73eb9566e66f -->
<g id="edge16" class="edge">
<title>dir_b358511119841a6b3a0e59dc0c8c249d&#45;&gt;dir_b624d86e5671d82a613a73eb9566e66f</title>
<g id="a_edge16"><a xlink:href="dir_000026_000042.html" target="_top">
<path fill="none" stroke="#63b8ff" d="M932.86,-70.98C919.21,-62.77 898.31,-50.18 882.22,-40.49"/>
<polygon fill="#63b8ff" stroke="#63b8ff" points="883.77,-37.33 873.4,-35.17 880.16,-43.33 883.77,-37.33"/>
</a>
</g>
<g id="a_edge16&#45;headlabel"><a xlink:href="dir_000026_000042.html" target="_top" xlink:title="2">
<text text-anchor="middle" x="888.31" y="-34.25" font-family="Helvetica,sans-Serif" font-size="10.00" fill="#63b8ff">2</text>
</a>
</g>
</g>
<!-- dir_b358511119841a6b3a0e59dc0c8c249d&#45;&gt;dir_d44c64559bbebec7f509842c48db8b23 -->
<g id="edge17" class="edge">
<title>dir_b358511119841a6b3a0e59dc0c8c249d&#45;&gt;dir_d44c64559bbebec7f509842c48db8b23</title>
<g id="a_edge17"><a xlink:href="dir_000026_000025.html" target="_top">
<path fill="none" stroke="#63b8ff" d="M964.54,-70.87C971.64,-67.79 980.04,-64.67 988,-63 1175,-23.67 1653.73,-63.45 1855.9,-35.76"/>
<polygon fill="#63b8ff" stroke="#63b8ff" points="1856.52,-39.21 1865.9,-34.3 1855.5,-32.28 1856.52,-39.21"/>
</a>
</g>
<g id="a_edge17&#45;headlabel"><a xlink:href="dir_000026_000025.html" target="_top" xlink:title="1">
<text text-anchor="middle" x="1853.37" y="-40.04" font-family="Helvetica,sans-Serif" font-size="10.00" fill="#63b8ff">1</text>
</a>
</g>
</g>
<!-- dir_7679761027b1fa214ffd6938221a3b1c -->
<g id="node11" class="node">
<title>dir_7679761027b1fa214ffd6938221a3b1c</title>
<g id="a_node11"><a xlink:href="dir_7679761027b1fa214ffd6938221a3b1c.html" target="_top" xlink:title="kiwano_fruit">
<polygon fill="#4ea9ff" stroke="#404040" points="897.5,-90 820.5,-90 820.5,-71 897.5,-71 897.5,-90"/>
<text text-anchor="middle" x="859" y="-78" font-family="Helvetica,sans-Serif" font-size="10.00">kiwano_fruit</text>
</a>
</g>
</g>
<!-- dir_7679761027b1fa214ffd6938221a3b1c&#45;&gt;dir_b624d86e5671d82a613a73eb9566e66f -->
<g id="edge18" class="edge">
<title>dir_7679761027b1fa214ffd6938221a3b1c&#45;&gt;dir_b624d86e5671d82a613a73eb9566e66f</title>
<g id="a_edge18"><a xlink:href="dir_000028_000042.html" target="_top">
<path fill="none" stroke="#63b8ff" d="M859,-70.75C859,-63.8 859,-53.85 859,-45.13"/>
<polygon fill="#63b8ff" stroke="#63b8ff" points="862.5,-45.09 859,-35.09 855.5,-45.09 862.5,-45.09"/>
</a>
</g>
<g id="a_edge18&#45;headlabel"><a xlink:href="dir_000028_000042.html" target="_top" xlink:title="2">
<text text-anchor="middle" x="865.34" y="-46.18" font-family="Helvetica,sans-Serif" font-size="10.00" fill="#63b8ff">2</text>
</a>
</g>
</g>
<!-- dir_7679761027b1fa214ffd6938221a3b1c&#45;&gt;dir_d44c64559bbebec7f509842c48db8b23 -->
<g id="edge19" class="edge">
<title>dir_7679761027b1fa214ffd6938221a3b1c&#45;&gt;dir_d44c64559bbebec7f509842c48db8b23</title>
<g id="a_edge19"><a xlink:href="dir_000028_000025.html" target="_top">
<path fill="none" stroke="#63b8ff" d="M879.66,-70.87C888,-67.79 897.81,-64.67 907,-63 1321.39,12.49 1440.4,-97.79 1855.73,-35.85"/>
<polygon fill="#63b8ff" stroke="#63b8ff" points="1856.54,-39.26 1865.91,-34.3 1855.49,-32.34 1856.54,-39.26"/>
</a>
</g>
<g id="a_edge19&#45;headlabel"><a xlink:href="dir_000028_000025.html" target="_top" xlink:title="3">
<text text-anchor="middle" x="1853.41" y="-40.11" font-family="Helvetica,sans-Serif" font-size="10.00" fill="#63b8ff">3</text>
</a>
</g>
</g>
<!-- dir_62d3fde728cbe4bcb49283a4ea9d1f64 -->
<g id="node12" class="node">
<title>dir_62d3fde728cbe4bcb49283a4ea9d1f64</title>
<g id="a_node12"><a xlink:href="dir_62d3fde728cbe4bcb49283a4ea9d1f64.html" target="_top" xlink:title="mario_sign">
<polygon fill="#4ea9ff" stroke="#404040" points="1427.5,-90 1356.5,-90 1356.5,-71 1427.5,-71 1427.5,-90"/>
<text text-anchor="middle" x="1392" y="-78" font-family="Helvetica,sans-Serif" font-size="10.00">mario_sign</text>
</a>
</g>
</g>
<!-- dir_62d3fde728cbe4bcb49283a4ea9d1f64&#45;&gt;dir_b624d86e5671d82a613a73eb9566e66f -->
<g id="edge21" class="edge">
<title>dir_62d3fde728cbe4bcb49283a4ea9d1f64&#45;&gt;dir_b624d86e5671d82a613a73eb9566e66f</title>
<g id="a_edge21"><a xlink:href="dir_000033_000042.html" target="_top">
<path fill="none" stroke="#63b8ff" d="M1372.65,-70.89C1365.1,-67.89 1356.29,-64.82 1348,-63 1180.25,-26.08 973.18,-24.68 892.96,-25.75"/>
<polygon fill="#63b8ff" stroke="#63b8ff" points="892.45,-22.26 882.5,-25.91 892.56,-29.26 892.45,-22.26"/>
</a>
</g>
<g id="a_edge21&#45;headlabel"><a xlink:href="dir_000033_000042.html" target="_top" xlink:title="2">
<text text-anchor="middle" x="896" y="-16.86" font-family="Helvetica,sans-Serif" font-size="10.00" fill="#63b8ff">2</text>
</a>
</g>
</g>
<!-- dir_62d3fde728cbe4bcb49283a4ea9d1f64&#45;&gt;dir_9d35e33a62367a6e44d3f53c24813abf -->
<g id="edge20" class="edge">
<title>dir_62d3fde728cbe4bcb49283a4ea9d1f64&#45;&gt;dir_9d35e33a62367a6e44d3f53c24813abf</title>
<g id="a_edge20"><a xlink:href="dir_000033_000012.html" target="_top">
<path fill="none" stroke="#63b8ff" d="M1411.35,-70.99C1419.16,-67.93 1428.36,-64.79 1437,-63 1647.37,-19.42 1709.27,-64.98 1925.87,-34.86"/>
<polygon fill="#63b8ff" stroke="#63b8ff" points="1926.57,-38.3 1935.97,-33.42 1925.58,-31.37 1926.57,-38.3"/>
</a>
</g>
<g id="a_edge20&#45;headlabel"><a xlink:href="dir_000033_000012.html" target="_top" xlink:title="1">
<text text-anchor="middle" x="1923.41" y="-39.12" font-family="Helvetica,sans-Serif" font-size="10.00" fill="#63b8ff">1</text>
</a>
</g>
</g>
<!-- dir_44e7156490831c070e02a11e532265a8 -->
<g id="node13" class="node">
<title>dir_44e7156490831c070e02a11e532265a8</title>
<g id="a_node13"><a xlink:href="dir_44e7156490831c070e02a11e532265a8.html" target="_top" xlink:title="other_shell">
<polygon fill="#4ea9ff" stroke="#404040" points="707.5,-90 636.5,-90 636.5,-71 707.5,-71 707.5,-90"/>
<text text-anchor="middle" x="672" y="-78" font-family="Helvetica,sans-Serif" font-size="10.00">other_shell</text>
</a>
</g>
</g>
<!-- dir_44e7156490831c070e02a11e532265a8&#45;&gt;dir_b624d86e5671d82a613a73eb9566e66f -->
<g id="edge22" class="edge">
<title>dir_44e7156490831c070e02a11e532265a8&#45;&gt;dir_b624d86e5671d82a613a73eb9566e66f</title>
<g id="a_edge22"><a xlink:href="dir_000037_000042.html" target="_top">
<path fill="none" stroke="#63b8ff" d="M694.28,-70.83C701.48,-68.16 709.53,-65.32 717,-63 753.69,-51.59 796.49,-40.94 825.43,-34.13"/>
<polygon fill="#63b8ff" stroke="#63b8ff" points="826.49,-37.48 835.43,-31.8 824.9,-30.66 826.49,-37.48"/>
</a>
</g>
<g id="a_edge22&#45;headlabel"><a xlink:href="dir_000037_000042.html" target="_top" xlink:title="3">
<text text-anchor="middle" x="823.63" y="-38.56" font-family="Helvetica,sans-Serif" font-size="10.00" fill="#63b8ff">3</text>
</a>
</g>
</g>
<!-- dir_44e7156490831c070e02a11e532265a8&#45;&gt;dir_d44c64559bbebec7f509842c48db8b23 -->
<g id="edge23" class="edge">
<title>dir_44e7156490831c070e02a11e532265a8&#45;&gt;dir_d44c64559bbebec7f509842c48db8b23</title>
<g id="a_edge23"><a xlink:href="dir_000037_000025.html" target="_top">
<path fill="none" stroke="#63b8ff" d="M691.32,-70.84C699.13,-67.76 708.33,-64.65 717,-63 963.86,-16.05 1594.08,-71.66 1855.99,-35.74"/>
<polygon fill="#63b8ff" stroke="#63b8ff" points="1856.51,-39.2 1865.91,-34.31 1855.51,-32.27 1856.51,-39.2"/>
</a>
</g>
<g id="a_edge23&#45;headlabel"><a xlink:href="dir_000037_000025.html" target="_top" xlink:title="3">
<text text-anchor="middle" x="1853.36" y="-40.03" font-family="Helvetica,sans-Serif" font-size="10.00" fill="#63b8ff">3</text>
</a>
</g>
</g>
<!-- dir_8ac8a7c7afcf091d3d7796402f7a1c36 -->
<g id="node14" class="node">
<title>dir_8ac8a7c7afcf091d3d7796402f7a1c36</title>
<g id="a_node14"><a xlink:href="dir_8ac8a7c7afcf091d3d7796402f7a1c36.html" target="_top" xlink:title="paddle_boat">
<polygon fill="#4ea9ff" stroke="#404040" points="1338.5,-90 1261.5,-90 1261.5,-71 1338.5,-71 1338.5,-90"/>
<text text-anchor="middle" x="1300" y="-78" font-family="Helvetica,sans-Serif" font-size="10.00">paddle_boat</text>
</a>
</g>
</g>
<!-- dir_8ac8a7c7afcf091d3d7796402f7a1c36&#45;&gt;dir_b624d86e5671d82a613a73eb9566e66f -->
<g id="edge25" class="edge">
<title>dir_8ac8a7c7afcf091d3d7796402f7a1c36&#45;&gt;dir_b624d86e5671d82a613a73eb9566e66f</title>
<g id="a_edge25"><a xlink:href="dir_000038_000042.html" target="_top">
<path fill="none" stroke="#63b8ff" d="M1278.8,-70.99C1270.56,-68.01 1260.96,-64.93 1252,-63 1121.32,-34.89 961.62,-28.43 892.99,-26.94"/>
<polygon fill="#63b8ff" stroke="#63b8ff" points="892.84,-23.44 882.77,-26.74 892.7,-30.44 892.84,-23.44"/>
</a>
</g>
<g id="a_edge25&#45;headlabel"><a xlink:href="dir_000038_000042.html" target="_top" xlink:title="1">
<text text-anchor="middle" x="896.49" y="-18.17" font-family="Helvetica,sans-Serif" font-size="10.00" fill="#63b8ff">1</text>
</a>
</g>
</g>
<!-- dir_8ac8a7c7afcf091d3d7796402f7a1c36&#45;&gt;dir_d44c64559bbebec7f509842c48db8b23 -->
<g id="edge26" class="edge">
<title>dir_8ac8a7c7afcf091d3d7796402f7a1c36&#45;&gt;dir_d44c64559bbebec7f509842c48db8b23</title>
<g id="a_edge26"><a xlink:href="dir_000038_000025.html" target="_top">
<path fill="none" stroke="#63b8ff" d="M1320.68,-70.99C1329.03,-67.93 1338.83,-64.79 1348,-63 1569.26,-19.81 1634.43,-71.09 1855.92,-35.89"/>
<polygon fill="#63b8ff" stroke="#63b8ff" points="1856.59,-39.33 1865.9,-34.26 1855.47,-32.42 1856.59,-39.33"/>
</a>
</g>
<g id="a_edge26&#45;headlabel"><a xlink:href="dir_000038_000025.html" target="_top" xlink:title="6">
<text text-anchor="middle" x="1853.5" y="-40.21" font-family="Helvetica,sans-Serif" font-size="10.00" fill="#63b8ff">6</text>
</a>
</g>
</g>
<!-- dir_8ac8a7c7afcf091d3d7796402f7a1c36&#45;&gt;dir_9d35e33a62367a6e44d3f53c24813abf -->
<g id="edge24" class="edge">
<title>dir_8ac8a7c7afcf091d3d7796402f7a1c36&#45;&gt;dir_9d35e33a62367a6e44d3f53c24813abf</title>
<g id="a_edge24"><a xlink:href="dir_000038_000012.html" target="_top">
<path fill="none" stroke="#63b8ff" d="M1320.68,-70.96C1329.02,-67.89 1338.83,-64.76 1348,-63 1597.8,-15.03 1670.06,-69.56 1926.01,-34.83"/>
<polygon fill="#63b8ff" stroke="#63b8ff" points="1926.55,-38.29 1935.97,-33.44 1925.59,-31.35 1926.55,-38.29"/>
</a>
</g>
<g id="a_edge24&#45;headlabel"><a xlink:href="dir_000038_000012.html" target="_top" xlink:title="1">
<text text-anchor="middle" x="1923.38" y="-39.09" font-family="Helvetica,sans-Serif" font-size="10.00" fill="#63b8ff">1</text>
</a>
</g>
</g>
<!-- dir_8ec521252289760d8f929d04561ff579 -->
<g id="node15" class="node">
<title>dir_8ec521252289760d8f929d04561ff579</title>
<g id="a_node15"><a xlink:href="dir_8ec521252289760d8f929d04561ff579.html" target="_top" xlink:title="palm_tree">
<polygon fill="#4ea9ff" stroke="#404040" points="1243,-90 1177,-90 1177,-71 1243,-71 1243,-90"/>
<text text-anchor="middle" x="1210" y="-78" font-family="Helvetica,sans-Serif" font-size="10.00">palm_tree</text>
</a>
</g>
</g>
<!-- dir_8ec521252289760d8f929d04561ff579&#45;&gt;dir_b624d86e5671d82a613a73eb9566e66f -->
<g id="edge28" class="edge">
<title>dir_8ec521252289760d8f929d04561ff579&#45;&gt;dir_b624d86e5671d82a613a73eb9566e66f</title>
<g id="a_edge28"><a xlink:href="dir_000039_000042.html" target="_top">
<path fill="none" stroke="#63b8ff" d="M1191.1,-70.88C1183.99,-67.96 1175.75,-64.95 1168,-63 1070.05,-38.41 950.37,-30.27 892.94,-27.67"/>
<polygon fill="#63b8ff" stroke="#63b8ff" points="892.77,-24.16 882.63,-27.23 892.47,-31.15 892.77,-24.16"/>
</a>
</g>
<g id="a_edge28&#45;headlabel"><a xlink:href="dir_000039_000042.html" target="_top" xlink:title="1">
<text text-anchor="middle" x="896.48" y="-18.97" font-family="Helvetica,sans-Serif" font-size="10.00" fill="#63b8ff">1</text>
</a>
</g>
</g>
<!-- dir_8ec521252289760d8f929d04561ff579&#45;&gt;dir_9d35e33a62367a6e44d3f53c24813abf -->
<g id="edge27" class="edge">
<title>dir_8ec521252289760d8f929d04561ff579&#45;&gt;dir_9d35e33a62367a6e44d3f53c24813abf</title>
<g id="a_edge27"><a xlink:href="dir_000039_000012.html" target="_top">
<path fill="none" stroke="#63b8ff" d="M1228.44,-70.91C1235.9,-67.84 1244.7,-64.72 1253,-63 1543.3,-2.96 1628.08,-74.22 1925.75,-34.85"/>
<polygon fill="#63b8ff" stroke="#63b8ff" points="1926.54,-38.27 1935.98,-33.46 1925.6,-31.34 1926.54,-38.27"/>
</a>
</g>
<g id="a_edge27&#45;headlabel"><a xlink:href="dir_000039_000012.html" target="_top" xlink:title="1">
<text text-anchor="middle" x="1923.36" y="-39.07" font-family="Helvetica,sans-Serif" font-size="10.00" fill="#63b8ff">1</text>
</a>
</g>
</g>
<!-- dir_32d41aaa75ce6bc3595f304fa2abdf30 -->
<g id="node16" class="node">
<title>dir_32d41aaa75ce6bc3595f304fa2abdf30</title>
<g id="a_node16"><a xlink:href="dir_32d41aaa75ce6bc3595f304fa2abdf30.html" target="_top" xlink:title="piranha_plant">
<polygon fill="#4ea9ff" stroke="#404040" points="476.5,-90 393.5,-90 393.5,-71 476.5,-71 476.5,-90"/>
<text text-anchor="middle" x="435" y="-78" font-family="Helvetica,sans-Serif" font-size="10.00">piranha_plant</text>
</a>
</g>
</g>
<!-- dir_32d41aaa75ce6bc3595f304fa2abdf30&#45;&gt;dir_b624d86e5671d82a613a73eb9566e66f -->
<g id="edge29" class="edge">
<title>dir_32d41aaa75ce6bc3595f304fa2abdf30&#45;&gt;dir_b624d86e5671d82a613a73eb9566e66f</title>
<g id="a_edge29"><a xlink:href="dir_000040_000042.html" target="_top">
<path fill="none" stroke="#63b8ff" d="M457.82,-70.96C466.53,-68.01 476.62,-64.95 486,-63 609.1,-37.38 758.89,-29.64 824.94,-27.39"/>
<polygon fill="#63b8ff" stroke="#63b8ff" points="825.28,-30.88 835.17,-27.06 825.06,-23.88 825.28,-30.88"/>
</a>
</g>
<g id="a_edge29&#45;headlabel"><a xlink:href="dir_000040_000042.html" target="_top" xlink:title="2">
<text text-anchor="middle" x="821.78" y="-31.33" font-family="Helvetica,sans-Serif" font-size="10.00" fill="#63b8ff">2</text>
</a>
</g>
</g>
<!-- dir_32d41aaa75ce6bc3595f304fa2abdf30&#45;&gt;dir_d44c64559bbebec7f509842c48db8b23 -->
<g id="edge30" class="edge">
<title>dir_32d41aaa75ce6bc3595f304fa2abdf30&#45;&gt;dir_d44c64559bbebec7f509842c48db8b23</title>
<g id="a_edge30"><a xlink:href="dir_000040_000025.html" target="_top">
<path fill="none" stroke="#63b8ff" d="M456.74,-70.92C465.66,-67.8 476.18,-64.65 486,-63 784.37,-12.82 1542.98,-78.72 1855.87,-35.76"/>
<polygon fill="#63b8ff" stroke="#63b8ff" points="1856.51,-39.2 1865.91,-34.32 1855.51,-32.27 1856.51,-39.2"/>
</a>
</g>
<g id="a_edge30&#45;headlabel"><a xlink:href="dir_000040_000025.html" target="_top" xlink:title="1">
<text text-anchor="middle" x="1853.35" y="-40.02" font-family="Helvetica,sans-Serif" font-size="10.00" fill="#63b8ff">1</text>
</a>
</g>
</g>
<!-- dir_182f7da4116ae772b41f20cab799c0f6 -->
<g id="node17" class="node">
<title>dir_182f7da4116ae772b41f20cab799c0f6</title>
<g id="a_node17"><a xlink:href="dir_182f7da4116ae772b41f20cab799c0f6.html" target="_top" xlink:title="railroad_crossing">
<polygon fill="#4ea9ff" stroke="#404040" points="1776,-90 1676,-90 1676,-71 1776,-71 1776,-90"/>
<text text-anchor="middle" x="1726" y="-78" font-family="Helvetica,sans-Serif" font-size="10.00">railroad_crossing</text>
</a>
</g>
</g>
<!-- dir_182f7da4116ae772b41f20cab799c0f6&#45;&gt;dir_b624d86e5671d82a613a73eb9566e66f -->
<g id="edge32" class="edge">
<title>dir_182f7da4116ae772b41f20cab799c0f6&#45;&gt;dir_b624d86e5671d82a613a73eb9566e66f</title>
<g id="a_edge32"><a xlink:href="dir_000043_000042.html" target="_top">
<path fill="none" stroke="#63b8ff" d="M1700.44,-70.98C1690.16,-67.92 1678.13,-64.78 1667,-63 1514.29,-38.52 1026.12,-29.14 892.88,-27"/>
<polygon fill="#63b8ff" stroke="#63b8ff" points="892.9,-23.5 882.85,-26.85 892.79,-30.5 892.9,-23.5"/>
</a>
</g>
<g id="a_edge32&#45;headlabel"><a xlink:href="dir_000043_000042.html" target="_top" xlink:title="2">
<text text-anchor="middle" x="896.54" y="-18.22" font-family="Helvetica,sans-Serif" font-size="10.00" fill="#63b8ff">2</text>
</a>
</g>
</g>
<!-- dir_182f7da4116ae772b41f20cab799c0f6&#45;&gt;dir_d44c64559bbebec7f509842c48db8b23 -->
<g id="edge33" class="edge">
<title>dir_182f7da4116ae772b41f20cab799c0f6&#45;&gt;dir_d44c64559bbebec7f509842c48db8b23</title>
<g id="a_edge33"><a xlink:href="dir_000043_000025.html" target="_top">
<path fill="none" stroke="#63b8ff" d="M1752.67,-70.98C1780.79,-62.01 1825.24,-47.82 1856.35,-37.88"/>
<polygon fill="#63b8ff" stroke="#63b8ff" points="1857.48,-41.2 1865.94,-34.82 1855.35,-34.53 1857.48,-41.2"/>
</a>
</g>
<g id="a_edge33&#45;headlabel"><a xlink:href="dir_000043_000025.html" target="_top" xlink:title="1">
<text text-anchor="middle" x="1854.92" y="-42.49" font-family="Helvetica,sans-Serif" font-size="10.00" fill="#63b8ff">1</text>
</a>
</g>
</g>
<!-- dir_182f7da4116ae772b41f20cab799c0f6&#45;&gt;dir_9d35e33a62367a6e44d3f53c24813abf -->
<g id="edge31" class="edge">
<title>dir_182f7da4116ae772b41f20cab799c0f6&#45;&gt;dir_9d35e33a62367a6e44d3f53c24813abf</title>
<g id="a_edge31"><a xlink:href="dir_000043_000012.html" target="_top">
<path fill="none" stroke="#63b8ff" d="M1755.49,-70.93C1765.17,-68.24 1776.01,-65.36 1786,-63 1845.14,-49.02 1862.86,-48.57 1925.83,-35.18"/>
<polygon fill="#63b8ff" stroke="#63b8ff" points="1926.86,-38.54 1935.9,-33.01 1925.38,-31.69 1926.86,-38.54"/>
</a>
</g>
<g id="a_edge31&#45;headlabel"><a xlink:href="dir_000043_000012.html" target="_top" xlink:title="1">
<text text-anchor="middle" x="1923.94" y="-39.57" font-family="Helvetica,sans-Serif" font-size="10.00" fill="#63b8ff">1</text>
</a>
</g>
</g>
<!-- dir_853fb299c43268179db801ba4361d6eb -->
<g id="node18" class="node">
<title>dir_853fb299c43268179db801ba4361d6eb</title>
<g id="a_node18"><a xlink:href="dir_853fb299c43268179db801ba4361d6eb.html" target="_top" xlink:title="school_bus">
<polygon fill="#4ea9ff" stroke="#404040" points="1158.5,-90 1087.5,-90 1087.5,-71 1158.5,-71 1158.5,-90"/>
<text text-anchor="middle" x="1123" y="-78" font-family="Helvetica,sans-Serif" font-size="10.00">school_bus</text>
</a>
</g>
</g>
<!-- dir_853fb299c43268179db801ba4361d6eb&#45;&gt;dir_b624d86e5671d82a613a73eb9566e66f -->
<g id="edge34" class="edge">
<title>dir_853fb299c43268179db801ba4361d6eb&#45;&gt;dir_b624d86e5671d82a613a73eb9566e66f</title>
<g id="a_edge34"><a xlink:href="dir_000046_000042.html" target="_top">
<path fill="none" stroke="#63b8ff" d="M1102.68,-70.94C1095.32,-68.09 1086.88,-65.11 1079,-63 1014.22,-45.66 936.38,-35.07 892.81,-30.04"/>
<polygon fill="#63b8ff" stroke="#63b8ff" points="893.09,-26.55 882.76,-28.91 892.31,-33.51 893.09,-26.55"/>
</a>
</g>
<g id="a_edge34&#45;headlabel"><a xlink:href="dir_000046_000042.html" target="_top" xlink:title="1">
<text text-anchor="middle" x="896.98" y="-21.63" font-family="Helvetica,sans-Serif" font-size="10.00" fill="#63b8ff">1</text>
</a>
</g>
</g>
<!-- dir_853fb299c43268179db801ba4361d6eb&#45;&gt;dir_d44c64559bbebec7f509842c48db8b23 -->
<g id="edge35" class="edge">
<title>dir_853fb299c43268179db801ba4361d6eb&#45;&gt;dir_d44c64559bbebec7f509842c48db8b23</title>
<g id="a_edge35"><a xlink:href="dir_000046_000025.html" target="_top">
<path fill="none" stroke="#63b8ff" d="M1142.33,-70.91C1150.15,-67.84 1159.35,-64.72 1168,-63 1467.39,-3.59 1555.19,-81.84 1855.58,-35.9"/>
<polygon fill="#63b8ff" stroke="#63b8ff" points="1856.56,-39.29 1865.9,-34.29 1855.48,-32.37 1856.56,-39.29"/>
</a>
</g>
<g id="a_edge35&#45;headlabel"><a xlink:href="dir_000046_000025.html" target="_top" xlink:title="2">
<text text-anchor="middle" x="1853.45" y="-40.15" font-family="Helvetica,sans-Serif" font-size="10.00" fill="#63b8ff">2</text>
</a>
</g>
</g>
<!-- dir_84e86b557c5631751b2666df9df09cb8 -->
<g id="node19" class="node">
<title>dir_84e86b557c5631751b2666df9df09cb8</title>
<g id="a_node19"><a xlink:href="dir_84e86b557c5631751b2666df9df09cb8.html" target="_top" xlink:title="tanker_truck">
<polygon fill="#4ea9ff" stroke="#404040" points="802.5,-90 725.5,-90 725.5,-71 802.5,-71 802.5,-90"/>
<text text-anchor="middle" x="764" y="-78" font-family="Helvetica,sans-Serif" font-size="10.00">tanker_truck</text>
</a>
</g>
</g>
<!-- dir_84e86b557c5631751b2666df9df09cb8&#45;&gt;dir_b624d86e5671d82a613a73eb9566e66f -->
<g id="edge36" class="edge">
<title>dir_84e86b557c5631751b2666df9df09cb8&#45;&gt;dir_b624d86e5671d82a613a73eb9566e66f</title>
<g id="a_edge36"><a xlink:href="dir_000050_000042.html" target="_top">
<path fill="none" stroke="#63b8ff" d="M779.26,-70.98C794.13,-62.69 816.98,-49.94 834.42,-40.22"/>
<polygon fill="#63b8ff" stroke="#63b8ff" points="836.43,-43.1 843.46,-35.17 833.02,-36.99 836.43,-43.1"/>
</a>
</g>
<g id="a_edge36&#45;headlabel"><a xlink:href="dir_000050_000042.html" target="_top" xlink:title="1">
<text text-anchor="middle" x="834.68" y="-44.83" font-family="Helvetica,sans-Serif" font-size="10.00" fill="#63b8ff">1</text>
</a>
</g>
</g>
<!-- dir_84e86b557c5631751b2666df9df09cb8&#45;&gt;dir_d44c64559bbebec7f509842c48db8b23 -->
<g id="edge37" class="edge">
<title>dir_84e86b557c5631751b2666df9df09cb8&#45;&gt;dir_d44c64559bbebec7f509842c48db8b23</title>
<g id="a_edge37"><a xlink:href="dir_000050_000025.html" target="_top">
<path fill="none" stroke="#63b8ff" d="M784.66,-70.86C793,-67.78 802.81,-64.66 812,-63 1038.44,-22.06 1614.63,-68.84 1855.73,-35.78"/>
<polygon fill="#63b8ff" stroke="#63b8ff" points="1856.51,-39.2 1865.91,-34.31 1855.51,-32.28 1856.51,-39.2"/>
</a>
</g>
<g id="a_edge37&#45;headlabel"><a xlink:href="dir_000050_000025.html" target="_top" xlink:title="1">
<text text-anchor="middle" x="1853.36" y="-40.03" font-family="Helvetica,sans-Serif" font-size="10.00" fill="#63b8ff">1</text>
</a>
</g>
</g>
<!-- dir_517c47473db548defbc7dba6faac8c5d -->
<g id="node20" class="node">
<title>dir_517c47473db548defbc7dba6faac8c5d</title>
<g id="a_node20"><a xlink:href="dir_517c47473db548defbc7dba6faac8c5d.html" target="_top" xlink:title="train">
<polygon fill="#4ea9ff" stroke="#404040" points="618.5,-90 579.5,-90 579.5,-71 618.5,-71 618.5,-90"/>
<text text-anchor="middle" x="599" y="-78" font-family="Helvetica,sans-Serif" font-size="10.00">train</text>
</a>
</g>
</g>
<!-- dir_517c47473db548defbc7dba6faac8c5d&#45;&gt;dir_b624d86e5671d82a613a73eb9566e66f -->
<g id="edge38" class="edge">
<title>dir_517c47473db548defbc7dba6faac8c5d&#45;&gt;dir_b624d86e5671d82a613a73eb9566e66f</title>
<g id="a_edge38"><a xlink:href="dir_000053_000042.html" target="_top">
<path fill="none" stroke="#63b8ff" d="M611.8,-70.89C616.69,-67.97 622.42,-64.95 628,-63 695.4,-39.39 779.24,-30.99 825.1,-28.05"/>
<polygon fill="#63b8ff" stroke="#63b8ff" points="825.6,-31.53 835.37,-27.44 825.18,-24.54 825.6,-31.53"/>
</a>
</g>
<g id="a_edge38&#45;headlabel"><a xlink:href="dir_000053_000042.html" target="_top" xlink:title="2">
<text text-anchor="middle" x="822.18" y="-32.07" font-family="Helvetica,sans-Serif" font-size="10.00" fill="#63b8ff">2</text>
</a>
</g>
</g>
<!-- dir_517c47473db548defbc7dba6faac8c5d&#45;&gt;dir_d44c64559bbebec7f509842c48db8b23 -->
<g id="edge39" class="edge">
<title>dir_517c47473db548defbc7dba6faac8c5d&#45;&gt;dir_d44c64559bbebec7f509842c48db8b23</title>
<g id="a_edge39"><a xlink:href="dir_000053_000025.html" target="_top">
<path fill="none" stroke="#63b8ff" d="M611.11,-70.83C616.09,-67.75 622.08,-64.64 628,-63 757.34,-27.21 1685.25,-54.2 1855.79,-35.61"/>
<polygon fill="#63b8ff" stroke="#63b8ff" points="1856.43,-39.05 1865.91,-34.31 1855.54,-32.11 1856.43,-39.05"/>
</a>
</g>
<g id="a_edge39&#45;headlabel"><a xlink:href="dir_000053_000025.html" target="_top" xlink:title="1">
<text text-anchor="middle" x="1853.22" y="-39.82" font-family="Helvetica,sans-Serif" font-size="10.00" fill="#63b8ff">1</text>
</a>
</g>
</g>
<!-- dir_67c598d34ecbc289289186654533bdd4 -->
<g id="node21" class="node">
<title>dir_67c598d34ecbc289289186654533bdd4</title>
<g id="a_node21"><a xlink:href="dir_67c598d34ecbc289289186654533bdd4.html" target="_top" xlink:title="tree">
<polygon fill="#4ea9ff" stroke="#404040" points="1658,-90 1622,-90 1622,-71 1658,-71 1658,-90"/>
<text text-anchor="middle" x="1640" y="-78" font-family="Helvetica,sans-Serif" font-size="10.00">tree</text>
</a>
</g>
</g>
<!-- dir_67c598d34ecbc289289186654533bdd4&#45;&gt;dir_b624d86e5671d82a613a73eb9566e66f -->
<g id="edge41" class="edge">
<title>dir_67c598d34ecbc289289186654533bdd4&#45;&gt;dir_b624d86e5671d82a613a73eb9566e66f</title>
<g id="a_edge41"><a xlink:href="dir_000054_000042.html" target="_top">
<path fill="none" stroke="#63b8ff" d="M1628.79,-70.91C1624.15,-67.84 1618.57,-64.71 1613,-63 1543.71,-41.68 1030.96,-29.95 893.06,-27.16"/>
<polygon fill="#63b8ff" stroke="#63b8ff" points="892.77,-23.65 882.7,-26.95 892.63,-30.65 892.77,-23.65"/>
</a>
</g>
<g id="a_edge41&#45;headlabel"><a xlink:href="dir_000054_000042.html" target="_top" xlink:title="1">
<text text-anchor="middle" x="896.42" y="-18.38" font-family="Helvetica,sans-Serif" font-size="10.00" fill="#63b8ff">1</text>
</a>
</g>
</g>
<!-- dir_67c598d34ecbc289289186654533bdd4&#45;&gt;dir_d44c64559bbebec7f509842c48db8b23 -->
<g id="edge42" class="edge">
<title>dir_67c598d34ecbc289289186654533bdd4&#45;&gt;dir_d44c64559bbebec7f509842c48db8b23</title>
<g id="a_edge42"><a xlink:href="dir_000054_000025.html" target="_top">
<path fill="none" stroke="#63b8ff" d="M1651.83,-70.83C1656.37,-67.9 1661.73,-64.9 1667,-63 1746.16,-34.5 1774.16,-51.72 1855.66,-36.19"/>
<polygon fill="#63b8ff" stroke="#63b8ff" points="1856.76,-39.53 1865.87,-34.12 1855.38,-32.67 1856.76,-39.53"/>
</a>
</g>
<g id="a_edge42&#45;headlabel"><a xlink:href="dir_000054_000025.html" target="_top" xlink:title="1">
<text text-anchor="middle" x="1853.8" y="-40.53" font-family="Helvetica,sans-Serif" font-size="10.00" fill="#63b8ff">1</text>
</a>
</g>
</g>
<!-- dir_67c598d34ecbc289289186654533bdd4&#45;&gt;dir_9d35e33a62367a6e44d3f53c24813abf -->
<g id="edge40" class="edge">
<title>dir_67c598d34ecbc289289186654533bdd4&#45;&gt;dir_9d35e33a62367a6e44d3f53c24813abf</title>
<g id="a_edge40"><a xlink:href="dir_000054_000012.html" target="_top">
<path fill="none" stroke="#63b8ff" d="M1651.53,-70.9C1656.12,-67.91 1661.59,-64.84 1667,-63 1774.02,-26.59 1810.45,-53.08 1926.01,-34.91"/>
<polygon fill="#63b8ff" stroke="#63b8ff" points="1926.65,-38.35 1935.95,-33.27 1925.51,-31.44 1926.65,-38.35"/>
</a>
</g>
<g id="a_edge40&#45;headlabel"><a xlink:href="dir_000054_000012.html" target="_top" xlink:title="1">
<text text-anchor="middle" x="1923.57" y="-39.24" font-family="Helvetica,sans-Serif" font-size="10.00" fill="#63b8ff">1</text>
</a>
</g>
</g>
<!-- dir_565e0f503a63db633f15051bd0fb9ed2 -->
<g id="node22" class="node">
<title>dir_565e0f503a63db633f15051bd0fb9ed2</title>
<g id="a_node22"><a xlink:href="dir_565e0f503a63db633f15051bd0fb9ed2.html" target="_top" xlink:title="wario_sign">
<polygon fill="#4ea9ff" stroke="#404040" points="304.5,-90 235.5,-90 235.5,-71 304.5,-71 304.5,-90"/>
<text text-anchor="middle" x="270" y="-78" font-family="Helvetica,sans-Serif" font-size="10.00">wario_sign</text>
</a>
</g>
</g>
<!-- dir_565e0f503a63db633f15051bd0fb9ed2&#45;&gt;dir_b624d86e5671d82a613a73eb9566e66f -->
<g id="edge43" class="edge">
<title>dir_565e0f503a63db633f15051bd0fb9ed2&#45;&gt;dir_b624d86e5671d82a613a73eb9566e66f</title>
<g id="a_edge43"><a xlink:href="dir_000056_000042.html" target="_top">
<path fill="none" stroke="#63b8ff" d="M288.89,-70.85C296.26,-67.85 304.88,-64.79 313,-63 411.46,-41.34 721.95,-30.51 825.22,-27.44"/>
<polygon fill="#63b8ff" stroke="#63b8ff" points="825.5,-30.93 835.39,-27.14 825.29,-23.93 825.5,-30.93"/>
</a>
</g>
<g id="a_edge43&#45;headlabel"><a xlink:href="dir_000056_000042.html" target="_top" xlink:title="2">
<text text-anchor="middle" x="821.99" y="-31.37" font-family="Helvetica,sans-Serif" font-size="10.00" fill="#63b8ff">2</text>
</a>
</g>
</g>
<!-- dir_565e0f503a63db633f15051bd0fb9ed2&#45;&gt;dir_d44c64559bbebec7f509842c48db8b23 -->
<g id="edge44" class="edge">
<title>dir_565e0f503a63db633f15051bd0fb9ed2&#45;&gt;dir_d44c64559bbebec7f509842c48db8b23</title>
<g id="a_edge44"><a xlink:href="dir_000056_000025.html" target="_top">
<path fill="none" stroke="#63b8ff" d="M288,-70.99C295.55,-67.84 304.52,-64.65 313,-63 647.72,2.15 1504.91,-83.79 1855.93,-35.74"/>
<polygon fill="#63b8ff" stroke="#63b8ff" points="1856.5,-39.2 1865.91,-34.32 1855.51,-32.27 1856.5,-39.2"/>
</a>
</g>
<g id="a_edge44&#45;headlabel"><a xlink:href="dir_000056_000025.html" target="_top" xlink:title="1">
<text text-anchor="middle" x="1853.34" y="-40.02" font-family="Helvetica,sans-Serif" font-size="10.00" fill="#63b8ff">1</text>
</a>
</g>
</g>
<!-- dir_d4d27fd96eedf0d64845ece7e3d1747c -->
<g id="node23" class="node">
<title>dir_d4d27fd96eedf0d64845ece7e3d1747c</title>
<g id="a_node23"><a xlink:href="dir_d4d27fd96eedf0d64845ece7e3d1747c.html" target="_top" xlink:title="yoshi_egg">
<polygon fill="#4ea9ff" stroke="#404040" points="561,-90 495,-90 495,-71 561,-71 561,-90"/>
<text text-anchor="middle" x="528" y="-78" font-family="Helvetica,sans-Serif" font-size="10.00">yoshi_egg</text>
</a>
</g>
</g>
<!-- dir_d4d27fd96eedf0d64845ece7e3d1747c&#45;&gt;dir_b624d86e5671d82a613a73eb9566e66f -->
<g id="edge45" class="edge">
<title>dir_d4d27fd96eedf0d64845ece7e3d1747c&#45;&gt;dir_b624d86e5671d82a613a73eb9566e66f</title>
<g id="a_edge45"><a xlink:href="dir_000058_000042.html" target="_top">
<path fill="none" stroke="#63b8ff" d="M547.37,-70.93C554.66,-68.01 563.09,-64.99 571,-63 661.05,-40.37 770.63,-31.41 825.01,-28.16"/>
<polygon fill="#63b8ff" stroke="#63b8ff" points="825.34,-31.65 835.12,-27.59 824.94,-24.66 825.34,-31.65"/>
</a>
</g>
<g id="a_edge45&#45;headlabel"><a xlink:href="dir_000058_000042.html" target="_top" xlink:title="2">
<text text-anchor="middle" x="821.91" y="-32.19" font-family="Helvetica,sans-Serif" font-size="10.00" fill="#63b8ff">2</text>
</a>
</g>
</g>
<!-- dir_d4d27fd96eedf0d64845ece7e3d1747c&#45;&gt;dir_d44c64559bbebec7f509842c48db8b23 -->
<g id="edge46" class="edge">
<title>dir_d4d27fd96eedf0d64845ece7e3d1747c&#45;&gt;dir_d44c64559bbebec7f509842c48db8b23</title>
<g id="a_edge46"><a xlink:href="dir_000058_000025.html" target="_top">
<path fill="none" stroke="#63b8ff" d="M546.42,-70.83C553.88,-67.74 562.68,-64.63 571,-63 849.27,-8.32 1561.27,-75.95 1855.61,-35.79"/>
<polygon fill="#63b8ff" stroke="#63b8ff" points="1856.5,-39.2 1865.91,-34.32 1855.51,-32.27 1856.5,-39.2"/>
</a>
</g>
<g id="a_edge46&#45;headlabel"><a xlink:href="dir_000058_000025.html" target="_top" xlink:title="1">
<text text-anchor="middle" x="1853.35" y="-40.02" font-family="Helvetica,sans-Serif" font-size="10.00" fill="#63b8ff">1</text>
</a>
</g>
</g>
</g>
</svg>
