<?xml version="1.0" encoding="UTF-8" standalone="no"?>
<!DOCTYPE svg PUBLIC "-//W3C//DTD SVG 1.1//EN"
 "http://www.w3.org/Graphics/SVG/1.1/DTD/svg11.dtd">
<!-- Generated by graphviz version 2.43.0 (0)
 -->
<!-- Title: apply_hit_sound_effect Pages: 1 -->
<svg width="1913pt" height="219pt"
 viewBox="0.00 0.00 1913.00 218.50" xmlns="http://www.w3.org/2000/svg" xmlns:xlink="http://www.w3.org/1999/xlink">
<g id="graph0" class="graph" transform="scale(1 1) rotate(0) translate(4 214.5)">
<title>apply_hit_sound_effect</title>
<!-- Node1 -->
<g id="Node000001" class="node">
<title>Node1</title>
<g id="a_Node000001"><a xlink:title=" ">
<polygon fill="#999999" stroke="#666666" points="1905,-80.5 1776,-80.5 1776,-61.5 1905,-61.5 1905,-80.5"/>
<text text-anchor="middle" x="1840.5" y="-68.5" font-family="Helvetica,sans-Serif" font-size="10.00">apply_hit_sound_effect</text>
</a>
</g>
</g>
<!-- Node2 -->
<g id="Node000002" class="node">
<title>Node2</title>
<g id="a_Node000002"><a xlink:href="effects_8c.html#afcd934606edb08e59bff1545a7e447f7" target="_top" xlink:title=" ">
<polygon fill="white" stroke="#666666" points="1740,-136.5 1615,-136.5 1615,-117.5 1740,-117.5 1740,-136.5"/>
<text text-anchor="middle" x="1677.5" y="-124.5" font-family="Helvetica,sans-Serif" font-size="10.00">apply_lightning_effect</text>
</a>
</g>
</g>
<!-- Node1&#45;&gt;Node2 -->
<g id="edge1_Node000001_Node000002" class="edge">
<title>Node1&#45;&gt;Node2</title>
<g id="a_edge1_Node000001_Node000002"><a xlink:title=" ">
<path fill="none" stroke="#63b8ff" d="M1806.45,-84.38C1787.2,-91.99 1762.38,-101.46 1740,-109 1731.25,-111.95 1721.71,-114.87 1712.81,-117.49"/>
<polygon fill="#63b8ff" stroke="#63b8ff" points="1807.97,-87.55 1815.97,-80.6 1805.38,-81.04 1807.97,-87.55"/>
</a>
</g>
</g>
<!-- Node27 -->
<g id="Node000027" class="node">
<title>Node27</title>
<g id="a_Node000027"><a xlink:href="player__controller_8c.html#aaec6b5c8b1638cd94b024a5697252c28" target="_top" xlink:title=" ">
<polygon fill="white" stroke="#666666" points="1733,-99.5 1622,-99.5 1622,-80.5 1733,-80.5 1733,-99.5"/>
<text text-anchor="middle" x="1677.5" y="-87.5" font-family="Helvetica,sans-Serif" font-size="10.00">apply_sound_effect</text>
</a>
</g>
</g>
<!-- Node1&#45;&gt;Node27 -->
<g id="edge38_Node000001_Node000027" class="edge">
<title>Node1&#45;&gt;Node27</title>
<g id="a_edge38_Node000001_Node000027"><a xlink:title=" ">
<path fill="none" stroke="#63b8ff" d="M1765.82,-79.69C1754.8,-81 1743.62,-82.32 1733.09,-83.56"/>
<polygon fill="#63b8ff" stroke="#63b8ff" points="1766.35,-83.16 1775.87,-78.51 1765.53,-76.21 1766.35,-83.16"/>
</a>
</g>
</g>
<!-- Node29 -->
<g id="Node000029" class="node">
<title>Node29</title>
<g id="a_Node000029"><a xlink:href="actors_8c.html#ab378348cf5cc8d36da064f81611f90e3" target="_top" xlink:title=" ">
<polygon fill="white" stroke="#666666" points="1733.5,-23.5 1621.5,-23.5 1621.5,-4.5 1733.5,-4.5 1733.5,-23.5"/>
<text text-anchor="middle" x="1677.5" y="-11.5" font-family="Helvetica,sans-Serif" font-size="10.00">collision_yoshi_egg</text>
</a>
</g>
</g>
<!-- Node1&#45;&gt;Node29 -->
<g id="edge44_Node000001_Node000029" class="edge">
<title>Node1&#45;&gt;Node29</title>
<g id="a_edge44_Node000001_Node000029"><a xlink:title=" ">
<path fill="none" stroke="#63b8ff" d="M1802.98,-58.07C1773.36,-47.58 1732.27,-33.04 1705.54,-23.57"/>
<polygon fill="#63b8ff" stroke="#63b8ff" points="1801.96,-61.42 1812.55,-61.46 1804.29,-54.82 1801.96,-61.42"/>
</a>
</g>
</g>
<!-- Node30 -->
<g id="Node000030" class="node">
<title>Node30</title>
<g id="a_Node000030"><a xlink:href="actors_8c.html#a074bb86cc794d40a8b569035fcb5bbe9" target="_top" xlink:title=" ">
<polygon fill="white" stroke="#666666" points="1579,-30 1449,-30 1449,0 1579,0 1579,-30"/>
<text text-anchor="start" x="1457" y="-18" font-family="Helvetica,sans-Serif" font-size="10.00">evaluate_collision</text>
<text text-anchor="middle" x="1514" y="-7" font-family="Helvetica,sans-Serif" font-size="10.00">_between_player_actor</text>
</a>
</g>
</g>
<!-- Node1&#45;&gt;Node30 -->
<g id="edge48_Node000001_Node000030" class="edge">
<title>Node1&#45;&gt;Node30</title>
<g id="a_edge48_Node000001_Node000030"><a xlink:title=" ">
<path fill="none" stroke="#63b8ff" d="M1774.13,-59.72C1717.33,-49.92 1635.53,-35.8 1579.1,-26.06"/>
<polygon fill="#63b8ff" stroke="#63b8ff" points="1773.64,-63.19 1784.09,-61.44 1774.83,-56.29 1773.64,-63.19"/>
</a>
</g>
</g>
<!-- Node3 -->
<g id="Node000003" class="node">
<title>Node3</title>
<g id="a_Node000003"><a xlink:href="player__controller_8c.html#a3e56dd5a3a59a001b19bcf27621b824b" target="_top" xlink:title=" ">
<polygon fill="white" stroke="#666666" points="1552.5,-136.5 1475.5,-136.5 1475.5,-117.5 1552.5,-117.5 1552.5,-136.5"/>
<text text-anchor="middle" x="1514" y="-124.5" font-family="Helvetica,sans-Serif" font-size="10.00">apply_effect</text>
</a>
</g>
</g>
<!-- Node2&#45;&gt;Node3 -->
<g id="edge2_Node000002_Node000003" class="edge">
<title>Node2&#45;&gt;Node3</title>
<g id="a_edge2_Node000002_Node000003"><a xlink:title=" ">
<path fill="none" stroke="#63b8ff" d="M1604.6,-127C1586.8,-127 1568.42,-127 1552.97,-127"/>
<polygon fill="#63b8ff" stroke="#63b8ff" points="1604.98,-130.5 1614.98,-127 1604.98,-123.5 1604.98,-130.5"/>
</a>
</g>
</g>
<!-- Node4 -->
<g id="Node000004" class="node">
<title>Node4</title>
<g id="a_Node000004"><a xlink:href="player__controller_8c.html#a8e6865020b9110bd4dc3353cb7ef0a00" target="_top" xlink:title=" ">
<polygon fill="white" stroke="#666666" points="1413,-62.5 1282,-62.5 1282,-43.5 1413,-43.5 1413,-62.5"/>
<text text-anchor="middle" x="1347.5" y="-50.5" font-family="Helvetica,sans-Serif" font-size="10.00">control_cpu_movement</text>
</a>
</g>
</g>
<!-- Node3&#45;&gt;Node4 -->
<g id="edge3_Node000003_Node000004" class="edge">
<title>Node3&#45;&gt;Node4</title>
<g id="a_edge3_Node000003_Node000004"><a xlink:title=" ">
<path fill="none" stroke="#63b8ff" d="M1465.64,-116.76C1459.84,-114.62 1454.15,-112.06 1449,-109 1429.28,-97.27 1432.65,-83.85 1413,-72 1406.6,-68.14 1399.37,-65.02 1392.13,-62.52"/>
<polygon fill="#63b8ff" stroke="#63b8ff" points="1464.84,-120.18 1475.43,-119.97 1467.02,-113.53 1464.84,-120.18"/>
</a>
</g>
</g>
<!-- Node17 -->
<g id="Node000017" class="node">
<title>Node17</title>
<g id="a_Node000017"><a xlink:href="player__controller_8c.html#aafe8b94ccd61104120a9bf0ee954a901" target="_top" xlink:title=" ">
<polygon fill="white" stroke="#666666" points="1393.5,-136.5 1301.5,-136.5 1301.5,-117.5 1393.5,-117.5 1393.5,-136.5"/>
<text text-anchor="middle" x="1347.5" y="-124.5" font-family="Helvetica,sans-Serif" font-size="10.00">func_8002D268</text>
</a>
</g>
</g>
<!-- Node3&#45;&gt;Node17 -->
<g id="edge19_Node000003_Node000017" class="edge">
<title>Node3&#45;&gt;Node17</title>
<g id="a_edge19_Node000003_Node000017"><a xlink:title=" ">
<path fill="none" stroke="#63b8ff" d="M1465.22,-127C1442.67,-127 1415.88,-127 1393.67,-127"/>
<polygon fill="#63b8ff" stroke="#63b8ff" points="1465.26,-130.5 1475.26,-127 1465.26,-123.5 1465.26,-130.5"/>
</a>
</g>
</g>
<!-- Node25 -->
<g id="Node000025" class="node">
<title>Node25</title>
<g id="a_Node000025"><a xlink:href="player__controller_8c.html#a5bc20a94d467b8daf131fe16ab6a83d7" target="_top" xlink:title=" ">
<polygon fill="white" stroke="#666666" points="1393,-99.5 1302,-99.5 1302,-80.5 1393,-80.5 1393,-99.5"/>
<text text-anchor="middle" x="1347.5" y="-87.5" font-family="Helvetica,sans-Serif" font-size="10.00">func_8002E594</text>
</a>
</g>
</g>
<!-- Node3&#45;&gt;Node25 -->
<g id="edge32_Node000003_Node000025" class="edge">
<title>Node3&#45;&gt;Node25</title>
<g id="a_edge32_Node000003_Node000025"><a xlink:title=" ">
<path fill="none" stroke="#63b8ff" d="M1465.49,-116.31C1441.96,-111.02 1413.79,-104.69 1390.99,-99.56"/>
<polygon fill="#63b8ff" stroke="#63b8ff" points="1464.74,-119.73 1475.26,-118.51 1466.27,-112.9 1464.74,-119.73"/>
</a>
</g>
</g>
<!-- Node26 -->
<g id="Node000026" class="node">
<title>Node26</title>
<g id="a_Node000026"><a xlink:href="player__controller_8c.html#a105e6b6fca9198633b8990b0da71cd25" target="_top" xlink:title=" ">
<polygon fill="white" stroke="#666666" points="1393.5,-173.5 1301.5,-173.5 1301.5,-154.5 1393.5,-154.5 1393.5,-173.5"/>
<text text-anchor="middle" x="1347.5" y="-161.5" font-family="Helvetica,sans-Serif" font-size="10.00">func_80038C6C</text>
</a>
</g>
</g>
<!-- Node3&#45;&gt;Node26 -->
<g id="edge36_Node000003_Node000026" class="edge">
<title>Node3&#45;&gt;Node26</title>
<g id="a_edge36_Node000003_Node000026"><a xlink:title=" ">
<path fill="none" stroke="#63b8ff" d="M1465.49,-137.69C1441.96,-142.98 1413.79,-149.31 1390.99,-154.44"/>
<polygon fill="#63b8ff" stroke="#63b8ff" points="1466.27,-141.1 1475.26,-135.49 1464.74,-134.27 1466.27,-141.1"/>
</a>
</g>
</g>
<!-- Node5 -->
<g id="Node000005" class="node">
<title>Node5</title>
<g id="a_Node000005"><a xlink:href="player__controller_8c.html#a9f21890266acabb27e962652c5ef4cfc" target="_top" xlink:title=" ">
<polygon fill="white" stroke="#666666" points="1245,-62.5 1154,-62.5 1154,-43.5 1245,-43.5 1245,-62.5"/>
<text text-anchor="middle" x="1199.5" y="-50.5" font-family="Helvetica,sans-Serif" font-size="10.00">func_80028864</text>
</a>
</g>
</g>
<!-- Node4&#45;&gt;Node5 -->
<g id="edge4_Node000004_Node000005" class="edge">
<title>Node4&#45;&gt;Node5</title>
<g id="a_edge4_Node000004_Node000005"><a xlink:title=" ">
<path fill="none" stroke="#63b8ff" d="M1271.45,-53C1262.44,-53 1253.47,-53 1245.09,-53"/>
<polygon fill="#63b8ff" stroke="#63b8ff" points="1271.61,-56.5 1281.61,-53 1271.61,-49.5 1271.61,-56.5"/>
</a>
</g>
</g>
<!-- Node6 -->
<g id="Node000006" class="node">
<title>Node6</title>
<g id="a_Node000006"><a xlink:href="player__controller_8c.html#af9d8e2fa807dab2737045c3c2517a46e" target="_top" xlink:title=" ">
<polygon fill="white" stroke="#666666" points="1097,-99.5 1006,-99.5 1006,-80.5 1097,-80.5 1097,-99.5"/>
<text text-anchor="middle" x="1051.5" y="-87.5" font-family="Helvetica,sans-Serif" font-size="10.00">func_80028E70</text>
</a>
</g>
</g>
<!-- Node5&#45;&gt;Node6 -->
<g id="edge5_Node000005_Node000006" class="edge">
<title>Node5&#45;&gt;Node6</title>
<g id="a_edge5_Node000005_Node000006"><a xlink:title=" ">
<path fill="none" stroke="#63b8ff" d="M1151.17,-64.99C1131.43,-70 1108.82,-75.73 1090.22,-80.44"/>
<polygon fill="#63b8ff" stroke="#63b8ff" points="1152.07,-68.38 1160.9,-62.53 1150.35,-61.59 1152.07,-68.38"/>
</a>
</g>
</g>
<!-- Node7 -->
<g id="Node000007" class="node">
<title>Node7</title>
<g id="a_Node000007"><a xlink:href="player__controller_8c.html#a60b22a77aa4cf0b2be0942a3e115a1eb" target="_top" xlink:title=" ">
<polygon fill="white" stroke="#666666" points="925.5,-136.5 834.5,-136.5 834.5,-117.5 925.5,-117.5 925.5,-136.5"/>
<text text-anchor="middle" x="880" y="-124.5" font-family="Helvetica,sans-Serif" font-size="10.00">func_80028F70</text>
</a>
</g>
</g>
<!-- Node6&#45;&gt;Node7 -->
<g id="edge6_Node000006_Node000007" class="edge">
<title>Node6&#45;&gt;Node7</title>
<g id="a_edge6_Node000006_Node000007"><a xlink:title=" ">
<path fill="none" stroke="#63b8ff" d="M996.81,-101.72C973.6,-106.79 946.78,-112.64 924.8,-117.44"/>
<polygon fill="#63b8ff" stroke="#63b8ff" points="997.83,-105.08 1006.85,-99.53 996.33,-98.24 997.83,-105.08"/>
</a>
</g>
</g>
<!-- Node15 -->
<g id="Node000015" class="node">
<title>Node15</title>
<g id="a_Node000015"><a xlink:href="player__controller_8c.html#ac7bf3fa7a7efacb6f6bad44477c2c7ed" target="_top" xlink:title=" ">
<polygon fill="white" stroke="#666666" points="925.5,-99.5 834.5,-99.5 834.5,-80.5 925.5,-80.5 925.5,-99.5"/>
<text text-anchor="middle" x="880" y="-87.5" font-family="Helvetica,sans-Serif" font-size="10.00">func_80029060</text>
</a>
</g>
</g>
<!-- Node6&#45;&gt;Node15 -->
<g id="edge15_Node000006_Node000015" class="edge">
<title>Node6&#45;&gt;Node15</title>
<g id="a_edge15_Node000006_Node000015"><a xlink:title=" ">
<path fill="none" stroke="#63b8ff" d="M995.79,-90C973.07,-90 947.05,-90 925.53,-90"/>
<polygon fill="#63b8ff" stroke="#63b8ff" points="995.97,-93.5 1005.97,-90 995.97,-86.5 995.97,-93.5"/>
</a>
</g>
</g>
<!-- Node16 -->
<g id="Node000016" class="node">
<title>Node16</title>
<g id="a_Node000016"><a xlink:href="player__controller_8c.html#a31f653813b5697d0af1bb9c16cdc4c76" target="_top" xlink:title=" ">
<polygon fill="white" stroke="#666666" points="925.5,-62.5 834.5,-62.5 834.5,-43.5 925.5,-43.5 925.5,-62.5"/>
<text text-anchor="middle" x="880" y="-50.5" font-family="Helvetica,sans-Serif" font-size="10.00">func_80029158</text>
</a>
</g>
</g>
<!-- Node6&#45;&gt;Node16 -->
<g id="edge17_Node000006_Node000016" class="edge">
<title>Node6&#45;&gt;Node16</title>
<g id="a_edge17_Node000006_Node000016"><a xlink:title=" ">
<path fill="none" stroke="#63b8ff" d="M996.81,-78.28C973.6,-73.21 946.78,-67.36 924.8,-62.56"/>
<polygon fill="#63b8ff" stroke="#63b8ff" points="996.33,-81.76 1006.85,-80.47 997.83,-74.92 996.33,-81.76"/>
</a>
</g>
</g>
<!-- Node8 -->
<g id="Node000008" class="node">
<title>Node8</title>
<g id="a_Node000008"><a xlink:href="podium__ceremony__actors_8c.html#a7ea229c65f264670fc828b95e8321154" target="_top" xlink:title=" ">
<polygon fill="white" stroke="#666666" points="774,-136.5 640,-136.5 640,-117.5 774,-117.5 774,-136.5"/>
<text text-anchor="middle" x="707" y="-124.5" font-family="Helvetica,sans-Serif" font-size="10.00">podium_ceremony_loop</text>
</a>
</g>
</g>
<!-- Node7&#45;&gt;Node8 -->
<g id="edge7_Node000007_Node000008" class="edge">
<title>Node7&#45;&gt;Node8</title>
<g id="a_edge7_Node000007_Node000008"><a xlink:title=" ">
<path fill="none" stroke="#63b8ff" d="M823.92,-127C808.07,-127 790.63,-127 774.19,-127"/>
<polygon fill="#63b8ff" stroke="#63b8ff" points="824.07,-130.5 834.07,-127 824.07,-123.5 824.07,-130.5"/>
</a>
</g>
</g>
<!-- Node14 -->
<g id="Node000014" class="node">
<title>Node14</title>
<g id="a_Node000014"><a xlink:href="main_8c.html#afff87ffcbfee4f1f37d443110aa7b52a" target="_top" xlink:title=" ">
<polygon fill="white" stroke="#666666" points="753,-99.5 661,-99.5 661,-80.5 753,-80.5 753,-99.5"/>
<text text-anchor="middle" x="707" y="-87.5" font-family="Helvetica,sans-Serif" font-size="10.00">race_logic_loop</text>
</a>
</g>
</g>
<!-- Node7&#45;&gt;Node14 -->
<g id="edge13_Node000007_Node000014" class="edge">
<title>Node7&#45;&gt;Node14</title>
<g id="a_edge13_Node000007_Node000014"><a xlink:title=" ">
<path fill="none" stroke="#63b8ff" d="M825.15,-115.35C801.66,-110.27 774.46,-104.38 752.18,-99.56"/>
<polygon fill="#63b8ff" stroke="#63b8ff" points="824.45,-118.78 834.96,-117.47 825.93,-111.94 824.45,-118.78"/>
</a>
</g>
</g>
<!-- Node9 -->
<g id="Node000009" class="node">
<title>Node9</title>
<g id="a_Node000009"><a xlink:href="main_8c.html#ae04143ce8113cdafa007c642eb620bc8" target="_top" xlink:title=" ">
<polygon fill="white" stroke="#666666" points="604,-135.5 488,-135.5 488,-116.5 604,-116.5 604,-135.5"/>
<text text-anchor="middle" x="546" y="-123.5" font-family="Helvetica,sans-Serif" font-size="10.00">game_state_handler</text>
</a>
</g>
</g>
<!-- Node8&#45;&gt;Node9 -->
<g id="edge8_Node000008_Node000009" class="edge">
<title>Node8&#45;&gt;Node9</title>
<g id="a_edge8_Node000008_Node000009"><a xlink:title=" ">
<path fill="none" stroke="#63b8ff" d="M629.87,-126.52C621.24,-126.47 612.56,-126.41 604.24,-126.36"/>
<polygon fill="#63b8ff" stroke="#63b8ff" points="629.93,-130.02 639.95,-126.58 629.97,-123.02 629.93,-130.02"/>
</a>
</g>
</g>
<!-- Node10 -->
<g id="Node000010" class="node">
<title>Node10</title>
<g id="a_Node000010"><a xlink:href="main_8c.html#a633ed517e458daeb768f5361895dcac9" target="_top" xlink:title=" ">
<polygon fill="white" stroke="#666666" points="452,-154.5 339,-154.5 339,-135.5 452,-135.5 452,-154.5"/>
<text text-anchor="middle" x="395.5" y="-142.5" font-family="Helvetica,sans-Serif" font-size="10.00">thread5_game_loop</text>
</a>
</g>
</g>
<!-- Node9&#45;&gt;Node10 -->
<g id="edge9_Node000009_Node000010" class="edge">
<title>Node9&#45;&gt;Node10</title>
<g id="a_edge9_Node000009_Node000010"><a xlink:title=" ">
<path fill="none" stroke="#63b8ff" d="M477.42,-134.65C469.02,-135.72 460.5,-136.81 452.3,-137.86"/>
<polygon fill="#63b8ff" stroke="#63b8ff" points="478.11,-138.09 487.59,-133.35 477.22,-131.14 478.11,-138.09"/>
</a>
</g>
</g>
<!-- Node11 -->
<g id="Node000011" class="node">
<title>Node11</title>
<g id="a_Node000011"><a xlink:href="main_8c.html#a023b8f272e4efbd33f371e91ffff6b30" target="_top" xlink:title=" ">
<polygon fill="white" stroke="#666666" points="303,-154.5 217,-154.5 217,-135.5 303,-135.5 303,-154.5"/>
<text text-anchor="middle" x="260" y="-142.5" font-family="Helvetica,sans-Serif" font-size="10.00">thread3_video</text>
</a>
</g>
</g>
<!-- Node10&#45;&gt;Node11 -->
<g id="edge10_Node000010_Node000011" class="edge">
<title>Node10&#45;&gt;Node11</title>
<g id="a_edge10_Node000010_Node000011"><a xlink:title=" ">
<path fill="none" stroke="#63b8ff" d="M328.57,-145C319.94,-145 311.3,-145 303.21,-145"/>
<polygon fill="#63b8ff" stroke="#63b8ff" points="328.66,-148.5 338.66,-145 328.66,-141.5 328.66,-148.5"/>
</a>
</g>
</g>
<!-- Node12 -->
<g id="Node000012" class="node">
<title>Node12</title>
<g id="a_Node000012"><a xlink:href="main_8c.html#a1e35d2b842121e6aea373f09381616e5" target="_top" xlink:title=" ">
<polygon fill="white" stroke="#666666" points="181,-154.5 104,-154.5 104,-135.5 181,-135.5 181,-154.5"/>
<text text-anchor="middle" x="142.5" y="-142.5" font-family="Helvetica,sans-Serif" font-size="10.00">thread1_idle</text>
</a>
</g>
</g>
<!-- Node11&#45;&gt;Node12 -->
<g id="edge11_Node000011_Node000012" class="edge">
<title>Node11&#45;&gt;Node12</title>
<g id="a_edge11_Node000011_Node000012"><a xlink:title=" ">
<path fill="none" stroke="#63b8ff" d="M206.9,-145C198.2,-145 189.33,-145 181.09,-145"/>
<polygon fill="#63b8ff" stroke="#63b8ff" points="206.98,-148.5 216.98,-145 206.98,-141.5 206.98,-148.5"/>
</a>
</g>
</g>
<!-- Node13 -->
<g id="Node000013" class="node">
<title>Node13</title>
<g id="a_Node000013"><a xlink:href="main_8c.html#a4f87d43525fe95f60ea92bc8a3b70e62" target="_top" xlink:title=" ">
<polygon fill="white" stroke="#666666" points="68,-154.5 0,-154.5 0,-135.5 68,-135.5 68,-154.5"/>
<text text-anchor="middle" x="34" y="-142.5" font-family="Helvetica,sans-Serif" font-size="10.00">main_func</text>
</a>
</g>
</g>
<!-- Node12&#45;&gt;Node13 -->
<g id="edge12_Node000012_Node000013" class="edge">
<title>Node12&#45;&gt;Node13</title>
<g id="a_edge12_Node000012_Node000013"><a xlink:title=" ">
<path fill="none" stroke="#63b8ff" d="M93.95,-145C85.29,-145 76.44,-145 68.31,-145"/>
<polygon fill="#63b8ff" stroke="#63b8ff" points="93.95,-148.5 103.95,-145 93.95,-141.5 93.95,-148.5"/>
</a>
</g>
</g>
<!-- Node14&#45;&gt;Node9 -->
<g id="edge14_Node000014_Node000009" class="edge">
<title>Node14&#45;&gt;Node9</title>
<g id="a_edge14_Node000014_Node000009"><a xlink:title=" ">
<path fill="none" stroke="#63b8ff" d="M653.77,-101.82C632.8,-106.57 608.95,-111.97 589.11,-116.47"/>
<polygon fill="#63b8ff" stroke="#63b8ff" points="654.83,-105.17 663.81,-99.55 653.28,-98.35 654.83,-105.17"/>
</a>
</g>
</g>
<!-- Node15&#45;&gt;Node14 -->
<g id="edge16_Node000015_Node000014" class="edge">
<title>Node15&#45;&gt;Node14</title>
<g id="a_edge16_Node000015_Node000014"><a xlink:title=" ">
<path fill="none" stroke="#63b8ff" d="M823.85,-90C801.02,-90 774.89,-90 753.22,-90"/>
<polygon fill="#63b8ff" stroke="#63b8ff" points="824.07,-93.5 834.07,-90 824.07,-86.5 824.07,-93.5"/>
</a>
</g>
</g>
<!-- Node16&#45;&gt;Node14 -->
<g id="edge18_Node000016_Node000014" class="edge">
<title>Node16&#45;&gt;Node14</title>
<g id="a_edge18_Node000016_Node000014"><a xlink:title=" ">
<path fill="none" stroke="#63b8ff" d="M825.15,-64.65C801.66,-69.73 774.46,-75.62 752.18,-80.44"/>
<polygon fill="#63b8ff" stroke="#63b8ff" points="825.93,-68.06 834.96,-62.53 824.45,-61.22 825.93,-68.06"/>
</a>
</g>
</g>
<!-- Node17&#45;&gt;Node5 -->
<g id="edge20_Node000017_Node000005" class="edge">
<title>Node17&#45;&gt;Node5</title>
<g id="a_edge20_Node000017_Node000005"><a xlink:title=" ">
<path fill="none" stroke="#63b8ff" d="M1291.6,-113.91C1288.27,-112.44 1285.04,-110.81 1282,-109 1262.27,-97.29 1264.97,-84.9 1246,-72 1240.62,-68.34 1234.43,-65.18 1228.37,-62.54"/>
<polygon fill="#63b8ff" stroke="#63b8ff" points="1290.59,-117.27 1301.18,-117.65 1293.14,-110.75 1290.59,-117.27"/>
</a>
</g>
</g>
<!-- Node18 -->
<g id="Node000018" class="node">
<title>Node18</title>
<g id="a_Node000018"><a xlink:href="player__controller_8c.html#a76e0206999fca6c9de4d4bef2c4620ce" target="_top" xlink:title=" ">
<polygon fill="white" stroke="#666666" points="1245.5,-99.5 1153.5,-99.5 1153.5,-80.5 1245.5,-80.5 1245.5,-99.5"/>
<text text-anchor="middle" x="1199.5" y="-87.5" font-family="Helvetica,sans-Serif" font-size="10.00">func_80028C44</text>
</a>
</g>
</g>
<!-- Node17&#45;&gt;Node18 -->
<g id="edge21_Node000017_Node000018" class="edge">
<title>Node17&#45;&gt;Node18</title>
<g id="a_edge21_Node000017_Node000018"><a xlink:title=" ">
<path fill="none" stroke="#63b8ff" d="M1299.17,-115.01C1279.43,-110 1256.82,-104.27 1238.22,-99.56"/>
<polygon fill="#63b8ff" stroke="#63b8ff" points="1298.35,-118.41 1308.9,-117.47 1300.07,-111.62 1298.35,-118.41"/>
</a>
</g>
</g>
<!-- Node19 -->
<g id="Node000019" class="node">
<title>Node19</title>
<g id="a_Node000019"><a xlink:href="player__controller_8c.html#ae531f1b044d00354a79cb3f88b81fa12" target="_top" xlink:title=" ">
<polygon fill="white" stroke="#666666" points="1246,-136.5 1153,-136.5 1153,-117.5 1246,-117.5 1246,-136.5"/>
<text text-anchor="middle" x="1199.5" y="-124.5" font-family="Helvetica,sans-Serif" font-size="10.00">func_80028D3C</text>
</a>
</g>
</g>
<!-- Node17&#45;&gt;Node19 -->
<g id="edge23_Node000017_Node000019" class="edge">
<title>Node17&#45;&gt;Node19</title>
<g id="a_edge23_Node000017_Node000019"><a xlink:title=" ">
<path fill="none" stroke="#63b8ff" d="M1291.03,-127C1276.21,-127 1260.35,-127 1246.12,-127"/>
<polygon fill="#63b8ff" stroke="#63b8ff" points="1291.11,-130.5 1301.11,-127 1291.1,-123.5 1291.11,-130.5"/>
</a>
</g>
</g>
<!-- Node20 -->
<g id="Node000020" class="node">
<title>Node20</title>
<g id="a_Node000020"><a xlink:href="spawn__players_8c.html#a786871d4fec99acdd5a14b48c1c38a7c" target="_top" xlink:title=" ">
<polygon fill="white" stroke="#666666" points="1246,-173.5 1153,-173.5 1153,-154.5 1246,-154.5 1246,-173.5"/>
<text text-anchor="middle" x="1199.5" y="-161.5" font-family="Helvetica,sans-Serif" font-size="10.00">func_8003CD98</text>
</a>
</g>
</g>
<!-- Node17&#45;&gt;Node20 -->
<g id="edge25_Node000017_Node000020" class="edge">
<title>Node17&#45;&gt;Node20</title>
<g id="a_edge25_Node000017_Node000020"><a xlink:title=" ">
<path fill="none" stroke="#63b8ff" d="M1299.17,-138.99C1279.43,-144 1256.82,-149.73 1238.22,-154.44"/>
<polygon fill="#63b8ff" stroke="#63b8ff" points="1300.07,-142.38 1308.9,-136.53 1298.35,-135.59 1300.07,-142.38"/>
</a>
</g>
</g>
<!-- Node18&#45;&gt;Node6 -->
<g id="edge22_Node000018_Node000006" class="edge">
<title>Node18&#45;&gt;Node6</title>
<g id="a_edge22_Node000018_Node000006"><a xlink:title=" ">
<path fill="none" stroke="#63b8ff" d="M1142.84,-90C1127.72,-90 1111.54,-90 1097.12,-90"/>
<polygon fill="#63b8ff" stroke="#63b8ff" points="1143.11,-93.5 1153.11,-90 1143.1,-86.5 1143.11,-93.5"/>
</a>
</g>
</g>
<!-- Node19&#45;&gt;Node6 -->
<g id="edge24_Node000019_Node000006" class="edge">
<title>Node19&#45;&gt;Node6</title>
<g id="a_edge24_Node000019_Node000006"><a xlink:title=" ">
<path fill="none" stroke="#63b8ff" d="M1151.17,-115.01C1131.43,-110 1108.82,-104.27 1090.22,-99.56"/>
<polygon fill="#63b8ff" stroke="#63b8ff" points="1150.35,-118.41 1160.9,-117.47 1152.07,-111.62 1150.35,-118.41"/>
</a>
</g>
</g>
<!-- Node21 -->
<g id="Node000021" class="node">
<title>Node21</title>
<g id="a_Node000021"><a xlink:href="spawn__players_8c.html#ac1a9412b931cfa517a2382c2fc605399" target="_top" xlink:title=" ">
<polygon fill="white" stroke="#666666" points="1097.5,-173.5 1005.5,-173.5 1005.5,-154.5 1097.5,-154.5 1097.5,-173.5"/>
<text text-anchor="middle" x="1051.5" y="-161.5" font-family="Helvetica,sans-Serif" font-size="10.00">func_8003D080</text>
</a>
</g>
</g>
<!-- Node20&#45;&gt;Node21 -->
<g id="edge26_Node000020_Node000021" class="edge">
<title>Node20&#45;&gt;Node21</title>
<g id="a_edge26_Node000020_Node000021"><a xlink:title=" ">
<path fill="none" stroke="#63b8ff" d="M1142.6,-164C1127.73,-164 1111.85,-164 1097.63,-164"/>
<polygon fill="#63b8ff" stroke="#63b8ff" points="1142.71,-167.5 1152.71,-164 1142.71,-160.5 1142.71,-167.5"/>
</a>
</g>
</g>
<!-- Node22 -->
<g id="Node000022" class="node">
<title>Node22</title>
<g id="a_Node000022"><a xlink:href="code__80281780_8c.html#af227cfd0f1fd3d6adbe9a29ad59b4dc8" target="_top" xlink:title=" ">
<polygon fill="white" stroke="#666666" points="950,-210.5 810,-210.5 810,-191.5 950,-191.5 950,-210.5"/>
<text text-anchor="middle" x="880" y="-198.5" font-family="Helvetica,sans-Serif" font-size="10.00">load_ceremony_cutscene</text>
</a>
</g>
</g>
<!-- Node21&#45;&gt;Node22 -->
<g id="edge27_Node000021_Node000022" class="edge">
<title>Node21&#45;&gt;Node22</title>
<g id="a_edge27_Node000021_Node000022"><a xlink:title=" ">
<path fill="none" stroke="#63b8ff" d="M996.81,-175.72C973.6,-180.79 946.78,-186.64 924.8,-191.44"/>
<polygon fill="#63b8ff" stroke="#63b8ff" points="997.83,-179.08 1006.85,-173.53 996.33,-172.24 997.83,-179.08"/>
</a>
</g>
</g>
<!-- Node24 -->
<g id="Node000024" class="node">
<title>Node24</title>
<g id="a_Node000024"><a xlink:href="code__800029B0_8c.html#aca6165112fc92e65ad6477e785a7098c" target="_top" xlink:title=" ">
<polygon fill="white" stroke="#666666" points="915,-173.5 845,-173.5 845,-154.5 915,-154.5 915,-173.5"/>
<text text-anchor="middle" x="880" y="-161.5" font-family="Helvetica,sans-Serif" font-size="10.00">setup_race</text>
</a>
</g>
</g>
<!-- Node21&#45;&gt;Node24 -->
<g id="edge30_Node000021_Node000024" class="edge">
<title>Node21&#45;&gt;Node24</title>
<g id="a_edge30_Node000021_Node000024"><a xlink:title=" ">
<path fill="none" stroke="#63b8ff" d="M994.87,-164C968.6,-164 938.08,-164 915.25,-164"/>
<polygon fill="#63b8ff" stroke="#63b8ff" points="995.08,-167.5 1005.08,-164 995.08,-160.5 995.08,-167.5"/>
</a>
</g>
</g>
<!-- Node23 -->
<g id="Node000023" class="node">
<title>Node23</title>
<g id="a_Node000023"><a xlink:href="main_8c.html#ad0625ed56ac663d3ec7ae8f1ba50c735" target="_top" xlink:title=" ">
<polygon fill="white" stroke="#666666" points="761,-173.5 653,-173.5 653,-154.5 761,-154.5 761,-173.5"/>
<text text-anchor="middle" x="707" y="-161.5" font-family="Helvetica,sans-Serif" font-size="10.00">update_gamestate</text>
</a>
</g>
</g>
<!-- Node22&#45;&gt;Node23 -->
<g id="edge28_Node000022_Node000023" class="edge">
<title>Node22&#45;&gt;Node23</title>
<g id="a_edge28_Node000022_Node000023"><a xlink:title=" ">
<path fill="none" stroke="#63b8ff" d="M825.15,-189.35C801.66,-184.27 774.46,-178.38 752.18,-173.56"/>
<polygon fill="#63b8ff" stroke="#63b8ff" points="824.45,-192.78 834.96,-191.47 825.93,-185.94 824.45,-192.78"/>
</a>
</g>
</g>
<!-- Node23&#45;&gt;Node10 -->
<g id="edge29_Node000023_Node000010" class="edge">
<title>Node23&#45;&gt;Node10</title>
<g id="a_edge29_Node000023_Node000010"><a xlink:title=" ">
<path fill="none" stroke="#63b8ff" d="M642.64,-160.11C586.62,-156.67 505.7,-151.7 452.14,-148.42"/>
<polygon fill="#63b8ff" stroke="#63b8ff" points="642.6,-163.61 652.8,-160.73 643.03,-156.63 642.6,-163.61"/>
</a>
</g>
</g>
<!-- Node24&#45;&gt;Node23 -->
<g id="edge31_Node000024_Node000023" class="edge">
<title>Node24&#45;&gt;Node23</title>
<g id="a_edge31_Node000024_Node000023"><a xlink:title=" ">
<path fill="none" stroke="#63b8ff" d="M834.57,-164C812.18,-164 784.85,-164 761.33,-164"/>
<polygon fill="#63b8ff" stroke="#63b8ff" points="834.81,-167.5 844.81,-164 834.81,-160.5 834.81,-167.5"/>
</a>
</g>
</g>
<!-- Node25&#45;&gt;Node5 -->
<g id="edge33_Node000025_Node000005" class="edge">
<title>Node25&#45;&gt;Node5</title>
<g id="a_edge33_Node000025_Node000005"><a xlink:title=" ">
<path fill="none" stroke="#63b8ff" d="M1299.17,-78.01C1279.43,-73 1256.82,-67.27 1238.22,-62.56"/>
<polygon fill="#63b8ff" stroke="#63b8ff" points="1298.35,-81.41 1308.9,-80.47 1300.07,-74.62 1298.35,-81.41"/>
</a>
</g>
</g>
<!-- Node25&#45;&gt;Node18 -->
<g id="edge34_Node000025_Node000018" class="edge">
<title>Node25&#45;&gt;Node18</title>
<g id="a_edge34_Node000025_Node000018"><a xlink:title=" ">
<path fill="none" stroke="#63b8ff" d="M1291.61,-90C1276.43,-90 1260.13,-90 1245.58,-90"/>
<polygon fill="#63b8ff" stroke="#63b8ff" points="1291.9,-93.5 1301.9,-90 1291.9,-86.5 1291.9,-93.5"/>
</a>
</g>
</g>
<!-- Node25&#45;&gt;Node19 -->
<g id="edge35_Node000025_Node000019" class="edge">
<title>Node25&#45;&gt;Node19</title>
<g id="a_edge35_Node000025_Node000019"><a xlink:title=" ">
<path fill="none" stroke="#63b8ff" d="M1299.17,-101.99C1279.43,-107 1256.82,-112.73 1238.22,-117.44"/>
<polygon fill="#63b8ff" stroke="#63b8ff" points="1300.07,-105.38 1308.9,-99.53 1298.35,-98.59 1300.07,-105.38"/>
</a>
</g>
</g>
<!-- Node26&#45;&gt;Node6 -->
<g id="edge37_Node000026_Node000006" class="edge">
<title>Node26&#45;&gt;Node6</title>
<g id="a_edge37_Node000026_Node000006"><a xlink:title=" ">
<path fill="none" stroke="#63b8ff" d="M1312.97,-176.74C1273.18,-189.77 1205.6,-205.21 1153,-183 1131.86,-174.07 1133.68,-161.76 1117,-146 1099.11,-129.09 1077.3,-110.57 1064.18,-99.63"/>
<polygon fill="#63b8ff" stroke="#63b8ff" points="1314.13,-180.05 1322.46,-173.51 1311.87,-173.42 1314.13,-180.05"/>
</a>
</g>
</g>
<!-- Node28 -->
<g id="Node000028" class="node">
<title>Node28</title>
<g id="a_Node000028"><a xlink:href="player__controller_8c.html#a13b756fb91193f3e7a699b24395c6bb6" target="_top" xlink:title=" ">
<polygon fill="white" stroke="#666666" points="1560,-99.5 1468,-99.5 1468,-80.5 1560,-80.5 1560,-99.5"/>
<text text-anchor="middle" x="1514" y="-87.5" font-family="Helvetica,sans-Serif" font-size="10.00">func_8002B830</text>
</a>
</g>
</g>
<!-- Node27&#45;&gt;Node28 -->
<g id="edge39_Node000027_Node000028" class="edge">
<title>Node27&#45;&gt;Node28</title>
<g id="a_edge39_Node000027_Node000028"><a xlink:title=" ">
<path fill="none" stroke="#63b8ff" d="M1611.79,-90C1594.51,-90 1576.21,-90 1560.22,-90"/>
<polygon fill="#63b8ff" stroke="#63b8ff" points="1611.82,-93.5 1621.82,-90 1611.82,-86.5 1611.82,-93.5"/>
</a>
</g>
</g>
<!-- Node28&#45;&gt;Node4 -->
<g id="edge40_Node000028_Node000004" class="edge">
<title>Node28&#45;&gt;Node4</title>
<g id="a_edge40_Node000028_Node000004"><a xlink:title=" ">
<path fill="none" stroke="#63b8ff" d="M1460.59,-78.21C1438.13,-73.16 1412.24,-67.34 1391,-62.56"/>
<polygon fill="#63b8ff" stroke="#63b8ff" points="1460.11,-81.69 1470.64,-80.47 1461.65,-74.86 1460.11,-81.69"/>
</a>
</g>
</g>
<!-- Node28&#45;&gt;Node17 -->
<g id="edge41_Node000028_Node000017" class="edge">
<title>Node28&#45;&gt;Node17</title>
<g id="a_edge41_Node000028_Node000017"><a xlink:title=" ">
<path fill="none" stroke="#63b8ff" d="M1460.59,-101.79C1438.13,-106.84 1412.24,-112.66 1391,-117.44"/>
<polygon fill="#63b8ff" stroke="#63b8ff" points="1461.65,-105.14 1470.64,-99.53 1460.11,-98.31 1461.65,-105.14"/>
</a>
</g>
</g>
<!-- Node28&#45;&gt;Node25 -->
<g id="edge42_Node000028_Node000025" class="edge">
<title>Node28&#45;&gt;Node25</title>
<g id="a_edge42_Node000028_Node000025"><a xlink:title=" ">
<path fill="none" stroke="#63b8ff" d="M1457.56,-90C1436.6,-90 1413.02,-90 1393.17,-90"/>
<polygon fill="#63b8ff" stroke="#63b8ff" points="1457.61,-93.5 1467.61,-90 1457.61,-86.5 1457.61,-93.5"/>
</a>
</g>
</g>
<!-- Node28&#45;&gt;Node26 -->
<g id="edge43_Node000028_Node000026" class="edge">
<title>Node28&#45;&gt;Node26</title>
<g id="a_edge43_Node000028_Node000026"><a xlink:title=" ">
<path fill="none" stroke="#63b8ff" d="M1460.35,-103.2C1456.4,-104.91 1452.57,-106.84 1449,-109 1429.37,-120.87 1432.73,-134.29 1413,-146 1407.1,-149.5 1400.5,-152.34 1393.82,-154.65"/>
<polygon fill="#63b8ff" stroke="#63b8ff" points="1461.66,-106.44 1469.71,-99.55 1459.12,-99.92 1461.66,-106.44"/>
</a>
</g>
</g>
<!-- Node29&#45;&gt;Node30 -->
<g id="edge45_Node000029_Node000030" class="edge">
<title>Node29&#45;&gt;Node30</title>
<g id="a_edge45_Node000029_Node000030"><a xlink:title=" ">
<path fill="none" stroke="#63b8ff" d="M1611.31,-14.4C1600.68,-14.47 1589.67,-14.54 1579.06,-14.6"/>
<polygon fill="#63b8ff" stroke="#63b8ff" points="1611.39,-17.9 1621.37,-14.34 1611.35,-10.9 1611.39,-17.9"/>
</a>
</g>
</g>
<!-- Node31 -->
<g id="Node000031" class="node">
<title>Node31</title>
<g id="a_Node000031"><a xlink:href="actors_8c.html#a71dce0cfb896ad31897a760f69288cfc" target="_top" xlink:title=" ">
<polygon fill="white" stroke="#666666" points="1117,-30 986,-30 986,0 1117,0 1117,-30"/>
<text text-anchor="start" x="994" y="-18" font-family="Helvetica,sans-Serif" font-size="10.00">evaluate_player_actors</text>
<text text-anchor="middle" x="1051.5" y="-7" font-family="Helvetica,sans-Serif" font-size="10.00">_collision</text>
</a>
</g>
</g>
<!-- Node30&#45;&gt;Node31 -->
<g id="edge46_Node000030_Node000031" class="edge">
<title>Node30&#45;&gt;Node31</title>
<g id="a_edge46_Node000030_Node000031"><a xlink:title=" ">
<path fill="none" stroke="#63b8ff" d="M1438.94,-15C1349.85,-15 1201.74,-15 1117.1,-15"/>
<polygon fill="#63b8ff" stroke="#63b8ff" points="1438.97,-18.5 1448.97,-15 1438.97,-11.5 1438.97,-18.5"/>
</a>
</g>
</g>
<!-- Node31&#45;&gt;Node14 -->
<g id="edge47_Node000031_Node000014" class="edge">
<title>Node31&#45;&gt;Node14</title>
<g id="a_edge47_Node000031_Node000014"><a xlink:title=" ">
<path fill="none" stroke="#63b8ff" d="M975.81,-12.88C927.56,-13.45 863.95,-17.87 810,-34 775.55,-44.3 739.69,-67.35 721.04,-80.44"/>
<polygon fill="#63b8ff" stroke="#63b8ff" points="975.88,-16.37 985.86,-12.81 975.84,-9.38 975.88,-16.37"/>
</a>
</g>
</g>
</g>
</svg>
