<?xml version="1.0" encoding="UTF-8" standalone="no"?>
<!DOCTYPE svg PUBLIC "-//W3C//DTD SVG 1.1//EN"
 "http://www.w3.org/Graphics/SVG/1.1/DTD/svg11.dtd">
<!-- Generated by graphviz version 2.43.0 (0)
 -->
<!-- Title: func_800C40F0 Pages: 1 -->
<svg width="1136pt" height="1078pt"
 viewBox="0.00 0.00 1136.00 1078.00" xmlns="http://www.w3.org/2000/svg" xmlns:xlink="http://www.w3.org/1999/xlink">
<g id="graph0" class="graph" transform="scale(1 1) rotate(0) translate(4 1074)">
<title>func_800C40F0</title>
<!-- Node1 -->
<g id="Node000001" class="node">
<title>Node1</title>
<g id="a_Node000001"><a xlink:title=" ">
<polygon fill="#999999" stroke="#666666" points="1128,-820 1036,-820 1036,-801 1128,-801 1128,-820"/>
<text text-anchor="middle" x="1082" y="-808" font-family="Helvetica,sans-Serif" font-size="10.00">func_800C40F0</text>
</a>
</g>
</g>
<!-- Node2 -->
<g id="Node000002" class="node">
<title>Node2</title>
<g id="a_Node000002"><a xlink:href="external_8c.html#ac0fb767de7e14a03f1bcfa53f0abd23b" target="_top" xlink:title=" ">
<polygon fill="white" stroke="#666666" points="1000,-820 860,-820 860,-801 1000,-801 1000,-820"/>
<text text-anchor="middle" x="930" y="-808" font-family="Helvetica,sans-Serif" font-size="10.00">delete_sound_from_bank</text>
</a>
</g>
</g>
<!-- Node1&#45;&gt;Node2 -->
<g id="edge1_Node000001_Node000002" class="edge">
<title>Node1&#45;&gt;Node2</title>
<g id="a_edge1_Node000001_Node000002"><a xlink:title=" ">
<path fill="none" stroke="#63b8ff" d="M1025.95,-810.5C1017.54,-810.5 1008.77,-810.5 1000.11,-810.5"/>
<polygon fill="#63b8ff" stroke="#63b8ff" points="1026,-814 1036,-810.5 1026,-807 1026,-814"/>
</a>
</g>
</g>
<!-- Node3 -->
<g id="Node000003" class="node">
<title>Node3</title>
<g id="a_Node000003"><a xlink:href="external_8c.html#a3d8334bd4e9a682bd18c614fd427004e" target="_top" xlink:title=" ">
<polygon fill="white" stroke="#666666" points="824,-958 732,-958 732,-939 824,-939 824,-958"/>
<text text-anchor="middle" x="778" y="-946" font-family="Helvetica,sans-Serif" font-size="10.00">func_800C5278</text>
</a>
</g>
</g>
<!-- Node2&#45;&gt;Node3 -->
<g id="edge2_Node000002_Node000003" class="edge">
<title>Node2&#45;&gt;Node3</title>
<g id="a_edge2_Node000002_Node000003"><a xlink:title=" ">
<path fill="none" stroke="#63b8ff" d="M910.53,-827.49C878.82,-856.66 815,-915.38 789.69,-938.67"/>
<polygon fill="#63b8ff" stroke="#63b8ff" points="913.22,-829.77 918.21,-820.42 908.48,-824.62 913.22,-829.77"/>
</a>
</g>
</g>
<!-- Node29 -->
<g id="Node000029" class="node">
<title>Node29</title>
<g id="a_Node000029"><a xlink:href="external_8c.html#a187d9f590686ca9c9b6590d7a5b2bafa" target="_top" xlink:title=" ">
<polygon fill="white" stroke="#666666" points="824,-841 732,-841 732,-822 824,-822 824,-841"/>
<text text-anchor="middle" x="778" y="-829" font-family="Helvetica,sans-Serif" font-size="10.00">func_800C5384</text>
</a>
</g>
</g>
<!-- Node2&#45;&gt;Node29 -->
<g id="edge12_Node000002_Node000029" class="edge">
<title>Node2&#45;&gt;Node29</title>
<g id="a_edge12_Node000002_Node000029"><a xlink:title=" ">
<path fill="none" stroke="#63b8ff" d="M851.11,-821.4C841.97,-822.68 832.89,-823.96 824.41,-825.14"/>
<polygon fill="#63b8ff" stroke="#63b8ff" points="851.6,-824.87 861.02,-820.02 850.63,-817.94 851.6,-824.87"/>
</a>
</g>
</g>
<!-- Node33 -->
<g id="Node000033" class="node">
<title>Node33</title>
<g id="a_Node000033"><a xlink:href="external_8c.html#a028d40421b90c38f68ebfd5acc626f2e" target="_top" xlink:title=" ">
<polygon fill="white" stroke="#666666" points="695,-680 603,-680 603,-661 695,-661 695,-680"/>
<text text-anchor="middle" x="649" y="-668" font-family="Helvetica,sans-Serif" font-size="10.00">func_800C5578</text>
</a>
</g>
</g>
<!-- Node2&#45;&gt;Node33 -->
<g id="edge18_Node000002_Node000033" class="edge">
<title>Node2&#45;&gt;Node33</title>
<g id="a_edge18_Node000002_Node000033"><a xlink:title=" ">
<path fill="none" stroke="#63b8ff" d="M900.68,-796.29C843.8,-767.74 716.98,-704.11 668.94,-680"/>
<polygon fill="#63b8ff" stroke="#63b8ff" points="899.32,-799.52 909.82,-800.88 902.46,-793.26 899.32,-799.52"/>
</a>
</g>
</g>
<!-- Node170 -->
<g id="Node000170" class="node">
<title>Node170</title>
<g id="a_Node000170"><a xlink:href="external_8c.html#a18c71fc634c319d176306b3ce04c2896" target="_top" xlink:title=" ">
<polygon fill="white" stroke="#666666" points="824,-615 732,-615 732,-596 824,-596 824,-615"/>
<text text-anchor="middle" x="778" y="-603" font-family="Helvetica,sans-Serif" font-size="10.00">func_800C56F0</text>
</a>
</g>
</g>
<!-- Node2&#45;&gt;Node170 -->
<g id="edge59_Node000002_Node000170" class="edge">
<title>Node2&#45;&gt;Node170</title>
<g id="a_edge59_Node000002_Node000170"><a xlink:title=" ">
<path fill="none" stroke="#63b8ff" d="M916.01,-792.74C885.45,-750.99 809.85,-647.66 786.19,-615.33"/>
<polygon fill="#63b8ff" stroke="#63b8ff" points="913.24,-794.88 921.97,-800.89 918.89,-790.75 913.24,-794.88"/>
</a>
</g>
</g>
<!-- Node4 -->
<g id="Node000004" class="node">
<title>Node4</title>
<g id="a_Node000004"><a xlink:href="external_8c.html#a9bc9f57fb83f73d37b56721df044d722" target="_top" xlink:title=" ">
<polygon fill="white" stroke="#666666" points="406.5,-957 314.5,-957 314.5,-938 406.5,-938 406.5,-957"/>
<text text-anchor="middle" x="360.5" y="-945" font-family="Helvetica,sans-Serif" font-size="10.00">func_800C76C0</text>
</a>
</g>
</g>
<!-- Node3&#45;&gt;Node4 -->
<g id="edge3_Node000003_Node000004" class="edge">
<title>Node3&#45;&gt;Node4</title>
<g id="a_edge3_Node000003_Node000004"><a xlink:title=" ">
<path fill="none" stroke="#63b8ff" d="M721.49,-948.37C638.41,-948.17 483.31,-947.79 406.7,-947.61"/>
<polygon fill="#63b8ff" stroke="#63b8ff" points="721.73,-951.87 731.74,-948.39 721.75,-944.87 721.73,-951.87"/>
</a>
</g>
</g>
<!-- Node22 -->
<g id="Node000022" class="node">
<title>Node22</title>
<g id="a_Node000022"><a xlink:href="external_8c.html#a518bea6c084cccd3443950737f53a97a" target="_top" xlink:title=" ">
<polygon fill="white" stroke="#666666" points="695,-1005 603,-1005 603,-986 695,-986 695,-1005"/>
<text text-anchor="middle" x="649" y="-993" font-family="Helvetica,sans-Serif" font-size="10.00">func_800CA0E4</text>
</a>
</g>
</g>
<!-- Node3&#45;&gt;Node22 -->
<g id="edge6_Node000003_Node000022" class="edge">
<title>Node3&#45;&gt;Node22</title>
<g id="a_edge6_Node000003_Node000022"><a xlink:title=" ">
<path fill="none" stroke="#63b8ff" d="M741.84,-961.51C721.02,-969.22 695.09,-978.81 676.1,-985.84"/>
<polygon fill="#63b8ff" stroke="#63b8ff" points="743.14,-964.76 751.3,-958.01 740.71,-958.2 743.14,-964.76"/>
</a>
</g>
</g>
<!-- Node5 -->
<g id="Node000005" class="node">
<title>Node5</title>
<g id="a_Node000005"><a xlink:href="external_8c.html#aebe0a7e33d0961a0ad7e4ba40a49a032" target="_top" xlink:title=" ">
<polygon fill="white" stroke="#666666" points="236,-825 142,-825 142,-806 236,-806 236,-825"/>
<text text-anchor="middle" x="189" y="-813" font-family="Helvetica,sans-Serif" font-size="10.00">func_800C8CCC</text>
</a>
</g>
</g>
<!-- Node4&#45;&gt;Node5 -->
<g id="edge4_Node000004_Node000005" class="edge">
<title>Node4&#45;&gt;Node5</title>
<g id="a_edge4_Node000004_Node000005"><a xlink:title=" ">
<path fill="none" stroke="#63b8ff" d="M304.33,-937.62C297.54,-935.21 290.92,-932.22 285,-928.5 241.37,-901.1 207.69,-847.07 195.23,-825.11"/>
<polygon fill="#63b8ff" stroke="#63b8ff" points="303.73,-941.1 314.32,-940.75 305.82,-934.42 303.73,-941.1"/>
</a>
</g>
</g>
<!-- Node6 -->
<g id="Node000006" class="node">
<title>Node6</title>
<g id="a_Node000006"><a xlink:href="external_8c.html#a12c3e6c147828cc102e748904808ea4a" target="_top" xlink:title=" ">
<polygon fill="#fff0f0" stroke="red" points="93,-825 0,-825 0,-806 93,-806 93,-825"/>
<text text-anchor="middle" x="46.5" y="-813" font-family="Helvetica,sans-Serif" font-size="10.00">func_800CB2C4</text>
</a>
</g>
</g>
<!-- Node5&#45;&gt;Node6 -->
<g id="edge5_Node000005_Node000006" class="edge">
<title>Node5&#45;&gt;Node6</title>
<g id="a_edge5_Node000005_Node000006"><a xlink:title=" ">
<path fill="none" stroke="#63b8ff" d="M131.86,-815.5C119,-815.5 105.48,-815.5 93.13,-815.5"/>
<polygon fill="#63b8ff" stroke="#63b8ff" points="132,-819 142,-815.5 132,-812 132,-819"/>
</a>
</g>
</g>
<!-- Node23 -->
<g id="Node000023" class="node">
<title>Node23</title>
<g id="a_Node000023"><a xlink:href="external_8c.html#a6bb2826cc804a0c5050b58e528cea272" target="_top" xlink:title=" ">
<polygon fill="white" stroke="#666666" points="565,-1023 473,-1023 473,-1004 565,-1004 565,-1023"/>
<text text-anchor="middle" x="519" y="-1011" font-family="Helvetica,sans-Serif" font-size="10.00">func_800CA118</text>
</a>
</g>
</g>
<!-- Node22&#45;&gt;Node23 -->
<g id="edge7_Node000022_Node000023" class="edge">
<title>Node22&#45;&gt;Node23</title>
<g id="a_edge7_Node000022_Node000023"><a xlink:title=" ">
<path fill="none" stroke="#63b8ff" d="M592.95,-1003.24C583.67,-1004.55 574.14,-1005.89 565.15,-1007.15"/>
<polygon fill="#63b8ff" stroke="#63b8ff" points="593.46,-1006.7 602.87,-1001.85 592.48,-999.77 593.46,-1006.7"/>
</a>
</g>
</g>
<!-- Node24 -->
<g id="Node000024" class="node">
<title>Node24</title>
<g id="a_Node000024"><a xlink:href="race__logic_8c.html#a47f2e46e866e68495bc5792fb13f0d66" target="_top" xlink:title=" ">
<polygon fill="white" stroke="#666666" points="406,-1070 315,-1070 315,-1051 406,-1051 406,-1070"/>
<text text-anchor="middle" x="360.5" y="-1058" font-family="Helvetica,sans-Serif" font-size="10.00">func_8028E028</text>
</a>
</g>
</g>
<!-- Node23&#45;&gt;Node24 -->
<g id="edge8_Node000023_Node000024" class="edge">
<title>Node23&#45;&gt;Node24</title>
<g id="a_edge8_Node000023_Node000024"><a xlink:title=" ">
<path fill="none" stroke="#63b8ff" d="M476.72,-1025.9C450.64,-1033.73 417.44,-1043.7 393.39,-1050.92"/>
<polygon fill="#63b8ff" stroke="#63b8ff" points="477.76,-1029.24 486.33,-1023.01 475.75,-1022.54 477.76,-1029.24"/>
</a>
</g>
</g>
<!-- Node25 -->
<g id="Node000025" class="node">
<title>Node25</title>
<g id="a_Node000025"><a xlink:href="race__logic_8c.html#a9c6f4eb059607fcd18e4df0dcaaeec5b" target="_top" xlink:title=" ">
<polygon fill="#fff0f0" stroke="red" points="249,-1056.5 129,-1056.5 129,-1026.5 249,-1026.5 249,-1056.5"/>
<text text-anchor="start" x="137" y="-1044.5" font-family="Helvetica,sans-Serif" font-size="10.00">update_player_battle</text>
<text text-anchor="middle" x="189" y="-1033.5" font-family="Helvetica,sans-Serif" font-size="10.00">_status</text>
</a>
</g>
</g>
<!-- Node23&#45;&gt;Node25 -->
<g id="edge11_Node000023_Node000025" class="edge">
<title>Node23&#45;&gt;Node25</title>
<g id="a_edge11_Node000023_Node000025"><a xlink:title=" ">
<path fill="none" stroke="#63b8ff" d="M462.45,-1018.24C403.23,-1023.3 309.8,-1031.27 249.21,-1036.45"/>
<polygon fill="#63b8ff" stroke="#63b8ff" points="463.07,-1021.7 472.74,-1017.36 462.48,-1014.73 463.07,-1021.7"/>
</a>
</g>
</g>
<!-- Node28 -->
<g id="Node000028" class="node">
<title>Node28</title>
<g id="a_Node000028"><a xlink:href="race__logic_8c.html#a2645116d52469ec9b45c668d694e98c4" target="_top" xlink:title=" ">
<polygon fill="#fff0f0" stroke="red" points="406,-994 315,-994 315,-975 406,-975 406,-994"/>
<text text-anchor="middle" x="360.5" y="-982" font-family="Helvetica,sans-Serif" font-size="10.00">func_8028EF28</text>
</a>
</g>
</g>
<!-- Node23&#45;&gt;Node28 -->
<g id="edge10_Node000023_Node000028" class="edge">
<title>Node23&#45;&gt;Node28</title>
<g id="a_edge10_Node000023_Node000028"><a xlink:title=" ">
<path fill="none" stroke="#63b8ff" d="M462.66,-1003.25C444.14,-999.81 423.73,-996.03 406.12,-992.77"/>
<polygon fill="#63b8ff" stroke="#63b8ff" points="462.26,-1006.73 472.73,-1005.11 463.54,-999.85 462.26,-1006.73"/>
</a>
</g>
</g>
<!-- Node24&#45;&gt;Node25 -->
<g id="edge9_Node000024_Node000025" class="edge">
<title>Node24&#45;&gt;Node25</title>
<g id="a_edge9_Node000024_Node000025"><a xlink:title=" ">
<path fill="none" stroke="#63b8ff" d="M304.78,-1054.37C287.04,-1052.38 267.28,-1050.16 249.22,-1048.14"/>
<polygon fill="#63b8ff" stroke="#63b8ff" points="304.64,-1057.87 314.97,-1055.51 305.42,-1050.92 304.64,-1057.87"/>
</a>
</g>
</g>
<!-- Node30 -->
<g id="Node000030" class="node">
<title>Node30</title>
<g id="a_Node000030"><a xlink:href="external_8c.html#a8f95640fef6382013af69a10a1dad4f7" target="_top" xlink:title=" ">
<polygon fill="white" stroke="#666666" points="695,-878 603,-878 603,-859 695,-859 695,-878"/>
<text text-anchor="middle" x="649" y="-866" font-family="Helvetica,sans-Serif" font-size="10.00">func_800C54B8</text>
</a>
</g>
</g>
<!-- Node29&#45;&gt;Node30 -->
<g id="edge13_Node000029_Node000030" class="edge">
<title>Node29&#45;&gt;Node30</title>
<g id="a_edge13_Node000029_Node000030"><a xlink:title=" ">
<path fill="none" stroke="#63b8ff" d="M734.69,-843.83C717.87,-848.73 698.81,-854.28 683.04,-858.88"/>
<polygon fill="#63b8ff" stroke="#63b8ff" points="735.67,-847.19 744.29,-841.03 733.71,-840.47 735.67,-847.19"/>
</a>
</g>
</g>
<!-- Node31 -->
<g id="Node000031" class="node">
<title>Node31</title>
<g id="a_Node000031"><a xlink:href="external_8c.html#ac670a5c7b8fa5490ab1ee563ffffcd9c" target="_top" xlink:title=" ">
<polygon fill="white" stroke="#666666" points="695,-841 603,-841 603,-822 695,-822 695,-841"/>
<text text-anchor="middle" x="649" y="-829" font-family="Helvetica,sans-Serif" font-size="10.00">func_800C550C</text>
</a>
</g>
</g>
<!-- Node29&#45;&gt;Node31 -->
<g id="edge14_Node000029_Node000031" class="edge">
<title>Node29&#45;&gt;Node31</title>
<g id="a_edge14_Node000029_Node000031"><a xlink:title=" ">
<path fill="none" stroke="#63b8ff" d="M721.7,-831.5C712.92,-831.5 703.93,-831.5 695.42,-831.5"/>
<polygon fill="#63b8ff" stroke="#63b8ff" points="721.87,-835 731.87,-831.5 721.87,-828 721.87,-835"/>
</a>
</g>
</g>
<!-- Node32 -->
<g id="Node000032" class="node">
<title>Node32</title>
<g id="a_Node000032"><a xlink:href="external_8c.html#a1041b412a7bdcec3c697ed68bec652d6" target="_top" xlink:title=" ">
<polygon fill="white" stroke="#666666" points="566,-920 472,-920 472,-901 566,-901 566,-920"/>
<text text-anchor="middle" x="519" y="-908" font-family="Helvetica,sans-Serif" font-size="10.00">func_800C9D0C</text>
</a>
</g>
</g>
<!-- Node31&#45;&gt;Node32 -->
<g id="edge15_Node000031_Node000032" class="edge">
<title>Node31&#45;&gt;Node32</title>
<g id="a_edge15_Node000031_Node000032"><a xlink:title=" ">
<path fill="none" stroke="#63b8ff" d="M608.7,-845.52C606.38,-846.76 604.13,-848.09 602,-849.5 582.88,-862.19 584.4,-872.8 566,-886.5 558.63,-891.99 549.83,-896.91 541.91,-900.85"/>
<polygon fill="#63b8ff" stroke="#63b8ff" points="610.35,-848.61 617.87,-841.15 607.34,-842.29 610.35,-848.61"/>
</a>
</g>
</g>
<!-- Node32&#45;&gt;Node4 -->
<g id="edge17_Node000032_Node000004" class="edge">
<title>Node32&#45;&gt;Node4</title>
<g id="a_edge17_Node000032_Node000004"><a xlink:title=" ">
<path fill="none" stroke="#63b8ff" d="M467.85,-922.36C446.55,-927.39 422.05,-933.18 401.94,-937.94"/>
<polygon fill="#63b8ff" stroke="#63b8ff" points="468.77,-925.74 477.7,-920.03 467.16,-918.92 468.77,-925.74"/>
</a>
</g>
</g>
<!-- Node9 -->
<g id="Node000009" class="node">
<title>Node9</title>
<g id="a_Node000009"><a xlink:href="code__80091750_8c.html#a4c171632ff32db3cbe13719e6478d536" target="_top" xlink:title=" ">
<polygon fill="#fff0f0" stroke="red" points="406.5,-920 314.5,-920 314.5,-901 406.5,-901 406.5,-920"/>
<text text-anchor="middle" x="360.5" y="-908" font-family="Helvetica,sans-Serif" font-size="10.00">func_80091B78</text>
</a>
</g>
</g>
<!-- Node32&#45;&gt;Node9 -->
<g id="edge16_Node000032_Node000009" class="edge">
<title>Node32&#45;&gt;Node9</title>
<g id="a_edge16_Node000032_Node000009"><a xlink:title=" ">
<path fill="none" stroke="#63b8ff" d="M461.77,-910.5C443.7,-910.5 423.92,-910.5 406.74,-910.5"/>
<polygon fill="#63b8ff" stroke="#63b8ff" points="461.89,-914 471.89,-910.5 461.89,-907 461.89,-914"/>
</a>
</g>
</g>
<!-- Node33&#45;&gt;Node4 -->
<g id="edge21_Node000033_Node000004" class="edge">
<title>Node33&#45;&gt;Node4</title>
<g id="a_edge21_Node000033_Node000004"><a xlink:title=" ">
<path fill="none" stroke="#63b8ff" d="M644.16,-690.18C636.03,-726.85 613.78,-806.13 566,-852.5 533.54,-884 509.43,-866.1 472,-891.5 453.01,-904.38 455.86,-917.01 436,-928.5 427.1,-933.65 416.82,-937.42 406.79,-940.17"/>
<polygon fill="#63b8ff" stroke="#63b8ff" points="647.61,-690.75 646.24,-680.25 640.76,-689.32 647.61,-690.75"/>
</a>
</g>
</g>
<!-- Node34 -->
<g id="Node000034" class="node">
<title>Node34</title>
<g id="a_Node000034"><a xlink:href="external_8c.html#a629cbbd815e11fee9d438b90bf49b2a7" target="_top" xlink:title=" ">
<polygon fill="white" stroke="#666666" points="565,-844 473,-844 473,-825 565,-825 565,-844"/>
<text text-anchor="middle" x="519" y="-832" font-family="Helvetica,sans-Serif" font-size="10.00">func_800C683C</text>
</a>
</g>
</g>
<!-- Node33&#45;&gt;Node34 -->
<g id="edge19_Node000033_Node000034" class="edge">
<title>Node33&#45;&gt;Node34</title>
<g id="a_edge19_Node000033_Node000034"><a xlink:title=" ">
<path fill="none" stroke="#63b8ff" d="M641.71,-689.91C630.88,-720.54 605.95,-780.19 566,-815.5 561.73,-819.28 556.6,-822.37 551.34,-824.88"/>
<polygon fill="#63b8ff" stroke="#63b8ff" points="645.16,-690.64 645.07,-680.05 638.54,-688.39 645.16,-690.64"/>
</a>
</g>
</g>
<!-- Node35 -->
<g id="Node000035" class="node">
<title>Node35</title>
<g id="a_Node000035"><a xlink:href="external_8c.html#ad377fc55133176f069744a4bcb5e0364" target="_top" xlink:title=" ">
<polygon fill="white" stroke="#666666" points="565,-659 473,-659 473,-640 565,-640 565,-659"/>
<text text-anchor="middle" x="519" y="-647" font-family="Helvetica,sans-Serif" font-size="10.00">func_800C9018</text>
</a>
</g>
</g>
<!-- Node33&#45;&gt;Node35 -->
<g id="edge22_Node000033_Node000035" class="edge">
<title>Node33&#45;&gt;Node35</title>
<g id="a_edge22_Node000033_Node000035"><a xlink:title=" ">
<path fill="none" stroke="#63b8ff" d="M592.95,-661.47C583.67,-659.95 574.14,-658.38 565.15,-656.91"/>
<polygon fill="#63b8ff" stroke="#63b8ff" points="592.44,-664.93 602.87,-663.1 593.57,-658.02 592.44,-664.93"/>
</a>
</g>
</g>
<!-- Node91 -->
<g id="Node000091" class="node">
<title>Node91</title>
<g id="a_Node000091"><a xlink:href="external_8c.html#ae8a5e8ffbb625059aac9be15d4b2d310" target="_top" xlink:title=" ">
<polygon fill="white" stroke="#666666" points="565,-807 473,-807 473,-788 565,-788 565,-807"/>
<text text-anchor="middle" x="519" y="-795" font-family="Helvetica,sans-Serif" font-size="10.00">func_800C97C4</text>
</a>
</g>
</g>
<!-- Node33&#45;&gt;Node91 -->
<g id="edge40_Node000033_Node000091" class="edge">
<title>Node33&#45;&gt;Node91</title>
<g id="a_edge40_Node000033_Node000091"><a xlink:title=" ">
<path fill="none" stroke="#63b8ff" d="M631.13,-687.23C603.98,-714.17 551.43,-766.32 529.73,-787.84"/>
<polygon fill="#63b8ff" stroke="#63b8ff" points="633.75,-689.57 638.38,-680.05 628.82,-684.6 633.75,-689.57"/>
</a>
</g>
</g>
<!-- Node93 -->
<g id="Node000093" class="node">
<title>Node93</title>
<g id="a_Node000093"><a xlink:href="external_8c.html#ae72057869772019e4464c87d4e16c682" target="_top" xlink:title=" ">
<polygon fill="white" stroke="#666666" points="565,-366 473,-366 473,-347 565,-347 565,-366"/>
<text text-anchor="middle" x="519" y="-354" font-family="Helvetica,sans-Serif" font-size="10.00">func_800C99E0</text>
</a>
</g>
</g>
<!-- Node33&#45;&gt;Node93 -->
<g id="edge46_Node000033_Node000093" class="edge">
<title>Node33&#45;&gt;Node93</title>
<g id="a_edge46_Node000033_Node000093"><a xlink:title=" ">
<path fill="none" stroke="#63b8ff" d="M628.21,-654.25C619.12,-645.89 608.86,-635.04 602,-623.5 547.99,-532.63 526.5,-402.91 521.31,-366.4"/>
<polygon fill="#63b8ff" stroke="#63b8ff" points="625.96,-656.94 635.78,-660.92 630.59,-651.68 625.96,-656.94"/>
</a>
</g>
</g>
<!-- Node148 -->
<g id="Node000148" class="node">
<title>Node148</title>
<g id="a_Node000148"><a xlink:href="external_8c.html#a73831bcbe259500206651a0b4702be9f" target="_top" xlink:title=" ">
<polygon fill="white" stroke="#666666" points="565,-206 473,-206 473,-187 565,-187 565,-206"/>
<text text-anchor="middle" x="519" y="-194" font-family="Helvetica,sans-Serif" font-size="10.00">func_800C9EF4</text>
</a>
</g>
</g>
<!-- Node33&#45;&gt;Node148 -->
<g id="edge49_Node000033_Node000148" class="edge">
<title>Node33&#45;&gt;Node148</title>
<g id="a_edge49_Node000033_Node000148"><a xlink:title=" ">
<path fill="none" stroke="#63b8ff" d="M626.95,-654.41C617.75,-646.2 607.76,-635.43 602,-623.5 546.28,-508.14 593.99,-462.52 566,-337.5 554.69,-287 532.78,-228.88 523.89,-206.23"/>
<polygon fill="#63b8ff" stroke="#63b8ff" points="624.8,-657.17 634.7,-660.93 629.3,-651.82 624.8,-657.17"/>
</a>
</g>
</g>
<!-- Node169 -->
<g id="Node000169" class="node">
<title>Node169</title>
<g id="a_Node000169"><a xlink:href="external_8c.html#a3138069310bbed5109964d607d51811f" target="_top" xlink:title=" ">
<polygon fill="white" stroke="#666666" points="408,-19 313,-19 313,0 408,0 408,-19"/>
<text text-anchor="middle" x="360.5" y="-7" font-family="Helvetica,sans-Serif" font-size="10.00">func_800CAACC</text>
</a>
</g>
</g>
<!-- Node33&#45;&gt;Node169 -->
<g id="edge56_Node000033_Node000169" class="edge">
<title>Node33&#45;&gt;Node169</title>
<g id="a_edge56_Node000033_Node000169"><a xlink:title=" ">
<path fill="none" stroke="#63b8ff" d="M626.34,-654.19C617.19,-646.05 607.42,-635.39 602,-623.5 519.53,-442.54 656.47,-354.6 566,-177.5 543.89,-134.23 418.73,-47.79 375.89,-19.04"/>
<polygon fill="#63b8ff" stroke="#63b8ff" points="624.17,-656.94 634.09,-660.67 628.66,-651.57 624.17,-656.94"/>
</a>
</g>
</g>
<!-- Node34&#45;&gt;Node5 -->
<g id="edge20_Node000034_Node000005" class="edge">
<title>Node34&#45;&gt;Node5</title>
<g id="a_edge20_Node000034_Node000005"><a xlink:title=" ">
<path fill="none" stroke="#63b8ff" d="M472.31,-846.36C460.56,-848.9 447.88,-851.21 436,-852.5 369.28,-859.74 350.96,-864.89 285,-852.5 257.17,-847.27 227.02,-834.13 208.32,-825"/>
<polygon fill="#63b8ff" stroke="#63b8ff" points="473.37,-849.71 482.35,-844.08 471.83,-842.88 473.37,-849.71"/>
</a>
</g>
</g>
<!-- Node35&#45;&gt;Node4 -->
<g id="edge30_Node000035_Node000004" class="edge">
<title>Node35&#45;&gt;Node4</title>
<g id="a_edge30_Node000035_Node000004"><a xlink:title=" ">
<path fill="none" stroke="#63b8ff" d="M510.52,-668.47C500.83,-693.44 483.8,-738.82 472,-778.5 452.46,-844.22 484.13,-879.68 436,-928.5 428.13,-936.48 417.4,-941.27 406.54,-944.11"/>
<polygon fill="#63b8ff" stroke="#63b8ff" points="513.8,-669.68 514.18,-659.09 507.28,-667.13 513.8,-669.68"/>
</a>
</g>
</g>
<!-- Node36 -->
<g id="Node000036" class="node">
<title>Node36</title>
<g id="a_Node000036"><a xlink:href="player__controller_8c.html#a1796f758711d87699791687c8c8ea84f" target="_top" xlink:title=" ">
<polygon fill="white" stroke="#666666" points="407,-770 314,-770 314,-751 407,-751 407,-770"/>
<text text-anchor="middle" x="360.5" y="-758" font-family="Helvetica,sans-Serif" font-size="10.00">func_80027EDC</text>
</a>
</g>
</g>
<!-- Node35&#45;&gt;Node36 -->
<g id="edge23_Node000035_Node000036" class="edge">
<title>Node35&#45;&gt;Node36</title>
<g id="a_edge23_Node000035_Node000036"><a xlink:title=" ">
<path fill="none" stroke="#63b8ff" d="M506.54,-667.93C492.5,-688.95 466.76,-722.8 436,-741.5 427.33,-746.77 417.24,-750.59 407.34,-753.35"/>
<polygon fill="#63b8ff" stroke="#63b8ff" points="509.64,-669.58 512.14,-659.28 503.77,-665.77 509.64,-669.58"/>
</a>
</g>
</g>
<!-- Node49 -->
<g id="Node000049" class="node">
<title>Node49</title>
<g id="a_Node000049"><a xlink:href="update__objects_8c.html#a494d2eda5e833a373c2f02eae59d972c" target="_top" xlink:title=" ">
<polygon fill="#fff0f0" stroke="red" points="406,-733 315,-733 315,-714 406,-714 406,-733"/>
<text text-anchor="middle" x="360.5" y="-721" font-family="Helvetica,sans-Serif" font-size="10.00">func_800791F0</text>
</a>
</g>
</g>
<!-- Node35&#45;&gt;Node49 -->
<g id="edge25_Node000035_Node000049" class="edge">
<title>Node35&#45;&gt;Node49</title>
<g id="a_edge25_Node000035_Node000049"><a xlink:title=" ">
<path fill="none" stroke="#63b8ff" d="M498.51,-665.38C482.57,-677.65 458.98,-694.23 436,-704.5 426.62,-708.69 416.14,-712.08 406.07,-714.77"/>
<polygon fill="#63b8ff" stroke="#63b8ff" points="500.84,-668 506.53,-659.07 496.51,-662.5 500.84,-668"/>
</a>
</g>
</g>
<!-- Node66 -->
<g id="Node000066" class="node">
<title>Node66</title>
<g id="a_Node000066"><a xlink:href="update__objects_8c.html#a5b10e163d17f78f43ec59de3a5c401a0" target="_top" xlink:title=" ">
<polygon fill="#fff0f0" stroke="red" points="406.5,-696 314.5,-696 314.5,-677 406.5,-677 406.5,-696"/>
<text text-anchor="middle" x="360.5" y="-684" font-family="Helvetica,sans-Serif" font-size="10.00">func_8007B34C</text>
</a>
</g>
</g>
<!-- Node35&#45;&gt;Node66 -->
<g id="edge26_Node000035_Node000066" class="edge">
<title>Node35&#45;&gt;Node66</title>
<g id="a_edge26_Node000035_Node000066"><a xlink:title=" ">
<path fill="none" stroke="#63b8ff" d="M467.85,-661.36C446.55,-666.39 422.05,-672.18 401.94,-676.94"/>
<polygon fill="#63b8ff" stroke="#63b8ff" points="468.77,-664.74 477.7,-659.03 467.16,-657.92 468.77,-664.74"/>
</a>
</g>
</g>
<!-- Node68 -->
<g id="Node000068" class="node">
<title>Node68</title>
<g id="a_Node000068"><a xlink:href="effects_8c.html#ad34129e6236b319a5bcedae86d59bc2c" target="_top" xlink:title=" ">
<polygon fill="#fff0f0" stroke="red" points="406,-659 315,-659 315,-640 406,-640 406,-659"/>
<text text-anchor="middle" x="360.5" y="-647" font-family="Helvetica,sans-Serif" font-size="10.00">func_80090970</text>
</a>
</g>
</g>
<!-- Node35&#45;&gt;Node68 -->
<g id="edge27_Node000035_Node000068" class="edge">
<title>Node35&#45;&gt;Node68</title>
<g id="a_edge27_Node000035_Node000068"><a xlink:title=" ">
<path fill="none" stroke="#63b8ff" d="M462.66,-649.5C444.14,-649.5 423.73,-649.5 406.12,-649.5"/>
<polygon fill="#63b8ff" stroke="#63b8ff" points="462.73,-653 472.73,-649.5 462.73,-646 462.73,-653"/>
</a>
</g>
</g>
<!-- Node73 -->
<g id="Node000073" class="node">
<title>Node73</title>
<g id="a_Node000073"><a xlink:href="external_8c.html#a6adc8dfd43ac90ecb9cbe18c1e56d762" target="_top" xlink:title=" ">
<polygon fill="white" stroke="#666666" points="406.5,-622 314.5,-622 314.5,-603 406.5,-603 406.5,-622"/>
<text text-anchor="middle" x="360.5" y="-610" font-family="Helvetica,sans-Serif" font-size="10.00">func_800C5E38</text>
</a>
</g>
</g>
<!-- Node35&#45;&gt;Node73 -->
<g id="edge28_Node000035_Node000073" class="edge">
<title>Node35&#45;&gt;Node73</title>
<g id="a_edge28_Node000035_Node000073"><a xlink:title=" ">
<path fill="none" stroke="#63b8ff" d="M467.85,-637.64C446.55,-632.61 422.05,-626.82 401.94,-622.06"/>
<polygon fill="#63b8ff" stroke="#63b8ff" points="467.16,-641.08 477.7,-639.97 468.77,-634.26 467.16,-641.08"/>
</a>
</g>
</g>
<!-- Node74 -->
<g id="Node000074" class="node">
<title>Node74</title>
<g id="a_Node000074"><a xlink:href="external_8c.html#ab95692e47151e93fb7d149534da6a180" target="_top" xlink:title=" ">
<polygon fill="white" stroke="#666666" points="406.5,-807 314.5,-807 314.5,-788 406.5,-788 406.5,-807"/>
<text text-anchor="middle" x="360.5" y="-795" font-family="Helvetica,sans-Serif" font-size="10.00">func_800C847C</text>
</a>
</g>
</g>
<!-- Node35&#45;&gt;Node74 -->
<g id="edge31_Node000035_Node000074" class="edge">
<title>Node35&#45;&gt;Node74</title>
<g id="a_edge31_Node000035_Node000074"><a xlink:title=" ">
<path fill="none" stroke="#63b8ff" d="M511.17,-668.6C499.99,-697.04 475.06,-750.19 436,-778.5 427.46,-784.69 417.1,-788.87 406.85,-791.69"/>
<polygon fill="#63b8ff" stroke="#63b8ff" points="514.53,-669.61 514.78,-659.02 507.98,-667.14 514.53,-669.61"/>
</a>
</g>
</g>
<!-- Node75 -->
<g id="Node000075" class="node">
<title>Node75</title>
<g id="a_Node000075"><a xlink:href="external_8c.html#ac32b332e8b9a73af543741393186060d" target="_top" xlink:title=" ">
<polygon fill="white" stroke="#666666" points="406.5,-585 314.5,-585 314.5,-566 406.5,-566 406.5,-585"/>
<text text-anchor="middle" x="360.5" y="-573" font-family="Helvetica,sans-Serif" font-size="10.00">func_800CA730</text>
</a>
</g>
</g>
<!-- Node35&#45;&gt;Node75 -->
<g id="edge33_Node000035_Node000075" class="edge">
<title>Node35&#45;&gt;Node75</title>
<g id="a_edge33_Node000035_Node000075"><a xlink:title=" ">
<path fill="none" stroke="#63b8ff" d="M498.87,-633.45C482.97,-620.88 459.26,-603.84 436,-593.5 426.88,-589.45 416.71,-586.23 406.89,-583.69"/>
<polygon fill="#63b8ff" stroke="#63b8ff" points="496.87,-636.34 506.85,-639.91 501.27,-630.9 496.87,-636.34"/>
</a>
</g>
</g>
<!-- Node88 -->
<g id="Node000088" class="node">
<title>Node88</title>
<g id="a_Node000088"><a xlink:href="external_8c.html#aa00f6fbb1195ee18da20e61bd6ef5d97" target="_top" xlink:title=" ">
<polygon fill="#fff0f0" stroke="red" points="406.5,-548 314.5,-548 314.5,-529 406.5,-529 406.5,-548"/>
<text text-anchor="middle" x="360.5" y="-536" font-family="Helvetica,sans-Serif" font-size="10.00">func_800CB064</text>
</a>
</g>
</g>
<!-- Node35&#45;&gt;Node88 -->
<g id="edge36_Node000035_Node000088" class="edge">
<title>Node35&#45;&gt;Node88</title>
<g id="a_edge36_Node000035_Node000088"><a xlink:title=" ">
<path fill="none" stroke="#63b8ff" d="M507.03,-631.41C493.17,-610.15 467.31,-575.38 436,-556.5 427.11,-551.14 416.72,-547.38 406.58,-544.73"/>
<polygon fill="#63b8ff" stroke="#63b8ff" points="504.07,-633.28 512.37,-639.87 509.99,-629.54 504.07,-633.28"/>
</a>
</g>
</g>
<!-- Node64 -->
<g id="Node000064" class="node">
<title>Node64</title>
<g id="a_Node000064"><a xlink:href="update__objects_8c.html#a5a5fc982b29c525f677dd566bfca038e" target="_top" xlink:title=" ">
<polygon fill="#fff0f0" stroke="red" points="420,-510.5 301,-510.5 301,-480.5 420,-480.5 420,-510.5"/>
<text text-anchor="start" x="309" y="-498.5" font-family="Helvetica,sans-Serif" font-size="10.00">update_object_lakitu</text>
<text text-anchor="middle" x="360.5" y="-487.5" font-family="Helvetica,sans-Serif" font-size="10.00">_fishing</text>
</a>
</g>
</g>
<!-- Node35&#45;&gt;Node64 -->
<g id="edge37_Node000035_Node000064" class="edge">
<title>Node35&#45;&gt;Node64</title>
<g id="a_edge37_Node000035_Node000064"><a xlink:title=" ">
<path fill="none" stroke="#63b8ff" d="M510.81,-630.14C499.32,-601.77 474.14,-549.09 436,-519.5 431.17,-515.75 425.73,-512.58 420.06,-509.9"/>
<polygon fill="#63b8ff" stroke="#63b8ff" points="507.66,-631.67 514.55,-639.72 514.18,-629.13 507.66,-631.67"/>
</a>
</g>
</g>
<!-- Node65 -->
<g id="Node000065" class="node">
<title>Node65</title>
<g id="a_Node000065"><a xlink:href="update__objects_8c.html#a262b63dd3d6008cb2452a627c310c4a7" target="_top" xlink:title=" ">
<polygon fill="#fff0f0" stroke="red" points="420,-462.5 301,-462.5 301,-432.5 420,-432.5 420,-462.5"/>
<text text-anchor="start" x="309" y="-450.5" font-family="Helvetica,sans-Serif" font-size="10.00">update_object_lakitu</text>
<text text-anchor="middle" x="360.5" y="-439.5" font-family="Helvetica,sans-Serif" font-size="10.00">_fishing2</text>
</a>
</g>
</g>
<!-- Node35&#45;&gt;Node65 -->
<g id="edge38_Node000035_Node000065" class="edge">
<title>Node35&#45;&gt;Node65</title>
<g id="a_edge38_Node000035_Node000065"><a xlink:title=" ">
<path fill="none" stroke="#63b8ff" d="M514.37,-629.88C506.59,-593.4 484.91,-514.87 436,-471.5 431.32,-467.35 425.92,-463.92 420.21,-461.08"/>
<polygon fill="#63b8ff" stroke="#63b8ff" points="510.95,-630.66 516.35,-639.77 517.82,-629.28 510.95,-630.66"/>
</a>
</g>
</g>
<!-- Node60 -->
<g id="Node000060" class="node">
<title>Node60</title>
<g id="a_Node000060"><a xlink:href="update__objects_8c.html#ad11800c1ce772be2b43f56f32ce498f8" target="_top" xlink:title=" ">
<polygon fill="#fff0f0" stroke="red" points="420,-414.5 301,-414.5 301,-384.5 420,-384.5 420,-414.5"/>
<text text-anchor="start" x="309" y="-402.5" font-family="Helvetica,sans-Serif" font-size="10.00">update_object_lakitu</text>
<text text-anchor="middle" x="360.5" y="-391.5" font-family="Helvetica,sans-Serif" font-size="10.00">_reverse</text>
</a>
</g>
</g>
<!-- Node35&#45;&gt;Node60 -->
<g id="edge39_Node000035_Node000060" class="edge">
<title>Node35&#45;&gt;Node60</title>
<g id="a_edge39_Node000035_Node000060"><a xlink:title=" ">
<path fill="none" stroke="#63b8ff" d="M516.52,-629.58C512.21,-585.95 495.85,-481.21 436,-423.5 431.4,-419.07 425.98,-415.45 420.2,-412.51"/>
<polygon fill="#63b8ff" stroke="#63b8ff" points="513.05,-630.08 517.41,-639.74 520.02,-629.47 513.05,-630.08"/>
</a>
</g>
</g>
<!-- Node37 -->
<g id="Node000037" class="node">
<title>Node37</title>
<g id="a_Node000037"><a xlink:href="player__controller_8c.html#aafe8b94ccd61104120a9bf0ee954a901" target="_top" xlink:title=" ">
<polygon fill="#fff0f0" stroke="red" points="235,-770 143,-770 143,-751 235,-751 235,-770"/>
<text text-anchor="middle" x="189" y="-758" font-family="Helvetica,sans-Serif" font-size="10.00">func_8002D268</text>
</a>
</g>
</g>
<!-- Node36&#45;&gt;Node37 -->
<g id="edge24_Node000036_Node000037" class="edge">
<title>Node36&#45;&gt;Node37</title>
<g id="a_edge24_Node000036_Node000037"><a xlink:title=" ">
<path fill="none" stroke="#63b8ff" d="M303.34,-760.5C281.15,-760.5 255.99,-760.5 235.03,-760.5"/>
<polygon fill="#63b8ff" stroke="#63b8ff" points="303.63,-764 313.63,-760.5 303.63,-757 303.63,-764"/>
</a>
</g>
</g>
<!-- Node73&#45;&gt;Node5 -->
<g id="edge29_Node000073_Node000005" class="edge">
<title>Node73&#45;&gt;Node5</title>
<g id="a_edge29_Node000073_Node000005"><a xlink:title=" ">
<path fill="none" stroke="#63b8ff" d="M304.19,-618.5C297.05,-621.27 290.37,-625.14 285,-630.5 237.09,-678.33 288.59,-723.59 249,-778.5 240.16,-790.76 225.89,-799.87 213.59,-805.98"/>
<polygon fill="#63b8ff" stroke="#63b8ff" points="305.64,-621.71 314.12,-615.36 303.53,-615.03 305.64,-621.71"/>
</a>
</g>
</g>
<!-- Node74&#45;&gt;Node5 -->
<g id="edge32_Node000074_Node000005" class="edge">
<title>Node74&#45;&gt;Node5</title>
<g id="a_edge32_Node000074_Node000005"><a xlink:title=" ">
<path fill="none" stroke="#63b8ff" d="M303.9,-803.4C281.96,-805.73 257.06,-808.38 236.14,-810.6"/>
<polygon fill="#63b8ff" stroke="#63b8ff" points="304.5,-806.86 314.08,-802.32 303.76,-799.9 304.5,-806.86"/>
</a>
</g>
</g>
<!-- Node76 -->
<g id="Node000076" class="node">
<title>Node76</title>
<g id="a_Node000076"><a xlink:href="effects_8c.html#ab044d6f7bf1cacf740cf0a27ea0902b5" target="_top" xlink:title=" ">
<polygon fill="#fff0f0" stroke="red" points="239.5,-453 138.5,-453 138.5,-434 239.5,-434 239.5,-453"/>
<text text-anchor="middle" x="189" y="-441" font-family="Helvetica,sans-Serif" font-size="10.00">apply_star_effect</text>
</a>
</g>
</g>
<!-- Node75&#45;&gt;Node76 -->
<g id="edge34_Node000075_Node000076" class="edge">
<title>Node75&#45;&gt;Node76</title>
<g id="a_edge34_Node000075_Node000076"><a xlink:title=" ">
<path fill="none" stroke="#63b8ff" d="M304.33,-565.62C297.54,-563.21 290.92,-560.22 285,-556.5 241.37,-529.1 207.69,-475.07 195.23,-453.11"/>
<polygon fill="#63b8ff" stroke="#63b8ff" points="303.73,-569.1 314.32,-568.75 305.82,-562.42 303.73,-569.1"/>
</a>
</g>
</g>
<!-- Node77 -->
<g id="Node000077" class="node">
<title>Node77</title>
<g id="a_Node000077"><a xlink:href="effects_8c.html#ae1bacd987d7f12fc5960f838a7dbe137" target="_top" xlink:title=" ">
<polygon fill="#fff0f0" stroke="red" points="235,-152 143,-152 143,-133 235,-133 235,-152"/>
<text text-anchor="middle" x="189" y="-140" font-family="Helvetica,sans-Serif" font-size="10.00">func_8008F86C</text>
</a>
</g>
</g>
<!-- Node75&#45;&gt;Node77 -->
<g id="edge35_Node000075_Node000077" class="edge">
<title>Node75&#45;&gt;Node77</title>
<g id="a_edge35_Node000075_Node000077"><a xlink:title=" ">
<path fill="none" stroke="#63b8ff" d="M304.84,-569.08C297.44,-566.19 290.51,-562.14 285,-556.5 270.06,-541.2 204.18,-213.62 191.95,-152.33"/>
<polygon fill="#63b8ff" stroke="#63b8ff" points="303.81,-572.43 314.41,-572.16 305.96,-565.77 303.81,-572.43"/>
</a>
</g>
</g>
<!-- Node91&#45;&gt;Node4 -->
<g id="edge44_Node000091_Node000004" class="edge">
<title>Node91&#45;&gt;Node4</title>
<g id="a_edge44_Node000091_Node000004"><a xlink:title=" ">
<path fill="none" stroke="#63b8ff" d="M474.83,-812.8C473.84,-813.65 472.89,-814.55 472,-815.5 435.95,-853.95 474.35,-892.34 436,-928.5 427.94,-936.1 417.27,-940.77 406.54,-943.61"/>
<polygon fill="#63b8ff" stroke="#63b8ff" points="476.88,-815.63 483.19,-807.12 472.95,-809.84 476.88,-815.63"/>
</a>
</g>
</g>
<!-- Node91&#45;&gt;Node9 -->
<g id="edge41_Node000091_Node000009" class="edge">
<title>Node91&#45;&gt;Node9</title>
<g id="a_edge41_Node000091_Node000009"><a xlink:title=" ">
<path fill="none" stroke="#63b8ff" d="M478.7,-811.52C476.38,-812.76 474.13,-814.09 472,-815.5 452.88,-828.19 453.09,-837.19 436,-852.5 415.61,-870.76 390.12,-889.88 374.86,-900.97"/>
<polygon fill="#63b8ff" stroke="#63b8ff" points="480.35,-814.61 487.87,-807.15 477.34,-808.29 480.35,-814.61"/>
</a>
</g>
</g>
<!-- Node91&#45;&gt;Node74 -->
<g id="edge45_Node000091_Node000074" class="edge">
<title>Node91&#45;&gt;Node74</title>
<g id="a_edge45_Node000091_Node000074"><a xlink:title=" ">
<path fill="none" stroke="#63b8ff" d="M462.5,-797.5C444.2,-797.5 424.09,-797.5 406.66,-797.5"/>
<polygon fill="#63b8ff" stroke="#63b8ff" points="462.73,-801 472.73,-797.5 462.73,-794 462.73,-801"/>
</a>
</g>
</g>
<!-- Node92 -->
<g id="Node000092" class="node">
<title>Node92</title>
<g id="a_Node000092"><a xlink:href="external_8c.html#a9d558c81c8735c602351fbcdb517f632" target="_top" xlink:title=" ">
<polygon fill="white" stroke="#666666" points="407,-844 314,-844 314,-825 407,-825 407,-844"/>
<text text-anchor="middle" x="360.5" y="-832" font-family="Helvetica,sans-Serif" font-size="10.00">func_800C5D04</text>
</a>
</g>
</g>
<!-- Node91&#45;&gt;Node92 -->
<g id="edge42_Node000091_Node000092" class="edge">
<title>Node91&#45;&gt;Node92</title>
<g id="a_edge42_Node000091_Node000092"><a xlink:title=" ">
<path fill="none" stroke="#63b8ff" d="M467.85,-809.36C446.55,-814.39 422.05,-820.18 401.94,-824.94"/>
<polygon fill="#63b8ff" stroke="#63b8ff" points="468.77,-812.74 477.7,-807.03 467.16,-805.92 468.77,-812.74"/>
</a>
</g>
</g>
<!-- Node92&#45;&gt;Node5 -->
<g id="edge43_Node000092_Node000005" class="edge">
<title>Node92&#45;&gt;Node5</title>
<g id="a_edge43_Node000092_Node000005"><a xlink:title=" ">
<path fill="none" stroke="#63b8ff" d="M303.51,-828.22C281.69,-825.78 256.98,-823.01 236.2,-820.68"/>
<polygon fill="#63b8ff" stroke="#63b8ff" points="303.3,-831.72 313.63,-829.36 304.08,-824.77 303.3,-831.72"/>
</a>
</g>
</g>
<!-- Node94 -->
<g id="Node000094" class="node">
<title>Node94</title>
<g id="a_Node000094"><a xlink:href="actors_8c.html#ad5a56c8f7eaf719223099cce9e38ec9f" target="_top" xlink:title=" ">
<polygon fill="#fff0f0" stroke="red" points="436,-366 285,-366 285,-347 436,-347 436,-366"/>
<text text-anchor="middle" x="360.5" y="-354" font-family="Helvetica,sans-Serif" font-size="10.00">play_sound_before_destroy</text>
</a>
</g>
</g>
<!-- Node93&#45;&gt;Node94 -->
<g id="edge47_Node000093_Node000094" class="edge">
<title>Node93&#45;&gt;Node94</title>
<g id="a_edge47_Node000093_Node000094"><a xlink:title=" ">
<path fill="none" stroke="#63b8ff" d="M462.53,-356.5C453.98,-356.5 445.03,-356.5 436.15,-356.5"/>
<polygon fill="#63b8ff" stroke="#63b8ff" points="462.73,-360 472.73,-356.5 462.73,-353 462.73,-360"/>
</a>
</g>
</g>
<!-- Node136 -->
<g id="Node000136" class="node">
<title>Node136</title>
<g id="a_Node000136"><a xlink:href="actors_8c.html#a6951c1c13419e76bc60a8121fef835ab" target="_top" xlink:title=" ">
<polygon fill="#fff0f0" stroke="red" points="414.5,-329 306.5,-329 306.5,-310 414.5,-310 414.5,-329"/>
<text text-anchor="middle" x="360.5" y="-317" font-family="Helvetica,sans-Serif" font-size="10.00">render_actor_cows</text>
</a>
</g>
</g>
<!-- Node93&#45;&gt;Node136 -->
<g id="edge48_Node000093_Node000136" class="edge">
<title>Node93&#45;&gt;Node136</title>
<g id="a_edge48_Node000093_Node000136"><a xlink:title=" ">
<path fill="none" stroke="#63b8ff" d="M467.85,-344.64C446.55,-339.61 422.05,-333.82 401.94,-329.06"/>
<polygon fill="#63b8ff" stroke="#63b8ff" points="467.16,-348.08 477.7,-346.97 468.77,-341.26 467.16,-348.08"/>
</a>
</g>
</g>
<!-- Node149 -->
<g id="Node000149" class="node">
<title>Node149</title>
<g id="a_Node000149"><a xlink:href="actors_8c.html#a53268aa601911d56424ff08fb3395bcb" target="_top" xlink:title=" ">
<polygon fill="#fff0f0" stroke="red" points="420,-291.5 301,-291.5 301,-261.5 420,-261.5 420,-291.5"/>
<text text-anchor="start" x="309" y="-279.5" font-family="Helvetica,sans-Serif" font-size="10.00">destroy_destructable</text>
<text text-anchor="middle" x="360.5" y="-268.5" font-family="Helvetica,sans-Serif" font-size="10.00">_actor</text>
</a>
</g>
</g>
<!-- Node148&#45;&gt;Node149 -->
<g id="edge50_Node000148_Node000149" class="edge">
<title>Node148&#45;&gt;Node149</title>
<g id="a_edge50_Node000148_Node000149"><a xlink:title=" ">
<path fill="none" stroke="#63b8ff" d="M497.74,-212.33C481.69,-224.31 458.32,-240.52 436,-251.5 428.53,-255.17 420.39,-258.52 412.33,-261.48"/>
<polygon fill="#63b8ff" stroke="#63b8ff" points="500,-215.01 505.85,-206.17 495.77,-209.43 500,-215.01"/>
</a>
</g>
</g>
<!-- Node156 -->
<g id="Node000156" class="node">
<title>Node156</title>
<g id="a_Node000156"><a xlink:href="code__80005FD0_8c.html#aacd735985e2a36a6443fdf5d57fa54c4" target="_top" xlink:title=" ">
<polygon fill="#fff0f0" stroke="red" points="406.5,-243 314.5,-243 314.5,-224 406.5,-224 406.5,-243"/>
<text text-anchor="middle" x="360.5" y="-231" font-family="Helvetica,sans-Serif" font-size="10.00">func_80013F7C</text>
</a>
</g>
</g>
<!-- Node148&#45;&gt;Node156 -->
<g id="edge51_Node000148_Node000156" class="edge">
<title>Node148&#45;&gt;Node156</title>
<g id="a_edge51_Node000148_Node000156"><a xlink:title=" ">
<path fill="none" stroke="#63b8ff" d="M467.85,-208.36C446.55,-213.39 422.05,-219.18 401.94,-223.94"/>
<polygon fill="#63b8ff" stroke="#63b8ff" points="468.77,-211.74 477.7,-206.03 467.16,-204.92 468.77,-211.74"/>
</a>
</g>
</g>
<!-- Node161 -->
<g id="Node000161" class="node">
<title>Node161</title>
<g id="a_Node000161"><a xlink:href="update__objects_8c.html#a401992e1c9638d1a48190456bd7af9a3" target="_top" xlink:title=" ">
<polygon fill="#fff0f0" stroke="red" points="406.5,-206 314.5,-206 314.5,-187 406.5,-187 406.5,-206"/>
<text text-anchor="middle" x="360.5" y="-194" font-family="Helvetica,sans-Serif" font-size="10.00">func_8007601C</text>
</a>
</g>
</g>
<!-- Node148&#45;&gt;Node161 -->
<g id="edge52_Node000148_Node000161" class="edge">
<title>Node148&#45;&gt;Node161</title>
<g id="a_edge52_Node000148_Node000161"><a xlink:title=" ">
<path fill="none" stroke="#63b8ff" d="M462.5,-196.5C444.2,-196.5 424.09,-196.5 406.66,-196.5"/>
<polygon fill="#63b8ff" stroke="#63b8ff" points="462.73,-200 472.73,-196.5 462.73,-193 462.73,-200"/>
</a>
</g>
</g>
<!-- Node164 -->
<g id="Node000164" class="node">
<title>Node164</title>
<g id="a_Node000164"><a xlink:href="update__objects_8c.html#a269298ce38d852af33c677ae12781528" target="_top" xlink:title=" ">
<polygon fill="#fff0f0" stroke="red" points="406.5,-169 314.5,-169 314.5,-150 406.5,-150 406.5,-169"/>
<text text-anchor="middle" x="360.5" y="-157" font-family="Helvetica,sans-Serif" font-size="10.00">func_8007661C</text>
</a>
</g>
</g>
<!-- Node148&#45;&gt;Node164 -->
<g id="edge53_Node000148_Node000164" class="edge">
<title>Node148&#45;&gt;Node164</title>
<g id="a_edge53_Node000148_Node000164"><a xlink:title=" ">
<path fill="none" stroke="#63b8ff" d="M467.85,-184.64C446.55,-179.61 422.05,-173.82 401.94,-169.06"/>
<polygon fill="#63b8ff" stroke="#63b8ff" points="467.16,-188.08 477.7,-186.97 468.77,-181.26 467.16,-188.08"/>
</a>
</g>
</g>
<!-- Node165 -->
<g id="Node000165" class="node">
<title>Node165</title>
<g id="a_Node000165"><a xlink:href="update__objects_8c.html#aee48f5ac3342922cbf8cd98976679dad" target="_top" xlink:title=" ">
<polygon fill="#fff0f0" stroke="red" points="408,-132 313,-132 313,-113 408,-113 408,-132"/>
<text text-anchor="middle" x="360.5" y="-120" font-family="Helvetica,sans-Serif" font-size="10.00">func_8007DDC0</text>
</a>
</g>
</g>
<!-- Node148&#45;&gt;Node165 -->
<g id="edge54_Node000148_Node000165" class="edge">
<title>Node148&#45;&gt;Node165</title>
<g id="a_edge54_Node000148_Node000165"><a xlink:title=" ">
<path fill="none" stroke="#63b8ff" d="M498.87,-180.45C482.97,-167.88 459.26,-150.84 436,-140.5 427.24,-136.61 417.52,-133.48 408.07,-131"/>
<polygon fill="#63b8ff" stroke="#63b8ff" points="496.87,-183.34 506.85,-186.91 501.27,-177.9 496.87,-183.34"/>
</a>
</g>
</g>
<!-- Node167 -->
<g id="Node000167" class="node">
<title>Node167</title>
<g id="a_Node000167"><a xlink:href="update__objects_8c.html#a6c7938339fa5406ffe336278a92aa7ad" target="_top" xlink:title=" ">
<polygon fill="#fff0f0" stroke="red" points="406,-95 315,-95 315,-76 406,-76 406,-95"/>
<text text-anchor="middle" x="360.5" y="-83" font-family="Helvetica,sans-Serif" font-size="10.00">func_8007E1F4</text>
</a>
</g>
</g>
<!-- Node148&#45;&gt;Node167 -->
<g id="edge55_Node000148_Node000167" class="edge">
<title>Node148&#45;&gt;Node167</title>
<g id="a_edge55_Node000148_Node000167"><a xlink:title=" ">
<path fill="none" stroke="#63b8ff" d="M498.35,-180.24C489.84,-172.78 480.02,-163.6 472,-154.5 453.65,-133.69 458.95,-119.09 436,-103.5 427.19,-97.52 416.62,-93.52 406.23,-90.84"/>
<polygon fill="#63b8ff" stroke="#63b8ff" points="496.13,-182.94 506,-186.79 500.68,-177.63 496.13,-182.94"/>
</a>
</g>
</g>
<!-- Node169&#45;&gt;Node76 -->
<g id="edge57_Node000169_Node000076" class="edge">
<title>Node169&#45;&gt;Node76</title>
<g id="a_edge57_Node000169_Node000076"><a xlink:title=" ">
<path fill="none" stroke="#63b8ff" d="M303.19,-20.48C296.38,-23.75 290.06,-28 285,-33.5 270.66,-49.1 204.29,-373.15 191.97,-433.78"/>
<polygon fill="#63b8ff" stroke="#63b8ff" points="304.78,-23.61 312.71,-16.59 302.13,-17.13 304.78,-23.61"/>
</a>
</g>
</g>
<!-- Node169&#45;&gt;Node77 -->
<g id="edge58_Node000169_Node000077" class="edge">
<title>Node169&#45;&gt;Node77</title>
<g id="a_edge58_Node000169_Node000077"><a xlink:title=" ">
<path fill="none" stroke="#63b8ff" d="M306.69,-22.52C299.1,-25.51 291.62,-29.14 285,-33.5 243.29,-60.99 209.02,-111.61 195.83,-132.78"/>
<polygon fill="#63b8ff" stroke="#63b8ff" points="308.09,-25.74 316.32,-19.06 305.72,-19.15 308.09,-25.74"/>
</a>
</g>
</g>
<!-- Node171 -->
<g id="Node000171" class="node">
<title>Node171</title>
<g id="a_Node000171"><a xlink:href="external_8c.html#acc8bf31951751f8c1884eb37d49f4fbd" target="_top" xlink:title=" ">
<polygon fill="white" stroke="#666666" points="695.5,-615 602.5,-615 602.5,-596 695.5,-596 695.5,-615"/>
<text text-anchor="middle" x="649" y="-603" font-family="Helvetica,sans-Serif" font-size="10.00">func_800CAC08</text>
</a>
</g>
</g>
<!-- Node170&#45;&gt;Node171 -->
<g id="edge60_Node000170_Node000171" class="edge">
<title>Node170&#45;&gt;Node171</title>
<g id="a_edge60_Node000170_Node000171"><a xlink:title=" ">
<path fill="none" stroke="#63b8ff" d="M721.83,-605.5C713.16,-605.5 704.27,-605.5 695.84,-605.5"/>
<polygon fill="#63b8ff" stroke="#63b8ff" points="721.87,-609 731.87,-605.5 721.87,-602 721.87,-609"/>
</a>
</g>
</g>
<!-- Node173 -->
<g id="Node000173" class="node">
<title>Node173</title>
<g id="a_Node000173"><a xlink:href="external_8c.html#a136efe63ecddf15d836c739c28cbfe41" target="_top" xlink:title=" ">
<polygon fill="white" stroke="#666666" points="696,-578 602,-578 602,-559 696,-559 696,-578"/>
<text text-anchor="middle" x="649" y="-566" font-family="Helvetica,sans-Serif" font-size="10.00">func_800CAD40</text>
</a>
</g>
</g>
<!-- Node170&#45;&gt;Node173 -->
<g id="edge63_Node000170_Node000173" class="edge">
<title>Node170&#45;&gt;Node173</title>
<g id="a_edge63_Node000170_Node000173"><a xlink:title=" ">
<path fill="none" stroke="#63b8ff" d="M734.69,-593.17C717.87,-588.27 698.81,-582.72 683.04,-578.12"/>
<polygon fill="#63b8ff" stroke="#63b8ff" points="733.71,-596.53 744.29,-595.97 735.67,-589.81 733.71,-596.53"/>
</a>
</g>
</g>
<!-- Node172 -->
<g id="Node000172" class="node">
<title>Node172</title>
<g id="a_Node000172"><a xlink:href="external_8c.html#ab244f7b0fefaa03321288d8a1b265452" target="_top" xlink:title=" ">
<polygon fill="white" stroke="#666666" points="565,-76 473,-76 473,-57 565,-57 565,-76"/>
<text text-anchor="middle" x="519" y="-64" font-family="Helvetica,sans-Serif" font-size="10.00">func_800C8920</text>
</a>
</g>
</g>
<!-- Node171&#45;&gt;Node172 -->
<g id="edge61_Node000171_Node000172" class="edge">
<title>Node171&#45;&gt;Node172</title>
<g id="a_edge61_Node000171_Node000172"><a xlink:title=" ">
<path fill="none" stroke="#63b8ff" d="M604.62,-589.62C603.68,-588.64 602.8,-587.6 602,-586.5 541.71,-503.56 602.7,-222.24 566,-126.5 558.29,-106.4 541.58,-87.43 530.57,-76.39"/>
<polygon fill="#63b8ff" stroke="#63b8ff" points="602.8,-592.64 612.85,-596 607.09,-587.1 602.8,-592.64"/>
</a>
</g>
</g>
<!-- Node172&#45;&gt;Node5 -->
<g id="edge62_Node000172_Node000005" class="edge">
<title>Node172&#45;&gt;Node5</title>
<g id="a_edge62_Node000172_Node000005"><a xlink:title=" ">
<path fill="none" stroke="#63b8ff" d="M484.12,-53.75C433.48,-37.14 338.32,-15.81 285,-66.5 227.59,-121.08 289.09,-710.18 249,-778.5 241.66,-791.01 228.24,-799.93 216.05,-805.86"/>
<polygon fill="#63b8ff" stroke="#63b8ff" points="483.03,-57.08 493.63,-56.99 485.29,-50.45 483.03,-57.08"/>
</a>
</g>
</g>
</g>
</svg>
