<?xml version="1.0" encoding="UTF-8" standalone="no"?>
<!DOCTYPE svg PUBLIC "-//W3C//DTD SVG 1.1//EN"
 "http://www.w3.org/Graphics/SVG/1.1/DTD/svg11.dtd">
<!-- Generated by graphviz version 2.43.0 (0)
 -->
<!-- Title: func_800C357C Pages: 1 -->
<svg width="2151pt" height="289pt"
 viewBox="0.00 0.00 2151.00 289.00" xmlns="http://www.w3.org/2000/svg" xmlns:xlink="http://www.w3.org/1999/xlink">
<g id="graph0" class="graph" transform="scale(1 1) rotate(0) translate(4 285)">
<title>func_800C357C</title>
<!-- Node1 -->
<g id="Node000001" class="node">
<title>Node1</title>
<g id="a_Node000001"><a xlink:title=" ">
<polygon fill="#999999" stroke="#666666" points="2143,-99 2051,-99 2051,-80 2143,-80 2143,-99"/>
<text text-anchor="middle" x="2097" y="-87" font-family="Helvetica,sans-Serif" font-size="10.00">func_800C357C</text>
</a>
</g>
</g>
<!-- Node2 -->
<g id="Node000002" class="node">
<title>Node2</title>
<g id="a_Node000002"><a xlink:href="external_8c.html#aac0d64d382e8e46860f0f987899ecdf0" target="_top" xlink:title=" ">
<polygon fill="white" stroke="#666666" points="2015,-128 1922,-128 1922,-109 2015,-109 2015,-128"/>
<text text-anchor="middle" x="1968.5" y="-116" font-family="Helvetica,sans-Serif" font-size="10.00">func_800CA59C</text>
</a>
</g>
</g>
<!-- Node1&#45;&gt;Node2 -->
<g id="edge1_Node000001_Node000002" class="edge">
<title>Node1&#45;&gt;Node2</title>
<g id="a_edge1_Node000001_Node000002"><a xlink:title=" ">
<path fill="none" stroke="#63b8ff" d="M2044.3,-101.35C2033.29,-103.88 2021.8,-106.51 2011.23,-108.93"/>
<polygon fill="#63b8ff" stroke="#63b8ff" points="2045.26,-104.72 2054.23,-99.08 2043.7,-97.9 2045.26,-104.72"/>
</a>
</g>
</g>
<!-- Node29 -->
<g id="Node000029" class="node">
<title>Node29</title>
<g id="a_Node000029"><a xlink:href="external_8c.html#ac32b332e8b9a73af543741393186060d" target="_top" xlink:title=" ">
<polygon fill="white" stroke="#666666" points="2014.5,-81 1922.5,-81 1922.5,-62 2014.5,-62 2014.5,-81"/>
<text text-anchor="middle" x="1968.5" y="-69" font-family="Helvetica,sans-Serif" font-size="10.00">func_800CA730</text>
</a>
</g>
</g>
<!-- Node1&#45;&gt;Node29 -->
<g id="edge40_Node000001_Node000029" class="edge">
<title>Node1&#45;&gt;Node29</title>
<g id="a_edge40_Node000001_Node000029"><a xlink:title=" ">
<path fill="none" stroke="#63b8ff" d="M2040.71,-81.63C2032.09,-80.41 2023.28,-79.15 2014.92,-77.96"/>
<polygon fill="#63b8ff" stroke="#63b8ff" points="2040.29,-85.11 2050.69,-83.05 2041.28,-78.18 2040.29,-85.11"/>
</a>
</g>
</g>
<!-- Node3 -->
<g id="Node000003" class="node">
<title>Node3</title>
<g id="a_Node000003"><a xlink:href="code__8008C1D0_8c.html#a2599648339bb4149c4d55e673795e974" target="_top" xlink:title=" ">
<polygon fill="white" stroke="#666666" points="1885.5,-147 1794.5,-147 1794.5,-128 1885.5,-128 1885.5,-147"/>
<text text-anchor="middle" x="1840" y="-135" font-family="Helvetica,sans-Serif" font-size="10.00">func_8008F778</text>
</a>
</g>
</g>
<!-- Node2&#45;&gt;Node3 -->
<g id="edge2_Node000002_Node000003" class="edge">
<title>Node2&#45;&gt;Node3</title>
<g id="a_edge2_Node000002_Node000003"><a xlink:title=" ">
<path fill="none" stroke="#63b8ff" d="M1911.75,-126.87C1903.05,-128.18 1894.16,-129.51 1885.75,-130.78"/>
<polygon fill="#63b8ff" stroke="#63b8ff" points="1912.46,-130.31 1921.83,-125.36 1911.42,-123.38 1912.46,-130.31"/>
</a>
</g>
</g>
<!-- Node4 -->
<g id="Node000004" class="node">
<title>Node4</title>
<g id="a_Node000004"><a xlink:href="player__controller_8c.html#a9a5f0b2f998d39cc1e936cc660c36fe7" target="_top" xlink:title=" ">
<polygon fill="white" stroke="#666666" points="1758,-152 1666,-152 1666,-133 1758,-133 1758,-152"/>
<text text-anchor="middle" x="1712" y="-140" font-family="Helvetica,sans-Serif" font-size="10.00">func_8002B308</text>
</a>
</g>
</g>
<!-- Node3&#45;&gt;Node4 -->
<g id="edge3_Node000003_Node000004" class="edge">
<title>Node3&#45;&gt;Node4</title>
<g id="a_edge3_Node000003_Node000004"><a xlink:title=" ">
<path fill="none" stroke="#63b8ff" d="M1784.14,-139.68C1775.43,-140.02 1766.51,-140.38 1758.06,-140.71"/>
<polygon fill="#63b8ff" stroke="#63b8ff" points="1784.37,-143.17 1794.22,-139.28 1784.09,-136.18 1784.37,-143.17"/>
</a>
</g>
</g>
<!-- Node5 -->
<g id="Node000005" class="node">
<title>Node5</title>
<g id="a_Node000005"><a xlink:href="player__controller_8c.html#a6fe7f4df470550f8eb0f99443cca58f5" target="_top" xlink:title=" ">
<polygon fill="white" stroke="#666666" points="1502.5,-132 1410.5,-132 1410.5,-113 1502.5,-113 1502.5,-132"/>
<text text-anchor="middle" x="1456.5" y="-120" font-family="Helvetica,sans-Serif" font-size="10.00">func_8002B830</text>
</a>
</g>
</g>
<!-- Node4&#45;&gt;Node5 -->
<g id="edge4_Node000004_Node000005" class="edge">
<title>Node4&#45;&gt;Node5</title>
<g id="a_edge4_Node000004_Node000005"><a xlink:title=" ">
<path fill="none" stroke="#63b8ff" d="M1655.89,-138.15C1609.98,-134.53 1545.39,-129.43 1502.54,-126.05"/>
<polygon fill="#63b8ff" stroke="#63b8ff" points="1655.73,-141.65 1665.97,-138.95 1656.28,-134.67 1655.73,-141.65"/>
</a>
</g>
</g>
<!-- Node6 -->
<g id="Node000006" class="node">
<title>Node6</title>
<g id="a_Node000006"><a xlink:href="player__controller_8c.html#aeb6ae9d3608abc39cf4e0978a6930338" target="_top" xlink:title=" ">
<polygon fill="white" stroke="#666666" points="1374,-95 1243,-95 1243,-76 1374,-76 1374,-95"/>
<text text-anchor="middle" x="1308.5" y="-83" font-family="Helvetica,sans-Serif" font-size="10.00">control_cpu_movement</text>
</a>
</g>
</g>
<!-- Node5&#45;&gt;Node6 -->
<g id="edge5_Node000005_Node000006" class="edge">
<title>Node5&#45;&gt;Node6</title>
<g id="a_edge5_Node000005_Node000006"><a xlink:title=" ">
<path fill="none" stroke="#63b8ff" d="M1408.17,-110.51C1388.43,-105.5 1365.82,-99.77 1347.22,-95.06"/>
<polygon fill="#63b8ff" stroke="#63b8ff" points="1407.35,-113.91 1417.9,-112.97 1409.07,-107.12 1407.35,-113.91"/>
</a>
</g>
</g>
<!-- Node19 -->
<g id="Node000019" class="node">
<title>Node19</title>
<g id="a_Node000019"><a xlink:href="player__controller_8c.html#aafe8b94ccd61104120a9bf0ee954a901" target="_top" xlink:title=" ">
<polygon fill="white" stroke="#666666" points="1354.5,-206 1262.5,-206 1262.5,-187 1354.5,-187 1354.5,-206"/>
<text text-anchor="middle" x="1308.5" y="-194" font-family="Helvetica,sans-Serif" font-size="10.00">func_8002D268</text>
</a>
</g>
</g>
<!-- Node5&#45;&gt;Node19 -->
<g id="edge21_Node000005_Node000019" class="edge">
<title>Node5&#45;&gt;Node19</title>
<g id="a_edge21_Node000005_Node000019"><a xlink:title=" ">
<path fill="none" stroke="#63b8ff" d="M1418.56,-136.39C1415.58,-137.97 1412.69,-139.67 1410,-141.5 1391.03,-154.4 1393.73,-166.79 1374,-178.5 1368.1,-182 1361.5,-184.84 1354.82,-187.15"/>
<polygon fill="#63b8ff" stroke="#63b8ff" points="1420.12,-139.52 1427.63,-132.04 1417.1,-133.21 1420.12,-139.52"/>
</a>
</g>
</g>
<!-- Node27 -->
<g id="Node000027" class="node">
<title>Node27</title>
<g id="a_Node000027"><a xlink:href="player__controller_8c.html#a3cde716e9abdd31cd55ca140c68e6b30" target="_top" xlink:title=" ">
<polygon fill="white" stroke="#666666" points="1354,-169 1263,-169 1263,-150 1354,-150 1354,-169"/>
<text text-anchor="middle" x="1308.5" y="-157" font-family="Helvetica,sans-Serif" font-size="10.00">func_8002E594</text>
</a>
</g>
</g>
<!-- Node5&#45;&gt;Node27 -->
<g id="edge34_Node000005_Node000027" class="edge">
<title>Node5&#45;&gt;Node27</title>
<g id="a_edge34_Node000005_Node000027"><a xlink:title=" ">
<path fill="none" stroke="#63b8ff" d="M1408.17,-134.49C1388.43,-139.5 1365.82,-145.23 1347.22,-149.94"/>
<polygon fill="#63b8ff" stroke="#63b8ff" points="1409.07,-137.88 1417.9,-132.03 1407.35,-131.09 1409.07,-137.88"/>
</a>
</g>
</g>
<!-- Node28 -->
<g id="Node000028" class="node">
<title>Node28</title>
<g id="a_Node000028"><a xlink:href="player__controller_8c.html#ae0f6e0f1235dc6879d78318ea5db353e" target="_top" xlink:title=" ">
<polygon fill="white" stroke="#666666" points="1354.5,-132 1262.5,-132 1262.5,-113 1354.5,-113 1354.5,-132"/>
<text text-anchor="middle" x="1308.5" y="-120" font-family="Helvetica,sans-Serif" font-size="10.00">func_80038C6C</text>
</a>
</g>
</g>
<!-- Node5&#45;&gt;Node28 -->
<g id="edge38_Node000005_Node000028" class="edge">
<title>Node5&#45;&gt;Node28</title>
<g id="a_edge38_Node000005_Node000028"><a xlink:title=" ">
<path fill="none" stroke="#63b8ff" d="M1399.94,-122.5C1384.96,-122.5 1368.94,-122.5 1354.62,-122.5"/>
<polygon fill="#63b8ff" stroke="#63b8ff" points="1400.11,-126 1410.11,-122.5 1400.1,-119 1400.11,-126"/>
</a>
</g>
</g>
<!-- Node7 -->
<g id="Node000007" class="node">
<title>Node7</title>
<g id="a_Node000007"><a xlink:href="player__controller_8c.html#a9f21890266acabb27e962652c5ef4cfc" target="_top" xlink:title=" ">
<polygon fill="white" stroke="#666666" points="1206,-133 1115,-133 1115,-114 1206,-114 1206,-133"/>
<text text-anchor="middle" x="1160.5" y="-121" font-family="Helvetica,sans-Serif" font-size="10.00">func_80028864</text>
</a>
</g>
</g>
<!-- Node6&#45;&gt;Node7 -->
<g id="edge6_Node000006_Node000007" class="edge">
<title>Node6&#45;&gt;Node7</title>
<g id="a_edge6_Node000006_Node000007"><a xlink:title=" ">
<path fill="none" stroke="#63b8ff" d="M1260.96,-97.61C1240.63,-102.9 1217.13,-109.02 1198.08,-113.98"/>
<polygon fill="#63b8ff" stroke="#63b8ff" points="1261.86,-101 1270.66,-95.09 1260.1,-94.22 1261.86,-101"/>
</a>
</g>
</g>
<!-- Node8 -->
<g id="Node000008" class="node">
<title>Node8</title>
<g id="a_Node000008"><a xlink:href="player__controller_8c.html#af9d8e2fa807dab2737045c3c2517a46e" target="_top" xlink:title=" ">
<polygon fill="white" stroke="#666666" points="1077.5,-170 986.5,-170 986.5,-151 1077.5,-151 1077.5,-170"/>
<text text-anchor="middle" x="1032" y="-158" font-family="Helvetica,sans-Serif" font-size="10.00">func_80028E70</text>
</a>
</g>
</g>
<!-- Node7&#45;&gt;Node8 -->
<g id="edge7_Node000007_Node000008" class="edge">
<title>Node7&#45;&gt;Node8</title>
<g id="a_edge7_Node000007_Node000008"><a xlink:title=" ">
<path fill="none" stroke="#63b8ff" d="M1116.89,-135.96C1100.25,-140.83 1081.47,-146.32 1065.91,-150.88"/>
<polygon fill="#63b8ff" stroke="#63b8ff" points="1118.31,-139.2 1126.92,-133.03 1116.34,-132.48 1118.31,-139.2"/>
</a>
</g>
</g>
<!-- Node9 -->
<g id="Node000009" class="node">
<title>Node9</title>
<g id="a_Node000009"><a xlink:href="player__controller_8c.html#a60b22a77aa4cf0b2be0942a3e115a1eb" target="_top" xlink:title=" ">
<polygon fill="white" stroke="#666666" points="925.5,-133 834.5,-133 834.5,-114 925.5,-114 925.5,-133"/>
<text text-anchor="middle" x="880" y="-121" font-family="Helvetica,sans-Serif" font-size="10.00">func_80028F70</text>
</a>
</g>
</g>
<!-- Node8&#45;&gt;Node9 -->
<g id="edge8_Node000008_Node000009" class="edge">
<title>Node8&#45;&gt;Node9</title>
<g id="a_edge8_Node000008_Node000009"><a xlink:title=" ">
<path fill="none" stroke="#63b8ff" d="M982.66,-148.57C962.31,-143.56 938.95,-137.79 919.76,-133.06"/>
<polygon fill="#63b8ff" stroke="#63b8ff" points="981.82,-151.97 992.37,-150.97 983.5,-145.18 981.82,-151.97"/>
</a>
</g>
</g>
<!-- Node17 -->
<g id="Node000017" class="node">
<title>Node17</title>
<g id="a_Node000017"><a xlink:href="player__controller_8c.html#ac7bf3fa7a7efacb6f6bad44477c2c7ed" target="_top" xlink:title=" ">
<polygon fill="white" stroke="#666666" points="925.5,-207 834.5,-207 834.5,-188 925.5,-188 925.5,-207"/>
<text text-anchor="middle" x="880" y="-195" font-family="Helvetica,sans-Serif" font-size="10.00">func_80029060</text>
</a>
</g>
</g>
<!-- Node8&#45;&gt;Node17 -->
<g id="edge17_Node000008_Node000017" class="edge">
<title>Node8&#45;&gt;Node17</title>
<g id="a_edge17_Node000008_Node000017"><a xlink:title=" ">
<path fill="none" stroke="#63b8ff" d="M982.66,-172.43C962.31,-177.44 938.95,-183.21 919.76,-187.94"/>
<polygon fill="#63b8ff" stroke="#63b8ff" points="983.5,-175.82 992.37,-170.03 981.82,-169.03 983.5,-175.82"/>
</a>
</g>
</g>
<!-- Node18 -->
<g id="Node000018" class="node">
<title>Node18</title>
<g id="a_Node000018"><a xlink:href="player__controller_8c.html#a31f653813b5697d0af1bb9c16cdc4c76" target="_top" xlink:title=" ">
<polygon fill="white" stroke="#666666" points="925.5,-170 834.5,-170 834.5,-151 925.5,-151 925.5,-170"/>
<text text-anchor="middle" x="880" y="-158" font-family="Helvetica,sans-Serif" font-size="10.00">func_80029158</text>
</a>
</g>
</g>
<!-- Node8&#45;&gt;Node18 -->
<g id="edge19_Node000008_Node000018" class="edge">
<title>Node8&#45;&gt;Node18</title>
<g id="a_edge19_Node000008_Node000018"><a xlink:title=" ">
<path fill="none" stroke="#63b8ff" d="M976.27,-160.5C959.64,-160.5 941.57,-160.5 925.69,-160.5"/>
<polygon fill="#63b8ff" stroke="#63b8ff" points="976.4,-164 986.4,-160.5 976.4,-157 976.4,-164"/>
</a>
</g>
</g>
<!-- Node10 -->
<g id="Node000010" class="node">
<title>Node10</title>
<g id="a_Node000010"><a xlink:href="podium__ceremony__actors_8c.html#a7ea229c65f264670fc828b95e8321154" target="_top" xlink:title=" ">
<polygon fill="white" stroke="#666666" points="774,-114 640,-114 640,-95 774,-95 774,-114"/>
<text text-anchor="middle" x="707" y="-102" font-family="Helvetica,sans-Serif" font-size="10.00">podium_ceremony_loop</text>
</a>
</g>
</g>
<!-- Node9&#45;&gt;Node10 -->
<g id="edge9_Node000009_Node000010" class="edge">
<title>Node9&#45;&gt;Node10</title>
<g id="a_edge9_Node000009_Node000010"><a xlink:title=" ">
<path fill="none" stroke="#63b8ff" d="M823.92,-117.38C808.07,-115.62 790.63,-113.68 774.19,-111.85"/>
<polygon fill="#63b8ff" stroke="#63b8ff" points="823.75,-120.88 834.07,-118.51 824.52,-113.92 823.75,-120.88"/>
</a>
</g>
</g>
<!-- Node16 -->
<g id="Node000016" class="node">
<title>Node16</title>
<g id="a_Node000016"><a xlink:href="main_8c.html#afff87ffcbfee4f1f37d443110aa7b52a" target="_top" xlink:title=" ">
<polygon fill="white" stroke="#666666" points="753,-151 661,-151 661,-132 753,-132 753,-151"/>
<text text-anchor="middle" x="707" y="-139" font-family="Helvetica,sans-Serif" font-size="10.00">race_logic_loop</text>
</a>
</g>
</g>
<!-- Node9&#45;&gt;Node16 -->
<g id="edge15_Node000009_Node000016" class="edge">
<title>Node9&#45;&gt;Node16</title>
<g id="a_edge15_Node000009_Node000016"><a xlink:title=" ">
<path fill="none" stroke="#63b8ff" d="M823.85,-129.31C801.02,-131.71 774.89,-134.46 753.22,-136.74"/>
<polygon fill="#63b8ff" stroke="#63b8ff" points="824.49,-132.76 834.07,-128.23 823.76,-125.8 824.49,-132.76"/>
</a>
</g>
</g>
<!-- Node11 -->
<g id="Node000011" class="node">
<title>Node11</title>
<g id="a_Node000011"><a xlink:href="main_8c.html#ae04143ce8113cdafa007c642eb620bc8" target="_top" xlink:title=" ">
<polygon fill="white" stroke="#666666" points="604,-132 488,-132 488,-113 604,-113 604,-132"/>
<text text-anchor="middle" x="546" y="-120" font-family="Helvetica,sans-Serif" font-size="10.00">game_state_handler</text>
</a>
</g>
</g>
<!-- Node10&#45;&gt;Node11 -->
<g id="edge10_Node000010_Node000011" class="edge">
<title>Node10&#45;&gt;Node11</title>
<g id="a_edge10_Node000010_Node000011"><a xlink:title=" ">
<path fill="none" stroke="#63b8ff" d="M629.87,-113.12C621.24,-114.1 612.56,-115.08 604.24,-116.02"/>
<polygon fill="#63b8ff" stroke="#63b8ff" points="630.41,-116.58 639.95,-111.98 629.62,-109.62 630.41,-116.58"/>
</a>
</g>
</g>
<!-- Node12 -->
<g id="Node000012" class="node">
<title>Node12</title>
<g id="a_Node000012"><a xlink:href="main_8c.html#a633ed517e458daeb768f5361895dcac9" target="_top" xlink:title=" ">
<polygon fill="white" stroke="#666666" points="452,-151 339,-151 339,-132 452,-132 452,-151"/>
<text text-anchor="middle" x="395.5" y="-139" font-family="Helvetica,sans-Serif" font-size="10.00">thread5_game_loop</text>
</a>
</g>
</g>
<!-- Node11&#45;&gt;Node12 -->
<g id="edge11_Node000011_Node000012" class="edge">
<title>Node11&#45;&gt;Node12</title>
<g id="a_edge11_Node000011_Node000012"><a xlink:title=" ">
<path fill="none" stroke="#63b8ff" d="M477.42,-131.15C469.02,-132.22 460.5,-133.31 452.3,-134.36"/>
<polygon fill="#63b8ff" stroke="#63b8ff" points="478.11,-134.59 487.59,-129.85 477.22,-127.64 478.11,-134.59"/>
</a>
</g>
</g>
<!-- Node13 -->
<g id="Node000013" class="node">
<title>Node13</title>
<g id="a_Node000013"><a xlink:href="main_8c.html#a023b8f272e4efbd33f371e91ffff6b30" target="_top" xlink:title=" ">
<polygon fill="white" stroke="#666666" points="303,-151 217,-151 217,-132 303,-132 303,-151"/>
<text text-anchor="middle" x="260" y="-139" font-family="Helvetica,sans-Serif" font-size="10.00">thread3_video</text>
</a>
</g>
</g>
<!-- Node12&#45;&gt;Node13 -->
<g id="edge12_Node000012_Node000013" class="edge">
<title>Node12&#45;&gt;Node13</title>
<g id="a_edge12_Node000012_Node000013"><a xlink:title=" ">
<path fill="none" stroke="#63b8ff" d="M328.57,-141.5C319.94,-141.5 311.3,-141.5 303.21,-141.5"/>
<polygon fill="#63b8ff" stroke="#63b8ff" points="328.66,-145 338.66,-141.5 328.66,-138 328.66,-145"/>
</a>
</g>
</g>
<!-- Node14 -->
<g id="Node000014" class="node">
<title>Node14</title>
<g id="a_Node000014"><a xlink:href="main_8c.html#a1e35d2b842121e6aea373f09381616e5" target="_top" xlink:title=" ">
<polygon fill="white" stroke="#666666" points="181,-151 104,-151 104,-132 181,-132 181,-151"/>
<text text-anchor="middle" x="142.5" y="-139" font-family="Helvetica,sans-Serif" font-size="10.00">thread1_idle</text>
</a>
</g>
</g>
<!-- Node13&#45;&gt;Node14 -->
<g id="edge13_Node000013_Node000014" class="edge">
<title>Node13&#45;&gt;Node14</title>
<g id="a_edge13_Node000013_Node000014"><a xlink:title=" ">
<path fill="none" stroke="#63b8ff" d="M206.9,-141.5C198.2,-141.5 189.33,-141.5 181.09,-141.5"/>
<polygon fill="#63b8ff" stroke="#63b8ff" points="206.98,-145 216.98,-141.5 206.98,-138 206.98,-145"/>
</a>
</g>
</g>
<!-- Node15 -->
<g id="Node000015" class="node">
<title>Node15</title>
<g id="a_Node000015"><a xlink:href="main_8c.html#a4f87d43525fe95f60ea92bc8a3b70e62" target="_top" xlink:title=" ">
<polygon fill="white" stroke="#666666" points="68,-151 0,-151 0,-132 68,-132 68,-151"/>
<text text-anchor="middle" x="34" y="-139" font-family="Helvetica,sans-Serif" font-size="10.00">main_func</text>
</a>
</g>
</g>
<!-- Node14&#45;&gt;Node15 -->
<g id="edge14_Node000014_Node000015" class="edge">
<title>Node14&#45;&gt;Node15</title>
<g id="a_edge14_Node000014_Node000015"><a xlink:title=" ">
<path fill="none" stroke="#63b8ff" d="M93.95,-141.5C85.29,-141.5 76.44,-141.5 68.31,-141.5"/>
<polygon fill="#63b8ff" stroke="#63b8ff" points="93.95,-145 103.95,-141.5 93.95,-138 93.95,-145"/>
</a>
</g>
</g>
<!-- Node16&#45;&gt;Node11 -->
<g id="edge16_Node000016_Node000011" class="edge">
<title>Node16&#45;&gt;Node11</title>
<g id="a_edge16_Node000016_Node000011"><a xlink:title=" ">
<path fill="none" stroke="#63b8ff" d="M650.68,-134.89C635.64,-133.09 619.32,-131.14 604.18,-129.33"/>
<polygon fill="#63b8ff" stroke="#63b8ff" points="650.52,-138.39 660.86,-136.11 651.35,-131.44 650.52,-138.39"/>
</a>
</g>
</g>
<!-- Node17&#45;&gt;Node16 -->
<g id="edge18_Node000017_Node000016" class="edge">
<title>Node17&#45;&gt;Node16</title>
<g id="a_edge18_Node000017_Node000016"><a xlink:title=" ">
<path fill="none" stroke="#63b8ff" d="M829.98,-185.37C823.24,-183.51 816.42,-181.53 810,-179.5 782.79,-170.91 752.19,-159.23 731.67,-151.1"/>
<polygon fill="#63b8ff" stroke="#63b8ff" points="829.19,-188.78 839.76,-188 831.01,-182.02 829.19,-188.78"/>
</a>
</g>
</g>
<!-- Node18&#45;&gt;Node16 -->
<g id="edge20_Node000018_Node000016" class="edge">
<title>Node18&#45;&gt;Node16</title>
<g id="a_edge20_Node000018_Node000016"><a xlink:title=" ">
<path fill="none" stroke="#63b8ff" d="M823.85,-154.37C801.02,-151.84 774.89,-148.93 753.22,-146.52"/>
<polygon fill="#63b8ff" stroke="#63b8ff" points="823.75,-157.88 834.07,-155.51 824.52,-150.92 823.75,-157.88"/>
</a>
</g>
</g>
<!-- Node19&#45;&gt;Node7 -->
<g id="edge22_Node000019_Node000007" class="edge">
<title>Node19&#45;&gt;Node7</title>
<g id="a_edge22_Node000019_Node000007"><a xlink:title=" ">
<path fill="none" stroke="#63b8ff" d="M1252.63,-183.36C1249.29,-181.9 1246.05,-180.28 1243,-178.5 1223.46,-167.09 1225.8,-155.1 1207,-142.5 1201.6,-138.88 1195.39,-135.73 1189.34,-133.1"/>
<polygon fill="#63b8ff" stroke="#63b8ff" points="1251.63,-186.72 1262.22,-187.07 1254.16,-180.2 1251.63,-186.72"/>
</a>
</g>
</g>
<!-- Node20 -->
<g id="Node000020" class="node">
<title>Node20</title>
<g id="a_Node000020"><a xlink:href="player__controller_8c.html#a76e0206999fca6c9de4d4bef2c4620ce" target="_top" xlink:title=" ">
<polygon fill="white" stroke="#666666" points="1206.5,-170 1114.5,-170 1114.5,-151 1206.5,-151 1206.5,-170"/>
<text text-anchor="middle" x="1160.5" y="-158" font-family="Helvetica,sans-Serif" font-size="10.00">func_80028C44</text>
</a>
</g>
</g>
<!-- Node19&#45;&gt;Node20 -->
<g id="edge23_Node000019_Node000020" class="edge">
<title>Node19&#45;&gt;Node20</title>
<g id="a_edge23_Node000019_Node000020"><a xlink:title=" ">
<path fill="none" stroke="#63b8ff" d="M1259.02,-184.55C1239.89,-179.83 1218.22,-174.48 1200.17,-170.03"/>
<polygon fill="#63b8ff" stroke="#63b8ff" points="1258.21,-187.95 1268.76,-186.95 1259.89,-181.15 1258.21,-187.95"/>
</a>
</g>
</g>
<!-- Node21 -->
<g id="Node000021" class="node">
<title>Node21</title>
<g id="a_Node000021"><a xlink:href="player__controller_8c.html#ae531f1b044d00354a79cb3f88b81fa12" target="_top" xlink:title=" ">
<polygon fill="white" stroke="#666666" points="1207,-207 1114,-207 1114,-188 1207,-188 1207,-207"/>
<text text-anchor="middle" x="1160.5" y="-195" font-family="Helvetica,sans-Serif" font-size="10.00">func_80028D3C</text>
</a>
</g>
</g>
<!-- Node19&#45;&gt;Node21 -->
<g id="edge25_Node000019_Node000021" class="edge">
<title>Node19&#45;&gt;Node21</title>
<g id="a_edge25_Node000019_Node000021"><a xlink:title=" ">
<path fill="none" stroke="#63b8ff" d="M1252.03,-196.88C1237.21,-196.98 1221.35,-197.09 1207.12,-197.19"/>
<polygon fill="#63b8ff" stroke="#63b8ff" points="1252.13,-200.38 1262.11,-196.81 1252.08,-193.38 1252.13,-200.38"/>
</a>
</g>
</g>
<!-- Node22 -->
<g id="Node000022" class="node">
<title>Node22</title>
<g id="a_Node000022"><a xlink:href="spawn__players_8c.html#a786871d4fec99acdd5a14b48c1c38a7c" target="_top" xlink:title=" ">
<polygon fill="white" stroke="#666666" points="1207,-244 1114,-244 1114,-225 1207,-225 1207,-244"/>
<text text-anchor="middle" x="1160.5" y="-232" font-family="Helvetica,sans-Serif" font-size="10.00">func_8003CD98</text>
</a>
</g>
</g>
<!-- Node19&#45;&gt;Node22 -->
<g id="edge27_Node000019_Node000022" class="edge">
<title>Node19&#45;&gt;Node22</title>
<g id="a_edge27_Node000019_Node000022"><a xlink:title=" ">
<path fill="none" stroke="#63b8ff" d="M1260.96,-208.61C1240.63,-213.9 1217.13,-220.02 1198.08,-224.98"/>
<polygon fill="#63b8ff" stroke="#63b8ff" points="1261.86,-212 1270.66,-206.09 1260.1,-205.22 1261.86,-212"/>
</a>
</g>
</g>
<!-- Node20&#45;&gt;Node8 -->
<g id="edge24_Node000020_Node000008" class="edge">
<title>Node20&#45;&gt;Node8</title>
<g id="a_edge24_Node000020_Node000008"><a xlink:title=" ">
<path fill="none" stroke="#63b8ff" d="M1103.96,-160.5C1095.13,-160.5 1086.1,-160.5 1077.57,-160.5"/>
<polygon fill="#63b8ff" stroke="#63b8ff" points="1104.19,-164 1114.19,-160.5 1104.19,-157 1104.19,-164"/>
</a>
</g>
</g>
<!-- Node21&#45;&gt;Node8 -->
<g id="edge26_Node000021_Node000008" class="edge">
<title>Node21&#45;&gt;Node8</title>
<g id="a_edge26_Node000021_Node000008"><a xlink:title=" ">
<path fill="none" stroke="#63b8ff" d="M1116.89,-185.04C1100.25,-180.17 1081.47,-174.68 1065.91,-170.12"/>
<polygon fill="#63b8ff" stroke="#63b8ff" points="1116.34,-188.52 1126.92,-187.97 1118.31,-181.8 1116.34,-188.52"/>
</a>
</g>
</g>
<!-- Node23 -->
<g id="Node000023" class="node">
<title>Node23</title>
<g id="a_Node000023"><a xlink:href="spawn__players_8c.html#ac1a9412b931cfa517a2382c2fc605399" target="_top" xlink:title=" ">
<polygon fill="white" stroke="#666666" points="1078,-244 986,-244 986,-225 1078,-225 1078,-244"/>
<text text-anchor="middle" x="1032" y="-232" font-family="Helvetica,sans-Serif" font-size="10.00">func_8003D080</text>
</a>
</g>
</g>
<!-- Node22&#45;&gt;Node23 -->
<g id="edge28_Node000022_Node000023" class="edge">
<title>Node22&#45;&gt;Node23</title>
<g id="a_edge28_Node000022_Node000023"><a xlink:title=" ">
<path fill="none" stroke="#63b8ff" d="M1103.59,-234.5C1095.09,-234.5 1086.41,-234.5 1078.18,-234.5"/>
<polygon fill="#63b8ff" stroke="#63b8ff" points="1103.83,-238 1113.83,-234.5 1103.83,-231 1103.83,-238"/>
</a>
</g>
</g>
<!-- Node24 -->
<g id="Node000024" class="node">
<title>Node24</title>
<g id="a_Node000024"><a xlink:href="code__80281780_8c.html#af227cfd0f1fd3d6adbe9a29ad59b4dc8" target="_top" xlink:title=" ">
<polygon fill="white" stroke="#666666" points="950,-281 810,-281 810,-262 950,-262 950,-281"/>
<text text-anchor="middle" x="880" y="-269" font-family="Helvetica,sans-Serif" font-size="10.00">load_ceremony_cutscene</text>
</a>
</g>
</g>
<!-- Node23&#45;&gt;Node24 -->
<g id="edge29_Node000023_Node000024" class="edge">
<title>Node23&#45;&gt;Node24</title>
<g id="a_edge29_Node000023_Node000024"><a xlink:title=" ">
<path fill="none" stroke="#63b8ff" d="M982.66,-246.43C962.31,-251.44 938.95,-257.21 919.76,-261.94"/>
<polygon fill="#63b8ff" stroke="#63b8ff" points="983.5,-249.82 992.37,-244.03 981.82,-243.03 983.5,-249.82"/>
</a>
</g>
</g>
<!-- Node26 -->
<g id="Node000026" class="node">
<title>Node26</title>
<g id="a_Node000026"><a xlink:href="code__800029B0_8c.html#aca6165112fc92e65ad6477e785a7098c" target="_top" xlink:title=" ">
<polygon fill="white" stroke="#666666" points="915,-244 845,-244 845,-225 915,-225 915,-244"/>
<text text-anchor="middle" x="880" y="-232" font-family="Helvetica,sans-Serif" font-size="10.00">setup_race</text>
</a>
</g>
</g>
<!-- Node23&#45;&gt;Node26 -->
<g id="edge32_Node000023_Node000026" class="edge">
<title>Node23&#45;&gt;Node26</title>
<g id="a_edge32_Node000023_Node000026"><a xlink:title=" ">
<path fill="none" stroke="#63b8ff" d="M975.87,-234.5C955.48,-234.5 932.97,-234.5 915,-234.5"/>
<polygon fill="#63b8ff" stroke="#63b8ff" points="976,-238 986,-234.5 976,-231 976,-238"/>
</a>
</g>
</g>
<!-- Node25 -->
<g id="Node000025" class="node">
<title>Node25</title>
<g id="a_Node000025"><a xlink:href="main_8c.html#ad0625ed56ac663d3ec7ae8f1ba50c735" target="_top" xlink:title=" ">
<polygon fill="white" stroke="#666666" points="761,-244 653,-244 653,-225 761,-225 761,-244"/>
<text text-anchor="middle" x="707" y="-232" font-family="Helvetica,sans-Serif" font-size="10.00">update_gamestate</text>
</a>
</g>
</g>
<!-- Node24&#45;&gt;Node25 -->
<g id="edge30_Node000024_Node000025" class="edge">
<title>Node24&#45;&gt;Node25</title>
<g id="a_edge30_Node000024_Node000025"><a xlink:title=" ">
<path fill="none" stroke="#63b8ff" d="M825.15,-259.85C801.66,-254.77 774.46,-248.88 752.18,-244.06"/>
<polygon fill="#63b8ff" stroke="#63b8ff" points="824.45,-263.28 834.96,-261.97 825.93,-256.44 824.45,-263.28"/>
</a>
</g>
</g>
<!-- Node25&#45;&gt;Node12 -->
<g id="edge31_Node000025_Node000012" class="edge">
<title>Node25&#45;&gt;Node12</title>
<g id="a_edge31_Node000025_Node000012"><a xlink:title=" ">
<path fill="none" stroke="#63b8ff" d="M664.4,-222C601.79,-203.19 484.68,-168 428.35,-151.07"/>
<polygon fill="#63b8ff" stroke="#63b8ff" points="663.75,-225.46 674.33,-224.98 665.76,-218.75 663.75,-225.46"/>
</a>
</g>
</g>
<!-- Node26&#45;&gt;Node25 -->
<g id="edge33_Node000026_Node000025" class="edge">
<title>Node26&#45;&gt;Node25</title>
<g id="a_edge33_Node000026_Node000025"><a xlink:title=" ">
<path fill="none" stroke="#63b8ff" d="M834.57,-234.5C812.18,-234.5 784.85,-234.5 761.33,-234.5"/>
<polygon fill="#63b8ff" stroke="#63b8ff" points="834.81,-238 844.81,-234.5 834.81,-231 834.81,-238"/>
</a>
</g>
</g>
<!-- Node27&#45;&gt;Node7 -->
<g id="edge35_Node000027_Node000007" class="edge">
<title>Node27&#45;&gt;Node7</title>
<g id="a_edge35_Node000027_Node000007"><a xlink:title=" ">
<path fill="none" stroke="#63b8ff" d="M1259.02,-147.55C1239.89,-142.83 1218.22,-137.48 1200.17,-133.03"/>
<polygon fill="#63b8ff" stroke="#63b8ff" points="1258.21,-150.95 1268.76,-149.95 1259.89,-144.15 1258.21,-150.95"/>
</a>
</g>
</g>
<!-- Node27&#45;&gt;Node20 -->
<g id="edge36_Node000027_Node000020" class="edge">
<title>Node27&#45;&gt;Node20</title>
<g id="a_edge36_Node000027_Node000020"><a xlink:title=" ">
<path fill="none" stroke="#63b8ff" d="M1252.61,-159.88C1237.43,-159.98 1221.13,-160.09 1206.58,-160.19"/>
<polygon fill="#63b8ff" stroke="#63b8ff" points="1252.93,-163.37 1262.9,-159.81 1252.88,-156.37 1252.93,-163.37"/>
</a>
</g>
</g>
<!-- Node27&#45;&gt;Node21 -->
<g id="edge37_Node000027_Node000021" class="edge">
<title>Node27&#45;&gt;Node21</title>
<g id="a_edge37_Node000027_Node000021"><a xlink:title=" ">
<path fill="none" stroke="#63b8ff" d="M1260.96,-171.61C1240.63,-176.9 1217.13,-183.02 1198.08,-187.98"/>
<polygon fill="#63b8ff" stroke="#63b8ff" points="1261.86,-175 1270.66,-169.09 1260.1,-168.22 1261.86,-175"/>
</a>
</g>
</g>
<!-- Node28&#45;&gt;Node8 -->
<g id="edge39_Node000028_Node000008" class="edge">
<title>Node28&#45;&gt;Node8</title>
<g id="a_edge39_Node000028_Node000008"><a xlink:title=" ">
<path fill="none" stroke="#63b8ff" d="M1267.74,-110.36C1227.96,-100.2 1165.45,-89.68 1114,-105.5 1085.08,-114.39 1057.22,-137.51 1042.92,-150.77"/>
<polygon fill="#63b8ff" stroke="#63b8ff" points="1267.03,-113.79 1277.59,-112.98 1268.83,-107.03 1267.03,-113.79"/>
</a>
</g>
</g>
<!-- Node30 -->
<g id="Node000030" class="node">
<title>Node30</title>
<g id="a_Node000030"><a xlink:href="code__8008C1D0_8c.html#a32d25ca5d6ae2b7dbf1b8e0058fcc262" target="_top" xlink:title=" ">
<polygon fill="white" stroke="#666666" points="1885.5,-44 1794.5,-44 1794.5,-25 1885.5,-25 1885.5,-44"/>
<text text-anchor="middle" x="1840" y="-32" font-family="Helvetica,sans-Serif" font-size="10.00">func_8008F650</text>
</a>
</g>
</g>
<!-- Node29&#45;&gt;Node30 -->
<g id="edge41_Node000029_Node000030" class="edge">
<title>Node29&#45;&gt;Node30</title>
<g id="a_edge41_Node000029_Node000030"><a xlink:title=" ">
<path fill="none" stroke="#63b8ff" d="M1924.89,-59.04C1908.25,-54.17 1889.47,-48.68 1873.91,-44.12"/>
<polygon fill="#63b8ff" stroke="#63b8ff" points="1924.34,-62.52 1934.92,-61.97 1926.31,-55.8 1924.34,-62.52"/>
</a>
</g>
</g>
<!-- Node32 -->
<g id="Node000032" class="node">
<title>Node32</title>
<g id="a_Node000032"><a xlink:href="code__8008C1D0_8c.html#ae1bacd987d7f12fc5960f838a7dbe137" target="_top" xlink:title=" ">
<polygon fill="white" stroke="#666666" points="1886,-81 1794,-81 1794,-62 1886,-62 1886,-81"/>
<text text-anchor="middle" x="1840" y="-69" font-family="Helvetica,sans-Serif" font-size="10.00">func_8008F86C</text>
</a>
</g>
</g>
<!-- Node29&#45;&gt;Node32 -->
<g id="edge47_Node000029_Node000032" class="edge">
<title>Node29&#45;&gt;Node32</title>
<g id="a_edge47_Node000029_Node000032"><a xlink:title=" ">
<path fill="none" stroke="#63b8ff" d="M1911.93,-71.5C1903.4,-71.5 1894.69,-71.5 1886.42,-71.5"/>
<polygon fill="#63b8ff" stroke="#63b8ff" points="1912.19,-75 1922.19,-71.5 1912.19,-68 1912.19,-75"/>
</a>
</g>
</g>
<!-- Node31 -->
<g id="Node000031" class="node">
<title>Node31</title>
<g id="a_Node000031"><a xlink:href="player__controller_8c.html#a604bf40239556f92ce3be651ca142296" target="_top" xlink:title=" ">
<polygon fill="white" stroke="#666666" points="1503,-95 1410,-95 1410,-76 1503,-76 1503,-95"/>
<text text-anchor="middle" x="1456.5" y="-83" font-family="Helvetica,sans-Serif" font-size="10.00">func_8002CD48</text>
</a>
</g>
</g>
<!-- Node30&#45;&gt;Node31 -->
<g id="edge42_Node000030_Node000031" class="edge">
<title>Node30&#45;&gt;Node31</title>
<g id="a_edge42_Node000030_Node000031"><a xlink:title=" ">
<path fill="none" stroke="#63b8ff" d="M1793,-22.64C1732.19,-9.38 1622.92,5.94 1539,-29.5 1517.86,-38.43 1521.97,-53.6 1503,-66.5 1497.62,-70.16 1491.43,-73.32 1485.37,-75.96"/>
<polygon fill="#63b8ff" stroke="#63b8ff" points="1792.53,-26.12 1803.06,-24.91 1794.08,-19.29 1792.53,-26.12"/>
</a>
</g>
</g>
<!-- Node31&#45;&gt;Node6 -->
<g id="edge43_Node000031_Node000006" class="edge">
<title>Node31&#45;&gt;Node6</title>
<g id="a_edge43_Node000031_Node000006"><a xlink:title=" ">
<path fill="none" stroke="#63b8ff" d="M1399.69,-85.5C1391.33,-85.5 1382.65,-85.5 1374.12,-85.5"/>
<polygon fill="#63b8ff" stroke="#63b8ff" points="1399.71,-89 1409.71,-85.5 1399.71,-82 1399.71,-89"/>
</a>
</g>
</g>
<!-- Node31&#45;&gt;Node19 -->
<g id="edge44_Node000031_Node000019" class="edge">
<title>Node31&#45;&gt;Node19</title>
<g id="a_edge44_Node000031_Node000019"><a xlink:title=" ">
<path fill="none" stroke="#63b8ff" d="M1414.8,-100.55C1413.11,-101.78 1411.49,-103.09 1410,-104.5 1383.41,-129.61 1402.09,-155.08 1374,-178.5 1368.37,-183.19 1361.61,-186.66 1354.61,-189.23"/>
<polygon fill="#63b8ff" stroke="#63b8ff" points="1417.03,-103.31 1423.83,-95.18 1413.45,-97.29 1417.03,-103.31"/>
</a>
</g>
</g>
<!-- Node31&#45;&gt;Node27 -->
<g id="edge45_Node000031_Node000027" class="edge">
<title>Node31&#45;&gt;Node27</title>
<g id="a_edge45_Node000031_Node000027"><a xlink:title=" ">
<path fill="none" stroke="#63b8ff" d="M1418.56,-99.39C1415.58,-100.97 1412.69,-102.67 1410,-104.5 1391.03,-117.4 1393.73,-129.79 1374,-141.5 1367.9,-145.12 1361.05,-148.04 1354.14,-150.38"/>
<polygon fill="#63b8ff" stroke="#63b8ff" points="1420.12,-102.52 1427.63,-95.04 1417.1,-96.21 1420.12,-102.52"/>
</a>
</g>
</g>
<!-- Node31&#45;&gt;Node28 -->
<g id="edge46_Node000031_Node000028" class="edge">
<title>Node31&#45;&gt;Node28</title>
<g id="a_edge46_Node000031_Node000028"><a xlink:title=" ">
<path fill="none" stroke="#63b8ff" d="M1408.17,-97.49C1388.43,-102.5 1365.82,-108.23 1347.22,-112.94"/>
<polygon fill="#63b8ff" stroke="#63b8ff" points="1409.07,-100.88 1417.9,-95.03 1407.35,-94.09 1409.07,-100.88"/>
</a>
</g>
</g>
<!-- Node33 -->
<g id="Node000033" class="node">
<title>Node33</title>
<g id="a_Node000033"><a xlink:href="code__8008C1D0_8c.html#a71c3c746ea434e798865e3256180ee0a" target="_top" xlink:title=" ">
<polygon fill="white" stroke="#666666" points="1630,-227 1539,-227 1539,-208 1630,-208 1630,-227"/>
<text text-anchor="middle" x="1584.5" y="-215" font-family="Helvetica,sans-Serif" font-size="10.00">func_8008F494</text>
</a>
</g>
</g>
<!-- Node32&#45;&gt;Node33 -->
<g id="edge48_Node000032_Node000033" class="edge">
<title>Node32&#45;&gt;Node33</title>
<g id="a_edge48_Node000032_Node000033"><a xlink:title=" ">
<path fill="none" stroke="#63b8ff" d="M1783.53,-80.29C1747.81,-87.85 1701.58,-101.33 1666,-124.5 1631.29,-147.11 1602.96,-188.86 1591.27,-207.76"/>
<polygon fill="#63b8ff" stroke="#63b8ff" points="1784.67,-83.63 1793.78,-78.22 1783.29,-76.77 1784.67,-83.63"/>
</a>
</g>
</g>
<!-- Node35 -->
<g id="Node000035" class="node">
<title>Node35</title>
<g id="a_Node000035"><a xlink:href="code__8008C1D0_8c.html#a17332237b5c2a4249328a35071e23bf7" target="_top" xlink:title=" ">
<polygon fill="white" stroke="#666666" points="1757.5,-76 1666.5,-76 1666.5,-57 1757.5,-57 1757.5,-76"/>
<text text-anchor="middle" x="1712" y="-64" font-family="Helvetica,sans-Serif" font-size="10.00">func_80090778</text>
</a>
</g>
</g>
<!-- Node32&#45;&gt;Node35 -->
<g id="edge55_Node000032_Node000035" class="edge">
<title>Node32&#45;&gt;Node35</title>
<g id="a_edge55_Node000032_Node000035"><a xlink:title=" ">
<path fill="none" stroke="#63b8ff" d="M1783.8,-69.31C1775.12,-68.96 1766.23,-68.61 1757.82,-68.28"/>
<polygon fill="#63b8ff" stroke="#63b8ff" points="1783.74,-72.81 1793.87,-69.71 1784.01,-65.82 1783.74,-72.81"/>
</a>
</g>
</g>
<!-- Node33&#45;&gt;Node19 -->
<g id="edge53_Node000033_Node000019" class="edge">
<title>Node33&#45;&gt;Node19</title>
<g id="a_edge53_Node000033_Node000019"><a xlink:title=" ">
<path fill="none" stroke="#63b8ff" d="M1558.98,-232.14C1543.51,-240.51 1522.78,-250.17 1503,-254.5 1462.62,-263.34 1449.93,-265.19 1410,-254.5 1374.78,-245.07 1339.12,-219.98 1321.25,-206.09"/>
<polygon fill="#63b8ff" stroke="#63b8ff" points="1560.86,-235.1 1567.88,-227.16 1557.44,-228.99 1560.86,-235.1"/>
</a>
</g>
</g>
<!-- Node33&#45;&gt;Node27 -->
<g id="edge54_Node000033_Node000027" class="edge">
<title>Node33&#45;&gt;Node27</title>
<g id="a_edge54_Node000033_Node000027"><a xlink:title=" ">
<path fill="none" stroke="#63b8ff" d="M1528.96,-205.95C1477.68,-195.1 1401.87,-179.05 1354.11,-168.94"/>
<polygon fill="#63b8ff" stroke="#63b8ff" points="1528.36,-209.41 1538.87,-208.05 1529.81,-202.56 1528.36,-209.41"/>
</a>
</g>
</g>
<!-- Node34 -->
<g id="Node000034" class="node">
<title>Node34</title>
<g id="a_Node000034"><a xlink:href="player__controller_8c.html#abb6ce82a573668de6510f4e6e234d57a" target="_top" xlink:title=" ">
<polygon fill="white" stroke="#666666" points="1502.5,-245 1410.5,-245 1410.5,-226 1502.5,-226 1502.5,-245"/>
<text text-anchor="middle" x="1456.5" y="-233" font-family="Helvetica,sans-Serif" font-size="10.00">func_8002C954</text>
</a>
</g>
</g>
<!-- Node33&#45;&gt;Node34 -->
<g id="edge49_Node000033_Node000034" class="edge">
<title>Node33&#45;&gt;Node34</title>
<g id="a_edge49_Node000033_Node000034"><a xlink:title=" ">
<path fill="none" stroke="#63b8ff" d="M1528.64,-225.34C1519.93,-226.58 1511.01,-227.86 1502.56,-229.06"/>
<polygon fill="#63b8ff" stroke="#63b8ff" points="1529.32,-228.78 1538.72,-223.9 1528.33,-221.85 1529.32,-228.78"/>
</a>
</g>
</g>
<!-- Node34&#45;&gt;Node19 -->
<g id="edge50_Node000034_Node000019" class="edge">
<title>Node34&#45;&gt;Node19</title>
<g id="a_edge50_Node000034_Node000019"><a xlink:title=" ">
<path fill="none" stroke="#63b8ff" d="M1409.85,-223.31C1388.97,-217.73 1364.6,-211.22 1345.1,-206.01"/>
<polygon fill="#63b8ff" stroke="#63b8ff" points="1409.22,-226.76 1419.78,-225.96 1411.03,-220 1409.22,-226.76"/>
</a>
</g>
</g>
<!-- Node34&#45;&gt;Node27 -->
<g id="edge51_Node000034_Node000027" class="edge">
<title>Node34&#45;&gt;Node27</title>
<g id="a_edge51_Node000034_Node000027"><a xlink:title=" ">
<path fill="none" stroke="#63b8ff" d="M1425.24,-220.94C1420.02,-218.04 1414.75,-214.84 1410,-211.5 1392.26,-199 1392.9,-189.18 1374,-178.5 1367.29,-174.71 1359.76,-171.61 1352.26,-169.1"/>
<polygon fill="#63b8ff" stroke="#63b8ff" points="1423.98,-224.24 1434.46,-225.82 1427.26,-218.05 1423.98,-224.24"/>
</a>
</g>
</g>
<!-- Node34&#45;&gt;Node28 -->
<g id="edge52_Node000034_Node000028" class="edge">
<title>Node34&#45;&gt;Node28</title>
<g id="a_edge52_Node000034_Node000028"><a xlink:title=" ">
<path fill="none" stroke="#63b8ff" d="M1441.21,-217.97C1420.13,-192.27 1382.28,-146.83 1374,-141.5 1368.01,-137.65 1361.21,-134.55 1354.33,-132.07"/>
<polygon fill="#63b8ff" stroke="#63b8ff" points="1438.61,-220.32 1447.65,-225.84 1444.03,-215.89 1438.61,-220.32"/>
</a>
</g>
</g>
<!-- Node36 -->
<g id="Node000036" class="node">
<title>Node36</title>
<g id="a_Node000036"><a xlink:href="player__controller_8c.html#aa3c944dd9f5b01d337472bdaa34389e1" target="_top" xlink:title=" ">
<polygon fill="white" stroke="#666666" points="1502.5,-169 1410.5,-169 1410.5,-150 1502.5,-150 1502.5,-169"/>
<text text-anchor="middle" x="1456.5" y="-157" font-family="Helvetica,sans-Serif" font-size="10.00">func_8002C4F8</text>
</a>
</g>
</g>
<!-- Node35&#45;&gt;Node36 -->
<g id="edge56_Node000035_Node000036" class="edge">
<title>Node35&#45;&gt;Node36</title>
<g id="a_edge56_Node000035_Node000036"><a xlink:title=" ">
<path fill="none" stroke="#63b8ff" d="M1683.29,-80.59C1667.83,-88.18 1648.08,-97.41 1630,-104.5 1583.03,-122.92 1527.15,-139.86 1492,-149.94"/>
<polygon fill="#63b8ff" stroke="#63b8ff" points="1684.92,-83.69 1692.32,-76.11 1681.81,-77.42 1684.92,-83.69"/>
</a>
</g>
</g>
<!-- Node37 -->
<g id="Node000037" class="node">
<title>Node37</title>
<g id="a_Node000037"><a xlink:href="code__80071F00_8c.html#a31147e0e1c7b87bb3f17f11ed1aec1fe" target="_top" xlink:title=" ">
<polygon fill="white" stroke="#666666" points="1630,-58 1539,-58 1539,-39 1630,-39 1630,-58"/>
<text text-anchor="middle" x="1584.5" y="-46" font-family="Helvetica,sans-Serif" font-size="10.00">func_80079860</text>
</a>
</g>
</g>
<!-- Node35&#45;&gt;Node37 -->
<g id="edge60_Node000035_Node000037" class="edge">
<title>Node35&#45;&gt;Node37</title>
<g id="a_edge60_Node000035_Node000037"><a xlink:title=" ">
<path fill="none" stroke="#63b8ff" d="M1656.35,-58.66C1647.68,-57.42 1638.8,-56.14 1630.38,-54.94"/>
<polygon fill="#63b8ff" stroke="#63b8ff" points="1656,-62.15 1666.4,-60.1 1657,-55.22 1656,-62.15"/>
</a>
</g>
</g>
<!-- Node44 -->
<g id="Node000044" class="node">
<title>Node44</title>
<g id="a_Node000044"><a xlink:href="code__8008C1D0_8c.html#afaeabb9e08b6568f56117c24edad5945" target="_top" xlink:title=" ">
<polygon fill="white" stroke="#666666" points="1630,-95 1539,-95 1539,-76 1630,-76 1630,-95"/>
<text text-anchor="middle" x="1584.5" y="-83" font-family="Helvetica,sans-Serif" font-size="10.00">func_8008F3F4</text>
</a>
</g>
</g>
<!-- Node35&#45;&gt;Node44 -->
<g id="edge70_Node000035_Node000044" class="edge">
<title>Node35&#45;&gt;Node44</title>
<g id="a_edge70_Node000035_Node000044"><a xlink:title=" ">
<path fill="none" stroke="#63b8ff" d="M1656.35,-74.77C1647.68,-76.09 1638.8,-77.43 1630.38,-78.71"/>
<polygon fill="#63b8ff" stroke="#63b8ff" points="1657.04,-78.21 1666.4,-73.25 1655.99,-71.29 1657.04,-78.21"/>
</a>
</g>
</g>
<!-- Node36&#45;&gt;Node19 -->
<g id="edge57_Node000036_Node000019" class="edge">
<title>Node36&#45;&gt;Node19</title>
<g id="a_edge57_Node000036_Node000019"><a xlink:title=" ">
<path fill="none" stroke="#63b8ff" d="M1408.17,-171.49C1388.43,-176.5 1365.82,-182.23 1347.22,-186.94"/>
<polygon fill="#63b8ff" stroke="#63b8ff" points="1409.07,-174.88 1417.9,-169.03 1407.35,-168.09 1409.07,-174.88"/>
</a>
</g>
</g>
<!-- Node36&#45;&gt;Node27 -->
<g id="edge58_Node000036_Node000027" class="edge">
<title>Node36&#45;&gt;Node27</title>
<g id="a_edge58_Node000036_Node000027"><a xlink:title=" ">
<path fill="none" stroke="#63b8ff" d="M1399.84,-159.5C1384.72,-159.5 1368.54,-159.5 1354.12,-159.5"/>
<polygon fill="#63b8ff" stroke="#63b8ff" points="1400.11,-163 1410.11,-159.5 1400.1,-156 1400.11,-163"/>
</a>
</g>
</g>
<!-- Node36&#45;&gt;Node28 -->
<g id="edge59_Node000036_Node000028" class="edge">
<title>Node36&#45;&gt;Node28</title>
<g id="a_edge59_Node000036_Node000028"><a xlink:title=" ">
<path fill="none" stroke="#63b8ff" d="M1408.17,-147.51C1388.43,-142.5 1365.82,-136.77 1347.22,-132.06"/>
<polygon fill="#63b8ff" stroke="#63b8ff" points="1407.35,-150.91 1417.9,-149.97 1409.07,-144.12 1407.35,-150.91"/>
</a>
</g>
</g>
<!-- Node38 -->
<g id="Node000038" class="node">
<title>Node38</title>
<g id="a_Node000038"><a xlink:href="code__80071F00_8c.html#ac2ef76567c814c21e149a422ac6606d6" target="_top" xlink:title=" ">
<polygon fill="white" stroke="#666666" points="1502.5,-58 1410.5,-58 1410.5,-39 1502.5,-39 1502.5,-58"/>
<text text-anchor="middle" x="1456.5" y="-46" font-family="Helvetica,sans-Serif" font-size="10.00">func_8007A910</text>
</a>
</g>
</g>
<!-- Node37&#45;&gt;Node38 -->
<g id="edge61_Node000037_Node000038" class="edge">
<title>Node37&#45;&gt;Node38</title>
<g id="a_edge61_Node000037_Node000038"><a xlink:title=" ">
<path fill="none" stroke="#63b8ff" d="M1528.64,-48.5C1519.93,-48.5 1511.01,-48.5 1502.56,-48.5"/>
<polygon fill="#63b8ff" stroke="#63b8ff" points="1528.72,-52 1538.72,-48.5 1528.72,-45 1528.72,-52"/>
</a>
</g>
</g>
<!-- Node39 -->
<g id="Node000039" class="node">
<title>Node39</title>
<g id="a_Node000039"><a xlink:href="code__80071F00_8c.html#ade67b778933121155720adcbf8c66b47" target="_top" xlink:title=" ">
<polygon fill="white" stroke="#666666" points="1354.5,-58 1262.5,-58 1262.5,-39 1354.5,-39 1354.5,-58"/>
<text text-anchor="middle" x="1308.5" y="-46" font-family="Helvetica,sans-Serif" font-size="10.00">func_8007AA44</text>
</a>
</g>
</g>
<!-- Node38&#45;&gt;Node39 -->
<g id="edge62_Node000038_Node000039" class="edge">
<title>Node38&#45;&gt;Node39</title>
<g id="a_edge62_Node000038_Node000039"><a xlink:title=" ">
<path fill="none" stroke="#63b8ff" d="M1399.94,-48.5C1384.96,-48.5 1368.94,-48.5 1354.62,-48.5"/>
<polygon fill="#63b8ff" stroke="#63b8ff" points="1400.11,-52 1410.11,-48.5 1400.1,-45 1400.11,-52"/>
</a>
</g>
</g>
<!-- Node40 -->
<g id="Node000040" class="node">
<title>Node40</title>
<g id="a_Node000040"><a xlink:href="code__80057C60_8c.html#a48f7fc1ba7acccec2d7b6e0a59f65dc5" target="_top" xlink:title=" ">
<polygon fill="white" stroke="#666666" points="1206.5,-57 1114.5,-57 1114.5,-38 1206.5,-38 1206.5,-57"/>
<text text-anchor="middle" x="1160.5" y="-45" font-family="Helvetica,sans-Serif" font-size="10.00">func_80059D00</text>
</a>
</g>
</g>
<!-- Node39&#45;&gt;Node40 -->
<g id="edge63_Node000039_Node000040" class="edge">
<title>Node39&#45;&gt;Node40</title>
<g id="a_edge63_Node000039_Node000040"><a xlink:title=" ">
<path fill="none" stroke="#63b8ff" d="M1251.94,-48.12C1236.96,-48.02 1220.94,-47.91 1206.62,-47.81"/>
<polygon fill="#63b8ff" stroke="#63b8ff" points="1252.08,-51.62 1262.11,-48.19 1252.13,-44.62 1252.08,-51.62"/>
</a>
</g>
</g>
<!-- Node41 -->
<g id="Node000041" class="node">
<title>Node41</title>
<g id="a_Node000041"><a xlink:href="code__80057C60_8c.html#a86b7dba9c0715c4d7fdf8ce61c0738bc" target="_top" xlink:title=" ">
<polygon fill="white" stroke="#666666" points="1078,-57 986,-57 986,-38 1078,-38 1078,-57"/>
<text text-anchor="middle" x="1032" y="-45" font-family="Helvetica,sans-Serif" font-size="10.00">func_8005A070</text>
</a>
</g>
</g>
<!-- Node40&#45;&gt;Node41 -->
<g id="edge64_Node000040_Node000041" class="edge">
<title>Node40&#45;&gt;Node41</title>
<g id="a_edge64_Node000040_Node000041"><a xlink:title=" ">
<path fill="none" stroke="#63b8ff" d="M1103.93,-47.5C1095.4,-47.5 1086.69,-47.5 1078.42,-47.5"/>
<polygon fill="#63b8ff" stroke="#63b8ff" points="1104.19,-51 1114.19,-47.5 1104.19,-44 1104.19,-51"/>
</a>
</g>
</g>
<!-- Node41&#45;&gt;Node10 -->
<g id="edge68_Node000041_Node000010" class="edge">
<title>Node41&#45;&gt;Node10</title>
<g id="a_edge68_Node000041_Node000010"><a xlink:title=" ">
<path fill="none" stroke="#63b8ff" d="M975.56,-50.37C930.56,-53.45 865.67,-59.6 810,-71.5 783.06,-77.26 753.18,-87.39 732.76,-94.91"/>
<polygon fill="#63b8ff" stroke="#63b8ff" points="975.95,-53.85 985.7,-49.7 975.5,-46.86 975.95,-53.85"/>
</a>
</g>
</g>
<!-- Node41&#45;&gt;Node16 -->
<g id="edge69_Node000041_Node000016" class="edge">
<title>Node41&#45;&gt;Node16</title>
<g id="a_edge69_Node000041_Node000016"><a xlink:title=" ">
<path fill="none" stroke="#63b8ff" d="M990.04,-60.07C977.25,-63.87 963.07,-67.98 950,-71.5 888.17,-88.16 870.13,-83.49 810,-105.5 793.2,-111.65 790.71,-117.12 774,-123.5 765.68,-126.68 756.57,-129.54 747.85,-132"/>
<polygon fill="#63b8ff" stroke="#63b8ff" points="991.37,-63.32 999.95,-57.1 989.36,-56.62 991.37,-63.32"/>
</a>
</g>
</g>
<!-- Node42 -->
<g id="Node000042" class="node">
<title>Node42</title>
<g id="a_Node000042"><a xlink:href="code__80280000_8c.html#a4d9b0156b64d7a67e4cb21cde391ca43" target="_top" xlink:title=" ">
<polygon fill="white" stroke="#666666" points="925.5,-19 834.5,-19 834.5,0 925.5,0 925.5,-19"/>
<text text-anchor="middle" x="880" y="-7" font-family="Helvetica,sans-Serif" font-size="10.00">func_80280000</text>
</a>
</g>
</g>
<!-- Node41&#45;&gt;Node42 -->
<g id="edge65_Node000041_Node000042" class="edge">
<title>Node41&#45;&gt;Node42</title>
<g id="a_edge65_Node000041_Node000042"><a xlink:title=" ">
<path fill="none" stroke="#63b8ff" d="M983.19,-35.39C962.3,-30.1 938.15,-23.98 918.58,-19.02"/>
<polygon fill="#63b8ff" stroke="#63b8ff" points="982.6,-38.85 993.15,-37.91 984.31,-32.06 982.6,-38.85"/>
</a>
</g>
</g>
<!-- Node43 -->
<g id="Node000043" class="node">
<title>Node43</title>
<g id="a_Node000043"><a xlink:href="code__80280000_8c.html#aa28a69be4eda3b8667366c6c7b556024" target="_top" xlink:title=" ">
<polygon fill="white" stroke="#666666" points="745,-57 669,-57 669,-38 745,-38 745,-57"/>
<text text-anchor="middle" x="707" y="-45" font-family="Helvetica,sans-Serif" font-size="10.00">credits_loop</text>
</a>
</g>
</g>
<!-- Node42&#45;&gt;Node43 -->
<g id="edge66_Node000042_Node000043" class="edge">
<title>Node42&#45;&gt;Node43</title>
<g id="a_edge66_Node000042_Node000043"><a xlink:title=" ">
<path fill="none" stroke="#63b8ff" d="M826.05,-21.27C799.79,-27.1 768.72,-34.01 745.05,-39.27"/>
<polygon fill="#63b8ff" stroke="#63b8ff" points="826.85,-24.68 835.85,-19.09 825.33,-17.84 826.85,-24.68"/>
</a>
</g>
</g>
<!-- Node43&#45;&gt;Node11 -->
<g id="edge67_Node000043_Node000011" class="edge">
<title>Node43&#45;&gt;Node11</title>
<g id="a_edge67_Node000043_Node000011"><a xlink:title=" ">
<path fill="none" stroke="#63b8ff" d="M676.29,-61.51C644.53,-76.5 595.01,-99.85 567.38,-112.89"/>
<polygon fill="#63b8ff" stroke="#63b8ff" points="677.99,-64.58 685.54,-57.15 675,-58.25 677.99,-64.58"/>
</a>
</g>
</g>
<!-- Node44&#45;&gt;Node31 -->
<g id="edge71_Node000044_Node000031" class="edge">
<title>Node44&#45;&gt;Node31</title>
<g id="a_edge71_Node000044_Node000031"><a xlink:title=" ">
<path fill="none" stroke="#63b8ff" d="M1528.61,-85.5C1520.2,-85.5 1511.6,-85.5 1503.41,-85.5"/>
<polygon fill="#63b8ff" stroke="#63b8ff" points="1528.72,-89 1538.72,-85.5 1528.72,-82 1528.72,-89"/>
</a>
</g>
</g>
</g>
</svg>
