<?xml version="1.0" encoding="UTF-8" standalone="no"?>
<!DOCTYPE svg PUBLIC "-//W3C//DTD SVG 1.1//EN"
 "http://www.w3.org/Graphics/SVG/1.1/DTD/svg11.dtd">
<!-- Generated by graphviz version 2.43.0 (0)
 -->
<!-- Title: func_800C41CC Pages: 1 -->
<svg width="807pt" height="1080pt"
 viewBox="0.00 0.00 807.00 1079.50" xmlns="http://www.w3.org/2000/svg" xmlns:xlink="http://www.w3.org/1999/xlink">
<g id="graph0" class="graph" transform="scale(1 1) rotate(0) translate(4 1075.5)">
<title>func_800C41CC</title>
<!-- Node1 -->
<g id="Node000001" class="node">
<title>Node1</title>
<g id="a_Node000001"><a xlink:title=" ">
<polygon fill="#999999" stroke="#666666" points="799,-921 706,-921 706,-902 799,-902 799,-921"/>
<text text-anchor="middle" x="752.5" y="-909" font-family="Helvetica,sans-Serif" font-size="10.00">func_800C41CC</text>
</a>
</g>
</g>
<!-- Node2 -->
<g id="Node000002" class="node">
<title>Node2</title>
<g id="a_Node000002"><a xlink:href="external_8c.html#a3d8334bd4e9a682bd18c614fd427004e" target="_top" xlink:title=" ">
<polygon fill="white" stroke="#666666" points="670,-921 578,-921 578,-902 670,-902 670,-921"/>
<text text-anchor="middle" x="624" y="-909" font-family="Helvetica,sans-Serif" font-size="10.00">func_800C5278</text>
</a>
</g>
</g>
<!-- Node1&#45;&gt;Node2 -->
<g id="edge1_Node000001_Node000002" class="edge">
<title>Node1&#45;&gt;Node2</title>
<g id="a_edge1_Node000001_Node000002"><a xlink:title=" ">
<path fill="none" stroke="#63b8ff" d="M695.59,-911.5C687.09,-911.5 678.41,-911.5 670.18,-911.5"/>
<polygon fill="#63b8ff" stroke="#63b8ff" points="695.83,-915 705.83,-911.5 695.83,-908 695.83,-915"/>
</a>
</g>
</g>
<!-- Node28 -->
<g id="Node000028" class="node">
<title>Node28</title>
<g id="a_Node000028"><a xlink:href="external_8c.html#a8f95640fef6382013af69a10a1dad4f7" target="_top" xlink:title=" ">
<polygon fill="white" stroke="#666666" points="670,-958 578,-958 578,-939 670,-939 670,-958"/>
<text text-anchor="middle" x="624" y="-946" font-family="Helvetica,sans-Serif" font-size="10.00">func_800C54B8</text>
</a>
</g>
</g>
<!-- Node1&#45;&gt;Node28 -->
<g id="edge11_Node000001_Node000028" class="edge">
<title>Node1&#45;&gt;Node28</title>
<g id="a_edge11_Node000001_Node000028"><a xlink:title=" ">
<path fill="none" stroke="#63b8ff" d="M708.89,-923.96C692.25,-928.83 673.47,-934.32 657.91,-938.88"/>
<polygon fill="#63b8ff" stroke="#63b8ff" points="710.31,-927.2 718.92,-921.03 708.34,-920.48 710.31,-927.2"/>
</a>
</g>
</g>
<!-- Node29 -->
<g id="Node000029" class="node">
<title>Node29</title>
<g id="a_Node000029"><a xlink:href="external_8c.html#ac670a5c7b8fa5490ab1ee563ffffcd9c" target="_top" xlink:title=" ">
<polygon fill="white" stroke="#666666" points="670,-884 578,-884 578,-865 670,-865 670,-884"/>
<text text-anchor="middle" x="624" y="-872" font-family="Helvetica,sans-Serif" font-size="10.00">func_800C550C</text>
</a>
</g>
</g>
<!-- Node1&#45;&gt;Node29 -->
<g id="edge12_Node000001_Node000029" class="edge">
<title>Node1&#45;&gt;Node29</title>
<g id="a_edge12_Node000001_Node000029"><a xlink:title=" ">
<path fill="none" stroke="#63b8ff" d="M708.89,-899.04C692.25,-894.17 673.47,-888.68 657.91,-884.12"/>
<polygon fill="#63b8ff" stroke="#63b8ff" points="708.34,-902.52 718.92,-901.97 710.31,-895.8 708.34,-902.52"/>
</a>
</g>
</g>
<!-- Node31 -->
<g id="Node000031" class="node">
<title>Node31</title>
<g id="a_Node000031"><a xlink:href="external_8c.html#a028d40421b90c38f68ebfd5acc626f2e" target="_top" xlink:title=" ">
<polygon fill="white" stroke="#666666" points="670,-494 578,-494 578,-475 670,-475 670,-494"/>
<text text-anchor="middle" x="624" y="-482" font-family="Helvetica,sans-Serif" font-size="10.00">func_800C5578</text>
</a>
</g>
</g>
<!-- Node1&#45;&gt;Node31 -->
<g id="edge19_Node000001_Node000031" class="edge">
<title>Node1&#45;&gt;Node31</title>
<g id="a_edge19_Node000001_Node000031"><a xlink:title=" ">
<path fill="none" stroke="#63b8ff" d="M745.65,-891.74C723.3,-816.32 643.83,-548.05 627.82,-494.02"/>
<polygon fill="#63b8ff" stroke="#63b8ff" points="742.42,-893.19 748.62,-901.78 749.14,-891.2 742.42,-893.19"/>
</a>
</g>
</g>
<!-- Node168 -->
<g id="Node000168" class="node">
<title>Node168</title>
<g id="a_Node000168"><a xlink:href="external_8c.html#a18c71fc634c319d176306b3ce04c2896" target="_top" xlink:title=" ">
<polygon fill="white" stroke="#666666" points="670,-996 578,-996 578,-977 670,-977 670,-996"/>
<text text-anchor="middle" x="624" y="-984" font-family="Helvetica,sans-Serif" font-size="10.00">func_800C56F0</text>
</a>
</g>
</g>
<!-- Node1&#45;&gt;Node168 -->
<g id="edge59_Node000001_Node000168" class="edge">
<title>Node1&#45;&gt;Node168</title>
<g id="a_edge59_Node000001_Node000168"><a xlink:title=" ">
<path fill="none" stroke="#63b8ff" d="M730.51,-927.17C714.42,-938.8 691.42,-954.63 670,-966.5 663.27,-970.23 655.71,-973.81 648.74,-976.88"/>
<polygon fill="#63b8ff" stroke="#63b8ff" points="732.68,-929.92 738.68,-921.19 728.54,-924.27 732.68,-929.92"/>
</a>
</g>
</g>
<!-- Node3 -->
<g id="Node000003" class="node">
<title>Node3</title>
<g id="a_Node000003"><a xlink:href="external_8c.html#a9bc9f57fb83f73d37b56721df044d722" target="_top" xlink:title=" ">
<polygon fill="white" stroke="#666666" points="398.5,-881 306.5,-881 306.5,-862 398.5,-862 398.5,-881"/>
<text text-anchor="middle" x="352.5" y="-869" font-family="Helvetica,sans-Serif" font-size="10.00">func_800C76C0</text>
</a>
</g>
</g>
<!-- Node2&#45;&gt;Node3 -->
<g id="edge2_Node000002_Node000003" class="edge">
<title>Node2&#45;&gt;Node3</title>
<g id="a_edge2_Node000002_Node000003"><a xlink:title=" ">
<path fill="none" stroke="#63b8ff" d="M567.53,-906.52C533.03,-903.08 487.8,-897.97 448,-891.5 430.29,-888.62 410.87,-884.65 394.27,-881.01"/>
<polygon fill="#63b8ff" stroke="#63b8ff" points="567.59,-910.04 577.88,-907.53 568.27,-903.07 567.59,-910.04"/>
</a>
</g>
</g>
<!-- Node21 -->
<g id="Node000021" class="node">
<title>Node21</title>
<g id="a_Node000021"><a xlink:href="external_8c.html#a518bea6c084cccd3443950737f53a97a" target="_top" xlink:title=" ">
<polygon fill="white" stroke="#666666" points="541,-959 449,-959 449,-940 541,-940 541,-959"/>
<text text-anchor="middle" x="495" y="-947" font-family="Helvetica,sans-Serif" font-size="10.00">func_800CA0E4</text>
</a>
</g>
</g>
<!-- Node2&#45;&gt;Node21 -->
<g id="edge5_Node000002_Node000021" class="edge">
<title>Node2&#45;&gt;Node21</title>
<g id="a_edge5_Node000002_Node000021"><a xlink:title=" ">
<path fill="none" stroke="#63b8ff" d="M581.11,-924.04C563.83,-929.2 544.13,-935.1 528.04,-939.91"/>
<polygon fill="#63b8ff" stroke="#63b8ff" points="582.38,-927.31 590.95,-921.09 580.37,-920.6 582.38,-927.31"/>
</a>
</g>
</g>
<!-- Node4 -->
<g id="Node000004" class="node">
<title>Node4</title>
<g id="a_Node000004"><a xlink:href="external_8c.html#aebe0a7e33d0961a0ad7e4ba40a49a032" target="_top" xlink:title=" ">
<polygon fill="white" stroke="#666666" points="253.5,-826 159.5,-826 159.5,-807 253.5,-807 253.5,-826"/>
<text text-anchor="middle" x="206.5" y="-814" font-family="Helvetica,sans-Serif" font-size="10.00">func_800C8CCC</text>
</a>
</g>
</g>
<!-- Node3&#45;&gt;Node4 -->
<g id="edge3_Node000003_Node000004" class="edge">
<title>Node3&#45;&gt;Node4</title>
<g id="a_edge3_Node000003_Node000004"><a xlink:title=" ">
<path fill="none" stroke="#63b8ff" d="M310.55,-858.69C304.64,-856.7 298.64,-854.6 293,-852.5 270.81,-844.24 245.91,-833.6 228.73,-826.03"/>
<polygon fill="#63b8ff" stroke="#63b8ff" points="309.77,-862.12 320.36,-861.93 311.96,-855.47 309.77,-862.12"/>
</a>
</g>
</g>
<!-- Node5 -->
<g id="Node000005" class="node">
<title>Node5</title>
<g id="a_Node000005"><a xlink:href="external_8c.html#a12c3e6c147828cc102e748904808ea4a" target="_top" xlink:title=" ">
<polygon fill="#fff0f0" stroke="red" points="106.5,-826 13.5,-826 13.5,-807 106.5,-807 106.5,-826"/>
<text text-anchor="middle" x="60" y="-814" font-family="Helvetica,sans-Serif" font-size="10.00">func_800CB2C4</text>
</a>
</g>
</g>
<!-- Node4&#45;&gt;Node5 -->
<g id="edge4_Node000004_Node000005" class="edge">
<title>Node4&#45;&gt;Node5</title>
<g id="a_edge4_Node000004_Node000005"><a xlink:title=" ">
<path fill="none" stroke="#63b8ff" d="M149.29,-816.5C135.18,-816.5 120.21,-816.5 106.68,-816.5"/>
<polygon fill="#63b8ff" stroke="#63b8ff" points="149.38,-820 159.38,-816.5 149.38,-813 149.38,-820"/>
</a>
</g>
</g>
<!-- Node22 -->
<g id="Node000022" class="node">
<title>Node22</title>
<g id="a_Node000022"><a xlink:href="external_8c.html#a6bb2826cc804a0c5050b58e528cea272" target="_top" xlink:title=" ">
<polygon fill="white" stroke="#666666" points="398.5,-1029 306.5,-1029 306.5,-1010 398.5,-1010 398.5,-1029"/>
<text text-anchor="middle" x="352.5" y="-1017" font-family="Helvetica,sans-Serif" font-size="10.00">func_800CA118</text>
</a>
</g>
</g>
<!-- Node21&#45;&gt;Node22 -->
<g id="edge6_Node000021_Node000022" class="edge">
<title>Node21&#45;&gt;Node22</title>
<g id="a_edge6_Node000021_Node000022"><a xlink:title=" ">
<path fill="none" stroke="#63b8ff" d="M458.53,-962.84C454.95,-964.35 451.38,-965.92 448,-967.5 419.68,-980.76 388.09,-998.85 369.55,-1009.82"/>
<polygon fill="#63b8ff" stroke="#63b8ff" points="460.01,-966.02 467.96,-959.01 457.38,-959.53 460.01,-966.02"/>
</a>
</g>
</g>
<!-- Node23 -->
<g id="Node000023" class="node">
<title>Node23</title>
<g id="a_Node000023"><a xlink:href="race__logic_8c.html#a47f2e46e866e68495bc5792fb13f0d66" target="_top" xlink:title=" ">
<polygon fill="white" stroke="#666666" points="252,-1047 161,-1047 161,-1028 252,-1028 252,-1047"/>
<text text-anchor="middle" x="206.5" y="-1035" font-family="Helvetica,sans-Serif" font-size="10.00">func_8028E028</text>
</a>
</g>
</g>
<!-- Node22&#45;&gt;Node23 -->
<g id="edge7_Node000022_Node000023" class="edge">
<title>Node22&#45;&gt;Node23</title>
<g id="a_edge7_Node000022_Node000023"><a xlink:title=" ">
<path fill="none" stroke="#63b8ff" d="M296.37,-1026.39C281.7,-1028.23 266.04,-1030.18 252.01,-1031.94"/>
<polygon fill="#63b8ff" stroke="#63b8ff" points="296.84,-1029.86 306.33,-1025.15 295.98,-1022.91 296.84,-1029.86"/>
</a>
</g>
</g>
<!-- Node24 -->
<g id="Node000024" class="node">
<title>Node24</title>
<g id="a_Node000024"><a xlink:href="race__logic_8c.html#a9c6f4eb059607fcd18e4df0dcaaeec5b" target="_top" xlink:title=" ">
<polygon fill="#fff0f0" stroke="red" points="120,-1071.5 0,-1071.5 0,-1041.5 120,-1041.5 120,-1071.5"/>
<text text-anchor="start" x="8" y="-1059.5" font-family="Helvetica,sans-Serif" font-size="10.00">update_player_battle</text>
<text text-anchor="middle" x="60" y="-1048.5" font-family="Helvetica,sans-Serif" font-size="10.00">_status</text>
</a>
</g>
</g>
<!-- Node22&#45;&gt;Node24 -->
<g id="edge10_Node000022_Node000024" class="edge">
<title>Node22&#45;&gt;Node24</title>
<g id="a_edge10_Node000022_Node000024"><a xlink:title=" ">
<path fill="none" stroke="#63b8ff" d="M324.04,-1033.41C305.61,-1041.95 280.48,-1052.07 257,-1056.5 211.69,-1065.05 159.44,-1064.55 120.28,-1062.19"/>
<polygon fill="#63b8ff" stroke="#63b8ff" points="325.77,-1036.46 333.29,-1029 322.75,-1030.15 325.77,-1036.46"/>
</a>
</g>
</g>
<!-- Node27 -->
<g id="Node000027" class="node">
<title>Node27</title>
<g id="a_Node000027"><a xlink:href="race__logic_8c.html#a2645116d52469ec9b45c668d694e98c4" target="_top" xlink:title=" ">
<polygon fill="#fff0f0" stroke="red" points="252,-1010 161,-1010 161,-991 252,-991 252,-1010"/>
<text text-anchor="middle" x="206.5" y="-998" font-family="Helvetica,sans-Serif" font-size="10.00">func_8028EF28</text>
</a>
</g>
</g>
<!-- Node22&#45;&gt;Node27 -->
<g id="edge9_Node000022_Node000027" class="edge">
<title>Node22&#45;&gt;Node27</title>
<g id="a_edge9_Node000022_Node000027"><a xlink:title=" ">
<path fill="none" stroke="#63b8ff" d="M296.37,-1012.23C281.7,-1010.29 266.04,-1008.22 252.01,-1006.37"/>
<polygon fill="#63b8ff" stroke="#63b8ff" points="295.96,-1015.7 306.33,-1013.54 296.88,-1008.76 295.96,-1015.7"/>
</a>
</g>
</g>
<!-- Node23&#45;&gt;Node24 -->
<g id="edge8_Node000023_Node000024" class="edge">
<title>Node23&#45;&gt;Node24</title>
<g id="a_edge8_Node000023_Node000024"><a xlink:title=" ">
<path fill="none" stroke="#63b8ff" d="M151.03,-1044.66C140.9,-1045.99 130.28,-1047.39 120.02,-1048.74"/>
<polygon fill="#63b8ff" stroke="#63b8ff" points="151.51,-1048.13 160.97,-1043.36 150.6,-1041.19 151.51,-1048.13"/>
</a>
</g>
</g>
<!-- Node30 -->
<g id="Node000030" class="node">
<title>Node30</title>
<g id="a_Node000030"><a xlink:href="external_8c.html#a1041b412a7bdcec3c697ed68bec652d6" target="_top" xlink:title=" ">
<polygon fill="white" stroke="#666666" points="542,-883 448,-883 448,-864 542,-864 542,-883"/>
<text text-anchor="middle" x="495" y="-871" font-family="Helvetica,sans-Serif" font-size="10.00">func_800C9D0C</text>
</a>
</g>
</g>
<!-- Node29&#45;&gt;Node30 -->
<g id="edge13_Node000029_Node000030" class="edge">
<title>Node29&#45;&gt;Node30</title>
<g id="a_edge13_Node000029_Node000030"><a xlink:title=" ">
<path fill="none" stroke="#63b8ff" d="M567.67,-874.06C559.2,-874 550.53,-873.93 542.27,-873.86"/>
<polygon fill="#63b8ff" stroke="#63b8ff" points="567.84,-877.57 577.87,-874.14 567.89,-870.57 567.84,-877.57"/>
</a>
</g>
</g>
<!-- Node30&#45;&gt;Node3 -->
<g id="edge18_Node000030_Node000003" class="edge">
<title>Node30&#45;&gt;Node3</title>
<g id="a_edge18_Node000030_Node000003"><a xlink:title=" ">
<path fill="none" stroke="#63b8ff" d="M437.75,-872.7C424.76,-872.51 411.1,-872.32 398.65,-872.14"/>
<polygon fill="#63b8ff" stroke="#63b8ff" points="437.95,-876.2 448,-872.85 438.05,-869.2 437.95,-876.2"/>
</a>
</g>
</g>
<!-- Node8 -->
<g id="Node000008" class="node">
<title>Node8</title>
<g id="a_Node000008"><a xlink:href="code__80091750_8c.html#a4c171632ff32db3cbe13719e6478d536" target="_top" xlink:title=" ">
<polygon fill="#fff0f0" stroke="red" points="398.5,-955 306.5,-955 306.5,-936 398.5,-936 398.5,-955"/>
<text text-anchor="middle" x="352.5" y="-943" font-family="Helvetica,sans-Serif" font-size="10.00">func_80091B78</text>
</a>
</g>
</g>
<!-- Node30&#45;&gt;Node8 -->
<g id="edge14_Node000030_Node000008" class="edge">
<title>Node30&#45;&gt;Node8</title>
<g id="a_edge14_Node000030_Node000008"><a xlink:title=" ">
<path fill="none" stroke="#63b8ff" d="M473.4,-888.97C457.32,-900.5 434.09,-916 412,-926.5 404.48,-930.08 396.11,-933.24 388.11,-935.91"/>
<polygon fill="#63b8ff" stroke="#63b8ff" points="475.52,-891.75 481.54,-883.03 471.4,-886.1 475.52,-891.75"/>
</a>
</g>
</g>
<!-- Node9 -->
<g id="Node000009" class="node">
<title>Node9</title>
<g id="a_Node000009"><a xlink:href="main_8c.html#a8ccd4f2ae1a9502071e1b43ab07a78d3" target="_top" xlink:title=" ">
<polygon fill="#fff0f0" stroke="red" points="252.5,-973 160.5,-973 160.5,-954 252.5,-954 252.5,-973"/>
<text text-anchor="middle" x="206.5" y="-961" font-family="Helvetica,sans-Serif" font-size="10.00">func_800025D4</text>
</a>
</g>
</g>
<!-- Node8&#45;&gt;Node9 -->
<g id="edge15_Node000008_Node000009" class="edge">
<title>Node8&#45;&gt;Node9</title>
<g id="a_edge15_Node000008_Node000009"><a xlink:title=" ">
<path fill="none" stroke="#63b8ff" d="M296.04,-952.43C281.64,-954.23 266.3,-956.15 252.51,-957.87"/>
<polygon fill="#63b8ff" stroke="#63b8ff" points="296.84,-955.86 306.33,-951.15 295.98,-948.91 296.84,-955.86"/>
</a>
</g>
</g>
<!-- Node15 -->
<g id="Node000015" class="node">
<title>Node15</title>
<g id="a_Node000015"><a xlink:href="main_8c.html#a1399390ccfb8062de2a77e48df769faf" target="_top" xlink:title=" ">
<polygon fill="#fff0f0" stroke="red" points="252,-936 161,-936 161,-917 252,-917 252,-936"/>
<text text-anchor="middle" x="206.5" y="-924" font-family="Helvetica,sans-Serif" font-size="10.00">func_80002600</text>
</a>
</g>
</g>
<!-- Node8&#45;&gt;Node15 -->
<g id="edge16_Node000008_Node000015" class="edge">
<title>Node8&#45;&gt;Node15</title>
<g id="a_edge16_Node000008_Node000015"><a xlink:title=" ">
<path fill="none" stroke="#63b8ff" d="M296.37,-938.23C281.7,-936.29 266.04,-934.22 252.01,-932.37"/>
<polygon fill="#63b8ff" stroke="#63b8ff" points="295.96,-941.7 306.33,-939.54 296.88,-934.76 295.96,-941.7"/>
</a>
</g>
</g>
<!-- Node16 -->
<g id="Node000016" class="node">
<title>Node16</title>
<g id="a_Node000016"><a xlink:href="main_8c.html#a26a29858c220d867684f0385abacfde8" target="_top" xlink:title=" ">
<polygon fill="#fff0f0" stroke="red" points="252.5,-899 160.5,-899 160.5,-880 252.5,-880 252.5,-899"/>
<text text-anchor="middle" x="206.5" y="-887" font-family="Helvetica,sans-Serif" font-size="10.00">func_8000262C</text>
</a>
</g>
</g>
<!-- Node8&#45;&gt;Node16 -->
<g id="edge17_Node000008_Node000016" class="edge">
<title>Node8&#45;&gt;Node16</title>
<g id="a_edge17_Node000008_Node000016"><a xlink:title=" ">
<path fill="none" stroke="#63b8ff" d="M308.97,-932.64C303.54,-930.72 298.1,-928.66 293,-926.5 276.34,-919.46 273.54,-914.83 257,-907.5 250.23,-904.5 242.79,-901.59 235.78,-899.03"/>
<polygon fill="#63b8ff" stroke="#63b8ff" points="308.05,-936.02 318.65,-935.92 310.3,-929.39 308.05,-936.02"/>
</a>
</g>
</g>
<!-- Node31&#45;&gt;Node3 -->
<g id="edge22_Node000031_Node000003" class="edge">
<title>Node31&#45;&gt;Node3</title>
<g id="a_edge22_Node000031_Node000003"><a xlink:title=" ">
<path fill="none" stroke="#63b8ff" d="M620.77,-504.05C613.08,-568.01 585.78,-769.53 542,-815.5 522.34,-836.14 448.11,-853.68 398.88,-863.39"/>
<polygon fill="#63b8ff" stroke="#63b8ff" points="624.25,-504.42 621.94,-494.08 617.29,-503.61 624.25,-504.42"/>
</a>
</g>
</g>
<!-- Node32 -->
<g id="Node000032" class="node">
<title>Node32</title>
<g id="a_Node000032"><a xlink:href="external_8c.html#a629cbbd815e11fee9d438b90bf49b2a7" target="_top" xlink:title=" ">
<polygon fill="white" stroke="#666666" points="541,-146 449,-146 449,-127 541,-127 541,-146"/>
<text text-anchor="middle" x="495" y="-134" font-family="Helvetica,sans-Serif" font-size="10.00">func_800C683C</text>
</a>
</g>
</g>
<!-- Node31&#45;&gt;Node32 -->
<g id="edge20_Node000031_Node000032" class="edge">
<title>Node31&#45;&gt;Node32</title>
<g id="a_edge20_Node000031_Node000032"><a xlink:title=" ">
<path fill="none" stroke="#63b8ff" d="M621.19,-464.91C615.86,-414.94 597.01,-279.86 542,-183.5 533.4,-168.43 518.79,-154.69 508.35,-146.01"/>
<polygon fill="#63b8ff" stroke="#63b8ff" points="617.72,-465.38 622.2,-474.98 624.68,-464.68 617.72,-465.38"/>
</a>
</g>
</g>
<!-- Node33 -->
<g id="Node000033" class="node">
<title>Node33</title>
<g id="a_Node000033"><a xlink:href="external_8c.html#ad377fc55133176f069744a4bcb5e0364" target="_top" xlink:title=" ">
<polygon fill="white" stroke="#666666" points="541,-622 449,-622 449,-603 541,-603 541,-622"/>
<text text-anchor="middle" x="495" y="-610" font-family="Helvetica,sans-Serif" font-size="10.00">func_800C9018</text>
</a>
</g>
</g>
<!-- Node31&#45;&gt;Node33 -->
<g id="edge23_Node000031_Node000033" class="edge">
<title>Node31&#45;&gt;Node33</title>
<g id="a_edge23_Node000031_Node000033"><a xlink:title=" ">
<path fill="none" stroke="#63b8ff" d="M606.27,-501.37C579.33,-528.52 527.18,-581.07 505.66,-602.77"/>
<polygon fill="#63b8ff" stroke="#63b8ff" points="608.9,-503.68 613.45,-494.12 603.93,-498.75 608.9,-503.68"/>
</a>
</g>
</g>
<!-- Node89 -->
<g id="Node000089" class="node">
<title>Node89</title>
<g id="a_Node000089"><a xlink:href="external_8c.html#ae8a5e8ffbb625059aac9be15d4b2d310" target="_top" xlink:title=" ">
<polygon fill="white" stroke="#666666" points="541,-807 449,-807 449,-788 541,-788 541,-807"/>
<text text-anchor="middle" x="495" y="-795" font-family="Helvetica,sans-Serif" font-size="10.00">func_800C97C4</text>
</a>
</g>
</g>
<!-- Node31&#45;&gt;Node89 -->
<g id="edge40_Node000031_Node000089" class="edge">
<title>Node31&#45;&gt;Node89</title>
<g id="a_edge40_Node000031_Node000089"><a xlink:title=" ">
<path fill="none" stroke="#63b8ff" d="M615.27,-503.56C591.11,-563.09 517.65,-744.14 499.89,-787.9"/>
<polygon fill="#63b8ff" stroke="#63b8ff" points="618.54,-504.79 619.06,-494.21 612.06,-502.16 618.54,-504.79"/>
</a>
</g>
</g>
<!-- Node91 -->
<g id="Node000091" class="node">
<title>Node91</title>
<g id="a_Node000091"><a xlink:href="external_8c.html#ae72057869772019e4464c87d4e16c682" target="_top" xlink:title=" ">
<polygon fill="white" stroke="#666666" points="541,-366 449,-366 449,-347 541,-347 541,-366"/>
<text text-anchor="middle" x="495" y="-354" font-family="Helvetica,sans-Serif" font-size="10.00">func_800C99E0</text>
</a>
</g>
</g>
<!-- Node31&#45;&gt;Node91 -->
<g id="edge46_Node000031_Node000091" class="edge">
<title>Node31&#45;&gt;Node91</title>
<g id="a_edge46_Node000031_Node000091"><a xlink:title=" ">
<path fill="none" stroke="#63b8ff" d="M606.27,-467.63C579.33,-440.48 527.18,-387.93 505.66,-366.23"/>
<polygon fill="#63b8ff" stroke="#63b8ff" points="603.93,-470.25 613.45,-474.88 608.9,-465.32 603.93,-470.25"/>
</a>
</g>
</g>
<!-- Node146 -->
<g id="Node000146" class="node">
<title>Node146</title>
<g id="a_Node000146"><a xlink:href="external_8c.html#a73831bcbe259500206651a0b4702be9f" target="_top" xlink:title=" ">
<polygon fill="white" stroke="#666666" points="541,-212 449,-212 449,-193 541,-193 541,-212"/>
<text text-anchor="middle" x="495" y="-200" font-family="Helvetica,sans-Serif" font-size="10.00">func_800C9EF4</text>
</a>
</g>
</g>
<!-- Node31&#45;&gt;Node146 -->
<g id="edge49_Node000031_Node000146" class="edge">
<title>Node31&#45;&gt;Node146</title>
<g id="a_edge49_Node000031_Node000146"><a xlink:title=" ">
<path fill="none" stroke="#63b8ff" d="M614.45,-465.51C589.71,-410.59 518.68,-252.85 500.35,-212.17"/>
<polygon fill="#63b8ff" stroke="#63b8ff" points="611.33,-467.11 618.63,-474.79 617.71,-464.24 611.33,-467.11"/>
</a>
</g>
</g>
<!-- Node167 -->
<g id="Node000167" class="node">
<title>Node167</title>
<g id="a_Node000167"><a xlink:href="external_8c.html#a3138069310bbed5109964d607d51811f" target="_top" xlink:title=" ">
<polygon fill="white" stroke="#666666" points="400,-19 305,-19 305,0 400,0 400,-19"/>
<text text-anchor="middle" x="352.5" y="-7" font-family="Helvetica,sans-Serif" font-size="10.00">func_800CAACC</text>
</a>
</g>
</g>
<!-- Node31&#45;&gt;Node167 -->
<g id="edge56_Node000031_Node000167" class="edge">
<title>Node31&#45;&gt;Node167</title>
<g id="a_edge56_Node000031_Node000167"><a xlink:title=" ">
<path fill="none" stroke="#63b8ff" d="M623.65,-464.9C624.64,-406.46 620.53,-230.53 542,-117.5 504.56,-63.6 430.93,-33.08 387.61,-19.05"/>
<polygon fill="#63b8ff" stroke="#63b8ff" points="620.15,-464.88 623.41,-474.96 627.15,-465.05 620.15,-464.88"/>
</a>
</g>
</g>
<!-- Node32&#45;&gt;Node4 -->
<g id="edge21_Node000032_Node000004" class="edge">
<title>Node32&#45;&gt;Node4</title>
<g id="a_edge21_Node000032_Node000004"><a xlink:title=" ">
<path fill="none" stroke="#63b8ff" d="M475.2,-119.87C452.19,-99.62 415.81,-67.91 412,-66.5 362.38,-48.2 332.46,-31.28 293,-66.5 285.71,-73.01 217.65,-719.71 208.51,-806.83"/>
<polygon fill="#63b8ff" stroke="#63b8ff" points="473.17,-122.75 482.98,-126.74 477.8,-117.5 473.17,-122.75"/>
</a>
</g>
</g>
<!-- Node33&#45;&gt;Node3 -->
<g id="edge30_Node000033_Node000003" class="edge">
<title>Node33&#45;&gt;Node3</title>
<g id="a_edge30_Node000033_Node000003"><a xlink:title=" ">
<path fill="none" stroke="#63b8ff" d="M488.51,-631.73C472.91,-685.8 428.44,-836.31 412,-852.5 408.04,-856.4 403.28,-859.49 398.2,-861.96"/>
<polygon fill="#63b8ff" stroke="#63b8ff" points="491.9,-632.58 491.3,-622 485.18,-630.65 491.9,-632.58"/>
</a>
</g>
</g>
<!-- Node34 -->
<g id="Node000034" class="node">
<title>Node34</title>
<g id="a_Node000034"><a xlink:href="player__controller_8c.html#a1796f758711d87699791687c8c8ea84f" target="_top" xlink:title=" ">
<polygon fill="#fff0f0" stroke="red" points="399,-770 306,-770 306,-751 399,-751 399,-770"/>
<text text-anchor="middle" x="352.5" y="-758" font-family="Helvetica,sans-Serif" font-size="10.00">func_80027EDC</text>
</a>
</g>
</g>
<!-- Node33&#45;&gt;Node34 -->
<g id="edge24_Node000033_Node000034" class="edge">
<title>Node33&#45;&gt;Node34</title>
<g id="a_edge24_Node000033_Node000034"><a xlink:title=" ">
<path fill="none" stroke="#63b8ff" d="M486.76,-631.7C475.21,-659.84 449.94,-712.09 412,-741.5 407.02,-745.36 401.23,-748.45 395.26,-750.92"/>
<polygon fill="#63b8ff" stroke="#63b8ff" points="490.1,-632.79 490.52,-622.2 483.59,-630.21 490.1,-632.79"/>
</a>
</g>
</g>
<!-- Node47 -->
<g id="Node000047" class="node">
<title>Node47</title>
<g id="a_Node000047"><a xlink:href="update__objects_8c.html#a494d2eda5e833a373c2f02eae59d972c" target="_top" xlink:title=" ">
<polygon fill="#fff0f0" stroke="red" points="398,-733 307,-733 307,-714 398,-714 398,-733"/>
<text text-anchor="middle" x="352.5" y="-721" font-family="Helvetica,sans-Serif" font-size="10.00">func_800791F0</text>
</a>
</g>
</g>
<!-- Node33&#45;&gt;Node47 -->
<g id="edge25_Node000033_Node000047" class="edge">
<title>Node33&#45;&gt;Node47</title>
<g id="a_edge25_Node000033_Node000047"><a xlink:title=" ">
<path fill="none" stroke="#63b8ff" d="M482.32,-630.59C468.08,-651.28 442.14,-684.82 412,-704.5 406.19,-708.29 399.56,-711.39 392.9,-713.89"/>
<polygon fill="#63b8ff" stroke="#63b8ff" points="485.36,-632.34 488.02,-622.08 479.54,-628.44 485.36,-632.34"/>
</a>
</g>
</g>
<!-- Node64 -->
<g id="Node000064" class="node">
<title>Node64</title>
<g id="a_Node000064"><a xlink:href="update__objects_8c.html#a5b10e163d17f78f43ec59de3a5c401a0" target="_top" xlink:title=" ">
<polygon fill="#fff0f0" stroke="red" points="398.5,-696 306.5,-696 306.5,-677 398.5,-677 398.5,-696"/>
<text text-anchor="middle" x="352.5" y="-684" font-family="Helvetica,sans-Serif" font-size="10.00">func_8007B34C</text>
</a>
</g>
</g>
<!-- Node33&#45;&gt;Node64 -->
<g id="edge26_Node000033_Node000064" class="edge">
<title>Node33&#45;&gt;Node64</title>
<g id="a_edge26_Node000033_Node000064"><a xlink:title=" ">
<path fill="none" stroke="#63b8ff" d="M474.05,-628.19C458,-640.22 434.5,-656.56 412,-667.5 404.51,-671.14 396.15,-674.33 388.15,-677"/>
<polygon fill="#63b8ff" stroke="#63b8ff" points="476.32,-630.86 482.14,-622.01 472.07,-625.29 476.32,-630.86"/>
</a>
</g>
</g>
<!-- Node66 -->
<g id="Node000066" class="node">
<title>Node66</title>
<g id="a_Node000066"><a xlink:href="effects_8c.html#ad34129e6236b319a5bcedae86d59bc2c" target="_top" xlink:title=" ">
<polygon fill="#fff0f0" stroke="red" points="398,-659 307,-659 307,-640 398,-640 398,-659"/>
<text text-anchor="middle" x="352.5" y="-647" font-family="Helvetica,sans-Serif" font-size="10.00">func_80090970</text>
</a>
</g>
</g>
<!-- Node33&#45;&gt;Node66 -->
<g id="edge27_Node000033_Node000066" class="edge">
<title>Node33&#45;&gt;Node66</title>
<g id="a_edge27_Node000033_Node000066"><a xlink:title=" ">
<path fill="none" stroke="#63b8ff" d="M447.98,-624.62C429.18,-629.57 407.74,-635.22 390.05,-639.88"/>
<polygon fill="#63b8ff" stroke="#63b8ff" points="449.04,-627.96 457.82,-622.03 447.26,-621.19 449.04,-627.96"/>
</a>
</g>
</g>
<!-- Node71 -->
<g id="Node000071" class="node">
<title>Node71</title>
<g id="a_Node000071"><a xlink:href="external_8c.html#a6adc8dfd43ac90ecb9cbe18c1e56d762" target="_top" xlink:title=" ">
<polygon fill="white" stroke="#666666" points="398.5,-622 306.5,-622 306.5,-603 398.5,-603 398.5,-622"/>
<text text-anchor="middle" x="352.5" y="-610" font-family="Helvetica,sans-Serif" font-size="10.00">func_800C5E38</text>
</a>
</g>
</g>
<!-- Node33&#45;&gt;Node71 -->
<g id="edge28_Node000033_Node000071" class="edge">
<title>Node33&#45;&gt;Node71</title>
<g id="a_edge28_Node000033_Node000071"><a xlink:title=" ">
<path fill="none" stroke="#63b8ff" d="M438.39,-612.5C425.2,-612.5 411.3,-612.5 398.64,-612.5"/>
<polygon fill="#63b8ff" stroke="#63b8ff" points="438.77,-616 448.77,-612.5 438.77,-609 438.77,-616"/>
</a>
</g>
</g>
<!-- Node72 -->
<g id="Node000072" class="node">
<title>Node72</title>
<g id="a_Node000072"><a xlink:href="external_8c.html#ab95692e47151e93fb7d149534da6a180" target="_top" xlink:title=" ">
<polygon fill="white" stroke="#666666" points="398.5,-807 306.5,-807 306.5,-788 398.5,-788 398.5,-807"/>
<text text-anchor="middle" x="352.5" y="-795" font-family="Helvetica,sans-Serif" font-size="10.00">func_800C847C</text>
</a>
</g>
</g>
<!-- Node33&#45;&gt;Node72 -->
<g id="edge31_Node000033_Node000072" class="edge">
<title>Node33&#45;&gt;Node72</title>
<g id="a_edge31_Node000033_Node000072"><a xlink:title=" ">
<path fill="none" stroke="#63b8ff" d="M489.6,-632.22C480.87,-666.85 458.07,-738.66 412,-778.5 407.48,-782.41 402.13,-785.52 396.54,-787.99"/>
<polygon fill="#63b8ff" stroke="#63b8ff" points="493.03,-632.92 491.95,-622.38 486.23,-631.29 493.03,-632.92"/>
</a>
</g>
</g>
<!-- Node73 -->
<g id="Node000073" class="node">
<title>Node73</title>
<g id="a_Node000073"><a xlink:href="external_8c.html#ac32b332e8b9a73af543741393186060d" target="_top" xlink:title=" ">
<polygon fill="white" stroke="#666666" points="398.5,-585 306.5,-585 306.5,-566 398.5,-566 398.5,-585"/>
<text text-anchor="middle" x="352.5" y="-573" font-family="Helvetica,sans-Serif" font-size="10.00">func_800CA730</text>
</a>
</g>
</g>
<!-- Node33&#45;&gt;Node73 -->
<g id="edge33_Node000033_Node000073" class="edge">
<title>Node33&#45;&gt;Node73</title>
<g id="a_edge33_Node000033_Node000073"><a xlink:title=" ">
<path fill="none" stroke="#63b8ff" d="M447.98,-600.38C429.18,-595.43 407.74,-589.78 390.05,-585.12"/>
<polygon fill="#63b8ff" stroke="#63b8ff" points="447.26,-603.81 457.82,-602.97 449.04,-597.04 447.26,-603.81"/>
</a>
</g>
</g>
<!-- Node86 -->
<g id="Node000086" class="node">
<title>Node86</title>
<g id="a_Node000086"><a xlink:href="external_8c.html#aa00f6fbb1195ee18da20e61bd6ef5d97" target="_top" xlink:title=" ">
<polygon fill="#fff0f0" stroke="red" points="398.5,-548 306.5,-548 306.5,-529 398.5,-529 398.5,-548"/>
<text text-anchor="middle" x="352.5" y="-536" font-family="Helvetica,sans-Serif" font-size="10.00">func_800CB064</text>
</a>
</g>
</g>
<!-- Node33&#45;&gt;Node86 -->
<g id="edge36_Node000033_Node000086" class="edge">
<title>Node33&#45;&gt;Node86</title>
<g id="a_edge36_Node000033_Node000086"><a xlink:title=" ">
<path fill="none" stroke="#63b8ff" d="M474.42,-596.62C458.42,-584.29 434.8,-567.48 412,-556.5 405.3,-553.27 397.89,-550.46 390.66,-548.09"/>
<polygon fill="#63b8ff" stroke="#63b8ff" points="472.44,-599.52 482.47,-602.95 476.77,-594.02 472.44,-599.52"/>
</a>
</g>
</g>
<!-- Node62 -->
<g id="Node000062" class="node">
<title>Node62</title>
<g id="a_Node000062"><a xlink:href="update__objects_8c.html#a5a5fc982b29c525f677dd566bfca038e" target="_top" xlink:title=" ">
<polygon fill="#fff0f0" stroke="red" points="412,-510.5 293,-510.5 293,-480.5 412,-480.5 412,-510.5"/>
<text text-anchor="start" x="301" y="-498.5" font-family="Helvetica,sans-Serif" font-size="10.00">update_object_lakitu</text>
<text text-anchor="middle" x="352.5" y="-487.5" font-family="Helvetica,sans-Serif" font-size="10.00">_fishing</text>
</a>
</g>
</g>
<!-- Node33&#45;&gt;Node62 -->
<g id="edge37_Node000033_Node000062" class="edge">
<title>Node33&#45;&gt;Node62</title>
<g id="a_edge37_Node000033_Node000062"><a xlink:title=" ">
<path fill="none" stroke="#63b8ff" d="M481.87,-594.29C467.37,-573.72 441.35,-540.4 412,-519.5 407.35,-516.19 402.18,-513.23 396.88,-510.62"/>
<polygon fill="#63b8ff" stroke="#63b8ff" points="479.14,-596.5 487.69,-602.75 484.91,-592.53 479.14,-596.5"/>
</a>
</g>
</g>
<!-- Node63 -->
<g id="Node000063" class="node">
<title>Node63</title>
<g id="a_Node000063"><a xlink:href="update__objects_8c.html#a262b63dd3d6008cb2452a627c310c4a7" target="_top" xlink:title=" ">
<polygon fill="#fff0f0" stroke="red" points="412,-462.5 293,-462.5 293,-432.5 412,-432.5 412,-462.5"/>
<text text-anchor="start" x="301" y="-450.5" font-family="Helvetica,sans-Serif" font-size="10.00">update_object_lakitu</text>
<text text-anchor="middle" x="352.5" y="-439.5" font-family="Helvetica,sans-Serif" font-size="10.00">_fishing2</text>
</a>
</g>
</g>
<!-- Node33&#45;&gt;Node63 -->
<g id="edge38_Node000033_Node000063" class="edge">
<title>Node33&#45;&gt;Node63</title>
<g id="a_edge38_Node000033_Node000063"><a xlink:title=" ">
<path fill="none" stroke="#63b8ff" d="M487.42,-593.18C476.31,-563.26 451.17,-505.63 412,-471.5 408.11,-468.11 403.68,-465.16 399.03,-462.59"/>
<polygon fill="#63b8ff" stroke="#63b8ff" points="484.21,-594.61 490.87,-602.85 490.8,-592.26 484.21,-594.61"/>
</a>
</g>
</g>
<!-- Node58 -->
<g id="Node000058" class="node">
<title>Node58</title>
<g id="a_Node000058"><a xlink:href="update__objects_8c.html#ad11800c1ce772be2b43f56f32ce498f8" target="_top" xlink:title=" ">
<polygon fill="#fff0f0" stroke="red" points="412,-414.5 293,-414.5 293,-384.5 412,-384.5 412,-414.5"/>
<text text-anchor="start" x="301" y="-402.5" font-family="Helvetica,sans-Serif" font-size="10.00">update_object_lakitu</text>
<text text-anchor="middle" x="352.5" y="-391.5" font-family="Helvetica,sans-Serif" font-size="10.00">_reverse</text>
</a>
</g>
</g>
<!-- Node33&#45;&gt;Node58 -->
<g id="edge39_Node000033_Node000058" class="edge">
<title>Node33&#45;&gt;Node58</title>
<g id="a_edge39_Node000033_Node000058"><a xlink:title=" ">
<path fill="none" stroke="#63b8ff" d="M490.51,-592.59C482.88,-554.73 461.31,-471.83 412,-423.5 408.55,-420.12 404.56,-417.19 400.31,-414.66"/>
<polygon fill="#63b8ff" stroke="#63b8ff" points="487.14,-593.63 492.44,-602.81 494.02,-592.33 487.14,-593.63"/>
</a>
</g>
</g>
<!-- Node71&#45;&gt;Node4 -->
<g id="edge29_Node000071_Node000004" class="edge">
<title>Node71&#45;&gt;Node4</title>
<g id="a_edge29_Node000071_Node000004"><a xlink:title=" ">
<path fill="none" stroke="#63b8ff" d="M297.25,-627.19C295.77,-628.22 294.35,-629.32 293,-630.5 236.05,-680.37 214.68,-776.02 209.11,-806.74"/>
<polygon fill="#63b8ff" stroke="#63b8ff" points="299.33,-630.03 306.29,-622.05 295.87,-623.95 299.33,-630.03"/>
</a>
</g>
</g>
<!-- Node72&#45;&gt;Node4 -->
<g id="edge32_Node000072_Node000004" class="edge">
<title>Node72&#45;&gt;Node4</title>
<g id="a_edge32_Node000072_Node000004"><a xlink:title=" ">
<path fill="none" stroke="#63b8ff" d="M296.35,-804.78C282.37,-806.62 267.5,-808.58 254,-810.37"/>
<polygon fill="#63b8ff" stroke="#63b8ff" points="296.88,-808.24 306.33,-803.46 295.96,-801.3 296.88,-808.24"/>
</a>
</g>
</g>
<!-- Node74 -->
<g id="Node000074" class="node">
<title>Node74</title>
<g id="a_Node000074"><a xlink:href="effects_8c.html#ab044d6f7bf1cacf740cf0a27ea0902b5" target="_top" xlink:title=" ">
<polygon fill="#fff0f0" stroke="red" points="257,-152 156,-152 156,-133 257,-133 257,-152"/>
<text text-anchor="middle" x="206.5" y="-140" font-family="Helvetica,sans-Serif" font-size="10.00">apply_star_effect</text>
</a>
</g>
</g>
<!-- Node73&#45;&gt;Node74 -->
<g id="edge34_Node000073_Node000074" class="edge">
<title>Node73&#45;&gt;Node74</title>
<g id="a_edge34_Node000073_Node000074"><a xlink:title=" ">
<path fill="none" stroke="#63b8ff" d="M297.88,-561.32C296.11,-559.87 294.47,-558.26 293,-556.5 255.03,-511.07 270.33,-350.19 257,-292.5 244.46,-238.26 220.68,-175.72 211.37,-152.15"/>
<polygon fill="#63b8ff" stroke="#63b8ff" points="296.04,-564.29 306.33,-566.8 299.84,-558.42 296.04,-564.29"/>
</a>
</g>
</g>
<!-- Node75 -->
<g id="Node000075" class="node">
<title>Node75</title>
<g id="a_Node000075"><a xlink:href="effects_8c.html#ae1bacd987d7f12fc5960f838a7dbe137" target="_top" xlink:title=" ">
<polygon fill="#fff0f0" stroke="red" points="252.5,-321 160.5,-321 160.5,-302 252.5,-302 252.5,-321"/>
<text text-anchor="middle" x="206.5" y="-309" font-family="Helvetica,sans-Serif" font-size="10.00">func_8008F86C</text>
</a>
</g>
</g>
<!-- Node73&#45;&gt;Node75 -->
<g id="edge35_Node000073_Node000075" class="edge">
<title>Node73&#45;&gt;Node75</title>
<g id="a_edge35_Node000073_Node000075"><a xlink:title=" ">
<path fill="none" stroke="#63b8ff" d="M298.2,-560.85C296.36,-559.52 294.61,-558.08 293,-556.5 222.48,-487.5 210.04,-357.26 207.92,-321.05"/>
<polygon fill="#63b8ff" stroke="#63b8ff" points="296.43,-563.87 306.82,-565.93 299.98,-557.84 296.43,-563.87"/>
</a>
</g>
</g>
<!-- Node89&#45;&gt;Node3 -->
<g id="edge44_Node000089_Node000003" class="edge">
<title>Node89&#45;&gt;Node3</title>
<g id="a_edge44_Node000089_Node000003"><a xlink:title=" ">
<path fill="none" stroke="#63b8ff" d="M464.19,-811.77C458.68,-814.77 453.06,-818.07 448,-821.5 430.52,-833.35 430.4,-842.15 412,-852.5 405.39,-856.22 397.95,-859.33 390.64,-861.9"/>
<polygon fill="#63b8ff" stroke="#63b8ff" points="466.01,-814.77 473.27,-807.04 462.78,-808.56 466.01,-814.77"/>
</a>
</g>
</g>
<!-- Node89&#45;&gt;Node8 -->
<g id="edge41_Node000089_Node000008" class="edge">
<title>Node89&#45;&gt;Node8</title>
<g id="a_edge41_Node000089_Node000008"><a xlink:title=" ">
<path fill="none" stroke="#63b8ff" d="M478.53,-814.66C469.07,-825.6 457.1,-840.35 448,-854.5 428.65,-884.6 439.12,-903.16 412,-926.5 407.47,-930.4 402.12,-933.5 396.53,-935.97"/>
<polygon fill="#63b8ff" stroke="#63b8ff" points="481.2,-816.92 485.17,-807.1 475.94,-812.3 481.2,-816.92"/>
</a>
</g>
</g>
<!-- Node89&#45;&gt;Node72 -->
<g id="edge45_Node000089_Node000072" class="edge">
<title>Node89&#45;&gt;Node72</title>
<g id="a_edge45_Node000089_Node000072"><a xlink:title=" ">
<path fill="none" stroke="#63b8ff" d="M438.39,-797.5C425.2,-797.5 411.3,-797.5 398.64,-797.5"/>
<polygon fill="#63b8ff" stroke="#63b8ff" points="438.77,-801 448.77,-797.5 438.77,-794 438.77,-801"/>
</a>
</g>
</g>
<!-- Node90 -->
<g id="Node000090" class="node">
<title>Node90</title>
<g id="a_Node000090"><a xlink:href="external_8c.html#a9d558c81c8735c602351fbcdb517f632" target="_top" xlink:title=" ">
<polygon fill="white" stroke="#666666" points="399,-844 306,-844 306,-825 399,-825 399,-844"/>
<text text-anchor="middle" x="352.5" y="-832" font-family="Helvetica,sans-Serif" font-size="10.00">func_800C5D04</text>
</a>
</g>
</g>
<!-- Node89&#45;&gt;Node90 -->
<g id="edge42_Node000089_Node000090" class="edge">
<title>Node89&#45;&gt;Node90</title>
<g id="a_edge42_Node000089_Node000090"><a xlink:title=" ">
<path fill="none" stroke="#63b8ff" d="M447.98,-809.62C429.18,-814.57 407.74,-820.22 390.05,-824.88"/>
<polygon fill="#63b8ff" stroke="#63b8ff" points="449.04,-812.96 457.82,-807.03 447.26,-806.19 449.04,-812.96"/>
</a>
</g>
</g>
<!-- Node90&#45;&gt;Node4 -->
<g id="edge43_Node000090_Node000004" class="edge">
<title>Node90&#45;&gt;Node4</title>
<g id="a_edge43_Node000090_Node000004"><a xlink:title=" ">
<path fill="none" stroke="#63b8ff" d="M295.97,-827.56C282.02,-825.81 267.2,-823.96 253.76,-822.28"/>
<polygon fill="#63b8ff" stroke="#63b8ff" points="295.58,-831.04 305.94,-828.8 296.45,-824.09 295.58,-831.04"/>
</a>
</g>
</g>
<!-- Node92 -->
<g id="Node000092" class="node">
<title>Node92</title>
<g id="a_Node000092"><a xlink:href="actors_8c.html#a15517665ab054722a5c980c0f1008cd0" target="_top" xlink:title=" ">
<polygon fill="#fff0f0" stroke="red" points="399,-366 306,-366 306,-347 399,-347 399,-366"/>
<text text-anchor="middle" x="352.5" y="-354" font-family="Helvetica,sans-Serif" font-size="10.00">func_8029E7DC</text>
</a>
</g>
</g>
<!-- Node91&#45;&gt;Node92 -->
<g id="edge47_Node000091_Node000092" class="edge">
<title>Node91&#45;&gt;Node92</title>
<g id="a_edge47_Node000091_Node000092"><a xlink:title=" ">
<path fill="none" stroke="#63b8ff" d="M438.49,-356.5C425.44,-356.5 411.68,-356.5 399.13,-356.5"/>
<polygon fill="#63b8ff" stroke="#63b8ff" points="438.77,-360 448.77,-356.5 438.77,-353 438.77,-360"/>
</a>
</g>
</g>
<!-- Node134 -->
<g id="Node000134" class="node">
<title>Node134</title>
<g id="a_Node000134"><a xlink:href="actors_8c.html#a6951c1c13419e76bc60a8121fef835ab" target="_top" xlink:title=" ">
<polygon fill="#fff0f0" stroke="red" points="406.5,-329 298.5,-329 298.5,-310 406.5,-310 406.5,-329"/>
<text text-anchor="middle" x="352.5" y="-317" font-family="Helvetica,sans-Serif" font-size="10.00">render_actor_cows</text>
</a>
</g>
</g>
<!-- Node91&#45;&gt;Node134 -->
<g id="edge48_Node000091_Node000134" class="edge">
<title>Node91&#45;&gt;Node134</title>
<g id="a_edge48_Node000091_Node000134"><a xlink:title=" ">
<path fill="none" stroke="#63b8ff" d="M447.98,-344.38C429.18,-339.43 407.74,-333.78 390.05,-329.12"/>
<polygon fill="#63b8ff" stroke="#63b8ff" points="447.26,-347.81 457.82,-346.97 449.04,-341.04 447.26,-347.81"/>
</a>
</g>
</g>
<!-- Node147 -->
<g id="Node000147" class="node">
<title>Node147</title>
<g id="a_Node000147"><a xlink:href="actors_8c.html#a53268aa601911d56424ff08fb3395bcb" target="_top" xlink:title=" ">
<polygon fill="#fff0f0" stroke="red" points="412,-217.5 293,-217.5 293,-187.5 412,-187.5 412,-217.5"/>
<text text-anchor="start" x="301" y="-205.5" font-family="Helvetica,sans-Serif" font-size="10.00">destroy_destructable</text>
<text text-anchor="middle" x="352.5" y="-194.5" font-family="Helvetica,sans-Serif" font-size="10.00">_actor</text>
</a>
</g>
</g>
<!-- Node146&#45;&gt;Node147 -->
<g id="edge50_Node000146_Node000147" class="edge">
<title>Node146&#45;&gt;Node147</title>
<g id="a_edge50_Node000146_Node000147"><a xlink:title=" ">
<path fill="none" stroke="#63b8ff" d="M438.74,-202.5C430.04,-202.5 421.02,-202.5 412.25,-202.5"/>
<polygon fill="#63b8ff" stroke="#63b8ff" points="438.77,-206 448.77,-202.5 438.77,-199 438.77,-206"/>
</a>
</g>
</g>
<!-- Node154 -->
<g id="Node000154" class="node">
<title>Node154</title>
<g id="a_Node000154"><a xlink:href="code__80005FD0_8c.html#aacd735985e2a36a6443fdf5d57fa54c4" target="_top" xlink:title=" ">
<polygon fill="#fff0f0" stroke="red" points="398.5,-169 306.5,-169 306.5,-150 398.5,-150 398.5,-169"/>
<text text-anchor="middle" x="352.5" y="-157" font-family="Helvetica,sans-Serif" font-size="10.00">func_80013F7C</text>
</a>
</g>
</g>
<!-- Node146&#45;&gt;Node154 -->
<g id="edge51_Node000146_Node000154" class="edge">
<title>Node146&#45;&gt;Node154</title>
<g id="a_edge51_Node000146_Node000154"><a xlink:title=" ">
<path fill="none" stroke="#63b8ff" d="M453.14,-189.99C431.27,-183.3 404.77,-175.19 384.59,-169.02"/>
<polygon fill="#63b8ff" stroke="#63b8ff" points="452.23,-193.38 462.82,-192.96 454.28,-186.68 452.23,-193.38"/>
</a>
</g>
</g>
<!-- Node159 -->
<g id="Node000159" class="node">
<title>Node159</title>
<g id="a_Node000159"><a xlink:href="update__objects_8c.html#a401992e1c9638d1a48190456bd7af9a3" target="_top" xlink:title=" ">
<polygon fill="#fff0f0" stroke="red" points="398.5,-132 306.5,-132 306.5,-113 398.5,-113 398.5,-132"/>
<text text-anchor="middle" x="352.5" y="-120" font-family="Helvetica,sans-Serif" font-size="10.00">func_8007601C</text>
</a>
</g>
</g>
<!-- Node146&#45;&gt;Node159 -->
<g id="edge52_Node000146_Node000159" class="edge">
<title>Node146&#45;&gt;Node159</title>
<g id="a_edge52_Node000146_Node000159"><a xlink:title=" ">
<path fill="none" stroke="#63b8ff" d="M475.78,-185.74C459.95,-171.93 435.86,-152.71 412,-140.5 405.57,-137.21 398.42,-134.4 391.4,-132.04"/>
<polygon fill="#63b8ff" stroke="#63b8ff" points="473.88,-188.73 483.68,-192.77 478.54,-183.5 473.88,-188.73"/>
</a>
</g>
</g>
<!-- Node162 -->
<g id="Node000162" class="node">
<title>Node162</title>
<g id="a_Node000162"><a xlink:href="update__objects_8c.html#a269298ce38d852af33c677ae12781528" target="_top" xlink:title=" ">
<polygon fill="#fff0f0" stroke="red" points="398.5,-95 306.5,-95 306.5,-76 398.5,-76 398.5,-95"/>
<text text-anchor="middle" x="352.5" y="-83" font-family="Helvetica,sans-Serif" font-size="10.00">func_8007661C</text>
</a>
</g>
</g>
<!-- Node146&#45;&gt;Node162 -->
<g id="edge53_Node000146_Node000162" class="edge">
<title>Node146&#45;&gt;Node162</title>
<g id="a_edge53_Node000146_Node000162"><a xlink:title=" ">
<path fill="none" stroke="#63b8ff" d="M476.79,-185.79C467.86,-176.81 456.97,-165.38 448,-154.5 430.35,-133.09 434.46,-119.79 412,-103.5 407.27,-100.07 401.87,-97.28 396.31,-95.02"/>
<polygon fill="#63b8ff" stroke="#63b8ff" points="474.47,-188.42 484.04,-192.97 479.4,-183.45 474.47,-188.42"/>
</a>
</g>
</g>
<!-- Node163 -->
<g id="Node000163" class="node">
<title>Node163</title>
<g id="a_Node000163"><a xlink:href="update__objects_8c.html#aee48f5ac3342922cbf8cd98976679dad" target="_top" xlink:title=" ">
<polygon fill="#fff0f0" stroke="red" points="400,-292 305,-292 305,-273 400,-273 400,-292"/>
<text text-anchor="middle" x="352.5" y="-280" font-family="Helvetica,sans-Serif" font-size="10.00">func_8007DDC0</text>
</a>
</g>
</g>
<!-- Node146&#45;&gt;Node163 -->
<g id="edge54_Node000146_Node000163" class="edge">
<title>Node146&#45;&gt;Node163</title>
<g id="a_edge54_Node000146_Node000163"><a xlink:title=" ">
<path fill="none" stroke="#63b8ff" d="M475.69,-218.88C459.79,-232.39 435.68,-251.27 412,-263.5 404.88,-267.18 396.92,-270.33 389.21,-272.95"/>
<polygon fill="#63b8ff" stroke="#63b8ff" points="478.36,-221.2 483.62,-212 473.77,-215.91 478.36,-221.2"/>
</a>
</g>
</g>
<!-- Node165 -->
<g id="Node000165" class="node">
<title>Node165</title>
<g id="a_Node000165"><a xlink:href="update__objects_8c.html#a6c7938339fa5406ffe336278a92aa7ad" target="_top" xlink:title=" ">
<polygon fill="#fff0f0" stroke="red" points="398,-255 307,-255 307,-236 398,-236 398,-255"/>
<text text-anchor="middle" x="352.5" y="-243" font-family="Helvetica,sans-Serif" font-size="10.00">func_8007E1F4</text>
</a>
</g>
</g>
<!-- Node146&#45;&gt;Node165 -->
<g id="edge55_Node000146_Node000165" class="edge">
<title>Node146&#45;&gt;Node165</title>
<g id="a_edge55_Node000146_Node000165"><a xlink:title=" ">
<path fill="none" stroke="#63b8ff" d="M453.14,-215.01C431.27,-221.7 404.77,-229.81 384.59,-235.98"/>
<polygon fill="#63b8ff" stroke="#63b8ff" points="454.28,-218.32 462.82,-212.04 452.23,-211.62 454.28,-218.32"/>
</a>
</g>
</g>
<!-- Node167&#45;&gt;Node74 -->
<g id="edge57_Node000167_Node000074" class="edge">
<title>Node167&#45;&gt;Node74</title>
<g id="a_edge57_Node000167_Node000074"><a xlink:title=" ">
<path fill="none" stroke="#63b8ff" d="M310.29,-23.22C304.2,-26.13 298.23,-29.55 293,-33.5 254.83,-62.37 224.34,-112.22 212.65,-132.99"/>
<polygon fill="#63b8ff" stroke="#63b8ff" points="312.08,-26.25 319.85,-19.05 309.29,-19.84 312.08,-26.25"/>
</a>
</g>
</g>
<!-- Node167&#45;&gt;Node75 -->
<g id="edge58_Node000167_Node000075" class="edge">
<title>Node167&#45;&gt;Node75</title>
<g id="a_edge58_Node000167_Node000075"><a xlink:title=" ">
<path fill="none" stroke="#63b8ff" d="M305.04,-23.69C300.57,-26.42 296.43,-29.66 293,-33.5 253.93,-77.26 274.14,-104.39 257,-160.5 240.64,-214.06 219.1,-277.63 210.88,-301.65"/>
<polygon fill="#63b8ff" stroke="#63b8ff" points="306.7,-26.77 313.95,-19.04 303.47,-20.56 306.7,-26.77"/>
</a>
</g>
</g>
<!-- Node169 -->
<g id="Node000169" class="node">
<title>Node169</title>
<g id="a_Node000169"><a xlink:href="external_8c.html#acc8bf31951751f8c1884eb37d49f4fbd" target="_top" xlink:title=" ">
<polygon fill="white" stroke="#666666" points="541.5,-1033 448.5,-1033 448.5,-1014 541.5,-1014 541.5,-1033"/>
<text text-anchor="middle" x="495" y="-1021" font-family="Helvetica,sans-Serif" font-size="10.00">func_800CAC08</text>
</a>
</g>
</g>
<!-- Node168&#45;&gt;Node169 -->
<g id="edge60_Node000168_Node000169" class="edge">
<title>Node168&#45;&gt;Node169</title>
<g id="a_edge60_Node000168_Node000169"><a xlink:title=" ">
<path fill="none" stroke="#63b8ff" d="M580.69,-998.83C563.87,-1003.73 544.81,-1009.28 529.04,-1013.88"/>
<polygon fill="#63b8ff" stroke="#63b8ff" points="581.67,-1002.19 590.29,-996.03 579.71,-995.47 581.67,-1002.19"/>
</a>
</g>
</g>
<!-- Node171 -->
<g id="Node000171" class="node">
<title>Node171</title>
<g id="a_Node000171"><a xlink:href="external_8c.html#a136efe63ecddf15d836c739c28cbfe41" target="_top" xlink:title=" ">
<polygon fill="white" stroke="#666666" points="542,-996 448,-996 448,-977 542,-977 542,-996"/>
<text text-anchor="middle" x="495" y="-984" font-family="Helvetica,sans-Serif" font-size="10.00">func_800CAD40</text>
</a>
</g>
</g>
<!-- Node168&#45;&gt;Node171 -->
<g id="edge63_Node000168_Node000171" class="edge">
<title>Node168&#45;&gt;Node171</title>
<g id="a_edge63_Node000168_Node000171"><a xlink:title=" ">
<path fill="none" stroke="#63b8ff" d="M567.67,-986.5C559.2,-986.5 550.53,-986.5 542.27,-986.5"/>
<polygon fill="#63b8ff" stroke="#63b8ff" points="567.87,-990 577.87,-986.5 567.87,-983 567.87,-990"/>
</a>
</g>
</g>
<!-- Node170 -->
<g id="Node000170" class="node">
<title>Node170</title>
<g id="a_Node000170"><a xlink:href="external_8c.html#ab244f7b0fefaa03321288d8a1b265452" target="_top" xlink:title=" ">
<polygon fill="white" stroke="#666666" points="398.5,-918 306.5,-918 306.5,-899 398.5,-899 398.5,-918"/>
<text text-anchor="middle" x="352.5" y="-906" font-family="Helvetica,sans-Serif" font-size="10.00">func_800C8920</text>
</a>
</g>
</g>
<!-- Node169&#45;&gt;Node170 -->
<g id="edge61_Node000169_Node000170" class="edge">
<title>Node169&#45;&gt;Node170</title>
<g id="a_edge61_Node000169_Node000170"><a xlink:title=" ">
<path fill="none" stroke="#63b8ff" d="M453.25,-1008.82C451.39,-1007.49 449.62,-1006.06 448,-1004.5 420.46,-978.06 440.74,-951.63 412,-926.5 408.08,-923.07 403.52,-920.3 398.7,-918.05"/>
<polygon fill="#63b8ff" stroke="#63b8ff" points="451.53,-1011.86 461.92,-1013.93 455.09,-1005.83 451.53,-1011.86"/>
</a>
</g>
</g>
<!-- Node170&#45;&gt;Node4 -->
<g id="edge62_Node000170_Node000004" class="edge">
<title>Node170&#45;&gt;Node4</title>
<g id="a_edge62_Node000170_Node000004"><a xlink:title=" ">
<path fill="none" stroke="#63b8ff" d="M305.3,-895.41C301.04,-893.64 296.88,-891.67 293,-889.5 261.66,-871.96 231.2,-841.92 216.55,-826.41"/>
<polygon fill="#63b8ff" stroke="#63b8ff" points="304.09,-898.7 314.68,-898.98 306.58,-892.15 304.09,-898.7"/>
</a>
</g>
</g>
</g>
</svg>
