<?xml version="1.0" encoding="UTF-8" standalone="no"?>
<!DOCTYPE svg PUBLIC "-//W3C//DTD SVG 1.1//EN"
 "http://www.w3.org/Graphics/SVG/1.1/DTD/svg11.dtd">
<!-- Generated by graphviz version 2.43.0 (0)
 -->
<!-- Title: func_800C21E8 Pages: 1 -->
<!--zoomable 1155 -->

<svg id="main" version="1.1" xmlns="http://www.w3.org/2000/svg" xmlns:xlink="http://www.w3.org/1999/xlink" xml:space="preserve" onload="init(evt)">
<style type="text/css"><![CDATA[
.node, .edge {opacity: 0.7;}
.node.selected, .edge.selected {opacity: 1;}
.edge:hover path { stroke: red; }
.edge:hover polygon { stroke: red; fill: red; }
]]></style>

<defs>
  <circle id="rim" cx="0" cy="0" r="7"/>
  <circle id="rim2" cx="0" cy="0" r="3.5"/>
  <g id="zoomPlus">
    <use xlink:href="#rim" fill="#404040"><set attributeName="fill" to="#808080" begin="zoomplus.mouseover" end="zoomplus.mouseout"/></use>
    <path d="M-4,0h8M0,-4v8" fill="none" stroke="white" stroke-width="1.5" pointer-events="none"/>
  </g>
  <g id="zoomMin">
    <use xlink:href="#rim" fill="#404040"><set attributeName="fill" to="#808080" begin="zoomminus.mouseover" end="zoomminus.mouseout"/></use>
    <path d="M-4,0h8" fill="none" stroke="white" stroke-width="1.5" pointer-events="none"/>
  </g>
  <g id="arrowUp" transform="translate(30 24)">
    <use xlink:href="#rim"/>
    <path pointer-events="none" fill="none" stroke="white" stroke-width="1.5" d="M0,-3.0v7 M-2.5,-0.5L0,-3.0L2.5,-0.5"/>
  </g>
  <g id="arrowRight" transform="rotate(90) translate(36 -43)">
    <use xlink:href="#rim"/>
    <path pointer-events="none" fill="none" stroke="white" stroke-width="1.5" d="M0,-3.0v7 M-2.5,-0.5L0,-3.0L2.5,-0.5"/>
  </g>
  <g id="arrowDown" transform="rotate(180) translate(-30 -48)">
    <use xlink:href="#rim"/>
    <path pointer-events="none" fill="none" stroke="white" stroke-width="1.5" d="M0,-3.0v7 M-2.5,-0.5L0,-3.0L2.5,-0.5"/>
  </g>
  <g id="arrowLeft" transform="rotate(270) translate(-36 17)">
    <use xlink:href="#rim"/>
    <path pointer-events="none" fill="none" stroke="white" stroke-width="1.5" d="M0,-3.0v7 M-2.5,-0.5L0,-3.0L2.5,-0.5"/>
  </g>
  <g id="resetDef">
    <use xlink:href="#rim2" fill="#404040"><set attributeName="fill" to="#808080" begin="reset.mouseover" end="reset.mouseout"/></use>
  </g>
</defs>
<script type="application/ecmascript">
var viewWidth = 852;
var viewHeight = 1155;
var sectionId = 'dynsection-18';
</script>
<script type="application/ecmascript" xlink:href="svg.min.js"/>
<svg id="graph" class="graph">
<g id="viewport">
<title>func_800C21E8</title>
<!-- Node1 -->
<g id="Node000001" class="node">
<title>Node1</title>
<g id="a_Node000001"><a xlink:title=" ">
<polygon fill="#999999" stroke="#666666" points="844,-315 752,-315 752,-296 844,-296 844,-315"/>
<text text-anchor="middle" x="798" y="-303" font-family="Helvetica,sans-Serif" font-size="10.00">func_800C21E8</text>
</a>
</g>
</g>
<!-- Node2 -->
<g id="Node000002" class="node">
<title>Node2</title>
<g id="a_Node000002"><a xlink:href="external_8c.html#a7a3355f3444c31e7deb571c6d76db628" target="_top" xlink:title=" ">
<polygon fill="white" stroke="#666666" points="714.5,-895 622.5,-895 622.5,-876 714.5,-876 714.5,-895"/>
<text text-anchor="middle" x="668.5" y="-883" font-family="Helvetica,sans-Serif" font-size="10.00">func_800C99E0</text>
</a>
</g>
</g>
<!-- Node1&#45;&gt;Node2 -->
<g id="edge1_Node000001_Node000002" class="edge">
<title>Node1&#45;&gt;Node2</title>
<g id="a_edge1_Node000001_Node000002"><a xlink:title=" ">
<path fill="none" stroke="#63b8ff" d="M792.71,-325.03C772.42,-417.32 686.51,-808.13 671.68,-875.57"/>
<polygon fill="#63b8ff" stroke="#63b8ff" points="796.16,-325.6 794.89,-315.08 789.33,-324.1 796.16,-325.6"/>
</a>
</g>
</g>
<!-- Node70 -->
<g id="Node000070" class="node">
<title>Node70</title>
<g id="a_Node000070"><a xlink:href="external_8c.html#a1041b412a7bdcec3c697ed68bec652d6" target="_top" xlink:title=" ">
<polygon fill="white" stroke="#666666" points="715.5,-222 621.5,-222 621.5,-203 715.5,-203 715.5,-222"/>
<text text-anchor="middle" x="668.5" y="-210" font-family="Helvetica,sans-Serif" font-size="10.00">func_800C9D0C</text>
</a>
</g>
</g>
<!-- Node1&#45;&gt;Node70 -->
<g id="edge17_Node000001_Node000070" class="edge">
<title>Node1&#45;&gt;Node70</title>
<g id="a_edge17_Node000001_Node000070"><a xlink:title=" ">
<path fill="none" stroke="#63b8ff" d="M775.59,-289.89C749.11,-270.57 704.82,-238.26 682.78,-222.19"/>
<polygon fill="#63b8ff" stroke="#63b8ff" points="773.69,-292.83 783.84,-295.9 777.82,-287.18 773.69,-292.83"/>
</a>
</g>
</g>
<!-- Node82 -->
<g id="Node000082" class="node">
<title>Node82</title>
<g id="a_Node000082"><a xlink:href="external_8c.html#a918987fe2328feb05c38255ed39ddc94" target="_top" xlink:title=" ">
<polygon fill="white" stroke="#666666" points="714.5,-390 622.5,-390 622.5,-371 714.5,-371 714.5,-390"/>
<text text-anchor="middle" x="668.5" y="-378" font-family="Helvetica,sans-Serif" font-size="10.00">func_800C9EF4</text>
</a>
</g>
</g>
<!-- Node1&#45;&gt;Node82 -->
<g id="edge25_Node000001_Node000082" class="edge">
<title>Node1&#45;&gt;Node82</title>
<g id="a_edge25_Node000001_Node000082"><a xlink:title=" ">
<path fill="none" stroke="#63b8ff" d="M771.85,-320.29C746.34,-335.3 707.62,-358.08 685.84,-370.89"/>
<polygon fill="#63b8ff" stroke="#63b8ff" points="773.75,-323.24 780.59,-315.15 770.2,-317.2 773.75,-323.24"/>
</a>
</g>
</g>
<!-- Node103 -->
<g id="Node000103" class="node">
<title>Node103</title>
<g id="a_Node000103"><a xlink:href="external_8c.html#a3138069310bbed5109964d607d51811f" target="_top" xlink:title=" ">
<polygon fill="white" stroke="#666666" points="716,-93 621,-93 621,-74 716,-74 716,-93"/>
<text text-anchor="middle" x="668.5" y="-81" font-family="Helvetica,sans-Serif" font-size="10.00">func_800CAACC</text>
</a>
</g>
</g>
<!-- Node1&#45;&gt;Node103 -->
<g id="edge51_Node000001_Node000103" class="edge">
<title>Node1&#45;&gt;Node103</title>
<g id="a_edge51_Node000001_Node000103"><a xlink:title=" ">
<path fill="none" stroke="#63b8ff" d="M786.51,-287.24C760.63,-242.17 694.42,-126.89 674.96,-93"/>
<polygon fill="#63b8ff" stroke="#63b8ff" points="783.51,-289.03 791.52,-295.96 789.58,-285.55 783.51,-289.03"/>
</a>
</g>
</g>
<!-- Node3 -->
<g id="Node000003" class="node">
<title>Node3</title>
<g id="a_Node000003"><a xlink:href="actors_8c.html#a473b64ad83f4eaa3f65202a629eab481" target="_top" xlink:title=" ">
<polygon fill="white" stroke="#666666" points="583.5,-974 491.5,-974 491.5,-955 583.5,-955 583.5,-974"/>
<text text-anchor="middle" x="537.5" y="-962" font-family="Helvetica,sans-Serif" font-size="10.00">func_802986B4</text>
</a>
</g>
</g>
<!-- Node2&#45;&gt;Node3 -->
<g id="edge2_Node000002_Node000003" class="edge">
<title>Node2&#45;&gt;Node3</title>
<g id="a_edge2_Node000002_Node000003"><a xlink:title=" ">
<path fill="none" stroke="#63b8ff" d="M643.37,-900.28C617.24,-916.28 576.33,-941.34 554.12,-954.94"/>
<polygon fill="#63b8ff" stroke="#63b8ff" points="645.24,-903.24 651.94,-895.03 641.58,-897.27 645.24,-903.24"/>
</a>
</g>
</g>
<!-- Node22 -->
<g id="Node000022" class="node">
<title>Node22</title>
<g id="a_Node000022"><a xlink:href="actors_8c.html#a15517665ab054722a5c980c0f1008cd0" target="_top" xlink:title=" ">
<polygon fill="white" stroke="#666666" points="584,-895 491,-895 491,-876 584,-876 584,-895"/>
<text text-anchor="middle" x="537.5" y="-883" font-family="Helvetica,sans-Serif" font-size="10.00">func_8029E7DC</text>
</a>
</g>
</g>
<!-- Node2&#45;&gt;Node22 -->
<g id="edge11_Node000002_Node000022" class="edge">
<title>Node2&#45;&gt;Node22</title>
<g id="a_edge11_Node000002_Node000022"><a xlink:title=" ">
<path fill="none" stroke="#63b8ff" d="M612.36,-885.5C602.98,-885.5 593.34,-885.5 584.25,-885.5"/>
<polygon fill="#63b8ff" stroke="#63b8ff" points="612.38,-889 622.38,-885.5 612.38,-882 612.38,-889"/>
</a>
</g>
</g>
<!-- Node4 -->
<g id="Node000004" class="node">
<title>Node4</title>
<g id="a_Node000004"><a xlink:href="actors_8c.html#ab38aac73e6ef03aa38f4474b612234b0" target="_top" xlink:title=" ">
<polygon fill="#fff0f0" stroke="red" points="454,-1017 333,-1017 333,-998 454,-998 454,-1017"/>
<text text-anchor="middle" x="393.5" y="-1005" font-family="Helvetica,sans-Serif" font-size="10.00">render_course_actors</text>
</a>
</g>
</g>
<!-- Node3&#45;&gt;Node4 -->
<g id="edge3_Node000003_Node000004" class="edge">
<title>Node3&#45;&gt;Node4</title>
<g id="a_edge3_Node000003_Node000004"><a xlink:title=" ">
<path fill="none" stroke="#63b8ff" d="M495.2,-977.01C473.1,-983.7 446.31,-991.81 425.93,-997.98"/>
<polygon fill="#63b8ff" stroke="#63b8ff" points="496.43,-980.29 504.99,-974.04 494.4,-973.59 496.43,-980.29"/>
</a>
</g>
</g>
<!-- Node5 -->
<g id="Node000005" class="node">
<title>Node5</title>
<g id="a_Node000005"><a xlink:href="code__80280000_8c.html#aa9c130485d39c4a7276605b30db5150e" target="_top" xlink:title=" ">
<polygon fill="#fff0f0" stroke="red" points="276,-1147 185,-1147 185,-1128 276,-1128 276,-1147"/>
<text text-anchor="middle" x="230.5" y="-1135" font-family="Helvetica,sans-Serif" font-size="10.00">func_80280038</text>
</a>
</g>
</g>
<!-- Node4&#45;&gt;Node5 -->
<g id="edge4_Node000004_Node000005" class="edge">
<title>Node4&#45;&gt;Node5</title>
<g id="a_edge4_Node000004_Node000005"><a xlink:title=" ">
<path fill="none" stroke="#63b8ff" d="M381.62,-1026.17C366.05,-1051.2 335.07,-1095.29 297,-1119.5 290.63,-1123.55 283.35,-1126.7 276.02,-1129.15"/>
<polygon fill="#63b8ff" stroke="#63b8ff" points="384.8,-1027.66 386.98,-1017.3 378.81,-1024.04 384.8,-1027.66"/>
</a>
</g>
</g>
<!-- Node12 -->
<g id="Node000012" class="node">
<title>Node12</title>
<g id="a_Node000012"><a xlink:href="skybox__and__splitscreen_8c.html#a94c46fe3fe5eef642ce3520b68504133" target="_top" xlink:title=" ">
<polygon fill="#fff0f0" stroke="red" points="276.5,-1110 184.5,-1110 184.5,-1091 276.5,-1091 276.5,-1110"/>
<text text-anchor="middle" x="230.5" y="-1098" font-family="Helvetica,sans-Serif" font-size="10.00">func_802A59A4</text>
</a>
</g>
</g>
<!-- Node4&#45;&gt;Node12 -->
<g id="edge5_Node000004_Node000012" class="edge">
<title>Node4&#45;&gt;Node12</title>
<g id="a_edge5_Node000004_Node000012"><a xlink:title=" ">
<path fill="none" stroke="#63b8ff" d="M375.72,-1024.14C357.7,-1041.12 327.53,-1067.11 297,-1082.5 290.37,-1085.84 283.03,-1088.63 275.74,-1090.94"/>
<polygon fill="#63b8ff" stroke="#63b8ff" points="378.32,-1026.5 383.1,-1017.04 373.46,-1021.45 378.32,-1026.5"/>
</a>
</g>
</g>
<!-- Node14 -->
<g id="Node000014" class="node">
<title>Node14</title>
<g id="a_Node000014"><a xlink:href="skybox__and__splitscreen_8c.html#a9be31591c8a78c96ca86c1b87c3ec0a8" target="_top" xlink:title=" ">
<polygon fill="#fff0f0" stroke="red" points="277,-1073 184,-1073 184,-1054 277,-1054 277,-1073"/>
<text text-anchor="middle" x="230.5" y="-1061" font-family="Helvetica,sans-Serif" font-size="10.00">func_802A5CB4</text>
</a>
</g>
</g>
<!-- Node4&#45;&gt;Node14 -->
<g id="edge6_Node000004_Node000014" class="edge">
<title>Node4&#45;&gt;Node14</title>
<g id="a_edge6_Node000004_Node000014"><a xlink:title=" ">
<path fill="none" stroke="#63b8ff" d="M360.99,-1021.06C342.53,-1028.74 318.66,-1038.24 297,-1045.5 288.05,-1048.5 278.3,-1051.38 269.12,-1053.93"/>
<polygon fill="#63b8ff" stroke="#63b8ff" points="362.51,-1024.21 370.38,-1017.11 359.8,-1017.76 362.51,-1024.21"/>
</a>
</g>
</g>
<!-- Node15 -->
<g id="Node000015" class="node">
<title>Node15</title>
<g id="a_Node000015"><a xlink:href="skybox__and__splitscreen_8c.html#a3f9172888ae23d5920b6c6b352af2bd3" target="_top" xlink:title=" ">
<polygon fill="#fff0f0" stroke="red" points="276.5,-1036 184.5,-1036 184.5,-1017 276.5,-1017 276.5,-1036"/>
<text text-anchor="middle" x="230.5" y="-1024" font-family="Helvetica,sans-Serif" font-size="10.00">func_802A5FAC</text>
</a>
</g>
</g>
<!-- Node4&#45;&gt;Node15 -->
<g id="edge7_Node000004_Node000015" class="edge">
<title>Node4&#45;&gt;Node15</title>
<g id="a_edge7_Node000004_Node000015"><a xlink:title=" ">
<path fill="none" stroke="#63b8ff" d="M322.45,-1015.77C306.92,-1017.6 290.87,-1019.49 276.65,-1021.17"/>
<polygon fill="#63b8ff" stroke="#63b8ff" points="323.03,-1019.22 332.55,-1014.57 322.21,-1012.27 323.03,-1019.22"/>
</a>
</g>
</g>
<!-- Node16 -->
<g id="Node000016" class="node">
<title>Node16</title>
<g id="a_Node000016"><a xlink:href="skybox__and__splitscreen_8c.html#a897b8a8f9d54144b0916eb7173651af0" target="_top" xlink:title=" ">
<polygon fill="#fff0f0" stroke="red" points="276.5,-999 184.5,-999 184.5,-980 276.5,-980 276.5,-999"/>
<text text-anchor="middle" x="230.5" y="-987" font-family="Helvetica,sans-Serif" font-size="10.00">func_802A62A4</text>
</a>
</g>
</g>
<!-- Node4&#45;&gt;Node16 -->
<g id="edge8_Node000004_Node000016" class="edge">
<title>Node4&#45;&gt;Node16</title>
<g id="a_edge8_Node000004_Node000016"><a xlink:title=" ">
<path fill="none" stroke="#63b8ff" d="M322.45,-999.67C306.92,-997.93 290.87,-996.14 276.65,-994.55"/>
<polygon fill="#63b8ff" stroke="#63b8ff" points="322.22,-1003.16 332.55,-1000.8 323,-996.21 322.22,-1003.16"/>
</a>
</g>
</g>
<!-- Node17 -->
<g id="Node000017" class="node">
<title>Node17</title>
<g id="a_Node000017"><a xlink:href="skybox__and__splitscreen_8c.html#acdf96ac83288ec562406d39e4dce3e01" target="_top" xlink:title=" ">
<polygon fill="#fff0f0" stroke="red" points="276.5,-962 184.5,-962 184.5,-943 276.5,-943 276.5,-962"/>
<text text-anchor="middle" x="230.5" y="-950" font-family="Helvetica,sans-Serif" font-size="10.00">func_802A65B8</text>
</a>
</g>
</g>
<!-- Node4&#45;&gt;Node17 -->
<g id="edge9_Node000004_Node000017" class="edge">
<title>Node4&#45;&gt;Node17</title>
<g id="a_edge9_Node000004_Node000017"><a xlink:title=" ">
<path fill="none" stroke="#63b8ff" d="M359.41,-994.3C341.13,-987.19 317.95,-978.47 297,-971.5 287.11,-968.21 276.29,-964.93 266.33,-962.06"/>
<polygon fill="#63b8ff" stroke="#63b8ff" points="358.16,-997.57 368.74,-997.95 360.71,-991.05 358.16,-997.57"/>
</a>
</g>
</g>
<!-- Node18 -->
<g id="Node000018" class="node">
<title>Node18</title>
<g id="a_Node000018"><a xlink:href="skybox__and__splitscreen_8c.html#accb6af916ac72e9b2186f11211419818" target="_top" xlink:title=" ">
<polygon fill="#fff0f0" stroke="red" points="277,-925 184,-925 184,-906 277,-906 277,-925"/>
<text text-anchor="middle" x="230.5" y="-913" font-family="Helvetica,sans-Serif" font-size="10.00">func_802A68CC</text>
</a>
</g>
</g>
<!-- Node4&#45;&gt;Node18 -->
<g id="edge10_Node000004_Node000018" class="edge">
<title>Node4&#45;&gt;Node18</title>
<g id="a_edge10_Node000004_Node000018"><a xlink:title=" ">
<path fill="none" stroke="#63b8ff" d="M375,-990.88C356.82,-974.43 326.89,-949.59 297,-934.5 289.6,-930.76 281.35,-927.65 273.27,-925.1"/>
<polygon fill="#63b8ff" stroke="#63b8ff" points="372.77,-993.58 382.49,-997.78 377.51,-988.43 372.77,-993.58"/>
</a>
</g>
</g>
<!-- Node23 -->
<g id="Node000023" class="node">
<title>Node23</title>
<g id="a_Node000023"><a xlink:href="actors_8c.html#a694ec6ef7548b8618aeb35c038d3a9b9" target="_top" xlink:title=" ">
<polygon fill="#fff0f0" stroke="red" points="435,-914 352,-914 352,-895 435,-895 435,-914"/>
<text text-anchor="middle" x="393.5" y="-902" font-family="Helvetica,sans-Serif" font-size="10.00">destroy_actor</text>
</a>
</g>
</g>
<!-- Node22&#45;&gt;Node23 -->
<g id="edge12_Node000022_Node000023" class="edge">
<title>Node22&#45;&gt;Node23</title>
<g id="a_edge12_Node000022_Node000023"><a xlink:title=" ">
<path fill="none" stroke="#63b8ff" d="M480.53,-892.99C465.45,-895.01 449.41,-897.15 435.33,-899.04"/>
<polygon fill="#63b8ff" stroke="#63b8ff" points="481.34,-896.41 490.79,-891.62 480.41,-889.47 481.34,-896.41"/>
</a>
</g>
</g>
<!-- Node65 -->
<g id="Node000065" class="node">
<title>Node65</title>
<g id="a_Node000065"><a xlink:href="actors_8c.html#a0c9d11d8956bf92c32a5e9bafd7036e6" target="_top" xlink:title=" ">
<polygon fill="#fff0f0" stroke="red" points="439,-877 348,-877 348,-858 439,-858 439,-877"/>
<text text-anchor="middle" x="393.5" y="-865" font-family="Helvetica,sans-Serif" font-size="10.00">func_8029E890</text>
</a>
</g>
</g>
<!-- Node22&#45;&gt;Node65 -->
<g id="edge16_Node000022_Node000065" class="edge">
<title>Node22&#45;&gt;Node65</title>
<g id="a_edge16_Node000022_Node000065"><a xlink:title=" ">
<path fill="none" stroke="#63b8ff" d="M480.49,-878.4C466.76,-876.66 452.26,-874.82 439.16,-873.16"/>
<polygon fill="#63b8ff" stroke="#63b8ff" points="480.43,-881.92 490.79,-879.71 481.31,-874.98 480.43,-881.92"/>
</a>
</g>
</g>
<!-- Node66 -->
<g id="Node000066" class="node">
<title>Node66</title>
<g id="a_Node000066"><a xlink:href="actors__extended_8c.html#a1b699acb507ca2e080f46ea632573993" target="_top" xlink:title=" ">
<polygon fill="#fff0f0" stroke="red" points="291.5,-849 169.5,-849 169.5,-830 291.5,-830 291.5,-849"/>
<text text-anchor="middle" x="230.5" y="-837" font-family="Helvetica,sans-Serif" font-size="10.00">update_actor_banana</text>
</a>
</g>
</g>
<!-- Node23&#45;&gt;Node66 -->
<g id="edge13_Node000023_Node000066" class="edge">
<title>Node23&#45;&gt;Node66</title>
<g id="a_edge13_Node000023_Node000066"><a xlink:title=" ">
<path fill="none" stroke="#63b8ff" d="M345.61,-891.66C341.29,-890.07 337.02,-888.35 333,-886.5 315.75,-878.57 314.01,-871.93 297,-863.5 285.82,-857.96 273.04,-853 261.74,-849.04"/>
<polygon fill="#63b8ff" stroke="#63b8ff" points="344.5,-894.98 355.1,-894.9 346.77,-888.35 344.5,-894.98"/>
</a>
</g>
</g>
<!-- Node68 -->
<g id="Node000068" class="node">
<title>Node68</title>
<g id="a_Node000068"><a xlink:href="actors__extended_8c.html#a4fd275676bf11ca2e15556db08264a90" target="_top" xlink:title=" ">
<polygon fill="#fff0f0" stroke="red" points="287,-811.5 174,-811.5 174,-781.5 287,-781.5 287,-811.5"/>
<text text-anchor="start" x="182" y="-799.5" font-family="Helvetica,sans-Serif" font-size="10.00">update_actor_green</text>
<text text-anchor="middle" x="230.5" y="-788.5" font-family="Helvetica,sans-Serif" font-size="10.00">_shell</text>
</a>
</g>
</g>
<!-- Node23&#45;&gt;Node68 -->
<g id="edge14_Node000023_Node000068" class="edge">
<title>Node23&#45;&gt;Node68</title>
<g id="a_edge14_Node000023_Node000068"><a xlink:title=" ">
<path fill="none" stroke="#63b8ff" d="M342.62,-892.73C339.2,-890.94 335.94,-888.88 333,-886.5 307.31,-865.75 321.94,-843.15 297,-821.5 292.59,-817.67 287.53,-814.4 282.22,-811.61"/>
<polygon fill="#63b8ff" stroke="#63b8ff" points="341.42,-896.03 351.98,-896.87 344.25,-889.63 341.42,-896.03"/>
</a>
</g>
</g>
<!-- Node69 -->
<g id="Node000069" class="node">
<title>Node69</title>
<g id="a_Node000069"><a xlink:href="actors__extended_8c.html#a6e281ad692a9ccd329fa6840ad38afbc" target="_top" xlink:title=" ">
<polygon fill="#fff0f0" stroke="red" points="128,-749.5 0,-749.5 0,-719.5 128,-719.5 128,-749.5"/>
<text text-anchor="start" x="8" y="-737.5" font-family="Helvetica,sans-Serif" font-size="10.00">update_actor_red_blue</text>
<text text-anchor="middle" x="64" y="-726.5" font-family="Helvetica,sans-Serif" font-size="10.00">_shell</text>
</a>
</g>
</g>
<!-- Node23&#45;&gt;Node69 -->
<g id="edge15_Node000023_Node000069" class="edge">
<title>Node23&#45;&gt;Node69</title>
<g id="a_edge15_Node000023_Node000069"><a xlink:title=" ">
<path fill="none" stroke="#63b8ff" d="M341.72,-898.39C283.78,-890.71 193.25,-876.34 164,-858.5 119.32,-831.24 86.43,-776.14 72.44,-749.54"/>
<polygon fill="#63b8ff" stroke="#63b8ff" points="341.42,-901.88 351.79,-899.7 342.32,-894.94 341.42,-901.88"/>
</a>
</g>
</g>
<!-- Node71 -->
<g id="Node000071" class="node">
<title>Node71</title>
<g id="a_Node000071"><a xlink:href="code__80091750_8c.html#a4c171632ff32db3cbe13719e6478d536" target="_top" xlink:title=" ">
<polygon fill="white" stroke="#666666" points="583.5,-222 491.5,-222 491.5,-203 583.5,-203 583.5,-222"/>
<text text-anchor="middle" x="537.5" y="-210" font-family="Helvetica,sans-Serif" font-size="10.00">func_80091B78</text>
</a>
</g>
</g>
<!-- Node70&#45;&gt;Node71 -->
<g id="edge18_Node000070_Node000071" class="edge">
<title>Node70&#45;&gt;Node71</title>
<g id="a_edge18_Node000070_Node000071"><a xlink:title=" ">
<path fill="none" stroke="#63b8ff" d="M611.03,-212.5C601.83,-212.5 592.4,-212.5 583.52,-212.5"/>
<polygon fill="#63b8ff" stroke="#63b8ff" points="611.29,-216 621.29,-212.5 611.29,-209 611.29,-216"/>
</a>
</g>
</g>
<!-- Node76 -->
<g id="Node000076" class="node">
<title>Node76</title>
<g id="a_Node000076"><a xlink:href="external_8c.html#a9bc9f57fb83f73d37b56721df044d722" target="_top" xlink:title=" ">
<polygon fill="white" stroke="#666666" points="583.5,-167 491.5,-167 491.5,-148 583.5,-148 583.5,-167"/>
<text text-anchor="middle" x="537.5" y="-155" font-family="Helvetica,sans-Serif" font-size="10.00">func_800C76C0</text>
</a>
</g>
</g>
<!-- Node70&#45;&gt;Node76 -->
<g id="edge23_Node000070_Node000076" class="edge">
<title>Node70&#45;&gt;Node76</title>
<g id="a_edge23_Node000070_Node000076"><a xlink:title=" ">
<path fill="none" stroke="#63b8ff" d="M635.64,-198.91C612.51,-189.06 581.79,-175.96 561.15,-167.16"/>
<polygon fill="#63b8ff" stroke="#63b8ff" points="634.46,-202.22 645.03,-202.92 637.2,-195.78 634.46,-202.22"/>
</a>
</g>
</g>
<!-- Node72 -->
<g id="Node000072" class="node">
<title>Node72</title>
<g id="a_Node000072"><a xlink:href="main_8c.html#a8ccd4f2ae1a9502071e1b43ab07a78d3" target="_top" xlink:title=" ">
<polygon fill="#fff0f0" stroke="red" points="439.5,-278 347.5,-278 347.5,-259 439.5,-259 439.5,-278"/>
<text text-anchor="middle" x="393.5" y="-266" font-family="Helvetica,sans-Serif" font-size="10.00">func_800025D4</text>
</a>
</g>
</g>
<!-- Node71&#45;&gt;Node72 -->
<g id="edge19_Node000071_Node000072" class="edge">
<title>Node71&#45;&gt;Node72</title>
<g id="a_edge19_Node000071_Node000072"><a xlink:title=" ">
<path fill="none" stroke="#63b8ff" d="M508.61,-226.51C492.81,-234.15 472.56,-243.46 454,-250.5 446.03,-253.52 437.31,-256.4 429.07,-258.92"/>
<polygon fill="#63b8ff" stroke="#63b8ff" points="510.37,-229.55 517.81,-222.01 507.29,-223.26 510.37,-229.55"/>
</a>
</g>
</g>
<!-- Node73 -->
<g id="Node000073" class="node">
<title>Node73</title>
<g id="a_Node000073"><a xlink:href="main_8c.html#a1399390ccfb8062de2a77e48df769faf" target="_top" xlink:title=" ">
<polygon fill="#fff0f0" stroke="red" points="439,-241 348,-241 348,-222 439,-222 439,-241"/>
<text text-anchor="middle" x="393.5" y="-229" font-family="Helvetica,sans-Serif" font-size="10.00">func_80002600</text>
</a>
</g>
</g>
<!-- Node71&#45;&gt;Node73 -->
<g id="edge20_Node000071_Node000073" class="edge">
<title>Node71&#45;&gt;Node73</title>
<g id="a_edge20_Node000071_Node000073"><a xlink:title=" ">
<path fill="none" stroke="#63b8ff" d="M481.26,-219.89C467.4,-221.75 452.68,-223.71 439.39,-225.49"/>
<polygon fill="#63b8ff" stroke="#63b8ff" points="481.73,-223.36 491.18,-218.56 480.8,-216.42 481.73,-223.36"/>
</a>
</g>
</g>
<!-- Node74 -->
<g id="Node000074" class="node">
<title>Node74</title>
<g id="a_Node000074"><a xlink:href="main_8c.html#a26a29858c220d867684f0385abacfde8" target="_top" xlink:title=" ">
<polygon fill="#fff0f0" stroke="red" points="439.5,-204 347.5,-204 347.5,-185 439.5,-185 439.5,-204"/>
<text text-anchor="middle" x="393.5" y="-192" font-family="Helvetica,sans-Serif" font-size="10.00">func_8000262C</text>
</a>
</g>
</g>
<!-- Node71&#45;&gt;Node74 -->
<g id="edge21_Node000071_Node000074" class="edge">
<title>Node71&#45;&gt;Node74</title>
<g id="a_edge21_Node000071_Node000074"><a xlink:title=" ">
<path fill="none" stroke="#63b8ff" d="M480.96,-205.46C467.35,-203.73 452.95,-201.91 439.88,-200.25"/>
<polygon fill="#63b8ff" stroke="#63b8ff" points="480.82,-208.97 491.18,-206.76 481.7,-202.03 480.82,-208.97"/>
</a>
</g>
</g>
<!-- Node75 -->
<g id="Node000075" class="node">
<title>Node75</title>
<g id="a_Node000075"><a xlink:href="main_8c.html#a3a0697cf1e2b0c4ec6ddbf605926eac4" target="_top" xlink:title=" ">
<polygon fill="#fff0f0" stroke="red" points="439,-167 348,-167 348,-148 439,-148 439,-167"/>
<text text-anchor="middle" x="393.5" y="-155" font-family="Helvetica,sans-Serif" font-size="10.00">func_80002658</text>
</a>
</g>
</g>
<!-- Node71&#45;&gt;Node75 -->
<g id="edge22_Node000071_Node000075" class="edge">
<title>Node71&#45;&gt;Node75</title>
<g id="a_edge22_Node000071_Node000075"><a xlink:title=" ">
<path fill="none" stroke="#63b8ff" d="M506.91,-198.71C491.33,-191.68 471.8,-183.21 454,-176.5 445.17,-173.17 435.47,-169.91 426.51,-167.06"/>
<polygon fill="#63b8ff" stroke="#63b8ff" points="505.51,-201.92 516.06,-202.88 508.41,-195.55 505.51,-201.92"/>
</a>
</g>
</g>
<!-- Node77 -->
<g id="Node000077" class="node">
<title>Node77</title>
<g id="a_Node000077"><a xlink:href="external_8c.html#aebe0a7e33d0961a0ad7e4ba40a49a032" target="_top" xlink:title=" ">
<polygon fill="#fff0f0" stroke="red" points="440.5,-130 346.5,-130 346.5,-111 440.5,-111 440.5,-130"/>
<text text-anchor="middle" x="393.5" y="-118" font-family="Helvetica,sans-Serif" font-size="10.00">func_800C8CCC</text>
</a>
</g>
</g>
<!-- Node76&#45;&gt;Node77 -->
<g id="edge24_Node000076_Node000077" class="edge">
<title>Node76&#45;&gt;Node77</title>
<g id="a_edge24_Node000076_Node000077"><a xlink:title=" ">
<path fill="none" stroke="#63b8ff" d="M490.25,-145.45C471.19,-140.48 449.4,-134.81 431.44,-130.12"/>
<polygon fill="#63b8ff" stroke="#63b8ff" points="489.37,-148.84 499.93,-147.97 491.14,-142.06 489.37,-148.84"/>
</a>
</g>
</g>
<!-- Node83 -->
<g id="Node000083" class="node">
<title>Node83</title>
<g id="a_Node000083"><a xlink:href="code__80005FD0_8c.html#a16963ad113ed61f2cb0ed16547a71824" target="_top" xlink:title=" ">
<polygon fill="white" stroke="#666666" points="583.5,-502 491.5,-502 491.5,-483 583.5,-483 583.5,-502"/>
<text text-anchor="middle" x="537.5" y="-490" font-family="Helvetica,sans-Serif" font-size="10.00">func_80013F7C</text>
</a>
</g>
</g>
<!-- Node82&#45;&gt;Node83 -->
<g id="edge26_Node000082_Node000083" class="edge">
<title>Node82&#45;&gt;Node83</title>
<g id="a_edge26_Node000082_Node000083"><a xlink:title=" ">
<path fill="none" stroke="#63b8ff" d="M648.81,-396.73C621.49,-420.44 571.53,-463.82 549.47,-482.98"/>
<polygon fill="#63b8ff" stroke="#63b8ff" points="651.25,-399.25 656.5,-390.05 646.66,-393.96 651.25,-399.25"/>
</a>
</g>
</g>
<!-- Node88 -->
<g id="Node000088" class="node">
<title>Node88</title>
<g id="a_Node000088"><a xlink:href="code__80071F00_8c.html#a401992e1c9638d1a48190456bd7af9a3" target="_top" xlink:title=" ">
<polygon fill="white" stroke="#666666" points="583.5,-428 491.5,-428 491.5,-409 583.5,-409 583.5,-428"/>
<text text-anchor="middle" x="537.5" y="-416" font-family="Helvetica,sans-Serif" font-size="10.00">func_8007601C</text>
</a>
</g>
</g>
<!-- Node82&#45;&gt;Node88 -->
<g id="edge31_Node000082_Node000088" class="edge">
<title>Node82&#45;&gt;Node88</title>
<g id="a_edge31_Node000082_Node000088"><a xlink:title=" ">
<path fill="none" stroke="#63b8ff" d="M624.95,-393.04C607.4,-398.2 587.39,-404.1 571.04,-408.91"/>
<polygon fill="#63b8ff" stroke="#63b8ff" points="626.34,-396.27 634.95,-390.09 624.37,-389.56 626.34,-396.27"/>
</a>
</g>
</g>
<!-- Node91 -->
<g id="Node000091" class="node">
<title>Node91</title>
<g id="a_Node000091"><a xlink:href="code__80071F00_8c.html#a269298ce38d852af33c677ae12781528" target="_top" xlink:title=" ">
<polygon fill="white" stroke="#666666" points="583.5,-390 491.5,-390 491.5,-371 583.5,-371 583.5,-390"/>
<text text-anchor="middle" x="537.5" y="-378" font-family="Helvetica,sans-Serif" font-size="10.00">func_8007661C</text>
</a>
</g>
</g>
<!-- Node82&#45;&gt;Node91 -->
<g id="edge34_Node000082_Node000091" class="edge">
<title>Node82&#45;&gt;Node91</title>
<g id="a_edge34_Node000082_Node000091"><a xlink:title=" ">
<path fill="none" stroke="#63b8ff" d="M612.24,-380.5C602.75,-380.5 593,-380.5 583.81,-380.5"/>
<polygon fill="#63b8ff" stroke="#63b8ff" points="612.38,-384 622.38,-380.5 612.38,-377 612.38,-384"/>
</a>
</g>
</g>
<!-- Node92 -->
<g id="Node000092" class="node">
<title>Node92</title>
<g id="a_Node000092"><a xlink:href="code__80071F00_8c.html#aee48f5ac3342922cbf8cd98976679dad" target="_top" xlink:title=" ">
<polygon fill="white" stroke="#666666" points="585,-352 490,-352 490,-333 585,-333 585,-352"/>
<text text-anchor="middle" x="537.5" y="-340" font-family="Helvetica,sans-Serif" font-size="10.00">func_8007DDC0</text>
</a>
</g>
</g>
<!-- Node82&#45;&gt;Node92 -->
<g id="edge36_Node000082_Node000092" class="edge">
<title>Node82&#45;&gt;Node92</title>
<g id="a_edge36_Node000082_Node000092"><a xlink:title=" ">
<path fill="none" stroke="#63b8ff" d="M624.95,-367.96C607.4,-362.8 587.39,-356.9 571.04,-352.09"/>
<polygon fill="#63b8ff" stroke="#63b8ff" points="624.37,-371.44 634.95,-370.91 626.34,-364.73 624.37,-371.44"/>
</a>
</g>
</g>
<!-- Node94 -->
<g id="Node000094" class="node">
<title>Node94</title>
<g id="a_Node000094"><a xlink:href="code__80071F00_8c.html#a6c7938339fa5406ffe336278a92aa7ad" target="_top" xlink:title=" ">
<polygon fill="white" stroke="#666666" points="583,-315 492,-315 492,-296 583,-296 583,-315"/>
<text text-anchor="middle" x="537.5" y="-303" font-family="Helvetica,sans-Serif" font-size="10.00">func_8007E1F4</text>
</a>
</g>
</g>
<!-- Node82&#45;&gt;Node94 -->
<g id="edge38_Node000082_Node000094" class="edge">
<title>Node82&#45;&gt;Node94</title>
<g id="a_edge38_Node000082_Node000094"><a xlink:title=" ">
<path fill="none" stroke="#63b8ff" d="M646.94,-364.77C630.69,-352.78 607.14,-336.37 585,-324.5 578.54,-321.04 571.32,-317.8 564.52,-315.02"/>
<polygon fill="#63b8ff" stroke="#63b8ff" points="645.05,-367.73 655.16,-370.91 649.25,-362.12 645.05,-367.73"/>
</a>
</g>
</g>
<!-- Node96 -->
<g id="Node000096" class="node">
<title>Node96</title>
<g id="a_Node000096"><a xlink:href="actors_8c.html#a67d1dea0325e8a4a27afa6c343669df7" target="_top" xlink:title=" ">
<polygon fill="white" stroke="#666666" points="584,-706 491,-706 491,-687 584,-687 584,-706"/>
<text text-anchor="middle" x="537.5" y="-694" font-family="Helvetica,sans-Serif" font-size="10.00">func_8029FDC8</text>
</a>
</g>
</g>
<!-- Node82&#45;&gt;Node96 -->
<g id="edge40_Node000082_Node000096" class="edge">
<title>Node82&#45;&gt;Node96</title>
<g id="a_edge40_Node000082_Node000096"><a xlink:title=" ">
<path fill="none" stroke="#63b8ff" d="M659.64,-399.74C635.11,-459.84 560.49,-642.63 542.46,-686.81"/>
<polygon fill="#63b8ff" stroke="#63b8ff" points="662.96,-400.88 663.5,-390.3 656.48,-398.24 662.96,-400.88"/>
</a>
</g>
</g>
<!-- Node84 -->
<g id="Node000084" class="node">
<title>Node84</title>
<g id="a_Node000084"><a xlink:href="code__80005FD0_8c.html#adeea26a7fc120044643a79b819734e87" target="_top" xlink:title=" ">
<polygon fill="white" stroke="#666666" points="439.5,-576 347.5,-576 347.5,-557 439.5,-557 439.5,-576"/>
<text text-anchor="middle" x="393.5" y="-564" font-family="Helvetica,sans-Serif" font-size="10.00">func_800148C4</text>
</a>
</g>
</g>
<!-- Node83&#45;&gt;Node84 -->
<g id="edge27_Node000083_Node000084" class="edge">
<title>Node83&#45;&gt;Node84</title>
<g id="a_edge27_Node000083_Node000084"><a xlink:title=" ">
<path fill="none" stroke="#63b8ff" d="M516.8,-508.4C500.7,-520.75 476.94,-537.56 454,-548.5 447.18,-551.75 439.64,-554.57 432.29,-556.95"/>
<polygon fill="#63b8ff" stroke="#63b8ff" points="519.18,-510.98 524.9,-502.06 514.86,-505.47 519.18,-510.98"/>
</a>
</g>
</g>
<!-- Node85 -->
<g id="Node000085" class="node">
<title>Node85</title>
<g id="a_Node000085"><a xlink:href="code__80005FD0_8c.html#a398ff3675ec77b2c285447c584c96893" target="_top" xlink:title=" ">
<polygon fill="white" stroke="#666666" points="439.5,-539 347.5,-539 347.5,-520 439.5,-520 439.5,-539"/>
<text text-anchor="middle" x="393.5" y="-527" font-family="Helvetica,sans-Serif" font-size="10.00">func_80014A18</text>
</a>
</g>
</g>
<!-- Node83&#45;&gt;Node85 -->
<g id="edge28_Node000083_Node000085" class="edge">
<title>Node83&#45;&gt;Node85</title>
<g id="a_edge28_Node000083_Node000085"><a xlink:title=" ">
<path fill="none" stroke="#63b8ff" d="M490.25,-504.55C471.19,-509.52 449.4,-515.19 431.44,-519.88"/>
<polygon fill="#63b8ff" stroke="#63b8ff" points="491.14,-507.94 499.93,-502.03 489.37,-501.16 491.14,-507.94"/>
</a>
</g>
</g>
<!-- Node86 -->
<g id="Node000086" class="node">
<title>Node86</title>
<g id="a_Node000086"><a xlink:href="code__80005FD0_8c.html#ae5379b903bbc10d87f33b21347134c0b" target="_top" xlink:title=" ">
<polygon fill="white" stroke="#666666" points="439.5,-502 347.5,-502 347.5,-483 439.5,-483 439.5,-502"/>
<text text-anchor="middle" x="393.5" y="-490" font-family="Helvetica,sans-Serif" font-size="10.00">func_80014B6C</text>
</a>
</g>
</g>
<!-- Node83&#45;&gt;Node86 -->
<g id="edge29_Node000083_Node000086" class="edge">
<title>Node83&#45;&gt;Node86</title>
<g id="a_edge29_Node000083_Node000086"><a xlink:title=" ">
<path fill="none" stroke="#63b8ff" d="M480.96,-492.5C467.35,-492.5 452.95,-492.5 439.88,-492.5"/>
<polygon fill="#63b8ff" stroke="#63b8ff" points="481.18,-496 491.18,-492.5 481.18,-489 481.18,-496"/>
</a>
</g>
</g>
<!-- Node87 -->
<g id="Node000087" class="node">
<title>Node87</title>
<g id="a_Node000087"><a xlink:href="code__80005FD0_8c.html#a4cfcd8f2733c19fda94965eb29ae00a7" target="_top" xlink:title=" ">
<polygon fill="white" stroke="#666666" points="439.5,-465 347.5,-465 347.5,-446 439.5,-446 439.5,-465"/>
<text text-anchor="middle" x="393.5" y="-453" font-family="Helvetica,sans-Serif" font-size="10.00">func_80014CC0</text>
</a>
</g>
</g>
<!-- Node83&#45;&gt;Node87 -->
<g id="edge30_Node000083_Node000087" class="edge">
<title>Node83&#45;&gt;Node87</title>
<g id="a_edge30_Node000083_Node000087"><a xlink:title=" ">
<path fill="none" stroke="#63b8ff" d="M490.25,-480.45C471.19,-475.48 449.4,-469.81 431.44,-465.12"/>
<polygon fill="#63b8ff" stroke="#63b8ff" points="489.37,-483.84 499.93,-482.97 491.14,-477.06 489.37,-483.84"/>
</a>
</g>
</g>
<!-- Node89 -->
<g id="Node000089" class="node">
<title>Node89</title>
<g id="a_Node000089"><a xlink:href="code__80071F00_8c.html#ab0947a9025b7f18d2af9cb88f2742c8c" target="_top" xlink:title=" ">
<polygon fill="white" stroke="#666666" points="439.5,-428 347.5,-428 347.5,-409 439.5,-409 439.5,-428"/>
<text text-anchor="middle" x="393.5" y="-416" font-family="Helvetica,sans-Serif" font-size="10.00">func_8007614C</text>
</a>
</g>
</g>
<!-- Node88&#45;&gt;Node89 -->
<g id="edge32_Node000088_Node000089" class="edge">
<title>Node88&#45;&gt;Node89</title>
<g id="a_edge32_Node000088_Node000089"><a xlink:title=" ">
<path fill="none" stroke="#63b8ff" d="M480.96,-418.5C467.35,-418.5 452.95,-418.5 439.88,-418.5"/>
<polygon fill="#63b8ff" stroke="#63b8ff" points="481.18,-422 491.18,-418.5 481.18,-415 481.18,-422"/>
</a>
</g>
</g>
<!-- Node90 -->
<g id="Node000090" class="node">
<title>Node90</title>
<g id="a_Node000090"><a xlink:href="code__80071F00_8c.html#a95b3061cecaa0a9adae037b41b756602" target="_top" xlink:title=" ">
<polygon fill="#fff0f0" stroke="red" points="297,-414.5 164,-414.5 164,-384.5 297,-384.5 297,-414.5"/>
<text text-anchor="start" x="172" y="-402.5" font-family="Helvetica,sans-Serif" font-size="10.00">update_particle_bowser</text>
<text text-anchor="middle" x="230.5" y="-391.5" font-family="Helvetica,sans-Serif" font-size="10.00">_castle</text>
</a>
</g>
</g>
<!-- Node89&#45;&gt;Node90 -->
<g id="edge33_Node000089_Node000090" class="edge">
<title>Node89&#45;&gt;Node90</title>
<g id="a_edge33_Node000089_Node000090"><a xlink:title=" ">
<path fill="none" stroke="#63b8ff" d="M337.13,-411.97C324.26,-410.45 310.43,-408.82 297.16,-407.25"/>
<polygon fill="#63b8ff" stroke="#63b8ff" points="336.88,-415.46 347.22,-413.16 337.7,-408.51 336.88,-415.46"/>
</a>
</g>
</g>
<!-- Node91&#45;&gt;Node90 -->
<g id="edge35_Node000091_Node000090" class="edge">
<title>Node91&#45;&gt;Node90</title>
<g id="a_edge35_Node000091_Node000090"><a xlink:title=" ">
<path fill="none" stroke="#63b8ff" d="M481.51,-383.93C429.77,-387.15 352.26,-391.98 297.27,-395.4"/>
<polygon fill="#63b8ff" stroke="#63b8ff" points="481.73,-387.42 491.5,-383.3 481.3,-380.43 481.73,-387.42"/>
</a>
</g>
</g>
<!-- Node93 -->
<g id="Node000093" class="node">
<title>Node93</title>
<g id="a_Node000093"><a xlink:href="code__80071F00_8c.html#ae733a40e5e6dab7488643eb6d316b0c0" target="_top" xlink:title=" ">
<polygon fill="#fff0f0" stroke="red" points="439.5,-352 347.5,-352 347.5,-333 439.5,-333 439.5,-352"/>
<text text-anchor="middle" x="393.5" y="-340" font-family="Helvetica,sans-Serif" font-size="10.00">func_8007E1AC</text>
</a>
</g>
</g>
<!-- Node92&#45;&gt;Node93 -->
<g id="edge37_Node000092_Node000093" class="edge">
<title>Node92&#45;&gt;Node93</title>
<g id="a_edge37_Node000092_Node000093"><a xlink:title=" ">
<path fill="none" stroke="#63b8ff" d="M479.28,-342.5C466.17,-342.5 452.42,-342.5 439.89,-342.5"/>
<polygon fill="#63b8ff" stroke="#63b8ff" points="479.61,-346 489.61,-342.5 479.61,-339 479.61,-346"/>
</a>
</g>
</g>
<!-- Node95 -->
<g id="Node000095" class="node">
<title>Node95</title>
<g id="a_Node000095"><a xlink:href="code__80071F00_8c.html#ac8b268e6a216ed165f6d9ba102367fd7" target="_top" xlink:title=" ">
<polygon fill="#fff0f0" stroke="red" points="439.5,-315 347.5,-315 347.5,-296 439.5,-296 439.5,-315"/>
<text text-anchor="middle" x="393.5" y="-303" font-family="Helvetica,sans-Serif" font-size="10.00">func_8007E4C4</text>
</a>
</g>
</g>
<!-- Node94&#45;&gt;Node95 -->
<g id="edge39_Node000094_Node000095" class="edge">
<title>Node94&#45;&gt;Node95</title>
<g id="a_edge39_Node000094_Node000095"><a xlink:title=" ">
<path fill="none" stroke="#63b8ff" d="M481.61,-305.5C467.8,-305.5 453.14,-305.5 439.86,-305.5"/>
<polygon fill="#63b8ff" stroke="#63b8ff" points="481.96,-309 491.96,-305.5 481.96,-302 481.96,-309"/>
</a>
</g>
</g>
<!-- Node96&#45;&gt;Node66 -->
<g id="edge48_Node000096_Node000066" class="edge">
<title>Node96&#45;&gt;Node66</title>
<g id="a_edge48_Node000096_Node000066"><a xlink:title=" ">
<path fill="none" stroke="#63b8ff" d="M526.22,-715.08C512.71,-737.63 486.83,-775.03 454,-794.5 404.34,-823.95 338.65,-834.43 291.54,-838.01"/>
<polygon fill="#63b8ff" stroke="#63b8ff" points="529.4,-716.56 531.38,-706.16 523.34,-713.06 529.4,-716.56"/>
</a>
</g>
</g>
<!-- Node96&#45;&gt;Node68 -->
<g id="edge49_Node000096_Node000068" class="edge">
<title>Node96&#45;&gt;Node68</title>
<g id="a_edge49_Node000096_Node000068"><a xlink:title=" ">
<path fill="none" stroke="#63b8ff" d="M521.83,-714C506.69,-730.75 481.47,-755.23 454,-767.5 400.83,-791.25 333.88,-797.15 287.38,-797.95"/>
<polygon fill="#63b8ff" stroke="#63b8ff" points="524.83,-715.88 528.78,-706.05 519.56,-711.27 524.83,-715.88"/>
</a>
</g>
</g>
<!-- Node96&#45;&gt;Node69 -->
<g id="edge50_Node000096_Node000069" class="edge">
<title>Node96&#45;&gt;Node69</title>
<g id="a_edge50_Node000096_Node000069"><a xlink:title=" ">
<path fill="none" stroke="#63b8ff" d="M495.68,-708.76C482.48,-712.36 467.71,-715.99 454,-718.5 340.64,-739.25 205.73,-739.46 128.26,-737.28"/>
<polygon fill="#63b8ff" stroke="#63b8ff" points="496.73,-712.1 505.43,-706.04 494.85,-705.36 496.73,-712.1"/>
</a>
</g>
</g>
<!-- Node97 -->
<g id="Node000097" class="node">
<title>Node97</title>
<g id="a_Node000097"><a xlink:href="actors_8c.html#a0fff2a94adce284fb6e2ef36de0ba5a6" target="_top" xlink:title=" ">
<polygon fill="#fff0f0" stroke="red" points="439.5,-650 347.5,-650 347.5,-631 439.5,-631 439.5,-650"/>
<text text-anchor="middle" x="393.5" y="-638" font-family="Helvetica,sans-Serif" font-size="10.00">func_802A0350</text>
</a>
</g>
</g>
<!-- Node96&#45;&gt;Node97 -->
<g id="edge41_Node000096_Node000097" class="edge">
<title>Node96&#45;&gt;Node97</title>
<g id="a_edge41_Node000096_Node000097"><a xlink:title=" ">
<path fill="none" stroke="#63b8ff" d="M507.59,-682.57C491.91,-675.26 472.09,-666.42 454,-659.5 445.19,-656.13 435.49,-652.86 426.53,-650"/>
<polygon fill="#63b8ff" stroke="#63b8ff" points="506.22,-685.8 516.76,-686.89 509.2,-679.46 506.22,-685.8"/>
</a>
</g>
</g>
<!-- Node99 -->
<g id="Node000099" class="node">
<title>Node99</title>
<g id="a_Node000099"><a xlink:href="actors_8c.html#a5d0cc071261caa5b76190cfee9c90189" target="_top" xlink:title=" ">
<polygon fill="#fff0f0" stroke="red" points="439.5,-613 347.5,-613 347.5,-594 439.5,-594 439.5,-613"/>
<text text-anchor="middle" x="393.5" y="-601" font-family="Helvetica,sans-Serif" font-size="10.00">func_802A0450</text>
</a>
</g>
</g>
<!-- Node96&#45;&gt;Node99 -->
<g id="edge42_Node000096_Node000099" class="edge">
<title>Node96&#45;&gt;Node99</title>
<g id="a_edge42_Node000096_Node000099"><a xlink:title=" ">
<path fill="none" stroke="#63b8ff" d="M521.62,-679.49C506.21,-662.83 480.69,-637.78 454,-622.5 447.41,-618.73 439.98,-615.6 432.66,-613.04"/>
<polygon fill="#63b8ff" stroke="#63b8ff" points="519.03,-681.85 528.33,-686.92 524.22,-677.15 519.03,-681.85"/>
</a>
</g>
</g>
<!-- Node101 -->
<g id="Node000101" class="node">
<title>Node101</title>
<g id="a_Node000101"><a xlink:href="actors__extended_8c.html#a0cc339b71fb81e84d30eb55dc05b1a04" target="_top" xlink:title=" ">
<polygon fill="white" stroke="#666666" points="276.5,-725 184.5,-725 184.5,-706 276.5,-706 276.5,-725"/>
<text text-anchor="middle" x="230.5" y="-713" font-family="Helvetica,sans-Serif" font-size="10.00">func_802B3E7C</text>
</a>
</g>
</g>
<!-- Node96&#45;&gt;Node101 -->
<g id="edge43_Node000096_Node000101" class="edge">
<title>Node96&#45;&gt;Node101</title>
<g id="a_edge43_Node000096_Node000101"><a xlink:title=" ">
<path fill="none" stroke="#63b8ff" d="M480.66,-699.98C422.13,-703.62 331.29,-709.28 276.97,-712.67"/>
<polygon fill="#63b8ff" stroke="#63b8ff" points="481.08,-703.46 490.84,-699.34 480.64,-696.47 481.08,-703.46"/>
</a>
</g>
</g>
<!-- Node102 -->
<g id="Node000102" class="node">
<title>Node102</title>
<g id="a_Node000102"><a xlink:href="actors__extended_8c.html#a334de9136224947ca20e7d31fb009a82" target="_top" xlink:title=" ">
<polygon fill="white" stroke="#666666" points="439.5,-687 347.5,-687 347.5,-668 439.5,-668 439.5,-687"/>
<text text-anchor="middle" x="393.5" y="-675" font-family="Helvetica,sans-Serif" font-size="10.00">func_802B4104</text>
</a>
</g>
</g>
<!-- Node96&#45;&gt;Node102 -->
<g id="edge45_Node000096_Node000102" class="edge">
<title>Node96&#45;&gt;Node102</title>
<g id="a_edge45_Node000096_Node000102"><a xlink:title=" ">
<path fill="none" stroke="#63b8ff" d="M480.59,-689.02C467.01,-687.2 452.65,-685.28 439.64,-683.54"/>
<polygon fill="#63b8ff" stroke="#63b8ff" points="480.41,-692.53 490.79,-690.38 481.34,-685.59 480.41,-692.53"/>
</a>
</g>
</g>
<!-- Node101&#45;&gt;Node69 -->
<g id="edge44_Node000101_Node000069" class="edge">
<title>Node101&#45;&gt;Node69</title>
<g id="a_edge44_Node000101_Node000069"><a xlink:title=" ">
<path fill="none" stroke="#63b8ff" d="M174.12,-721.9C159.33,-723.6 143.25,-725.46 128.09,-727.21"/>
<polygon fill="#63b8ff" stroke="#63b8ff" points="174.58,-725.37 184.11,-720.74 173.78,-718.41 174.58,-725.37"/>
</a>
</g>
</g>
<!-- Node102&#45;&gt;Node69 -->
<g id="edge47_Node000102_Node000069" class="edge">
<title>Node102&#45;&gt;Node69</title>
<g id="a_edge47_Node000102_Node000069"><a xlink:title=" ">
<path fill="none" stroke="#63b8ff" d="M337.08,-678.18C290.4,-679.74 222.14,-684.35 164,-697.5 141.63,-702.56 117.5,-711.5 98.67,-719.33"/>
<polygon fill="#63b8ff" stroke="#63b8ff" points="337.4,-681.67 347.29,-677.87 337.19,-674.67 337.4,-681.67"/>
</a>
</g>
</g>
<!-- Node102&#45;&gt;Node101 -->
<g id="edge46_Node000102_Node000101" class="edge">
<title>Node102&#45;&gt;Node101</title>
<g id="a_edge46_Node000102_Node000101"><a xlink:title=" ">
<path fill="none" stroke="#63b8ff" d="M342.1,-689.4C319.47,-694.74 293.13,-700.95 271.83,-705.98"/>
<polygon fill="#63b8ff" stroke="#63b8ff" points="342.94,-692.79 351.87,-687.09 341.34,-685.98 342.94,-692.79"/>
</a>
</g>
</g>
<!-- Node104 -->
<g id="Node000104" class="node">
<title>Node104</title>
<g id="a_Node000104"><a xlink:href="code__8008C1D0_8c.html#a32d25ca5d6ae2b7dbf1b8e0058fcc262" target="_top" xlink:title=" ">
<polygon fill="white" stroke="#666666" points="583,-93 492,-93 492,-74 583,-74 583,-93"/>
<text text-anchor="middle" x="537.5" y="-81" font-family="Helvetica,sans-Serif" font-size="10.00">func_8008F650</text>
</a>
</g>
</g>
<!-- Node103&#45;&gt;Node104 -->
<g id="edge52_Node000103_Node000104" class="edge">
<title>Node103&#45;&gt;Node104</title>
<g id="a_edge52_Node000103_Node000104"><a xlink:title=" ">
<path fill="none" stroke="#63b8ff" d="M610.69,-83.5C601.51,-83.5 592.12,-83.5 583.28,-83.5"/>
<polygon fill="#63b8ff" stroke="#63b8ff" points="610.93,-87 620.93,-83.5 610.93,-80 610.93,-87"/>
</a>
</g>
</g>
<!-- Node120 -->
<g id="Node000120" class="node">
<title>Node120</title>
<g id="a_Node000120"><a xlink:href="code__8008C1D0_8c.html#ae1bacd987d7f12fc5960f838a7dbe137" target="_top" xlink:title=" ">
<polygon fill="white" stroke="#666666" points="583.5,-56 491.5,-56 491.5,-37 583.5,-37 583.5,-56"/>
<text text-anchor="middle" x="537.5" y="-44" font-family="Helvetica,sans-Serif" font-size="10.00">func_8008F86C</text>
</a>
</g>
</g>
<!-- Node103&#45;&gt;Node120 -->
<g id="edge54_Node000103_Node000120" class="edge">
<title>Node103&#45;&gt;Node120</title>
<g id="a_edge54_Node000103_Node000120"><a xlink:title=" ">
<path fill="none" stroke="#63b8ff" d="M624.53,-71.17C607.44,-66.27 588.08,-60.72 572.06,-56.12"/>
<polygon fill="#63b8ff" stroke="#63b8ff" points="623.7,-74.58 634.28,-73.97 625.63,-67.85 623.7,-74.58"/>
</a>
</g>
</g>
<!-- Node105 -->
<g id="Node000105" class="node">
<title>Node105</title>
<g id="a_Node000105"><a xlink:href="player__controller_8c.html#a604bf40239556f92ce3be651ca142296" target="_top" xlink:title=" ">
<polygon fill="#fff0f0" stroke="red" points="440,-93 347,-93 347,-74 440,-74 440,-93"/>
<text text-anchor="middle" x="393.5" y="-81" font-family="Helvetica,sans-Serif" font-size="10.00">func_8002CD48</text>
</a>
</g>
</g>
<!-- Node104&#45;&gt;Node105 -->
<g id="edge53_Node000104_Node000105" class="edge">
<title>Node104&#45;&gt;Node105</title>
<g id="a_edge53_Node000104_Node000105"><a xlink:title=" ">
<path fill="none" stroke="#63b8ff" d="M481.71,-83.5C468.05,-83.5 453.53,-83.5 440.35,-83.5"/>
<polygon fill="#63b8ff" stroke="#63b8ff" points="481.96,-87 491.96,-83.5 481.96,-80 481.96,-87"/>
</a>
</g>
</g>
<!-- Node121 -->
<g id="Node000121" class="node">
<title>Node121</title>
<g id="a_Node000121"><a xlink:href="code__8008C1D0_8c.html#a71c3c746ea434e798865e3256180ee0a" target="_top" xlink:title=" ">
<polygon fill="#fff0f0" stroke="red" points="439,-56 348,-56 348,-37 439,-37 439,-56"/>
<text text-anchor="middle" x="393.5" y="-44" font-family="Helvetica,sans-Serif" font-size="10.00">func_8008F494</text>
</a>
</g>
</g>
<!-- Node120&#45;&gt;Node121 -->
<g id="edge55_Node000120_Node000121" class="edge">
<title>Node120&#45;&gt;Node121</title>
<g id="a_edge55_Node000120_Node000121"><a xlink:title=" ">
<path fill="none" stroke="#63b8ff" d="M480.86,-46.5C467.11,-46.5 452.55,-46.5 439.39,-46.5"/>
<polygon fill="#63b8ff" stroke="#63b8ff" points="481.18,-50 491.18,-46.5 481.18,-43 481.18,-50"/>
</a>
</g>
</g>
<!-- Node123 -->
<g id="Node000123" class="node">
<title>Node123</title>
<g id="a_Node000123"><a xlink:href="code__8008C1D0_8c.html#a17332237b5c2a4249328a35071e23bf7" target="_top" xlink:title=" ">
<polygon fill="#fff0f0" stroke="red" points="439,-19 348,-19 348,0 439,0 439,-19"/>
<text text-anchor="middle" x="393.5" y="-7" font-family="Helvetica,sans-Serif" font-size="10.00">func_80090778</text>
</a>
</g>
</g>
<!-- Node120&#45;&gt;Node123 -->
<g id="edge56_Node000120_Node000123" class="edge">
<title>Node120&#45;&gt;Node123</title>
<g id="a_edge56_Node000120_Node000123"><a xlink:title=" ">
<path fill="none" stroke="#63b8ff" d="M490.25,-34.45C471.19,-29.48 449.4,-23.81 431.44,-19.12"/>
<polygon fill="#63b8ff" stroke="#63b8ff" points="489.37,-37.84 499.93,-36.97 491.14,-31.06 489.37,-37.84"/>
</a>
</g>
</g>
</g>
</svg>

<g id="navigator" transform="translate(0 0)" fill="#404254">
  <rect fill="#f2f5e9" fill-opacity="0.5" stroke="#606060" stroke-width=".5" x="0" y="0" width="60" height="60"/>
  <use id="zoomplus" xlink:href="#zoomPlus" x="17" y="9" onmousedown="handleZoom(evt,'in')"/>
  <use id="zoomminus" xlink:href="#zoomMin" x="42" y="9" onmousedown="handleZoom(evt,'out')"/>
  <use id="reset" xlink:href="#resetDef" x="30" y="36" onmousedown="handleReset()"/>
   <use id="arrowup" xlink:href="#arrowUp" x="0" y="0" onmousedown="handlePan(0,-1)"/>
  <use id="arrowright" xlink:href="#arrowRight" x="0" y="0" onmousedown="handlePan(1,0)"/>
  <use id="arrowdown" xlink:href="#arrowDown" x="0" y="0" onmousedown="handlePan(0,1)"/>
  <use id="arrowleft" xlink:href="#arrowLeft" x="0" y="0" onmousedown="handlePan(-1,0)"/>
</g>
<svg viewBox="0 0 15 15" width="100%" height="30px" preserveAspectRatio="xMaxYMin meet">
 <g id="arrow_out" transform="scale(0.3 0.3)">
  <a xlink:href="external_8h_acc02dea90339925d2e5419c72143c6c0_icgraph_org.svg" target="_base">
   <rect id="button" ry="5" rx="5" y="6" x="6" height="38" width="38"
        fill="#f2f5e9" fill-opacity="0.5" stroke="#606060" stroke-width="1.0"/>
   <path id="arrow"
     d="M 11.500037,31.436501 C 11.940474,20.09759 22.043105,11.32322 32.158766,21.979434 L 37.068811,17.246167 C 37.068811,17.246167 37.088388,32 37.088388,32 L 22.160133,31.978069 C 22.160133,31.978069 26.997745,27.140456 26.997745,27.140456 C 18.528582,18.264221 13.291696,25.230495 11.500037,31.436501 z"
     style="fill:#404040;"/>
  </a>
 </g>
</svg>

<style type='text/css'>
<![CDATA[
[data-mouse-over-selected='false'] { opacity: 0.7; }
[data-mouse-over-selected='true']  { opacity: 1.0; }
]]>
</style>
<script type="application/ecmascript"><![CDATA[
document.addEventListener('DOMContentLoaded', (event) => {
  highlightEdges();
  highlightAdjacentNodes();
});
]]></script>
</svg>
