<?xml version="1.0" encoding="UTF-8" standalone="no"?>
<!DOCTYPE svg PUBLIC "-//W3C//DTD SVG 1.1//EN"
 "http://www.w3.org/Graphics/SVG/1.1/DTD/svg11.dtd">
<!-- Generated by graphviz version 2.43.0 (0)
 -->
<!-- Title: func_800C41CC Pages: 1 -->
<svg width="839pt" height="1080pt"
 viewBox="0.00 0.00 839.00 1079.50" xmlns="http://www.w3.org/2000/svg" xmlns:xlink="http://www.w3.org/1999/xlink">
<g id="graph0" class="graph" transform="scale(1 1) rotate(0) translate(4 1075.5)">
<title>func_800C41CC</title>
<!-- Node1 -->
<g id="Node000001" class="node">
<title>Node1</title>
<g id="a_Node000001"><a xlink:title=" ">
<polygon fill="#999999" stroke="#666666" points="831,-921 738,-921 738,-902 831,-902 831,-921"/>
<text text-anchor="middle" x="784.5" y="-909" font-family="Helvetica,sans-Serif" font-size="10.00">func_800C41CC</text>
</a>
</g>
</g>
<!-- Node2 -->
<g id="Node000002" class="node">
<title>Node2</title>
<g id="a_Node000002"><a xlink:href="external_8c.html#a3d8334bd4e9a682bd18c614fd427004e" target="_top" xlink:title=" ">
<polygon fill="white" stroke="#666666" points="702,-921 610,-921 610,-902 702,-902 702,-921"/>
<text text-anchor="middle" x="656" y="-909" font-family="Helvetica,sans-Serif" font-size="10.00">func_800C5278</text>
</a>
</g>
</g>
<!-- Node1&#45;&gt;Node2 -->
<g id="edge1_Node000001_Node000002" class="edge">
<title>Node1&#45;&gt;Node2</title>
<g id="a_edge1_Node000001_Node000002"><a xlink:title=" ">
<path fill="none" stroke="#63b8ff" d="M727.59,-911.5C719.09,-911.5 710.41,-911.5 702.18,-911.5"/>
<polygon fill="#63b8ff" stroke="#63b8ff" points="727.83,-915 737.83,-911.5 727.83,-908 727.83,-915"/>
</a>
</g>
</g>
<!-- Node28 -->
<g id="Node000028" class="node">
<title>Node28</title>
<g id="a_Node000028"><a xlink:href="external_8c.html#a8f95640fef6382013af69a10a1dad4f7" target="_top" xlink:title=" ">
<polygon fill="white" stroke="#666666" points="702,-958 610,-958 610,-939 702,-939 702,-958"/>
<text text-anchor="middle" x="656" y="-946" font-family="Helvetica,sans-Serif" font-size="10.00">func_800C54B8</text>
</a>
</g>
</g>
<!-- Node1&#45;&gt;Node28 -->
<g id="edge11_Node000001_Node000028" class="edge">
<title>Node1&#45;&gt;Node28</title>
<g id="a_edge11_Node000001_Node000028"><a xlink:title=" ">
<path fill="none" stroke="#63b8ff" d="M740.89,-923.96C724.25,-928.83 705.47,-934.32 689.91,-938.88"/>
<polygon fill="#63b8ff" stroke="#63b8ff" points="742.31,-927.2 750.92,-921.03 740.34,-920.48 742.31,-927.2"/>
</a>
</g>
</g>
<!-- Node29 -->
<g id="Node000029" class="node">
<title>Node29</title>
<g id="a_Node000029"><a xlink:href="external_8c.html#ac670a5c7b8fa5490ab1ee563ffffcd9c" target="_top" xlink:title=" ">
<polygon fill="white" stroke="#666666" points="702,-884 610,-884 610,-865 702,-865 702,-884"/>
<text text-anchor="middle" x="656" y="-872" font-family="Helvetica,sans-Serif" font-size="10.00">func_800C550C</text>
</a>
</g>
</g>
<!-- Node1&#45;&gt;Node29 -->
<g id="edge12_Node000001_Node000029" class="edge">
<title>Node1&#45;&gt;Node29</title>
<g id="a_edge12_Node000001_Node000029"><a xlink:title=" ">
<path fill="none" stroke="#63b8ff" d="M740.89,-899.04C724.25,-894.17 705.47,-888.68 689.91,-884.12"/>
<polygon fill="#63b8ff" stroke="#63b8ff" points="740.34,-902.52 750.92,-901.97 742.31,-895.8 740.34,-902.52"/>
</a>
</g>
</g>
<!-- Node31 -->
<g id="Node000031" class="node">
<title>Node31</title>
<g id="a_Node000031"><a xlink:href="external_8c.html#a028d40421b90c38f68ebfd5acc626f2e" target="_top" xlink:title=" ">
<polygon fill="white" stroke="#666666" points="702,-494 610,-494 610,-475 702,-475 702,-494"/>
<text text-anchor="middle" x="656" y="-482" font-family="Helvetica,sans-Serif" font-size="10.00">func_800C5578</text>
</a>
</g>
</g>
<!-- Node1&#45;&gt;Node31 -->
<g id="edge19_Node000001_Node000031" class="edge">
<title>Node1&#45;&gt;Node31</title>
<g id="a_edge19_Node000001_Node000031"><a xlink:title=" ">
<path fill="none" stroke="#63b8ff" d="M777.65,-891.74C755.3,-816.32 675.83,-548.05 659.82,-494.02"/>
<polygon fill="#63b8ff" stroke="#63b8ff" points="774.42,-893.19 780.62,-901.78 781.14,-891.2 774.42,-893.19"/>
</a>
</g>
</g>
<!-- Node168 -->
<g id="Node000168" class="node">
<title>Node168</title>
<g id="a_Node000168"><a xlink:href="external_8c.html#a18c71fc634c319d176306b3ce04c2896" target="_top" xlink:title=" ">
<polygon fill="white" stroke="#666666" points="702,-996 610,-996 610,-977 702,-977 702,-996"/>
<text text-anchor="middle" x="656" y="-984" font-family="Helvetica,sans-Serif" font-size="10.00">func_800C56F0</text>
</a>
</g>
</g>
<!-- Node1&#45;&gt;Node168 -->
<g id="edge59_Node000001_Node000168" class="edge">
<title>Node1&#45;&gt;Node168</title>
<g id="a_edge59_Node000001_Node000168"><a xlink:title=" ">
<path fill="none" stroke="#63b8ff" d="M762.51,-927.17C746.42,-938.8 723.42,-954.63 702,-966.5 695.27,-970.23 687.71,-973.81 680.74,-976.88"/>
<polygon fill="#63b8ff" stroke="#63b8ff" points="764.68,-929.92 770.68,-921.19 760.54,-924.27 764.68,-929.92"/>
</a>
</g>
</g>
<!-- Node3 -->
<g id="Node000003" class="node">
<title>Node3</title>
<g id="a_Node000003"><a xlink:href="external_8c.html#a9bc9f57fb83f73d37b56721df044d722" target="_top" xlink:title=" ">
<polygon fill="white" stroke="#666666" points="414.5,-881 322.5,-881 322.5,-862 414.5,-862 414.5,-881"/>
<text text-anchor="middle" x="368.5" y="-869" font-family="Helvetica,sans-Serif" font-size="10.00">func_800C76C0</text>
</a>
</g>
</g>
<!-- Node2&#45;&gt;Node3 -->
<g id="edge2_Node000002_Node000003" class="edge">
<title>Node2&#45;&gt;Node3</title>
<g id="a_edge2_Node000002_Node000003"><a xlink:title=" ">
<path fill="none" stroke="#63b8ff" d="M599.6,-906.1C565.12,-902.51 519.89,-897.38 480,-891.5 458.4,-888.31 434.55,-884.09 414.55,-880.34"/>
<polygon fill="#63b8ff" stroke="#63b8ff" points="599.63,-909.62 609.94,-907.17 600.35,-902.66 599.63,-909.62"/>
</a>
</g>
</g>
<!-- Node21 -->
<g id="Node000021" class="node">
<title>Node21</title>
<g id="a_Node000021"><a xlink:href="external_8c.html#a518bea6c084cccd3443950737f53a97a" target="_top" xlink:title=" ">
<polygon fill="white" stroke="#666666" points="573,-959 481,-959 481,-940 573,-940 573,-959"/>
<text text-anchor="middle" x="527" y="-947" font-family="Helvetica,sans-Serif" font-size="10.00">func_800CA0E4</text>
</a>
</g>
</g>
<!-- Node2&#45;&gt;Node21 -->
<g id="edge5_Node000002_Node000021" class="edge">
<title>Node2&#45;&gt;Node21</title>
<g id="a_edge5_Node000002_Node000021"><a xlink:title=" ">
<path fill="none" stroke="#63b8ff" d="M613.11,-924.04C595.83,-929.2 576.13,-935.1 560.04,-939.91"/>
<polygon fill="#63b8ff" stroke="#63b8ff" points="614.38,-927.31 622.95,-921.09 612.37,-920.6 614.38,-927.31"/>
</a>
</g>
</g>
<!-- Node4 -->
<g id="Node000004" class="node">
<title>Node4</title>
<g id="a_Node000004"><a xlink:href="external_8c.html#aebe0a7e33d0961a0ad7e4ba40a49a032" target="_top" xlink:title=" ">
<polygon fill="white" stroke="#666666" points="253.5,-826 159.5,-826 159.5,-807 253.5,-807 253.5,-826"/>
<text text-anchor="middle" x="206.5" y="-814" font-family="Helvetica,sans-Serif" font-size="10.00">func_800C8CCC</text>
</a>
</g>
</g>
<!-- Node3&#45;&gt;Node4 -->
<g id="edge3_Node000003_Node000004" class="edge">
<title>Node3&#45;&gt;Node4</title>
<g id="a_edge3_Node000003_Node000004"><a xlink:title=" ">
<path fill="none" stroke="#63b8ff" d="M315.52,-859.3C307.91,-857.21 300.21,-854.92 293,-852.5 270.25,-844.86 245.02,-833.92 227.9,-826.1"/>
<polygon fill="#63b8ff" stroke="#63b8ff" points="314.85,-862.75 325.41,-861.93 316.65,-855.98 314.85,-862.75"/>
</a>
</g>
</g>
<!-- Node5 -->
<g id="Node000005" class="node">
<title>Node5</title>
<g id="a_Node000005"><a xlink:href="external_8c.html#a12c3e6c147828cc102e748904808ea4a" target="_top" xlink:title=" ">
<polygon fill="#fff0f0" stroke="red" points="106.5,-826 13.5,-826 13.5,-807 106.5,-807 106.5,-826"/>
<text text-anchor="middle" x="60" y="-814" font-family="Helvetica,sans-Serif" font-size="10.00">func_800CB2C4</text>
</a>
</g>
</g>
<!-- Node4&#45;&gt;Node5 -->
<g id="edge4_Node000004_Node000005" class="edge">
<title>Node4&#45;&gt;Node5</title>
<g id="a_edge4_Node000004_Node000005"><a xlink:title=" ">
<path fill="none" stroke="#63b8ff" d="M149.29,-816.5C135.18,-816.5 120.21,-816.5 106.68,-816.5"/>
<polygon fill="#63b8ff" stroke="#63b8ff" points="149.38,-820 159.38,-816.5 149.38,-813 149.38,-820"/>
</a>
</g>
</g>
<!-- Node22 -->
<g id="Node000022" class="node">
<title>Node22</title>
<g id="a_Node000022"><a xlink:href="external_8c.html#a6bb2826cc804a0c5050b58e528cea272" target="_top" xlink:title=" ">
<polygon fill="white" stroke="#666666" points="414.5,-1029 322.5,-1029 322.5,-1010 414.5,-1010 414.5,-1029"/>
<text text-anchor="middle" x="368.5" y="-1017" font-family="Helvetica,sans-Serif" font-size="10.00">func_800CA118</text>
</a>
</g>
</g>
<!-- Node21&#45;&gt;Node22 -->
<g id="edge6_Node000021_Node000022" class="edge">
<title>Node21&#45;&gt;Node22</title>
<g id="a_edge6_Node000021_Node000022"><a xlink:title=" ">
<path fill="none" stroke="#63b8ff" d="M491.22,-962.82C487.42,-964.36 483.62,-965.94 480,-967.5 447.67,-981.41 410.81,-999.15 388.88,-1009.9"/>
<polygon fill="#63b8ff" stroke="#63b8ff" points="492.57,-966.05 500.57,-959.1 489.98,-959.55 492.57,-966.05"/>
</a>
</g>
</g>
<!-- Node23 -->
<g id="Node000023" class="node">
<title>Node23</title>
<g id="a_Node000023"><a xlink:href="race__logic_8c.html#a47f2e46e866e68495bc5792fb13f0d66" target="_top" xlink:title=" ">
<polygon fill="white" stroke="#666666" points="252,-1047 161,-1047 161,-1028 252,-1028 252,-1047"/>
<text text-anchor="middle" x="206.5" y="-1035" font-family="Helvetica,sans-Serif" font-size="10.00">func_8028E028</text>
</a>
</g>
</g>
<!-- Node22&#45;&gt;Node23 -->
<g id="edge7_Node000022_Node000023" class="edge">
<title>Node22&#45;&gt;Node23</title>
<g id="a_edge7_Node000022_Node000023"><a xlink:title=" ">
<path fill="none" stroke="#63b8ff" d="M312.07,-1025.74C292.51,-1027.94 270.77,-1030.38 252.21,-1032.47"/>
<polygon fill="#63b8ff" stroke="#63b8ff" points="312.53,-1029.21 322.08,-1024.61 311.75,-1022.25 312.53,-1029.21"/>
</a>
</g>
</g>
<!-- Node24 -->
<g id="Node000024" class="node">
<title>Node24</title>
<g id="a_Node000024"><a xlink:href="race__logic_8c.html#a9c6f4eb059607fcd18e4df0dcaaeec5b" target="_top" xlink:title=" ">
<polygon fill="#fff0f0" stroke="red" points="120,-1071.5 0,-1071.5 0,-1041.5 120,-1041.5 120,-1071.5"/>
<text text-anchor="start" x="8" y="-1059.5" font-family="Helvetica,sans-Serif" font-size="10.00">update_player_battle</text>
<text text-anchor="middle" x="60" y="-1048.5" font-family="Helvetica,sans-Serif" font-size="10.00">_status</text>
</a>
</g>
</g>
<!-- Node22&#45;&gt;Node24 -->
<g id="edge10_Node000022_Node000024" class="edge">
<title>Node22&#45;&gt;Node24</title>
<g id="a_edge10_Node000022_Node000024"><a xlink:title=" ">
<path fill="none" stroke="#63b8ff" d="M336.63,-1032.83C314.84,-1041.5 284.7,-1051.98 257,-1056.5 211.49,-1063.92 159.25,-1063.48 120.15,-1061.43"/>
<polygon fill="#63b8ff" stroke="#63b8ff" points="338.07,-1036.02 346.02,-1029.01 335.43,-1029.54 338.07,-1036.02"/>
</a>
</g>
</g>
<!-- Node27 -->
<g id="Node000027" class="node">
<title>Node27</title>
<g id="a_Node000027"><a xlink:href="race__logic_8c.html#a2645116d52469ec9b45c668d694e98c4" target="_top" xlink:title=" ">
<polygon fill="#fff0f0" stroke="red" points="252,-1010 161,-1010 161,-991 252,-991 252,-1010"/>
<text text-anchor="middle" x="206.5" y="-998" font-family="Helvetica,sans-Serif" font-size="10.00">func_8028EF28</text>
</a>
</g>
</g>
<!-- Node22&#45;&gt;Node27 -->
<g id="edge9_Node000022_Node000027" class="edge">
<title>Node22&#45;&gt;Node27</title>
<g id="a_edge9_Node000022_Node000027"><a xlink:title=" ">
<path fill="none" stroke="#63b8ff" d="M312.07,-1012.92C292.51,-1010.59 270.77,-1008.01 252.21,-1005.81"/>
<polygon fill="#63b8ff" stroke="#63b8ff" points="311.74,-1016.4 322.08,-1014.11 312.56,-1009.45 311.74,-1016.4"/>
</a>
</g>
</g>
<!-- Node23&#45;&gt;Node24 -->
<g id="edge8_Node000023_Node000024" class="edge">
<title>Node23&#45;&gt;Node24</title>
<g id="a_edge8_Node000023_Node000024"><a xlink:title=" ">
<path fill="none" stroke="#63b8ff" d="M151.03,-1044.66C140.9,-1045.99 130.28,-1047.39 120.02,-1048.74"/>
<polygon fill="#63b8ff" stroke="#63b8ff" points="151.51,-1048.13 160.97,-1043.36 150.6,-1041.19 151.51,-1048.13"/>
</a>
</g>
</g>
<!-- Node30 -->
<g id="Node000030" class="node">
<title>Node30</title>
<g id="a_Node000030"><a xlink:href="external_8c.html#a1041b412a7bdcec3c697ed68bec652d6" target="_top" xlink:title=" ">
<polygon fill="white" stroke="#666666" points="574,-883 480,-883 480,-864 574,-864 574,-883"/>
<text text-anchor="middle" x="527" y="-871" font-family="Helvetica,sans-Serif" font-size="10.00">func_800C9D0C</text>
</a>
</g>
</g>
<!-- Node29&#45;&gt;Node30 -->
<g id="edge13_Node000029_Node000030" class="edge">
<title>Node29&#45;&gt;Node30</title>
<g id="a_edge13_Node000029_Node000030"><a xlink:title=" ">
<path fill="none" stroke="#63b8ff" d="M599.67,-874.06C591.2,-874 582.53,-873.93 574.27,-873.86"/>
<polygon fill="#63b8ff" stroke="#63b8ff" points="599.84,-877.57 609.87,-874.14 599.89,-870.57 599.84,-877.57"/>
</a>
</g>
</g>
<!-- Node30&#45;&gt;Node3 -->
<g id="edge18_Node000030_Node000003" class="edge">
<title>Node30&#45;&gt;Node3</title>
<g id="a_edge18_Node000030_Node000003"><a xlink:title=" ">
<path fill="none" stroke="#63b8ff" d="M469.77,-872.78C451.7,-872.55 431.92,-872.3 414.74,-872.08"/>
<polygon fill="#63b8ff" stroke="#63b8ff" points="469.85,-876.28 479.89,-872.91 469.94,-869.28 469.85,-876.28"/>
</a>
</g>
</g>
<!-- Node8 -->
<g id="Node000008" class="node">
<title>Node8</title>
<g id="a_Node000008"><a xlink:href="code__80091750_8c.html#a4c171632ff32db3cbe13719e6478d536" target="_top" xlink:title=" ">
<polygon fill="#fff0f0" stroke="red" points="414.5,-955 322.5,-955 322.5,-936 414.5,-936 414.5,-955"/>
<text text-anchor="middle" x="368.5" y="-943" font-family="Helvetica,sans-Serif" font-size="10.00">func_80091B78</text>
</a>
</g>
</g>
<!-- Node30&#45;&gt;Node8 -->
<g id="edge14_Node000030_Node000008" class="edge">
<title>Node30&#45;&gt;Node8</title>
<g id="a_edge14_Node000030_Node000008"><a xlink:title=" ">
<path fill="none" stroke="#63b8ff" d="M505.87,-889.17C489.88,-900.94 466.54,-916.65 444,-926.5 434.83,-930.51 424.63,-933.8 414.81,-936.45"/>
<polygon fill="#63b8ff" stroke="#63b8ff" points="508.05,-891.91 513.94,-883.11 503.84,-886.32 508.05,-891.91"/>
</a>
</g>
</g>
<!-- Node9 -->
<g id="Node000009" class="node">
<title>Node9</title>
<g id="a_Node000009"><a xlink:href="main_8c.html#a8ccd4f2ae1a9502071e1b43ab07a78d3" target="_top" xlink:title=" ">
<polygon fill="#fff0f0" stroke="red" points="252.5,-973 160.5,-973 160.5,-954 252.5,-954 252.5,-973"/>
<text text-anchor="middle" x="206.5" y="-961" font-family="Helvetica,sans-Serif" font-size="10.00">func_800025D4</text>
</a>
</g>
</g>
<!-- Node8&#45;&gt;Node9 -->
<g id="edge15_Node000008_Node000009" class="edge">
<title>Node8&#45;&gt;Node9</title>
<g id="a_edge15_Node000008_Node000009"><a xlink:title=" ">
<path fill="none" stroke="#63b8ff" d="M311.89,-951.76C292.57,-953.93 271.14,-956.34 252.76,-958.41"/>
<polygon fill="#63b8ff" stroke="#63b8ff" points="312.53,-955.21 322.08,-950.61 311.75,-948.25 312.53,-955.21"/>
</a>
</g>
</g>
<!-- Node15 -->
<g id="Node000015" class="node">
<title>Node15</title>
<g id="a_Node000015"><a xlink:href="main_8c.html#a1399390ccfb8062de2a77e48df769faf" target="_top" xlink:title=" ">
<polygon fill="#fff0f0" stroke="red" points="252,-936 161,-936 161,-917 252,-917 252,-936"/>
<text text-anchor="middle" x="206.5" y="-924" font-family="Helvetica,sans-Serif" font-size="10.00">func_80002600</text>
</a>
</g>
</g>
<!-- Node8&#45;&gt;Node15 -->
<g id="edge16_Node000008_Node000015" class="edge">
<title>Node8&#45;&gt;Node15</title>
<g id="a_edge16_Node000008_Node000015"><a xlink:title=" ">
<path fill="none" stroke="#63b8ff" d="M312.07,-938.92C292.51,-936.59 270.77,-934.01 252.21,-931.81"/>
<polygon fill="#63b8ff" stroke="#63b8ff" points="311.74,-942.4 322.08,-940.11 312.56,-935.45 311.74,-942.4"/>
</a>
</g>
</g>
<!-- Node16 -->
<g id="Node000016" class="node">
<title>Node16</title>
<g id="a_Node000016"><a xlink:href="main_8c.html#a26a29858c220d867684f0385abacfde8" target="_top" xlink:title=" ">
<polygon fill="#fff0f0" stroke="red" points="252.5,-899 160.5,-899 160.5,-880 252.5,-880 252.5,-899"/>
<text text-anchor="middle" x="206.5" y="-887" font-family="Helvetica,sans-Serif" font-size="10.00">func_8000262C</text>
</a>
</g>
</g>
<!-- Node8&#45;&gt;Node16 -->
<g id="edge17_Node000008_Node000016" class="edge">
<title>Node8&#45;&gt;Node16</title>
<g id="a_edge17_Node000008_Node000016"><a xlink:title=" ">
<path fill="none" stroke="#63b8ff" d="M312.94,-933.18C306.15,-931.18 299.36,-928.95 293,-926.5 276.12,-920 273.54,-914.83 257,-907.5 250.23,-904.5 242.79,-901.59 235.78,-899.03"/>
<polygon fill="#63b8ff" stroke="#63b8ff" points="312.27,-936.62 322.84,-935.94 314.15,-929.88 312.27,-936.62"/>
</a>
</g>
</g>
<!-- Node31&#45;&gt;Node3 -->
<g id="edge22_Node000031_Node000003" class="edge">
<title>Node31&#45;&gt;Node3</title>
<g id="a_edge22_Node000031_Node000003"><a xlink:title=" ">
<path fill="none" stroke="#63b8ff" d="M652.79,-504.07C645.17,-568.09 618.05,-769.78 574,-815.5 552.16,-838.17 468.26,-855.54 414.94,-864.57"/>
<polygon fill="#63b8ff" stroke="#63b8ff" points="656.27,-504.43 653.95,-494.09 649.32,-503.62 656.27,-504.43"/>
</a>
</g>
</g>
<!-- Node32 -->
<g id="Node000032" class="node">
<title>Node32</title>
<g id="a_Node000032"><a xlink:href="external_8c.html#a629cbbd815e11fee9d438b90bf49b2a7" target="_top" xlink:title=" ">
<polygon fill="white" stroke="#666666" points="573,-146 481,-146 481,-127 573,-127 573,-146"/>
<text text-anchor="middle" x="527" y="-134" font-family="Helvetica,sans-Serif" font-size="10.00">func_800C683C</text>
</a>
</g>
</g>
<!-- Node31&#45;&gt;Node32 -->
<g id="edge20_Node000031_Node000032" class="edge">
<title>Node31&#45;&gt;Node32</title>
<g id="a_edge20_Node000031_Node000032"><a xlink:title=" ">
<path fill="none" stroke="#63b8ff" d="M653.19,-464.91C647.86,-414.94 629.01,-279.86 574,-183.5 565.4,-168.43 550.79,-154.69 540.35,-146.01"/>
<polygon fill="#63b8ff" stroke="#63b8ff" points="649.72,-465.38 654.2,-474.98 656.68,-464.68 649.72,-465.38"/>
</a>
</g>
</g>
<!-- Node33 -->
<g id="Node000033" class="node">
<title>Node33</title>
<g id="a_Node000033"><a xlink:href="external_8c.html#ad377fc55133176f069744a4bcb5e0364" target="_top" xlink:title=" ">
<polygon fill="white" stroke="#666666" points="573,-622 481,-622 481,-603 573,-603 573,-622"/>
<text text-anchor="middle" x="527" y="-610" font-family="Helvetica,sans-Serif" font-size="10.00">func_800C9018</text>
</a>
</g>
</g>
<!-- Node31&#45;&gt;Node33 -->
<g id="edge23_Node000031_Node000033" class="edge">
<title>Node31&#45;&gt;Node33</title>
<g id="a_edge23_Node000031_Node000033"><a xlink:title=" ">
<path fill="none" stroke="#63b8ff" d="M638.27,-501.37C611.33,-528.52 559.18,-581.07 537.66,-602.77"/>
<polygon fill="#63b8ff" stroke="#63b8ff" points="640.9,-503.68 645.45,-494.12 635.93,-498.75 640.9,-503.68"/>
</a>
</g>
</g>
<!-- Node89 -->
<g id="Node000089" class="node">
<title>Node89</title>
<g id="a_Node000089"><a xlink:href="external_8c.html#ae8a5e8ffbb625059aac9be15d4b2d310" target="_top" xlink:title=" ">
<polygon fill="white" stroke="#666666" points="573,-807 481,-807 481,-788 573,-788 573,-807"/>
<text text-anchor="middle" x="527" y="-795" font-family="Helvetica,sans-Serif" font-size="10.00">func_800C97C4</text>
</a>
</g>
</g>
<!-- Node31&#45;&gt;Node89 -->
<g id="edge40_Node000031_Node000089" class="edge">
<title>Node31&#45;&gt;Node89</title>
<g id="a_edge40_Node000031_Node000089"><a xlink:title=" ">
<path fill="none" stroke="#63b8ff" d="M647.27,-503.56C623.11,-563.09 549.65,-744.14 531.89,-787.9"/>
<polygon fill="#63b8ff" stroke="#63b8ff" points="650.54,-504.79 651.06,-494.21 644.06,-502.16 650.54,-504.79"/>
</a>
</g>
</g>
<!-- Node91 -->
<g id="Node000091" class="node">
<title>Node91</title>
<g id="a_Node000091"><a xlink:href="external_8c.html#ae72057869772019e4464c87d4e16c682" target="_top" xlink:title=" ">
<polygon fill="white" stroke="#666666" points="573,-366 481,-366 481,-347 573,-347 573,-366"/>
<text text-anchor="middle" x="527" y="-354" font-family="Helvetica,sans-Serif" font-size="10.00">func_800C99E0</text>
</a>
</g>
</g>
<!-- Node31&#45;&gt;Node91 -->
<g id="edge46_Node000031_Node000091" class="edge">
<title>Node31&#45;&gt;Node91</title>
<g id="a_edge46_Node000031_Node000091"><a xlink:title=" ">
<path fill="none" stroke="#63b8ff" d="M638.27,-467.63C611.33,-440.48 559.18,-387.93 537.66,-366.23"/>
<polygon fill="#63b8ff" stroke="#63b8ff" points="635.93,-470.25 645.45,-474.88 640.9,-465.32 635.93,-470.25"/>
</a>
</g>
</g>
<!-- Node146 -->
<g id="Node000146" class="node">
<title>Node146</title>
<g id="a_Node000146"><a xlink:href="external_8c.html#a73831bcbe259500206651a0b4702be9f" target="_top" xlink:title=" ">
<polygon fill="white" stroke="#666666" points="573,-212 481,-212 481,-193 573,-193 573,-212"/>
<text text-anchor="middle" x="527" y="-200" font-family="Helvetica,sans-Serif" font-size="10.00">func_800C9EF4</text>
</a>
</g>
</g>
<!-- Node31&#45;&gt;Node146 -->
<g id="edge49_Node000031_Node000146" class="edge">
<title>Node31&#45;&gt;Node146</title>
<g id="a_edge49_Node000031_Node000146"><a xlink:title=" ">
<path fill="none" stroke="#63b8ff" d="M646.45,-465.51C621.71,-410.59 550.68,-252.85 532.35,-212.17"/>
<polygon fill="#63b8ff" stroke="#63b8ff" points="643.33,-467.11 650.63,-474.79 649.71,-464.24 643.33,-467.11"/>
</a>
</g>
</g>
<!-- Node167 -->
<g id="Node000167" class="node">
<title>Node167</title>
<g id="a_Node000167"><a xlink:href="external_8c.html#a3138069310bbed5109964d607d51811f" target="_top" xlink:title=" ">
<polygon fill="white" stroke="#666666" points="416,-19 321,-19 321,0 416,0 416,-19"/>
<text text-anchor="middle" x="368.5" y="-7" font-family="Helvetica,sans-Serif" font-size="10.00">func_800CAACC</text>
</a>
</g>
</g>
<!-- Node31&#45;&gt;Node167 -->
<g id="edge56_Node000031_Node000167" class="edge">
<title>Node31&#45;&gt;Node167</title>
<g id="a_edge56_Node000031_Node000167"><a xlink:title=" ">
<path fill="none" stroke="#63b8ff" d="M655.65,-464.9C656.64,-406.46 652.53,-230.53 574,-117.5 535.17,-61.61 458.11,-32.38 410.47,-19.02"/>
<polygon fill="#63b8ff" stroke="#63b8ff" points="652.15,-464.88 655.41,-474.96 659.15,-465.05 652.15,-464.88"/>
</a>
</g>
</g>
<!-- Node32&#45;&gt;Node4 -->
<g id="edge21_Node000032_Node000004" class="edge">
<title>Node32&#45;&gt;Node4</title>
<g id="a_edge21_Node000032_Node000004"><a xlink:title=" ">
<path fill="none" stroke="#63b8ff" d="M507.28,-120.24C483.68,-99.78 445.92,-67.21 444,-66.5 381.03,-43.28 343.07,-21.81 293,-66.5 285.71,-73.01 217.65,-719.71 208.51,-806.83"/>
<polygon fill="#63b8ff" stroke="#63b8ff" points="505.11,-122.99 514.95,-126.9 509.69,-117.7 505.11,-122.99"/>
</a>
</g>
</g>
<!-- Node33&#45;&gt;Node3 -->
<g id="edge30_Node000033_Node000003" class="edge">
<title>Node33&#45;&gt;Node3</title>
<g id="a_edge30_Node000033_Node000003"><a xlink:title=" ">
<path fill="none" stroke="#63b8ff" d="M520.56,-631.78C505.1,-686 460.95,-836.85 444,-852.5 435.96,-859.93 425.43,-864.54 414.82,-867.39"/>
<polygon fill="#63b8ff" stroke="#63b8ff" points="523.96,-632.6 523.33,-622.03 517.23,-630.69 523.96,-632.6"/>
</a>
</g>
</g>
<!-- Node34 -->
<g id="Node000034" class="node">
<title>Node34</title>
<g id="a_Node000034"><a xlink:href="player__controller_8c.html#a1796f758711d87699791687c8c8ea84f" target="_top" xlink:title=" ">
<polygon fill="#fff0f0" stroke="red" points="415,-770 322,-770 322,-751 415,-751 415,-770"/>
<text text-anchor="middle" x="368.5" y="-758" font-family="Helvetica,sans-Serif" font-size="10.00">func_80027EDC</text>
</a>
</g>
</g>
<!-- Node33&#45;&gt;Node34 -->
<g id="edge24_Node000033_Node000034" class="edge">
<title>Node33&#45;&gt;Node34</title>
<g id="a_edge24_Node000033_Node000034"><a xlink:title=" ">
<path fill="none" stroke="#63b8ff" d="M519.17,-631.6C507.99,-660.04 483.06,-713.19 444,-741.5 435.57,-747.61 425.36,-751.76 415.24,-754.58"/>
<polygon fill="#63b8ff" stroke="#63b8ff" points="522.53,-632.61 522.78,-622.02 515.98,-630.14 522.53,-632.61"/>
</a>
</g>
</g>
<!-- Node47 -->
<g id="Node000047" class="node">
<title>Node47</title>
<g id="a_Node000047"><a xlink:href="update__objects_8c.html#a494d2eda5e833a373c2f02eae59d972c" target="_top" xlink:title=" ">
<polygon fill="#fff0f0" stroke="red" points="414,-733 323,-733 323,-714 414,-714 414,-733"/>
<text text-anchor="middle" x="368.5" y="-721" font-family="Helvetica,sans-Serif" font-size="10.00">func_800791F0</text>
</a>
</g>
</g>
<!-- Node33&#45;&gt;Node47 -->
<g id="edge25_Node000033_Node000047" class="edge">
<title>Node33&#45;&gt;Node47</title>
<g id="a_edge25_Node000033_Node000047"><a xlink:title=" ">
<path fill="none" stroke="#63b8ff" d="M514.54,-630.93C500.5,-651.95 474.76,-685.8 444,-704.5 434.99,-709.98 424.45,-713.88 414.17,-716.67"/>
<polygon fill="#63b8ff" stroke="#63b8ff" points="517.64,-632.58 520.14,-622.28 511.77,-628.77 517.64,-632.58"/>
</a>
</g>
</g>
<!-- Node64 -->
<g id="Node000064" class="node">
<title>Node64</title>
<g id="a_Node000064"><a xlink:href="update__objects_8c.html#a5b10e163d17f78f43ec59de3a5c401a0" target="_top" xlink:title=" ">
<polygon fill="#fff0f0" stroke="red" points="414.5,-696 322.5,-696 322.5,-677 414.5,-677 414.5,-696"/>
<text text-anchor="middle" x="368.5" y="-684" font-family="Helvetica,sans-Serif" font-size="10.00">func_8007B34C</text>
</a>
</g>
</g>
<!-- Node33&#45;&gt;Node64 -->
<g id="edge26_Node000033_Node000064" class="edge">
<title>Node33&#45;&gt;Node64</title>
<g id="a_edge26_Node000033_Node000064"><a xlink:title=" ">
<path fill="none" stroke="#63b8ff" d="M506.51,-628.38C490.57,-640.65 466.98,-657.23 444,-667.5 434.86,-671.58 424.68,-674.91 414.86,-677.56"/>
<polygon fill="#63b8ff" stroke="#63b8ff" points="508.84,-631 514.53,-622.07 504.51,-625.5 508.84,-631"/>
</a>
</g>
</g>
<!-- Node66 -->
<g id="Node000066" class="node">
<title>Node66</title>
<g id="a_Node000066"><a xlink:href="effects_8c.html#ad34129e6236b319a5bcedae86d59bc2c" target="_top" xlink:title=" ">
<polygon fill="#fff0f0" stroke="red" points="414,-659 323,-659 323,-640 414,-640 414,-659"/>
<text text-anchor="middle" x="368.5" y="-647" font-family="Helvetica,sans-Serif" font-size="10.00">func_80090970</text>
</a>
</g>
</g>
<!-- Node33&#45;&gt;Node66 -->
<g id="edge27_Node000033_Node000066" class="edge">
<title>Node33&#45;&gt;Node66</title>
<g id="a_edge27_Node000033_Node000066"><a xlink:title=" ">
<path fill="none" stroke="#63b8ff" d="M475.85,-624.36C454.55,-629.39 430.05,-635.18 409.94,-639.94"/>
<polygon fill="#63b8ff" stroke="#63b8ff" points="476.77,-627.74 485.7,-622.03 475.16,-620.92 476.77,-627.74"/>
</a>
</g>
</g>
<!-- Node71 -->
<g id="Node000071" class="node">
<title>Node71</title>
<g id="a_Node000071"><a xlink:href="external_8c.html#a6adc8dfd43ac90ecb9cbe18c1e56d762" target="_top" xlink:title=" ">
<polygon fill="white" stroke="#666666" points="414.5,-622 322.5,-622 322.5,-603 414.5,-603 414.5,-622"/>
<text text-anchor="middle" x="368.5" y="-610" font-family="Helvetica,sans-Serif" font-size="10.00">func_800C5E38</text>
</a>
</g>
</g>
<!-- Node33&#45;&gt;Node71 -->
<g id="edge28_Node000033_Node000071" class="edge">
<title>Node33&#45;&gt;Node71</title>
<g id="a_edge28_Node000033_Node000071"><a xlink:title=" ">
<path fill="none" stroke="#63b8ff" d="M470.5,-612.5C452.2,-612.5 432.09,-612.5 414.66,-612.5"/>
<polygon fill="#63b8ff" stroke="#63b8ff" points="470.73,-616 480.73,-612.5 470.73,-609 470.73,-616"/>
</a>
</g>
</g>
<!-- Node72 -->
<g id="Node000072" class="node">
<title>Node72</title>
<g id="a_Node000072"><a xlink:href="external_8c.html#ab95692e47151e93fb7d149534da6a180" target="_top" xlink:title=" ">
<polygon fill="white" stroke="#666666" points="414.5,-807 322.5,-807 322.5,-788 414.5,-788 414.5,-807"/>
<text text-anchor="middle" x="368.5" y="-795" font-family="Helvetica,sans-Serif" font-size="10.00">func_800C847C</text>
</a>
</g>
</g>
<!-- Node33&#45;&gt;Node72 -->
<g id="edge31_Node000033_Node000072" class="edge">
<title>Node33&#45;&gt;Node72</title>
<g id="a_edge31_Node000033_Node000072"><a xlink:title=" ">
<path fill="none" stroke="#63b8ff" d="M521.97,-632.03C513.73,-666.94 491.56,-739.98 444,-778.5 435.6,-785.31 425.06,-789.71 414.57,-792.54"/>
<polygon fill="#63b8ff" stroke="#63b8ff" points="525.42,-632.65 524.17,-622.13 518.59,-631.13 525.42,-632.65"/>
</a>
</g>
</g>
<!-- Node73 -->
<g id="Node000073" class="node">
<title>Node73</title>
<g id="a_Node000073"><a xlink:href="external_8c.html#ac32b332e8b9a73af543741393186060d" target="_top" xlink:title=" ">
<polygon fill="white" stroke="#666666" points="414.5,-585 322.5,-585 322.5,-566 414.5,-566 414.5,-585"/>
<text text-anchor="middle" x="368.5" y="-573" font-family="Helvetica,sans-Serif" font-size="10.00">func_800CA730</text>
</a>
</g>
</g>
<!-- Node33&#45;&gt;Node73 -->
<g id="edge33_Node000033_Node000073" class="edge">
<title>Node33&#45;&gt;Node73</title>
<g id="a_edge33_Node000033_Node000073"><a xlink:title=" ">
<path fill="none" stroke="#63b8ff" d="M475.85,-600.64C454.55,-595.61 430.05,-589.82 409.94,-585.06"/>
<polygon fill="#63b8ff" stroke="#63b8ff" points="475.16,-604.08 485.7,-602.97 476.77,-597.26 475.16,-604.08"/>
</a>
</g>
</g>
<!-- Node86 -->
<g id="Node000086" class="node">
<title>Node86</title>
<g id="a_Node000086"><a xlink:href="external_8c.html#aa00f6fbb1195ee18da20e61bd6ef5d97" target="_top" xlink:title=" ">
<polygon fill="#fff0f0" stroke="red" points="414.5,-548 322.5,-548 322.5,-529 414.5,-529 414.5,-548"/>
<text text-anchor="middle" x="368.5" y="-536" font-family="Helvetica,sans-Serif" font-size="10.00">func_800CB064</text>
</a>
</g>
</g>
<!-- Node33&#45;&gt;Node86 -->
<g id="edge36_Node000033_Node000086" class="edge">
<title>Node33&#45;&gt;Node86</title>
<g id="a_edge36_Node000033_Node000086"><a xlink:title=" ">
<path fill="none" stroke="#63b8ff" d="M506.87,-596.45C490.97,-583.88 467.26,-566.84 444,-556.5 434.88,-552.45 424.71,-549.23 414.89,-546.69"/>
<polygon fill="#63b8ff" stroke="#63b8ff" points="504.87,-599.34 514.85,-602.91 509.27,-593.9 504.87,-599.34"/>
</a>
</g>
</g>
<!-- Node62 -->
<g id="Node000062" class="node">
<title>Node62</title>
<g id="a_Node000062"><a xlink:href="update__objects_8c.html#a5a5fc982b29c525f677dd566bfca038e" target="_top" xlink:title=" ">
<polygon fill="#fff0f0" stroke="red" points="428,-510.5 309,-510.5 309,-480.5 428,-480.5 428,-510.5"/>
<text text-anchor="start" x="317" y="-498.5" font-family="Helvetica,sans-Serif" font-size="10.00">update_object_lakitu</text>
<text text-anchor="middle" x="368.5" y="-487.5" font-family="Helvetica,sans-Serif" font-size="10.00">_fishing</text>
</a>
</g>
</g>
<!-- Node33&#45;&gt;Node62 -->
<g id="edge37_Node000033_Node000062" class="edge">
<title>Node33&#45;&gt;Node62</title>
<g id="a_edge37_Node000033_Node000062"><a xlink:title=" ">
<path fill="none" stroke="#63b8ff" d="M514.38,-594.2C500.18,-573.27 474.29,-539.34 444,-519.5 438.77,-516.07 433.02,-513.11 427.09,-510.54"/>
<polygon fill="#63b8ff" stroke="#63b8ff" points="511.62,-596.38 520.05,-602.8 517.47,-592.53 511.62,-596.38"/>
</a>
</g>
</g>
<!-- Node63 -->
<g id="Node000063" class="node">
<title>Node63</title>
<g id="a_Node000063"><a xlink:href="update__objects_8c.html#a262b63dd3d6008cb2452a627c310c4a7" target="_top" xlink:title=" ">
<polygon fill="#fff0f0" stroke="red" points="428,-462.5 309,-462.5 309,-432.5 428,-432.5 428,-462.5"/>
<text text-anchor="start" x="317" y="-450.5" font-family="Helvetica,sans-Serif" font-size="10.00">update_object_lakitu</text>
<text text-anchor="middle" x="368.5" y="-439.5" font-family="Helvetica,sans-Serif" font-size="10.00">_fishing2</text>
</a>
</g>
</g>
<!-- Node33&#45;&gt;Node63 -->
<g id="edge38_Node000033_Node000063" class="edge">
<title>Node33&#45;&gt;Node63</title>
<g id="a_edge38_Node000033_Node000063"><a xlink:title=" ">
<path fill="none" stroke="#63b8ff" d="M519.73,-592.8C509.05,-562.38 484.47,-504.08 444,-471.5 439.24,-467.67 433.85,-464.44 428.2,-461.72"/>
<polygon fill="#63b8ff" stroke="#63b8ff" points="516.53,-594.29 523.04,-602.65 523.17,-592.06 516.53,-594.29"/>
</a>
</g>
</g>
<!-- Node58 -->
<g id="Node000058" class="node">
<title>Node58</title>
<g id="a_Node000058"><a xlink:href="update__objects_8c.html#ad11800c1ce772be2b43f56f32ce498f8" target="_top" xlink:title=" ">
<polygon fill="#fff0f0" stroke="red" points="428,-414.5 309,-414.5 309,-384.5 428,-384.5 428,-414.5"/>
<text text-anchor="start" x="317" y="-402.5" font-family="Helvetica,sans-Serif" font-size="10.00">update_object_lakitu</text>
<text text-anchor="middle" x="368.5" y="-391.5" font-family="Helvetica,sans-Serif" font-size="10.00">_reverse</text>
</a>
</g>
</g>
<!-- Node33&#45;&gt;Node58 -->
<g id="edge39_Node000033_Node000058" class="edge">
<title>Node33&#45;&gt;Node58</title>
<g id="a_edge39_Node000033_Node000058"><a xlink:title=" ">
<path fill="none" stroke="#63b8ff" d="M522.93,-592.73C515.96,-554.5 495.37,-470.08 444,-423.5 439.37,-419.3 434,-415.84 428.3,-412.98"/>
<polygon fill="#63b8ff" stroke="#63b8ff" points="519.49,-593.35 524.61,-602.63 526.39,-592.18 519.49,-593.35"/>
</a>
</g>
</g>
<!-- Node71&#45;&gt;Node4 -->
<g id="edge29_Node000071_Node000004" class="edge">
<title>Node71&#45;&gt;Node4</title>
<g id="a_edge29_Node000071_Node000004"><a xlink:title=" ">
<path fill="none" stroke="#63b8ff" d="M312.55,-619.67C305.48,-622.28 298.72,-625.79 293,-630.5 234.54,-678.6 214.17,-775.42 208.98,-806.59"/>
<polygon fill="#63b8ff" stroke="#63b8ff" points="313.81,-622.94 322.32,-616.63 311.74,-616.26 313.81,-622.94"/>
</a>
</g>
</g>
<!-- Node72&#45;&gt;Node4 -->
<g id="edge32_Node000072_Node000004" class="edge">
<title>Node72&#45;&gt;Node4</title>
<g id="a_edge32_Node000072_Node000004"><a xlink:title=" ">
<path fill="none" stroke="#63b8ff" d="M312.03,-804.09C292.96,-806.35 271.83,-808.86 253.59,-811.03"/>
<polygon fill="#63b8ff" stroke="#63b8ff" points="312.56,-807.55 322.08,-802.89 311.74,-800.6 312.56,-807.55"/>
</a>
</g>
</g>
<!-- Node74 -->
<g id="Node000074" class="node">
<title>Node74</title>
<g id="a_Node000074"><a xlink:href="effects_8c.html#ab044d6f7bf1cacf740cf0a27ea0902b5" target="_top" xlink:title=" ">
<polygon fill="#fff0f0" stroke="red" points="257,-152 156,-152 156,-133 257,-133 257,-152"/>
<text text-anchor="middle" x="206.5" y="-140" font-family="Helvetica,sans-Serif" font-size="10.00">apply_star_effect</text>
</a>
</g>
</g>
<!-- Node73&#45;&gt;Node74 -->
<g id="edge34_Node000073_Node000074" class="edge">
<title>Node73&#45;&gt;Node74</title>
<g id="a_edge34_Node000073_Node000074"><a xlink:title=" ">
<path fill="none" stroke="#63b8ff" d="M312.65,-569.62C305.2,-566.66 298.31,-562.45 293,-556.5 253.59,-512.31 270.33,-350.19 257,-292.5 244.46,-238.26 220.68,-175.72 211.37,-152.15"/>
<polygon fill="#63b8ff" stroke="#63b8ff" points="311.7,-572.99 322.29,-572.73 313.85,-566.33 311.7,-572.99"/>
</a>
</g>
</g>
<!-- Node75 -->
<g id="Node000075" class="node">
<title>Node75</title>
<g id="a_Node000075"><a xlink:href="effects_8c.html#ae1bacd987d7f12fc5960f838a7dbe137" target="_top" xlink:title=" ">
<polygon fill="#fff0f0" stroke="red" points="252.5,-321 160.5,-321 160.5,-302 252.5,-302 252.5,-321"/>
<text text-anchor="middle" x="206.5" y="-309" font-family="Helvetica,sans-Serif" font-size="10.00">func_8008F86C</text>
</a>
</g>
</g>
<!-- Node73&#45;&gt;Node75 -->
<g id="edge35_Node000073_Node000075" class="edge">
<title>Node73&#45;&gt;Node75</title>
<g id="a_edge35_Node000073_Node000075"><a xlink:title=" ">
<path fill="none" stroke="#63b8ff" d="M312.36,-568.14C305.26,-565.36 298.54,-561.59 293,-556.5 220.3,-489.8 209.41,-357.92 207.79,-321.19"/>
<polygon fill="#63b8ff" stroke="#63b8ff" points="311.62,-571.58 322.21,-571.35 313.79,-564.92 311.62,-571.58"/>
</a>
</g>
</g>
<!-- Node89&#45;&gt;Node3 -->
<g id="edge44_Node000089_Node000003" class="edge">
<title>Node89&#45;&gt;Node3</title>
<g id="a_edge44_Node000089_Node000003"><a xlink:title=" ">
<path fill="none" stroke="#63b8ff" d="M496.19,-811.77C490.68,-814.77 485.06,-818.07 480,-821.5 462.52,-833.35 462.73,-842.74 444,-852.5 435,-857.19 424.78,-860.77 414.86,-863.48"/>
<polygon fill="#63b8ff" stroke="#63b8ff" points="498.01,-814.77 505.27,-807.04 494.78,-808.56 498.01,-814.77"/>
</a>
</g>
</g>
<!-- Node89&#45;&gt;Node8 -->
<g id="edge41_Node000089_Node000008" class="edge">
<title>Node89&#45;&gt;Node8</title>
<g id="a_edge41_Node000089_Node000008"><a xlink:title=" ">
<path fill="none" stroke="#63b8ff" d="M510.53,-814.66C501.07,-825.6 489.1,-840.35 480,-854.5 460.65,-884.6 471.85,-904.05 444,-926.5 435.58,-933.29 425.03,-937.68 414.54,-940.51"/>
<polygon fill="#63b8ff" stroke="#63b8ff" points="513.2,-816.92 517.17,-807.1 507.94,-812.3 513.2,-816.92"/>
</a>
</g>
</g>
<!-- Node89&#45;&gt;Node72 -->
<g id="edge45_Node000089_Node000072" class="edge">
<title>Node89&#45;&gt;Node72</title>
<g id="a_edge45_Node000089_Node000072"><a xlink:title=" ">
<path fill="none" stroke="#63b8ff" d="M470.5,-797.5C452.2,-797.5 432.09,-797.5 414.66,-797.5"/>
<polygon fill="#63b8ff" stroke="#63b8ff" points="470.73,-801 480.73,-797.5 470.73,-794 470.73,-801"/>
</a>
</g>
</g>
<!-- Node90 -->
<g id="Node000090" class="node">
<title>Node90</title>
<g id="a_Node000090"><a xlink:href="external_8c.html#a9d558c81c8735c602351fbcdb517f632" target="_top" xlink:title=" ">
<polygon fill="white" stroke="#666666" points="415,-844 322,-844 322,-825 415,-825 415,-844"/>
<text text-anchor="middle" x="368.5" y="-832" font-family="Helvetica,sans-Serif" font-size="10.00">func_800C5D04</text>
</a>
</g>
</g>
<!-- Node89&#45;&gt;Node90 -->
<g id="edge42_Node000089_Node000090" class="edge">
<title>Node89&#45;&gt;Node90</title>
<g id="a_edge42_Node000089_Node000090"><a xlink:title=" ">
<path fill="none" stroke="#63b8ff" d="M475.85,-809.36C454.55,-814.39 430.05,-820.18 409.94,-824.94"/>
<polygon fill="#63b8ff" stroke="#63b8ff" points="476.77,-812.74 485.7,-807.03 475.16,-805.92 476.77,-812.74"/>
</a>
</g>
</g>
<!-- Node90&#45;&gt;Node4 -->
<g id="edge43_Node000090_Node000004" class="edge">
<title>Node90&#45;&gt;Node4</title>
<g id="a_edge43_Node000090_Node000004"><a xlink:title=" ">
<path fill="none" stroke="#63b8ff" d="M311.65,-828.22C292.7,-826.08 271.74,-823.73 253.63,-821.69"/>
<polygon fill="#63b8ff" stroke="#63b8ff" points="311.32,-831.7 321.65,-829.34 312.1,-824.75 311.32,-831.7"/>
</a>
</g>
</g>
<!-- Node92 -->
<g id="Node000092" class="node">
<title>Node92</title>
<g id="a_Node000092"><a xlink:href="actors_8c.html#ad5a56c8f7eaf719223099cce9e38ec9f" target="_top" xlink:title=" ">
<polygon fill="#fff0f0" stroke="red" points="444,-366 293,-366 293,-347 444,-347 444,-366"/>
<text text-anchor="middle" x="368.5" y="-354" font-family="Helvetica,sans-Serif" font-size="10.00">play_sound_before_destroy</text>
</a>
</g>
</g>
<!-- Node91&#45;&gt;Node92 -->
<g id="edge47_Node000091_Node000092" class="edge">
<title>Node91&#45;&gt;Node92</title>
<g id="a_edge47_Node000091_Node000092"><a xlink:title=" ">
<path fill="none" stroke="#63b8ff" d="M470.53,-356.5C461.98,-356.5 453.03,-356.5 444.15,-356.5"/>
<polygon fill="#63b8ff" stroke="#63b8ff" points="470.73,-360 480.73,-356.5 470.73,-353 470.73,-360"/>
</a>
</g>
</g>
<!-- Node134 -->
<g id="Node000134" class="node">
<title>Node134</title>
<g id="a_Node000134"><a xlink:href="actors_8c.html#ac982a8bcccb803176dbf057d48a0fa32" target="_top" xlink:title=" ">
<polygon fill="#fff0f0" stroke="red" points="407.5,-329 329.5,-329 329.5,-310 407.5,-310 407.5,-329"/>
<text text-anchor="middle" x="368.5" y="-317" font-family="Helvetica,sans-Serif" font-size="10.00">render_cows</text>
</a>
</g>
</g>
<!-- Node91&#45;&gt;Node134 -->
<g id="edge48_Node000091_Node000134" class="edge">
<title>Node91&#45;&gt;Node134</title>
<g id="a_edge48_Node000091_Node000134"><a xlink:title=" ">
<path fill="none" stroke="#63b8ff" d="M475.79,-344.63C453.64,-339.39 428.04,-333.34 407.51,-328.49"/>
<polygon fill="#63b8ff" stroke="#63b8ff" points="475.16,-348.08 485.7,-346.97 476.77,-341.26 475.16,-348.08"/>
</a>
</g>
</g>
<!-- Node147 -->
<g id="Node000147" class="node">
<title>Node147</title>
<g id="a_Node000147"><a xlink:href="actors_8c.html#a53268aa601911d56424ff08fb3395bcb" target="_top" xlink:title=" ">
<polygon fill="#fff0f0" stroke="red" points="428,-217.5 309,-217.5 309,-187.5 428,-187.5 428,-217.5"/>
<text text-anchor="start" x="317" y="-205.5" font-family="Helvetica,sans-Serif" font-size="10.00">destroy_destructable</text>
<text text-anchor="middle" x="368.5" y="-194.5" font-family="Helvetica,sans-Serif" font-size="10.00">_actor</text>
</a>
</g>
</g>
<!-- Node146&#45;&gt;Node147 -->
<g id="edge50_Node000146_Node000147" class="edge">
<title>Node146&#45;&gt;Node147</title>
<g id="a_edge50_Node000146_Node000147"><a xlink:title=" ">
<path fill="none" stroke="#63b8ff" d="M470.46,-202.5C456.72,-202.5 441.96,-202.5 428.08,-202.5"/>
<polygon fill="#63b8ff" stroke="#63b8ff" points="470.73,-206 480.73,-202.5 470.73,-199 470.73,-206"/>
</a>
</g>
</g>
<!-- Node154 -->
<g id="Node000154" class="node">
<title>Node154</title>
<g id="a_Node000154"><a xlink:href="code__80005FD0_8c.html#aacd735985e2a36a6443fdf5d57fa54c4" target="_top" xlink:title=" ">
<polygon fill="#fff0f0" stroke="red" points="414.5,-169 322.5,-169 322.5,-150 414.5,-150 414.5,-169"/>
<text text-anchor="middle" x="368.5" y="-157" font-family="Helvetica,sans-Serif" font-size="10.00">func_80013F7C</text>
</a>
</g>
</g>
<!-- Node146&#45;&gt;Node154 -->
<g id="edge51_Node000146_Node000154" class="edge">
<title>Node146&#45;&gt;Node154</title>
<g id="a_edge51_Node000146_Node000154"><a xlink:title=" ">
<path fill="none" stroke="#63b8ff" d="M484.55,-190.06C471.59,-186.26 457.22,-182.12 444,-178.5 432.28,-175.29 419.48,-171.96 407.85,-169.01"/>
<polygon fill="#63b8ff" stroke="#63b8ff" points="483.56,-193.42 494.14,-192.89 485.54,-186.71 483.56,-193.42"/>
</a>
</g>
</g>
<!-- Node159 -->
<g id="Node000159" class="node">
<title>Node159</title>
<g id="a_Node000159"><a xlink:href="update__objects_8c.html#a401992e1c9638d1a48190456bd7af9a3" target="_top" xlink:title=" ">
<polygon fill="#fff0f0" stroke="red" points="414.5,-132 322.5,-132 322.5,-113 414.5,-113 414.5,-132"/>
<text text-anchor="middle" x="368.5" y="-120" font-family="Helvetica,sans-Serif" font-size="10.00">func_8007601C</text>
</a>
</g>
</g>
<!-- Node146&#45;&gt;Node159 -->
<g id="edge52_Node000146_Node000159" class="edge">
<title>Node146&#45;&gt;Node159</title>
<g id="a_edge52_Node000146_Node000159"><a xlink:title=" ">
<path fill="none" stroke="#63b8ff" d="M508.5,-185.83C492.79,-171.76 468.5,-152.1 444,-140.5 434.86,-136.17 424.58,-132.83 414.64,-130.26"/>
<polygon fill="#63b8ff" stroke="#63b8ff" points="506.55,-188.8 516.29,-192.99 511.29,-183.64 506.55,-188.8"/>
</a>
</g>
</g>
<!-- Node162 -->
<g id="Node000162" class="node">
<title>Node162</title>
<g id="a_Node000162"><a xlink:href="update__objects_8c.html#a269298ce38d852af33c677ae12781528" target="_top" xlink:title=" ">
<polygon fill="#fff0f0" stroke="red" points="414.5,-95 322.5,-95 322.5,-76 414.5,-76 414.5,-95"/>
<text text-anchor="middle" x="368.5" y="-83" font-family="Helvetica,sans-Serif" font-size="10.00">func_8007661C</text>
</a>
</g>
</g>
<!-- Node146&#45;&gt;Node162 -->
<g id="edge53_Node000146_Node000162" class="edge">
<title>Node146&#45;&gt;Node162</title>
<g id="a_edge53_Node000146_Node000162"><a xlink:title=" ">
<path fill="none" stroke="#63b8ff" d="M508.79,-185.79C499.86,-176.81 488.97,-165.38 480,-154.5 462.35,-133.09 466.95,-119.09 444,-103.5 435.3,-97.59 424.88,-93.62 414.62,-90.95"/>
<polygon fill="#63b8ff" stroke="#63b8ff" points="506.47,-188.42 516.04,-192.97 511.4,-183.45 506.47,-188.42"/>
</a>
</g>
</g>
<!-- Node163 -->
<g id="Node000163" class="node">
<title>Node163</title>
<g id="a_Node000163"><a xlink:href="update__objects_8c.html#aee48f5ac3342922cbf8cd98976679dad" target="_top" xlink:title=" ">
<polygon fill="#fff0f0" stroke="red" points="416,-292 321,-292 321,-273 416,-273 416,-292"/>
<text text-anchor="middle" x="368.5" y="-280" font-family="Helvetica,sans-Serif" font-size="10.00">func_8007DDC0</text>
</a>
</g>
</g>
<!-- Node146&#45;&gt;Node163 -->
<g id="edge54_Node000146_Node000163" class="edge">
<title>Node146&#45;&gt;Node163</title>
<g id="a_edge54_Node000146_Node000163"><a xlink:title=" ">
<path fill="none" stroke="#63b8ff" d="M507.88,-219.27C492.11,-233.03 468.06,-252.04 444,-263.5 435.32,-267.63 425.64,-270.95 416.19,-273.57"/>
<polygon fill="#63b8ff" stroke="#63b8ff" points="510.62,-221.53 515.74,-212.25 505.95,-216.31 510.62,-221.53"/>
</a>
</g>
</g>
<!-- Node165 -->
<g id="Node000165" class="node">
<title>Node165</title>
<g id="a_Node000165"><a xlink:href="update__objects_8c.html#a6c7938339fa5406ffe336278a92aa7ad" target="_top" xlink:title=" ">
<polygon fill="#fff0f0" stroke="red" points="414,-255 323,-255 323,-236 414,-236 414,-255"/>
<text text-anchor="middle" x="368.5" y="-243" font-family="Helvetica,sans-Serif" font-size="10.00">func_8007E1F4</text>
</a>
</g>
</g>
<!-- Node146&#45;&gt;Node165 -->
<g id="edge55_Node000146_Node000165" class="edge">
<title>Node146&#45;&gt;Node165</title>
<g id="a_edge55_Node000146_Node000165"><a xlink:title=" ">
<path fill="none" stroke="#63b8ff" d="M484.55,-214.94C471.59,-218.74 457.22,-222.88 444,-226.5 432.28,-229.71 419.48,-233.04 407.85,-235.99"/>
<polygon fill="#63b8ff" stroke="#63b8ff" points="485.54,-218.29 494.14,-212.11 483.56,-211.58 485.54,-218.29"/>
</a>
</g>
</g>
<!-- Node167&#45;&gt;Node74 -->
<g id="edge57_Node000167_Node000074" class="edge">
<title>Node167&#45;&gt;Node74</title>
<g id="a_edge57_Node000167_Node000074"><a xlink:title=" ">
<path fill="none" stroke="#63b8ff" d="M313.18,-22.75C306.07,-25.68 299.13,-29.23 293,-33.5 253.73,-60.86 223.85,-111.55 212.49,-132.76"/>
<polygon fill="#63b8ff" stroke="#63b8ff" points="314.78,-25.89 322.93,-19.12 312.33,-19.33 314.78,-25.89"/>
</a>
</g>
</g>
<!-- Node167&#45;&gt;Node75 -->
<g id="edge58_Node000167_Node000075" class="edge">
<title>Node167&#45;&gt;Node75</title>
<g id="a_edge58_Node000167_Node000075"><a xlink:title=" ">
<path fill="none" stroke="#63b8ff" d="M311.44,-20.71C304.59,-23.95 298.19,-28.12 293,-33.5 252.26,-75.71 274.14,-104.39 257,-160.5 240.64,-214.06 219.1,-277.63 210.88,-301.65"/>
<polygon fill="#63b8ff" stroke="#63b8ff" points="313.03,-23.84 320.98,-16.84 310.4,-17.35 313.03,-23.84"/>
</a>
</g>
</g>
<!-- Node169 -->
<g id="Node000169" class="node">
<title>Node169</title>
<g id="a_Node000169"><a xlink:href="external_8c.html#acc8bf31951751f8c1884eb37d49f4fbd" target="_top" xlink:title=" ">
<polygon fill="white" stroke="#666666" points="573.5,-1033 480.5,-1033 480.5,-1014 573.5,-1014 573.5,-1033"/>
<text text-anchor="middle" x="527" y="-1021" font-family="Helvetica,sans-Serif" font-size="10.00">func_800CAC08</text>
</a>
</g>
</g>
<!-- Node168&#45;&gt;Node169 -->
<g id="edge60_Node000168_Node000169" class="edge">
<title>Node168&#45;&gt;Node169</title>
<g id="a_edge60_Node000168_Node000169"><a xlink:title=" ">
<path fill="none" stroke="#63b8ff" d="M612.69,-998.83C595.87,-1003.73 576.81,-1009.28 561.04,-1013.88"/>
<polygon fill="#63b8ff" stroke="#63b8ff" points="613.67,-1002.19 622.29,-996.03 611.71,-995.47 613.67,-1002.19"/>
</a>
</g>
</g>
<!-- Node171 -->
<g id="Node000171" class="node">
<title>Node171</title>
<g id="a_Node000171"><a xlink:href="external_8c.html#a136efe63ecddf15d836c739c28cbfe41" target="_top" xlink:title=" ">
<polygon fill="white" stroke="#666666" points="574,-996 480,-996 480,-977 574,-977 574,-996"/>
<text text-anchor="middle" x="527" y="-984" font-family="Helvetica,sans-Serif" font-size="10.00">func_800CAD40</text>
</a>
</g>
</g>
<!-- Node168&#45;&gt;Node171 -->
<g id="edge63_Node000168_Node000171" class="edge">
<title>Node168&#45;&gt;Node171</title>
<g id="a_edge63_Node000168_Node000171"><a xlink:title=" ">
<path fill="none" stroke="#63b8ff" d="M599.67,-986.5C591.2,-986.5 582.53,-986.5 574.27,-986.5"/>
<polygon fill="#63b8ff" stroke="#63b8ff" points="599.87,-990 609.87,-986.5 599.87,-983 599.87,-990"/>
</a>
</g>
</g>
<!-- Node170 -->
<g id="Node000170" class="node">
<title>Node170</title>
<g id="a_Node000170"><a xlink:href="external_8c.html#ab244f7b0fefaa03321288d8a1b265452" target="_top" xlink:title=" ">
<polygon fill="white" stroke="#666666" points="414.5,-918 322.5,-918 322.5,-899 414.5,-899 414.5,-918"/>
<text text-anchor="middle" x="368.5" y="-906" font-family="Helvetica,sans-Serif" font-size="10.00">func_800C8920</text>
</a>
</g>
</g>
<!-- Node169&#45;&gt;Node170 -->
<g id="edge61_Node000169_Node000170" class="edge">
<title>Node169&#45;&gt;Node170</title>
<g id="a_edge61_Node000169_Node000170"><a xlink:title=" ">
<path fill="none" stroke="#63b8ff" d="M485.25,-1008.82C483.39,-1007.49 481.62,-1006.06 480,-1004.5 452.46,-978.06 473.5,-950.74 444,-926.5 435.67,-919.66 425.16,-915.34 414.67,-912.64"/>
<polygon fill="#63b8ff" stroke="#63b8ff" points="483.53,-1011.86 493.92,-1013.93 487.09,-1005.83 483.53,-1011.86"/>
</a>
</g>
</g>
<!-- Node170&#45;&gt;Node4 -->
<g id="edge62_Node000170_Node000004" class="edge">
<title>Node170&#45;&gt;Node4</title>
<g id="a_edge62_Node000170_Node000004"><a xlink:title=" ">
<path fill="none" stroke="#63b8ff" d="M312.34,-897.5C305.65,-895.28 299.05,-892.64 293,-889.5 260.77,-872.79 230.24,-841.83 215.95,-826.14"/>
<polygon fill="#63b8ff" stroke="#63b8ff" points="311.57,-900.92 322.16,-900.45 313.59,-894.22 311.57,-900.92"/>
</a>
</g>
</g>
</g>
</svg>
