<?xml version="1.0" encoding="UTF-8" standalone="no"?>
<!DOCTYPE svg PUBLIC "-//W3C//DTD SVG 1.1//EN"
 "http://www.w3.org/Graphics/SVG/1.1/DTD/svg11.dtd">
<!-- Generated by graphviz version 2.43.0 (0)
 -->
<!-- Title: src/audio/external.h Pages: 1 -->
<svg width="2391pt" height="93pt"
 viewBox="0.00 0.00 2391.00 93.00" xmlns="http://www.w3.org/2000/svg" xmlns:xlink="http://www.w3.org/1999/xlink">
<g id="graph0" class="graph" transform="scale(1 1) rotate(0) translate(4 89)">
<title>src/audio/external.h</title>
<!-- Node1 -->
<g id="Node000001" class="node">
<title>Node1</title>
<g id="a_Node000001"><a xlink:title=" ">
<polygon fill="#999999" stroke="#666666" points="1275,-85 1162,-85 1162,-66 1275,-66 1275,-85"/>
<text text-anchor="middle" x="1218.5" y="-73" font-family="Helvetica,sans-Serif" font-size="10.00">src/audio/external.h</text>
</a>
</g>
</g>
<!-- Node2 -->
<g id="Node000002" class="node">
<title>Node2</title>
<g id="a_Node000002"><a xlink:href="external_8c.html" target="_top" xlink:title=" ">
<polygon fill="white" stroke="#666666" points="113,-24.5 0,-24.5 0,-5.5 113,-5.5 113,-24.5"/>
<text text-anchor="middle" x="56.5" y="-12.5" font-family="Helvetica,sans-Serif" font-size="10.00">src/audio/external.c</text>
</a>
</g>
</g>
<!-- Node1&#45;&gt;Node2 -->
<g id="edge1_Node000001_Node000002" class="edge">
<title>Node1&#45;&gt;Node2</title>
<g id="a_edge1_Node000001_Node000002"><a xlink:title=" ">
<path fill="none" stroke="#63b8ff" d="M1151.82,-73.27C946.12,-69.23 323.3,-55.19 122.5,-30 112.27,-28.72 101.28,-26.66 91.25,-24.52"/>
<polygon fill="#63b8ff" stroke="#63b8ff" points="1151.81,-76.77 1161.87,-73.46 1151.94,-69.77 1151.81,-76.77"/>
</a>
</g>
</g>
<!-- Node3 -->
<g id="Node000003" class="node">
<title>Node3</title>
<g id="a_Node000003"><a xlink:href="playback_8c.html" target="_top" xlink:title=" ">
<polygon fill="white" stroke="#666666" points="247.5,-24.5 131.5,-24.5 131.5,-5.5 247.5,-5.5 247.5,-24.5"/>
<text text-anchor="middle" x="189.5" y="-12.5" font-family="Helvetica,sans-Serif" font-size="10.00">src/audio/playback.c</text>
</a>
</g>
</g>
<!-- Node1&#45;&gt;Node3 -->
<g id="edge2_Node000001_Node000003" class="edge">
<title>Node1&#45;&gt;Node3</title>
<g id="a_edge2_Node000001_Node000003"><a xlink:title=" ">
<path fill="none" stroke="#63b8ff" d="M1151.41,-75.07C994.29,-75.61 590.51,-72.35 256.5,-30 246.24,-28.7 235.22,-26.67 225.14,-24.55"/>
<polygon fill="#63b8ff" stroke="#63b8ff" points="1151.86,-78.57 1161.85,-75.03 1151.83,-71.57 1151.86,-78.57"/>
</a>
</g>
</g>
<!-- Node4 -->
<g id="Node000004" class="node">
<title>Node4</title>
<g id="a_Node000004"><a xlink:href="seqplayer_8c.html" target="_top" xlink:title=" ">
<polygon fill="white" stroke="#666666" points="385,-24.5 266,-24.5 266,-5.5 385,-5.5 385,-24.5"/>
<text text-anchor="middle" x="325.5" y="-12.5" font-family="Helvetica,sans-Serif" font-size="10.00">src/audio/seqplayer.c</text>
</a>
</g>
</g>
<!-- Node1&#45;&gt;Node4 -->
<g id="edge3_Node000001_Node000004" class="edge">
<title>Node1&#45;&gt;Node4</title>
<g id="a_edge3_Node000001_Node000004"><a xlink:title=" ">
<path fill="none" stroke="#63b8ff" d="M1151.52,-74.26C1010.62,-73.03 673.49,-66.17 393.5,-30 383.22,-28.67 372.17,-26.66 362.03,-24.56"/>
<polygon fill="#63b8ff" stroke="#63b8ff" points="1151.69,-77.77 1161.72,-74.35 1151.75,-70.77 1151.69,-77.77"/>
</a>
</g>
</g>
<!-- Node5 -->
<g id="Node000005" class="node">
<title>Node5</title>
<g id="a_Node000005"><a xlink:href="code__800029B0_8c.html" target="_top" xlink:title=" ">
<polygon fill="white" stroke="#666666" points="522,-24.5 403,-24.5 403,-5.5 522,-5.5 522,-24.5"/>
<text text-anchor="middle" x="462.5" y="-12.5" font-family="Helvetica,sans-Serif" font-size="10.00">src/code_800029B0.c</text>
</a>
</g>
</g>
<!-- Node1&#45;&gt;Node5 -->
<g id="edge4_Node000001_Node000005" class="edge">
<title>Node1&#45;&gt;Node5</title>
<g id="a_edge4_Node000001_Node000005"><a xlink:title=" ">
<path fill="none" stroke="#63b8ff" d="M1151.66,-73.17C1028.5,-70.07 757.65,-60.13 531.5,-30 521.2,-28.63 510.13,-26.62 499.95,-24.56"/>
<polygon fill="#63b8ff" stroke="#63b8ff" points="1151.61,-76.67 1161.69,-73.42 1151.78,-69.68 1151.61,-76.67"/>
</a>
</g>
</g>
<!-- Node6 -->
<g id="Node000006" class="node">
<title>Node6</title>
<g id="a_Node000006"><a xlink:href="code__80005FD0_8c.html" target="_top" xlink:title=" ">
<polygon fill="white" stroke="#666666" points="660.5,-24.5 540.5,-24.5 540.5,-5.5 660.5,-5.5 660.5,-24.5"/>
<text text-anchor="middle" x="600.5" y="-12.5" font-family="Helvetica,sans-Serif" font-size="10.00">src/code_80005FD0.c</text>
</a>
</g>
</g>
<!-- Node1&#45;&gt;Node6 -->
<g id="edge5_Node000001_Node000006" class="edge">
<title>Node1&#45;&gt;Node6</title>
<g id="a_edge5_Node000001_Node000006"><a xlink:title=" ">
<path fill="none" stroke="#63b8ff" d="M1151.74,-71.66C1048.11,-66.67 842.45,-54.47 669.5,-30 659.33,-28.56 648.41,-26.56 638.32,-24.52"/>
<polygon fill="#63b8ff" stroke="#63b8ff" points="1151.59,-75.16 1161.75,-72.13 1151.92,-68.17 1151.59,-75.16"/>
</a>
</g>
</g>
<!-- Node7 -->
<g id="Node000007" class="node">
<title>Node7</title>
<g id="a_Node000007"><a xlink:href="code__80057C60_8c.html" target="_top" xlink:title=" ">
<polygon fill="white" stroke="#666666" points="798,-24.5 679,-24.5 679,-5.5 798,-5.5 798,-24.5"/>
<text text-anchor="middle" x="738.5" y="-12.5" font-family="Helvetica,sans-Serif" font-size="10.00">src/code_80057C60.c</text>
</a>
</g>
</g>
<!-- Node1&#45;&gt;Node7 -->
<g id="edge6_Node000001_Node000007" class="edge">
<title>Node1&#45;&gt;Node7</title>
<g id="a_edge6_Node000001_Node000007"><a xlink:title=" ">
<path fill="none" stroke="#63b8ff" d="M1151.82,-69.27C1070.14,-62.41 927.66,-48.97 806.5,-30 796.85,-28.49 786.51,-26.53 776.86,-24.56"/>
<polygon fill="#63b8ff" stroke="#63b8ff" points="1151.71,-72.77 1161.96,-70.11 1152.29,-65.8 1151.71,-72.77"/>
</a>
</g>
</g>
<!-- Node8 -->
<g id="Node000008" class="node">
<title>Node8</title>
<g id="a_Node000008"><a xlink:href="code__8006E9C0_8c.html" target="_top" xlink:title=" ">
<polygon fill="white" stroke="#666666" points="935,-24.5 816,-24.5 816,-5.5 935,-5.5 935,-24.5"/>
<text text-anchor="middle" x="875.5" y="-12.5" font-family="Helvetica,sans-Serif" font-size="10.00">src/code_8006E9C0.c</text>
</a>
</g>
</g>
<!-- Node1&#45;&gt;Node8 -->
<g id="edge7_Node000001_Node000008" class="edge">
<title>Node1&#45;&gt;Node8</title>
<g id="a_edge7_Node000001_Node000008"><a xlink:title=" ">
<path fill="none" stroke="#63b8ff" d="M1151.65,-64.5C1095.88,-55.96 1014.37,-43.02 943.5,-30 934.37,-28.32 924.58,-26.39 915.36,-24.5"/>
<polygon fill="#63b8ff" stroke="#63b8ff" points="1151.35,-67.99 1161.76,-66.04 1152.4,-61.07 1151.35,-67.99"/>
</a>
</g>
</g>
<!-- Node9 -->
<g id="Node000009" class="node">
<title>Node9</title>
<g id="a_Node000009"><a xlink:href="code__80071F00_8c.html" target="_top" xlink:title=" ">
<polygon fill="white" stroke="#666666" points="1072,-24.5 953,-24.5 953,-5.5 1072,-5.5 1072,-24.5"/>
<text text-anchor="middle" x="1012.5" y="-12.5" font-family="Helvetica,sans-Serif" font-size="10.00">src/code_80071F00.c</text>
</a>
</g>
</g>
<!-- Node1&#45;&gt;Node9 -->
<g id="edge8_Node000001_Node000009" class="edge">
<title>Node1&#45;&gt;Node9</title>
<g id="a_edge8_Node000001_Node000009"><a xlink:title=" ">
<path fill="none" stroke="#63b8ff" d="M1178.89,-63.25C1139.05,-51.94 1078.51,-34.75 1042.49,-24.52"/>
<polygon fill="#63b8ff" stroke="#63b8ff" points="1177.97,-66.63 1188.55,-65.99 1179.88,-59.89 1177.97,-66.63"/>
</a>
</g>
</g>
<!-- Node10 -->
<g id="Node000010" class="node">
<title>Node10</title>
<g id="a_Node000010"><a xlink:href="code__80086E70_8c.html" target="_top" xlink:title=" ">
<polygon fill="white" stroke="#666666" points="1209,-24.5 1090,-24.5 1090,-5.5 1209,-5.5 1209,-24.5"/>
<text text-anchor="middle" x="1149.5" y="-12.5" font-family="Helvetica,sans-Serif" font-size="10.00">src/code_80086E70.c</text>
</a>
</g>
</g>
<!-- Node1&#45;&gt;Node10 -->
<g id="edge9_Node000001_Node000010" class="edge">
<title>Node1&#45;&gt;Node10</title>
<g id="a_edge9_Node000001_Node000010"><a xlink:title=" ">
<path fill="none" stroke="#63b8ff" d="M1200.48,-59.22C1187.5,-48.21 1170.44,-33.75 1159.72,-24.67"/>
<polygon fill="#63b8ff" stroke="#63b8ff" points="1198.43,-62.07 1208.32,-65.87 1202.95,-56.73 1198.43,-62.07"/>
</a>
</g>
</g>
<!-- Node11 -->
<g id="Node000011" class="node">
<title>Node11</title>
<g id="a_Node000011"><a xlink:href="code__8008C1D0_8c.html" target="_top" xlink:title=" ">
<polygon fill="white" stroke="#666666" points="1348,-24.5 1227,-24.5 1227,-5.5 1348,-5.5 1348,-24.5"/>
<text text-anchor="middle" x="1287.5" y="-12.5" font-family="Helvetica,sans-Serif" font-size="10.00">src/code_8008C1D0.c</text>
</a>
</g>
</g>
<!-- Node1&#45;&gt;Node11 -->
<g id="edge10_Node000001_Node000011" class="edge">
<title>Node1&#45;&gt;Node11</title>
<g id="a_edge10_Node000001_Node000011"><a xlink:title=" ">
<path fill="none" stroke="#63b8ff" d="M1236.52,-59.22C1249.5,-48.21 1266.56,-33.75 1277.28,-24.67"/>
<polygon fill="#63b8ff" stroke="#63b8ff" points="1234.05,-56.73 1228.68,-65.87 1238.57,-62.07 1234.05,-56.73"/>
</a>
</g>
</g>
<!-- Node12 -->
<g id="Node000012" class="node">
<title>Node12</title>
<g id="a_Node000012"><a xlink:href="code__80091750_8c.html" target="_top" xlink:title=" ">
<polygon fill="white" stroke="#666666" points="1485,-24.5 1366,-24.5 1366,-5.5 1485,-5.5 1485,-24.5"/>
<text text-anchor="middle" x="1425.5" y="-12.5" font-family="Helvetica,sans-Serif" font-size="10.00">src/code_80091750.c</text>
</a>
</g>
</g>
<!-- Node1&#45;&gt;Node12 -->
<g id="edge11_Node000001_Node000012" class="edge">
<title>Node1&#45;&gt;Node12</title>
<g id="a_edge11_Node000001_Node000012"><a xlink:title=" ">
<path fill="none" stroke="#63b8ff" d="M1258.3,-63.25C1298.33,-51.94 1359.17,-34.75 1395.36,-24.52"/>
<polygon fill="#63b8ff" stroke="#63b8ff" points="1257.27,-59.91 1248.6,-65.99 1259.17,-66.64 1257.27,-59.91"/>
</a>
</g>
</g>
<!-- Node13 -->
<g id="Node000013" class="node">
<title>Node13</title>
<g id="a_Node000013"><a xlink:href="ceremony__and__credits_8c.html" target="_top" xlink:title=" ">
<polygon fill="white" stroke="#666666" points="1622,-30 1503,-30 1503,0 1622,0 1622,-30"/>
<text text-anchor="start" x="1511" y="-18" font-family="Helvetica,sans-Serif" font-size="10.00">src/ending/ceremony</text>
<text text-anchor="middle" x="1562.5" y="-7" font-family="Helvetica,sans-Serif" font-size="10.00">_and_credits.c</text>
</a>
</g>
</g>
<!-- Node1&#45;&gt;Node13 -->
<g id="edge12_Node000001_Node000013" class="edge">
<title>Node1&#45;&gt;Node13</title>
<g id="a_edge12_Node000001_Node000013"><a xlink:title=" ">
<path fill="none" stroke="#63b8ff" d="M1285.32,-64.55C1341.31,-56.02 1423.27,-43.07 1494.5,-30 1497.23,-29.5 1500.01,-28.98 1502.82,-28.44"/>
<polygon fill="#63b8ff" stroke="#63b8ff" points="1284.54,-61.13 1275.18,-66.09 1285.59,-68.05 1284.54,-61.13"/>
</a>
</g>
</g>
<!-- Node14 -->
<g id="Node000014" class="node">
<title>Node14</title>
<g id="a_Node000014"><a xlink:href="main_8c.html" target="_top" xlink:title=" ">
<polygon fill="white" stroke="#666666" points="1707,-24.5 1640,-24.5 1640,-5.5 1707,-5.5 1707,-24.5"/>
<text text-anchor="middle" x="1673.5" y="-12.5" font-family="Helvetica,sans-Serif" font-size="10.00">src/main.c</text>
</a>
</g>
</g>
<!-- Node1&#45;&gt;Node14 -->
<g id="edge13_Node000001_Node000014" class="edge">
<title>Node1&#45;&gt;Node14</title>
<g id="a_edge13_Node000001_Node000014"><a xlink:title=" ">
<path fill="none" stroke="#63b8ff" d="M1285.44,-71.7C1367.72,-67.25 1511.22,-56.21 1631.5,-30 1637.81,-28.63 1644.5,-26.65 1650.64,-24.61"/>
<polygon fill="#63b8ff" stroke="#63b8ff" points="1285.03,-68.22 1275.23,-72.24 1285.4,-75.21 1285.03,-68.22"/>
</a>
</g>
</g>
<!-- Node15 -->
<g id="Node000015" class="node">
<title>Node15</title>
<g id="a_Node000015"><a xlink:href="menus_8c.html" target="_top" xlink:title=" ">
<polygon fill="white" stroke="#666666" points="1800,-24.5 1725,-24.5 1725,-5.5 1800,-5.5 1800,-24.5"/>
<text text-anchor="middle" x="1762.5" y="-12.5" font-family="Helvetica,sans-Serif" font-size="10.00">src/menus.c</text>
</a>
</g>
</g>
<!-- Node1&#45;&gt;Node15 -->
<g id="edge14_Node000001_Node000015" class="edge">
<title>Node1&#45;&gt;Node15</title>
<g id="a_edge14_Node000001_Node000015"><a xlink:title=" ">
<path fill="none" stroke="#63b8ff" d="M1285.2,-72.9C1381.32,-69.62 1564,-59.69 1716.5,-30 1723.55,-28.63 1731.05,-26.6 1737.91,-24.51"/>
<polygon fill="#63b8ff" stroke="#63b8ff" points="1284.92,-69.41 1275.04,-73.24 1285.15,-76.41 1284.92,-69.41"/>
</a>
</g>
</g>
<!-- Node16 -->
<g id="Node000016" class="node">
<title>Node16</title>
<g id="a_Node000016"><a xlink:href="player__controller_8c.html" target="_top" xlink:title=" ">
<polygon fill="white" stroke="#666666" points="1941.5,-24.5 1817.5,-24.5 1817.5,-5.5 1941.5,-5.5 1941.5,-24.5"/>
<text text-anchor="middle" x="1879.5" y="-12.5" font-family="Helvetica,sans-Serif" font-size="10.00">src/player_controller.c</text>
</a>
</g>
</g>
<!-- Node1&#45;&gt;Node16 -->
<g id="edge15_Node000001_Node000016" class="edge">
<title>Node1&#45;&gt;Node16</title>
<g id="a_edge15_Node000001_Node000016"><a xlink:title=" ">
<path fill="none" stroke="#63b8ff" d="M1285.66,-72.12C1395.59,-67.62 1620.63,-55.9 1809.5,-30 1819.81,-28.59 1830.9,-26.59 1841.13,-24.55"/>
<polygon fill="#63b8ff" stroke="#63b8ff" points="1285.23,-68.63 1275.38,-72.53 1285.51,-75.63 1285.23,-68.63"/>
</a>
</g>
</g>
<!-- Node17 -->
<g id="Node000017" class="node">
<title>Node17</title>
<g id="a_Node000017"><a xlink:href="actors_8c.html" target="_top" xlink:title=" ">
<polygon fill="white" stroke="#666666" points="2065,-24.5 1960,-24.5 1960,-5.5 2065,-5.5 2065,-24.5"/>
<text text-anchor="middle" x="2012.5" y="-12.5" font-family="Helvetica,sans-Serif" font-size="10.00">src/racing/actors.c</text>
</a>
</g>
</g>
<!-- Node1&#45;&gt;Node17 -->
<g id="edge16_Node000001_Node000017" class="edge">
<title>Node1&#45;&gt;Node17</title>
<g id="a_edge16_Node000001_Node000017"><a xlink:title=" ">
<path fill="none" stroke="#63b8ff" d="M1285.43,-74.03C1414.65,-72.34 1707.2,-64.63 1950.5,-30 1959.9,-28.66 1969.98,-26.64 1979.22,-24.55"/>
<polygon fill="#63b8ff" stroke="#63b8ff" points="1285.25,-70.54 1275.3,-74.16 1285.34,-77.54 1285.25,-70.54"/>
</a>
</g>
</g>
<!-- Node18 -->
<g id="Node000018" class="node">
<title>Node18</title>
<g id="a_Node000018"><a xlink:href="actors__extended_8c.html" target="_top" xlink:title=" ">
<polygon fill="white" stroke="#666666" points="2239.5,-24.5 2083.5,-24.5 2083.5,-5.5 2239.5,-5.5 2239.5,-24.5"/>
<text text-anchor="middle" x="2161.5" y="-12.5" font-family="Helvetica,sans-Serif" font-size="10.00">src/racing/actors_extended.c</text>
</a>
</g>
</g>
<!-- Node1&#45;&gt;Node18 -->
<g id="edge17_Node000001_Node000018" class="edge">
<title>Node1&#45;&gt;Node18</title>
<g id="a_edge17_Node000001_Node000018"><a xlink:title=" ">
<path fill="none" stroke="#63b8ff" d="M1285.02,-73.48C1429.24,-70.72 1781.32,-61.12 2074.5,-30 2087.43,-28.63 2101.37,-26.62 2114.21,-24.56"/>
<polygon fill="#63b8ff" stroke="#63b8ff" points="1284.94,-69.98 1275,-73.66 1285.07,-76.98 1284.94,-69.98"/>
</a>
</g>
</g>
<!-- Node19 -->
<g id="Node000019" class="node">
<title>Node19</title>
<g id="a_Node000019"><a xlink:href="race__logic_8c.html" target="_top" xlink:title=" ">
<polygon fill="white" stroke="#666666" points="2383,-24.5 2258,-24.5 2258,-5.5 2383,-5.5 2383,-24.5"/>
<text text-anchor="middle" x="2320.5" y="-12.5" font-family="Helvetica,sans-Serif" font-size="10.00">src/racing/race_logic.c</text>
</a>
</g>
</g>
<!-- Node1&#45;&gt;Node19 -->
<g id="edge18_Node000001_Node000019" class="edge">
<title>Node1&#45;&gt;Node19</title>
<g id="a_edge18_Node000001_Node000019"><a xlink:title=" ">
<path fill="none" stroke="#63b8ff" d="M1285.57,-75.05C1450.2,-75.64 1887.16,-72.7 2248.5,-30 2259.5,-28.7 2271.34,-26.67 2282.18,-24.55"/>
<polygon fill="#63b8ff" stroke="#63b8ff" points="1285.14,-71.55 1275.12,-75 1285.11,-78.55 1285.14,-71.55"/>
</a>
</g>
</g>
</g>
</svg>
