<?xml version="1.0" encoding="UTF-8" standalone="no"?>
<!DOCTYPE svg PUBLIC "-//W3C//DTD SVG 1.1//EN"
 "http://www.w3.org/Graphics/SVG/1.1/DTD/svg11.dtd">
<!-- Generated by graphviz version 2.43.0 (0)
 -->
<!-- Title: func_800C1C88 Pages: 1 -->
<svg width="812pt" height="1412pt"
 viewBox="0.00 0.00 812.00 1411.50" xmlns="http://www.w3.org/2000/svg" xmlns:xlink="http://www.w3.org/1999/xlink">
<g id="graph0" class="graph" transform="scale(1 1) rotate(0) translate(4 1407.5)">
<title>func_800C1C88</title>
<!-- Node1 -->
<g id="Node000001" class="node">
<title>Node1</title>
<g id="a_Node000001"><a xlink:title=" ">
<polygon fill="#999999" stroke="#666666" points="804,-698.5 712,-698.5 712,-679.5 804,-679.5 804,-698.5"/>
<text text-anchor="middle" x="758" y="-686.5" font-family="Helvetica,sans-Serif" font-size="10.00">func_800C1C88</text>
</a>
</g>
</g>
<!-- Node2 -->
<g id="Node000002" class="node">
<title>Node2</title>
<g id="a_Node000002"><a xlink:href="external_8c.html#aad3025d980410fa157174acbf923f8c0" target="_top" xlink:title=" ">
<polygon fill="white" stroke="#666666" points="676,-1292.5 583,-1292.5 583,-1273.5 676,-1273.5 676,-1292.5"/>
<text text-anchor="middle" x="629.5" y="-1280.5" font-family="Helvetica,sans-Serif" font-size="10.00">func_800C92CC</text>
</a>
</g>
</g>
<!-- Node1&#45;&gt;Node2 -->
<g id="edge1_Node000001_Node000002" class="edge">
<title>Node1&#45;&gt;Node2</title>
<g id="a_edge1_Node000001_Node000002"><a xlink:title=" ">
<path fill="none" stroke="#63b8ff" d="M752.8,-708.74C732.73,-802.99 647.01,-1205.48 632.57,-1273.28"/>
<polygon fill="#63b8ff" stroke="#63b8ff" points="756.25,-709.32 754.91,-698.81 749.4,-707.87 756.25,-709.32"/>
</a>
</g>
</g>
<!-- Node46 -->
<g id="Node000046" class="node">
<title>Node46</title>
<g id="a_Node000046"><a xlink:href="external_8c.html#acb60983213d09ee795e80ca3c8b5975e" target="_top" xlink:title=" ">
<polygon fill="white" stroke="#666666" points="416.5,-755.5 324.5,-755.5 324.5,-736.5 416.5,-736.5 416.5,-755.5"/>
<text text-anchor="middle" x="370.5" y="-743.5" font-family="Helvetica,sans-Serif" font-size="10.00">func_800C98B8</text>
</a>
</g>
</g>
<!-- Node1&#45;&gt;Node46 -->
<g id="edge13_Node000001_Node000046" class="edge">
<title>Node1&#45;&gt;Node46</title>
<g id="a_edge13_Node000001_Node000046"><a xlink:title=" ">
<path fill="none" stroke="#63b8ff" d="M709.41,-700.87C698.47,-703.4 686.86,-705.93 676,-708 584.68,-725.4 476.37,-736.74 416.67,-742.19"/>
<polygon fill="#63b8ff" stroke="#63b8ff" points="710.3,-704.25 719.23,-698.56 708.69,-697.44 710.3,-704.25"/>
</a>
</g>
</g>
<!-- Node111 -->
<g id="Node000111" class="node">
<title>Node111</title>
<g id="a_Node000111"><a xlink:href="external_8c.html#af11a3f15b321772485efd466049680e1" target="_top" xlink:title=" ">
<polygon fill="white" stroke="#666666" points="675.5,-698.5 583.5,-698.5 583.5,-679.5 675.5,-679.5 675.5,-698.5"/>
<text text-anchor="middle" x="629.5" y="-686.5" font-family="Helvetica,sans-Serif" font-size="10.00">func_800C9A88</text>
</a>
</g>
</g>
<!-- Node1&#45;&gt;Node111 -->
<g id="edge46_Node000001_Node000111" class="edge">
<title>Node1&#45;&gt;Node111</title>
<g id="a_edge46_Node000001_Node000111"><a xlink:title=" ">
<path fill="none" stroke="#63b8ff" d="M701.43,-689C692.9,-689 684.19,-689 675.92,-689"/>
<polygon fill="#63b8ff" stroke="#63b8ff" points="701.69,-692.5 711.69,-689 701.69,-685.5 701.69,-692.5"/>
</a>
</g>
</g>
<!-- Node124 -->
<g id="Node000124" class="node">
<title>Node124</title>
<g id="a_Node000124"><a xlink:href="external_8c.html#a903d1c248a30cd68262a6833b9c0b112" target="_top" xlink:title=" ">
<polygon fill="white" stroke="#666666" points="417,-178.5 324,-178.5 324,-159.5 417,-159.5 417,-178.5"/>
<text text-anchor="middle" x="370.5" y="-166.5" font-family="Helvetica,sans-Serif" font-size="10.00">func_800C9D80</text>
</a>
</g>
</g>
<!-- Node1&#45;&gt;Node124 -->
<g id="edge49_Node000001_Node000124" class="edge">
<title>Node1&#45;&gt;Node124</title>
<g id="a_edge49_Node000001_Node000124"><a xlink:title=" ">
<path fill="none" stroke="#63b8ff" d="M703.94,-677.25C619.38,-658.31 462.65,-622.21 454,-613 391.85,-546.87 374.64,-237.26 371.91,-178.6"/>
<polygon fill="#63b8ff" stroke="#63b8ff" points="703.35,-680.71 713.88,-679.47 704.88,-673.87 703.35,-680.71"/>
</a>
</g>
</g>
<!-- Node135 -->
<g id="Node000135" class="node">
<title>Node135</title>
<g id="a_Node000135"><a xlink:href="external_8c.html#ac0dc5429ad9f1e8931403f4a1984423f" target="_top" xlink:title=" ">
<polygon fill="white" stroke="#666666" points="675.5,-604.5 583.5,-604.5 583.5,-585.5 675.5,-585.5 675.5,-604.5"/>
<text text-anchor="middle" x="629.5" y="-592.5" font-family="Helvetica,sans-Serif" font-size="10.00">func_800CA984</text>
</a>
</g>
</g>
<!-- Node1&#45;&gt;Node135 -->
<g id="edge58_Node000001_Node000135" class="edge">
<title>Node1&#45;&gt;Node135</title>
<g id="a_edge58_Node000001_Node000135"><a xlink:title=" ">
<path fill="none" stroke="#63b8ff" d="M739.71,-671.99C723.92,-656.99 699.53,-635.06 676,-619 668.18,-613.66 659.04,-608.63 651,-604.57"/>
<polygon fill="#63b8ff" stroke="#63b8ff" points="737.5,-674.72 747.13,-679.14 742.35,-669.68 737.5,-674.72"/>
</a>
</g>
</g>
<!-- Node3 -->
<g id="Node000003" class="node">
<title>Node3</title>
<g id="a_Node000003"><a xlink:href="code__80005FD0_8c.html#a06783cccfdd317d1f883612230c6cf5c" target="_top" xlink:title=" ">
<polygon fill="white" stroke="#666666" points="546.5,-1292.5 454.5,-1292.5 454.5,-1273.5 546.5,-1273.5 546.5,-1292.5"/>
<text text-anchor="middle" x="500.5" y="-1280.5" font-family="Helvetica,sans-Serif" font-size="10.00">func_800098FC</text>
</a>
</g>
</g>
<!-- Node2&#45;&gt;Node3 -->
<g id="edge2_Node000002_Node000003" class="edge">
<title>Node2&#45;&gt;Node3</title>
<g id="a_edge2_Node000002_Node000003"><a xlink:title=" ">
<path fill="none" stroke="#63b8ff" d="M572.37,-1283C563.84,-1283 555.12,-1283 546.86,-1283"/>
<polygon fill="#63b8ff" stroke="#63b8ff" points="572.65,-1286.5 582.65,-1283 572.65,-1279.5 572.65,-1286.5"/>
</a>
</g>
</g>
<!-- Node45 -->
<g id="Node000045" class="node">
<title>Node45</title>
<g id="a_Node000045"><a xlink:href="code__80005FD0_8c.html#ab64e3db39c0df021f9d8d03a00ce58cd" target="_top" xlink:title=" ">
<polygon fill="white" stroke="#666666" points="546.5,-1329.5 454.5,-1329.5 454.5,-1310.5 546.5,-1310.5 546.5,-1329.5"/>
<text text-anchor="middle" x="500.5" y="-1317.5" font-family="Helvetica,sans-Serif" font-size="10.00">func_800099EC</text>
</a>
</g>
</g>
<!-- Node2&#45;&gt;Node45 -->
<g id="edge12_Node000002_Node000045" class="edge">
<title>Node2&#45;&gt;Node45</title>
<g id="a_edge12_Node000002_Node000045"><a xlink:title=" ">
<path fill="none" stroke="#63b8ff" d="M586.19,-1295.33C569.37,-1300.23 550.31,-1305.78 534.54,-1310.38"/>
<polygon fill="#63b8ff" stroke="#63b8ff" points="587.17,-1298.69 595.79,-1292.53 585.21,-1291.97 587.17,-1298.69"/>
</a>
</g>
</g>
<!-- Node4 -->
<g id="Node000004" class="node">
<title>Node4</title>
<g id="a_Node000004"><a xlink:href="code__8008C1D0_8c.html#a6fc4c8f6786be15941bfce0c8575b7cf" target="_top" xlink:title=" ">
<polygon fill="#fff0f0" stroke="red" points="416.5,-1329.5 324.5,-1329.5 324.5,-1310.5 416.5,-1310.5 416.5,-1329.5"/>
<text text-anchor="middle" x="370.5" y="-1317.5" font-family="Helvetica,sans-Serif" font-size="10.00">func_8008C528</text>
</a>
</g>
</g>
<!-- Node3&#45;&gt;Node4 -->
<g id="edge3_Node000003_Node000004" class="edge">
<title>Node3&#45;&gt;Node4</title>
<g id="a_edge3_Node000003_Node000004"><a xlink:title=" ">
<path fill="none" stroke="#63b8ff" d="M456.86,-1295.33C439.91,-1300.23 420.69,-1305.78 404.8,-1310.38"/>
<polygon fill="#63b8ff" stroke="#63b8ff" points="457.9,-1298.67 466.54,-1292.53 455.96,-1291.94 457.9,-1298.67"/>
</a>
</g>
</g>
<!-- Node30 -->
<g id="Node000030" class="node">
<title>Node30</title>
<g id="a_Node000030"><a xlink:href="code__8008C1D0_8c.html#af25de8f70a7ecb552619235df793b951" target="_top" xlink:title=" ">
<polygon fill="#fff0f0" stroke="red" points="416.5,-1292.5 324.5,-1292.5 324.5,-1273.5 416.5,-1273.5 416.5,-1292.5"/>
<text text-anchor="middle" x="370.5" y="-1280.5" font-family="Helvetica,sans-Serif" font-size="10.00">func_8008C73C</text>
</a>
</g>
</g>
<!-- Node3&#45;&gt;Node30 -->
<g id="edge4_Node000003_Node000030" class="edge">
<title>Node3&#45;&gt;Node30</title>
<g id="a_edge4_Node000003_Node000030"><a xlink:title=" ">
<path fill="none" stroke="#63b8ff" d="M444.15,-1283C434.97,-1283 425.54,-1283 416.65,-1283"/>
<polygon fill="#63b8ff" stroke="#63b8ff" points="444.37,-1286.5 454.37,-1283 444.37,-1279.5 444.37,-1286.5"/>
</a>
</g>
</g>
<!-- Node37 -->
<g id="Node000037" class="node">
<title>Node37</title>
<g id="a_Node000037"><a xlink:href="code__8008C1D0_8c.html#a91101066503279f64d1972e074533e32" target="_top" xlink:title=" ">
<polygon fill="#fff0f0" stroke="red" points="418,-1255.5 323,-1255.5 323,-1236.5 418,-1236.5 418,-1255.5"/>
<text text-anchor="middle" x="370.5" y="-1243.5" font-family="Helvetica,sans-Serif" font-size="10.00">func_8008DABC</text>
</a>
</g>
</g>
<!-- Node3&#45;&gt;Node37 -->
<g id="edge5_Node000003_Node000037" class="edge">
<title>Node3&#45;&gt;Node37</title>
<g id="a_edge5_Node000003_Node000037"><a xlink:title=" ">
<path fill="none" stroke="#63b8ff" d="M456.86,-1270.67C439.91,-1265.77 420.69,-1260.22 404.8,-1255.62"/>
<polygon fill="#63b8ff" stroke="#63b8ff" points="455.96,-1274.06 466.54,-1273.47 457.9,-1267.33 455.96,-1274.06"/>
</a>
</g>
</g>
<!-- Node42 -->
<g id="Node000042" class="node">
<title>Node42</title>
<g id="a_Node000042"><a xlink:href="code__8008C1D0_8c.html#af917b00ce9706fa68a375ab96957c106" target="_top" xlink:title=" ">
<polygon fill="#fff0f0" stroke="red" points="416.5,-1218.5 324.5,-1218.5 324.5,-1199.5 416.5,-1199.5 416.5,-1218.5"/>
<text text-anchor="middle" x="370.5" y="-1206.5" font-family="Helvetica,sans-Serif" font-size="10.00">func_8008DF98</text>
</a>
</g>
</g>
<!-- Node3&#45;&gt;Node42 -->
<g id="edge9_Node000003_Node000042" class="edge">
<title>Node3&#45;&gt;Node42</title>
<g id="a_edge9_Node000003_Node000042"><a xlink:title=" ">
<path fill="none" stroke="#63b8ff" d="M478.89,-1267.35C462.85,-1255.6 439.72,-1239.61 418,-1228 411.54,-1224.55 404.31,-1221.31 397.52,-1218.53"/>
<polygon fill="#63b8ff" stroke="#63b8ff" points="476.91,-1270.24 487.03,-1273.39 481.08,-1264.62 476.91,-1270.24"/>
</a>
</g>
</g>
<!-- Node43 -->
<g id="Node000043" class="node">
<title>Node43</title>
<g id="a_Node000043"><a xlink:href="code__8008C1D0_8c.html#a8ef0ab67fc784aa413d64db3fe8d5fb2" target="_top" xlink:title=" ">
<polygon fill="#fff0f0" stroke="red" points="416.5,-1403.5 324.5,-1403.5 324.5,-1384.5 416.5,-1384.5 416.5,-1403.5"/>
<text text-anchor="middle" x="370.5" y="-1391.5" font-family="Helvetica,sans-Serif" font-size="10.00">func_8008E6C0</text>
</a>
</g>
</g>
<!-- Node3&#45;&gt;Node43 -->
<g id="edge10_Node000003_Node000043" class="edge">
<title>Node3&#45;&gt;Node43</title>
<g id="a_edge10_Node000003_Node000043"><a xlink:title=" ">
<path fill="none" stroke="#63b8ff" d="M458.8,-1298.05C457.11,-1299.28 455.49,-1300.59 454,-1302 427.41,-1327.11 444.92,-1351.24 418,-1376 414.3,-1379.4 409.9,-1382.18 405.29,-1384.45"/>
<polygon fill="#63b8ff" stroke="#63b8ff" points="461.03,-1300.81 467.83,-1292.68 457.45,-1294.79 461.03,-1300.81"/>
</a>
</g>
</g>
<!-- Node44 -->
<g id="Node000044" class="node">
<title>Node44</title>
<g id="a_Node000044"><a xlink:href="code__8008C1D0_8c.html#a886ed2b8dce0070972cc73e6e3e22269" target="_top" xlink:title=" ">
<polygon fill="#fff0f0" stroke="red" points="416.5,-1366.5 324.5,-1366.5 324.5,-1347.5 416.5,-1347.5 416.5,-1366.5"/>
<text text-anchor="middle" x="370.5" y="-1354.5" font-family="Helvetica,sans-Serif" font-size="10.00">func_8008EAE0</text>
</a>
</g>
</g>
<!-- Node3&#45;&gt;Node44 -->
<g id="edge11_Node000003_Node000044" class="edge">
<title>Node3&#45;&gt;Node44</title>
<g id="a_edge11_Node000003_Node000044"><a xlink:title=" ">
<path fill="none" stroke="#63b8ff" d="M462.56,-1296.89C459.58,-1298.47 456.69,-1300.17 454,-1302 435.03,-1314.9 437.14,-1326.35 418,-1339 413.09,-1342.25 407.51,-1345.04 401.96,-1347.39"/>
<polygon fill="#63b8ff" stroke="#63b8ff" points="464.12,-1300.02 471.63,-1292.54 461.1,-1293.71 464.12,-1300.02"/>
</a>
</g>
</g>
<!-- Node39 -->
<g id="Node000039" class="node">
<title>Node39</title>
<g id="a_Node000039"><a xlink:href="actors_8c.html#ac43b9e91a785fd3e0c8a4279b2713c06" target="_top" xlink:title=" ">
<polygon fill="white" stroke="#666666" points="271,-1255.5 180,-1255.5 180,-1236.5 271,-1236.5 271,-1255.5"/>
<text text-anchor="middle" x="225.5" y="-1243.5" font-family="Helvetica,sans-Serif" font-size="10.00">func_8029F408</text>
</a>
</g>
</g>
<!-- Node37&#45;&gt;Node39 -->
<g id="edge6_Node000037_Node000039" class="edge">
<title>Node37&#45;&gt;Node39</title>
<g id="a_edge6_Node000037_Node000039"><a xlink:title=" ">
<path fill="none" stroke="#63b8ff" d="M312.44,-1246C298.82,-1246 284.47,-1246 271.48,-1246"/>
<polygon fill="#63b8ff" stroke="#63b8ff" points="312.68,-1249.5 322.68,-1246 312.68,-1242.5 312.68,-1249.5"/>
</a>
</g>
</g>
<!-- Node40 -->
<g id="Node000040" class="node">
<title>Node40</title>
<g id="a_Node000040"><a xlink:href="actors_8c.html#a5d0cc071261caa5b76190cfee9c90189" target="_top" xlink:title=" ">
<polygon fill="#fff0f0" stroke="red" points="110,-1199.5 18,-1199.5 18,-1180.5 110,-1180.5 110,-1199.5"/>
<text text-anchor="middle" x="64" y="-1187.5" font-family="Helvetica,sans-Serif" font-size="10.00">func_802A0450</text>
</a>
</g>
</g>
<!-- Node37&#45;&gt;Node40 -->
<g id="edge8_Node000037_Node000040" class="edge">
<title>Node37&#45;&gt;Node40</title>
<g id="a_edge8_Node000037_Node000040"><a xlink:title=" ">
<path fill="none" stroke="#63b8ff" d="M331.93,-1258.46C289.9,-1270.36 220.32,-1283.92 164,-1265 124.96,-1251.88 89.07,-1216.59 73.36,-1199.51"/>
<polygon fill="#63b8ff" stroke="#63b8ff" points="333.14,-1261.75 341.75,-1255.56 331.17,-1255.03 333.14,-1261.75"/>
</a>
</g>
</g>
<!-- Node39&#45;&gt;Node40 -->
<g id="edge7_Node000039_Node000040" class="edge">
<title>Node39&#45;&gt;Node40</title>
<g id="a_edge7_Node000039_Node000040"><a xlink:title=" ">
<path fill="none" stroke="#63b8ff" d="M181.13,-1233.54C175.35,-1231.75 169.52,-1229.88 164,-1228 137.86,-1219.11 108.36,-1207.59 88.42,-1199.58"/>
<polygon fill="#63b8ff" stroke="#63b8ff" points="180.17,-1236.9 190.75,-1236.46 182.2,-1230.21 180.17,-1236.9"/>
</a>
</g>
</g>
<!-- Node46&#45;&gt;Node39 -->
<g id="edge34_Node000046_Node000039" class="edge">
<title>Node46&#45;&gt;Node39</title>
<g id="a_edge34_Node000046_Node000039"><a xlink:title=" ">
<path fill="none" stroke="#63b8ff" d="M368.81,-765.96C365.59,-847.92 349.42,-1157.63 287,-1228 282.71,-1232.84 277.18,-1236.4 271.22,-1239.02"/>
<polygon fill="#63b8ff" stroke="#63b8ff" points="372.32,-765.7 369.2,-755.57 365.33,-765.44 372.32,-765.7"/>
</a>
</g>
</g>
<!-- Node46&#45;&gt;Node40 -->
<g id="edge40_Node000046_Node000040" class="edge">
<title>Node46&#45;&gt;Node40</title>
<g id="a_edge40_Node000046_Node000040"><a xlink:title=" ">
<path fill="none" stroke="#63b8ff" d="M369.32,-765.9C367.8,-816.36 357.03,-950.86 287,-1029 247.5,-1073.07 212.32,-1045.83 164,-1080 122.25,-1109.52 85.59,-1159.61 71.33,-1180.46"/>
<polygon fill="#63b8ff" stroke="#63b8ff" points="372.82,-765.77 369.53,-755.7 365.82,-765.63 372.82,-765.77"/>
</a>
</g>
</g>
<!-- Node47 -->
<g id="Node000047" class="node">
<title>Node47</title>
<g id="a_Node000047"><a xlink:href="code__80005FD0_8c.html#aa196422871ac2034500952ad883d7cfa" target="_top" xlink:title=" ">
<polygon fill="#fff0f0" stroke="red" points="271.5,-774.5 179.5,-774.5 179.5,-755.5 271.5,-755.5 271.5,-774.5"/>
<text text-anchor="middle" x="225.5" y="-762.5" font-family="Helvetica,sans-Serif" font-size="10.00">func_80012AC0</text>
</a>
</g>
</g>
<!-- Node46&#45;&gt;Node47 -->
<g id="edge14_Node000046_Node000047" class="edge">
<title>Node46&#45;&gt;Node47</title>
<g id="a_edge14_Node000046_Node000047"><a xlink:title=" ">
<path fill="none" stroke="#63b8ff" d="M314.25,-753.34C300.26,-755.2 285.39,-757.18 271.94,-758.96"/>
<polygon fill="#63b8ff" stroke="#63b8ff" points="314.8,-756.8 324.25,-752.01 313.88,-749.86 314.8,-756.8"/>
</a>
</g>
</g>
<!-- Node50 -->
<g id="Node000050" class="node">
<title>Node50</title>
<g id="a_Node000050"><a xlink:href="code__80005FD0_8c.html#a5cca0976a33dd72797e8a302fbcc50d2" target="_top" xlink:title=" ">
<polygon fill="#fff0f0" stroke="red" points="271.5,-737.5 179.5,-737.5 179.5,-718.5 271.5,-718.5 271.5,-737.5"/>
<text text-anchor="middle" x="225.5" y="-725.5" font-family="Helvetica,sans-Serif" font-size="10.00">func_800133C4</text>
</a>
</g>
</g>
<!-- Node46&#45;&gt;Node50 -->
<g id="edge15_Node000046_Node000050" class="edge">
<title>Node46&#45;&gt;Node50</title>
<g id="a_edge15_Node000046_Node000050"><a xlink:title=" ">
<path fill="none" stroke="#63b8ff" d="M314.25,-739.05C300.26,-737.28 285.39,-735.41 271.94,-733.72"/>
<polygon fill="#63b8ff" stroke="#63b8ff" points="313.9,-742.53 324.25,-740.3 314.77,-735.58 313.9,-742.53"/>
</a>
</g>
</g>
<!-- Node51 -->
<g id="Node000051" class="node">
<title>Node51</title>
<g id="a_Node000051"><a xlink:href="code__80005FD0_8c.html#a16963ad113ed61f2cb0ed16547a71824" target="_top" xlink:title=" ">
<polygon fill="#fff0f0" stroke="red" points="271.5,-291.5 179.5,-291.5 179.5,-272.5 271.5,-272.5 271.5,-291.5"/>
<text text-anchor="middle" x="225.5" y="-279.5" font-family="Helvetica,sans-Serif" font-size="10.00">func_80013F7C</text>
</a>
</g>
</g>
<!-- Node46&#45;&gt;Node51 -->
<g id="edge16_Node000046_Node000051" class="edge">
<title>Node46&#45;&gt;Node51</title>
<g id="a_edge16_Node000046_Node000051"><a xlink:title=" ">
<path fill="none" stroke="#63b8ff" d="M368.51,-726.05C364.25,-648 344.96,-364.47 287,-300 282.82,-295.35 277.51,-291.89 271.77,-289.3"/>
<polygon fill="#63b8ff" stroke="#63b8ff" points="365.03,-726.59 369.05,-736.39 372.02,-726.22 365.03,-726.59"/>
</a>
</g>
</g>
<!-- Node56 -->
<g id="Node000056" class="node">
<title>Node56</title>
<g id="a_Node000056"><a xlink:href="code__80071F00_8c.html#a4cdabd48a6b2f27cbd4d420c93d54f09" target="_top" xlink:title=" ">
<polygon fill="#fff0f0" stroke="red" points="271.5,-700.5 179.5,-700.5 179.5,-681.5 271.5,-681.5 271.5,-700.5"/>
<text text-anchor="middle" x="225.5" y="-688.5" font-family="Helvetica,sans-Serif" font-size="10.00">func_8007E00C</text>
</a>
</g>
</g>
<!-- Node46&#45;&gt;Node56 -->
<g id="edge17_Node000046_Node000056" class="edge">
<title>Node46&#45;&gt;Node56</title>
<g id="a_edge17_Node000046_Node000056"><a xlink:title=" ">
<path fill="none" stroke="#63b8ff" d="M339.93,-732.18C324.35,-725.13 304.82,-716.66 287,-710 278.03,-706.64 268.17,-703.38 259.06,-700.52"/>
<polygon fill="#63b8ff" stroke="#63b8ff" points="338.52,-735.38 349.07,-736.35 341.43,-729.02 338.52,-735.38"/>
</a>
</g>
</g>
<!-- Node63 -->
<g id="Node000063" class="node">
<title>Node63</title>
<g id="a_Node000063"><a xlink:href="code__80071F00_8c.html#a86fe7e1a5b390123168b404e8d2ffb47" target="_top" xlink:title=" ">
<polygon fill="#fff0f0" stroke="red" points="271.5,-811.5 179.5,-811.5 179.5,-792.5 271.5,-792.5 271.5,-811.5"/>
<text text-anchor="middle" x="225.5" y="-799.5" font-family="Helvetica,sans-Serif" font-size="10.00">func_8007E63C</text>
</a>
</g>
</g>
<!-- Node46&#45;&gt;Node63 -->
<g id="edge18_Node000046_Node000063" class="edge">
<title>Node46&#45;&gt;Node63</title>
<g id="a_edge18_Node000046_Node000063"><a xlink:title=" ">
<path fill="none" stroke="#63b8ff" d="M341.62,-760.05C325.83,-767.7 305.57,-777 287,-784 278.9,-787.05 270.04,-789.94 261.65,-792.46"/>
<polygon fill="#63b8ff" stroke="#63b8ff" points="343.38,-763.08 350.82,-755.53 340.3,-756.8 343.38,-763.08"/>
</a>
</g>
</g>
<!-- Node71 -->
<g id="Node000071" class="node">
<title>Node71</title>
<g id="a_Node000071"><a xlink:href="code__80071F00_8c.html#ae2ff9989b0aaaaf8fb3b0a9d26aa9c2c" target="_top" xlink:title=" ">
<polygon fill="#fff0f0" stroke="red" points="110,-736.5 18,-736.5 18,-717.5 110,-717.5 110,-736.5"/>
<text text-anchor="middle" x="64" y="-724.5" font-family="Helvetica,sans-Serif" font-size="10.00">func_800808CC</text>
</a>
</g>
</g>
<!-- Node46&#45;&gt;Node71 -->
<g id="edge21_Node000046_Node000071" class="edge">
<title>Node46&#45;&gt;Node71</title>
<g id="a_edge21_Node000046_Node000071"><a xlink:title=" ">
<path fill="none" stroke="#63b8ff" d="M356.13,-728.28C341.45,-710.43 316.05,-684.01 287,-673 235.88,-653.63 216.97,-659.49 164,-673 130.23,-681.61 95.56,-704.35 77.57,-717.41"/>
<polygon fill="#63b8ff" stroke="#63b8ff" points="353.5,-730.59 362.45,-736.25 358.98,-726.24 353.5,-730.59"/>
</a>
</g>
</g>
<!-- Node72 -->
<g id="Node000072" class="node">
<title>Node72</title>
<g id="a_Node000072"><a xlink:href="code__80071F00_8c.html#a954cae767f5352e4be4a8bd9d77cc824" target="_top" xlink:title=" ">
<polygon fill="#fff0f0" stroke="red" points="271,-624.5 180,-624.5 180,-605.5 271,-605.5 271,-624.5"/>
<text text-anchor="middle" x="225.5" y="-612.5" font-family="Helvetica,sans-Serif" font-size="10.00">func_80080408</text>
</a>
</g>
</g>
<!-- Node46&#45;&gt;Node72 -->
<g id="edge20_Node000046_Node000072" class="edge">
<title>Node46&#45;&gt;Node72</title>
<g id="a_edge20_Node000046_Node000072"><a xlink:title=" ">
<path fill="none" stroke="#63b8ff" d="M359.39,-727.35C345.77,-703.82 319.45,-663.46 287,-639 278.97,-632.95 269.21,-628.2 259.89,-624.59"/>
<polygon fill="#63b8ff" stroke="#63b8ff" points="356.47,-729.32 364.43,-736.32 362.57,-725.88 356.47,-729.32"/>
</a>
</g>
</g>
<!-- Node73 -->
<g id="Node000073" class="node">
<title>Node73</title>
<g id="a_Node000073"><a xlink:href="code__80071F00_8c.html#a4b579f9c92da3a42a923f3c5697dc203" target="_top" xlink:title=" ">
<polygon fill="#fff0f0" stroke="red" points="271.5,-587.5 179.5,-587.5 179.5,-568.5 271.5,-568.5 271.5,-587.5"/>
<text text-anchor="middle" x="225.5" y="-575.5" font-family="Helvetica,sans-Serif" font-size="10.00">func_80080A4C</text>
</a>
</g>
</g>
<!-- Node46&#45;&gt;Node73 -->
<g id="edge22_Node000046_Node000073" class="edge">
<title>Node46&#45;&gt;Node73</title>
<g id="a_edge22_Node000046_Node000073"><a xlink:title=" ">
<path fill="none" stroke="#63b8ff" d="M364.03,-726.3C354.1,-694.2 330.05,-630.71 287,-596 282.48,-592.35 277.24,-589.45 271.77,-587.13"/>
<polygon fill="#63b8ff" stroke="#63b8ff" points="360.78,-727.65 366.96,-736.25 367.49,-725.67 360.78,-727.65"/>
</a>
</g>
</g>
<!-- Node74 -->
<g id="Node000074" class="node">
<title>Node74</title>
<g id="a_Node000074"><a xlink:href="code__80071F00_8c.html#a9d70284cbdcf98a1af0f877fef63dd21" target="_top" xlink:title=" ">
<polygon fill="#fff0f0" stroke="red" points="271.5,-550.5 179.5,-550.5 179.5,-531.5 271.5,-531.5 271.5,-550.5"/>
<text text-anchor="middle" x="225.5" y="-538.5" font-family="Helvetica,sans-Serif" font-size="10.00">func_80080B28</text>
</a>
</g>
</g>
<!-- Node46&#45;&gt;Node74 -->
<g id="edge23_Node000046_Node000074" class="edge">
<title>Node46&#45;&gt;Node74</title>
<g id="a_edge23_Node000046_Node000074"><a xlink:title=" ">
<path fill="none" stroke="#63b8ff" d="M366.31,-725.84C359.19,-687.6 338.39,-604.28 287,-559 282.56,-555.09 277.3,-552.03 271.77,-549.63"/>
<polygon fill="#63b8ff" stroke="#63b8ff" points="362.94,-726.92 368.1,-736.17 369.84,-725.72 362.94,-726.92"/>
</a>
</g>
</g>
<!-- Node75 -->
<g id="Node000075" class="node">
<title>Node75</title>
<g id="a_Node000075"><a xlink:href="code__80071F00_8c.html#a76c986375d316888fd69967b818ae7f3" target="_top" xlink:title=" ">
<polygon fill="#fff0f0" stroke="red" points="271.5,-513.5 179.5,-513.5 179.5,-494.5 271.5,-494.5 271.5,-513.5"/>
<text text-anchor="middle" x="225.5" y="-501.5" font-family="Helvetica,sans-Serif" font-size="10.00">func_80081AFC</text>
</a>
</g>
</g>
<!-- Node46&#45;&gt;Node75 -->
<g id="edge24_Node000046_Node000075" class="edge">
<title>Node46&#45;&gt;Node75</title>
<g id="a_edge24_Node000046_Node000075"><a xlink:title=" ">
<path fill="none" stroke="#63b8ff" d="M368.01,-726.15C363.67,-682.69 347.2,-578.49 287,-522 282.6,-517.88 277.31,-514.69 271.69,-512.24"/>
<polygon fill="#63b8ff" stroke="#63b8ff" points="364.54,-726.62 368.91,-736.27 371.51,-726 364.54,-726.62"/>
</a>
</g>
</g>
<!-- Node78 -->
<g id="Node000078" class="node">
<title>Node78</title>
<g id="a_Node000078"><a xlink:href="code__80071F00_8c.html#a083acc5eddd6095b3c9f21a9fdea7fca" target="_top" xlink:title=" ">
<polygon fill="#fff0f0" stroke="red" points="271,-476.5 180,-476.5 180,-457.5 271,-457.5 271,-476.5"/>
<text text-anchor="middle" x="225.5" y="-464.5" font-family="Helvetica,sans-Serif" font-size="10.00">func_80082870</text>
</a>
</g>
</g>
<!-- Node46&#45;&gt;Node78 -->
<g id="edge25_Node000046_Node000078" class="edge">
<title>Node46&#45;&gt;Node78</title>
<g id="a_edge25_Node000046_Node000078"><a xlink:title=" ">
<path fill="none" stroke="#63b8ff" d="M369.22,-726.25C367.44,-677.95 356.02,-552.86 287,-485 282.55,-480.62 277.08,-477.3 271.26,-474.78"/>
<polygon fill="#63b8ff" stroke="#63b8ff" points="365.72,-726.41 369.49,-736.32 372.72,-726.23 365.72,-726.41"/>
</a>
</g>
</g>
<!-- Node79 -->
<g id="Node000079" class="node">
<title>Node79</title>
<g id="a_Node000079"><a xlink:href="code__80071F00_8c.html#a9f7d6039676ea5158b8258acce3880db" target="_top" xlink:title=" ">
<polygon fill="#fff0f0" stroke="red" points="271.5,-439.5 179.5,-439.5 179.5,-420.5 271.5,-420.5 271.5,-439.5"/>
<text text-anchor="middle" x="225.5" y="-427.5" font-family="Helvetica,sans-Serif" font-size="10.00">func_80084B7C</text>
</a>
</g>
</g>
<!-- Node46&#45;&gt;Node79 -->
<g id="edge26_Node000046_Node000079" class="edge">
<title>Node46&#45;&gt;Node79</title>
<g id="a_edge26_Node000046_Node000079"><a xlink:title=" ">
<path fill="none" stroke="#63b8ff" d="M370.14,-726.37C370.75,-673.61 364.93,-527.43 287,-448 282.7,-443.62 277.39,-440.29 271.71,-437.77"/>
<polygon fill="#63b8ff" stroke="#63b8ff" points="366.64,-726.34 369.93,-736.41 373.64,-726.48 366.64,-726.34"/>
</a>
</g>
</g>
<!-- Node81 -->
<g id="Node000081" class="node">
<title>Node81</title>
<g id="a_Node000081"><a xlink:href="code__80071F00_8c.html#aec97ab2ca2e5e67501aeda33b6441c37" target="_top" xlink:title=" ">
<polygon fill="#fff0f0" stroke="red" points="271.5,-402.5 179.5,-402.5 179.5,-383.5 271.5,-383.5 271.5,-402.5"/>
<text text-anchor="middle" x="225.5" y="-390.5" font-family="Helvetica,sans-Serif" font-size="10.00">func_800859C8</text>
</a>
</g>
</g>
<!-- Node46&#45;&gt;Node81 -->
<g id="edge27_Node000046_Node000081" class="edge">
<title>Node46&#45;&gt;Node81</title>
<g id="a_edge27_Node000046_Node000081"><a xlink:title=" ">
<path fill="none" stroke="#63b8ff" d="M367.21,-726.21C359.32,-661.48 331.35,-457.52 287,-411 282.69,-406.48 277.3,-403.08 271.52,-400.52"/>
<polygon fill="#63b8ff" stroke="#63b8ff" points="363.75,-726.79 368.41,-736.3 370.7,-725.96 363.75,-726.79"/>
</a>
</g>
</g>
<!-- Node83 -->
<g id="Node000083" class="node">
<title>Node83</title>
<g id="a_Node000083"><a xlink:href="actors_8c.html#a473b64ad83f4eaa3f65202a629eab481" target="_top" xlink:title=" ">
<polygon fill="#fff0f0" stroke="red" points="271.5,-365.5 179.5,-365.5 179.5,-346.5 271.5,-346.5 271.5,-365.5"/>
<text text-anchor="middle" x="225.5" y="-353.5" font-family="Helvetica,sans-Serif" font-size="10.00">func_802986B4</text>
</a>
</g>
</g>
<!-- Node46&#45;&gt;Node83 -->
<g id="edge28_Node000046_Node000083" class="edge">
<title>Node46&#45;&gt;Node83</title>
<g id="a_edge28_Node000046_Node000083"><a xlink:title=" ">
<path fill="none" stroke="#63b8ff" d="M367.74,-726.31C361.17,-657.13 335.9,-426.5 287,-374 282.74,-369.43 277.38,-366 271.62,-363.43"/>
<polygon fill="#63b8ff" stroke="#63b8ff" points="364.26,-726.67 368.66,-736.31 371.23,-726.03 364.26,-726.67"/>
</a>
</g>
</g>
<!-- Node95 -->
<g id="Node000095" class="node">
<title>Node95</title>
<g id="a_Node000095"><a xlink:href="actors_8c.html#af5a55f197872c082b12f5d080bdb0818" target="_top" xlink:title=" ">
<polygon fill="#fff0f0" stroke="red" points="271.5,-1144.5 179.5,-1144.5 179.5,-1125.5 271.5,-1125.5 271.5,-1144.5"/>
<text text-anchor="middle" x="225.5" y="-1132.5" font-family="Helvetica,sans-Serif" font-size="10.00">func_80298AC0</text>
</a>
</g>
</g>
<!-- Node46&#45;&gt;Node95 -->
<g id="edge29_Node000046_Node000095" class="edge">
<title>Node46&#45;&gt;Node95</title>
<g id="a_edge29_Node000046_Node000095"><a xlink:title=" ">
<path fill="none" stroke="#63b8ff" d="M367.73,-765.63C361.13,-834.63 335.79,-1064.65 287,-1117 282.74,-1121.57 277.38,-1125 271.62,-1127.56"/>
<polygon fill="#63b8ff" stroke="#63b8ff" points="371.22,-765.95 368.66,-755.67 364.25,-765.3 371.22,-765.95"/>
</a>
</g>
</g>
<!-- Node98 -->
<g id="Node000098" class="node">
<title>Node98</title>
<g id="a_Node000098"><a xlink:href="actors_8c.html#aefb6b9376348cedddb2b69ed0441d5f9" target="_top" xlink:title=" ">
<polygon fill="white" stroke="#666666" points="271,-1218.5 180,-1218.5 180,-1199.5 271,-1199.5 271,-1218.5"/>
<text text-anchor="middle" x="225.5" y="-1206.5" font-family="Helvetica,sans-Serif" font-size="10.00">func_8029F1F8</text>
</a>
</g>
</g>
<!-- Node46&#45;&gt;Node98 -->
<g id="edge30_Node000046_Node000098" class="edge">
<title>Node46&#45;&gt;Node98</title>
<g id="a_edge30_Node000046_Node000098"><a xlink:title=" ">
<path fill="none" stroke="#63b8ff" d="M368.5,-765.9C364.22,-843.78 344.85,-1126.68 287,-1191 282.68,-1195.81 277.13,-1199.35 271.16,-1201.97"/>
<polygon fill="#63b8ff" stroke="#63b8ff" points="372.02,-765.76 369.05,-755.59 365.03,-765.39 372.02,-765.76"/>
</a>
</g>
</g>
<!-- Node99 -->
<g id="Node000099" class="node">
<title>Node99</title>
<g id="a_Node000099"><a xlink:href="actors_8c.html#a8c445675ccf4a4e5b084589b363f129d" target="_top" xlink:title=" ">
<polygon fill="white" stroke="#666666" points="271.5,-1181.5 179.5,-1181.5 179.5,-1162.5 271.5,-1162.5 271.5,-1181.5"/>
<text text-anchor="middle" x="225.5" y="-1169.5" font-family="Helvetica,sans-Serif" font-size="10.00">func_8029F2FC</text>
</a>
</g>
</g>
<!-- Node46&#45;&gt;Node99 -->
<g id="edge32_Node000046_Node000099" class="edge">
<title>Node46&#45;&gt;Node99</title>
<g id="a_edge32_Node000046_Node000099"><a xlink:title=" ">
<path fill="none" stroke="#63b8ff" d="M368.16,-765.65C362.77,-839.01 340.34,-1095.65 287,-1154 282.79,-1158.61 277.45,-1162.06 271.7,-1164.64"/>
<polygon fill="#63b8ff" stroke="#63b8ff" points="371.66,-765.73 368.88,-755.51 364.68,-765.23 371.66,-765.73"/>
</a>
</g>
</g>
<!-- Node100 -->
<g id="Node000100" class="node">
<title>Node100</title>
<g id="a_Node000100"><a xlink:href="actors_8c.html#a6c0c7ff521283f65486bac69b3e00e49" target="_top" xlink:title=" ">
<polygon fill="white" stroke="#666666" points="271.5,-1107.5 179.5,-1107.5 179.5,-1088.5 271.5,-1088.5 271.5,-1107.5"/>
<text text-anchor="middle" x="225.5" y="-1095.5" font-family="Helvetica,sans-Serif" font-size="10.00">func_8029F69C</text>
</a>
</g>
</g>
<!-- Node46&#45;&gt;Node100 -->
<g id="edge35_Node000046_Node000100" class="edge">
<title>Node46&#45;&gt;Node100</title>
<g id="a_edge35_Node000046_Node000100"><a xlink:title=" ">
<path fill="none" stroke="#63b8ff" d="M366.87,-766.04C358.16,-829.85 328.36,-1026.82 287,-1074 281.49,-1080.29 274.11,-1084.95 266.4,-1088.39"/>
<polygon fill="#63b8ff" stroke="#63b8ff" points="370.4,-766.12 368.26,-755.74 363.46,-765.19 370.4,-766.12"/>
</a>
</g>
</g>
<!-- Node101 -->
<g id="Node000101" class="node">
<title>Node101</title>
<g id="a_Node000101"><a xlink:href="actors_8c.html#acd2980ed4c1c875919300053577d6f2c" target="_top" xlink:title=" ">
<polygon fill="white" stroke="#666666" points="271.5,-993.5 179.5,-993.5 179.5,-974.5 271.5,-974.5 271.5,-993.5"/>
<text text-anchor="middle" x="225.5" y="-981.5" font-family="Helvetica,sans-Serif" font-size="10.00">func_802A00E8</text>
</a>
</g>
</g>
<!-- Node46&#45;&gt;Node101 -->
<g id="edge37_Node000046_Node000101" class="edge">
<title>Node46&#45;&gt;Node101</title>
<g id="a_edge37_Node000046_Node000101"><a xlink:title=" ">
<path fill="none" stroke="#63b8ff" d="M367.74,-765.94C362.89,-808.66 345.54,-909.65 287,-965 282.6,-969.16 277.3,-972.41 271.69,-974.95"/>
<polygon fill="#63b8ff" stroke="#63b8ff" points="371.22,-766.26 368.76,-755.95 364.26,-765.55 371.22,-766.26"/>
</a>
</g>
</g>
<!-- Node102 -->
<g id="Node000102" class="node">
<title>Node102</title>
<g id="a_Node000102"><a xlink:href="actors_8c.html#a0fff2a94adce284fb6e2ef36de0ba5a6" target="_top" xlink:title=" ">
<polygon fill="#fff0f0" stroke="red" points="110,-1012.5 18,-1012.5 18,-993.5 110,-993.5 110,-1012.5"/>
<text text-anchor="middle" x="64" y="-1000.5" font-family="Helvetica,sans-Serif" font-size="10.00">func_802A0350</text>
</a>
</g>
</g>
<!-- Node46&#45;&gt;Node102 -->
<g id="edge39_Node000046_Node000102" class="edge">
<title>Node46&#45;&gt;Node102</title>
<g id="a_edge39_Node000046_Node000102"><a xlink:title=" ">
<path fill="none" stroke="#63b8ff" d="M370.22,-765.77C370.83,-815.61 364.63,-946.39 287,-1003 229.23,-1045.13 138.62,-1026.2 93.09,-1012.58"/>
<polygon fill="#63b8ff" stroke="#63b8ff" points="373.72,-765.59 369.99,-755.68 366.72,-765.76 373.72,-765.59"/>
</a>
</g>
</g>
<!-- Node105 -->
<g id="Node000105" class="node">
<title>Node105</title>
<g id="a_Node000105"><a xlink:href="actors__extended_8c.html#a334de9136224947ca20e7d31fb009a82" target="_top" xlink:title=" ">
<polygon fill="#fff0f0" stroke="red" points="271.5,-328.5 179.5,-328.5 179.5,-309.5 271.5,-309.5 271.5,-328.5"/>
<text text-anchor="middle" x="225.5" y="-316.5" font-family="Helvetica,sans-Serif" font-size="10.00">func_802B4104</text>
</a>
</g>
</g>
<!-- Node46&#45;&gt;Node105 -->
<g id="edge41_Node000046_Node000105" class="edge">
<title>Node46&#45;&gt;Node105</title>
<g id="a_edge41_Node000046_Node000105"><a xlink:title=" ">
<path fill="none" stroke="#63b8ff" d="M368.17,-726.3C362.8,-652.76 340.45,-395.5 287,-337 282.79,-332.39 277.45,-328.94 271.7,-326.36"/>
<polygon fill="#63b8ff" stroke="#63b8ff" points="364.69,-726.74 368.88,-736.47 371.67,-726.25 364.69,-726.74"/>
</a>
</g>
</g>
<!-- Node108 -->
<g id="Node000108" class="node">
<title>Node108</title>
<g id="a_Node000108"><a xlink:href="falling__rocks_8inc_8c.html#a7476a0a7924f3878d39fb7b83f229779" target="_top" xlink:title=" ">
<polygon fill="#fff0f0" stroke="red" points="283.5,-956 167.5,-956 167.5,-926 283.5,-926 283.5,-956"/>
<text text-anchor="start" x="175.5" y="-944" font-family="Helvetica,sans-Serif" font-size="10.00">update_actor_falling</text>
<text text-anchor="middle" x="225.5" y="-933" font-family="Helvetica,sans-Serif" font-size="10.00">_rocks</text>
</a>
</g>
</g>
<!-- Node46&#45;&gt;Node108 -->
<g id="edge43_Node000046_Node000108" class="edge">
<title>Node46&#45;&gt;Node108</title>
<g id="a_edge43_Node000046_Node000108"><a xlink:title=" ">
<path fill="none" stroke="#63b8ff" d="M365.07,-765.51C356.18,-800.5 332.94,-874.25 287,-917 283.36,-920.39 279.18,-923.32 274.76,-925.85"/>
<polygon fill="#63b8ff" stroke="#63b8ff" points="368.52,-766.14 367.47,-755.6 361.72,-764.5 368.52,-766.14"/>
</a>
</g>
</g>
<!-- Node109 -->
<g id="Node000109" class="node">
<title>Node109</title>
<g id="a_Node000109"><a xlink:href="actors__extended_8c.html#a4fd275676bf11ca2e15556db08264a90" target="_top" xlink:title=" ">
<polygon fill="#fff0f0" stroke="red" points="282,-908 169,-908 169,-878 282,-878 282,-908"/>
<text text-anchor="start" x="177" y="-896" font-family="Helvetica,sans-Serif" font-size="10.00">update_actor_green</text>
<text text-anchor="middle" x="225.5" y="-885" font-family="Helvetica,sans-Serif" font-size="10.00">_shell</text>
</a>
</g>
</g>
<!-- Node46&#45;&gt;Node109 -->
<g id="edge44_Node000046_Node000109" class="edge">
<title>Node46&#45;&gt;Node109</title>
<g id="a_edge44_Node000046_Node000109"><a xlink:title=" ">
<path fill="none" stroke="#63b8ff" d="M361.18,-765.15C348.69,-791.84 322.69,-840.21 287,-869 282.78,-872.41 278.01,-875.38 273.06,-877.96"/>
<polygon fill="#63b8ff" stroke="#63b8ff" points="364.5,-766.31 365.43,-755.76 358.12,-763.42 364.5,-766.31"/>
</a>
</g>
</g>
<!-- Node110 -->
<g id="Node000110" class="node">
<title>Node110</title>
<g id="a_Node000110"><a xlink:href="actors_8c.html#a3a7c47d74c98d510346305b5c5ee3b9a" target="_top" xlink:title=" ">
<polygon fill="#fff0f0" stroke="red" points="287,-860 164,-860 164,-830 287,-830 287,-860"/>
<text text-anchor="start" x="172" y="-848" font-family="Helvetica,sans-Serif" font-size="10.00">update_actor_railroad</text>
<text text-anchor="middle" x="225.5" y="-837" font-family="Helvetica,sans-Serif" font-size="10.00">_crossing</text>
</a>
</g>
</g>
<!-- Node46&#45;&gt;Node110 -->
<g id="edge45_Node000046_Node000110" class="edge">
<title>Node46&#45;&gt;Node110</title>
<g id="a_edge45_Node000046_Node000110"><a xlink:title=" ">
<path fill="none" stroke="#63b8ff" d="M353.93,-763.4C338.33,-780 312.97,-804.8 287,-821 281.73,-824.29 275.93,-827.27 270.07,-829.93"/>
<polygon fill="#63b8ff" stroke="#63b8ff" points="356.56,-765.71 360.76,-755.99 351.41,-760.97 356.56,-765.71"/>
</a>
</g>
</g>
<!-- Node63&#45;&gt;Node71 -->
<g id="edge19_Node000063_Node000071" class="edge">
<title>Node63&#45;&gt;Node71</title>
<g id="a_edge19_Node000063_Node000071"><a xlink:title=" ">
<path fill="none" stroke="#63b8ff" d="M177.84,-789.32C173.11,-787.68 168.42,-785.9 164,-784 132.29,-770.38 97.95,-748.94 79.21,-736.61"/>
<polygon fill="#63b8ff" stroke="#63b8ff" points="176.95,-792.71 187.54,-792.5 179.13,-786.06 176.95,-792.71"/>
</a>
</g>
</g>
<!-- Node98&#45;&gt;Node40 -->
<g id="edge31_Node000098_Node000040" class="edge">
<title>Node98&#45;&gt;Node40</title>
<g id="a_edge31_Node000098_Node000040"><a xlink:title=" ">
<path fill="none" stroke="#63b8ff" d="M169.71,-1202.47C150.26,-1200.16 128.61,-1197.58 110.07,-1195.37"/>
<polygon fill="#63b8ff" stroke="#63b8ff" points="169.3,-1205.95 179.65,-1203.66 170.13,-1199 169.3,-1205.95"/>
</a>
</g>
</g>
<!-- Node99&#45;&gt;Node40 -->
<g id="edge33_Node000099_Node000040" class="edge">
<title>Node99&#45;&gt;Node40</title>
<g id="a_edge33_Node000099_Node000040"><a xlink:title=" ">
<path fill="none" stroke="#63b8ff" d="M169.07,-1178.26C149.8,-1180.43 128.44,-1182.84 110.12,-1184.91"/>
<polygon fill="#63b8ff" stroke="#63b8ff" points="169.68,-1181.71 179.22,-1177.11 168.89,-1174.75 169.68,-1181.71"/>
</a>
</g>
</g>
<!-- Node100&#45;&gt;Node40 -->
<g id="edge36_Node000100_Node000040" class="edge">
<title>Node100&#45;&gt;Node40</title>
<g id="a_edge36_Node000100_Node000040"><a xlink:title=" ">
<path fill="none" stroke="#63b8ff" d="M177.61,-1111C172.93,-1112.81 168.31,-1114.81 164,-1117 128.77,-1134.89 92.76,-1165.04 75.49,-1180.4"/>
<polygon fill="#63b8ff" stroke="#63b8ff" points="179.02,-1114.22 187.26,-1107.56 176.66,-1107.63 179.02,-1114.22"/>
</a>
</g>
</g>
<!-- Node101&#45;&gt;Node102 -->
<g id="edge38_Node000101_Node000102" class="edge">
<title>Node101&#45;&gt;Node102</title>
<g id="a_edge38_Node000101_Node000102"><a xlink:title=" ">
<path fill="none" stroke="#63b8ff" d="M169.07,-990.6C149.8,-992.9 128.44,-995.44 110.12,-997.63"/>
<polygon fill="#63b8ff" stroke="#63b8ff" points="169.7,-994.05 179.22,-989.39 168.88,-987.1 169.7,-994.05"/>
</a>
</g>
</g>
<!-- Node107 -->
<g id="Node000107" class="node">
<title>Node107</title>
<g id="a_Node000107"><a xlink:href="actors__extended_8c.html#a6e281ad692a9ccd329fa6840ad38afbc" target="_top" xlink:title=" ">
<polygon fill="#fff0f0" stroke="red" points="128,-297 0,-297 0,-267 128,-267 128,-297"/>
<text text-anchor="start" x="8" y="-285" font-family="Helvetica,sans-Serif" font-size="10.00">update_actor_red_blue</text>
<text text-anchor="middle" x="64" y="-274" font-family="Helvetica,sans-Serif" font-size="10.00">_shell</text>
</a>
</g>
</g>
<!-- Node105&#45;&gt;Node107 -->
<g id="edge42_Node000105_Node000107" class="edge">
<title>Node105&#45;&gt;Node107</title>
<g id="a_edge42_Node000105_Node000107"><a xlink:title=" ">
<path fill="none" stroke="#63b8ff" d="M173.27,-307.12C158.93,-303.79 143.18,-300.14 128.24,-296.67"/>
<polygon fill="#63b8ff" stroke="#63b8ff" points="172.89,-310.62 183.42,-309.47 174.47,-303.8 172.89,-310.62"/>
</a>
</g>
</g>
<!-- Node112 -->
<g id="Node000112" class="node">
<title>Node112</title>
<g id="a_Node000112"><a xlink:href="player__controller_8c.html#a841deb87f637e1f332b47980c5000299" target="_top" xlink:title=" ">
<polygon fill="#fff0f0" stroke="red" points="547,-680.5 454,-680.5 454,-661.5 547,-661.5 547,-680.5"/>
<text text-anchor="middle" x="500.5" y="-668.5" font-family="Helvetica,sans-Serif" font-size="10.00">func_80027DA8</text>
</a>
</g>
</g>
<!-- Node111&#45;&gt;Node112 -->
<g id="edge47_Node000111_Node000112" class="edge">
<title>Node111&#45;&gt;Node112</title>
<g id="a_edge47_Node000111_Node000112"><a xlink:title=" ">
<path fill="none" stroke="#63b8ff" d="M573.33,-681.18C564.66,-679.95 555.77,-678.69 547.34,-677.5"/>
<polygon fill="#63b8ff" stroke="#63b8ff" points="572.97,-684.67 583.37,-682.6 573.96,-677.73 572.97,-684.67"/>
</a>
</g>
</g>
<!-- Node113 -->
<g id="Node000113" class="node">
<title>Node113</title>
<g id="a_Node000113"><a xlink:href="external_8c.html#a9bc9f57fb83f73d37b56721df044d722" target="_top" xlink:title=" ">
<polygon fill="#fff0f0" stroke="red" points="546.5,-717.5 454.5,-717.5 454.5,-698.5 546.5,-698.5 546.5,-717.5"/>
<text text-anchor="middle" x="500.5" y="-705.5" font-family="Helvetica,sans-Serif" font-size="10.00">func_800C76C0</text>
</a>
</g>
</g>
<!-- Node111&#45;&gt;Node113 -->
<g id="edge48_Node000111_Node000113" class="edge">
<title>Node111&#45;&gt;Node113</title>
<g id="a_edge48_Node000111_Node000113"><a xlink:title=" ">
<path fill="none" stroke="#63b8ff" d="M573.2,-697.27C564.42,-698.59 555.43,-699.93 546.92,-701.21"/>
<polygon fill="#63b8ff" stroke="#63b8ff" points="573.99,-700.69 583.37,-695.75 572.96,-693.77 573.99,-700.69"/>
</a>
</g>
</g>
<!-- Node124&#45;&gt;Node51 -->
<g id="edge51_Node000124_Node000051" class="edge">
<title>Node124&#45;&gt;Node51</title>
<g id="a_edge51_Node000124_Node000051"><a xlink:title=" ">
<path fill="none" stroke="#63b8ff" d="M356.91,-186.76C342.14,-206.49 315.94,-238.18 287,-258 278.33,-263.94 267.97,-268.73 258.3,-272.42"/>
<polygon fill="#63b8ff" stroke="#63b8ff" points="359.79,-188.76 362.87,-178.62 354.14,-184.62 359.79,-188.76"/>
</a>
</g>
</g>
<!-- Node124&#45;&gt;Node107 -->
<g id="edge56_Node000124_Node000107" class="edge">
<title>Node124&#45;&gt;Node107</title>
<g id="a_edge56_Node000124_Node000107"><a xlink:title=" ">
<path fill="none" stroke="#63b8ff" d="M349.86,-184.83C333.8,-197.09 310.06,-213.65 287,-224 258.83,-236.64 183.39,-255.23 128.25,-267.94"/>
<polygon fill="#63b8ff" stroke="#63b8ff" points="352.2,-187.45 357.94,-178.54 347.9,-181.93 352.2,-187.45"/>
</a>
</g>
</g>
<!-- Node125 -->
<g id="Node000125" class="node">
<title>Node125</title>
<g id="a_Node000125"><a xlink:href="code__800029B0_8c.html#aa64b1458166c92a3575d8edd5948a628" target="_top" xlink:title=" ">
<polygon fill="#fff0f0" stroke="red" points="272.5,-215.5 178.5,-215.5 178.5,-196.5 272.5,-196.5 272.5,-215.5"/>
<text text-anchor="middle" x="225.5" y="-203.5" font-family="Helvetica,sans-Serif" font-size="10.00">func_80002DAC</text>
</a>
</g>
</g>
<!-- Node124&#45;&gt;Node125 -->
<g id="edge50_Node000124_Node000125" class="edge">
<title>Node124&#45;&gt;Node125</title>
<g id="a_edge50_Node000124_Node000125"><a xlink:title=" ">
<path fill="none" stroke="#63b8ff" d="M322.92,-181.05C303.73,-186.02 281.79,-191.69 263.7,-196.38"/>
<polygon fill="#63b8ff" stroke="#63b8ff" points="323.87,-184.42 332.67,-178.53 322.12,-177.64 323.87,-184.42"/>
</a>
</g>
</g>
<!-- Node127 -->
<g id="Node000127" class="node">
<title>Node127</title>
<g id="a_Node000127"><a xlink:href="code__80071F00_8c.html#a401992e1c9638d1a48190456bd7af9a3" target="_top" xlink:title=" ">
<polygon fill="#fff0f0" stroke="red" points="271.5,-178.5 179.5,-178.5 179.5,-159.5 271.5,-159.5 271.5,-178.5"/>
<text text-anchor="middle" x="225.5" y="-166.5" font-family="Helvetica,sans-Serif" font-size="10.00">func_8007601C</text>
</a>
</g>
</g>
<!-- Node124&#45;&gt;Node127 -->
<g id="edge52_Node000124_Node000127" class="edge">
<title>Node124&#45;&gt;Node127</title>
<g id="a_edge52_Node000124_Node000127"><a xlink:title=" ">
<path fill="none" stroke="#63b8ff" d="M313.47,-169C299.62,-169 284.96,-169 271.71,-169"/>
<polygon fill="#63b8ff" stroke="#63b8ff" points="313.86,-172.5 323.86,-169 313.86,-165.5 313.86,-172.5"/>
</a>
</g>
</g>
<!-- Node130 -->
<g id="Node000130" class="node">
<title>Node130</title>
<g id="a_Node000130"><a xlink:href="code__80071F00_8c.html#a269298ce38d852af33c677ae12781528" target="_top" xlink:title=" ">
<polygon fill="#fff0f0" stroke="red" points="271.5,-141.5 179.5,-141.5 179.5,-122.5 271.5,-122.5 271.5,-141.5"/>
<text text-anchor="middle" x="225.5" y="-129.5" font-family="Helvetica,sans-Serif" font-size="10.00">func_8007661C</text>
</a>
</g>
</g>
<!-- Node124&#45;&gt;Node130 -->
<g id="edge53_Node000124_Node000130" class="edge">
<title>Node124&#45;&gt;Node130</title>
<g id="a_edge53_Node000124_Node000130"><a xlink:title=" ">
<path fill="none" stroke="#63b8ff" d="M322.92,-156.95C303.73,-151.98 281.79,-146.31 263.7,-141.62"/>
<polygon fill="#63b8ff" stroke="#63b8ff" points="322.12,-160.36 332.67,-159.47 323.87,-153.58 322.12,-160.36"/>
</a>
</g>
</g>
<!-- Node131 -->
<g id="Node000131" class="node">
<title>Node131</title>
<g id="a_Node000131"><a xlink:href="code__80071F00_8c.html#aee48f5ac3342922cbf8cd98976679dad" target="_top" xlink:title=" ">
<polygon fill="#fff0f0" stroke="red" points="273,-104.5 178,-104.5 178,-85.5 273,-85.5 273,-104.5"/>
<text text-anchor="middle" x="225.5" y="-92.5" font-family="Helvetica,sans-Serif" font-size="10.00">func_8007DDC0</text>
</a>
</g>
</g>
<!-- Node124&#45;&gt;Node131 -->
<g id="edge54_Node000124_Node000131" class="edge">
<title>Node124&#45;&gt;Node131</title>
<g id="a_edge54_Node000124_Node000131"><a xlink:title=" ">
<path fill="none" stroke="#63b8ff" d="M349.81,-153.07C333.72,-140.71 309.96,-123.89 287,-113 280.17,-109.76 272.62,-106.96 265.25,-104.6"/>
<polygon fill="#63b8ff" stroke="#63b8ff" points="347.88,-156 357.91,-159.42 352.19,-150.49 347.88,-156"/>
</a>
</g>
</g>
<!-- Node132 -->
<g id="Node000132" class="node">
<title>Node132</title>
<g id="a_Node000132"><a xlink:href="code__80071F00_8c.html#a6c7938339fa5406ffe336278a92aa7ad" target="_top" xlink:title=" ">
<polygon fill="#fff0f0" stroke="red" points="271,-67.5 180,-67.5 180,-48.5 271,-48.5 271,-67.5"/>
<text text-anchor="middle" x="225.5" y="-55.5" font-family="Helvetica,sans-Serif" font-size="10.00">func_8007E1F4</text>
</a>
</g>
</g>
<!-- Node124&#45;&gt;Node132 -->
<g id="edge55_Node000124_Node000132" class="edge">
<title>Node124&#45;&gt;Node132</title>
<g id="a_edge55_Node000124_Node000132"><a xlink:title=" ">
<path fill="none" stroke="#63b8ff" d="M358.05,-150.86C343.86,-129.85 317.76,-95.6 287,-76 281.64,-72.59 275.6,-69.79 269.47,-67.52"/>
<polygon fill="#63b8ff" stroke="#63b8ff" points="355.13,-152.79 363.54,-159.24 360.98,-148.95 355.13,-152.79"/>
</a>
</g>
</g>
<!-- Node134 -->
<g id="Node000134" class="node">
<title>Node134</title>
<g id="a_Node000134"><a xlink:href="train_8inc_8c.html#a7a57fd958ad862c81447e812d25614bc" target="_top" xlink:title=" ">
<polygon fill="#fff0f0" stroke="red" points="279.5,-30 171.5,-30 171.5,0 279.5,0 279.5,-30"/>
<text text-anchor="start" x="179.5" y="-18" font-family="Helvetica,sans-Serif" font-size="10.00">update_actor_train</text>
<text text-anchor="middle" x="225.5" y="-7" font-family="Helvetica,sans-Serif" font-size="10.00">_engine</text>
</a>
</g>
</g>
<!-- Node124&#45;&gt;Node134 -->
<g id="edge57_Node000124_Node000134" class="edge">
<title>Node124&#45;&gt;Node134</title>
<g id="a_edge57_Node000124_Node000134"><a xlink:title=" ">
<path fill="none" stroke="#63b8ff" d="M361.98,-149.96C350.05,-122 324.25,-69.83 287,-39 282.91,-35.61 278.28,-32.66 273.45,-30.1"/>
<polygon fill="#63b8ff" stroke="#63b8ff" points="358.82,-151.48 365.87,-159.39 365.29,-148.81 358.82,-151.48"/>
</a>
</g>
</g>
<!-- Node136 -->
<g id="Node000136" class="node">
<title>Node136</title>
<g id="a_Node000136"><a xlink:href="code__8008C1D0_8c.html#a2599648339bb4149c4d55e673795e974" target="_top" xlink:title=" ">
<polygon fill="#fff0f0" stroke="red" points="546,-604.5 455,-604.5 455,-585.5 546,-585.5 546,-604.5"/>
<text text-anchor="middle" x="500.5" y="-592.5" font-family="Helvetica,sans-Serif" font-size="10.00">func_8008F778</text>
</a>
</g>
</g>
<!-- Node135&#45;&gt;Node136 -->
<g id="edge59_Node000135_Node000136" class="edge">
<title>Node135&#45;&gt;Node136</title>
<g id="a_edge59_Node000135_Node000136"><a xlink:title=" ">
<path fill="none" stroke="#63b8ff" d="M573.25,-595C564.16,-595 554.84,-595 546.06,-595"/>
<polygon fill="#63b8ff" stroke="#63b8ff" points="573.37,-598.5 583.37,-595 573.37,-591.5 573.37,-598.5"/>
</a>
</g>
</g>
</g>
</svg>
