<?xml version="1.0" encoding="UTF-8" standalone="no"?>
<!DOCTYPE svg PUBLIC "-//W3C//DTD SVG 1.1//EN"
 "http://www.w3.org/Graphics/SVG/1.1/DTD/svg11.dtd">
<!-- Generated by graphviz version 2.43.0 (0)
 -->
<!-- Title: update_actor_fake_item_box Pages: 1 -->
<svg width="1045pt" height="230pt"
 viewBox="0.00 0.00 1045.00 230.00" xmlns="http://www.w3.org/2000/svg" xmlns:xlink="http://www.w3.org/1999/xlink">
<g id="graph0" class="graph" transform="scale(1 1) rotate(0) translate(4 226)">
<title>update_actor_fake_item_box</title>
<!-- Node1 -->
<g id="Node000001" class="node">
<title>Node1</title>
<g id="a_Node000001"><a xlink:title=" ">
<polygon fill="#999999" stroke="#666666" points="158,-111 0,-111 0,-92 158,-92 158,-111"/>
<text text-anchor="middle" x="79" y="-99" font-family="Helvetica,sans-Serif" font-size="10.00">update_actor_fake_item_box</text>
</a>
</g>
</g>
<!-- Node2 -->
<g id="Node000002" class="node">
<title>Node2</title>
<g id="a_Node000002"><a xlink:href="actors_8c.html#a694ec6ef7548b8618aeb35c038d3a9b9" target="_top" xlink:title=" ">
<polygon fill="white" stroke="#666666" points="283,-204 200,-204 200,-185 283,-185 283,-204"/>
<text text-anchor="middle" x="241.5" y="-192" font-family="Helvetica,sans-Serif" font-size="10.00">destroy_actor</text>
</a>
</g>
</g>
<!-- Node1&#45;&gt;Node2 -->
<g id="edge1_Node000001_Node000002" class="edge">
<title>Node1&#45;&gt;Node2</title>
<g id="a_edge1_Node000001_Node000002"><a xlink:title=" ">
<path fill="none" stroke="#63b8ff" d="M92.78,-111.22C113.31,-126.53 155.25,-156.54 194,-176.5 197.1,-178.09 200.37,-179.63 203.68,-181.09"/>
<polygon fill="#63b8ff" stroke="#63b8ff" points="202.45,-184.37 213.03,-184.98 205.14,-177.91 202.45,-184.37"/>
</a>
</g>
</g>
<!-- Node12 -->
<g id="Node000012" class="node">
<title>Node12</title>
<g id="a_Node000012"><a xlink:href="external_8c.html#a2be9efc97a92e19d02aaee90d676acc1" target="_top" xlink:title=" ">
<polygon fill="white" stroke="#666666" points="287.5,-167 195.5,-167 195.5,-148 287.5,-148 287.5,-167"/>
<text text-anchor="middle" x="241.5" y="-155" font-family="Helvetica,sans-Serif" font-size="10.00">func_800C9060</text>
</a>
</g>
</g>
<!-- Node1&#45;&gt;Node12 -->
<g id="edge11_Node000001_Node000012" class="edge">
<title>Node1&#45;&gt;Node12</title>
<g id="a_edge11_Node000001_Node000012"><a xlink:title=" ">
<path fill="none" stroke="#63b8ff" d="M107.59,-111.13C134.16,-120.4 174.53,-134.48 203.8,-144.7"/>
<polygon fill="#63b8ff" stroke="#63b8ff" points="202.67,-148.01 213.27,-148 204.98,-141.4 202.67,-148.01"/>
</a>
</g>
</g>
<!-- Node14 -->
<g id="Node000014" class="node">
<title>Node14</title>
<g id="a_Node000014"><a xlink:href="actors_8c.html#aa69562a03d97fa7b0b040009f5351776" target="_top" xlink:title=" ">
<polygon fill="white" stroke="#666666" points="287.5,-130 195.5,-130 195.5,-111 287.5,-111 287.5,-130"/>
<text text-anchor="middle" x="241.5" y="-118" font-family="Helvetica,sans-Serif" font-size="10.00">func_802A1064</text>
</a>
</g>
</g>
<!-- Node1&#45;&gt;Node14 -->
<g id="edge13_Node000001_Node000014" class="edge">
<title>Node1&#45;&gt;Node14</title>
<g id="a_edge13_Node000001_Node000014"><a xlink:title=" ">
<path fill="none" stroke="#63b8ff" d="M158.37,-110.78C167.52,-111.86 176.7,-112.95 185.44,-113.98"/>
<polygon fill="#63b8ff" stroke="#63b8ff" points="185.13,-117.47 195.47,-115.17 185.95,-110.52 185.13,-117.47"/>
</a>
</g>
</g>
<!-- Node17 -->
<g id="Node000017" class="node">
<title>Node17</title>
<g id="a_Node000017"><a xlink:href="collision_8c.html#a365367628b7140a7a880beeecce9c305" target="_top" xlink:title=" ">
<polygon fill="white" stroke="#666666" points="289,-93 194,-93 194,-74 289,-74 289,-93"/>
<text text-anchor="middle" x="241.5" y="-81" font-family="Helvetica,sans-Serif" font-size="10.00">func_802ADDC8</text>
</a>
</g>
</g>
<!-- Node1&#45;&gt;Node17 -->
<g id="edge16_Node000001_Node000017" class="edge">
<title>Node1&#45;&gt;Node17</title>
<g id="a_edge16_Node000001_Node000017"><a xlink:title=" ">
<path fill="none" stroke="#63b8ff" d="M158.37,-92.71C166.87,-91.76 175.41,-90.8 183.58,-89.88"/>
<polygon fill="#63b8ff" stroke="#63b8ff" points="184.18,-93.34 193.73,-88.75 183.4,-86.38 184.18,-93.34"/>
</a>
</g>
</g>
<!-- Node21 -->
<g id="Node000021" class="node">
<title>Node21</title>
<g id="a_Node000021"><a xlink:href="actors__extended_8c.html#a78e98c146f1f4dd6e3608016486172a4" target="_top" xlink:title=" ">
<polygon fill="white" stroke="#666666" points="287.5,-56 195.5,-56 195.5,-37 287.5,-37 287.5,-56"/>
<text text-anchor="middle" x="241.5" y="-44" font-family="Helvetica,sans-Serif" font-size="10.00">func_802B4E30</text>
</a>
</g>
</g>
<!-- Node1&#45;&gt;Node21 -->
<g id="edge20_Node000001_Node000021" class="edge">
<title>Node1&#45;&gt;Node21</title>
<g id="a_edge20_Node000001_Node000021"><a xlink:title=" ">
<path fill="none" stroke="#63b8ff" d="M107.96,-91.92C134.23,-82.92 173.74,-69.38 202.79,-59.42"/>
<polygon fill="#63b8ff" stroke="#63b8ff" points="204.27,-62.62 212.59,-56.06 202,-55.99 204.27,-62.62"/>
</a>
</g>
</g>
<!-- Node22 -->
<g id="Node000022" class="node">
<title>Node22</title>
<g id="a_Node000022"><a xlink:href="math_8h.html#a37bde043e94a6f074c78f10518fb5d99" target="_top" xlink:title=" ">
<polygon fill="white" stroke="#666666" points="261,-19 222,-19 222,0 261,0 261,-19"/>
<text text-anchor="middle" x="241.5" y="-7" font-family="Helvetica,sans-Serif" font-size="10.00">sqrtf</text>
</a>
</g>
</g>
<!-- Node1&#45;&gt;Node22 -->
<g id="edge21_Node000001_Node000022" class="edge">
<title>Node1&#45;&gt;Node22</title>
<g id="a_edge21_Node000001_Node000022"><a xlink:title=" ">
<path fill="none" stroke="#63b8ff" d="M92.81,-91.92C113.36,-76.84 155.34,-47.26 194,-27.5 199.63,-24.62 205.83,-21.92 211.82,-19.53"/>
<polygon fill="#63b8ff" stroke="#63b8ff" points="213.46,-22.65 221.56,-15.82 210.97,-16.11 213.46,-22.65"/>
</a>
</g>
</g>
<!-- Node3 -->
<g id="Node000003" class="node">
<title>Node3</title>
<g id="a_Node000003"><a xlink:href="actors_8c.html#ad5a56c8f7eaf719223099cce9e38ec9f" target="_top" xlink:title=" ">
<polygon fill="white" stroke="#666666" points="476,-204 325,-204 325,-185 476,-185 476,-204"/>
<text text-anchor="middle" x="400.5" y="-192" font-family="Helvetica,sans-Serif" font-size="10.00">play_sound_before_destroy</text>
</a>
</g>
</g>
<!-- Node2&#45;&gt;Node3 -->
<g id="edge2_Node000002_Node000003" class="edge">
<title>Node2&#45;&gt;Node3</title>
<g id="a_edge2_Node000002_Node000003"><a xlink:title=" ">
<path fill="none" stroke="#63b8ff" d="M283.34,-194.5C293.08,-194.5 303.83,-194.5 314.75,-194.5"/>
<polygon fill="#63b8ff" stroke="#63b8ff" points="314.79,-198 324.79,-194.5 314.79,-191 314.79,-198"/>
</a>
</g>
</g>
<!-- Node4 -->
<g id="Node000004" class="node">
<title>Node4</title>
<g id="a_Node000004"><a xlink:href="external_8c.html#ae72057869772019e4464c87d4e16c682" target="_top" xlink:title=" ">
<polygon fill="white" stroke="#666666" points="604,-204 512,-204 512,-185 604,-185 604,-204"/>
<text text-anchor="middle" x="558" y="-192" font-family="Helvetica,sans-Serif" font-size="10.00">func_800C99E0</text>
</a>
</g>
</g>
<!-- Node3&#45;&gt;Node4 -->
<g id="edge3_Node000003_Node000004" class="edge">
<title>Node3&#45;&gt;Node4</title>
<g id="a_edge3_Node000003_Node000004"><a xlink:title=" ">
<path fill="none" stroke="#63b8ff" d="M476.06,-194.5C484.61,-194.5 493.21,-194.5 501.45,-194.5"/>
<polygon fill="#63b8ff" stroke="#63b8ff" points="501.66,-198 511.66,-194.5 501.66,-191 501.66,-198"/>
</a>
</g>
</g>
<!-- Node5 -->
<g id="Node000005" class="node">
<title>Node5</title>
<g id="a_Node000005"><a xlink:href="external_8c.html#aeb87c527482a244173df36a1f3d4f446" target="_top" xlink:title=" ">
<polygon fill="white" stroke="#666666" points="732,-222 640,-222 640,-203 732,-203 732,-222"/>
<text text-anchor="middle" x="686" y="-210" font-family="Helvetica,sans-Serif" font-size="10.00">func_800C21E8</text>
</a>
</g>
</g>
<!-- Node4&#45;&gt;Node5 -->
<g id="edge4_Node000004_Node000005" class="edge">
<title>Node4&#45;&gt;Node5</title>
<g id="a_edge4_Node000004_Node000005"><a xlink:title=" ">
<path fill="none" stroke="#63b8ff" d="M604.13,-200.95C612.46,-202.14 621.23,-203.39 629.81,-204.62"/>
<polygon fill="#63b8ff" stroke="#63b8ff" points="629.36,-208.09 639.76,-206.04 630.35,-201.16 629.36,-208.09"/>
</a>
</g>
</g>
<!-- Node6 -->
<g id="Node000006" class="node">
<title>Node6</title>
<g id="a_Node000006"><a xlink:href="external_8c.html#a028d40421b90c38f68ebfd5acc626f2e" target="_top" xlink:title=" ">
<polygon fill="white" stroke="#666666" points="732,-185 640,-185 640,-166 732,-166 732,-185"/>
<text text-anchor="middle" x="686" y="-173" font-family="Helvetica,sans-Serif" font-size="10.00">func_800C5578</text>
</a>
</g>
</g>
<!-- Node4&#45;&gt;Node6 -->
<g id="edge5_Node000004_Node000006" class="edge">
<title>Node4&#45;&gt;Node6</title>
<g id="a_edge5_Node000004_Node000006"><a xlink:title=" ">
<path fill="none" stroke="#63b8ff" d="M604.13,-187.69C612.46,-186.44 621.23,-185.12 629.81,-183.82"/>
<polygon fill="#63b8ff" stroke="#63b8ff" points="630.39,-187.27 639.76,-182.32 629.35,-180.35 630.39,-187.27"/>
</a>
</g>
</g>
<!-- Node7 -->
<g id="Node000007" class="node">
<title>Node7</title>
<g id="a_Node000007"><a xlink:href="external_8c.html#ac0fb767de7e14a03f1bcfa53f0abd23b" target="_top" xlink:title=" ">
<polygon fill="white" stroke="#666666" points="908,-222 768,-222 768,-203 908,-203 908,-222"/>
<text text-anchor="middle" x="838" y="-210" font-family="Helvetica,sans-Serif" font-size="10.00">delete_sound_from_bank</text>
</a>
</g>
</g>
<!-- Node6&#45;&gt;Node7 -->
<g id="edge6_Node000006_Node000007" class="edge">
<title>Node6&#45;&gt;Node7</title>
<g id="a_edge6_Node000006_Node000007"><a xlink:title=" ">
<path fill="none" stroke="#63b8ff" d="M725.63,-185.03C744.8,-189.76 768.16,-195.52 788.52,-200.54"/>
<polygon fill="#63b8ff" stroke="#63b8ff" points="787.69,-203.94 798.24,-202.94 789.37,-197.15 787.69,-203.94"/>
</a>
</g>
</g>
<!-- Node9 -->
<g id="Node000009" class="node">
<title>Node9</title>
<g id="a_Node000009"><a xlink:href="external_8c.html#ab83bd36e63f0f1baddcb2482b5ad31b0" target="_top" xlink:title=" ">
<polygon fill="white" stroke="#666666" points="884.5,-185 791.5,-185 791.5,-166 884.5,-166 884.5,-185"/>
<text text-anchor="middle" x="838" y="-173" font-family="Helvetica,sans-Serif" font-size="10.00">func_800C41CC</text>
</a>
</g>
</g>
<!-- Node6&#45;&gt;Node9 -->
<g id="edge8_Node000006_Node000009" class="edge">
<title>Node6&#45;&gt;Node9</title>
<g id="a_edge8_Node000006_Node000009"><a xlink:title=" ">
<path fill="none" stroke="#63b8ff" d="M732,-175.5C747.37,-175.5 764.74,-175.5 780.86,-175.5"/>
<polygon fill="#63b8ff" stroke="#63b8ff" points="781.25,-179 791.25,-175.5 781.25,-172 781.25,-179"/>
</a>
</g>
</g>
<!-- Node10 -->
<g id="Node000010" class="node">
<title>Node10</title>
<g id="a_Node000010"><a xlink:href="port__eu_8c.html#aa89dfaecca46c6d071f08c1898d1f7c9" target="_top" xlink:title=" ">
<polygon fill="white" stroke="#666666" points="884.5,-148 791.5,-148 791.5,-129 884.5,-129 884.5,-148"/>
<text text-anchor="middle" x="838" y="-136" font-family="Helvetica,sans-Serif" font-size="10.00">func_800CBBE8</text>
</a>
</g>
</g>
<!-- Node6&#45;&gt;Node10 -->
<g id="edge9_Node000006_Node000010" class="edge">
<title>Node6&#45;&gt;Node10</title>
<g id="a_edge9_Node000006_Node000010"><a xlink:title=" ">
<path fill="none" stroke="#63b8ff" d="M725.63,-165.97C744.8,-161.24 768.16,-155.48 788.52,-150.46"/>
<polygon fill="#63b8ff" stroke="#63b8ff" points="789.37,-153.85 798.24,-148.06 787.69,-147.06 789.37,-153.85"/>
</a>
</g>
</g>
<!-- Node8 -->
<g id="Node000008" class="node">
<title>Node8</title>
<g id="a_Node000008"><a xlink:href="external_8c.html#a358ac55e8ab5262dcae8037334be06d7" target="_top" xlink:title=" ">
<polygon fill="white" stroke="#666666" points="1036.5,-222 944.5,-222 944.5,-203 1036.5,-203 1036.5,-222"/>
<text text-anchor="middle" x="990.5" y="-210" font-family="Helvetica,sans-Serif" font-size="10.00">func_800C40F0</text>
</a>
</g>
</g>
<!-- Node7&#45;&gt;Node8 -->
<g id="edge7_Node000007_Node000008" class="edge">
<title>Node7&#45;&gt;Node8</title>
<g id="a_edge7_Node000007_Node000008"><a xlink:title=" ">
<path fill="none" stroke="#63b8ff" d="M908.08,-212.5C916.87,-212.5 925.78,-212.5 934.31,-212.5"/>
<polygon fill="#63b8ff" stroke="#63b8ff" points="934.5,-216 944.5,-212.5 934.5,-209 934.5,-216"/>
</a>
</g>
</g>
<!-- Node11 -->
<g id="Node000011" class="node">
<title>Node11</title>
<g id="a_Node000011"><a xlink:href="port__eu_8c.html#af361a20d2e08f30c53a237ca481ff734" target="_top" xlink:title=" ">
<polygon fill="white" stroke="#666666" points="1037,-148 944,-148 944,-129 1037,-129 1037,-148"/>
<text text-anchor="middle" x="990.5" y="-136" font-family="Helvetica,sans-Serif" font-size="10.00">func_800CBB48</text>
</a>
</g>
</g>
<!-- Node10&#45;&gt;Node11 -->
<g id="edge10_Node000010_Node000011" class="edge">
<title>Node10&#45;&gt;Node11</title>
<g id="a_edge10_Node000010_Node000011"><a xlink:title=" ">
<path fill="none" stroke="#63b8ff" d="M884.56,-138.5C899.96,-138.5 917.34,-138.5 933.46,-138.5"/>
<polygon fill="#63b8ff" stroke="#63b8ff" points="933.83,-142 943.83,-138.5 933.83,-135 933.83,-142"/>
</a>
</g>
</g>
<!-- Node13 -->
<g id="Node000013" class="node">
<title>Node13</title>
<g id="a_Node000013"><a xlink:href="external_8c.html#a4227847f3da303aee53cf69d2760a595" target="_top" xlink:title=" ">
<polygon fill="white" stroke="#666666" points="436.5,-167 364.5,-167 364.5,-148 436.5,-148 436.5,-167"/>
<text text-anchor="middle" x="400.5" y="-155" font-family="Helvetica,sans-Serif" font-size="10.00">play_sound</text>
</a>
</g>
</g>
<!-- Node12&#45;&gt;Node13 -->
<g id="edge12_Node000012_Node000013" class="edge">
<title>Node12&#45;&gt;Node13</title>
<g id="a_edge12_Node000012_Node000013"><a xlink:title=" ">
<path fill="none" stroke="#63b8ff" d="M287.91,-157.5C308.75,-157.5 333.4,-157.5 354.22,-157.5"/>
<polygon fill="#63b8ff" stroke="#63b8ff" points="354.41,-161 364.41,-157.5 354.41,-154 354.41,-161"/>
</a>
</g>
</g>
<!-- Node15 -->
<g id="Node000015" class="node">
<title>Node15</title>
<g id="a_Node000015"><a xlink:href="collision_8c.html#a503b45bd1853c2a4915ce6122dfef91c" target="_top" xlink:title=" ">
<polygon fill="white" stroke="#666666" points="447.5,-130 353.5,-130 353.5,-111 447.5,-111 447.5,-130"/>
<text text-anchor="middle" x="400.5" y="-118" font-family="Helvetica,sans-Serif" font-size="10.00">func_802ABEAC</text>
</a>
</g>
</g>
<!-- Node14&#45;&gt;Node15 -->
<g id="edge14_Node000014_Node000015" class="edge">
<title>Node14&#45;&gt;Node15</title>
<g id="a_edge14_Node000014_Node000015"><a xlink:title=" ">
<path fill="none" stroke="#63b8ff" d="M287.91,-120.5C305.18,-120.5 325.06,-120.5 343.21,-120.5"/>
<polygon fill="#63b8ff" stroke="#63b8ff" points="343.37,-124 353.37,-120.5 343.37,-117 343.37,-124"/>
</a>
</g>
</g>
<!-- Node16 -->
<g id="Node000016" class="node">
<title>Node16</title>
<g id="a_Node000016"><a xlink:href="collision_8c.html#afa1243eb9b3a14bc92434a8a19c162be" target="_top" xlink:title=" ">
<polygon fill="white" stroke="#666666" points="604,-130 512,-130 512,-111 604,-111 604,-130"/>
<text text-anchor="middle" x="558" y="-118" font-family="Helvetica,sans-Serif" font-size="10.00">func_802ABE30</text>
</a>
</g>
</g>
<!-- Node15&#45;&gt;Node16 -->
<g id="edge15_Node000015_Node000016" class="edge">
<title>Node15&#45;&gt;Node16</title>
<g id="a_edge15_Node000015_Node000016"><a xlink:title=" ">
<path fill="none" stroke="#63b8ff" d="M447.73,-120.5C464.65,-120.5 483.96,-120.5 501.59,-120.5"/>
<polygon fill="#63b8ff" stroke="#63b8ff" points="501.75,-124 511.75,-120.5 501.75,-117 501.75,-124"/>
</a>
</g>
</g>
<!-- Node18 -->
<g id="Node000018" class="node">
<title>Node18</title>
<g id="a_Node000018"><a xlink:href="collision_8c.html#afce45acb8da354da0a5b501003be1aef" target="_top" xlink:title=" ">
<polygon fill="white" stroke="#666666" points="447,-93 354,-93 354,-74 447,-74 447,-93"/>
<text text-anchor="middle" x="400.5" y="-81" font-family="Helvetica,sans-Serif" font-size="10.00">func_802AAE4C</text>
</a>
</g>
</g>
<!-- Node17&#45;&gt;Node18 -->
<g id="edge17_Node000017_Node000018" class="edge">
<title>Node17&#45;&gt;Node18</title>
<g id="a_edge17_Node000017_Node000018"><a xlink:title=" ">
<path fill="none" stroke="#63b8ff" d="M289.18,-83.5C306.26,-83.5 325.75,-83.5 343.55,-83.5"/>
<polygon fill="#63b8ff" stroke="#63b8ff" points="343.81,-87 353.81,-83.5 343.81,-80 343.81,-87"/>
</a>
</g>
</g>
<!-- Node19 -->
<g id="Node000019" class="node">
<title>Node19</title>
<g id="a_Node000019"><a xlink:href="collision_8c.html#adcc608ea0eae3bf9a27ab79ec64b4899" target="_top" xlink:title=" ">
<polygon fill="white" stroke="#666666" points="446.5,-56 354.5,-56 354.5,-37 446.5,-37 446.5,-56"/>
<text text-anchor="middle" x="400.5" y="-44" font-family="Helvetica,sans-Serif" font-size="10.00">func_802AB288</text>
</a>
</g>
</g>
<!-- Node17&#45;&gt;Node19 -->
<g id="edge18_Node000017_Node000019" class="edge">
<title>Node17&#45;&gt;Node19</title>
<g id="a_edge18_Node000017_Node000019"><a xlink:title=" ">
<path fill="none" stroke="#63b8ff" d="M282.93,-73.97C303.09,-69.22 327.67,-63.43 349.05,-58.39"/>
<polygon fill="#63b8ff" stroke="#63b8ff" points="350,-61.76 358.93,-56.06 348.4,-54.95 350,-61.76"/>
</a>
</g>
</g>
<!-- Node20 -->
<g id="Node000020" class="node">
<title>Node20</title>
<g id="a_Node000020"><a xlink:href="collision_8c.html#ab440aa3fc960b7b4b5ad8e4bcaa06b00" target="_top" xlink:title=" ">
<polygon fill="white" stroke="#666666" points="447,-19 354,-19 354,0 447,0 447,-19"/>
<text text-anchor="middle" x="400.5" y="-7" font-family="Helvetica,sans-Serif" font-size="10.00">func_802AB6C4</text>
</a>
</g>
</g>
<!-- Node17&#45;&gt;Node20 -->
<g id="edge19_Node000017_Node000020" class="edge">
<title>Node17&#45;&gt;Node20</title>
<g id="a_edge19_Node000017_Node000020"><a xlink:title=" ">
<path fill="none" stroke="#63b8ff" d="M271.48,-73.82C277.51,-71.22 283.65,-68.11 289,-64.5 308.02,-51.67 305.07,-38.86 325,-27.5 330.9,-24.14 337.41,-21.4 344.06,-19.17"/>
<polygon fill="#63b8ff" stroke="#63b8ff" points="345.25,-22.47 353.83,-16.26 343.25,-15.76 345.25,-22.47"/>
</a>
</g>
</g>
</g>
</svg>
