<?xml version="1.0" encoding="UTF-8" standalone="no"?>
<!DOCTYPE svg PUBLIC "-//W3C//DTD SVG 1.1//EN"
 "http://www.w3.org/Graphics/SVG/1.1/DTD/svg11.dtd">
<!-- Generated by graphviz version 2.43.0 (0)
 -->
<!-- Title: render_actor_green_shell Pages: 1 -->
<svg width="1001pt" height="360pt"
 viewBox="0.00 0.00 1001.00 359.50" xmlns="http://www.w3.org/2000/svg" xmlns:xlink="http://www.w3.org/1999/xlink">
<g id="graph0" class="graph" transform="scale(1 1) rotate(0) translate(4 355.5)">
<title>render_actor_green_shell</title>
<!-- Node1 -->
<g id="Node000001" class="node">
<title>Node1</title>
<g id="a_Node000001"><a xlink:title=" ">
<polygon fill="#999999" stroke="#666666" points="111,-270.5 0,-270.5 0,-240.5 111,-240.5 111,-270.5"/>
<text text-anchor="start" x="8" y="-258.5" font-family="Helvetica,sans-Serif" font-size="10.00">render_actor_green</text>
<text text-anchor="middle" x="55.5" y="-247.5" font-family="Helvetica,sans-Serif" font-size="10.00">_shell</text>
</a>
</g>
</g>
<!-- Node2 -->
<g id="Node000002" class="node">
<title>Node2</title>
<g id="a_Node000002"><a xlink:href="actors_8c.html#a244363eb20e950ed94944be1c768a37c" target="_top" xlink:title=" ">
<polygon fill="white" stroke="#666666" points="254,-265 147,-265 147,-246 254,-246 254,-265"/>
<text text-anchor="middle" x="200.5" y="-253" font-family="Helvetica,sans-Serif" font-size="10.00">render_actor_shell</text>
</a>
</g>
</g>
<!-- Node1&#45;&gt;Node2 -->
<g id="edge1_Node000001_Node000002" class="edge">
<title>Node1&#45;&gt;Node2</title>
<g id="a_edge1_Node000001_Node000002"><a xlink:title=" ">
<path fill="none" stroke="#63b8ff" d="M111.38,-255.5C119.67,-255.5 128.27,-255.5 136.71,-255.5"/>
<polygon fill="#63b8ff" stroke="#63b8ff" points="136.89,-259 146.89,-255.5 136.89,-252 136.89,-259"/>
</a>
</g>
</g>
<!-- Node3 -->
<g id="Node000003" class="node">
<title>Node3</title>
<g id="a_Node000003"><a xlink:href="actors_8c.html#a722f21cf5d8bd9594d7f461abc7c0350" target="_top" xlink:title=" ">
<polygon fill="white" stroke="#666666" points="422.5,-351.5 306.5,-351.5 306.5,-321.5 422.5,-321.5 422.5,-351.5"/>
<text text-anchor="start" x="314.5" y="-339.5" font-family="Helvetica,sans-Serif" font-size="10.00">actor_not_render_on</text>
<text text-anchor="middle" x="364.5" y="-328.5" font-family="Helvetica,sans-Serif" font-size="10.00">_a_camera</text>
</a>
</g>
</g>
<!-- Node2&#45;&gt;Node3 -->
<g id="edge2_Node000002_Node000003" class="edge">
<title>Node2&#45;&gt;Node3</title>
<g id="a_edge2_Node000002_Node000003"><a xlink:title=" ">
<path fill="none" stroke="#63b8ff" d="M214.43,-265.06C231.18,-277.13 261.62,-297.93 290,-311.5 294.59,-313.7 299.43,-315.79 304.34,-317.76"/>
<polygon fill="#63b8ff" stroke="#63b8ff" points="303.24,-321.09 313.83,-321.4 305.75,-314.55 303.24,-321.09"/>
</a>
</g>
</g>
<!-- Node4 -->
<g id="Node000004" class="node">
<title>Node4</title>
<g id="a_Node000004"><a xlink:href="actors_8c.html#a9d9ee571ace2dd3de226053ddab47bb1" target="_top" xlink:title=" ">
<polygon fill="white" stroke="#666666" points="439,-303 290,-303 290,-284 439,-284 439,-303"/>
<text text-anchor="middle" x="364.5" y="-291" font-family="Helvetica,sans-Serif" font-size="10.00">actor_render_on_a_camera</text>
</a>
</g>
</g>
<!-- Node2&#45;&gt;Node4 -->
<g id="edge3_Node000002_Node000004" class="edge">
<title>Node2&#45;&gt;Node4</title>
<g id="a_edge3_Node000002_Node000004"><a xlink:title=" ">
<path fill="none" stroke="#63b8ff" d="M242.38,-265.09C263.85,-270.13 290.36,-276.34 313.1,-281.68"/>
<polygon fill="#63b8ff" stroke="#63b8ff" points="312.38,-285.1 322.91,-283.98 313.98,-278.29 312.38,-285.1"/>
</a>
</g>
</g>
<!-- Node5 -->
<g id="Node000005" class="node">
<title>Node5</title>
<g id="a_Node000005"><a xlink:href="actors_8c.html#a1e950a72a2fb31b55123e856e64e15c0" target="_top" xlink:title=" ">
<polygon fill="white" stroke="#666666" points="410,-209 319,-209 319,-190 410,-190 410,-209"/>
<text text-anchor="middle" x="364.5" y="-197" font-family="Helvetica,sans-Serif" font-size="10.00">func_802979F8</text>
</a>
</g>
</g>
<!-- Node2&#45;&gt;Node5 -->
<g id="edge4_Node000002_Node000005" class="edge">
<title>Node2&#45;&gt;Node5</title>
<g id="a_edge4_Node000002_Node000005"><a xlink:title=" ">
<path fill="none" stroke="#63b8ff" d="M229.35,-245.87C256.17,-236.6 296.91,-222.52 326.46,-212.3"/>
<polygon fill="#63b8ff" stroke="#63b8ff" points="327.71,-215.58 336.01,-209 325.42,-208.96 327.71,-215.58"/>
</a>
</g>
</g>
<!-- Node17 -->
<g id="Node000017" class="node">
<title>Node17</title>
<g id="a_Node000017"><a xlink:href="math__util_8c.html#aa23f6384122bc45f13a81ef0fa86c099" target="_top" xlink:title=" ">
<polygon fill="white" stroke="#666666" points="766.5,-283 653.5,-283 653.5,-264 766.5,-264 766.5,-283"/>
<text text-anchor="middle" x="710" y="-271" font-family="Helvetica,sans-Serif" font-size="10.00">render_set_position</text>
</a>
</g>
</g>
<!-- Node2&#45;&gt;Node17 -->
<g id="edge26_Node000002_Node000017" class="edge">
<title>Node2&#45;&gt;Node17</title>
<g id="a_edge26_Node000002_Node000017"><a xlink:title=" ">
<path fill="none" stroke="#63b8ff" d="M254.38,-257.38C347.64,-260.68 541.14,-267.55 643,-271.16"/>
<polygon fill="#63b8ff" stroke="#63b8ff" points="643.05,-274.66 653.16,-271.52 643.3,-267.67 643.05,-274.66"/>
</a>
</g>
</g>
<!-- Node20 -->
<g id="Node000020" class="node">
<title>Node20</title>
<g id="a_Node000020"><a xlink:href="math__util_8c.html#a5e1d12b8745a8d5f8d73ab366328d3cd" target="_top" xlink:title=" ">
<polygon fill="white" stroke="#666666" points="436,-86 293,-86 293,-67 436,-67 436,-86"/>
<text text-anchor="middle" x="364.5" y="-74" font-family="Helvetica,sans-Serif" font-size="10.00">is_within_render_distance</text>
</a>
</g>
</g>
<!-- Node2&#45;&gt;Node20 -->
<g id="edge19_Node000002_Node000020" class="edge">
<title>Node2&#45;&gt;Node20</title>
<g id="a_edge19_Node000002_Node000020"><a xlink:title=" ">
<path fill="none" stroke="#63b8ff" d="M210.21,-245.88C236.36,-216.98 314.45,-130.7 347.95,-93.68"/>
<polygon fill="#63b8ff" stroke="#63b8ff" points="350.63,-95.93 354.75,-86.17 345.44,-91.24 350.63,-95.93"/>
</a>
</g>
</g>
<!-- Node6 -->
<g id="Node000006" class="node">
<title>Node6</title>
<g id="a_Node000006"><a xlink:href="actors_8c.html#a09d879c67b2c1430dd8ba2d5c9c136e1" target="_top" xlink:title=" ">
<polygon fill="white" stroke="#666666" points="588.5,-153 496.5,-153 496.5,-134 588.5,-134 588.5,-153"/>
<text text-anchor="middle" x="542.5" y="-141" font-family="Helvetica,sans-Serif" font-size="10.00">func_802976EC</text>
</a>
</g>
</g>
<!-- Node5&#45;&gt;Node6 -->
<g id="edge5_Node000005_Node000006" class="edge">
<title>Node5&#45;&gt;Node6</title>
<g id="a_edge5_Node000005_Node000006"><a xlink:title=" ">
<path fill="none" stroke="#63b8ff" d="M391.44,-189.93C413.52,-181.91 446.16,-170.4 475,-161.5 481.37,-159.53 488.13,-157.57 494.79,-155.7"/>
<polygon fill="#63b8ff" stroke="#63b8ff" points="495.73,-159.07 504.43,-153.04 493.86,-152.33 495.73,-159.07"/>
</a>
</g>
</g>
<!-- Node10 -->
<g id="Node000010" class="node">
<title>Node10</title>
<g id="a_Node000010"><a xlink:href="actors_8c.html#a83bcf2234f4c65898ed5d48a7301f86b" target="_top" xlink:title=" ">
<polygon fill="white" stroke="#666666" points="588,-190 497,-190 497,-171 588,-171 588,-190"/>
<text text-anchor="middle" x="542.5" y="-178" font-family="Helvetica,sans-Serif" font-size="10.00">func_80297760</text>
</a>
</g>
</g>
<!-- Node5&#45;&gt;Node10 -->
<g id="edge9_Node000005_Node000010" class="edge">
<title>Node5&#45;&gt;Node10</title>
<g id="a_edge9_Node000005_Node000010"><a xlink:title=" ">
<path fill="none" stroke="#63b8ff" d="M410.37,-194.66C433.54,-192.16 462.01,-189.08 486.49,-186.44"/>
<polygon fill="#63b8ff" stroke="#63b8ff" points="487.15,-189.89 496.71,-185.33 486.4,-182.93 487.15,-189.89"/>
</a>
</g>
</g>
<!-- Node12 -->
<g id="Node000012" class="node">
<title>Node12</title>
<g id="a_Node000012"><a xlink:href="actors_8c.html#ac46c5c4408bdcd2bfdeddd690b1ed203" target="_top" xlink:title=" ">
<polygon fill="white" stroke="#666666" points="588.5,-227 496.5,-227 496.5,-208 588.5,-208 588.5,-227"/>
<text text-anchor="middle" x="542.5" y="-215" font-family="Helvetica,sans-Serif" font-size="10.00">func_8029794C</text>
</a>
</g>
</g>
<!-- Node5&#45;&gt;Node12 -->
<g id="edge11_Node000005_Node000012" class="edge">
<title>Node5&#45;&gt;Node12</title>
<g id="a_edge11_Node000005_Node000012"><a xlink:title=" ">
<path fill="none" stroke="#63b8ff" d="M410.37,-204.09C433.45,-206.45 461.79,-209.35 486.21,-211.85"/>
<polygon fill="#63b8ff" stroke="#63b8ff" points="486.1,-215.35 496.41,-212.89 486.82,-208.39 486.1,-215.35"/>
</a>
</g>
</g>
<!-- Node7 -->
<g id="Node000007" class="node">
<title>Node7</title>
<g id="a_Node000007"><a xlink:href="math__util_8c.html#aaa39a297477f56051975259f4bddd829" target="_top" xlink:title=" ">
<polygon fill="white" stroke="#666666" points="735,-62 685,-62 685,-43 735,-43 735,-62"/>
<text text-anchor="middle" x="710" y="-50" font-family="Helvetica,sans-Serif" font-size="10.00">atan2s</text>
</a>
</g>
</g>
<!-- Node6&#45;&gt;Node7 -->
<g id="edge6_Node000006_Node000007" class="edge">
<title>Node6&#45;&gt;Node7</title>
<g id="a_edge6_Node000006_Node000007"><a xlink:title=" ">
<path fill="none" stroke="#63b8ff" d="M585.49,-133.93C593.81,-131.36 602.34,-128.24 610,-124.5 640.79,-109.49 672.04,-84.85 690.98,-68.65"/>
<polygon fill="#63b8ff" stroke="#63b8ff" points="693.29,-71.27 698.53,-62.07 688.69,-66 693.29,-71.27"/>
</a>
</g>
</g>
<!-- Node9 -->
<g id="Node000009" class="node">
<title>Node9</title>
<g id="a_Node000009"><a xlink:href="actors_8c.html#a6fd7dc3bc34357287535b6f06ab7d85c" target="_top" xlink:title=" ">
<polygon fill="white" stroke="#666666" points="756,-135 664,-135 664,-116 756,-116 756,-135"/>
<text text-anchor="middle" x="710" y="-123" font-family="Helvetica,sans-Serif" font-size="10.00">func_802976D8</text>
</a>
</g>
</g>
<!-- Node6&#45;&gt;Node9 -->
<g id="edge8_Node000006_Node000009" class="edge">
<title>Node6&#45;&gt;Node9</title>
<g id="a_edge8_Node000006_Node000009"><a xlink:title=" ">
<path fill="none" stroke="#63b8ff" d="M588.72,-138.58C608.79,-136.4 632.6,-133.81 653.71,-131.51"/>
<polygon fill="#63b8ff" stroke="#63b8ff" points="654.27,-134.97 663.83,-130.41 653.51,-128.01 654.27,-134.97"/>
</a>
</g>
</g>
<!-- Node8 -->
<g id="Node000008" class="node">
<title>Node8</title>
<g id="a_Node000008"><a xlink:href="math__util_8c.html#a0273b0ea0783a06996c28669a7438ed9" target="_top" xlink:title=" ">
<polygon fill="white" stroke="#666666" points="892,-62 810,-62 810,-43 892,-43 892,-62"/>
<text text-anchor="middle" x="851" y="-50" font-family="Helvetica,sans-Serif" font-size="10.00">atan2_lookup</text>
</a>
</g>
</g>
<!-- Node7&#45;&gt;Node8 -->
<g id="edge7_Node000007_Node000008" class="edge">
<title>Node7&#45;&gt;Node8</title>
<g id="a_edge7_Node000007_Node000008"><a xlink:title=" ">
<path fill="none" stroke="#63b8ff" d="M735.21,-52.5C752.94,-52.5 777.63,-52.5 799.57,-52.5"/>
<polygon fill="#63b8ff" stroke="#63b8ff" points="799.75,-56 809.75,-52.5 799.75,-49 799.75,-56"/>
</a>
</g>
</g>
<!-- Node11 -->
<g id="Node000011" class="node">
<title>Node11</title>
<g id="a_Node000011"><a xlink:href="collision_8c.html#afa1243eb9b3a14bc92434a8a19c162be" target="_top" xlink:title=" ">
<polygon fill="white" stroke="#666666" points="756,-172 664,-172 664,-153 756,-153 756,-172"/>
<text text-anchor="middle" x="710" y="-160" font-family="Helvetica,sans-Serif" font-size="10.00">func_802ABE30</text>
</a>
</g>
</g>
<!-- Node10&#45;&gt;Node11 -->
<g id="edge10_Node000010_Node000011" class="edge">
<title>Node10&#45;&gt;Node11</title>
<g id="a_edge10_Node000010_Node000011"><a xlink:title=" ">
<path fill="none" stroke="#63b8ff" d="M588.29,-175.63C608.44,-173.44 632.43,-170.83 653.7,-168.51"/>
<polygon fill="#63b8ff" stroke="#63b8ff" points="654.33,-171.97 663.89,-167.41 653.57,-165.01 654.33,-171.97"/>
</a>
</g>
</g>
<!-- Node13 -->
<g id="Node000013" class="node">
<title>Node13</title>
<g id="a_Node000013"><a xlink:href="math__util_8c.html#a7085bb4bb08bdc39c0fa0b98f25176ef" target="_top" xlink:title=" ">
<polygon fill="white" stroke="#666666" points="774,-209 646,-209 646,-190 774,-190 774,-209"/>
<text text-anchor="middle" x="710" y="-197" font-family="Helvetica,sans-Serif" font-size="10.00">mtxf_pos_rotation_xyz</text>
</a>
</g>
</g>
<!-- Node12&#45;&gt;Node13 -->
<g id="edge12_Node000012_Node000013" class="edge">
<title>Node12&#45;&gt;Node13</title>
<g id="a_edge12_Node000012_Node000013"><a xlink:title=" ">
<path fill="none" stroke="#63b8ff" d="M588.72,-212.58C603.17,-211.01 619.55,-209.23 635.47,-207.5"/>
<polygon fill="#63b8ff" stroke="#63b8ff" points="636.28,-210.93 645.84,-206.37 635.52,-203.97 636.28,-210.93"/>
</a>
</g>
</g>
<!-- Node16 -->
<g id="Node000016" class="node">
<title>Node16</title>
<g id="a_Node000016"><a xlink:href="math__util_8c.html#aca95a220db79fe028b35270f35a4a7b3" target="_top" xlink:title=" ">
<polygon fill="white" stroke="#666666" points="745.5,-246 674.5,-246 674.5,-227 745.5,-227 745.5,-246"/>
<text text-anchor="middle" x="710" y="-234" font-family="Helvetica,sans-Serif" font-size="10.00">mtxf_scale</text>
</a>
</g>
</g>
<!-- Node12&#45;&gt;Node16 -->
<g id="edge15_Node000012_Node000016" class="edge">
<title>Node12&#45;&gt;Node16</title>
<g id="a_edge15_Node000012_Node000016"><a xlink:title=" ">
<path fill="none" stroke="#63b8ff" d="M588.72,-222.69C612.23,-225.39 640.87,-228.68 664.3,-231.37"/>
<polygon fill="#63b8ff" stroke="#63b8ff" points="664,-234.86 674.33,-232.52 664.8,-227.9 664,-234.86"/>
</a>
</g>
</g>
<!-- Node12&#45;&gt;Node17 -->
<g id="edge16_Node000012_Node000017" class="edge">
<title>Node12&#45;&gt;Node17</title>
<g id="a_edge16_Node000012_Node000017"><a xlink:title=" ">
<path fill="none" stroke="#63b8ff" d="M569.82,-227C600.11,-237.94 645.76,-254.42 646,-254.5 652.56,-256.67 659.53,-258.88 666.36,-260.98"/>
<polygon fill="#63b8ff" stroke="#63b8ff" points="665.61,-264.41 676.2,-263.97 667.65,-257.71 665.61,-264.41"/>
</a>
</g>
</g>
<!-- Node14 -->
<g id="Node000014" class="node">
<title>Node14</title>
<g id="a_Node000014"><a xlink:href="math__util_8c.html#ae69cbf5c8d4b3b0dba2d7b4d4673689f" target="_top" xlink:title=" ">
<polygon fill="white" stroke="#666666" points="870,-227 832,-227 832,-208 870,-208 870,-227"/>
<text text-anchor="middle" x="851" y="-215" font-family="Helvetica,sans-Serif" font-size="10.00">coss</text>
</a>
</g>
</g>
<!-- Node13&#45;&gt;Node14 -->
<g id="edge13_Node000013_Node000014" class="edge">
<title>Node13&#45;&gt;Node14</title>
<g id="a_edge13_Node000013_Node000014"><a xlink:title=" ">
<path fill="none" stroke="#63b8ff" d="M774.4,-207.71C790.9,-209.85 807.86,-212.04 821.52,-213.81"/>
<polygon fill="#63b8ff" stroke="#63b8ff" points="821.33,-217.32 831.7,-215.13 822.23,-210.37 821.33,-217.32"/>
</a>
</g>
</g>
<!-- Node15 -->
<g id="Node000015" class="node">
<title>Node15</title>
<g id="a_Node000015"><a xlink:href="math__util_8c.html#a19ed3bd78fd2d3e2bd0a29f6caf48545" target="_top" xlink:title=" ">
<polygon fill="white" stroke="#666666" points="869,-190 833,-190 833,-171 869,-171 869,-190"/>
<text text-anchor="middle" x="851" y="-178" font-family="Helvetica,sans-Serif" font-size="10.00">sins</text>
</a>
</g>
</g>
<!-- Node13&#45;&gt;Node15 -->
<g id="edge14_Node000013_Node000015" class="edge">
<title>Node13&#45;&gt;Node15</title>
<g id="a_edge14_Node000013_Node000015"><a xlink:title=" ">
<path fill="none" stroke="#63b8ff" d="M774.4,-190.83C791.35,-188.52 808.79,-186.13 822.64,-184.24"/>
<polygon fill="#63b8ff" stroke="#63b8ff" points="823.46,-187.66 832.9,-182.84 822.52,-180.72 823.46,-187.66"/>
</a>
</g>
</g>
<!-- Node18 -->
<g id="Node000018" class="node">
<title>Node18</title>
<g id="a_Node000018"><a xlink:href="math__util_8c.html#a32af0f217114736291c9ca6689138b81" target="_top" xlink:title=" ">
<polygon fill="white" stroke="#666666" points="891,-283 811,-283 811,-264 891,-264 891,-283"/>
<text text-anchor="middle" x="851" y="-271" font-family="Helvetica,sans-Serif" font-size="10.00">mtxf_to_mtx</text>
</a>
</g>
</g>
<!-- Node17&#45;&gt;Node18 -->
<g id="edge17_Node000017_Node000018" class="edge">
<title>Node17&#45;&gt;Node18</title>
<g id="a_edge17_Node000017_Node000018"><a xlink:title=" ">
<path fill="none" stroke="#63b8ff" d="M766.74,-273.5C777.95,-273.5 789.67,-273.5 800.65,-273.5"/>
<polygon fill="#63b8ff" stroke="#63b8ff" points="800.92,-277 810.92,-273.5 800.92,-270 800.92,-277"/>
</a>
</g>
</g>
<!-- Node19 -->
<g id="Node000019" class="node">
<title>Node19</title>
<g id="a_Node000019"><a xlink:href="guMtxF2L_8c.html#a40ab2d64c609839ff1e0ef0de2d0dcc4" target="_top" xlink:title=" ">
<polygon fill="white" stroke="#666666" points="993,-283 928,-283 928,-264 993,-264 993,-283"/>
<text text-anchor="middle" x="960.5" y="-271" font-family="Helvetica,sans-Serif" font-size="10.00">guMtxF2L</text>
</a>
</g>
</g>
<!-- Node18&#45;&gt;Node19 -->
<g id="edge18_Node000018_Node000019" class="edge">
<title>Node18&#45;&gt;Node19</title>
<g id="a_edge18_Node000018_Node000019"><a xlink:title=" ">
<path fill="none" stroke="#63b8ff" d="M891.11,-273.5C899.83,-273.5 909.1,-273.5 917.91,-273.5"/>
<polygon fill="#63b8ff" stroke="#63b8ff" points="917.99,-277 927.99,-273.5 917.99,-270 917.99,-277"/>
</a>
</g>
</g>
<!-- Node21 -->
<g id="Node000021" class="node">
<title>Node21</title>
<g id="a_Node000021"><a xlink:href="math__util_8c.html#a07a66adf3458c156c7961b983983627a" target="_top" xlink:title=" ">
<polygon fill="white" stroke="#666666" points="589,-19 496,-19 496,0 589,0 589,-19"/>
<text text-anchor="middle" x="542.5" y="-7" font-family="Helvetica,sans-Serif" font-size="10.00">func_802B7CA8</text>
</a>
</g>
</g>
<!-- Node20&#45;&gt;Node21 -->
<g id="edge20_Node000020_Node000021" class="edge">
<title>Node20&#45;&gt;Node21</title>
<g id="a_edge20_Node000020_Node000021"><a xlink:title=" ">
<path fill="none" stroke="#63b8ff" d="M385.35,-66.83C407.04,-56.49 442.97,-40.04 475,-28.5 481.38,-26.2 488.17,-24 494.89,-21.95"/>
<polygon fill="#63b8ff" stroke="#63b8ff" points="496.03,-25.26 504.63,-19.08 494.05,-18.55 496.03,-25.26"/>
</a>
</g>
</g>
<!-- Node23 -->
<g id="Node000023" class="node">
<title>Node23</title>
<g id="a_Node000023"><a xlink:href="math__util_8c.html#a84cf9d4ec33146a64c230ed4cec56632" target="_top" xlink:title=" ">
<polygon fill="white" stroke="#666666" points="610,-67.5 475,-67.5 475,-37.5 610,-37.5 610,-67.5"/>
<text text-anchor="start" x="483" y="-55.5" font-family="Helvetica,sans-Serif" font-size="10.00">get_angle_between_two</text>
<text text-anchor="middle" x="542.5" y="-44.5" font-family="Helvetica,sans-Serif" font-size="10.00">_vectors</text>
</a>
</g>
</g>
<!-- Node20&#45;&gt;Node23 -->
<g id="edge23_Node000020_Node000023" class="edge">
<title>Node20&#45;&gt;Node23</title>
<g id="a_edge23_Node000020_Node000023"><a xlink:title=" ">
<path fill="none" stroke="#63b8ff" d="M435.31,-66.98C445,-65.66 454.99,-64.3 464.8,-62.96"/>
<polygon fill="#63b8ff" stroke="#63b8ff" points="465.49,-66.4 474.93,-61.58 464.55,-59.46 465.49,-66.4"/>
</a>
</g>
</g>
<!-- Node24 -->
<g id="Node000024" class="node">
<title>Node24</title>
<g id="a_Node000024"><a xlink:href="math__util_8c.html#a3eb0db0895b2c11953df746ce49b782e" target="_top" xlink:title=" ">
<polygon fill="white" stroke="#666666" points="597.5,-115.5 487.5,-115.5 487.5,-85.5 597.5,-85.5 597.5,-115.5"/>
<text text-anchor="start" x="495.5" y="-103.5" font-family="Helvetica,sans-Serif" font-size="10.00">is_visible_between</text>
<text text-anchor="middle" x="542.5" y="-92.5" font-family="Helvetica,sans-Serif" font-size="10.00">_angle</text>
</a>
</g>
</g>
<!-- Node20&#45;&gt;Node24 -->
<g id="edge25_Node000020_Node000024" class="edge">
<title>Node20&#45;&gt;Node24</title>
<g id="a_edge25_Node000020_Node000024"><a xlink:title=" ">
<path fill="none" stroke="#63b8ff" d="M435.31,-86.02C449.08,-87.9 463.47,-89.86 477.05,-91.71"/>
<polygon fill="#63b8ff" stroke="#63b8ff" points="476.87,-95.22 487.25,-93.1 477.81,-88.28 476.87,-95.22"/>
</a>
</g>
</g>
<!-- Node21&#45;&gt;Node7 -->
<g id="edge21_Node000021_Node000007" class="edge">
<title>Node21&#45;&gt;Node7</title>
<g id="a_edge21_Node000021_Node000007"><a xlink:title=" ">
<path fill="none" stroke="#63b8ff" d="M580.23,-19.04C608.43,-26.37 647.09,-36.42 674.68,-43.58"/>
<polygon fill="#63b8ff" stroke="#63b8ff" points="674.1,-47.05 684.66,-46.18 675.86,-40.27 674.1,-47.05"/>
</a>
</g>
</g>
<!-- Node22 -->
<g id="Node000022" class="node">
<title>Node22</title>
<g id="a_Node000022"><a xlink:href="math_8h.html#a37bde043e94a6f074c78f10518fb5d99" target="_top" xlink:title=" ">
<polygon fill="white" stroke="#666666" points="729.5,-19 690.5,-19 690.5,0 729.5,0 729.5,-19"/>
<text text-anchor="middle" x="710" y="-7" font-family="Helvetica,sans-Serif" font-size="10.00">sqrtf</text>
</a>
</g>
</g>
<!-- Node21&#45;&gt;Node22 -->
<g id="edge22_Node000021_Node000022" class="edge">
<title>Node21&#45;&gt;Node22</title>
<g id="a_edge22_Node000021_Node000022"><a xlink:title=" ">
<path fill="none" stroke="#63b8ff" d="M589.16,-9.5C618.17,-9.5 654.83,-9.5 679.92,-9.5"/>
<polygon fill="#63b8ff" stroke="#63b8ff" points="680.24,-13 690.24,-9.5 680.24,-6 680.24,-13"/>
</a>
</g>
</g>
<!-- Node23&#45;&gt;Node7 -->
<g id="edge24_Node000023_Node000007" class="edge">
<title>Node23&#45;&gt;Node7</title>
<g id="a_edge24_Node000023_Node000007"><a xlink:title=" ">
<path fill="none" stroke="#63b8ff" d="M610.34,-52.5C632.49,-52.5 656.22,-52.5 674.86,-52.5"/>
<polygon fill="#63b8ff" stroke="#63b8ff" points="674.92,-56 684.92,-52.5 674.92,-49 674.92,-56"/>
</a>
</g>
</g>
</g>
</svg>
