<?xml version="1.0" encoding="UTF-8" standalone="no"?>
<!DOCTYPE svg PUBLIC "-//W3C//DTD SVG 1.1//EN"
 "http://www.w3.org/Graphics/SVG/1.1/DTD/svg11.dtd">
<!-- Generated by graphviz version 2.43.0 (0)
 -->
<!-- Title: src/hud_renderer.h Pages: 1 -->
<svg width="1662pt" height="203pt"
 viewBox="0.00 0.00 1661.50 203.00" xmlns="http://www.w3.org/2000/svg" xmlns:xlink="http://www.w3.org/1999/xlink">
<g id="graph0" class="graph" transform="scale(1 1) rotate(0) translate(4 199)">
<title>src/hud_renderer.h</title>
<!-- Node1 -->
<g id="Node000001" class="node">
<title>Node1</title>
<g id="a_Node000001"><a xlink:title=" ">
<polygon fill="#999999" stroke="#666666" points="874.5,-195 767.5,-195 767.5,-176 874.5,-176 874.5,-195"/>
<text text-anchor="middle" x="821" y="-183" font-family="Helvetica,sans-Serif" font-size="10.00">src/hud_renderer.h</text>
</a>
</g>
</g>
<!-- Node2 -->
<g id="Node000002" class="node">
<title>Node2</title>
<g id="a_Node000002"><a xlink:href="code__80005FD0_8c.html" target="_top" xlink:title=" ">
<polygon fill="white" stroke="#666666" points="120,-134.5 0,-134.5 0,-115.5 120,-115.5 120,-134.5"/>
<text text-anchor="middle" x="60" y="-122.5" font-family="Helvetica,sans-Serif" font-size="10.00">src/code_80005FD0.c</text>
</a>
</g>
</g>
<!-- Node1&#45;&gt;Node2 -->
<g id="edge1_Node000001_Node000002" class="edge">
<title>Node1&#45;&gt;Node2</title>
<g id="a_edge1_Node000001_Node000002"><a xlink:title=" ">
<path fill="none" stroke="#63b8ff" d="M757.15,-183.22C634.92,-180.16 359.59,-170.22 130,-140 119.56,-138.63 108.33,-136.62 97.99,-134.55"/>
<polygon fill="#63b8ff" stroke="#63b8ff" points="757.36,-186.73 767.45,-183.48 757.53,-179.73 757.36,-186.73"/>
</a>
</g>
</g>
<!-- Node3 -->
<g id="Node000003" class="node">
<title>Node3</title>
<g id="a_Node000003"><a xlink:href="code__80057C60_8c.html" target="_top" xlink:title=" ">
<polygon fill="white" stroke="#666666" points="257.5,-134.5 138.5,-134.5 138.5,-115.5 257.5,-115.5 257.5,-134.5"/>
<text text-anchor="middle" x="198" y="-122.5" font-family="Helvetica,sans-Serif" font-size="10.00">src/code_80057C60.c</text>
</a>
</g>
</g>
<!-- Node1&#45;&gt;Node3 -->
<g id="edge2_Node000001_Node000003" class="edge">
<title>Node1&#45;&gt;Node3</title>
<g id="a_edge2_Node000001_Node000003"><a xlink:title=" ">
<path fill="none" stroke="#63b8ff" d="M757.01,-181.86C653.58,-177.03 443.43,-164.89 267,-140 256.83,-138.57 245.91,-136.57 235.82,-134.52"/>
<polygon fill="#63b8ff" stroke="#63b8ff" points="757.13,-185.37 767.28,-182.33 757.46,-178.37 757.13,-185.37"/>
</a>
</g>
</g>
<!-- Node4 -->
<g id="Node000004" class="node">
<title>Node4</title>
<g id="a_Node000004"><a xlink:href="code__8006E9C0_8c.html" target="_top" xlink:title=" ">
<polygon fill="white" stroke="#666666" points="394.5,-134.5 275.5,-134.5 275.5,-115.5 394.5,-115.5 394.5,-134.5"/>
<text text-anchor="middle" x="335" y="-122.5" font-family="Helvetica,sans-Serif" font-size="10.00">src/code_8006E9C0.c</text>
</a>
</g>
</g>
<!-- Node1&#45;&gt;Node4 -->
<g id="edge3_Node000001_Node000004" class="edge">
<title>Node1&#45;&gt;Node4</title>
<g id="a_edge3_Node000001_Node000004"><a xlink:title=" ">
<path fill="none" stroke="#63b8ff" d="M757.31,-179.57C675.32,-172.8 528.55,-159.24 404,-140 394.22,-138.49 383.71,-136.53 373.93,-134.56"/>
<polygon fill="#63b8ff" stroke="#63b8ff" points="757.22,-183.08 767.47,-180.41 757.79,-176.1 757.22,-183.08"/>
</a>
</g>
</g>
<!-- Node5 -->
<g id="Node000005" class="node">
<title>Node5</title>
<g id="a_Node000005"><a xlink:href="code__80071F00_8c.html" target="_top" xlink:title=" ">
<polygon fill="white" stroke="#666666" points="531.5,-134.5 412.5,-134.5 412.5,-115.5 531.5,-115.5 531.5,-134.5"/>
<text text-anchor="middle" x="472" y="-122.5" font-family="Helvetica,sans-Serif" font-size="10.00">src/code_80071F00.c</text>
</a>
</g>
</g>
<!-- Node1&#45;&gt;Node5 -->
<g id="edge4_Node000001_Node000005" class="edge">
<title>Node1&#45;&gt;Node5</title>
<g id="a_edge4_Node000001_Node000005"><a xlink:title=" ">
<path fill="none" stroke="#63b8ff" d="M757.55,-175.2C700.71,-166.69 615.14,-153.41 541,-140 531.74,-138.33 521.81,-136.39 512.44,-134.51"/>
<polygon fill="#63b8ff" stroke="#63b8ff" points="757.06,-178.67 767.47,-176.68 758.09,-171.75 757.06,-178.67"/>
</a>
</g>
</g>
<!-- Node6 -->
<g id="Node000006" class="node">
<title>Node6</title>
<g id="a_Node000006"><a xlink:href="code__8008C1D0_8c.html" target="_top" xlink:title=" ">
<polygon fill="white" stroke="#666666" points="670.5,-134.5 549.5,-134.5 549.5,-115.5 670.5,-115.5 670.5,-134.5"/>
<text text-anchor="middle" x="610" y="-122.5" font-family="Helvetica,sans-Serif" font-size="10.00">src/code_8008C1D0.c</text>
</a>
</g>
</g>
<!-- Node1&#45;&gt;Node6 -->
<g id="edge5_Node000001_Node000006" class="edge">
<title>Node1&#45;&gt;Node6</title>
<g id="a_edge5_Node000001_Node000006"><a xlink:title=" ">
<path fill="none" stroke="#63b8ff" d="M780.43,-173.25C739.62,-161.94 677.61,-144.75 640.72,-134.52"/>
<polygon fill="#63b8ff" stroke="#63b8ff" points="779.75,-176.69 790.32,-175.99 781.62,-169.95 779.75,-176.69"/>
</a>
</g>
</g>
<!-- Node7 -->
<g id="Node000007" class="node">
<title>Node7</title>
<g id="a_Node000007"><a xlink:href="code__80091750_8c.html" target="_top" xlink:title=" ">
<polygon fill="white" stroke="#666666" points="807.5,-134.5 688.5,-134.5 688.5,-115.5 807.5,-115.5 807.5,-134.5"/>
<text text-anchor="middle" x="748" y="-122.5" font-family="Helvetica,sans-Serif" font-size="10.00">src/code_80091750.c</text>
</a>
</g>
</g>
<!-- Node1&#45;&gt;Node7 -->
<g id="edge6_Node000001_Node000007" class="edge">
<title>Node1&#45;&gt;Node7</title>
<g id="a_edge6_Node000001_Node000007"><a xlink:title=" ">
<path fill="none" stroke="#63b8ff" d="M802.33,-169.54C788.54,-158.49 770.26,-143.84 758.82,-134.67"/>
<polygon fill="#63b8ff" stroke="#63b8ff" points="800.24,-172.35 810.23,-175.87 804.61,-166.88 800.24,-172.35"/>
</a>
</g>
</g>
<!-- Node8 -->
<g id="Node000008" class="node">
<title>Node8</title>
<g id="a_Node000008"><a xlink:href="all__variables_8h.html" target="_top" xlink:title=" ">
<polygon fill="white" stroke="#666666" points="964,-134.5 826,-134.5 826,-115.5 964,-115.5 964,-134.5"/>
<text text-anchor="middle" x="895" y="-122.5" font-family="Helvetica,sans-Serif" font-size="10.00">src/debug/all_variables.h</text>
</a>
</g>
</g>
<!-- Node1&#45;&gt;Node8 -->
<g id="edge7_Node000001_Node000008" class="edge">
<title>Node1&#45;&gt;Node8</title>
<g id="a_edge7_Node000001_Node000008"><a xlink:title=" ">
<path fill="none" stroke="#63b8ff" d="M839.93,-169.54C853.9,-158.49 872.43,-143.84 884.04,-134.67"/>
<polygon fill="#63b8ff" stroke="#63b8ff" points="837.59,-166.92 831.92,-175.87 841.93,-172.41 837.59,-166.92"/>
</a>
</g>
</g>
<!-- Node11 -->
<g id="Node000011" class="node">
<title>Node11</title>
<g id="a_Node000011"><a xlink:href="code__80281C40_8c.html" target="_top" xlink:title=" ">
<polygon fill="white" stroke="#666666" points="1137.5,-134.5 982.5,-134.5 982.5,-115.5 1137.5,-115.5 1137.5,-134.5"/>
<text text-anchor="middle" x="1060" y="-122.5" font-family="Helvetica,sans-Serif" font-size="10.00">src/ending/code_80281C40.c</text>
</a>
</g>
</g>
<!-- Node1&#45;&gt;Node11 -->
<g id="edge10_Node000001_Node000011" class="edge">
<title>Node1&#45;&gt;Node11</title>
<g id="a_edge10_Node000001_Node000011"><a xlink:title=" ">
<path fill="none" stroke="#63b8ff" d="M865.49,-173.61C911.68,-162.3 982.97,-144.85 1025.21,-134.52"/>
<polygon fill="#63b8ff" stroke="#63b8ff" points="864.63,-170.22 855.75,-175.99 866.3,-177.02 864.63,-170.22"/>
</a>
</g>
</g>
<!-- Node12 -->
<g id="Node000012" class="node">
<title>Node12</title>
<g id="a_Node000012"><a xlink:href="podium__ceremony__actors_8c.html" target="_top" xlink:title=" ">
<polygon fill="white" stroke="#666666" points="1316.5,-140 1155.5,-140 1155.5,-110 1316.5,-110 1316.5,-140"/>
<text text-anchor="start" x="1163.5" y="-128" font-family="Helvetica,sans-Serif" font-size="10.00">src/ending/podium_ceremony</text>
<text text-anchor="middle" x="1236" y="-117" font-family="Helvetica,sans-Serif" font-size="10.00">_actors.c</text>
</a>
</g>
</g>
<!-- Node1&#45;&gt;Node12 -->
<g id="edge11_Node000001_Node000012" class="edge">
<title>Node1&#45;&gt;Node12</title>
<g id="a_edge11_Node000001_Node000012"><a xlink:title=" ">
<path fill="none" stroke="#63b8ff" d="M884.9,-176.17C950.67,-167.5 1056.07,-153.36 1147,-140 1149.79,-139.59 1152.62,-139.17 1155.48,-138.74"/>
<polygon fill="#63b8ff" stroke="#63b8ff" points="884.15,-172.74 874.7,-177.51 885.07,-179.68 884.15,-172.74"/>
</a>
</g>
</g>
<!-- Node13 -->
<g id="Node000013" class="node">
<title>Node13</title>
<g id="a_Node000013"><a xlink:href="hud__renderer_8c.html" target="_top" xlink:title=" ">
<polygon fill="white" stroke="#666666" points="1441,-134.5 1335,-134.5 1335,-115.5 1441,-115.5 1441,-134.5"/>
<text text-anchor="middle" x="1388" y="-122.5" font-family="Helvetica,sans-Serif" font-size="10.00">src/hud_renderer.c</text>
</a>
</g>
</g>
<!-- Node1&#45;&gt;Node13 -->
<g id="edge12_Node000001_Node000013" class="edge">
<title>Node1&#45;&gt;Node13</title>
<g id="a_edge12_Node000001_Node000013"><a xlink:title=" ">
<path fill="none" stroke="#63b8ff" d="M884.87,-181.62C981.02,-176.67 1168.48,-164.61 1326,-140 1335.16,-138.57 1344.98,-136.57 1354.05,-134.53"/>
<polygon fill="#63b8ff" stroke="#63b8ff" points="884.54,-178.14 874.73,-182.14 884.89,-185.13 884.54,-178.14"/>
</a>
</g>
</g>
<!-- Node14 -->
<g id="Node000014" class="node">
<title>Node14</title>
<g id="a_Node000014"><a xlink:href="main_8c.html" target="_top" xlink:title=" ">
<polygon fill="white" stroke="#666666" points="1526.5,-134.5 1459.5,-134.5 1459.5,-115.5 1526.5,-115.5 1526.5,-134.5"/>
<text text-anchor="middle" x="1493" y="-122.5" font-family="Helvetica,sans-Serif" font-size="10.00">src/main.c</text>
</a>
</g>
</g>
<!-- Node1&#45;&gt;Node14 -->
<g id="edge13_Node000001_Node000014" class="edge">
<title>Node1&#45;&gt;Node14</title>
<g id="a_edge13_Node000001_Node000014"><a xlink:title=" ">
<path fill="none" stroke="#63b8ff" d="M884.91,-185.09C999.34,-185.03 1246.3,-179.75 1450,-140 1456.63,-138.71 1463.65,-136.7 1470.06,-134.61"/>
<polygon fill="#63b8ff" stroke="#63b8ff" points="884.59,-181.59 874.59,-185.09 884.59,-188.59 884.59,-181.59"/>
</a>
</g>
</g>
<!-- Node15 -->
<g id="Node000015" class="node">
<title>Node15</title>
<g id="a_Node000015"><a xlink:href="render__player_8c.html" target="_top" xlink:title=" ">
<polygon fill="white" stroke="#666666" points="1653.5,-134.5 1544.5,-134.5 1544.5,-115.5 1653.5,-115.5 1653.5,-134.5"/>
<text text-anchor="middle" x="1599" y="-122.5" font-family="Helvetica,sans-Serif" font-size="10.00">src/render_player.c</text>
</a>
</g>
</g>
<!-- Node1&#45;&gt;Node15 -->
<g id="edge14_Node000001_Node000015" class="edge">
<title>Node1&#45;&gt;Node15</title>
<g id="a_edge14_Node000001_Node000015"><a xlink:title=" ">
<path fill="none" stroke="#63b8ff" d="M884.85,-183.87C1010.26,-181.9 1297.34,-173.73 1536,-140 1545.54,-138.65 1555.78,-136.63 1565.17,-134.54"/>
<polygon fill="#63b8ff" stroke="#63b8ff" points="884.6,-180.37 874.66,-184.02 884.71,-187.37 884.6,-180.37"/>
</a>
</g>
</g>
<!-- Node9 -->
<g id="Node000009" class="node">
<title>Node9</title>
<g id="a_Node000009"><a xlink:href="debug_8inc_8c.html" target="_top" xlink:title=" ">
<polygon fill="white" stroke="#666666" points="956,-74 834,-74 834,-55 956,-55 956,-74"/>
<text text-anchor="middle" x="895" y="-62" font-family="Helvetica,sans-Serif" font-size="10.00">src/debug/debug.inc.c</text>
</a>
</g>
</g>
<!-- Node8&#45;&gt;Node9 -->
<g id="edge8_Node000008_Node000009" class="edge">
<title>Node8&#45;&gt;Node9</title>
<g id="a_edge8_Node000008_Node000009"><a xlink:title=" ">
<path fill="none" stroke="#63b8ff" d="M895,-105.16C895,-94.74 895,-82.3 895,-74.17"/>
<polygon fill="#63b8ff" stroke="#63b8ff" points="891.5,-105.37 895,-115.37 898.5,-105.37 891.5,-105.37"/>
</a>
</g>
</g>
<!-- Node10 -->
<g id="Node000010" class="node">
<title>Node10</title>
<g id="a_Node000010"><a xlink:href="debug_8c.html" target="_top" xlink:title=" ">
<polygon fill="white" stroke="#666666" points="947.5,-19 842.5,-19 842.5,0 947.5,0 947.5,-19"/>
<text text-anchor="middle" x="895" y="-7" font-family="Helvetica,sans-Serif" font-size="10.00">src/debug/debug.c</text>
</a>
</g>
</g>
<!-- Node9&#45;&gt;Node10 -->
<g id="edge9_Node000009_Node000010" class="edge">
<title>Node9&#45;&gt;Node10</title>
<g id="a_edge9_Node000009_Node000010"><a xlink:title=" ">
<path fill="none" stroke="#63b8ff" d="M895,-44.66C895,-35.93 895,-25.99 895,-19.09"/>
<polygon fill="#63b8ff" stroke="#63b8ff" points="891.5,-44.75 895,-54.75 898.5,-44.75 891.5,-44.75"/>
</a>
</g>
</g>
</g>
</svg>
