<?xml version="1.0" encoding="UTF-8" standalone="no"?>
<!DOCTYPE svg PUBLIC "-//W3C//DTD SVG 1.1//EN"
 "http://www.w3.org/Graphics/SVG/1.1/DTD/svg11.dtd">
<!-- Generated by graphviz version 2.43.0 (0)
 -->
<!-- Title: courses/kalimari_desert/course_data.inc.h Pages: 1 -->
<svg width="1497pt" height="280pt"
 viewBox="0.00 0.00 1497.46 280.00" xmlns="http://www.w3.org/2000/svg" xmlns:xlink="http://www.w3.org/1999/xlink">
<g id="graph0" class="graph" transform="scale(1 1) rotate(0) translate(4 276)">
<title>courses/kalimari_desert/course_data.inc.h</title>
<!-- Node1 -->
<g id="Node000001" class="node">
<title>Node1</title>
<g id="a_Node000001"><a xlink:title=" ">
<polygon fill="#999999" stroke="#666666" points="532.96,-272 399.96,-272 399.96,-242 532.96,-242 532.96,-272"/>
<text text-anchor="start" x="407.96" y="-260" font-family="Helvetica,sans-Serif" font-size="10.00">courses/kalimari_desert</text>
<text text-anchor="middle" x="466.46" y="-249" font-family="Helvetica,sans-Serif" font-size="10.00">/course_data.inc.h</text>
</a>
</g>
</g>
<!-- Node2 -->
<g id="Node000002" class="node">
<title>Node2</title>
<g id="a_Node000002"><a xlink:href="all__course__data_8h.html" target="_top" xlink:title=" ">
<polygon fill="white" stroke="#666666" points="753.96,-206 646.96,-206 646.96,-176 753.96,-176 753.96,-206"/>
<text text-anchor="start" x="654.96" y="-194" font-family="Helvetica,sans-Serif" font-size="10.00">courses/all_course</text>
<text text-anchor="middle" x="700.46" y="-183" font-family="Helvetica,sans-Serif" font-size="10.00">_data.h</text>
</a>
</g>
</g>
<!-- Node1&#45;&gt;Node2 -->
<g id="edge1_Node000001_Node000002" class="edge">
<title>Node1&#45;&gt;Node2</title>
<g id="a_edge1_Node000001_Node000002"><a xlink:title=" ">
<path fill="none" stroke="#63b8ff" d="M527.69,-239.25C565.49,-228.91 613.44,-215.8 649.23,-206.01"/>
<polygon fill="#63b8ff" stroke="#63b8ff" points="526.54,-235.94 517.81,-241.95 528.38,-242.69 526.54,-235.94"/>
</a>
</g>
</g>
<!-- Node16 -->
<g id="Node000016" class="node">
<title>Node16</title>
<g id="a_Node000016"><a xlink:href="kalimari__desert_2course__offsets_8inc_8c.html" target="_top" xlink:title=" ">
<polygon fill="white" stroke="#666666" points="532.96,-206 399.96,-206 399.96,-176 532.96,-176 532.96,-206"/>
<text text-anchor="start" x="407.96" y="-194" font-family="Helvetica,sans-Serif" font-size="10.00">courses/kalimari_desert</text>
<text text-anchor="middle" x="466.46" y="-183" font-family="Helvetica,sans-Serif" font-size="10.00">/course_offsets.inc.c</text>
</a>
</g>
</g>
<!-- Node1&#45;&gt;Node16 -->
<g id="edge17_Node000001_Node000016" class="edge">
<title>Node1&#45;&gt;Node16</title>
<g id="a_edge17_Node000001_Node000016"><a xlink:title=" ">
<path fill="none" stroke="#63b8ff" d="M466.46,-231.54C466.46,-222.96 466.46,-213.61 466.46,-206.16"/>
<polygon fill="#63b8ff" stroke="#63b8ff" points="462.96,-231.8 466.46,-241.8 469.96,-231.8 462.96,-231.8"/>
</a>
</g>
</g>
<!-- Node17 -->
<g id="Node000017" class="node">
<title>Node17</title>
<g id="a_Node000017"><a xlink:href="railroad__crossing_2render_8inc_8c.html" target="_top" xlink:title=" ">
<polygon fill="white" stroke="#666666" points="189.46,-206 67.46,-206 67.46,-176 189.46,-176 189.46,-206"/>
<text text-anchor="start" x="75.46" y="-194" font-family="Helvetica,sans-Serif" font-size="10.00">src/actors/railroad</text>
<text text-anchor="middle" x="128.46" y="-183" font-family="Helvetica,sans-Serif" font-size="10.00">_crossing/render.inc.c</text>
</a>
</g>
</g>
<!-- Node1&#45;&gt;Node17 -->
<g id="edge18_Node000001_Node000017" class="edge">
<title>Node1&#45;&gt;Node17</title>
<g id="a_edge18_Node000001_Node000017"><a xlink:title=" ">
<path fill="none" stroke="#63b8ff" d="M389.79,-241.48C329.23,-230.02 245.85,-214.23 189.7,-203.6"/>
<polygon fill="#63b8ff" stroke="#63b8ff" points="389.21,-244.93 399.68,-243.36 390.51,-238.06 389.21,-244.93"/>
</a>
</g>
</g>
<!-- Node3 -->
<g id="Node000003" class="node">
<title>Node3</title>
<g id="a_Node000003"><a xlink:href="paddle__boat_2render_8inc_8c.html" target="_top" xlink:title=" ">
<polygon fill="white" stroke="#666666" points="1332.96,-140 1205.96,-140 1205.96,-110 1332.96,-110 1332.96,-140"/>
<text text-anchor="start" x="1213.96" y="-128" font-family="Helvetica,sans-Serif" font-size="10.00">src/actors/paddle_boat</text>
<text text-anchor="middle" x="1269.46" y="-117" font-family="Helvetica,sans-Serif" font-size="10.00">/render.inc.c</text>
</a>
</g>
</g>
<!-- Node2&#45;&gt;Node3 -->
<g id="edge2_Node000002_Node000003" class="edge">
<title>Node2&#45;&gt;Node3</title>
<g id="a_edge2_Node000002_Node000003"><a xlink:title=" ">
<path fill="none" stroke="#63b8ff" d="M764.22,-185.4C858.85,-178.16 1041.95,-162.56 1196.46,-140 1199.53,-139.55 1202.66,-139.07 1205.82,-138.55"/>
<polygon fill="#63b8ff" stroke="#63b8ff" points="763.94,-181.91 754.23,-186.16 764.47,-188.89 763.94,-181.91"/>
</a>
</g>
</g>
<!-- Node4 -->
<g id="Node000004" class="node">
<title>Node4</title>
<g id="a_Node000004"><a xlink:href="actors_8c.html" target="_top" xlink:title=" ">
<polygon fill="white" stroke="#666666" points="470.96,-74 365.96,-74 365.96,-55 470.96,-55 470.96,-74"/>
<text text-anchor="middle" x="418.46" y="-62" font-family="Helvetica,sans-Serif" font-size="10.00">src/racing/actors.c</text>
</a>
</g>
</g>
<!-- Node2&#45;&gt;Node4 -->
<g id="edge13_Node000002_Node000004" class="edge">
<title>Node2&#45;&gt;Node4</title>
<g id="a_edge13_Node000002_Node000004"><a xlink:title=" ">
<path fill="none" stroke="#63b8ff" d="M717.51,-167.42C728.5,-149.93 738.36,-126.06 724.46,-110 692.32,-72.85 549.77,-66.07 471.08,-65.23"/>
<polygon fill="#63b8ff" stroke="#63b8ff" points="714.48,-165.66 711.79,-175.91 720.28,-169.57 714.48,-165.66"/>
</a>
</g>
</g>
<!-- Node5 -->
<g id="Node000005" class="node">
<title>Node5</title>
<g id="a_Node000005"><a xlink:href="trees_2render_8inc_8c.html" target="_top" xlink:title=" ">
<polygon fill="white" stroke="#666666" points="167.96,-134.5 16.96,-134.5 16.96,-115.5 167.96,-115.5 167.96,-134.5"/>
<text text-anchor="middle" x="92.46" y="-122.5" font-family="Helvetica,sans-Serif" font-size="10.00">src/actors/trees/render.inc.c</text>
</a>
</g>
</g>
<!-- Node2&#45;&gt;Node5 -->
<g id="edge4_Node000002_Node000005" class="edge">
<title>Node2&#45;&gt;Node5</title>
<g id="a_edge4_Node000002_Node000005"><a xlink:title=" ">
<path fill="none" stroke="#63b8ff" d="M636.74,-184.17C507.09,-172.28 221.07,-145.84 176.46,-140 164.59,-138.45 151.82,-136.47 139.91,-134.5"/>
<polygon fill="#63b8ff" stroke="#63b8ff" points="636.64,-187.68 646.92,-185.11 637.28,-180.71 636.64,-187.68"/>
</a>
</g>
</g>
<!-- Node6 -->
<g id="Node000006" class="node">
<title>Node6</title>
<g id="a_Node000006"><a xlink:href="code__800029B0_8c.html" target="_top" xlink:title=" ">
<polygon fill="white" stroke="#666666" points="304.96,-134.5 185.96,-134.5 185.96,-115.5 304.96,-115.5 304.96,-134.5"/>
<text text-anchor="middle" x="245.46" y="-122.5" font-family="Helvetica,sans-Serif" font-size="10.00">src/code_800029B0.c</text>
</a>
</g>
</g>
<!-- Node2&#45;&gt;Node6 -->
<g id="edge6_Node000002_Node000006" class="edge">
<title>Node2&#45;&gt;Node6</title>
<g id="a_edge6_Node000002_Node000006"><a xlink:title=" ">
<path fill="none" stroke="#63b8ff" d="M636.92,-183.18C560.25,-174.62 427.54,-158.77 314.46,-140 304.94,-138.42 294.72,-136.48 285.14,-134.56"/>
<polygon fill="#63b8ff" stroke="#63b8ff" points="636.57,-186.66 646.9,-184.28 637.34,-179.7 636.57,-186.66"/>
</a>
</g>
</g>
<!-- Node7 -->
<g id="Node000007" class="node">
<title>Node7</title>
<g id="a_Node000007"><a xlink:href="code__80005FD0_8c.html" target="_top" xlink:title=" ">
<polygon fill="white" stroke="#666666" points="443.46,-134.5 323.46,-134.5 323.46,-115.5 443.46,-115.5 443.46,-134.5"/>
<text text-anchor="middle" x="383.46" y="-122.5" font-family="Helvetica,sans-Serif" font-size="10.00">src/code_80005FD0.c</text>
</a>
</g>
</g>
<!-- Node2&#45;&gt;Node7 -->
<g id="edge7_Node000002_Node000007" class="edge">
<title>Node2&#45;&gt;Node7</title>
<g id="a_edge7_Node000002_Node000007"><a xlink:title=" ">
<path fill="none" stroke="#63b8ff" d="M636.72,-177.17C586.63,-167.08 515.09,-152.67 452.46,-140 443.72,-138.23 434.35,-136.33 425.42,-134.52"/>
<polygon fill="#63b8ff" stroke="#63b8ff" points="636.26,-180.65 646.76,-179.19 637.65,-173.79 636.26,-180.65"/>
</a>
</g>
</g>
<!-- Node8 -->
<g id="Node000008" class="node">
<title>Node8</title>
<g id="a_Node000008"><a xlink:href="code__8006E9C0_8c.html" target="_top" xlink:title=" ">
<polygon fill="white" stroke="#666666" points="580.96,-134.5 461.96,-134.5 461.96,-115.5 580.96,-115.5 580.96,-134.5"/>
<text text-anchor="middle" x="521.46" y="-122.5" font-family="Helvetica,sans-Serif" font-size="10.00">src/code_8006E9C0.c</text>
</a>
</g>
</g>
<!-- Node2&#45;&gt;Node8 -->
<g id="edge8_Node000002_Node000008" class="edge">
<title>Node2&#45;&gt;Node8</title>
<g id="a_edge8_Node000002_Node000008"><a xlink:title=" ">
<path fill="none" stroke="#63b8ff" d="M651.73,-172.58C617.19,-160.23 572.33,-144.19 545.28,-134.52"/>
<polygon fill="#63b8ff" stroke="#63b8ff" points="650.58,-175.88 661.18,-175.95 652.94,-169.29 650.58,-175.88"/>
</a>
</g>
</g>
<!-- Node9 -->
<g id="Node000009" class="node">
<title>Node9</title>
<g id="a_Node000009"><a xlink:href="path__spawn__data_8c.html" target="_top" xlink:title=" ">
<polygon fill="white" stroke="#666666" points="715.96,-140 598.96,-140 598.96,-110 715.96,-110 715.96,-140"/>
<text text-anchor="start" x="606.96" y="-128" font-family="Helvetica,sans-Serif" font-size="10.00">src/data/path_spawn</text>
<text text-anchor="middle" x="657.46" y="-117" font-family="Helvetica,sans-Serif" font-size="10.00">_data.c</text>
</a>
</g>
</g>
<!-- Node2&#45;&gt;Node9 -->
<g id="edge9_Node000002_Node000009" class="edge">
<title>Node2&#45;&gt;Node9</title>
<g id="a_edge9_Node000002_Node000009"><a xlink:title=" ">
<path fill="none" stroke="#63b8ff" d="M685.17,-167.24C679.11,-158.21 672.32,-148.11 666.98,-140.16"/>
<polygon fill="#63b8ff" stroke="#63b8ff" points="682.44,-169.45 690.92,-175.8 688.25,-165.54 682.44,-169.45"/>
</a>
</g>
</g>
<!-- Node10 -->
<g id="Node000010" class="node">
<title>Node10</title>
<g id="a_Node000010"><a xlink:href="all__variables_8h.html" target="_top" xlink:title=" ">
<polygon fill="white" stroke="#666666" points="1489.46,-134.5 1351.46,-134.5 1351.46,-115.5 1489.46,-115.5 1489.46,-134.5"/>
<text text-anchor="middle" x="1420.46" y="-122.5" font-family="Helvetica,sans-Serif" font-size="10.00">src/debug/all_variables.h</text>
</a>
</g>
</g>
<!-- Node2&#45;&gt;Node10 -->
<g id="edge10_Node000002_Node000010" class="edge">
<title>Node2&#45;&gt;Node10</title>
<g id="a_edge10_Node000002_Node000010"><a xlink:title=" ">
<path fill="none" stroke="#63b8ff" d="M764.33,-187.09C879.85,-181.35 1131.06,-166.78 1341.46,-140 1352.93,-138.54 1365.27,-136.56 1376.7,-134.54"/>
<polygon fill="#63b8ff" stroke="#63b8ff" points="764.06,-183.59 754.25,-187.58 764.41,-190.59 764.06,-183.59"/>
</a>
</g>
</g>
<!-- Node13 -->
<g id="Node000013" class="node">
<title>Node13</title>
<g id="a_Node000013"><a xlink:href="render__courses_8c.html" target="_top" xlink:title=" ">
<polygon fill="white" stroke="#666666" points="920.96,-134.5 771.96,-134.5 771.96,-115.5 920.96,-115.5 920.96,-134.5"/>
<text text-anchor="middle" x="846.46" y="-122.5" font-family="Helvetica,sans-Serif" font-size="10.00">src/racing/render_courses.c</text>
</a>
</g>
</g>
<!-- Node2&#45;&gt;Node13 -->
<g id="edge14_Node000002_Node000013" class="edge">
<title>Node2&#45;&gt;Node13</title>
<g id="a_edge14_Node000002_Node000013"><a xlink:title=" ">
<path fill="none" stroke="#63b8ff" d="M742.02,-171.78C769.94,-159.54 805.44,-143.98 827.03,-134.52"/>
<polygon fill="#63b8ff" stroke="#63b8ff" points="740.25,-168.73 732.5,-175.95 743.07,-175.15 740.25,-168.73"/>
</a>
</g>
</g>
<!-- Node14 -->
<g id="Node000014" class="node">
<title>Node14</title>
<g id="a_Node000014"><a xlink:href="render__objects_8c.html" target="_top" xlink:title=" ">
<polygon fill="white" stroke="#666666" points="1053.46,-134.5 939.46,-134.5 939.46,-115.5 1053.46,-115.5 1053.46,-134.5"/>
<text text-anchor="middle" x="996.46" y="-122.5" font-family="Helvetica,sans-Serif" font-size="10.00">src/render_objects.c</text>
</a>
</g>
</g>
<!-- Node2&#45;&gt;Node14 -->
<g id="edge15_Node000002_Node000014" class="edge">
<title>Node2&#45;&gt;Node14</title>
<g id="a_edge15_Node000002_Node000014"><a xlink:title=" ">
<path fill="none" stroke="#63b8ff" d="M763.95,-176.27C822.51,-163.61 907.62,-145.21 956.98,-134.54"/>
<polygon fill="#63b8ff" stroke="#63b8ff" points="763.1,-172.88 754.06,-178.41 764.58,-179.72 763.1,-172.88"/>
</a>
</g>
</g>
<!-- Node15 -->
<g id="Node000015" class="node">
<title>Node15</title>
<g id="a_Node000015"><a xlink:href="update__objects_8c.html" target="_top" xlink:title=" ">
<polygon fill="white" stroke="#666666" points="1187.46,-134.5 1071.46,-134.5 1071.46,-115.5 1187.46,-115.5 1187.46,-134.5"/>
<text text-anchor="middle" x="1129.46" y="-122.5" font-family="Helvetica,sans-Serif" font-size="10.00">src/update_objects.c</text>
</a>
</g>
</g>
<!-- Node2&#45;&gt;Node15 -->
<g id="edge16_Node000002_Node000015" class="edge">
<title>Node2&#45;&gt;Node15</title>
<g id="a_edge16_Node000002_Node000015"><a xlink:title=" ">
<path fill="none" stroke="#63b8ff" d="M764.33,-182.53C836.82,-173.73 958.49,-158.02 1062.46,-140 1071.71,-138.4 1081.63,-136.45 1090.93,-134.52"/>
<polygon fill="#63b8ff" stroke="#63b8ff" points="763.51,-179.1 754,-183.77 764.35,-186.05 763.51,-179.1"/>
</a>
</g>
</g>
<!-- Node3&#45;&gt;Node4 -->
<g id="edge3_Node000003_Node000004" class="edge">
<title>Node3&#45;&gt;Node4</title>
<g id="a_edge3_Node000003_Node000004"><a xlink:title=" ">
<path fill="none" stroke="#63b8ff" d="M1195.53,-110.02C916.93,-76.14 595.3,-68.07 471.04,-66.11"/>
<polygon fill="#63b8ff" stroke="#63b8ff" points="1195.49,-113.54 1205.84,-111.28 1196.34,-106.59 1195.49,-113.54"/>
</a>
</g>
</g>
<!-- Node5&#45;&gt;Node4 -->
<g id="edge5_Node000005_Node000004" class="edge">
<title>Node5&#45;&gt;Node4</title>
<g id="a_edge5_Node000005_Node000004"><a xlink:title=" ">
<path fill="none" stroke="#63b8ff" d="M150.01,-113.67C212.88,-102.39 312.43,-84.53 371,-74.02"/>
<polygon fill="#63b8ff" stroke="#63b8ff" points="149.09,-110.28 139.86,-115.49 150.33,-117.17 149.09,-110.28"/>
</a>
</g>
</g>
<!-- Node11 -->
<g id="Node000011" class="node">
<title>Node11</title>
<g id="a_Node000011"><a xlink:href="debug_8inc_8c.html" target="_top" xlink:title=" ">
<polygon fill="white" stroke="#666666" points="1481.46,-74 1359.46,-74 1359.46,-55 1481.46,-55 1481.46,-74"/>
<text text-anchor="middle" x="1420.46" y="-62" font-family="Helvetica,sans-Serif" font-size="10.00">src/debug/debug.inc.c</text>
</a>
</g>
</g>
<!-- Node10&#45;&gt;Node11 -->
<g id="edge11_Node000010_Node000011" class="edge">
<title>Node10&#45;&gt;Node11</title>
<g id="a_edge11_Node000010_Node000011"><a xlink:title=" ">
<path fill="none" stroke="#63b8ff" d="M1420.46,-105.16C1420.46,-94.74 1420.46,-82.3 1420.46,-74.17"/>
<polygon fill="#63b8ff" stroke="#63b8ff" points="1416.96,-105.37 1420.46,-115.37 1423.96,-105.37 1416.96,-105.37"/>
</a>
</g>
</g>
<!-- Node12 -->
<g id="Node000012" class="node">
<title>Node12</title>
<g id="a_Node000012"><a xlink:href="debug_8c.html" target="_top" xlink:title=" ">
<polygon fill="white" stroke="#666666" points="1472.96,-19 1367.96,-19 1367.96,0 1472.96,0 1472.96,-19"/>
<text text-anchor="middle" x="1420.46" y="-7" font-family="Helvetica,sans-Serif" font-size="10.00">src/debug/debug.c</text>
</a>
</g>
</g>
<!-- Node11&#45;&gt;Node12 -->
<g id="edge12_Node000011_Node000012" class="edge">
<title>Node11&#45;&gt;Node12</title>
<g id="a_edge12_Node000011_Node000012"><a xlink:title=" ">
<path fill="none" stroke="#63b8ff" d="M1420.46,-44.66C1420.46,-35.93 1420.46,-25.99 1420.46,-19.09"/>
<polygon fill="#63b8ff" stroke="#63b8ff" points="1416.96,-44.75 1420.46,-54.75 1423.96,-44.75 1416.96,-44.75"/>
</a>
</g>
</g>
<!-- Node17&#45;&gt;Node4 -->
<g id="edge19_Node000017_Node000004" class="edge">
<title>Node17&#45;&gt;Node4</title>
<g id="a_edge19_Node000017_Node000004"><a xlink:title=" ">
<path fill="none" stroke="#63b8ff" d="M64.51,-172.67C24,-158.63 -16.6,-136.81 7.46,-110 30.98,-83.79 259.98,-71.62 365.59,-67.36"/>
<polygon fill="#63b8ff" stroke="#63b8ff" points="63.63,-176.07 74.22,-175.9 65.84,-169.43 63.63,-176.07"/>
</a>
</g>
</g>
</g>
</svg>
