<?xml version="1.0" encoding="UTF-8" standalone="no"?>
<!DOCTYPE svg PUBLIC "-//W3C//DTD SVG 1.1//EN"
 "http://www.w3.org/Graphics/SVG/1.1/DTD/svg11.dtd">
<!-- Generated by graphviz version 2.43.0 (0)
 -->
<!-- Title: courses/koopa_troopa_beach/course_data.inc.h Pages: 1 -->
<svg width="1492pt" height="280pt"
 viewBox="0.00 0.00 1491.58 280.00" xmlns="http://www.w3.org/2000/svg" xmlns:xlink="http://www.w3.org/1999/xlink">
<g id="graph0" class="graph" transform="scale(1 1) rotate(0) translate(4 276)">
<title>courses/koopa_troopa_beach/course_data.inc.h</title>
<!-- Node1 -->
<g id="Node000001" class="node">
<title>Node1</title>
<g id="a_Node000001"><a xlink:title=" ">
<polygon fill="#999999" stroke="#666666" points="432.58,-272 292.58,-272 292.58,-242 432.58,-242 432.58,-272"/>
<text text-anchor="start" x="300.58" y="-260" font-family="Helvetica,sans-Serif" font-size="10.00">courses/koopa_troopa</text>
<text text-anchor="middle" x="362.58" y="-249" font-family="Helvetica,sans-Serif" font-size="10.00">_beach/course_data.inc.h</text>
</a>
</g>
</g>
<!-- Node2 -->
<g id="Node000002" class="node">
<title>Node2</title>
<g id="a_Node000002"><a xlink:href="all__course__data_8h.html" target="_top" xlink:title=" ">
<polygon fill="white" stroke="#666666" points="748.08,-206 641.08,-206 641.08,-176 748.08,-176 748.08,-206"/>
<text text-anchor="start" x="649.08" y="-194" font-family="Helvetica,sans-Serif" font-size="10.00">courses/all_course</text>
<text text-anchor="middle" x="694.58" y="-183" font-family="Helvetica,sans-Serif" font-size="10.00">_data.h</text>
</a>
</g>
</g>
<!-- Node1&#45;&gt;Node2 -->
<g id="edge1_Node000001_Node000002" class="edge">
<title>Node1&#45;&gt;Node2</title>
<g id="a_edge1_Node000001_Node000002"><a xlink:title=" ">
<path fill="none" stroke="#63b8ff" d="M442.64,-240.57C504.15,-228.71 587.39,-212.66 641.05,-202.32"/>
<polygon fill="#63b8ff" stroke="#63b8ff" points="441.74,-237.18 432.58,-242.51 443.06,-244.05 441.74,-237.18"/>
</a>
</g>
</g>
<!-- Node16 -->
<g id="Node000016" class="node">
<title>Node16</title>
<g id="a_Node000016"><a xlink:href="palm__tree_2render_8inc_8c.html" target="_top" xlink:title=" ">
<polygon fill="white" stroke="#666666" points="355.58,-206 239.58,-206 239.58,-176 355.58,-176 355.58,-206"/>
<text text-anchor="start" x="247.58" y="-194" font-family="Helvetica,sans-Serif" font-size="10.00">src/actors/palm_tree</text>
<text text-anchor="middle" x="297.58" y="-183" font-family="Helvetica,sans-Serif" font-size="10.00">/render.inc.c</text>
</a>
</g>
</g>
<!-- Node1&#45;&gt;Node16 -->
<g id="edge17_Node000001_Node000016" class="edge">
<title>Node1&#45;&gt;Node16</title>
<g id="a_edge17_Node000001_Node000016"><a xlink:title=" ">
<path fill="none" stroke="#63b8ff" d="M340.89,-234.65C331.37,-225.27 320.46,-214.53 311.96,-206.16"/>
<polygon fill="#63b8ff" stroke="#63b8ff" points="338.57,-237.27 348.15,-241.8 343.48,-232.29 338.57,-237.27"/>
</a>
</g>
</g>
<!-- Node3 -->
<g id="Node000003" class="node">
<title>Node3</title>
<g id="a_Node000003"><a xlink:href="paddle__boat_2render_8inc_8c.html" target="_top" xlink:title=" ">
<polygon fill="white" stroke="#666666" points="1327.08,-140 1200.08,-140 1200.08,-110 1327.08,-110 1327.08,-140"/>
<text text-anchor="start" x="1208.08" y="-128" font-family="Helvetica,sans-Serif" font-size="10.00">src/actors/paddle_boat</text>
<text text-anchor="middle" x="1263.58" y="-117" font-family="Helvetica,sans-Serif" font-size="10.00">/render.inc.c</text>
</a>
</g>
</g>
<!-- Node2&#45;&gt;Node3 -->
<g id="edge2_Node000002_Node000003" class="edge">
<title>Node2&#45;&gt;Node3</title>
<g id="a_edge2_Node000002_Node000003"><a xlink:title=" ">
<path fill="none" stroke="#63b8ff" d="M758.34,-185.4C852.97,-178.16 1036.06,-162.56 1190.58,-140 1193.64,-139.55 1196.78,-139.07 1199.93,-138.55"/>
<polygon fill="#63b8ff" stroke="#63b8ff" points="758.06,-181.91 748.35,-186.16 758.59,-188.89 758.06,-181.91"/>
</a>
</g>
</g>
<!-- Node4 -->
<g id="Node000004" class="node">
<title>Node4</title>
<g id="a_Node000004"><a xlink:href="actors_8c.html" target="_top" xlink:title=" ">
<polygon fill="white" stroke="#666666" points="466.08,-74 361.08,-74 361.08,-55 466.08,-55 466.08,-74"/>
<text text-anchor="middle" x="413.58" y="-62" font-family="Helvetica,sans-Serif" font-size="10.00">src/racing/actors.c</text>
</a>
</g>
</g>
<!-- Node2&#45;&gt;Node4 -->
<g id="edge13_Node000002_Node000004" class="edge">
<title>Node2&#45;&gt;Node4</title>
<g id="a_edge13_Node000002_Node000004"><a xlink:title=" ">
<path fill="none" stroke="#63b8ff" d="M711.63,-167.42C722.61,-149.94 732.47,-126.07 718.58,-110 686.6,-73.01 544.85,-66.16 466.35,-65.26"/>
<polygon fill="#63b8ff" stroke="#63b8ff" points="708.6,-165.66 705.9,-175.91 714.4,-169.57 708.6,-165.66"/>
</a>
</g>
</g>
<!-- Node5 -->
<g id="Node000005" class="node">
<title>Node5</title>
<g id="a_Node000005"><a xlink:href="tree_2render_8inc_8c.html" target="_top" xlink:title=" ">
<polygon fill="white" stroke="#666666" points="161.58,-134.5 15.58,-134.5 15.58,-115.5 161.58,-115.5 161.58,-134.5"/>
<text text-anchor="middle" x="88.58" y="-122.5" font-family="Helvetica,sans-Serif" font-size="10.00">src/actors/tree/render.inc.c</text>
</a>
</g>
</g>
<!-- Node2&#45;&gt;Node5 -->
<g id="edge4_Node000002_Node000005" class="edge">
<title>Node2&#45;&gt;Node5</title>
<g id="a_edge4_Node000002_Node000005"><a xlink:title=" ">
<path fill="none" stroke="#63b8ff" d="M630.75,-185.44C531.9,-178.03 335.94,-161.97 170.58,-140 158.98,-138.46 146.52,-136.49 134.89,-134.52"/>
<polygon fill="#63b8ff" stroke="#63b8ff" points="630.64,-188.94 640.87,-186.19 631.16,-181.96 630.64,-188.94"/>
</a>
</g>
</g>
<!-- Node6 -->
<g id="Node000006" class="node">
<title>Node6</title>
<g id="a_Node000006"><a xlink:href="code__800029B0_8c.html" target="_top" xlink:title=" ">
<polygon fill="white" stroke="#666666" points="299.08,-134.5 180.08,-134.5 180.08,-115.5 299.08,-115.5 299.08,-134.5"/>
<text text-anchor="middle" x="239.58" y="-122.5" font-family="Helvetica,sans-Serif" font-size="10.00">src/code_800029B0.c</text>
</a>
</g>
</g>
<!-- Node2&#45;&gt;Node6 -->
<g id="edge6_Node000002_Node000006" class="edge">
<title>Node2&#45;&gt;Node6</title>
<g id="a_edge6_Node000002_Node000006"><a xlink:title=" ">
<path fill="none" stroke="#63b8ff" d="M631.03,-183.18C554.36,-174.62 421.66,-158.77 308.58,-140 299.05,-138.42 288.84,-136.48 279.26,-134.56"/>
<polygon fill="#63b8ff" stroke="#63b8ff" points="630.69,-186.66 641.02,-184.28 631.46,-179.7 630.69,-186.66"/>
</a>
</g>
</g>
<!-- Node7 -->
<g id="Node000007" class="node">
<title>Node7</title>
<g id="a_Node000007"><a xlink:href="code__80005FD0_8c.html" target="_top" xlink:title=" ">
<polygon fill="white" stroke="#666666" points="437.58,-134.5 317.58,-134.5 317.58,-115.5 437.58,-115.5 437.58,-134.5"/>
<text text-anchor="middle" x="377.58" y="-122.5" font-family="Helvetica,sans-Serif" font-size="10.00">src/code_80005FD0.c</text>
</a>
</g>
</g>
<!-- Node2&#45;&gt;Node7 -->
<g id="edge7_Node000002_Node000007" class="edge">
<title>Node2&#45;&gt;Node7</title>
<g id="a_edge7_Node000002_Node000007"><a xlink:title=" ">
<path fill="none" stroke="#63b8ff" d="M630.84,-177.17C580.74,-167.08 509.21,-152.67 446.58,-140 437.83,-138.23 428.46,-136.33 419.54,-134.52"/>
<polygon fill="#63b8ff" stroke="#63b8ff" points="630.38,-180.65 640.88,-179.19 631.76,-173.79 630.38,-180.65"/>
</a>
</g>
</g>
<!-- Node8 -->
<g id="Node000008" class="node">
<title>Node8</title>
<g id="a_Node000008"><a xlink:href="code__8006E9C0_8c.html" target="_top" xlink:title=" ">
<polygon fill="white" stroke="#666666" points="575.08,-134.5 456.08,-134.5 456.08,-115.5 575.08,-115.5 575.08,-134.5"/>
<text text-anchor="middle" x="515.58" y="-122.5" font-family="Helvetica,sans-Serif" font-size="10.00">src/code_8006E9C0.c</text>
</a>
</g>
</g>
<!-- Node2&#45;&gt;Node8 -->
<g id="edge8_Node000002_Node000008" class="edge">
<title>Node2&#45;&gt;Node8</title>
<g id="a_edge8_Node000002_Node000008"><a xlink:title=" ">
<path fill="none" stroke="#63b8ff" d="M645.85,-172.58C611.3,-160.23 566.45,-144.19 539.4,-134.52"/>
<polygon fill="#63b8ff" stroke="#63b8ff" points="644.7,-175.88 655.3,-175.95 647.06,-169.29 644.7,-175.88"/>
</a>
</g>
</g>
<!-- Node9 -->
<g id="Node000009" class="node">
<title>Node9</title>
<g id="a_Node000009"><a xlink:href="path__spawn__data_8c.html" target="_top" xlink:title=" ">
<polygon fill="white" stroke="#666666" points="710.08,-140 593.08,-140 593.08,-110 710.08,-110 710.08,-140"/>
<text text-anchor="start" x="601.08" y="-128" font-family="Helvetica,sans-Serif" font-size="10.00">src/data/path_spawn</text>
<text text-anchor="middle" x="651.58" y="-117" font-family="Helvetica,sans-Serif" font-size="10.00">_data.c</text>
</a>
</g>
</g>
<!-- Node2&#45;&gt;Node9 -->
<g id="edge9_Node000002_Node000009" class="edge">
<title>Node2&#45;&gt;Node9</title>
<g id="a_edge9_Node000002_Node000009"><a xlink:title=" ">
<path fill="none" stroke="#63b8ff" d="M679.29,-167.24C673.22,-158.21 666.44,-148.11 661.1,-140.16"/>
<polygon fill="#63b8ff" stroke="#63b8ff" points="676.55,-169.45 685.04,-175.8 682.36,-165.54 676.55,-169.45"/>
</a>
</g>
</g>
<!-- Node10 -->
<g id="Node000010" class="node">
<title>Node10</title>
<g id="a_Node000010"><a xlink:href="all__variables_8h.html" target="_top" xlink:title=" ">
<polygon fill="white" stroke="#666666" points="1483.58,-134.5 1345.58,-134.5 1345.58,-115.5 1483.58,-115.5 1483.58,-134.5"/>
<text text-anchor="middle" x="1414.58" y="-122.5" font-family="Helvetica,sans-Serif" font-size="10.00">src/debug/all_variables.h</text>
</a>
</g>
</g>
<!-- Node2&#45;&gt;Node10 -->
<g id="edge10_Node000002_Node000010" class="edge">
<title>Node2&#45;&gt;Node10</title>
<g id="a_edge10_Node000002_Node000010"><a xlink:title=" ">
<path fill="none" stroke="#63b8ff" d="M758.45,-187.09C873.97,-181.35 1125.18,-166.78 1335.58,-140 1347.05,-138.54 1359.38,-136.56 1370.82,-134.54"/>
<polygon fill="#63b8ff" stroke="#63b8ff" points="758.18,-183.59 748.36,-187.58 758.52,-190.59 758.18,-183.59"/>
</a>
</g>
</g>
<!-- Node13 -->
<g id="Node000013" class="node">
<title>Node13</title>
<g id="a_Node000013"><a xlink:href="render__courses_8c.html" target="_top" xlink:title=" ">
<polygon fill="white" stroke="#666666" points="915.08,-134.5 766.08,-134.5 766.08,-115.5 915.08,-115.5 915.08,-134.5"/>
<text text-anchor="middle" x="840.58" y="-122.5" font-family="Helvetica,sans-Serif" font-size="10.00">src/racing/render_courses.c</text>
</a>
</g>
</g>
<!-- Node2&#45;&gt;Node13 -->
<g id="edge14_Node000002_Node000013" class="edge">
<title>Node2&#45;&gt;Node13</title>
<g id="a_edge14_Node000002_Node000013"><a xlink:title=" ">
<path fill="none" stroke="#63b8ff" d="M736.14,-171.78C764.06,-159.54 799.56,-143.98 821.15,-134.52"/>
<polygon fill="#63b8ff" stroke="#63b8ff" points="734.37,-168.73 726.62,-175.95 737.18,-175.15 734.37,-168.73"/>
</a>
</g>
</g>
<!-- Node14 -->
<g id="Node000014" class="node">
<title>Node14</title>
<g id="a_Node000014"><a xlink:href="render__objects_8c.html" target="_top" xlink:title=" ">
<polygon fill="white" stroke="#666666" points="1047.58,-134.5 933.58,-134.5 933.58,-115.5 1047.58,-115.5 1047.58,-134.5"/>
<text text-anchor="middle" x="990.58" y="-122.5" font-family="Helvetica,sans-Serif" font-size="10.00">src/render_objects.c</text>
</a>
</g>
</g>
<!-- Node2&#45;&gt;Node14 -->
<g id="edge15_Node000002_Node000014" class="edge">
<title>Node2&#45;&gt;Node14</title>
<g id="a_edge15_Node000002_Node000014"><a xlink:title=" ">
<path fill="none" stroke="#63b8ff" d="M758.07,-176.27C816.63,-163.61 901.73,-145.21 951.09,-134.54"/>
<polygon fill="#63b8ff" stroke="#63b8ff" points="757.22,-172.88 748.18,-178.41 758.7,-179.72 757.22,-172.88"/>
</a>
</g>
</g>
<!-- Node15 -->
<g id="Node000015" class="node">
<title>Node15</title>
<g id="a_Node000015"><a xlink:href="update__objects_8c.html" target="_top" xlink:title=" ">
<polygon fill="white" stroke="#666666" points="1181.58,-134.5 1065.58,-134.5 1065.58,-115.5 1181.58,-115.5 1181.58,-134.5"/>
<text text-anchor="middle" x="1123.58" y="-122.5" font-family="Helvetica,sans-Serif" font-size="10.00">src/update_objects.c</text>
</a>
</g>
</g>
<!-- Node2&#45;&gt;Node15 -->
<g id="edge16_Node000002_Node000015" class="edge">
<title>Node2&#45;&gt;Node15</title>
<g id="a_edge16_Node000002_Node000015"><a xlink:title=" ">
<path fill="none" stroke="#63b8ff" d="M758.45,-182.53C830.94,-173.73 952.61,-158.02 1056.58,-140 1065.83,-138.4 1075.75,-136.45 1085.05,-134.52"/>
<polygon fill="#63b8ff" stroke="#63b8ff" points="757.63,-179.1 748.12,-183.77 758.47,-186.05 757.63,-179.1"/>
</a>
</g>
</g>
<!-- Node3&#45;&gt;Node4 -->
<g id="edge3_Node000003_Node000004" class="edge">
<title>Node3&#45;&gt;Node4</title>
<g id="a_edge3_Node000003_Node000004"><a xlink:title=" ">
<path fill="none" stroke="#63b8ff" d="M1189.66,-110.02C911.41,-76.18 590.19,-68.08 466.09,-66.11"/>
<polygon fill="#63b8ff" stroke="#63b8ff" points="1189.6,-113.54 1199.96,-111.28 1190.46,-106.59 1189.6,-113.54"/>
</a>
</g>
</g>
<!-- Node5&#45;&gt;Node4 -->
<g id="edge5_Node000005_Node000004" class="edge">
<title>Node5&#45;&gt;Node4</title>
<g id="a_edge5_Node000005_Node000004"><a xlink:title=" ">
<path fill="none" stroke="#63b8ff" d="M145.95,-113.67C208.63,-102.39 307.87,-84.53 366.26,-74.02"/>
<polygon fill="#63b8ff" stroke="#63b8ff" points="145.06,-110.28 135.84,-115.49 146.3,-117.17 145.06,-110.28"/>
</a>
</g>
</g>
<!-- Node11 -->
<g id="Node000011" class="node">
<title>Node11</title>
<g id="a_Node000011"><a xlink:href="debug_8inc_8c.html" target="_top" xlink:title=" ">
<polygon fill="white" stroke="#666666" points="1475.58,-74 1353.58,-74 1353.58,-55 1475.58,-55 1475.58,-74"/>
<text text-anchor="middle" x="1414.58" y="-62" font-family="Helvetica,sans-Serif" font-size="10.00">src/debug/debug.inc.c</text>
</a>
</g>
</g>
<!-- Node10&#45;&gt;Node11 -->
<g id="edge11_Node000010_Node000011" class="edge">
<title>Node10&#45;&gt;Node11</title>
<g id="a_edge11_Node000010_Node000011"><a xlink:title=" ">
<path fill="none" stroke="#63b8ff" d="M1414.58,-105.16C1414.58,-94.74 1414.58,-82.3 1414.58,-74.17"/>
<polygon fill="#63b8ff" stroke="#63b8ff" points="1411.08,-105.37 1414.58,-115.37 1418.08,-105.37 1411.08,-105.37"/>
</a>
</g>
</g>
<!-- Node12 -->
<g id="Node000012" class="node">
<title>Node12</title>
<g id="a_Node000012"><a xlink:href="debug_8c.html" target="_top" xlink:title=" ">
<polygon fill="white" stroke="#666666" points="1467.08,-19 1362.08,-19 1362.08,0 1467.08,0 1467.08,-19"/>
<text text-anchor="middle" x="1414.58" y="-7" font-family="Helvetica,sans-Serif" font-size="10.00">src/debug/debug.c</text>
</a>
</g>
</g>
<!-- Node11&#45;&gt;Node12 -->
<g id="edge12_Node000011_Node000012" class="edge">
<title>Node11&#45;&gt;Node12</title>
<g id="a_edge12_Node000011_Node000012"><a xlink:title=" ">
<path fill="none" stroke="#63b8ff" d="M1414.58,-44.66C1414.58,-35.93 1414.58,-25.99 1414.58,-19.09"/>
<polygon fill="#63b8ff" stroke="#63b8ff" points="1411.08,-44.75 1414.58,-54.75 1418.08,-44.75 1411.08,-44.75"/>
</a>
</g>
</g>
<!-- Node16&#45;&gt;Node4 -->
<g id="edge18_Node000016_Node000004" class="edge">
<title>Node16&#45;&gt;Node4</title>
<g id="a_edge18_Node000016_Node000004"><a xlink:title=" ">
<path fill="none" stroke="#63b8ff" d="M229.48,-188.09C152.59,-184.32 34.52,-173.15 6.58,-140 -2.01,-129.8 -2.32,-119.93 6.58,-110 29.83,-84.07 256.05,-71.76 360.82,-67.41"/>
<polygon fill="#63b8ff" stroke="#63b8ff" points="229.43,-191.59 239.58,-188.55 229.75,-184.6 229.43,-191.59"/>
</a>
</g>
</g>
</g>
</svg>
