<?xml version="1.0" encoding="UTF-8" standalone="no"?>
<!DOCTYPE svg PUBLIC "-//W3C//DTD SVG 1.1//EN"
 "http://www.w3.org/Graphics/SVG/1.1/DTD/svg11.dtd">
<!-- Generated by graphviz version 2.43.0 (0)
 -->
<!-- Title: courses/mario_raceway/course_data.inc.h Pages: 1 -->
<svg width="1355pt" height="280pt"
 viewBox="0.00 0.00 1354.50 280.00" xmlns="http://www.w3.org/2000/svg" xmlns:xlink="http://www.w3.org/1999/xlink">
<g id="graph0" class="graph" transform="scale(1 1) rotate(0) translate(4 276)">
<title>courses/mario_raceway/course_data.inc.h</title>
<!-- Node1 -->
<g id="Node000001" class="node">
<title>Node1</title>
<g id="a_Node000001"><a xlink:title=" ">
<polygon fill="#999999" stroke="#666666" points="627.5,-272 495.5,-272 495.5,-242 627.5,-242 627.5,-272"/>
<text text-anchor="start" x="503.5" y="-260" font-family="Helvetica,sans-Serif" font-size="10.00">courses/mario_raceway</text>
<text text-anchor="middle" x="561.5" y="-249" font-family="Helvetica,sans-Serif" font-size="10.00">/course_data.inc.h</text>
</a>
</g>
</g>
<!-- Node2 -->
<g id="Node000002" class="node">
<title>Node2</title>
<g id="a_Node000002"><a xlink:href="all__course__data_8h.html" target="_top" xlink:title=" ">
<polygon fill="white" stroke="#666666" points="615,-206 508,-206 508,-176 615,-176 615,-206"/>
<text text-anchor="start" x="516" y="-194" font-family="Helvetica,sans-Serif" font-size="10.00">courses/all_course</text>
<text text-anchor="middle" x="561.5" y="-183" font-family="Helvetica,sans-Serif" font-size="10.00">_data.h</text>
</a>
</g>
</g>
<!-- Node1&#45;&gt;Node2 -->
<g id="edge1_Node000001_Node000002" class="edge">
<title>Node1&#45;&gt;Node2</title>
<g id="a_edge1_Node000001_Node000002"><a xlink:title=" ">
<path fill="none" stroke="#63b8ff" d="M561.5,-231.54C561.5,-222.96 561.5,-213.61 561.5,-206.16"/>
<polygon fill="#63b8ff" stroke="#63b8ff" points="558,-231.8 561.5,-241.8 565,-231.8 558,-231.8"/>
</a>
</g>
</g>
<!-- Node15 -->
<g id="Node000015" class="node">
<title>Node15</title>
<g id="a_Node000015"><a xlink:href="mario__raceway_2course__offsets_8inc_8c.html" target="_top" xlink:title=" ">
<polygon fill="white" stroke="#666666" points="765.5,-206 633.5,-206 633.5,-176 765.5,-176 765.5,-206"/>
<text text-anchor="start" x="641.5" y="-194" font-family="Helvetica,sans-Serif" font-size="10.00">courses/mario_raceway</text>
<text text-anchor="middle" x="699.5" y="-183" font-family="Helvetica,sans-Serif" font-size="10.00">/course_offsets.inc.c</text>
</a>
</g>
</g>
<!-- Node1&#45;&gt;Node15 -->
<g id="edge15_Node000001_Node000015" class="edge">
<title>Node1&#45;&gt;Node15</title>
<g id="a_edge15_Node000001_Node000015"><a xlink:title=" ">
<path fill="none" stroke="#63b8ff" d="M601.07,-237.65C622.77,-227.58 649.26,-215.3 669.29,-206.01"/>
<polygon fill="#63b8ff" stroke="#63b8ff" points="599.38,-234.57 591.78,-241.95 602.33,-240.92 599.38,-234.57"/>
</a>
</g>
</g>
<!-- Node16 -->
<g id="Node000016" class="node">
<title>Node16</title>
<g id="a_Node000016"><a xlink:href="mario__sign_2render_8inc_8c.html" target="_top" xlink:title=" ">
<polygon fill="white" stroke="#666666" points="283,-206 162,-206 162,-176 283,-176 283,-206"/>
<text text-anchor="start" x="170" y="-194" font-family="Helvetica,sans-Serif" font-size="10.00">src/actors/mario_sign</text>
<text text-anchor="middle" x="222.5" y="-183" font-family="Helvetica,sans-Serif" font-size="10.00">/render.inc.c</text>
</a>
</g>
</g>
<!-- Node1&#45;&gt;Node16 -->
<g id="edge16_Node000001_Node000016" class="edge">
<title>Node1&#45;&gt;Node16</title>
<g id="a_edge16_Node000001_Node000016"><a xlink:title=" ">
<path fill="none" stroke="#63b8ff" d="M485.36,-241.62C424.26,-230.09 339.65,-214.12 283.09,-203.44"/>
<polygon fill="#63b8ff" stroke="#63b8ff" points="484.86,-245.09 495.33,-243.51 486.16,-238.21 484.86,-245.09"/>
</a>
</g>
</g>
<!-- Node3 -->
<g id="Node000003" class="node">
<title>Node3</title>
<g id="a_Node000003"><a xlink:href="paddle__boat_2render_8inc_8c.html" target="_top" xlink:title=" ">
<polygon fill="white" stroke="#666666" points="208,-140 81,-140 81,-110 208,-110 208,-140"/>
<text text-anchor="start" x="89" y="-128" font-family="Helvetica,sans-Serif" font-size="10.00">src/actors/paddle_boat</text>
<text text-anchor="middle" x="144.5" y="-117" font-family="Helvetica,sans-Serif" font-size="10.00">/render.inc.c</text>
</a>
</g>
</g>
<!-- Node2&#45;&gt;Node3 -->
<g id="edge2_Node000002_Node000003" class="edge">
<title>Node2&#45;&gt;Node3</title>
<g id="a_edge2_Node000002_Node000003"><a xlink:title=" ">
<path fill="none" stroke="#63b8ff" d="M497.57,-181.67C428.2,-172.42 314.26,-156.58 216.5,-140 213.74,-139.53 210.92,-139.04 208.07,-138.53"/>
<polygon fill="#63b8ff" stroke="#63b8ff" points="497.51,-185.2 507.89,-183.04 498.44,-178.26 497.51,-185.2"/>
</a>
</g>
</g>
<!-- Node4 -->
<g id="Node000004" class="node">
<title>Node4</title>
<g id="a_Node000004"><a xlink:href="actors_8c.html" target="_top" xlink:title=" ">
<polygon fill="white" stroke="#666666" points="105,-74 0,-74 0,-55 105,-55 105,-74"/>
<text text-anchor="middle" x="52.5" y="-62" font-family="Helvetica,sans-Serif" font-size="10.00">src/racing/actors.c</text>
</a>
</g>
</g>
<!-- Node2&#45;&gt;Node4 -->
<g id="edge11_Node000002_Node000004" class="edge">
<title>Node2&#45;&gt;Node4</title>
<g id="a_edge11_Node000002_Node000004"><a xlink:title=" ">
<path fill="none" stroke="#63b8ff" d="M497.65,-187.51C372.24,-182.06 103.16,-167.29 71.5,-140 52.09,-123.27 51.11,-89.73 51.83,-74"/>
<polygon fill="#63b8ff" stroke="#63b8ff" points="497.73,-191.02 507.87,-187.95 498.03,-184.03 497.73,-191.02"/>
</a>
</g>
</g>
<!-- Node5 -->
<g id="Node000005" class="node">
<title>Node5</title>
<g id="a_Node000005"><a xlink:href="code__800029B0_8c.html" target="_top" xlink:title=" ">
<polygon fill="white" stroke="#666666" points="345,-134.5 226,-134.5 226,-115.5 345,-115.5 345,-134.5"/>
<text text-anchor="middle" x="285.5" y="-122.5" font-family="Helvetica,sans-Serif" font-size="10.00">src/code_800029B0.c</text>
</a>
</g>
</g>
<!-- Node2&#45;&gt;Node5 -->
<g id="edge4_Node000002_Node000005" class="edge">
<title>Node2&#45;&gt;Node5</title>
<g id="a_edge4_Node000002_Node000005"><a xlink:title=" ">
<path fill="none" stroke="#63b8ff" d="M498.09,-175.3C443.78,-162.7 367.45,-145 322.56,-134.59"/>
<polygon fill="#63b8ff" stroke="#63b8ff" points="497.42,-178.73 507.96,-177.58 499.01,-171.92 497.42,-178.73"/>
</a>
</g>
</g>
<!-- Node6 -->
<g id="Node000006" class="node">
<title>Node6</title>
<g id="a_Node000006"><a xlink:href="code__80005FD0_8c.html" target="_top" xlink:title=" ">
<polygon fill="white" stroke="#666666" points="483.5,-134.5 363.5,-134.5 363.5,-115.5 483.5,-115.5 483.5,-134.5"/>
<text text-anchor="middle" x="423.5" y="-122.5" font-family="Helvetica,sans-Serif" font-size="10.00">src/code_80005FD0.c</text>
</a>
</g>
</g>
<!-- Node2&#45;&gt;Node6 -->
<g id="edge5_Node000002_Node000006" class="edge">
<title>Node2&#45;&gt;Node6</title>
<g id="a_edge5_Node000002_Node000006"><a xlink:title=" ">
<path fill="none" stroke="#63b8ff" d="M521.87,-171.62C495.53,-159.41 462.18,-143.94 441.87,-134.52"/>
<polygon fill="#63b8ff" stroke="#63b8ff" points="520.67,-174.92 531.22,-175.95 523.62,-168.57 520.67,-174.92"/>
</a>
</g>
</g>
<!-- Node7 -->
<g id="Node000007" class="node">
<title>Node7</title>
<g id="a_Node000007"><a xlink:href="code__8006E9C0_8c.html" target="_top" xlink:title=" ">
<polygon fill="white" stroke="#666666" points="621,-134.5 502,-134.5 502,-115.5 621,-115.5 621,-134.5"/>
<text text-anchor="middle" x="561.5" y="-122.5" font-family="Helvetica,sans-Serif" font-size="10.00">src/code_8006E9C0.c</text>
</a>
</g>
</g>
<!-- Node2&#45;&gt;Node7 -->
<g id="edge6_Node000002_Node000007" class="edge">
<title>Node2&#45;&gt;Node7</title>
<g id="a_edge6_Node000002_Node000007"><a xlink:title=" ">
<path fill="none" stroke="#63b8ff" d="M561.5,-165.6C561.5,-154.8 561.5,-142.78 561.5,-134.84"/>
<polygon fill="#63b8ff" stroke="#63b8ff" points="558,-165.8 561.5,-175.8 565,-165.8 558,-165.8"/>
</a>
</g>
</g>
<!-- Node8 -->
<g id="Node000008" class="node">
<title>Node8</title>
<g id="a_Node000008"><a xlink:href="path__spawn__data_8c.html" target="_top" xlink:title=" ">
<polygon fill="white" stroke="#666666" points="756,-140 639,-140 639,-110 756,-110 756,-140"/>
<text text-anchor="start" x="647" y="-128" font-family="Helvetica,sans-Serif" font-size="10.00">src/data/path_spawn</text>
<text text-anchor="middle" x="697.5" y="-117" font-family="Helvetica,sans-Serif" font-size="10.00">_data.c</text>
</a>
</g>
</g>
<!-- Node2&#45;&gt;Node8 -->
<g id="edge7_Node000002_Node000008" class="edge">
<title>Node2&#45;&gt;Node8</title>
<g id="a_edge7_Node000002_Node000008"><a xlink:title=" ">
<path fill="none" stroke="#63b8ff" d="M600.5,-171.65C621.89,-161.58 647.99,-149.3 667.72,-140.01"/>
<polygon fill="#63b8ff" stroke="#63b8ff" points="598.9,-168.53 591.35,-175.95 601.88,-174.86 598.9,-168.53"/>
</a>
</g>
</g>
<!-- Node9 -->
<g id="Node000009" class="node">
<title>Node9</title>
<g id="a_Node000009"><a xlink:href="all__variables_8h.html" target="_top" xlink:title=" ">
<polygon fill="white" stroke="#666666" points="912.5,-134.5 774.5,-134.5 774.5,-115.5 912.5,-115.5 912.5,-134.5"/>
<text text-anchor="middle" x="843.5" y="-122.5" font-family="Helvetica,sans-Serif" font-size="10.00">src/debug/all_variables.h</text>
</a>
</g>
</g>
<!-- Node2&#45;&gt;Node9 -->
<g id="edge8_Node000002_Node000009" class="edge">
<title>Node2&#45;&gt;Node9</title>
<g id="a_edge8_Node000002_Node000009"><a xlink:title=" ">
<path fill="none" stroke="#63b8ff" d="M624.96,-175.6C680.58,-162.97 759.56,-145.05 805.78,-134.56"/>
<polygon fill="#63b8ff" stroke="#63b8ff" points="624.18,-172.18 615.21,-177.81 625.73,-179.01 624.18,-172.18"/>
</a>
</g>
</g>
<!-- Node12 -->
<g id="Node000012" class="node">
<title>Node12</title>
<g id="a_Node000012"><a xlink:href="render__courses_8c.html" target="_top" xlink:title=" ">
<polygon fill="white" stroke="#666666" points="1080,-134.5 931,-134.5 931,-115.5 1080,-115.5 1080,-134.5"/>
<text text-anchor="middle" x="1005.5" y="-122.5" font-family="Helvetica,sans-Serif" font-size="10.00">src/racing/render_courses.c</text>
</a>
</g>
</g>
<!-- Node2&#45;&gt;Node12 -->
<g id="edge12_Node000002_Node000012" class="edge">
<title>Node2&#45;&gt;Node12</title>
<g id="a_edge12_Node000002_Node000012"><a xlink:title=" ">
<path fill="none" stroke="#63b8ff" d="M625.15,-176.01C757.29,-153.8 793.1,-158.47 921.5,-140 932.91,-138.36 945.17,-136.42 956.7,-134.51"/>
<polygon fill="#63b8ff" stroke="#63b8ff" points="624.32,-172.6 615.05,-177.73 625.49,-179.5 624.32,-172.6"/>
</a>
</g>
</g>
<!-- Node13 -->
<g id="Node000013" class="node">
<title>Node13</title>
<g id="a_Node000013"><a xlink:href="render__objects_8c.html" target="_top" xlink:title=" ">
<polygon fill="white" stroke="#666666" points="1212.5,-134.5 1098.5,-134.5 1098.5,-115.5 1212.5,-115.5 1212.5,-134.5"/>
<text text-anchor="middle" x="1155.5" y="-122.5" font-family="Helvetica,sans-Serif" font-size="10.00">src/render_objects.c</text>
</a>
</g>
</g>
<!-- Node2&#45;&gt;Node13 -->
<g id="edge13_Node000002_Node000013" class="edge">
<title>Node2&#45;&gt;Node13</title>
<g id="a_edge13_Node000002_Node000013"><a xlink:title=" ">
<path fill="none" stroke="#63b8ff" d="M624.96,-176.1C831.27,-146.18 887.54,-169.11 1089.5,-140 1099.24,-138.6 1109.69,-136.61 1119.34,-134.57"/>
<polygon fill="#63b8ff" stroke="#63b8ff" points="624.4,-172.65 615.02,-177.57 625.42,-179.57 624.4,-172.65"/>
</a>
</g>
</g>
<!-- Node14 -->
<g id="Node000014" class="node">
<title>Node14</title>
<g id="a_Node000014"><a xlink:href="update__objects_8c.html" target="_top" xlink:title=" ">
<polygon fill="white" stroke="#666666" points="1346.5,-134.5 1230.5,-134.5 1230.5,-115.5 1346.5,-115.5 1346.5,-134.5"/>
<text text-anchor="middle" x="1288.5" y="-122.5" font-family="Helvetica,sans-Serif" font-size="10.00">src/update_objects.c</text>
</a>
</g>
</g>
<!-- Node2&#45;&gt;Node14 -->
<g id="edge14_Node000002_Node000014" class="edge">
<title>Node2&#45;&gt;Node14</title>
<g id="a_edge14_Node000002_Node000014"><a xlink:title=" ">
<path fill="none" stroke="#63b8ff" d="M625.3,-176.07C889.55,-139.96 961.38,-174.83 1221.5,-140 1231.63,-138.64 1242.51,-136.62 1252.5,-134.53"/>
<polygon fill="#63b8ff" stroke="#63b8ff" points="624.43,-172.66 615.01,-177.5 625.4,-179.59 624.43,-172.66"/>
</a>
</g>
</g>
<!-- Node3&#45;&gt;Node4 -->
<g id="edge3_Node000003_Node000004" class="edge">
<title>Node3&#45;&gt;Node4</title>
<g id="a_edge3_Node000003_Node000004"><a xlink:title=" ">
<path fill="none" stroke="#63b8ff" d="M113.6,-104.35C97.44,-94.07 78.48,-82.02 66.02,-74.09"/>
<polygon fill="#63b8ff" stroke="#63b8ff" points="111.91,-107.43 122.23,-109.84 115.67,-101.52 111.91,-107.43"/>
</a>
</g>
</g>
<!-- Node10 -->
<g id="Node000010" class="node">
<title>Node10</title>
<g id="a_Node000010"><a xlink:href="debug_8inc_8c.html" target="_top" xlink:title=" ">
<polygon fill="white" stroke="#666666" points="904.5,-74 782.5,-74 782.5,-55 904.5,-55 904.5,-74"/>
<text text-anchor="middle" x="843.5" y="-62" font-family="Helvetica,sans-Serif" font-size="10.00">src/debug/debug.inc.c</text>
</a>
</g>
</g>
<!-- Node9&#45;&gt;Node10 -->
<g id="edge9_Node000009_Node000010" class="edge">
<title>Node9&#45;&gt;Node10</title>
<g id="a_edge9_Node000009_Node000010"><a xlink:title=" ">
<path fill="none" stroke="#63b8ff" d="M843.5,-105.16C843.5,-94.74 843.5,-82.3 843.5,-74.17"/>
<polygon fill="#63b8ff" stroke="#63b8ff" points="840,-105.37 843.5,-115.37 847,-105.37 840,-105.37"/>
</a>
</g>
</g>
<!-- Node11 -->
<g id="Node000011" class="node">
<title>Node11</title>
<g id="a_Node000011"><a xlink:href="debug_8c.html" target="_top" xlink:title=" ">
<polygon fill="white" stroke="#666666" points="896,-19 791,-19 791,0 896,0 896,-19"/>
<text text-anchor="middle" x="843.5" y="-7" font-family="Helvetica,sans-Serif" font-size="10.00">src/debug/debug.c</text>
</a>
</g>
</g>
<!-- Node10&#45;&gt;Node11 -->
<g id="edge10_Node000010_Node000011" class="edge">
<title>Node10&#45;&gt;Node11</title>
<g id="a_edge10_Node000010_Node000011"><a xlink:title=" ">
<path fill="none" stroke="#63b8ff" d="M843.5,-44.66C843.5,-35.93 843.5,-25.99 843.5,-19.09"/>
<polygon fill="#63b8ff" stroke="#63b8ff" points="840,-44.75 843.5,-54.75 847,-44.75 840,-44.75"/>
</a>
</g>
</g>
<!-- Node16&#45;&gt;Node4 -->
<g id="edge17_Node000016_Node000004" class="edge">
<title>Node16&#45;&gt;Node4</title>
<g id="a_edge17_Node000016_Node000004"><a xlink:title=" ">
<path fill="none" stroke="#63b8ff" d="M151.82,-179.8C106.09,-171.59 52.55,-158.38 38.5,-140 23.47,-120.34 38.07,-89.38 46.88,-74.32"/>
<polygon fill="#63b8ff" stroke="#63b8ff" points="151.29,-183.26 161.74,-181.53 152.49,-176.36 151.29,-183.26"/>
</a>
</g>
</g>
</g>
</svg>
