<?xml version="1.0" encoding="UTF-8" standalone="no"?>
<!DOCTYPE svg PUBLIC "-//W3C//DTD SVG 1.1//EN"
 "http://www.w3.org/Graphics/SVG/1.1/DTD/svg11.dtd">
<!-- Generated by graphviz version 2.43.0 (0)
 -->
<!-- Title: src/racing/math_util.h Pages: 1 -->
<svg width="4239pt" height="203pt"
 viewBox="0.00 0.00 4239.00 203.00" xmlns="http://www.w3.org/2000/svg" xmlns:xlink="http://www.w3.org/1999/xlink">
<g id="graph0" class="graph" transform="scale(1 1) rotate(0) translate(4 199)">
<title>src/racing/math_util.h</title>
<!-- Node1 -->
<g id="Node000001" class="node">
<title>Node1</title>
<g id="a_Node000001"><a xlink:title=" ">
<polygon fill="#999999" stroke="#666666" points="2124.5,-195 2002.5,-195 2002.5,-176 2124.5,-176 2124.5,-195"/>
<text text-anchor="middle" x="2063.5" y="-183" font-family="Helvetica,sans-Serif" font-size="10.00">src/racing/math_util.h</text>
</a>
</g>
</g>
<!-- Node2 -->
<g id="Node000002" class="node">
<title>Node2</title>
<g id="a_Node000002"><a xlink:href="camera_8c.html" target="_top" xlink:title=" ">
<polygon fill="white" stroke="#666666" points="79,-134.5 0,-134.5 0,-115.5 79,-115.5 79,-134.5"/>
<text text-anchor="middle" x="39.5" y="-122.5" font-family="Helvetica,sans-Serif" font-size="10.00">src/camera.c</text>
</a>
</g>
</g>
<!-- Node1&#45;&gt;Node2 -->
<g id="edge1_Node000001_Node000002" class="edge">
<title>Node1&#45;&gt;Node2</title>
<g id="a_edge1_Node000001_Node000002"><a xlink:title=" ">
<path fill="none" stroke="#63b8ff" d="M1992,-183.97C1660.27,-181.38 279.24,-168.91 88.5,-140 80.63,-138.81 72.23,-136.72 64.66,-134.52"/>
<polygon fill="#63b8ff" stroke="#63b8ff" points="1992.4,-187.48 2002.43,-184.05 1992.46,-180.48 1992.4,-187.48"/>
</a>
</g>
</g>
<!-- Node3 -->
<g id="Node000003" class="node">
<title>Node3</title>
<g id="a_Node000003"><a xlink:href="code__800029B0_8c.html" target="_top" xlink:title=" ">
<polygon fill="white" stroke="#666666" points="216,-134.5 97,-134.5 97,-115.5 216,-115.5 216,-134.5"/>
<text text-anchor="middle" x="156.5" y="-122.5" font-family="Helvetica,sans-Serif" font-size="10.00">src/code_800029B0.c</text>
</a>
</g>
</g>
<!-- Node1&#45;&gt;Node3 -->
<g id="edge2_Node000001_Node000003" class="edge">
<title>Node1&#45;&gt;Node3</title>
<g id="a_edge2_Node000001_Node000003"><a xlink:title=" ">
<path fill="none" stroke="#63b8ff" d="M1991.98,-184.45C1697.4,-183.99 576.97,-179.6 225.5,-140 214.69,-138.78 203.06,-136.72 192.48,-134.55"/>
<polygon fill="#63b8ff" stroke="#63b8ff" points="1992.1,-187.95 2002.11,-184.47 1992.11,-180.95 1992.1,-187.95"/>
</a>
</g>
</g>
<!-- Node4 -->
<g id="Node000004" class="node">
<title>Node4</title>
<g id="a_Node000004"><a xlink:href="code__80004740_8c.html" target="_top" xlink:title=" ">
<polygon fill="white" stroke="#666666" points="353,-134.5 234,-134.5 234,-115.5 353,-115.5 353,-134.5"/>
<text text-anchor="middle" x="293.5" y="-122.5" font-family="Helvetica,sans-Serif" font-size="10.00">src/code_80004740.c</text>
</a>
</g>
</g>
<!-- Node1&#45;&gt;Node4 -->
<g id="edge3_Node000001_Node000004" class="edge">
<title>Node1&#45;&gt;Node4</title>
<g id="a_edge3_Node000001_Node000004"><a xlink:title=" ">
<path fill="none" stroke="#63b8ff" d="M1992.27,-184.29C1712.13,-183.2 685.78,-176.74 362.5,-140 351.69,-138.77 340.06,-136.71 329.48,-134.53"/>
<polygon fill="#63b8ff" stroke="#63b8ff" points="1992.29,-187.79 2002.31,-184.33 1992.32,-180.79 1992.29,-187.79"/>
</a>
</g>
</g>
<!-- Node5 -->
<g id="Node000005" class="node">
<title>Node5</title>
<g id="a_Node000005"><a xlink:href="code__80005FD0_8c.html" target="_top" xlink:title=" ">
<polygon fill="white" stroke="#666666" points="491.5,-134.5 371.5,-134.5 371.5,-115.5 491.5,-115.5 491.5,-134.5"/>
<text text-anchor="middle" x="431.5" y="-122.5" font-family="Helvetica,sans-Serif" font-size="10.00">src/code_80005FD0.c</text>
</a>
</g>
</g>
<!-- Node1&#45;&gt;Node5 -->
<g id="edge4_Node000001_Node000005" class="edge">
<title>Node1&#45;&gt;Node5</title>
<g id="a_edge4_Node000001_Node000005"><a xlink:title=" ">
<path fill="none" stroke="#63b8ff" d="M1992.02,-184.07C1726.36,-182.21 796.1,-173.41 501.5,-140 490.54,-138.76 478.74,-136.69 468.01,-134.51"/>
<polygon fill="#63b8ff" stroke="#63b8ff" points="1992.28,-187.57 2002.31,-184.14 1992.33,-180.57 1992.28,-187.57"/>
</a>
</g>
</g>
<!-- Node6 -->
<g id="Node000006" class="node">
<title>Node6</title>
<g id="a_Node000006"><a xlink:href="code__8003DC40_8c.html" target="_top" xlink:title=" ">
<polygon fill="white" stroke="#666666" points="631,-134.5 510,-134.5 510,-115.5 631,-115.5 631,-134.5"/>
<text text-anchor="middle" x="570.5" y="-122.5" font-family="Helvetica,sans-Serif" font-size="10.00">src/code_8003DC40.c</text>
</a>
</g>
</g>
<!-- Node1&#45;&gt;Node6 -->
<g id="edge5_Node000001_Node000006" class="edge">
<title>Node1&#45;&gt;Node6</title>
<g id="a_edge5_Node000001_Node000006"><a xlink:title=" ">
<path fill="none" stroke="#63b8ff" d="M1992.16,-183.84C1742.17,-181.27 906.62,-170.56 640.5,-140 629.66,-138.76 618.01,-136.71 607.37,-134.57"/>
<polygon fill="#63b8ff" stroke="#63b8ff" points="1992.18,-187.34 2002.21,-183.94 1992.25,-180.34 1992.18,-187.34"/>
</a>
</g>
</g>
<!-- Node7 -->
<g id="Node000007" class="node">
<title>Node7</title>
<g id="a_Node000007"><a xlink:href="code__80057C60_8c.html" target="_top" xlink:title=" ">
<polygon fill="white" stroke="#666666" points="768,-134.5 649,-134.5 649,-115.5 768,-115.5 768,-134.5"/>
<text text-anchor="middle" x="708.5" y="-122.5" font-family="Helvetica,sans-Serif" font-size="10.00">src/code_80057C60.c</text>
</a>
</g>
</g>
<!-- Node1&#45;&gt;Node7 -->
<g id="edge6_Node000001_Node000007" class="edge">
<title>Node1&#45;&gt;Node7</title>
<g id="a_edge6_Node000001_Node000007"><a xlink:title=" ">
<path fill="none" stroke="#63b8ff" d="M1992.03,-183.59C1757.91,-180.35 1015.51,-168.07 777.5,-140 766.82,-138.74 755.33,-136.69 744.84,-134.55"/>
<polygon fill="#63b8ff" stroke="#63b8ff" points="1992.08,-187.09 2002.13,-183.72 1992.18,-180.09 1992.08,-187.09"/>
</a>
</g>
</g>
<!-- Node8 -->
<g id="Node000008" class="node">
<title>Node8</title>
<g id="a_Node000008"><a xlink:href="code__80071F00_8c.html" target="_top" xlink:title=" ">
<polygon fill="white" stroke="#666666" points="905,-134.5 786,-134.5 786,-115.5 905,-115.5 905,-134.5"/>
<text text-anchor="middle" x="845.5" y="-122.5" font-family="Helvetica,sans-Serif" font-size="10.00">src/code_80071F00.c</text>
</a>
</g>
</g>
<!-- Node1&#45;&gt;Node8 -->
<g id="edge7_Node000001_Node000008" class="edge">
<title>Node1&#45;&gt;Node8</title>
<g id="a_edge7_Node000001_Node000008"><a xlink:title=" ">
<path fill="none" stroke="#63b8ff" d="M1992.04,-183.24C1774.86,-179.19 1124.63,-165.22 914.5,-140 903.82,-138.72 892.33,-136.66 881.85,-134.52"/>
<polygon fill="#63b8ff" stroke="#63b8ff" points="1992.3,-186.75 2002.36,-183.44 1992.43,-179.75 1992.3,-186.75"/>
</a>
</g>
</g>
<!-- Node9 -->
<g id="Node000009" class="node">
<title>Node9</title>
<g id="a_Node000009"><a xlink:href="code__80086E70_8c.html" target="_top" xlink:title=" ">
<polygon fill="white" stroke="#666666" points="1042,-134.5 923,-134.5 923,-115.5 1042,-115.5 1042,-134.5"/>
<text text-anchor="middle" x="982.5" y="-122.5" font-family="Helvetica,sans-Serif" font-size="10.00">src/code_80086E70.c</text>
</a>
</g>
</g>
<!-- Node1&#45;&gt;Node9 -->
<g id="edge8_Node000001_Node000009" class="edge">
<title>Node1&#45;&gt;Node9</title>
<g id="a_edge8_Node000001_Node000009"><a xlink:title=" ">
<path fill="none" stroke="#63b8ff" d="M1992.42,-185.18C1826.82,-185.93 1402.64,-183.08 1051.5,-140 1040.94,-138.71 1029.59,-136.67 1019.21,-134.56"/>
<polygon fill="#63b8ff" stroke="#63b8ff" points="1992.5,-188.68 2002.48,-185.13 1992.47,-181.68 1992.5,-188.68"/>
</a>
</g>
</g>
<!-- Node10 -->
<g id="Node000010" class="node">
<title>Node10</title>
<g id="a_Node000010"><a xlink:href="code__8008C1D0_8c.html" target="_top" xlink:title=" ">
<polygon fill="white" stroke="#666666" points="1181,-134.5 1060,-134.5 1060,-115.5 1181,-115.5 1181,-134.5"/>
<text text-anchor="middle" x="1120.5" y="-122.5" font-family="Helvetica,sans-Serif" font-size="10.00">src/code_8008C1D0.c</text>
</a>
</g>
</g>
<!-- Node1&#45;&gt;Node10 -->
<g id="edge9_Node000001_Node000010" class="edge">
<title>Node1&#45;&gt;Node10</title>
<g id="a_edge9_Node000001_Node000010"><a xlink:title=" ">
<path fill="none" stroke="#63b8ff" d="M1991.97,-184.39C1842.52,-183.39 1486.46,-176.94 1190.5,-140 1179.8,-138.66 1168.29,-136.62 1157.75,-134.5"/>
<polygon fill="#63b8ff" stroke="#63b8ff" points="1992.35,-187.89 2002.37,-184.45 1992.4,-180.89 1992.35,-187.89"/>
</a>
</g>
</g>
<!-- Node11 -->
<g id="Node000011" class="node">
<title>Node11</title>
<g id="a_Node000011"><a xlink:href="code__80091440_8c.html" target="_top" xlink:title=" ">
<polygon fill="white" stroke="#666666" points="1318,-134.5 1199,-134.5 1199,-115.5 1318,-115.5 1318,-134.5"/>
<text text-anchor="middle" x="1258.5" y="-122.5" font-family="Helvetica,sans-Serif" font-size="10.00">src/code_80091440.c</text>
</a>
</g>
</g>
<!-- Node1&#45;&gt;Node11 -->
<g id="edge10_Node000001_Node000011" class="edge">
<title>Node1&#45;&gt;Node11</title>
<g id="a_edge10_Node000001_Node000011"><a xlink:title=" ">
<path fill="none" stroke="#63b8ff" d="M1991.79,-183.49C1859.8,-180.89 1569.72,-171.74 1327.5,-140 1317.08,-138.63 1305.87,-136.61 1295.58,-134.51"/>
<polygon fill="#63b8ff" stroke="#63b8ff" points="1992.09,-186.99 2002.16,-183.68 1992.23,-179.99 1992.09,-186.99"/>
</a>
</g>
</g>
<!-- Node12 -->
<g id="Node000012" class="node">
<title>Node12</title>
<g id="a_Node000012"><a xlink:href="code__80091750_8c.html" target="_top" xlink:title=" ">
<polygon fill="white" stroke="#666666" points="1455,-134.5 1336,-134.5 1336,-115.5 1455,-115.5 1455,-134.5"/>
<text text-anchor="middle" x="1395.5" y="-122.5" font-family="Helvetica,sans-Serif" font-size="10.00">src/code_80091750.c</text>
</a>
</g>
</g>
<!-- Node1&#45;&gt;Node12 -->
<g id="edge11_Node000001_Node000012" class="edge">
<title>Node1&#45;&gt;Node12</title>
<g id="a_edge11_Node000001_Node000012"><a xlink:title=" ">
<path fill="none" stroke="#63b8ff" d="M1992.23,-182.11C1879.68,-177.69 1654.08,-166.17 1464.5,-140 1454.33,-138.6 1443.4,-136.61 1433.31,-134.57"/>
<polygon fill="#63b8ff" stroke="#63b8ff" points="1992.31,-185.62 2002.44,-182.51 1992.58,-178.62 1992.31,-185.62"/>
</a>
</g>
</g>
<!-- Node13 -->
<g id="Node000013" class="node">
<title>Node13</title>
<g id="a_Node000013"><a xlink:href="code__800AF9B0_8c.html" target="_top" xlink:title=" ">
<polygon fill="white" stroke="#666666" points="1593.5,-134.5 1473.5,-134.5 1473.5,-115.5 1593.5,-115.5 1593.5,-134.5"/>
<text text-anchor="middle" x="1533.5" y="-122.5" font-family="Helvetica,sans-Serif" font-size="10.00">src/code_800AF9B0.c</text>
</a>
</g>
</g>
<!-- Node1&#45;&gt;Node13 -->
<g id="edge12_Node000001_Node000013" class="edge">
<title>Node1&#45;&gt;Node13</title>
<g id="a_edge12_Node000001_Node000013"><a xlink:title=" ">
<path fill="none" stroke="#63b8ff" d="M1992.3,-179.93C1901.49,-173.58 1739.76,-160.49 1602.5,-140 1592.59,-138.52 1581.94,-136.55 1572.06,-134.56"/>
<polygon fill="#63b8ff" stroke="#63b8ff" points="1992.26,-183.44 2002.48,-180.64 1992.74,-176.46 1992.26,-183.44"/>
</a>
</g>
</g>
<!-- Node14 -->
<g id="Node000014" class="node">
<title>Node14</title>
<g id="a_Node000014"><a xlink:href="all__variables_8h.html" target="_top" xlink:title=" ">
<polygon fill="white" stroke="#666666" points="1749.5,-134.5 1611.5,-134.5 1611.5,-115.5 1749.5,-115.5 1749.5,-134.5"/>
<text text-anchor="middle" x="1680.5" y="-122.5" font-family="Helvetica,sans-Serif" font-size="10.00">src/debug/all_variables.h</text>
</a>
</g>
</g>
<!-- Node1&#45;&gt;Node14 -->
<g id="edge13_Node000001_Node000014" class="edge">
<title>Node1&#45;&gt;Node14</title>
<g id="a_edge13_Node000001_Node000014"><a xlink:title=" ">
<path fill="none" stroke="#63b8ff" d="M1992.26,-174.69C1930.6,-166.05 1839.06,-152.87 1759.5,-140 1749.05,-138.31 1737.84,-136.39 1727.25,-134.52"/>
<polygon fill="#63b8ff" stroke="#63b8ff" points="1991.89,-178.17 2002.28,-176.09 1992.86,-171.24 1991.89,-178.17"/>
</a>
</g>
</g>
<!-- Node17 -->
<g id="Node000017" class="node">
<title>Node17</title>
<g id="a_Node000017"><a xlink:href="camera__junk_8c.html" target="_top" xlink:title=" ">
<polygon fill="white" stroke="#666666" points="1909,-134.5 1768,-134.5 1768,-115.5 1909,-115.5 1909,-134.5"/>
<text text-anchor="middle" x="1838.5" y="-122.5" font-family="Helvetica,sans-Serif" font-size="10.00">src/ending/camera_junk.c</text>
</a>
</g>
</g>
<!-- Node1&#45;&gt;Node17 -->
<g id="edge16_Node000001_Node000017" class="edge">
<title>Node1&#45;&gt;Node17</title>
<g id="a_edge16_Node000001_Node000017"><a xlink:title=" ">
<path fill="none" stroke="#63b8ff" d="M2021.06,-173.47C1977.57,-162.16 1910.85,-144.81 1871.26,-134.52"/>
<polygon fill="#63b8ff" stroke="#63b8ff" points="2020.22,-176.86 2030.78,-175.99 2021.99,-170.09 2020.22,-176.86"/>
</a>
</g>
</g>
<!-- Node18 -->
<g id="Node000018" class="node">
<title>Node18</title>
<g id="a_Node000018"><a xlink:href="ceremony__and__credits_8c.html" target="_top" xlink:title=" ">
<polygon fill="white" stroke="#666666" points="2046,-140 1927,-140 1927,-110 2046,-110 2046,-140"/>
<text text-anchor="start" x="1935" y="-128" font-family="Helvetica,sans-Serif" font-size="10.00">src/ending/ceremony</text>
<text text-anchor="middle" x="1986.5" y="-117" font-family="Helvetica,sans-Serif" font-size="10.00">_and_credits.c</text>
</a>
</g>
</g>
<!-- Node1&#45;&gt;Node18 -->
<g id="edge17_Node000001_Node000018" class="edge">
<title>Node1&#45;&gt;Node18</title>
<g id="a_edge17_Node000001_Node000018"><a xlink:title=" ">
<path fill="none" stroke="#63b8ff" d="M2044.11,-169.77C2032.15,-160.68 2016.89,-149.09 2005.08,-140.11"/>
<polygon fill="#63b8ff" stroke="#63b8ff" points="2042.06,-172.61 2052.14,-175.87 2046.29,-167.03 2042.06,-172.61"/>
</a>
</g>
</g>
<!-- Node19 -->
<g id="Node000019" class="node">
<title>Node19</title>
<g id="a_Node000019"><a xlink:href="code__80280000_8c.html" target="_top" xlink:title=" ">
<polygon fill="white" stroke="#666666" points="2219,-134.5 2064,-134.5 2064,-115.5 2219,-115.5 2219,-134.5"/>
<text text-anchor="middle" x="2141.5" y="-122.5" font-family="Helvetica,sans-Serif" font-size="10.00">src/ending/code_80280000.c</text>
</a>
</g>
</g>
<!-- Node1&#45;&gt;Node19 -->
<g id="edge18_Node000001_Node000019" class="edge">
<title>Node1&#45;&gt;Node19</title>
<g id="a_edge18_Node000001_Node000019"><a xlink:title=" ">
<path fill="none" stroke="#63b8ff" d="M2083.04,-169.85C2097.81,-158.77 2117.6,-143.93 2129.94,-134.67"/>
<polygon fill="#63b8ff" stroke="#63b8ff" points="2080.91,-167.07 2075.01,-175.87 2085.11,-172.67 2080.91,-167.07"/>
</a>
</g>
</g>
<!-- Node20 -->
<g id="Node000020" class="node">
<title>Node20</title>
<g id="a_Node000020"><a xlink:href="code__80281C40_8c.html" target="_top" xlink:title=" ">
<polygon fill="white" stroke="#666666" points="2392,-134.5 2237,-134.5 2237,-115.5 2392,-115.5 2392,-134.5"/>
<text text-anchor="middle" x="2314.5" y="-122.5" font-family="Helvetica,sans-Serif" font-size="10.00">src/ending/code_80281C40.c</text>
</a>
</g>
</g>
<!-- Node1&#45;&gt;Node20 -->
<g id="edge19_Node000001_Node000020" class="edge">
<title>Node1&#45;&gt;Node20</title>
<g id="a_edge19_Node000001_Node000020"><a xlink:title=" ">
<path fill="none" stroke="#63b8ff" d="M2109.92,-173.68C2158.42,-162.38 2233.51,-144.88 2277.96,-134.52"/>
<polygon fill="#63b8ff" stroke="#63b8ff" points="2108.94,-170.32 2100,-175.99 2110.53,-177.13 2108.94,-170.32"/>
</a>
</g>
</g>
<!-- Node21 -->
<g id="Node000021" class="node">
<title>Node21</title>
<g id="a_Node000021"><a xlink:href="podium__ceremony__actors_8c.html" target="_top" xlink:title=" ">
<polygon fill="white" stroke="#666666" points="2571,-140 2410,-140 2410,-110 2571,-110 2571,-140"/>
<text text-anchor="start" x="2418" y="-128" font-family="Helvetica,sans-Serif" font-size="10.00">src/ending/podium_ceremony</text>
<text text-anchor="middle" x="2490.5" y="-117" font-family="Helvetica,sans-Serif" font-size="10.00">_actors.c</text>
</a>
</g>
</g>
<!-- Node1&#45;&gt;Node21 -->
<g id="edge20_Node000001_Node000021" class="edge">
<title>Node1&#45;&gt;Node21</title>
<g id="a_edge20_Node000001_Node000021"><a xlink:title=" ">
<path fill="none" stroke="#63b8ff" d="M2134.86,-175.63C2203.32,-167 2309.56,-153.28 2401.5,-140 2404.29,-139.6 2407.12,-139.18 2409.98,-138.76"/>
<polygon fill="#63b8ff" stroke="#63b8ff" points="2134.11,-172.2 2124.62,-176.92 2134.98,-179.15 2134.11,-172.2"/>
</a>
</g>
</g>
<!-- Node22 -->
<g id="Node000022" class="node">
<title>Node22</title>
<g id="a_Node000022"><a xlink:href="hud__renderer_8c.html" target="_top" xlink:title=" ">
<polygon fill="white" stroke="#666666" points="2695.5,-134.5 2589.5,-134.5 2589.5,-115.5 2695.5,-115.5 2695.5,-134.5"/>
<text text-anchor="middle" x="2642.5" y="-122.5" font-family="Helvetica,sans-Serif" font-size="10.00">src/hud_renderer.c</text>
</a>
</g>
</g>
<!-- Node1&#45;&gt;Node22 -->
<g id="edge21_Node000001_Node000022" class="edge">
<title>Node1&#45;&gt;Node22</title>
<g id="a_edge21_Node000001_Node000022"><a xlink:title=" ">
<path fill="none" stroke="#63b8ff" d="M2134.7,-181.44C2234.73,-176.45 2422.35,-164.54 2580.5,-140 2589.66,-138.58 2599.48,-136.58 2608.55,-134.54"/>
<polygon fill="#63b8ff" stroke="#63b8ff" points="2134.52,-177.95 2124.71,-181.93 2134.87,-184.94 2134.52,-177.95"/>
</a>
</g>
</g>
<!-- Node23 -->
<g id="Node000023" class="node">
<title>Node23</title>
<g id="a_Node000023"><a xlink:href="math__util__2_8c.html" target="_top" xlink:title=" ">
<polygon fill="white" stroke="#666666" points="2813.5,-134.5 2713.5,-134.5 2713.5,-115.5 2813.5,-115.5 2813.5,-134.5"/>
<text text-anchor="middle" x="2763.5" y="-122.5" font-family="Helvetica,sans-Serif" font-size="10.00">src/math_util_2.c</text>
</a>
</g>
</g>
<!-- Node1&#45;&gt;Node23 -->
<g id="edge22_Node000001_Node000023" class="edge">
<title>Node1&#45;&gt;Node23</title>
<g id="a_edge22_Node000001_Node000023"><a xlink:title=" ">
<path fill="none" stroke="#63b8ff" d="M2134.91,-183.35C2253.74,-180.58 2499.29,-171.25 2704.5,-140 2713.45,-138.64 2723.05,-136.61 2731.84,-134.52"/>
<polygon fill="#63b8ff" stroke="#63b8ff" points="2134.77,-179.85 2124.85,-183.57 2134.93,-186.85 2134.77,-179.85"/>
</a>
</g>
</g>
<!-- Node24 -->
<g id="Node000024" class="node">
<title>Node24</title>
<g id="a_Node000024"><a xlink:href="player__controller_8c.html" target="_top" xlink:title=" ">
<polygon fill="white" stroke="#666666" points="2955.5,-134.5 2831.5,-134.5 2831.5,-115.5 2955.5,-115.5 2955.5,-134.5"/>
<text text-anchor="middle" x="2893.5" y="-122.5" font-family="Helvetica,sans-Serif" font-size="10.00">src/player_controller.c</text>
</a>
</g>
</g>
<!-- Node1&#45;&gt;Node24 -->
<g id="edge23_Node000001_Node000024" class="edge">
<title>Node1&#45;&gt;Node24</title>
<g id="a_edge23_Node000001_Node000024"><a xlink:title=" ">
<path fill="none" stroke="#63b8ff" d="M2134.96,-183.55C2269.87,-181.03 2571.1,-172 2822.5,-140 2833.22,-138.64 2844.75,-136.61 2855.33,-134.52"/>
<polygon fill="#63b8ff" stroke="#63b8ff" points="2134.69,-180.05 2124.76,-183.73 2134.82,-187.05 2134.69,-180.05"/>
</a>
</g>
</g>
<!-- Node25 -->
<g id="Node000025" class="node">
<title>Node25</title>
<g id="a_Node000025"><a xlink:href="actors_8c.html" target="_top" xlink:title=" ">
<polygon fill="white" stroke="#666666" points="3079,-134.5 2974,-134.5 2974,-115.5 3079,-115.5 3079,-134.5"/>
<text text-anchor="middle" x="3026.5" y="-122.5" font-family="Helvetica,sans-Serif" font-size="10.00">src/racing/actors.c</text>
</a>
</g>
</g>
<!-- Node1&#45;&gt;Node25 -->
<g id="edge24_Node000001_Node000025" class="edge">
<title>Node1&#45;&gt;Node25</title>
<g id="a_edge24_Node000001_Node000025"><a xlink:title=" ">
<path fill="none" stroke="#63b8ff" d="M2134.94,-185.15C2287.85,-185.62 2657.9,-181.87 2964.5,-140 2974.01,-138.7 2984.22,-136.67 2993.55,-134.55"/>
<polygon fill="#63b8ff" stroke="#63b8ff" points="2134.76,-181.65 2124.74,-185.11 2134.73,-188.65 2134.76,-181.65"/>
</a>
</g>
</g>
<!-- Node26 -->
<g id="Node000026" class="node">
<title>Node26</title>
<g id="a_Node000026"><a xlink:href="actors__extended_8c.html" target="_top" xlink:title=" ">
<polygon fill="white" stroke="#666666" points="3253.5,-134.5 3097.5,-134.5 3097.5,-115.5 3253.5,-115.5 3253.5,-134.5"/>
<text text-anchor="middle" x="3175.5" y="-122.5" font-family="Helvetica,sans-Serif" font-size="10.00">src/racing/actors_extended.c</text>
</a>
</g>
</g>
<!-- Node1&#45;&gt;Node26 -->
<g id="edge25_Node000001_Node000026" class="edge">
<title>Node1&#45;&gt;Node26</title>
<g id="a_edge25_Node000001_Node000026"><a xlink:title=" ">
<path fill="none" stroke="#63b8ff" d="M2134.77,-184.25C2301.83,-183.04 2731.6,-176.34 3088.5,-140 3101.59,-138.67 3115.7,-136.65 3128.67,-134.56"/>
<polygon fill="#63b8ff" stroke="#63b8ff" points="2134.6,-180.75 2124.62,-184.32 2134.64,-187.75 2134.6,-180.75"/>
</a>
</g>
</g>
<!-- Node27 -->
<g id="Node000027" class="node">
<title>Node27</title>
<g id="a_Node000027"><a xlink:href="collision_8c.html" target="_top" xlink:title=" ">
<polygon fill="white" stroke="#666666" points="3387.5,-134.5 3271.5,-134.5 3271.5,-115.5 3387.5,-115.5 3387.5,-134.5"/>
<text text-anchor="middle" x="3329.5" y="-122.5" font-family="Helvetica,sans-Serif" font-size="10.00">src/racing/collision.c</text>
</a>
</g>
</g>
<!-- Node1&#45;&gt;Node27 -->
<g id="edge26_Node000001_Node000027" class="edge">
<title>Node1&#45;&gt;Node27</title>
<g id="a_edge26_Node000001_Node000027"><a xlink:title=" ">
<path fill="none" stroke="#63b8ff" d="M2135,-183.43C2358.52,-179.84 3042.3,-166.9 3262.5,-140 3272.88,-138.73 3284.04,-136.68 3294.22,-134.54"/>
<polygon fill="#63b8ff" stroke="#63b8ff" points="2134.65,-179.94 2124.71,-183.6 2134.76,-186.94 2134.65,-179.94"/>
</a>
</g>
</g>
<!-- Node28 -->
<g id="Node000028" class="node">
<title>Node28</title>
<g id="a_Node000028"><a xlink:href="math__util_8c.html" target="_top" xlink:title=" ">
<polygon fill="white" stroke="#666666" points="3527.5,-134.5 3405.5,-134.5 3405.5,-115.5 3527.5,-115.5 3527.5,-134.5"/>
<text text-anchor="middle" x="3466.5" y="-122.5" font-family="Helvetica,sans-Serif" font-size="10.00">src/racing/math_util.c</text>
</a>
</g>
</g>
<!-- Node1&#45;&gt;Node28 -->
<g id="edge27_Node000001_Node000028" class="edge">
<title>Node1&#45;&gt;Node28</title>
<g id="a_edge27_Node000001_Node000028"><a xlink:title=" ">
<path fill="none" stroke="#63b8ff" d="M2135.09,-183.66C2374.93,-180.6 3148.89,-168.7 3396.5,-140 3407.33,-138.74 3418.99,-136.7 3429.62,-134.55"/>
<polygon fill="#63b8ff" stroke="#63b8ff" points="2134.71,-180.16 2124.75,-183.79 2134.8,-187.16 2134.71,-180.16"/>
</a>
</g>
</g>
<!-- Node29 -->
<g id="Node000029" class="node">
<title>Node29</title>
<g id="a_Node000029"><a xlink:href="memory_8c.html" target="_top" xlink:title=" ">
<polygon fill="white" stroke="#666666" points="3661,-134.5 3546,-134.5 3546,-115.5 3661,-115.5 3661,-134.5"/>
<text text-anchor="middle" x="3603.5" y="-122.5" font-family="Helvetica,sans-Serif" font-size="10.00">src/racing/memory.c</text>
</a>
</g>
</g>
<!-- Node1&#45;&gt;Node29 -->
<g id="edge28_Node000001_Node000029" class="edge">
<title>Node1&#45;&gt;Node29</title>
<g id="a_edge28_Node000001_Node000029"><a xlink:title=" ">
<path fill="none" stroke="#63b8ff" d="M2135.17,-184C2391.23,-181.97 3260.38,-172.76 3536.5,-140 3547,-138.75 3558.3,-136.68 3568.57,-134.51"/>
<polygon fill="#63b8ff" stroke="#63b8ff" points="2134.85,-180.51 2124.87,-184.08 2134.9,-187.51 2134.85,-180.51"/>
</a>
</g>
</g>
<!-- Node30 -->
<g id="Node000030" class="node">
<title>Node30</title>
<g id="a_Node000030"><a xlink:href="render__courses_8c.html" target="_top" xlink:title=" ">
<polygon fill="white" stroke="#666666" points="3828,-134.5 3679,-134.5 3679,-115.5 3828,-115.5 3828,-134.5"/>
<text text-anchor="middle" x="3753.5" y="-122.5" font-family="Helvetica,sans-Serif" font-size="10.00">src/racing/render_courses.c</text>
</a>
</g>
</g>
<!-- Node1&#45;&gt;Node30 -->
<g id="edge29_Node000001_Node000030" class="edge">
<title>Node1&#45;&gt;Node30</title>
<g id="a_edge29_Node000001_Node000030"><a xlink:title=" ">
<path fill="none" stroke="#63b8ff" d="M2134.77,-183.85C2404.94,-181.18 3366.08,-169.74 3670.5,-140 3683.3,-138.75 3697.11,-136.7 3709.72,-134.56"/>
<polygon fill="#63b8ff" stroke="#63b8ff" points="2134.66,-180.35 2124.69,-183.95 2134.73,-187.35 2134.66,-180.35"/>
</a>
</g>
</g>
<!-- Node31 -->
<g id="Node000031" class="node">
<title>Node31</title>
<g id="a_Node000031"><a xlink:href="skybox__and__splitscreen_8c.html" target="_top" xlink:title=" ">
<polygon fill="white" stroke="#666666" points="3971,-140 3846,-140 3846,-110 3971,-110 3971,-140"/>
<text text-anchor="start" x="3854" y="-128" font-family="Helvetica,sans-Serif" font-size="10.00">src/racing/skybox_and</text>
<text text-anchor="middle" x="3908.5" y="-117" font-family="Helvetica,sans-Serif" font-size="10.00">_splitscreen.c</text>
</a>
</g>
</g>
<!-- Node1&#45;&gt;Node31 -->
<g id="edge30_Node000001_Node000031" class="edge">
<title>Node1&#45;&gt;Node31</title>
<g id="a_edge30_Node000001_Node000031"><a xlink:title=" ">
<path fill="none" stroke="#63b8ff" d="M2134.86,-184.33C2422.71,-183.37 3499.09,-177.34 3837.5,-140 3840.25,-139.7 3843.05,-139.34 3845.87,-138.95"/>
<polygon fill="#63b8ff" stroke="#63b8ff" points="2134.55,-180.83 2124.56,-184.36 2134.57,-187.83 2134.55,-180.83"/>
</a>
</g>
</g>
<!-- Node32 -->
<g id="Node000032" class="node">
<title>Node32</title>
<g id="a_Node000032"><a xlink:href="render__player_8c.html" target="_top" xlink:title=" ">
<polygon fill="white" stroke="#666666" points="4098,-134.5 3989,-134.5 3989,-115.5 4098,-115.5 4098,-134.5"/>
<text text-anchor="middle" x="4043.5" y="-122.5" font-family="Helvetica,sans-Serif" font-size="10.00">src/render_player.c</text>
</a>
</g>
</g>
<!-- Node1&#45;&gt;Node32 -->
<g id="edge31_Node000001_Node000032" class="edge">
<title>Node1&#45;&gt;Node32</title>
<g id="a_edge31_Node000001_Node000032"><a xlink:title=" ">
<path fill="none" stroke="#63b8ff" d="M2135.06,-184.71C2437.61,-185.31 3613.08,-184.65 3980.5,-140 3990.4,-138.8 4001.03,-136.74 4010.69,-134.56"/>
<polygon fill="#63b8ff" stroke="#63b8ff" points="2134.68,-181.21 2124.67,-184.69 2134.66,-188.21 2134.68,-181.21"/>
</a>
</g>
</g>
<!-- Node33 -->
<g id="Node000033" class="node">
<title>Node33</title>
<g id="a_Node000033"><a xlink:href="spawn__players_8c.html" target="_top" xlink:title=" ">
<polygon fill="white" stroke="#666666" points="4231,-134.5 4116,-134.5 4116,-115.5 4231,-115.5 4231,-134.5"/>
<text text-anchor="middle" x="4173.5" y="-122.5" font-family="Helvetica,sans-Serif" font-size="10.00">src/spawn_players.c</text>
</a>
</g>
</g>
<!-- Node1&#45;&gt;Node33 -->
<g id="edge32_Node000001_Node000033" class="edge">
<title>Node1&#45;&gt;Node33</title>
<g id="a_edge32_Node000001_Node000033"><a xlink:title=" ">
<path fill="none" stroke="#63b8ff" d="M2135.08,-184.74C2449.93,-185.51 3713.55,-185.66 4107.5,-140 4117.86,-138.8 4128.99,-136.74 4139.11,-134.57"/>
<polygon fill="#63b8ff" stroke="#63b8ff" points="2134.73,-181.24 2124.72,-184.71 2134.71,-188.24 2134.73,-181.24"/>
</a>
</g>
</g>
<!-- Node15 -->
<g id="Node000015" class="node">
<title>Node15</title>
<g id="a_Node000015"><a xlink:href="debug_8inc_8c.html" target="_top" xlink:title=" ">
<polygon fill="white" stroke="#666666" points="1741.5,-74 1619.5,-74 1619.5,-55 1741.5,-55 1741.5,-74"/>
<text text-anchor="middle" x="1680.5" y="-62" font-family="Helvetica,sans-Serif" font-size="10.00">src/debug/debug.inc.c</text>
</a>
</g>
</g>
<!-- Node14&#45;&gt;Node15 -->
<g id="edge14_Node000014_Node000015" class="edge">
<title>Node14&#45;&gt;Node15</title>
<g id="a_edge14_Node000014_Node000015"><a xlink:title=" ">
<path fill="none" stroke="#63b8ff" d="M1680.5,-105.16C1680.5,-94.74 1680.5,-82.3 1680.5,-74.17"/>
<polygon fill="#63b8ff" stroke="#63b8ff" points="1677,-105.37 1680.5,-115.37 1684,-105.37 1677,-105.37"/>
</a>
</g>
</g>
<!-- Node16 -->
<g id="Node000016" class="node">
<title>Node16</title>
<g id="a_Node000016"><a xlink:href="debug_8c.html" target="_top" xlink:title=" ">
<polygon fill="white" stroke="#666666" points="1733,-19 1628,-19 1628,0 1733,0 1733,-19"/>
<text text-anchor="middle" x="1680.5" y="-7" font-family="Helvetica,sans-Serif" font-size="10.00">src/debug/debug.c</text>
</a>
</g>
</g>
<!-- Node15&#45;&gt;Node16 -->
<g id="edge15_Node000015_Node000016" class="edge">
<title>Node15&#45;&gt;Node16</title>
<g id="a_edge15_Node000015_Node000016"><a xlink:title=" ">
<path fill="none" stroke="#63b8ff" d="M1680.5,-44.66C1680.5,-35.93 1680.5,-25.99 1680.5,-19.09"/>
<polygon fill="#63b8ff" stroke="#63b8ff" points="1677,-44.75 1680.5,-54.75 1684,-44.75 1677,-44.75"/>
</a>
</g>
</g>
</g>
</svg>
