<?xml version="1.0" encoding="UTF-8" standalone="no"?>
<!DOCTYPE svg PUBLIC "-//W3C//DTD SVG 1.1//EN"
 "http://www.w3.org/Graphics/SVG/1.1/DTD/svg11.dtd">
<!-- Generated by graphviz version 2.43.0 (0)
 -->
<!-- Title: vec3s_set Pages: 1 -->
<svg width="2073pt" height="307pt"
 viewBox="0.00 0.00 2073.00 306.50" xmlns="http://www.w3.org/2000/svg" xmlns:xlink="http://www.w3.org/1999/xlink">
<g id="graph0" class="graph" transform="scale(1 1) rotate(0) translate(4 302.5)">
<title>vec3s_set</title>
<!-- Node1 -->
<g id="Node000001" class="node">
<title>Node1</title>
<g id="a_Node000001"><a xlink:title=" ">
<polygon fill="#999999" stroke="#666666" points="2065,-150 2000,-150 2000,-131 2065,-131 2065,-150"/>
<text text-anchor="middle" x="2032.5" y="-138" font-family="Helvetica,sans-Serif" font-size="10.00">vec3s_set</text>
</a>
</g>
</g>
<!-- Node2 -->
<g id="Node000002" class="node">
<title>Node2</title>
<g id="a_Node000002"><a xlink:href="falling__rock_2update_8inc_8c.html#a9a8171deacccacba26f4fda3f2aec227" target="_top" xlink:title=" ">
<polygon fill="white" stroke="#666666" points="1950,-293 1858,-293 1858,-274 1950,-274 1950,-293"/>
<text text-anchor="middle" x="1904" y="-281" font-family="Helvetica,sans-Serif" font-size="10.00">func_8029CF0C</text>
</a>
</g>
</g>
<!-- Node1&#45;&gt;Node2 -->
<g id="edge1_Node000001_Node000002" class="edge">
<title>Node1&#45;&gt;Node2</title>
<g id="a_edge1_Node000001_Node000002"><a xlink:title=" ">
<path fill="none" stroke="#63b8ff" d="M2025.94,-160.08C2017.2,-187.36 1997.67,-236.6 1964,-264.5 1959.36,-268.34 1953.93,-271.42 1948.27,-273.87"/>
<polygon fill="#63b8ff" stroke="#63b8ff" points="2029.39,-160.75 2028.95,-150.16 2022.69,-158.72 2029.39,-160.75"/>
</a>
</g>
</g>
<!-- Node11 -->
<g id="Node000011" class="node">
<title>Node11</title>
<g id="a_Node000011"><a xlink:href="actors_8c.html#a5998eaf5bee060a664f203f5d0a8ae95" target="_top" xlink:title=" ">
<polygon fill="white" stroke="#666666" points="1958.5,-255.5 1849.5,-255.5 1849.5,-225.5 1958.5,-225.5 1958.5,-255.5"/>
<text text-anchor="start" x="1857.5" y="-243.5" font-family="Helvetica,sans-Serif" font-size="10.00">init_actor_hot_air</text>
<text text-anchor="middle" x="1904" y="-232.5" font-family="Helvetica,sans-Serif" font-size="10.00">_balloon_item_box</text>
</a>
</g>
</g>
<!-- Node1&#45;&gt;Node11 -->
<g id="edge10_Node000001_Node000011" class="edge">
<title>Node1&#45;&gt;Node11</title>
<g id="a_edge10_Node000001_Node000011"><a xlink:title=" ">
<path fill="none" stroke="#63b8ff" d="M2017.84,-158.08C2005.13,-173.57 1985.05,-196.03 1964,-211.5 1956.92,-216.7 1948.76,-221.4 1940.81,-225.43"/>
<polygon fill="#63b8ff" stroke="#63b8ff" points="2020.57,-160.26 2024.09,-150.27 2015.11,-155.89 2020.57,-160.26"/>
</a>
</g>
</g>
<!-- Node21 -->
<g id="Node000021" class="node">
<title>Node21</title>
<g id="a_Node000021"><a xlink:href="actors_8c.html#a09880e8065960d2bbd0585409a4831a7" target="_top" xlink:title=" ">
<polygon fill="white" stroke="#666666" points="1808,-169 1692,-169 1692,-150 1808,-150 1808,-169"/>
<text text-anchor="middle" x="1750" y="-157" font-family="Helvetica,sans-Serif" font-size="10.00">place_course_actors</text>
</a>
</g>
</g>
<!-- Node1&#45;&gt;Node21 -->
<g id="edge31_Node000001_Node000021" class="edge">
<title>Node1&#45;&gt;Node21</title>
<g id="a_edge31_Node000001_Node000021"><a xlink:title=" ">
<path fill="none" stroke="#63b8ff" d="M2010.46,-156.08C1997.72,-164.52 1980.75,-174.11 1964,-178.5 1901.33,-194.93 1825.13,-180.13 1782.96,-169.05"/>
<polygon fill="#63b8ff" stroke="#63b8ff" points="2012.69,-158.79 2018.92,-150.22 2008.71,-153.03 2012.69,-158.79"/>
</a>
</g>
</g>
<!-- Node25 -->
<g id="Node000025" class="node">
<title>Node25</title>
<g id="a_Node000025"><a xlink:href="code__80005FD0_8c.html#afd6fa1e9b8e8378fffcaa462fdc81ef6" target="_top" xlink:title=" ">
<polygon fill="white" stroke="#666666" points="1808,-95 1692,-95 1692,-76 1808,-76 1808,-95"/>
<text text-anchor="middle" x="1750" y="-83" font-family="Helvetica,sans-Serif" font-size="10.00">init_course_vehicles</text>
</a>
</g>
</g>
<!-- Node1&#45;&gt;Node25 -->
<g id="edge29_Node000001_Node000025" class="edge">
<title>Node1&#45;&gt;Node25</title>
<g id="a_edge29_Node000001_Node000025"><a xlink:title=" ">
<path fill="none" stroke="#63b8ff" d="M2020.7,-121.89C2009.21,-104.14 1989.22,-78.53 1964,-67.5 1900.76,-39.84 1816.97,-61.88 1775.88,-75.99"/>
<polygon fill="#63b8ff" stroke="#63b8ff" points="2017.97,-124.12 2026.19,-130.8 2023.93,-120.45 2017.97,-124.12"/>
</a>
</g>
</g>
<!-- Node26 -->
<g id="Node000026" class="node">
<title>Node26</title>
<g id="a_Node000026"><a xlink:href="falling__rock_2update_8inc_8c.html#aa1befa8b36aff5f3d15c58cb8b1f6231" target="_top" xlink:title=" ">
<polygon fill="white" stroke="#666666" points="1959,-169 1849,-169 1849,-150 1959,-150 1959,-169"/>
<text text-anchor="middle" x="1904" y="-157" font-family="Helvetica,sans-Serif" font-size="10.00">place_falling_rocks</text>
</a>
</g>
</g>
<!-- Node1&#45;&gt;Node26 -->
<g id="edge32_Node000001_Node000026" class="edge">
<title>Node1&#45;&gt;Node26</title>
<g id="a_edge32_Node000001_Node000026"><a xlink:title=" ">
<path fill="none" stroke="#63b8ff" d="M1990.01,-146.73C1980.2,-148.2 1969.59,-149.8 1959.31,-151.34"/>
<polygon fill="#63b8ff" stroke="#63b8ff" points="1990.54,-150.19 1999.91,-145.25 1989.5,-143.27 1990.54,-150.19"/>
</a>
</g>
</g>
<!-- Node27 -->
<g id="Node000027" class="node">
<title>Node27</title>
<g id="a_Node000027"><a xlink:href="actors_8c.html#a74cec04857466d1db6033e07070c9d19" target="_top" xlink:title=" ">
<polygon fill="white" stroke="#666666" points="1955.5,-132 1852.5,-132 1852.5,-113 1955.5,-113 1955.5,-132"/>
<text text-anchor="middle" x="1904" y="-120" font-family="Helvetica,sans-Serif" font-size="10.00">place_palm_trees</text>
</a>
</g>
</g>
<!-- Node1&#45;&gt;Node27 -->
<g id="edge34_Node000001_Node000027" class="edge">
<title>Node1&#45;&gt;Node27</title>
<g id="a_edge34_Node000001_Node000027"><a xlink:title=" ">
<path fill="none" stroke="#63b8ff" d="M1989.83,-134.57C1978.97,-133.03 1967.14,-131.34 1955.86,-129.74"/>
<polygon fill="#63b8ff" stroke="#63b8ff" points="1989.51,-138.06 1999.91,-136 1990.5,-131.13 1989.51,-138.06"/>
</a>
</g>
</g>
<!-- Node28 -->
<g id="Node000028" class="node">
<title>Node28</title>
<g id="a_Node000028"><a xlink:href="actors_8c.html#ada2ce3dcaee0557208501ee291924021" target="_top" xlink:title=" ">
<polygon fill="white" stroke="#666666" points="1964,-95 1844,-95 1844,-76 1964,-76 1964,-95"/>
<text text-anchor="middle" x="1904" y="-83" font-family="Helvetica,sans-Serif" font-size="10.00">place_piranha_plants</text>
</a>
</g>
</g>
<!-- Node1&#45;&gt;Node28 -->
<g id="edge36_Node000001_Node000028" class="edge">
<title>Node1&#45;&gt;Node28</title>
<g id="a_edge36_Node000001_Node000028"><a xlink:title=" ">
<path fill="none" stroke="#63b8ff" d="M2006.62,-125.85C1994.09,-118.84 1978.52,-110.65 1964,-104.5 1955.78,-101.02 1946.68,-97.79 1938.15,-95.03"/>
<polygon fill="#63b8ff" stroke="#63b8ff" points="2005.11,-129.03 2015.53,-130.94 2008.58,-122.94 2005.11,-129.03"/>
</a>
</g>
</g>
<!-- Node29 -->
<g id="Node000029" class="node">
<title>Node29</title>
<g id="a_Node000029"><a xlink:href="actors_8c.html#a89e1bc069861528b3d9bac9571a83cd5" target="_top" xlink:title=" ">
<polygon fill="white" stroke="#666666" points="1962,-19 1846,-19 1846,0 1962,0 1962,-19"/>
<text text-anchor="middle" x="1904" y="-7" font-family="Helvetica,sans-Serif" font-size="10.00">spawn_actor_at_pos</text>
</a>
</g>
</g>
<!-- Node1&#45;&gt;Node29 -->
<g id="edge38_Node000001_Node000029" class="edge">
<title>Node1&#45;&gt;Node29</title>
<g id="a_edge38_Node000001_Node000029"><a xlink:title=" ">
<path fill="none" stroke="#63b8ff" d="M2023.91,-121.53C2013.59,-97.94 1993.04,-57.82 1964,-33.5 1956.71,-27.39 1947.66,-22.68 1938.85,-19.12"/>
<polygon fill="#63b8ff" stroke="#63b8ff" points="2020.71,-122.95 2027.81,-130.81 2027.16,-120.24 2020.71,-122.95"/>
</a>
</g>
</g>
<!-- Node3 -->
<g id="Node000003" class="node">
<title>Node3</title>
<g id="a_Node000003"><a xlink:href="falling__rock_2update_8inc_8c.html#a7476a0a7924f3878d39fb7b83f229779" target="_top" xlink:title=" ">
<polygon fill="white" stroke="#666666" points="1808,-298.5 1692,-298.5 1692,-268.5 1808,-268.5 1808,-298.5"/>
<text text-anchor="start" x="1700" y="-286.5" font-family="Helvetica,sans-Serif" font-size="10.00">update_actor_falling</text>
<text text-anchor="middle" x="1750" y="-275.5" font-family="Helvetica,sans-Serif" font-size="10.00">_rocks</text>
</a>
</g>
</g>
<!-- Node2&#45;&gt;Node3 -->
<g id="edge2_Node000002_Node000003" class="edge">
<title>Node2&#45;&gt;Node3</title>
<g id="a_edge2_Node000002_Node000003"><a xlink:title=" ">
<path fill="none" stroke="#63b8ff" d="M1847.7,-283.5C1834.84,-283.5 1821.11,-283.5 1808.17,-283.5"/>
<polygon fill="#63b8ff" stroke="#63b8ff" points="1847.81,-287 1857.81,-283.5 1847.81,-280 1847.81,-287"/>
</a>
</g>
</g>
<!-- Node4 -->
<g id="Node000004" class="node">
<title>Node4</title>
<g id="a_Node000004"><a xlink:href="actors_8c.html#aa6387502059c64a81d32c944b39d78f9" target="_top" xlink:title=" ">
<polygon fill="white" stroke="#666666" points="1205,-293 1082,-293 1082,-274 1205,-274 1205,-293"/>
<text text-anchor="middle" x="1143.5" y="-281" font-family="Helvetica,sans-Serif" font-size="10.00">update_course_actors</text>
</a>
</g>
</g>
<!-- Node3&#45;&gt;Node4 -->
<g id="edge3_Node000003_Node000004" class="edge">
<title>Node3&#45;&gt;Node4</title>
<g id="a_edge3_Node000003_Node000004"><a xlink:title=" ">
<path fill="none" stroke="#63b8ff" d="M1681.82,-283.5C1563.31,-283.5 1318.89,-283.5 1205.17,-283.5"/>
<polygon fill="#63b8ff" stroke="#63b8ff" points="1681.86,-287 1691.86,-283.5 1681.86,-280 1681.86,-287"/>
</a>
</g>
</g>
<!-- Node5 -->
<g id="Node000005" class="node">
<title>Node5</title>
<g id="a_Node000005"><a xlink:href="main_8c.html#afff87ffcbfee4f1f37d443110aa7b52a" target="_top" xlink:title=" ">
<polygon fill="white" stroke="#666666" points="902,-291 810,-291 810,-272 902,-272 902,-291"/>
<text text-anchor="middle" x="856" y="-279" font-family="Helvetica,sans-Serif" font-size="10.00">race_logic_loop</text>
</a>
</g>
</g>
<!-- Node4&#45;&gt;Node5 -->
<g id="edge4_Node000004_Node000005" class="edge">
<title>Node4&#45;&gt;Node5</title>
<g id="a_edge4_Node000004_Node000005"><a xlink:title=" ">
<path fill="none" stroke="#63b8ff" d="M1071.92,-283.01C1018.82,-282.63 947.63,-282.13 902.03,-281.82"/>
<polygon fill="#63b8ff" stroke="#63b8ff" points="1071.93,-286.51 1081.95,-283.08 1071.98,-279.51 1071.93,-286.51"/>
</a>
</g>
</g>
<!-- Node6 -->
<g id="Node000006" class="node">
<title>Node6</title>
<g id="a_Node000006"><a xlink:href="main_8c.html#ae04143ce8113cdafa007c642eb620bc8" target="_top" xlink:title=" ">
<polygon fill="white" stroke="#666666" points="604,-234 488,-234 488,-215 604,-215 604,-234"/>
<text text-anchor="middle" x="546" y="-222" font-family="Helvetica,sans-Serif" font-size="10.00">game_state_handler</text>
</a>
</g>
</g>
<!-- Node5&#45;&gt;Node6 -->
<g id="edge5_Node000005_Node000006" class="edge">
<title>Node5&#45;&gt;Node6</title>
<g id="a_edge5_Node000005_Node000006"><a xlink:title=" ">
<path fill="none" stroke="#63b8ff" d="M799.72,-281.14C755.85,-279.78 693.27,-275.42 640,-262.5 613.22,-256 584.07,-243.05 565.68,-234.09"/>
<polygon fill="#63b8ff" stroke="#63b8ff" points="799.81,-284.65 809.9,-281.42 799.99,-277.65 799.81,-284.65"/>
</a>
</g>
</g>
<!-- Node7 -->
<g id="Node000007" class="node">
<title>Node7</title>
<g id="a_Node000007"><a xlink:href="main_8c.html#a633ed517e458daeb768f5361895dcac9" target="_top" xlink:title=" ">
<polygon fill="white" stroke="#666666" points="452,-197 339,-197 339,-178 452,-178 452,-197"/>
<text text-anchor="middle" x="395.5" y="-185" font-family="Helvetica,sans-Serif" font-size="10.00">thread5_game_loop</text>
</a>
</g>
</g>
<!-- Node6&#45;&gt;Node7 -->
<g id="edge6_Node000006_Node000007" class="edge">
<title>Node6&#45;&gt;Node7</title>
<g id="a_edge6_Node000006_Node000007"><a xlink:title=" ">
<path fill="none" stroke="#63b8ff" d="M496.86,-212.51C476.78,-207.5 453.78,-201.77 434.87,-197.06"/>
<polygon fill="#63b8ff" stroke="#63b8ff" points="496.21,-215.95 506.76,-214.97 497.9,-209.16 496.21,-215.95"/>
</a>
</g>
</g>
<!-- Node8 -->
<g id="Node000008" class="node">
<title>Node8</title>
<g id="a_Node000008"><a xlink:href="main_8c.html#a023b8f272e4efbd33f371e91ffff6b30" target="_top" xlink:title=" ">
<polygon fill="white" stroke="#666666" points="303,-197 217,-197 217,-178 303,-178 303,-197"/>
<text text-anchor="middle" x="260" y="-185" font-family="Helvetica,sans-Serif" font-size="10.00">thread3_video</text>
</a>
</g>
</g>
<!-- Node7&#45;&gt;Node8 -->
<g id="edge7_Node000007_Node000008" class="edge">
<title>Node7&#45;&gt;Node8</title>
<g id="a_edge7_Node000007_Node000008"><a xlink:title=" ">
<path fill="none" stroke="#63b8ff" d="M328.57,-187.5C319.94,-187.5 311.3,-187.5 303.21,-187.5"/>
<polygon fill="#63b8ff" stroke="#63b8ff" points="328.66,-191 338.66,-187.5 328.66,-184 328.66,-191"/>
</a>
</g>
</g>
<!-- Node9 -->
<g id="Node000009" class="node">
<title>Node9</title>
<g id="a_Node000009"><a xlink:href="main_8c.html#a1e35d2b842121e6aea373f09381616e5" target="_top" xlink:title=" ">
<polygon fill="white" stroke="#666666" points="181,-197 104,-197 104,-178 181,-178 181,-197"/>
<text text-anchor="middle" x="142.5" y="-185" font-family="Helvetica,sans-Serif" font-size="10.00">thread1_idle</text>
</a>
</g>
</g>
<!-- Node8&#45;&gt;Node9 -->
<g id="edge8_Node000008_Node000009" class="edge">
<title>Node8&#45;&gt;Node9</title>
<g id="a_edge8_Node000008_Node000009"><a xlink:title=" ">
<path fill="none" stroke="#63b8ff" d="M206.9,-187.5C198.2,-187.5 189.33,-187.5 181.09,-187.5"/>
<polygon fill="#63b8ff" stroke="#63b8ff" points="206.98,-191 216.98,-187.5 206.98,-184 206.98,-191"/>
</a>
</g>
</g>
<!-- Node10 -->
<g id="Node000010" class="node">
<title>Node10</title>
<g id="a_Node000010"><a xlink:href="main_8c.html#a4f87d43525fe95f60ea92bc8a3b70e62" target="_top" xlink:title=" ">
<polygon fill="white" stroke="#666666" points="68,-197 0,-197 0,-178 68,-178 68,-197"/>
<text text-anchor="middle" x="34" y="-185" font-family="Helvetica,sans-Serif" font-size="10.00">main_func</text>
</a>
</g>
</g>
<!-- Node9&#45;&gt;Node10 -->
<g id="edge9_Node000009_Node000010" class="edge">
<title>Node9&#45;&gt;Node10</title>
<g id="a_edge9_Node000009_Node000010"><a xlink:title=" ">
<path fill="none" stroke="#63b8ff" d="M93.95,-187.5C85.29,-187.5 76.44,-187.5 68.31,-187.5"/>
<polygon fill="#63b8ff" stroke="#63b8ff" points="93.95,-191 103.95,-187.5 93.95,-184 93.95,-191"/>
</a>
</g>
</g>
<!-- Node12 -->
<g id="Node000012" class="node">
<title>Node12</title>
<g id="a_Node000012"><a xlink:href="update__objects_8c.html#a55824b184e553d99cbe9014f5e950ddc" target="_top" xlink:title=" ">
<polygon fill="white" stroke="#666666" points="1806.5,-250 1693.5,-250 1693.5,-231 1806.5,-231 1806.5,-250"/>
<text text-anchor="middle" x="1750" y="-238" font-family="Helvetica,sans-Serif" font-size="10.00">init_hot_air_balloon</text>
</a>
</g>
</g>
<!-- Node11&#45;&gt;Node12 -->
<g id="edge11_Node000011_Node000012" class="edge">
<title>Node11&#45;&gt;Node12</title>
<g id="a_edge11_Node000011_Node000012"><a xlink:title=" ">
<path fill="none" stroke="#63b8ff" d="M1839.19,-240.5C1828.39,-240.5 1817.25,-240.5 1806.68,-240.5"/>
<polygon fill="#63b8ff" stroke="#63b8ff" points="1839.41,-244 1849.41,-240.5 1839.41,-237 1839.41,-244"/>
</a>
</g>
</g>
<!-- Node11&#45;&gt;Node21 -->
<g id="edge24_Node000011_Node000021" class="edge">
<title>Node11&#45;&gt;Node21</title>
<g id="a_edge24_Node000011_Node000021"><a xlink:title=" ">
<path fill="none" stroke="#63b8ff" d="M1862.59,-220.99C1856.34,-217.87 1849.98,-214.64 1844,-211.5 1816.97,-197.32 1786.15,-179.81 1767.65,-169.16"/>
<polygon fill="#63b8ff" stroke="#63b8ff" points="1861.1,-224.16 1871.61,-225.46 1864.2,-217.88 1861.1,-224.16"/>
</a>
</g>
</g>
<!-- Node13 -->
<g id="Node000013" class="node">
<title>Node13</title>
<g id="a_Node000013"><a xlink:href="update__objects_8c.html#a3ca574297b43f7a7b8c467d5030271f2" target="_top" xlink:title=" ">
<polygon fill="white" stroke="#666666" points="1638.5,-250 1547.5,-250 1547.5,-231 1638.5,-231 1638.5,-250"/>
<text text-anchor="middle" x="1593" y="-238" font-family="Helvetica,sans-Serif" font-size="10.00">func_80085768</text>
</a>
</g>
</g>
<!-- Node12&#45;&gt;Node13 -->
<g id="edge12_Node000012_Node000013" class="edge">
<title>Node12&#45;&gt;Node13</title>
<g id="a_edge12_Node000012_Node000013"><a xlink:title=" ">
<path fill="none" stroke="#63b8ff" d="M1683.26,-240.5C1668.33,-240.5 1652.79,-240.5 1638.95,-240.5"/>
<polygon fill="#63b8ff" stroke="#63b8ff" points="1683.48,-244 1693.48,-240.5 1683.48,-237 1683.48,-244"/>
</a>
</g>
</g>
<!-- Node14 -->
<g id="Node000014" class="node">
<title>Node14</title>
<g id="a_Node000014"><a xlink:href="update__objects_8c.html#a922dd3cf5e4110721e0b199827413ade" target="_top" xlink:title=" ">
<polygon fill="white" stroke="#666666" points="1494,-250 1363,-250 1363,-231 1494,-231 1494,-250"/>
<text text-anchor="middle" x="1428.5" y="-238" font-family="Helvetica,sans-Serif" font-size="10.00">update_hot_air_balloon</text>
</a>
</g>
</g>
<!-- Node13&#45;&gt;Node14 -->
<g id="edge13_Node000013_Node000014" class="edge">
<title>Node13&#45;&gt;Node14</title>
<g id="a_edge13_Node000013_Node000014"><a xlink:title=" ">
<path fill="none" stroke="#63b8ff" d="M1536.93,-240.5C1523.22,-240.5 1508.39,-240.5 1494.26,-240.5"/>
<polygon fill="#63b8ff" stroke="#63b8ff" points="1537.17,-244 1547.17,-240.5 1537.17,-237 1537.17,-244"/>
</a>
</g>
</g>
<!-- Node15 -->
<g id="Node000015" class="node">
<title>Node15</title>
<g id="a_Node000015"><a xlink:href="code__80057C60_8c.html#a22c0f603a5c87f883a26284082d099f8" target="_top" xlink:title=" ">
<polygon fill="white" stroke="#666666" points="1327,-250 1241,-250 1241,-231 1327,-231 1327,-250"/>
<text text-anchor="middle" x="1284" y="-238" font-family="Helvetica,sans-Serif" font-size="10.00">update_object</text>
</a>
</g>
</g>
<!-- Node14&#45;&gt;Node15 -->
<g id="edge14_Node000014_Node000015" class="edge">
<title>Node14&#45;&gt;Node15</title>
<g id="a_edge14_Node000014_Node000015"><a xlink:title=" ">
<path fill="none" stroke="#63b8ff" d="M1352.7,-240.5C1344,-240.5 1335.36,-240.5 1327.32,-240.5"/>
<polygon fill="#63b8ff" stroke="#63b8ff" points="1352.92,-244 1362.92,-240.5 1352.92,-237 1352.92,-244"/>
</a>
</g>
</g>
<!-- Node16 -->
<g id="Node000016" class="node">
<title>Node16</title>
<g id="a_Node000016"><a xlink:href="code__80057C60_8c.html#a48f7fc1ba7acccec2d7b6e0a59f65dc5" target="_top" xlink:title=" ">
<polygon fill="white" stroke="#666666" points="1189.5,-255 1097.5,-255 1097.5,-236 1189.5,-236 1189.5,-255"/>
<text text-anchor="middle" x="1143.5" y="-243" font-family="Helvetica,sans-Serif" font-size="10.00">func_80059D00</text>
</a>
</g>
</g>
<!-- Node15&#45;&gt;Node16 -->
<g id="edge15_Node000015_Node000016" class="edge">
<title>Node15&#45;&gt;Node16</title>
<g id="a_edge15_Node000015_Node000016"><a xlink:title=" ">
<path fill="none" stroke="#63b8ff" d="M1230.65,-242.39C1217.25,-242.87 1202.94,-243.39 1189.92,-243.86"/>
<polygon fill="#63b8ff" stroke="#63b8ff" points="1230.83,-245.89 1240.69,-242.03 1230.57,-238.89 1230.83,-245.89"/>
</a>
</g>
</g>
<!-- Node17 -->
<g id="Node000017" class="node">
<title>Node17</title>
<g id="a_Node000017"><a xlink:href="code__80057C60_8c.html#a86b7dba9c0715c4d7fdf8ce61c0738bc" target="_top" xlink:title=" ">
<polygon fill="white" stroke="#666666" points="1038,-254 946,-254 946,-235 1038,-235 1038,-254"/>
<text text-anchor="middle" x="992" y="-242" font-family="Helvetica,sans-Serif" font-size="10.00">func_8005A070</text>
</a>
</g>
</g>
<!-- Node15&#45;&gt;Node17 -->
<g id="edge23_Node000015_Node000017" class="edge">
<title>Node15&#45;&gt;Node17</title>
<g id="a_edge23_Node000015_Node000017"><a xlink:title=" ">
<path fill="none" stroke="#63b8ff" d="M1230.74,-230.57C1222.17,-229.29 1213.36,-228.19 1205,-227.5 1150.52,-222.99 1136.42,-222.35 1082,-227.5 1066.18,-229 1048.99,-231.96 1033.98,-235"/>
<polygon fill="#63b8ff" stroke="#63b8ff" points="1230.23,-234.03 1240.65,-232.14 1231.32,-227.12 1230.23,-234.03"/>
</a>
</g>
</g>
<!-- Node16&#45;&gt;Node17 -->
<g id="edge16_Node000016_Node000017" class="edge">
<title>Node16&#45;&gt;Node17</title>
<g id="a_edge16_Node000016_Node000017"><a xlink:title=" ">
<path fill="none" stroke="#63b8ff" d="M1086.89,-245.13C1070.81,-245.02 1053.46,-244.9 1038.11,-244.8"/>
<polygon fill="#63b8ff" stroke="#63b8ff" points="1087.22,-248.63 1097.24,-245.2 1087.26,-241.63 1087.22,-248.63"/>
</a>
</g>
</g>
<!-- Node17&#45;&gt;Node5 -->
<g id="edge22_Node000017_Node000005" class="edge">
<title>Node17&#45;&gt;Node5</title>
<g id="a_edge22_Node000017_Node000005"><a xlink:title=" ">
<path fill="none" stroke="#63b8ff" d="M946.36,-256.83C928.61,-261.73 908.5,-267.28 891.86,-271.88"/>
<polygon fill="#63b8ff" stroke="#63b8ff" points="947.78,-260.06 956.49,-254.03 945.92,-253.32 947.78,-260.06"/>
</a>
</g>
</g>
<!-- Node18 -->
<g id="Node000018" class="node">
<title>Node18</title>
<g id="a_Node000018"><a xlink:href="code__80280000_8c.html#a4d9b0156b64d7a67e4cb21cde391ca43" target="_top" xlink:title=" ">
<polygon fill="white" stroke="#666666" points="901.5,-254 810.5,-254 810.5,-235 901.5,-235 901.5,-254"/>
<text text-anchor="middle" x="856" y="-242" font-family="Helvetica,sans-Serif" font-size="10.00">func_80280000</text>
</a>
</g>
</g>
<!-- Node17&#45;&gt;Node18 -->
<g id="edge17_Node000017_Node000018" class="edge">
<title>Node17&#45;&gt;Node18</title>
<g id="a_edge17_Node000017_Node000018"><a xlink:title=" ">
<path fill="none" stroke="#63b8ff" d="M935.5,-244.5C924.3,-244.5 912.65,-244.5 901.86,-244.5"/>
<polygon fill="#63b8ff" stroke="#63b8ff" points="935.63,-248 945.63,-244.5 935.63,-241 935.63,-248"/>
</a>
</g>
</g>
<!-- Node20 -->
<g id="Node000020" class="node">
<title>Node20</title>
<g id="a_Node000020"><a xlink:href="podium__ceremony__actors_8c.html#a7ea229c65f264670fc828b95e8321154" target="_top" xlink:title=" ">
<polygon fill="white" stroke="#666666" points="774,-216 640,-216 640,-197 774,-197 774,-216"/>
<text text-anchor="middle" x="707" y="-204" font-family="Helvetica,sans-Serif" font-size="10.00">podium_ceremony_loop</text>
</a>
</g>
</g>
<!-- Node17&#45;&gt;Node20 -->
<g id="edge20_Node000017_Node000020" class="edge">
<title>Node17&#45;&gt;Node20</title>
<g id="a_edge20_Node000017_Node000020"><a xlink:title=" ">
<path fill="none" stroke="#63b8ff" d="M938.34,-232.97C926.43,-230.61 913.81,-228.3 902,-226.5 859.66,-220.05 811.79,-215.09 774.2,-211.72"/>
<polygon fill="#63b8ff" stroke="#63b8ff" points="937.65,-236.4 948.14,-234.96 939.04,-229.54 937.65,-236.4"/>
</a>
</g>
</g>
<!-- Node19 -->
<g id="Node000019" class="node">
<title>Node19</title>
<g id="a_Node000019"><a xlink:href="code__80280000_8c.html#aa28a69be4eda3b8667366c6c7b556024" target="_top" xlink:title=" ">
<polygon fill="white" stroke="#666666" points="745,-253 669,-253 669,-234 745,-234 745,-253"/>
<text text-anchor="middle" x="707" y="-241" font-family="Helvetica,sans-Serif" font-size="10.00">credits_loop</text>
</a>
</g>
</g>
<!-- Node18&#45;&gt;Node19 -->
<g id="edge18_Node000018_Node000019" class="edge">
<title>Node18&#45;&gt;Node19</title>
<g id="a_edge18_Node000018_Node000019"><a xlink:title=" ">
<path fill="none" stroke="#63b8ff" d="M800.26,-244.13C781.99,-244 762.06,-243.87 745.42,-243.75"/>
<polygon fill="#63b8ff" stroke="#63b8ff" points="800.47,-247.63 810.5,-244.2 800.52,-240.63 800.47,-247.63"/>
</a>
</g>
</g>
<!-- Node19&#45;&gt;Node6 -->
<g id="edge19_Node000019_Node000006" class="edge">
<title>Node19&#45;&gt;Node6</title>
<g id="a_edge19_Node000019_Node000006"><a xlink:title=" ">
<path fill="none" stroke="#63b8ff" d="M658.46,-237.82C641.42,-235.78 622.05,-233.47 604.28,-231.34"/>
<polygon fill="#63b8ff" stroke="#63b8ff" points="658.38,-241.33 668.72,-239.05 659.21,-234.38 658.38,-241.33"/>
</a>
</g>
</g>
<!-- Node20&#45;&gt;Node6 -->
<g id="edge21_Node000020_Node000006" class="edge">
<title>Node20&#45;&gt;Node6</title>
<g id="a_edge21_Node000020_Node000006"><a xlink:title=" ">
<path fill="none" stroke="#63b8ff" d="M629.87,-215.12C621.24,-216.1 612.56,-217.08 604.24,-218.02"/>
<polygon fill="#63b8ff" stroke="#63b8ff" points="630.41,-218.58 639.95,-213.98 629.62,-211.62 630.41,-218.58"/>
</a>
</g>
</g>
<!-- Node22 -->
<g id="Node000022" class="node">
<title>Node22</title>
<g id="a_Node000022"><a xlink:href="actors_8c.html#a8ed0774c05b9577fcf2db1dd958941b1" target="_top" xlink:title=" ">
<polygon fill="white" stroke="#666666" points="1656,-169 1530,-169 1530,-150 1656,-150 1656,-169"/>
<text text-anchor="middle" x="1593" y="-157" font-family="Helvetica,sans-Serif" font-size="10.00">load_common_texture</text>
</a>
</g>
</g>
<!-- Node21&#45;&gt;Node22 -->
<g id="edge25_Node000021_Node000022" class="edge">
<title>Node21&#45;&gt;Node22</title>
<g id="a_edge25_Node000021_Node000022"><a xlink:title=" ">
<path fill="none" stroke="#63b8ff" d="M1681.57,-159.5C1673.16,-159.5 1664.58,-159.5 1656.25,-159.5"/>
<polygon fill="#63b8ff" stroke="#63b8ff" points="1681.72,-163 1691.72,-159.5 1681.72,-156 1681.72,-163"/>
</a>
</g>
</g>
<!-- Node23 -->
<g id="Node000023" class="node">
<title>Node23</title>
<g id="a_Node000023"><a xlink:href="code__800029B0_8c.html#aca6165112fc92e65ad6477e785a7098c" target="_top" xlink:title=" ">
<polygon fill="white" stroke="#666666" points="1463.5,-174 1393.5,-174 1393.5,-155 1463.5,-155 1463.5,-174"/>
<text text-anchor="middle" x="1428.5" y="-162" font-family="Helvetica,sans-Serif" font-size="10.00">setup_race</text>
</a>
</g>
</g>
<!-- Node22&#45;&gt;Node23 -->
<g id="edge26_Node000022_Node000023" class="edge">
<title>Node22&#45;&gt;Node23</title>
<g id="a_edge26_Node000022_Node000023"><a xlink:title=" ">
<path fill="none" stroke="#63b8ff" d="M1519.56,-161.73C1500.14,-162.33 1480.03,-162.95 1463.75,-163.45"/>
<polygon fill="#63b8ff" stroke="#63b8ff" points="1519.75,-165.22 1529.64,-161.42 1519.54,-158.23 1519.75,-165.22"/>
</a>
</g>
</g>
<!-- Node24 -->
<g id="Node000024" class="node">
<title>Node24</title>
<g id="a_Node000024"><a xlink:href="main_8c.html#ad0625ed56ac663d3ec7ae8f1ba50c735" target="_top" xlink:title=" ">
<polygon fill="white" stroke="#666666" points="1046,-177 938,-177 938,-158 1046,-158 1046,-177"/>
<text text-anchor="middle" x="992" y="-165" font-family="Helvetica,sans-Serif" font-size="10.00">update_gamestate</text>
</a>
</g>
</g>
<!-- Node23&#45;&gt;Node24 -->
<g id="edge27_Node000023_Node000024" class="edge">
<title>Node23&#45;&gt;Node24</title>
<g id="a_edge27_Node000023_Node000024"><a xlink:title=" ">
<path fill="none" stroke="#63b8ff" d="M1383.11,-164.81C1302.56,-165.36 1132.65,-166.54 1046.1,-167.13"/>
<polygon fill="#63b8ff" stroke="#63b8ff" points="1383.43,-168.3 1393.41,-164.74 1383.38,-161.3 1383.43,-168.3"/>
</a>
</g>
</g>
<!-- Node24&#45;&gt;Node7 -->
<g id="edge28_Node000024_Node000007" class="edge">
<title>Node24&#45;&gt;Node7</title>
<g id="a_edge28_Node000024_Node000007"><a xlink:title=" ">
<path fill="none" stroke="#63b8ff" d="M927.77,-169.63C810.9,-173.56 562.96,-181.9 452.09,-185.63"/>
<polygon fill="#63b8ff" stroke="#63b8ff" points="928.1,-173.12 937.98,-169.28 927.87,-166.12 928.1,-173.12"/>
</a>
</g>
</g>
<!-- Node25&#45;&gt;Node22 -->
<g id="edge30_Node000025_Node000022" class="edge">
<title>Node25&#45;&gt;Node22</title>
<g id="a_edge30_Node000025_Node000022"><a xlink:title=" ">
<path fill="none" stroke="#63b8ff" d="M1719.7,-99.49C1688.91,-114.19 1641.28,-136.93 1614.36,-149.78"/>
<polygon fill="#63b8ff" stroke="#63b8ff" points="1721.54,-102.49 1729.05,-95.02 1718.52,-96.17 1721.54,-102.49"/>
</a>
</g>
</g>
<!-- Node26&#45;&gt;Node21 -->
<g id="edge33_Node000026_Node000021" class="edge">
<title>Node26&#45;&gt;Node21</title>
<g id="a_edge33_Node000026_Node000021"><a xlink:title=" ">
<path fill="none" stroke="#63b8ff" d="M1838.91,-159.5C1828.71,-159.5 1818.22,-159.5 1808.19,-159.5"/>
<polygon fill="#63b8ff" stroke="#63b8ff" points="1838.98,-163 1848.98,-159.5 1838.98,-156 1838.98,-163"/>
</a>
</g>
</g>
<!-- Node27&#45;&gt;Node21 -->
<g id="edge35_Node000027_Node000021" class="edge">
<title>Node27&#45;&gt;Node21</title>
<g id="a_edge35_Node000027_Node000021"><a xlink:title=" ">
<path fill="none" stroke="#63b8ff" d="M1854.01,-134.43C1833.39,-139.44 1809.72,-145.21 1790.28,-149.94"/>
<polygon fill="#63b8ff" stroke="#63b8ff" points="1854.97,-137.79 1863.86,-132.03 1853.31,-130.99 1854.97,-137.79"/>
</a>
</g>
</g>
<!-- Node28&#45;&gt;Node21 -->
<g id="edge37_Node000028_Node000021" class="edge">
<title>Node28&#45;&gt;Node21</title>
<g id="a_edge37_Node000028_Node000021"><a xlink:title=" ">
<path fill="none" stroke="#63b8ff" d="M1859.01,-98.46C1853.89,-100.33 1848.78,-102.35 1844,-104.5 1814.58,-117.74 1782.71,-138.02 1764.96,-149.9"/>
<polygon fill="#63b8ff" stroke="#63b8ff" points="1860.5,-101.65 1868.82,-95.08 1858.22,-95.03 1860.5,-101.65"/>
</a>
</g>
</g>
<!-- Node30 -->
<g id="Node000030" class="node">
<title>Node30</title>
<g id="a_Node000030"><a xlink:href="actors_8c.html#a0d9197f8df1df3e8834fbaf37e9e2115" target="_top" xlink:title=" ">
<polygon fill="white" stroke="#666666" points="1797,-19 1703,-19 1703,0 1797,0 1797,-19"/>
<text text-anchor="middle" x="1750" y="-7" font-family="Helvetica,sans-Serif" font-size="10.00">func_8029ABD4</text>
</a>
</g>
</g>
<!-- Node29&#45;&gt;Node30 -->
<g id="edge39_Node000029_Node000030" class="edge">
<title>Node29&#45;&gt;Node30</title>
<g id="a_edge39_Node000029_Node000030"><a xlink:title=" ">
<path fill="none" stroke="#63b8ff" d="M1835.71,-9.5C1822.79,-9.5 1809.53,-9.5 1797.45,-9.5"/>
<polygon fill="#63b8ff" stroke="#63b8ff" points="1835.97,-13 1845.97,-9.5 1835.97,-6 1835.97,-13"/>
</a>
</g>
</g>
</g>
</svg>
