<?xml version="1.0" encoding="UTF-8" standalone="no"?>
<!DOCTYPE svg PUBLIC "-//W3C//DTD SVG 1.1//EN"
 "http://www.w3.org/Graphics/SVG/1.1/DTD/svg11.dtd">
<!-- Generated by graphviz version 2.43.0 (0)
 -->
<!-- Title: vec3s_set Pages: 1 -->
<svg width="2073pt" height="300pt"
 viewBox="0.00 0.00 2073.00 299.94" xmlns="http://www.w3.org/2000/svg" xmlns:xlink="http://www.w3.org/1999/xlink">
<g id="graph0" class="graph" transform="scale(1 1) rotate(0) translate(4 295.94)">
<title>vec3s_set</title>
<!-- Node1 -->
<g id="Node000001" class="node">
<title>Node1</title>
<g id="a_Node000001"><a xlink:title=" ">
<polygon fill="#999999" stroke="#666666" points="2065,-138.44 2000,-138.44 2000,-119.44 2065,-119.44 2065,-138.44"/>
<text text-anchor="middle" x="2032.5" y="-126.44" font-family="Helvetica,sans-Serif" font-size="10.00">vec3s_set</text>
</a>
</g>
</g>
<!-- Node2 -->
<g id="Node000002" class="node">
<title>Node2</title>
<g id="a_Node000002"><a xlink:href="actors_8c.html#a22b9f8384d00a6e1d5d9a61a67be639d" target="_top" xlink:title=" ">
<polygon fill="white" stroke="#666666" points="1960,-291.94 1848,-291.94 1848,-261.94 1960,-261.94 1960,-291.94"/>
<text text-anchor="start" x="1856" y="-279.94" font-family="Helvetica,sans-Serif" font-size="10.00">allocate_actor_with</text>
<text text-anchor="middle" x="1904" y="-268.94" font-family="Helvetica,sans-Serif" font-size="10.00">_new_position</text>
</a>
</g>
</g>
<!-- Node1&#45;&gt;Node2 -->
<g id="edge1_Node000001_Node000002" class="edge">
<title>Node1&#45;&gt;Node2</title>
<g id="a_edge1_Node000001_Node000002"><a xlink:title=" ">
<path fill="none" stroke="#63b8ff" d="M2025.51,-148.57C2016.35,-175.53 1996.45,-223.94 1964,-252.94 1960.21,-256.33 1955.87,-259.28 1951.31,-261.83"/>
<polygon fill="#63b8ff" stroke="#63b8ff" points="2028.93,-149.35 2028.68,-138.76 2022.28,-147.2 2028.93,-149.35"/>
</a>
</g>
</g>
<!-- Node4 -->
<g id="Node000004" class="node">
<title>Node4</title>
<g id="a_Node000004"><a xlink:href="falling__rock_2update_8inc_8c.html#a9a8171deacccacba26f4fda3f2aec227" target="_top" xlink:title=" ">
<polygon fill="white" stroke="#666666" points="1950,-243.44 1858,-243.44 1858,-224.44 1950,-224.44 1950,-243.44"/>
<text text-anchor="middle" x="1904" y="-231.44" font-family="Helvetica,sans-Serif" font-size="10.00">func_8029CF0C</text>
</a>
</g>
</g>
<!-- Node1&#45;&gt;Node4 -->
<g id="edge3_Node000001_Node000004" class="edge">
<title>Node1&#45;&gt;Node4</title>
<g id="a_edge3_Node000001_Node000004"><a xlink:title=" ">
<path fill="none" stroke="#63b8ff" d="M2021.56,-147.3C2010.12,-166.77 1989.58,-197.12 1964,-214.94 1958.44,-218.82 1952.04,-221.93 1945.55,-224.43"/>
<polygon fill="#63b8ff" stroke="#63b8ff" points="2024.68,-148.9 2026.56,-138.47 2018.59,-145.45 2024.68,-148.9"/>
</a>
</g>
</g>
<!-- Node13 -->
<g id="Node000013" class="node">
<title>Node13</title>
<g id="a_Node000013"><a xlink:href="actors_8c.html#a5998eaf5bee060a664f203f5d0a8ae95" target="_top" xlink:title=" ">
<polygon fill="white" stroke="#666666" points="1958.5,-205.94 1849.5,-205.94 1849.5,-175.94 1958.5,-175.94 1958.5,-205.94"/>
<text text-anchor="start" x="1857.5" y="-193.94" font-family="Helvetica,sans-Serif" font-size="10.00">init_actor_hot_air</text>
<text text-anchor="middle" x="1904" y="-182.94" font-family="Helvetica,sans-Serif" font-size="10.00">_balloon_item_box</text>
</a>
</g>
</g>
<!-- Node1&#45;&gt;Node13 -->
<g id="edge12_Node000001_Node000013" class="edge">
<title>Node1&#45;&gt;Node13</title>
<g id="a_edge12_Node000001_Node000013"><a xlink:title=" ">
<path fill="none" stroke="#63b8ff" d="M2002.83,-142.99C1982.95,-152.74 1956.48,-165.71 1936.08,-175.71"/>
<polygon fill="#63b8ff" stroke="#63b8ff" points="2004.57,-146.04 2012.01,-138.49 2001.49,-139.75 2004.57,-146.04"/>
</a>
</g>
</g>
<!-- Node23 -->
<g id="Node000023" class="node">
<title>Node23</title>
<g id="a_Node000023"><a xlink:href="actors_8c.html#a09880e8065960d2bbd0585409a4831a7" target="_top" xlink:title=" ">
<polygon fill="white" stroke="#666666" points="1808,-119.44 1692,-119.44 1692,-100.44 1808,-100.44 1808,-119.44"/>
<text text-anchor="middle" x="1750" y="-107.44" font-family="Helvetica,sans-Serif" font-size="10.00">place_course_actors</text>
</a>
</g>
</g>
<!-- Node1&#45;&gt;Node23 -->
<g id="edge33_Node000001_Node000023" class="edge">
<title>Node1&#45;&gt;Node23</title>
<g id="a_edge33_Node000001_Node000023"><a xlink:title=" ">
<path fill="none" stroke="#63b8ff" d="M1989.69,-131.34C1951.61,-132.96 1893.88,-133.98 1844,-128.94 1825.64,-127.08 1805.54,-123.21 1788.74,-119.45"/>
<polygon fill="#63b8ff" stroke="#63b8ff" points="1990.06,-134.83 1999.89,-130.87 1989.74,-127.84 1990.06,-134.83"/>
</a>
</g>
</g>
<!-- Node27 -->
<g id="Node000027" class="node">
<title>Node27</title>
<g id="a_Node000027"><a xlink:href="code__80005FD0_8c.html#afd6fa1e9b8e8378fffcaa462fdc81ef6" target="_top" xlink:title=" ">
<polygon fill="white" stroke="#666666" points="1808,-45.44 1692,-45.44 1692,-26.44 1808,-26.44 1808,-45.44"/>
<text text-anchor="middle" x="1750" y="-33.44" font-family="Helvetica,sans-Serif" font-size="10.00">init_course_vehicles</text>
</a>
</g>
</g>
<!-- Node1&#45;&gt;Node27 -->
<g id="edge31_Node000001_Node000027" class="edge">
<title>Node1&#45;&gt;Node27</title>
<g id="a_edge31_Node000001_Node000027"><a xlink:title=" ">
<path fill="none" stroke="#63b8ff" d="M2026.25,-109.41C2017.98,-82.96 1999.09,-36.76 1964,-16.94 1901.94,18.12 1813.16,-10.1 1772.64,-26.4"/>
<polygon fill="#63b8ff" stroke="#63b8ff" points="2022.92,-110.49 2029.09,-119.1 2029.64,-108.52 2022.92,-110.49"/>
</a>
</g>
</g>
<!-- Node28 -->
<g id="Node000028" class="node">
<title>Node28</title>
<g id="a_Node000028"><a xlink:href="falling__rock_2update_8inc_8c.html#aa1befa8b36aff5f3d15c58cb8b1f6231" target="_top" xlink:title=" ">
<polygon fill="white" stroke="#666666" points="1959,-119.44 1849,-119.44 1849,-100.44 1959,-100.44 1959,-119.44"/>
<text text-anchor="middle" x="1904" y="-107.44" font-family="Helvetica,sans-Serif" font-size="10.00">place_falling_rocks</text>
</a>
</g>
</g>
<!-- Node1&#45;&gt;Node28 -->
<g id="edge34_Node000001_Node000028" class="edge">
<title>Node1&#45;&gt;Node28</title>
<g id="a_edge34_Node000001_Node000028"><a xlink:title=" ">
<path fill="none" stroke="#63b8ff" d="M1990.01,-122.71C1980.2,-121.24 1969.59,-119.64 1959.31,-118.1"/>
<polygon fill="#63b8ff" stroke="#63b8ff" points="1989.5,-126.17 1999.91,-124.19 1990.54,-119.25 1989.5,-126.17"/>
</a>
</g>
</g>
<!-- Node29 -->
<g id="Node000029" class="node">
<title>Node29</title>
<g id="a_Node000029"><a xlink:href="actors_8c.html#a74cec04857466d1db6033e07070c9d19" target="_top" xlink:title=" ">
<polygon fill="white" stroke="#666666" points="1955.5,-82.44 1852.5,-82.44 1852.5,-63.44 1955.5,-63.44 1955.5,-82.44"/>
<text text-anchor="middle" x="1904" y="-70.44" font-family="Helvetica,sans-Serif" font-size="10.00">place_palm_trees</text>
</a>
</g>
</g>
<!-- Node1&#45;&gt;Node29 -->
<g id="edge36_Node000001_Node000029" class="edge">
<title>Node1&#45;&gt;Node29</title>
<g id="a_edge36_Node000001_Node000029"><a xlink:title=" ">
<path fill="none" stroke="#63b8ff" d="M2007.16,-114.14C1994.57,-106.85 1978.77,-98.3 1964,-91.94 1955.89,-88.45 1946.93,-85.25 1938.48,-82.51"/>
<polygon fill="#63b8ff" stroke="#63b8ff" points="2005.71,-117.34 2016.1,-119.4 2009.26,-111.31 2005.71,-117.34"/>
</a>
</g>
</g>
<!-- Node30 -->
<g id="Node000030" class="node">
<title>Node30</title>
<g id="a_Node000030"><a xlink:href="actors_8c.html#ada2ce3dcaee0557208501ee291924021" target="_top" xlink:title=" ">
<polygon fill="white" stroke="#666666" points="1964,-45.44 1844,-45.44 1844,-26.44 1964,-26.44 1964,-45.44"/>
<text text-anchor="middle" x="1904" y="-33.44" font-family="Helvetica,sans-Serif" font-size="10.00">place_piranha_plants</text>
</a>
</g>
</g>
<!-- Node1&#45;&gt;Node30 -->
<g id="edge38_Node000001_Node000030" class="edge">
<title>Node1&#45;&gt;Node30</title>
<g id="a_edge38_Node000001_Node000030"><a xlink:title=" ">
<path fill="none" stroke="#63b8ff" d="M2019.31,-110.9C2007.13,-94.17 1986.95,-69.7 1964,-54.94 1958.03,-51.1 1951.21,-47.98 1944.39,-45.46"/>
<polygon fill="#63b8ff" stroke="#63b8ff" points="2016.6,-113.13 2025.22,-119.29 2022.32,-109.1 2016.6,-113.13"/>
</a>
</g>
</g>
<!-- Node3 -->
<g id="Node000003" class="node">
<title>Node3</title>
<g id="a_Node000003"><a xlink:href="actors_8c.html#a0d9197f8df1df3e8834fbaf37e9e2115" target="_top" xlink:title=" ">
<polygon fill="white" stroke="#666666" points="1797,-286.44 1703,-286.44 1703,-267.44 1797,-267.44 1797,-286.44"/>
<text text-anchor="middle" x="1750" y="-274.44" font-family="Helvetica,sans-Serif" font-size="10.00">func_8029ABD4</text>
</a>
</g>
</g>
<!-- Node2&#45;&gt;Node3 -->
<g id="edge2_Node000002_Node000003" class="edge">
<title>Node2&#45;&gt;Node3</title>
<g id="a_edge2_Node000002_Node000003"><a xlink:title=" ">
<path fill="none" stroke="#63b8ff" d="M1837.41,-276.94C1823.8,-276.94 1809.74,-276.94 1797.02,-276.94"/>
<polygon fill="#63b8ff" stroke="#63b8ff" points="1837.69,-280.44 1847.69,-276.94 1837.69,-273.44 1837.69,-280.44"/>
</a>
</g>
</g>
<!-- Node5 -->
<g id="Node000005" class="node">
<title>Node5</title>
<g id="a_Node000005"><a xlink:href="falling__rock_2update_8inc_8c.html#a7476a0a7924f3878d39fb7b83f229779" target="_top" xlink:title=" ">
<polygon fill="white" stroke="#666666" points="1808,-248.94 1692,-248.94 1692,-218.94 1808,-218.94 1808,-248.94"/>
<text text-anchor="start" x="1700" y="-236.94" font-family="Helvetica,sans-Serif" font-size="10.00">update_actor_falling</text>
<text text-anchor="middle" x="1750" y="-225.94" font-family="Helvetica,sans-Serif" font-size="10.00">_rocks</text>
</a>
</g>
</g>
<!-- Node4&#45;&gt;Node5 -->
<g id="edge4_Node000004_Node000005" class="edge">
<title>Node4&#45;&gt;Node5</title>
<g id="a_edge4_Node000004_Node000005"><a xlink:title=" ">
<path fill="none" stroke="#63b8ff" d="M1847.7,-233.94C1834.84,-233.94 1821.11,-233.94 1808.17,-233.94"/>
<polygon fill="#63b8ff" stroke="#63b8ff" points="1847.81,-237.44 1857.81,-233.94 1847.81,-230.44 1847.81,-237.44"/>
</a>
</g>
</g>
<!-- Node6 -->
<g id="Node000006" class="node">
<title>Node6</title>
<g id="a_Node000006"><a xlink:href="actors_8c.html#aa6387502059c64a81d32c944b39d78f9" target="_top" xlink:title=" ">
<polygon fill="white" stroke="#666666" points="1205,-243.44 1082,-243.44 1082,-224.44 1205,-224.44 1205,-243.44"/>
<text text-anchor="middle" x="1143.5" y="-231.44" font-family="Helvetica,sans-Serif" font-size="10.00">update_course_actors</text>
</a>
</g>
</g>
<!-- Node5&#45;&gt;Node6 -->
<g id="edge5_Node000005_Node000006" class="edge">
<title>Node5&#45;&gt;Node6</title>
<g id="a_edge5_Node000005_Node000006"><a xlink:title=" ">
<path fill="none" stroke="#63b8ff" d="M1681.82,-233.94C1563.31,-233.94 1318.89,-233.94 1205.17,-233.94"/>
<polygon fill="#63b8ff" stroke="#63b8ff" points="1681.86,-237.44 1691.86,-233.94 1681.86,-230.44 1681.86,-237.44"/>
</a>
</g>
</g>
<!-- Node7 -->
<g id="Node000007" class="node">
<title>Node7</title>
<g id="a_Node000007"><a xlink:href="main_8c.html#afff87ffcbfee4f1f37d443110aa7b52a" target="_top" xlink:title=" ">
<polygon fill="white" stroke="#666666" points="902,-241.44 810,-241.44 810,-222.44 902,-222.44 902,-241.44"/>
<text text-anchor="middle" x="856" y="-229.44" font-family="Helvetica,sans-Serif" font-size="10.00">race_logic_loop</text>
</a>
</g>
</g>
<!-- Node6&#45;&gt;Node7 -->
<g id="edge6_Node000006_Node000007" class="edge">
<title>Node6&#45;&gt;Node7</title>
<g id="a_edge6_Node000006_Node000007"><a xlink:title=" ">
<path fill="none" stroke="#63b8ff" d="M1071.92,-233.45C1018.82,-233.07 947.63,-232.58 902.03,-232.26"/>
<polygon fill="#63b8ff" stroke="#63b8ff" points="1071.93,-236.95 1081.95,-233.52 1071.98,-229.95 1071.93,-236.95"/>
</a>
</g>
</g>
<!-- Node8 -->
<g id="Node000008" class="node">
<title>Node8</title>
<g id="a_Node000008"><a xlink:href="main_8c.html#ae04143ce8113cdafa007c642eb620bc8" target="_top" xlink:title=" ">
<polygon fill="white" stroke="#666666" points="604,-184.44 488,-184.44 488,-165.44 604,-165.44 604,-184.44"/>
<text text-anchor="middle" x="546" y="-172.44" font-family="Helvetica,sans-Serif" font-size="10.00">game_state_handler</text>
</a>
</g>
</g>
<!-- Node7&#45;&gt;Node8 -->
<g id="edge7_Node000007_Node000008" class="edge">
<title>Node7&#45;&gt;Node8</title>
<g id="a_edge7_Node000007_Node000008"><a xlink:title=" ">
<path fill="none" stroke="#63b8ff" d="M799.72,-231.58C755.85,-230.22 693.27,-225.86 640,-212.94 613.22,-206.44 584.07,-193.49 565.68,-184.53"/>
<polygon fill="#63b8ff" stroke="#63b8ff" points="799.81,-235.09 809.9,-231.86 799.99,-228.09 799.81,-235.09"/>
</a>
</g>
</g>
<!-- Node9 -->
<g id="Node000009" class="node">
<title>Node9</title>
<g id="a_Node000009"><a xlink:href="main_8c.html#a633ed517e458daeb768f5361895dcac9" target="_top" xlink:title=" ">
<polygon fill="white" stroke="#666666" points="452,-147.44 339,-147.44 339,-128.44 452,-128.44 452,-147.44"/>
<text text-anchor="middle" x="395.5" y="-135.44" font-family="Helvetica,sans-Serif" font-size="10.00">thread5_game_loop</text>
</a>
</g>
</g>
<!-- Node8&#45;&gt;Node9 -->
<g id="edge8_Node000008_Node000009" class="edge">
<title>Node8&#45;&gt;Node9</title>
<g id="a_edge8_Node000008_Node000009"><a xlink:title=" ">
<path fill="none" stroke="#63b8ff" d="M496.86,-162.95C476.78,-157.94 453.78,-152.21 434.87,-147.5"/>
<polygon fill="#63b8ff" stroke="#63b8ff" points="496.21,-166.39 506.76,-165.41 497.9,-159.6 496.21,-166.39"/>
</a>
</g>
</g>
<!-- Node10 -->
<g id="Node000010" class="node">
<title>Node10</title>
<g id="a_Node000010"><a xlink:href="main_8c.html#a023b8f272e4efbd33f371e91ffff6b30" target="_top" xlink:title=" ">
<polygon fill="white" stroke="#666666" points="303,-147.44 217,-147.44 217,-128.44 303,-128.44 303,-147.44"/>
<text text-anchor="middle" x="260" y="-135.44" font-family="Helvetica,sans-Serif" font-size="10.00">thread3_video</text>
</a>
</g>
</g>
<!-- Node9&#45;&gt;Node10 -->
<g id="edge9_Node000009_Node000010" class="edge">
<title>Node9&#45;&gt;Node10</title>
<g id="a_edge9_Node000009_Node000010"><a xlink:title=" ">
<path fill="none" stroke="#63b8ff" d="M328.57,-137.94C319.94,-137.94 311.3,-137.94 303.21,-137.94"/>
<polygon fill="#63b8ff" stroke="#63b8ff" points="328.66,-141.44 338.66,-137.94 328.66,-134.44 328.66,-141.44"/>
</a>
</g>
</g>
<!-- Node11 -->
<g id="Node000011" class="node">
<title>Node11</title>
<g id="a_Node000011"><a xlink:href="main_8c.html#a1e35d2b842121e6aea373f09381616e5" target="_top" xlink:title=" ">
<polygon fill="white" stroke="#666666" points="181,-147.44 104,-147.44 104,-128.44 181,-128.44 181,-147.44"/>
<text text-anchor="middle" x="142.5" y="-135.44" font-family="Helvetica,sans-Serif" font-size="10.00">thread1_idle</text>
</a>
</g>
</g>
<!-- Node10&#45;&gt;Node11 -->
<g id="edge10_Node000010_Node000011" class="edge">
<title>Node10&#45;&gt;Node11</title>
<g id="a_edge10_Node000010_Node000011"><a xlink:title=" ">
<path fill="none" stroke="#63b8ff" d="M206.9,-137.94C198.2,-137.94 189.33,-137.94 181.09,-137.94"/>
<polygon fill="#63b8ff" stroke="#63b8ff" points="206.98,-141.44 216.98,-137.94 206.98,-134.44 206.98,-141.44"/>
</a>
</g>
</g>
<!-- Node12 -->
<g id="Node000012" class="node">
<title>Node12</title>
<g id="a_Node000012"><a xlink:href="main_8c.html#a4f87d43525fe95f60ea92bc8a3b70e62" target="_top" xlink:title=" ">
<polygon fill="white" stroke="#666666" points="68,-147.44 0,-147.44 0,-128.44 68,-128.44 68,-147.44"/>
<text text-anchor="middle" x="34" y="-135.44" font-family="Helvetica,sans-Serif" font-size="10.00">main_func</text>
</a>
</g>
</g>
<!-- Node11&#45;&gt;Node12 -->
<g id="edge11_Node000011_Node000012" class="edge">
<title>Node11&#45;&gt;Node12</title>
<g id="a_edge11_Node000011_Node000012"><a xlink:title=" ">
<path fill="none" stroke="#63b8ff" d="M93.95,-137.94C85.29,-137.94 76.44,-137.94 68.31,-137.94"/>
<polygon fill="#63b8ff" stroke="#63b8ff" points="93.95,-141.44 103.95,-137.94 93.95,-134.44 93.95,-141.44"/>
</a>
</g>
</g>
<!-- Node14 -->
<g id="Node000014" class="node">
<title>Node14</title>
<g id="a_Node000014"><a xlink:href="update__objects_8c.html#a55824b184e553d99cbe9014f5e950ddc" target="_top" xlink:title=" ">
<polygon fill="white" stroke="#666666" points="1806.5,-200.44 1693.5,-200.44 1693.5,-181.44 1806.5,-181.44 1806.5,-200.44"/>
<text text-anchor="middle" x="1750" y="-188.44" font-family="Helvetica,sans-Serif" font-size="10.00">init_hot_air_balloon</text>
</a>
</g>
</g>
<!-- Node13&#45;&gt;Node14 -->
<g id="edge13_Node000013_Node000014" class="edge">
<title>Node13&#45;&gt;Node14</title>
<g id="a_edge13_Node000013_Node000014"><a xlink:title=" ">
<path fill="none" stroke="#63b8ff" d="M1839.19,-190.94C1828.39,-190.94 1817.25,-190.94 1806.68,-190.94"/>
<polygon fill="#63b8ff" stroke="#63b8ff" points="1839.41,-194.44 1849.41,-190.94 1839.41,-187.44 1839.41,-194.44"/>
</a>
</g>
</g>
<!-- Node13&#45;&gt;Node23 -->
<g id="edge26_Node000013_Node000023" class="edge">
<title>Node13&#45;&gt;Node23</title>
<g id="a_edge26_Node000013_Node000023"><a xlink:title=" ">
<path fill="none" stroke="#63b8ff" d="M1862.59,-171.43C1856.34,-168.31 1849.98,-165.08 1844,-161.94 1816.97,-147.76 1786.15,-130.25 1767.65,-119.6"/>
<polygon fill="#63b8ff" stroke="#63b8ff" points="1861.1,-174.6 1871.61,-175.9 1864.2,-168.32 1861.1,-174.6"/>
</a>
</g>
</g>
<!-- Node15 -->
<g id="Node000015" class="node">
<title>Node15</title>
<g id="a_Node000015"><a xlink:href="update__objects_8c.html#a3ca574297b43f7a7b8c467d5030271f2" target="_top" xlink:title=" ">
<polygon fill="white" stroke="#666666" points="1638.5,-200.44 1547.5,-200.44 1547.5,-181.44 1638.5,-181.44 1638.5,-200.44"/>
<text text-anchor="middle" x="1593" y="-188.44" font-family="Helvetica,sans-Serif" font-size="10.00">func_80085768</text>
</a>
</g>
</g>
<!-- Node14&#45;&gt;Node15 -->
<g id="edge14_Node000014_Node000015" class="edge">
<title>Node14&#45;&gt;Node15</title>
<g id="a_edge14_Node000014_Node000015"><a xlink:title=" ">
<path fill="none" stroke="#63b8ff" d="M1683.26,-190.94C1668.33,-190.94 1652.79,-190.94 1638.95,-190.94"/>
<polygon fill="#63b8ff" stroke="#63b8ff" points="1683.48,-194.44 1693.48,-190.94 1683.48,-187.44 1683.48,-194.44"/>
</a>
</g>
</g>
<!-- Node16 -->
<g id="Node000016" class="node">
<title>Node16</title>
<g id="a_Node000016"><a xlink:href="update__objects_8c.html#a922dd3cf5e4110721e0b199827413ade" target="_top" xlink:title=" ">
<polygon fill="white" stroke="#666666" points="1494,-200.44 1363,-200.44 1363,-181.44 1494,-181.44 1494,-200.44"/>
<text text-anchor="middle" x="1428.5" y="-188.44" font-family="Helvetica,sans-Serif" font-size="10.00">update_hot_air_balloon</text>
</a>
</g>
</g>
<!-- Node15&#45;&gt;Node16 -->
<g id="edge15_Node000015_Node000016" class="edge">
<title>Node15&#45;&gt;Node16</title>
<g id="a_edge15_Node000015_Node000016"><a xlink:title=" ">
<path fill="none" stroke="#63b8ff" d="M1536.93,-190.94C1523.22,-190.94 1508.39,-190.94 1494.26,-190.94"/>
<polygon fill="#63b8ff" stroke="#63b8ff" points="1537.17,-194.44 1547.17,-190.94 1537.17,-187.44 1537.17,-194.44"/>
</a>
</g>
</g>
<!-- Node17 -->
<g id="Node000017" class="node">
<title>Node17</title>
<g id="a_Node000017"><a xlink:href="code__80057C60_8c.html#a22c0f603a5c87f883a26284082d099f8" target="_top" xlink:title=" ">
<polygon fill="white" stroke="#666666" points="1327,-200.44 1241,-200.44 1241,-181.44 1327,-181.44 1327,-200.44"/>
<text text-anchor="middle" x="1284" y="-188.44" font-family="Helvetica,sans-Serif" font-size="10.00">update_object</text>
</a>
</g>
</g>
<!-- Node16&#45;&gt;Node17 -->
<g id="edge16_Node000016_Node000017" class="edge">
<title>Node16&#45;&gt;Node17</title>
<g id="a_edge16_Node000016_Node000017"><a xlink:title=" ">
<path fill="none" stroke="#63b8ff" d="M1352.7,-190.94C1344,-190.94 1335.36,-190.94 1327.32,-190.94"/>
<polygon fill="#63b8ff" stroke="#63b8ff" points="1352.92,-194.44 1362.92,-190.94 1352.92,-187.44 1352.92,-194.44"/>
</a>
</g>
</g>
<!-- Node18 -->
<g id="Node000018" class="node">
<title>Node18</title>
<g id="a_Node000018"><a xlink:href="code__80057C60_8c.html#a48f7fc1ba7acccec2d7b6e0a59f65dc5" target="_top" xlink:title=" ">
<polygon fill="white" stroke="#666666" points="1189.5,-205.44 1097.5,-205.44 1097.5,-186.44 1189.5,-186.44 1189.5,-205.44"/>
<text text-anchor="middle" x="1143.5" y="-193.44" font-family="Helvetica,sans-Serif" font-size="10.00">func_80059D00</text>
</a>
</g>
</g>
<!-- Node17&#45;&gt;Node18 -->
<g id="edge17_Node000017_Node000018" class="edge">
<title>Node17&#45;&gt;Node18</title>
<g id="a_edge17_Node000017_Node000018"><a xlink:title=" ">
<path fill="none" stroke="#63b8ff" d="M1230.65,-192.83C1217.25,-193.31 1202.94,-193.83 1189.92,-194.3"/>
<polygon fill="#63b8ff" stroke="#63b8ff" points="1230.83,-196.33 1240.69,-192.47 1230.57,-189.33 1230.83,-196.33"/>
</a>
</g>
</g>
<!-- Node19 -->
<g id="Node000019" class="node">
<title>Node19</title>
<g id="a_Node000019"><a xlink:href="code__80057C60_8c.html#a86b7dba9c0715c4d7fdf8ce61c0738bc" target="_top" xlink:title=" ">
<polygon fill="white" stroke="#666666" points="1038,-204.44 946,-204.44 946,-185.44 1038,-185.44 1038,-204.44"/>
<text text-anchor="middle" x="992" y="-192.44" font-family="Helvetica,sans-Serif" font-size="10.00">func_8005A070</text>
</a>
</g>
</g>
<!-- Node17&#45;&gt;Node19 -->
<g id="edge25_Node000017_Node000019" class="edge">
<title>Node17&#45;&gt;Node19</title>
<g id="a_edge25_Node000017_Node000019"><a xlink:title=" ">
<path fill="none" stroke="#63b8ff" d="M1230.74,-181.01C1222.17,-179.73 1213.36,-178.63 1205,-177.94 1150.52,-173.43 1136.42,-172.79 1082,-177.94 1066.18,-179.44 1048.99,-182.4 1033.98,-185.44"/>
<polygon fill="#63b8ff" stroke="#63b8ff" points="1230.23,-184.47 1240.65,-182.58 1231.32,-177.56 1230.23,-184.47"/>
</a>
</g>
</g>
<!-- Node18&#45;&gt;Node19 -->
<g id="edge18_Node000018_Node000019" class="edge">
<title>Node18&#45;&gt;Node19</title>
<g id="a_edge18_Node000018_Node000019"><a xlink:title=" ">
<path fill="none" stroke="#63b8ff" d="M1086.89,-195.57C1070.81,-195.46 1053.46,-195.34 1038.11,-195.24"/>
<polygon fill="#63b8ff" stroke="#63b8ff" points="1087.22,-199.07 1097.24,-195.64 1087.26,-192.07 1087.22,-199.07"/>
</a>
</g>
</g>
<!-- Node19&#45;&gt;Node7 -->
<g id="edge24_Node000019_Node000007" class="edge">
<title>Node19&#45;&gt;Node7</title>
<g id="a_edge24_Node000019_Node000007"><a xlink:title=" ">
<path fill="none" stroke="#63b8ff" d="M946.36,-207.27C928.61,-212.17 908.5,-217.72 891.86,-222.32"/>
<polygon fill="#63b8ff" stroke="#63b8ff" points="947.78,-210.5 956.49,-204.47 945.92,-203.76 947.78,-210.5"/>
</a>
</g>
</g>
<!-- Node20 -->
<g id="Node000020" class="node">
<title>Node20</title>
<g id="a_Node000020"><a xlink:href="code__80280000_8c.html#a4d9b0156b64d7a67e4cb21cde391ca43" target="_top" xlink:title=" ">
<polygon fill="white" stroke="#666666" points="901.5,-204.44 810.5,-204.44 810.5,-185.44 901.5,-185.44 901.5,-204.44"/>
<text text-anchor="middle" x="856" y="-192.44" font-family="Helvetica,sans-Serif" font-size="10.00">func_80280000</text>
</a>
</g>
</g>
<!-- Node19&#45;&gt;Node20 -->
<g id="edge19_Node000019_Node000020" class="edge">
<title>Node19&#45;&gt;Node20</title>
<g id="a_edge19_Node000019_Node000020"><a xlink:title=" ">
<path fill="none" stroke="#63b8ff" d="M935.5,-194.94C924.3,-194.94 912.65,-194.94 901.86,-194.94"/>
<polygon fill="#63b8ff" stroke="#63b8ff" points="935.63,-198.44 945.63,-194.94 935.63,-191.44 935.63,-198.44"/>
</a>
</g>
</g>
<!-- Node22 -->
<g id="Node000022" class="node">
<title>Node22</title>
<g id="a_Node000022"><a xlink:href="podium__ceremony__actors_8c.html#a7ea229c65f264670fc828b95e8321154" target="_top" xlink:title=" ">
<polygon fill="white" stroke="#666666" points="774,-166.44 640,-166.44 640,-147.44 774,-147.44 774,-166.44"/>
<text text-anchor="middle" x="707" y="-154.44" font-family="Helvetica,sans-Serif" font-size="10.00">podium_ceremony_loop</text>
</a>
</g>
</g>
<!-- Node19&#45;&gt;Node22 -->
<g id="edge22_Node000019_Node000022" class="edge">
<title>Node19&#45;&gt;Node22</title>
<g id="a_edge22_Node000019_Node000022"><a xlink:title=" ">
<path fill="none" stroke="#63b8ff" d="M938.34,-183.41C926.43,-181.05 913.81,-178.74 902,-176.94 859.66,-170.49 811.79,-165.53 774.2,-162.17"/>
<polygon fill="#63b8ff" stroke="#63b8ff" points="937.65,-186.84 948.14,-185.4 939.04,-179.98 937.65,-186.84"/>
</a>
</g>
</g>
<!-- Node21 -->
<g id="Node000021" class="node">
<title>Node21</title>
<g id="a_Node000021"><a xlink:href="code__80280000_8c.html#aa28a69be4eda3b8667366c6c7b556024" target="_top" xlink:title=" ">
<polygon fill="white" stroke="#666666" points="745,-203.44 669,-203.44 669,-184.44 745,-184.44 745,-203.44"/>
<text text-anchor="middle" x="707" y="-191.44" font-family="Helvetica,sans-Serif" font-size="10.00">credits_loop</text>
</a>
</g>
</g>
<!-- Node20&#45;&gt;Node21 -->
<g id="edge20_Node000020_Node000021" class="edge">
<title>Node20&#45;&gt;Node21</title>
<g id="a_edge20_Node000020_Node000021"><a xlink:title=" ">
<path fill="none" stroke="#63b8ff" d="M800.26,-194.57C781.99,-194.44 762.06,-194.31 745.42,-194.19"/>
<polygon fill="#63b8ff" stroke="#63b8ff" points="800.47,-198.07 810.5,-194.64 800.52,-191.07 800.47,-198.07"/>
</a>
</g>
</g>
<!-- Node21&#45;&gt;Node8 -->
<g id="edge21_Node000021_Node000008" class="edge">
<title>Node21&#45;&gt;Node8</title>
<g id="a_edge21_Node000021_Node000008"><a xlink:title=" ">
<path fill="none" stroke="#63b8ff" d="M658.46,-188.26C641.42,-186.22 622.05,-183.91 604.28,-181.78"/>
<polygon fill="#63b8ff" stroke="#63b8ff" points="658.38,-191.77 668.72,-189.49 659.21,-184.82 658.38,-191.77"/>
</a>
</g>
</g>
<!-- Node22&#45;&gt;Node8 -->
<g id="edge23_Node000022_Node000008" class="edge">
<title>Node22&#45;&gt;Node8</title>
<g id="a_edge23_Node000022_Node000008"><a xlink:title=" ">
<path fill="none" stroke="#63b8ff" d="M629.87,-165.56C621.24,-166.54 612.56,-167.52 604.24,-168.46"/>
<polygon fill="#63b8ff" stroke="#63b8ff" points="630.41,-169.02 639.95,-164.42 629.62,-162.06 630.41,-169.02"/>
</a>
</g>
</g>
<!-- Node24 -->
<g id="Node000024" class="node">
<title>Node24</title>
<g id="a_Node000024"><a xlink:href="actors_8c.html#a8ed0774c05b9577fcf2db1dd958941b1" target="_top" xlink:title=" ">
<polygon fill="white" stroke="#666666" points="1656,-119.44 1530,-119.44 1530,-100.44 1656,-100.44 1656,-119.44"/>
<text text-anchor="middle" x="1593" y="-107.44" font-family="Helvetica,sans-Serif" font-size="10.00">load_common_texture</text>
</a>
</g>
</g>
<!-- Node23&#45;&gt;Node24 -->
<g id="edge27_Node000023_Node000024" class="edge">
<title>Node23&#45;&gt;Node24</title>
<g id="a_edge27_Node000023_Node000024"><a xlink:title=" ">
<path fill="none" stroke="#63b8ff" d="M1681.57,-109.94C1673.16,-109.94 1664.58,-109.94 1656.25,-109.94"/>
<polygon fill="#63b8ff" stroke="#63b8ff" points="1681.72,-113.44 1691.72,-109.94 1681.72,-106.44 1681.72,-113.44"/>
</a>
</g>
</g>
<!-- Node25 -->
<g id="Node000025" class="node">
<title>Node25</title>
<g id="a_Node000025"><a xlink:href="code__800029B0_8c.html#aca6165112fc92e65ad6477e785a7098c" target="_top" xlink:title=" ">
<polygon fill="white" stroke="#666666" points="1463.5,-124.44 1393.5,-124.44 1393.5,-105.44 1463.5,-105.44 1463.5,-124.44"/>
<text text-anchor="middle" x="1428.5" y="-112.44" font-family="Helvetica,sans-Serif" font-size="10.00">setup_race</text>
</a>
</g>
</g>
<!-- Node24&#45;&gt;Node25 -->
<g id="edge28_Node000024_Node000025" class="edge">
<title>Node24&#45;&gt;Node25</title>
<g id="a_edge28_Node000024_Node000025"><a xlink:title=" ">
<path fill="none" stroke="#63b8ff" d="M1519.56,-112.17C1500.14,-112.77 1480.03,-113.39 1463.75,-113.89"/>
<polygon fill="#63b8ff" stroke="#63b8ff" points="1519.75,-115.67 1529.64,-111.86 1519.54,-108.67 1519.75,-115.67"/>
</a>
</g>
</g>
<!-- Node26 -->
<g id="Node000026" class="node">
<title>Node26</title>
<g id="a_Node000026"><a xlink:href="main_8c.html#ad0625ed56ac663d3ec7ae8f1ba50c735" target="_top" xlink:title=" ">
<polygon fill="white" stroke="#666666" points="1046,-127.44 938,-127.44 938,-108.44 1046,-108.44 1046,-127.44"/>
<text text-anchor="middle" x="992" y="-115.44" font-family="Helvetica,sans-Serif" font-size="10.00">update_gamestate</text>
</a>
</g>
</g>
<!-- Node25&#45;&gt;Node26 -->
<g id="edge29_Node000025_Node000026" class="edge">
<title>Node25&#45;&gt;Node26</title>
<g id="a_edge29_Node000025_Node000026"><a xlink:title=" ">
<path fill="none" stroke="#63b8ff" d="M1383.11,-115.25C1302.56,-115.8 1132.65,-116.98 1046.1,-117.57"/>
<polygon fill="#63b8ff" stroke="#63b8ff" points="1383.43,-118.74 1393.41,-115.18 1383.38,-111.74 1383.43,-118.74"/>
</a>
</g>
</g>
<!-- Node26&#45;&gt;Node9 -->
<g id="edge30_Node000026_Node000009" class="edge">
<title>Node26&#45;&gt;Node9</title>
<g id="a_edge30_Node000026_Node000009"><a xlink:title=" ">
<path fill="none" stroke="#63b8ff" d="M927.77,-120.07C810.9,-124 562.96,-132.34 452.09,-136.07"/>
<polygon fill="#63b8ff" stroke="#63b8ff" points="928.1,-123.56 937.98,-119.72 927.87,-116.56 928.1,-123.56"/>
</a>
</g>
</g>
<!-- Node27&#45;&gt;Node24 -->
<g id="edge32_Node000027_Node000024" class="edge">
<title>Node27&#45;&gt;Node24</title>
<g id="a_edge32_Node000027_Node000024"><a xlink:title=" ">
<path fill="none" stroke="#63b8ff" d="M1719.7,-49.93C1688.91,-64.63 1641.28,-87.37 1614.36,-100.22"/>
<polygon fill="#63b8ff" stroke="#63b8ff" points="1721.54,-52.93 1729.05,-45.46 1718.52,-46.61 1721.54,-52.93"/>
</a>
</g>
</g>
<!-- Node28&#45;&gt;Node23 -->
<g id="edge35_Node000028_Node000023" class="edge">
<title>Node28&#45;&gt;Node23</title>
<g id="a_edge35_Node000028_Node000023"><a xlink:title=" ">
<path fill="none" stroke="#63b8ff" d="M1838.91,-109.94C1828.71,-109.94 1818.22,-109.94 1808.19,-109.94"/>
<polygon fill="#63b8ff" stroke="#63b8ff" points="1838.98,-113.44 1848.98,-109.94 1838.98,-106.44 1838.98,-113.44"/>
</a>
</g>
</g>
<!-- Node29&#45;&gt;Node23 -->
<g id="edge37_Node000029_Node000023" class="edge">
<title>Node29&#45;&gt;Node23</title>
<g id="a_edge37_Node000029_Node000023"><a xlink:title=" ">
<path fill="none" stroke="#63b8ff" d="M1854.01,-84.87C1833.39,-89.88 1809.72,-95.65 1790.28,-100.38"/>
<polygon fill="#63b8ff" stroke="#63b8ff" points="1854.97,-88.23 1863.86,-82.47 1853.31,-81.43 1854.97,-88.23"/>
</a>
</g>
</g>
<!-- Node30&#45;&gt;Node23 -->
<g id="edge39_Node000030_Node000023" class="edge">
<title>Node30&#45;&gt;Node23</title>
<g id="a_edge39_Node000030_Node000023"><a xlink:title=" ">
<path fill="none" stroke="#63b8ff" d="M1859.01,-48.9C1853.89,-50.77 1848.78,-52.79 1844,-54.94 1814.58,-68.18 1782.71,-88.46 1764.96,-100.34"/>
<polygon fill="#63b8ff" stroke="#63b8ff" points="1860.5,-52.09 1868.82,-45.52 1858.22,-45.47 1860.5,-52.09"/>
</a>
</g>
</g>
</g>
</svg>
