<?xml version="1.0" encoding="UTF-8" standalone="no"?>
<!DOCTYPE svg PUBLIC "-//W3C//DTD SVG 1.1//EN"
 "http://www.w3.org/Graphics/SVG/1.1/DTD/svg11.dtd">
<!-- Generated by graphviz version 2.43.0 (0)
 -->
<!-- Title: dma_textures Pages: 1 -->
<svg width="1190pt" height="158pt"
 viewBox="0.00 0.00 1190.00 158.00" xmlns="http://www.w3.org/2000/svg" xmlns:xlink="http://www.w3.org/1999/xlink">
<g id="graph0" class="graph" transform="scale(1 1) rotate(0) translate(4 154)">
<title>dma_textures</title>
<!-- Node1 -->
<g id="Node000001" class="node">
<title>Node1</title>
<g id="a_Node000001"><a xlink:title=" ">
<polygon fill="#999999" stroke="#666666" points="1182,-76 1098,-76 1098,-57 1182,-57 1182,-76"/>
<text text-anchor="middle" x="1140" y="-64" font-family="Helvetica,sans-Serif" font-size="10.00">dma_textures</text>
</a>
</g>
</g>
<!-- Node2 -->
<g id="Node000002" class="node">
<title>Node2</title>
<g id="a_Node000002"><a xlink:href="code__800029B0_8c.html#aed19d831d4870c51cb5be8739574abbe" target="_top" xlink:title=" ">
<polygon fill="white" stroke="#666666" points="1061.5,-150 970.5,-150 970.5,-131 1061.5,-131 1061.5,-150"/>
<text text-anchor="middle" x="1016" y="-138" font-family="Helvetica,sans-Serif" font-size="10.00">func_80003040</text>
</a>
</g>
</g>
<!-- Node1&#45;&gt;Node2 -->
<g id="edge1_Node000001_Node000002" class="edge">
<title>Node1&#45;&gt;Node2</title>
<g id="a_edge1_Node000001_Node000002"><a xlink:title=" ">
<path fill="none" stroke="#63b8ff" d="M1119.58,-82.72C1104.53,-94.76 1082.8,-111.01 1062,-122.5 1056.4,-125.59 1050.16,-128.43 1044.15,-130.9"/>
<polygon fill="#63b8ff" stroke="#63b8ff" points="1122.06,-85.22 1127.61,-76.19 1117.64,-79.79 1122.06,-85.22"/>
</a>
</g>
</g>
<!-- Node9 -->
<g id="Node000009" class="node">
<title>Node9</title>
<g id="a_Node000009"><a xlink:href="code__80057C60_8c.html#a07b43c07e7afcf3fcccf63622bb991e1" target="_top" xlink:title=" ">
<polygon fill="white" stroke="#666666" points="1062,-113 970,-113 970,-94 1062,-94 1062,-113"/>
<text text-anchor="middle" x="1016" y="-101" font-family="Helvetica,sans-Serif" font-size="10.00">func_8005D290</text>
</a>
</g>
</g>
<!-- Node1&#45;&gt;Node9 -->
<g id="edge8_Node000001_Node000009" class="edge">
<title>Node1&#45;&gt;Node9</title>
<g id="a_edge8_Node000001_Node000009"><a xlink:title=" ">
<path fill="none" stroke="#63b8ff" d="M1097.9,-78.96C1081.86,-83.83 1063.75,-89.32 1048.74,-93.88"/>
<polygon fill="#63b8ff" stroke="#63b8ff" points="1099.03,-82.28 1107.58,-76.03 1097,-75.58 1099.03,-82.28"/>
</a>
</g>
</g>
<!-- Node13 -->
<g id="Node000013" class="node">
<title>Node13</title>
<g id="a_Node000013"><a xlink:href="code__8006E9C0_8c.html#ac35f9951d9cd04d4e9bf188746bc9c58" target="_top" xlink:title=" ">
<polygon fill="white" stroke="#666666" points="1061.5,-76 970.5,-76 970.5,-57 1061.5,-57 1061.5,-76"/>
<text text-anchor="middle" x="1016" y="-64" font-family="Helvetica,sans-Serif" font-size="10.00">func_8006EEE8</text>
</a>
</g>
</g>
<!-- Node1&#45;&gt;Node13 -->
<g id="edge14_Node000001_Node000013" class="edge">
<title>Node1&#45;&gt;Node13</title>
<g id="a_edge14_Node000001_Node000013"><a xlink:title=" ">
<path fill="none" stroke="#63b8ff" d="M1087.69,-66.5C1079.02,-66.5 1070.08,-66.5 1061.61,-66.5"/>
<polygon fill="#63b8ff" stroke="#63b8ff" points="1087.7,-70 1097.7,-66.5 1087.7,-63 1087.7,-70"/>
</a>
</g>
</g>
<!-- Node14 -->
<g id="Node000014" class="node">
<title>Node14</title>
<g id="a_Node000014"><a xlink:href="code__8006E9C0_8c.html#addcb705e0abe102e25517666b6a1eb84" target="_top" xlink:title=" ">
<polygon fill="white" stroke="#666666" points="916.5,-56 825.5,-56 825.5,-37 916.5,-37 916.5,-56"/>
<text text-anchor="middle" x="871" y="-44" font-family="Helvetica,sans-Serif" font-size="10.00">func_8006F008</text>
</a>
</g>
</g>
<!-- Node1&#45;&gt;Node14 -->
<g id="edge16_Node000001_Node000014" class="edge">
<title>Node1&#45;&gt;Node14</title>
<g id="a_edge16_Node000001_Node000014"><a xlink:title=" ">
<path fill="none" stroke="#63b8ff" d="M1095.79,-54.65C1084.85,-52.13 1073.06,-49.83 1062,-48.5 1012.55,-42.53 955.33,-42.91 916.71,-44.22"/>
<polygon fill="#63b8ff" stroke="#63b8ff" points="1095.01,-58.06 1105.55,-57 1096.65,-51.25 1095.01,-58.06"/>
</a>
</g>
</g>
<!-- Node15 -->
<g id="Node000015" class="node">
<title>Node15</title>
<g id="a_Node000015"><a xlink:href="actors_8c.html#a8ed0774c05b9577fcf2db1dd958941b1" target="_top" xlink:title=" ">
<polygon fill="white" stroke="#666666" points="934,-19 808,-19 808,0 934,0 934,-19"/>
<text text-anchor="middle" x="871" y="-7" font-family="Helvetica,sans-Serif" font-size="10.00">load_common_texture</text>
</a>
</g>
</g>
<!-- Node1&#45;&gt;Node15 -->
<g id="edge17_Node000001_Node000015" class="edge">
<title>Node1&#45;&gt;Node15</title>
<g id="a_edge17_Node000001_Node000015"><a xlink:title=" ">
<path fill="none" stroke="#63b8ff" d="M1107.01,-53.26C1093.34,-48.03 1077.08,-42.35 1062,-38.5 1019.97,-27.76 971.63,-20.45 934.23,-15.86"/>
<polygon fill="#63b8ff" stroke="#63b8ff" points="1105.87,-56.58 1116.46,-56.97 1108.43,-50.06 1105.87,-56.58"/>
</a>
</g>
</g>
<!-- Node3 -->
<g id="Node000003" class="node">
<title>Node3</title>
<g id="a_Node000003"><a xlink:href="code__80280000_8c.html#a9a346a82a8367a41c07f51e012e4cd92" target="_top" xlink:title=" ">
<polygon fill="white" stroke="#666666" points="740,-149 664,-149 664,-130 740,-130 740,-149"/>
<text text-anchor="middle" x="702" y="-137" font-family="Helvetica,sans-Serif" font-size="10.00">load_credits</text>
</a>
</g>
</g>
<!-- Node2&#45;&gt;Node3 -->
<g id="edge2_Node000002_Node000003" class="edge">
<title>Node2&#45;&gt;Node3</title>
<g id="a_edge2_Node000002_Node000003"><a xlink:title=" ">
<path fill="none" stroke="#63b8ff" d="M960.12,-140.32C896.95,-140.12 794.9,-139.79 740.29,-139.62"/>
<polygon fill="#63b8ff" stroke="#63b8ff" points="960.29,-143.82 970.3,-140.36 960.31,-136.82 960.29,-143.82"/>
</a>
</g>
</g>
<!-- Node4 -->
<g id="Node000004" class="node">
<title>Node4</title>
<g id="a_Node000004"><a xlink:href="main_8c.html#ad0625ed56ac663d3ec7ae8f1ba50c735" target="_top" xlink:title=" ">
<polygon fill="white" stroke="#666666" points="596,-112 488,-112 488,-93 596,-93 596,-112"/>
<text text-anchor="middle" x="542" y="-100" font-family="Helvetica,sans-Serif" font-size="10.00">update_gamestate</text>
</a>
</g>
</g>
<!-- Node3&#45;&gt;Node4 -->
<g id="edge3_Node000003_Node000004" class="edge">
<title>Node3&#45;&gt;Node4</title>
<g id="a_edge3_Node000003_Node000004"><a xlink:title=" ">
<path fill="none" stroke="#63b8ff" d="M654.01,-128.5C631.65,-123.26 605.18,-117.06 583.7,-112.03"/>
<polygon fill="#63b8ff" stroke="#63b8ff" points="653.42,-131.95 663.96,-130.83 655.02,-125.14 653.42,-131.95"/>
</a>
</g>
</g>
<!-- Node5 -->
<g id="Node000005" class="node">
<title>Node5</title>
<g id="a_Node000005"><a xlink:href="main_8c.html#a633ed517e458daeb768f5361895dcac9" target="_top" xlink:title=" ">
<polygon fill="white" stroke="#666666" points="452,-112 339,-112 339,-93 452,-93 452,-112"/>
<text text-anchor="middle" x="395.5" y="-100" font-family="Helvetica,sans-Serif" font-size="10.00">thread5_game_loop</text>
</a>
</g>
</g>
<!-- Node4&#45;&gt;Node5 -->
<g id="edge4_Node000004_Node000005" class="edge">
<title>Node4&#45;&gt;Node5</title>
<g id="a_edge4_Node000004_Node000005"><a xlink:title=" ">
<path fill="none" stroke="#63b8ff" d="M477.42,-102.5C468.98,-102.5 460.39,-102.5 452.1,-102.5"/>
<polygon fill="#63b8ff" stroke="#63b8ff" points="477.6,-106 487.6,-102.5 477.6,-99 477.6,-106"/>
</a>
</g>
</g>
<!-- Node6 -->
<g id="Node000006" class="node">
<title>Node6</title>
<g id="a_Node000006"><a xlink:href="main_8c.html#a023b8f272e4efbd33f371e91ffff6b30" target="_top" xlink:title=" ">
<polygon fill="white" stroke="#666666" points="303,-112 217,-112 217,-93 303,-93 303,-112"/>
<text text-anchor="middle" x="260" y="-100" font-family="Helvetica,sans-Serif" font-size="10.00">thread3_video</text>
</a>
</g>
</g>
<!-- Node5&#45;&gt;Node6 -->
<g id="edge5_Node000005_Node000006" class="edge">
<title>Node5&#45;&gt;Node6</title>
<g id="a_edge5_Node000005_Node000006"><a xlink:title=" ">
<path fill="none" stroke="#63b8ff" d="M328.57,-102.5C319.94,-102.5 311.3,-102.5 303.21,-102.5"/>
<polygon fill="#63b8ff" stroke="#63b8ff" points="328.66,-106 338.66,-102.5 328.66,-99 328.66,-106"/>
</a>
</g>
</g>
<!-- Node7 -->
<g id="Node000007" class="node">
<title>Node7</title>
<g id="a_Node000007"><a xlink:href="main_8c.html#a1e35d2b842121e6aea373f09381616e5" target="_top" xlink:title=" ">
<polygon fill="white" stroke="#666666" points="181,-112 104,-112 104,-93 181,-93 181,-112"/>
<text text-anchor="middle" x="142.5" y="-100" font-family="Helvetica,sans-Serif" font-size="10.00">thread1_idle</text>
</a>
</g>
</g>
<!-- Node6&#45;&gt;Node7 -->
<g id="edge6_Node000006_Node000007" class="edge">
<title>Node6&#45;&gt;Node7</title>
<g id="a_edge6_Node000006_Node000007"><a xlink:title=" ">
<path fill="none" stroke="#63b8ff" d="M206.9,-102.5C198.2,-102.5 189.33,-102.5 181.09,-102.5"/>
<polygon fill="#63b8ff" stroke="#63b8ff" points="206.98,-106 216.98,-102.5 206.98,-99 206.98,-106"/>
</a>
</g>
</g>
<!-- Node8 -->
<g id="Node000008" class="node">
<title>Node8</title>
<g id="a_Node000008"><a xlink:href="main_8c.html#a4f87d43525fe95f60ea92bc8a3b70e62" target="_top" xlink:title=" ">
<polygon fill="white" stroke="#666666" points="68,-112 0,-112 0,-93 68,-93 68,-112"/>
<text text-anchor="middle" x="34" y="-100" font-family="Helvetica,sans-Serif" font-size="10.00">main_func</text>
</a>
</g>
</g>
<!-- Node7&#45;&gt;Node8 -->
<g id="edge7_Node000007_Node000008" class="edge">
<title>Node7&#45;&gt;Node8</title>
<g id="a_edge7_Node000007_Node000008"><a xlink:title=" ">
<path fill="none" stroke="#63b8ff" d="M93.95,-102.5C85.29,-102.5 76.44,-102.5 68.31,-102.5"/>
<polygon fill="#63b8ff" stroke="#63b8ff" points="93.95,-106 103.95,-102.5 93.95,-99 93.95,-106"/>
</a>
</g>
</g>
<!-- Node10 -->
<g id="Node000010" class="node">
<title>Node10</title>
<g id="a_Node000010"><a xlink:href="spawn__players_8c.html#ac1a9412b931cfa517a2382c2fc605399" target="_top" xlink:title=" ">
<polygon fill="white" stroke="#666666" points="917,-112 825,-112 825,-93 917,-93 917,-112"/>
<text text-anchor="middle" x="871" y="-100" font-family="Helvetica,sans-Serif" font-size="10.00">func_8003D080</text>
</a>
</g>
</g>
<!-- Node9&#45;&gt;Node10 -->
<g id="edge9_Node000009_Node000010" class="edge">
<title>Node9&#45;&gt;Node10</title>
<g id="a_edge9_Node000009_Node000010"><a xlink:title=" ">
<path fill="none" stroke="#63b8ff" d="M959.75,-103.11C945.76,-103.02 930.89,-102.91 917.44,-102.82"/>
<polygon fill="#63b8ff" stroke="#63b8ff" points="959.73,-106.61 969.75,-103.18 959.78,-99.61 959.73,-106.61"/>
</a>
</g>
</g>
<!-- Node11 -->
<g id="Node000011" class="node">
<title>Node11</title>
<g id="a_Node000011"><a xlink:href="code__80281780_8c.html#af227cfd0f1fd3d6adbe9a29ad59b4dc8" target="_top" xlink:title=" ">
<polygon fill="white" stroke="#666666" points="772,-112 632,-112 632,-93 772,-93 772,-112"/>
<text text-anchor="middle" x="702" y="-100" font-family="Helvetica,sans-Serif" font-size="10.00">load_ceremony_cutscene</text>
</a>
</g>
</g>
<!-- Node10&#45;&gt;Node11 -->
<g id="edge10_Node000010_Node000011" class="edge">
<title>Node10&#45;&gt;Node11</title>
<g id="a_edge10_Node000010_Node000011"><a xlink:title=" ">
<path fill="none" stroke="#63b8ff" d="M814.64,-102.5C801.02,-102.5 786.27,-102.5 772.09,-102.5"/>
<polygon fill="#63b8ff" stroke="#63b8ff" points="814.81,-106 824.81,-102.5 814.81,-99 814.81,-106"/>
</a>
</g>
</g>
<!-- Node12 -->
<g id="Node000012" class="node">
<title>Node12</title>
<g id="a_Node000012"><a xlink:href="code__800029B0_8c.html#aca6165112fc92e65ad6477e785a7098c" target="_top" xlink:title=" ">
<polygon fill="white" stroke="#666666" points="737,-75 667,-75 667,-56 737,-56 737,-75"/>
<text text-anchor="middle" x="702" y="-63" font-family="Helvetica,sans-Serif" font-size="10.00">setup_race</text>
</a>
</g>
</g>
<!-- Node10&#45;&gt;Node12 -->
<g id="edge12_Node000010_Node000012" class="edge">
<title>Node10&#45;&gt;Node12</title>
<g id="a_edge12_Node000010_Node000012"><a xlink:title=" ">
<path fill="none" stroke="#63b8ff" d="M817.22,-90.81C791.06,-85.01 760.22,-78.18 737.18,-73.07"/>
<polygon fill="#63b8ff" stroke="#63b8ff" points="816.47,-94.23 826.99,-92.97 817.99,-87.39 816.47,-94.23"/>
</a>
</g>
</g>
<!-- Node11&#45;&gt;Node4 -->
<g id="edge11_Node000011_Node000004" class="edge">
<title>Node11&#45;&gt;Node4</title>
<g id="a_edge11_Node000011_Node000004"><a xlink:title=" ">
<path fill="none" stroke="#63b8ff" d="M621.58,-102.5C612.94,-102.5 604.31,-102.5 596.09,-102.5"/>
<polygon fill="#63b8ff" stroke="#63b8ff" points="621.7,-106 631.7,-102.5 621.7,-99 621.7,-106"/>
</a>
</g>
</g>
<!-- Node12&#45;&gt;Node4 -->
<g id="edge13_Node000012_Node000004" class="edge">
<title>Node12&#45;&gt;Node4</title>
<g id="a_edge13_Node000012_Node000004"><a xlink:title=" ">
<path fill="none" stroke="#63b8ff" d="M656.88,-75.83C633.94,-81.2 606.07,-87.73 583.65,-92.98"/>
<polygon fill="#63b8ff" stroke="#63b8ff" points="657.78,-79.22 666.72,-73.53 656.18,-72.4 657.78,-79.22"/>
</a>
</g>
</g>
<!-- Node13&#45;&gt;Node14 -->
<g id="edge15_Node000013_Node000014" class="edge">
<title>Node13&#45;&gt;Node14</title>
<g id="a_edge15_Node000013_Node000014"><a xlink:title=" ">
<path fill="none" stroke="#63b8ff" d="M959.93,-58.8C945.62,-56.8 930.39,-54.67 916.69,-52.75"/>
<polygon fill="#63b8ff" stroke="#63b8ff" points="959.76,-62.31 970.15,-60.23 960.73,-55.38 959.76,-62.31"/>
</a>
</g>
</g>
<!-- Node15&#45;&gt;Node12 -->
<g id="edge18_Node000015_Node000012" class="edge">
<title>Node15&#45;&gt;Node12</title>
<g id="a_edge18_Node000015_Node000012"><a xlink:title=" ">
<path fill="none" stroke="#63b8ff" d="M828.28,-22.02C821.49,-24.14 814.54,-26.35 808,-28.5 781.01,-37.39 750.4,-48.27 729.22,-55.92"/>
<polygon fill="#63b8ff" stroke="#63b8ff" points="829.53,-25.3 838.06,-19.01 827.47,-18.61 829.53,-25.3"/>
</a>
</g>
</g>
</g>
</svg>
