<?xml version="1.0" encoding="UTF-8" standalone="no"?>
<!DOCTYPE svg PUBLIC "-//W3C//DTD SVG 1.1//EN"
 "http://www.w3.org/Graphics/SVG/1.1/DTD/svg11.dtd">
<!-- Generated by graphviz version 2.43.0 (0)
 -->
<!-- Title: osPiStartDma Pages: 1 -->
<svg width="629pt" height="1176pt"
 viewBox="0.00 0.00 629.00 1176.00" xmlns="http://www.w3.org/2000/svg" xmlns:xlink="http://www.w3.org/1999/xlink">
<g id="graph0" class="graph" transform="scale(1 1) rotate(0) translate(4 1172)">
<title>osPiStartDma</title>
<!-- Node1 -->
<g id="Node000001" class="node">
<title>Node1</title>
<g id="a_Node000001"><a xlink:title=" ">
<polygon fill="#999999" stroke="#666666" points="621,-389 538,-389 538,-370 621,-370 621,-389"/>
<text text-anchor="middle" x="579.5" y="-377" font-family="Helvetica,sans-Serif" font-size="10.00">osPiStartDma</text>
</a>
</g>
</g>
<!-- Node2 -->
<g id="Node000002" class="node">
<title>Node2</title>
<g id="a_Node000002"><a xlink:href="load_8c.html#a5f475204592707b7fb57147de74f1350" target="_top" xlink:title=" ">
<polygon fill="white" stroke="#666666" points="489.5,-1131 356.5,-1131 356.5,-1112 489.5,-1112 489.5,-1131"/>
<text text-anchor="middle" x="423" y="-1119" font-family="Helvetica,sans-Serif" font-size="10.00">audio_dma_copy_async</text>
</a>
</g>
</g>
<!-- Node1&#45;&gt;Node2 -->
<g id="edge1_Node000001_Node000002" class="edge">
<title>Node1&#45;&gt;Node2</title>
<g id="a_edge1_Node000001_Node000002"><a xlink:title=" ">
<path fill="none" stroke="#63b8ff" d="M578.45,-399.42C577.85,-499.72 571.3,-949.23 502,-1066.5 489.44,-1087.75 465.08,-1102.9 446.91,-1111.85"/>
<polygon fill="#63b8ff" stroke="#63b8ff" points="581.95,-399.21 578.49,-389.19 574.95,-399.18 581.95,-399.21"/>
</a>
</g>
</g>
<!-- Node13 -->
<g id="Node000013" class="node">
<title>Node13</title>
<g id="a_Node000013"><a xlink:href="load_8c.html#a7512c5eea1c942521c019a033b962fd1" target="_top" xlink:title=" ">
<polygon fill="white" stroke="#666666" points="502,-1057 344,-1057 344,-1038 502,-1038 502,-1057"/>
<text text-anchor="middle" x="423" y="-1045" font-family="Helvetica,sans-Serif" font-size="10.00">audio_dma_copy_immediate</text>
</a>
</g>
</g>
<!-- Node1&#45;&gt;Node13 -->
<g id="edge3_Node000001_Node000013" class="edge">
<title>Node1&#45;&gt;Node13</title>
<g id="a_edge3_Node000001_Node000013"><a xlink:title=" ">
<path fill="none" stroke="#63b8ff" d="M578.48,-399.32C577.84,-471.22 570.56,-724.2 502,-917.5 484.67,-966.37 447.82,-1017.01 431.76,-1037.75"/>
<polygon fill="#63b8ff" stroke="#63b8ff" points="581.98,-399.06 578.54,-389.04 574.98,-399.02 581.98,-399.06"/>
</a>
</g>
</g>
<!-- Node27 -->
<g id="Node000027" class="node">
<title>Node27</title>
<g id="a_Node000027"><a xlink:href="load_8c.html#a126f56cab34b7b9a73ab2c42dc3c23e8" target="_top" xlink:title=" ">
<polygon fill="white" stroke="#666666" points="491,-908.5 355,-908.5 355,-878.5 491,-878.5 491,-908.5"/>
<text text-anchor="start" x="363" y="-896.5" font-family="Helvetica,sans-Serif" font-size="10.00">audio_dma_partial_copy</text>
<text text-anchor="middle" x="423" y="-885.5" font-family="Helvetica,sans-Serif" font-size="10.00">_async</text>
</a>
</g>
</g>
<!-- Node1&#45;&gt;Node27 -->
<g id="edge10_Node000001_Node000027" class="edge">
<title>Node1&#45;&gt;Node27</title>
<g id="a_edge10_Node000001_Node000027"><a xlink:title=" ">
<path fill="none" stroke="#63b8ff" d="M577.12,-399.19C572.51,-457.4 554.86,-633.01 502,-767.5 485.06,-810.6 453.38,-855.38 436.06,-878.17"/>
<polygon fill="#63b8ff" stroke="#63b8ff" points="580.61,-399.4 577.87,-389.16 573.63,-398.87 580.61,-399.4"/>
</a>
</g>
</g>
<!-- Node29 -->
<g id="Node000029" class="node">
<title>Node29</title>
<g id="a_Node000029"><a xlink:href="main_8c.html#ae65702968508faa083fb901ff89020d8" target="_top" xlink:title=" ">
<polygon fill="white" stroke="#666666" points="456.5,-758 389.5,-758 389.5,-739 456.5,-739 456.5,-758"/>
<text text-anchor="middle" x="423" y="-746" font-family="Helvetica,sans-Serif" font-size="10.00">dma_copy</text>
</a>
</g>
</g>
<!-- Node1&#45;&gt;Node29 -->
<g id="edge13_Node000001_Node000029" class="edge">
<title>Node1&#45;&gt;Node29</title>
<g id="a_edge13_Node000001_Node000029"><a xlink:title=" ">
<path fill="none" stroke="#63b8ff" d="M576.65,-399.09C571.4,-447.38 553.31,-574.86 502,-666.5 484.91,-697.02 453.88,-724.74 436.55,-738.8"/>
<polygon fill="#63b8ff" stroke="#63b8ff" points="580.14,-399.36 577.68,-389.06 573.18,-398.65 580.14,-399.36"/>
</a>
</g>
</g>
<!-- Node46 -->
<g id="Node000046" class="node">
<title>Node46</title>
<g id="a_Node000046"><a xlink:href="main_8c.html#a8cd2befe9b7f9490d32bf787a7e8d44f" target="_top" xlink:title=" ">
<polygon fill="#fff0f0" stroke="red" points="123,-700 0,-700 0,-681 123,-681 123,-700"/>
<text text-anchor="middle" x="61.5" y="-688" font-family="Helvetica,sans-Serif" font-size="10.00">setup_game_memory</text>
</a>
</g>
</g>
<!-- Node1&#45;&gt;Node46 -->
<g id="edge53_Node000001_Node000046" class="edge">
<title>Node1&#45;&gt;Node46</title>
<g id="a_edge53_Node000001_Node000046"><a xlink:title=" ">
<path fill="none" stroke="#63b8ff" d="M577.36,-399.21C573.83,-440.96 559.53,-538.67 502,-589.5 487.11,-602.65 219.48,-658.46 109.3,-681"/>
<polygon fill="#63b8ff" stroke="#63b8ff" points="580.85,-399.44 578.08,-389.21 573.87,-398.94 580.85,-399.44"/>
</a>
</g>
</g>
<!-- Node48 -->
<g id="Node000048" class="node">
<title>Node48</title>
<g id="a_Node000048"><a xlink:href="code__80091750_8c.html#a52ee4b4555f295e2e45eaa852db8ece7" target="_top" xlink:title=" ">
<polygon fill="white" stroke="#666666" points="491.5,-580 354.5,-580 354.5,-561 491.5,-561 491.5,-580"/>
<text text-anchor="middle" x="423" y="-568" font-family="Helvetica,sans-Serif" font-size="10.00">dma_copy_base_729a30</text>
</a>
</g>
</g>
<!-- Node1&#45;&gt;Node48 -->
<g id="edge21_Node000001_Node000048" class="edge">
<title>Node1&#45;&gt;Node48</title>
<g id="a_edge21_Node000001_Node000048"><a xlink:title=" ">
<path fill="none" stroke="#63b8ff" d="M575.59,-399.4C569.2,-435.67 550.43,-512.48 502,-552.5 497.93,-555.86 493.35,-558.63 488.5,-560.89"/>
<polygon fill="#63b8ff" stroke="#63b8ff" points="579.11,-399.58 577.25,-389.14 572.2,-398.46 579.11,-399.58"/>
</a>
</g>
</g>
<!-- Node49 -->
<g id="Node000049" class="node">
<title>Node49</title>
<g id="a_Node000049"><a xlink:href="code__80091750_8c.html#a8ed2c8990531f256c23e002e63f07265" target="_top" xlink:title=" ">
<polygon fill="white" stroke="#666666" points="490,-543 356,-543 356,-524 490,-524 490,-543"/>
<text text-anchor="middle" x="423" y="-531" font-family="Helvetica,sans-Serif" font-size="10.00">dma_copy_base_7fa3c0</text>
</a>
</g>
</g>
<!-- Node1&#45;&gt;Node49 -->
<g id="edge22_Node000001_Node000049" class="edge">
<title>Node1&#45;&gt;Node49</title>
<g id="a_edge22_Node000001_Node000049"><a xlink:title=" ">
<path fill="none" stroke="#63b8ff" d="M573.14,-398.89C563.84,-428.77 541.79,-485.71 502,-515.5 497.44,-518.91 492.34,-521.7 486.99,-523.96"/>
<polygon fill="#63b8ff" stroke="#63b8ff" points="576.52,-399.79 576,-389.21 569.81,-397.81 576.52,-399.79"/>
</a>
</g>
</g>
<!-- Node50 -->
<g id="Node000050" class="node">
<title>Node50</title>
<g id="a_Node000050"><a xlink:href="load_8c.html#a61a9e264594f48435c7981c9b17e7505" target="_top" xlink:title=" ">
<polygon fill="white" stroke="#666666" points="476.5,-506 369.5,-506 369.5,-487 476.5,-487 476.5,-506"/>
<text text-anchor="middle" x="423" y="-494" font-family="Helvetica,sans-Serif" font-size="10.00">dma_sample_data</text>
</a>
</g>
</g>
<!-- Node1&#45;&gt;Node50 -->
<g id="edge23_Node000001_Node000050" class="edge">
<title>Node1&#45;&gt;Node50</title>
<g id="a_edge23_Node000001_Node000050"><a xlink:title=" ">
<path fill="none" stroke="#63b8ff" d="M569.27,-398.13C557.07,-420.76 533.38,-458.39 502,-478.5 494.39,-483.37 485.62,-486.93 476.77,-489.53"/>
<polygon fill="#63b8ff" stroke="#63b8ff" points="572.42,-399.66 573.92,-389.17 566.21,-396.43 572.42,-399.66"/>
</a>
</g>
</g>
<!-- Node51 -->
<g id="Node000051" class="node">
<title>Node51</title>
<g id="a_Node000051"><a xlink:href="memory_8c.html#afcd38898313bd6f534b141fc0d6407a6" target="_top" xlink:title=" ">
<polygon fill="white" stroke="#666666" points="465,-469 381,-469 381,-450 465,-450 465,-469"/>
<text text-anchor="middle" x="423" y="-457" font-family="Helvetica,sans-Serif" font-size="10.00">dma_textures</text>
</a>
</g>
</g>
<!-- Node1&#45;&gt;Node51 -->
<g id="edge24_Node000001_Node000051" class="edge">
<title>Node1&#45;&gt;Node51</title>
<g id="a_edge24_Node000001_Node000051"><a xlink:title=" ">
<path fill="none" stroke="#63b8ff" d="M559.99,-395.8C545.18,-408.15 523.4,-424.76 502,-435.5 490.22,-441.41 476.71,-446.19 464.27,-449.89"/>
<polygon fill="#63b8ff" stroke="#63b8ff" points="562.52,-398.25 567.86,-389.1 557.98,-392.92 562.52,-398.25"/>
</a>
</g>
</g>
<!-- Node58 -->
<g id="Node000058" class="node">
<title>Node58</title>
<g id="a_Node000058"><a xlink:href="staff__ghosts_8c.html#a1e6c535e2e2e430c9088d9a634788aba" target="_top" xlink:title=" ">
<polygon fill="white" stroke="#666666" points="468.5,-426 377.5,-426 377.5,-407 468.5,-407 468.5,-426"/>
<text text-anchor="middle" x="423" y="-414" font-family="Helvetica,sans-Serif" font-size="10.00">func_80004EF0</text>
</a>
</g>
</g>
<!-- Node1&#45;&gt;Node58 -->
<g id="edge31_Node000001_Node000058" class="edge">
<title>Node1&#45;&gt;Node58</title>
<g id="a_edge31_Node000001_Node000058"><a xlink:title=" ">
<path fill="none" stroke="#63b8ff" d="M530.69,-391.5C521.19,-393.85 511.28,-396.28 502,-398.5 490.38,-401.28 477.76,-404.23 466.13,-406.91"/>
<polygon fill="#63b8ff" stroke="#63b8ff" points="531.53,-394.9 540.4,-389.1 529.85,-388.11 531.53,-394.9"/>
</a>
</g>
</g>
<!-- Node60 -->
<g id="Node000060" class="node">
<title>Node60</title>
<g id="a_Node000060"><a xlink:href="kart__dma_8c.html#a3a8a3fb83dbcfa193854a6e1d890abbf" target="_top" xlink:title=" ">
<polygon fill="white" stroke="#666666" points="468.5,-389 377.5,-389 377.5,-370 468.5,-370 468.5,-389"/>
<text text-anchor="middle" x="423" y="-377" font-family="Helvetica,sans-Serif" font-size="10.00">func_80027560</text>
</a>
</g>
</g>
<!-- Node1&#45;&gt;Node60 -->
<g id="edge33_Node000001_Node000060" class="edge">
<title>Node1&#45;&gt;Node60</title>
<g id="a_edge33_Node000001_Node000060"><a xlink:title=" ">
<path fill="none" stroke="#63b8ff" d="M527.88,-379.5C508.77,-379.5 487.19,-379.5 468.67,-379.5"/>
<polygon fill="#63b8ff" stroke="#63b8ff" points="527.91,-383 537.91,-379.5 527.91,-376 527.91,-383"/>
</a>
</g>
</g>
<!-- Node82 -->
<g id="Node000082" class="node">
<title>Node82</title>
<g id="a_Node000082"><a xlink:href="kart__dma_8c.html#ae06a1b1a72f72337f689b5d580544cba" target="_top" xlink:title=" ">
<polygon fill="white" stroke="#666666" points="470,-352 376,-352 376,-333 470,-333 470,-352"/>
<text text-anchor="middle" x="423" y="-340" font-family="Helvetica,sans-Serif" font-size="10.00">func_80027BDC</text>
</a>
</g>
</g>
<!-- Node1&#45;&gt;Node82 -->
<g id="edge38_Node000001_Node000082" class="edge">
<title>Node1&#45;&gt;Node82</title>
<g id="a_edge38_Node000001_Node000082"><a xlink:title=" ">
<path fill="none" stroke="#63b8ff" d="M528.7,-367.57C507.75,-362.56 483.69,-356.79 463.92,-352.06"/>
<polygon fill="#63b8ff" stroke="#63b8ff" points="528.17,-371.05 538.71,-369.97 529.8,-364.24 528.17,-371.05"/>
</a>
</g>
</g>
<!-- Node83 -->
<g id="Node000083" class="node">
<title>Node83</title>
<g id="a_Node000083"><a xlink:href="kart__dma_8c.html#a46ca62e9031b9b2a6ebc4b9d83c3b43c" target="_top" xlink:title=" ">
<polygon fill="white" stroke="#666666" points="469,-315 377,-315 377,-296 469,-296 469,-315"/>
<text text-anchor="middle" x="423" y="-303" font-family="Helvetica,sans-Serif" font-size="10.00">func_80027C74</text>
</a>
</g>
</g>
<!-- Node1&#45;&gt;Node83 -->
<g id="edge39_Node000001_Node000083" class="edge">
<title>Node1&#45;&gt;Node83</title>
<g id="a_edge39_Node000001_Node000083"><a xlink:title=" ">
<path fill="none" stroke="#63b8ff" d="M560.12,-363.15C545.36,-350.84 523.62,-334.44 502,-324.5 491.74,-319.78 480.17,-316.15 469.14,-313.38"/>
<polygon fill="#63b8ff" stroke="#63b8ff" points="558.07,-366 567.94,-369.85 562.62,-360.69 558.07,-366"/>
</a>
</g>
</g>
<!-- Node88 -->
<g id="Node000088" class="node">
<title>Node88</title>
<g id="a_Node000088"><a xlink:href="code__8006E9C0_8c.html#a65debd536e9a239c6b4f1ad733b7bdbe" target="_top" xlink:title=" ">
<polygon fill="white" stroke="#666666" points="469,-278 377,-278 377,-259 469,-259 469,-278"/>
<text text-anchor="middle" x="423" y="-266" font-family="Helvetica,sans-Serif" font-size="10.00">func_8006ED94</text>
</a>
</g>
</g>
<!-- Node1&#45;&gt;Node88 -->
<g id="edge41_Node000001_Node000088" class="edge">
<title>Node1&#45;&gt;Node88</title>
<g id="a_edge41_Node000001_Node000088"><a xlink:title=" ">
<path fill="none" stroke="#63b8ff" d="M568.34,-361.32C555.61,-340.27 531.8,-306.1 502,-287.5 492.19,-281.37 480.54,-277.22 469.27,-274.41"/>
<polygon fill="#63b8ff" stroke="#63b8ff" points="565.33,-363.1 573.39,-369.97 571.37,-359.57 565.33,-363.1"/>
</a>
</g>
</g>
<!-- Node91 -->
<g id="Node000091" class="node">
<title>Node91</title>
<g id="a_Node000091"><a xlink:href="update__objects_8c.html#ae1c75502e160df439fc83386eb9cb801" target="_top" xlink:title=" ">
<polygon fill="white" stroke="#666666" points="468.5,-241 377.5,-241 377.5,-222 468.5,-222 468.5,-241"/>
<text text-anchor="middle" x="423" y="-229" font-family="Helvetica,sans-Serif" font-size="10.00">func_80074510</text>
</a>
</g>
</g>
<!-- Node1&#45;&gt;Node91 -->
<g id="edge44_Node000001_Node000091" class="edge">
<title>Node1&#45;&gt;Node91</title>
<g id="a_edge44_Node000001_Node000091"><a xlink:title=" ">
<path fill="none" stroke="#63b8ff" d="M572.53,-360.36C562.63,-331.87 540.04,-278.66 502,-250.5 492.37,-243.37 480.4,-238.88 468.76,-236.07"/>
<polygon fill="#63b8ff" stroke="#63b8ff" points="569.24,-361.57 575.71,-369.96 575.89,-359.37 569.24,-361.57"/>
</a>
</g>
</g>
<!-- Node103 -->
<g id="Node000103" class="node">
<title>Node103</title>
<g id="a_Node000103"><a xlink:href="memory_8c.html#ae7d023f0c1a0b6a8996141ce3b04a287" target="_top" xlink:title=" ">
<polygon fill="#fff0f0" stroke="red" points="469,-204 377,-204 377,-185 469,-185 469,-204"/>
<text text-anchor="middle" x="423" y="-192" font-family="Helvetica,sans-Serif" font-size="10.00">func_802A80B0</text>
</a>
</g>
</g>
<!-- Node1&#45;&gt;Node103 -->
<g id="edge46_Node000001_Node000103" class="edge">
<title>Node1&#45;&gt;Node103</title>
<g id="a_edge46_Node000001_Node000103"><a xlink:title=" ">
<path fill="none" stroke="#63b8ff" d="M575.19,-359.95C568.22,-325.01 548.64,-251.91 502,-213.5 492.75,-205.88 480.91,-201.24 469.27,-198.43"/>
<polygon fill="#63b8ff" stroke="#63b8ff" points="571.76,-360.67 577.03,-369.86 578.65,-359.39 571.76,-360.67"/>
</a>
</g>
</g>
<!-- Node107 -->
<g id="Node000107" class="node">
<title>Node107</title>
<g id="a_Node000107"><a xlink:href="memory_8c.html#a91ad47aa1fa5b5c989f3571fbef579e5" target="_top" xlink:title=" ">
<polygon fill="white" stroke="#666666" points="469,-167 377,-167 377,-148 469,-148 469,-167"/>
<text text-anchor="middle" x="423" y="-155" font-family="Helvetica,sans-Serif" font-size="10.00">func_802A8348</text>
</a>
</g>
</g>
<!-- Node1&#45;&gt;Node107 -->
<g id="edge48_Node000001_Node000107" class="edge">
<title>Node1&#45;&gt;Node107</title>
<g id="a_edge48_Node000001_Node000107"><a xlink:title=" ">
<path fill="none" stroke="#63b8ff" d="M577,-359.66C572.83,-318.93 557.42,-225.56 502,-176.5 492.92,-168.46 481,-163.69 469.23,-160.9"/>
<polygon fill="#63b8ff" stroke="#63b8ff" points="573.52,-360.03 577.91,-369.68 580.5,-359.4 573.52,-360.03"/>
</a>
</g>
</g>
<!-- Node108 -->
<g id="Node000108" class="node">
<title>Node108</title>
<g id="a_Node000108"><a xlink:href="memory_8c.html#a7b12aaf3b5e5b83cb3f2d34398642886" target="_top" xlink:title=" ">
<polygon fill="white" stroke="#666666" points="469,-130 377,-130 377,-111 469,-111 469,-130"/>
<text text-anchor="middle" x="423" y="-118" font-family="Helvetica,sans-Serif" font-size="10.00">func_802A841C</text>
</a>
</g>
</g>
<!-- Node1&#45;&gt;Node108 -->
<g id="edge49_Node000001_Node000108" class="edge">
<title>Node1&#45;&gt;Node108</title>
<g id="a_edge49_Node000001_Node000108"><a xlink:title=" ">
<path fill="none" stroke="#63b8ff" d="M578.32,-359.31C576.78,-313.18 566.27,-199.45 502,-139.5 493.03,-131.13 481.01,-126.28 469.1,-123.5"/>
<polygon fill="#63b8ff" stroke="#63b8ff" points="574.83,-359.58 578.55,-369.5 581.83,-359.43 574.83,-359.58"/>
</a>
</g>
</g>
<!-- Node109 -->
<g id="Node000109" class="node">
<title>Node109</title>
<g id="a_Node000109"><a xlink:href="kart__dma_8c.html#a45e203c7a60ac07d226bec0c12c70d89" target="_top" xlink:title=" ">
<polygon fill="#fff0f0" stroke="red" points="473.5,-93 372.5,-93 372.5,-74 473.5,-74 473.5,-93"/>
<text text-anchor="middle" x="423" y="-81" font-family="Helvetica,sans-Serif" font-size="10.00">load_kart_palette</text>
</a>
</g>
</g>
<!-- Node1&#45;&gt;Node109 -->
<g id="edge50_Node000001_Node000109" class="edge">
<title>Node1&#45;&gt;Node109</title>
<g id="a_edge50_Node000001_Node000109"><a xlink:title=" ">
<path fill="none" stroke="#63b8ff" d="M575.71,-359.73C567.24,-302.42 540.02,-137.97 502,-101.5 494.28,-94.09 484.14,-89.51 473.75,-86.73"/>
<polygon fill="#63b8ff" stroke="#63b8ff" points="572.3,-360.58 577.19,-369.97 579.23,-359.57 572.3,-360.58"/>
</a>
</g>
</g>
<!-- Node113 -->
<g id="Node000113" class="node">
<title>Node113</title>
<g id="a_Node000113"><a xlink:href="kart__dma_8c.html#a6c923a042d0b2ff00518dd2dc12fe580" target="_top" xlink:title="Place DMA mio0 compressed character textures in a buffer. Later, this data becomes decompressed.">
<polygon fill="#fff0f0" stroke="red" points="474,-56 372,-56 372,-37 474,-37 474,-56"/>
<text text-anchor="middle" x="423" y="-44" font-family="Helvetica,sans-Serif" font-size="10.00">load_kart_texture</text>
</a>
</g>
</g>
<!-- Node1&#45;&gt;Node113 -->
<g id="edge51_Node000001_Node000113" class="edge">
<title>Node1&#45;&gt;Node113</title>
<g id="a_edge51_Node000001_Node000113"><a xlink:title=" ">
<path fill="none" stroke="#63b8ff" d="M576.38,-359.59C569.33,-297.13 544.67,-106.68 502,-64.5 494.49,-57.07 484.56,-52.47 474.32,-49.67"/>
<polygon fill="#63b8ff" stroke="#63b8ff" points="572.92,-360.14 577.49,-369.7 579.88,-359.38 572.92,-360.14"/>
</a>
</g>
</g>
<!-- Node114 -->
<g id="Node000114" class="node">
<title>Node114</title>
<g id="a_Node000114"><a xlink:href="memory_8c.html#a220674b72225f6ce3a5303f12fe958c6" target="_top" xlink:title=" ">
<polygon fill="#fff0f0" stroke="red" points="452.5,-19 393.5,-19 393.5,0 452.5,0 452.5,-19"/>
<text text-anchor="middle" x="423" y="-7" font-family="Helvetica,sans-Serif" font-size="10.00">MIO0_0F</text>
</a>
</g>
</g>
<!-- Node1&#45;&gt;Node114 -->
<g id="edge52_Node000001_Node000114" class="edge">
<title>Node1&#45;&gt;Node114</title>
<g id="a_edge52_Node000001_Node000114"><a xlink:title=" ">
<path fill="none" stroke="#63b8ff" d="M576.96,-359.93C571.29,-293.12 549.45,-75.56 502,-27.5 489.31,-14.64 469.39,-10.2 452.86,-8.95"/>
<polygon fill="#63b8ff" stroke="#63b8ff" points="573.47,-360.27 577.78,-369.95 580.45,-359.69 573.47,-360.27"/>
</a>
</g>
</g>
<!-- Node3 -->
<g id="Node000003" class="node">
<title>Node3</title>
<g id="a_Node000003"><a xlink:href="load_8c.html#aa397477e6168e682727486138e101461" target="_top" xlink:title=" ">
<polygon fill="#fff0f0" stroke="red" points="295.5,-1168 171.5,-1168 171.5,-1149 295.5,-1149 295.5,-1168"/>
<text text-anchor="middle" x="233.5" y="-1156" font-family="Helvetica,sans-Serif" font-size="10.00">sequence_dma_async</text>
</a>
</g>
</g>
<!-- Node2&#45;&gt;Node3 -->
<g id="edge2_Node000002_Node000003" class="edge">
<title>Node2&#45;&gt;Node3</title>
<g id="a_edge2_Node000002_Node000003"><a xlink:title=" ">
<path fill="none" stroke="#63b8ff" d="M363.64,-1133.02C337.73,-1138.13 307.59,-1144.08 282.95,-1148.94"/>
<polygon fill="#63b8ff" stroke="#63b8ff" points="364.58,-1136.4 373.71,-1131.03 363.23,-1129.53 364.58,-1136.4"/>
</a>
</g>
</g>
<!-- Node13&#45;&gt;Node3 -->
<g id="edge8_Node000013_Node000003" class="edge">
<title>Node13&#45;&gt;Node3</title>
<g id="a_edge8_Node000013_Node000003"><a xlink:title=" ">
<path fill="none" stroke="#63b8ff" d="M398.36,-1062.87C382.46,-1073.59 361.32,-1088.59 344,-1103.5 326.61,-1118.47 327.92,-1129.11 308,-1140.5 302.07,-1143.89 295.52,-1146.65 288.84,-1148.89"/>
<polygon fill="#63b8ff" stroke="#63b8ff" points="400.66,-1065.54 407.05,-1057.09 396.78,-1059.71 400.66,-1065.54"/>
</a>
</g>
</g>
<!-- Node14 -->
<g id="Node000014" class="node">
<title>Node14</title>
<g id="a_Node000014"><a xlink:href="load_8c.html#a50bf1c2ea23d6f19ae9fc9e59ccda202" target="_top" xlink:title=" ">
<polygon fill="#fff0f0" stroke="red" points="296,-1131 171,-1131 171,-1112 296,-1112 296,-1131"/>
<text text-anchor="middle" x="233.5" y="-1119" font-family="Helvetica,sans-Serif" font-size="10.00">bank_load_immediate</text>
</a>
</g>
</g>
<!-- Node13&#45;&gt;Node14 -->
<g id="edge4_Node000013_Node000014" class="edge">
<title>Node13&#45;&gt;Node14</title>
<g id="a_edge4_Node000013_Node000014"><a xlink:title=" ">
<path fill="none" stroke="#63b8ff" d="M396.55,-1061.99C373.9,-1074.4 339.56,-1092.04 308,-1103.5 299.11,-1106.73 289.41,-1109.57 280.05,-1111.98"/>
<polygon fill="#63b8ff" stroke="#63b8ff" points="398.46,-1064.94 405.5,-1057.02 395.06,-1058.82 398.46,-1064.94"/>
</a>
</g>
</g>
<!-- Node17 -->
<g id="Node000017" class="node">
<title>Node17</title>
<g id="a_Node000017"><a xlink:href="heap_8c.html#ae8b7a3aad224c80e7d87654d866666ae" target="_top" xlink:title=" ">
<polygon fill="white" stroke="#666666" points="280,-1094 187,-1094 187,-1075 280,-1075 280,-1094"/>
<text text-anchor="middle" x="233.5" y="-1082" font-family="Helvetica,sans-Serif" font-size="10.00">func_800BA8B0</text>
</a>
</g>
</g>
<!-- Node13&#45;&gt;Node17 -->
<g id="edge5_Node000013_Node000017" class="edge">
<title>Node13&#45;&gt;Node17</title>
<g id="a_edge5_Node000013_Node000017"><a xlink:title=" ">
<path fill="none" stroke="#63b8ff" d="M363.64,-1059.02C336.7,-1064.33 305.19,-1070.55 280.04,-1075.51"/>
<polygon fill="#63b8ff" stroke="#63b8ff" points="364.58,-1062.4 373.71,-1057.03 363.23,-1055.53 364.58,-1062.4"/>
</a>
</g>
</g>
<!-- Node18 -->
<g id="Node000018" class="node">
<title>Node18</title>
<g id="a_Node000018"><a xlink:href="load_8c.html#adf25dc20ccc53783eb999f0adb28b027" target="_top" xlink:title=" ">
<polygon fill="#fff0f0" stroke="red" points="279.5,-1057 187.5,-1057 187.5,-1038 279.5,-1038 279.5,-1057"/>
<text text-anchor="middle" x="233.5" y="-1045" font-family="Helvetica,sans-Serif" font-size="10.00">func_800BB304</text>
</a>
</g>
</g>
<!-- Node13&#45;&gt;Node18 -->
<g id="edge6_Node000013_Node000018" class="edge">
<title>Node13&#45;&gt;Node18</title>
<g id="a_edge6_Node000013_Node000018"><a xlink:title=" ">
<path fill="none" stroke="#63b8ff" d="M333.77,-1047.5C314.99,-1047.5 295.92,-1047.5 279.59,-1047.5"/>
<polygon fill="#63b8ff" stroke="#63b8ff" points="333.84,-1051 343.84,-1047.5 333.84,-1044 333.84,-1051"/>
</a>
</g>
</g>
<!-- Node20 -->
<g id="Node000020" class="node">
<title>Node20</title>
<g id="a_Node000020"><a xlink:href="load_8c.html#acbb441247e4f7d446c35a14bd75b61d6" target="_top" xlink:title=" ">
<polygon fill="#fff0f0" stroke="red" points="272.5,-1020 194.5,-1020 194.5,-1001 272.5,-1001 272.5,-1020"/>
<text text-anchor="middle" x="233.5" y="-1008" font-family="Helvetica,sans-Serif" font-size="10.00">patch_sound</text>
</a>
</g>
</g>
<!-- Node13&#45;&gt;Node20 -->
<g id="edge7_Node000013_Node000020" class="edge">
<title>Node13&#45;&gt;Node20</title>
<g id="a_edge7_Node000013_Node000020"><a xlink:title=" ">
<path fill="none" stroke="#63b8ff" d="M363.87,-1036.03C334.14,-1030.16 298.8,-1023.19 272.57,-1018.01"/>
<polygon fill="#63b8ff" stroke="#63b8ff" points="363.23,-1039.47 373.71,-1037.97 364.58,-1032.6 363.23,-1039.47"/>
</a>
</g>
</g>
<!-- Node26 -->
<g id="Node000026" class="node">
<title>Node26</title>
<g id="a_Node000026"><a xlink:href="load_8c.html#a1cd6d11794b341d8e9d9e9330305c60f" target="_top" xlink:title=" ">
<polygon fill="#fff0f0" stroke="red" points="308,-983 159,-983 159,-964 308,-964 308,-983"/>
<text text-anchor="middle" x="233.5" y="-971" font-family="Helvetica,sans-Serif" font-size="10.00">sequence_dma_immediate</text>
</a>
</g>
</g>
<!-- Node13&#45;&gt;Node26 -->
<g id="edge9_Node000013_Node000026" class="edge">
<title>Node13&#45;&gt;Node26</title>
<g id="a_edge9_Node000013_Node000026"><a xlink:title=" ">
<path fill="none" stroke="#63b8ff" d="M395.7,-1032.97C372.99,-1020.89 339.05,-1003.88 308,-992.5 298.22,-988.92 287.48,-985.74 277.3,-983.05"/>
<polygon fill="#63b8ff" stroke="#63b8ff" points="394.23,-1036.16 404.7,-1037.82 397.55,-1030 394.23,-1036.16"/>
</a>
</g>
</g>
<!-- Node28 -->
<g id="Node000028" class="node">
<title>Node28</title>
<g id="a_Node000028"><a xlink:href="load_8c.html#a16ddfd81ca9e185b484920b7eb9d70d7" target="_top" xlink:title=" ">
<polygon fill="#fff0f0" stroke="red" points="284,-946 183,-946 183,-927 284,-927 284,-946"/>
<text text-anchor="middle" x="233.5" y="-934" font-family="Helvetica,sans-Serif" font-size="10.00">bank_load_async</text>
</a>
</g>
</g>
<!-- Node27&#45;&gt;Node28 -->
<g id="edge11_Node000027_Node000028" class="edge">
<title>Node27&#45;&gt;Node28</title>
<g id="a_edge11_Node000027_Node000028"><a xlink:title=" ">
<path fill="none" stroke="#63b8ff" d="M346.58,-910.8C322.51,-916.32 296.76,-922.22 276.02,-926.98"/>
<polygon fill="#63b8ff" stroke="#63b8ff" points="347.46,-914.19 356.42,-908.54 345.89,-907.36 347.46,-914.19"/>
</a>
</g>
</g>
<!-- Node23 -->
<g id="Node000023" class="node">
<title>Node23</title>
<g id="a_Node000023"><a xlink:href="seqplayer_8c.html#a057e95b47ecbd1b645b1ef457f3854d9" target="_top" xlink:title=" ">
<polygon fill="#fff0f0" stroke="red" points="304.5,-908.5 162.5,-908.5 162.5,-878.5 304.5,-878.5 304.5,-908.5"/>
<text text-anchor="start" x="170.5" y="-896.5" font-family="Helvetica,sans-Serif" font-size="10.00">sequence_player_process</text>
<text text-anchor="middle" x="233.5" y="-885.5" font-family="Helvetica,sans-Serif" font-size="10.00">_sequence</text>
</a>
</g>
</g>
<!-- Node27&#45;&gt;Node23 -->
<g id="edge12_Node000027_Node000023" class="edge">
<title>Node27&#45;&gt;Node23</title>
<g id="a_edge12_Node000027_Node000023"><a xlink:title=" ">
<path fill="none" stroke="#63b8ff" d="M344.79,-893.5C331.5,-893.5 317.76,-893.5 304.67,-893.5"/>
<polygon fill="#63b8ff" stroke="#63b8ff" points="344.84,-897 354.84,-893.5 344.84,-890 344.84,-897"/>
</a>
</g>
</g>
<!-- Node30 -->
<g id="Node000030" class="node">
<title>Node30</title>
<g id="a_Node000030"><a xlink:href="memory_8c.html#a55df5934da66daade2d48fa82f079cd7" target="_top" xlink:title=" ">
<polygon fill="#fff0f0" stroke="red" points="298,-860 169,-860 169,-841 298,-841 298,-860"/>
<text text-anchor="middle" x="233.5" y="-848" font-family="Helvetica,sans-Serif" font-size="10.00">decompress_segments</text>
</a>
</g>
</g>
<!-- Node29&#45;&gt;Node30 -->
<g id="edge14_Node000029_Node000030" class="edge">
<title>Node29&#45;&gt;Node30</title>
<g id="a_edge14_Node000029_Node000030"><a xlink:title=" ">
<path fill="none" stroke="#63b8ff" d="M404.34,-765.04C383.09,-784.07 345.55,-814.93 308,-832.5 300.74,-835.9 292.77,-838.7 284.83,-840.99"/>
<polygon fill="#63b8ff" stroke="#63b8ff" points="406.87,-767.47 411.91,-758.15 402.16,-762.29 406.87,-767.47"/>
</a>
</g>
</g>
<!-- Node42 -->
<g id="Node000042" class="node">
<title>Node42</title>
<g id="a_Node000042"><a xlink:href="memory_8c.html#a9e2803f771e059a215c0b229f3fb5e06" target="_top" xlink:title="Returns pointer to mio0 compressed Vtx.">
<polygon fill="#fff0f0" stroke="red" points="295.5,-823 171.5,-823 171.5,-804 295.5,-804 295.5,-823"/>
<text text-anchor="middle" x="233.5" y="-811" font-family="Helvetica,sans-Serif" font-size="10.00">dma_compressed_vtx</text>
</a>
</g>
</g>
<!-- Node29&#45;&gt;Node42 -->
<g id="edge15_Node000029_Node000042" class="edge">
<title>Node29&#45;&gt;Node42</title>
<g id="a_edge15_Node000029_Node000042"><a xlink:title=" ">
<path fill="none" stroke="#63b8ff" d="M391.01,-762.28C368.31,-772.06 336.61,-785.08 308,-794.5 297.48,-797.96 285.96,-801.2 275.21,-803.99"/>
<polygon fill="#63b8ff" stroke="#63b8ff" points="392.68,-765.37 400.46,-758.18 389.89,-758.95 392.68,-765.37"/>
</a>
</g>
</g>
<!-- Node43 -->
<g id="Node000043" class="node">
<title>Node43</title>
<g id="a_Node000043"><a xlink:href="main_8c.html#aaa9b0b2906469c5fb91cc673efcd2686" target="_top" xlink:title=" ">
<polygon fill="#fff0f0" stroke="red" points="293,-785.5 174,-785.5 174,-755.5 293,-755.5 293,-785.5"/>
<text text-anchor="start" x="182" y="-773.5" font-family="Helvetica,sans-Serif" font-size="10.00">init_segment_ending</text>
<text text-anchor="middle" x="233.5" y="-762.5" font-family="Helvetica,sans-Serif" font-size="10.00">_sequences</text>
</a>
</g>
</g>
<!-- Node29&#45;&gt;Node43 -->
<g id="edge16_Node000029_Node000043" class="edge">
<title>Node29&#45;&gt;Node43</title>
<g id="a_edge16_Node000029_Node000043"><a xlink:title=" ">
<path fill="none" stroke="#63b8ff" d="M379.26,-753.51C353.81,-756.5 321.14,-760.33 293.28,-763.6"/>
<polygon fill="#63b8ff" stroke="#63b8ff" points="379.82,-756.97 389.34,-752.33 379,-750.02 379.82,-756.97"/>
</a>
</g>
</g>
<!-- Node44 -->
<g id="Node000044" class="node">
<title>Node44</title>
<g id="a_Node000044"><a xlink:href="main_8c.html#a0251c90fb83072f3510a39e2f1b3e980" target="_top" xlink:title=" ">
<polygon fill="#fff0f0" stroke="red" points="291.5,-737 175.5,-737 175.5,-718 291.5,-718 291.5,-737"/>
<text text-anchor="middle" x="233.5" y="-725" font-family="Helvetica,sans-Serif" font-size="10.00">init_segment_racing</text>
</a>
</g>
</g>
<!-- Node29&#45;&gt;Node44 -->
<g id="edge17_Node000029_Node000044" class="edge">
<title>Node29&#45;&gt;Node44</title>
<g id="a_edge17_Node000029_Node000044"><a xlink:title=" ">
<path fill="none" stroke="#63b8ff" d="M379.09,-743.69C353.2,-740.79 319.9,-737.06 291.77,-733.91"/>
<polygon fill="#63b8ff" stroke="#63b8ff" points="379.01,-747.21 389.34,-744.84 379.79,-740.25 379.01,-747.21"/>
</a>
</g>
</g>
<!-- Node47 -->
<g id="Node000047" class="node">
<title>Node47</title>
<g id="a_Node000047"><a xlink:href="memory_8c.html#a39fa43d59922488da06f0709f5ded15c" target="_top" xlink:title="Allocate and DMA.">
<polygon fill="#fff0f0" stroke="red" points="266,-700 201,-700 201,-681 266,-681 266,-700"/>
<text text-anchor="middle" x="233.5" y="-688" font-family="Helvetica,sans-Serif" font-size="10.00">load_data</text>
</a>
</g>
</g>
<!-- Node29&#45;&gt;Node47 -->
<g id="edge19_Node000029_Node000047" class="edge">
<title>Node29&#45;&gt;Node47</title>
<g id="a_edge19_Node000029_Node000047"><a xlink:title=" ">
<path fill="none" stroke="#63b8ff" d="M386.49,-735.57C364.11,-727.61 334.53,-717.45 308,-709.5 294.37,-705.41 279.15,-701.39 266.12,-698.11"/>
<polygon fill="#63b8ff" stroke="#63b8ff" points="385.33,-738.87 395.92,-738.94 387.69,-732.28 385.33,-738.87"/>
</a>
</g>
</g>
<!-- Node44&#45;&gt;Node46 -->
<g id="edge18_Node000044_Node000046" class="edge">
<title>Node44&#45;&gt;Node46</title>
<g id="a_edge18_Node000044_Node000046"><a xlink:title=" ">
<path fill="none" stroke="#63b8ff" d="M178.65,-715.78C155.37,-710.71 128.47,-704.86 106.43,-700.06"/>
<polygon fill="#63b8ff" stroke="#63b8ff" points="178.21,-719.26 188.72,-717.97 179.69,-712.42 178.21,-719.26"/>
</a>
</g>
</g>
<!-- Node47&#45;&gt;Node46 -->
<g id="edge20_Node000047_Node000046" class="edge">
<title>Node47&#45;&gt;Node46</title>
<g id="a_edge20_Node000047_Node000046"><a xlink:title=" ">
<path fill="none" stroke="#63b8ff" d="M190.73,-690.5C170.39,-690.5 145.55,-690.5 123.16,-690.5"/>
<polygon fill="#63b8ff" stroke="#63b8ff" points="190.92,-694 200.92,-690.5 190.92,-687 190.92,-694"/>
</a>
</g>
</g>
<!-- Node52 -->
<g id="Node000052" class="node">
<title>Node52</title>
<g id="a_Node000052"><a xlink:href="code__800029B0_8c.html#aed19d831d4870c51cb5be8739574abbe" target="_top" xlink:title=" ">
<polygon fill="#fff0f0" stroke="red" points="279,-624 188,-624 188,-605 279,-605 279,-624"/>
<text text-anchor="middle" x="233.5" y="-612" font-family="Helvetica,sans-Serif" font-size="10.00">func_80003040</text>
</a>
</g>
</g>
<!-- Node51&#45;&gt;Node52 -->
<g id="edge25_Node000051_Node000052" class="edge">
<title>Node51&#45;&gt;Node52</title>
<g id="a_edge25_Node000051_Node000052"><a xlink:title=" ">
<path fill="none" stroke="#63b8ff" d="M370.95,-463.98C361.05,-466.91 351.45,-471.47 344,-478.5 304.14,-516.15 347.84,-558.83 308,-596.5 300.17,-603.9 289.82,-608.41 279.36,-611.12"/>
<polygon fill="#63b8ff" stroke="#63b8ff" points="372,-467.32 380.89,-461.56 370.34,-460.52 372,-467.32"/>
</a>
</g>
</g>
<!-- Node53 -->
<g id="Node000053" class="node">
<title>Node53</title>
<g id="a_Node000053"><a xlink:href="code__80057C60_8c.html#a07b43c07e7afcf3fcccf63622bb991e1" target="_top" xlink:title=" ">
<polygon fill="#fff0f0" stroke="red" points="279.5,-587 187.5,-587 187.5,-568 279.5,-568 279.5,-587"/>
<text text-anchor="middle" x="233.5" y="-575" font-family="Helvetica,sans-Serif" font-size="10.00">func_8005D290</text>
</a>
</g>
</g>
<!-- Node51&#45;&gt;Node53 -->
<g id="edge26_Node000051_Node000053" class="edge">
<title>Node51&#45;&gt;Node53</title>
<g id="a_edge26_Node000051_Node000053"><a xlink:title=" ">
<path fill="none" stroke="#63b8ff" d="M370.98,-464.87C361.24,-467.75 351.7,-472.07 344,-478.5 313.76,-503.75 338.22,-534.23 308,-559.5 299.94,-566.24 289.74,-570.53 279.52,-573.23"/>
<polygon fill="#63b8ff" stroke="#63b8ff" points="371.86,-468.26 380.72,-462.44 370.17,-461.46 371.86,-468.26"/>
</a>
</g>
</g>
<!-- Node55 -->
<g id="Node000055" class="node">
<title>Node55</title>
<g id="a_Node000055"><a xlink:href="code__8006E9C0_8c.html#ac35f9951d9cd04d4e9bf188746bc9c58" target="_top" xlink:title=" ">
<polygon fill="white" stroke="#666666" points="279,-550 188,-550 188,-531 279,-531 279,-550"/>
<text text-anchor="middle" x="233.5" y="-538" font-family="Helvetica,sans-Serif" font-size="10.00">func_8006EEE8</text>
</a>
</g>
</g>
<!-- Node51&#45;&gt;Node55 -->
<g id="edge27_Node000051_Node000055" class="edge">
<title>Node51&#45;&gt;Node55</title>
<g id="a_edge27_Node000051_Node000055"><a xlink:title=" ">
<path fill="none" stroke="#63b8ff" d="M370.67,-467.55C361.42,-470.22 352.15,-473.77 344,-478.5 323.88,-490.17 327.66,-504.06 308,-516.5 298.24,-522.67 286.75,-527.4 275.78,-530.97"/>
<polygon fill="#63b8ff" stroke="#63b8ff" points="371.83,-470.86 380.64,-464.98 370.08,-464.09 371.83,-470.86"/>
</a>
</g>
</g>
<!-- Node56 -->
<g id="Node000056" class="node">
<title>Node56</title>
<g id="a_Node000056"><a xlink:href="code__8006E9C0_8c.html#addcb705e0abe102e25517666b6a1eb84" target="_top" xlink:title=" ">
<polygon fill="white" stroke="#666666" points="107,-531 16,-531 16,-512 107,-512 107,-531"/>
<text text-anchor="middle" x="61.5" y="-519" font-family="Helvetica,sans-Serif" font-size="10.00">func_8006F008</text>
</a>
</g>
</g>
<!-- Node51&#45;&gt;Node56 -->
<g id="edge29_Node000051_Node000056" class="edge">
<title>Node51&#45;&gt;Node56</title>
<g id="a_edge29_Node000051_Node000056"><a xlink:title=" ">
<path fill="none" stroke="#63b8ff" d="M370.98,-470.85C351.34,-475.06 328.67,-479.73 308,-483.5 238.21,-496.24 156.74,-508.3 107.42,-515.29"/>
<polygon fill="#63b8ff" stroke="#63b8ff" points="371.91,-474.23 380.95,-468.7 370.43,-467.39 371.91,-474.23"/>
</a>
</g>
</g>
<!-- Node57 -->
<g id="Node000057" class="node">
<title>Node57</title>
<g id="a_Node000057"><a xlink:href="actors_8c.html#a142a32371ea62d0303702286b839bdfd" target="_top" xlink:title="Loads actor textures, course specific actor textures. Calls to init_course_vehicles and place_course_...">
<polygon fill="#fff0f0" stroke="red" points="292,-474.5 175,-474.5 175,-444.5 292,-444.5 292,-474.5"/>
<text text-anchor="start" x="183" y="-462.5" font-family="Helvetica,sans-Serif" font-size="10.00">init_actors_and_load</text>
<text text-anchor="middle" x="233.5" y="-451.5" font-family="Helvetica,sans-Serif" font-size="10.00">_textures</text>
</a>
</g>
</g>
<!-- Node51&#45;&gt;Node57 -->
<g id="edge30_Node000051_Node000057" class="edge">
<title>Node51&#45;&gt;Node57</title>
<g id="a_edge30_Node000051_Node000057"><a xlink:title=" ">
<path fill="none" stroke="#63b8ff" d="M370.76,-459.5C346.47,-459.5 317.34,-459.5 292.27,-459.5"/>
<polygon fill="#63b8ff" stroke="#63b8ff" points="370.85,-463 380.85,-459.5 370.85,-456 370.85,-463"/>
</a>
</g>
</g>
<!-- Node55&#45;&gt;Node56 -->
<g id="edge28_Node000055_Node000056" class="edge">
<title>Node55&#45;&gt;Node56</title>
<g id="a_edge28_Node000055_Node000056"><a xlink:title=" ">
<path fill="none" stroke="#63b8ff" d="M177.63,-534.37C154.85,-531.82 128.74,-528.9 107.16,-526.49"/>
<polygon fill="#63b8ff" stroke="#63b8ff" points="177.51,-537.88 187.83,-535.51 178.29,-530.92 177.51,-537.88"/>
</a>
</g>
</g>
<!-- Node59 -->
<g id="Node000059" class="node">
<title>Node59</title>
<g id="a_Node000059"><a xlink:href="staff__ghosts_8c.html#ad3fe55bff348a8b6cfc02f327bda8544" target="_top" xlink:title=" ">
<polygon fill="#fff0f0" stroke="red" points="279,-426 188,-426 188,-407 279,-407 279,-426"/>
<text text-anchor="middle" x="233.5" y="-414" font-family="Helvetica,sans-Serif" font-size="10.00">func_80005310</text>
</a>
</g>
</g>
<!-- Node58&#45;&gt;Node59 -->
<g id="edge32_Node000058_Node000059" class="edge">
<title>Node58&#45;&gt;Node59</title>
<g id="a_edge32_Node000058_Node000059"><a xlink:title=" ">
<path fill="none" stroke="#63b8ff" d="M367.05,-416.5C339.04,-416.5 305.42,-416.5 279.04,-416.5"/>
<polygon fill="#63b8ff" stroke="#63b8ff" points="367.09,-420 377.09,-416.5 367.09,-413 367.09,-420"/>
</a>
</g>
</g>
<!-- Node61 -->
<g id="Node000061" class="node">
<title>Node61</title>
<g id="a_Node000061"><a xlink:href="render__player_8c.html#aa48ec7ff2a347fb6035ad10ceebb7291" target="_top" xlink:title=" ">
<polygon fill="#fff0f0" stroke="red" points="279,-389 188,-389 188,-370 279,-370 279,-389"/>
<text text-anchor="middle" x="233.5" y="-377" font-family="Helvetica,sans-Serif" font-size="10.00">func_80020524</text>
</a>
</g>
</g>
<!-- Node60&#45;&gt;Node61 -->
<g id="edge34_Node000060_Node000061" class="edge">
<title>Node60&#45;&gt;Node61</title>
<g id="a_edge34_Node000060_Node000061"><a xlink:title=" ">
<path fill="none" stroke="#63b8ff" d="M367.05,-379.5C339.04,-379.5 305.42,-379.5 279.04,-379.5"/>
<polygon fill="#63b8ff" stroke="#63b8ff" points="367.09,-383 377.09,-379.5 367.09,-376 367.09,-383"/>
</a>
</g>
</g>
<!-- Node71 -->
<g id="Node000071" class="node">
<title>Node71</title>
<g id="a_Node000071"><a xlink:href="render__player_8c.html#aea46313da3b14a71e126d88df766b2c2" target="_top" xlink:title=" ">
<polygon fill="#fff0f0" stroke="red" points="279.5,-352 187.5,-352 187.5,-333 279.5,-333 279.5,-352"/>
<text text-anchor="middle" x="233.5" y="-340" font-family="Helvetica,sans-Serif" font-size="10.00">func_8002088C</text>
</a>
</g>
</g>
<!-- Node60&#45;&gt;Node71 -->
<g id="edge35_Node000060_Node000071" class="edge">
<title>Node60&#45;&gt;Node71</title>
<g id="a_edge35_Node000060_Node000071"><a xlink:title=" ">
<path fill="none" stroke="#63b8ff" d="M367.12,-368.67C339.33,-363.19 305.99,-356.61 279.69,-351.42"/>
<polygon fill="#63b8ff" stroke="#63b8ff" points="366.6,-372.14 377.09,-370.64 367.96,-365.27 366.6,-372.14"/>
</a>
</g>
</g>
<!-- Node76 -->
<g id="Node000076" class="node">
<title>Node76</title>
<g id="a_Node000076"><a xlink:href="render__player_8c.html#a0168d37a71ccb859723becdd647e64b2" target="_top" xlink:title=" ">
<polygon fill="#fff0f0" stroke="red" points="279.5,-315 187.5,-315 187.5,-296 279.5,-296 279.5,-315"/>
<text text-anchor="middle" x="233.5" y="-303" font-family="Helvetica,sans-Serif" font-size="10.00">func_80020BF4</text>
</a>
</g>
</g>
<!-- Node60&#45;&gt;Node76 -->
<g id="edge36_Node000060_Node000076" class="edge">
<title>Node60&#45;&gt;Node76</title>
<g id="a_edge36_Node000060_Node000076"><a xlink:title=" ">
<path fill="none" stroke="#63b8ff" d="M367.78,-371.24C359.51,-368.79 351.31,-365.62 344,-361.5 324.01,-350.24 327.84,-336.02 308,-324.5 299.34,-319.47 289.34,-315.75 279.56,-313.01"/>
<polygon fill="#63b8ff" stroke="#63b8ff" points="366.9,-374.63 377.46,-373.8 368.68,-367.86 366.9,-374.63"/>
</a>
</g>
</g>
<!-- Node79 -->
<g id="Node000079" class="node">
<title>Node79</title>
<g id="a_Node000079"><a xlink:href="render__player_8c.html#a051ce5131b81f21321b6a87e84a5dcff" target="_top" xlink:title=" ">
<polygon fill="#fff0f0" stroke="red" points="279.5,-278 187.5,-278 187.5,-259 279.5,-259 279.5,-278"/>
<text text-anchor="middle" x="233.5" y="-266" font-family="Helvetica,sans-Serif" font-size="10.00">func_80020F1C</text>
</a>
</g>
</g>
<!-- Node60&#45;&gt;Node79 -->
<g id="edge37_Node000060_Node000079" class="edge">
<title>Node60&#45;&gt;Node79</title>
<g id="a_edge37_Node000060_Node000079"><a xlink:title=" ">
<path fill="none" stroke="#63b8ff" d="M367.61,-373.56C359.11,-370.84 350.87,-366.97 344,-361.5 315.39,-338.72 336.31,-310.65 308,-287.5 299.94,-280.91 289.85,-276.58 279.76,-273.74"/>
<polygon fill="#63b8ff" stroke="#63b8ff" points="366.7,-376.94 377.27,-376.17 368.53,-370.18 366.7,-376.94"/>
</a>
</g>
</g>
<!-- Node84 -->
<g id="Node000084" class="node">
<title>Node84</title>
<g id="a_Node000084"><a xlink:href="render__player_8c.html#a6c7ddf26f336d61b7f3f472b96d56a23" target="_top" xlink:title=" ">
<polygon fill="#fff0f0" stroke="red" points="279.5,-241 187.5,-241 187.5,-222 279.5,-222 279.5,-241"/>
<text text-anchor="middle" x="233.5" y="-229" font-family="Helvetica,sans-Serif" font-size="10.00">func_80026B4C</text>
</a>
</g>
</g>
<!-- Node83&#45;&gt;Node84 -->
<g id="edge40_Node000083_Node000084" class="edge">
<title>Node83&#45;&gt;Node84</title>
<g id="a_edge40_Node000083_Node000084"><a xlink:title=" ">
<path fill="none" stroke="#63b8ff" d="M366.92,-296.99C358.95,-294.57 351.06,-291.48 344,-287.5 324.01,-276.24 327.84,-262.02 308,-250.5 299.34,-245.47 289.34,-241.75 279.56,-239.01"/>
<polygon fill="#63b8ff" stroke="#63b8ff" points="366.08,-300.39 376.64,-299.61 367.9,-293.63 366.08,-300.39"/>
</a>
</g>
</g>
<!-- Node89 -->
<g id="Node000089" class="node">
<title>Node89</title>
<g id="a_Node000089"><a xlink:href="code__8006E9C0_8c.html#a7035aa35df03a6428e21a10f4472d68e" target="_top" xlink:title=" ">
<polygon fill="white" stroke="#666666" points="279,-204 188,-204 188,-185 279,-185 279,-204"/>
<text text-anchor="middle" x="233.5" y="-192" font-family="Helvetica,sans-Serif" font-size="10.00">func_8006EE44</text>
</a>
</g>
</g>
<!-- Node88&#45;&gt;Node89 -->
<g id="edge42_Node000088_Node000089" class="edge">
<title>Node88&#45;&gt;Node89</title>
<g id="a_edge42_Node000088_Node000089"><a xlink:title=" ">
<path fill="none" stroke="#63b8ff" d="M366.92,-259.99C358.95,-257.57 351.06,-254.48 344,-250.5 324.01,-239.24 327.84,-225.02 308,-213.5 299.22,-208.4 289.08,-204.66 279.18,-201.9"/>
<polygon fill="#63b8ff" stroke="#63b8ff" points="366.08,-263.39 376.64,-262.61 367.9,-256.63 366.08,-263.39"/>
</a>
</g>
</g>
<!-- Node90 -->
<g id="Node000090" class="node">
<title>Node90</title>
<g id="a_Node000090"><a xlink:href="code__8006E9C0_8c.html#a2956212d9a77bb65bd839ca351c3132a" target="_top" xlink:title=" ">
<polygon fill="white" stroke="#666666" points="279,-167 188,-167 188,-148 279,-148 279,-167"/>
<text text-anchor="middle" x="233.5" y="-155" font-family="Helvetica,sans-Serif" font-size="10.00">func_8006EF60</text>
</a>
</g>
</g>
<!-- Node88&#45;&gt;Node90 -->
<g id="edge43_Node000088_Node000090" class="edge">
<title>Node88&#45;&gt;Node90</title>
<g id="a_edge43_Node000088_Node000090"><a xlink:title=" ">
<path fill="none" stroke="#63b8ff" d="M367.05,-262.38C358.74,-259.67 350.72,-255.85 344,-250.5 315.39,-227.72 336.31,-199.65 308,-176.5 299.84,-169.83 289.6,-165.47 279.38,-162.63"/>
<polygon fill="#63b8ff" stroke="#63b8ff" points="366.29,-265.8 376.86,-265.08 368.15,-259.05 366.29,-265.8"/>
</a>
</g>
</g>
<!-- Node92 -->
<g id="Node000092" class="node">
<title>Node92</title>
<g id="a_Node000092"><a xlink:href="update__objects_8c.html#a7ce184a84c4acf9f997a2555c6ab6d8e" target="_top" xlink:title=" ">
<polygon fill="#fff0f0" stroke="red" points="279,-130 188,-130 188,-111 279,-111 279,-130"/>
<text text-anchor="middle" x="233.5" y="-118" font-family="Helvetica,sans-Serif" font-size="10.00">func_80074574</text>
</a>
</g>
</g>
<!-- Node91&#45;&gt;Node92 -->
<g id="edge45_Node000091_Node000092" class="edge">
<title>Node91&#45;&gt;Node92</title>
<g id="a_edge45_Node000091_Node000092"><a xlink:title=" ">
<path fill="none" stroke="#63b8ff" d="M367.61,-225.56C359.11,-222.84 350.87,-218.97 344,-213.5 315.39,-190.72 336.31,-162.65 308,-139.5 299.84,-132.83 289.6,-128.47 279.38,-125.63"/>
<polygon fill="#63b8ff" stroke="#63b8ff" points="366.7,-228.94 377.27,-228.17 368.53,-222.18 366.7,-228.94"/>
</a>
</g>
</g>
<!-- Node104 -->
<g id="Node000104" class="node">
<title>Node104</title>
<g id="a_Node000104"><a xlink:href="memory_8c.html#a2c1ac6461b46f1b2059d2f7aa540cc04" target="_top" xlink:title=" ">
<polygon fill="#fff0f0" stroke="red" points="279.5,-93 187.5,-93 187.5,-74 279.5,-74 279.5,-93"/>
<text text-anchor="middle" x="233.5" y="-81" font-family="Helvetica,sans-Serif" font-size="10.00">func_802A8190</text>
</a>
</g>
</g>
<!-- Node103&#45;&gt;Node104 -->
<g id="edge47_Node000103_Node000104" class="edge">
<title>Node103&#45;&gt;Node104</title>
<g id="a_edge47_Node000103_Node000104"><a xlink:title=" ">
<path fill="none" stroke="#63b8ff" d="M367.02,-188.41C358.72,-185.69 350.71,-181.87 344,-176.5 315.13,-153.39 336.71,-124.8 308,-101.5 299.94,-94.96 289.86,-90.74 279.76,-88.04"/>
<polygon fill="#63b8ff" stroke="#63b8ff" points="366.27,-191.83 376.84,-191.11 368.13,-185.08 366.27,-191.83"/>
</a>
</g>
</g>
</g>
</svg>
