<?xml version="1.0" encoding="UTF-8" standalone="no"?>
<!DOCTYPE svg PUBLIC "-//W3C//DTD SVG 1.1//EN"
 "http://www.w3.org/Graphics/SVG/1.1/DTD/svg11.dtd">
<!-- Generated by graphviz version 2.43.0 (0)
 -->
<!-- Title: osJamMesg Pages: 1 -->
<!--zoomable 1173 -->

<svg id="main" version="1.1" xmlns="http://www.w3.org/2000/svg" xmlns:xlink="http://www.w3.org/1999/xlink" xml:space="preserve" onload="init(evt)">
<style type="text/css"><![CDATA[
.node, .edge {opacity: 0.7;}
.node.selected, .edge.selected {opacity: 1;}
.edge:hover path { stroke: red; }
.edge:hover polygon { stroke: red; fill: red; }
]]></style>

<defs>
  <circle id="rim" cx="0" cy="0" r="7"/>
  <circle id="rim2" cx="0" cy="0" r="3.5"/>
  <g id="zoomPlus">
    <use xlink:href="#rim" fill="#404040"><set attributeName="fill" to="#808080" begin="zoomplus.mouseover" end="zoomplus.mouseout"/></use>
    <path d="M-4,0h8M0,-4v8" fill="none" stroke="white" stroke-width="1.5" pointer-events="none"/>
  </g>
  <g id="zoomMin">
    <use xlink:href="#rim" fill="#404040"><set attributeName="fill" to="#808080" begin="zoomminus.mouseover" end="zoomminus.mouseout"/></use>
    <path d="M-4,0h8" fill="none" stroke="white" stroke-width="1.5" pointer-events="none"/>
  </g>
  <g id="arrowUp" transform="translate(30 24)">
    <use xlink:href="#rim"/>
    <path pointer-events="none" fill="none" stroke="white" stroke-width="1.5" d="M0,-3.0v7 M-2.5,-0.5L0,-3.0L2.5,-0.5"/>
  </g>
  <g id="arrowRight" transform="rotate(90) translate(36 -43)">
    <use xlink:href="#rim"/>
    <path pointer-events="none" fill="none" stroke="white" stroke-width="1.5" d="M0,-3.0v7 M-2.5,-0.5L0,-3.0L2.5,-0.5"/>
  </g>
  <g id="arrowDown" transform="rotate(180) translate(-30 -48)">
    <use xlink:href="#rim"/>
    <path pointer-events="none" fill="none" stroke="white" stroke-width="1.5" d="M0,-3.0v7 M-2.5,-0.5L0,-3.0L2.5,-0.5"/>
  </g>
  <g id="arrowLeft" transform="rotate(270) translate(-36 17)">
    <use xlink:href="#rim"/>
    <path pointer-events="none" fill="none" stroke="white" stroke-width="1.5" d="M0,-3.0v7 M-2.5,-0.5L0,-3.0L2.5,-0.5"/>
  </g>
  <g id="resetDef">
    <use xlink:href="#rim2" fill="#404040"><set attributeName="fill" to="#808080" begin="reset.mouseover" end="reset.mouseout"/></use>
  </g>
</defs>
<script type="application/ecmascript">
var viewWidth = 738;
var viewHeight = 1173;
var sectionId = 'dynsection-2';
</script>
<script type="application/ecmascript" xlink:href="svg.min.js"/>
<svg id="graph" class="graph">
<g id="viewport">
<title>osJamMesg</title>
<!-- Node1 -->
<g id="Node000001" class="node">
<title>Node1</title>
<g id="a_Node000001"><a xlink:title=" ">
<polygon fill="#999999" stroke="#666666" points="730,-389 657,-389 657,-370 730,-370 730,-389"/>
<text text-anchor="middle" x="693.5" y="-377" font-family="Helvetica,sans-Serif" font-size="10.00">osJamMesg</text>
</a>
</g>
</g>
<!-- Node2 -->
<g id="Node000002" class="node">
<title>Node2</title>
<g id="a_Node000002"><a xlink:href="osPiStartDma_8c.html#ae288a36d96a4db6977d95327e246ec12" target="_top" xlink:title=" ">
<polygon fill="white" stroke="#666666" points="621,-389 538,-389 538,-370 621,-370 621,-389"/>
<text text-anchor="middle" x="579.5" y="-377" font-family="Helvetica,sans-Serif" font-size="10.00">osPiStartDma</text>
</a>
</g>
</g>
<!-- Node1&#45;&gt;Node2 -->
<g id="edge1_Node000001_Node000002" class="edge">
<title>Node1&#45;&gt;Node2</title>
<g id="a_edge1_Node000001_Node000002"><a xlink:title=" ">
<path fill="none" stroke="#63b8ff" d="M646.72,-379.5C638.32,-379.5 629.6,-379.5 621.36,-379.5"/>
<polygon fill="#63b8ff" stroke="#63b8ff" points="646.75,-383 656.75,-379.5 646.75,-376 646.75,-383"/>
</a>
</g>
</g>
<!-- Node3 -->
<g id="Node000003" class="node">
<title>Node3</title>
<g id="a_Node000003"><a xlink:href="load_8c.html#a5f475204592707b7fb57147de74f1350" target="_top" xlink:title=" ">
<polygon fill="white" stroke="#666666" points="489.5,-1128 356.5,-1128 356.5,-1109 489.5,-1109 489.5,-1128"/>
<text text-anchor="middle" x="423" y="-1116" font-family="Helvetica,sans-Serif" font-size="10.00">audio_dma_copy_async</text>
</a>
</g>
</g>
<!-- Node2&#45;&gt;Node3 -->
<g id="edge2_Node000002_Node000003" class="edge">
<title>Node2&#45;&gt;Node3</title>
<g id="a_edge2_Node000002_Node000003"><a xlink:title=" ">
<path fill="none" stroke="#63b8ff" d="M578.43,-399.33C577.79,-499.2 571.03,-946.75 502,-1063.5 489.43,-1084.75 465.07,-1099.9 446.9,-1108.84"/>
<polygon fill="#63b8ff" stroke="#63b8ff" points="581.94,-399.17 578.49,-389.15 574.94,-399.13 581.94,-399.17"/>
</a>
</g>
</g>
<!-- Node14 -->
<g id="Node000014" class="node">
<title>Node14</title>
<g id="a_Node000014"><a xlink:href="load_8c.html#a7512c5eea1c942521c019a033b962fd1" target="_top" xlink:title=" ">
<polygon fill="white" stroke="#666666" points="502,-1054 344,-1054 344,-1035 502,-1035 502,-1054"/>
<text text-anchor="middle" x="423" y="-1042" font-family="Helvetica,sans-Serif" font-size="10.00">audio_dma_copy_immediate</text>
</a>
</g>
</g>
<!-- Node2&#45;&gt;Node14 -->
<g id="edge4_Node000002_Node000014" class="edge">
<title>Node2&#45;&gt;Node14</title>
<g id="a_edge4_Node000002_Node000014"><a xlink:title=" ">
<path fill="none" stroke="#63b8ff" d="M578.46,-399.68C577.72,-471.81 570.11,-722.7 502,-914.5 484.65,-963.36 447.81,-1014.01 431.75,-1034.75"/>
<polygon fill="#63b8ff" stroke="#63b8ff" points="581.96,-399.36 578.53,-389.34 574.96,-399.32 581.96,-399.36"/>
</a>
</g>
</g>
<!-- Node28 -->
<g id="Node000028" class="node">
<title>Node28</title>
<g id="a_Node000028"><a xlink:href="load_8c.html#a126f56cab34b7b9a73ab2c42dc3c23e8" target="_top" xlink:title=" ">
<polygon fill="white" stroke="#666666" points="491,-905.5 355,-905.5 355,-875.5 491,-875.5 491,-905.5"/>
<text text-anchor="start" x="363" y="-893.5" font-family="Helvetica,sans-Serif" font-size="10.00">audio_dma_partial_copy</text>
<text text-anchor="middle" x="423" y="-882.5" font-family="Helvetica,sans-Serif" font-size="10.00">_async</text>
</a>
</g>
</g>
<!-- Node2&#45;&gt;Node28 -->
<g id="edge11_Node000002_Node000028" class="edge">
<title>Node2&#45;&gt;Node28</title>
<g id="a_edge11_Node000002_Node000028"><a xlink:title=" ">
<path fill="none" stroke="#63b8ff" d="M577.06,-399.4C572.33,-457.53 554.45,-631.33 502,-764.5 485.03,-807.59 453.36,-852.38 436.05,-875.17"/>
<polygon fill="#63b8ff" stroke="#63b8ff" points="580.58,-399.33 577.86,-389.09 573.6,-398.79 580.58,-399.33"/>
</a>
</g>
</g>
<!-- Node30 -->
<g id="Node000030" class="node">
<title>Node30</title>
<g id="a_Node000030"><a xlink:href="main_8c.html#ae65702968508faa083fb901ff89020d8" target="_top" xlink:title=" ">
<polygon fill="white" stroke="#666666" points="456.5,-755 389.5,-755 389.5,-736 456.5,-736 456.5,-755"/>
<text text-anchor="middle" x="423" y="-743" font-family="Helvetica,sans-Serif" font-size="10.00">dma_copy</text>
</a>
</g>
</g>
<!-- Node2&#45;&gt;Node30 -->
<g id="edge14_Node000002_Node000030" class="edge">
<title>Node2&#45;&gt;Node30</title>
<g id="a_edge14_Node000002_Node000030"><a xlink:title=" ">
<path fill="none" stroke="#63b8ff" d="M576.56,-399.21C571.16,-447.24 552.82,-573.03 502,-663.5 484.87,-693.99 453.85,-721.73 436.54,-735.79"/>
<polygon fill="#63b8ff" stroke="#63b8ff" points="580.05,-399.53 577.63,-389.21 573.09,-398.79 580.05,-399.53"/>
</a>
</g>
</g>
<!-- Node47 -->
<g id="Node000047" class="node">
<title>Node47</title>
<g id="a_Node000047"><a xlink:href="main_8c.html#a8cd2befe9b7f9490d32bf787a7e8d44f" target="_top" xlink:title=" ">
<polygon fill="#fff0f0" stroke="red" points="123,-697 0,-697 0,-678 123,-678 123,-697"/>
<text text-anchor="middle" x="61.5" y="-685" font-family="Helvetica,sans-Serif" font-size="10.00">setup_game_memory</text>
</a>
</g>
</g>
<!-- Node2&#45;&gt;Node47 -->
<g id="edge53_Node000002_Node000047" class="edge">
<title>Node2&#45;&gt;Node47</title>
<g id="a_edge53_Node000002_Node000047"><a xlink:title=" ">
<path fill="none" stroke="#63b8ff" d="M577.24,-399.2C573.49,-440.52 558.8,-536.54 502,-586.5 487.08,-599.62 219.47,-655.44 109.3,-677.99"/>
<polygon fill="#63b8ff" stroke="#63b8ff" points="580.74,-399.32 578.03,-389.08 573.76,-398.78 580.74,-399.32"/>
</a>
</g>
</g>
<!-- Node49 -->
<g id="Node000049" class="node">
<title>Node49</title>
<g id="a_Node000049"><a xlink:href="code__80091750_8c.html#a52ee4b4555f295e2e45eaa852db8ece7" target="_top" xlink:title=" ">
<polygon fill="white" stroke="#666666" points="491.5,-577 354.5,-577 354.5,-558 491.5,-558 491.5,-577"/>
<text text-anchor="middle" x="423" y="-565" font-family="Helvetica,sans-Serif" font-size="10.00">dma_copy_base_729a30</text>
</a>
</g>
</g>
<!-- Node2&#45;&gt;Node49 -->
<g id="edge22_Node000002_Node000049" class="edge">
<title>Node2&#45;&gt;Node49</title>
<g id="a_edge22_Node000002_Node000049"><a xlink:title=" ">
<path fill="none" stroke="#63b8ff" d="M575.39,-399.57C568.73,-435.43 549.63,-510.4 502,-549.5 497.92,-552.85 493.33,-555.6 488.47,-557.86"/>
<polygon fill="#63b8ff" stroke="#63b8ff" points="578.89,-399.84 577.13,-389.4 571.99,-398.66 578.89,-399.84"/>
</a>
</g>
</g>
<!-- Node50 -->
<g id="Node000050" class="node">
<title>Node50</title>
<g id="a_Node000050"><a xlink:href="code__80091750_8c.html#a8ed2c8990531f256c23e002e63f07265" target="_top" xlink:title=" ">
<polygon fill="white" stroke="#666666" points="490,-540 356,-540 356,-521 490,-521 490,-540"/>
<text text-anchor="middle" x="423" y="-528" font-family="Helvetica,sans-Serif" font-size="10.00">dma_copy_base_7fa3c0</text>
</a>
</g>
</g>
<!-- Node2&#45;&gt;Node50 -->
<g id="edge23_Node000002_Node000050" class="edge">
<title>Node2&#45;&gt;Node50</title>
<g id="a_edge23_Node000002_Node000050"><a xlink:title=" ">
<path fill="none" stroke="#63b8ff" d="M572.75,-399.29C563.13,-428.72 540.9,-483.67 502,-512.5 497.42,-515.89 492.31,-518.66 486.95,-520.92"/>
<polygon fill="#63b8ff" stroke="#63b8ff" points="576.21,-399.95 575.82,-389.36 569.52,-397.88 576.21,-399.95"/>
</a>
</g>
</g>
<!-- Node51 -->
<g id="Node000051" class="node">
<title>Node51</title>
<g id="a_Node000051"><a xlink:href="load_8c.html#a61a9e264594f48435c7981c9b17e7505" target="_top" xlink:title=" ">
<polygon fill="white" stroke="#666666" points="476.5,-503 369.5,-503 369.5,-484 476.5,-484 476.5,-503"/>
<text text-anchor="middle" x="423" y="-491" font-family="Helvetica,sans-Serif" font-size="10.00">dma_sample_data</text>
</a>
</g>
</g>
<!-- Node2&#45;&gt;Node51 -->
<g id="edge24_Node000002_Node000051" class="edge">
<title>Node2&#45;&gt;Node51</title>
<g id="a_edge24_Node000002_Node000051"><a xlink:title=" ">
<path fill="none" stroke="#63b8ff" d="M568.77,-398.19C556.32,-420.2 532.64,-456.19 502,-475.5 494.36,-480.32 485.57,-483.85 476.71,-486.44"/>
<polygon fill="#63b8ff" stroke="#63b8ff" points="571.97,-399.63 573.69,-389.18 565.83,-396.28 571.97,-399.63"/>
</a>
</g>
</g>
<!-- Node52 -->
<g id="Node000052" class="node">
<title>Node52</title>
<g id="a_Node000052"><a xlink:href="memory_8c.html#afcd38898313bd6f534b141fc0d6407a6" target="_top" xlink:title=" ">
<polygon fill="white" stroke="#666666" points="465,-466 381,-466 381,-447 465,-447 465,-466"/>
<text text-anchor="middle" x="423" y="-454" font-family="Helvetica,sans-Serif" font-size="10.00">dma_textures</text>
</a>
</g>
</g>
<!-- Node2&#45;&gt;Node52 -->
<g id="edge25_Node000002_Node000052" class="edge">
<title>Node2&#45;&gt;Node52</title>
<g id="a_edge25_Node000002_Node000052"><a xlink:title=" ">
<path fill="none" stroke="#63b8ff" d="M560.1,-396.01C545.34,-408.48 523.58,-425.14 502,-435.5 490.49,-441.02 477.31,-445.27 465.1,-448.46"/>
<polygon fill="#63b8ff" stroke="#63b8ff" points="562.66,-398.43 567.93,-389.24 558.08,-393.14 562.66,-398.43"/>
</a>
</g>
</g>
<!-- Node59 -->
<g id="Node000059" class="node">
<title>Node59</title>
<g id="a_Node000059"><a xlink:href="staff__ghosts_8c.html#a1e6c535e2e2e430c9088d9a634788aba" target="_top" xlink:title=" ">
<polygon fill="white" stroke="#666666" points="468.5,-426 377.5,-426 377.5,-407 468.5,-407 468.5,-426"/>
<text text-anchor="middle" x="423" y="-414" font-family="Helvetica,sans-Serif" font-size="10.00">func_80004EF0</text>
</a>
</g>
</g>
<!-- Node2&#45;&gt;Node59 -->
<g id="edge32_Node000002_Node000059" class="edge">
<title>Node2&#45;&gt;Node59</title>
<g id="a_edge32_Node000002_Node000059"><a xlink:title=" ">
<path fill="none" stroke="#63b8ff" d="M530.69,-391.5C521.19,-393.85 511.28,-396.28 502,-398.5 490.38,-401.28 477.76,-404.23 466.13,-406.91"/>
<polygon fill="#63b8ff" stroke="#63b8ff" points="531.53,-394.9 540.4,-389.1 529.85,-388.11 531.53,-394.9"/>
</a>
</g>
</g>
<!-- Node61 -->
<g id="Node000061" class="node">
<title>Node61</title>
<g id="a_Node000061"><a xlink:href="kart__dma_8c.html#a3a8a3fb83dbcfa193854a6e1d890abbf" target="_top" xlink:title=" ">
<polygon fill="white" stroke="#666666" points="468.5,-389 377.5,-389 377.5,-370 468.5,-370 468.5,-389"/>
<text text-anchor="middle" x="423" y="-377" font-family="Helvetica,sans-Serif" font-size="10.00">func_80027560</text>
</a>
</g>
</g>
<!-- Node2&#45;&gt;Node61 -->
<g id="edge34_Node000002_Node000061" class="edge">
<title>Node2&#45;&gt;Node61</title>
<g id="a_edge34_Node000002_Node000061"><a xlink:title=" ">
<path fill="none" stroke="#63b8ff" d="M527.88,-379.5C508.77,-379.5 487.19,-379.5 468.67,-379.5"/>
<polygon fill="#63b8ff" stroke="#63b8ff" points="527.91,-383 537.91,-379.5 527.91,-376 527.91,-383"/>
</a>
</g>
</g>
<!-- Node83 -->
<g id="Node000083" class="node">
<title>Node83</title>
<g id="a_Node000083"><a xlink:href="kart__dma_8c.html#ae06a1b1a72f72337f689b5d580544cba" target="_top" xlink:title=" ">
<polygon fill="white" stroke="#666666" points="470,-352 376,-352 376,-333 470,-333 470,-352"/>
<text text-anchor="middle" x="423" y="-340" font-family="Helvetica,sans-Serif" font-size="10.00">func_80027BDC</text>
</a>
</g>
</g>
<!-- Node2&#45;&gt;Node83 -->
<g id="edge39_Node000002_Node000083" class="edge">
<title>Node2&#45;&gt;Node83</title>
<g id="a_edge39_Node000002_Node000083"><a xlink:title=" ">
<path fill="none" stroke="#63b8ff" d="M528.7,-367.57C507.75,-362.56 483.69,-356.79 463.92,-352.06"/>
<polygon fill="#63b8ff" stroke="#63b8ff" points="528.17,-371.05 538.71,-369.97 529.8,-364.24 528.17,-371.05"/>
</a>
</g>
</g>
<!-- Node84 -->
<g id="Node000084" class="node">
<title>Node84</title>
<g id="a_Node000084"><a xlink:href="kart__dma_8c.html#a46ca62e9031b9b2a6ebc4b9d83c3b43c" target="_top" xlink:title=" ">
<polygon fill="white" stroke="#666666" points="469,-315 377,-315 377,-296 469,-296 469,-315"/>
<text text-anchor="middle" x="423" y="-303" font-family="Helvetica,sans-Serif" font-size="10.00">func_80027C74</text>
</a>
</g>
</g>
<!-- Node2&#45;&gt;Node84 -->
<g id="edge40_Node000002_Node000084" class="edge">
<title>Node2&#45;&gt;Node84</title>
<g id="a_edge40_Node000002_Node000084"><a xlink:title=" ">
<path fill="none" stroke="#63b8ff" d="M560.12,-363.15C545.36,-350.84 523.62,-334.44 502,-324.5 491.74,-319.78 480.17,-316.15 469.14,-313.38"/>
<polygon fill="#63b8ff" stroke="#63b8ff" points="558.07,-366 567.94,-369.85 562.62,-360.69 558.07,-366"/>
</a>
</g>
</g>
<!-- Node89 -->
<g id="Node000089" class="node">
<title>Node89</title>
<g id="a_Node000089"><a xlink:href="code__8006E9C0_8c.html#a65debd536e9a239c6b4f1ad733b7bdbe" target="_top" xlink:title=" ">
<polygon fill="white" stroke="#666666" points="469,-278 377,-278 377,-259 469,-259 469,-278"/>
<text text-anchor="middle" x="423" y="-266" font-family="Helvetica,sans-Serif" font-size="10.00">func_8006ED94</text>
</a>
</g>
</g>
<!-- Node2&#45;&gt;Node89 -->
<g id="edge42_Node000002_Node000089" class="edge">
<title>Node2&#45;&gt;Node89</title>
<g id="a_edge42_Node000002_Node000089"><a xlink:title=" ">
<path fill="none" stroke="#63b8ff" d="M568.34,-361.32C555.61,-340.27 531.8,-306.1 502,-287.5 492.19,-281.37 480.54,-277.22 469.27,-274.41"/>
<polygon fill="#63b8ff" stroke="#63b8ff" points="565.33,-363.1 573.39,-369.97 571.37,-359.57 565.33,-363.1"/>
</a>
</g>
</g>
<!-- Node92 -->
<g id="Node000092" class="node">
<title>Node92</title>
<g id="a_Node000092"><a xlink:href="update__objects_8c.html#ae1c75502e160df439fc83386eb9cb801" target="_top" xlink:title=" ">
<polygon fill="white" stroke="#666666" points="468.5,-241 377.5,-241 377.5,-222 468.5,-222 468.5,-241"/>
<text text-anchor="middle" x="423" y="-229" font-family="Helvetica,sans-Serif" font-size="10.00">func_80074510</text>
</a>
</g>
</g>
<!-- Node2&#45;&gt;Node92 -->
<g id="edge45_Node000002_Node000092" class="edge">
<title>Node2&#45;&gt;Node92</title>
<g id="a_edge45_Node000002_Node000092"><a xlink:title=" ">
<path fill="none" stroke="#63b8ff" d="M572.53,-360.36C562.63,-331.87 540.04,-278.66 502,-250.5 492.37,-243.37 480.4,-238.88 468.76,-236.07"/>
<polygon fill="#63b8ff" stroke="#63b8ff" points="569.24,-361.57 575.71,-369.96 575.89,-359.37 569.24,-361.57"/>
</a>
</g>
</g>
<!-- Node104 -->
<g id="Node000104" class="node">
<title>Node104</title>
<g id="a_Node000104"><a xlink:href="memory_8c.html#ae7d023f0c1a0b6a8996141ce3b04a287" target="_top" xlink:title=" ">
<polygon fill="#fff0f0" stroke="red" points="469,-204 377,-204 377,-185 469,-185 469,-204"/>
<text text-anchor="middle" x="423" y="-192" font-family="Helvetica,sans-Serif" font-size="10.00">func_802A80B0</text>
</a>
</g>
</g>
<!-- Node2&#45;&gt;Node104 -->
<g id="edge47_Node000002_Node000104" class="edge">
<title>Node2&#45;&gt;Node104</title>
<g id="a_edge47_Node000002_Node000104"><a xlink:title=" ">
<path fill="none" stroke="#63b8ff" d="M575.19,-359.95C568.22,-325.01 548.64,-251.91 502,-213.5 492.75,-205.88 480.91,-201.24 469.27,-198.43"/>
<polygon fill="#63b8ff" stroke="#63b8ff" points="571.76,-360.67 577.03,-369.86 578.65,-359.39 571.76,-360.67"/>
</a>
</g>
</g>
<!-- Node108 -->
<g id="Node000108" class="node">
<title>Node108</title>
<g id="a_Node000108"><a xlink:href="memory_8c.html#a91ad47aa1fa5b5c989f3571fbef579e5" target="_top" xlink:title=" ">
<polygon fill="white" stroke="#666666" points="469,-167 377,-167 377,-148 469,-148 469,-167"/>
<text text-anchor="middle" x="423" y="-155" font-family="Helvetica,sans-Serif" font-size="10.00">func_802A8348</text>
</a>
</g>
</g>
<!-- Node2&#45;&gt;Node108 -->
<g id="edge48_Node000002_Node000108" class="edge">
<title>Node2&#45;&gt;Node108</title>
<g id="a_edge48_Node000002_Node000108"><a xlink:title=" ">
<path fill="none" stroke="#63b8ff" d="M577,-359.66C572.83,-318.93 557.42,-225.56 502,-176.5 492.92,-168.46 481,-163.69 469.23,-160.9"/>
<polygon fill="#63b8ff" stroke="#63b8ff" points="573.52,-360.03 577.91,-369.68 580.5,-359.4 573.52,-360.03"/>
</a>
</g>
</g>
<!-- Node109 -->
<g id="Node000109" class="node">
<title>Node109</title>
<g id="a_Node000109"><a xlink:href="memory_8c.html#a7b12aaf3b5e5b83cb3f2d34398642886" target="_top" xlink:title=" ">
<polygon fill="white" stroke="#666666" points="469,-130 377,-130 377,-111 469,-111 469,-130"/>
<text text-anchor="middle" x="423" y="-118" font-family="Helvetica,sans-Serif" font-size="10.00">func_802A841C</text>
</a>
</g>
</g>
<!-- Node2&#45;&gt;Node109 -->
<g id="edge49_Node000002_Node000109" class="edge">
<title>Node2&#45;&gt;Node109</title>
<g id="a_edge49_Node000002_Node000109"><a xlink:title=" ">
<path fill="none" stroke="#63b8ff" d="M578.42,-359.81C577.12,-313.79 567.14,-198.59 502,-138.5 493.01,-130.21 480.99,-125.49 469.07,-122.87"/>
<polygon fill="#63b8ff" stroke="#63b8ff" points="574.92,-360 578.6,-369.94 581.92,-359.88 574.92,-360"/>
</a>
</g>
</g>
<!-- Node110 -->
<g id="Node000110" class="node">
<title>Node110</title>
<g id="a_Node000110"><a xlink:href="kart__dma_8c.html#a45e203c7a60ac07d226bec0c12c70d89" target="_top" xlink:title=" ">
<polygon fill="#fff0f0" stroke="red" points="473.5,-93 372.5,-93 372.5,-74 473.5,-74 473.5,-93"/>
<text text-anchor="middle" x="423" y="-81" font-family="Helvetica,sans-Serif" font-size="10.00">load_kart_palette</text>
</a>
</g>
</g>
<!-- Node2&#45;&gt;Node110 -->
<g id="edge50_Node000002_Node000110" class="edge">
<title>Node2&#45;&gt;Node110</title>
<g id="a_edge50_Node000002_Node000110"><a xlink:title=" ">
<path fill="none" stroke="#63b8ff" d="M575.71,-359.73C567.24,-302.42 540.02,-137.97 502,-101.5 494.28,-94.09 484.14,-89.51 473.75,-86.73"/>
<polygon fill="#63b8ff" stroke="#63b8ff" points="572.3,-360.58 577.19,-369.97 579.23,-359.57 572.3,-360.58"/>
</a>
</g>
</g>
<!-- Node114 -->
<g id="Node000114" class="node">
<title>Node114</title>
<g id="a_Node000114"><a xlink:href="kart__dma_8c.html#a6c923a042d0b2ff00518dd2dc12fe580" target="_top" xlink:title="Place DMA mio0 compressed character textures in a buffer. Later, this data becomes decompressed.">
<polygon fill="#fff0f0" stroke="red" points="474,-56 372,-56 372,-37 474,-37 474,-56"/>
<text text-anchor="middle" x="423" y="-44" font-family="Helvetica,sans-Serif" font-size="10.00">load_kart_texture</text>
</a>
</g>
</g>
<!-- Node2&#45;&gt;Node114 -->
<g id="edge51_Node000002_Node000114" class="edge">
<title>Node2&#45;&gt;Node114</title>
<g id="a_edge51_Node000002_Node000114"><a xlink:title=" ">
<path fill="none" stroke="#63b8ff" d="M576.38,-359.59C569.33,-297.13 544.67,-106.68 502,-64.5 494.49,-57.07 484.56,-52.47 474.32,-49.67"/>
<polygon fill="#63b8ff" stroke="#63b8ff" points="572.92,-360.14 577.49,-369.7 579.88,-359.38 572.92,-360.14"/>
</a>
</g>
</g>
<!-- Node115 -->
<g id="Node000115" class="node">
<title>Node115</title>
<g id="a_Node000115"><a xlink:href="memory_8c.html#a220674b72225f6ce3a5303f12fe958c6" target="_top" xlink:title=" ">
<polygon fill="#fff0f0" stroke="red" points="452.5,-19 393.5,-19 393.5,0 452.5,0 452.5,-19"/>
<text text-anchor="middle" x="423" y="-7" font-family="Helvetica,sans-Serif" font-size="10.00">MIO0_0F</text>
</a>
</g>
</g>
<!-- Node2&#45;&gt;Node115 -->
<g id="edge52_Node000002_Node000115" class="edge">
<title>Node2&#45;&gt;Node115</title>
<g id="a_edge52_Node000002_Node000115"><a xlink:title=" ">
<path fill="none" stroke="#63b8ff" d="M576.96,-359.93C571.29,-293.12 549.45,-75.56 502,-27.5 489.31,-14.64 469.39,-10.2 452.86,-8.95"/>
<polygon fill="#63b8ff" stroke="#63b8ff" points="573.47,-360.27 577.78,-369.95 580.45,-359.69 573.47,-360.27"/>
</a>
</g>
</g>
<!-- Node4 -->
<g id="Node000004" class="node">
<title>Node4</title>
<g id="a_Node000004"><a xlink:href="load_8c.html#aa397477e6168e682727486138e101461" target="_top" xlink:title=" ">
<polygon fill="#fff0f0" stroke="red" points="295.5,-1165 171.5,-1165 171.5,-1146 295.5,-1146 295.5,-1165"/>
<text text-anchor="middle" x="233.5" y="-1153" font-family="Helvetica,sans-Serif" font-size="10.00">sequence_dma_async</text>
</a>
</g>
</g>
<!-- Node3&#45;&gt;Node4 -->
<g id="edge3_Node000003_Node000004" class="edge">
<title>Node3&#45;&gt;Node4</title>
<g id="a_edge3_Node000003_Node000004"><a xlink:title=" ">
<path fill="none" stroke="#63b8ff" d="M363.64,-1130.02C337.73,-1135.13 307.59,-1141.08 282.95,-1145.94"/>
<polygon fill="#63b8ff" stroke="#63b8ff" points="364.58,-1133.4 373.71,-1128.03 363.23,-1126.53 364.58,-1133.4"/>
</a>
</g>
</g>
<!-- Node14&#45;&gt;Node4 -->
<g id="edge9_Node000014_Node000004" class="edge">
<title>Node14&#45;&gt;Node4</title>
<g id="a_edge9_Node000014_Node000004"><a xlink:title=" ">
<path fill="none" stroke="#63b8ff" d="M398.36,-1059.87C382.46,-1070.59 361.32,-1085.59 344,-1100.5 326.61,-1115.47 327.92,-1126.11 308,-1137.5 302.07,-1140.89 295.52,-1143.65 288.84,-1145.89"/>
<polygon fill="#63b8ff" stroke="#63b8ff" points="400.66,-1062.54 407.05,-1054.09 396.78,-1056.71 400.66,-1062.54"/>
</a>
</g>
</g>
<!-- Node15 -->
<g id="Node000015" class="node">
<title>Node15</title>
<g id="a_Node000015"><a xlink:href="load_8c.html#a50bf1c2ea23d6f19ae9fc9e59ccda202" target="_top" xlink:title=" ">
<polygon fill="#fff0f0" stroke="red" points="296,-1128 171,-1128 171,-1109 296,-1109 296,-1128"/>
<text text-anchor="middle" x="233.5" y="-1116" font-family="Helvetica,sans-Serif" font-size="10.00">bank_load_immediate</text>
</a>
</g>
</g>
<!-- Node14&#45;&gt;Node15 -->
<g id="edge5_Node000014_Node000015" class="edge">
<title>Node14&#45;&gt;Node15</title>
<g id="a_edge5_Node000014_Node000015"><a xlink:title=" ">
<path fill="none" stroke="#63b8ff" d="M396.55,-1058.99C373.9,-1071.4 339.56,-1089.04 308,-1100.5 299.11,-1103.73 289.41,-1106.57 280.05,-1108.98"/>
<polygon fill="#63b8ff" stroke="#63b8ff" points="398.46,-1061.94 405.5,-1054.02 395.06,-1055.82 398.46,-1061.94"/>
</a>
</g>
</g>
<!-- Node18 -->
<g id="Node000018" class="node">
<title>Node18</title>
<g id="a_Node000018"><a xlink:href="heap_8c.html#ae8b7a3aad224c80e7d87654d866666ae" target="_top" xlink:title=" ">
<polygon fill="white" stroke="#666666" points="280,-1091 187,-1091 187,-1072 280,-1072 280,-1091"/>
<text text-anchor="middle" x="233.5" y="-1079" font-family="Helvetica,sans-Serif" font-size="10.00">func_800BA8B0</text>
</a>
</g>
</g>
<!-- Node14&#45;&gt;Node18 -->
<g id="edge6_Node000014_Node000018" class="edge">
<title>Node14&#45;&gt;Node18</title>
<g id="a_edge6_Node000014_Node000018"><a xlink:title=" ">
<path fill="none" stroke="#63b8ff" d="M363.64,-1056.02C336.7,-1061.33 305.19,-1067.55 280.04,-1072.51"/>
<polygon fill="#63b8ff" stroke="#63b8ff" points="364.58,-1059.4 373.71,-1054.03 363.23,-1052.53 364.58,-1059.4"/>
</a>
</g>
</g>
<!-- Node19 -->
<g id="Node000019" class="node">
<title>Node19</title>
<g id="a_Node000019"><a xlink:href="load_8c.html#adf25dc20ccc53783eb999f0adb28b027" target="_top" xlink:title=" ">
<polygon fill="#fff0f0" stroke="red" points="279.5,-1054 187.5,-1054 187.5,-1035 279.5,-1035 279.5,-1054"/>
<text text-anchor="middle" x="233.5" y="-1042" font-family="Helvetica,sans-Serif" font-size="10.00">func_800BB304</text>
</a>
</g>
</g>
<!-- Node14&#45;&gt;Node19 -->
<g id="edge7_Node000014_Node000019" class="edge">
<title>Node14&#45;&gt;Node19</title>
<g id="a_edge7_Node000014_Node000019"><a xlink:title=" ">
<path fill="none" stroke="#63b8ff" d="M333.77,-1044.5C314.99,-1044.5 295.92,-1044.5 279.59,-1044.5"/>
<polygon fill="#63b8ff" stroke="#63b8ff" points="333.84,-1048 343.84,-1044.5 333.84,-1041 333.84,-1048"/>
</a>
</g>
</g>
<!-- Node21 -->
<g id="Node000021" class="node">
<title>Node21</title>
<g id="a_Node000021"><a xlink:href="load_8c.html#acbb441247e4f7d446c35a14bd75b61d6" target="_top" xlink:title=" ">
<polygon fill="#fff0f0" stroke="red" points="272.5,-1017 194.5,-1017 194.5,-998 272.5,-998 272.5,-1017"/>
<text text-anchor="middle" x="233.5" y="-1005" font-family="Helvetica,sans-Serif" font-size="10.00">patch_sound</text>
</a>
</g>
</g>
<!-- Node14&#45;&gt;Node21 -->
<g id="edge8_Node000014_Node000021" class="edge">
<title>Node14&#45;&gt;Node21</title>
<g id="a_edge8_Node000014_Node000021"><a xlink:title=" ">
<path fill="none" stroke="#63b8ff" d="M363.87,-1033.03C334.14,-1027.16 298.8,-1020.19 272.57,-1015.01"/>
<polygon fill="#63b8ff" stroke="#63b8ff" points="363.23,-1036.47 373.71,-1034.97 364.58,-1029.6 363.23,-1036.47"/>
</a>
</g>
</g>
<!-- Node27 -->
<g id="Node000027" class="node">
<title>Node27</title>
<g id="a_Node000027"><a xlink:href="load_8c.html#a1cd6d11794b341d8e9d9e9330305c60f" target="_top" xlink:title=" ">
<polygon fill="#fff0f0" stroke="red" points="308,-980 159,-980 159,-961 308,-961 308,-980"/>
<text text-anchor="middle" x="233.5" y="-968" font-family="Helvetica,sans-Serif" font-size="10.00">sequence_dma_immediate</text>
</a>
</g>
</g>
<!-- Node14&#45;&gt;Node27 -->
<g id="edge10_Node000014_Node000027" class="edge">
<title>Node14&#45;&gt;Node27</title>
<g id="a_edge10_Node000014_Node000027"><a xlink:title=" ">
<path fill="none" stroke="#63b8ff" d="M395.7,-1029.97C372.99,-1017.89 339.05,-1000.88 308,-989.5 298.22,-985.92 287.48,-982.74 277.3,-980.05"/>
<polygon fill="#63b8ff" stroke="#63b8ff" points="394.23,-1033.16 404.7,-1034.82 397.55,-1027 394.23,-1033.16"/>
</a>
</g>
</g>
<!-- Node29 -->
<g id="Node000029" class="node">
<title>Node29</title>
<g id="a_Node000029"><a xlink:href="load_8c.html#a16ddfd81ca9e185b484920b7eb9d70d7" target="_top" xlink:title=" ">
<polygon fill="#fff0f0" stroke="red" points="284,-943 183,-943 183,-924 284,-924 284,-943"/>
<text text-anchor="middle" x="233.5" y="-931" font-family="Helvetica,sans-Serif" font-size="10.00">bank_load_async</text>
</a>
</g>
</g>
<!-- Node28&#45;&gt;Node29 -->
<g id="edge12_Node000028_Node000029" class="edge">
<title>Node28&#45;&gt;Node29</title>
<g id="a_edge12_Node000028_Node000029"><a xlink:title=" ">
<path fill="none" stroke="#63b8ff" d="M346.58,-907.8C322.51,-913.32 296.76,-919.22 276.02,-923.98"/>
<polygon fill="#63b8ff" stroke="#63b8ff" points="347.46,-911.19 356.42,-905.54 345.89,-904.36 347.46,-911.19"/>
</a>
</g>
</g>
<!-- Node24 -->
<g id="Node000024" class="node">
<title>Node24</title>
<g id="a_Node000024"><a xlink:href="seqplayer_8c.html#a057e95b47ecbd1b645b1ef457f3854d9" target="_top" xlink:title=" ">
<polygon fill="#fff0f0" stroke="red" points="304.5,-905.5 162.5,-905.5 162.5,-875.5 304.5,-875.5 304.5,-905.5"/>
<text text-anchor="start" x="170.5" y="-893.5" font-family="Helvetica,sans-Serif" font-size="10.00">sequence_player_process</text>
<text text-anchor="middle" x="233.5" y="-882.5" font-family="Helvetica,sans-Serif" font-size="10.00">_sequence</text>
</a>
</g>
</g>
<!-- Node28&#45;&gt;Node24 -->
<g id="edge13_Node000028_Node000024" class="edge">
<title>Node28&#45;&gt;Node24</title>
<g id="a_edge13_Node000028_Node000024"><a xlink:title=" ">
<path fill="none" stroke="#63b8ff" d="M344.79,-890.5C331.5,-890.5 317.76,-890.5 304.67,-890.5"/>
<polygon fill="#63b8ff" stroke="#63b8ff" points="344.84,-894 354.84,-890.5 344.84,-887 344.84,-894"/>
</a>
</g>
</g>
<!-- Node31 -->
<g id="Node000031" class="node">
<title>Node31</title>
<g id="a_Node000031"><a xlink:href="memory_8c.html#a55df5934da66daade2d48fa82f079cd7" target="_top" xlink:title=" ">
<polygon fill="#fff0f0" stroke="red" points="298,-857 169,-857 169,-838 298,-838 298,-857"/>
<text text-anchor="middle" x="233.5" y="-845" font-family="Helvetica,sans-Serif" font-size="10.00">decompress_segments</text>
</a>
</g>
</g>
<!-- Node30&#45;&gt;Node31 -->
<g id="edge15_Node000030_Node000031" class="edge">
<title>Node30&#45;&gt;Node31</title>
<g id="a_edge15_Node000030_Node000031"><a xlink:title=" ">
<path fill="none" stroke="#63b8ff" d="M404.34,-762.04C383.09,-781.07 345.55,-811.93 308,-829.5 300.74,-832.9 292.77,-835.7 284.83,-837.99"/>
<polygon fill="#63b8ff" stroke="#63b8ff" points="406.87,-764.47 411.91,-755.15 402.16,-759.29 406.87,-764.47"/>
</a>
</g>
</g>
<!-- Node43 -->
<g id="Node000043" class="node">
<title>Node43</title>
<g id="a_Node000043"><a xlink:href="memory_8c.html#a9e2803f771e059a215c0b229f3fb5e06" target="_top" xlink:title="Returns pointer to mio0 compressed Vtx.">
<polygon fill="#fff0f0" stroke="red" points="295.5,-820 171.5,-820 171.5,-801 295.5,-801 295.5,-820"/>
<text text-anchor="middle" x="233.5" y="-808" font-family="Helvetica,sans-Serif" font-size="10.00">dma_compressed_vtx</text>
</a>
</g>
</g>
<!-- Node30&#45;&gt;Node43 -->
<g id="edge16_Node000030_Node000043" class="edge">
<title>Node30&#45;&gt;Node43</title>
<g id="a_edge16_Node000030_Node000043"><a xlink:title=" ">
<path fill="none" stroke="#63b8ff" d="M391.01,-759.28C368.31,-769.06 336.61,-782.08 308,-791.5 297.48,-794.96 285.96,-798.2 275.21,-800.99"/>
<polygon fill="#63b8ff" stroke="#63b8ff" points="392.68,-762.37 400.46,-755.18 389.89,-755.95 392.68,-762.37"/>
</a>
</g>
</g>
<!-- Node44 -->
<g id="Node000044" class="node">
<title>Node44</title>
<g id="a_Node000044"><a xlink:href="main_8c.html#aaa9b0b2906469c5fb91cc673efcd2686" target="_top" xlink:title=" ">
<polygon fill="#fff0f0" stroke="red" points="293,-782.5 174,-782.5 174,-752.5 293,-752.5 293,-782.5"/>
<text text-anchor="start" x="182" y="-770.5" font-family="Helvetica,sans-Serif" font-size="10.00">init_segment_ending</text>
<text text-anchor="middle" x="233.5" y="-759.5" font-family="Helvetica,sans-Serif" font-size="10.00">_sequences</text>
</a>
</g>
</g>
<!-- Node30&#45;&gt;Node44 -->
<g id="edge17_Node000030_Node000044" class="edge">
<title>Node30&#45;&gt;Node44</title>
<g id="a_edge17_Node000030_Node000044"><a xlink:title=" ">
<path fill="none" stroke="#63b8ff" d="M379.26,-750.51C353.81,-753.5 321.14,-757.33 293.28,-760.6"/>
<polygon fill="#63b8ff" stroke="#63b8ff" points="379.82,-753.97 389.34,-749.33 379,-747.02 379.82,-753.97"/>
</a>
</g>
</g>
<!-- Node45 -->
<g id="Node000045" class="node">
<title>Node45</title>
<g id="a_Node000045"><a xlink:href="main_8c.html#a0251c90fb83072f3510a39e2f1b3e980" target="_top" xlink:title=" ">
<polygon fill="#fff0f0" stroke="red" points="291.5,-734 175.5,-734 175.5,-715 291.5,-715 291.5,-734"/>
<text text-anchor="middle" x="233.5" y="-722" font-family="Helvetica,sans-Serif" font-size="10.00">init_segment_racing</text>
</a>
</g>
</g>
<!-- Node30&#45;&gt;Node45 -->
<g id="edge18_Node000030_Node000045" class="edge">
<title>Node30&#45;&gt;Node45</title>
<g id="a_edge18_Node000030_Node000045"><a xlink:title=" ">
<path fill="none" stroke="#63b8ff" d="M379.09,-740.69C353.2,-737.79 319.9,-734.06 291.77,-730.91"/>
<polygon fill="#63b8ff" stroke="#63b8ff" points="379.01,-744.21 389.34,-741.84 379.79,-737.25 379.01,-744.21"/>
</a>
</g>
</g>
<!-- Node48 -->
<g id="Node000048" class="node">
<title>Node48</title>
<g id="a_Node000048"><a xlink:href="memory_8c.html#a39fa43d59922488da06f0709f5ded15c" target="_top" xlink:title="Allocate and DMA.">
<polygon fill="#fff0f0" stroke="red" points="266,-697 201,-697 201,-678 266,-678 266,-697"/>
<text text-anchor="middle" x="233.5" y="-685" font-family="Helvetica,sans-Serif" font-size="10.00">load_data</text>
</a>
</g>
</g>
<!-- Node30&#45;&gt;Node48 -->
<g id="edge20_Node000030_Node000048" class="edge">
<title>Node30&#45;&gt;Node48</title>
<g id="a_edge20_Node000030_Node000048"><a xlink:title=" ">
<path fill="none" stroke="#63b8ff" d="M386.49,-732.57C364.11,-724.61 334.53,-714.45 308,-706.5 294.37,-702.41 279.15,-698.39 266.12,-695.11"/>
<polygon fill="#63b8ff" stroke="#63b8ff" points="385.33,-735.87 395.92,-735.94 387.69,-729.28 385.33,-735.87"/>
</a>
</g>
</g>
<!-- Node45&#45;&gt;Node47 -->
<g id="edge19_Node000045_Node000047" class="edge">
<title>Node45&#45;&gt;Node47</title>
<g id="a_edge19_Node000045_Node000047"><a xlink:title=" ">
<path fill="none" stroke="#63b8ff" d="M178.65,-712.78C155.37,-707.71 128.47,-701.86 106.43,-697.06"/>
<polygon fill="#63b8ff" stroke="#63b8ff" points="178.21,-716.26 188.72,-714.97 179.69,-709.42 178.21,-716.26"/>
</a>
</g>
</g>
<!-- Node48&#45;&gt;Node47 -->
<g id="edge21_Node000048_Node000047" class="edge">
<title>Node48&#45;&gt;Node47</title>
<g id="a_edge21_Node000048_Node000047"><a xlink:title=" ">
<path fill="none" stroke="#63b8ff" d="M190.73,-687.5C170.39,-687.5 145.55,-687.5 123.16,-687.5"/>
<polygon fill="#63b8ff" stroke="#63b8ff" points="190.92,-691 200.92,-687.5 190.92,-684 190.92,-691"/>
</a>
</g>
</g>
<!-- Node53 -->
<g id="Node000053" class="node">
<title>Node53</title>
<g id="a_Node000053"><a xlink:href="code__800029B0_8c.html#aed19d831d4870c51cb5be8739574abbe" target="_top" xlink:title=" ">
<polygon fill="#fff0f0" stroke="red" points="279,-621 188,-621 188,-602 279,-602 279,-621"/>
<text text-anchor="middle" x="233.5" y="-609" font-family="Helvetica,sans-Serif" font-size="10.00">func_80003040</text>
</a>
</g>
</g>
<!-- Node52&#45;&gt;Node53 -->
<g id="edge26_Node000052_Node000053" class="edge">
<title>Node52&#45;&gt;Node53</title>
<g id="a_edge26_Node000052_Node000053"><a xlink:title=" ">
<path fill="none" stroke="#63b8ff" d="M370.95,-460.98C361.05,-463.91 351.45,-468.47 344,-475.5 304.14,-513.15 347.84,-555.83 308,-593.5 300.17,-600.9 289.82,-605.41 279.36,-608.12"/>
<polygon fill="#63b8ff" stroke="#63b8ff" points="372,-464.32 380.89,-458.56 370.34,-457.52 372,-464.32"/>
</a>
</g>
</g>
<!-- Node54 -->
<g id="Node000054" class="node">
<title>Node54</title>
<g id="a_Node000054"><a xlink:href="code__80057C60_8c.html#a07b43c07e7afcf3fcccf63622bb991e1" target="_top" xlink:title=" ">
<polygon fill="#fff0f0" stroke="red" points="279.5,-584 187.5,-584 187.5,-565 279.5,-565 279.5,-584"/>
<text text-anchor="middle" x="233.5" y="-572" font-family="Helvetica,sans-Serif" font-size="10.00">func_8005D290</text>
</a>
</g>
</g>
<!-- Node52&#45;&gt;Node54 -->
<g id="edge27_Node000052_Node000054" class="edge">
<title>Node52&#45;&gt;Node54</title>
<g id="a_edge27_Node000052_Node000054"><a xlink:title=" ">
<path fill="none" stroke="#63b8ff" d="M370.98,-461.87C361.24,-464.75 351.7,-469.07 344,-475.5 313.76,-500.75 338.22,-531.23 308,-556.5 299.94,-563.24 289.74,-567.53 279.52,-570.23"/>
<polygon fill="#63b8ff" stroke="#63b8ff" points="371.86,-465.26 380.72,-459.44 370.17,-458.46 371.86,-465.26"/>
</a>
</g>
</g>
<!-- Node56 -->
<g id="Node000056" class="node">
<title>Node56</title>
<g id="a_Node000056"><a xlink:href="code__8006E9C0_8c.html#ac35f9951d9cd04d4e9bf188746bc9c58" target="_top" xlink:title=" ">
<polygon fill="white" stroke="#666666" points="279,-547 188,-547 188,-528 279,-528 279,-547"/>
<text text-anchor="middle" x="233.5" y="-535" font-family="Helvetica,sans-Serif" font-size="10.00">func_8006EEE8</text>
</a>
</g>
</g>
<!-- Node52&#45;&gt;Node56 -->
<g id="edge28_Node000052_Node000056" class="edge">
<title>Node52&#45;&gt;Node56</title>
<g id="a_edge28_Node000052_Node000056"><a xlink:title=" ">
<path fill="none" stroke="#63b8ff" d="M370.67,-464.55C361.42,-467.22 352.15,-470.77 344,-475.5 323.88,-487.17 327.66,-501.06 308,-513.5 298.24,-519.67 286.75,-524.4 275.78,-527.97"/>
<polygon fill="#63b8ff" stroke="#63b8ff" points="371.83,-467.86 380.64,-461.98 370.08,-461.09 371.83,-467.86"/>
</a>
</g>
</g>
<!-- Node57 -->
<g id="Node000057" class="node">
<title>Node57</title>
<g id="a_Node000057"><a xlink:href="code__8006E9C0_8c.html#addcb705e0abe102e25517666b6a1eb84" target="_top" xlink:title=" ">
<polygon fill="white" stroke="#666666" points="107,-528 16,-528 16,-509 107,-509 107,-528"/>
<text text-anchor="middle" x="61.5" y="-516" font-family="Helvetica,sans-Serif" font-size="10.00">func_8006F008</text>
</a>
</g>
</g>
<!-- Node52&#45;&gt;Node57 -->
<g id="edge30_Node000052_Node000057" class="edge">
<title>Node52&#45;&gt;Node57</title>
<g id="a_edge30_Node000052_Node000057"><a xlink:title=" ">
<path fill="none" stroke="#63b8ff" d="M370.98,-467.85C351.34,-472.06 328.67,-476.73 308,-480.5 238.21,-493.24 156.74,-505.3 107.42,-512.29"/>
<polygon fill="#63b8ff" stroke="#63b8ff" points="371.91,-471.23 380.95,-465.7 370.43,-464.39 371.91,-471.23"/>
</a>
</g>
</g>
<!-- Node58 -->
<g id="Node000058" class="node">
<title>Node58</title>
<g id="a_Node000058"><a xlink:href="actors_8c.html#a142a32371ea62d0303702286b839bdfd" target="_top" xlink:title="Loads actor textures, course specific actor textures. Calls to init_course_vehicles and place_course_...">
<polygon fill="#fff0f0" stroke="red" points="292,-471.5 175,-471.5 175,-441.5 292,-441.5 292,-471.5"/>
<text text-anchor="start" x="183" y="-459.5" font-family="Helvetica,sans-Serif" font-size="10.00">init_actors_and_load</text>
<text text-anchor="middle" x="233.5" y="-448.5" font-family="Helvetica,sans-Serif" font-size="10.00">_textures</text>
</a>
</g>
</g>
<!-- Node52&#45;&gt;Node58 -->
<g id="edge31_Node000052_Node000058" class="edge">
<title>Node52&#45;&gt;Node58</title>
<g id="a_edge31_Node000052_Node000058"><a xlink:title=" ">
<path fill="none" stroke="#63b8ff" d="M370.76,-456.5C346.47,-456.5 317.34,-456.5 292.27,-456.5"/>
<polygon fill="#63b8ff" stroke="#63b8ff" points="370.85,-460 380.85,-456.5 370.85,-453 370.85,-460"/>
</a>
</g>
</g>
<!-- Node56&#45;&gt;Node57 -->
<g id="edge29_Node000056_Node000057" class="edge">
<title>Node56&#45;&gt;Node57</title>
<g id="a_edge29_Node000056_Node000057"><a xlink:title=" ">
<path fill="none" stroke="#63b8ff" d="M177.63,-531.37C154.85,-528.82 128.74,-525.9 107.16,-523.49"/>
<polygon fill="#63b8ff" stroke="#63b8ff" points="177.51,-534.88 187.83,-532.51 178.29,-527.92 177.51,-534.88"/>
</a>
</g>
</g>
<!-- Node60 -->
<g id="Node000060" class="node">
<title>Node60</title>
<g id="a_Node000060"><a xlink:href="staff__ghosts_8c.html#ad3fe55bff348a8b6cfc02f327bda8544" target="_top" xlink:title=" ">
<polygon fill="#fff0f0" stroke="red" points="279,-423 188,-423 188,-404 279,-404 279,-423"/>
<text text-anchor="middle" x="233.5" y="-411" font-family="Helvetica,sans-Serif" font-size="10.00">func_80005310</text>
</a>
</g>
</g>
<!-- Node59&#45;&gt;Node60 -->
<g id="edge33_Node000059_Node000060" class="edge">
<title>Node59&#45;&gt;Node60</title>
<g id="a_edge33_Node000059_Node000060"><a xlink:title=" ">
<path fill="none" stroke="#63b8ff" d="M367.05,-415.62C339.04,-415.17 305.42,-414.63 279.04,-414.21"/>
<polygon fill="#63b8ff" stroke="#63b8ff" points="367.03,-419.12 377.09,-415.78 367.15,-412.12 367.03,-419.12"/>
</a>
</g>
</g>
<!-- Node62 -->
<g id="Node000062" class="node">
<title>Node62</title>
<g id="a_Node000062"><a xlink:href="render__player_8c.html#aa48ec7ff2a347fb6035ad10ceebb7291" target="_top" xlink:title=" ">
<polygon fill="#fff0f0" stroke="red" points="279,-386 188,-386 188,-367 279,-367 279,-386"/>
<text text-anchor="middle" x="233.5" y="-374" font-family="Helvetica,sans-Serif" font-size="10.00">func_80020524</text>
</a>
</g>
</g>
<!-- Node61&#45;&gt;Node62 -->
<g id="edge35_Node000061_Node000062" class="edge">
<title>Node61&#45;&gt;Node62</title>
<g id="a_edge35_Node000061_Node000062"><a xlink:title=" ">
<path fill="none" stroke="#63b8ff" d="M367.05,-378.62C339.04,-378.17 305.42,-377.63 279.04,-377.21"/>
<polygon fill="#63b8ff" stroke="#63b8ff" points="367.03,-382.12 377.09,-378.78 367.15,-375.12 367.03,-382.12"/>
</a>
</g>
</g>
<!-- Node72 -->
<g id="Node000072" class="node">
<title>Node72</title>
<g id="a_Node000072"><a xlink:href="render__player_8c.html#aea46313da3b14a71e126d88df766b2c2" target="_top" xlink:title=" ">
<polygon fill="#fff0f0" stroke="red" points="279.5,-349 187.5,-349 187.5,-330 279.5,-330 279.5,-349"/>
<text text-anchor="middle" x="233.5" y="-337" font-family="Helvetica,sans-Serif" font-size="10.00">func_8002088C</text>
</a>
</g>
</g>
<!-- Node61&#45;&gt;Node72 -->
<g id="edge36_Node000061_Node000072" class="edge">
<title>Node61&#45;&gt;Node72</title>
<g id="a_edge36_Node000061_Node000072"><a xlink:title=" ">
<path fill="none" stroke="#63b8ff" d="M367.05,-367.78C339.04,-361.8 305.42,-354.63 279.04,-349"/>
<polygon fill="#63b8ff" stroke="#63b8ff" points="366.58,-371.26 377.09,-369.92 368.04,-364.41 366.58,-371.26"/>
</a>
</g>
</g>
<!-- Node77 -->
<g id="Node000077" class="node">
<title>Node77</title>
<g id="a_Node000077"><a xlink:href="render__player_8c.html#a0168d37a71ccb859723becdd647e64b2" target="_top" xlink:title=" ">
<polygon fill="#fff0f0" stroke="red" points="279.5,-312 187.5,-312 187.5,-293 279.5,-293 279.5,-312"/>
<text text-anchor="middle" x="233.5" y="-300" font-family="Helvetica,sans-Serif" font-size="10.00">func_80020BF4</text>
</a>
</g>
</g>
<!-- Node61&#45;&gt;Node77 -->
<g id="edge37_Node000061_Node000077" class="edge">
<title>Node61&#45;&gt;Node77</title>
<g id="a_edge37_Node000061_Node000077"><a xlink:title=" ">
<path fill="none" stroke="#63b8ff" d="M367.63,-371.49C359.39,-369.01 351.23,-365.76 344,-361.5 323.39,-349.36 328.45,-333.91 308,-321.5 299.44,-316.3 289.48,-312.52 279.71,-309.76"/>
<polygon fill="#63b8ff" stroke="#63b8ff" points="366.74,-374.88 377.3,-374.07 368.54,-368.11 366.74,-374.88"/>
</a>
</g>
</g>
<!-- Node80 -->
<g id="Node000080" class="node">
<title>Node80</title>
<g id="a_Node000080"><a xlink:href="render__player_8c.html#a051ce5131b81f21321b6a87e84a5dcff" target="_top" xlink:title=" ">
<polygon fill="#fff0f0" stroke="red" points="279.5,-275 187.5,-275 187.5,-256 279.5,-256 279.5,-275"/>
<text text-anchor="middle" x="233.5" y="-263" font-family="Helvetica,sans-Serif" font-size="10.00">func_80020F1C</text>
</a>
</g>
</g>
<!-- Node61&#45;&gt;Node80 -->
<g id="edge38_Node000061_Node000080" class="edge">
<title>Node61&#45;&gt;Node80</title>
<g id="a_edge38_Node000061_Node000080"><a xlink:title=" ">
<path fill="none" stroke="#63b8ff" d="M367.54,-373.65C359.04,-370.92 350.83,-367.02 344,-361.5 314.63,-337.74 337.06,-308.64 308,-284.5 299.99,-277.85 289.93,-273.49 279.84,-270.65"/>
<polygon fill="#63b8ff" stroke="#63b8ff" points="366.63,-377.03 377.19,-376.27 368.46,-370.27 366.63,-377.03"/>
</a>
</g>
</g>
<!-- Node85 -->
<g id="Node000085" class="node">
<title>Node85</title>
<g id="a_Node000085"><a xlink:href="render__player_8c.html#a6c7ddf26f336d61b7f3f472b96d56a23" target="_top" xlink:title=" ">
<polygon fill="#fff0f0" stroke="red" points="279.5,-238 187.5,-238 187.5,-219 279.5,-219 279.5,-238"/>
<text text-anchor="middle" x="233.5" y="-226" font-family="Helvetica,sans-Serif" font-size="10.00">func_80026B4C</text>
</a>
</g>
</g>
<!-- Node84&#45;&gt;Node85 -->
<g id="edge41_Node000084_Node000085" class="edge">
<title>Node84&#45;&gt;Node85</title>
<g id="a_edge41_Node000084_Node000085"><a xlink:title=" ">
<path fill="none" stroke="#63b8ff" d="M367.07,-297.32C359.02,-294.86 351.07,-291.66 344,-287.5 323.39,-275.36 328.45,-259.91 308,-247.5 299.44,-242.3 289.48,-238.52 279.71,-235.76"/>
<polygon fill="#63b8ff" stroke="#63b8ff" points="366.33,-300.75 376.9,-299.97 368.15,-293.99 366.33,-300.75"/>
</a>
</g>
</g>
<!-- Node90 -->
<g id="Node000090" class="node">
<title>Node90</title>
<g id="a_Node000090"><a xlink:href="code__8006E9C0_8c.html#a7035aa35df03a6428e21a10f4472d68e" target="_top" xlink:title=" ">
<polygon fill="white" stroke="#666666" points="279,-201 188,-201 188,-182 279,-182 279,-201"/>
<text text-anchor="middle" x="233.5" y="-189" font-family="Helvetica,sans-Serif" font-size="10.00">func_8006EE44</text>
</a>
</g>
</g>
<!-- Node89&#45;&gt;Node90 -->
<g id="edge43_Node000089_Node000090" class="edge">
<title>Node89&#45;&gt;Node90</title>
<g id="a_edge43_Node000089_Node000090"><a xlink:title=" ">
<path fill="none" stroke="#63b8ff" d="M367.07,-260.32C359.02,-257.86 351.07,-254.66 344,-250.5 323.39,-238.36 328.45,-222.91 308,-210.5 299.32,-205.23 289.22,-201.42 279.33,-198.65"/>
<polygon fill="#63b8ff" stroke="#63b8ff" points="366.33,-263.75 376.9,-262.97 368.15,-256.99 366.33,-263.75"/>
</a>
</g>
</g>
<!-- Node91 -->
<g id="Node000091" class="node">
<title>Node91</title>
<g id="a_Node000091"><a xlink:href="code__8006E9C0_8c.html#a2956212d9a77bb65bd839ca351c3132a" target="_top" xlink:title=" ">
<polygon fill="white" stroke="#666666" points="279,-164 188,-164 188,-145 279,-145 279,-164"/>
<text text-anchor="middle" x="233.5" y="-152" font-family="Helvetica,sans-Serif" font-size="10.00">func_8006EF60</text>
</a>
</g>
</g>
<!-- Node89&#45;&gt;Node91 -->
<g id="edge44_Node000089_Node000091" class="edge">
<title>Node89&#45;&gt;Node91</title>
<g id="a_edge44_Node000089_Node000091"><a xlink:title=" ">
<path fill="none" stroke="#63b8ff" d="M366.98,-262.47C358.68,-259.75 350.68,-255.9 344,-250.5 314.63,-226.74 337.06,-197.64 308,-173.5 299.79,-166.68 289.41,-162.27 279.07,-159.43"/>
<polygon fill="#63b8ff" stroke="#63b8ff" points="366.22,-265.89 376.79,-265.17 368.08,-259.14 366.22,-265.89"/>
</a>
</g>
</g>
<!-- Node93 -->
<g id="Node000093" class="node">
<title>Node93</title>
<g id="a_Node000093"><a xlink:href="update__objects_8c.html#a7ce184a84c4acf9f997a2555c6ab6d8e" target="_top" xlink:title=" ">
<polygon fill="#fff0f0" stroke="red" points="279,-127 188,-127 188,-108 279,-108 279,-127"/>
<text text-anchor="middle" x="233.5" y="-115" font-family="Helvetica,sans-Serif" font-size="10.00">func_80074574</text>
</a>
</g>
</g>
<!-- Node92&#45;&gt;Node93 -->
<g id="edge46_Node000092_Node000093" class="edge">
<title>Node92&#45;&gt;Node93</title>
<g id="a_edge46_Node000092_Node000093"><a xlink:title=" ">
<path fill="none" stroke="#63b8ff" d="M367.52,-225.68C359.02,-222.94 350.82,-219.04 344,-213.5 314.37,-189.42 337.46,-159.78 308,-135.5 299.79,-128.73 289.41,-124.45 279.07,-121.75"/>
<polygon fill="#63b8ff" stroke="#63b8ff" points="366.6,-229.06 377.17,-228.3 368.43,-222.3 366.6,-229.06"/>
</a>
</g>
</g>
</g>
</svg>

<g id="navigator" transform="translate(0 0)" fill="#404254">
  <rect fill="#f2f5e9" fill-opacity="0.5" stroke="#606060" stroke-width=".5" x="0" y="0" width="60" height="60"/>
  <use id="zoomplus" xlink:href="#zoomPlus" x="17" y="9" onmousedown="handleZoom(evt,'in')"/>
  <use id="zoomminus" xlink:href="#zoomMin" x="42" y="9" onmousedown="handleZoom(evt,'out')"/>
  <use id="reset" xlink:href="#resetDef" x="30" y="36" onmousedown="handleReset()"/>
   <use id="arrowup" xlink:href="#arrowUp" x="0" y="0" onmousedown="handlePan(0,-1)"/>
  <use id="arrowright" xlink:href="#arrowRight" x="0" y="0" onmousedown="handlePan(1,0)"/>
  <use id="arrowdown" xlink:href="#arrowDown" x="0" y="0" onmousedown="handlePan(0,1)"/>
  <use id="arrowleft" xlink:href="#arrowLeft" x="0" y="0" onmousedown="handlePan(-1,0)"/>
</g>
<svg viewBox="0 0 15 15" width="100%" height="30px" preserveAspectRatio="xMaxYMin meet">
 <g id="arrow_out" transform="scale(0.3 0.3)">
  <a xlink:href="osJamMesg_8c_ac69f7738a5120910a2f6202d27fb44f4_icgraph_org.svg" target="_base">
   <rect id="button" ry="5" rx="5" y="6" x="6" height="38" width="38"
        fill="#f2f5e9" fill-opacity="0.5" stroke="#606060" stroke-width="1.0"/>
   <path id="arrow"
     d="M 11.500037,31.436501 C 11.940474,20.09759 22.043105,11.32322 32.158766,21.979434 L 37.068811,17.246167 C 37.068811,17.246167 37.088388,32 37.088388,32 L 22.160133,31.978069 C 22.160133,31.978069 26.997745,27.140456 26.997745,27.140456 C 18.528582,18.264221 13.291696,25.230495 11.500037,31.436501 z"
     style="fill:#404040;"/>
  </a>
 </g>
</svg>

<style type='text/css'>
<![CDATA[
[data-mouse-over-selected='false'] { opacity: 0.7; }
[data-mouse-over-selected='true']  { opacity: 1.0; }
]]>
</style>
<script type="application/ecmascript"><![CDATA[
document.addEventListener('DOMContentLoaded', (event) => {
  highlightEdges();
  highlightAdjacentNodes();
});
]]></script>
</svg>
