<?xml version="1.0" encoding="UTF-8" standalone="no"?>
<!DOCTYPE svg PUBLIC "-//W3C//DTD SVG 1.1//EN"
 "http://www.w3.org/Graphics/SVG/1.1/DTD/svg11.dtd">
<!-- Generated by graphviz version 2.43.0 (0)
 -->
<!-- Title: render_actor_red_shell Pages: 1 -->
<svg width="1018pt" height="360pt"
 viewBox="0.00 0.00 1018.00 359.50" xmlns="http://www.w3.org/2000/svg" xmlns:xlink="http://www.w3.org/1999/xlink">
<g id="graph0" class="graph" transform="scale(1 1) rotate(0) translate(4 355.5)">
<title>render_actor_red_shell</title>
<!-- Node1 -->
<g id="Node000001" class="node">
<title>Node1</title>
<g id="a_Node000001"><a xlink:title=" ">
<polygon fill="#999999" stroke="#666666" points="128,-265 0,-265 0,-246 128,-246 128,-265"/>
<text text-anchor="middle" x="64" y="-253" font-family="Helvetica,sans-Serif" font-size="10.00">render_actor_red_shell</text>
</a>
</g>
</g>
<!-- Node2 -->
<g id="Node000002" class="node">
<title>Node2</title>
<g id="a_Node000002"><a xlink:href="actors_8c.html#a244363eb20e950ed94944be1c768a37c" target="_top" xlink:title=" ">
<polygon fill="white" stroke="#666666" points="271,-265 164,-265 164,-246 271,-246 271,-265"/>
<text text-anchor="middle" x="217.5" y="-253" font-family="Helvetica,sans-Serif" font-size="10.00">render_actor_shell</text>
</a>
</g>
</g>
<!-- Node1&#45;&gt;Node2 -->
<g id="edge1_Node000001_Node000002" class="edge">
<title>Node1&#45;&gt;Node2</title>
<g id="a_edge1_Node000001_Node000002"><a xlink:title=" ">
<path fill="none" stroke="#63b8ff" d="M128.37,-255.5C136.79,-255.5 145.41,-255.5 153.82,-255.5"/>
<polygon fill="#63b8ff" stroke="#63b8ff" points="153.93,-259 163.93,-255.5 153.93,-252 153.93,-259"/>
</a>
</g>
</g>
<!-- Node3 -->
<g id="Node000003" class="node">
<title>Node3</title>
<g id="a_Node000003"><a xlink:href="actors_8c.html#a722f21cf5d8bd9594d7f461abc7c0350" target="_top" xlink:title=" ">
<polygon fill="white" stroke="#666666" points="439.5,-351.5 323.5,-351.5 323.5,-321.5 439.5,-321.5 439.5,-351.5"/>
<text text-anchor="start" x="331.5" y="-339.5" font-family="Helvetica,sans-Serif" font-size="10.00">actor_not_render_on</text>
<text text-anchor="middle" x="381.5" y="-328.5" font-family="Helvetica,sans-Serif" font-size="10.00">_a_camera</text>
</a>
</g>
</g>
<!-- Node2&#45;&gt;Node3 -->
<g id="edge2_Node000002_Node000003" class="edge">
<title>Node2&#45;&gt;Node3</title>
<g id="a_edge2_Node000002_Node000003"><a xlink:title=" ">
<path fill="none" stroke="#63b8ff" d="M231.43,-265.06C248.18,-277.13 278.62,-297.93 307,-311.5 311.59,-313.7 316.43,-315.79 321.34,-317.76"/>
<polygon fill="#63b8ff" stroke="#63b8ff" points="320.24,-321.09 330.83,-321.4 322.75,-314.55 320.24,-321.09"/>
</a>
</g>
</g>
<!-- Node4 -->
<g id="Node000004" class="node">
<title>Node4</title>
<g id="a_Node000004"><a xlink:href="actors_8c.html#a9d9ee571ace2dd3de226053ddab47bb1" target="_top" xlink:title=" ">
<polygon fill="white" stroke="#666666" points="456,-303 307,-303 307,-284 456,-284 456,-303"/>
<text text-anchor="middle" x="381.5" y="-291" font-family="Helvetica,sans-Serif" font-size="10.00">actor_render_on_a_camera</text>
</a>
</g>
</g>
<!-- Node2&#45;&gt;Node4 -->
<g id="edge3_Node000002_Node000004" class="edge">
<title>Node2&#45;&gt;Node4</title>
<g id="a_edge3_Node000002_Node000004"><a xlink:title=" ">
<path fill="none" stroke="#63b8ff" d="M259.38,-265.09C280.85,-270.13 307.36,-276.34 330.1,-281.68"/>
<polygon fill="#63b8ff" stroke="#63b8ff" points="329.38,-285.1 339.91,-283.98 330.98,-278.29 329.38,-285.1"/>
</a>
</g>
</g>
<!-- Node5 -->
<g id="Node000005" class="node">
<title>Node5</title>
<g id="a_Node000005"><a xlink:href="actors_8c.html#a1e950a72a2fb31b55123e856e64e15c0" target="_top" xlink:title=" ">
<polygon fill="white" stroke="#666666" points="427,-209 336,-209 336,-190 427,-190 427,-209"/>
<text text-anchor="middle" x="381.5" y="-197" font-family="Helvetica,sans-Serif" font-size="10.00">func_802979F8</text>
</a>
</g>
</g>
<!-- Node2&#45;&gt;Node5 -->
<g id="edge4_Node000002_Node000005" class="edge">
<title>Node2&#45;&gt;Node5</title>
<g id="a_edge4_Node000002_Node000005"><a xlink:title=" ">
<path fill="none" stroke="#63b8ff" d="M246.35,-245.87C273.17,-236.6 313.91,-222.52 343.46,-212.3"/>
<polygon fill="#63b8ff" stroke="#63b8ff" points="344.71,-215.58 353.01,-209 342.42,-208.96 344.71,-215.58"/>
</a>
</g>
</g>
<!-- Node17 -->
<g id="Node000017" class="node">
<title>Node17</title>
<g id="a_Node000017"><a xlink:href="math__util_8c.html#aa23f6384122bc45f13a81ef0fa86c099" target="_top" xlink:title=" ">
<polygon fill="white" stroke="#666666" points="783.5,-283 670.5,-283 670.5,-264 783.5,-264 783.5,-283"/>
<text text-anchor="middle" x="727" y="-271" font-family="Helvetica,sans-Serif" font-size="10.00">render_set_position</text>
</a>
</g>
</g>
<!-- Node2&#45;&gt;Node17 -->
<g id="edge26_Node000002_Node000017" class="edge">
<title>Node2&#45;&gt;Node17</title>
<g id="a_edge26_Node000002_Node000017"><a xlink:title=" ">
<path fill="none" stroke="#63b8ff" d="M271.38,-257.38C364.64,-260.68 558.14,-267.55 660,-271.16"/>
<polygon fill="#63b8ff" stroke="#63b8ff" points="660.05,-274.66 670.16,-271.52 660.3,-267.67 660.05,-274.66"/>
</a>
</g>
</g>
<!-- Node20 -->
<g id="Node000020" class="node">
<title>Node20</title>
<g id="a_Node000020"><a xlink:href="math__util_8c.html#a5e1d12b8745a8d5f8d73ab366328d3cd" target="_top" xlink:title=" ">
<polygon fill="white" stroke="#666666" points="453,-86 310,-86 310,-67 453,-67 453,-86"/>
<text text-anchor="middle" x="381.5" y="-74" font-family="Helvetica,sans-Serif" font-size="10.00">is_within_render_distance</text>
</a>
</g>
</g>
<!-- Node2&#45;&gt;Node20 -->
<g id="edge19_Node000002_Node000020" class="edge">
<title>Node2&#45;&gt;Node20</title>
<g id="a_edge19_Node000002_Node000020"><a xlink:title=" ">
<path fill="none" stroke="#63b8ff" d="M227.21,-245.88C253.36,-216.98 331.45,-130.7 364.95,-93.68"/>
<polygon fill="#63b8ff" stroke="#63b8ff" points="367.63,-95.93 371.75,-86.17 362.44,-91.24 367.63,-95.93"/>
</a>
</g>
</g>
<!-- Node6 -->
<g id="Node000006" class="node">
<title>Node6</title>
<g id="a_Node000006"><a xlink:href="actors_8c.html#a09d879c67b2c1430dd8ba2d5c9c136e1" target="_top" xlink:title=" ">
<polygon fill="white" stroke="#666666" points="605.5,-153 513.5,-153 513.5,-134 605.5,-134 605.5,-153"/>
<text text-anchor="middle" x="559.5" y="-141" font-family="Helvetica,sans-Serif" font-size="10.00">func_802976EC</text>
</a>
</g>
</g>
<!-- Node5&#45;&gt;Node6 -->
<g id="edge5_Node000005_Node000006" class="edge">
<title>Node5&#45;&gt;Node6</title>
<g id="a_edge5_Node000005_Node000006"><a xlink:title=" ">
<path fill="none" stroke="#63b8ff" d="M408.44,-189.93C430.52,-181.91 463.16,-170.4 492,-161.5 498.37,-159.53 505.13,-157.57 511.79,-155.7"/>
<polygon fill="#63b8ff" stroke="#63b8ff" points="512.73,-159.07 521.43,-153.04 510.86,-152.33 512.73,-159.07"/>
</a>
</g>
</g>
<!-- Node10 -->
<g id="Node000010" class="node">
<title>Node10</title>
<g id="a_Node000010"><a xlink:href="actors_8c.html#a83bcf2234f4c65898ed5d48a7301f86b" target="_top" xlink:title=" ">
<polygon fill="white" stroke="#666666" points="605,-190 514,-190 514,-171 605,-171 605,-190"/>
<text text-anchor="middle" x="559.5" y="-178" font-family="Helvetica,sans-Serif" font-size="10.00">func_80297760</text>
</a>
</g>
</g>
<!-- Node5&#45;&gt;Node10 -->
<g id="edge9_Node000005_Node000010" class="edge">
<title>Node5&#45;&gt;Node10</title>
<g id="a_edge9_Node000005_Node000010"><a xlink:title=" ">
<path fill="none" stroke="#63b8ff" d="M427.37,-194.66C450.54,-192.16 479.01,-189.08 503.49,-186.44"/>
<polygon fill="#63b8ff" stroke="#63b8ff" points="504.15,-189.89 513.71,-185.33 503.4,-182.93 504.15,-189.89"/>
</a>
</g>
</g>
<!-- Node12 -->
<g id="Node000012" class="node">
<title>Node12</title>
<g id="a_Node000012"><a xlink:href="actors_8c.html#ac46c5c4408bdcd2bfdeddd690b1ed203" target="_top" xlink:title=" ">
<polygon fill="white" stroke="#666666" points="605.5,-227 513.5,-227 513.5,-208 605.5,-208 605.5,-227"/>
<text text-anchor="middle" x="559.5" y="-215" font-family="Helvetica,sans-Serif" font-size="10.00">func_8029794C</text>
</a>
</g>
</g>
<!-- Node5&#45;&gt;Node12 -->
<g id="edge11_Node000005_Node000012" class="edge">
<title>Node5&#45;&gt;Node12</title>
<g id="a_edge11_Node000005_Node000012"><a xlink:title=" ">
<path fill="none" stroke="#63b8ff" d="M427.37,-204.09C450.45,-206.45 478.79,-209.35 503.21,-211.85"/>
<polygon fill="#63b8ff" stroke="#63b8ff" points="503.1,-215.35 513.41,-212.89 503.82,-208.39 503.1,-215.35"/>
</a>
</g>
</g>
<!-- Node7 -->
<g id="Node000007" class="node">
<title>Node7</title>
<g id="a_Node000007"><a xlink:href="math__util_8c.html#aaa39a297477f56051975259f4bddd829" target="_top" xlink:title=" ">
<polygon fill="white" stroke="#666666" points="752,-62 702,-62 702,-43 752,-43 752,-62"/>
<text text-anchor="middle" x="727" y="-50" font-family="Helvetica,sans-Serif" font-size="10.00">atan2s</text>
</a>
</g>
</g>
<!-- Node6&#45;&gt;Node7 -->
<g id="edge6_Node000006_Node000007" class="edge">
<title>Node6&#45;&gt;Node7</title>
<g id="a_edge6_Node000006_Node000007"><a xlink:title=" ">
<path fill="none" stroke="#63b8ff" d="M602.49,-133.93C610.81,-131.36 619.34,-128.24 627,-124.5 657.79,-109.49 689.04,-84.85 707.98,-68.65"/>
<polygon fill="#63b8ff" stroke="#63b8ff" points="710.29,-71.27 715.53,-62.07 705.69,-66 710.29,-71.27"/>
</a>
</g>
</g>
<!-- Node9 -->
<g id="Node000009" class="node">
<title>Node9</title>
<g id="a_Node000009"><a xlink:href="actors_8c.html#a6fd7dc3bc34357287535b6f06ab7d85c" target="_top" xlink:title=" ">
<polygon fill="white" stroke="#666666" points="773,-135 681,-135 681,-116 773,-116 773,-135"/>
<text text-anchor="middle" x="727" y="-123" font-family="Helvetica,sans-Serif" font-size="10.00">func_802976D8</text>
</a>
</g>
</g>
<!-- Node6&#45;&gt;Node9 -->
<g id="edge8_Node000006_Node000009" class="edge">
<title>Node6&#45;&gt;Node9</title>
<g id="a_edge8_Node000006_Node000009"><a xlink:title=" ">
<path fill="none" stroke="#63b8ff" d="M605.72,-138.58C625.79,-136.4 649.6,-133.81 670.71,-131.51"/>
<polygon fill="#63b8ff" stroke="#63b8ff" points="671.27,-134.97 680.83,-130.41 670.51,-128.01 671.27,-134.97"/>
</a>
</g>
</g>
<!-- Node8 -->
<g id="Node000008" class="node">
<title>Node8</title>
<g id="a_Node000008"><a xlink:href="math__util_8c.html#a0273b0ea0783a06996c28669a7438ed9" target="_top" xlink:title=" ">
<polygon fill="white" stroke="#666666" points="909,-62 827,-62 827,-43 909,-43 909,-62"/>
<text text-anchor="middle" x="868" y="-50" font-family="Helvetica,sans-Serif" font-size="10.00">atan2_lookup</text>
</a>
</g>
</g>
<!-- Node7&#45;&gt;Node8 -->
<g id="edge7_Node000007_Node000008" class="edge">
<title>Node7&#45;&gt;Node8</title>
<g id="a_edge7_Node000007_Node000008"><a xlink:title=" ">
<path fill="none" stroke="#63b8ff" d="M752.21,-52.5C769.94,-52.5 794.63,-52.5 816.57,-52.5"/>
<polygon fill="#63b8ff" stroke="#63b8ff" points="816.75,-56 826.75,-52.5 816.75,-49 816.75,-56"/>
</a>
</g>
</g>
<!-- Node11 -->
<g id="Node000011" class="node">
<title>Node11</title>
<g id="a_Node000011"><a xlink:href="collision_8c.html#afa1243eb9b3a14bc92434a8a19c162be" target="_top" xlink:title=" ">
<polygon fill="white" stroke="#666666" points="773,-172 681,-172 681,-153 773,-153 773,-172"/>
<text text-anchor="middle" x="727" y="-160" font-family="Helvetica,sans-Serif" font-size="10.00">func_802ABE30</text>
</a>
</g>
</g>
<!-- Node10&#45;&gt;Node11 -->
<g id="edge10_Node000010_Node000011" class="edge">
<title>Node10&#45;&gt;Node11</title>
<g id="a_edge10_Node000010_Node000011"><a xlink:title=" ">
<path fill="none" stroke="#63b8ff" d="M605.29,-175.63C625.44,-173.44 649.43,-170.83 670.7,-168.51"/>
<polygon fill="#63b8ff" stroke="#63b8ff" points="671.33,-171.97 680.89,-167.41 670.57,-165.01 671.33,-171.97"/>
</a>
</g>
</g>
<!-- Node13 -->
<g id="Node000013" class="node">
<title>Node13</title>
<g id="a_Node000013"><a xlink:href="math__util_8c.html#a7085bb4bb08bdc39c0fa0b98f25176ef" target="_top" xlink:title=" ">
<polygon fill="white" stroke="#666666" points="791,-209 663,-209 663,-190 791,-190 791,-209"/>
<text text-anchor="middle" x="727" y="-197" font-family="Helvetica,sans-Serif" font-size="10.00">mtxf_pos_rotation_xyz</text>
</a>
</g>
</g>
<!-- Node12&#45;&gt;Node13 -->
<g id="edge12_Node000012_Node000013" class="edge">
<title>Node12&#45;&gt;Node13</title>
<g id="a_edge12_Node000012_Node000013"><a xlink:title=" ">
<path fill="none" stroke="#63b8ff" d="M605.72,-212.58C620.17,-211.01 636.55,-209.23 652.47,-207.5"/>
<polygon fill="#63b8ff" stroke="#63b8ff" points="653.28,-210.93 662.84,-206.37 652.52,-203.97 653.28,-210.93"/>
</a>
</g>
</g>
<!-- Node16 -->
<g id="Node000016" class="node">
<title>Node16</title>
<g id="a_Node000016"><a xlink:href="math__util_8c.html#aca95a220db79fe028b35270f35a4a7b3" target="_top" xlink:title=" ">
<polygon fill="white" stroke="#666666" points="762.5,-246 691.5,-246 691.5,-227 762.5,-227 762.5,-246"/>
<text text-anchor="middle" x="727" y="-234" font-family="Helvetica,sans-Serif" font-size="10.00">mtxf_scale</text>
</a>
</g>
</g>
<!-- Node12&#45;&gt;Node16 -->
<g id="edge15_Node000012_Node000016" class="edge">
<title>Node12&#45;&gt;Node16</title>
<g id="a_edge15_Node000012_Node000016"><a xlink:title=" ">
<path fill="none" stroke="#63b8ff" d="M605.72,-222.69C629.23,-225.39 657.87,-228.68 681.3,-231.37"/>
<polygon fill="#63b8ff" stroke="#63b8ff" points="681,-234.86 691.33,-232.52 681.8,-227.9 681,-234.86"/>
</a>
</g>
</g>
<!-- Node12&#45;&gt;Node17 -->
<g id="edge16_Node000012_Node000017" class="edge">
<title>Node12&#45;&gt;Node17</title>
<g id="a_edge16_Node000012_Node000017"><a xlink:title=" ">
<path fill="none" stroke="#63b8ff" d="M586.82,-227C617.11,-237.94 662.76,-254.42 663,-254.5 669.56,-256.67 676.53,-258.88 683.36,-260.98"/>
<polygon fill="#63b8ff" stroke="#63b8ff" points="682.61,-264.41 693.2,-263.97 684.65,-257.71 682.61,-264.41"/>
</a>
</g>
</g>
<!-- Node14 -->
<g id="Node000014" class="node">
<title>Node14</title>
<g id="a_Node000014"><a xlink:href="math__util_8c.html#ae69cbf5c8d4b3b0dba2d7b4d4673689f" target="_top" xlink:title=" ">
<polygon fill="white" stroke="#666666" points="887,-227 849,-227 849,-208 887,-208 887,-227"/>
<text text-anchor="middle" x="868" y="-215" font-family="Helvetica,sans-Serif" font-size="10.00">coss</text>
</a>
</g>
</g>
<!-- Node13&#45;&gt;Node14 -->
<g id="edge13_Node000013_Node000014" class="edge">
<title>Node13&#45;&gt;Node14</title>
<g id="a_edge13_Node000013_Node000014"><a xlink:title=" ">
<path fill="none" stroke="#63b8ff" d="M791.4,-207.71C807.9,-209.85 824.86,-212.04 838.52,-213.81"/>
<polygon fill="#63b8ff" stroke="#63b8ff" points="838.33,-217.32 848.7,-215.13 839.23,-210.37 838.33,-217.32"/>
</a>
</g>
</g>
<!-- Node15 -->
<g id="Node000015" class="node">
<title>Node15</title>
<g id="a_Node000015"><a xlink:href="math__util_8c.html#a19ed3bd78fd2d3e2bd0a29f6caf48545" target="_top" xlink:title=" ">
<polygon fill="white" stroke="#666666" points="886,-190 850,-190 850,-171 886,-171 886,-190"/>
<text text-anchor="middle" x="868" y="-178" font-family="Helvetica,sans-Serif" font-size="10.00">sins</text>
</a>
</g>
</g>
<!-- Node13&#45;&gt;Node15 -->
<g id="edge14_Node000013_Node000015" class="edge">
<title>Node13&#45;&gt;Node15</title>
<g id="a_edge14_Node000013_Node000015"><a xlink:title=" ">
<path fill="none" stroke="#63b8ff" d="M791.4,-190.83C808.35,-188.52 825.79,-186.13 839.64,-184.24"/>
<polygon fill="#63b8ff" stroke="#63b8ff" points="840.46,-187.66 849.9,-182.84 839.52,-180.72 840.46,-187.66"/>
</a>
</g>
</g>
<!-- Node18 -->
<g id="Node000018" class="node">
<title>Node18</title>
<g id="a_Node000018"><a xlink:href="math__util_8c.html#a32af0f217114736291c9ca6689138b81" target="_top" xlink:title=" ">
<polygon fill="white" stroke="#666666" points="908,-283 828,-283 828,-264 908,-264 908,-283"/>
<text text-anchor="middle" x="868" y="-271" font-family="Helvetica,sans-Serif" font-size="10.00">mtxf_to_mtx</text>
</a>
</g>
</g>
<!-- Node17&#45;&gt;Node18 -->
<g id="edge17_Node000017_Node000018" class="edge">
<title>Node17&#45;&gt;Node18</title>
<g id="a_edge17_Node000017_Node000018"><a xlink:title=" ">
<path fill="none" stroke="#63b8ff" d="M783.74,-273.5C794.95,-273.5 806.67,-273.5 817.65,-273.5"/>
<polygon fill="#63b8ff" stroke="#63b8ff" points="817.92,-277 827.92,-273.5 817.92,-270 817.92,-277"/>
</a>
</g>
</g>
<!-- Node19 -->
<g id="Node000019" class="node">
<title>Node19</title>
<g id="a_Node000019"><a xlink:href="guMtxF2L_8c.html#a40ab2d64c609839ff1e0ef0de2d0dcc4" target="_top" xlink:title=" ">
<polygon fill="white" stroke="#666666" points="1010,-283 945,-283 945,-264 1010,-264 1010,-283"/>
<text text-anchor="middle" x="977.5" y="-271" font-family="Helvetica,sans-Serif" font-size="10.00">guMtxF2L</text>
</a>
</g>
</g>
<!-- Node18&#45;&gt;Node19 -->
<g id="edge18_Node000018_Node000019" class="edge">
<title>Node18&#45;&gt;Node19</title>
<g id="a_edge18_Node000018_Node000019"><a xlink:title=" ">
<path fill="none" stroke="#63b8ff" d="M908.11,-273.5C916.83,-273.5 926.1,-273.5 934.91,-273.5"/>
<polygon fill="#63b8ff" stroke="#63b8ff" points="934.99,-277 944.99,-273.5 934.99,-270 934.99,-277"/>
</a>
</g>
</g>
<!-- Node21 -->
<g id="Node000021" class="node">
<title>Node21</title>
<g id="a_Node000021"><a xlink:href="math__util_8c.html#a07a66adf3458c156c7961b983983627a" target="_top" xlink:title=" ">
<polygon fill="white" stroke="#666666" points="606,-19 513,-19 513,0 606,0 606,-19"/>
<text text-anchor="middle" x="559.5" y="-7" font-family="Helvetica,sans-Serif" font-size="10.00">func_802B7CA8</text>
</a>
</g>
</g>
<!-- Node20&#45;&gt;Node21 -->
<g id="edge20_Node000020_Node000021" class="edge">
<title>Node20&#45;&gt;Node21</title>
<g id="a_edge20_Node000020_Node000021"><a xlink:title=" ">
<path fill="none" stroke="#63b8ff" d="M402.35,-66.83C424.04,-56.49 459.97,-40.04 492,-28.5 498.38,-26.2 505.17,-24 511.89,-21.95"/>
<polygon fill="#63b8ff" stroke="#63b8ff" points="513.03,-25.26 521.63,-19.08 511.05,-18.55 513.03,-25.26"/>
</a>
</g>
</g>
<!-- Node23 -->
<g id="Node000023" class="node">
<title>Node23</title>
<g id="a_Node000023"><a xlink:href="math__util_8c.html#a84cf9d4ec33146a64c230ed4cec56632" target="_top" xlink:title=" ">
<polygon fill="white" stroke="#666666" points="627,-67.5 492,-67.5 492,-37.5 627,-37.5 627,-67.5"/>
<text text-anchor="start" x="500" y="-55.5" font-family="Helvetica,sans-Serif" font-size="10.00">get_angle_between_two</text>
<text text-anchor="middle" x="559.5" y="-44.5" font-family="Helvetica,sans-Serif" font-size="10.00">_vectors</text>
</a>
</g>
</g>
<!-- Node20&#45;&gt;Node23 -->
<g id="edge23_Node000020_Node000023" class="edge">
<title>Node20&#45;&gt;Node23</title>
<g id="a_edge23_Node000020_Node000023"><a xlink:title=" ">
<path fill="none" stroke="#63b8ff" d="M452.31,-66.98C462,-65.66 471.99,-64.3 481.8,-62.96"/>
<polygon fill="#63b8ff" stroke="#63b8ff" points="482.49,-66.4 491.93,-61.58 481.55,-59.46 482.49,-66.4"/>
</a>
</g>
</g>
<!-- Node24 -->
<g id="Node000024" class="node">
<title>Node24</title>
<g id="a_Node000024"><a xlink:href="math__util_8c.html#a3eb0db0895b2c11953df746ce49b782e" target="_top" xlink:title=" ">
<polygon fill="white" stroke="#666666" points="614.5,-115.5 504.5,-115.5 504.5,-85.5 614.5,-85.5 614.5,-115.5"/>
<text text-anchor="start" x="512.5" y="-103.5" font-family="Helvetica,sans-Serif" font-size="10.00">is_visible_between</text>
<text text-anchor="middle" x="559.5" y="-92.5" font-family="Helvetica,sans-Serif" font-size="10.00">_angle</text>
</a>
</g>
</g>
<!-- Node20&#45;&gt;Node24 -->
<g id="edge25_Node000020_Node000024" class="edge">
<title>Node20&#45;&gt;Node24</title>
<g id="a_edge25_Node000020_Node000024"><a xlink:title=" ">
<path fill="none" stroke="#63b8ff" d="M452.31,-86.02C466.08,-87.9 480.47,-89.86 494.05,-91.71"/>
<polygon fill="#63b8ff" stroke="#63b8ff" points="493.87,-95.22 504.25,-93.1 494.81,-88.28 493.87,-95.22"/>
</a>
</g>
</g>
<!-- Node21&#45;&gt;Node7 -->
<g id="edge21_Node000021_Node000007" class="edge">
<title>Node21&#45;&gt;Node7</title>
<g id="a_edge21_Node000021_Node000007"><a xlink:title=" ">
<path fill="none" stroke="#63b8ff" d="M597.23,-19.04C625.43,-26.37 664.09,-36.42 691.68,-43.58"/>
<polygon fill="#63b8ff" stroke="#63b8ff" points="691.1,-47.05 701.66,-46.18 692.86,-40.27 691.1,-47.05"/>
</a>
</g>
</g>
<!-- Node22 -->
<g id="Node000022" class="node">
<title>Node22</title>
<g id="a_Node000022"><a xlink:href="math_8h.html#a37bde043e94a6f074c78f10518fb5d99" target="_top" xlink:title=" ">
<polygon fill="white" stroke="#666666" points="746.5,-19 707.5,-19 707.5,0 746.5,0 746.5,-19"/>
<text text-anchor="middle" x="727" y="-7" font-family="Helvetica,sans-Serif" font-size="10.00">sqrtf</text>
</a>
</g>
</g>
<!-- Node21&#45;&gt;Node22 -->
<g id="edge22_Node000021_Node000022" class="edge">
<title>Node21&#45;&gt;Node22</title>
<g id="a_edge22_Node000021_Node000022"><a xlink:title=" ">
<path fill="none" stroke="#63b8ff" d="M606.16,-9.5C635.17,-9.5 671.83,-9.5 696.92,-9.5"/>
<polygon fill="#63b8ff" stroke="#63b8ff" points="697.24,-13 707.24,-9.5 697.24,-6 697.24,-13"/>
</a>
</g>
</g>
<!-- Node23&#45;&gt;Node7 -->
<g id="edge24_Node000023_Node000007" class="edge">
<title>Node23&#45;&gt;Node7</title>
<g id="a_edge24_Node000023_Node000007"><a xlink:title=" ">
<path fill="none" stroke="#63b8ff" d="M627.34,-52.5C649.49,-52.5 673.22,-52.5 691.86,-52.5"/>
<polygon fill="#63b8ff" stroke="#63b8ff" points="691.92,-56 701.92,-52.5 691.92,-49 691.92,-56"/>
</a>
</g>
</g>
</g>
</svg>
