<?xml version="1.0" encoding="UTF-8" standalone="no"?>
<!DOCTYPE svg PUBLIC "-//W3C//DTD SVG 1.1//EN"
 "http://www.w3.org/Graphics/SVG/1.1/DTD/svg11.dtd">
<!-- Generated by graphviz version 2.43.0 (0)
 -->
<!-- Title: func_8002C4F8 Pages: 1 -->
<svg width="897pt" height="891pt"
 viewBox="0.00 0.00 897.00 891.37" xmlns="http://www.w3.org/2000/svg" xmlns:xlink="http://www.w3.org/1999/xlink">
<g id="graph0" class="graph" transform="scale(1 1) rotate(0) translate(4 887.37)">
<title>func_8002C4F8</title>
<!-- Node1 -->
<g id="Node000001" class="node">
<title>Node1</title>
<g id="a_Node000001"><a xlink:title=" ">
<polygon fill="#999999" stroke="#666666" points="92,-665.7 0,-665.7 0,-646.7 92,-646.7 92,-665.7"/>
<text text-anchor="middle" x="46" y="-653.7" font-family="Helvetica,sans-Serif" font-size="10.00">func_8002C4F8</text>
</a>
</g>
</g>
<!-- Node2 -->
<g id="Node000002" class="node">
<title>Node2</title>
<g id="a_Node000002"><a xlink:href="player__controller_8c.html#adb29ff51f9d63ef953d1dcda830a7603" target="_top" xlink:title=" ">
<polygon fill="white" stroke="#666666" points="221,-852.7 129,-852.7 129,-833.7 221,-833.7 221,-852.7"/>
<text text-anchor="middle" x="175" y="-840.7" font-family="Helvetica,sans-Serif" font-size="10.00">func_8002C17C</text>
</a>
</g>
</g>
<!-- Node1&#45;&gt;Node2 -->
<g id="edge1_Node000001_Node000002" class="edge">
<title>Node1&#45;&gt;Node2</title>
<g id="a_edge1_Node000001_Node000002"><a xlink:title=" ">
<path fill="none" stroke="#63b8ff" d="M49.51,-665.89C57.03,-693.24 81.76,-772.04 128,-819.2 131.44,-822.71 135.51,-825.82 139.78,-828.53"/>
<polygon fill="#63b8ff" stroke="#63b8ff" points="138.27,-831.69 148.7,-833.55 141.7,-825.59 138.27,-831.69"/>
</a>
</g>
</g>
<!-- Node3 -->
<g id="Node000003" class="node">
<title>Node3</title>
<g id="a_Node000003"><a xlink:href="collision_8c.html#a0371e15af0413f7e110eb91a9995bcb7" target="_top" xlink:title=" ">
<polygon fill="white" stroke="#666666" points="364.5,-871.7 270.5,-871.7 270.5,-852.7 364.5,-852.7 364.5,-871.7"/>
<text text-anchor="middle" x="317.5" y="-859.7" font-family="Helvetica,sans-Serif" font-size="10.00">func_802ABDF4</text>
</a>
</g>
</g>
<!-- Node1&#45;&gt;Node3 -->
<g id="edge47_Node000001_Node000003" class="edge">
<title>Node1&#45;&gt;Node3</title>
<g id="a_edge47_Node000001_Node000003"><a xlink:title=" ">
<path fill="none" stroke="#63b8ff" d="M47.27,-665.81C48.8,-699.87 59.08,-815.24 128,-862.2 171.88,-892.09 235.86,-884.09 276.83,-874.22"/>
<polygon fill="#63b8ff" stroke="#63b8ff" points="277.9,-877.56 286.73,-871.7 276.17,-870.78 277.9,-877.56"/>
</a>
</g>
</g>
<!-- Node4 -->
<g id="Node000004" class="node">
<title>Node4</title>
<g id="a_Node000004"><a xlink:href="code__8008C1D0_8c.html#a17332237b5c2a4249328a35071e23bf7" target="_top" xlink:title=" ">
<polygon fill="white" stroke="#666666" points="220.5,-498.7 129.5,-498.7 129.5,-479.7 220.5,-479.7 220.5,-498.7"/>
<text text-anchor="middle" x="175" y="-486.7" font-family="Helvetica,sans-Serif" font-size="10.00">func_80090778</text>
</a>
</g>
</g>
<!-- Node1&#45;&gt;Node4 -->
<g id="edge3_Node000001_Node000004" class="edge">
<title>Node1&#45;&gt;Node4</title>
<g id="a_edge3_Node000001_Node000004"><a xlink:title=" ">
<path fill="none" stroke="#63b8ff" d="M54.56,-646.25C75.35,-618.92 133.55,-542.38 160.27,-507.24"/>
<polygon fill="#63b8ff" stroke="#63b8ff" points="163.37,-508.96 166.63,-498.88 157.8,-504.72 163.37,-508.96"/>
</a>
</g>
</g>
<!-- Node21 -->
<g id="Node000021" class="node">
<title>Node21</title>
<g id="a_Node000021"><a xlink:href="external_8c.html#a517352d45a01341217ab2c073b3b223f" target="_top" xlink:title=" ">
<polygon fill="white" stroke="#666666" points="780.5,-720.7 688.5,-720.7 688.5,-701.7 780.5,-701.7 780.5,-720.7"/>
<text text-anchor="middle" x="734.5" y="-708.7" font-family="Helvetica,sans-Serif" font-size="10.00">func_800C9060</text>
</a>
</g>
</g>
<!-- Node1&#45;&gt;Node21 -->
<g id="edge43_Node000001_Node000021" class="edge">
<title>Node1&#45;&gt;Node21</title>
<g id="a_edge43_Node000001_Node000021"><a xlink:title=" ">
<path fill="none" stroke="#63b8ff" d="M56.22,-665.97C88.55,-699.12 201.02,-805.2 316.5,-805.2 316.5,-805.2 316.5,-805.2 469,-805.2 562.5,-805.2 664.41,-752.4 709.61,-725.94"/>
<polygon fill="#63b8ff" stroke="#63b8ff" points="711.57,-728.85 718.37,-720.73 707.99,-722.84 711.57,-728.85"/>
</a>
</g>
</g>
<!-- Node38 -->
<g id="Node000038" class="node">
<title>Node38</title>
<g id="a_Node000038"><a xlink:href="code__8008C1D0_8c.html#a80884e9db018960df253546f0c9718e5" target="_top" xlink:title=" ">
<polygon fill="white" stroke="#666666" points="220.5,-418.7 129.5,-418.7 129.5,-399.7 220.5,-399.7 220.5,-418.7"/>
<text text-anchor="middle" x="175" y="-406.7" font-family="Helvetica,sans-Serif" font-size="10.00">func_80090868</text>
</a>
</g>
</g>
<!-- Node1&#45;&gt;Node38 -->
<g id="edge40_Node000001_Node000038" class="edge">
<title>Node1&#45;&gt;Node38</title>
<g id="a_edge40_Node000001_Node000038"><a xlink:title=" ">
<path fill="none" stroke="#63b8ff" d="M50.33,-646.59C60.22,-618.57 91.06,-534.89 128,-471.2 137.2,-455.33 149.7,-438.72 159.35,-426.69"/>
<polygon fill="#63b8ff" stroke="#63b8ff" points="162.17,-428.77 165.78,-418.81 156.75,-424.34 162.17,-428.77"/>
</a>
</g>
</g>
<!-- Node40 -->
<g id="Node000040" class="node">
<title>Node40</title>
<g id="a_Node000040"><a xlink:href="collision_8c.html#abdb34eeeffe1948b6c568463a325a870" target="_top" xlink:title=" ">
<polygon fill="white" stroke="#666666" points="222,-338.7 128,-338.7 128,-319.7 222,-319.7 222,-338.7"/>
<text text-anchor="middle" x="175" y="-326.7" font-family="Helvetica,sans-Serif" font-size="10.00">func_802AAB4C</text>
</a>
</g>
</g>
<!-- Node1&#45;&gt;Node40 -->
<g id="edge44_Node000001_Node000040" class="edge">
<title>Node1&#45;&gt;Node40</title>
<g id="a_edge44_Node000001_Node000040"><a xlink:title=" ">
<path fill="none" stroke="#63b8ff" d="M48.7,-646.6C55.23,-611.16 80.74,-484.82 128,-391.2 136.17,-375.02 148.53,-358.64 158.39,-346.78"/>
<polygon fill="#63b8ff" stroke="#63b8ff" points="161.19,-348.89 165.03,-339.01 155.87,-344.34 161.19,-348.89"/>
</a>
</g>
</g>
<!-- Node2&#45;&gt;Node3 -->
<g id="edge2_Node000002_Node000003" class="edge">
<title>Node2&#45;&gt;Node3</title>
<g id="a_edge2_Node000002_Node000003"><a xlink:title=" ">
<path fill="none" stroke="#63b8ff" d="M221.23,-849.31C233.63,-850.99 247.24,-852.83 260.19,-854.58"/>
<polygon fill="#63b8ff" stroke="#63b8ff" points="260.01,-858.09 270.39,-855.96 260.95,-851.15 260.01,-858.09"/>
</a>
</g>
</g>
<!-- Node5 -->
<g id="Node000005" class="node">
<title>Node5</title>
<g id="a_Node000005"><a xlink:href="code__8008C1D0_8c.html#a5cdc06d2091fc6d20759448c40b17d54" target="_top" xlink:title=" ">
<polygon fill="white" stroke="#666666" points="363.5,-535.7 271.5,-535.7 271.5,-516.7 363.5,-516.7 363.5,-535.7"/>
<text text-anchor="middle" x="317.5" y="-523.7" font-family="Helvetica,sans-Serif" font-size="10.00">func_8008C354</text>
</a>
</g>
</g>
<!-- Node4&#45;&gt;Node5 -->
<g id="edge4_Node000004_Node000005" class="edge">
<title>Node4&#45;&gt;Node5</title>
<g id="a_edge4_Node000004_Node000005"><a xlink:title=" ">
<path fill="none" stroke="#63b8ff" d="M212.18,-498.72C229.83,-503.37 251.25,-509.01 270.09,-513.97"/>
<polygon fill="#63b8ff" stroke="#63b8ff" points="269.39,-517.41 279.95,-516.57 271.17,-510.64 269.39,-517.41"/>
</a>
</g>
</g>
<!-- Node24 -->
<g id="Node000024" class="node">
<title>Node24</title>
<g id="a_Node000024"><a xlink:href="code__8008C1D0_8c.html#ab03baba14bfbe9feac872f1585494a38" target="_top" xlink:title=" ">
<polygon fill="white" stroke="#666666" points="363.5,-498.7 271.5,-498.7 271.5,-479.7 363.5,-479.7 363.5,-498.7"/>
<text text-anchor="middle" x="317.5" y="-486.7" font-family="Helvetica,sans-Serif" font-size="10.00">func_8008E3C0</text>
</a>
</g>
</g>
<!-- Node4&#45;&gt;Node24 -->
<g id="edge23_Node000004_Node000024" class="edge">
<title>Node4&#45;&gt;Node24</title>
<g id="a_edge23_Node000004_Node000024"><a xlink:title=" ">
<path fill="none" stroke="#63b8ff" d="M220.84,-489.2C233.64,-489.2 247.74,-489.2 261.09,-489.2"/>
<polygon fill="#63b8ff" stroke="#63b8ff" points="261.12,-492.7 271.12,-489.2 261.12,-485.7 261.12,-492.7"/>
</a>
</g>
</g>
<!-- Node26 -->
<g id="Node000026" class="node">
<title>Node26</title>
<g id="a_Node000026"><a xlink:href="code__8008C1D0_8c.html#ae1bacd987d7f12fc5960f838a7dbe137" target="_top" xlink:title=" ">
<polygon fill="white" stroke="#666666" points="363.5,-461.7 271.5,-461.7 271.5,-442.7 363.5,-442.7 363.5,-461.7"/>
<text text-anchor="middle" x="317.5" y="-449.7" font-family="Helvetica,sans-Serif" font-size="10.00">func_8008F86C</text>
</a>
</g>
</g>
<!-- Node4&#45;&gt;Node26 -->
<g id="edge25_Node000004_Node000026" class="edge">
<title>Node4&#45;&gt;Node26</title>
<g id="a_edge25_Node000004_Node000026"><a xlink:title=" ">
<path fill="none" stroke="#63b8ff" d="M212.18,-479.67C229.83,-475.02 251.25,-469.38 270.09,-464.42"/>
<polygon fill="#63b8ff" stroke="#63b8ff" points="271.17,-467.75 279.95,-461.82 269.39,-460.98 271.17,-467.75"/>
</a>
</g>
</g>
<!-- Node37 -->
<g id="Node000037" class="node">
<title>Node37</title>
<g id="a_Node000037"><a xlink:href="player__controller_8c.html#aafeb0470c7da44e1440ffa4848f7d500" target="_top" xlink:title=" ">
<polygon fill="white" stroke="#666666" points="377,-424.2 258,-424.2 258,-394.2 377,-394.2 377,-424.2"/>
<text text-anchor="start" x="266" y="-412.2" font-family="Helvetica,sans-Serif" font-size="10.00">get_player_index_for</text>
<text text-anchor="middle" x="317.5" y="-401.2" font-family="Helvetica,sans-Serif" font-size="10.00">_player</text>
</a>
</g>
</g>
<!-- Node4&#45;&gt;Node37 -->
<g id="edge39_Node000004_Node000037" class="edge">
<title>Node4&#45;&gt;Node37</title>
<g id="a_edge39_Node000004_Node000037"><a xlink:title=" ">
<path fill="none" stroke="#63b8ff" d="M188.6,-479.66C204.31,-468.02 232.24,-448.18 258,-434.2 261.5,-432.29 265.18,-430.43 268.92,-428.63"/>
<polygon fill="#63b8ff" stroke="#63b8ff" points="270.64,-431.69 278.25,-424.32 267.7,-425.34 270.64,-431.69"/>
</a>
</g>
</g>
<!-- Node6 -->
<g id="Node000006" class="node">
<title>Node6</title>
<g id="a_Node000006"><a xlink:href="code__8008C1D0_8c.html#ad164a912d7ef76f24e7b5cfb9169c16f" target="_top" xlink:title=" ">
<polygon fill="white" stroke="#666666" points="514.5,-628.7 421.5,-628.7 421.5,-609.7 514.5,-609.7 514.5,-628.7"/>
<text text-anchor="middle" x="468" y="-616.7" font-family="Helvetica,sans-Serif" font-size="10.00">func_8008C6D0</text>
</a>
</g>
</g>
<!-- Node5&#45;&gt;Node6 -->
<g id="edge5_Node000005_Node000006" class="edge">
<title>Node5&#45;&gt;Node6</title>
<g id="a_edge5_Node000005_Node000006"><a xlink:title=" ">
<path fill="none" stroke="#63b8ff" d="M328.15,-535.79C344.38,-551.46 378.74,-582.64 413,-601.2 416.09,-602.87 419.37,-604.43 422.72,-605.87"/>
<polygon fill="#63b8ff" stroke="#63b8ff" points="421.66,-609.21 432.25,-609.61 424.22,-602.7 421.66,-609.21"/>
</a>
</g>
</g>
<!-- Node7 -->
<g id="Node000007" class="node">
<title>Node7</title>
<g id="a_Node000007"><a xlink:href="code__8008C1D0_8c.html#a105203221e314be241a95e006b62ef80" target="_top" xlink:title=" ">
<polygon fill="white" stroke="#666666" points="514,-591.7 422,-591.7 422,-572.7 514,-572.7 514,-591.7"/>
<text text-anchor="middle" x="468" y="-579.7" font-family="Helvetica,sans-Serif" font-size="10.00">func_8008C8C4</text>
</a>
</g>
</g>
<!-- Node5&#45;&gt;Node7 -->
<g id="edge6_Node000005_Node000007" class="edge">
<title>Node5&#45;&gt;Node7</title>
<g id="a_edge6_Node000005_Node000007"><a xlink:title=" ">
<path fill="none" stroke="#63b8ff" d="M341.26,-535.8C360.31,-543.73 388.27,-555.11 413,-564.2 417.63,-565.89 422.5,-567.62 427.35,-569.28"/>
<polygon fill="#63b8ff" stroke="#63b8ff" points="426.58,-572.72 437.18,-572.61 428.83,-566.09 426.58,-572.72"/>
</a>
</g>
</g>
<!-- Node8 -->
<g id="Node000008" class="node">
<title>Node8</title>
<g id="a_Node000008"><a xlink:href="code__8008C1D0_8c.html#acab450a6af6eca812ad3987a292a5165" target="_top" xlink:title=" ">
<polygon fill="white" stroke="#666666" points="514,-554.7 422,-554.7 422,-535.7 514,-535.7 514,-554.7"/>
<text text-anchor="middle" x="468" y="-542.7" font-family="Helvetica,sans-Serif" font-size="10.00">func_8008D0E4</text>
</a>
</g>
</g>
<!-- Node5&#45;&gt;Node8 -->
<g id="edge7_Node000005_Node000008" class="edge">
<title>Node5&#45;&gt;Node8</title>
<g id="a_edge7_Node000005_Node000008"><a xlink:title=" ">
<path fill="none" stroke="#63b8ff" d="M363.86,-532C378.98,-533.93 395.98,-536.11 411.76,-538.13"/>
<polygon fill="#63b8ff" stroke="#63b8ff" points="411.55,-541.63 421.92,-539.43 412.44,-534.69 411.55,-541.63"/>
</a>
</g>
</g>
<!-- Node9 -->
<g id="Node000009" class="node">
<title>Node9</title>
<g id="a_Node000009"><a xlink:href="code__8008C1D0_8c.html#a663cb8df8b606cf00e361977c9d6d834" target="_top" xlink:title=" ">
<polygon fill="white" stroke="#666666" points="514.5,-517.7 421.5,-517.7 421.5,-498.7 514.5,-498.7 514.5,-517.7"/>
<text text-anchor="middle" x="468" y="-505.7" font-family="Helvetica,sans-Serif" font-size="10.00">func_8008D3B0</text>
</a>
</g>
</g>
<!-- Node5&#45;&gt;Node9 -->
<g id="edge8_Node000005_Node000009" class="edge">
<title>Node5&#45;&gt;Node9</title>
<g id="a_edge8_Node000005_Node000009"><a xlink:title=" ">
<path fill="none" stroke="#63b8ff" d="M363.86,-520.7C378.84,-518.88 395.67,-516.84 411.32,-514.94"/>
<polygon fill="#63b8ff" stroke="#63b8ff" points="411.9,-518.4 421.4,-513.72 411.06,-511.45 411.9,-518.4"/>
</a>
</g>
</g>
<!-- Node10 -->
<g id="Node000010" class="node">
<title>Node10</title>
<g id="a_Node000010"><a xlink:href="code__8008C1D0_8c.html#ae7bb91110e710a8f32fcd4c56c56f934" target="_top" xlink:title=" ">
<polygon fill="white" stroke="#666666" points="514,-480.7 422,-480.7 422,-461.7 514,-461.7 514,-480.7"/>
<text text-anchor="middle" x="468" y="-468.7" font-family="Helvetica,sans-Serif" font-size="10.00">func_8008D554</text>
</a>
</g>
</g>
<!-- Node5&#45;&gt;Node10 -->
<g id="edge9_Node000005_Node000010" class="edge">
<title>Node5&#45;&gt;Node10</title>
<g id="a_edge9_Node000005_Node000010"><a xlink:title=" ">
<path fill="none" stroke="#63b8ff" d="M352.86,-516.66C360.87,-514.15 369.31,-511.28 377,-508.2 393.61,-501.54 396.53,-497.18 413,-490.2 417.8,-488.16 422.89,-486.17 427.96,-484.28"/>
<polygon fill="#63b8ff" stroke="#63b8ff" points="429.38,-487.48 437.6,-480.79 427,-480.9 429.38,-487.48"/>
</a>
</g>
</g>
<!-- Node11 -->
<g id="Node000011" class="node">
<title>Node11</title>
<g id="a_Node000011"><a xlink:href="code__8008C1D0_8c.html#a5f19eaaa048055d292d02c717e635786" target="_top" xlink:title=" ">
<polygon fill="white" stroke="#666666" points="514,-443.7 422,-443.7 422,-424.7 514,-424.7 514,-443.7"/>
<text text-anchor="middle" x="468" y="-431.7" font-family="Helvetica,sans-Serif" font-size="10.00">func_8008D760</text>
</a>
</g>
</g>
<!-- Node5&#45;&gt;Node11 -->
<g id="edge10_Node000005_Node000011" class="edge">
<title>Node5&#45;&gt;Node11</title>
<g id="a_edge10_Node000005_Node000011"><a xlink:title=" ">
<path fill="none" stroke="#63b8ff" d="M362.03,-516.58C367.35,-514.34 372.5,-511.58 377,-508.2 400.35,-490.63 390.01,-471.22 413,-453.2 415.31,-451.38 417.81,-449.74 420.41,-448.24"/>
<polygon fill="#63b8ff" stroke="#63b8ff" points="422.18,-451.28 429.6,-443.72 419.09,-445 422.18,-451.28"/>
</a>
</g>
</g>
<!-- Node12 -->
<g id="Node000012" class="node">
<title>Node12</title>
<g id="a_Node000012"><a xlink:href="code__8008C1D0_8c.html#a4ea2da0616ee3c475e4be217dc0bc71f" target="_top" xlink:title=" ">
<polygon fill="white" stroke="#666666" points="514.5,-406.7 421.5,-406.7 421.5,-387.7 514.5,-387.7 514.5,-406.7"/>
<text text-anchor="middle" x="468" y="-394.7" font-family="Helvetica,sans-Serif" font-size="10.00">func_8008D97C</text>
</a>
</g>
</g>
<!-- Node5&#45;&gt;Node12 -->
<g id="edge11_Node000005_Node000012" class="edge">
<title>Node5&#45;&gt;Node12</title>
<g id="a_edge11_Node000005_Node000012"><a xlink:title=" ">
<path fill="none" stroke="#63b8ff" d="M363.61,-517.01C368.5,-514.7 373.11,-511.81 377,-508.2 409.18,-478.33 381.42,-446.7 413,-416.2 414.63,-414.62 416.39,-413.18 418.25,-411.86"/>
<polygon fill="#63b8ff" stroke="#63b8ff" points="420.08,-414.85 426.95,-406.79 416.55,-408.8 420.08,-414.85"/>
</a>
</g>
</g>
<!-- Node13 -->
<g id="Node000013" class="node">
<title>Node13</title>
<g id="a_Node000013"><a xlink:href="code__8008C1D0_8c.html#a4a437d6caeeaa794bcce43ec60c097e9" target="_top" xlink:title=" ">
<polygon fill="white" stroke="#666666" points="513.5,-369.7 422.5,-369.7 422.5,-350.7 513.5,-350.7 513.5,-369.7"/>
<text text-anchor="middle" x="468" y="-357.7" font-family="Helvetica,sans-Serif" font-size="10.00">func_8008E884</text>
</a>
</g>
</g>
<!-- Node5&#45;&gt;Node13 -->
<g id="edge12_Node000005_Node000013" class="edge">
<title>Node5&#45;&gt;Node13</title>
<g id="a_edge12_Node000005_Node000013"><a xlink:title=" ">
<path fill="none" stroke="#63b8ff" d="M363.69,-517.52C368.62,-515.13 373.22,-512.08 377,-508.2 418.53,-465.55 372.33,-422.65 413,-379.2 414.38,-377.73 415.87,-376.37 417.46,-375.12"/>
<polygon fill="#63b8ff" stroke="#63b8ff" points="419.46,-378 426.04,-369.7 415.72,-372.08 419.46,-378"/>
</a>
</g>
</g>
<!-- Node14 -->
<g id="Node000014" class="node">
<title>Node14</title>
<g id="a_Node000014"><a xlink:href="code__8008C1D0_8c.html#a4e2c6d0ba50b7c13695f74f1c2bc7b18" target="_top" xlink:title=" ">
<polygon fill="white" stroke="#666666" points="514,-332.7 422,-332.7 422,-313.7 514,-313.7 514,-332.7"/>
<text text-anchor="middle" x="468" y="-320.7" font-family="Helvetica,sans-Serif" font-size="10.00">func_8008EC34</text>
</a>
</g>
</g>
<!-- Node5&#45;&gt;Node14 -->
<g id="edge13_Node000005_Node000014" class="edge">
<title>Node5&#45;&gt;Node14</title>
<g id="a_edge13_Node000005_Node000014"><a xlink:title=" ">
<path fill="none" stroke="#63b8ff" d="M363.62,-517.87C368.63,-515.42 373.26,-512.26 377,-508.2 428.07,-452.6 363.05,-398.8 413,-342.2 414.18,-340.86 415.45,-339.62 416.8,-338.47"/>
<polygon fill="#63b8ff" stroke="#63b8ff" points="418.94,-341.26 425.29,-332.78 415.04,-335.44 418.94,-341.26"/>
</a>
</g>
</g>
<!-- Node15 -->
<g id="Node000015" class="node">
<title>Node15</title>
<g id="a_Node000015"><a xlink:href="code__8008C1D0_8c.html#ae48f5d9507d1966754bc1aa1bddc4136" target="_top" xlink:title=" ">
<polygon fill="white" stroke="#666666" points="514,-295.7 422,-295.7 422,-276.7 514,-276.7 514,-295.7"/>
<text text-anchor="middle" x="468" y="-283.7" font-family="Helvetica,sans-Serif" font-size="10.00">func_8008EEC4</text>
</a>
</g>
</g>
<!-- Node5&#45;&gt;Node15 -->
<g id="edge14_Node000005_Node000015" class="edge">
<title>Node5&#45;&gt;Node15</title>
<g id="a_edge14_Node000005_Node000015"><a xlink:title=" ">
<path fill="none" stroke="#63b8ff" d="M363.77,-518.01C368.76,-515.54 373.34,-512.34 377,-508.2 437.95,-439.19 352.86,-373.9 413,-304.2 413.74,-303.33 414.53,-302.52 415.35,-301.74"/>
<polygon fill="#63b8ff" stroke="#63b8ff" points="417.59,-304.44 423.6,-295.71 413.46,-298.78 417.59,-304.44"/>
</a>
</g>
</g>
<!-- Node16 -->
<g id="Node000016" class="node">
<title>Node16</title>
<g id="a_Node000016"><a xlink:href="code__8008C1D0_8c.html#a77e26f2cff6381f9ba1575f8da060571" target="_top" xlink:title=" ">
<polygon fill="white" stroke="#666666" points="513.5,-776.7 422.5,-776.7 422.5,-757.7 513.5,-757.7 513.5,-776.7"/>
<text text-anchor="middle" x="468" y="-764.7" font-family="Helvetica,sans-Serif" font-size="10.00">func_8008F0E8</text>
</a>
</g>
</g>
<!-- Node5&#45;&gt;Node16 -->
<g id="edge15_Node000005_Node000016" class="edge">
<title>Node5&#45;&gt;Node16</title>
<g id="a_edge15_Node000005_Node000016"><a xlink:title=" ">
<path fill="none" stroke="#63b8ff" d="M319.75,-535.83C324.68,-570.1 345.98,-687.28 413,-749.2 414.27,-750.37 415.62,-751.47 417.04,-752.5"/>
<polygon fill="#63b8ff" stroke="#63b8ff" points="415.31,-755.54 425.7,-757.63 418.88,-749.52 415.31,-755.54"/>
</a>
</g>
</g>
<!-- Node17 -->
<g id="Node000017" class="node">
<title>Node17</title>
<g id="a_Node000017"><a xlink:href="code__8008C1D0_8c.html#ae02351b6bbb678b552ec8864b47fc56c" target="_top" xlink:title=" ">
<polygon fill="white" stroke="#666666" points="513.5,-739.7 422.5,-739.7 422.5,-720.7 513.5,-720.7 513.5,-739.7"/>
<text text-anchor="middle" x="468" y="-727.7" font-family="Helvetica,sans-Serif" font-size="10.00">func_8008F3E0</text>
</a>
</g>
</g>
<!-- Node5&#45;&gt;Node17 -->
<g id="edge16_Node000005_Node000017" class="edge">
<title>Node5&#45;&gt;Node17</title>
<g id="a_edge16_Node000005_Node000017"><a xlink:title=" ">
<path fill="none" stroke="#63b8ff" d="M320.66,-535.91C327.95,-566.51 354.55,-661.83 413,-712.2 414.49,-713.48 416.07,-714.67 417.72,-715.78"/>
<polygon fill="#63b8ff" stroke="#63b8ff" points="416.03,-718.84 426.47,-720.64 419.43,-712.72 416.03,-718.84"/>
</a>
</g>
</g>
<!-- Node18 -->
<g id="Node000018" class="node">
<title>Node18</title>
<g id="a_Node000018"><a xlink:href="code__8008C1D0_8c.html#afcf39ca15166fb7561402462930cd979" target="_top" xlink:title=" ">
<polygon fill="white" stroke="#666666" points="514,-702.7 422,-702.7 422,-683.7 514,-683.7 514,-702.7"/>
<text text-anchor="middle" x="468" y="-690.7" font-family="Helvetica,sans-Serif" font-size="10.00">func_8008F5A4</text>
</a>
</g>
</g>
<!-- Node5&#45;&gt;Node18 -->
<g id="edge17_Node000005_Node000018" class="edge">
<title>Node5&#45;&gt;Node18</title>
<g id="a_edge17_Node000005_Node000018"><a xlink:title=" ">
<path fill="none" stroke="#63b8ff" d="M321.93,-535.81C331.79,-562.11 362.81,-635.95 413,-675.2 414.77,-676.58 416.65,-677.86 418.61,-679.05"/>
<polygon fill="#63b8ff" stroke="#63b8ff" points="417.11,-682.21 427.6,-683.64 420.3,-675.97 417.11,-682.21"/>
</a>
</g>
</g>
<!-- Node23 -->
<g id="Node000023" class="node">
<title>Node23</title>
<g id="a_Node000023"><a xlink:href="code__8008C1D0_8c.html#ab6d84742231847170dd64267f0519cdf" target="_top" xlink:title=" ">
<polygon fill="white" stroke="#666666" points="514.5,-665.7 421.5,-665.7 421.5,-646.7 514.5,-646.7 514.5,-665.7"/>
<text text-anchor="middle" x="468" y="-653.7" font-family="Helvetica,sans-Serif" font-size="10.00">func_8008FEDC</text>
</a>
</g>
</g>
<!-- Node5&#45;&gt;Node23 -->
<g id="edge22_Node000005_Node000023" class="edge">
<title>Node5&#45;&gt;Node23</title>
<g id="a_edge22_Node000005_Node000023"><a xlink:title=" ">
<path fill="none" stroke="#63b8ff" d="M324.04,-535.83C336.9,-557.34 370.89,-609.64 413,-638.2 415.26,-639.73 417.66,-641.14 420.15,-642.44"/>
<polygon fill="#63b8ff" stroke="#63b8ff" points="418.87,-645.7 429.42,-646.66 421.77,-639.33 418.87,-645.7"/>
</a>
</g>
</g>
<!-- Node19 -->
<g id="Node000019" class="node">
<title>Node19</title>
<g id="a_Node000019"><a xlink:href="code__80057C60_8c.html#a0a55fae21abd30d3c618adef1a9f3ccd" target="_top" xlink:title=" ">
<polygon fill="white" stroke="#666666" points="651.5,-702.7 559.5,-702.7 559.5,-683.7 651.5,-683.7 651.5,-702.7"/>
<text text-anchor="middle" x="605.5" y="-690.7" font-family="Helvetica,sans-Serif" font-size="10.00">func_8006B8B4</text>
</a>
</g>
</g>
<!-- Node18&#45;&gt;Node19 -->
<g id="edge18_Node000018_Node000019" class="edge">
<title>Node18&#45;&gt;Node19</title>
<g id="a_edge18_Node000018_Node000019"><a xlink:title=" ">
<path fill="none" stroke="#63b8ff" d="M514.12,-693.2C525.31,-693.2 537.44,-693.2 549.06,-693.2"/>
<polygon fill="#63b8ff" stroke="#63b8ff" points="549.12,-696.7 559.12,-693.2 549.12,-689.7 549.12,-696.7"/>
</a>
</g>
</g>
<!-- Node20 -->
<g id="Node000020" class="node">
<title>Node20</title>
<g id="a_Node000020"><a xlink:href="code__8008C1D0_8c.html#a1c7552c4a370cc015c2726e40f1fdb06" target="_top" xlink:title=" ">
<polygon fill="white" stroke="#666666" points="781,-683.7 688,-683.7 688,-664.7 781,-664.7 781,-683.7"/>
<text text-anchor="middle" x="734.5" y="-671.7" font-family="Helvetica,sans-Serif" font-size="10.00">func_8008FD4C</text>
</a>
</g>
</g>
<!-- Node19&#45;&gt;Node20 -->
<g id="edge19_Node000019_Node000020" class="edge">
<title>Node19&#45;&gt;Node20</title>
<g id="a_edge19_Node000019_Node000020"><a xlink:title=" ">
<path fill="none" stroke="#63b8ff" d="M651.63,-686.44C660.04,-685.19 668.91,-683.86 677.59,-682.56"/>
<polygon fill="#63b8ff" stroke="#63b8ff" points="678.28,-686 687.66,-681.05 677.25,-679.07 678.28,-686"/>
</a>
</g>
</g>
<!-- Node19&#45;&gt;Node21 -->
<g id="edge20_Node000019_Node000021" class="edge">
<title>Node19&#45;&gt;Node21</title>
<g id="a_edge20_Node000019_Node000021"><a xlink:title=" ">
<path fill="none" stroke="#63b8ff" d="M651.63,-699.59C660.14,-700.8 669.13,-702.07 677.91,-703.32"/>
<polygon fill="#63b8ff" stroke="#63b8ff" points="677.69,-706.82 688.08,-704.76 678.67,-699.89 677.69,-706.82"/>
</a>
</g>
</g>
<!-- Node22 -->
<g id="Node000022" class="node">
<title>Node22</title>
<g id="a_Node000022"><a xlink:href="external_8c.html#a62e16f9600e7e9beda2c9d2df10f3561" target="_top" xlink:title=" ">
<polygon fill="white" stroke="#666666" points="889,-410.7 817,-410.7 817,-391.7 889,-391.7 889,-410.7"/>
<text text-anchor="middle" x="853" y="-398.7" font-family="Helvetica,sans-Serif" font-size="10.00">play_sound</text>
</a>
</g>
</g>
<!-- Node21&#45;&gt;Node22 -->
<g id="edge21_Node000021_Node000022" class="edge">
<title>Node21&#45;&gt;Node22</title>
<g id="a_edge21_Node000021_Node000022"><a xlink:title=" ">
<path fill="none" stroke="#63b8ff" d="M770.61,-701.47C774.5,-699.25 778.1,-696.53 781,-693.2 817.21,-651.6 842.03,-479.57 849.58,-420.9"/>
<polygon fill="#63b8ff" stroke="#63b8ff" points="853.08,-421.11 850.86,-410.75 846.14,-420.24 853.08,-421.11"/>
</a>
</g>
</g>
<!-- Node25 -->
<g id="Node000025" class="node">
<title>Node25</title>
<g id="a_Node000025"><a xlink:href="render__player_8c.html#a35eebbf671cc37666be29a2a9b6f3c8c" target="_top" xlink:title=" ">
<polygon fill="white" stroke="#666666" points="523,-258.7 413,-258.7 413,-239.7 523,-239.7 523,-258.7"/>
<text text-anchor="middle" x="468" y="-246.7" font-family="Helvetica,sans-Serif" font-size="10.00">move_f32_towards</text>
</a>
</g>
</g>
<!-- Node24&#45;&gt;Node25 -->
<g id="edge24_Node000024_Node000025" class="edge">
<title>Node24&#45;&gt;Node25</title>
<g id="a_edge24_Node000024_Node000025"><a xlink:title=" ">
<path fill="none" stroke="#63b8ff" d="M363.77,-481.01C368.76,-478.54 373.34,-475.34 377,-471.2 437.95,-402.19 352.86,-336.9 413,-267.2 413.74,-266.33 414.53,-265.52 415.35,-264.74"/>
<polygon fill="#63b8ff" stroke="#63b8ff" points="417.59,-267.44 423.6,-258.71 413.46,-261.78 417.59,-267.44"/>
</a>
</g>
</g>
<!-- Node27 -->
<g id="Node000027" class="node">
<title>Node27</title>
<g id="a_Node000027"><a xlink:href="external_8c.html#ac32b332e8b9a73af543741393186060d" target="_top" xlink:title=" ">
<polygon fill="white" stroke="#666666" points="514,-137.7 422,-137.7 422,-118.7 514,-118.7 514,-137.7"/>
<text text-anchor="middle" x="468" y="-125.7" font-family="Helvetica,sans-Serif" font-size="10.00">func_800CA730</text>
</a>
</g>
</g>
<!-- Node26&#45;&gt;Node27 -->
<g id="edge26_Node000026_Node000027" class="edge">
<title>Node26&#45;&gt;Node27</title>
<g id="a_edge26_Node000026_Node000027"><a xlink:title=" ">
<path fill="none" stroke="#63b8ff" d="M363.62,-443.45C368.69,-440.86 373.34,-437.51 377,-433.2 446.72,-350.9 368.91,-291.63 413,-193.2 421.26,-174.74 436.28,-157.32 448.38,-145.17"/>
<polygon fill="#63b8ff" stroke="#63b8ff" points="451.06,-147.45 455.82,-137.98 446.19,-142.42 451.06,-147.45"/>
</a>
</g>
</g>
<!-- Node35 -->
<g id="Node000035" class="node">
<title>Node35</title>
<g id="a_Node000035"><a xlink:href="external_8c.html#a3138069310bbed5109964d607d51811f" target="_top" xlink:title=" ">
<polygon fill="white" stroke="#666666" points="515.5,-221.7 420.5,-221.7 420.5,-202.7 515.5,-202.7 515.5,-221.7"/>
<text text-anchor="middle" x="468" y="-209.7" font-family="Helvetica,sans-Serif" font-size="10.00">func_800CAACC</text>
</a>
</g>
</g>
<!-- Node26&#45;&gt;Node35 -->
<g id="edge36_Node000026_Node000035" class="edge">
<title>Node26&#45;&gt;Node35</title>
<g id="a_edge36_Node000026_Node000035"><a xlink:title=" ">
<path fill="none" stroke="#63b8ff" d="M363.51,-443.35C368.6,-440.78 373.28,-437.46 377,-433.2 437.15,-364.07 353.11,-299.55 413,-230.2 413.74,-229.34 414.53,-228.52 415.35,-227.74"/>
<polygon fill="#63b8ff" stroke="#63b8ff" points="417.59,-230.44 423.6,-221.72 413.46,-224.78 417.59,-230.44"/>
</a>
</g>
</g>
<!-- Node27&#45;&gt;Node22 -->
<g id="edge35_Node000027_Node000022" class="edge">
<title>Node27&#45;&gt;Node22</title>
<g id="a_edge35_Node000027_Node000022"><a xlink:title=" ">
<path fill="none" stroke="#63b8ff" d="M514.1,-121.1C582.89,-113.12 713.19,-109.74 781,-184.2 833.7,-242.06 847.34,-339.74 850.83,-381.41"/>
<polygon fill="#63b8ff" stroke="#63b8ff" points="847.35,-381.87 851.56,-391.59 854.33,-381.37 847.35,-381.87"/>
</a>
</g>
</g>
<!-- Node28 -->
<g id="Node000028" class="node">
<title>Node28</title>
<g id="a_Node000028"><a xlink:href="external_8c.html#ac48b7cbfcaa7737f892877ead85e4ba7" target="_top" xlink:title=" ">
<polygon fill="white" stroke="#666666" points="780.5,-24.7 688.5,-24.7 688.5,-5.7 780.5,-5.7 780.5,-24.7"/>
<text text-anchor="middle" x="734.5" y="-12.7" font-family="Helvetica,sans-Serif" font-size="10.00">func_800C3448</text>
</a>
</g>
</g>
<!-- Node27&#45;&gt;Node28 -->
<g id="edge27_Node000027_Node000028" class="edge">
<title>Node27&#45;&gt;Node28</title>
<g id="a_edge27_Node000027_Node000028"><a xlink:title=" ">
<path fill="none" stroke="#63b8ff" d="M473.08,-118.51C483.42,-95.4 513.14,-37.3 559,-15.2 597.67,3.44 646.98,1.45 683.32,-4.05"/>
<polygon fill="#63b8ff" stroke="#63b8ff" points="682.76,-7.5 693.2,-5.68 683.9,-0.6 682.76,-7.5"/>
</a>
</g>
</g>
<!-- Node29 -->
<g id="Node000029" class="node">
<title>Node29</title>
<g id="a_Node000029"><a xlink:href="external_8c.html#ab2ecda68e1fb6f957aafd4c5742e2f63" target="_top" xlink:title=" ">
<polygon fill="white" stroke="#666666" points="651.5,-230.7 559.5,-230.7 559.5,-211.7 651.5,-211.7 651.5,-230.7"/>
<text text-anchor="middle" x="605.5" y="-218.7" font-family="Helvetica,sans-Serif" font-size="10.00">func_800C3508</text>
</a>
</g>
</g>
<!-- Node27&#45;&gt;Node29 -->
<g id="edge28_Node000027_Node000029" class="edge">
<title>Node27&#45;&gt;Node29</title>
<g id="a_edge28_Node000027_Node000029"><a xlink:title=" ">
<path fill="none" stroke="#63b8ff" d="M478.79,-137.91C494.57,-153.17 527.11,-183 559,-202.2 562.03,-204.02 565.26,-205.74 568.55,-207.36"/>
<polygon fill="#63b8ff" stroke="#63b8ff" points="567.32,-210.65 577.87,-211.61 570.22,-204.28 567.32,-210.65"/>
</a>
</g>
</g>
<!-- Node30 -->
<g id="Node000030" class="node">
<title>Node30</title>
<g id="a_Node000030"><a xlink:href="external_8c.html#a2aea7abf056e029f247b18edb62aa218" target="_top" xlink:title=" ">
<polygon fill="white" stroke="#666666" points="651.5,-193.7 559.5,-193.7 559.5,-174.7 651.5,-174.7 651.5,-193.7"/>
<text text-anchor="middle" x="605.5" y="-181.7" font-family="Helvetica,sans-Serif" font-size="10.00">func_800C357C</text>
</a>
</g>
</g>
<!-- Node27&#45;&gt;Node30 -->
<g id="edge29_Node000027_Node000030" class="edge">
<title>Node27&#45;&gt;Node30</title>
<g id="a_edge29_Node000027_Node000030"><a xlink:title=" ">
<path fill="none" stroke="#63b8ff" d="M492.29,-137.82C514.34,-146.93 547.62,-160.69 572.22,-170.86"/>
<polygon fill="#63b8ff" stroke="#63b8ff" points="570.93,-174.11 581.51,-174.69 573.61,-167.64 570.93,-174.11"/>
</a>
</g>
</g>
<!-- Node31 -->
<g id="Node000031" class="node">
<title>Node31</title>
<g id="a_Node000031"><a xlink:href="external_8c.html#aea29af4ab009f59caa57f45987b0ea86" target="_top" xlink:title=" ">
<polygon fill="white" stroke="#666666" points="651.5,-80.7 559.5,-80.7 559.5,-61.7 651.5,-61.7 651.5,-80.7"/>
<text text-anchor="middle" x="605.5" y="-68.7" font-family="Helvetica,sans-Serif" font-size="10.00">func_800C3608</text>
</a>
</g>
</g>
<!-- Node27&#45;&gt;Node31 -->
<g id="edge30_Node000027_Node000031" class="edge">
<title>Node27&#45;&gt;Node31</title>
<g id="a_edge30_Node000027_Node000031"><a xlink:title=" ">
<path fill="none" stroke="#63b8ff" d="M491.68,-118.65C513.76,-109.37 547.53,-95.16 572.37,-84.71"/>
<polygon fill="#63b8ff" stroke="#63b8ff" points="573.89,-87.87 581.75,-80.77 571.17,-81.42 573.89,-87.87"/>
</a>
</g>
</g>
<!-- Node32 -->
<g id="Node000032" class="node">
<title>Node32</title>
<g id="a_Node000032"><a xlink:href="external_8c.html#afcb6c1c892ff72b06f548327e6e21586" target="_top" xlink:title=" ">
<polygon fill="white" stroke="#666666" points="652,-43.7 559,-43.7 559,-24.7 652,-24.7 652,-43.7"/>
<text text-anchor="middle" x="605.5" y="-31.7" font-family="Helvetica,sans-Serif" font-size="10.00">func_800C8EAC</text>
</a>
</g>
</g>
<!-- Node27&#45;&gt;Node32 -->
<g id="edge31_Node000027_Node000032" class="edge">
<title>Node27&#45;&gt;Node32</title>
<g id="a_edge31_Node000027_Node000032"><a xlink:title=" ">
<path fill="none" stroke="#63b8ff" d="M478.18,-118.64C493.64,-102.99 526.35,-71.72 559,-52.2 561.46,-50.72 564.06,-49.33 566.73,-48.01"/>
<polygon fill="#63b8ff" stroke="#63b8ff" points="568.24,-51.17 575.91,-43.86 565.35,-44.79 568.24,-51.17"/>
</a>
</g>
</g>
<!-- Node33 -->
<g id="Node000033" class="node">
<title>Node33</title>
<g id="a_Node000033"><a xlink:href="external_8c.html#a77dd28bb660c9e64fef58443fb7a1f0e" target="_top" xlink:title=" ">
<polygon fill="white" stroke="#666666" points="651.5,-156.7 559.5,-156.7 559.5,-137.7 651.5,-137.7 651.5,-156.7"/>
<text text-anchor="middle" x="605.5" y="-144.7" font-family="Helvetica,sans-Serif" font-size="10.00">func_800C9018</text>
</a>
</g>
</g>
<!-- Node27&#45;&gt;Node33 -->
<g id="edge33_Node000027_Node000033" class="edge">
<title>Node27&#45;&gt;Node33</title>
<g id="a_edge33_Node000027_Node000033"><a xlink:title=" ">
<path fill="none" stroke="#63b8ff" d="M514.12,-134.52C525.31,-136.09 537.44,-137.79 549.06,-139.42"/>
<polygon fill="#63b8ff" stroke="#63b8ff" points="548.73,-142.91 559.12,-140.83 549.7,-135.98 548.73,-142.91"/>
</a>
</g>
</g>
<!-- Node32&#45;&gt;Node28 -->
<g id="edge32_Node000032_Node000028" class="edge">
<title>Node32&#45;&gt;Node28</title>
<g id="a_edge32_Node000032_Node000028"><a xlink:title=" ">
<path fill="none" stroke="#63b8ff" d="M652.35,-27.34C660.72,-26.08 669.54,-24.76 678.16,-23.47"/>
<polygon fill="#63b8ff" stroke="#63b8ff" points="678.77,-26.92 688.14,-21.98 677.74,-20 678.77,-26.92"/>
</a>
</g>
</g>
<!-- Node34 -->
<g id="Node000034" class="node">
<title>Node34</title>
<g id="a_Node000034"><a xlink:href="external_8h.html#a69165d21844ba08a94405ec729d386d4" target="_top" xlink:title=" ">
<polygon fill="white" stroke="#666666" points="780.5,-212.7 688.5,-212.7 688.5,-193.7 780.5,-193.7 780.5,-212.7"/>
<text text-anchor="middle" x="734.5" y="-200.7" font-family="Helvetica,sans-Serif" font-size="10.00">func_800C5578</text>
</a>
</g>
</g>
<!-- Node33&#45;&gt;Node34 -->
<g id="edge34_Node000033_Node000034" class="edge">
<title>Node33&#45;&gt;Node34</title>
<g id="a_edge34_Node000033_Node000034"><a xlink:title=" ">
<path fill="none" stroke="#63b8ff" d="M631.64,-156.83C638.29,-159.47 645.45,-162.37 652,-165.2 669.69,-172.81 689.26,-181.91 704.79,-189.3"/>
<polygon fill="#63b8ff" stroke="#63b8ff" points="703.35,-192.49 713.89,-193.65 706.37,-186.18 703.35,-192.49"/>
</a>
</g>
</g>
<!-- Node35&#45;&gt;Node34 -->
<g id="edge38_Node000035_Node000034" class="edge">
<title>Node35&#45;&gt;Node34</title>
<g id="a_edge38_Node000035_Node000034"><a xlink:title=" ">
<path fill="none" stroke="#63b8ff" d="M497.6,-221.76C519.22,-228.81 547.14,-237.45 559,-239.2 599.9,-245.2 611.56,-247.73 652,-239.2 671.8,-235.02 692.65,-225.71 708.31,-217.6"/>
<polygon fill="#63b8ff" stroke="#63b8ff" points="710.17,-220.57 717.33,-212.76 706.86,-214.4 710.17,-220.57"/>
</a>
</g>
</g>
<!-- Node36 -->
<g id="Node000036" class="node">
<title>Node36</title>
<g id="a_Node000036"><a xlink:href="external_8c.html#a1c8490eb4720c317dd29ed76a1c4ea32" target="_top" xlink:title=" ">
<polygon fill="white" stroke="#666666" points="651.5,-306.7 559.5,-306.7 559.5,-287.7 651.5,-287.7 651.5,-306.7"/>
<text text-anchor="middle" x="605.5" y="-294.7" font-family="Helvetica,sans-Serif" font-size="10.00">func_800C21E8</text>
</a>
</g>
</g>
<!-- Node35&#45;&gt;Node36 -->
<g id="edge37_Node000035_Node000036" class="edge">
<title>Node35&#45;&gt;Node36</title>
<g id="a_edge37_Node000035_Node000036"><a xlink:title=" ">
<path fill="none" stroke="#63b8ff" d="M506.59,-221.71C512.34,-224.01 518.02,-226.8 523,-230.2 543.6,-244.22 539.61,-257.53 559,-273.2 563.34,-276.7 568.28,-279.93 573.25,-282.8"/>
<polygon fill="#63b8ff" stroke="#63b8ff" points="571.68,-285.93 582.14,-287.57 574.99,-279.76 571.68,-285.93"/>
</a>
</g>
</g>
<!-- Node38&#45;&gt;Node37 -->
<g id="edge42_Node000038_Node000037" class="edge">
<title>Node38&#45;&gt;Node37</title>
<g id="a_edge42_Node000038_Node000037"><a xlink:title=" ">
<path fill="none" stroke="#63b8ff" d="M220.84,-409.2C229.42,-409.2 238.58,-409.2 247.71,-409.2"/>
<polygon fill="#63b8ff" stroke="#63b8ff" points="247.97,-412.7 257.97,-409.2 247.97,-405.7 247.97,-412.7"/>
</a>
</g>
</g>
<!-- Node39 -->
<g id="Node000039" class="node">
<title>Node39</title>
<g id="a_Node000039"><a xlink:href="code__8008C1D0_8c.html#a3442a1fae6bd562a7502af8343bd06ba" target="_top" xlink:title=" ">
<polygon fill="white" stroke="#666666" points="363,-375.7 272,-375.7 272,-356.7 363,-356.7 363,-375.7"/>
<text text-anchor="middle" x="317.5" y="-363.7" font-family="Helvetica,sans-Serif" font-size="10.00">func_8008FF08</text>
</a>
</g>
</g>
<!-- Node38&#45;&gt;Node39 -->
<g id="edge41_Node000038_Node000039" class="edge">
<title>Node38&#45;&gt;Node39</title>
<g id="a_edge41_Node000038_Node000039"><a xlink:title=" ">
<path fill="none" stroke="#63b8ff" d="M207.18,-399.65C227.37,-393.47 253.88,-385.36 275.73,-378.67"/>
<polygon fill="#63b8ff" stroke="#63b8ff" points="276.87,-381.99 285.41,-375.71 274.82,-375.29 276.87,-381.99"/>
</a>
</g>
</g>
<!-- Node41 -->
<g id="Node000041" class="node">
<title>Node41</title>
<g id="a_Node000041"><a xlink:href="collision_8c.html#af3327ccb63774d1f6603c18d70097061" target="_top" xlink:title=" ">
<polygon fill="white" stroke="#666666" points="364.5,-338.7 270.5,-338.7 270.5,-319.7 364.5,-319.7 364.5,-338.7"/>
<text text-anchor="middle" x="317.5" y="-326.7" font-family="Helvetica,sans-Serif" font-size="10.00">func_802ABD40</text>
</a>
</g>
</g>
<!-- Node40&#45;&gt;Node41 -->
<g id="edge45_Node000040_Node000041" class="edge">
<title>Node40&#45;&gt;Node41</title>
<g id="a_edge45_Node000040_Node000041"><a xlink:title=" ">
<path fill="none" stroke="#63b8ff" d="M222,-329.2C234.26,-329.2 247.63,-329.2 260.36,-329.2"/>
<polygon fill="#63b8ff" stroke="#63b8ff" points="260.39,-332.7 270.39,-329.2 260.39,-325.7 260.39,-332.7"/>
</a>
</g>
</g>
<!-- Node42 -->
<g id="Node000042" class="node">
<title>Node42</title>
<g id="a_Node000042"><a xlink:href="collision_8c.html#a9395b9fc31397e9e9d754b4887a12544" target="_top" xlink:title=" ">
<polygon fill="white" stroke="#666666" points="368,-301.7 267,-301.7 267,-282.7 368,-282.7 368,-301.7"/>
<text text-anchor="middle" x="317.5" y="-289.7" font-family="Helvetica,sans-Serif" font-size="10.00">get_surface_type</text>
</a>
</g>
</g>
<!-- Node40&#45;&gt;Node42 -->
<g id="edge46_Node000040_Node000042" class="edge">
<title>Node40&#45;&gt;Node42</title>
<g id="a_edge46_Node000040_Node000042"><a xlink:title=" ">
<path fill="none" stroke="#63b8ff" d="M212.18,-319.67C229.83,-315.02 251.25,-309.38 270.09,-304.42"/>
<polygon fill="#63b8ff" stroke="#63b8ff" points="271.17,-307.75 279.95,-301.82 269.39,-300.98 271.17,-307.75"/>
</a>
</g>
</g>
</g>
</svg>
