<?xml version="1.0" encoding="UTF-8" standalone="no"?>
<!DOCTYPE svg PUBLIC "-//W3C//DTD SVG 1.1//EN"
 "http://www.w3.org/Graphics/SVG/1.1/DTD/svg11.dtd">
<!-- Generated by graphviz version 2.43.0 (0)
 -->
<!-- Title: player_speed Pages: 1 -->
<!--zoomable 546 -->

<svg id="main" version="1.1" xmlns="http://www.w3.org/2000/svg" xmlns:xlink="http://www.w3.org/1999/xlink" xml:space="preserve" onload="init(evt)">
<style type="text/css"><![CDATA[
.node, .edge {opacity: 0.7;}
.node.selected, .edge.selected {opacity: 1;}
.edge:hover path { stroke: red; }
.edge:hover polygon { stroke: red; fill: red; }
]]></style>

<defs>
  <circle id="rim" cx="0" cy="0" r="7"/>
  <circle id="rim2" cx="0" cy="0" r="3.5"/>
  <g id="zoomPlus">
    <use xlink:href="#rim" fill="#404040"><set attributeName="fill" to="#808080" begin="zoomplus.mouseover" end="zoomplus.mouseout"/></use>
    <path d="M-4,0h8M0,-4v8" fill="none" stroke="white" stroke-width="1.5" pointer-events="none"/>
  </g>
  <g id="zoomMin">
    <use xlink:href="#rim" fill="#404040"><set attributeName="fill" to="#808080" begin="zoomminus.mouseover" end="zoomminus.mouseout"/></use>
    <path d="M-4,0h8" fill="none" stroke="white" stroke-width="1.5" pointer-events="none"/>
  </g>
  <g id="arrowUp" transform="translate(30 24)">
    <use xlink:href="#rim"/>
    <path pointer-events="none" fill="none" stroke="white" stroke-width="1.5" d="M0,-3.0v7 M-2.5,-0.5L0,-3.0L2.5,-0.5"/>
  </g>
  <g id="arrowRight" transform="rotate(90) translate(36 -43)">
    <use xlink:href="#rim"/>
    <path pointer-events="none" fill="none" stroke="white" stroke-width="1.5" d="M0,-3.0v7 M-2.5,-0.5L0,-3.0L2.5,-0.5"/>
  </g>
  <g id="arrowDown" transform="rotate(180) translate(-30 -48)">
    <use xlink:href="#rim"/>
    <path pointer-events="none" fill="none" stroke="white" stroke-width="1.5" d="M0,-3.0v7 M-2.5,-0.5L0,-3.0L2.5,-0.5"/>
  </g>
  <g id="arrowLeft" transform="rotate(270) translate(-36 17)">
    <use xlink:href="#rim"/>
    <path pointer-events="none" fill="none" stroke="white" stroke-width="1.5" d="M0,-3.0v7 M-2.5,-0.5L0,-3.0L2.5,-0.5"/>
  </g>
  <g id="resetDef">
    <use xlink:href="#rim2" fill="#404040"><set attributeName="fill" to="#808080" begin="reset.mouseover" end="reset.mouseout"/></use>
  </g>
</defs>
<script type="application/ecmascript">
var viewWidth = 867;
var viewHeight = 546;
var sectionId = 'dynsection-138';
</script>
<script type="application/ecmascript" xlink:href="svg.min.js"/>
<svg id="graph" class="graph">
<g id="viewport">
<title>player_speed</title>
<!-- Node1 -->
<g id="Node000001" class="node">
<title>Node1</title>
<g id="a_Node000001"><a xlink:title=" ">
<polygon fill="#999999" stroke="#666666" points="82,-127 0,-127 0,-108 82,-108 82,-127"/>
<text text-anchor="middle" x="41" y="-115" font-family="Helvetica,sans-Serif" font-size="10.00">player_speed</text>
</a>
</g>
</g>
<!-- Node2 -->
<g id="Node000002" class="node">
<title>Node2</title>
<g id="a_Node000002"><a xlink:href="code__8008C1D0_8c.html#ae77e5662a7ef9f09c2e2150a36883d04" target="_top" xlink:title=" ">
<polygon fill="white" stroke="#666666" points="223,-149 132,-149 132,-130 223,-130 223,-149"/>
<text text-anchor="middle" x="177.5" y="-137" font-family="Helvetica,sans-Serif" font-size="10.00">func_8008F104</text>
</a>
</g>
</g>
<!-- Node1&#45;&gt;Node2 -->
<g id="edge1_Node000001_Node000002" class="edge">
<title>Node1&#45;&gt;Node2</title>
<g id="a_edge1_Node000001_Node000002"><a xlink:title=" ">
<path fill="none" stroke="#63b8ff" d="M82.35,-124.1C94.81,-126.14 108.74,-128.42 121.98,-130.58"/>
<polygon fill="#63b8ff" stroke="#63b8ff" points="121.51,-134.05 131.94,-132.21 122.64,-127.14 121.51,-134.05"/>
</a>
</g>
</g>
<!-- Node23 -->
<g id="Node000023" class="node">
<title>Node23</title>
<g id="a_Node000023"><a xlink:href="player__controller_8c.html#aafeb0470c7da44e1440ffa4848f7d500" target="_top" xlink:title=" ">
<polygon fill="white" stroke="#666666" points="237,-111.5 118,-111.5 118,-81.5 237,-81.5 237,-111.5"/>
<text text-anchor="start" x="126" y="-99.5" font-family="Helvetica,sans-Serif" font-size="10.00">get_player_index_for</text>
<text text-anchor="middle" x="177.5" y="-88.5" font-family="Helvetica,sans-Serif" font-size="10.00">_player</text>
</a>
</g>
</g>
<!-- Node1&#45;&gt;Node23 -->
<g id="edge23_Node000001_Node000023" class="edge">
<title>Node1&#45;&gt;Node23</title>
<g id="a_edge23_Node000001_Node000023"><a xlink:title=" ">
<path fill="none" stroke="#63b8ff" d="M82.35,-111.2C90.36,-109.95 98.98,-108.6 107.63,-107.25"/>
<polygon fill="#63b8ff" stroke="#63b8ff" points="108.44,-110.67 117.78,-105.67 107.36,-103.75 108.44,-110.67"/>
</a>
</g>
</g>
<!-- Node3 -->
<g id="Node000003" class="node">
<title>Node3</title>
<g id="a_Node000003"><a xlink:href="code__8008C1D0_8c.html#a5cdc06d2091fc6d20759448c40b17d54" target="_top" xlink:title=" ">
<polygon fill="white" stroke="#666666" points="365,-279 273,-279 273,-260 365,-260 365,-279"/>
<text text-anchor="middle" x="319" y="-267" font-family="Helvetica,sans-Serif" font-size="10.00">func_8008C354</text>
</a>
</g>
</g>
<!-- Node2&#45;&gt;Node3 -->
<g id="edge2_Node000002_Node000003" class="edge">
<title>Node2&#45;&gt;Node3</title>
<g id="a_edge2_Node000002_Node000003"><a xlink:title=" ">
<path fill="none" stroke="#63b8ff" d="M188.99,-149.27C212.73,-171.4 270.84,-225.55 300.28,-252.99"/>
<polygon fill="#63b8ff" stroke="#63b8ff" points="298.07,-255.71 307.77,-259.97 302.84,-250.59 298.07,-255.71"/>
</a>
</g>
</g>
<!-- Node22 -->
<g id="Node000022" class="node">
<title>Node22</title>
<g id="a_Node000022"><a xlink:href="external_8c.html#a1a1bdc0f5d3b6fd4a86b9d62e93a076e" target="_top" xlink:title=" ">
<polygon fill="white" stroke="#666666" points="622,-19 530,-19 530,0 622,0 622,-19"/>
<text text-anchor="middle" x="576" y="-7" font-family="Helvetica,sans-Serif" font-size="10.00">func_800C90F4</text>
</a>
</g>
</g>
<!-- Node2&#45;&gt;Node22 -->
<g id="edge21_Node000002_Node000022" class="edge">
<title>Node2&#45;&gt;Node22</title>
<g id="a_edge21_Node000002_Node000022"><a xlink:title=" ">
<path fill="none" stroke="#63b8ff" d="M211.72,-129.97C220.09,-127.22 228.98,-124.01 237,-120.5 313.56,-86.98 321.41,-53.99 401,-28.5 439.29,-16.23 484.48,-11.57 519.21,-9.93"/>
<polygon fill="#63b8ff" stroke="#63b8ff" points="519.78,-13.41 529.63,-9.51 519.5,-6.42 519.78,-13.41"/>
</a>
</g>
</g>
<!-- Node4 -->
<g id="Node000004" class="node">
<title>Node4</title>
<g id="a_Node000004"><a xlink:href="code__8008C1D0_8c.html#ad164a912d7ef76f24e7b5cfb9169c16f" target="_top" xlink:title=" ">
<polygon fill="white" stroke="#666666" points="494,-538 401,-538 401,-519 494,-519 494,-538"/>
<text text-anchor="middle" x="447.5" y="-526" font-family="Helvetica,sans-Serif" font-size="10.00">func_8008C6D0</text>
</a>
</g>
</g>
<!-- Node3&#45;&gt;Node4 -->
<g id="edge3_Node000003_Node000004" class="edge">
<title>Node3&#45;&gt;Node4</title>
<g id="a_edge3_Node000003_Node000004"><a xlink:title=" ">
<path fill="none" stroke="#63b8ff" d="M320.45,-279.24C322.6,-315.01 334.77,-440.7 401,-510.5 401.89,-511.44 402.83,-512.32 403.82,-513.17"/>
<polygon fill="#63b8ff" stroke="#63b8ff" points="401.87,-516.08 412.12,-518.78 405.8,-510.28 401.87,-516.08"/>
</a>
</g>
</g>
<!-- Node5 -->
<g id="Node000005" class="node">
<title>Node5</title>
<g id="a_Node000005"><a xlink:href="code__8008C1D0_8c.html#a105203221e314be241a95e006b62ef80" target="_top" xlink:title=" ">
<polygon fill="white" stroke="#666666" points="493.5,-501 401.5,-501 401.5,-482 493.5,-482 493.5,-501"/>
<text text-anchor="middle" x="447.5" y="-489" font-family="Helvetica,sans-Serif" font-size="10.00">func_8008C8C4</text>
</a>
</g>
</g>
<!-- Node3&#45;&gt;Node5 -->
<g id="edge4_Node000003_Node000005" class="edge">
<title>Node3&#45;&gt;Node5</title>
<g id="a_edge4_Node000003_Node000005"><a xlink:title=" ">
<path fill="none" stroke="#63b8ff" d="M321.11,-279.07C325.3,-311.07 343.03,-415.6 401,-473.5 401.95,-474.45 402.95,-475.34 404,-476.19"/>
<polygon fill="#63b8ff" stroke="#63b8ff" points="402.45,-479.36 412.74,-481.86 406.25,-473.49 402.45,-479.36"/>
</a>
</g>
</g>
<!-- Node6 -->
<g id="Node000006" class="node">
<title>Node6</title>
<g id="a_Node000006"><a xlink:href="code__8008C1D0_8c.html#acab450a6af6eca812ad3987a292a5165" target="_top" xlink:title=" ">
<polygon fill="white" stroke="#666666" points="493.5,-464 401.5,-464 401.5,-445 493.5,-445 493.5,-464"/>
<text text-anchor="middle" x="447.5" y="-452" font-family="Helvetica,sans-Serif" font-size="10.00">func_8008D0E4</text>
</a>
</g>
</g>
<!-- Node3&#45;&gt;Node6 -->
<g id="edge5_Node000003_Node000006" class="edge">
<title>Node3&#45;&gt;Node6</title>
<g id="a_edge5_Node000003_Node000006"><a xlink:title=" ">
<path fill="none" stroke="#63b8ff" d="M322.1,-279.28C328.67,-307.58 351.39,-390.48 401,-436.5 402.13,-437.55 403.33,-438.54 404.58,-439.47"/>
<polygon fill="#63b8ff" stroke="#63b8ff" points="403.07,-442.65 413.43,-444.87 406.71,-436.67 403.07,-442.65"/>
</a>
</g>
</g>
<!-- Node7 -->
<g id="Node000007" class="node">
<title>Node7</title>
<g id="a_Node000007"><a xlink:href="code__8008C1D0_8c.html#a663cb8df8b606cf00e361977c9d6d834" target="_top" xlink:title=" ">
<polygon fill="white" stroke="#666666" points="494,-427 401,-427 401,-408 494,-408 494,-427"/>
<text text-anchor="middle" x="447.5" y="-415" font-family="Helvetica,sans-Serif" font-size="10.00">func_8008D3B0</text>
</a>
</g>
</g>
<!-- Node3&#45;&gt;Node7 -->
<g id="edge6_Node000003_Node000007" class="edge">
<title>Node3&#45;&gt;Node7</title>
<g id="a_edge6_Node000003_Node000007"><a xlink:title=" ">
<path fill="none" stroke="#63b8ff" d="M323.51,-279.11C332.64,-302.83 359.34,-364.75 401,-399.5 402.52,-400.77 404.13,-401.95 405.82,-403.06"/>
<polygon fill="#63b8ff" stroke="#63b8ff" points="404.24,-406.18 414.68,-407.97 407.63,-400.06 404.24,-406.18"/>
</a>
</g>
</g>
<!-- Node8 -->
<g id="Node000008" class="node">
<title>Node8</title>
<g id="a_Node000008"><a xlink:href="code__8008C1D0_8c.html#ae7bb91110e710a8f32fcd4c56c56f934" target="_top" xlink:title=" ">
<polygon fill="white" stroke="#666666" points="493.5,-390 401.5,-390 401.5,-371 493.5,-371 493.5,-390"/>
<text text-anchor="middle" x="447.5" y="-378" font-family="Helvetica,sans-Serif" font-size="10.00">func_8008D554</text>
</a>
</g>
</g>
<!-- Node3&#45;&gt;Node8 -->
<g id="edge7_Node000003_Node000008" class="edge">
<title>Node3&#45;&gt;Node8</title>
<g id="a_edge7_Node000003_Node000008"><a xlink:title=" ">
<path fill="none" stroke="#63b8ff" d="M325.98,-279C338.06,-297.48 367.08,-338.52 401,-362.5 402.86,-363.82 404.83,-365.05 406.86,-366.21"/>
<polygon fill="#63b8ff" stroke="#63b8ff" points="405.57,-369.48 416.08,-370.82 408.7,-363.22 405.57,-369.48"/>
</a>
</g>
</g>
<!-- Node9 -->
<g id="Node000009" class="node">
<title>Node9</title>
<g id="a_Node000009"><a xlink:href="code__8008C1D0_8c.html#a5f19eaaa048055d292d02c717e635786" target="_top" xlink:title=" ">
<polygon fill="white" stroke="#666666" points="493.5,-353 401.5,-353 401.5,-334 493.5,-334 493.5,-353"/>
<text text-anchor="middle" x="447.5" y="-341" font-family="Helvetica,sans-Serif" font-size="10.00">func_8008D760</text>
</a>
</g>
</g>
<!-- Node3&#45;&gt;Node9 -->
<g id="edge8_Node000003_Node000009" class="edge">
<title>Node3&#45;&gt;Node9</title>
<g id="a_edge8_Node000003_Node000009"><a xlink:title=" ">
<path fill="none" stroke="#63b8ff" d="M332.06,-279.15C347.42,-291.13 375.07,-311.64 401,-325.5 403.85,-327.02 406.85,-328.49 409.9,-329.88"/>
<polygon fill="#63b8ff" stroke="#63b8ff" points="408.52,-333.1 419.09,-333.83 411.29,-326.67 408.52,-333.1"/>
</a>
</g>
</g>
<!-- Node10 -->
<g id="Node000010" class="node">
<title>Node10</title>
<g id="a_Node000010"><a xlink:href="code__8008C1D0_8c.html#a4ea2da0616ee3c475e4be217dc0bc71f" target="_top" xlink:title=" ">
<polygon fill="white" stroke="#666666" points="494,-316 401,-316 401,-297 494,-297 494,-316"/>
<text text-anchor="middle" x="447.5" y="-304" font-family="Helvetica,sans-Serif" font-size="10.00">func_8008D97C</text>
</a>
</g>
</g>
<!-- Node3&#45;&gt;Node10 -->
<g id="edge9_Node000003_Node000010" class="edge">
<title>Node3&#45;&gt;Node10</title>
<g id="a_edge9_Node000003_Node000010"><a xlink:title=" ">
<path fill="none" stroke="#63b8ff" d="M352.58,-279.03C368.1,-283.57 386.87,-289.06 403.53,-293.93"/>
<polygon fill="#63b8ff" stroke="#63b8ff" points="403.01,-297.43 413.59,-296.88 404.98,-290.71 403.01,-297.43"/>
</a>
</g>
</g>
<!-- Node11 -->
<g id="Node000011" class="node">
<title>Node11</title>
<g id="a_Node000011"><a xlink:href="code__8008C1D0_8c.html#a4a437d6caeeaa794bcce43ec60c097e9" target="_top" xlink:title=" ">
<polygon fill="white" stroke="#666666" points="493,-279 402,-279 402,-260 493,-260 493,-279"/>
<text text-anchor="middle" x="447.5" y="-267" font-family="Helvetica,sans-Serif" font-size="10.00">func_8008E884</text>
</a>
</g>
</g>
<!-- Node3&#45;&gt;Node11 -->
<g id="edge10_Node000003_Node000011" class="edge">
<title>Node3&#45;&gt;Node11</title>
<g id="a_edge10_Node000003_Node000011"><a xlink:title=" ">
<path fill="none" stroke="#63b8ff" d="M365.31,-269.5C373.87,-269.5 382.91,-269.5 391.73,-269.5"/>
<polygon fill="#63b8ff" stroke="#63b8ff" points="391.93,-273 401.93,-269.5 391.93,-266 391.93,-273"/>
</a>
</g>
</g>
<!-- Node12 -->
<g id="Node000012" class="node">
<title>Node12</title>
<g id="a_Node000012"><a xlink:href="code__8008C1D0_8c.html#a4e2c6d0ba50b7c13695f74f1c2bc7b18" target="_top" xlink:title=" ">
<polygon fill="white" stroke="#666666" points="493.5,-242 401.5,-242 401.5,-223 493.5,-223 493.5,-242"/>
<text text-anchor="middle" x="447.5" y="-230" font-family="Helvetica,sans-Serif" font-size="10.00">func_8008EC34</text>
</a>
</g>
</g>
<!-- Node3&#45;&gt;Node12 -->
<g id="edge11_Node000003_Node000012" class="edge">
<title>Node3&#45;&gt;Node12</title>
<g id="a_edge11_Node000003_Node000012"><a xlink:title=" ">
<path fill="none" stroke="#63b8ff" d="M352.58,-259.97C368.1,-255.43 386.87,-249.94 403.53,-245.07"/>
<polygon fill="#63b8ff" stroke="#63b8ff" points="404.98,-248.29 413.59,-242.12 403.01,-241.57 404.98,-248.29"/>
</a>
</g>
</g>
<!-- Node13 -->
<g id="Node000013" class="node">
<title>Node13</title>
<g id="a_Node000013"><a xlink:href="code__8008C1D0_8c.html#ae48f5d9507d1966754bc1aa1bddc4136" target="_top" xlink:title=" ">
<polygon fill="white" stroke="#666666" points="493.5,-205 401.5,-205 401.5,-186 493.5,-186 493.5,-205"/>
<text text-anchor="middle" x="447.5" y="-193" font-family="Helvetica,sans-Serif" font-size="10.00">func_8008EEC4</text>
</a>
</g>
</g>
<!-- Node3&#45;&gt;Node13 -->
<g id="edge12_Node000003_Node000013" class="edge">
<title>Node3&#45;&gt;Node13</title>
<g id="a_edge12_Node000003_Node000013"><a xlink:title=" ">
<path fill="none" stroke="#63b8ff" d="M332.4,-259.91C347.88,-248.23 375.44,-228.33 401,-214.5 404.46,-212.63 408.14,-210.82 411.86,-209.1"/>
<polygon fill="#63b8ff" stroke="#63b8ff" points="413.3,-212.29 421.05,-205.07 410.48,-205.88 413.3,-212.29"/>
</a>
</g>
</g>
<!-- Node14 -->
<g id="Node000014" class="node">
<title>Node14</title>
<g id="a_Node000014"><a xlink:href="code__8008C1D0_8c.html#a77e26f2cff6381f9ba1575f8da060571" target="_top" xlink:title=" ">
<polygon fill="white" stroke="#666666" points="493,-168 402,-168 402,-149 493,-149 493,-168"/>
<text text-anchor="middle" x="447.5" y="-156" font-family="Helvetica,sans-Serif" font-size="10.00">func_8008F0E8</text>
</a>
</g>
</g>
<!-- Node3&#45;&gt;Node14 -->
<g id="edge13_Node000003_Node000014" class="edge">
<title>Node3&#45;&gt;Node14</title>
<g id="a_edge13_Node000003_Node000014"><a xlink:title=" ">
<path fill="none" stroke="#63b8ff" d="M326.24,-259.88C338.54,-241.57 367.63,-201.44 401,-177.5 403.49,-175.71 406.18,-174.05 408.96,-172.52"/>
<polygon fill="#63b8ff" stroke="#63b8ff" points="410.59,-175.62 418.01,-168.06 407.5,-169.34 410.59,-175.62"/>
</a>
</g>
</g>
<!-- Node15 -->
<g id="Node000015" class="node">
<title>Node15</title>
<g id="a_Node000015"><a xlink:href="code__8008C1D0_8c.html#ae02351b6bbb678b552ec8864b47fc56c" target="_top" xlink:title=" ">
<polygon fill="white" stroke="#666666" points="493,-131 402,-131 402,-112 493,-112 493,-131"/>
<text text-anchor="middle" x="447.5" y="-119" font-family="Helvetica,sans-Serif" font-size="10.00">func_8008F3E0</text>
</a>
</g>
</g>
<!-- Node3&#45;&gt;Node15 -->
<g id="edge14_Node000003_Node000015" class="edge">
<title>Node3&#45;&gt;Node15</title>
<g id="a_edge14_Node000003_Node000015"><a xlink:title=" ">
<path fill="none" stroke="#63b8ff" d="M323.71,-259.66C333.11,-235.98 360.04,-175.2 401,-140.5 402.94,-138.85 405.05,-137.33 407.25,-135.93"/>
<polygon fill="#63b8ff" stroke="#63b8ff" points="409.01,-138.96 416.11,-131.1 405.66,-132.82 409.01,-138.96"/>
</a>
</g>
</g>
<!-- Node16 -->
<g id="Node000016" class="node">
<title>Node16</title>
<g id="a_Node000016"><a xlink:href="code__8008C1D0_8c.html#afcf39ca15166fb7561402462930cd979" target="_top" xlink:title=" ">
<polygon fill="white" stroke="#666666" points="493.5,-94 401.5,-94 401.5,-75 493.5,-75 493.5,-94"/>
<text text-anchor="middle" x="447.5" y="-82" font-family="Helvetica,sans-Serif" font-size="10.00">func_8008F5A4</text>
</a>
</g>
</g>
<!-- Node3&#45;&gt;Node16 -->
<g id="edge15_Node000003_Node000016" class="edge">
<title>Node3&#45;&gt;Node16</title>
<g id="a_edge15_Node000003_Node000016"><a xlink:title=" ">
<path fill="none" stroke="#63b8ff" d="M322.16,-259.82C328.89,-231.81 352.01,-149.71 401,-103.5 402.49,-102.09 404.11,-100.78 405.81,-99.56"/>
<polygon fill="#63b8ff" stroke="#63b8ff" points="408.03,-102.31 414.83,-94.19 404.45,-96.29 408.03,-102.31"/>
</a>
</g>
</g>
<!-- Node21 -->
<g id="Node000021" class="node">
<title>Node21</title>
<g id="a_Node000021"><a xlink:href="code__8008C1D0_8c.html#ab6d84742231847170dd64267f0519cdf" target="_top" xlink:title=" ">
<polygon fill="white" stroke="#666666" points="494,-57 401,-57 401,-38 494,-38 494,-57"/>
<text text-anchor="middle" x="447.5" y="-45" font-family="Helvetica,sans-Serif" font-size="10.00">func_8008FEDC</text>
</a>
</g>
</g>
<!-- Node3&#45;&gt;Node21 -->
<g id="edge20_Node000003_Node000021" class="edge">
<title>Node3&#45;&gt;Node21</title>
<g id="a_edge20_Node000003_Node000021"><a xlink:title=" ">
<path fill="none" stroke="#63b8ff" d="M321.23,-259.57C325.71,-227.34 344.04,-124.37 401,-66.5 402.4,-65.08 403.91,-63.76 405.52,-62.54"/>
<polygon fill="#63b8ff" stroke="#63b8ff" points="407.49,-65.44 414.13,-57.18 403.79,-59.5 407.49,-65.44"/>
</a>
</g>
</g>
<!-- Node17 -->
<g id="Node000017" class="node">
<title>Node17</title>
<g id="a_Node000017"><a xlink:href="code__80057C60_8c.html#a0a55fae21abd30d3c618adef1a9f3ccd" target="_top" xlink:title=" ">
<polygon fill="white" stroke="#666666" points="622,-94 530,-94 530,-75 622,-75 622,-94"/>
<text text-anchor="middle" x="576" y="-82" font-family="Helvetica,sans-Serif" font-size="10.00">func_8006B8B4</text>
</a>
</g>
</g>
<!-- Node16&#45;&gt;Node17 -->
<g id="edge16_Node000016_Node000017" class="edge">
<title>Node16&#45;&gt;Node17</title>
<g id="a_edge16_Node000016_Node000017"><a xlink:title=" ">
<path fill="none" stroke="#63b8ff" d="M493.81,-84.5C502.08,-84.5 510.79,-84.5 519.31,-84.5"/>
<polygon fill="#63b8ff" stroke="#63b8ff" points="519.58,-88 529.58,-84.5 519.58,-81 519.58,-88"/>
</a>
</g>
</g>
<!-- Node18 -->
<g id="Node000018" class="node">
<title>Node18</title>
<g id="a_Node000018"><a xlink:href="code__8008C1D0_8c.html#a1c7552c4a370cc015c2726e40f1fdb06" target="_top" xlink:title=" ">
<polygon fill="white" stroke="#666666" points="751,-94 658,-94 658,-75 751,-75 751,-94"/>
<text text-anchor="middle" x="704.5" y="-82" font-family="Helvetica,sans-Serif" font-size="10.00">func_8008FD4C</text>
</a>
</g>
</g>
<!-- Node17&#45;&gt;Node18 -->
<g id="edge17_Node000017_Node000018" class="edge">
<title>Node17&#45;&gt;Node18</title>
<g id="a_edge17_Node000017_Node000018"><a xlink:title=" ">
<path fill="none" stroke="#63b8ff" d="M622.31,-84.5C630.48,-84.5 639.08,-84.5 647.5,-84.5"/>
<polygon fill="#63b8ff" stroke="#63b8ff" points="647.65,-88 657.65,-84.5 647.65,-81 647.65,-88"/>
</a>
</g>
</g>
<!-- Node19 -->
<g id="Node000019" class="node">
<title>Node19</title>
<g id="a_Node000019"><a xlink:href="external_8c.html#a517352d45a01341217ab2c073b3b223f" target="_top" xlink:title=" ">
<polygon fill="white" stroke="#666666" points="750.5,-57 658.5,-57 658.5,-38 750.5,-38 750.5,-57"/>
<text text-anchor="middle" x="704.5" y="-45" font-family="Helvetica,sans-Serif" font-size="10.00">func_800C9060</text>
</a>
</g>
</g>
<!-- Node17&#45;&gt;Node19 -->
<g id="edge18_Node000017_Node000019" class="edge">
<title>Node17&#45;&gt;Node19</title>
<g id="a_edge18_Node000017_Node000019"><a xlink:title=" ">
<path fill="none" stroke="#63b8ff" d="M609.58,-74.97C625.1,-70.43 643.87,-64.94 660.53,-60.07"/>
<polygon fill="#63b8ff" stroke="#63b8ff" points="661.98,-63.29 670.59,-57.12 660.01,-56.57 661.98,-63.29"/>
</a>
</g>
</g>
<!-- Node20 -->
<g id="Node000020" class="node">
<title>Node20</title>
<g id="a_Node000020"><a xlink:href="external_8c.html#a62e16f9600e7e9beda2c9d2df10f3561" target="_top" xlink:title=" ">
<polygon fill="white" stroke="#666666" points="859,-38 787,-38 787,-19 859,-19 859,-38"/>
<text text-anchor="middle" x="823" y="-26" font-family="Helvetica,sans-Serif" font-size="10.00">play_sound</text>
</a>
</g>
</g>
<!-- Node19&#45;&gt;Node20 -->
<g id="edge19_Node000019_Node000020" class="edge">
<title>Node19&#45;&gt;Node20</title>
<g id="a_edge19_Node000019_Node000020"><a xlink:title=" ">
<path fill="none" stroke="#63b8ff" d="M750.54,-40.15C759.19,-38.74 768.26,-37.27 776.91,-35.85"/>
<polygon fill="#63b8ff" stroke="#63b8ff" points="777.53,-39.3 786.83,-34.24 776.4,-32.39 777.53,-39.3"/>
</a>
</g>
</g>
<!-- Node22&#45;&gt;Node20 -->
<g id="edge22_Node000022_Node000020" class="edge">
<title>Node22&#45;&gt;Node20</title>
<g id="a_edge22_Node000022_Node000020"><a xlink:title=" ">
<path fill="none" stroke="#63b8ff" d="M622.22,-13.01C666.26,-16.42 732.8,-21.58 776.82,-25"/>
<polygon fill="#63b8ff" stroke="#63b8ff" points="776.71,-28.5 786.95,-25.78 777.25,-21.52 776.71,-28.5"/>
</a>
</g>
</g>
</g>
</svg>

<g id="navigator" transform="translate(0 0)" fill="#404254">
  <rect fill="#f2f5e9" fill-opacity="0.5" stroke="#606060" stroke-width=".5" x="0" y="0" width="60" height="60"/>
  <use id="zoomplus" xlink:href="#zoomPlus" x="17" y="9" onmousedown="handleZoom(evt,'in')"/>
  <use id="zoomminus" xlink:href="#zoomMin" x="42" y="9" onmousedown="handleZoom(evt,'out')"/>
  <use id="reset" xlink:href="#resetDef" x="30" y="36" onmousedown="handleReset()"/>
   <use id="arrowup" xlink:href="#arrowUp" x="0" y="0" onmousedown="handlePan(0,-1)"/>
  <use id="arrowright" xlink:href="#arrowRight" x="0" y="0" onmousedown="handlePan(1,0)"/>
  <use id="arrowdown" xlink:href="#arrowDown" x="0" y="0" onmousedown="handlePan(0,1)"/>
  <use id="arrowleft" xlink:href="#arrowLeft" x="0" y="0" onmousedown="handlePan(-1,0)"/>
</g>
<svg viewBox="0 0 15 15" width="100%" height="30px" preserveAspectRatio="xMaxYMin meet">
 <g id="arrow_out" transform="scale(0.3 0.3)">
  <a xlink:href="player__controller_8c_a84e13f8b3b653c5b3cdd4483b6e1b153_cgraph_org.svg" target="_base">
   <rect id="button" ry="5" rx="5" y="6" x="6" height="38" width="38"
        fill="#f2f5e9" fill-opacity="0.5" stroke="#606060" stroke-width="1.0"/>
   <path id="arrow"
     d="M 11.500037,31.436501 C 11.940474,20.09759 22.043105,11.32322 32.158766,21.979434 L 37.068811,17.246167 C 37.068811,17.246167 37.088388,32 37.088388,32 L 22.160133,31.978069 C 22.160133,31.978069 26.997745,27.140456 26.997745,27.140456 C 18.528582,18.264221 13.291696,25.230495 11.500037,31.436501 z"
     style="fill:#404040;"/>
  </a>
 </g>
</svg>

<style type='text/css'>
<![CDATA[
[data-mouse-over-selected='false'] { opacity: 0.7; }
[data-mouse-over-selected='true']  { opacity: 1.0; }
]]>
</style>
<script type="application/ecmascript"><![CDATA[
document.addEventListener('DOMContentLoaded', (event) => {
  highlightEdges();
  highlightAdjacentNodes();
});
]]></script>
</svg>
