<?xml version="1.0" encoding="UTF-8" standalone="no"?>
<!DOCTYPE svg PUBLIC "-//W3C//DTD SVG 1.1//EN"
 "http://www.w3.org/Graphics/SVG/1.1/DTD/svg11.dtd">
<!-- Generated by graphviz version 2.43.0 (0)
 -->
<!-- Title: func_8002C7E4 Pages: 1 -->
<svg width="1034pt" height="621pt"
 viewBox="0.00 0.00 1034.00 621.00" xmlns="http://www.w3.org/2000/svg" xmlns:xlink="http://www.w3.org/1999/xlink">
<g id="graph0" class="graph" transform="scale(1 1) rotate(0) translate(4 617)">
<title>func_8002C7E4</title>
<!-- Node1 -->
<g id="Node000001" class="node">
<title>Node1</title>
<g id="a_Node000001"><a xlink:title=" ">
<polygon fill="#999999" stroke="#666666" points="92,-502 0,-502 0,-483 92,-483 92,-502"/>
<text text-anchor="middle" x="46" y="-490" font-family="Helvetica,sans-Serif" font-size="10.00">func_8002C7E4</text>
</a>
</g>
</g>
<!-- Node2 -->
<g id="Node000002" class="node">
<title>Node2</title>
<g id="a_Node000002"><a xlink:href="camera_8c.html#a2e08edbba430b5425bf6fa6c3b5d34b2" target="_top" xlink:title=" ">
<polygon fill="white" stroke="#666666" points="220.5,-540 128.5,-540 128.5,-521 220.5,-521 220.5,-540"/>
<text text-anchor="middle" x="174.5" y="-528" font-family="Helvetica,sans-Serif" font-size="10.00">func_8001CA24</text>
</a>
</g>
</g>
<!-- Node1&#45;&gt;Node2 -->
<g id="edge1_Node000001_Node000002" class="edge">
<title>Node1&#45;&gt;Node2</title>
<g id="a_edge1_Node000001_Node000002"><a xlink:title=" ">
<path fill="none" stroke="#63b8ff" d="M78.92,-502.09C94.95,-506.9 114.57,-512.8 131.78,-517.97"/>
<polygon fill="#63b8ff" stroke="#63b8ff" points="131,-521.39 141.59,-520.91 133.02,-514.69 131,-521.39"/>
</a>
</g>
</g>
<!-- Node3 -->
<g id="Node000003" class="node">
<title>Node3</title>
<g id="a_Node000003"><a xlink:href="player__controller_8c.html#a8a3b5f1d538adee38a21e55b2eae3941" target="_top" xlink:title=" ">
<polygon fill="white" stroke="#666666" points="221,-77 128,-77 128,-58 221,-58 221,-77"/>
<text text-anchor="middle" x="174.5" y="-65" font-family="Helvetica,sans-Serif" font-size="10.00">func_8002B9CC</text>
</a>
</g>
</g>
<!-- Node1&#45;&gt;Node3 -->
<g id="edge2_Node000001_Node000003" class="edge">
<title>Node1&#45;&gt;Node3</title>
<g id="a_edge2_Node000001_Node000003"><a xlink:title=" ">
<path fill="none" stroke="#63b8ff" d="M49.88,-482.82C66.01,-428.65 145.18,-162.64 167.58,-87.38"/>
<polygon fill="#63b8ff" stroke="#63b8ff" points="171.07,-87.93 170.57,-77.35 164.36,-85.93 171.07,-87.93"/>
</a>
</g>
</g>
<!-- Node14 -->
<g id="Node000014" class="node">
<title>Node14</title>
<g id="a_Node000014"><a xlink:href="code__8008C1D0_8c.html#ae7bb91110e710a8f32fcd4c56c56f934" target="_top" xlink:title=" ">
<polygon fill="white" stroke="#666666" points="660.5,-613 568.5,-613 568.5,-594 660.5,-594 660.5,-613"/>
<text text-anchor="middle" x="614.5" y="-601" font-family="Helvetica,sans-Serif" font-size="10.00">func_8008D554</text>
</a>
</g>
</g>
<!-- Node1&#45;&gt;Node14 -->
<g id="edge33_Node000001_Node000014" class="edge">
<title>Node1&#45;&gt;Node14</title>
<g id="a_edge33_Node000001_Node000014"><a xlink:title=" ">
<path fill="none" stroke="#63b8ff" d="M92.27,-496.28C127.5,-499.57 177.55,-504.99 221,-512.5 348.38,-534.51 496.4,-572.17 568.87,-591.41"/>
<polygon fill="#63b8ff" stroke="#63b8ff" points="568.02,-594.8 578.59,-594 569.83,-588.04 568.02,-594.8"/>
</a>
</g>
</g>
<!-- Node4 -->
<g id="Node000004" class="node">
<title>Node4</title>
<g id="a_Node000004"><a xlink:href="code__8008C1D0_8c.html#af25de8f70a7ecb552619235df793b951" target="_top" xlink:title=" ">
<polygon fill="white" stroke="#666666" points="376.5,-95 284.5,-95 284.5,-76 376.5,-76 376.5,-95"/>
<text text-anchor="middle" x="330.5" y="-83" font-family="Helvetica,sans-Serif" font-size="10.00">func_8008C73C</text>
</a>
</g>
</g>
<!-- Node3&#45;&gt;Node4 -->
<g id="edge3_Node000003_Node000004" class="edge">
<title>Node3&#45;&gt;Node4</title>
<g id="a_edge3_Node000003_Node000004"><a xlink:title=" ">
<path fill="none" stroke="#63b8ff" d="M221.29,-72.85C237.96,-74.8 256.99,-77.02 274.39,-79.06"/>
<polygon fill="#63b8ff" stroke="#63b8ff" points="274.08,-82.55 284.42,-80.23 274.89,-75.59 274.08,-82.55"/>
</a>
</g>
</g>
<!-- Node28 -->
<g id="Node000028" class="node">
<title>Node28</title>
<g id="a_Node000028"><a xlink:href="math__util_8c.html#a963f23fd2ffec93350816627af02b9da" target="_top" xlink:title=" ">
<polygon fill="white" stroke="#666666" points="404,-20 257,-20 257,-1 404,-1 404,-20"/>
<text text-anchor="middle" x="330.5" y="-8" font-family="Helvetica,sans-Serif" font-size="10.00">get_angle_between_points</text>
</a>
</g>
</g>
<!-- Node3&#45;&gt;Node28 -->
<g id="edge29_Node000003_Node000028" class="edge">
<title>Node3&#45;&gt;Node28</title>
<g id="a_edge29_Node000003_Node000028"><a xlink:title=" ">
<path fill="none" stroke="#63b8ff" d="M193.55,-57.93C209.81,-49.6 234.53,-37.61 257,-29.5 263.73,-27.07 270.92,-24.81 278.05,-22.75"/>
<polygon fill="#63b8ff" stroke="#63b8ff" points="279,-26.12 287.7,-20.08 277.13,-19.38 279,-26.12"/>
</a>
</g>
</g>
<!-- Node31 -->
<g id="Node000031" class="node">
<title>Node31</title>
<g id="a_Node000031"><a xlink:href="math_8h.html#a37bde043e94a6f074c78f10518fb5d99" target="_top" xlink:title=" ">
<polygon fill="white" stroke="#666666" points="350,-58 311,-58 311,-39 350,-39 350,-58"/>
<text text-anchor="middle" x="330.5" y="-46" font-family="Helvetica,sans-Serif" font-size="10.00">sqrtf</text>
</a>
</g>
</g>
<!-- Node3&#45;&gt;Node31 -->
<g id="edge32_Node000003_Node000031" class="edge">
<title>Node3&#45;&gt;Node31</title>
<g id="a_edge32_Node000003_Node000031"><a xlink:title=" ">
<path fill="none" stroke="#63b8ff" d="M221.29,-61.85C247.04,-58.67 278.4,-54.8 300.72,-52.05"/>
<polygon fill="#63b8ff" stroke="#63b8ff" points="301.39,-55.49 310.88,-50.8 300.53,-48.55 301.39,-55.49"/>
</a>
</g>
</g>
<!-- Node5 -->
<g id="Node000005" class="node">
<title>Node5</title>
<g id="a_Node000005"><a xlink:href="code__80005FD0_8c.html#a06783cccfdd317d1f883612230c6cf5c" target="_top" xlink:title=" ">
<polygon fill="white" stroke="#666666" points="532,-95 440,-95 440,-76 532,-76 532,-95"/>
<text text-anchor="middle" x="486" y="-83" font-family="Helvetica,sans-Serif" font-size="10.00">func_800098FC</text>
</a>
</g>
</g>
<!-- Node4&#45;&gt;Node5 -->
<g id="edge4_Node000004_Node000005" class="edge">
<title>Node4&#45;&gt;Node5</title>
<g id="a_edge4_Node000004_Node000005"><a xlink:title=" ">
<path fill="none" stroke="#63b8ff" d="M376.72,-85.5C393.36,-85.5 412.38,-85.5 429.8,-85.5"/>
<polygon fill="#63b8ff" stroke="#63b8ff" points="429.83,-89 439.83,-85.5 429.83,-82 429.83,-89"/>
</a>
</g>
</g>
<!-- Node9 -->
<g id="Node000009" class="node">
<title>Node9</title>
<g id="a_Node000009"><a xlink:href="code__8008C1D0_8c.html#a5cdc06d2091fc6d20759448c40b17d54" target="_top" xlink:title=" ">
<polygon fill="white" stroke="#666666" points="532,-354 440,-354 440,-335 532,-335 532,-354"/>
<text text-anchor="middle" x="486" y="-342" font-family="Helvetica,sans-Serif" font-size="10.00">func_8008C354</text>
</a>
</g>
</g>
<!-- Node4&#45;&gt;Node9 -->
<g id="edge8_Node000004_Node000009" class="edge">
<title>Node4&#45;&gt;Node9</title>
<g id="a_edge8_Node000004_Node000009"><a xlink:title=" ">
<path fill="none" stroke="#63b8ff" d="M337.15,-95.03C359.76,-133.18 444.02,-275.35 474.18,-326.24"/>
<polygon fill="#63b8ff" stroke="#63b8ff" points="471.19,-328.07 479.3,-334.89 477.22,-324.5 471.19,-328.07"/>
</a>
</g>
</g>
<!-- Node27 -->
<g id="Node000027" class="node">
<title>Node27</title>
<g id="a_Node000027"><a xlink:href="external_8c.html#a1a1bdc0f5d3b6fd4a86b9d62e93a076e" target="_top" xlink:title=" ">
<polygon fill="white" stroke="#666666" points="789,-57 697,-57 697,-38 789,-38 789,-57"/>
<text text-anchor="middle" x="743" y="-45" font-family="Helvetica,sans-Serif" font-size="10.00">func_800C90F4</text>
</a>
</g>
</g>
<!-- Node4&#45;&gt;Node27 -->
<g id="edge27_Node000004_Node000027" class="edge">
<title>Node4&#45;&gt;Node27</title>
<g id="a_edge27_Node000004_Node000027"><a xlink:title=" ">
<path fill="none" stroke="#63b8ff" d="M376.76,-76.97C396.17,-73.58 419.14,-69.92 440,-67.5 525.86,-57.56 626.06,-52.14 686.73,-49.53"/>
<polygon fill="#63b8ff" stroke="#63b8ff" points="687,-53.02 696.85,-49.1 686.71,-46.03 687,-53.02"/>
</a>
</g>
</g>
<!-- Node6 -->
<g id="Node000006" class="node">
<title>Node6</title>
<g id="a_Node000006"><a xlink:href="external_8c.html#aad3025d980410fa157174acbf923f8c0" target="_top" xlink:title=" ">
<polygon fill="white" stroke="#666666" points="661,-95 568,-95 568,-76 661,-76 661,-95"/>
<text text-anchor="middle" x="614.5" y="-83" font-family="Helvetica,sans-Serif" font-size="10.00">func_800C92CC</text>
</a>
</g>
</g>
<!-- Node5&#45;&gt;Node6 -->
<g id="edge5_Node000005_Node000006" class="edge">
<title>Node5&#45;&gt;Node6</title>
<g id="a_edge5_Node000005_Node000006"><a xlink:title=" ">
<path fill="none" stroke="#63b8ff" d="M532.31,-85.5C540.48,-85.5 549.08,-85.5 557.5,-85.5"/>
<polygon fill="#63b8ff" stroke="#63b8ff" points="557.65,-89 567.65,-85.5 557.65,-82 557.65,-89"/>
</a>
</g>
</g>
<!-- Node7 -->
<g id="Node000007" class="node">
<title>Node7</title>
<g id="a_Node000007"><a xlink:href="external_8h.html#ae82eb9565bbd324f028121f490e7c9a7" target="_top" xlink:title=" ">
<polygon fill="white" stroke="#666666" points="789,-94 697,-94 697,-75 789,-75 789,-94"/>
<text text-anchor="middle" x="743" y="-82" font-family="Helvetica,sans-Serif" font-size="10.00">func_800C1C88</text>
</a>
</g>
</g>
<!-- Node6&#45;&gt;Node7 -->
<g id="edge6_Node000006_Node000007" class="edge">
<title>Node6&#45;&gt;Node7</title>
<g id="a_edge6_Node000006_Node000007"><a xlink:title=" ">
<path fill="none" stroke="#63b8ff" d="M661.17,-85.14C669.42,-85.07 678.11,-85.01 686.6,-84.94"/>
<polygon fill="#63b8ff" stroke="#63b8ff" points="686.85,-88.44 696.82,-84.86 686.79,-81.44 686.85,-88.44"/>
</a>
</g>
</g>
<!-- Node8 -->
<g id="Node000008" class="node">
<title>Node8</title>
<g id="a_Node000008"><a xlink:href="external_8c.html#a62e16f9600e7e9beda2c9d2df10f3561" target="_top" xlink:title=" ">
<polygon fill="white" stroke="#666666" points="1026,-132 954,-132 954,-113 1026,-113 1026,-132"/>
<text text-anchor="middle" x="990" y="-120" font-family="Helvetica,sans-Serif" font-size="10.00">play_sound</text>
</a>
</g>
</g>
<!-- Node6&#45;&gt;Node8 -->
<g id="edge7_Node000006_Node000008" class="edge">
<title>Node6&#45;&gt;Node8</title>
<g id="a_edge7_Node000006_Node000008"><a xlink:title=" ">
<path fill="none" stroke="#63b8ff" d="M653.02,-95.04C666.77,-98.2 682.51,-101.44 697,-103.5 783.65,-115.81 885.91,-120.16 943.54,-121.68"/>
<polygon fill="#63b8ff" stroke="#63b8ff" points="943.68,-125.19 953.76,-121.94 943.85,-118.19 943.68,-125.19"/>
</a>
</g>
</g>
<!-- Node10 -->
<g id="Node000010" class="node">
<title>Node10</title>
<g id="a_Node000010"><a xlink:href="code__8008C1D0_8c.html#ad164a912d7ef76f24e7b5cfb9169c16f" target="_top" xlink:title=" ">
<polygon fill="white" stroke="#666666" points="661,-428 568,-428 568,-409 661,-409 661,-428"/>
<text text-anchor="middle" x="614.5" y="-416" font-family="Helvetica,sans-Serif" font-size="10.00">func_8008C6D0</text>
</a>
</g>
</g>
<!-- Node9&#45;&gt;Node10 -->
<g id="edge9_Node000009_Node000010" class="edge">
<title>Node9&#45;&gt;Node10</title>
<g id="a_edge9_Node000009_Node000010"><a xlink:title=" ">
<path fill="none" stroke="#63b8ff" d="M499.06,-354.15C514.42,-366.13 542.07,-386.64 568,-400.5 570.85,-402.02 573.85,-403.49 576.9,-404.88"/>
<polygon fill="#63b8ff" stroke="#63b8ff" points="575.52,-408.1 586.09,-408.83 578.29,-401.67 575.52,-408.1"/>
</a>
</g>
</g>
<!-- Node11 -->
<g id="Node000011" class="node">
<title>Node11</title>
<g id="a_Node000011"><a xlink:href="code__8008C1D0_8c.html#a105203221e314be241a95e006b62ef80" target="_top" xlink:title=" ">
<polygon fill="white" stroke="#666666" points="660.5,-391 568.5,-391 568.5,-372 660.5,-372 660.5,-391"/>
<text text-anchor="middle" x="614.5" y="-379" font-family="Helvetica,sans-Serif" font-size="10.00">func_8008C8C4</text>
</a>
</g>
</g>
<!-- Node9&#45;&gt;Node11 -->
<g id="edge10_Node000009_Node000011" class="edge">
<title>Node9&#45;&gt;Node11</title>
<g id="a_edge10_Node000009_Node000011"><a xlink:title=" ">
<path fill="none" stroke="#63b8ff" d="M519.58,-354.03C535.1,-358.57 553.87,-364.06 570.53,-368.93"/>
<polygon fill="#63b8ff" stroke="#63b8ff" points="570.01,-372.43 580.59,-371.88 571.98,-365.71 570.01,-372.43"/>
</a>
</g>
</g>
<!-- Node12 -->
<g id="Node000012" class="node">
<title>Node12</title>
<g id="a_Node000012"><a xlink:href="code__8008C1D0_8c.html#acab450a6af6eca812ad3987a292a5165" target="_top" xlink:title=" ">
<polygon fill="white" stroke="#666666" points="660.5,-354 568.5,-354 568.5,-335 660.5,-335 660.5,-354"/>
<text text-anchor="middle" x="614.5" y="-342" font-family="Helvetica,sans-Serif" font-size="10.00">func_8008D0E4</text>
</a>
</g>
</g>
<!-- Node9&#45;&gt;Node12 -->
<g id="edge11_Node000009_Node000012" class="edge">
<title>Node9&#45;&gt;Node12</title>
<g id="a_edge11_Node000009_Node000012"><a xlink:title=" ">
<path fill="none" stroke="#63b8ff" d="M532.31,-344.5C540.58,-344.5 549.29,-344.5 557.81,-344.5"/>
<polygon fill="#63b8ff" stroke="#63b8ff" points="558.08,-348 568.08,-344.5 558.08,-341 558.08,-348"/>
</a>
</g>
</g>
<!-- Node13 -->
<g id="Node000013" class="node">
<title>Node13</title>
<g id="a_Node000013"><a xlink:href="code__8008C1D0_8c.html#a663cb8df8b606cf00e361977c9d6d834" target="_top" xlink:title=" ">
<polygon fill="white" stroke="#666666" points="661,-317 568,-317 568,-298 661,-298 661,-317"/>
<text text-anchor="middle" x="614.5" y="-305" font-family="Helvetica,sans-Serif" font-size="10.00">func_8008D3B0</text>
</a>
</g>
</g>
<!-- Node9&#45;&gt;Node13 -->
<g id="edge12_Node000009_Node000013" class="edge">
<title>Node9&#45;&gt;Node13</title>
<g id="a_edge12_Node000009_Node000013"><a xlink:title=" ">
<path fill="none" stroke="#63b8ff" d="M519.58,-334.97C535.1,-330.43 553.87,-324.94 570.53,-320.07"/>
<polygon fill="#63b8ff" stroke="#63b8ff" points="571.98,-323.29 580.59,-317.12 570.01,-316.57 571.98,-323.29"/>
</a>
</g>
</g>
<!-- Node9&#45;&gt;Node14 -->
<g id="edge13_Node000009_Node000014" class="edge">
<title>Node9&#45;&gt;Node14</title>
<g id="a_edge13_Node000009_Node000014"><a xlink:title=" ">
<path fill="none" stroke="#63b8ff" d="M490.27,-354.24C505.4,-399.3 567.87,-585.36 568,-585.5 568.89,-586.44 569.83,-587.32 570.82,-588.17"/>
<polygon fill="#63b8ff" stroke="#63b8ff" points="568.87,-591.08 579.12,-593.78 572.8,-585.28 568.87,-591.08"/>
</a>
</g>
</g>
<!-- Node15 -->
<g id="Node000015" class="node">
<title>Node15</title>
<g id="a_Node000015"><a xlink:href="code__8008C1D0_8c.html#a5f19eaaa048055d292d02c717e635786" target="_top" xlink:title=" ">
<polygon fill="white" stroke="#666666" points="660.5,-280 568.5,-280 568.5,-261 660.5,-261 660.5,-280"/>
<text text-anchor="middle" x="614.5" y="-268" font-family="Helvetica,sans-Serif" font-size="10.00">func_8008D760</text>
</a>
</g>
</g>
<!-- Node9&#45;&gt;Node15 -->
<g id="edge14_Node000009_Node000015" class="edge">
<title>Node9&#45;&gt;Node15</title>
<g id="a_edge14_Node000009_Node000015"><a xlink:title=" ">
<path fill="none" stroke="#63b8ff" d="M499.4,-334.91C514.88,-323.23 542.44,-303.33 568,-289.5 571.46,-287.63 575.14,-285.82 578.86,-284.1"/>
<polygon fill="#63b8ff" stroke="#63b8ff" points="580.3,-287.29 588.05,-280.07 577.48,-280.88 580.3,-287.29"/>
</a>
</g>
</g>
<!-- Node16 -->
<g id="Node000016" class="node">
<title>Node16</title>
<g id="a_Node000016"><a xlink:href="code__8008C1D0_8c.html#a4ea2da0616ee3c475e4be217dc0bc71f" target="_top" xlink:title=" ">
<polygon fill="white" stroke="#666666" points="661,-243 568,-243 568,-224 661,-224 661,-243"/>
<text text-anchor="middle" x="614.5" y="-231" font-family="Helvetica,sans-Serif" font-size="10.00">func_8008D97C</text>
</a>
</g>
</g>
<!-- Node9&#45;&gt;Node16 -->
<g id="edge15_Node000009_Node000016" class="edge">
<title>Node9&#45;&gt;Node16</title>
<g id="a_edge15_Node000009_Node000016"><a xlink:title=" ">
<path fill="none" stroke="#63b8ff" d="M493.24,-334.88C505.54,-316.57 534.63,-276.44 568,-252.5 570.49,-250.71 573.18,-249.05 575.96,-247.52"/>
<polygon fill="#63b8ff" stroke="#63b8ff" points="577.59,-250.62 585.01,-243.06 574.5,-244.34 577.59,-250.62"/>
</a>
</g>
</g>
<!-- Node17 -->
<g id="Node000017" class="node">
<title>Node17</title>
<g id="a_Node000017"><a xlink:href="code__8008C1D0_8c.html#a4a437d6caeeaa794bcce43ec60c097e9" target="_top" xlink:title=" ">
<polygon fill="white" stroke="#666666" points="660,-206 569,-206 569,-187 660,-187 660,-206"/>
<text text-anchor="middle" x="614.5" y="-194" font-family="Helvetica,sans-Serif" font-size="10.00">func_8008E884</text>
</a>
</g>
</g>
<!-- Node9&#45;&gt;Node17 -->
<g id="edge16_Node000009_Node000017" class="edge">
<title>Node9&#45;&gt;Node17</title>
<g id="a_edge16_Node000009_Node000017"><a xlink:title=" ">
<path fill="none" stroke="#63b8ff" d="M490.71,-334.66C500.11,-310.98 527.04,-250.2 568,-215.5 569.94,-213.85 572.05,-212.33 574.25,-210.93"/>
<polygon fill="#63b8ff" stroke="#63b8ff" points="576.01,-213.96 583.11,-206.1 572.66,-207.82 576.01,-213.96"/>
</a>
</g>
</g>
<!-- Node18 -->
<g id="Node000018" class="node">
<title>Node18</title>
<g id="a_Node000018"><a xlink:href="code__8008C1D0_8c.html#a4e2c6d0ba50b7c13695f74f1c2bc7b18" target="_top" xlink:title=" ">
<polygon fill="white" stroke="#666666" points="660.5,-169 568.5,-169 568.5,-150 660.5,-150 660.5,-169"/>
<text text-anchor="middle" x="614.5" y="-157" font-family="Helvetica,sans-Serif" font-size="10.00">func_8008EC34</text>
</a>
</g>
</g>
<!-- Node9&#45;&gt;Node18 -->
<g id="edge17_Node000009_Node000018" class="edge">
<title>Node9&#45;&gt;Node18</title>
<g id="a_edge17_Node000009_Node000018"><a xlink:title=" ">
<path fill="none" stroke="#63b8ff" d="M489.16,-334.82C495.89,-306.81 519.01,-224.71 568,-178.5 569.49,-177.09 571.11,-175.78 572.81,-174.56"/>
<polygon fill="#63b8ff" stroke="#63b8ff" points="575.03,-177.31 581.83,-169.19 571.45,-171.29 575.03,-177.31"/>
</a>
</g>
</g>
<!-- Node19 -->
<g id="Node000019" class="node">
<title>Node19</title>
<g id="a_Node000019"><a xlink:href="code__8008C1D0_8c.html#ae48f5d9507d1966754bc1aa1bddc4136" target="_top" xlink:title=" ">
<polygon fill="white" stroke="#666666" points="660.5,-132 568.5,-132 568.5,-113 660.5,-113 660.5,-132"/>
<text text-anchor="middle" x="614.5" y="-120" font-family="Helvetica,sans-Serif" font-size="10.00">func_8008EEC4</text>
</a>
</g>
</g>
<!-- Node9&#45;&gt;Node19 -->
<g id="edge18_Node000009_Node000019" class="edge">
<title>Node9&#45;&gt;Node19</title>
<g id="a_edge18_Node000009_Node000019"><a xlink:title=" ">
<path fill="none" stroke="#63b8ff" d="M488.23,-334.57C492.71,-302.34 511.04,-199.37 568,-141.5 569.4,-140.08 570.91,-138.76 572.52,-137.54"/>
<polygon fill="#63b8ff" stroke="#63b8ff" points="574.49,-140.44 581.13,-132.18 570.79,-134.5 574.49,-140.44"/>
</a>
</g>
</g>
<!-- Node20 -->
<g id="Node000020" class="node">
<title>Node20</title>
<g id="a_Node000020"><a xlink:href="code__8008C1D0_8c.html#a77e26f2cff6381f9ba1575f8da060571" target="_top" xlink:title=" ">
<polygon fill="white" stroke="#666666" points="660,-576 569,-576 569,-557 660,-557 660,-576"/>
<text text-anchor="middle" x="614.5" y="-564" font-family="Helvetica,sans-Serif" font-size="10.00">func_8008F0E8</text>
</a>
</g>
</g>
<!-- Node9&#45;&gt;Node20 -->
<g id="edge19_Node000009_Node000020" class="edge">
<title>Node9&#45;&gt;Node20</title>
<g id="a_edge19_Node000009_Node000020"><a xlink:title=" ">
<path fill="none" stroke="#63b8ff" d="M490.29,-354.06C503.56,-392.4 553.1,-533.62 568,-548.5 568.95,-549.45 569.95,-550.34 571,-551.19"/>
<polygon fill="#63b8ff" stroke="#63b8ff" points="569.45,-554.36 579.74,-556.86 573.25,-548.49 569.45,-554.36"/>
</a>
</g>
</g>
<!-- Node21 -->
<g id="Node000021" class="node">
<title>Node21</title>
<g id="a_Node000021"><a xlink:href="code__8008C1D0_8c.html#ae02351b6bbb678b552ec8864b47fc56c" target="_top" xlink:title=" ">
<polygon fill="white" stroke="#666666" points="660,-539 569,-539 569,-520 660,-520 660,-539"/>
<text text-anchor="middle" x="614.5" y="-527" font-family="Helvetica,sans-Serif" font-size="10.00">func_8008F3E0</text>
</a>
</g>
</g>
<!-- Node9&#45;&gt;Node21 -->
<g id="edge20_Node000009_Node000021" class="edge">
<title>Node9&#45;&gt;Node21</title>
<g id="a_edge20_Node000009_Node000021"><a xlink:title=" ">
<path fill="none" stroke="#63b8ff" d="M489.1,-354.28C495.67,-382.58 518.39,-465.48 568,-511.5 569.13,-512.55 570.33,-513.54 571.58,-514.47"/>
<polygon fill="#63b8ff" stroke="#63b8ff" points="570.07,-517.65 580.43,-519.87 573.71,-511.67 570.07,-517.65"/>
</a>
</g>
</g>
<!-- Node22 -->
<g id="Node000022" class="node">
<title>Node22</title>
<g id="a_Node000022"><a xlink:href="code__8008C1D0_8c.html#afcf39ca15166fb7561402462930cd979" target="_top" xlink:title=" ">
<polygon fill="white" stroke="#666666" points="660.5,-465 568.5,-465 568.5,-446 660.5,-446 660.5,-465"/>
<text text-anchor="middle" x="614.5" y="-453" font-family="Helvetica,sans-Serif" font-size="10.00">func_8008F5A4</text>
</a>
</g>
</g>
<!-- Node9&#45;&gt;Node22 -->
<g id="edge21_Node000009_Node000022" class="edge">
<title>Node9&#45;&gt;Node22</title>
<g id="a_edge21_Node000009_Node000022"><a xlink:title=" ">
<path fill="none" stroke="#63b8ff" d="M492.98,-354C505.06,-372.48 534.08,-413.52 568,-437.5 569.86,-438.82 571.83,-440.05 573.86,-441.21"/>
<polygon fill="#63b8ff" stroke="#63b8ff" points="572.57,-444.48 583.08,-445.82 575.7,-438.22 572.57,-444.48"/>
</a>
</g>
</g>
<!-- Node26 -->
<g id="Node000026" class="node">
<title>Node26</title>
<g id="a_Node000026"><a xlink:href="code__8008C1D0_8c.html#ab6d84742231847170dd64267f0519cdf" target="_top" xlink:title=" ">
<polygon fill="white" stroke="#666666" points="661,-502 568,-502 568,-483 661,-483 661,-502"/>
<text text-anchor="middle" x="614.5" y="-490" font-family="Helvetica,sans-Serif" font-size="10.00">func_8008FEDC</text>
</a>
</g>
</g>
<!-- Node9&#45;&gt;Node26 -->
<g id="edge26_Node000009_Node000026" class="edge">
<title>Node9&#45;&gt;Node26</title>
<g id="a_edge26_Node000009_Node000026"><a xlink:title=" ">
<path fill="none" stroke="#63b8ff" d="M490.51,-354.11C499.64,-377.83 526.34,-439.75 568,-474.5 569.52,-475.77 571.13,-476.95 572.82,-478.06"/>
<polygon fill="#63b8ff" stroke="#63b8ff" points="571.24,-481.18 581.68,-482.97 574.63,-475.06 571.24,-481.18"/>
</a>
</g>
</g>
<!-- Node23 -->
<g id="Node000023" class="node">
<title>Node23</title>
<g id="a_Node000023"><a xlink:href="code__80057C60_8c.html#a0a55fae21abd30d3c618adef1a9f3ccd" target="_top" xlink:title=" ">
<polygon fill="white" stroke="#666666" points="789,-336 697,-336 697,-317 789,-317 789,-336"/>
<text text-anchor="middle" x="743" y="-324" font-family="Helvetica,sans-Serif" font-size="10.00">func_8006B8B4</text>
</a>
</g>
</g>
<!-- Node22&#45;&gt;Node23 -->
<g id="edge22_Node000022_Node000023" class="edge">
<title>Node22&#45;&gt;Node23</title>
<g id="a_edge22_Node000022_Node000023"><a xlink:title=" ">
<path fill="none" stroke="#63b8ff" d="M646.63,-445.93C651.71,-443.62 656.7,-440.83 661,-437.5 694,-411.97 719.72,-369.51 732.7,-345.17"/>
<polygon fill="#63b8ff" stroke="#63b8ff" points="735.84,-346.73 737.33,-336.24 729.62,-343.51 735.84,-346.73"/>
</a>
</g>
</g>
<!-- Node24 -->
<g id="Node000024" class="node">
<title>Node24</title>
<g id="a_Node000024"><a xlink:href="code__8008C1D0_8c.html#a1c7552c4a370cc015c2726e40f1fdb06" target="_top" xlink:title=" ">
<polygon fill="white" stroke="#666666" points="918,-299 825,-299 825,-280 918,-280 918,-299"/>
<text text-anchor="middle" x="871.5" y="-287" font-family="Helvetica,sans-Serif" font-size="10.00">func_8008FD4C</text>
</a>
</g>
</g>
<!-- Node23&#45;&gt;Node24 -->
<g id="edge23_Node000023_Node000024" class="edge">
<title>Node23&#45;&gt;Node24</title>
<g id="a_edge23_Node000023_Node000024"><a xlink:title=" ">
<path fill="none" stroke="#63b8ff" d="M776.58,-316.97C792.1,-312.43 810.87,-306.94 827.53,-302.07"/>
<polygon fill="#63b8ff" stroke="#63b8ff" points="828.98,-305.29 837.59,-299.12 827.01,-298.57 828.98,-305.29"/>
</a>
</g>
</g>
<!-- Node25 -->
<g id="Node000025" class="node">
<title>Node25</title>
<g id="a_Node000025"><a xlink:href="external_8c.html#a517352d45a01341217ab2c073b3b223f" target="_top" xlink:title=" ">
<polygon fill="white" stroke="#666666" points="917.5,-336 825.5,-336 825.5,-317 917.5,-317 917.5,-336"/>
<text text-anchor="middle" x="871.5" y="-324" font-family="Helvetica,sans-Serif" font-size="10.00">func_800C9060</text>
</a>
</g>
</g>
<!-- Node23&#45;&gt;Node25 -->
<g id="edge24_Node000023_Node000025" class="edge">
<title>Node23&#45;&gt;Node25</title>
<g id="a_edge24_Node000023_Node000025"><a xlink:title=" ">
<path fill="none" stroke="#63b8ff" d="M789.31,-326.5C797.58,-326.5 806.29,-326.5 814.81,-326.5"/>
<polygon fill="#63b8ff" stroke="#63b8ff" points="815.08,-330 825.08,-326.5 815.08,-323 815.08,-330"/>
</a>
</g>
</g>
<!-- Node25&#45;&gt;Node8 -->
<g id="edge25_Node000025_Node000008" class="edge">
<title>Node25&#45;&gt;Node8</title>
<g id="a_edge25_Node000025_Node000008"><a xlink:title=" ">
<path fill="none" stroke="#63b8ff" d="M906.3,-316.9C910.6,-314.65 914.66,-311.88 918,-308.5 964.89,-261.04 981.44,-179.4 986.74,-142.11"/>
<polygon fill="#63b8ff" stroke="#63b8ff" points="990.23,-142.41 988.04,-132.05 983.29,-141.51 990.23,-142.41"/>
</a>
</g>
</g>
<!-- Node27&#45;&gt;Node8 -->
<g id="edge28_Node000027_Node000008" class="edge">
<title>Node27&#45;&gt;Node8</title>
<g id="a_edge28_Node000027_Node000008"><a xlink:title=" ">
<path fill="none" stroke="#63b8ff" d="M775.53,-57.15C819.54,-70.62 899.44,-95.08 948.02,-109.96"/>
<polygon fill="#63b8ff" stroke="#63b8ff" points="947.01,-113.31 957.59,-112.89 949.06,-106.61 947.01,-113.31"/>
</a>
</g>
</g>
<!-- Node29 -->
<g id="Node000029" class="node">
<title>Node29</title>
<g id="a_Node000029"><a xlink:href="math__util_8c.html#aaa39a297477f56051975259f4bddd829" target="_top" xlink:title=" ">
<polygon fill="white" stroke="#666666" points="511,-19 461,-19 461,0 511,0 511,-19"/>
<text text-anchor="middle" x="486" y="-7" font-family="Helvetica,sans-Serif" font-size="10.00">atan2s</text>
</a>
</g>
</g>
<!-- Node28&#45;&gt;Node29 -->
<g id="edge30_Node000028_Node000029" class="edge">
<title>Node28&#45;&gt;Node29</title>
<g id="a_edge30_Node000028_Node000029"><a xlink:title=" ">
<path fill="none" stroke="#63b8ff" d="M404.2,-10.03C420.51,-9.92 437.05,-9.81 450.89,-9.72"/>
<polygon fill="#63b8ff" stroke="#63b8ff" points="450.92,-13.22 460.89,-9.66 450.87,-6.22 450.92,-13.22"/>
</a>
</g>
</g>
<!-- Node30 -->
<g id="Node000030" class="node">
<title>Node30</title>
<g id="a_Node000030"><a xlink:href="math__util_8c.html#a0273b0ea0783a06996c28669a7438ed9" target="_top" xlink:title=" ">
<polygon fill="white" stroke="#666666" points="655.5,-19 573.5,-19 573.5,0 655.5,0 655.5,-19"/>
<text text-anchor="middle" x="614.5" y="-7" font-family="Helvetica,sans-Serif" font-size="10.00">atan2_lookup</text>
</a>
</g>
</g>
<!-- Node29&#45;&gt;Node30 -->
<g id="edge31_Node000029_Node000030" class="edge">
<title>Node29&#45;&gt;Node30</title>
<g id="a_edge31_Node000029_Node000030"><a xlink:title=" ">
<path fill="none" stroke="#63b8ff" d="M511.09,-9.5C525.84,-9.5 545.28,-9.5 563.25,-9.5"/>
<polygon fill="#63b8ff" stroke="#63b8ff" points="563.33,-13 573.33,-9.5 563.33,-6 563.33,-13"/>
</a>
</g>
</g>
</g>
</svg>
