<?xml version="1.0" encoding="UTF-8" standalone="no"?>
<!DOCTYPE svg PUBLIC "-//W3C//DTD SVG 1.1//EN"
 "http://www.w3.org/Graphics/SVG/1.1/DTD/svg11.dtd">
<!-- Generated by graphviz version 2.43.0 (0)
 -->
<!-- Title: src/player_controller.h Pages: 1 -->
<!--zoomable 203 -->

<svg id="main" version="1.1" xmlns="http://www.w3.org/2000/svg" xmlns:xlink="http://www.w3.org/1999/xlink" xml:space="preserve" onload="init(evt)">
<style type="text/css"><![CDATA[
.node, .edge {opacity: 0.7;}
.node.selected, .edge.selected {opacity: 1;}
.edge:hover path { stroke: red; }
.edge:hover polygon { stroke: red; fill: red; }
]]></style>

<defs>
  <circle id="rim" cx="0" cy="0" r="7"/>
  <circle id="rim2" cx="0" cy="0" r="3.5"/>
  <g id="zoomPlus">
    <use xlink:href="#rim" fill="#404040"><set attributeName="fill" to="#808080" begin="zoomplus.mouseover" end="zoomplus.mouseout"/></use>
    <path d="M-4,0h8M0,-4v8" fill="none" stroke="white" stroke-width="1.5" pointer-events="none"/>
  </g>
  <g id="zoomMin">
    <use xlink:href="#rim" fill="#404040"><set attributeName="fill" to="#808080" begin="zoomminus.mouseover" end="zoomminus.mouseout"/></use>
    <path d="M-4,0h8" fill="none" stroke="white" stroke-width="1.5" pointer-events="none"/>
  </g>
  <g id="arrowUp" transform="translate(30 24)">
    <use xlink:href="#rim"/>
    <path pointer-events="none" fill="none" stroke="white" stroke-width="1.5" d="M0,-3.0v7 M-2.5,-0.5L0,-3.0L2.5,-0.5"/>
  </g>
  <g id="arrowRight" transform="rotate(90) translate(36 -43)">
    <use xlink:href="#rim"/>
    <path pointer-events="none" fill="none" stroke="white" stroke-width="1.5" d="M0,-3.0v7 M-2.5,-0.5L0,-3.0L2.5,-0.5"/>
  </g>
  <g id="arrowDown" transform="rotate(180) translate(-30 -48)">
    <use xlink:href="#rim"/>
    <path pointer-events="none" fill="none" stroke="white" stroke-width="1.5" d="M0,-3.0v7 M-2.5,-0.5L0,-3.0L2.5,-0.5"/>
  </g>
  <g id="arrowLeft" transform="rotate(270) translate(-36 17)">
    <use xlink:href="#rim"/>
    <path pointer-events="none" fill="none" stroke="white" stroke-width="1.5" d="M0,-3.0v7 M-2.5,-0.5L0,-3.0L2.5,-0.5"/>
  </g>
  <g id="resetDef">
    <use xlink:href="#rim2" fill="#404040"><set attributeName="fill" to="#808080" begin="reset.mouseover" end="reset.mouseout"/></use>
  </g>
</defs>
<script type="application/ecmascript">
var viewWidth = 1231;
var viewHeight = 203;
var sectionId = 'dynsection-1';
</script>
<script type="application/ecmascript" xlink:href="svg.min.js"/>
<svg id="graph" class="graph">
<g id="viewport">
<title>src/player_controller.h</title>
<!-- Node1 -->
<g id="Node000001" class="node">
<title>Node1</title>
<g id="a_Node000001"><a xlink:title=" ">
<polygon fill="#999999" stroke="#666666" points="716.5,-195 591.5,-195 591.5,-176 716.5,-176 716.5,-195"/>
<text text-anchor="middle" x="654" y="-183" font-family="Helvetica,sans-Serif" font-size="10.00">src/player_controller.h</text>
</a>
</g>
</g>
<!-- Node2 -->
<g id="Node000002" class="node">
<title>Node2</title>
<g id="a_Node000002"><a xlink:href="code__80005FD0_8c.html" target="_top" xlink:title=" ">
<polygon fill="white" stroke="#666666" points="120,-134.5 0,-134.5 0,-115.5 120,-115.5 120,-134.5"/>
<text text-anchor="middle" x="60" y="-122.5" font-family="Helvetica,sans-Serif" font-size="10.00">src/code_80005FD0.c</text>
</a>
</g>
</g>
<!-- Node1&#45;&gt;Node2 -->
<g id="edge1_Node000001_Node000002" class="edge">
<title>Node1&#45;&gt;Node2</title>
<g id="a_edge1_Node000001_Node000002"><a xlink:title=" ">
<path fill="none" stroke="#63b8ff" d="M581.09,-180.91C479.6,-175.32 290.15,-162.74 130,-140 119.82,-138.55 108.88,-136.57 98.74,-134.56"/>
<polygon fill="#63b8ff" stroke="#63b8ff" points="581.06,-184.41 591.23,-181.46 581.44,-177.42 581.06,-184.41"/>
</a>
</g>
</g>
<!-- Node3 -->
<g id="Node000003" class="node">
<title>Node3</title>
<g id="a_Node000003"><a xlink:href="code__8003DC40_8c.html" target="_top" xlink:title=" ">
<polygon fill="white" stroke="#666666" points="259.5,-134.5 138.5,-134.5 138.5,-115.5 259.5,-115.5 259.5,-134.5"/>
<text text-anchor="middle" x="199" y="-122.5" font-family="Helvetica,sans-Serif" font-size="10.00">src/code_8003DC40.c</text>
</a>
</g>
</g>
<!-- Node1&#45;&gt;Node3 -->
<g id="edge2_Node000001_Node000003" class="edge">
<title>Node1&#45;&gt;Node3</title>
<g id="a_edge2_Node000001_Node000003"><a xlink:title=" ">
<path fill="none" stroke="#63b8ff" d="M581.29,-177.9C503.7,-170.43 377.3,-157.06 269,-140 259.21,-138.46 248.7,-136.51 238.88,-134.57"/>
<polygon fill="#63b8ff" stroke="#63b8ff" points="581.15,-181.4 591.44,-178.87 581.82,-174.43 581.15,-181.4"/>
</a>
</g>
</g>
<!-- Node4 -->
<g id="Node000004" class="node">
<title>Node4</title>
<g id="a_Node000004"><a xlink:href="code__8008C1D0_8c.html" target="_top" xlink:title=" ">
<polygon fill="white" stroke="#666666" points="398.5,-134.5 277.5,-134.5 277.5,-115.5 398.5,-115.5 398.5,-134.5"/>
<text text-anchor="middle" x="338" y="-122.5" font-family="Helvetica,sans-Serif" font-size="10.00">src/code_8008C1D0.c</text>
</a>
</g>
</g>
<!-- Node1&#45;&gt;Node4 -->
<g id="edge3_Node000001_Node000004" class="edge">
<title>Node1&#45;&gt;Node4</title>
<g id="a_edge3_Node000001_Node000004"><a xlink:title=" ">
<path fill="none" stroke="#63b8ff" d="M595.45,-174.22C545.57,-165.39 472.02,-152.19 408,-140 398.99,-138.28 389.34,-136.39 380.17,-134.57"/>
<polygon fill="#63b8ff" stroke="#63b8ff" points="594.95,-177.69 605.41,-175.98 596.17,-170.79 594.95,-177.69"/>
</a>
</g>
</g>
<!-- Node5 -->
<g id="Node000005" class="node">
<title>Node5</title>
<g id="a_Node000005"><a xlink:href="all__variables_8h.html" target="_top" xlink:title=" ">
<polygon fill="white" stroke="#666666" points="555,-134.5 417,-134.5 417,-115.5 555,-115.5 555,-134.5"/>
<text text-anchor="middle" x="486" y="-122.5" font-family="Helvetica,sans-Serif" font-size="10.00">src/debug/all_variables.h</text>
</a>
</g>
</g>
<!-- Node1&#45;&gt;Node5 -->
<g id="edge4_Node000001_Node000005" class="edge">
<title>Node1&#45;&gt;Node5</title>
<g id="a_edge4_Node000001_Node000005"><a xlink:title=" ">
<path fill="none" stroke="#63b8ff" d="M620.03,-172.67C587.54,-161.36 539.34,-144.57 510.46,-134.52"/>
<polygon fill="#63b8ff" stroke="#63b8ff" points="618.98,-176.01 629.57,-175.99 621.28,-169.4 618.98,-176.01"/>
</a>
</g>
</g>
<!-- Node8 -->
<g id="Node000008" class="node">
<title>Node8</title>
<g id="a_Node000008"><a xlink:href="podium__ceremony__actors_8c.html" target="_top" xlink:title=" ">
<polygon fill="white" stroke="#666666" points="734.5,-140 573.5,-140 573.5,-110 734.5,-110 734.5,-140"/>
<text text-anchor="start" x="581.5" y="-128" font-family="Helvetica,sans-Serif" font-size="10.00">src/ending/podium_ceremony</text>
<text text-anchor="middle" x="654" y="-117" font-family="Helvetica,sans-Serif" font-size="10.00">_actors.c</text>
</a>
</g>
</g>
<!-- Node1&#45;&gt;Node8 -->
<g id="edge7_Node000001_Node000008" class="edge">
<title>Node1&#45;&gt;Node8</title>
<g id="a_edge7_Node000001_Node000008"><a xlink:title=" ">
<path fill="none" stroke="#63b8ff" d="M654,-165.65C654,-157.36 654,-147.78 654,-140.11"/>
<polygon fill="#63b8ff" stroke="#63b8ff" points="650.5,-165.87 654,-175.87 657.5,-165.87 650.5,-165.87"/>
</a>
</g>
</g>
<!-- Node9 -->
<g id="Node000009" class="node">
<title>Node9</title>
<g id="a_Node000009"><a xlink:href="main_8c.html" target="_top" xlink:title=" ">
<polygon fill="white" stroke="#666666" points="819.5,-134.5 752.5,-134.5 752.5,-115.5 819.5,-115.5 819.5,-134.5"/>
<text text-anchor="middle" x="786" y="-122.5" font-family="Helvetica,sans-Serif" font-size="10.00">src/main.c</text>
</a>
</g>
</g>
<!-- Node1&#45;&gt;Node9 -->
<g id="edge8_Node000001_Node000009" class="edge">
<title>Node1&#45;&gt;Node9</title>
<g id="a_edge8_Node000001_Node000009"><a xlink:title=" ">
<path fill="none" stroke="#63b8ff" d="M682.36,-171.93C707.84,-160.64 744.58,-144.36 766.78,-134.52"/>
<polygon fill="#63b8ff" stroke="#63b8ff" points="680.92,-168.74 673.19,-175.99 683.75,-175.14 680.92,-168.74"/>
</a>
</g>
</g>
<!-- Node10 -->
<g id="Node000010" class="node">
<title>Node10</title>
<g id="a_Node000010"><a xlink:href="player__controller_8c.html" target="_top" xlink:title=" ">
<polygon fill="white" stroke="#666666" points="962,-134.5 838,-134.5 838,-115.5 962,-115.5 962,-134.5"/>
<text text-anchor="middle" x="900" y="-122.5" font-family="Helvetica,sans-Serif" font-size="10.00">src/player_controller.c</text>
</a>
</g>
</g>
<!-- Node1&#45;&gt;Node10 -->
<g id="edge9_Node000001_Node000010" class="edge">
<title>Node1&#45;&gt;Node10</title>
<g id="a_edge9_Node000001_Node000010"><a xlink:title=" ">
<path fill="none" stroke="#63b8ff" d="M699.8,-173.61C747.34,-162.3 820.71,-144.85 864.19,-134.52"/>
<polygon fill="#63b8ff" stroke="#63b8ff" points="698.69,-170.27 689.77,-175.99 700.31,-177.09 698.69,-170.27"/>
</a>
</g>
</g>
<!-- Node11 -->
<g id="Node000011" class="node">
<title>Node11</title>
<g id="a_Node000011"><a xlink:href="render__player_8c.html" target="_top" xlink:title=" ">
<polygon fill="white" stroke="#666666" points="1089.5,-134.5 980.5,-134.5 980.5,-115.5 1089.5,-115.5 1089.5,-134.5"/>
<text text-anchor="middle" x="1035" y="-122.5" font-family="Helvetica,sans-Serif" font-size="10.00">src/render_player.c</text>
</a>
</g>
</g>
<!-- Node1&#45;&gt;Node11 -->
<g id="edge10_Node000001_Node000011" class="edge">
<title>Node1&#45;&gt;Node11</title>
<g id="a_edge10_Node000001_Node000011"><a xlink:title=" ">
<path fill="none" stroke="#63b8ff" d="M726.83,-175.87C791.25,-167.86 887.66,-154.94 971,-140 979.84,-138.41 989.32,-136.47 998.21,-134.55"/>
<polygon fill="#63b8ff" stroke="#63b8ff" points="726.27,-172.41 716.78,-177.11 727.13,-179.36 726.27,-172.41"/>
</a>
</g>
</g>
<!-- Node12 -->
<g id="Node000012" class="node">
<title>Node12</title>
<g id="a_Node000012"><a xlink:href="spawn__players_8c.html" target="_top" xlink:title=" ">
<polygon fill="white" stroke="#666666" points="1222.5,-134.5 1107.5,-134.5 1107.5,-115.5 1222.5,-115.5 1222.5,-134.5"/>
<text text-anchor="middle" x="1165" y="-122.5" font-family="Helvetica,sans-Serif" font-size="10.00">src/spawn_players.c</text>
</a>
</g>
</g>
<!-- Node1&#45;&gt;Node12 -->
<g id="edge11_Node000001_Node000012" class="edge">
<title>Node1&#45;&gt;Node12</title>
<g id="a_edge11_Node000001_Node000012"><a xlink:title=" ">
<path fill="none" stroke="#63b8ff" d="M726.73,-179.68C815.1,-173.26 968.56,-160.29 1099,-140 1108.49,-138.52 1118.67,-136.56 1128.13,-134.56"/>
<polygon fill="#63b8ff" stroke="#63b8ff" points="726.27,-176.2 716.55,-180.41 726.77,-183.19 726.27,-176.2"/>
</a>
</g>
</g>
<!-- Node6 -->
<g id="Node000006" class="node">
<title>Node6</title>
<g id="a_Node000006"><a xlink:href="debug_8inc_8c.html" target="_top" xlink:title=" ">
<polygon fill="white" stroke="#666666" points="547,-74 425,-74 425,-55 547,-55 547,-74"/>
<text text-anchor="middle" x="486" y="-62" font-family="Helvetica,sans-Serif" font-size="10.00">src/debug/debug.inc.c</text>
</a>
</g>
</g>
<!-- Node5&#45;&gt;Node6 -->
<g id="edge5_Node000005_Node000006" class="edge">
<title>Node5&#45;&gt;Node6</title>
<g id="a_edge5_Node000005_Node000006"><a xlink:title=" ">
<path fill="none" stroke="#63b8ff" d="M486,-105.16C486,-94.74 486,-82.3 486,-74.17"/>
<polygon fill="#63b8ff" stroke="#63b8ff" points="482.5,-105.37 486,-115.37 489.5,-105.37 482.5,-105.37"/>
</a>
</g>
</g>
<!-- Node7 -->
<g id="Node000007" class="node">
<title>Node7</title>
<g id="a_Node000007"><a xlink:href="debug_8c.html" target="_top" xlink:title=" ">
<polygon fill="white" stroke="#666666" points="538.5,-19 433.5,-19 433.5,0 538.5,0 538.5,-19"/>
<text text-anchor="middle" x="486" y="-7" font-family="Helvetica,sans-Serif" font-size="10.00">src/debug/debug.c</text>
</a>
</g>
</g>
<!-- Node6&#45;&gt;Node7 -->
<g id="edge6_Node000006_Node000007" class="edge">
<title>Node6&#45;&gt;Node7</title>
<g id="a_edge6_Node000006_Node000007"><a xlink:title=" ">
<path fill="none" stroke="#63b8ff" d="M486,-44.66C486,-35.93 486,-25.99 486,-19.09"/>
<polygon fill="#63b8ff" stroke="#63b8ff" points="482.5,-44.75 486,-54.75 489.5,-44.75 482.5,-44.75"/>
</a>
</g>
</g>
</g>
</svg>

<g id="navigator" transform="translate(0 0)" fill="#404254">
  <rect fill="#f2f5e9" fill-opacity="0.5" stroke="#606060" stroke-width=".5" x="0" y="0" width="60" height="60"/>
  <use id="zoomplus" xlink:href="#zoomPlus" x="17" y="9" onmousedown="handleZoom(evt,'in')"/>
  <use id="zoomminus" xlink:href="#zoomMin" x="42" y="9" onmousedown="handleZoom(evt,'out')"/>
  <use id="reset" xlink:href="#resetDef" x="30" y="36" onmousedown="handleReset()"/>
   <use id="arrowup" xlink:href="#arrowUp" x="0" y="0" onmousedown="handlePan(0,-1)"/>
  <use id="arrowright" xlink:href="#arrowRight" x="0" y="0" onmousedown="handlePan(1,0)"/>
  <use id="arrowdown" xlink:href="#arrowDown" x="0" y="0" onmousedown="handlePan(0,1)"/>
  <use id="arrowleft" xlink:href="#arrowLeft" x="0" y="0" onmousedown="handlePan(-1,0)"/>
</g>
<svg viewBox="0 0 15 15" width="100%" height="30px" preserveAspectRatio="xMaxYMin meet">
 <g id="arrow_out" transform="scale(0.3 0.3)">
  <a xlink:href="player__controller_8h__dep__incl_org.svg" target="_base">
   <rect id="button" ry="5" rx="5" y="6" x="6" height="38" width="38"
        fill="#f2f5e9" fill-opacity="0.5" stroke="#606060" stroke-width="1.0"/>
   <path id="arrow"
     d="M 11.500037,31.436501 C 11.940474,20.09759 22.043105,11.32322 32.158766,21.979434 L 37.068811,17.246167 C 37.068811,17.246167 37.088388,32 37.088388,32 L 22.160133,31.978069 C 22.160133,31.978069 26.997745,27.140456 26.997745,27.140456 C 18.528582,18.264221 13.291696,25.230495 11.500037,31.436501 z"
     style="fill:#404040;"/>
  </a>
 </g>
</svg>

<style type='text/css'>
<![CDATA[
[data-mouse-over-selected='false'] { opacity: 0.7; }
[data-mouse-over-selected='true']  { opacity: 1.0; }
]]>
</style>
<script type="application/ecmascript"><![CDATA[
document.addEventListener('DOMContentLoaded', (event) => {
  highlightEdges();
  highlightAdjacentNodes();
});
]]></script>
</svg>
