<?xml version="1.0" encoding="UTF-8" standalone="no"?>
<!DOCTYPE svg PUBLIC "-//W3C//DTD SVG 1.1//EN"
 "http://www.w3.org/Graphics/SVG/1.1/DTD/svg11.dtd">
<!-- Generated by graphviz version 2.43.0 (0)
 -->
<!-- Title: func_800382DC Pages: 1 -->
<svg width="1427pt" height="809pt"
 viewBox="0.00 0.00 1427.00 809.23" xmlns="http://www.w3.org/2000/svg" xmlns:xlink="http://www.w3.org/1999/xlink">
<g id="graph0" class="graph" transform="scale(1 1) rotate(0) translate(4 805.23)">
<title>func_800382DC</title>
<!-- Node1 -->
<g id="Node000001" class="node">
<title>Node1</title>
<g id="a_Node000001"><a xlink:title=" ">
<polygon fill="#999999" stroke="#666666" points="93,-395.23 0,-395.23 0,-376.23 93,-376.23 93,-395.23"/>
<text text-anchor="middle" x="46.5" y="-383.23" font-family="Helvetica,sans-Serif" font-size="10.00">func_800382DC</text>
</a>
</g>
</g>
<!-- Node2 -->
<g id="Node000002" class="node">
<title>Node2</title>
<g id="a_Node000002"><a xlink:href="player__controller_8c.html#ac5fdc565f5a4a779b67fd7563e76f317" target="_top" xlink:title=" ">
<polygon fill="white" stroke="#666666" points="221,-395.23 129,-395.23 129,-376.23 221,-376.23 221,-395.23"/>
<text text-anchor="middle" x="175" y="-383.23" font-family="Helvetica,sans-Serif" font-size="10.00">func_800381AC</text>
</a>
</g>
</g>
<!-- Node1&#45;&gt;Node2 -->
<g id="edge1_Node000001_Node000002" class="edge">
<title>Node1&#45;&gt;Node2</title>
<g id="a_edge1_Node000001_Node000002"><a xlink:title=" ">
<path fill="none" stroke="#63b8ff" d="M93.17,-385.73C101.42,-385.73 110.11,-385.73 118.6,-385.73"/>
<polygon fill="#63b8ff" stroke="#63b8ff" points="118.82,-389.23 128.82,-385.73 118.82,-382.23 118.82,-389.23"/>
</a>
</g>
</g>
<!-- Node3 -->
<g id="Node000003" class="node">
<title>Node3</title>
<g id="a_Node000003"><a xlink:href="player__controller_8c.html#a7a967d886b7ebeddcd9207fc2af1d28e" target="_top" xlink:title=" ">
<polygon fill="white" stroke="#666666" points="348.5,-625.23 257.5,-625.23 257.5,-606.23 348.5,-606.23 348.5,-625.23"/>
<text text-anchor="middle" x="303" y="-613.23" font-family="Helvetica,sans-Serif" font-size="10.00">func_80032700</text>
</a>
</g>
</g>
<!-- Node2&#45;&gt;Node3 -->
<g id="edge2_Node000002_Node000003" class="edge">
<title>Node2&#45;&gt;Node3</title>
<g id="a_edge2_Node000002_Node000003"><a xlink:title=" ">
<path fill="none" stroke="#63b8ff" d="M180.42,-395.29C192.1,-420.38 225.13,-490.07 257,-545.73 267.27,-563.66 280.1,-583.4 289.44,-597.33"/>
<polygon fill="#63b8ff" stroke="#63b8ff" points="286.77,-599.63 295.26,-605.96 292.57,-595.71 286.77,-599.63"/>
</a>
</g>
</g>
<!-- Node5 -->
<g id="Node000005" class="node">
<title>Node5</title>
<g id="a_Node000005"><a xlink:href="player__controller_8c.html#a33851c48dcfab9ec693e4a5c68cc2ecd" target="_top" xlink:title=" ">
<polygon fill="white" stroke="#666666" points="349,-358.23 257,-358.23 257,-339.23 349,-339.23 349,-358.23"/>
<text text-anchor="middle" x="303" y="-346.23" font-family="Helvetica,sans-Serif" font-size="10.00">func_80032CB0</text>
</a>
</g>
</g>
<!-- Node2&#45;&gt;Node5 -->
<g id="edge4_Node000002_Node000005" class="edge">
<title>Node2&#45;&gt;Node5</title>
<g id="a_edge4_Node000002_Node000005"><a xlink:title=" ">
<path fill="none" stroke="#63b8ff" d="M208.45,-376.2C223.91,-371.66 242.6,-366.17 259.2,-361.3"/>
<polygon fill="#63b8ff" stroke="#63b8ff" points="260.62,-364.53 269.22,-358.35 258.64,-357.81 260.62,-364.53"/>
</a>
</g>
</g>
<!-- Node6 -->
<g id="Node000006" class="node">
<title>Node6</title>
<g id="a_Node000006"><a xlink:href="player__controller_8c.html#a22b33e3c04e02dd7da6d26449639cdf8" target="_top" xlink:title=" ">
<polygon fill="white" stroke="#666666" points="349,-536.23 257,-536.23 257,-517.23 349,-517.23 349,-536.23"/>
<text text-anchor="middle" x="303" y="-524.23" font-family="Helvetica,sans-Serif" font-size="10.00">func_80032D94</text>
</a>
</g>
</g>
<!-- Node2&#45;&gt;Node6 -->
<g id="edge5_Node000002_Node000006" class="edge">
<title>Node2&#45;&gt;Node6</title>
<g id="a_edge5_Node000002_Node000006"><a xlink:title=" ">
<path fill="none" stroke="#63b8ff" d="M184.66,-395.42C205.7,-418.97 259.74,-479.44 286.5,-509.39"/>
<polygon fill="#63b8ff" stroke="#63b8ff" points="284.01,-511.85 293.28,-516.97 289.23,-507.18 284.01,-511.85"/>
</a>
</g>
</g>
<!-- Node7 -->
<g id="Node000007" class="node">
<title>Node7</title>
<g id="a_Node000007"><a xlink:href="player__controller_8c.html#a168fd103aa60b41190e2b32bab868329" target="_top" xlink:title=" ">
<polygon fill="white" stroke="#666666" points="348.5,-321.23 257.5,-321.23 257.5,-302.23 348.5,-302.23 348.5,-321.23"/>
<text text-anchor="middle" x="303" y="-309.23" font-family="Helvetica,sans-Serif" font-size="10.00">func_80033280</text>
</a>
</g>
</g>
<!-- Node2&#45;&gt;Node7 -->
<g id="edge7_Node000002_Node000007" class="edge">
<title>Node2&#45;&gt;Node7</title>
<g id="a_edge7_Node000002_Node000007"><a xlink:title=" ">
<path fill="none" stroke="#63b8ff" d="M188.07,-376.09C203.43,-364.14 231.09,-343.64 257,-329.73 259.89,-328.18 262.95,-326.68 266.05,-325.26"/>
<polygon fill="#63b8ff" stroke="#63b8ff" points="267.58,-328.41 275.37,-321.23 264.81,-321.98 267.58,-328.41"/>
</a>
</g>
</g>
<!-- Node8 -->
<g id="Node000008" class="node">
<title>Node8</title>
<g id="a_Node000008"><a xlink:href="player__controller_8c.html#aee4ac6480be5180d4226e25ba781602f" target="_top" xlink:title=" ">
<polygon fill="white" stroke="#666666" points="349,-395.23 257,-395.23 257,-376.23 349,-376.23 349,-395.23"/>
<text text-anchor="middle" x="303" y="-383.23" font-family="Helvetica,sans-Serif" font-size="10.00">func_80037CFC</text>
</a>
</g>
</g>
<!-- Node2&#45;&gt;Node8 -->
<g id="edge8_Node000002_Node000008" class="edge">
<title>Node2&#45;&gt;Node8</title>
<g id="a_edge8_Node000002_Node000008"><a xlink:title=" ">
<path fill="none" stroke="#63b8ff" d="M221.13,-385.73C229.37,-385.73 238.04,-385.73 246.53,-385.73"/>
<polygon fill="#63b8ff" stroke="#63b8ff" points="246.76,-389.23 256.76,-385.73 246.76,-382.23 246.76,-389.23"/>
</a>
</g>
</g>
<!-- Node4 -->
<g id="Node000004" class="node">
<title>Node4</title>
<g id="a_Node000004"><a xlink:href="player__controller_8c.html#aafeb0470c7da44e1440ffa4848f7d500" target="_top" xlink:title=" ">
<polygon fill="white" stroke="#666666" points="797,-507.73 678,-507.73 678,-477.73 797,-477.73 797,-507.73"/>
<text text-anchor="start" x="686" y="-495.73" font-family="Helvetica,sans-Serif" font-size="10.00">get_player_index_for</text>
<text text-anchor="middle" x="737.5" y="-484.73" font-family="Helvetica,sans-Serif" font-size="10.00">_player</text>
</a>
</g>
</g>
<!-- Node3&#45;&gt;Node4 -->
<g id="edge3_Node000003_Node000004" class="edge">
<title>Node3&#45;&gt;Node4</title>
<g id="a_edge3_Node000003_Node000004"><a xlink:title=" ">
<path fill="none" stroke="#63b8ff" d="M344.15,-625.27C357.11,-627.91 371.59,-630.42 385,-631.73 499.98,-642.98 543.73,-653.47 642,-592.73 674.43,-572.68 703.16,-538.76 720.19,-516.06"/>
<polygon fill="#63b8ff" stroke="#63b8ff" points="723.04,-518.09 726.13,-507.96 717.39,-513.95 723.04,-518.09"/>
</a>
</g>
</g>
<!-- Node6&#45;&gt;Node4 -->
<g id="edge6_Node000006_Node000004" class="edge">
<title>Node6&#45;&gt;Node4</title>
<g id="a_edge6_Node000006_Node000004"><a xlink:title=" ">
<path fill="none" stroke="#63b8ff" d="M309.38,-536.24C320.59,-554.95 348.46,-596.08 385,-611.73 437.29,-634.13 457.8,-625.51 513,-611.73 588.89,-592.78 667.27,-542.68 708,-513.89"/>
<polygon fill="#63b8ff" stroke="#63b8ff" points="710.25,-516.58 716.35,-507.92 706.18,-510.89 710.25,-516.58"/>
</a>
</g>
</g>
<!-- Node9 -->
<g id="Node000009" class="node">
<title>Node9</title>
<g id="a_Node000009"><a xlink:href="player__controller_8c.html#af664eee1a948701ecb82a1ed9d3881c1" target="_top" xlink:title=" ">
<polygon fill="white" stroke="#666666" points="513,-131.73 385,-131.73 385,-101.73 513,-101.73 513,-131.73"/>
<text text-anchor="start" x="393" y="-119.73" font-family="Helvetica,sans-Serif" font-size="10.00">detect_triple_a_combo</text>
<text text-anchor="middle" x="449" y="-108.73" font-family="Helvetica,sans-Serif" font-size="10.00">_a_pressed</text>
</a>
</g>
</g>
<!-- Node8&#45;&gt;Node9 -->
<g id="edge9_Node000008_Node000009" class="edge">
<title>Node8&#45;&gt;Node9</title>
<g id="a_edge9_Node000008_Node000009"><a xlink:title=" ">
<path fill="none" stroke="#63b8ff" d="M338.98,-376.17C342.79,-373.92 346.27,-371.15 349,-367.73 412.74,-287.9 320.61,-220.03 385,-140.73 385.7,-139.87 386.44,-139.03 387.2,-138.23"/>
<polygon fill="#63b8ff" stroke="#63b8ff" points="389.46,-140.91 394.85,-131.79 384.95,-135.56 389.46,-140.91"/>
</a>
</g>
</g>
<!-- Node10 -->
<g id="Node000010" class="node">
<title>Node10</title>
<g id="a_Node000010"><a xlink:href="player__controller_8c.html#a87754d3029a46143393b05d7b80c5095" target="_top" xlink:title=" ">
<polygon fill="white" stroke="#666666" points="513,-83.73 385,-83.73 385,-53.73 513,-53.73 513,-83.73"/>
<text text-anchor="start" x="393" y="-71.73" font-family="Helvetica,sans-Serif" font-size="10.00">detect_triple_a_combo</text>
<text text-anchor="middle" x="449" y="-60.73" font-family="Helvetica,sans-Serif" font-size="10.00">_a_released</text>
</a>
</g>
</g>
<!-- Node8&#45;&gt;Node10 -->
<g id="edge10_Node000008_Node000010" class="edge">
<title>Node8&#45;&gt;Node10</title>
<g id="a_edge10_Node000008_Node000010"><a xlink:title=" ">
<path fill="none" stroke="#63b8ff" d="M339.51,-375.98C343.13,-373.76 346.42,-371.05 349,-367.73 424.6,-270.37 308.6,-189.46 385,-92.73 385.59,-91.99 386.2,-91.27 386.84,-90.57"/>
<polygon fill="#63b8ff" stroke="#63b8ff" points="389.23,-93.12 394.46,-83.91 384.63,-87.85 389.23,-93.12"/>
</a>
</g>
</g>
<!-- Node11 -->
<g id="Node000011" class="node">
<title>Node11</title>
<g id="a_Node000011"><a xlink:href="player__controller_8c.html#a38d09485c11cb0e6262e4cd7becde84c" target="_top" xlink:title=" ">
<polygon fill="white" stroke="#666666" points="513,-602.73 385,-602.73 385,-572.73 513,-572.73 513,-602.73"/>
<text text-anchor="start" x="393" y="-590.73" font-family="Helvetica,sans-Serif" font-size="10.00">detect_triple_b_combo</text>
<text text-anchor="middle" x="449" y="-579.73" font-family="Helvetica,sans-Serif" font-size="10.00">_b_pressed</text>
</a>
</g>
</g>
<!-- Node8&#45;&gt;Node11 -->
<g id="edge11_Node000008_Node000011" class="edge">
<title>Node8&#45;&gt;Node11</title>
<g id="a_edge11_Node000008_Node000011"><a xlink:title=" ">
<path fill="none" stroke="#63b8ff" d="M307.36,-395.57C318.98,-429.17 358.27,-538.63 385,-563.73 386.26,-564.91 387.59,-566.04 388.97,-567.11"/>
<polygon fill="#63b8ff" stroke="#63b8ff" points="387.09,-570.07 397.36,-572.69 390.96,-564.24 387.09,-570.07"/>
</a>
</g>
</g>
<!-- Node12 -->
<g id="Node000012" class="node">
<title>Node12</title>
<g id="a_Node000012"><a xlink:href="player__controller_8c.html#a3236e6369c678a81362382d7101b14a2" target="_top" xlink:title=" ">
<polygon fill="white" stroke="#666666" points="513,-554.73 385,-554.73 385,-524.73 513,-524.73 513,-554.73"/>
<text text-anchor="start" x="393" y="-542.73" font-family="Helvetica,sans-Serif" font-size="10.00">detect_triple_b_combo</text>
<text text-anchor="middle" x="449" y="-531.73" font-family="Helvetica,sans-Serif" font-size="10.00">_b_released</text>
</a>
</g>
</g>
<!-- Node8&#45;&gt;Node12 -->
<g id="edge12_Node000008_Node000012" class="edge">
<title>Node8&#45;&gt;Node12</title>
<g id="a_edge12_Node000008_Node000012"><a xlink:title=" ">
<path fill="none" stroke="#63b8ff" d="M307.48,-395.37C316.55,-419.17 343.12,-481.25 385,-515.73 386.56,-517.01 388.19,-518.23 389.89,-519.39"/>
<polygon fill="#63b8ff" stroke="#63b8ff" points="388.38,-522.57 398.76,-524.68 391.97,-516.56 388.38,-522.57"/>
</a>
</g>
</g>
<!-- Node13 -->
<g id="Node000013" class="node">
<title>Node13</title>
<g id="a_Node000013"><a xlink:href="player__controller_8c.html#a6cced523e4307a74ca7cb876b63944f8" target="_top" xlink:title=" ">
<polygon fill="white" stroke="#666666" points="495,-506.23 403,-506.23 403,-487.23 495,-487.23 495,-506.23"/>
<text text-anchor="middle" x="449" y="-494.23" font-family="Helvetica,sans-Serif" font-size="10.00">func_8002AA50</text>
</a>
</g>
</g>
<!-- Node8&#45;&gt;Node13 -->
<g id="edge13_Node000008_Node000013" class="edge">
<title>Node8&#45;&gt;Node13</title>
<g id="a_edge13_Node000008_Node000013"><a xlink:title=" ">
<path fill="none" stroke="#63b8ff" d="M309.6,-395.24C321.21,-414.1 349.77,-456.33 385,-478.73 387.74,-480.47 390.64,-482.04 393.65,-483.47"/>
<polygon fill="#63b8ff" stroke="#63b8ff" points="392.32,-486.71 402.9,-487.32 395.01,-480.24 392.32,-486.71"/>
</a>
</g>
</g>
<!-- Node15 -->
<g id="Node000015" class="node">
<title>Node15</title>
<g id="a_Node000015"><a xlink:href="player__controller_8c.html#ac7a97dc1bb35fea10379d0fa68c83f3e" target="_top" xlink:title=" ">
<polygon fill="white" stroke="#666666" points="641,-358.23 550,-358.23 550,-339.23 641,-339.23 641,-358.23"/>
<text text-anchor="middle" x="595.5" y="-346.23" font-family="Helvetica,sans-Serif" font-size="10.00">func_80031F48</text>
</a>
</g>
</g>
<!-- Node8&#45;&gt;Node15 -->
<g id="edge15_Node000008_Node000015" class="edge">
<title>Node8&#45;&gt;Node15</title>
<g id="a_edge15_Node000008_Node000015"><a xlink:title=" ">
<path fill="none" stroke="#63b8ff" d="M333.5,-376.07C338.87,-373.72 344.27,-370.94 349,-367.73 368.25,-354.66 363.63,-338.92 385,-329.73 442.77,-304.88 517.61,-322.06 560.42,-335.97"/>
<polygon fill="#63b8ff" stroke="#63b8ff" points="559.48,-339.34 570.07,-339.22 561.72,-332.71 559.48,-339.34"/>
</a>
</g>
</g>
<!-- Node33 -->
<g id="Node000033" class="node">
<title>Node33</title>
<g id="a_Node000033"><a xlink:href="external_8c.html#a517352d45a01341217ab2c073b3b223f" target="_top" xlink:title=" ">
<polygon fill="white" stroke="#666666" points="1310.5,-244.23 1218.5,-244.23 1218.5,-225.23 1310.5,-225.23 1310.5,-244.23"/>
<text text-anchor="middle" x="1264.5" y="-232.23" font-family="Helvetica,sans-Serif" font-size="10.00">func_800C9060</text>
</a>
</g>
</g>
<!-- Node8&#45;&gt;Node33 -->
<g id="edge53_Node000008_Node000033" class="edge">
<title>Node8&#45;&gt;Node33</title>
<g id="a_edge53_Node000008_Node000033"><a xlink:title=" ">
<path fill="none" stroke="#63b8ff" d="M336.77,-376.11C341.22,-373.85 345.46,-371.09 349,-367.73 376.69,-341.44 355.74,-314.26 385,-289.73 458.78,-227.89 498.23,-234.73 594.5,-234.73 594.5,-234.73 594.5,-234.73 1008.5,-234.73 1077.25,-234.73 1156.43,-234.73 1208.09,-234.73"/>
<polygon fill="#63b8ff" stroke="#63b8ff" points="1208.36,-238.23 1218.36,-234.73 1208.36,-231.23 1208.36,-238.23"/>
</a>
</g>
</g>
<!-- Node37 -->
<g id="Node000037" class="node">
<title>Node37</title>
<g id="a_Node000037"><a xlink:href="player__controller_8c.html#af15169209879a48ae06ba698b386faa6" target="_top" xlink:title=" ">
<polygon fill="white" stroke="#666666" points="494.5,-358.23 403.5,-358.23 403.5,-339.23 494.5,-339.23 494.5,-358.23"/>
<text text-anchor="middle" x="449" y="-346.23" font-family="Helvetica,sans-Serif" font-size="10.00">func_800323E4</text>
</a>
</g>
</g>
<!-- Node8&#45;&gt;Node37 -->
<g id="edge39_Node000008_Node000037" class="edge">
<title>Node8&#45;&gt;Node37</title>
<g id="a_edge39_Node000008_Node000037"><a xlink:title=" ">
<path fill="none" stroke="#63b8ff" d="M341.08,-376.2C359.25,-371.53 381.33,-365.86 400.7,-360.88"/>
<polygon fill="#63b8ff" stroke="#63b8ff" points="401.73,-364.23 410.54,-358.35 399.99,-357.45 401.73,-364.23"/>
</a>
</g>
</g>
<!-- Node38 -->
<g id="Node000038" class="node">
<title>Node38</title>
<g id="a_Node000038"><a xlink:href="player__controller_8c.html#abc17cab760a603e6c215a7a82137cc39" target="_top" xlink:title=" ">
<polygon fill="white" stroke="#666666" points="494.5,-469.23 403.5,-469.23 403.5,-450.23 494.5,-450.23 494.5,-469.23"/>
<text text-anchor="middle" x="449" y="-457.23" font-family="Helvetica,sans-Serif" font-size="10.00">func_800332E8</text>
</a>
</g>
</g>
<!-- Node8&#45;&gt;Node38 -->
<g id="edge41_Node000008_Node000038" class="edge">
<title>Node8&#45;&gt;Node38</title>
<g id="a_edge41_Node000008_Node000038"><a xlink:title=" ">
<path fill="none" stroke="#63b8ff" d="M315.33,-395.37C330.35,-407.71 358.11,-429.02 385,-441.73 389.04,-443.64 393.33,-445.39 397.69,-446.98"/>
<polygon fill="#63b8ff" stroke="#63b8ff" points="396.69,-450.34 407.29,-450.21 398.93,-443.7 396.69,-450.34"/>
</a>
</g>
</g>
<!-- Node39 -->
<g id="Node000039" class="node">
<title>Node39</title>
<g id="a_Node000039"><a xlink:href="player__controller_8c.html#a56ba286d5fa63e7acc7595ef8cda67f0" target="_top" xlink:title=" ">
<polygon fill="white" stroke="#666666" points="495,-432.23 403,-432.23 403,-413.23 495,-413.23 495,-432.23"/>
<text text-anchor="middle" x="449" y="-420.23" font-family="Helvetica,sans-Serif" font-size="10.00">func_800337CC</text>
</a>
</g>
</g>
<!-- Node8&#45;&gt;Node39 -->
<g id="edge42_Node000008_Node000039" class="edge">
<title>Node8&#45;&gt;Node39</title>
<g id="a_edge42_Node000008_Node000039"><a xlink:title=" ">
<path fill="none" stroke="#63b8ff" d="M341.08,-395.26C359.25,-399.93 381.33,-405.6 400.7,-410.58"/>
<polygon fill="#63b8ff" stroke="#63b8ff" points="399.99,-414.01 410.54,-413.11 401.73,-407.23 399.99,-414.01"/>
</a>
</g>
</g>
<!-- Node40 -->
<g id="Node000040" class="node">
<title>Node40</title>
<g id="a_Node000040"><a xlink:href="player__controller_8c.html#a75d7b3a332f920a1c54722ce91d9eb74" target="_top" xlink:title=" ">
<polygon fill="white" stroke="#666666" points="495,-169.23 403,-169.23 403,-150.23 495,-150.23 495,-169.23"/>
<text text-anchor="middle" x="449" y="-157.23" font-family="Helvetica,sans-Serif" font-size="10.00">func_80033AE0</text>
</a>
</g>
</g>
<!-- Node8&#45;&gt;Node40 -->
<g id="edge43_Node000008_Node000040" class="edge">
<title>Node8&#45;&gt;Node40</title>
<g id="a_edge43_Node000008_Node000040"><a xlink:title=" ">
<path fill="none" stroke="#63b8ff" d="M338.27,-376.2C342.3,-373.94 346.02,-371.16 349,-367.73 393.11,-316.95 351.53,-279.07 385,-220.73 395.29,-202.8 412.39,-186.72 426.18,-175.58"/>
<polygon fill="#63b8ff" stroke="#63b8ff" points="428.5,-178.21 434.25,-169.31 424.21,-172.68 428.5,-178.21"/>
</a>
</g>
</g>
<!-- Node48 -->
<g id="Node000048" class="node">
<title>Node48</title>
<g id="a_Node000048"><a xlink:href="player__controller_8c.html#a6ab60cd01fe159bb7f6c60d06d9e16a6" target="_top" xlink:title=" ">
<polygon fill="white" stroke="#666666" points="495,-395.23 403,-395.23 403,-376.23 495,-376.23 495,-395.23"/>
<text text-anchor="middle" x="449" y="-383.23" font-family="Helvetica,sans-Serif" font-size="10.00">func_800388B0</text>
</a>
</g>
</g>
<!-- Node8&#45;&gt;Node48 -->
<g id="edge52_Node000008_Node000048" class="edge">
<title>Node8&#45;&gt;Node48</title>
<g id="a_edge52_Node000008_Node000048"><a xlink:title=" ">
<path fill="none" stroke="#63b8ff" d="M349.17,-385.73C362.97,-385.73 378.31,-385.73 392.71,-385.73"/>
<polygon fill="#63b8ff" stroke="#63b8ff" points="392.99,-389.23 402.99,-385.73 392.99,-382.23 392.99,-389.23"/>
</a>
</g>
</g>
<!-- Node49 -->
<g id="Node000049" class="node">
<title>Node49</title>
<g id="a_Node000049"><a xlink:href="player__controller_8c.html#a84e13f8b3b653c5b3cdd4483b6e1b153" target="_top" xlink:title=" ">
<polygon fill="white" stroke="#666666" points="636.5,-321.23 554.5,-321.23 554.5,-302.23 636.5,-302.23 636.5,-321.23"/>
<text text-anchor="middle" x="595.5" y="-309.23" font-family="Helvetica,sans-Serif" font-size="10.00">player_speed</text>
</a>
</g>
</g>
<!-- Node8&#45;&gt;Node49 -->
<g id="edge54_Node000008_Node000049" class="edge">
<title>Node8&#45;&gt;Node49</title>
<g id="a_edge54_Node000008_Node000049"><a xlink:title=" ">
<path fill="none" stroke="#63b8ff" d="M335.38,-376.05C340.22,-373.77 344.95,-371.02 349,-367.73 371.4,-349.56 359.63,-327.46 385,-313.73 435.3,-286.5 502.85,-291.97 547.48,-300.24"/>
<polygon fill="#63b8ff" stroke="#63b8ff" points="546.99,-303.71 557.48,-302.21 548.34,-296.84 546.99,-303.71"/>
</a>
</g>
</g>
<!-- Node14 -->
<g id="Node000014" class="node">
<title>Node14</title>
<g id="a_Node000014"><a xlink:href="player__controller_8c.html#a4702be83113ffc356cf0e2ab9bba33a3" target="_top" xlink:title=" ">
<polygon fill="white" stroke="#666666" points="641.5,-506.23 549.5,-506.23 549.5,-487.23 641.5,-487.23 641.5,-506.23"/>
<text text-anchor="middle" x="595.5" y="-494.23" font-family="Helvetica,sans-Serif" font-size="10.00">func_80036C5C</text>
</a>
</g>
</g>
<!-- Node13&#45;&gt;Node14 -->
<g id="edge14_Node000013_Node000014" class="edge">
<title>Node13&#45;&gt;Node14</title>
<g id="a_edge14_Node000013_Node000014"><a xlink:title=" ">
<path fill="none" stroke="#63b8ff" d="M495.32,-496.73C509.18,-496.73 524.57,-496.73 539.02,-496.73"/>
<polygon fill="#63b8ff" stroke="#63b8ff" points="539.34,-500.23 549.34,-496.73 539.34,-493.23 539.34,-500.23"/>
</a>
</g>
</g>
<!-- Node15&#45;&gt;Node4 -->
<g id="edge38_Node000015_Node000004" class="edge">
<title>Node15&#45;&gt;Node4</title>
<g id="a_edge38_Node000015_Node000004"><a xlink:title=" ">
<path fill="none" stroke="#63b8ff" d="M606.12,-358.63C628.22,-381.36 683.07,-437.78 714.13,-469.72"/>
<polygon fill="#63b8ff" stroke="#63b8ff" points="712,-472.55 721.48,-477.28 717.02,-467.67 712,-472.55"/>
</a>
</g>
</g>
<!-- Node16 -->
<g id="Node000016" class="node">
<title>Node16</title>
<g id="a_Node000016"><a xlink:href="code__8008C1D0_8c.html#ae77e5662a7ef9f09c2e2150a36883d04" target="_top" xlink:title=" ">
<polygon fill="white" stroke="#666666" points="783,-340.23 692,-340.23 692,-321.23 783,-321.23 783,-340.23"/>
<text text-anchor="middle" x="737.5" y="-328.23" font-family="Helvetica,sans-Serif" font-size="10.00">func_8008F104</text>
</a>
</g>
</g>
<!-- Node15&#45;&gt;Node16 -->
<g id="edge16_Node000015_Node000016" class="edge">
<title>Node15&#45;&gt;Node16</title>
<g id="a_edge16_Node000015_Node000016"><a xlink:title=" ">
<path fill="none" stroke="#63b8ff" d="M641.18,-342.99C654.06,-341.33 668.27,-339.5 681.69,-337.78"/>
<polygon fill="#63b8ff" stroke="#63b8ff" points="682.29,-341.23 691.76,-336.48 681.4,-334.29 682.29,-341.23"/>
</a>
</g>
</g>
<!-- Node17 -->
<g id="Node000017" class="node">
<title>Node17</title>
<g id="a_Node000017"><a xlink:href="code__8008C1D0_8c.html#a5cdc06d2091fc6d20759448c40b17d54" target="_top" xlink:title=" ">
<polygon fill="white" stroke="#666666" points="925,-542.23 833,-542.23 833,-523.23 925,-523.23 925,-542.23"/>
<text text-anchor="middle" x="879" y="-530.23" font-family="Helvetica,sans-Serif" font-size="10.00">func_8008C354</text>
</a>
</g>
</g>
<!-- Node16&#45;&gt;Node17 -->
<g id="edge17_Node000016_Node000017" class="edge">
<title>Node16&#45;&gt;Node17</title>
<g id="a_edge17_Node000016_Node000017"><a xlink:title=" ">
<path fill="none" stroke="#63b8ff" d="M745.23,-340.47C767.19,-372.27 836.99,-473.35 865.59,-514.77"/>
<polygon fill="#63b8ff" stroke="#63b8ff" points="862.78,-516.85 871.34,-523.08 868.54,-512.87 862.78,-516.85"/>
</a>
</g>
</g>
<!-- Node36 -->
<g id="Node000036" class="node">
<title>Node36</title>
<g id="a_Node000036"><a xlink:href="external_8c.html#a1a1bdc0f5d3b6fd4a86b9d62e93a076e" target="_top" xlink:title=" ">
<polygon fill="white" stroke="#666666" points="925,-302.23 833,-302.23 833,-283.23 925,-283.23 925,-302.23"/>
<text text-anchor="middle" x="879" y="-290.23" font-family="Helvetica,sans-Serif" font-size="10.00">func_800C90F4</text>
</a>
</g>
</g>
<!-- Node16&#45;&gt;Node36 -->
<g id="edge36_Node000016_Node000036" class="edge">
<title>Node16&#45;&gt;Node36</title>
<g id="a_edge36_Node000016_Node000036"><a xlink:title=" ">
<path fill="none" stroke="#63b8ff" d="M773.7,-321.14C791.71,-316.24 813.83,-310.21 833.06,-304.97"/>
<polygon fill="#63b8ff" stroke="#63b8ff" points="834.08,-308.32 842.81,-302.32 832.24,-301.57 834.08,-308.32"/>
</a>
</g>
</g>
<!-- Node18 -->
<g id="Node000018" class="node">
<title>Node18</title>
<g id="a_Node000018"><a xlink:href="code__8008C1D0_8c.html#ad164a912d7ef76f24e7b5cfb9169c16f" target="_top" xlink:title=" ">
<polygon fill="white" stroke="#666666" points="1054,-468.23 961,-468.23 961,-449.23 1054,-449.23 1054,-468.23"/>
<text text-anchor="middle" x="1007.5" y="-456.23" font-family="Helvetica,sans-Serif" font-size="10.00">func_8008C6D0</text>
</a>
</g>
</g>
<!-- Node17&#45;&gt;Node18 -->
<g id="edge18_Node000017_Node000018" class="edge">
<title>Node17&#45;&gt;Node18</title>
<g id="a_edge18_Node000017_Node000018"><a xlink:title=" ">
<path fill="none" stroke="#63b8ff" d="M892.4,-523.14C907.88,-511.46 935.44,-491.56 961,-477.73 964.46,-475.86 968.14,-474.05 971.86,-472.33"/>
<polygon fill="#63b8ff" stroke="#63b8ff" points="973.3,-475.52 981.05,-468.3 970.48,-469.11 973.3,-475.52"/>
</a>
</g>
</g>
<!-- Node19 -->
<g id="Node000019" class="node">
<title>Node19</title>
<g id="a_Node000019"><a xlink:href="code__8008C1D0_8c.html#a105203221e314be241a95e006b62ef80" target="_top" xlink:title=" ">
<polygon fill="white" stroke="#666666" points="1053.5,-431.23 961.5,-431.23 961.5,-412.23 1053.5,-412.23 1053.5,-431.23"/>
<text text-anchor="middle" x="1007.5" y="-419.23" font-family="Helvetica,sans-Serif" font-size="10.00">func_8008C8C4</text>
</a>
</g>
</g>
<!-- Node17&#45;&gt;Node19 -->
<g id="edge19_Node000017_Node000019" class="edge">
<title>Node17&#45;&gt;Node19</title>
<g id="a_edge19_Node000017_Node000019"><a xlink:title=" ">
<path fill="none" stroke="#63b8ff" d="M886.24,-523.11C898.54,-504.8 927.63,-464.67 961,-440.73 963.49,-438.94 966.18,-437.28 968.96,-435.75"/>
<polygon fill="#63b8ff" stroke="#63b8ff" points="970.59,-438.85 978.01,-431.29 967.5,-432.57 970.59,-438.85"/>
</a>
</g>
</g>
<!-- Node20 -->
<g id="Node000020" class="node">
<title>Node20</title>
<g id="a_Node000020"><a xlink:href="code__8008C1D0_8c.html#acab450a6af6eca812ad3987a292a5165" target="_top" xlink:title=" ">
<polygon fill="white" stroke="#666666" points="1053.5,-394.23 961.5,-394.23 961.5,-375.23 1053.5,-375.23 1053.5,-394.23"/>
<text text-anchor="middle" x="1007.5" y="-382.23" font-family="Helvetica,sans-Serif" font-size="10.00">func_8008D0E4</text>
</a>
</g>
</g>
<!-- Node17&#45;&gt;Node20 -->
<g id="edge20_Node000017_Node000020" class="edge">
<title>Node17&#45;&gt;Node20</title>
<g id="a_edge20_Node000017_Node000020"><a xlink:title=" ">
<path fill="none" stroke="#63b8ff" d="M883.71,-522.89C893.11,-499.21 920.04,-438.43 961,-403.73 962.94,-402.08 965.05,-400.56 967.25,-399.16"/>
<polygon fill="#63b8ff" stroke="#63b8ff" points="969.01,-402.19 976.11,-394.33 965.66,-396.05 969.01,-402.19"/>
</a>
</g>
</g>
<!-- Node21 -->
<g id="Node000021" class="node">
<title>Node21</title>
<g id="a_Node000021"><a xlink:href="code__8008C1D0_8c.html#a663cb8df8b606cf00e361977c9d6d834" target="_top" xlink:title=" ">
<polygon fill="white" stroke="#666666" points="1054,-357.23 961,-357.23 961,-338.23 1054,-338.23 1054,-357.23"/>
<text text-anchor="middle" x="1007.5" y="-345.23" font-family="Helvetica,sans-Serif" font-size="10.00">func_8008D3B0</text>
</a>
</g>
</g>
<!-- Node17&#45;&gt;Node21 -->
<g id="edge21_Node000017_Node000021" class="edge">
<title>Node17&#45;&gt;Node21</title>
<g id="a_edge21_Node000017_Node000021"><a xlink:title=" ">
<path fill="none" stroke="#63b8ff" d="M882.16,-523.05C888.89,-495.04 912.01,-412.94 961,-366.73 962.49,-365.32 964.11,-364.01 965.81,-362.79"/>
<polygon fill="#63b8ff" stroke="#63b8ff" points="968.03,-365.54 974.83,-357.42 964.45,-359.52 968.03,-365.54"/>
</a>
</g>
</g>
<!-- Node22 -->
<g id="Node000022" class="node">
<title>Node22</title>
<g id="a_Node000022"><a xlink:href="code__8008C1D0_8c.html#ae7bb91110e710a8f32fcd4c56c56f934" target="_top" xlink:title=" ">
<polygon fill="white" stroke="#666666" points="1053.5,-320.23 961.5,-320.23 961.5,-301.23 1053.5,-301.23 1053.5,-320.23"/>
<text text-anchor="middle" x="1007.5" y="-308.23" font-family="Helvetica,sans-Serif" font-size="10.00">func_8008D554</text>
</a>
</g>
</g>
<!-- Node17&#45;&gt;Node22 -->
<g id="edge22_Node000017_Node000022" class="edge">
<title>Node17&#45;&gt;Node22</title>
<g id="a_edge22_Node000017_Node000022"><a xlink:title=" ">
<path fill="none" stroke="#63b8ff" d="M881.11,-523.16C885.3,-491.16 903.03,-386.63 961,-328.73 961.95,-327.78 962.95,-326.89 964,-326.04"/>
<polygon fill="#63b8ff" stroke="#63b8ff" points="966.25,-328.74 972.74,-320.37 962.45,-322.87 966.25,-328.74"/>
</a>
</g>
</g>
<!-- Node23 -->
<g id="Node000023" class="node">
<title>Node23</title>
<g id="a_Node000023"><a xlink:href="code__8008C1D0_8c.html#a5f19eaaa048055d292d02c717e635786" target="_top" xlink:title=" ">
<polygon fill="white" stroke="#666666" points="1053.5,-801.23 961.5,-801.23 961.5,-782.23 1053.5,-782.23 1053.5,-801.23"/>
<text text-anchor="middle" x="1007.5" y="-789.23" font-family="Helvetica,sans-Serif" font-size="10.00">func_8008D760</text>
</a>
</g>
</g>
<!-- Node17&#45;&gt;Node23 -->
<g id="edge23_Node000017_Node000023" class="edge">
<title>Node17&#45;&gt;Node23</title>
<g id="a_edge23_Node000017_Node000023"><a xlink:title=" ">
<path fill="none" stroke="#63b8ff" d="M880.45,-542.47C882.6,-578.24 894.77,-703.93 961,-773.73 961.89,-774.67 962.83,-775.55 963.82,-776.4"/>
<polygon fill="#63b8ff" stroke="#63b8ff" points="961.87,-779.31 972.12,-782.01 965.8,-773.51 961.87,-779.31"/>
</a>
</g>
</g>
<!-- Node24 -->
<g id="Node000024" class="node">
<title>Node24</title>
<g id="a_Node000024"><a xlink:href="code__8008C1D0_8c.html#a4ea2da0616ee3c475e4be217dc0bc71f" target="_top" xlink:title=" ">
<polygon fill="white" stroke="#666666" points="1054,-764.23 961,-764.23 961,-745.23 1054,-745.23 1054,-764.23"/>
<text text-anchor="middle" x="1007.5" y="-752.23" font-family="Helvetica,sans-Serif" font-size="10.00">func_8008D97C</text>
</a>
</g>
</g>
<!-- Node17&#45;&gt;Node24 -->
<g id="edge24_Node000017_Node000024" class="edge">
<title>Node17&#45;&gt;Node24</title>
<g id="a_edge24_Node000017_Node000024"><a xlink:title=" ">
<path fill="none" stroke="#63b8ff" d="M881.11,-542.3C885.3,-574.3 903.03,-678.83 961,-736.73 961.95,-737.68 962.95,-738.57 964,-739.42"/>
<polygon fill="#63b8ff" stroke="#63b8ff" points="962.45,-742.59 972.74,-745.09 966.25,-736.72 962.45,-742.59"/>
</a>
</g>
</g>
<!-- Node25 -->
<g id="Node000025" class="node">
<title>Node25</title>
<g id="a_Node000025"><a xlink:href="code__8008C1D0_8c.html#a4a437d6caeeaa794bcce43ec60c097e9" target="_top" xlink:title=" ">
<polygon fill="white" stroke="#666666" points="1053,-727.23 962,-727.23 962,-708.23 1053,-708.23 1053,-727.23"/>
<text text-anchor="middle" x="1007.5" y="-715.23" font-family="Helvetica,sans-Serif" font-size="10.00">func_8008E884</text>
</a>
</g>
</g>
<!-- Node17&#45;&gt;Node25 -->
<g id="edge25_Node000017_Node000025" class="edge">
<title>Node17&#45;&gt;Node25</title>
<g id="a_edge25_Node000017_Node000025"><a xlink:title=" ">
<path fill="none" stroke="#63b8ff" d="M882.1,-542.51C888.67,-570.81 911.39,-653.71 961,-699.73 962.13,-700.78 963.33,-701.77 964.58,-702.7"/>
<polygon fill="#63b8ff" stroke="#63b8ff" points="963.07,-705.88 973.43,-708.1 966.71,-699.9 963.07,-705.88"/>
</a>
</g>
</g>
<!-- Node26 -->
<g id="Node000026" class="node">
<title>Node26</title>
<g id="a_Node000026"><a xlink:href="code__8008C1D0_8c.html#a4e2c6d0ba50b7c13695f74f1c2bc7b18" target="_top" xlink:title=" ">
<polygon fill="white" stroke="#666666" points="1053.5,-690.23 961.5,-690.23 961.5,-671.23 1053.5,-671.23 1053.5,-690.23"/>
<text text-anchor="middle" x="1007.5" y="-678.23" font-family="Helvetica,sans-Serif" font-size="10.00">func_8008EC34</text>
</a>
</g>
</g>
<!-- Node17&#45;&gt;Node26 -->
<g id="edge26_Node000017_Node000026" class="edge">
<title>Node17&#45;&gt;Node26</title>
<g id="a_edge26_Node000017_Node000026"><a xlink:title=" ">
<path fill="none" stroke="#63b8ff" d="M883.51,-542.34C892.64,-566.06 919.34,-627.98 961,-662.73 962.52,-664 964.13,-665.18 965.82,-666.29"/>
<polygon fill="#63b8ff" stroke="#63b8ff" points="964.24,-669.41 974.68,-671.2 967.63,-663.29 964.24,-669.41"/>
</a>
</g>
</g>
<!-- Node27 -->
<g id="Node000027" class="node">
<title>Node27</title>
<g id="a_Node000027"><a xlink:href="code__8008C1D0_8c.html#ae48f5d9507d1966754bc1aa1bddc4136" target="_top" xlink:title=" ">
<polygon fill="white" stroke="#666666" points="1053.5,-653.23 961.5,-653.23 961.5,-634.23 1053.5,-634.23 1053.5,-653.23"/>
<text text-anchor="middle" x="1007.5" y="-641.23" font-family="Helvetica,sans-Serif" font-size="10.00">func_8008EEC4</text>
</a>
</g>
</g>
<!-- Node17&#45;&gt;Node27 -->
<g id="edge27_Node000017_Node000027" class="edge">
<title>Node17&#45;&gt;Node27</title>
<g id="a_edge27_Node000017_Node000027"><a xlink:title=" ">
<path fill="none" stroke="#63b8ff" d="M885.98,-542.23C898.06,-560.71 927.08,-601.75 961,-625.73 962.86,-627.05 964.83,-628.28 966.86,-629.44"/>
<polygon fill="#63b8ff" stroke="#63b8ff" points="965.57,-632.71 976.08,-634.05 968.7,-626.45 965.57,-632.71"/>
</a>
</g>
</g>
<!-- Node28 -->
<g id="Node000028" class="node">
<title>Node28</title>
<g id="a_Node000028"><a xlink:href="code__8008C1D0_8c.html#a77e26f2cff6381f9ba1575f8da060571" target="_top" xlink:title=" ">
<polygon fill="white" stroke="#666666" points="1053,-616.23 962,-616.23 962,-597.23 1053,-597.23 1053,-616.23"/>
<text text-anchor="middle" x="1007.5" y="-604.23" font-family="Helvetica,sans-Serif" font-size="10.00">func_8008F0E8</text>
</a>
</g>
</g>
<!-- Node17&#45;&gt;Node28 -->
<g id="edge28_Node000017_Node000028" class="edge">
<title>Node17&#45;&gt;Node28</title>
<g id="a_edge28_Node000017_Node000028"><a xlink:title=" ">
<path fill="none" stroke="#63b8ff" d="M892.06,-542.38C907.42,-554.36 935.07,-574.87 961,-588.73 963.85,-590.25 966.85,-591.72 969.9,-593.11"/>
<polygon fill="#63b8ff" stroke="#63b8ff" points="968.52,-596.33 979.09,-597.06 971.29,-589.9 968.52,-596.33"/>
</a>
</g>
</g>
<!-- Node29 -->
<g id="Node000029" class="node">
<title>Node29</title>
<g id="a_Node000029"><a xlink:href="code__8008C1D0_8c.html#ae02351b6bbb678b552ec8864b47fc56c" target="_top" xlink:title=" ">
<polygon fill="white" stroke="#666666" points="1053,-579.23 962,-579.23 962,-560.23 1053,-560.23 1053,-579.23"/>
<text text-anchor="middle" x="1007.5" y="-567.23" font-family="Helvetica,sans-Serif" font-size="10.00">func_8008F3E0</text>
</a>
</g>
</g>
<!-- Node17&#45;&gt;Node29 -->
<g id="edge29_Node000017_Node000029" class="edge">
<title>Node17&#45;&gt;Node29</title>
<g id="a_edge29_Node000017_Node000029"><a xlink:title=" ">
<path fill="none" stroke="#63b8ff" d="M912.58,-542.26C928.1,-546.8 946.87,-552.29 963.53,-557.16"/>
<polygon fill="#63b8ff" stroke="#63b8ff" points="963.01,-560.66 973.59,-560.11 964.98,-553.94 963.01,-560.66"/>
</a>
</g>
</g>
<!-- Node30 -->
<g id="Node000030" class="node">
<title>Node30</title>
<g id="a_Node000030"><a xlink:href="code__8008C1D0_8c.html#afcf39ca15166fb7561402462930cd979" target="_top" xlink:title=" ">
<polygon fill="white" stroke="#666666" points="1053.5,-542.23 961.5,-542.23 961.5,-523.23 1053.5,-523.23 1053.5,-542.23"/>
<text text-anchor="middle" x="1007.5" y="-530.23" font-family="Helvetica,sans-Serif" font-size="10.00">func_8008F5A4</text>
</a>
</g>
</g>
<!-- Node17&#45;&gt;Node30 -->
<g id="edge30_Node000017_Node000030" class="edge">
<title>Node17&#45;&gt;Node30</title>
<g id="a_edge30_Node000017_Node000030"><a xlink:title=" ">
<path fill="none" stroke="#63b8ff" d="M925.31,-532.73C933.58,-532.73 942.29,-532.73 950.81,-532.73"/>
<polygon fill="#63b8ff" stroke="#63b8ff" points="951.08,-536.23 961.08,-532.73 951.08,-529.23 951.08,-536.23"/>
</a>
</g>
</g>
<!-- Node35 -->
<g id="Node000035" class="node">
<title>Node35</title>
<g id="a_Node000035"><a xlink:href="code__8008C1D0_8c.html#ab6d84742231847170dd64267f0519cdf" target="_top" xlink:title=" ">
<polygon fill="white" stroke="#666666" points="1054,-505.23 961,-505.23 961,-486.23 1054,-486.23 1054,-505.23"/>
<text text-anchor="middle" x="1007.5" y="-493.23" font-family="Helvetica,sans-Serif" font-size="10.00">func_8008FEDC</text>
</a>
</g>
</g>
<!-- Node17&#45;&gt;Node35 -->
<g id="edge35_Node000017_Node000035" class="edge">
<title>Node17&#45;&gt;Node35</title>
<g id="a_edge35_Node000017_Node000035"><a xlink:title=" ">
<path fill="none" stroke="#63b8ff" d="M912.58,-523.2C928.1,-518.66 946.87,-513.17 963.53,-508.3"/>
<polygon fill="#63b8ff" stroke="#63b8ff" points="964.98,-511.52 973.59,-505.35 963.01,-504.8 964.98,-511.52"/>
</a>
</g>
</g>
<!-- Node31 -->
<g id="Node000031" class="node">
<title>Node31</title>
<g id="a_Node000031"><a xlink:href="code__80057C60_8c.html#a0a55fae21abd30d3c618adef1a9f3ccd" target="_top" xlink:title=" ">
<polygon fill="white" stroke="#666666" points="1182,-431.23 1090,-431.23 1090,-412.23 1182,-412.23 1182,-431.23"/>
<text text-anchor="middle" x="1136" y="-419.23" font-family="Helvetica,sans-Serif" font-size="10.00">func_8006B8B4</text>
</a>
</g>
</g>
<!-- Node30&#45;&gt;Node31 -->
<g id="edge31_Node000030_Node000031" class="edge">
<title>Node30&#45;&gt;Node31</title>
<g id="a_edge31_Node000030_Node000031"><a xlink:title=" ">
<path fill="none" stroke="#63b8ff" d="M1038.92,-523.05C1044.18,-520.73 1049.42,-517.97 1054,-514.73 1083.41,-493.93 1109.15,-460.31 1123.34,-439.69"/>
<polygon fill="#63b8ff" stroke="#63b8ff" points="1126.35,-441.49 1129.02,-431.23 1120.54,-437.59 1126.35,-441.49"/>
</a>
</g>
</g>
<!-- Node32 -->
<g id="Node000032" class="node">
<title>Node32</title>
<g id="a_Node000032"><a xlink:href="code__8008C1D0_8c.html#a1c7552c4a370cc015c2726e40f1fdb06" target="_top" xlink:title=" ">
<polygon fill="white" stroke="#666666" points="1311,-431.23 1218,-431.23 1218,-412.23 1311,-412.23 1311,-431.23"/>
<text text-anchor="middle" x="1264.5" y="-419.23" font-family="Helvetica,sans-Serif" font-size="10.00">func_8008FD4C</text>
</a>
</g>
</g>
<!-- Node31&#45;&gt;Node32 -->
<g id="edge32_Node000031_Node000032" class="edge">
<title>Node31&#45;&gt;Node32</title>
<g id="a_edge32_Node000031_Node000032"><a xlink:title=" ">
<path fill="none" stroke="#63b8ff" d="M1182.31,-421.73C1190.48,-421.73 1199.08,-421.73 1207.5,-421.73"/>
<polygon fill="#63b8ff" stroke="#63b8ff" points="1207.65,-425.23 1217.65,-421.73 1207.65,-418.23 1207.65,-425.23"/>
</a>
</g>
</g>
<!-- Node31&#45;&gt;Node33 -->
<g id="edge33_Node000031_Node000033" class="edge">
<title>Node31&#45;&gt;Node33</title>
<g id="a_edge33_Node000031_Node000033"><a xlink:title=" ">
<path fill="none" stroke="#63b8ff" d="M1143.45,-412.2C1163.49,-382.57 1224.94,-291.73 1251.29,-252.78"/>
<polygon fill="#63b8ff" stroke="#63b8ff" points="1254.21,-254.71 1256.91,-244.47 1248.41,-250.79 1254.21,-254.71"/>
</a>
</g>
</g>
<!-- Node34 -->
<g id="Node000034" class="node">
<title>Node34</title>
<g id="a_Node000034"><a xlink:href="external_8c.html#a62e16f9600e7e9beda2c9d2df10f3561" target="_top" xlink:title=" ">
<polygon fill="white" stroke="#666666" points="1419,-263.23 1347,-263.23 1347,-244.23 1419,-244.23 1419,-263.23"/>
<text text-anchor="middle" x="1383" y="-251.23" font-family="Helvetica,sans-Serif" font-size="10.00">play_sound</text>
</a>
</g>
</g>
<!-- Node33&#45;&gt;Node34 -->
<g id="edge34_Node000033_Node000034" class="edge">
<title>Node33&#45;&gt;Node34</title>
<g id="a_edge34_Node000033_Node000034"><a xlink:title=" ">
<path fill="none" stroke="#63b8ff" d="M1310.54,-242.08C1319.19,-243.49 1328.26,-244.96 1336.91,-246.38"/>
<polygon fill="#63b8ff" stroke="#63b8ff" points="1336.4,-249.84 1346.83,-247.99 1337.53,-242.93 1336.4,-249.84"/>
</a>
</g>
</g>
<!-- Node36&#45;&gt;Node34 -->
<g id="edge37_Node000036_Node000034" class="edge">
<title>Node36&#45;&gt;Node34</title>
<g id="a_edge37_Node000036_Node000034"><a xlink:title=" ">
<path fill="none" stroke="#63b8ff" d="M925.43,-289.2C1020.93,-281.78 1241.49,-264.65 1336.79,-257.24"/>
<polygon fill="#63b8ff" stroke="#63b8ff" points="1337.27,-260.72 1346.97,-256.45 1336.72,-253.74 1337.27,-260.72"/>
</a>
</g>
</g>
<!-- Node37&#45;&gt;Node15 -->
<g id="edge40_Node000037_Node000015" class="edge">
<title>Node37&#45;&gt;Node15</title>
<g id="a_edge40_Node000037_Node000015"><a xlink:title=" ">
<path fill="none" stroke="#63b8ff" d="M494.53,-348.73C508.82,-348.73 524.8,-348.73 539.73,-348.73"/>
<polygon fill="#63b8ff" stroke="#63b8ff" points="539.86,-352.23 549.86,-348.73 539.86,-345.23 539.86,-352.23"/>
</a>
</g>
</g>
<!-- Node41 -->
<g id="Node000041" class="node">
<title>Node41</title>
<g id="a_Node000041"><a xlink:href="player__controller_8c.html#a1cff6ed661f8ea8c21c6edb0e307f773" target="_top" xlink:title=" ">
<polygon fill="white" stroke="#666666" points="1182,-113.23 1090,-113.23 1090,-94.23 1182,-94.23 1182,-113.23"/>
<text text-anchor="middle" x="1136" y="-101.23" font-family="Helvetica,sans-Serif" font-size="10.00">func_8002A8A4</text>
</a>
</g>
</g>
<!-- Node40&#45;&gt;Node41 -->
<g id="edge44_Node000040_Node000041" class="edge">
<title>Node40&#45;&gt;Node41</title>
<g id="a_edge44_Node000040_Node000041"><a xlink:title=" ">
<path fill="none" stroke="#63b8ff" d="M495.31,-151.94C501.84,-149.24 508.02,-145.61 513,-140.73 550.05,-104.44 508.64,-62.3 549,-29.73 614.18,22.88 652.74,-10.73 736.5,-10.73 736.5,-10.73 736.5,-10.73 880,-10.73 970,-10.73 1067.64,-62.49 1111.43,-88.78"/>
<polygon fill="#63b8ff" stroke="#63b8ff" points="1109.82,-91.9 1120.17,-94.13 1113.47,-85.93 1109.82,-91.9"/>
</a>
</g>
</g>
<!-- Node42 -->
<g id="Node000042" class="node">
<title>Node42</title>
<g id="a_Node000042"><a xlink:href="player__controller_8c.html#a2cb737102daaec9628aa4e567e01d7b0" target="_top" xlink:title=" ">
<polygon fill="white" stroke="#666666" points="642,-206.23 549,-206.23 549,-187.23 642,-187.23 642,-206.23"/>
<text text-anchor="middle" x="595.5" y="-194.23" font-family="Helvetica,sans-Serif" font-size="10.00">func_8002BD58</text>
</a>
</g>
</g>
<!-- Node40&#45;&gt;Node42 -->
<g id="edge46_Node000040_Node000042" class="edge">
<title>Node40&#45;&gt;Node42</title>
<g id="a_edge46_Node000040_Node000042"><a xlink:title=" ">
<path fill="none" stroke="#63b8ff" d="M487.21,-169.26C505.51,-173.94 527.77,-179.64 547.26,-184.63"/>
<polygon fill="#63b8ff" stroke="#63b8ff" points="546.61,-188.08 557.16,-187.17 548.34,-181.3 546.61,-188.08"/>
</a>
</g>
</g>
<!-- Node43 -->
<g id="Node000043" class="node">
<title>Node43</title>
<g id="a_Node000043"><a xlink:href="player__controller_8c.html#afa25198abd9181b19344fa368b06ffaa" target="_top" xlink:title=" ">
<polygon fill="white" stroke="#666666" points="641,-169.23 550,-169.23 550,-150.23 641,-150.23 641,-169.23"/>
<text text-anchor="middle" x="595.5" y="-157.23" font-family="Helvetica,sans-Serif" font-size="10.00">func_80033884</text>
</a>
</g>
</g>
<!-- Node40&#45;&gt;Node43 -->
<g id="edge47_Node000040_Node000043" class="edge">
<title>Node40&#45;&gt;Node43</title>
<g id="a_edge47_Node000040_Node000043"><a xlink:title=" ">
<path fill="none" stroke="#63b8ff" d="M495.32,-159.73C509.31,-159.73 524.87,-159.73 539.44,-159.73"/>
<polygon fill="#63b8ff" stroke="#63b8ff" points="539.83,-163.23 549.83,-159.73 539.83,-156.23 539.83,-163.23"/>
</a>
</g>
</g>
<!-- Node44 -->
<g id="Node000044" class="node">
<title>Node44</title>
<g id="a_Node000044"><a xlink:href="player__controller_8c.html#ab2c05a634e8227ce7a52e2b596b281b3" target="_top" xlink:title=" ">
<polygon fill="white" stroke="#666666" points="641.5,-132.23 549.5,-132.23 549.5,-113.23 641.5,-113.23 641.5,-132.23"/>
<text text-anchor="middle" x="595.5" y="-120.23" font-family="Helvetica,sans-Serif" font-size="10.00">func_80033A40</text>
</a>
</g>
</g>
<!-- Node40&#45;&gt;Node44 -->
<g id="edge48_Node000040_Node000044" class="edge">
<title>Node40&#45;&gt;Node44</title>
<g id="a_edge48_Node000040_Node000044"><a xlink:title=" ">
<path fill="none" stroke="#63b8ff" d="M487.21,-150.2C505.51,-145.52 527.77,-139.82 547.26,-134.83"/>
<polygon fill="#63b8ff" stroke="#63b8ff" points="548.34,-138.16 557.16,-132.29 546.61,-131.38 548.34,-138.16"/>
</a>
</g>
</g>
<!-- Node46 -->
<g id="Node000046" class="node">
<title>Node46</title>
<g id="a_Node000046"><a xlink:href="player__controller_8c.html#a1a5b5e02df20372c912e838a46bab65f" target="_top" xlink:title=" ">
<polygon fill="white" stroke="#666666" points="641.5,-95.23 549.5,-95.23 549.5,-76.23 641.5,-76.23 641.5,-95.23"/>
<text text-anchor="middle" x="595.5" y="-83.23" font-family="Helvetica,sans-Serif" font-size="10.00">func_80036CB4</text>
</a>
</g>
</g>
<!-- Node40&#45;&gt;Node46 -->
<g id="edge50_Node000040_Node000046" class="edge">
<title>Node40&#45;&gt;Node46</title>
<g id="a_edge50_Node000040_Node000046"><a xlink:title=" ">
<path fill="none" stroke="#63b8ff" d="M492.28,-150.22C499.47,-147.71 506.65,-144.59 513,-140.73 532.61,-128.82 529.91,-116.46 549,-103.73 551.1,-102.33 553.33,-101.01 555.63,-99.77"/>
<polygon fill="#63b8ff" stroke="#63b8ff" points="557.21,-102.9 564.7,-95.41 554.17,-96.59 557.21,-102.9"/>
</a>
</g>
</g>
<!-- Node47 -->
<g id="Node000047" class="node">
<title>Node47</title>
<g id="a_Node000047"><a xlink:href="player__controller_8c.html#a511b8da63f28e9b1f9cd7d2af7511601" target="_top" xlink:title=" ">
<polygon fill="white" stroke="#666666" points="641,-58.23 550,-58.23 550,-39.23 641,-39.23 641,-58.23"/>
<text text-anchor="middle" x="595.5" y="-46.23" font-family="Helvetica,sans-Serif" font-size="10.00">func_80038534</text>
</a>
</g>
</g>
<!-- Node40&#45;&gt;Node47 -->
<g id="edge51_Node000040_Node000047" class="edge">
<title>Node40&#45;&gt;Node47</title>
<g id="a_edge51_Node000040_Node000047"><a xlink:title=" ">
<path fill="none" stroke="#63b8ff" d="M495.06,-151.19C501.55,-148.58 507.78,-145.17 513,-140.73 540.84,-117.02 522.17,-91.59 549,-66.73 550.13,-65.68 551.33,-64.69 552.58,-63.76"/>
<polygon fill="#63b8ff" stroke="#63b8ff" points="554.71,-66.56 561.43,-58.37 551.07,-60.58 554.71,-66.56"/>
</a>
</g>
</g>
<!-- Node41&#45;&gt;Node33 -->
<g id="edge45_Node000041_Node000033" class="edge">
<title>Node41&#45;&gt;Node33</title>
<g id="a_edge45_Node000041_Node000033"><a xlink:title=" ">
<path fill="none" stroke="#63b8ff" d="M1146.51,-113.58C1167.95,-135.78 1220.28,-189.98 1247.09,-217.73"/>
<polygon fill="#63b8ff" stroke="#63b8ff" points="1244.76,-220.36 1254.23,-225.13 1249.8,-215.5 1244.76,-220.36"/>
</a>
</g>
</g>
<!-- Node45 -->
<g id="Node000045" class="node">
<title>Node45</title>
<g id="a_Node000045"><a xlink:href="player__controller_8c.html#a27292f58c6f927c906a1b4007cb7c8b9" target="_top" xlink:title=" ">
<polygon fill="white" stroke="#666666" points="783,-132.23 692,-132.23 692,-113.23 783,-113.23 783,-132.23"/>
<text text-anchor="middle" x="737.5" y="-120.23" font-family="Helvetica,sans-Serif" font-size="10.00">func_80033850</text>
</a>
</g>
</g>
<!-- Node44&#45;&gt;Node45 -->
<g id="edge49_Node000044_Node000045" class="edge">
<title>Node44&#45;&gt;Node45</title>
<g id="a_edge49_Node000044_Node000045"><a xlink:title=" ">
<path fill="none" stroke="#63b8ff" d="M641.57,-122.73C654.43,-122.73 668.59,-122.73 681.96,-122.73"/>
<polygon fill="#63b8ff" stroke="#63b8ff" points="682,-126.23 692,-122.73 682,-119.23 682,-126.23"/>
</a>
</g>
</g>
<!-- Node49&#45;&gt;Node4 -->
<g id="edge56_Node000049_Node000004" class="edge">
<title>Node49&#45;&gt;Node4</title>
<g id="a_edge56_Node000049_Node000004"><a xlink:title=" ">
<path fill="none" stroke="#63b8ff" d="M628.88,-321.38C633.59,-323.65 638.14,-326.4 642,-329.73 686.44,-368.01 714.98,-432.63 728.1,-467.91"/>
<polygon fill="#63b8ff" stroke="#63b8ff" points="724.85,-469.23 731.54,-477.45 731.44,-466.85 724.85,-469.23"/>
</a>
</g>
</g>
<!-- Node49&#45;&gt;Node16 -->
<g id="edge55_Node000049_Node000016" class="edge">
<title>Node49&#45;&gt;Node16</title>
<g id="a_edge55_Node000049_Node000016"><a xlink:title=" ">
<path fill="none" stroke="#63b8ff" d="M636.62,-317.17C650.67,-319.08 666.69,-321.26 681.73,-323.3"/>
<polygon fill="#63b8ff" stroke="#63b8ff" points="681.57,-326.81 691.95,-324.68 682.51,-319.87 681.57,-326.81"/>
</a>
</g>
</g>
</g>
</svg>
