<?xml version="1.0" encoding="UTF-8" standalone="no"?>
<!DOCTYPE svg PUBLIC "-//W3C//DTD SVG 1.1//EN"
 "http://www.w3.org/Graphics/SVG/1.1/DTD/svg11.dtd">
<!-- Generated by graphviz version 2.43.0 (0)
 -->
<!-- Title: func_800CBBE8 Pages: 1 -->
<svg width="1062pt" height="1029pt"
 viewBox="0.00 0.00 1062.00 1029.32" xmlns="http://www.w3.org/2000/svg" xmlns:xlink="http://www.w3.org/1999/xlink">
<g id="graph0" class="graph" transform="scale(1 1) rotate(0) translate(4 1025.32)">
<title>func_800CBBE8</title>
<!-- Node1 -->
<g id="Node000001" class="node">
<title>Node1</title>
<g id="a_Node000001"><a xlink:title=" ">
<polygon fill="#999999" stroke="#666666" points="1054,-851.32 961,-851.32 961,-832.32 1054,-832.32 1054,-851.32"/>
<text text-anchor="middle" x="1007.5" y="-839.32" font-family="Helvetica,sans-Serif" font-size="10.00">func_800CBBE8</text>
</a>
</g>
</g>
<!-- Node2 -->
<g id="Node000002" class="node">
<title>Node2</title>
<g id="a_Node000002"><a xlink:href="external_8c.html#ac5f404602d7b245deb29ed9291c1c1c2" target="_top" xlink:title=" ">
<polygon fill="white" stroke="#666666" points="924.5,-1021.32 831.5,-1021.32 831.5,-1002.32 924.5,-1002.32 924.5,-1021.32"/>
<text text-anchor="middle" x="878" y="-1009.32" font-family="Helvetica,sans-Serif" font-size="10.00">func_800C19D0</text>
</a>
</g>
</g>
<!-- Node1&#45;&gt;Node2 -->
<g id="edge1_Node000001_Node000002" class="edge">
<title>Node1&#45;&gt;Node2</title>
<g id="a_edge1_Node000001_Node000002"><a xlink:title=" ">
<path fill="none" stroke="#63b8ff" d="M999.92,-861C988.72,-891.28 963.36,-950.53 925,-987.82 918.93,-993.72 911.11,-998.53 903.65,-1002.24"/>
<polygon fill="#63b8ff" stroke="#63b8ff" points="1003.22,-862.18 1003.29,-851.58 996.63,-859.82 1003.22,-862.18"/>
</a>
</g>
</g>
<!-- Node3 -->
<g id="Node000003" class="node">
<title>Node3</title>
<g id="a_Node000003"><a xlink:href="external_8c.html#ade88f98a6c4693d844c22b6a0cc79007" target="_top" xlink:title=" ">
<polygon fill="white" stroke="#666666" points="374.5,-926.32 282.5,-926.32 282.5,-907.32 374.5,-907.32 374.5,-926.32"/>
<text text-anchor="middle" x="328.5" y="-914.32" font-family="Helvetica,sans-Serif" font-size="10.00">func_800C2274</text>
</a>
</g>
</g>
<!-- Node1&#45;&gt;Node3 -->
<g id="edge2_Node000001_Node000003" class="edge">
<title>Node1&#45;&gt;Node3</title>
<g id="a_edge2_Node000001_Node000003"><a xlink:title=" ">
<path fill="none" stroke="#63b8ff" d="M991.88,-859.06C976.71,-875.94 951.54,-901.32 925,-916.82 854,-958.28 831.22,-973.82 749,-973.82 749,-973.82 749,-973.82 616.5,-973.82 520.23,-973.82 409.23,-942.59 358.05,-926.36"/>
<polygon fill="#63b8ff" stroke="#63b8ff" points="994.51,-861.36 998.48,-851.53 989.25,-856.74 994.51,-861.36"/>
</a>
</g>
</g>
<!-- Node20 -->
<g id="Node000020" class="node">
<title>Node20</title>
<g id="a_Node000020"><a xlink:href="external_8c.html#a3d8334bd4e9a682bd18c614fd427004e" target="_top" xlink:title=" ">
<polygon fill="white" stroke="#666666" points="924,-907.32 832,-907.32 832,-888.32 924,-888.32 924,-907.32"/>
<text text-anchor="middle" x="878" y="-895.32" font-family="Helvetica,sans-Serif" font-size="10.00">func_800C5278</text>
</a>
</g>
</g>
<!-- Node1&#45;&gt;Node20 -->
<g id="edge7_Node000001_Node000020" class="edge">
<title>Node1&#45;&gt;Node20</title>
<g id="a_edge7_Node000001_Node000020"><a xlink:title=" ">
<path fill="none" stroke="#63b8ff" d="M975.19,-855.57C952.03,-865.74 921.09,-879.33 900.63,-888.32"/>
<polygon fill="#63b8ff" stroke="#63b8ff" points="976.83,-858.67 984.58,-851.45 974.02,-852.27 976.83,-858.67"/>
</a>
</g>
</g>
<!-- Node30 -->
<g id="Node000030" class="node">
<title>Node30</title>
<g id="a_Node000030"><a xlink:href="external_8c.html#a187d9f590686ca9c9b6590d7a5b2bafa" target="_top" xlink:title=" ">
<polygon fill="white" stroke="#666666" points="924,-851.32 832,-851.32 832,-832.32 924,-832.32 924,-851.32"/>
<text text-anchor="middle" x="878" y="-839.32" font-family="Helvetica,sans-Serif" font-size="10.00">func_800C5384</text>
</a>
</g>
</g>
<!-- Node1&#45;&gt;Node30 -->
<g id="edge13_Node000001_Node000030" class="edge">
<title>Node1&#45;&gt;Node30</title>
<g id="a_edge13_Node000001_Node000030"><a xlink:title=" ">
<path fill="none" stroke="#63b8ff" d="M950.65,-841.82C941.86,-841.82 932.87,-841.82 924.35,-841.82"/>
<polygon fill="#63b8ff" stroke="#63b8ff" points="950.83,-845.32 960.83,-841.82 950.83,-838.32 950.83,-845.32"/>
</a>
</g>
</g>
<!-- Node34 -->
<g id="Node000034" class="node">
<title>Node34</title>
<g id="a_Node000034"><a xlink:href="external_8c.html#a028d40421b90c38f68ebfd5acc626f2e" target="_top" xlink:title=" ">
<polygon fill="white" stroke="#666666" points="794,-776.32 702,-776.32 702,-757.32 794,-757.32 794,-776.32"/>
<text text-anchor="middle" x="748" y="-764.32" font-family="Helvetica,sans-Serif" font-size="10.00">func_800C5578</text>
</a>
</g>
</g>
<!-- Node1&#45;&gt;Node34 -->
<g id="edge19_Node000001_Node000034" class="edge">
<title>Node1&#45;&gt;Node34</title>
<g id="a_edge19_Node000001_Node000034"><a xlink:title=" ">
<path fill="none" stroke="#63b8ff" d="M963.86,-829.4C912.67,-814.49 827.97,-789.82 781.68,-776.34"/>
<polygon fill="#63b8ff" stroke="#63b8ff" points="963.05,-832.81 973.63,-832.25 965,-826.09 963.05,-832.81"/>
</a>
</g>
</g>
<!-- Node171 -->
<g id="Node000171" class="node">
<title>Node171</title>
<g id="a_Node000171"><a xlink:href="external_8c.html#a18c71fc634c319d176306b3ce04c2896" target="_top" xlink:title=" ">
<polygon fill="white" stroke="#666666" points="924,-739.32 832,-739.32 832,-720.32 924,-720.32 924,-739.32"/>
<text text-anchor="middle" x="878" y="-727.32" font-family="Helvetica,sans-Serif" font-size="10.00">func_800C56F0</text>
</a>
</g>
</g>
<!-- Node1&#45;&gt;Node171 -->
<g id="edge57_Node000001_Node000171" class="edge">
<title>Node1&#45;&gt;Node171</title>
<g id="a_edge57_Node000001_Node000171"><a xlink:title=" ">
<path fill="none" stroke="#63b8ff" d="M993.01,-823.93C977.96,-804.85 952.14,-774.55 925,-753.82 917.7,-748.24 908.91,-743.3 900.98,-739.37"/>
<polygon fill="#63b8ff" stroke="#63b8ff" points="990.42,-826.31 999.31,-832.08 995.96,-822.03 990.42,-826.31"/>
</a>
</g>
</g>
<!-- Node175 -->
<g id="Node000175" class="node">
<title>Node175</title>
<g id="a_Node000175"><a xlink:href="external_8c.html#a834adee4a232e80eb6f0bdb2756cd23b" target="_top" xlink:title=" ">
<polygon fill="white" stroke="#666666" points="925,-684.32 831,-684.32 831,-665.32 925,-665.32 925,-684.32"/>
<text text-anchor="middle" x="878" y="-672.32" font-family="Helvetica,sans-Serif" font-size="10.00">func_800C5BD0</text>
</a>
</g>
</g>
<!-- Node1&#45;&gt;Node175 -->
<g id="edge60_Node000001_Node000175" class="edge">
<title>Node1&#45;&gt;Node175</title>
<g id="a_edge60_Node000001_Node000175"><a xlink:title=" ">
<path fill="none" stroke="#63b8ff" d="M997.44,-823.34C983.94,-796.88 956.7,-747.48 925,-711.82 915.6,-701.25 902.97,-691.33 893.32,-684.42"/>
<polygon fill="#63b8ff" stroke="#63b8ff" points="994.31,-824.91 1001.92,-832.28 1000.57,-821.77 994.31,-824.91"/>
</a>
</g>
</g>
<!-- Node4 -->
<g id="Node000004" class="node">
<title>Node4</title>
<g id="a_Node000004"><a xlink:href="external_8c.html#a12c3e6c147828cc102e748904808ea4a" target="_top" xlink:title=" ">
<polygon fill="white" stroke="#666666" points="242,-869.32 149,-869.32 149,-850.32 242,-850.32 242,-869.32"/>
<text text-anchor="middle" x="195.5" y="-857.32" font-family="Helvetica,sans-Serif" font-size="10.00">func_800CB2C4</text>
</a>
</g>
</g>
<!-- Node3&#45;&gt;Node4 -->
<g id="edge3_Node000003_Node000004" class="edge">
<title>Node3&#45;&gt;Node4</title>
<g id="a_edge3_Node000003_Node000004"><a xlink:title=" ">
<path fill="none" stroke="#63b8ff" d="M296.2,-903.2C272.24,-892.78 239.78,-878.65 218.5,-869.39"/>
<polygon fill="#63b8ff" stroke="#63b8ff" points="295.01,-906.5 305.57,-907.28 297.8,-900.08 295.01,-906.5"/>
</a>
</g>
</g>
<!-- Node5 -->
<g id="Node000005" class="node">
<title>Node5</title>
<g id="a_Node000005"><a xlink:href="menus_8c.html#a7e237b5fa61d543f8aedfd821d4aa48b" target="_top" xlink:title=" ">
<polygon fill="#fff0f0" stroke="red" points="102.5,-906.32 10.5,-906.32 10.5,-887.32 102.5,-887.32 102.5,-906.32"/>
<text text-anchor="middle" x="56.5" y="-894.32" font-family="Helvetica,sans-Serif" font-size="10.00">func_800B3F74</text>
</a>
</g>
</g>
<!-- Node4&#45;&gt;Node5 -->
<g id="edge4_Node000004_Node000005" class="edge">
<title>Node4&#45;&gt;Node5</title>
<g id="a_edge4_Node000004_Node000005"><a xlink:title=" ">
<path fill="none" stroke="#63b8ff" d="M149.37,-872.01C131.1,-876.94 110.31,-882.56 93.14,-887.2"/>
<polygon fill="#63b8ff" stroke="#63b8ff" points="150.48,-875.34 159.22,-869.35 148.65,-868.58 150.48,-875.34"/>
</a>
</g>
</g>
<!-- Node19 -->
<g id="Node000019" class="node">
<title>Node19</title>
<g id="a_Node000019"><a xlink:href="code__800029B0_8c.html#aca6165112fc92e65ad6477e785a7098c" target="_top" xlink:title=" ">
<polygon fill="#fff0f0" stroke="red" points="91.5,-869.32 21.5,-869.32 21.5,-850.32 91.5,-850.32 91.5,-869.32"/>
<text text-anchor="middle" x="56.5" y="-857.32" font-family="Helvetica,sans-Serif" font-size="10.00">setup_race</text>
</a>
</g>
</g>
<!-- Node4&#45;&gt;Node19 -->
<g id="edge5_Node000004_Node000019" class="edge">
<title>Node4&#45;&gt;Node19</title>
<g id="a_edge5_Node000004_Node000019"><a xlink:title=" ">
<path fill="none" stroke="#63b8ff" d="M138.6,-859.82C122.69,-859.82 105.84,-859.82 91.65,-859.82"/>
<polygon fill="#63b8ff" stroke="#63b8ff" points="138.88,-863.32 148.88,-859.82 138.88,-856.32 138.88,-863.32"/>
</a>
</g>
</g>
<!-- Node10 -->
<g id="Node000010" class="node">
<title>Node10</title>
<g id="a_Node000010"><a xlink:href="main_8c.html#a633ed517e458daeb768f5361895dcac9" target="_top" xlink:title=" ">
<polygon fill="#fff0f0" stroke="red" points="113,-832.32 0,-832.32 0,-813.32 113,-813.32 113,-832.32"/>
<text text-anchor="middle" x="56.5" y="-820.32" font-family="Helvetica,sans-Serif" font-size="10.00">thread5_game_loop</text>
</a>
</g>
</g>
<!-- Node4&#45;&gt;Node10 -->
<g id="edge6_Node000004_Node000010" class="edge">
<title>Node4&#45;&gt;Node10</title>
<g id="a_edge6_Node000004_Node000010"><a xlink:title=" ">
<path fill="none" stroke="#63b8ff" d="M149.37,-847.63C131.1,-842.7 110.31,-837.09 93.14,-832.45"/>
<polygon fill="#63b8ff" stroke="#63b8ff" points="148.65,-851.06 159.22,-850.29 150.48,-844.31 148.65,-851.06"/>
</a>
</g>
</g>
<!-- Node21 -->
<g id="Node000021" class="node">
<title>Node21</title>
<g id="a_Node000021"><a xlink:href="external_8c.html#a9bc9f57fb83f73d37b56721df044d722" target="_top" xlink:title=" ">
<polygon fill="white" stroke="#666666" points="520.5,-907.32 428.5,-907.32 428.5,-888.32 520.5,-888.32 520.5,-907.32"/>
<text text-anchor="middle" x="474.5" y="-895.32" font-family="Helvetica,sans-Serif" font-size="10.00">func_800C76C0</text>
</a>
</g>
</g>
<!-- Node20&#45;&gt;Node21 -->
<g id="edge8_Node000020_Node000021" class="edge">
<title>Node20&#45;&gt;Node21</title>
<g id="a_edge8_Node000020_Node000021"><a xlink:title=" ">
<path fill="none" stroke="#63b8ff" d="M834.07,-909.71C821.58,-912.64 807.83,-915.35 795,-916.82 695.65,-928.18 669.51,-926.73 570,-916.82 551.35,-914.97 530.93,-911.1 513.86,-907.33"/>
<polygon fill="#63b8ff" stroke="#63b8ff" points="834.91,-913.1 843.79,-907.33 833.24,-906.31 834.91,-913.1"/>
</a>
</g>
</g>
<!-- Node23 -->
<g id="Node000023" class="node">
<title>Node23</title>
<g id="a_Node000023"><a xlink:href="external_8c.html#a518bea6c084cccd3443950737f53a97a" target="_top" xlink:title=" ">
<polygon fill="white" stroke="#666666" points="794,-907.32 702,-907.32 702,-888.32 794,-888.32 794,-907.32"/>
<text text-anchor="middle" x="748" y="-895.32" font-family="Helvetica,sans-Serif" font-size="10.00">func_800CA0E4</text>
</a>
</g>
</g>
<!-- Node20&#45;&gt;Node23 -->
<g id="edge11_Node000020_Node000023" class="edge">
<title>Node20&#45;&gt;Node23</title>
<g id="a_edge11_Node000020_Node000023"><a xlink:title=" ">
<path fill="none" stroke="#63b8ff" d="M821.65,-897.82C812.47,-897.82 803.04,-897.82 794.15,-897.82"/>
<polygon fill="#63b8ff" stroke="#63b8ff" points="821.87,-901.32 831.87,-897.82 821.87,-894.32 821.87,-901.32"/>
</a>
</g>
</g>
<!-- Node22 -->
<g id="Node000022" class="node">
<title>Node22</title>
<g id="a_Node000022"><a xlink:href="external_8c.html#aebe0a7e33d0961a0ad7e4ba40a49a032" target="_top" xlink:title=" ">
<polygon fill="white" stroke="#666666" points="375.5,-813.32 281.5,-813.32 281.5,-794.32 375.5,-794.32 375.5,-813.32"/>
<text text-anchor="middle" x="328.5" y="-801.32" font-family="Helvetica,sans-Serif" font-size="10.00">func_800C8CCC</text>
</a>
</g>
</g>
<!-- Node21&#45;&gt;Node22 -->
<g id="edge9_Node000021_Node000022" class="edge">
<title>Node21&#45;&gt;Node22</title>
<g id="a_edge9_Node000021_Node000022"><a xlink:title=" ">
<path fill="none" stroke="#63b8ff" d="M424.62,-884.56C421.3,-883.12 418.06,-881.54 415,-879.82 382.63,-861.61 351.93,-829.45 337.73,-813.44"/>
<polygon fill="#63b8ff" stroke="#63b8ff" points="423.55,-887.9 434.14,-888.26 426.09,-881.37 423.55,-887.9"/>
</a>
</g>
</g>
<!-- Node22&#45;&gt;Node4 -->
<g id="edge10_Node000022_Node000004" class="edge">
<title>Node22&#45;&gt;Node4</title>
<g id="a_edge10_Node000022_Node000004"><a xlink:title=" ">
<path fill="none" stroke="#63b8ff" d="M295.65,-817.44C271.82,-827.62 239.84,-841.29 218.73,-850.32"/>
<polygon fill="#63b8ff" stroke="#63b8ff" points="297.16,-820.6 304.98,-813.45 294.41,-814.16 297.16,-820.6"/>
</a>
</g>
</g>
<!-- Node24 -->
<g id="Node000024" class="node">
<title>Node24</title>
<g id="a_Node000024"><a xlink:href="external_8c.html#a6bb2826cc804a0c5050b58e528cea272" target="_top" xlink:title=" ">
<polygon fill="#fff0f0" stroke="red" points="663.5,-907.32 571.5,-907.32 571.5,-888.32 663.5,-888.32 663.5,-907.32"/>
<text text-anchor="middle" x="617.5" y="-895.32" font-family="Helvetica,sans-Serif" font-size="10.00">func_800CA118</text>
</a>
</g>
</g>
<!-- Node23&#45;&gt;Node24 -->
<g id="edge12_Node000023_Node000024" class="edge">
<title>Node23&#45;&gt;Node24</title>
<g id="a_edge12_Node000023_Node000024"><a xlink:title=" ">
<path fill="none" stroke="#63b8ff" d="M691.43,-897.82C682.22,-897.82 672.75,-897.82 663.83,-897.82"/>
<polygon fill="#63b8ff" stroke="#63b8ff" points="691.7,-901.32 701.7,-897.82 691.7,-894.32 691.7,-901.32"/>
</a>
</g>
</g>
<!-- Node31 -->
<g id="Node000031" class="node">
<title>Node31</title>
<g id="a_Node000031"><a xlink:href="external_8c.html#a8f95640fef6382013af69a10a1dad4f7" target="_top" xlink:title=" ">
<polygon fill="white" stroke="#666666" points="794,-870.32 702,-870.32 702,-851.32 794,-851.32 794,-870.32"/>
<text text-anchor="middle" x="748" y="-858.32" font-family="Helvetica,sans-Serif" font-size="10.00">func_800C54B8</text>
</a>
</g>
</g>
<!-- Node30&#45;&gt;Node31 -->
<g id="edge14_Node000030_Node000031" class="edge">
<title>Node30&#45;&gt;Node31</title>
<g id="a_edge14_Node000030_Node000031"><a xlink:title=" ">
<path fill="none" stroke="#63b8ff" d="M821.95,-849.99C812.67,-851.37 803.14,-852.79 794.15,-854.12"/>
<polygon fill="#63b8ff" stroke="#63b8ff" points="822.49,-853.45 831.87,-848.52 821.47,-846.53 822.49,-853.45"/>
</a>
</g>
</g>
<!-- Node32 -->
<g id="Node000032" class="node">
<title>Node32</title>
<g id="a_Node000032"><a xlink:href="external_8c.html#ac670a5c7b8fa5490ab1ee563ffffcd9c" target="_top" xlink:title=" ">
<polygon fill="white" stroke="#666666" points="794,-833.32 702,-833.32 702,-814.32 794,-814.32 794,-833.32"/>
<text text-anchor="middle" x="748" y="-821.32" font-family="Helvetica,sans-Serif" font-size="10.00">func_800C550C</text>
</a>
</g>
</g>
<!-- Node30&#45;&gt;Node32 -->
<g id="edge15_Node000030_Node000032" class="edge">
<title>Node30&#45;&gt;Node32</title>
<g id="a_edge15_Node000030_Node000032"><a xlink:title=" ">
<path fill="none" stroke="#63b8ff" d="M821.95,-834.08C812.67,-832.78 803.14,-831.43 794.15,-830.17"/>
<polygon fill="#63b8ff" stroke="#63b8ff" points="821.48,-837.55 831.87,-835.48 822.46,-830.62 821.48,-837.55"/>
</a>
</g>
</g>
<!-- Node33 -->
<g id="Node000033" class="node">
<title>Node33</title>
<g id="a_Node000033"><a xlink:href="external_8c.html#a1041b412a7bdcec3c697ed68bec652d6" target="_top" xlink:title=" ">
<polygon fill="white" stroke="#666666" points="664.5,-870.32 570.5,-870.32 570.5,-851.32 664.5,-851.32 664.5,-870.32"/>
<text text-anchor="middle" x="617.5" y="-858.32" font-family="Helvetica,sans-Serif" font-size="10.00">func_800C9D0C</text>
</a>
</g>
</g>
<!-- Node32&#45;&gt;Node33 -->
<g id="edge16_Node000032_Node000033" class="edge">
<title>Node32&#45;&gt;Node33</title>
<g id="a_edge16_Node000032_Node000033"><a xlink:title=" ">
<path fill="none" stroke="#63b8ff" d="M704.19,-836.15C687.17,-841.05 667.89,-846.6 651.93,-851.2"/>
<polygon fill="#63b8ff" stroke="#63b8ff" points="705.27,-839.48 713.91,-833.35 703.33,-832.75 705.27,-839.48"/>
</a>
</g>
</g>
<!-- Node33&#45;&gt;Node21 -->
<g id="edge18_Node000033_Node000021" class="edge">
<title>Node33&#45;&gt;Node21</title>
<g id="a_edge18_Node000033_Node000021"><a xlink:title=" ">
<path fill="none" stroke="#63b8ff" d="M570.31,-872.94C551.45,-877.89 529.94,-883.54 512.18,-888.2"/>
<polygon fill="#63b8ff" stroke="#63b8ff" points="571.4,-876.27 580.19,-870.35 569.63,-869.5 571.4,-876.27"/>
</a>
</g>
</g>
<!-- Node7 -->
<g id="Node000007" class="node">
<title>Node7</title>
<g id="a_Node000007"><a xlink:href="code__80091750_8c.html#a4c171632ff32db3cbe13719e6478d536" target="_top" xlink:title=" ">
<polygon fill="#fff0f0" stroke="red" points="520.5,-870.32 428.5,-870.32 428.5,-851.32 520.5,-851.32 520.5,-870.32"/>
<text text-anchor="middle" x="474.5" y="-858.32" font-family="Helvetica,sans-Serif" font-size="10.00">func_80091B78</text>
</a>
</g>
</g>
<!-- Node33&#45;&gt;Node7 -->
<g id="edge17_Node000033_Node000007" class="edge">
<title>Node33&#45;&gt;Node7</title>
<g id="a_edge17_Node000033_Node000007"><a xlink:title=" ">
<path fill="none" stroke="#63b8ff" d="M560.05,-860.82C547.01,-860.82 533.3,-860.82 520.81,-860.82"/>
<polygon fill="#63b8ff" stroke="#63b8ff" points="560.33,-864.32 570.33,-860.82 560.33,-857.32 560.33,-864.32"/>
</a>
</g>
</g>
<!-- Node34&#45;&gt;Node21 -->
<g id="edge22_Node000034_Node000021" class="edge">
<title>Node34&#45;&gt;Node21</title>
<g id="a_edge22_Node000034_Node000021"><a xlink:title=" ">
<path fill="none" stroke="#63b8ff" d="M717.08,-780.62C701.59,-787.68 682.34,-796.35 665,-803.82 623.08,-821.88 607.82,-817.26 570,-842.82 550.99,-855.67 553.57,-867.85 534,-879.82 528.47,-883.2 522.25,-886 515.99,-888.29"/>
<polygon fill="#63b8ff" stroke="#63b8ff" points="718.56,-783.79 726.19,-776.45 715.64,-777.43 718.56,-783.79"/>
</a>
</g>
</g>
<!-- Node35 -->
<g id="Node000035" class="node">
<title>Node35</title>
<g id="a_Node000035"><a xlink:href="external_8c.html#a629cbbd815e11fee9d438b90bf49b2a7" target="_top" xlink:title=" ">
<polygon fill="white" stroke="#666666" points="663.5,-794.32 571.5,-794.32 571.5,-775.32 663.5,-775.32 663.5,-794.32"/>
<text text-anchor="middle" x="617.5" y="-782.32" font-family="Helvetica,sans-Serif" font-size="10.00">func_800C683C</text>
</a>
</g>
</g>
<!-- Node34&#45;&gt;Node35 -->
<g id="edge20_Node000034_Node000035" class="edge">
<title>Node34&#45;&gt;Node35</title>
<g id="a_edge20_Node000034_Node000035"><a xlink:title=" ">
<path fill="none" stroke="#63b8ff" d="M691.73,-774.56C682.42,-775.87 672.85,-777.21 663.83,-778.47"/>
<polygon fill="#63b8ff" stroke="#63b8ff" points="692.28,-778.02 701.7,-773.17 691.31,-771.09 692.28,-778.02"/>
</a>
</g>
</g>
<!-- Node36 -->
<g id="Node000036" class="node">
<title>Node36</title>
<g id="a_Node000036"><a xlink:href="external_8c.html#ad377fc55133176f069744a4bcb5e0364" target="_top" xlink:title=" ">
<polygon fill="white" stroke="#666666" points="663.5,-609.32 571.5,-609.32 571.5,-590.32 663.5,-590.32 663.5,-609.32"/>
<text text-anchor="middle" x="617.5" y="-597.32" font-family="Helvetica,sans-Serif" font-size="10.00">func_800C9018</text>
</a>
</g>
</g>
<!-- Node34&#45;&gt;Node36 -->
<g id="edge23_Node000034_Node000036" class="edge">
<title>Node34&#45;&gt;Node36</title>
<g id="a_edge23_Node000034_Node000036"><a xlink:title=" ">
<path fill="none" stroke="#63b8ff" d="M705.22,-752.11C703.75,-751.08 702.33,-749.99 701,-748.82 654.95,-708.51 629.43,-635.97 621.35,-609.68"/>
<polygon fill="#63b8ff" stroke="#63b8ff" points="703.79,-755.32 714.2,-757.28 707.29,-749.26 703.79,-755.32"/>
</a>
</g>
</g>
<!-- Node92 -->
<g id="Node000092" class="node">
<title>Node92</title>
<g id="a_Node000092"><a xlink:href="external_8c.html#ae8a5e8ffbb625059aac9be15d4b2d310" target="_top" xlink:title=" ">
<polygon fill="white" stroke="#666666" points="663.5,-757.32 571.5,-757.32 571.5,-738.32 663.5,-738.32 663.5,-757.32"/>
<text text-anchor="middle" x="617.5" y="-745.32" font-family="Helvetica,sans-Serif" font-size="10.00">func_800C97C4</text>
</a>
</g>
</g>
<!-- Node34&#45;&gt;Node92 -->
<g id="edge39_Node000034_Node000092" class="edge">
<title>Node34&#45;&gt;Node92</title>
<g id="a_edge39_Node000034_Node000092"><a xlink:title=" ">
<path fill="none" stroke="#63b8ff" d="M691.73,-758.65C682.42,-757.27 672.85,-755.86 663.83,-754.52"/>
<polygon fill="#63b8ff" stroke="#63b8ff" points="691.29,-762.12 701.7,-760.12 692.32,-755.2 691.29,-762.12"/>
</a>
</g>
</g>
<!-- Node94 -->
<g id="Node000094" class="node">
<title>Node94</title>
<g id="a_Node000094"><a xlink:href="external_8c.html#ae72057869772019e4464c87d4e16c682" target="_top" xlink:title=" ">
<polygon fill="white" stroke="#666666" points="663.5,-316.32 571.5,-316.32 571.5,-297.32 663.5,-297.32 663.5,-316.32"/>
<text text-anchor="middle" x="617.5" y="-304.32" font-family="Helvetica,sans-Serif" font-size="10.00">func_800C99E0</text>
</a>
</g>
</g>
<!-- Node34&#45;&gt;Node94 -->
<g id="edge45_Node000034_Node000094" class="edge">
<title>Node34&#45;&gt;Node94</title>
<g id="a_edge45_Node000034_Node000094"><a xlink:title=" ">
<path fill="none" stroke="#63b8ff" d="M703.26,-751.28C702.47,-750.5 701.71,-749.68 701,-748.82 693.75,-740.06 631.36,-381.1 620.2,-316.67"/>
<polygon fill="#63b8ff" stroke="#63b8ff" points="701.23,-754.13 711.34,-757.29 705.41,-748.51 701.23,-754.13"/>
</a>
</g>
</g>
<!-- Node149 -->
<g id="Node000149" class="node">
<title>Node149</title>
<g id="a_Node000149"><a xlink:href="external_8c.html#a73831bcbe259500206651a0b4702be9f" target="_top" xlink:title=" ">
<polygon fill="white" stroke="#666666" points="663.5,-156.32 571.5,-156.32 571.5,-137.32 663.5,-137.32 663.5,-156.32"/>
<text text-anchor="middle" x="617.5" y="-144.32" font-family="Helvetica,sans-Serif" font-size="10.00">func_800C9EF4</text>
</a>
</g>
</g>
<!-- Node34&#45;&gt;Node149 -->
<g id="edge48_Node000034_Node000149" class="edge">
<title>Node34&#45;&gt;Node149</title>
<g id="a_edge48_Node000034_Node000149"><a xlink:title=" ">
<path fill="none" stroke="#63b8ff" d="M702.78,-750.99C702.15,-750.3 701.56,-749.58 701,-748.82 639.81,-666.27 685.24,-388.57 665,-287.82 654.8,-237.03 631.95,-179.07 622.6,-156.52"/>
<polygon fill="#63b8ff" stroke="#63b8ff" points="700.57,-753.71 710.54,-757.31 704.99,-748.28 700.57,-753.71"/>
</a>
</g>
</g>
<!-- Node170 -->
<g id="Node000170" class="node">
<title>Node170</title>
<g id="a_Node000170"><a xlink:href="external_8c.html#a3138069310bbed5109964d607d51811f" target="_top" xlink:title=" ">
<polygon fill="#fff0f0" stroke="red" points="665,-63.32 570,-63.32 570,-44.32 665,-44.32 665,-63.32"/>
<text text-anchor="middle" x="617.5" y="-51.32" font-family="Helvetica,sans-Serif" font-size="10.00">func_800CAACC</text>
</a>
</g>
</g>
<!-- Node34&#45;&gt;Node170 -->
<g id="edge55_Node000034_Node000170" class="edge">
<title>Node34&#45;&gt;Node170</title>
<g id="a_edge55_Node000034_Node000170"><a xlink:title=" ">
<path fill="none" stroke="#63b8ff" d="M702.18,-750.34C701.77,-749.85 701.38,-749.34 701,-748.82 660.4,-692.89 686.05,-193.65 665,-127.82 656.87,-102.39 637.94,-76.95 626.9,-63.53"/>
<polygon fill="#63b8ff" stroke="#63b8ff" points="700.17,-753.22 710.03,-757.08 704.73,-747.91 700.17,-753.22"/>
</a>
</g>
</g>
<!-- Node35&#45;&gt;Node22 -->
<g id="edge21_Node000035_Node000022" class="edge">
<title>Node35&#45;&gt;Node22</title>
<g id="a_edge21_Node000035_Node000022"><a xlink:title=" ">
<path fill="none" stroke="#63b8ff" d="M573.31,-796.71C560.73,-799.64 546.91,-802.35 534,-803.82 479.85,-809.98 417.11,-808.75 375.56,-806.78"/>
<polygon fill="#63b8ff" stroke="#63b8ff" points="574.19,-800.09 583.08,-794.33 572.54,-793.29 574.19,-800.09"/>
</a>
</g>
</g>
<!-- Node36&#45;&gt;Node21 -->
<g id="edge30_Node000036_Node000021" class="edge">
<title>Node36&#45;&gt;Node21</title>
<g id="a_edge30_Node000036_Node000021"><a xlink:title=" ">
<path fill="none" stroke="#63b8ff" d="M608.93,-618.93C599.13,-644.09 581.92,-689.82 570,-729.82 550.43,-795.53 580.93,-829.84 534,-879.82 530.22,-883.85 525.56,-886.98 520.53,-889.42"/>
<polygon fill="#63b8ff" stroke="#63b8ff" points="612.24,-620.07 612.64,-609.49 605.73,-617.52 612.24,-620.07"/>
</a>
</g>
</g>
<!-- Node37 -->
<g id="Node000037" class="node">
<title>Node37</title>
<g id="a_Node000037"><a xlink:href="player__controller_8c.html#a1796f758711d87699791687c8c8ea84f" target="_top" xlink:title=" ">
<polygon fill="#fff0f0" stroke="red" points="521,-720.32 428,-720.32 428,-701.32 521,-701.32 521,-720.32"/>
<text text-anchor="middle" x="474.5" y="-708.32" font-family="Helvetica,sans-Serif" font-size="10.00">func_80027EDC</text>
</a>
</g>
</g>
<!-- Node36&#45;&gt;Node37 -->
<g id="edge24_Node000036_Node000037" class="edge">
<title>Node36&#45;&gt;Node37</title>
<g id="a_edge24_Node000036_Node000037"><a xlink:title=" ">
<path fill="none" stroke="#63b8ff" d="M605.02,-617.91C590.8,-638.88 564.67,-673.08 534,-692.82 528.73,-696.21 522.78,-699 516.74,-701.28"/>
<polygon fill="#63b8ff" stroke="#63b8ff" points="607.94,-619.83 610.52,-609.56 602.1,-615.98 607.94,-619.83"/>
</a>
</g>
</g>
<!-- Node50 -->
<g id="Node000050" class="node">
<title>Node50</title>
<g id="a_Node000050"><a xlink:href="update__objects_8c.html#a494d2eda5e833a373c2f02eae59d972c" target="_top" xlink:title=" ">
<polygon fill="#fff0f0" stroke="red" points="520,-683.32 429,-683.32 429,-664.32 520,-664.32 520,-683.32"/>
<text text-anchor="middle" x="474.5" y="-671.32" font-family="Helvetica,sans-Serif" font-size="10.00">func_800791F0</text>
</a>
</g>
</g>
<!-- Node36&#45;&gt;Node50 -->
<g id="edge25_Node000036_Node000050" class="edge">
<title>Node36&#45;&gt;Node50</title>
<g id="a_edge25_Node000036_Node000050"><a xlink:title=" ">
<path fill="none" stroke="#63b8ff" d="M596.41,-615.5C580.26,-627.53 556.61,-643.87 534,-654.82 526.5,-658.45 518.14,-661.63 510.14,-664.3"/>
<polygon fill="#63b8ff" stroke="#63b8ff" points="598.7,-618.15 604.56,-609.32 594.48,-612.58 598.7,-618.15"/>
</a>
</g>
</g>
<!-- Node67 -->
<g id="Node000067" class="node">
<title>Node67</title>
<g id="a_Node000067"><a xlink:href="update__objects_8c.html#a5b10e163d17f78f43ec59de3a5c401a0" target="_top" xlink:title=" ">
<polygon fill="#fff0f0" stroke="red" points="520.5,-646.32 428.5,-646.32 428.5,-627.32 520.5,-627.32 520.5,-646.32"/>
<text text-anchor="middle" x="474.5" y="-634.32" font-family="Helvetica,sans-Serif" font-size="10.00">func_8007B34C</text>
</a>
</g>
</g>
<!-- Node36&#45;&gt;Node67 -->
<g id="edge26_Node000036_Node000067" class="edge">
<title>Node36&#45;&gt;Node67</title>
<g id="a_edge26_Node000036_Node000067"><a xlink:title=" ">
<path fill="none" stroke="#63b8ff" d="M570.31,-611.94C551.45,-616.89 529.94,-622.54 512.18,-627.2"/>
<polygon fill="#63b8ff" stroke="#63b8ff" points="571.4,-615.27 580.19,-609.35 569.63,-608.5 571.4,-615.27"/>
</a>
</g>
</g>
<!-- Node69 -->
<g id="Node000069" class="node">
<title>Node69</title>
<g id="a_Node000069"><a xlink:href="effects_8c.html#ad34129e6236b319a5bcedae86d59bc2c" target="_top" xlink:title=" ">
<polygon fill="#fff0f0" stroke="red" points="520,-609.32 429,-609.32 429,-590.32 520,-590.32 520,-609.32"/>
<text text-anchor="middle" x="474.5" y="-597.32" font-family="Helvetica,sans-Serif" font-size="10.00">func_80090970</text>
</a>
</g>
</g>
<!-- Node36&#45;&gt;Node69 -->
<g id="edge27_Node000036_Node000069" class="edge">
<title>Node36&#45;&gt;Node69</title>
<g id="a_edge27_Node000036_Node000069"><a xlink:title=" ">
<path fill="none" stroke="#63b8ff" d="M561.25,-599.82C547.6,-599.82 533.15,-599.82 520.07,-599.82"/>
<polygon fill="#63b8ff" stroke="#63b8ff" points="561.5,-603.32 571.5,-599.82 561.5,-596.32 561.5,-603.32"/>
</a>
</g>
</g>
<!-- Node74 -->
<g id="Node000074" class="node">
<title>Node74</title>
<g id="a_Node000074"><a xlink:href="external_8c.html#a6adc8dfd43ac90ecb9cbe18c1e56d762" target="_top" xlink:title=" ">
<polygon fill="white" stroke="#666666" points="520.5,-572.32 428.5,-572.32 428.5,-553.32 520.5,-553.32 520.5,-572.32"/>
<text text-anchor="middle" x="474.5" y="-560.32" font-family="Helvetica,sans-Serif" font-size="10.00">func_800C5E38</text>
</a>
</g>
</g>
<!-- Node36&#45;&gt;Node74 -->
<g id="edge28_Node000036_Node000074" class="edge">
<title>Node36&#45;&gt;Node74</title>
<g id="a_edge28_Node000036_Node000074"><a xlink:title=" ">
<path fill="none" stroke="#63b8ff" d="M570.31,-587.7C551.45,-582.75 529.94,-577.11 512.18,-572.45"/>
<polygon fill="#63b8ff" stroke="#63b8ff" points="569.63,-591.14 580.19,-590.29 571.4,-584.37 569.63,-591.14"/>
</a>
</g>
</g>
<!-- Node75 -->
<g id="Node000075" class="node">
<title>Node75</title>
<g id="a_Node000075"><a xlink:href="external_8c.html#ab95692e47151e93fb7d149534da6a180" target="_top" xlink:title=" ">
<polygon fill="white" stroke="#666666" points="520.5,-757.32 428.5,-757.32 428.5,-738.32 520.5,-738.32 520.5,-757.32"/>
<text text-anchor="middle" x="474.5" y="-745.32" font-family="Helvetica,sans-Serif" font-size="10.00">func_800C847C</text>
</a>
</g>
</g>
<!-- Node36&#45;&gt;Node75 -->
<g id="edge31_Node000036_Node000075" class="edge">
<title>Node36&#45;&gt;Node75</title>
<g id="a_edge31_Node000036_Node000075"><a xlink:title=" ">
<path fill="none" stroke="#63b8ff" d="M609.29,-619.25C597.75,-647.7 572.44,-700.49 534,-729.82 529.52,-733.24 524.39,-736.01 519.07,-738.26"/>
<polygon fill="#63b8ff" stroke="#63b8ff" points="612.66,-620.23 613.04,-609.64 606.14,-617.68 612.66,-620.23"/>
</a>
</g>
</g>
<!-- Node76 -->
<g id="Node000076" class="node">
<title>Node76</title>
<g id="a_Node000076"><a xlink:href="external_8c.html#ac32b332e8b9a73af543741393186060d" target="_top" xlink:title=" ">
<polygon fill="#fff0f0" stroke="red" points="520.5,-535.32 428.5,-535.32 428.5,-516.32 520.5,-516.32 520.5,-535.32"/>
<text text-anchor="middle" x="474.5" y="-523.32" font-family="Helvetica,sans-Serif" font-size="10.00">func_800CA730</text>
</a>
</g>
</g>
<!-- Node36&#45;&gt;Node76 -->
<g id="edge33_Node000036_Node000076" class="edge">
<title>Node36&#45;&gt;Node76</title>
<g id="a_edge33_Node000036_Node000076"><a xlink:title=" ">
<path fill="none" stroke="#63b8ff" d="M596.78,-583.95C580.68,-571.62 556.91,-554.82 534,-543.82 527.2,-540.56 519.67,-537.72 512.34,-535.32"/>
<polygon fill="#63b8ff" stroke="#63b8ff" points="594.85,-586.88 604.89,-590.28 599.16,-581.36 594.85,-586.88"/>
</a>
</g>
</g>
<!-- Node89 -->
<g id="Node000089" class="node">
<title>Node89</title>
<g id="a_Node000089"><a xlink:href="external_8c.html#aa00f6fbb1195ee18da20e61bd6ef5d97" target="_top" xlink:title=" ">
<polygon fill="#fff0f0" stroke="red" points="520.5,-498.32 428.5,-498.32 428.5,-479.32 520.5,-479.32 520.5,-498.32"/>
<text text-anchor="middle" x="474.5" y="-486.32" font-family="Helvetica,sans-Serif" font-size="10.00">func_800CB064</text>
</a>
</g>
</g>
<!-- Node36&#45;&gt;Node89 -->
<g id="edge35_Node000036_Node000089" class="edge">
<title>Node36&#45;&gt;Node89</title>
<g id="a_edge35_Node000036_Node000089"><a xlink:title=" ">
<path fill="none" stroke="#63b8ff" d="M605.02,-581.74C590.8,-560.77 564.67,-526.56 534,-506.82 528.73,-503.43 522.78,-500.64 516.74,-498.37"/>
<polygon fill="#63b8ff" stroke="#63b8ff" points="602.1,-583.66 610.52,-590.09 607.94,-579.81 602.1,-583.66"/>
</a>
</g>
</g>
<!-- Node65 -->
<g id="Node000065" class="node">
<title>Node65</title>
<g id="a_Node000065"><a xlink:href="update__objects_8c.html#a5a5fc982b29c525f677dd566bfca038e" target="_top" xlink:title=" ">
<polygon fill="#fff0f0" stroke="red" points="534,-460.82 415,-460.82 415,-430.82 534,-430.82 534,-460.82"/>
<text text-anchor="start" x="423" y="-448.82" font-family="Helvetica,sans-Serif" font-size="10.00">update_object_lakitu</text>
<text text-anchor="middle" x="474.5" y="-437.82" font-family="Helvetica,sans-Serif" font-size="10.00">_fishing</text>
</a>
</g>
</g>
<!-- Node36&#45;&gt;Node65 -->
<g id="edge36_Node000036_Node000065" class="edge">
<title>Node36&#45;&gt;Node65</title>
<g id="a_edge36_Node000036_Node000065"><a xlink:title=" ">
<path fill="none" stroke="#63b8ff" d="M608.93,-580.84C596.94,-552.95 571.07,-500.87 534,-469.82 529.96,-466.44 525.38,-463.48 520.6,-460.91"/>
<polygon fill="#63b8ff" stroke="#63b8ff" points="605.77,-582.35 612.85,-590.24 612.24,-579.67 605.77,-582.35"/>
</a>
</g>
</g>
<!-- Node66 -->
<g id="Node000066" class="node">
<title>Node66</title>
<g id="a_Node000066"><a xlink:href="update__objects_8c.html#a262b63dd3d6008cb2452a627c310c4a7" target="_top" xlink:title=" ">
<polygon fill="#fff0f0" stroke="red" points="534,-412.82 415,-412.82 415,-382.82 534,-382.82 534,-412.82"/>
<text text-anchor="start" x="423" y="-400.82" font-family="Helvetica,sans-Serif" font-size="10.00">update_object_lakitu</text>
<text text-anchor="middle" x="474.5" y="-389.82" font-family="Helvetica,sans-Serif" font-size="10.00">_fishing2</text>
</a>
</g>
</g>
<!-- Node36&#45;&gt;Node66 -->
<g id="edge37_Node000036_Node000066" class="edge">
<title>Node36&#45;&gt;Node66</title>
<g id="a_edge37_Node000036_Node000066"><a xlink:title=" ">
<path fill="none" stroke="#63b8ff" d="M612.38,-580.09C603.87,-543.98 581.09,-466.85 534,-421.82 530.43,-418.41 526.31,-415.45 521.94,-412.9"/>
<polygon fill="#63b8ff" stroke="#63b8ff" points="609.06,-581.28 614.65,-590.28 615.89,-579.75 609.06,-581.28"/>
</a>
</g>
</g>
<!-- Node61 -->
<g id="Node000061" class="node">
<title>Node61</title>
<g id="a_Node000061"><a xlink:href="update__objects_8c.html#ad11800c1ce772be2b43f56f32ce498f8" target="_top" xlink:title=" ">
<polygon fill="#fff0f0" stroke="red" points="534,-364.82 415,-364.82 415,-334.82 534,-334.82 534,-364.82"/>
<text text-anchor="start" x="423" y="-352.82" font-family="Helvetica,sans-Serif" font-size="10.00">update_object_lakitu</text>
<text text-anchor="middle" x="474.5" y="-341.82" font-family="Helvetica,sans-Serif" font-size="10.00">_reverse</text>
</a>
</g>
</g>
<!-- Node36&#45;&gt;Node61 -->
<g id="edge38_Node000036_Node000061" class="edge">
<title>Node36&#45;&gt;Node61</title>
<g id="a_edge38_Node000036_Node000061"><a xlink:title=" ">
<path fill="none" stroke="#63b8ff" d="M614.63,-580.24C609.54,-537.27 591.67,-433.8 534,-373.82 530.73,-370.42 526.91,-367.48 522.81,-364.95"/>
<polygon fill="#63b8ff" stroke="#63b8ff" points="611.16,-580.67 615.71,-590.23 618.12,-579.92 611.16,-580.67"/>
</a>
</g>
</g>
<!-- Node74&#45;&gt;Node22 -->
<g id="edge29_Node000074_Node000022" class="edge">
<title>Node74&#45;&gt;Node22</title>
<g id="a_edge29_Node000074_Node000022"><a xlink:title=" ">
<path fill="none" stroke="#63b8ff" d="M419.65,-577.04C418.01,-578.2 416.46,-579.46 415,-580.82 349.26,-642.26 333.54,-759.77 330.27,-794.15"/>
<polygon fill="#63b8ff" stroke="#63b8ff" points="421.47,-580.03 428.36,-571.98 417.96,-573.97 421.47,-580.03"/>
</a>
</g>
</g>
<!-- Node75&#45;&gt;Node22 -->
<g id="edge32_Node000075_Node000022" class="edge">
<title>Node75&#45;&gt;Node22</title>
<g id="a_edge32_Node000075_Node000022"><a xlink:title=" ">
<path fill="none" stroke="#63b8ff" d="M432.53,-760.58C426.62,-762.58 420.63,-764.69 415,-766.82 392.46,-775.34 367.19,-786.48 350.01,-794.3"/>
<polygon fill="#63b8ff" stroke="#63b8ff" points="433.95,-763.8 442.34,-757.34 431.75,-757.16 433.95,-763.8"/>
</a>
</g>
</g>
<!-- Node77 -->
<g id="Node000077" class="node">
<title>Node77</title>
<g id="a_Node000077"><a xlink:href="effects_8c.html#ab044d6f7bf1cacf740cf0a27ea0902b5" target="_top" xlink:title=" ">
<polygon fill="#fff0f0" stroke="red" points="379,-271.32 278,-271.32 278,-252.32 379,-252.32 379,-271.32"/>
<text text-anchor="middle" x="328.5" y="-259.32" font-family="Helvetica,sans-Serif" font-size="10.00">apply_star_effect</text>
</a>
</g>
</g>
<!-- Node76&#45;&gt;Node77 -->
<g id="edge34_Node000076_Node000077" class="edge">
<title>Node76&#45;&gt;Node77</title>
<g id="a_edge34_Node000076_Node000077"><a xlink:title=" ">
<path fill="none" stroke="#63b8ff" d="M420.2,-511.17C418.36,-509.85 416.61,-508.4 415,-506.82 344.48,-437.82 332.04,-307.58 329.92,-271.37"/>
<polygon fill="#63b8ff" stroke="#63b8ff" points="418.43,-514.19 428.82,-516.25 421.98,-508.16 418.43,-514.19"/>
</a>
</g>
</g>
<!-- Node92&#45;&gt;Node21 -->
<g id="edge43_Node000092_Node000021" class="edge">
<title>Node92&#45;&gt;Node21</title>
<g id="a_edge43_Node000092_Node000021"><a xlink:title=" ">
<path fill="none" stroke="#63b8ff" d="M573.95,-763.12C572.55,-764.27 571.22,-765.5 570,-766.82 534.24,-805.54 571.46,-842.74 534,-879.82 530.15,-883.63 525.51,-886.64 520.55,-889.02"/>
<polygon fill="#63b8ff" stroke="#63b8ff" points="576.24,-765.81 582.71,-757.42 572.42,-759.94 576.24,-765.81"/>
</a>
</g>
</g>
<!-- Node92&#45;&gt;Node7 -->
<g id="edge40_Node000092_Node000007" class="edge">
<title>Node92&#45;&gt;Node7</title>
<g id="a_edge40_Node000092_Node000007"><a xlink:title=" ">
<path fill="none" stroke="#63b8ff" d="M578.23,-761.93C575.37,-763.44 572.59,-765.07 570,-766.82 550.98,-779.65 550.22,-787.59 534,-803.82 517.16,-820.67 497.23,-839.95 485.52,-851.22"/>
<polygon fill="#63b8ff" stroke="#63b8ff" points="580,-764.96 587.52,-757.5 576.99,-758.64 580,-764.96"/>
</a>
</g>
</g>
<!-- Node92&#45;&gt;Node75 -->
<g id="edge44_Node000092_Node000075" class="edge">
<title>Node92&#45;&gt;Node75</title>
<g id="a_edge44_Node000092_Node000075"><a xlink:title=" ">
<path fill="none" stroke="#63b8ff" d="M561.35,-747.82C547.84,-747.82 533.53,-747.82 520.56,-747.82"/>
<polygon fill="#63b8ff" stroke="#63b8ff" points="561.5,-751.32 571.5,-747.82 561.5,-744.32 561.5,-751.32"/>
</a>
</g>
</g>
<!-- Node93 -->
<g id="Node000093" class="node">
<title>Node93</title>
<g id="a_Node000093"><a xlink:href="external_8c.html#a9d558c81c8735c602351fbcdb517f632" target="_top" xlink:title=" ">
<polygon fill="white" stroke="#666666" points="521,-794.32 428,-794.32 428,-775.32 521,-775.32 521,-794.32"/>
<text text-anchor="middle" x="474.5" y="-782.32" font-family="Helvetica,sans-Serif" font-size="10.00">func_800C5D04</text>
</a>
</g>
</g>
<!-- Node92&#45;&gt;Node93 -->
<g id="edge41_Node000092_Node000093" class="edge">
<title>Node92&#45;&gt;Node93</title>
<g id="a_edge41_Node000092_Node000093"><a xlink:title=" ">
<path fill="none" stroke="#63b8ff" d="M570.31,-759.94C551.45,-764.89 529.94,-770.54 512.18,-775.2"/>
<polygon fill="#63b8ff" stroke="#63b8ff" points="571.4,-763.27 580.19,-757.35 569.63,-756.5 571.4,-763.27"/>
</a>
</g>
</g>
<!-- Node93&#45;&gt;Node22 -->
<g id="edge42_Node000093_Node000022" class="edge">
<title>Node93&#45;&gt;Node22</title>
<g id="a_edge42_Node000093_Node000022"><a xlink:title=" ">
<path fill="none" stroke="#63b8ff" d="M417.97,-792.15C404.02,-793.99 389.2,-795.94 375.76,-797.72"/>
<polygon fill="#63b8ff" stroke="#63b8ff" points="418.48,-795.61 427.94,-790.83 417.57,-788.67 418.48,-795.61"/>
</a>
</g>
</g>
<!-- Node95 -->
<g id="Node000095" class="node">
<title>Node95</title>
<g id="a_Node000095"><a xlink:href="actors_8c.html#a15517665ab054722a5c980c0f1008cd0" target="_top" xlink:title=" ">
<polygon fill="#fff0f0" stroke="red" points="521,-316.32 428,-316.32 428,-297.32 521,-297.32 521,-316.32"/>
<text text-anchor="middle" x="474.5" y="-304.32" font-family="Helvetica,sans-Serif" font-size="10.00">func_8029E7DC</text>
</a>
</g>
</g>
<!-- Node94&#45;&gt;Node95 -->
<g id="edge46_Node000094_Node000095" class="edge">
<title>Node94&#45;&gt;Node95</title>
<g id="a_edge46_Node000094_Node000095"><a xlink:title=" ">
<path fill="none" stroke="#63b8ff" d="M561.46,-306.82C548.08,-306.82 533.92,-306.82 521.04,-306.82"/>
<polygon fill="#63b8ff" stroke="#63b8ff" points="561.5,-310.32 571.5,-306.82 561.5,-303.32 561.5,-310.32"/>
</a>
</g>
</g>
<!-- Node137 -->
<g id="Node000137" class="node">
<title>Node137</title>
<g id="a_Node000137"><a xlink:href="actors_8c.html#a6951c1c13419e76bc60a8121fef835ab" target="_top" xlink:title=" ">
<polygon fill="#fff0f0" stroke="red" points="528.5,-279.32 420.5,-279.32 420.5,-260.32 528.5,-260.32 528.5,-279.32"/>
<text text-anchor="middle" x="474.5" y="-267.32" font-family="Helvetica,sans-Serif" font-size="10.00">render_actor_cows</text>
</a>
</g>
</g>
<!-- Node94&#45;&gt;Node137 -->
<g id="edge47_Node000094_Node000137" class="edge">
<title>Node94&#45;&gt;Node137</title>
<g id="a_edge47_Node000094_Node000137"><a xlink:title=" ">
<path fill="none" stroke="#63b8ff" d="M570.31,-294.7C551.45,-289.75 529.94,-284.11 512.18,-279.45"/>
<polygon fill="#63b8ff" stroke="#63b8ff" points="569.63,-298.14 580.19,-297.29 571.4,-291.37 569.63,-298.14"/>
</a>
</g>
</g>
<!-- Node150 -->
<g id="Node000150" class="node">
<title>Node150</title>
<g id="a_Node000150"><a xlink:href="actors_8c.html#a53268aa601911d56424ff08fb3395bcb" target="_top" xlink:title=" ">
<polygon fill="#fff0f0" stroke="red" points="534,-241.82 415,-241.82 415,-211.82 534,-211.82 534,-241.82"/>
<text text-anchor="start" x="423" y="-229.82" font-family="Helvetica,sans-Serif" font-size="10.00">destroy_destructable</text>
<text text-anchor="middle" x="474.5" y="-218.82" font-family="Helvetica,sans-Serif" font-size="10.00">_actor</text>
</a>
</g>
</g>
<!-- Node149&#45;&gt;Node150 -->
<g id="edge49_Node000149_Node000150" class="edge">
<title>Node149&#45;&gt;Node150</title>
<g id="a_edge49_Node000149_Node000150"><a xlink:title=" ">
<path fill="none" stroke="#63b8ff" d="M595.56,-162.35C579.27,-174.04 555.84,-190 534,-201.82 527.49,-205.34 520.38,-208.73 513.43,-211.82"/>
<polygon fill="#63b8ff" stroke="#63b8ff" points="597.78,-165.06 603.82,-156.35 593.67,-159.4 597.78,-165.06"/>
</a>
</g>
</g>
<!-- Node157 -->
<g id="Node000157" class="node">
<title>Node157</title>
<g id="a_Node000157"><a xlink:href="code__80005FD0_8c.html#aacd735985e2a36a6443fdf5d57fa54c4" target="_top" xlink:title=" ">
<polygon fill="#fff0f0" stroke="red" points="520.5,-193.32 428.5,-193.32 428.5,-174.32 520.5,-174.32 520.5,-193.32"/>
<text text-anchor="middle" x="474.5" y="-181.32" font-family="Helvetica,sans-Serif" font-size="10.00">func_80013F7C</text>
</a>
</g>
</g>
<!-- Node149&#45;&gt;Node157 -->
<g id="edge50_Node000149_Node000157" class="edge">
<title>Node149&#45;&gt;Node157</title>
<g id="a_edge50_Node000149_Node000157"><a xlink:title=" ">
<path fill="none" stroke="#63b8ff" d="M570.31,-158.94C551.45,-163.89 529.94,-169.54 512.18,-174.2"/>
<polygon fill="#63b8ff" stroke="#63b8ff" points="571.4,-162.27 580.19,-156.35 569.63,-155.5 571.4,-162.27"/>
</a>
</g>
</g>
<!-- Node162 -->
<g id="Node000162" class="node">
<title>Node162</title>
<g id="a_Node000162"><a xlink:href="update__objects_8c.html#a401992e1c9638d1a48190456bd7af9a3" target="_top" xlink:title=" ">
<polygon fill="#fff0f0" stroke="red" points="520.5,-156.32 428.5,-156.32 428.5,-137.32 520.5,-137.32 520.5,-156.32"/>
<text text-anchor="middle" x="474.5" y="-144.32" font-family="Helvetica,sans-Serif" font-size="10.00">func_8007601C</text>
</a>
</g>
</g>
<!-- Node149&#45;&gt;Node162 -->
<g id="edge51_Node000149_Node000162" class="edge">
<title>Node149&#45;&gt;Node162</title>
<g id="a_edge51_Node000149_Node000162"><a xlink:title=" ">
<path fill="none" stroke="#63b8ff" d="M561.35,-146.82C547.84,-146.82 533.53,-146.82 520.56,-146.82"/>
<polygon fill="#63b8ff" stroke="#63b8ff" points="561.5,-150.32 571.5,-146.82 561.5,-143.32 561.5,-150.32"/>
</a>
</g>
</g>
<!-- Node165 -->
<g id="Node000165" class="node">
<title>Node165</title>
<g id="a_Node000165"><a xlink:href="update__objects_8c.html#a269298ce38d852af33c677ae12781528" target="_top" xlink:title=" ">
<polygon fill="#fff0f0" stroke="red" points="520.5,-119.32 428.5,-119.32 428.5,-100.32 520.5,-100.32 520.5,-119.32"/>
<text text-anchor="middle" x="474.5" y="-107.32" font-family="Helvetica,sans-Serif" font-size="10.00">func_8007661C</text>
</a>
</g>
</g>
<!-- Node149&#45;&gt;Node165 -->
<g id="edge52_Node000149_Node000165" class="edge">
<title>Node149&#45;&gt;Node165</title>
<g id="a_edge52_Node000149_Node000165"><a xlink:title=" ">
<path fill="none" stroke="#63b8ff" d="M570.31,-134.7C551.45,-129.75 529.94,-124.11 512.18,-119.45"/>
<polygon fill="#63b8ff" stroke="#63b8ff" points="569.63,-138.14 580.19,-137.29 571.4,-131.37 569.63,-138.14"/>
</a>
</g>
</g>
<!-- Node166 -->
<g id="Node000166" class="node">
<title>Node166</title>
<g id="a_Node000166"><a xlink:href="update__objects_8c.html#aee48f5ac3342922cbf8cd98976679dad" target="_top" xlink:title=" ">
<polygon fill="#fff0f0" stroke="red" points="522,-82.32 427,-82.32 427,-63.32 522,-63.32 522,-82.32"/>
<text text-anchor="middle" x="474.5" y="-70.32" font-family="Helvetica,sans-Serif" font-size="10.00">func_8007DDC0</text>
</a>
</g>
</g>
<!-- Node149&#45;&gt;Node166 -->
<g id="edge53_Node000149_Node000166" class="edge">
<title>Node149&#45;&gt;Node166</title>
<g id="a_edge53_Node000149_Node000166"><a xlink:title=" ">
<path fill="none" stroke="#63b8ff" d="M596.78,-130.95C580.68,-118.62 556.91,-101.82 534,-90.82 527.2,-87.56 519.67,-84.72 512.34,-82.32"/>
<polygon fill="#63b8ff" stroke="#63b8ff" points="594.85,-133.88 604.89,-137.28 599.16,-128.36 594.85,-133.88"/>
</a>
</g>
</g>
<!-- Node168 -->
<g id="Node000168" class="node">
<title>Node168</title>
<g id="a_Node000168"><a xlink:href="update__objects_8c.html#a6c7938339fa5406ffe336278a92aa7ad" target="_top" xlink:title=" ">
<polygon fill="#fff0f0" stroke="red" points="520,-45.32 429,-45.32 429,-26.32 520,-26.32 520,-45.32"/>
<text text-anchor="middle" x="474.5" y="-33.32" font-family="Helvetica,sans-Serif" font-size="10.00">func_8007E1F4</text>
</a>
</g>
</g>
<!-- Node149&#45;&gt;Node168 -->
<g id="edge54_Node000149_Node000168" class="edge">
<title>Node149&#45;&gt;Node168</title>
<g id="a_edge54_Node000149_Node000168"><a xlink:title=" ">
<path fill="none" stroke="#63b8ff" d="M605.02,-128.74C590.8,-107.77 564.67,-73.56 534,-53.82 528.73,-50.43 522.78,-47.64 516.74,-45.37"/>
<polygon fill="#63b8ff" stroke="#63b8ff" points="602.1,-130.66 610.52,-137.09 607.94,-126.81 602.1,-130.66"/>
</a>
</g>
</g>
<!-- Node170&#45;&gt;Node77 -->
<g id="edge56_Node000170_Node000077" class="edge">
<title>Node170&#45;&gt;Node77</title>
<g id="a_edge56_Node000170_Node000077"><a xlink:title=" ">
<path fill="none" stroke="#63b8ff" d="M592.6,-38.99C552.17,-15.99 469.36,21.79 415,-16.82 334.01,-74.34 329.11,-214.54 329.3,-252.31"/>
<polygon fill="#63b8ff" stroke="#63b8ff" points="591.07,-42.15 601.47,-44.19 594.61,-36.11 591.07,-42.15"/>
</a>
</g>
</g>
<!-- Node172 -->
<g id="Node000172" class="node">
<title>Node172</title>
<g id="a_Node000172"><a xlink:href="external_8c.html#acc8bf31951751f8c1884eb37d49f4fbd" target="_top" xlink:title=" ">
<polygon fill="#fff0f0" stroke="red" points="794.5,-739.32 701.5,-739.32 701.5,-720.32 794.5,-720.32 794.5,-739.32"/>
<text text-anchor="middle" x="748" y="-727.32" font-family="Helvetica,sans-Serif" font-size="10.00">func_800CAC08</text>
</a>
</g>
</g>
<!-- Node171&#45;&gt;Node172 -->
<g id="edge58_Node000171_Node000172" class="edge">
<title>Node171&#45;&gt;Node172</title>
<g id="a_edge58_Node000171_Node000172"><a xlink:title=" ">
<path fill="none" stroke="#63b8ff" d="M821.77,-729.82C812.7,-729.82 803.39,-729.82 794.58,-729.82"/>
<polygon fill="#63b8ff" stroke="#63b8ff" points="821.87,-733.32 831.87,-729.82 821.87,-726.32 821.87,-733.32"/>
</a>
</g>
</g>
<!-- Node174 -->
<g id="Node000174" class="node">
<title>Node174</title>
<g id="a_Node000174"><a xlink:href="external_8c.html#a136efe63ecddf15d836c739c28cbfe41" target="_top" xlink:title=" ">
<polygon fill="white" stroke="#666666" points="795,-702.32 701,-702.32 701,-683.32 795,-683.32 795,-702.32"/>
<text text-anchor="middle" x="748" y="-690.32" font-family="Helvetica,sans-Serif" font-size="10.00">func_800CAD40</text>
</a>
</g>
</g>
<!-- Node171&#45;&gt;Node174 -->
<g id="edge59_Node000171_Node000174" class="edge">
<title>Node171&#45;&gt;Node174</title>
<g id="a_edge59_Node000171_Node000174"><a xlink:title=" ">
<path fill="none" stroke="#63b8ff" d="M834.36,-717.5C817.41,-712.6 798.19,-707.04 782.3,-702.45"/>
<polygon fill="#63b8ff" stroke="#63b8ff" points="833.46,-720.88 844.04,-720.29 835.4,-714.15 833.46,-720.88"/>
</a>
</g>
</g>
<!-- Node176 -->
<g id="Node000176" class="node">
<title>Node176</title>
<g id="a_Node000176"><a xlink:href="external_8c.html#a2da15c5d1c72e38f4264ec8100b7b9d5" target="_top" xlink:title=" ">
<polygon fill="white" stroke="#666666" points="794,-665.32 702,-665.32 702,-646.32 794,-646.32 794,-665.32"/>
<text text-anchor="middle" x="748" y="-653.32" font-family="Helvetica,sans-Serif" font-size="10.00">func_800C5C40</text>
</a>
</g>
</g>
<!-- Node175&#45;&gt;Node176 -->
<g id="edge61_Node000175_Node000176" class="edge">
<title>Node175&#45;&gt;Node176</title>
<g id="a_edge61_Node000175_Node000176"><a xlink:title=" ">
<path fill="none" stroke="#63b8ff" d="M820.88,-666.49C811.98,-665.17 802.89,-663.82 794.29,-662.54"/>
<polygon fill="#63b8ff" stroke="#63b8ff" points="820.38,-669.96 830.79,-667.96 821.41,-663.03 820.38,-669.96"/>
</a>
</g>
</g>
</g>
</svg>
