<?xml version="1.0" encoding="UTF-8" standalone="no"?>
<!DOCTYPE svg PUBLIC "-//W3C//DTD SVG 1.1//EN"
 "http://www.w3.org/Graphics/SVG/1.1/DTD/svg11.dtd">
<!-- Generated by graphviz version 2.43.0 (0)
 -->
<!-- Title: func_802966A0 Pages: 1 -->
<svg width="689pt" height="183pt"
 viewBox="0.00 0.00 689.00 183.00" xmlns="http://www.w3.org/2000/svg" xmlns:xlink="http://www.w3.org/1999/xlink">
<g id="graph0" class="graph" transform="scale(1 1) rotate(0) translate(4 179)">
<title>func_802966A0</title>
<!-- Node1 -->
<g id="Node000001" class="node">
<title>Node1</title>
<g id="a_Node000001"><a xlink:title=" ">
<polygon fill="#999999" stroke="#666666" points="92,-56 0,-56 0,-37 92,-37 92,-56"/>
<text text-anchor="middle" x="46" y="-44" font-family="Helvetica,sans-Serif" font-size="10.00">func_802966A0</text>
</a>
</g>
</g>
<!-- Node2 -->
<g id="Node000002" class="node">
<title>Node2</title>
<g id="a_Node000002"><a xlink:href="actors_8c.html#a3f5880ec8c497fe310d631e9e4518d90" target="_top" xlink:title=" ">
<polygon fill="white" stroke="#666666" points="249,-104.5 131,-104.5 131,-74.5 249,-74.5 249,-104.5"/>
<text text-anchor="start" x="139" y="-92.5" font-family="Helvetica,sans-Serif" font-size="10.00">evaluate_collision</text>
<text text-anchor="middle" x="190" y="-81.5" font-family="Helvetica,sans-Serif" font-size="10.00">_players_palm_trees</text>
</a>
</g>
</g>
<!-- Node1&#45;&gt;Node2 -->
<g id="edge1_Node000001_Node000002" class="edge">
<title>Node1&#45;&gt;Node2</title>
<g id="a_edge1_Node000001_Node000002"><a xlink:title=" ">
<path fill="none" stroke="#63b8ff" d="M78.51,-56.04C93.61,-60.62 112.2,-66.24 129.8,-71.57"/>
<polygon fill="#63b8ff" stroke="#63b8ff" points="128.86,-74.95 139.44,-74.49 130.89,-68.25 128.86,-74.95"/>
</a>
</g>
</g>
<!-- Node11 -->
<g id="Node000011" class="node">
<title>Node11</title>
<g id="a_Node000011"><a xlink:href="collision_8c.html#ad4acc660e55a551946cb912b19b1dc18" target="_top" xlink:title=" ">
<polygon fill="white" stroke="#666666" points="252,-56 128,-56 128,-37 252,-37 252,-56"/>
<text text-anchor="middle" x="190" y="-44" font-family="Helvetica,sans-Serif" font-size="10.00">find_and_set_tile_size</text>
</a>
</g>
</g>
<!-- Node1&#45;&gt;Node11 -->
<g id="edge12_Node000001_Node000011" class="edge">
<title>Node1&#45;&gt;Node11</title>
<g id="a_edge12_Node000001_Node000011"><a xlink:title=" ">
<path fill="none" stroke="#63b8ff" d="M92.32,-46.5C100.43,-46.5 109.05,-46.5 117.69,-46.5"/>
<polygon fill="#63b8ff" stroke="#63b8ff" points="117.79,-50 127.79,-46.5 117.79,-43 117.79,-50"/>
</a>
</g>
</g>
<!-- Node12 -->
<g id="Node000012" class="node">
<title>Node12</title>
<g id="a_Node000012"><a xlink:href="math__util_8c.html#a151b63b8adf9af7e4054b3b84bd226dc" target="_top" xlink:title=" ">
<polygon fill="white" stroke="#666666" points="226,-19 154,-19 154,0 226,0 226,-19"/>
<text text-anchor="middle" x="190" y="-7" font-family="Helvetica,sans-Serif" font-size="10.00">random_int</text>
</a>
</g>
</g>
<!-- Node1&#45;&gt;Node12 -->
<g id="edge13_Node000001_Node000012" class="edge">
<title>Node1&#45;&gt;Node12</title>
<g id="a_edge13_Node000001_Node000012"><a xlink:title=" ">
<path fill="none" stroke="#63b8ff" d="M83.57,-36.97C101.9,-32.19 124.28,-26.36 143.69,-21.31"/>
<polygon fill="#63b8ff" stroke="#63b8ff" points="144.74,-24.65 153.54,-18.74 142.98,-17.88 144.74,-24.65"/>
</a>
</g>
</g>
<!-- Node3 -->
<g id="Node000003" class="node">
<title>Node3</title>
<g id="a_Node000003"><a xlink:href="actors_8c.html#a55dd52d90732891552d43874931866cb" target="_top" xlink:title=" ">
<polygon fill="white" stroke="#666666" points="401,-125.5 288,-125.5 288,-95.5 401,-95.5 401,-125.5"/>
<text text-anchor="start" x="296" y="-113.5" font-family="Helvetica,sans-Serif" font-size="10.00">evaluate_collision</text>
<text text-anchor="middle" x="344.5" y="-102.5" font-family="Helvetica,sans-Serif" font-size="10.00">_player_palm_trees</text>
</a>
</g>
</g>
<!-- Node2&#45;&gt;Node3 -->
<g id="edge2_Node000002_Node000003" class="edge">
<title>Node2&#45;&gt;Node3</title>
<g id="a_edge2_Node000002_Node000003"><a xlink:title=" ">
<path fill="none" stroke="#63b8ff" d="M249.09,-97.5C258.42,-98.78 268.14,-100.12 277.64,-101.43"/>
<polygon fill="#63b8ff" stroke="#63b8ff" points="277.45,-104.94 287.84,-102.83 278.41,-98 277.45,-104.94"/>
</a>
</g>
</g>
<!-- Node10 -->
<g id="Node000010" class="node">
<title>Node10</title>
<g id="a_Node000010"><a xlink:href="collision_8c.html#a9395b9fc31397e9e9d754b4887a12544" target="_top" xlink:title=" ">
<polygon fill="white" stroke="#666666" points="395,-77 294,-77 294,-58 395,-58 395,-77"/>
<text text-anchor="middle" x="344.5" y="-65" font-family="Helvetica,sans-Serif" font-size="10.00">get_surface_type</text>
</a>
</g>
</g>
<!-- Node2&#45;&gt;Node10 -->
<g id="edge11_Node000002_Node000010" class="edge">
<title>Node2&#45;&gt;Node10</title>
<g id="a_edge11_Node000002_Node000010"><a xlink:title=" ">
<path fill="none" stroke="#63b8ff" d="M249.09,-81.12C260.3,-79.5 272.07,-77.8 283.35,-76.18"/>
<polygon fill="#63b8ff" stroke="#63b8ff" points="284.14,-79.6 293.54,-74.71 283.14,-72.67 284.14,-79.6"/>
</a>
</g>
</g>
<!-- Node4 -->
<g id="Node000004" class="node">
<title>Node4</title>
<g id="a_Node000004"><a xlink:href="external_8c.html#a2be9efc97a92e19d02aaee90d676acc1" target="_top" xlink:title=" ">
<polygon fill="white" stroke="#666666" points="551,-175 459,-175 459,-156 551,-156 551,-175"/>
<text text-anchor="middle" x="505" y="-163" font-family="Helvetica,sans-Serif" font-size="10.00">func_800C9060</text>
</a>
</g>
</g>
<!-- Node3&#45;&gt;Node4 -->
<g id="edge3_Node000003_Node000004" class="edge">
<title>Node3&#45;&gt;Node4</title>
<g id="a_edge3_Node000003_Node000004"><a xlink:title=" ">
<path fill="none" stroke="#63b8ff" d="M379.89,-125.56C396.89,-132.71 417.83,-141.08 437,-147.5 442.92,-149.48 449.19,-151.4 455.43,-153.2"/>
<polygon fill="#63b8ff" stroke="#63b8ff" points="454.57,-156.6 465.14,-155.92 456.46,-149.85 454.57,-156.6"/>
</a>
</g>
</g>
<!-- Node6 -->
<g id="Node000006" class="node">
<title>Node6</title>
<g id="a_Node000006"><a xlink:href="external_8c.html#a337fc3ab94ebb3293a85908229303ac8" target="_top" xlink:title=" ">
<polygon fill="white" stroke="#666666" points="551,-138 459,-138 459,-119 551,-119 551,-138"/>
<text text-anchor="middle" x="505" y="-126" font-family="Helvetica,sans-Serif" font-size="10.00">func_800C90F4</text>
</a>
</g>
</g>
<!-- Node3&#45;&gt;Node6 -->
<g id="edge5_Node000003_Node000006" class="edge">
<title>Node3&#45;&gt;Node6</title>
<g id="a_edge5_Node000003_Node000006"><a xlink:title=" ">
<path fill="none" stroke="#63b8ff" d="M401.38,-116.85C416.66,-118.58 433.21,-120.46 448.47,-122.19"/>
<polygon fill="#63b8ff" stroke="#63b8ff" points="448.47,-125.72 458.8,-123.37 449.26,-118.76 448.47,-125.72"/>
</a>
</g>
</g>
<!-- Node7 -->
<g id="Node000007" class="node">
<title>Node7</title>
<g id="a_Node000007"><a xlink:href="external_8c.html#acb60983213d09ee795e80ca3c8b5975e" target="_top" xlink:title=" ">
<polygon fill="white" stroke="#666666" points="551,-101 459,-101 459,-82 551,-82 551,-101"/>
<text text-anchor="middle" x="505" y="-89" font-family="Helvetica,sans-Serif" font-size="10.00">func_800C98B8</text>
</a>
</g>
</g>
<!-- Node3&#45;&gt;Node7 -->
<g id="edge7_Node000003_Node000007" class="edge">
<title>Node3&#45;&gt;Node7</title>
<g id="a_edge7_Node000003_Node000007"><a xlink:title=" ">
<path fill="none" stroke="#63b8ff" d="M401.38,-103.8C416.66,-101.97 433.21,-99.99 448.47,-98.16"/>
<polygon fill="#63b8ff" stroke="#63b8ff" points="449.29,-101.58 458.8,-96.92 448.45,-94.63 449.29,-101.58"/>
</a>
</g>
</g>
<!-- Node8 -->
<g id="Node000008" class="node">
<title>Node8</title>
<g id="a_Node000008"><a xlink:href="actors_8c.html#a9429052efee64c6d24b4a95def854c02" target="_top" xlink:title=" ">
<polygon fill="white" stroke="#666666" points="573,-64 437,-64 437,-45 573,-45 573,-64"/>
<text text-anchor="middle" x="505" y="-52" font-family="Helvetica,sans-Serif" font-size="10.00">is_colliding_and_resolve</text>
</a>
</g>
</g>
<!-- Node3&#45;&gt;Node8 -->
<g id="edge9_Node000003_Node000008" class="edge">
<title>Node3&#45;&gt;Node8</title>
<g id="a_edge9_Node000003_Node000008"><a xlink:title=" ">
<path fill="none" stroke="#63b8ff" d="M380.36,-95.37C397.29,-88.29 418.04,-80 437,-73.5 443.61,-71.23 450.65,-69.02 457.58,-66.96"/>
<polygon fill="#63b8ff" stroke="#63b8ff" points="458.99,-70.2 467.62,-64.05 457.04,-63.47 458.99,-70.2"/>
</a>
</g>
</g>
<!-- Node5 -->
<g id="Node000005" class="node">
<title>Node5</title>
<g id="a_Node000005"><a xlink:href="external_8c.html#a4227847f3da303aee53cf69d2760a595" target="_top" xlink:title=" ">
<polygon fill="white" stroke="#666666" points="681,-138 609,-138 609,-119 681,-119 681,-138"/>
<text text-anchor="middle" x="645" y="-126" font-family="Helvetica,sans-Serif" font-size="10.00">play_sound</text>
</a>
</g>
</g>
<!-- Node4&#45;&gt;Node5 -->
<g id="edge4_Node000004_Node000005" class="edge">
<title>Node4&#45;&gt;Node5</title>
<g id="a_edge4_Node000004_Node000005"><a xlink:title=" ">
<path fill="none" stroke="#63b8ff" d="M541.54,-155.97C559,-151.29 580.24,-145.59 598.84,-140.61"/>
<polygon fill="#63b8ff" stroke="#63b8ff" points="599.83,-143.97 608.58,-138 598.02,-137.21 599.83,-143.97"/>
</a>
</g>
</g>
<!-- Node6&#45;&gt;Node5 -->
<g id="edge6_Node000006_Node000005" class="edge">
<title>Node6&#45;&gt;Node5</title>
<g id="a_edge6_Node000006_Node000005"><a xlink:title=" ">
<path fill="none" stroke="#63b8ff" d="M551.19,-128.5C566.39,-128.5 583.34,-128.5 598.56,-128.5"/>
<polygon fill="#63b8ff" stroke="#63b8ff" points="598.78,-132 608.78,-128.5 598.78,-125 598.78,-132"/>
</a>
</g>
</g>
<!-- Node7&#45;&gt;Node5 -->
<g id="edge8_Node000007_Node000005" class="edge">
<title>Node7&#45;&gt;Node5</title>
<g id="a_edge8_Node000007_Node000005"><a xlink:title=" ">
<path fill="none" stroke="#63b8ff" d="M541.54,-101.03C559,-105.71 580.24,-111.41 598.84,-116.39"/>
<polygon fill="#63b8ff" stroke="#63b8ff" points="598.02,-119.79 608.58,-119 599.83,-113.03 598.02,-119.79"/>
</a>
</g>
</g>
<!-- Node9 -->
<g id="Node000009" class="node">
<title>Node9</title>
<g id="a_Node000009"><a xlink:href="math_8h.html#a37bde043e94a6f074c78f10518fb5d99" target="_top" xlink:title=" ">
<polygon fill="white" stroke="#666666" points="664.5,-64 625.5,-64 625.5,-45 664.5,-45 664.5,-64"/>
<text text-anchor="middle" x="645" y="-52" font-family="Helvetica,sans-Serif" font-size="10.00">sqrtf</text>
</a>
</g>
</g>
<!-- Node8&#45;&gt;Node9 -->
<g id="edge10_Node000008_Node000009" class="edge">
<title>Node8&#45;&gt;Node9</title>
<g id="a_edge10_Node000008_Node000009"><a xlink:title=" ">
<path fill="none" stroke="#63b8ff" d="M573.38,-54.5C588.2,-54.5 603.12,-54.5 615.4,-54.5"/>
<polygon fill="#63b8ff" stroke="#63b8ff" points="615.44,-58 625.44,-54.5 615.44,-51 615.44,-58"/>
</a>
</g>
</g>
<!-- Node13 -->
<g id="Node000013" class="node">
<title>Node13</title>
<g id="a_Node000013"><a xlink:href="math__util_8c.html#a062850863585005ad1d0a75d9ff70693" target="_top" xlink:title=" ">
<polygon fill="white" stroke="#666666" points="383,-19 306,-19 306,0 383,0 383,-19"/>
<text text-anchor="middle" x="344.5" y="-7" font-family="Helvetica,sans-Serif" font-size="10.00">random_u16</text>
</a>
</g>
</g>
<!-- Node12&#45;&gt;Node13 -->
<g id="edge14_Node000012_Node000013" class="edge">
<title>Node12&#45;&gt;Node13</title>
<g id="a_edge14_Node000012_Node000013"><a xlink:title=" ">
<path fill="none" stroke="#63b8ff" d="M226.37,-9.5C247.05,-9.5 273.42,-9.5 295.9,-9.5"/>
<polygon fill="#63b8ff" stroke="#63b8ff" points="295.93,-13 305.93,-9.5 295.93,-6 295.93,-13"/>
</a>
</g>
</g>
</g>
</svg>
