<?xml version="1.0" encoding="UTF-8" standalone="no"?>
<!DOCTYPE svg PUBLIC "-//W3C//DTD SVG 1.1//EN"
 "http://www.w3.org/Graphics/SVG/1.1/DTD/svg11.dtd">
<!-- Generated by graphviz version 2.43.0 (0)
 -->
<!-- Title: src/render_player.h Pages: 1 -->
<!--zoomable 203 -->

<svg id="main" version="1.1" xmlns="http://www.w3.org/2000/svg" xmlns:xlink="http://www.w3.org/1999/xlink" xml:space="preserve" onload="init(evt)">
<style type="text/css"><![CDATA[
.node, .edge {opacity: 0.7;}
.node.selected, .edge.selected {opacity: 1;}
.edge:hover path { stroke: red; }
.edge:hover polygon { stroke: red; fill: red; }
]]></style>

<defs>
  <circle id="rim" cx="0" cy="0" r="7"/>
  <circle id="rim2" cx="0" cy="0" r="3.5"/>
  <g id="zoomPlus">
    <use xlink:href="#rim" fill="#404040"><set attributeName="fill" to="#808080" begin="zoomplus.mouseover" end="zoomplus.mouseout"/></use>
    <path d="M-4,0h8M0,-4v8" fill="none" stroke="white" stroke-width="1.5" pointer-events="none"/>
  </g>
  <g id="zoomMin">
    <use xlink:href="#rim" fill="#404040"><set attributeName="fill" to="#808080" begin="zoomminus.mouseover" end="zoomminus.mouseout"/></use>
    <path d="M-4,0h8" fill="none" stroke="white" stroke-width="1.5" pointer-events="none"/>
  </g>
  <g id="arrowUp" transform="translate(30 24)">
    <use xlink:href="#rim"/>
    <path pointer-events="none" fill="none" stroke="white" stroke-width="1.5" d="M0,-3.0v7 M-2.5,-0.5L0,-3.0L2.5,-0.5"/>
  </g>
  <g id="arrowRight" transform="rotate(90) translate(36 -43)">
    <use xlink:href="#rim"/>
    <path pointer-events="none" fill="none" stroke="white" stroke-width="1.5" d="M0,-3.0v7 M-2.5,-0.5L0,-3.0L2.5,-0.5"/>
  </g>
  <g id="arrowDown" transform="rotate(180) translate(-30 -48)">
    <use xlink:href="#rim"/>
    <path pointer-events="none" fill="none" stroke="white" stroke-width="1.5" d="M0,-3.0v7 M-2.5,-0.5L0,-3.0L2.5,-0.5"/>
  </g>
  <g id="arrowLeft" transform="rotate(270) translate(-36 17)">
    <use xlink:href="#rim"/>
    <path pointer-events="none" fill="none" stroke="white" stroke-width="1.5" d="M0,-3.0v7 M-2.5,-0.5L0,-3.0L2.5,-0.5"/>
  </g>
  <g id="resetDef">
    <use xlink:href="#rim2" fill="#404040"><set attributeName="fill" to="#808080" begin="reset.mouseover" end="reset.mouseout"/></use>
  </g>
</defs>
<script type="application/ecmascript">
var viewWidth = 2194;
var viewHeight = 203;
var sectionId = 'dynsection-1';
</script>
<script type="application/ecmascript" xlink:href="svg.min.js"/>
<svg id="graph" class="graph">
<g id="viewport">
<title>src/render_player.h</title>
<!-- Node1 -->
<g id="Node000001" class="node">
<title>Node1</title>
<g id="a_Node000001"><a xlink:title=" ">
<polygon fill="#999999" stroke="#666666" points="1198.5,-195 1088.5,-195 1088.5,-176 1198.5,-176 1198.5,-195"/>
<text text-anchor="middle" x="1143.5" y="-183" font-family="Helvetica,sans-Serif" font-size="10.00">src/render_player.h</text>
</a>
</g>
</g>
<!-- Node2 -->
<g id="Node000002" class="node">
<title>Node2</title>
<g id="a_Node000002"><a xlink:href="camera_8c.html" target="_top" xlink:title=" ">
<polygon fill="white" stroke="#666666" points="79,-134.5 0,-134.5 0,-115.5 79,-115.5 79,-134.5"/>
<text text-anchor="middle" x="39.5" y="-122.5" font-family="Helvetica,sans-Serif" font-size="10.00">src/camera.c</text>
</a>
</g>
</g>
<!-- Node1&#45;&gt;Node2 -->
<g id="edge1_Node000001_Node000002" class="edge">
<title>Node1&#45;&gt;Node2</title>
<g id="a_edge1_Node000001_Node000002"><a xlink:title=" ">
<path fill="none" stroke="#63b8ff" d="M1078.17,-183.81C878.72,-181.38 279.6,-171.58 87.5,-140 79.96,-138.76 71.93,-136.72 64.65,-134.57"/>
<polygon fill="#63b8ff" stroke="#63b8ff" points="1078.17,-187.31 1088.21,-183.93 1078.25,-180.31 1078.17,-187.31"/>
</a>
</g>
</g>
<!-- Node3 -->
<g id="Node000003" class="node">
<title>Node3</title>
<g id="a_Node000003"><a xlink:href="code__80005FD0_8c.html" target="_top" xlink:title=" ">
<polygon fill="white" stroke="#666666" points="216.5,-134.5 96.5,-134.5 96.5,-115.5 216.5,-115.5 216.5,-134.5"/>
<text text-anchor="middle" x="156.5" y="-122.5" font-family="Helvetica,sans-Serif" font-size="10.00">src/code_80005FD0.c</text>
</a>
</g>
</g>
<!-- Node1&#45;&gt;Node3 -->
<g id="edge2_Node000001_Node000003" class="edge">
<title>Node1&#45;&gt;Node3</title>
<g id="a_edge2_Node000001_Node000003"><a xlink:title=" ">
<path fill="none" stroke="#63b8ff" d="M1078.48,-184.66C927.98,-184.31 544.27,-179.27 226.5,-140 215.8,-138.68 204.29,-136.64 193.75,-134.52"/>
<polygon fill="#63b8ff" stroke="#63b8ff" points="1078.47,-188.16 1088.48,-184.68 1078.48,-181.16 1078.47,-188.16"/>
</a>
</g>
</g>
<!-- Node4 -->
<g id="Node000004" class="node">
<title>Node4</title>
<g id="a_Node000004"><a xlink:href="code__80057C60_8c.html" target="_top" xlink:title=" ">
<polygon fill="white" stroke="#666666" points="354,-134.5 235,-134.5 235,-115.5 354,-115.5 354,-134.5"/>
<text text-anchor="middle" x="294.5" y="-122.5" font-family="Helvetica,sans-Serif" font-size="10.00">src/code_80057C60.c</text>
</a>
</g>
</g>
<!-- Node1&#45;&gt;Node4 -->
<g id="edge3_Node000001_Node000004" class="edge">
<title>Node1&#45;&gt;Node4</title>
<g id="a_edge3_Node000001_Node000004"><a xlink:title=" ">
<path fill="none" stroke="#63b8ff" d="M1078.28,-183.93C943.97,-182.06 627.01,-174.07 363.5,-140 353.07,-138.65 341.87,-136.63 331.58,-134.54"/>
<polygon fill="#63b8ff" stroke="#63b8ff" points="1078.36,-187.43 1088.4,-184.06 1078.45,-180.43 1078.36,-187.43"/>
</a>
</g>
</g>
<!-- Node5 -->
<g id="Node000005" class="node">
<title>Node5</title>
<g id="a_Node000005"><a xlink:href="code__8008C1D0_8c.html" target="_top" xlink:title=" ">
<polygon fill="white" stroke="#666666" points="493,-134.5 372,-134.5 372,-115.5 493,-115.5 493,-134.5"/>
<text text-anchor="middle" x="432.5" y="-122.5" font-family="Helvetica,sans-Serif" font-size="10.00">src/code_8008C1D0.c</text>
</a>
</g>
</g>
<!-- Node1&#45;&gt;Node5 -->
<g id="edge4_Node000001_Node000005" class="edge">
<title>Node1&#45;&gt;Node5</title>
<g id="a_edge4_Node000001_Node000005"><a xlink:title=" ">
<path fill="none" stroke="#63b8ff" d="M1078.23,-182.73C962.02,-178.96 711.78,-168.07 502.5,-140 492.06,-138.6 480.83,-136.59 470.5,-134.52"/>
<polygon fill="#63b8ff" stroke="#63b8ff" points="1078.28,-186.23 1088.38,-183.05 1078.5,-179.24 1078.28,-186.23"/>
</a>
</g>
</g>
<!-- Node6 -->
<g id="Node000006" class="node">
<title>Node6</title>
<g id="a_Node000006"><a xlink:href="code__80091750_8c.html" target="_top" xlink:title=" ">
<polygon fill="white" stroke="#666666" points="630,-134.5 511,-134.5 511,-115.5 630,-115.5 630,-134.5"/>
<text text-anchor="middle" x="570.5" y="-122.5" font-family="Helvetica,sans-Serif" font-size="10.00">src/code_80091750.c</text>
</a>
</g>
</g>
<!-- Node1&#45;&gt;Node6 -->
<g id="edge5_Node000001_Node000006" class="edge">
<title>Node1&#45;&gt;Node6</title>
<g id="a_edge5_Node000001_Node000006"><a xlink:title=" ">
<path fill="none" stroke="#63b8ff" d="M1078.28,-181.08C981.96,-175.51 796.13,-162.73 639.5,-140 629.46,-138.54 618.68,-136.56 608.69,-134.54"/>
<polygon fill="#63b8ff" stroke="#63b8ff" points="1078.27,-184.59 1088.45,-181.66 1078.67,-177.6 1078.27,-184.59"/>
</a>
</g>
</g>
<!-- Node7 -->
<g id="Node000007" class="node">
<title>Node7</title>
<g id="a_Node000007"><a xlink:href="all__variables_8h.html" target="_top" xlink:title=" ">
<polygon fill="white" stroke="#666666" points="786.5,-134.5 648.5,-134.5 648.5,-115.5 786.5,-115.5 786.5,-134.5"/>
<text text-anchor="middle" x="717.5" y="-122.5" font-family="Helvetica,sans-Serif" font-size="10.00">src/debug/all_variables.h</text>
</a>
</g>
</g>
<!-- Node1&#45;&gt;Node7 -->
<g id="edge6_Node000001_Node000007" class="edge">
<title>Node1&#45;&gt;Node7</title>
<g id="a_edge6_Node000001_Node000007"><a xlink:title=" ">
<path fill="none" stroke="#63b8ff" d="M1078.42,-177.1C1008.6,-168.93 894.5,-154.96 796.5,-140 785.76,-138.36 774.23,-136.42 763.39,-134.52"/>
<polygon fill="#63b8ff" stroke="#63b8ff" points="1078.06,-180.58 1088.4,-178.26 1078.87,-173.62 1078.06,-180.58"/>
</a>
</g>
</g>
<!-- Node10 -->
<g id="Node000010" class="node">
<title>Node10</title>
<g id="a_Node000010"><a xlink:href="code__80280000_8c.html" target="_top" xlink:title=" ">
<polygon fill="white" stroke="#666666" points="960,-134.5 805,-134.5 805,-115.5 960,-115.5 960,-134.5"/>
<text text-anchor="middle" x="882.5" y="-122.5" font-family="Helvetica,sans-Serif" font-size="10.00">src/ending/code_80280000.c</text>
</a>
</g>
</g>
<!-- Node1&#45;&gt;Node10 -->
<g id="edge9_Node000001_Node000010" class="edge">
<title>Node1&#45;&gt;Node10</title>
<g id="a_edge9_Node000001_Node000010"><a xlink:title=" ">
<path fill="none" stroke="#63b8ff" d="M1095.54,-173.75C1045.12,-162.45 966.81,-144.9 920.5,-134.52"/>
<polygon fill="#63b8ff" stroke="#63b8ff" points="1095.02,-177.22 1105.55,-175.99 1096.56,-170.39 1095.02,-177.22"/>
</a>
</g>
</g>
<!-- Node11 -->
<g id="Node000011" class="node">
<title>Node11</title>
<g id="a_Node000011"><a xlink:href="code__80281C40_8c.html" target="_top" xlink:title=" ">
<polygon fill="white" stroke="#666666" points="1133,-134.5 978,-134.5 978,-115.5 1133,-115.5 1133,-134.5"/>
<text text-anchor="middle" x="1055.5" y="-122.5" font-family="Helvetica,sans-Serif" font-size="10.00">src/ending/code_80281C40.c</text>
</a>
</g>
</g>
<!-- Node1&#45;&gt;Node11 -->
<g id="edge10_Node000001_Node000011" class="edge">
<title>Node1&#45;&gt;Node11</title>
<g id="a_edge10_Node000001_Node000011"><a xlink:title=" ">
<path fill="none" stroke="#63b8ff" d="M1121.93,-170.16C1105.21,-159.05 1082.6,-144.01 1068.54,-134.67"/>
<polygon fill="#63b8ff" stroke="#63b8ff" points="1120.25,-173.25 1130.52,-175.87 1124.13,-167.42 1120.25,-173.25"/>
</a>
</g>
</g>
<!-- Node12 -->
<g id="Node000012" class="node">
<title>Node12</title>
<g id="a_Node000012"><a xlink:href="podium__ceremony__actors_8c.html" target="_top" xlink:title=" ">
<polygon fill="white" stroke="#666666" points="1312,-140 1151,-140 1151,-110 1312,-110 1312,-140"/>
<text text-anchor="start" x="1159" y="-128" font-family="Helvetica,sans-Serif" font-size="10.00">src/ending/podium_ceremony</text>
<text text-anchor="middle" x="1231.5" y="-117" font-family="Helvetica,sans-Serif" font-size="10.00">_actors.c</text>
</a>
</g>
</g>
<!-- Node1&#45;&gt;Node12 -->
<g id="edge11_Node000001_Node000012" class="edge">
<title>Node1&#45;&gt;Node12</title>
<g id="a_edge11_Node000001_Node000012"><a xlink:title=" ">
<path fill="none" stroke="#63b8ff" d="M1164.87,-170.29C1178.66,-161.13 1196.51,-149.26 1210.27,-140.11"/>
<polygon fill="#63b8ff" stroke="#63b8ff" points="1162.87,-167.42 1156.48,-175.87 1166.75,-173.25 1162.87,-167.42"/>
</a>
</g>
</g>
<!-- Node13 -->
<g id="Node000013" class="node">
<title>Node13</title>
<g id="a_Node000013"><a xlink:href="hud__renderer_8c.html" target="_top" xlink:title=" ">
<polygon fill="white" stroke="#666666" points="1436.5,-134.5 1330.5,-134.5 1330.5,-115.5 1436.5,-115.5 1436.5,-134.5"/>
<text text-anchor="middle" x="1383.5" y="-122.5" font-family="Helvetica,sans-Serif" font-size="10.00">src/hud_renderer.c</text>
</a>
</g>
</g>
<!-- Node1&#45;&gt;Node13 -->
<g id="edge12_Node000001_Node000013" class="edge">
<title>Node1&#45;&gt;Node13</title>
<g id="a_edge12_Node000001_Node000013"><a xlink:title=" ">
<path fill="none" stroke="#63b8ff" d="M1188.18,-173.61C1234.56,-162.3 1306.15,-144.85 1348.56,-134.52"/>
<polygon fill="#63b8ff" stroke="#63b8ff" points="1187.28,-170.22 1178.4,-175.99 1188.94,-177.03 1187.28,-170.22"/>
</a>
</g>
</g>
<!-- Node14 -->
<g id="Node000014" class="node">
<title>Node14</title>
<g id="a_Node000014"><a xlink:href="main_8c.html" target="_top" xlink:title=" ">
<polygon fill="white" stroke="#666666" points="1522,-134.5 1455,-134.5 1455,-115.5 1522,-115.5 1522,-134.5"/>
<text text-anchor="middle" x="1488.5" y="-122.5" font-family="Helvetica,sans-Serif" font-size="10.00">src/main.c</text>
</a>
</g>
</g>
<!-- Node1&#45;&gt;Node14 -->
<g id="edge13_Node000001_Node000014" class="edge">
<title>Node1&#45;&gt;Node14</title>
<g id="a_edge13_Node000001_Node000014"><a xlink:title=" ">
<path fill="none" stroke="#63b8ff" d="M1208.55,-178.12C1270.11,-171.33 1364.86,-158.93 1445.5,-140 1451.77,-138.53 1458.43,-136.56 1464.6,-134.57"/>
<polygon fill="#63b8ff" stroke="#63b8ff" points="1208.14,-174.64 1198.58,-179.2 1208.9,-181.6 1208.14,-174.64"/>
</a>
</g>
</g>
<!-- Node15 -->
<g id="Node000015" class="node">
<title>Node15</title>
<g id="a_Node000015"><a xlink:href="math__util__2_8c.html" target="_top" xlink:title=" ">
<polygon fill="white" stroke="#666666" points="1640.5,-134.5 1540.5,-134.5 1540.5,-115.5 1640.5,-115.5 1640.5,-134.5"/>
<text text-anchor="middle" x="1590.5" y="-122.5" font-family="Helvetica,sans-Serif" font-size="10.00">src/math_util_2.c</text>
</a>
</g>
</g>
<!-- Node1&#45;&gt;Node15 -->
<g id="edge14_Node000001_Node000015" class="edge">
<title>Node1&#45;&gt;Node15</title>
<g id="a_edge14_Node000001_Node000015"><a xlink:title=" ">
<path fill="none" stroke="#63b8ff" d="M1208.82,-179.39C1286.2,-172.79 1418.85,-159.75 1531.5,-140 1540,-138.51 1549.11,-136.54 1557.57,-134.54"/>
<polygon fill="#63b8ff" stroke="#63b8ff" points="1208.4,-175.92 1198.73,-180.24 1208.99,-182.89 1208.4,-175.92"/>
</a>
</g>
</g>
<!-- Node16 -->
<g id="Node000016" class="node">
<title>Node16</title>
<g id="a_Node000016"><a xlink:href="player__controller_8c.html" target="_top" xlink:title=" ">
<polygon fill="white" stroke="#666666" points="1782.5,-134.5 1658.5,-134.5 1658.5,-115.5 1782.5,-115.5 1782.5,-134.5"/>
<text text-anchor="middle" x="1720.5" y="-122.5" font-family="Helvetica,sans-Serif" font-size="10.00">src/player_controller.c</text>
</a>
</g>
</g>
<!-- Node1&#45;&gt;Node16 -->
<g id="edge15_Node000001_Node000016" class="edge">
<title>Node1&#45;&gt;Node16</title>
<g id="a_edge15_Node000001_Node000016"><a xlink:title=" ">
<path fill="none" stroke="#63b8ff" d="M1208.96,-180.99C1305.65,-175.29 1492.18,-162.36 1649.5,-140 1659.82,-138.53 1670.92,-136.54 1681.2,-134.53"/>
<polygon fill="#63b8ff" stroke="#63b8ff" points="1208.53,-177.51 1198.75,-181.58 1208.94,-184.49 1208.53,-177.51"/>
</a>
</g>
</g>
<!-- Node17 -->
<g id="Node000017" class="node">
<title>Node17</title>
<g id="a_Node000017"><a xlink:href="skybox__and__splitscreen_8c.html" target="_top" xlink:title=" ">
<polygon fill="white" stroke="#666666" points="1926,-140 1801,-140 1801,-110 1926,-110 1926,-140"/>
<text text-anchor="start" x="1809" y="-128" font-family="Helvetica,sans-Serif" font-size="10.00">src/racing/skybox_and</text>
<text text-anchor="middle" x="1863.5" y="-117" font-family="Helvetica,sans-Serif" font-size="10.00">_splitscreen.c</text>
</a>
</g>
</g>
<!-- Node1&#45;&gt;Node17 -->
<g id="edge16_Node000001_Node000017" class="edge">
<title>Node1&#45;&gt;Node17</title>
<g id="a_edge16_Node000001_Node000017"><a xlink:title=" ">
<path fill="none" stroke="#63b8ff" d="M1209.01,-182.67C1326.27,-178.81 1579.59,-167.77 1791.5,-140 1794.53,-139.6 1797.63,-139.16 1800.75,-138.68"/>
<polygon fill="#63b8ff" stroke="#63b8ff" points="1208.66,-179.18 1198.77,-183 1208.88,-186.18 1208.66,-179.18"/>
</a>
</g>
</g>
<!-- Node18 -->
<g id="Node000018" class="node">
<title>Node18</title>
<g id="a_Node000018"><a xlink:href="render__player_8c.html" target="_top" xlink:title=" ">
<polygon fill="white" stroke="#666666" points="2053,-134.5 1944,-134.5 1944,-115.5 2053,-115.5 2053,-134.5"/>
<text text-anchor="middle" x="1998.5" y="-122.5" font-family="Helvetica,sans-Serif" font-size="10.00">src/render_player.c</text>
</a>
</g>
</g>
<!-- Node1&#45;&gt;Node18 -->
<g id="edge17_Node000001_Node000018" class="edge">
<title>Node1&#45;&gt;Node18</title>
<g id="a_edge17_Node000001_Node000018"><a xlink:title=" ">
<path fill="none" stroke="#63b8ff" d="M1208.76,-184.41C1344.65,-183.44 1667.6,-177.04 1935.5,-140 1945.16,-138.66 1955.52,-136.62 1965.01,-134.5"/>
<polygon fill="#63b8ff" stroke="#63b8ff" points="1208.5,-180.91 1198.53,-184.48 1208.55,-187.91 1208.5,-180.91"/>
</a>
</g>
</g>
<!-- Node19 -->
<g id="Node000019" class="node">
<title>Node19</title>
<g id="a_Node000019"><a xlink:href="spawn__players_8c.html" target="_top" xlink:title=" ">
<polygon fill="white" stroke="#666666" points="2186,-134.5 2071,-134.5 2071,-115.5 2186,-115.5 2186,-134.5"/>
<text text-anchor="middle" x="2128.5" y="-122.5" font-family="Helvetica,sans-Serif" font-size="10.00">src/spawn_players.c</text>
</a>
</g>
</g>
<!-- Node1&#45;&gt;Node19 -->
<g id="edge18_Node000001_Node000019" class="edge">
<title>Node1&#45;&gt;Node19</title>
<g id="a_edge18_Node000001_Node000019"><a xlink:title=" ">
<path fill="none" stroke="#63b8ff" d="M1208.7,-184.93C1359.59,-185.14 1744.27,-181.18 2062.5,-140 2072.61,-138.69 2083.47,-136.66 2093.4,-134.54"/>
<polygon fill="#63b8ff" stroke="#63b8ff" points="1208.68,-181.43 1198.67,-184.91 1208.66,-188.43 1208.68,-181.43"/>
</a>
</g>
</g>
<!-- Node8 -->
<g id="Node000008" class="node">
<title>Node8</title>
<g id="a_Node000008"><a xlink:href="debug_8inc_8c.html" target="_top" xlink:title=" ">
<polygon fill="white" stroke="#666666" points="778.5,-74 656.5,-74 656.5,-55 778.5,-55 778.5,-74"/>
<text text-anchor="middle" x="717.5" y="-62" font-family="Helvetica,sans-Serif" font-size="10.00">src/debug/debug.inc.c</text>
</a>
</g>
</g>
<!-- Node7&#45;&gt;Node8 -->
<g id="edge7_Node000007_Node000008" class="edge">
<title>Node7&#45;&gt;Node8</title>
<g id="a_edge7_Node000007_Node000008"><a xlink:title=" ">
<path fill="none" stroke="#63b8ff" d="M717.5,-105.16C717.5,-94.74 717.5,-82.3 717.5,-74.17"/>
<polygon fill="#63b8ff" stroke="#63b8ff" points="714,-105.37 717.5,-115.37 721,-105.37 714,-105.37"/>
</a>
</g>
</g>
<!-- Node9 -->
<g id="Node000009" class="node">
<title>Node9</title>
<g id="a_Node000009"><a xlink:href="debug_8c.html" target="_top" xlink:title=" ">
<polygon fill="white" stroke="#666666" points="770,-19 665,-19 665,0 770,0 770,-19"/>
<text text-anchor="middle" x="717.5" y="-7" font-family="Helvetica,sans-Serif" font-size="10.00">src/debug/debug.c</text>
</a>
</g>
</g>
<!-- Node8&#45;&gt;Node9 -->
<g id="edge8_Node000008_Node000009" class="edge">
<title>Node8&#45;&gt;Node9</title>
<g id="a_edge8_Node000008_Node000009"><a xlink:title=" ">
<path fill="none" stroke="#63b8ff" d="M717.5,-44.66C717.5,-35.93 717.5,-25.99 717.5,-19.09"/>
<polygon fill="#63b8ff" stroke="#63b8ff" points="714,-44.75 717.5,-54.75 721,-44.75 714,-44.75"/>
</a>
</g>
</g>
</g>
</svg>

<g id="navigator" transform="translate(0 0)" fill="#404254">
  <rect fill="#f2f5e9" fill-opacity="0.5" stroke="#606060" stroke-width=".5" x="0" y="0" width="60" height="60"/>
  <use id="zoomplus" xlink:href="#zoomPlus" x="17" y="9" onmousedown="handleZoom(evt,'in')"/>
  <use id="zoomminus" xlink:href="#zoomMin" x="42" y="9" onmousedown="handleZoom(evt,'out')"/>
  <use id="reset" xlink:href="#resetDef" x="30" y="36" onmousedown="handleReset()"/>
   <use id="arrowup" xlink:href="#arrowUp" x="0" y="0" onmousedown="handlePan(0,-1)"/>
  <use id="arrowright" xlink:href="#arrowRight" x="0" y="0" onmousedown="handlePan(1,0)"/>
  <use id="arrowdown" xlink:href="#arrowDown" x="0" y="0" onmousedown="handlePan(0,1)"/>
  <use id="arrowleft" xlink:href="#arrowLeft" x="0" y="0" onmousedown="handlePan(-1,0)"/>
</g>
<svg viewBox="0 0 15 15" width="100%" height="30px" preserveAspectRatio="xMaxYMin meet">
 <g id="arrow_out" transform="scale(0.3 0.3)">
  <a xlink:href="render__player_8h__dep__incl_org.svg" target="_base">
   <rect id="button" ry="5" rx="5" y="6" x="6" height="38" width="38"
        fill="#f2f5e9" fill-opacity="0.5" stroke="#606060" stroke-width="1.0"/>
   <path id="arrow"
     d="M 11.500037,31.436501 C 11.940474,20.09759 22.043105,11.32322 32.158766,21.979434 L 37.068811,17.246167 C 37.068811,17.246167 37.088388,32 37.088388,32 L 22.160133,31.978069 C 22.160133,31.978069 26.997745,27.140456 26.997745,27.140456 C 18.528582,18.264221 13.291696,25.230495 11.500037,31.436501 z"
     style="fill:#404040;"/>
  </a>
 </g>
</svg>

<style type='text/css'>
<![CDATA[
[data-mouse-over-selected='false'] { opacity: 0.7; }
[data-mouse-over-selected='true']  { opacity: 1.0; }
]]>
</style>
<script type="application/ecmascript"><![CDATA[
document.addEventListener('DOMContentLoaded', (event) => {
  highlightEdges();
  highlightAdjacentNodes();
});
]]></script>
</svg>
