<?xml version="1.0" encoding="UTF-8" standalone="no"?>
<!DOCTYPE svg PUBLIC "-//W3C//DTD SVG 1.1//EN"
 "http://www.w3.org/Graphics/SVG/1.1/DTD/svg11.dtd">
<!-- Generated by graphviz version 2.43.0 (0)
 -->
<!-- Title: CourseTable Pages: 1 -->
<svg width="502pt" height="236pt"
 viewBox="0.00 0.00 501.50 236.00" xmlns="http://www.w3.org/2000/svg" xmlns:xlink="http://www.w3.org/1999/xlink">
<g id="graph0" class="graph" transform="scale(1 1) rotate(0) translate(4 232)">
<title>CourseTable</title>
<!-- Node1 -->
<g id="Node000001" class="node">
<title>Node1</title>
<g id="a_Node000001"><a xlink:title=" ">
<polygon fill="#999999" stroke="#666666" points="264.5,-19 188.5,-19 188.5,0 264.5,0 264.5,-19"/>
<text text-anchor="middle" x="226.5" y="-7" font-family="Helvetica,sans-Serif" font-size="10.00">CourseTable</text>
</a>
</g>
</g>
<!-- Node2 -->
<g id="Node000002" class="node">
<title>Node2</title>
<g id="a_Node000002"><a xlink:title=" ">
<polygon fill="white" stroke="#666666" points="85,-151 0,-151 0,-132 85,-132 85,-151"/>
<text text-anchor="middle" x="42.5" y="-139" font-family="Helvetica,sans-Serif" font-size="10.00">unsigned char</text>
</a>
</g>
</g>
<!-- Node2&#45;&gt;Node1 -->
<g id="edge1_Node000001_Node000002" class="edge">
<title>Node2&#45;&gt;Node1</title>
<g id="a_edge1_Node000001_Node000002"><a xlink:title=" ">
<path fill="none" stroke="#9a32cd" stroke-dasharray="5,2" d="M38.81,-121.9C35.4,-98.72 33.7,-59.44 55.5,-37 73.4,-18.58 143.68,-12.94 188.38,-11.23"/>
<polygon fill="#9a32cd" stroke="#9a32cd" points="35.38,-122.58 40.53,-131.84 42.28,-121.39 35.38,-122.58"/>
</a>
</g>
<text text-anchor="middle" x="94.5" y="-106" font-family="Helvetica,sans-Serif" font-size="10.00" fill="grey"> dlRomEnd</text>
<text text-anchor="middle" x="94.5" y="-95" font-family="Helvetica,sans-Serif" font-size="10.00" fill="grey">dlRomStart</text>
<text text-anchor="middle" x="94.5" y="-84" font-family="Helvetica,sans-Serif" font-size="10.00" fill="grey">offsetRomEnd</text>
<text text-anchor="middle" x="94.5" y="-73" font-family="Helvetica,sans-Serif" font-size="10.00" fill="grey">offsetRomStart</text>
<text text-anchor="middle" x="94.5" y="-62" font-family="Helvetica,sans-Serif" font-size="10.00" fill="grey">packedStart</text>
<text text-anchor="middle" x="94.5" y="-51" font-family="Helvetica,sans-Serif" font-size="10.00" fill="grey">vertexRomEnd</text>
<text text-anchor="middle" x="94.5" y="-40" font-family="Helvetica,sans-Serif" font-size="10.00" fill="grey">vertexRomStart</text>
</g>
<!-- Node3 -->
<g id="Node000003" class="node">
<title>Node3</title>
<g id="a_Node000003"><a xlink:href="structmk64__Vtx.html" target="_top" xlink:title=" ">
<polygon fill="white" stroke="#666666" points="169.5,-151 103.5,-151 103.5,-132 169.5,-132 169.5,-151"/>
<text text-anchor="middle" x="136.5" y="-139" font-family="Helvetica,sans-Serif" font-size="10.00">mk64_Vtx</text>
</a>
</g>
</g>
<!-- Node3&#45;&gt;Node1 -->
<g id="edge2_Node000001_Node000003" class="edge">
<title>Node3&#45;&gt;Node1</title>
<g id="a_edge2_Node000001_Node000003"><a xlink:title=" ">
<path fill="none" stroke="#9a32cd" stroke-dasharray="5,2" d="M136.8,-121.83C138.13,-99.18 143.61,-61.04 164.5,-37 171.64,-28.78 181.78,-23.04 191.79,-19.06"/>
<polygon fill="#9a32cd" stroke="#9a32cd" points="133.3,-121.72 136.43,-131.84 140.3,-121.98 133.3,-121.72"/>
</a>
</g>
<text text-anchor="middle" x="193.5" y="-73" font-family="Helvetica,sans-Serif" font-size="10.00" fill="grey"> vertexStart</text>
</g>
<!-- Node4 -->
<g id="Node000004" class="node">
<title>Node4</title>
<g id="a_Node000004"><a xlink:title=" ">
<polygon fill="white" stroke="#666666" points="125,-228 96,-228 96,-209 125,-209 125,-228"/>
<text text-anchor="middle" x="110.5" y="-216" font-family="Helvetica,sans-Serif" font-size="10.00">int</text>
</a>
</g>
</g>
<!-- Node4&#45;&gt;Node3 -->
<g id="edge3_Node000003_Node000004" class="edge">
<title>Node4&#45;&gt;Node3</title>
<g id="a_edge3_Node000003_Node000004"><a xlink:title=" ">
<path fill="none" stroke="#9a32cd" stroke-dasharray="5,2" d="M115.2,-198.88C117.67,-189.77 120.92,-178.7 124.5,-169 126.74,-162.93 129.74,-156.31 132.18,-151.2"/>
<polygon fill="#9a32cd" stroke="#9a32cd" points="111.75,-198.23 112.61,-208.79 118.52,-200 111.75,-198.23"/>
</a>
</g>
<text text-anchor="middle" x="132.5" y="-183" font-family="Helvetica,sans-Serif" font-size="10.00" fill="grey"> ob</text>
<text text-anchor="middle" x="132.5" y="-172" font-family="Helvetica,sans-Serif" font-size="10.00" fill="grey">tc</text>
</g>
<!-- Node5 -->
<g id="Node000005" class="node">
<title>Node5</title>
<g id="a_Node000005"><a xlink:title=" ">
<polygon fill="white" stroke="#666666" points="181.5,-228 143.5,-228 143.5,-209 181.5,-209 181.5,-228"/>
<text text-anchor="middle" x="162.5" y="-216" font-family="Helvetica,sans-Serif" font-size="10.00">char</text>
</a>
</g>
</g>
<!-- Node5&#45;&gt;Node3 -->
<g id="edge4_Node000003_Node000005" class="edge">
<title>Node5&#45;&gt;Node3</title>
<g id="a_edge4_Node000003_Node000005"><a xlink:title=" ">
<path fill="none" stroke="#9a32cd" stroke-dasharray="5,2" d="M156.23,-199.42C150.91,-184.06 143.5,-162.7 139.45,-151"/>
<polygon fill="#9a32cd" stroke="#9a32cd" points="152.94,-200.59 159.52,-208.9 159.55,-198.3 152.94,-200.59"/>
</a>
</g>
<text text-anchor="middle" x="160" y="-177.5" font-family="Helvetica,sans-Serif" font-size="10.00" fill="grey"> ca</text>
</g>
<!-- Node6 -->
<g id="Node000006" class="node">
<title>Node6</title>
<g id="a_Node000006"><a xlink:title=" ">
<polygon fill="white" stroke="#666666" points="265,-151 188,-151 188,-132 265,-132 265,-151"/>
<text text-anchor="middle" x="226.5" y="-139" font-family="Helvetica,sans-Serif" font-size="10.00">unsigned int</text>
</a>
</g>
</g>
<!-- Node6&#45;&gt;Node1 -->
<g id="edge5_Node000001_Node000006" class="edge">
<title>Node6&#45;&gt;Node1</title>
<g id="a_edge5_Node000001_Node000006"><a xlink:title=" ">
<path fill="none" stroke="#9a32cd" stroke-dasharray="5,2" d="M226.5,-121.73C226.5,-93.22 226.5,-40.09 226.5,-19.23"/>
<polygon fill="#9a32cd" stroke="#9a32cd" points="223,-121.97 226.5,-131.97 230,-121.97 223,-121.97"/>
</a>
</g>
<text text-anchor="middle" x="257" y="-78.5" font-family="Helvetica,sans-Serif" font-size="10.00" fill="grey"> textures</text>
<text text-anchor="middle" x="257" y="-67.5" font-family="Helvetica,sans-Serif" font-size="10.00" fill="grey">vertexCount</text>
</g>
<!-- Node7 -->
<g id="Node000007" class="node">
<title>Node7</title>
<g id="a_Node000007"><a xlink:title=" ">
<polygon fill="white" stroke="#666666" points="341.5,-151 283.5,-151 283.5,-132 341.5,-132 341.5,-151"/>
<text text-anchor="middle" x="312.5" y="-139" font-family="Helvetica,sans-Serif" font-size="10.00">uintptr_t</text>
</a>
</g>
</g>
<!-- Node7&#45;&gt;Node1 -->
<g id="edge6_Node000001_Node000007" class="edge">
<title>Node7&#45;&gt;Node1</title>
<g id="a_edge6_Node000001_Node000007"><a xlink:title=" ">
<path fill="none" stroke="#9a32cd" stroke-dasharray="5,2" d="M310.4,-121.67C307.13,-95.44 300.08,-49.68 289.5,-37 282.58,-28.71 272.62,-22.97 262.65,-19.01"/>
<polygon fill="#9a32cd" stroke="#9a32cd" points="306.95,-122.34 311.6,-131.86 313.91,-121.52 306.95,-122.34"/>
</a>
</g>
<text text-anchor="middle" x="361.5" y="-73" font-family="Helvetica,sans-Serif" font-size="10.00" fill="grey"> finalDisplaylistOffset</text>
</g>
<!-- Node8 -->
<g id="Node000008" class="node">
<title>Node8</title>
<g id="a_Node000008"><a xlink:title=" ">
<polygon fill="white" stroke="#666666" points="492.5,-151 388.5,-151 388.5,-132 492.5,-132 492.5,-151"/>
<text text-anchor="middle" x="440.5" y="-139" font-family="Helvetica,sans-Serif" font-size="10.00">unsigned short int</text>
</a>
</g>
</g>
<!-- Node8&#45;&gt;Node1 -->
<g id="edge7_Node000001_Node000008" class="edge">
<title>Node8&#45;&gt;Node1</title>
<g id="a_edge7_Node000001_Node000008"><a xlink:title=" ">
<path fill="none" stroke="#9a32cd" stroke-dasharray="5,2" d="M442.41,-121.63C443.63,-98.18 441.73,-58.61 418.5,-37 396.82,-16.83 314.2,-11.87 264.68,-10.74"/>
<polygon fill="#9a32cd" stroke="#9a32cd" points="438.91,-121.46 441.63,-131.7 445.89,-122 438.91,-121.46"/>
</a>
</g>
<text text-anchor="middle" x="468" y="-78.5" font-family="Helvetica,sans-Serif" font-size="10.00" fill="grey"> padding</text>
<text text-anchor="middle" x="468" y="-67.5" font-family="Helvetica,sans-Serif" font-size="10.00" fill="grey">unknown1</text>
</g>
</g>
</svg>
