<?xml version="1.0" encoding="UTF-8" standalone="no"?>
<!DOCTYPE svg PUBLIC "-//W3C//DTD SVG 1.1//EN"
 "http://www.w3.org/Graphics/SVG/1.1/DTD/svg11.dtd">
<!-- Generated by graphviz version 2.43.0 (0)
 -->
<!-- Title: init_hot_air_balloon Pages: 1 -->
<svg width="1859pt" height="477pt"
 viewBox="0.00 0.00 1859.00 476.50" xmlns="http://www.w3.org/2000/svg" xmlns:xlink="http://www.w3.org/1999/xlink">
<g id="graph0" class="graph" transform="scale(1 1) rotate(0) translate(4 472.5)">
<title>init_hot_air_balloon</title>
<!-- Node1 -->
<g id="Node000001" class="node">
<title>Node1</title>
<g id="a_Node000001"><a xlink:title=" ">
<polygon fill="#999999" stroke="#666666" points="113,-274 0,-274 0,-255 113,-255 113,-274"/>
<text text-anchor="middle" x="56.5" y="-262" font-family="Helvetica,sans-Serif" font-size="10.00">init_hot_air_balloon</text>
</a>
</g>
</g>
<!-- Node2 -->
<g id="Node000002" class="node">
<title>Node2</title>
<g id="a_Node000002"><a xlink:href="update__objects_8c.html#a91e6ccbfa10d972106998ad26b271c17" target="_top" xlink:title=" ">
<polygon fill="white" stroke="#666666" points="253.5,-423 162.5,-423 162.5,-404 253.5,-404 253.5,-423"/>
<text text-anchor="middle" x="208" y="-411" font-family="Helvetica,sans-Serif" font-size="10.00">func_80072488</text>
</a>
</g>
</g>
<!-- Node1&#45;&gt;Node2 -->
<g id="edge1_Node000001_Node000002" class="edge">
<title>Node1&#45;&gt;Node2</title>
<g id="a_edge1_Node000001_Node000002"><a xlink:title=" ">
<path fill="none" stroke="#63b8ff" d="M62.98,-274.29C75.66,-296.24 109.01,-350.07 149,-383.5 156.41,-389.69 165.31,-395.09 173.89,-399.53"/>
<polygon fill="#63b8ff" stroke="#63b8ff" points="172.46,-402.73 182.99,-403.96 175.53,-396.44 172.46,-402.73"/>
</a>
</g>
</g>
<!-- Node5 -->
<g id="Node000005" class="node">
<title>Node5</title>
<g id="a_Node000005"><a xlink:href="code__80086E70_8c.html#a79b65858840f21f273d4c8fe80b56fe5" target="_top" xlink:title=" ">
<polygon fill="white" stroke="#666666" points="253.5,-374 162.5,-374 162.5,-355 253.5,-355 253.5,-374"/>
<text text-anchor="middle" x="208" y="-362" font-family="Helvetica,sans-Serif" font-size="10.00">func_80086EF0</text>
</a>
</g>
</g>
<!-- Node1&#45;&gt;Node5 -->
<g id="edge4_Node000001_Node000005" class="edge">
<title>Node1&#45;&gt;Node5</title>
<g id="a_edge4_Node000001_Node000005"><a xlink:title=" ">
<path fill="none" stroke="#63b8ff" d="M71.83,-274.09C97.78,-291.44 152.71,-328.19 183.97,-349.1"/>
<polygon fill="#63b8ff" stroke="#63b8ff" points="182.23,-352.14 192.49,-354.79 186.12,-346.32 182.23,-352.14"/>
</a>
</g>
</g>
<!-- Node7 -->
<g id="Node000007" class="node">
<title>Node7</title>
<g id="a_Node000007"><a xlink:href="code__80086E70_8c.html#ae0499dac45e7e9f8e247a851401d8716" target="_top" xlink:title=" ">
<polygon fill="white" stroke="#666666" points="418.5,-346 327.5,-346 327.5,-327 418.5,-327 418.5,-346"/>
<text text-anchor="middle" x="373" y="-334" font-family="Helvetica,sans-Serif" font-size="10.00">func_800886F4</text>
</a>
</g>
</g>
<!-- Node1&#45;&gt;Node7 -->
<g id="edge7_Node000001_Node000007" class="edge">
<title>Node1&#45;&gt;Node7</title>
<g id="a_edge7_Node000001_Node000007"><a xlink:title=" ">
<path fill="none" stroke="#63b8ff" d="M99.26,-274.06C156.24,-287.11 258.31,-310.47 320.13,-324.62"/>
<polygon fill="#63b8ff" stroke="#63b8ff" points="319.54,-328.08 330.06,-326.9 321.1,-321.26 319.54,-328.08"/>
</a>
</g>
</g>
<!-- Node16 -->
<g id="Node000016" class="node">
<title>Node16</title>
<g id="a_Node000016"><a xlink:href="code__80086E70_8c.html#aca89708b0868138c58f8d56712d2d815" target="_top" xlink:title=" ">
<polygon fill="white" stroke="#666666" points="254,-237 162,-237 162,-218 254,-218 254,-237"/>
<text text-anchor="middle" x="208" y="-225" font-family="Helvetica,sans-Serif" font-size="10.00">func_8008B844</text>
</a>
</g>
</g>
<!-- Node1&#45;&gt;Node16 -->
<g id="edge17_Node000001_Node000016" class="edge">
<title>Node1&#45;&gt;Node16</title>
<g id="a_edge17_Node000001_Node000016"><a xlink:title=" ">
<path fill="none" stroke="#63b8ff" d="M96,-254.97C115.02,-250.26 138.17,-244.53 158.4,-239.53"/>
<polygon fill="#63b8ff" stroke="#63b8ff" points="159.5,-242.86 168.37,-237.06 157.82,-236.07 159.5,-242.86"/>
</a>
</g>
</g>
<!-- Node17 -->
<g id="Node000017" class="node">
<title>Node17</title>
<g id="a_Node000017"><a xlink:href="actors_8c.html#ac5750654b812a09a6a1e1894cc0dcd45" target="_top" xlink:title=" ">
<polygon fill="white" stroke="#666666" points="254.5,-274 161.5,-274 161.5,-255 254.5,-255 254.5,-274"/>
<text text-anchor="middle" x="208" y="-262" font-family="Helvetica,sans-Serif" font-size="10.00">func_802A14BC</text>
</a>
</g>
</g>
<!-- Node1&#45;&gt;Node17 -->
<g id="edge18_Node000001_Node000017" class="edge">
<title>Node1&#45;&gt;Node17</title>
<g id="a_edge18_Node000001_Node000017"><a xlink:title=" ">
<path fill="none" stroke="#63b8ff" d="M113.17,-264.5C125.49,-264.5 138.56,-264.5 150.9,-264.5"/>
<polygon fill="#63b8ff" stroke="#63b8ff" points="151.06,-268 161.06,-264.5 151.06,-261 151.06,-268"/>
</a>
</g>
</g>
<!-- Node38 -->
<g id="Node000038" class="node">
<title>Node38</title>
<g id="a_Node000038"><a xlink:href="code__80086E70_8c.html#ac9171108201f29dda52974a4a5c68a04" target="_top" xlink:title=" ">
<polygon fill="white" stroke="#666666" points="267,-200 149,-200 149,-181 267,-181 267,-200"/>
<text text-anchor="middle" x="208" y="-188" font-family="Helvetica,sans-Serif" font-size="10.00">set_obj_origin_offset</text>
</a>
</g>
</g>
<!-- Node1&#45;&gt;Node38 -->
<g id="edge44_Node000001_Node000038" class="edge">
<title>Node1&#45;&gt;Node38</title>
<g id="a_edge44_Node000001_Node000038"><a xlink:title=" ">
<path fill="none" stroke="#63b8ff" d="M70.86,-254.85C88.18,-242.69 119.65,-221.79 149,-208.5 153.05,-206.67 157.35,-204.95 161.69,-203.35"/>
<polygon fill="#63b8ff" stroke="#63b8ff" points="162.89,-206.64 171.21,-200.08 160.61,-200.02 162.89,-206.64"/>
</a>
</g>
</g>
<!-- Node39 -->
<g id="Node000039" class="node">
<title>Node39</title>
<g id="a_Node000039"><a xlink:href="code__80086E70_8c.html#a670bd4aa157a5ec3dd6a4f4335a13ea4" target="_top" xlink:title=" ">
<polygon fill="white" stroke="#666666" points="261.5,-163 154.5,-163 154.5,-144 261.5,-144 261.5,-163"/>
<text text-anchor="middle" x="208" y="-151" font-family="Helvetica,sans-Serif" font-size="10.00">set_obj_origin_pos</text>
</a>
</g>
</g>
<!-- Node1&#45;&gt;Node39 -->
<g id="edge45_Node000001_Node000039" class="edge">
<title>Node1&#45;&gt;Node39</title>
<g id="a_edge45_Node000001_Node000039"><a xlink:title=" ">
<path fill="none" stroke="#63b8ff" d="M64.4,-254.8C78.28,-235.98 111.48,-194.36 149,-171.5 151.66,-169.88 154.48,-168.39 157.38,-167.03"/>
<polygon fill="#63b8ff" stroke="#63b8ff" points="158.97,-170.16 166.87,-163.1 156.29,-163.7 158.97,-170.16"/>
</a>
</g>
</g>
<!-- Node3 -->
<g id="Node000003" class="node">
<title>Node3</title>
<g id="a_Node000003"><a xlink:href="update__objects_8c.html#ad33541b9fed7857e59b2d745298f2d44" target="_top" xlink:title=" ">
<polygon fill="white" stroke="#666666" points="616.5,-468.5 491.5,-468.5 491.5,-438.5 616.5,-438.5 616.5,-468.5"/>
<text text-anchor="start" x="499.5" y="-456.5" font-family="Helvetica,sans-Serif" font-size="10.00">set_object_flag_status</text>
<text text-anchor="middle" x="554" y="-445.5" font-family="Helvetica,sans-Serif" font-size="10.00">_false</text>
</a>
</g>
</g>
<!-- Node2&#45;&gt;Node3 -->
<g id="edge2_Node000002_Node000003" class="edge">
<title>Node2&#45;&gt;Node3</title>
<g id="a_edge2_Node000002_Node000003"><a xlink:title=" ">
<path fill="none" stroke="#63b8ff" d="M250.93,-423.06C267.13,-426.46 285.86,-430.06 303,-432.5 362.8,-441.03 431.19,-446.48 481.3,-449.68"/>
<polygon fill="#63b8ff" stroke="#63b8ff" points="481.19,-453.18 491.39,-450.31 481.63,-446.2 481.19,-453.18"/>
</a>
</g>
</g>
<!-- Node4 -->
<g id="Node000004" class="node">
<title>Node4</title>
<g id="a_Node000004"><a xlink:href="update__objects_8c.html#a4b4f00a7df0f9bc44914cd922c3cd51b" target="_top" xlink:title=" ">
<polygon fill="white" stroke="#666666" points="430.5,-423 315.5,-423 315.5,-404 430.5,-404 430.5,-423"/>
<text text-anchor="middle" x="373" y="-411" font-family="Helvetica,sans-Serif" font-size="10.00">set_object_unk_0CB</text>
</a>
</g>
</g>
<!-- Node2&#45;&gt;Node4 -->
<g id="edge3_Node000002_Node000004" class="edge">
<title>Node2&#45;&gt;Node4</title>
<g id="a_edge3_Node000002_Node000004"><a xlink:title=" ">
<path fill="none" stroke="#63b8ff" d="M253.54,-413.5C269.46,-413.5 287.76,-413.5 305.14,-413.5"/>
<polygon fill="#63b8ff" stroke="#63b8ff" points="305.25,-417 315.25,-413.5 305.25,-410 305.25,-417"/>
</a>
</g>
</g>
<!-- Node6 -->
<g id="Node000006" class="node">
<title>Node6</title>
<g id="a_Node000006"><a xlink:href="code__80086E70_8c.html#ad844d2fe27c3f0bb5979715fae72559a" target="_top" xlink:title=" ">
<polygon fill="white" stroke="#666666" points="418.5,-383 327.5,-383 327.5,-364 418.5,-364 418.5,-383"/>
<text text-anchor="middle" x="373" y="-371" font-family="Helvetica,sans-Serif" font-size="10.00">func_80086E70</text>
</a>
</g>
</g>
<!-- Node5&#45;&gt;Node6 -->
<g id="edge5_Node000005_Node000006" class="edge">
<title>Node5&#45;&gt;Node6</title>
<g id="a_edge5_Node000005_Node000006"><a xlink:title=" ">
<path fill="none" stroke="#63b8ff" d="M253.54,-366.96C273.14,-368.04 296.35,-369.32 317.01,-370.46"/>
<polygon fill="#63b8ff" stroke="#63b8ff" points="317.05,-373.97 327.23,-371.03 317.44,-366.98 317.05,-373.97"/>
</a>
</g>
</g>
<!-- Node6&#45;&gt;Node3 -->
<g id="edge6_Node000006_Node000003" class="edge">
<title>Node6&#45;&gt;Node3</title>
<g id="a_edge6_Node000006_Node000003"><a xlink:title=" ">
<path fill="none" stroke="#63b8ff" d="M414.35,-383.03C424.1,-386.23 434.23,-390.33 443,-395.5 461.96,-406.68 460.07,-418.28 479,-429.5 481.85,-431.19 484.83,-432.77 487.89,-434.26"/>
<polygon fill="#63b8ff" stroke="#63b8ff" points="486.7,-437.56 497.26,-438.42 489.54,-431.16 486.7,-437.56"/>
</a>
</g>
</g>
<!-- Node7&#45;&gt;Node3 -->
<g id="edge15_Node000007_Node000003" class="edge">
<title>Node7&#45;&gt;Node3</title>
<g id="a_edge15_Node000007_Node000003"><a xlink:title=" ">
<path fill="none" stroke="#63b8ff" d="M418.67,-342.86C427.42,-345.67 436.02,-349.7 443,-355.5 471.13,-378.88 451.4,-405.5 479,-429.5 480.49,-430.8 482.05,-432.02 483.67,-433.18"/>
<polygon fill="#63b8ff" stroke="#63b8ff" points="481.85,-436.17 492.2,-438.45 485.53,-430.22 481.85,-436.17"/>
</a>
</g>
</g>
<!-- Node8 -->
<g id="Node000008" class="node">
<title>Node8</title>
<g id="a_Node000008"><a xlink:href="math__util_8c.html#aaa39a297477f56051975259f4bddd829" target="_top" xlink:title=" ">
<polygon fill="white" stroke="#666666" points="579,-420 529,-420 529,-401 579,-401 579,-420"/>
<text text-anchor="middle" x="554" y="-408" font-family="Helvetica,sans-Serif" font-size="10.00">atan2s</text>
</a>
</g>
</g>
<!-- Node7&#45;&gt;Node8 -->
<g id="edge8_Node000007_Node000008" class="edge">
<title>Node7&#45;&gt;Node8</title>
<g id="a_edge8_Node000007_Node000008"><a xlink:title=" ">
<path fill="none" stroke="#63b8ff" d="M418.85,-345.12C427.21,-347.75 435.62,-351.14 443,-355.5 462.75,-367.18 459.08,-381.12 479,-392.5 491.05,-399.38 505.66,-403.65 518.7,-406.28"/>
<polygon fill="#63b8ff" stroke="#63b8ff" points="518.28,-409.76 528.74,-408.07 519.51,-402.87 518.28,-409.76"/>
</a>
</g>
</g>
<!-- Node10 -->
<g id="Node000010" class="node">
<title>Node10</title>
<g id="a_Node000010"><a xlink:href="collision_8c.html#afa1243eb9b3a14bc92434a8a19c162be" target="_top" xlink:title=" ">
<polygon fill="white" stroke="#666666" points="600,-383 508,-383 508,-364 600,-364 600,-383"/>
<text text-anchor="middle" x="554" y="-371" font-family="Helvetica,sans-Serif" font-size="10.00">func_802ABE30</text>
</a>
</g>
</g>
<!-- Node7&#45;&gt;Node10 -->
<g id="edge10_Node000007_Node000010" class="edge">
<title>Node7&#45;&gt;Node10</title>
<g id="a_edge10_Node000007_Node000010"><a xlink:title=" ">
<path fill="none" stroke="#63b8ff" d="M418.71,-345.74C442.75,-350.71 472.6,-356.88 498.05,-362.14"/>
<polygon fill="#63b8ff" stroke="#63b8ff" points="497.43,-365.59 507.93,-364.18 498.85,-358.73 497.43,-365.59"/>
</a>
</g>
</g>
<!-- Node11 -->
<g id="Node000011" class="node">
<title>Node11</title>
<g id="a_Node000011"><a xlink:href="collision_8c.html#a365367628b7140a7a880beeecce9c305" target="_top" xlink:title=" ">
<polygon fill="white" stroke="#666666" points="896.5,-326 801.5,-326 801.5,-307 896.5,-307 896.5,-326"/>
<text text-anchor="middle" x="849" y="-314" font-family="Helvetica,sans-Serif" font-size="10.00">func_802ADDC8</text>
</a>
</g>
</g>
<!-- Node7&#45;&gt;Node11 -->
<g id="edge11_Node000007_Node000011" class="edge">
<title>Node7&#45;&gt;Node11</title>
<g id="a_edge11_Node000007_Node000011"><a xlink:title=" ">
<path fill="none" stroke="#63b8ff" d="M418.59,-334.62C505.2,-330.96 696.01,-322.91 791.4,-318.89"/>
<polygon fill="#63b8ff" stroke="#63b8ff" points="791.59,-322.38 801.43,-318.46 791.3,-315.39 791.59,-322.38"/>
</a>
</g>
</g>
<!-- Node15 -->
<g id="Node000015" class="node">
<title>Node15</title>
<g id="a_Node000015"><a xlink:href="update__objects_8c.html#a00a4e96fc9576ef2552de1c51cf2aa7c" target="_top" xlink:title=" ">
<polygon fill="white" stroke="#666666" points="629,-307 479,-307 479,-288 629,-288 629,-307"/>
<text text-anchor="middle" x="554" y="-295" font-family="Helvetica,sans-Serif" font-size="10.00">set_object_flag_status_true</text>
</a>
</g>
</g>
<!-- Node7&#45;&gt;Node15 -->
<g id="edge16_Node000007_Node000015" class="edge">
<title>Node7&#45;&gt;Node15</title>
<g id="a_edge16_Node000007_Node000015"><a xlink:title=" ">
<path fill="none" stroke="#63b8ff" d="M417.79,-326.96C442.37,-321.6 473.23,-314.88 499.27,-309.21"/>
<polygon fill="#63b8ff" stroke="#63b8ff" points="500.33,-312.56 509.35,-307.01 498.84,-305.72 500.33,-312.56"/>
</a>
</g>
</g>
<!-- Node9 -->
<g id="Node000009" class="node">
<title>Node9</title>
<g id="a_Node000009"><a xlink:href="math__util_8c.html#a0273b0ea0783a06996c28669a7438ed9" target="_top" xlink:title=" ">
<polygon fill="white" stroke="#666666" points="747,-420 665,-420 665,-401 747,-401 747,-420"/>
<text text-anchor="middle" x="706" y="-408" font-family="Helvetica,sans-Serif" font-size="10.00">atan2_lookup</text>
</a>
</g>
</g>
<!-- Node8&#45;&gt;Node9 -->
<g id="edge9_Node000008_Node000009" class="edge">
<title>Node8&#45;&gt;Node9</title>
<g id="a_edge9_Node000008_Node000009"><a xlink:title=" ">
<path fill="none" stroke="#63b8ff" d="M579.1,-410.5C599.41,-410.5 629.14,-410.5 654.62,-410.5"/>
<polygon fill="#63b8ff" stroke="#63b8ff" points="654.87,-414 664.87,-410.5 654.87,-407 654.87,-414"/>
</a>
</g>
</g>
<!-- Node12 -->
<g id="Node000012" class="node">
<title>Node12</title>
<g id="a_Node000012"><a xlink:href="collision_8c.html#afce45acb8da354da0a5b501003be1aef" target="_top" xlink:title=" ">
<polygon fill="white" stroke="#666666" points="1073.5,-289 980.5,-289 980.5,-270 1073.5,-270 1073.5,-289"/>
<text text-anchor="middle" x="1027" y="-277" font-family="Helvetica,sans-Serif" font-size="10.00">func_802AAE4C</text>
</a>
</g>
</g>
<!-- Node11&#45;&gt;Node12 -->
<g id="edge12_Node000011_Node000012" class="edge">
<title>Node11&#45;&gt;Node12</title>
<g id="a_edge12_Node000011_Node000012"><a xlink:title=" ">
<path fill="none" stroke="#63b8ff" d="M895.32,-306.97C918.33,-302.14 946.47,-296.22 970.74,-291.12"/>
<polygon fill="#63b8ff" stroke="#63b8ff" points="971.46,-294.54 980.52,-289.06 970.02,-287.69 971.46,-294.54"/>
</a>
</g>
</g>
<!-- Node13 -->
<g id="Node000013" class="node">
<title>Node13</title>
<g id="a_Node000013"><a xlink:href="collision_8c.html#adcc608ea0eae3bf9a27ab79ec64b4899" target="_top" xlink:title=" ">
<polygon fill="white" stroke="#666666" points="1073,-363 981,-363 981,-344 1073,-344 1073,-363"/>
<text text-anchor="middle" x="1027" y="-351" font-family="Helvetica,sans-Serif" font-size="10.00">func_802AB288</text>
</a>
</g>
</g>
<!-- Node11&#45;&gt;Node13 -->
<g id="edge13_Node000011_Node000013" class="edge">
<title>Node11&#45;&gt;Node13</title>
<g id="a_edge13_Node000011_Node000013"><a xlink:title=" ">
<path fill="none" stroke="#63b8ff" d="M895.32,-326.03C918.42,-330.88 946.69,-336.83 971.02,-341.94"/>
<polygon fill="#63b8ff" stroke="#63b8ff" points="970.32,-345.37 980.83,-344 971.76,-338.52 970.32,-345.37"/>
</a>
</g>
</g>
<!-- Node14 -->
<g id="Node000014" class="node">
<title>Node14</title>
<g id="a_Node000014"><a xlink:href="collision_8c.html#ab440aa3fc960b7b4b5ad8e4bcaa06b00" target="_top" xlink:title=" ">
<polygon fill="white" stroke="#666666" points="1073.5,-326 980.5,-326 980.5,-307 1073.5,-307 1073.5,-326"/>
<text text-anchor="middle" x="1027" y="-314" font-family="Helvetica,sans-Serif" font-size="10.00">func_802AB6C4</text>
</a>
</g>
</g>
<!-- Node11&#45;&gt;Node14 -->
<g id="edge14_Node000011_Node000014" class="edge">
<title>Node11&#45;&gt;Node14</title>
<g id="a_edge14_Node000011_Node000014"><a xlink:title=" ">
<path fill="none" stroke="#63b8ff" d="M896.7,-316.5C919.24,-316.5 946.44,-316.5 970.07,-316.5"/>
<polygon fill="#63b8ff" stroke="#63b8ff" points="970.3,-320 980.3,-316.5 970.3,-313 970.3,-320"/>
</a>
</g>
</g>
<!-- Node18 -->
<g id="Node000018" class="node">
<title>Node18</title>
<g id="a_Node000018"><a xlink:href="actors_8c.html#a91fb2e4e37e7c72fea918fe2c1bb4eaf" target="_top" xlink:title=" ">
<polygon fill="white" stroke="#666666" points="443,-175 303,-175 303,-156 443,-156 443,-175"/>
<text text-anchor="middle" x="373" y="-163" font-family="Helvetica,sans-Serif" font-size="10.00">add_actor_to_empty_slot</text>
</a>
</g>
</g>
<!-- Node17&#45;&gt;Node18 -->
<g id="edge19_Node000017_Node000018" class="edge">
<title>Node17&#45;&gt;Node18</title>
<g id="a_edge19_Node000017_Node000018"><a xlink:title=" ">
<path fill="none" stroke="#63b8ff" d="M248.46,-254.88C254.95,-252.39 261.38,-249.3 267,-245.5 287.64,-231.53 283.67,-218.23 303,-202.5 314.17,-193.41 327.92,-185.5 340.2,-179.36"/>
<polygon fill="#63b8ff" stroke="#63b8ff" points="341.74,-182.5 349.23,-175.01 338.7,-176.2 341.74,-182.5"/>
</a>
</g>
</g>
<!-- Node33 -->
<g id="Node000033" class="node">
<title>Node33</title>
<g id="a_Node000033"><a xlink:href="math__util_8c.html#a79fd07a0971ec96a3ff0801963a2fa7f" target="_top" xlink:title=" ">
<polygon fill="white" stroke="#666666" points="1059,-223 995,-223 995,-204 1059,-204 1059,-223"/>
<text text-anchor="middle" x="1027" y="-211" font-family="Helvetica,sans-Serif" font-size="10.00">vec3f_set</text>
</a>
</g>
</g>
<!-- Node17&#45;&gt;Node33 -->
<g id="edge42_Node000017_Node000033" class="edge">
<title>Node17&#45;&gt;Node33</title>
<g id="a_edge42_Node000017_Node000033"><a xlink:title=" ">
<path fill="none" stroke="#63b8ff" d="M254.63,-263.42C320.5,-261.94 446.09,-259.5 553,-259.5 553,-259.5 553,-259.5 707,-259.5 799.87,-259.5 823.36,-254.57 915,-239.5 938.33,-235.66 964.06,-229.75 984.86,-224.53"/>
<polygon fill="#63b8ff" stroke="#63b8ff" points="985.82,-227.89 994.65,-222.03 984.09,-221.11 985.82,-227.89"/>
</a>
</g>
</g>
<!-- Node37 -->
<g id="Node000037" class="node">
<title>Node37</title>
<g id="a_Node000037"><a xlink:href="math__util_8c.html#a9092c945c52b3a3481228b2724991e3c" target="_top" xlink:title=" ">
<polygon fill="white" stroke="#666666" points="405.5,-231 340.5,-231 340.5,-212 405.5,-212 405.5,-231"/>
<text text-anchor="middle" x="373" y="-219" font-family="Helvetica,sans-Serif" font-size="10.00">vec3s_set</text>
</a>
</g>
</g>
<!-- Node17&#45;&gt;Node37 -->
<g id="edge43_Node000017_Node000037" class="edge">
<title>Node17&#45;&gt;Node37</title>
<g id="a_edge43_Node000017_Node000037"><a xlink:title=" ">
<path fill="none" stroke="#63b8ff" d="M245.17,-254.96C270.46,-248.29 304.27,-239.37 330.63,-232.41"/>
<polygon fill="#63b8ff" stroke="#63b8ff" points="331.55,-235.79 340.33,-229.85 329.77,-229.02 331.55,-235.79"/>
</a>
</g>
</g>
<!-- Node19 -->
<g id="Node000019" class="node">
<title>Node19</title>
<g id="a_Node000019"><a xlink:href="actors_8c.html#a39c023177b5a7686cdd1fc65b8b953e1" target="_top" xlink:title=" ">
<polygon fill="white" stroke="#666666" points="737,-175 675,-175 675,-156 737,-156 737,-175"/>
<text text-anchor="middle" x="706" y="-163" font-family="Helvetica,sans-Serif" font-size="10.00">actor_init</text>
</a>
</g>
</g>
<!-- Node18&#45;&gt;Node19 -->
<g id="edge20_Node000018_Node000019" class="edge">
<title>Node18&#45;&gt;Node19</title>
<g id="a_edge20_Node000018_Node000019"><a xlink:title=" ">
<path fill="none" stroke="#63b8ff" d="M443.39,-165.5C510.53,-165.5 609.97,-165.5 664.89,-165.5"/>
<polygon fill="#63b8ff" stroke="#63b8ff" points="664.93,-169 674.93,-165.5 664.93,-162 664.93,-169"/>
</a>
</g>
</g>
<!-- Node36 -->
<g id="Node000036" class="node">
<title>Node36</title>
<g id="a_Node000036"><a xlink:href="actors_8c.html#a0c9d11d8956bf92c32a5e9bafd7036e6" target="_top" xlink:title=" ">
<polygon fill="white" stroke="#666666" points="599.5,-113 508.5,-113 508.5,-94 599.5,-94 599.5,-113"/>
<text text-anchor="middle" x="554" y="-101" font-family="Helvetica,sans-Serif" font-size="10.00">func_8029E890</text>
</a>
</g>
</g>
<!-- Node18&#45;&gt;Node36 -->
<g id="edge38_Node000018_Node000036" class="edge">
<title>Node18&#45;&gt;Node36</title>
<g id="a_edge38_Node000018_Node000036"><a xlink:title=" ">
<path fill="none" stroke="#63b8ff" d="M401.58,-155.95C432.19,-145.34 481.77,-128.17 515.8,-116.38"/>
<polygon fill="#63b8ff" stroke="#63b8ff" points="517.09,-119.64 525.39,-113.06 514.8,-113.03 517.09,-119.64"/>
</a>
</g>
</g>
<!-- Node19&#45;&gt;Node11 -->
<g id="edge35_Node000019_Node000011" class="edge">
<title>Node19&#45;&gt;Node11</title>
<g id="a_edge35_Node000019_Node000011"><a xlink:title=" ">
<path fill="none" stroke="#63b8ff" d="M716.25,-175.41C739.76,-200.58 802.03,-267.27 831.76,-299.11"/>
<polygon fill="#63b8ff" stroke="#63b8ff" points="829.51,-301.83 838.9,-306.75 834.63,-297.05 829.51,-301.83"/>
</a>
</g>
</g>
<!-- Node20 -->
<g id="Node000020" class="node">
<title>Node20</title>
<g id="a_Node000020"><a xlink:href="actors_8c.html#a1a9bccb586242555a9123ebd4ab70f2a" target="_top" xlink:title=" ">
<polygon fill="white" stroke="#666666" points="915,-119.5 783,-119.5 783,-89.5 915,-89.5 915,-119.5"/>
<text text-anchor="start" x="791" y="-107.5" font-family="Helvetica,sans-Serif" font-size="10.00">cleanup_red_and_green</text>
<text text-anchor="middle" x="849" y="-96.5" font-family="Helvetica,sans-Serif" font-size="10.00">_shells</text>
</a>
</g>
</g>
<!-- Node19&#45;&gt;Node20 -->
<g id="edge21_Node000019_Node000020" class="edge">
<title>Node19&#45;&gt;Node20</title>
<g id="a_edge21_Node000019_Node000020"><a xlink:title=" ">
<path fill="none" stroke="#63b8ff" d="M725.5,-155.85C740.74,-148.06 763.02,-137.03 783,-128.5 787.16,-126.73 791.5,-124.95 795.87,-123.23"/>
<polygon fill="#63b8ff" stroke="#63b8ff" points="797.39,-126.39 805.45,-119.52 794.86,-119.86 797.39,-126.39"/>
</a>
</g>
</g>
<!-- Node32 -->
<g id="Node000032" class="node">
<title>Node32</title>
<g id="a_Node000032"><a xlink:href="collision_8c.html#ad72fef3ffe32191d73b1822f512ebf3f" target="_top" xlink:title=" ">
<polygon fill="white" stroke="#666666" points="896.5,-194 801.5,-194 801.5,-175 896.5,-175 896.5,-194"/>
<text text-anchor="middle" x="849" y="-182" font-family="Helvetica,sans-Serif" font-size="10.00">func_802AAAAC</text>
</a>
</g>
</g>
<!-- Node19&#45;&gt;Node32 -->
<g id="edge33_Node000019_Node000032" class="edge">
<title>Node19&#45;&gt;Node32</title>
<g id="a_edge33_Node000019_Node000032"><a xlink:title=" ">
<path fill="none" stroke="#63b8ff" d="M737.25,-169.58C753.02,-171.7 772.83,-174.37 791.33,-176.86"/>
<polygon fill="#63b8ff" stroke="#63b8ff" points="791.05,-180.36 801.43,-178.22 791.99,-173.42 791.05,-180.36"/>
</a>
</g>
</g>
<!-- Node34 -->
<g id="Node000034" class="node">
<title>Node34</title>
<g id="a_Node000034"><a xlink:href="math__util_8c.html#af7b470ed76fce07b8042a47c96e5690b" target="_top" xlink:title=" ">
<polygon fill="white" stroke="#666666" points="902.5,-157 795.5,-157 795.5,-138 902.5,-138 902.5,-157"/>
<text text-anchor="middle" x="849" y="-145" font-family="Helvetica,sans-Serif" font-size="10.00">vec3f_copy_return</text>
</a>
</g>
</g>
<!-- Node19&#45;&gt;Node34 -->
<g id="edge36_Node000019_Node000034" class="edge">
<title>Node19&#45;&gt;Node34</title>
<g id="a_edge36_Node000019_Node000034"><a xlink:title=" ">
<path fill="none" stroke="#63b8ff" d="M737.25,-161.64C751.25,-159.85 768.45,-157.66 785.07,-155.53"/>
<polygon fill="#63b8ff" stroke="#63b8ff" points="785.84,-158.96 795.31,-154.23 784.95,-152.02 785.84,-158.96"/>
</a>
</g>
</g>
<!-- Node35 -->
<g id="Node000035" class="node">
<title>Node35</title>
<g id="a_Node000035"><a xlink:href="math__util_8c.html#a0e270ee67600c8c9c2f140c647d008a1" target="_top" xlink:title=" ">
<polygon fill="white" stroke="#666666" points="886,-231 812,-231 812,-212 886,-212 886,-231"/>
<text text-anchor="middle" x="849" y="-219" font-family="Helvetica,sans-Serif" font-size="10.00">vec3s_copy</text>
</a>
</g>
</g>
<!-- Node19&#45;&gt;Node35 -->
<g id="edge37_Node000019_Node000035" class="edge">
<title>Node19&#45;&gt;Node35</title>
<g id="a_edge37_Node000019_Node000035"><a xlink:title=" ">
<path fill="none" stroke="#63b8ff" d="M724.44,-175.04C739.6,-183.08 762.33,-194.51 783,-202.5 789.05,-204.84 795.5,-207.05 801.91,-209.08"/>
<polygon fill="#63b8ff" stroke="#63b8ff" points="801.29,-212.55 811.88,-212.11 803.33,-205.85 801.29,-212.55"/>
</a>
</g>
</g>
<!-- Node21 -->
<g id="Node000021" class="node">
<title>Node21</title>
<g id="a_Node000021"><a xlink:href="actors_8c.html#a694ec6ef7548b8618aeb35c038d3a9b9" target="_top" xlink:title=" ">
<polygon fill="white" stroke="#666666" points="1068.5,-117 985.5,-117 985.5,-98 1068.5,-98 1068.5,-117"/>
<text text-anchor="middle" x="1027" y="-105" font-family="Helvetica,sans-Serif" font-size="10.00">destroy_actor</text>
</a>
</g>
</g>
<!-- Node20&#45;&gt;Node21 -->
<g id="edge22_Node000020_Node000021" class="edge">
<title>Node20&#45;&gt;Node21</title>
<g id="a_edge22_Node000020_Node000021"><a xlink:title=" ">
<path fill="none" stroke="#63b8ff" d="M915.04,-105.61C934.95,-105.95 956.55,-106.32 975.35,-106.64"/>
<polygon fill="#63b8ff" stroke="#63b8ff" points="975.42,-110.14 985.48,-106.81 975.54,-103.14 975.42,-110.14"/>
</a>
</g>
</g>
<!-- Node31 -->
<g id="Node000031" class="node">
<title>Node31</title>
<g id="a_Node000031"><a xlink:href="code__80005FD0_8c.html#acb7b3d384c78d219f4b7040e78f6a2f2" target="_top" xlink:title=" ">
<polygon fill="white" stroke="#666666" points="1103,-79.5 951,-79.5 951,-49.5 1103,-49.5 1103,-79.5"/>
<text text-anchor="start" x="959" y="-67.5" font-family="Helvetica,sans-Serif" font-size="10.00">remove_actor_in_unexpired</text>
<text text-anchor="middle" x="1027" y="-56.5" font-family="Helvetica,sans-Serif" font-size="10.00">_actor_list</text>
</a>
</g>
</g>
<!-- Node20&#45;&gt;Node31 -->
<g id="edge32_Node000020_Node000031" class="edge">
<title>Node20&#45;&gt;Node31</title>
<g id="a_edge32_Node000020_Node000031"><a xlink:title=" ">
<path fill="none" stroke="#63b8ff" d="M915.04,-89.72C926.32,-87.15 938.15,-84.47 949.7,-81.84"/>
<polygon fill="#63b8ff" stroke="#63b8ff" points="950.79,-85.18 959.76,-79.55 949.23,-78.36 950.79,-85.18"/>
</a>
</g>
</g>
<!-- Node22 -->
<g id="Node000022" class="node">
<title>Node22</title>
<g id="a_Node000022"><a xlink:href="actors_8c.html#ad5a56c8f7eaf719223099cce9e38ec9f" target="_top" xlink:title=" ">
<polygon fill="white" stroke="#666666" points="1290,-74 1139,-74 1139,-55 1290,-55 1290,-74"/>
<text text-anchor="middle" x="1214.5" y="-62" font-family="Helvetica,sans-Serif" font-size="10.00">play_sound_before_destroy</text>
</a>
</g>
</g>
<!-- Node21&#45;&gt;Node22 -->
<g id="edge23_Node000021_Node000022" class="edge">
<title>Node21&#45;&gt;Node22</title>
<g id="a_edge23_Node000021_Node000022"><a xlink:title=" ">
<path fill="none" stroke="#63b8ff" d="M1068.71,-98.06C1096.18,-91.69 1132.67,-83.24 1162.14,-76.41"/>
<polygon fill="#63b8ff" stroke="#63b8ff" points="1163.29,-79.73 1172.25,-74.06 1161.71,-72.91 1163.29,-79.73"/>
</a>
</g>
</g>
<!-- Node23 -->
<g id="Node000023" class="node">
<title>Node23</title>
<g id="a_Node000023"><a xlink:href="external_8c.html#ae72057869772019e4464c87d4e16c682" target="_top" xlink:title=" ">
<polygon fill="white" stroke="#666666" points="1418,-74 1326,-74 1326,-55 1418,-55 1418,-74"/>
<text text-anchor="middle" x="1372" y="-62" font-family="Helvetica,sans-Serif" font-size="10.00">func_800C99E0</text>
</a>
</g>
</g>
<!-- Node22&#45;&gt;Node23 -->
<g id="edge24_Node000022_Node000023" class="edge">
<title>Node22&#45;&gt;Node23</title>
<g id="a_edge24_Node000022_Node000023"><a xlink:title=" ">
<path fill="none" stroke="#63b8ff" d="M1290.06,-64.5C1298.61,-64.5 1307.21,-64.5 1315.45,-64.5"/>
<polygon fill="#63b8ff" stroke="#63b8ff" points="1315.66,-68 1325.66,-64.5 1315.66,-61 1315.66,-68"/>
</a>
</g>
</g>
<!-- Node24 -->
<g id="Node000024" class="node">
<title>Node24</title>
<g id="a_Node000024"><a xlink:href="external_8c.html#aeb87c527482a244173df36a1f3d4f446" target="_top" xlink:title=" ">
<polygon fill="white" stroke="#666666" points="1546,-93 1454,-93 1454,-74 1546,-74 1546,-93"/>
<text text-anchor="middle" x="1500" y="-81" font-family="Helvetica,sans-Serif" font-size="10.00">func_800C21E8</text>
</a>
</g>
</g>
<!-- Node23&#45;&gt;Node24 -->
<g id="edge25_Node000023_Node000024" class="edge">
<title>Node23&#45;&gt;Node24</title>
<g id="a_edge25_Node000023_Node000024"><a xlink:title=" ">
<path fill="none" stroke="#63b8ff" d="M1418.13,-71.31C1426.46,-72.56 1435.23,-73.88 1443.81,-75.18"/>
<polygon fill="#63b8ff" stroke="#63b8ff" points="1443.35,-78.65 1453.76,-76.68 1444.39,-71.73 1443.35,-78.65"/>
</a>
</g>
</g>
<!-- Node25 -->
<g id="Node000025" class="node">
<title>Node25</title>
<g id="a_Node000025"><a xlink:href="external_8c.html#a028d40421b90c38f68ebfd5acc626f2e" target="_top" xlink:title=" ">
<polygon fill="white" stroke="#666666" points="1546,-56 1454,-56 1454,-37 1546,-37 1546,-56"/>
<text text-anchor="middle" x="1500" y="-44" font-family="Helvetica,sans-Serif" font-size="10.00">func_800C5578</text>
</a>
</g>
</g>
<!-- Node23&#45;&gt;Node25 -->
<g id="edge26_Node000023_Node000025" class="edge">
<title>Node23&#45;&gt;Node25</title>
<g id="a_edge26_Node000023_Node000025"><a xlink:title=" ">
<path fill="none" stroke="#63b8ff" d="M1418.13,-58.05C1426.46,-56.86 1435.23,-55.61 1443.81,-54.38"/>
<polygon fill="#63b8ff" stroke="#63b8ff" points="1444.35,-57.84 1453.76,-52.96 1443.36,-50.91 1444.35,-57.84"/>
</a>
</g>
</g>
<!-- Node26 -->
<g id="Node000026" class="node">
<title>Node26</title>
<g id="a_Node000026"><a xlink:href="external_8c.html#ac0fb767de7e14a03f1bcfa53f0abd23b" target="_top" xlink:title=" ">
<polygon fill="white" stroke="#666666" points="1722,-93 1582,-93 1582,-74 1722,-74 1722,-93"/>
<text text-anchor="middle" x="1652" y="-81" font-family="Helvetica,sans-Serif" font-size="10.00">delete_sound_from_bank</text>
</a>
</g>
</g>
<!-- Node25&#45;&gt;Node26 -->
<g id="edge27_Node000025_Node000026" class="edge">
<title>Node25&#45;&gt;Node26</title>
<g id="a_edge27_Node000025_Node000026"><a xlink:title=" ">
<path fill="none" stroke="#63b8ff" d="M1539.63,-56.03C1558.8,-60.76 1582.16,-66.52 1602.52,-71.54"/>
<polygon fill="#63b8ff" stroke="#63b8ff" points="1601.69,-74.94 1612.24,-73.94 1603.37,-68.15 1601.69,-74.94"/>
</a>
</g>
</g>
<!-- Node28 -->
<g id="Node000028" class="node">
<title>Node28</title>
<g id="a_Node000028"><a xlink:href="external_8c.html#ab83bd36e63f0f1baddcb2482b5ad31b0" target="_top" xlink:title=" ">
<polygon fill="white" stroke="#666666" points="1698.5,-56 1605.5,-56 1605.5,-37 1698.5,-37 1698.5,-56"/>
<text text-anchor="middle" x="1652" y="-44" font-family="Helvetica,sans-Serif" font-size="10.00">func_800C41CC</text>
</a>
</g>
</g>
<!-- Node25&#45;&gt;Node28 -->
<g id="edge29_Node000025_Node000028" class="edge">
<title>Node25&#45;&gt;Node28</title>
<g id="a_edge29_Node000025_Node000028"><a xlink:title=" ">
<path fill="none" stroke="#63b8ff" d="M1546,-46.5C1561.37,-46.5 1578.74,-46.5 1594.86,-46.5"/>
<polygon fill="#63b8ff" stroke="#63b8ff" points="1595.25,-50 1605.25,-46.5 1595.25,-43 1595.25,-50"/>
</a>
</g>
</g>
<!-- Node29 -->
<g id="Node000029" class="node">
<title>Node29</title>
<g id="a_Node000029"><a xlink:href="port__eu_8c.html#aa89dfaecca46c6d071f08c1898d1f7c9" target="_top" xlink:title=" ">
<polygon fill="white" stroke="#666666" points="1698.5,-19 1605.5,-19 1605.5,0 1698.5,0 1698.5,-19"/>
<text text-anchor="middle" x="1652" y="-7" font-family="Helvetica,sans-Serif" font-size="10.00">func_800CBBE8</text>
</a>
</g>
</g>
<!-- Node25&#45;&gt;Node29 -->
<g id="edge30_Node000025_Node000029" class="edge">
<title>Node25&#45;&gt;Node29</title>
<g id="a_edge30_Node000025_Node000029"><a xlink:title=" ">
<path fill="none" stroke="#63b8ff" d="M1539.63,-36.97C1558.8,-32.24 1582.16,-26.48 1602.52,-21.46"/>
<polygon fill="#63b8ff" stroke="#63b8ff" points="1603.37,-24.85 1612.24,-19.06 1601.69,-18.06 1603.37,-24.85"/>
</a>
</g>
</g>
<!-- Node27 -->
<g id="Node000027" class="node">
<title>Node27</title>
<g id="a_Node000027"><a xlink:href="external_8c.html#a358ac55e8ab5262dcae8037334be06d7" target="_top" xlink:title=" ">
<polygon fill="white" stroke="#666666" points="1850.5,-93 1758.5,-93 1758.5,-74 1850.5,-74 1850.5,-93"/>
<text text-anchor="middle" x="1804.5" y="-81" font-family="Helvetica,sans-Serif" font-size="10.00">func_800C40F0</text>
</a>
</g>
</g>
<!-- Node26&#45;&gt;Node27 -->
<g id="edge28_Node000026_Node000027" class="edge">
<title>Node26&#45;&gt;Node27</title>
<g id="a_edge28_Node000026_Node000027"><a xlink:title=" ">
<path fill="none" stroke="#63b8ff" d="M1722.08,-83.5C1730.87,-83.5 1739.78,-83.5 1748.31,-83.5"/>
<polygon fill="#63b8ff" stroke="#63b8ff" points="1748.5,-87 1758.5,-83.5 1748.5,-80 1748.5,-87"/>
</a>
</g>
</g>
<!-- Node30 -->
<g id="Node000030" class="node">
<title>Node30</title>
<g id="a_Node000030"><a xlink:href="port__eu_8c.html#af361a20d2e08f30c53a237ca481ff734" target="_top" xlink:title=" ">
<polygon fill="white" stroke="#666666" points="1851,-19 1758,-19 1758,0 1851,0 1851,-19"/>
<text text-anchor="middle" x="1804.5" y="-7" font-family="Helvetica,sans-Serif" font-size="10.00">func_800CBB48</text>
</a>
</g>
</g>
<!-- Node29&#45;&gt;Node30 -->
<g id="edge31_Node000029_Node000030" class="edge">
<title>Node29&#45;&gt;Node30</title>
<g id="a_edge31_Node000029_Node000030"><a xlink:title=" ">
<path fill="none" stroke="#63b8ff" d="M1698.56,-9.5C1713.96,-9.5 1731.34,-9.5 1747.46,-9.5"/>
<polygon fill="#63b8ff" stroke="#63b8ff" points="1747.83,-13 1757.83,-9.5 1747.83,-6 1747.83,-13"/>
</a>
</g>
</g>
<!-- Node32&#45;&gt;Node33 -->
<g id="edge34_Node000032_Node000033" class="edge">
<title>Node32&#45;&gt;Node33</title>
<g id="a_edge34_Node000032_Node000033"><a xlink:title=" ">
<path fill="none" stroke="#63b8ff" d="M896.7,-192.2C924.12,-196.71 958.46,-202.37 984.86,-206.72"/>
<polygon fill="#63b8ff" stroke="#63b8ff" points="984.48,-210.21 994.92,-208.38 985.62,-203.3 984.48,-210.21"/>
</a>
</g>
</g>
<!-- Node36&#45;&gt;Node19 -->
<g id="edge39_Node000036_Node000019" class="edge">
<title>Node36&#45;&gt;Node19</title>
<g id="a_edge39_Node000036_Node000019"><a xlink:title=" ">
<path fill="none" stroke="#63b8ff" d="M578.11,-113.05C603.25,-123.44 643.65,-140.14 672.1,-151.9"/>
<polygon fill="#63b8ff" stroke="#63b8ff" points="671.04,-155.25 681.62,-155.84 673.71,-148.78 671.04,-155.25"/>
</a>
</g>
</g>
<!-- Node36&#45;&gt;Node22 -->
<g id="edge40_Node000036_Node000022" class="edge">
<title>Node36&#45;&gt;Node22</title>
<g id="a_edge40_Node000036_Node000022"><a xlink:title=" ">
<path fill="none" stroke="#63b8ff" d="M590.56,-93.93C677.81,-71.65 909.47,-19.73 1103,-40.5 1124.87,-42.85 1148.77,-47.74 1168.73,-52.5"/>
<polygon fill="#63b8ff" stroke="#63b8ff" points="1167.94,-55.91 1178.48,-54.89 1169.6,-49.11 1167.94,-55.91"/>
</a>
</g>
</g>
<!-- Node36&#45;&gt;Node31 -->
<g id="edge41_Node000036_Node000031" class="edge">
<title>Node36&#45;&gt;Node31</title>
<g id="a_edge41_Node000036_Node000031"><a xlink:title=" ">
<path fill="none" stroke="#63b8ff" d="M599.52,-98.55C645.45,-93.55 719.17,-85.82 783,-80.5 835.4,-76.13 894.24,-72.23 940.9,-69.38"/>
<polygon fill="#63b8ff" stroke="#63b8ff" points="941.2,-72.86 950.96,-68.76 940.77,-65.88 941.2,-72.86"/>
</a>
</g>
</g>
</g>
</svg>
