<?xml version="1.0" encoding="UTF-8" standalone="no"?>
<!DOCTYPE svg PUBLIC "-//W3C//DTD SVG 1.1//EN"
 "http://www.w3.org/Graphics/SVG/1.1/DTD/svg11.dtd">
<!-- Generated by graphviz version 2.43.0 (0)
 -->
<!-- Title: func_80085768 Pages: 1 -->
<!--zoomable 477 -->

<svg id="main" version="1.1" xmlns="http://www.w3.org/2000/svg" xmlns:xlink="http://www.w3.org/1999/xlink" xml:space="preserve" onload="init(evt)">
<style type="text/css"><![CDATA[
.node, .edge {opacity: 0.7;}
.node.selected, .edge.selected {opacity: 1;}
.edge:hover path { stroke: red; }
.edge:hover polygon { stroke: red; fill: red; }
]]></style>

<defs>
  <circle id="rim" cx="0" cy="0" r="7"/>
  <circle id="rim2" cx="0" cy="0" r="3.5"/>
  <g id="zoomPlus">
    <use xlink:href="#rim" fill="#404040"><set attributeName="fill" to="#808080" begin="zoomplus.mouseover" end="zoomplus.mouseout"/></use>
    <path d="M-4,0h8M0,-4v8" fill="none" stroke="white" stroke-width="1.5" pointer-events="none"/>
  </g>
  <g id="zoomMin">
    <use xlink:href="#rim" fill="#404040"><set attributeName="fill" to="#808080" begin="zoomminus.mouseover" end="zoomminus.mouseout"/></use>
    <path d="M-4,0h8" fill="none" stroke="white" stroke-width="1.5" pointer-events="none"/>
  </g>
  <g id="arrowUp" transform="translate(30 24)">
    <use xlink:href="#rim"/>
    <path pointer-events="none" fill="none" stroke="white" stroke-width="1.5" d="M0,-3.0v7 M-2.5,-0.5L0,-3.0L2.5,-0.5"/>
  </g>
  <g id="arrowRight" transform="rotate(90) translate(36 -43)">
    <use xlink:href="#rim"/>
    <path pointer-events="none" fill="none" stroke="white" stroke-width="1.5" d="M0,-3.0v7 M-2.5,-0.5L0,-3.0L2.5,-0.5"/>
  </g>
  <g id="arrowDown" transform="rotate(180) translate(-30 -48)">
    <use xlink:href="#rim"/>
    <path pointer-events="none" fill="none" stroke="white" stroke-width="1.5" d="M0,-3.0v7 M-2.5,-0.5L0,-3.0L2.5,-0.5"/>
  </g>
  <g id="arrowLeft" transform="rotate(270) translate(-36 17)">
    <use xlink:href="#rim"/>
    <path pointer-events="none" fill="none" stroke="white" stroke-width="1.5" d="M0,-3.0v7 M-2.5,-0.5L0,-3.0L2.5,-0.5"/>
  </g>
  <g id="resetDef">
    <use xlink:href="#rim2" fill="#404040"><set attributeName="fill" to="#808080" begin="reset.mouseover" end="reset.mouseout"/></use>
  </g>
</defs>
<script type="application/ecmascript">
var viewWidth = 1909;
var viewHeight = 477;
var sectionId = 'dynsection-520';
</script>
<script type="application/ecmascript" xlink:href="svg.min.js"/>
<svg id="graph" class="graph">
<g id="viewport">
<title>func_80085768</title>
<!-- Node1 -->
<g id="Node000001" class="node">
<title>Node1</title>
<g id="a_Node000001"><a xlink:title=" ">
<polygon fill="#999999" stroke="#666666" points="91,-274 0,-274 0,-255 91,-255 91,-274"/>
<text text-anchor="middle" x="45.5" y="-262" font-family="Helvetica,sans-Serif" font-size="10.00">func_80085768</text>
</a>
</g>
</g>
<!-- Node2 -->
<g id="Node000002" class="node">
<title>Node2</title>
<g id="a_Node000002"><a xlink:href="update__objects_8c.html#a55824b184e553d99cbe9014f5e950ddc" target="_top" xlink:title=" ">
<polygon fill="white" stroke="#666666" points="240,-274 127,-274 127,-255 240,-255 240,-274"/>
<text text-anchor="middle" x="183.5" y="-262" font-family="Helvetica,sans-Serif" font-size="10.00">init_hot_air_balloon</text>
</a>
</g>
</g>
<!-- Node1&#45;&gt;Node2 -->
<g id="edge1_Node000001_Node000002" class="edge">
<title>Node1&#45;&gt;Node2</title>
<g id="a_edge1_Node000001_Node000002"><a xlink:title=" ">
<path fill="none" stroke="#63b8ff" d="M91.03,-264.5C99.27,-264.5 108.04,-264.5 116.75,-264.5"/>
<polygon fill="#63b8ff" stroke="#63b8ff" points="116.93,-268 126.93,-264.5 116.93,-261 116.93,-268"/>
</a>
</g>
</g>
<!-- Node3 -->
<g id="Node000003" class="node">
<title>Node3</title>
<g id="a_Node000003"><a xlink:href="update__objects_8c.html#a91e6ccbfa10d972106998ad26b271c17" target="_top" xlink:title=" ">
<polygon fill="white" stroke="#666666" points="380.5,-423 289.5,-423 289.5,-404 380.5,-404 380.5,-423"/>
<text text-anchor="middle" x="335" y="-411" font-family="Helvetica,sans-Serif" font-size="10.00">func_80072488</text>
</a>
</g>
</g>
<!-- Node2&#45;&gt;Node3 -->
<g id="edge2_Node000002_Node000003" class="edge">
<title>Node2&#45;&gt;Node3</title>
<g id="a_edge2_Node000002_Node000003"><a xlink:title=" ">
<path fill="none" stroke="#63b8ff" d="M189.98,-274.29C202.66,-296.24 236.01,-350.07 276,-383.5 283.41,-389.69 292.31,-395.09 300.89,-399.53"/>
<polygon fill="#63b8ff" stroke="#63b8ff" points="299.46,-402.73 309.99,-403.96 302.53,-396.44 299.46,-402.73"/>
</a>
</g>
</g>
<!-- Node6 -->
<g id="Node000006" class="node">
<title>Node6</title>
<g id="a_Node000006"><a xlink:href="code__80086E70_8c.html#a79b65858840f21f273d4c8fe80b56fe5" target="_top" xlink:title=" ">
<polygon fill="white" stroke="#666666" points="380.5,-374 289.5,-374 289.5,-355 380.5,-355 380.5,-374"/>
<text text-anchor="middle" x="335" y="-362" font-family="Helvetica,sans-Serif" font-size="10.00">func_80086EF0</text>
</a>
</g>
</g>
<!-- Node2&#45;&gt;Node6 -->
<g id="edge5_Node000002_Node000006" class="edge">
<title>Node2&#45;&gt;Node6</title>
<g id="a_edge5_Node000002_Node000006"><a xlink:title=" ">
<path fill="none" stroke="#63b8ff" d="M198.83,-274.09C224.78,-291.44 279.71,-328.19 310.97,-349.1"/>
<polygon fill="#63b8ff" stroke="#63b8ff" points="309.23,-352.14 319.49,-354.79 313.12,-346.32 309.23,-352.14"/>
</a>
</g>
</g>
<!-- Node8 -->
<g id="Node000008" class="node">
<title>Node8</title>
<g id="a_Node000008"><a xlink:href="code__80086E70_8c.html#ae0499dac45e7e9f8e247a851401d8716" target="_top" xlink:title=" ">
<polygon fill="white" stroke="#666666" points="536,-346 445,-346 445,-327 536,-327 536,-346"/>
<text text-anchor="middle" x="490.5" y="-334" font-family="Helvetica,sans-Serif" font-size="10.00">func_800886F4</text>
</a>
</g>
</g>
<!-- Node2&#45;&gt;Node8 -->
<g id="edge8_Node000002_Node000008" class="edge">
<title>Node2&#45;&gt;Node8</title>
<g id="a_edge8_Node000002_Node000008"><a xlink:title=" ">
<path fill="none" stroke="#63b8ff" d="M225,-274.06C280.15,-287.08 378.84,-310.38 438.82,-324.54"/>
<polygon fill="#63b8ff" stroke="#63b8ff" points="438.29,-328.01 448.83,-326.9 439.9,-321.2 438.29,-328.01"/>
</a>
</g>
</g>
<!-- Node17 -->
<g id="Node000017" class="node">
<title>Node17</title>
<g id="a_Node000017"><a xlink:href="code__80086E70_8c.html#aca89708b0868138c58f8d56712d2d815" target="_top" xlink:title=" ">
<polygon fill="white" stroke="#666666" points="381,-237 289,-237 289,-218 381,-218 381,-237"/>
<text text-anchor="middle" x="335" y="-225" font-family="Helvetica,sans-Serif" font-size="10.00">func_8008B844</text>
</a>
</g>
</g>
<!-- Node2&#45;&gt;Node17 -->
<g id="edge18_Node000002_Node000017" class="edge">
<title>Node2&#45;&gt;Node17</title>
<g id="a_edge18_Node000002_Node000017"><a xlink:title=" ">
<path fill="none" stroke="#63b8ff" d="M223,-254.97C242.02,-250.26 265.17,-244.53 285.4,-239.53"/>
<polygon fill="#63b8ff" stroke="#63b8ff" points="286.5,-242.86 295.37,-237.06 284.82,-236.07 286.5,-242.86"/>
</a>
</g>
</g>
<!-- Node18 -->
<g id="Node000018" class="node">
<title>Node18</title>
<g id="a_Node000018"><a xlink:href="actors_8c.html#ac5750654b812a09a6a1e1894cc0dcd45" target="_top" xlink:title=" ">
<polygon fill="white" stroke="#666666" points="381.5,-274 288.5,-274 288.5,-255 381.5,-255 381.5,-274"/>
<text text-anchor="middle" x="335" y="-262" font-family="Helvetica,sans-Serif" font-size="10.00">func_802A14BC</text>
</a>
</g>
</g>
<!-- Node2&#45;&gt;Node18 -->
<g id="edge19_Node000002_Node000018" class="edge">
<title>Node2&#45;&gt;Node18</title>
<g id="a_edge19_Node000002_Node000018"><a xlink:title=" ">
<path fill="none" stroke="#63b8ff" d="M240.17,-264.5C252.49,-264.5 265.56,-264.5 277.9,-264.5"/>
<polygon fill="#63b8ff" stroke="#63b8ff" points="278.06,-268 288.06,-264.5 278.06,-261 278.06,-268"/>
</a>
</g>
</g>
<!-- Node39 -->
<g id="Node000039" class="node">
<title>Node39</title>
<g id="a_Node000039"><a xlink:href="code__80086E70_8c.html#ac9171108201f29dda52974a4a5c68a04" target="_top" xlink:title=" ">
<polygon fill="white" stroke="#666666" points="394,-200 276,-200 276,-181 394,-181 394,-200"/>
<text text-anchor="middle" x="335" y="-188" font-family="Helvetica,sans-Serif" font-size="10.00">set_obj_origin_offset</text>
</a>
</g>
</g>
<!-- Node2&#45;&gt;Node39 -->
<g id="edge45_Node000002_Node000039" class="edge">
<title>Node2&#45;&gt;Node39</title>
<g id="a_edge45_Node000002_Node000039"><a xlink:title=" ">
<path fill="none" stroke="#63b8ff" d="M197.86,-254.85C215.18,-242.69 246.65,-221.79 276,-208.5 280.05,-206.67 284.35,-204.95 288.69,-203.35"/>
<polygon fill="#63b8ff" stroke="#63b8ff" points="289.89,-206.64 298.21,-200.08 287.61,-200.02 289.89,-206.64"/>
</a>
</g>
</g>
<!-- Node40 -->
<g id="Node000040" class="node">
<title>Node40</title>
<g id="a_Node000040"><a xlink:href="code__80086E70_8c.html#a670bd4aa157a5ec3dd6a4f4335a13ea4" target="_top" xlink:title=" ">
<polygon fill="white" stroke="#666666" points="388.5,-163 281.5,-163 281.5,-144 388.5,-144 388.5,-163"/>
<text text-anchor="middle" x="335" y="-151" font-family="Helvetica,sans-Serif" font-size="10.00">set_obj_origin_pos</text>
</a>
</g>
</g>
<!-- Node2&#45;&gt;Node40 -->
<g id="edge46_Node000002_Node000040" class="edge">
<title>Node2&#45;&gt;Node40</title>
<g id="a_edge46_Node000002_Node000040"><a xlink:title=" ">
<path fill="none" stroke="#63b8ff" d="M191.4,-254.8C205.28,-235.98 238.48,-194.36 276,-171.5 278.66,-169.88 281.48,-168.39 284.38,-167.03"/>
<polygon fill="#63b8ff" stroke="#63b8ff" points="285.97,-170.16 293.87,-163.1 283.29,-163.7 285.97,-170.16"/>
</a>
</g>
</g>
<!-- Node4 -->
<g id="Node000004" class="node">
<title>Node4</title>
<g id="a_Node000004"><a xlink:href="update__objects_8c.html#ad33541b9fed7857e59b2d745298f2d44" target="_top" xlink:title=" ">
<polygon fill="white" stroke="#666666" points="724.5,-468.5 599.5,-468.5 599.5,-438.5 724.5,-438.5 724.5,-468.5"/>
<text text-anchor="start" x="607.5" y="-456.5" font-family="Helvetica,sans-Serif" font-size="10.00">set_object_flag_status</text>
<text text-anchor="middle" x="662" y="-445.5" font-family="Helvetica,sans-Serif" font-size="10.00">_false</text>
</a>
</g>
</g>
<!-- Node3&#45;&gt;Node4 -->
<g id="edge3_Node000003_Node000004" class="edge">
<title>Node3&#45;&gt;Node4</title>
<g id="a_edge3_Node000003_Node000004"><a xlink:title=" ">
<path fill="none" stroke="#63b8ff" d="M378.41,-423.09C394.5,-426.46 413.03,-430.02 430,-432.5 482.97,-440.24 543.23,-445.6 588.91,-448.97"/>
<polygon fill="#63b8ff" stroke="#63b8ff" points="588.79,-452.47 599.02,-449.7 589.29,-445.49 588.79,-452.47"/>
</a>
</g>
</g>
<!-- Node5 -->
<g id="Node000005" class="node">
<title>Node5</title>
<g id="a_Node000005"><a xlink:href="update__objects_8c.html#a4b4f00a7df0f9bc44914cd922c3cd51b" target="_top" xlink:title=" ">
<polygon fill="white" stroke="#666666" points="548,-423 433,-423 433,-404 548,-404 548,-423"/>
<text text-anchor="middle" x="490.5" y="-411" font-family="Helvetica,sans-Serif" font-size="10.00">set_object_unk_0CB</text>
</a>
</g>
</g>
<!-- Node3&#45;&gt;Node5 -->
<g id="edge4_Node000003_Node000005" class="edge">
<title>Node3&#45;&gt;Node5</title>
<g id="a_edge4_Node000003_Node000005"><a xlink:title=" ">
<path fill="none" stroke="#63b8ff" d="M380.81,-413.5C393.91,-413.5 408.53,-413.5 422.68,-413.5"/>
<polygon fill="#63b8ff" stroke="#63b8ff" points="422.88,-417 432.88,-413.5 422.88,-410 422.88,-417"/>
</a>
</g>
</g>
<!-- Node7 -->
<g id="Node000007" class="node">
<title>Node7</title>
<g id="a_Node000007"><a xlink:href="code__80086E70_8c.html#ad844d2fe27c3f0bb5979715fae72559a" target="_top" xlink:title=" ">
<polygon fill="white" stroke="#666666" points="536,-383 445,-383 445,-364 536,-364 536,-383"/>
<text text-anchor="middle" x="490.5" y="-371" font-family="Helvetica,sans-Serif" font-size="10.00">func_80086E70</text>
</a>
</g>
</g>
<!-- Node6&#45;&gt;Node7 -->
<g id="edge6_Node000006_Node000007" class="edge">
<title>Node6&#45;&gt;Node7</title>
<g id="a_edge6_Node000006_Node000007"><a xlink:title=" ">
<path fill="none" stroke="#63b8ff" d="M380.81,-367.13C397.68,-368.12 417.05,-369.25 434.72,-370.29"/>
<polygon fill="#63b8ff" stroke="#63b8ff" points="434.71,-373.79 444.9,-370.88 435.12,-366.81 434.71,-373.79"/>
</a>
</g>
</g>
<!-- Node7&#45;&gt;Node4 -->
<g id="edge7_Node000007_Node000004" class="edge">
<title>Node7&#45;&gt;Node4</title>
<g id="a_edge7_Node000007_Node000004"><a xlink:title=" ">
<path fill="none" stroke="#63b8ff" d="M524.72,-383.11C533.6,-386.38 542.95,-390.51 551,-395.5 569.7,-407.11 568.07,-418.28 587,-429.5 589.85,-431.19 592.83,-432.77 595.89,-434.26"/>
<polygon fill="#63b8ff" stroke="#63b8ff" points="594.7,-437.56 605.26,-438.42 597.54,-431.16 594.7,-437.56"/>
</a>
</g>
</g>
<!-- Node8&#45;&gt;Node4 -->
<g id="edge16_Node000008_Node000004" class="edge">
<title>Node8&#45;&gt;Node4</title>
<g id="a_edge16_Node000008_Node000004"><a xlink:title=" ">
<path fill="none" stroke="#63b8ff" d="M535.6,-346.03C541.17,-348.49 546.49,-351.6 551,-355.5 578.65,-379.44 559.4,-405.5 587,-429.5 588.49,-430.8 590.05,-432.02 591.67,-433.18"/>
<polygon fill="#63b8ff" stroke="#63b8ff" points="589.85,-436.17 600.2,-438.45 593.53,-430.22 589.85,-436.17"/>
</a>
</g>
</g>
<!-- Node9 -->
<g id="Node000009" class="node">
<title>Node9</title>
<g id="a_Node000009"><a xlink:href="math__util_8c.html#aaa39a297477f56051975259f4bddd829" target="_top" xlink:title=" ">
<polygon fill="white" stroke="#666666" points="687,-420 637,-420 637,-401 687,-401 687,-420"/>
<text text-anchor="middle" x="662" y="-408" font-family="Helvetica,sans-Serif" font-size="10.00">atan2s</text>
</a>
</g>
</g>
<!-- Node8&#45;&gt;Node9 -->
<g id="edge9_Node000008_Node000009" class="edge">
<title>Node8&#45;&gt;Node9</title>
<g id="a_edge9_Node000008_Node000009"><a xlink:title=" ">
<path fill="none" stroke="#63b8ff" d="M530.8,-346.03C537.8,-348.55 544.82,-351.68 551,-355.5 570.51,-367.57 567.08,-381.12 587,-392.5 599.05,-399.38 613.66,-403.65 626.7,-406.28"/>
<polygon fill="#63b8ff" stroke="#63b8ff" points="626.28,-409.76 636.74,-408.07 627.51,-402.87 626.28,-409.76"/>
</a>
</g>
</g>
<!-- Node11 -->
<g id="Node000011" class="node">
<title>Node11</title>
<g id="a_Node000011"><a xlink:href="collision_8c.html#afa1243eb9b3a14bc92434a8a19c162be" target="_top" xlink:title=" ">
<polygon fill="white" stroke="#666666" points="708,-383 616,-383 616,-364 708,-364 708,-383"/>
<text text-anchor="middle" x="662" y="-371" font-family="Helvetica,sans-Serif" font-size="10.00">func_802ABE30</text>
</a>
</g>
</g>
<!-- Node8&#45;&gt;Node11 -->
<g id="edge11_Node000008_Node000011" class="edge">
<title>Node8&#45;&gt;Node11</title>
<g id="a_edge11_Node000008_Node000011"><a xlink:title=" ">
<path fill="none" stroke="#63b8ff" d="M535.15,-346.03C557.11,-350.82 583.93,-356.68 607.15,-361.75"/>
<polygon fill="#63b8ff" stroke="#63b8ff" points="606.69,-365.23 617.2,-363.94 608.18,-358.39 606.69,-365.23"/>
</a>
</g>
</g>
<!-- Node12 -->
<g id="Node000012" class="node">
<title>Node12</title>
<g id="a_Node000012"><a xlink:href="collision_8c.html#a365367628b7140a7a880beeecce9c305" target="_top" xlink:title=" ">
<polygon fill="white" stroke="#666666" points="1004.5,-326 909.5,-326 909.5,-307 1004.5,-307 1004.5,-326"/>
<text text-anchor="middle" x="957" y="-314" font-family="Helvetica,sans-Serif" font-size="10.00">func_802ADDC8</text>
</a>
</g>
</g>
<!-- Node8&#45;&gt;Node12 -->
<g id="edge12_Node000008_Node000012" class="edge">
<title>Node8&#45;&gt;Node12</title>
<g id="a_edge12_Node000008_Node000012"><a xlink:title=" ">
<path fill="none" stroke="#63b8ff" d="M536.04,-334.58C620.85,-330.93 805.41,-322.98 899.05,-318.95"/>
<polygon fill="#63b8ff" stroke="#63b8ff" points="899.35,-322.44 909.19,-318.52 899.05,-315.45 899.35,-322.44"/>
</a>
</g>
</g>
<!-- Node16 -->
<g id="Node000016" class="node">
<title>Node16</title>
<g id="a_Node000016"><a xlink:href="update__objects_8c.html#a00a4e96fc9576ef2552de1c51cf2aa7c" target="_top" xlink:title=" ">
<polygon fill="white" stroke="#666666" points="737,-307 587,-307 587,-288 737,-288 737,-307"/>
<text text-anchor="middle" x="662" y="-295" font-family="Helvetica,sans-Serif" font-size="10.00">set_object_flag_status_true</text>
</a>
</g>
</g>
<!-- Node8&#45;&gt;Node16 -->
<g id="edge17_Node000008_Node000016" class="edge">
<title>Node8&#45;&gt;Node16</title>
<g id="a_edge17_Node000008_Node000016"><a xlink:title=" ">
<path fill="none" stroke="#63b8ff" d="M532.96,-326.96C556.14,-321.63 585.21,-314.94 609.79,-309.28"/>
<polygon fill="#63b8ff" stroke="#63b8ff" points="610.71,-312.66 619.67,-307.01 609.14,-305.84 610.71,-312.66"/>
</a>
</g>
</g>
<!-- Node10 -->
<g id="Node000010" class="node">
<title>Node10</title>
<g id="a_Node000010"><a xlink:href="math__util_8c.html#a0273b0ea0783a06996c28669a7438ed9" target="_top" xlink:title=" ">
<polygon fill="white" stroke="#666666" points="855,-420 773,-420 773,-401 855,-401 855,-420"/>
<text text-anchor="middle" x="814" y="-408" font-family="Helvetica,sans-Serif" font-size="10.00">atan2_lookup</text>
</a>
</g>
</g>
<!-- Node9&#45;&gt;Node10 -->
<g id="edge10_Node000009_Node000010" class="edge">
<title>Node9&#45;&gt;Node10</title>
<g id="a_edge10_Node000009_Node000010"><a xlink:title=" ">
<path fill="none" stroke="#63b8ff" d="M687.1,-410.5C707.41,-410.5 737.14,-410.5 762.62,-410.5"/>
<polygon fill="#63b8ff" stroke="#63b8ff" points="762.87,-414 772.87,-410.5 762.87,-407 762.87,-414"/>
</a>
</g>
</g>
<!-- Node13 -->
<g id="Node000013" class="node">
<title>Node13</title>
<g id="a_Node000013"><a xlink:href="collision_8c.html#afce45acb8da354da0a5b501003be1aef" target="_top" xlink:title=" ">
<polygon fill="white" stroke="#666666" points="1181.5,-289 1088.5,-289 1088.5,-270 1181.5,-270 1181.5,-289"/>
<text text-anchor="middle" x="1135" y="-277" font-family="Helvetica,sans-Serif" font-size="10.00">func_802AAE4C</text>
</a>
</g>
</g>
<!-- Node12&#45;&gt;Node13 -->
<g id="edge13_Node000012_Node000013" class="edge">
<title>Node12&#45;&gt;Node13</title>
<g id="a_edge13_Node000012_Node000013"><a xlink:title=" ">
<path fill="none" stroke="#63b8ff" d="M1003.32,-306.97C1026.33,-302.14 1054.47,-296.22 1078.74,-291.12"/>
<polygon fill="#63b8ff" stroke="#63b8ff" points="1079.46,-294.54 1088.52,-289.06 1078.02,-287.69 1079.46,-294.54"/>
</a>
</g>
</g>
<!-- Node14 -->
<g id="Node000014" class="node">
<title>Node14</title>
<g id="a_Node000014"><a xlink:href="collision_8c.html#adcc608ea0eae3bf9a27ab79ec64b4899" target="_top" xlink:title=" ">
<polygon fill="white" stroke="#666666" points="1181,-363 1089,-363 1089,-344 1181,-344 1181,-363"/>
<text text-anchor="middle" x="1135" y="-351" font-family="Helvetica,sans-Serif" font-size="10.00">func_802AB288</text>
</a>
</g>
</g>
<!-- Node12&#45;&gt;Node14 -->
<g id="edge14_Node000012_Node000014" class="edge">
<title>Node12&#45;&gt;Node14</title>
<g id="a_edge14_Node000012_Node000014"><a xlink:title=" ">
<path fill="none" stroke="#63b8ff" d="M1003.32,-326.03C1026.42,-330.88 1054.69,-336.83 1079.02,-341.94"/>
<polygon fill="#63b8ff" stroke="#63b8ff" points="1078.32,-345.37 1088.83,-344 1079.76,-338.52 1078.32,-345.37"/>
</a>
</g>
</g>
<!-- Node15 -->
<g id="Node000015" class="node">
<title>Node15</title>
<g id="a_Node000015"><a xlink:href="collision_8c.html#ab440aa3fc960b7b4b5ad8e4bcaa06b00" target="_top" xlink:title=" ">
<polygon fill="white" stroke="#666666" points="1181.5,-326 1088.5,-326 1088.5,-307 1181.5,-307 1181.5,-326"/>
<text text-anchor="middle" x="1135" y="-314" font-family="Helvetica,sans-Serif" font-size="10.00">func_802AB6C4</text>
</a>
</g>
</g>
<!-- Node12&#45;&gt;Node15 -->
<g id="edge15_Node000012_Node000015" class="edge">
<title>Node12&#45;&gt;Node15</title>
<g id="a_edge15_Node000012_Node000015"><a xlink:title=" ">
<path fill="none" stroke="#63b8ff" d="M1004.7,-316.5C1027.24,-316.5 1054.44,-316.5 1078.07,-316.5"/>
<polygon fill="#63b8ff" stroke="#63b8ff" points="1078.3,-320 1088.3,-316.5 1078.3,-313 1078.3,-320"/>
</a>
</g>
</g>
<!-- Node19 -->
<g id="Node000019" class="node">
<title>Node19</title>
<g id="a_Node000019"><a xlink:href="actors_8c.html#a24d84b2c349ccb02fa767a4e49c4f2c5" target="_top" xlink:title=" ">
<polygon fill="white" stroke="#666666" points="551,-175 430,-175 430,-156 551,-156 551,-175"/>
<text text-anchor="middle" x="490.5" y="-163" font-family="Helvetica,sans-Serif" font-size="10.00">addActorToEmptySlot</text>
</a>
</g>
</g>
<!-- Node18&#45;&gt;Node19 -->
<g id="edge20_Node000018_Node000019" class="edge">
<title>Node18&#45;&gt;Node19</title>
<g id="a_edge20_Node000018_Node000019"><a xlink:title=" ">
<path fill="none" stroke="#63b8ff" d="M375.46,-254.88C381.95,-252.39 388.38,-249.3 394,-245.5 414.64,-231.53 411.18,-218.84 430,-202.5 439.66,-194.11 451.43,-186.37 461.94,-180.16"/>
<polygon fill="#63b8ff" stroke="#63b8ff" points="463.82,-183.12 470.77,-175.12 460.35,-177.04 463.82,-183.12"/>
</a>
</g>
</g>
<!-- Node34 -->
<g id="Node000034" class="node">
<title>Node34</title>
<g id="a_Node000034"><a xlink:href="math__util_8c.html#a79fd07a0971ec96a3ff0801963a2fa7f" target="_top" xlink:title=" ">
<polygon fill="white" stroke="#666666" points="1167,-223 1103,-223 1103,-204 1167,-204 1167,-223"/>
<text text-anchor="middle" x="1135" y="-211" font-family="Helvetica,sans-Serif" font-size="10.00">vec3f_set</text>
</a>
</g>
</g>
<!-- Node18&#45;&gt;Node34 -->
<g id="edge43_Node000018_Node000034" class="edge">
<title>Node18&#45;&gt;Node34</title>
<g id="a_edge43_Node000018_Node000034"><a xlink:title=" ">
<path fill="none" stroke="#63b8ff" d="M381.75,-263.35C444.65,-261.88 561.4,-259.5 661,-259.5 661,-259.5 661,-259.5 815,-259.5 907.87,-259.5 931.36,-254.57 1023,-239.5 1046.33,-235.66 1072.06,-229.75 1092.86,-224.53"/>
<polygon fill="#63b8ff" stroke="#63b8ff" points="1093.82,-227.89 1102.65,-222.03 1092.09,-221.11 1093.82,-227.89"/>
</a>
</g>
</g>
<!-- Node38 -->
<g id="Node000038" class="node">
<title>Node38</title>
<g id="a_Node000038"><a xlink:href="math__util_8c.html#a9092c945c52b3a3481228b2724991e3c" target="_top" xlink:title=" ">
<polygon fill="white" stroke="#666666" points="523,-231 458,-231 458,-212 523,-212 523,-231"/>
<text text-anchor="middle" x="490.5" y="-219" font-family="Helvetica,sans-Serif" font-size="10.00">vec3s_set</text>
</a>
</g>
</g>
<!-- Node18&#45;&gt;Node38 -->
<g id="edge44_Node000018_Node000038" class="edge">
<title>Node18&#45;&gt;Node38</title>
<g id="a_edge44_Node000018_Node000038"><a xlink:title=" ">
<path fill="none" stroke="#63b8ff" d="M370.07,-254.96C393.12,-248.5 423.71,-239.93 448.16,-233.08"/>
<polygon fill="#63b8ff" stroke="#63b8ff" points="449.2,-236.42 457.88,-230.36 447.31,-229.68 449.2,-236.42"/>
</a>
</g>
</g>
<!-- Node20 -->
<g id="Node000020" class="node">
<title>Node20</title>
<g id="a_Node000020"><a xlink:href="actors_8c.html#a39c023177b5a7686cdd1fc65b8b953e1" target="_top" xlink:title=" ">
<polygon fill="white" stroke="#666666" points="845,-175 783,-175 783,-156 845,-156 845,-175"/>
<text text-anchor="middle" x="814" y="-163" font-family="Helvetica,sans-Serif" font-size="10.00">actor_init</text>
</a>
</g>
</g>
<!-- Node19&#45;&gt;Node20 -->
<g id="edge21_Node000019_Node000020" class="edge">
<title>Node19&#45;&gt;Node20</title>
<g id="a_edge21_Node000019_Node000020"><a xlink:title=" ">
<path fill="none" stroke="#63b8ff" d="M551.22,-165.5C615.7,-165.5 716.67,-165.5 772.49,-165.5"/>
<polygon fill="#63b8ff" stroke="#63b8ff" points="772.7,-169 782.7,-165.5 772.7,-162 772.7,-169"/>
</a>
</g>
</g>
<!-- Node37 -->
<g id="Node000037" class="node">
<title>Node37</title>
<g id="a_Node000037"><a xlink:href="actors_8c.html#a0c9d11d8956bf92c32a5e9bafd7036e6" target="_top" xlink:title=" ">
<polygon fill="white" stroke="#666666" points="707.5,-113 616.5,-113 616.5,-94 707.5,-94 707.5,-113"/>
<text text-anchor="middle" x="662" y="-101" font-family="Helvetica,sans-Serif" font-size="10.00">func_8029E890</text>
</a>
</g>
</g>
<!-- Node19&#45;&gt;Node37 -->
<g id="edge39_Node000019_Node000037" class="edge">
<title>Node19&#45;&gt;Node37</title>
<g id="a_edge39_Node000019_Node000037"><a xlink:title=" ">
<path fill="none" stroke="#63b8ff" d="M517.61,-155.95C546.48,-145.39 593.15,-128.32 625.36,-116.54"/>
<polygon fill="#63b8ff" stroke="#63b8ff" points="626.67,-119.78 634.86,-113.06 624.26,-113.21 626.67,-119.78"/>
</a>
</g>
</g>
<!-- Node20&#45;&gt;Node12 -->
<g id="edge36_Node000020_Node000012" class="edge">
<title>Node20&#45;&gt;Node12</title>
<g id="a_edge36_Node000020_Node000012"><a xlink:title=" ">
<path fill="none" stroke="#63b8ff" d="M824.25,-175.41C847.76,-200.58 910.03,-267.27 939.76,-299.11"/>
<polygon fill="#63b8ff" stroke="#63b8ff" points="937.51,-301.83 946.9,-306.75 942.63,-297.05 937.51,-301.83"/>
</a>
</g>
</g>
<!-- Node21 -->
<g id="Node000021" class="node">
<title>Node21</title>
<g id="a_Node000021"><a xlink:href="actors_8c.html#a1a9bccb586242555a9123ebd4ab70f2a" target="_top" xlink:title=" ">
<polygon fill="white" stroke="#666666" points="1023,-119.5 891,-119.5 891,-89.5 1023,-89.5 1023,-119.5"/>
<text text-anchor="start" x="899" y="-107.5" font-family="Helvetica,sans-Serif" font-size="10.00">cleanup_red_and_green</text>
<text text-anchor="middle" x="957" y="-96.5" font-family="Helvetica,sans-Serif" font-size="10.00">_shells</text>
</a>
</g>
</g>
<!-- Node20&#45;&gt;Node21 -->
<g id="edge22_Node000020_Node000021" class="edge">
<title>Node20&#45;&gt;Node21</title>
<g id="a_edge22_Node000020_Node000021"><a xlink:title=" ">
<path fill="none" stroke="#63b8ff" d="M833.5,-155.85C848.74,-148.06 871.02,-137.03 891,-128.5 895.16,-126.73 899.5,-124.95 903.87,-123.23"/>
<polygon fill="#63b8ff" stroke="#63b8ff" points="905.39,-126.39 913.45,-119.52 902.86,-119.86 905.39,-126.39"/>
</a>
</g>
</g>
<!-- Node33 -->
<g id="Node000033" class="node">
<title>Node33</title>
<g id="a_Node000033"><a xlink:href="collision_8c.html#ad72fef3ffe32191d73b1822f512ebf3f" target="_top" xlink:title=" ">
<polygon fill="white" stroke="#666666" points="1004.5,-194 909.5,-194 909.5,-175 1004.5,-175 1004.5,-194"/>
<text text-anchor="middle" x="957" y="-182" font-family="Helvetica,sans-Serif" font-size="10.00">func_802AAAAC</text>
</a>
</g>
</g>
<!-- Node20&#45;&gt;Node33 -->
<g id="edge34_Node000020_Node000033" class="edge">
<title>Node20&#45;&gt;Node33</title>
<g id="a_edge34_Node000020_Node000033"><a xlink:title=" ">
<path fill="none" stroke="#63b8ff" d="M845.25,-169.58C861.02,-171.7 880.83,-174.37 899.33,-176.86"/>
<polygon fill="#63b8ff" stroke="#63b8ff" points="899.05,-180.36 909.43,-178.22 899.99,-173.42 899.05,-180.36"/>
</a>
</g>
</g>
<!-- Node35 -->
<g id="Node000035" class="node">
<title>Node35</title>
<g id="a_Node000035"><a xlink:href="math__util_8c.html#af7b470ed76fce07b8042a47c96e5690b" target="_top" xlink:title=" ">
<polygon fill="white" stroke="#666666" points="1010.5,-157 903.5,-157 903.5,-138 1010.5,-138 1010.5,-157"/>
<text text-anchor="middle" x="957" y="-145" font-family="Helvetica,sans-Serif" font-size="10.00">vec3f_copy_return</text>
</a>
</g>
</g>
<!-- Node20&#45;&gt;Node35 -->
<g id="edge37_Node000020_Node000035" class="edge">
<title>Node20&#45;&gt;Node35</title>
<g id="a_edge37_Node000020_Node000035"><a xlink:title=" ">
<path fill="none" stroke="#63b8ff" d="M845.25,-161.64C859.25,-159.85 876.45,-157.66 893.07,-155.53"/>
<polygon fill="#63b8ff" stroke="#63b8ff" points="893.84,-158.96 903.31,-154.23 892.95,-152.02 893.84,-158.96"/>
</a>
</g>
</g>
<!-- Node36 -->
<g id="Node000036" class="node">
<title>Node36</title>
<g id="a_Node000036"><a xlink:href="math__util_8c.html#a0e270ee67600c8c9c2f140c647d008a1" target="_top" xlink:title=" ">
<polygon fill="white" stroke="#666666" points="994,-231 920,-231 920,-212 994,-212 994,-231"/>
<text text-anchor="middle" x="957" y="-219" font-family="Helvetica,sans-Serif" font-size="10.00">vec3s_copy</text>
</a>
</g>
</g>
<!-- Node20&#45;&gt;Node36 -->
<g id="edge38_Node000020_Node000036" class="edge">
<title>Node20&#45;&gt;Node36</title>
<g id="a_edge38_Node000020_Node000036"><a xlink:title=" ">
<path fill="none" stroke="#63b8ff" d="M832.44,-175.04C847.6,-183.08 870.33,-194.51 891,-202.5 897.05,-204.84 903.5,-207.05 909.91,-209.08"/>
<polygon fill="#63b8ff" stroke="#63b8ff" points="909.29,-212.55 919.88,-212.11 911.33,-205.85 909.29,-212.55"/>
</a>
</g>
</g>
<!-- Node22 -->
<g id="Node000022" class="node">
<title>Node22</title>
<g id="a_Node000022"><a xlink:href="actors_8c.html#a694ec6ef7548b8618aeb35c038d3a9b9" target="_top" xlink:title=" ">
<polygon fill="white" stroke="#666666" points="1176.5,-117 1093.5,-117 1093.5,-98 1176.5,-98 1176.5,-117"/>
<text text-anchor="middle" x="1135" y="-105" font-family="Helvetica,sans-Serif" font-size="10.00">destroy_actor</text>
</a>
</g>
</g>
<!-- Node21&#45;&gt;Node22 -->
<g id="edge23_Node000021_Node000022" class="edge">
<title>Node21&#45;&gt;Node22</title>
<g id="a_edge23_Node000021_Node000022"><a xlink:title=" ">
<path fill="none" stroke="#63b8ff" d="M1023.04,-105.61C1042.95,-105.95 1064.55,-106.32 1083.35,-106.64"/>
<polygon fill="#63b8ff" stroke="#63b8ff" points="1083.42,-110.14 1093.48,-106.81 1083.54,-103.14 1083.42,-110.14"/>
</a>
</g>
</g>
<!-- Node32 -->
<g id="Node000032" class="node">
<title>Node32</title>
<g id="a_Node000032"><a xlink:href="code__80005FD0_8c.html#acb7b3d384c78d219f4b7040e78f6a2f2" target="_top" xlink:title=" ">
<polygon fill="white" stroke="#666666" points="1211,-79.5 1059,-79.5 1059,-49.5 1211,-49.5 1211,-79.5"/>
<text text-anchor="start" x="1067" y="-67.5" font-family="Helvetica,sans-Serif" font-size="10.00">remove_actor_in_unexpired</text>
<text text-anchor="middle" x="1135" y="-56.5" font-family="Helvetica,sans-Serif" font-size="10.00">_actor_list</text>
</a>
</g>
</g>
<!-- Node21&#45;&gt;Node32 -->
<g id="edge33_Node000021_Node000032" class="edge">
<title>Node21&#45;&gt;Node32</title>
<g id="a_edge33_Node000021_Node000032"><a xlink:title=" ">
<path fill="none" stroke="#63b8ff" d="M1023.04,-89.72C1034.32,-87.15 1046.15,-84.47 1057.7,-81.84"/>
<polygon fill="#63b8ff" stroke="#63b8ff" points="1058.79,-85.18 1067.76,-79.55 1057.23,-78.36 1058.79,-85.18"/>
</a>
</g>
</g>
<!-- Node23 -->
<g id="Node000023" class="node">
<title>Node23</title>
<g id="a_Node000023"><a xlink:href="actors_8c.html#a15517665ab054722a5c980c0f1008cd0" target="_top" xlink:title=" ">
<polygon fill="white" stroke="#666666" points="1340,-74 1247,-74 1247,-55 1340,-55 1340,-74"/>
<text text-anchor="middle" x="1293.5" y="-62" font-family="Helvetica,sans-Serif" font-size="10.00">func_8029E7DC</text>
</a>
</g>
</g>
<!-- Node22&#45;&gt;Node23 -->
<g id="edge24_Node000022_Node000023" class="edge">
<title>Node22&#45;&gt;Node23</title>
<g id="a_edge24_Node000022_Node000023"><a xlink:title=" ">
<path fill="none" stroke="#63b8ff" d="M1175,-97.92C1186.61,-94.99 1199.34,-91.69 1211,-88.5 1224.26,-84.87 1238.68,-80.7 1251.64,-76.86"/>
<polygon fill="#63b8ff" stroke="#63b8ff" points="1252.64,-80.22 1261.23,-74.01 1250.65,-73.51 1252.64,-80.22"/>
</a>
</g>
</g>
<!-- Node24 -->
<g id="Node000024" class="node">
<title>Node24</title>
<g id="a_Node000024"><a xlink:href="external_8c.html#ae72057869772019e4464c87d4e16c682" target="_top" xlink:title=" ">
<polygon fill="white" stroke="#666666" points="1468,-74 1376,-74 1376,-55 1468,-55 1468,-74"/>
<text text-anchor="middle" x="1422" y="-62" font-family="Helvetica,sans-Serif" font-size="10.00">func_800C99E0</text>
</a>
</g>
</g>
<!-- Node23&#45;&gt;Node24 -->
<g id="edge25_Node000023_Node000024" class="edge">
<title>Node23&#45;&gt;Node24</title>
<g id="a_edge25_Node000023_Node000024"><a xlink:title=" ">
<path fill="none" stroke="#63b8ff" d="M1340.17,-64.5C1348.42,-64.5 1357.11,-64.5 1365.6,-64.5"/>
<polygon fill="#63b8ff" stroke="#63b8ff" points="1365.82,-68 1375.82,-64.5 1365.82,-61 1365.82,-68"/>
</a>
</g>
</g>
<!-- Node25 -->
<g id="Node000025" class="node">
<title>Node25</title>
<g id="a_Node000025"><a xlink:href="external_8c.html#aeb87c527482a244173df36a1f3d4f446" target="_top" xlink:title=" ">
<polygon fill="white" stroke="#666666" points="1596,-93 1504,-93 1504,-74 1596,-74 1596,-93"/>
<text text-anchor="middle" x="1550" y="-81" font-family="Helvetica,sans-Serif" font-size="10.00">func_800C21E8</text>
</a>
</g>
</g>
<!-- Node24&#45;&gt;Node25 -->
<g id="edge26_Node000024_Node000025" class="edge">
<title>Node24&#45;&gt;Node25</title>
<g id="a_edge26_Node000024_Node000025"><a xlink:title=" ">
<path fill="none" stroke="#63b8ff" d="M1468.13,-71.31C1476.46,-72.56 1485.23,-73.88 1493.81,-75.18"/>
<polygon fill="#63b8ff" stroke="#63b8ff" points="1493.35,-78.65 1503.76,-76.68 1494.39,-71.73 1493.35,-78.65"/>
</a>
</g>
</g>
<!-- Node26 -->
<g id="Node000026" class="node">
<title>Node26</title>
<g id="a_Node000026"><a xlink:href="external_8c.html#a028d40421b90c38f68ebfd5acc626f2e" target="_top" xlink:title=" ">
<polygon fill="white" stroke="#666666" points="1596,-56 1504,-56 1504,-37 1596,-37 1596,-56"/>
<text text-anchor="middle" x="1550" y="-44" font-family="Helvetica,sans-Serif" font-size="10.00">func_800C5578</text>
</a>
</g>
</g>
<!-- Node24&#45;&gt;Node26 -->
<g id="edge27_Node000024_Node000026" class="edge">
<title>Node24&#45;&gt;Node26</title>
<g id="a_edge27_Node000024_Node000026"><a xlink:title=" ">
<path fill="none" stroke="#63b8ff" d="M1468.13,-58.05C1476.46,-56.86 1485.23,-55.61 1493.81,-54.38"/>
<polygon fill="#63b8ff" stroke="#63b8ff" points="1494.35,-57.84 1503.76,-52.96 1493.36,-50.91 1494.35,-57.84"/>
</a>
</g>
</g>
<!-- Node27 -->
<g id="Node000027" class="node">
<title>Node27</title>
<g id="a_Node000027"><a xlink:href="external_8c.html#ac0fb767de7e14a03f1bcfa53f0abd23b" target="_top" xlink:title=" ">
<polygon fill="white" stroke="#666666" points="1772,-93 1632,-93 1632,-74 1772,-74 1772,-93"/>
<text text-anchor="middle" x="1702" y="-81" font-family="Helvetica,sans-Serif" font-size="10.00">delete_sound_from_bank</text>
</a>
</g>
</g>
<!-- Node26&#45;&gt;Node27 -->
<g id="edge28_Node000026_Node000027" class="edge">
<title>Node26&#45;&gt;Node27</title>
<g id="a_edge28_Node000026_Node000027"><a xlink:title=" ">
<path fill="none" stroke="#63b8ff" d="M1589.63,-56.03C1608.8,-60.76 1632.16,-66.52 1652.52,-71.54"/>
<polygon fill="#63b8ff" stroke="#63b8ff" points="1651.69,-74.94 1662.24,-73.94 1653.37,-68.15 1651.69,-74.94"/>
</a>
</g>
</g>
<!-- Node29 -->
<g id="Node000029" class="node">
<title>Node29</title>
<g id="a_Node000029"><a xlink:href="external_8c.html#ab83bd36e63f0f1baddcb2482b5ad31b0" target="_top" xlink:title=" ">
<polygon fill="white" stroke="#666666" points="1748.5,-56 1655.5,-56 1655.5,-37 1748.5,-37 1748.5,-56"/>
<text text-anchor="middle" x="1702" y="-44" font-family="Helvetica,sans-Serif" font-size="10.00">func_800C41CC</text>
</a>
</g>
</g>
<!-- Node26&#45;&gt;Node29 -->
<g id="edge30_Node000026_Node000029" class="edge">
<title>Node26&#45;&gt;Node29</title>
<g id="a_edge30_Node000026_Node000029"><a xlink:title=" ">
<path fill="none" stroke="#63b8ff" d="M1596,-46.5C1611.37,-46.5 1628.74,-46.5 1644.86,-46.5"/>
<polygon fill="#63b8ff" stroke="#63b8ff" points="1645.25,-50 1655.25,-46.5 1645.25,-43 1645.25,-50"/>
</a>
</g>
</g>
<!-- Node30 -->
<g id="Node000030" class="node">
<title>Node30</title>
<g id="a_Node000030"><a xlink:href="port__eu_8c.html#aa89dfaecca46c6d071f08c1898d1f7c9" target="_top" xlink:title=" ">
<polygon fill="white" stroke="#666666" points="1748.5,-19 1655.5,-19 1655.5,0 1748.5,0 1748.5,-19"/>
<text text-anchor="middle" x="1702" y="-7" font-family="Helvetica,sans-Serif" font-size="10.00">func_800CBBE8</text>
</a>
</g>
</g>
<!-- Node26&#45;&gt;Node30 -->
<g id="edge31_Node000026_Node000030" class="edge">
<title>Node26&#45;&gt;Node30</title>
<g id="a_edge31_Node000026_Node000030"><a xlink:title=" ">
<path fill="none" stroke="#63b8ff" d="M1589.63,-36.97C1608.8,-32.24 1632.16,-26.48 1652.52,-21.46"/>
<polygon fill="#63b8ff" stroke="#63b8ff" points="1653.37,-24.85 1662.24,-19.06 1651.69,-18.06 1653.37,-24.85"/>
</a>
</g>
</g>
<!-- Node28 -->
<g id="Node000028" class="node">
<title>Node28</title>
<g id="a_Node000028"><a xlink:href="external_8c.html#a358ac55e8ab5262dcae8037334be06d7" target="_top" xlink:title=" ">
<polygon fill="white" stroke="#666666" points="1900.5,-93 1808.5,-93 1808.5,-74 1900.5,-74 1900.5,-93"/>
<text text-anchor="middle" x="1854.5" y="-81" font-family="Helvetica,sans-Serif" font-size="10.00">func_800C40F0</text>
</a>
</g>
</g>
<!-- Node27&#45;&gt;Node28 -->
<g id="edge29_Node000027_Node000028" class="edge">
<title>Node27&#45;&gt;Node28</title>
<g id="a_edge29_Node000027_Node000028"><a xlink:title=" ">
<path fill="none" stroke="#63b8ff" d="M1772.08,-83.5C1780.87,-83.5 1789.78,-83.5 1798.31,-83.5"/>
<polygon fill="#63b8ff" stroke="#63b8ff" points="1798.5,-87 1808.5,-83.5 1798.5,-80 1798.5,-87"/>
</a>
</g>
</g>
<!-- Node31 -->
<g id="Node000031" class="node">
<title>Node31</title>
<g id="a_Node000031"><a xlink:href="port__eu_8c.html#af361a20d2e08f30c53a237ca481ff734" target="_top" xlink:title=" ">
<polygon fill="white" stroke="#666666" points="1901,-19 1808,-19 1808,0 1901,0 1901,-19"/>
<text text-anchor="middle" x="1854.5" y="-7" font-family="Helvetica,sans-Serif" font-size="10.00">func_800CBB48</text>
</a>
</g>
</g>
<!-- Node30&#45;&gt;Node31 -->
<g id="edge32_Node000030_Node000031" class="edge">
<title>Node30&#45;&gt;Node31</title>
<g id="a_edge32_Node000030_Node000031"><a xlink:title=" ">
<path fill="none" stroke="#63b8ff" d="M1748.56,-9.5C1763.96,-9.5 1781.34,-9.5 1797.46,-9.5"/>
<polygon fill="#63b8ff" stroke="#63b8ff" points="1797.83,-13 1807.83,-9.5 1797.83,-6 1797.83,-13"/>
</a>
</g>
</g>
<!-- Node33&#45;&gt;Node34 -->
<g id="edge35_Node000033_Node000034" class="edge">
<title>Node33&#45;&gt;Node34</title>
<g id="a_edge35_Node000033_Node000034"><a xlink:title=" ">
<path fill="none" stroke="#63b8ff" d="M1004.7,-192.2C1032.12,-196.71 1066.46,-202.37 1092.86,-206.72"/>
<polygon fill="#63b8ff" stroke="#63b8ff" points="1092.48,-210.21 1102.92,-208.38 1093.62,-203.3 1092.48,-210.21"/>
</a>
</g>
</g>
<!-- Node37&#45;&gt;Node20 -->
<g id="edge40_Node000037_Node000020" class="edge">
<title>Node37&#45;&gt;Node20</title>
<g id="a_edge40_Node000037_Node000020"><a xlink:title=" ">
<path fill="none" stroke="#63b8ff" d="M686.11,-113.05C711.25,-123.44 751.65,-140.14 780.1,-151.9"/>
<polygon fill="#63b8ff" stroke="#63b8ff" points="779.04,-155.25 789.62,-155.84 781.71,-148.78 779.04,-155.25"/>
</a>
</g>
</g>
<!-- Node37&#45;&gt;Node23 -->
<g id="edge41_Node000037_Node000023" class="edge">
<title>Node37&#45;&gt;Node23</title>
<g id="a_edge41_Node000037_Node000023"><a xlink:title=" ">
<path fill="none" stroke="#63b8ff" d="M705.18,-93.99C725.6,-89.56 750.51,-84.42 773,-80.5 965.57,-46.94 1017.52,-12.6 1211,-40.5 1226.39,-42.72 1242.92,-47.18 1257.05,-51.66"/>
<polygon fill="#63b8ff" stroke="#63b8ff" points="1256.27,-55.09 1266.86,-54.89 1258.46,-48.44 1256.27,-55.09"/>
</a>
</g>
</g>
<!-- Node37&#45;&gt;Node32 -->
<g id="edge42_Node000037_Node000032" class="edge">
<title>Node37&#45;&gt;Node32</title>
<g id="a_edge42_Node000037_Node000032"><a xlink:title=" ">
<path fill="none" stroke="#63b8ff" d="M707.52,-98.55C753.45,-93.55 827.17,-85.82 891,-80.5 943.4,-76.13 1002.24,-72.23 1048.9,-69.38"/>
<polygon fill="#63b8ff" stroke="#63b8ff" points="1049.2,-72.86 1058.96,-68.76 1048.77,-65.88 1049.2,-72.86"/>
</a>
</g>
</g>
</g>
</svg>

<g id="navigator" transform="translate(0 0)" fill="#404254">
  <rect fill="#f2f5e9" fill-opacity="0.5" stroke="#606060" stroke-width=".5" x="0" y="0" width="60" height="60"/>
  <use id="zoomplus" xlink:href="#zoomPlus" x="17" y="9" onmousedown="handleZoom(evt,'in')"/>
  <use id="zoomminus" xlink:href="#zoomMin" x="42" y="9" onmousedown="handleZoom(evt,'out')"/>
  <use id="reset" xlink:href="#resetDef" x="30" y="36" onmousedown="handleReset()"/>
   <use id="arrowup" xlink:href="#arrowUp" x="0" y="0" onmousedown="handlePan(0,-1)"/>
  <use id="arrowright" xlink:href="#arrowRight" x="0" y="0" onmousedown="handlePan(1,0)"/>
  <use id="arrowdown" xlink:href="#arrowDown" x="0" y="0" onmousedown="handlePan(0,1)"/>
  <use id="arrowleft" xlink:href="#arrowLeft" x="0" y="0" onmousedown="handlePan(-1,0)"/>
</g>
<svg viewBox="0 0 15 15" width="100%" height="30px" preserveAspectRatio="xMaxYMin meet">
 <g id="arrow_out" transform="scale(0.3 0.3)">
  <a xlink:href="update__objects_8c_a3ca574297b43f7a7b8c467d5030271f2_cgraph_org.svg" target="_base">
   <rect id="button" ry="5" rx="5" y="6" x="6" height="38" width="38"
        fill="#f2f5e9" fill-opacity="0.5" stroke="#606060" stroke-width="1.0"/>
   <path id="arrow"
     d="M 11.500037,31.436501 C 11.940474,20.09759 22.043105,11.32322 32.158766,21.979434 L 37.068811,17.246167 C 37.068811,17.246167 37.088388,32 37.088388,32 L 22.160133,31.978069 C 22.160133,31.978069 26.997745,27.140456 26.997745,27.140456 C 18.528582,18.264221 13.291696,25.230495 11.500037,31.436501 z"
     style="fill:#404040;"/>
  </a>
 </g>
</svg>

<style type='text/css'>
<![CDATA[
[data-mouse-over-selected='false'] { opacity: 0.7; }
[data-mouse-over-selected='true']  { opacity: 1.0; }
]]>
</style>
<script type="application/ecmascript"><![CDATA[
document.addEventListener('DOMContentLoaded', (event) => {
  highlightEdges();
  highlightAdjacentNodes();
});
]]></script>
</svg>
