<?xml version="1.0" encoding="UTF-8" standalone="no"?>
<!DOCTYPE svg PUBLIC "-//W3C//DTD SVG 1.1//EN"
 "http://www.w3.org/Graphics/SVG/1.1/DTD/svg11.dtd">
<!-- Generated by graphviz version 2.43.0 (0)
 -->
<!-- Title: init_hot_air_balloon Pages: 1 -->
<!--zoomable 477 -->

<svg id="main" version="1.1" xmlns="http://www.w3.org/2000/svg" xmlns:xlink="http://www.w3.org/1999/xlink" xml:space="preserve" onload="init(evt)">
<style type="text/css"><![CDATA[
.node, .edge {opacity: 0.7;}
.node.selected, .edge.selected {opacity: 1;}
.edge:hover path { stroke: red; }
.edge:hover polygon { stroke: red; fill: red; }
]]></style>

<defs>
  <circle id="rim" cx="0" cy="0" r="7"/>
  <circle id="rim2" cx="0" cy="0" r="3.5"/>
  <g id="zoomPlus">
    <use xlink:href="#rim" fill="#404040"><set attributeName="fill" to="#808080" begin="zoomplus.mouseover" end="zoomplus.mouseout"/></use>
    <path d="M-4,0h8M0,-4v8" fill="none" stroke="white" stroke-width="1.5" pointer-events="none"/>
  </g>
  <g id="zoomMin">
    <use xlink:href="#rim" fill="#404040"><set attributeName="fill" to="#808080" begin="zoomminus.mouseover" end="zoomminus.mouseout"/></use>
    <path d="M-4,0h8" fill="none" stroke="white" stroke-width="1.5" pointer-events="none"/>
  </g>
  <g id="arrowUp" transform="translate(30 24)">
    <use xlink:href="#rim"/>
    <path pointer-events="none" fill="none" stroke="white" stroke-width="1.5" d="M0,-3.0v7 M-2.5,-0.5L0,-3.0L2.5,-0.5"/>
  </g>
  <g id="arrowRight" transform="rotate(90) translate(36 -43)">
    <use xlink:href="#rim"/>
    <path pointer-events="none" fill="none" stroke="white" stroke-width="1.5" d="M0,-3.0v7 M-2.5,-0.5L0,-3.0L2.5,-0.5"/>
  </g>
  <g id="arrowDown" transform="rotate(180) translate(-30 -48)">
    <use xlink:href="#rim"/>
    <path pointer-events="none" fill="none" stroke="white" stroke-width="1.5" d="M0,-3.0v7 M-2.5,-0.5L0,-3.0L2.5,-0.5"/>
  </g>
  <g id="arrowLeft" transform="rotate(270) translate(-36 17)">
    <use xlink:href="#rim"/>
    <path pointer-events="none" fill="none" stroke="white" stroke-width="1.5" d="M0,-3.0v7 M-2.5,-0.5L0,-3.0L2.5,-0.5"/>
  </g>
  <g id="resetDef">
    <use xlink:href="#rim2" fill="#404040"><set attributeName="fill" to="#808080" begin="reset.mouseover" end="reset.mouseout"/></use>
  </g>
</defs>
<script type="application/ecmascript">
var viewWidth = 1876;
var viewHeight = 477;
var sectionId = 'dynsection-564';
</script>
<script type="application/ecmascript" xlink:href="svg.min.js"/>
<svg id="graph" class="graph">
<g id="viewport">
<title>init_hot_air_balloon</title>
<!-- Node1 -->
<g id="Node000001" class="node">
<title>Node1</title>
<g id="a_Node000001"><a xlink:title=" ">
<polygon fill="#999999" stroke="#666666" points="113,-273 0,-273 0,-254 113,-254 113,-273"/>
<text text-anchor="middle" x="56.5" y="-261" font-family="Helvetica,sans-Serif" font-size="10.00">init_hot_air_balloon</text>
</a>
</g>
</g>
<!-- Node2 -->
<g id="Node000002" class="node">
<title>Node2</title>
<g id="a_Node000002"><a xlink:href="update__objects_8c.html#a91e6ccbfa10d972106998ad26b271c17" target="_top" xlink:title=" ">
<polygon fill="white" stroke="#666666" points="253.5,-423 162.5,-423 162.5,-404 253.5,-404 253.5,-423"/>
<text text-anchor="middle" x="208" y="-411" font-family="Helvetica,sans-Serif" font-size="10.00">func_80072488</text>
</a>
</g>
</g>
<!-- Node1&#45;&gt;Node2 -->
<g id="edge1_Node000001_Node000002" class="edge">
<title>Node1&#45;&gt;Node2</title>
<g id="a_edge1_Node000001_Node000002"><a xlink:title=" ">
<path fill="none" stroke="#63b8ff" d="M62.72,-273.17C75.1,-295.37 108.29,-350.66 149,-384.5 156.05,-390.36 164.47,-395.42 172.69,-399.6"/>
<polygon fill="#63b8ff" stroke="#63b8ff" points="171.26,-402.8 181.79,-403.95 174.28,-396.48 171.26,-402.8"/>
</a>
</g>
</g>
<!-- Node5 -->
<g id="Node000005" class="node">
<title>Node5</title>
<g id="a_Node000005"><a xlink:href="code__80086E70_8c.html#a79b65858840f21f273d4c8fe80b56fe5" target="_top" xlink:title=" ">
<polygon fill="white" stroke="#666666" points="253.5,-375 162.5,-375 162.5,-356 253.5,-356 253.5,-375"/>
<text text-anchor="middle" x="208" y="-363" font-family="Helvetica,sans-Serif" font-size="10.00">func_80086EF0</text>
</a>
</g>
</g>
<!-- Node1&#45;&gt;Node5 -->
<g id="edge4_Node000001_Node000005" class="edge">
<title>Node1&#45;&gt;Node5</title>
<g id="a_edge4_Node000001_Node000005"><a xlink:title=" ">
<path fill="none" stroke="#63b8ff" d="M71.56,-273.1C97.5,-290.79 153.05,-328.69 184.36,-350.05"/>
<polygon fill="#63b8ff" stroke="#63b8ff" points="182.63,-353.11 192.86,-355.86 186.58,-347.33 182.63,-353.11"/>
</a>
</g>
</g>
<!-- Node7 -->
<g id="Node000007" class="node">
<title>Node7</title>
<g id="a_Node000007"><a xlink:href="code__80086E70_8c.html#ae0499dac45e7e9f8e247a851401d8716" target="_top" xlink:title=" ">
<polygon fill="white" stroke="#666666" points="418.5,-346 327.5,-346 327.5,-327 418.5,-327 418.5,-346"/>
<text text-anchor="middle" x="373" y="-334" font-family="Helvetica,sans-Serif" font-size="10.00">func_800886F4</text>
</a>
</g>
</g>
<!-- Node1&#45;&gt;Node7 -->
<g id="edge7_Node000001_Node000007" class="edge">
<title>Node1&#45;&gt;Node7</title>
<g id="a_edge7_Node000001_Node000007"><a xlink:title=" ">
<path fill="none" stroke="#63b8ff" d="M92.61,-273.06C109.6,-277.6 130.32,-283 149,-287.5 206.32,-301.31 272.32,-315.61 317.56,-325.18"/>
<polygon fill="#63b8ff" stroke="#63b8ff" points="316.95,-328.62 327.45,-327.26 318.39,-321.78 316.95,-328.62"/>
</a>
</g>
</g>
<!-- Node16 -->
<g id="Node000016" class="node">
<title>Node16</title>
<g id="a_Node000016"><a xlink:href="code__80086E70_8c.html#aca89708b0868138c58f8d56712d2d815" target="_top" xlink:title=" ">
<polygon fill="white" stroke="#666666" points="254,-230 162,-230 162,-211 254,-211 254,-230"/>
<text text-anchor="middle" x="208" y="-218" font-family="Helvetica,sans-Serif" font-size="10.00">func_8008B844</text>
</a>
</g>
</g>
<!-- Node1&#45;&gt;Node16 -->
<g id="edge17_Node000001_Node000016" class="edge">
<title>Node1&#45;&gt;Node16</title>
<g id="a_edge17_Node000001_Node000016"><a xlink:title=" ">
<path fill="none" stroke="#63b8ff" d="M90.68,-253.96C112.36,-247.72 140.87,-239.52 164.25,-232.8"/>
<polygon fill="#63b8ff" stroke="#63b8ff" points="165.27,-236.14 173.91,-230.02 163.34,-229.42 165.27,-236.14"/>
</a>
</g>
</g>
<!-- Node17 -->
<g id="Node000017" class="node">
<title>Node17</title>
<g id="a_Node000017"><a xlink:href="actors_8c.html#a5998eaf5bee060a664f203f5d0a8ae95" target="_top" xlink:title=" ">
<polygon fill="white" stroke="#666666" points="262.5,-278.5 153.5,-278.5 153.5,-248.5 262.5,-248.5 262.5,-278.5"/>
<text text-anchor="start" x="161.5" y="-266.5" font-family="Helvetica,sans-Serif" font-size="10.00">init_actor_hot_air</text>
<text text-anchor="middle" x="208" y="-255.5" font-family="Helvetica,sans-Serif" font-size="10.00">_balloon_item_box</text>
</a>
</g>
</g>
<!-- Node1&#45;&gt;Node17 -->
<g id="edge18_Node000001_Node000017" class="edge">
<title>Node1&#45;&gt;Node17</title>
<g id="a_edge18_Node000001_Node000017"><a xlink:title=" ">
<path fill="none" stroke="#63b8ff" d="M113.17,-263.5C122.9,-263.5 133.1,-263.5 143.04,-263.5"/>
<polygon fill="#63b8ff" stroke="#63b8ff" points="143.27,-267 153.27,-263.5 143.27,-260 143.27,-267"/>
</a>
</g>
</g>
<!-- Node38 -->
<g id="Node000038" class="node">
<title>Node38</title>
<g id="a_Node000038"><a xlink:href="code__80086E70_8c.html#ac9171108201f29dda52974a4a5c68a04" target="_top" xlink:title=" ">
<polygon fill="white" stroke="#666666" points="267,-193 149,-193 149,-174 267,-174 267,-193"/>
<text text-anchor="middle" x="208" y="-181" font-family="Helvetica,sans-Serif" font-size="10.00">set_obj_origin_offset</text>
</a>
</g>
</g>
<!-- Node1&#45;&gt;Node38 -->
<g id="edge44_Node000001_Node000038" class="edge">
<title>Node1&#45;&gt;Node38</title>
<g id="a_edge44_Node000001_Node000038"><a xlink:title=" ">
<path fill="none" stroke="#63b8ff" d="M69.23,-253.86C86.01,-240.49 118.22,-216.3 149,-201.5 152.79,-199.68 156.82,-197.98 160.9,-196.42"/>
<polygon fill="#63b8ff" stroke="#63b8ff" points="162.22,-199.67 170.48,-193.03 159.88,-193.07 162.22,-199.67"/>
</a>
</g>
</g>
<!-- Node39 -->
<g id="Node000039" class="node">
<title>Node39</title>
<g id="a_Node000039"><a xlink:href="code__80086E70_8c.html#a670bd4aa157a5ec3dd6a4f4335a13ea4" target="_top" xlink:title=" ">
<polygon fill="white" stroke="#666666" points="261.5,-156 154.5,-156 154.5,-137 261.5,-137 261.5,-156"/>
<text text-anchor="middle" x="208" y="-144" font-family="Helvetica,sans-Serif" font-size="10.00">set_obj_origin_pos</text>
</a>
</g>
</g>
<!-- Node1&#45;&gt;Node39 -->
<g id="edge45_Node000001_Node000039" class="edge">
<title>Node1&#45;&gt;Node39</title>
<g id="a_edge45_Node000001_Node000039"><a xlink:title=" ">
<path fill="none" stroke="#63b8ff" d="M63.83,-253.77C77.18,-234.01 110.2,-188.98 149,-164.5 151.59,-162.87 154.34,-161.37 157.18,-160"/>
<polygon fill="#63b8ff" stroke="#63b8ff" points="158.63,-163.19 166.47,-156.06 155.9,-156.74 158.63,-163.19"/>
</a>
</g>
</g>
<!-- Node3 -->
<g id="Node000003" class="node">
<title>Node3</title>
<g id="a_Node000003"><a xlink:href="update__objects_8c.html#ad33541b9fed7857e59b2d745298f2d44" target="_top" xlink:title=" ">
<polygon fill="white" stroke="#666666" points="625,-468.5 500,-468.5 500,-438.5 625,-438.5 625,-468.5"/>
<text text-anchor="start" x="508" y="-456.5" font-family="Helvetica,sans-Serif" font-size="10.00">set_object_flag_status</text>
<text text-anchor="middle" x="562.5" y="-445.5" font-family="Helvetica,sans-Serif" font-size="10.00">_false</text>
</a>
</g>
</g>
<!-- Node2&#45;&gt;Node3 -->
<g id="edge2_Node000002_Node000003" class="edge">
<title>Node2&#45;&gt;Node3</title>
<g id="a_edge2_Node000002_Node000003"><a xlink:title=" ">
<path fill="none" stroke="#63b8ff" d="M250.93,-423.08C267.13,-426.49 285.85,-430.08 303,-432.5 365.8,-441.37 437.75,-446.83 489.77,-449.96"/>
<polygon fill="#63b8ff" stroke="#63b8ff" points="489.72,-453.46 499.9,-450.55 490.13,-446.47 489.72,-453.46"/>
</a>
</g>
</g>
<!-- Node4 -->
<g id="Node000004" class="node">
<title>Node4</title>
<g id="a_Node000004"><a xlink:href="update__objects_8c.html#a4b4f00a7df0f9bc44914cd922c3cd51b" target="_top" xlink:title=" ">
<polygon fill="white" stroke="#666666" points="430.5,-423 315.5,-423 315.5,-404 430.5,-404 430.5,-423"/>
<text text-anchor="middle" x="373" y="-411" font-family="Helvetica,sans-Serif" font-size="10.00">set_object_unk_0CB</text>
</a>
</g>
</g>
<!-- Node2&#45;&gt;Node4 -->
<g id="edge3_Node000002_Node000004" class="edge">
<title>Node2&#45;&gt;Node4</title>
<g id="a_edge3_Node000002_Node000004"><a xlink:title=" ">
<path fill="none" stroke="#63b8ff" d="M253.54,-413.5C269.46,-413.5 287.76,-413.5 305.14,-413.5"/>
<polygon fill="#63b8ff" stroke="#63b8ff" points="305.25,-417 315.25,-413.5 305.25,-410 305.25,-417"/>
</a>
</g>
</g>
<!-- Node6 -->
<g id="Node000006" class="node">
<title>Node6</title>
<g id="a_Node000006"><a xlink:href="code__80086E70_8c.html#ad844d2fe27c3f0bb5979715fae72559a" target="_top" xlink:title=" ">
<polygon fill="white" stroke="#666666" points="418.5,-383 327.5,-383 327.5,-364 418.5,-364 418.5,-383"/>
<text text-anchor="middle" x="373" y="-371" font-family="Helvetica,sans-Serif" font-size="10.00">func_80086E70</text>
</a>
</g>
</g>
<!-- Node5&#45;&gt;Node6 -->
<g id="edge5_Node000005_Node000006" class="edge">
<title>Node5&#45;&gt;Node6</title>
<g id="a_edge5_Node000005_Node000006"><a xlink:title=" ">
<path fill="none" stroke="#63b8ff" d="M253.54,-367.69C273.14,-368.65 296.35,-369.79 317.01,-370.8"/>
<polygon fill="#63b8ff" stroke="#63b8ff" points="317.07,-374.31 327.23,-371.3 317.41,-367.32 317.07,-374.31"/>
</a>
</g>
</g>
<!-- Node6&#45;&gt;Node3 -->
<g id="edge6_Node000006_Node000003" class="edge">
<title>Node6&#45;&gt;Node3</title>
<g id="a_edge6_Node000006_Node000003"><a xlink:title=" ">
<path fill="none" stroke="#63b8ff" d="M414.35,-383.03C424.1,-386.23 434.23,-390.33 443,-395.5 461.96,-406.68 459.9,-418.57 479,-429.5 482.64,-431.58 486.48,-433.5 490.42,-435.26"/>
<polygon fill="#63b8ff" stroke="#63b8ff" points="489.2,-438.54 499.79,-439.09 491.85,-432.06 489.2,-438.54"/>
</a>
</g>
</g>
<!-- Node7&#45;&gt;Node3 -->
<g id="edge15_Node000007_Node000003" class="edge">
<title>Node7&#45;&gt;Node3</title>
<g id="a_edge15_Node000007_Node000003"><a xlink:title=" ">
<path fill="none" stroke="#63b8ff" d="M418.67,-342.86C427.42,-345.67 436.02,-349.7 443,-355.5 471.13,-378.88 451.04,-405.92 479,-429.5 482.66,-432.58 486.69,-435.27 490.95,-437.61"/>
<polygon fill="#63b8ff" stroke="#63b8ff" points="489.44,-440.77 499.97,-441.95 492.47,-434.46 489.44,-440.77"/>
</a>
</g>
</g>
<!-- Node8 -->
<g id="Node000008" class="node">
<title>Node8</title>
<g id="a_Node000008"><a xlink:href="math__util_8c.html#aaa39a297477f56051975259f4bddd829" target="_top" xlink:title=" ">
<polygon fill="white" stroke="#666666" points="587.5,-420 537.5,-420 537.5,-401 587.5,-401 587.5,-420"/>
<text text-anchor="middle" x="562.5" y="-408" font-family="Helvetica,sans-Serif" font-size="10.00">atan2s</text>
</a>
</g>
</g>
<!-- Node7&#45;&gt;Node8 -->
<g id="edge8_Node000007_Node000008" class="edge">
<title>Node7&#45;&gt;Node8</title>
<g id="a_edge8_Node000007_Node000008"><a xlink:title=" ">
<path fill="none" stroke="#63b8ff" d="M418.85,-345.12C427.21,-347.75 435.62,-351.14 443,-355.5 462.75,-367.18 458.94,-381.36 479,-392.5 493.68,-400.65 511.75,-405.11 527.22,-407.56"/>
<polygon fill="#63b8ff" stroke="#63b8ff" points="527.07,-411.07 537.45,-408.94 528.01,-404.13 527.07,-411.07"/>
</a>
</g>
</g>
<!-- Node10 -->
<g id="Node000010" class="node">
<title>Node10</title>
<g id="a_Node000010"><a xlink:href="collision_8c.html#afa1243eb9b3a14bc92434a8a19c162be" target="_top" xlink:title=" ">
<polygon fill="white" stroke="#666666" points="608.5,-383 516.5,-383 516.5,-364 608.5,-364 608.5,-383"/>
<text text-anchor="middle" x="562.5" y="-371" font-family="Helvetica,sans-Serif" font-size="10.00">func_802ABE30</text>
</a>
</g>
</g>
<!-- Node7&#45;&gt;Node10 -->
<g id="edge10_Node000007_Node000010" class="edge">
<title>Node7&#45;&gt;Node10</title>
<g id="a_edge10_Node000007_Node000010"><a xlink:title=" ">
<path fill="none" stroke="#63b8ff" d="M418.91,-345.36C445.16,-350.54 478.49,-357.12 506.32,-362.61"/>
<polygon fill="#63b8ff" stroke="#63b8ff" points="505.82,-366.08 516.31,-364.58 507.17,-359.21 505.82,-366.08"/>
</a>
</g>
</g>
<!-- Node11 -->
<g id="Node000011" class="node">
<title>Node11</title>
<g id="a_Node000011"><a xlink:href="collision_8c.html#a365367628b7140a7a880beeecce9c305" target="_top" xlink:title=" ">
<polygon fill="white" stroke="#666666" points="913.5,-326 818.5,-326 818.5,-307 913.5,-307 913.5,-326"/>
<text text-anchor="middle" x="866" y="-314" font-family="Helvetica,sans-Serif" font-size="10.00">func_802ADDC8</text>
</a>
</g>
</g>
<!-- Node7&#45;&gt;Node11 -->
<g id="edge11_Node000007_Node000011" class="edge">
<title>Node7&#45;&gt;Node11</title>
<g id="a_edge11_Node000007_Node000011"><a xlink:title=" ">
<path fill="none" stroke="#63b8ff" d="M418.87,-334.67C508.5,-331.02 709.52,-322.83 808.18,-318.81"/>
<polygon fill="#63b8ff" stroke="#63b8ff" points="808.41,-322.31 818.26,-318.4 808.13,-315.31 808.41,-322.31"/>
</a>
</g>
</g>
<!-- Node15 -->
<g id="Node000015" class="node">
<title>Node15</title>
<g id="a_Node000015"><a xlink:href="update__objects_8c.html#a00a4e96fc9576ef2552de1c51cf2aa7c" target="_top" xlink:title=" ">
<polygon fill="white" stroke="#666666" points="637.5,-307 487.5,-307 487.5,-288 637.5,-288 637.5,-307"/>
<text text-anchor="middle" x="562.5" y="-295" font-family="Helvetica,sans-Serif" font-size="10.00">set_object_flag_status_true</text>
</a>
</g>
</g>
<!-- Node7&#45;&gt;Node15 -->
<g id="edge16_Node000007_Node000015" class="edge">
<title>Node7&#45;&gt;Node15</title>
<g id="a_edge16_Node000007_Node000015"><a xlink:title=" ">
<path fill="none" stroke="#63b8ff" d="M418.91,-327.16C444.96,-321.74 478,-314.87 505.71,-309.1"/>
<polygon fill="#63b8ff" stroke="#63b8ff" points="506.58,-312.5 515.65,-307.04 505.15,-305.65 506.58,-312.5"/>
</a>
</g>
</g>
<!-- Node9 -->
<g id="Node000009" class="node">
<title>Node9</title>
<g id="a_Node000009"><a xlink:href="math__util_8c.html#a0273b0ea0783a06996c28669a7438ed9" target="_top" xlink:title=" ">
<polygon fill="white" stroke="#666666" points="764,-420 682,-420 682,-401 764,-401 764,-420"/>
<text text-anchor="middle" x="723" y="-408" font-family="Helvetica,sans-Serif" font-size="10.00">atan2_lookup</text>
</a>
</g>
</g>
<!-- Node8&#45;&gt;Node9 -->
<g id="edge9_Node000008_Node000009" class="edge">
<title>Node8&#45;&gt;Node9</title>
<g id="a_edge9_Node000008_Node000009"><a xlink:title=" ">
<path fill="none" stroke="#63b8ff" d="M587.57,-410.5C609.86,-410.5 643.71,-410.5 671.87,-410.5"/>
<polygon fill="#63b8ff" stroke="#63b8ff" points="671.95,-414 681.95,-410.5 671.95,-407 671.95,-414"/>
</a>
</g>
</g>
<!-- Node12 -->
<g id="Node000012" class="node">
<title>Node12</title>
<g id="a_Node000012"><a xlink:href="collision_8c.html#afce45acb8da354da0a5b501003be1aef" target="_top" xlink:title=" ">
<polygon fill="white" stroke="#666666" points="1090.5,-289 997.5,-289 997.5,-270 1090.5,-270 1090.5,-289"/>
<text text-anchor="middle" x="1044" y="-277" font-family="Helvetica,sans-Serif" font-size="10.00">func_802AAE4C</text>
</a>
</g>
</g>
<!-- Node11&#45;&gt;Node12 -->
<g id="edge12_Node000011_Node000012" class="edge">
<title>Node11&#45;&gt;Node12</title>
<g id="a_edge12_Node000011_Node000012"><a xlink:title=" ">
<path fill="none" stroke="#63b8ff" d="M912.32,-306.97C935.33,-302.14 963.47,-296.22 987.74,-291.12"/>
<polygon fill="#63b8ff" stroke="#63b8ff" points="988.46,-294.54 997.52,-289.06 987.02,-287.69 988.46,-294.54"/>
</a>
</g>
</g>
<!-- Node13 -->
<g id="Node000013" class="node">
<title>Node13</title>
<g id="a_Node000013"><a xlink:href="collision_8c.html#adcc608ea0eae3bf9a27ab79ec64b4899" target="_top" xlink:title=" ">
<polygon fill="white" stroke="#666666" points="1090,-363 998,-363 998,-344 1090,-344 1090,-363"/>
<text text-anchor="middle" x="1044" y="-351" font-family="Helvetica,sans-Serif" font-size="10.00">func_802AB288</text>
</a>
</g>
</g>
<!-- Node11&#45;&gt;Node13 -->
<g id="edge13_Node000011_Node000013" class="edge">
<title>Node11&#45;&gt;Node13</title>
<g id="a_edge13_Node000011_Node000013"><a xlink:title=" ">
<path fill="none" stroke="#63b8ff" d="M912.32,-326.03C935.42,-330.88 963.69,-336.83 988.02,-341.94"/>
<polygon fill="#63b8ff" stroke="#63b8ff" points="987.32,-345.37 997.83,-344 988.76,-338.52 987.32,-345.37"/>
</a>
</g>
</g>
<!-- Node14 -->
<g id="Node000014" class="node">
<title>Node14</title>
<g id="a_Node000014"><a xlink:href="collision_8c.html#ab440aa3fc960b7b4b5ad8e4bcaa06b00" target="_top" xlink:title=" ">
<polygon fill="white" stroke="#666666" points="1090.5,-326 997.5,-326 997.5,-307 1090.5,-307 1090.5,-326"/>
<text text-anchor="middle" x="1044" y="-314" font-family="Helvetica,sans-Serif" font-size="10.00">func_802AB6C4</text>
</a>
</g>
</g>
<!-- Node11&#45;&gt;Node14 -->
<g id="edge14_Node000011_Node000014" class="edge">
<title>Node11&#45;&gt;Node14</title>
<g id="a_edge14_Node000011_Node000014"><a xlink:title=" ">
<path fill="none" stroke="#63b8ff" d="M913.7,-316.5C936.24,-316.5 963.44,-316.5 987.07,-316.5"/>
<polygon fill="#63b8ff" stroke="#63b8ff" points="987.3,-320 997.3,-316.5 987.3,-313 987.3,-320"/>
</a>
</g>
</g>
<!-- Node18 -->
<g id="Node000018" class="node">
<title>Node18</title>
<g id="a_Node000018"><a xlink:href="actors_8c.html#a91fb2e4e37e7c72fea918fe2c1bb4eaf" target="_top" xlink:title=" ">
<polygon fill="white" stroke="#666666" points="443,-175 303,-175 303,-156 443,-156 443,-175"/>
<text text-anchor="middle" x="373" y="-163" font-family="Helvetica,sans-Serif" font-size="10.00">add_actor_to_empty_slot</text>
</a>
</g>
</g>
<!-- Node17&#45;&gt;Node18 -->
<g id="edge19_Node000017_Node000018" class="edge">
<title>Node17&#45;&gt;Node18</title>
<g id="a_edge19_Node000017_Node000018"><a xlink:title=" ">
<path fill="none" stroke="#63b8ff" d="M249.36,-248.47C255.48,-245.53 261.56,-242.19 267,-238.5 285.72,-225.79 284.83,-215.99 303,-202.5 314.83,-193.72 329.01,-185.74 341.43,-179.46"/>
<polygon fill="#63b8ff" stroke="#63b8ff" points="343.08,-182.55 350.51,-175 339.99,-176.26 343.08,-182.55"/>
</a>
</g>
</g>
<!-- Node33 -->
<g id="Node000033" class="node">
<title>Node33</title>
<g id="a_Node000033"><a xlink:href="math__util_8c.html#a79fd07a0971ec96a3ff0801963a2fa7f" target="_top" xlink:title=" ">
<polygon fill="white" stroke="#666666" points="1076,-223 1012,-223 1012,-204 1076,-204 1076,-223"/>
<text text-anchor="middle" x="1044" y="-211" font-family="Helvetica,sans-Serif" font-size="10.00">vec3f_set</text>
</a>
</g>
</g>
<!-- Node17&#45;&gt;Node33 -->
<g id="edge42_Node000017_Node000033" class="edge">
<title>Node17&#45;&gt;Node33</title>
<g id="a_edge42_Node000017_Node000033"><a xlink:title=" ">
<path fill="none" stroke="#63b8ff" d="M262.75,-262.51C331.86,-261.33 455.62,-259.5 561.5,-259.5 561.5,-259.5 561.5,-259.5 724,-259.5 816.87,-259.5 840.36,-254.57 932,-239.5 955.33,-235.66 981.06,-229.75 1001.86,-224.53"/>
<polygon fill="#63b8ff" stroke="#63b8ff" points="1002.82,-227.89 1011.65,-222.03 1001.09,-221.11 1002.82,-227.89"/>
</a>
</g>
</g>
<!-- Node37 -->
<g id="Node000037" class="node">
<title>Node37</title>
<g id="a_Node000037"><a xlink:href="math__util_8c.html#a9092c945c52b3a3481228b2724991e3c" target="_top" xlink:title=" ">
<polygon fill="white" stroke="#666666" points="405.5,-231 340.5,-231 340.5,-212 405.5,-212 405.5,-231"/>
<text text-anchor="middle" x="373" y="-219" font-family="Helvetica,sans-Serif" font-size="10.00">vec3s_set</text>
</a>
</g>
</g>
<!-- Node17&#45;&gt;Node37 -->
<g id="edge43_Node000017_Node000037" class="edge">
<title>Node17&#45;&gt;Node37</title>
<g id="a_edge43_Node000017_Node000037"><a xlink:title=" ">
<path fill="none" stroke="#63b8ff" d="M262.82,-249.63C284.82,-243.96 309.86,-237.51 330.42,-232.22"/>
<polygon fill="#63b8ff" stroke="#63b8ff" points="331.3,-235.6 340.11,-229.72 329.55,-228.82 331.3,-235.6"/>
</a>
</g>
</g>
<!-- Node19 -->
<g id="Node000019" class="node">
<title>Node19</title>
<g id="a_Node000019"><a xlink:href="actors_8c.html#a39c023177b5a7686cdd1fc65b8b953e1" target="_top" xlink:title=" ">
<polygon fill="white" stroke="#666666" points="754,-175 692,-175 692,-156 754,-156 754,-175"/>
<text text-anchor="middle" x="723" y="-163" font-family="Helvetica,sans-Serif" font-size="10.00">actor_init</text>
</a>
</g>
</g>
<!-- Node18&#45;&gt;Node19 -->
<g id="edge20_Node000018_Node000019" class="edge">
<title>Node18&#45;&gt;Node19</title>
<g id="a_edge20_Node000018_Node000019"><a xlink:title=" ">
<path fill="none" stroke="#63b8ff" d="M443.17,-165.5C514.45,-165.5 623.16,-165.5 681.55,-165.5"/>
<polygon fill="#63b8ff" stroke="#63b8ff" points="681.85,-169 691.85,-165.5 681.85,-162 681.85,-169"/>
</a>
</g>
</g>
<!-- Node36 -->
<g id="Node000036" class="node">
<title>Node36</title>
<g id="a_Node000036"><a xlink:href="actors_8c.html#adf454481afb7fd833f5ce3f01dea4bea" target="_top" xlink:title=" ">
<polygon fill="white" stroke="#666666" points="646,-113 479,-113 479,-94 646,-94 646,-113"/>
<text text-anchor="middle" x="562.5" y="-101" font-family="Helvetica,sans-Serif" font-size="10.00">try_remove_destructable_item</text>
</a>
</g>
</g>
<!-- Node18&#45;&gt;Node36 -->
<g id="edge38_Node000018_Node000036" class="edge">
<title>Node18&#45;&gt;Node36</title>
<g id="a_edge38_Node000018_Node000036"><a xlink:title=" ">
<path fill="none" stroke="#63b8ff" d="M402.89,-155.95C435.09,-145.3 487.33,-128.02 522.99,-116.23"/>
<polygon fill="#63b8ff" stroke="#63b8ff" points="524.19,-119.53 532.58,-113.06 521.99,-112.88 524.19,-119.53"/>
</a>
</g>
</g>
<!-- Node19&#45;&gt;Node11 -->
<g id="edge35_Node000019_Node000011" class="edge">
<title>Node19&#45;&gt;Node11</title>
<g id="a_edge35_Node000019_Node000011"><a xlink:title=" ">
<path fill="none" stroke="#63b8ff" d="M733.25,-175.41C756.76,-200.58 819.03,-267.27 848.76,-299.11"/>
<polygon fill="#63b8ff" stroke="#63b8ff" points="846.51,-301.83 855.9,-306.75 851.63,-297.05 846.51,-301.83"/>
</a>
</g>
</g>
<!-- Node20 -->
<g id="Node000020" class="node">
<title>Node20</title>
<g id="a_Node000020"><a xlink:href="actors_8c.html#a1a9bccb586242555a9123ebd4ab70f2a" target="_top" xlink:title=" ">
<polygon fill="white" stroke="#666666" points="932,-119.5 800,-119.5 800,-89.5 932,-89.5 932,-119.5"/>
<text text-anchor="start" x="808" y="-107.5" font-family="Helvetica,sans-Serif" font-size="10.00">cleanup_red_and_green</text>
<text text-anchor="middle" x="866" y="-96.5" font-family="Helvetica,sans-Serif" font-size="10.00">_shells</text>
</a>
</g>
</g>
<!-- Node19&#45;&gt;Node20 -->
<g id="edge21_Node000019_Node000020" class="edge">
<title>Node19&#45;&gt;Node20</title>
<g id="a_edge21_Node000019_Node000020"><a xlink:title=" ">
<path fill="none" stroke="#63b8ff" d="M742.5,-155.85C757.74,-148.06 780.02,-137.03 800,-128.5 804.16,-126.73 808.5,-124.95 812.87,-123.23"/>
<polygon fill="#63b8ff" stroke="#63b8ff" points="814.39,-126.39 822.45,-119.52 811.86,-119.86 814.39,-126.39"/>
</a>
</g>
</g>
<!-- Node32 -->
<g id="Node000032" class="node">
<title>Node32</title>
<g id="a_Node000032"><a xlink:href="collision_8c.html#ad72fef3ffe32191d73b1822f512ebf3f" target="_top" xlink:title=" ">
<polygon fill="white" stroke="#666666" points="913.5,-194 818.5,-194 818.5,-175 913.5,-175 913.5,-194"/>
<text text-anchor="middle" x="866" y="-182" font-family="Helvetica,sans-Serif" font-size="10.00">func_802AAAAC</text>
</a>
</g>
</g>
<!-- Node19&#45;&gt;Node32 -->
<g id="edge33_Node000019_Node000032" class="edge">
<title>Node19&#45;&gt;Node32</title>
<g id="a_edge33_Node000019_Node000032"><a xlink:title=" ">
<path fill="none" stroke="#63b8ff" d="M754.25,-169.58C770.02,-171.7 789.83,-174.37 808.33,-176.86"/>
<polygon fill="#63b8ff" stroke="#63b8ff" points="808.05,-180.36 818.43,-178.22 808.99,-173.42 808.05,-180.36"/>
</a>
</g>
</g>
<!-- Node34 -->
<g id="Node000034" class="node">
<title>Node34</title>
<g id="a_Node000034"><a xlink:href="math__util_8c.html#af7b470ed76fce07b8042a47c96e5690b" target="_top" xlink:title=" ">
<polygon fill="white" stroke="#666666" points="919.5,-157 812.5,-157 812.5,-138 919.5,-138 919.5,-157"/>
<text text-anchor="middle" x="866" y="-145" font-family="Helvetica,sans-Serif" font-size="10.00">vec3f_copy_return</text>
</a>
</g>
</g>
<!-- Node19&#45;&gt;Node34 -->
<g id="edge36_Node000019_Node000034" class="edge">
<title>Node19&#45;&gt;Node34</title>
<g id="a_edge36_Node000019_Node000034"><a xlink:title=" ">
<path fill="none" stroke="#63b8ff" d="M754.25,-161.64C768.25,-159.85 785.45,-157.66 802.07,-155.53"/>
<polygon fill="#63b8ff" stroke="#63b8ff" points="802.84,-158.96 812.31,-154.23 801.95,-152.02 802.84,-158.96"/>
</a>
</g>
</g>
<!-- Node35 -->
<g id="Node000035" class="node">
<title>Node35</title>
<g id="a_Node000035"><a xlink:href="math__util_8c.html#a0e270ee67600c8c9c2f140c647d008a1" target="_top" xlink:title=" ">
<polygon fill="white" stroke="#666666" points="903,-231 829,-231 829,-212 903,-212 903,-231"/>
<text text-anchor="middle" x="866" y="-219" font-family="Helvetica,sans-Serif" font-size="10.00">vec3s_copy</text>
</a>
</g>
</g>
<!-- Node19&#45;&gt;Node35 -->
<g id="edge37_Node000019_Node000035" class="edge">
<title>Node19&#45;&gt;Node35</title>
<g id="a_edge37_Node000019_Node000035"><a xlink:title=" ">
<path fill="none" stroke="#63b8ff" d="M741.44,-175.04C756.6,-183.08 779.33,-194.51 800,-202.5 806.05,-204.84 812.5,-207.05 818.91,-209.08"/>
<polygon fill="#63b8ff" stroke="#63b8ff" points="818.29,-212.55 828.88,-212.11 820.33,-205.85 818.29,-212.55"/>
</a>
</g>
</g>
<!-- Node21 -->
<g id="Node000021" class="node">
<title>Node21</title>
<g id="a_Node000021"><a xlink:href="actors_8c.html#a694ec6ef7548b8618aeb35c038d3a9b9" target="_top" xlink:title=" ">
<polygon fill="white" stroke="#666666" points="1085.5,-117 1002.5,-117 1002.5,-98 1085.5,-98 1085.5,-117"/>
<text text-anchor="middle" x="1044" y="-105" font-family="Helvetica,sans-Serif" font-size="10.00">destroy_actor</text>
</a>
</g>
</g>
<!-- Node20&#45;&gt;Node21 -->
<g id="edge22_Node000020_Node000021" class="edge">
<title>Node20&#45;&gt;Node21</title>
<g id="a_edge22_Node000020_Node000021"><a xlink:title=" ">
<path fill="none" stroke="#63b8ff" d="M932.04,-105.61C951.95,-105.95 973.55,-106.32 992.35,-106.64"/>
<polygon fill="#63b8ff" stroke="#63b8ff" points="992.42,-110.14 1002.48,-106.81 992.54,-103.14 992.42,-110.14"/>
</a>
</g>
</g>
<!-- Node31 -->
<g id="Node000031" class="node">
<title>Node31</title>
<g id="a_Node000031"><a xlink:href="code__80005FD0_8c.html#acb7b3d384c78d219f4b7040e78f6a2f2" target="_top" xlink:title=" ">
<polygon fill="white" stroke="#666666" points="1120,-79.5 968,-79.5 968,-49.5 1120,-49.5 1120,-79.5"/>
<text text-anchor="start" x="976" y="-67.5" font-family="Helvetica,sans-Serif" font-size="10.00">remove_actor_in_unexpired</text>
<text text-anchor="middle" x="1044" y="-56.5" font-family="Helvetica,sans-Serif" font-size="10.00">_actor_list</text>
</a>
</g>
</g>
<!-- Node20&#45;&gt;Node31 -->
<g id="edge32_Node000020_Node000031" class="edge">
<title>Node20&#45;&gt;Node31</title>
<g id="a_edge32_Node000020_Node000031"><a xlink:title=" ">
<path fill="none" stroke="#63b8ff" d="M932.04,-89.72C943.32,-87.15 955.15,-84.47 966.7,-81.84"/>
<polygon fill="#63b8ff" stroke="#63b8ff" points="967.79,-85.18 976.76,-79.55 966.23,-78.36 967.79,-85.18"/>
</a>
</g>
</g>
<!-- Node22 -->
<g id="Node000022" class="node">
<title>Node22</title>
<g id="a_Node000022"><a xlink:href="actors_8c.html#ad5a56c8f7eaf719223099cce9e38ec9f" target="_top" xlink:title=" ">
<polygon fill="white" stroke="#666666" points="1307,-74 1156,-74 1156,-55 1307,-55 1307,-74"/>
<text text-anchor="middle" x="1231.5" y="-62" font-family="Helvetica,sans-Serif" font-size="10.00">play_sound_before_destroy</text>
</a>
</g>
</g>
<!-- Node21&#45;&gt;Node22 -->
<g id="edge23_Node000021_Node000022" class="edge">
<title>Node21&#45;&gt;Node22</title>
<g id="a_edge23_Node000021_Node000022"><a xlink:title=" ">
<path fill="none" stroke="#63b8ff" d="M1085.71,-98.06C1113.18,-91.69 1149.67,-83.24 1179.14,-76.41"/>
<polygon fill="#63b8ff" stroke="#63b8ff" points="1180.29,-79.73 1189.25,-74.06 1178.71,-72.91 1180.29,-79.73"/>
</a>
</g>
</g>
<!-- Node23 -->
<g id="Node000023" class="node">
<title>Node23</title>
<g id="a_Node000023"><a xlink:href="external_8c.html#ae72057869772019e4464c87d4e16c682" target="_top" xlink:title=" ">
<polygon fill="white" stroke="#666666" points="1435,-74 1343,-74 1343,-55 1435,-55 1435,-74"/>
<text text-anchor="middle" x="1389" y="-62" font-family="Helvetica,sans-Serif" font-size="10.00">func_800C99E0</text>
</a>
</g>
</g>
<!-- Node22&#45;&gt;Node23 -->
<g id="edge24_Node000022_Node000023" class="edge">
<title>Node22&#45;&gt;Node23</title>
<g id="a_edge24_Node000022_Node000023"><a xlink:title=" ">
<path fill="none" stroke="#63b8ff" d="M1307.06,-64.5C1315.61,-64.5 1324.21,-64.5 1332.45,-64.5"/>
<polygon fill="#63b8ff" stroke="#63b8ff" points="1332.66,-68 1342.66,-64.5 1332.66,-61 1332.66,-68"/>
</a>
</g>
</g>
<!-- Node24 -->
<g id="Node000024" class="node">
<title>Node24</title>
<g id="a_Node000024"><a xlink:href="external_8c.html#aeb87c527482a244173df36a1f3d4f446" target="_top" xlink:title=" ">
<polygon fill="white" stroke="#666666" points="1563,-93 1471,-93 1471,-74 1563,-74 1563,-93"/>
<text text-anchor="middle" x="1517" y="-81" font-family="Helvetica,sans-Serif" font-size="10.00">func_800C21E8</text>
</a>
</g>
</g>
<!-- Node23&#45;&gt;Node24 -->
<g id="edge25_Node000023_Node000024" class="edge">
<title>Node23&#45;&gt;Node24</title>
<g id="a_edge25_Node000023_Node000024"><a xlink:title=" ">
<path fill="none" stroke="#63b8ff" d="M1435.13,-71.31C1443.46,-72.56 1452.23,-73.88 1460.81,-75.18"/>
<polygon fill="#63b8ff" stroke="#63b8ff" points="1460.35,-78.65 1470.76,-76.68 1461.39,-71.73 1460.35,-78.65"/>
</a>
</g>
</g>
<!-- Node25 -->
<g id="Node000025" class="node">
<title>Node25</title>
<g id="a_Node000025"><a xlink:href="external_8c.html#a028d40421b90c38f68ebfd5acc626f2e" target="_top" xlink:title=" ">
<polygon fill="white" stroke="#666666" points="1563,-56 1471,-56 1471,-37 1563,-37 1563,-56"/>
<text text-anchor="middle" x="1517" y="-44" font-family="Helvetica,sans-Serif" font-size="10.00">func_800C5578</text>
</a>
</g>
</g>
<!-- Node23&#45;&gt;Node25 -->
<g id="edge26_Node000023_Node000025" class="edge">
<title>Node23&#45;&gt;Node25</title>
<g id="a_edge26_Node000023_Node000025"><a xlink:title=" ">
<path fill="none" stroke="#63b8ff" d="M1435.13,-58.05C1443.46,-56.86 1452.23,-55.61 1460.81,-54.38"/>
<polygon fill="#63b8ff" stroke="#63b8ff" points="1461.35,-57.84 1470.76,-52.96 1460.36,-50.91 1461.35,-57.84"/>
</a>
</g>
</g>
<!-- Node26 -->
<g id="Node000026" class="node">
<title>Node26</title>
<g id="a_Node000026"><a xlink:href="external_8c.html#ac0fb767de7e14a03f1bcfa53f0abd23b" target="_top" xlink:title=" ">
<polygon fill="white" stroke="#666666" points="1739,-93 1599,-93 1599,-74 1739,-74 1739,-93"/>
<text text-anchor="middle" x="1669" y="-81" font-family="Helvetica,sans-Serif" font-size="10.00">delete_sound_from_bank</text>
</a>
</g>
</g>
<!-- Node25&#45;&gt;Node26 -->
<g id="edge27_Node000025_Node000026" class="edge">
<title>Node25&#45;&gt;Node26</title>
<g id="a_edge27_Node000025_Node000026"><a xlink:title=" ">
<path fill="none" stroke="#63b8ff" d="M1556.63,-56.03C1575.8,-60.76 1599.16,-66.52 1619.52,-71.54"/>
<polygon fill="#63b8ff" stroke="#63b8ff" points="1618.69,-74.94 1629.24,-73.94 1620.37,-68.15 1618.69,-74.94"/>
</a>
</g>
</g>
<!-- Node28 -->
<g id="Node000028" class="node">
<title>Node28</title>
<g id="a_Node000028"><a xlink:href="external_8c.html#ab83bd36e63f0f1baddcb2482b5ad31b0" target="_top" xlink:title=" ">
<polygon fill="white" stroke="#666666" points="1715.5,-56 1622.5,-56 1622.5,-37 1715.5,-37 1715.5,-56"/>
<text text-anchor="middle" x="1669" y="-44" font-family="Helvetica,sans-Serif" font-size="10.00">func_800C41CC</text>
</a>
</g>
</g>
<!-- Node25&#45;&gt;Node28 -->
<g id="edge29_Node000025_Node000028" class="edge">
<title>Node25&#45;&gt;Node28</title>
<g id="a_edge29_Node000025_Node000028"><a xlink:title=" ">
<path fill="none" stroke="#63b8ff" d="M1563,-46.5C1578.37,-46.5 1595.74,-46.5 1611.86,-46.5"/>
<polygon fill="#63b8ff" stroke="#63b8ff" points="1612.25,-50 1622.25,-46.5 1612.25,-43 1612.25,-50"/>
</a>
</g>
</g>
<!-- Node29 -->
<g id="Node000029" class="node">
<title>Node29</title>
<g id="a_Node000029"><a xlink:href="port__eu_8c.html#aa89dfaecca46c6d071f08c1898d1f7c9" target="_top" xlink:title=" ">
<polygon fill="white" stroke="#666666" points="1715.5,-19 1622.5,-19 1622.5,0 1715.5,0 1715.5,-19"/>
<text text-anchor="middle" x="1669" y="-7" font-family="Helvetica,sans-Serif" font-size="10.00">func_800CBBE8</text>
</a>
</g>
</g>
<!-- Node25&#45;&gt;Node29 -->
<g id="edge30_Node000025_Node000029" class="edge">
<title>Node25&#45;&gt;Node29</title>
<g id="a_edge30_Node000025_Node000029"><a xlink:title=" ">
<path fill="none" stroke="#63b8ff" d="M1556.63,-36.97C1575.8,-32.24 1599.16,-26.48 1619.52,-21.46"/>
<polygon fill="#63b8ff" stroke="#63b8ff" points="1620.37,-24.85 1629.24,-19.06 1618.69,-18.06 1620.37,-24.85"/>
</a>
</g>
</g>
<!-- Node27 -->
<g id="Node000027" class="node">
<title>Node27</title>
<g id="a_Node000027"><a xlink:href="external_8c.html#a358ac55e8ab5262dcae8037334be06d7" target="_top" xlink:title=" ">
<polygon fill="white" stroke="#666666" points="1867.5,-93 1775.5,-93 1775.5,-74 1867.5,-74 1867.5,-93"/>
<text text-anchor="middle" x="1821.5" y="-81" font-family="Helvetica,sans-Serif" font-size="10.00">func_800C40F0</text>
</a>
</g>
</g>
<!-- Node26&#45;&gt;Node27 -->
<g id="edge28_Node000026_Node000027" class="edge">
<title>Node26&#45;&gt;Node27</title>
<g id="a_edge28_Node000026_Node000027"><a xlink:title=" ">
<path fill="none" stroke="#63b8ff" d="M1739.08,-83.5C1747.87,-83.5 1756.78,-83.5 1765.31,-83.5"/>
<polygon fill="#63b8ff" stroke="#63b8ff" points="1765.5,-87 1775.5,-83.5 1765.5,-80 1765.5,-87"/>
</a>
</g>
</g>
<!-- Node30 -->
<g id="Node000030" class="node">
<title>Node30</title>
<g id="a_Node000030"><a xlink:href="port__eu_8c.html#af361a20d2e08f30c53a237ca481ff734" target="_top" xlink:title=" ">
<polygon fill="white" stroke="#666666" points="1868,-19 1775,-19 1775,0 1868,0 1868,-19"/>
<text text-anchor="middle" x="1821.5" y="-7" font-family="Helvetica,sans-Serif" font-size="10.00">func_800CBB48</text>
</a>
</g>
</g>
<!-- Node29&#45;&gt;Node30 -->
<g id="edge31_Node000029_Node000030" class="edge">
<title>Node29&#45;&gt;Node30</title>
<g id="a_edge31_Node000029_Node000030"><a xlink:title=" ">
<path fill="none" stroke="#63b8ff" d="M1715.56,-9.5C1730.96,-9.5 1748.34,-9.5 1764.46,-9.5"/>
<polygon fill="#63b8ff" stroke="#63b8ff" points="1764.83,-13 1774.83,-9.5 1764.83,-6 1764.83,-13"/>
</a>
</g>
</g>
<!-- Node32&#45;&gt;Node33 -->
<g id="edge34_Node000032_Node000033" class="edge">
<title>Node32&#45;&gt;Node33</title>
<g id="a_edge34_Node000032_Node000033"><a xlink:title=" ">
<path fill="none" stroke="#63b8ff" d="M913.7,-192.2C941.12,-196.71 975.46,-202.37 1001.86,-206.72"/>
<polygon fill="#63b8ff" stroke="#63b8ff" points="1001.48,-210.21 1011.92,-208.38 1002.62,-203.3 1001.48,-210.21"/>
</a>
</g>
</g>
<!-- Node36&#45;&gt;Node19 -->
<g id="edge39_Node000036_Node000019" class="edge">
<title>Node36&#45;&gt;Node19</title>
<g id="a_edge39_Node000036_Node000019"><a xlink:title=" ">
<path fill="none" stroke="#63b8ff" d="M587.92,-113.05C614.68,-123.52 657.8,-140.39 687.89,-152.16"/>
<polygon fill="#63b8ff" stroke="#63b8ff" points="686.97,-155.55 697.55,-155.94 689.52,-149.04 686.97,-155.55"/>
</a>
</g>
</g>
<!-- Node36&#45;&gt;Node22 -->
<g id="edge40_Node000036_Node000022" class="edge">
<title>Node36&#45;&gt;Node22</title>
<g id="a_edge40_Node000036_Node000022"><a xlink:title=" ">
<path fill="none" stroke="#63b8ff" d="M599.29,-93.97C687.65,-71.65 923.26,-19.38 1120,-40.5 1141.87,-42.85 1165.77,-47.74 1185.73,-52.5"/>
<polygon fill="#63b8ff" stroke="#63b8ff" points="1184.94,-55.91 1195.48,-54.89 1186.6,-49.11 1184.94,-55.91"/>
</a>
</g>
</g>
<!-- Node36&#45;&gt;Node31 -->
<g id="edge41_Node000036_Node000031" class="edge">
<title>Node36&#45;&gt;Node31</title>
<g id="a_edge41_Node000036_Node000031"><a xlink:title=" ">
<path fill="none" stroke="#63b8ff" d="M646.08,-94.83C691.47,-90.23 748.81,-84.67 800,-80.5 852.41,-76.23 911.25,-72.33 957.9,-69.45"/>
<polygon fill="#63b8ff" stroke="#63b8ff" points="958.2,-72.94 967.97,-68.83 957.77,-65.95 958.2,-72.94"/>
</a>
</g>
</g>
</g>
</svg>

<g id="navigator" transform="translate(0 0)" fill="#404254">
  <rect fill="#f2f5e9" fill-opacity="0.5" stroke="#606060" stroke-width=".5" x="0" y="0" width="60" height="60"/>
  <use id="zoomplus" xlink:href="#zoomPlus" x="17" y="9" onmousedown="handleZoom(evt,'in')"/>
  <use id="zoomminus" xlink:href="#zoomMin" x="42" y="9" onmousedown="handleZoom(evt,'out')"/>
  <use id="reset" xlink:href="#resetDef" x="30" y="36" onmousedown="handleReset()"/>
   <use id="arrowup" xlink:href="#arrowUp" x="0" y="0" onmousedown="handlePan(0,-1)"/>
  <use id="arrowright" xlink:href="#arrowRight" x="0" y="0" onmousedown="handlePan(1,0)"/>
  <use id="arrowdown" xlink:href="#arrowDown" x="0" y="0" onmousedown="handlePan(0,1)"/>
  <use id="arrowleft" xlink:href="#arrowLeft" x="0" y="0" onmousedown="handlePan(-1,0)"/>
</g>
<svg viewBox="0 0 15 15" width="100%" height="30px" preserveAspectRatio="xMaxYMin meet">
 <g id="arrow_out" transform="scale(0.3 0.3)">
  <a xlink:href="update__objects_8c_a55824b184e553d99cbe9014f5e950ddc_cgraph_org.svg" target="_base">
   <rect id="button" ry="5" rx="5" y="6" x="6" height="38" width="38"
        fill="#f2f5e9" fill-opacity="0.5" stroke="#606060" stroke-width="1.0"/>
   <path id="arrow"
     d="M 11.500037,31.436501 C 11.940474,20.09759 22.043105,11.32322 32.158766,21.979434 L 37.068811,17.246167 C 37.068811,17.246167 37.088388,32 37.088388,32 L 22.160133,31.978069 C 22.160133,31.978069 26.997745,27.140456 26.997745,27.140456 C 18.528582,18.264221 13.291696,25.230495 11.500037,31.436501 z"
     style="fill:#404040;"/>
  </a>
 </g>
</svg>

<style type='text/css'>
<![CDATA[
[data-mouse-over-selected='false'] { opacity: 0.7; }
[data-mouse-over-selected='true']  { opacity: 1.0; }
]]>
</style>
<script type="application/ecmascript"><![CDATA[
document.addEventListener('DOMContentLoaded', (event) => {
  highlightEdges();
  highlightAdjacentNodes();
});
]]></script>
</svg>
