<?xml version="1.0" encoding="UTF-8" standalone="no"?>
<!DOCTYPE svg PUBLIC "-//W3C//DTD SVG 1.1//EN"
 "http://www.w3.org/Graphics/SVG/1.1/DTD/svg11.dtd">
<!-- Generated by graphviz version 2.43.0 (0)
 -->
<!-- Title: func_80085768 Pages: 1 -->
<svg width="1986pt" height="477pt"
 viewBox="0.00 0.00 1986.00 476.50" xmlns="http://www.w3.org/2000/svg" xmlns:xlink="http://www.w3.org/1999/xlink">
<g id="graph0" class="graph" transform="scale(1 1) rotate(0) translate(4 472.5)">
<title>func_80085768</title>
<!-- Node1 -->
<g id="Node000001" class="node">
<title>Node1</title>
<g id="a_Node000001"><a xlink:title=" ">
<polygon fill="#999999" stroke="#666666" points="91,-274 0,-274 0,-255 91,-255 91,-274"/>
<text text-anchor="middle" x="45.5" y="-262" font-family="Helvetica,sans-Serif" font-size="10.00">func_80085768</text>
</a>
</g>
</g>
<!-- Node2 -->
<g id="Node000002" class="node">
<title>Node2</title>
<g id="a_Node000002"><a xlink:href="update__objects_8c.html#a55824b184e553d99cbe9014f5e950ddc" target="_top" xlink:title=" ">
<polygon fill="white" stroke="#666666" points="240,-274 127,-274 127,-255 240,-255 240,-274"/>
<text text-anchor="middle" x="183.5" y="-262" font-family="Helvetica,sans-Serif" font-size="10.00">init_hot_air_balloon</text>
</a>
</g>
</g>
<!-- Node1&#45;&gt;Node2 -->
<g id="edge1_Node000001_Node000002" class="edge">
<title>Node1&#45;&gt;Node2</title>
<g id="a_edge1_Node000001_Node000002"><a xlink:title=" ">
<path fill="none" stroke="#63b8ff" d="M91.03,-264.5C99.27,-264.5 108.04,-264.5 116.75,-264.5"/>
<polygon fill="#63b8ff" stroke="#63b8ff" points="116.93,-268 126.93,-264.5 116.93,-261 116.93,-268"/>
</a>
</g>
</g>
<!-- Node3 -->
<g id="Node000003" class="node">
<title>Node3</title>
<g id="a_Node000003"><a xlink:href="update__objects_8c.html#a91e6ccbfa10d972106998ad26b271c17" target="_top" xlink:title=" ">
<polygon fill="white" stroke="#666666" points="380.5,-423 289.5,-423 289.5,-404 380.5,-404 380.5,-423"/>
<text text-anchor="middle" x="335" y="-411" font-family="Helvetica,sans-Serif" font-size="10.00">func_80072488</text>
</a>
</g>
</g>
<!-- Node2&#45;&gt;Node3 -->
<g id="edge2_Node000002_Node000003" class="edge">
<title>Node2&#45;&gt;Node3</title>
<g id="a_edge2_Node000002_Node000003"><a xlink:title=" ">
<path fill="none" stroke="#63b8ff" d="M189.98,-274.29C202.66,-296.24 236.01,-350.07 276,-383.5 283.41,-389.69 292.31,-395.09 300.89,-399.53"/>
<polygon fill="#63b8ff" stroke="#63b8ff" points="299.46,-402.73 309.99,-403.96 302.53,-396.44 299.46,-402.73"/>
</a>
</g>
</g>
<!-- Node6 -->
<g id="Node000006" class="node">
<title>Node6</title>
<g id="a_Node000006"><a xlink:href="code__80086E70_8c.html#a79b65858840f21f273d4c8fe80b56fe5" target="_top" xlink:title=" ">
<polygon fill="white" stroke="#666666" points="380.5,-374 289.5,-374 289.5,-355 380.5,-355 380.5,-374"/>
<text text-anchor="middle" x="335" y="-362" font-family="Helvetica,sans-Serif" font-size="10.00">func_80086EF0</text>
</a>
</g>
</g>
<!-- Node2&#45;&gt;Node6 -->
<g id="edge5_Node000002_Node000006" class="edge">
<title>Node2&#45;&gt;Node6</title>
<g id="a_edge5_Node000002_Node000006"><a xlink:title=" ">
<path fill="none" stroke="#63b8ff" d="M198.83,-274.09C224.78,-291.44 279.71,-328.19 310.97,-349.1"/>
<polygon fill="#63b8ff" stroke="#63b8ff" points="309.23,-352.14 319.49,-354.79 313.12,-346.32 309.23,-352.14"/>
</a>
</g>
</g>
<!-- Node8 -->
<g id="Node000008" class="node">
<title>Node8</title>
<g id="a_Node000008"><a xlink:href="code__80086E70_8c.html#ae0499dac45e7e9f8e247a851401d8716" target="_top" xlink:title=" ">
<polygon fill="white" stroke="#666666" points="545.5,-346 454.5,-346 454.5,-327 545.5,-327 545.5,-346"/>
<text text-anchor="middle" x="500" y="-334" font-family="Helvetica,sans-Serif" font-size="10.00">func_800886F4</text>
</a>
</g>
</g>
<!-- Node2&#45;&gt;Node8 -->
<g id="edge8_Node000002_Node000008" class="edge">
<title>Node2&#45;&gt;Node8</title>
<g id="a_edge8_Node000002_Node000008"><a xlink:title=" ">
<path fill="none" stroke="#63b8ff" d="M226.26,-274.06C283.24,-287.11 385.31,-310.47 447.13,-324.62"/>
<polygon fill="#63b8ff" stroke="#63b8ff" points="446.54,-328.08 457.06,-326.9 448.1,-321.26 446.54,-328.08"/>
</a>
</g>
</g>
<!-- Node17 -->
<g id="Node000017" class="node">
<title>Node17</title>
<g id="a_Node000017"><a xlink:href="code__80086E70_8c.html#aca89708b0868138c58f8d56712d2d815" target="_top" xlink:title=" ">
<polygon fill="white" stroke="#666666" points="381,-237 289,-237 289,-218 381,-218 381,-237"/>
<text text-anchor="middle" x="335" y="-225" font-family="Helvetica,sans-Serif" font-size="10.00">func_8008B844</text>
</a>
</g>
</g>
<!-- Node2&#45;&gt;Node17 -->
<g id="edge18_Node000002_Node000017" class="edge">
<title>Node2&#45;&gt;Node17</title>
<g id="a_edge18_Node000002_Node000017"><a xlink:title=" ">
<path fill="none" stroke="#63b8ff" d="M223,-254.97C242.02,-250.26 265.17,-244.53 285.4,-239.53"/>
<polygon fill="#63b8ff" stroke="#63b8ff" points="286.5,-242.86 295.37,-237.06 284.82,-236.07 286.5,-242.86"/>
</a>
</g>
</g>
<!-- Node18 -->
<g id="Node000018" class="node">
<title>Node18</title>
<g id="a_Node000018"><a xlink:href="actors_8c.html#ac5750654b812a09a6a1e1894cc0dcd45" target="_top" xlink:title=" ">
<polygon fill="white" stroke="#666666" points="381.5,-274 288.5,-274 288.5,-255 381.5,-255 381.5,-274"/>
<text text-anchor="middle" x="335" y="-262" font-family="Helvetica,sans-Serif" font-size="10.00">func_802A14BC</text>
</a>
</g>
</g>
<!-- Node2&#45;&gt;Node18 -->
<g id="edge19_Node000002_Node000018" class="edge">
<title>Node2&#45;&gt;Node18</title>
<g id="a_edge19_Node000002_Node000018"><a xlink:title=" ">
<path fill="none" stroke="#63b8ff" d="M240.17,-264.5C252.49,-264.5 265.56,-264.5 277.9,-264.5"/>
<polygon fill="#63b8ff" stroke="#63b8ff" points="278.06,-268 288.06,-264.5 278.06,-261 278.06,-268"/>
</a>
</g>
</g>
<!-- Node39 -->
<g id="Node000039" class="node">
<title>Node39</title>
<g id="a_Node000039"><a xlink:href="code__80086E70_8c.html#ac9171108201f29dda52974a4a5c68a04" target="_top" xlink:title=" ">
<polygon fill="white" stroke="#666666" points="394,-200 276,-200 276,-181 394,-181 394,-200"/>
<text text-anchor="middle" x="335" y="-188" font-family="Helvetica,sans-Serif" font-size="10.00">set_obj_origin_offset</text>
</a>
</g>
</g>
<!-- Node2&#45;&gt;Node39 -->
<g id="edge45_Node000002_Node000039" class="edge">
<title>Node2&#45;&gt;Node39</title>
<g id="a_edge45_Node000002_Node000039"><a xlink:title=" ">
<path fill="none" stroke="#63b8ff" d="M197.86,-254.85C215.18,-242.69 246.65,-221.79 276,-208.5 280.05,-206.67 284.35,-204.95 288.69,-203.35"/>
<polygon fill="#63b8ff" stroke="#63b8ff" points="289.89,-206.64 298.21,-200.08 287.61,-200.02 289.89,-206.64"/>
</a>
</g>
</g>
<!-- Node40 -->
<g id="Node000040" class="node">
<title>Node40</title>
<g id="a_Node000040"><a xlink:href="code__80086E70_8c.html#a670bd4aa157a5ec3dd6a4f4335a13ea4" target="_top" xlink:title=" ">
<polygon fill="white" stroke="#666666" points="388.5,-163 281.5,-163 281.5,-144 388.5,-144 388.5,-163"/>
<text text-anchor="middle" x="335" y="-151" font-family="Helvetica,sans-Serif" font-size="10.00">set_obj_origin_pos</text>
</a>
</g>
</g>
<!-- Node2&#45;&gt;Node40 -->
<g id="edge46_Node000002_Node000040" class="edge">
<title>Node2&#45;&gt;Node40</title>
<g id="a_edge46_Node000002_Node000040"><a xlink:title=" ">
<path fill="none" stroke="#63b8ff" d="M191.4,-254.8C205.28,-235.98 238.48,-194.36 276,-171.5 278.66,-169.88 281.48,-168.39 284.38,-167.03"/>
<polygon fill="#63b8ff" stroke="#63b8ff" points="285.97,-170.16 293.87,-163.1 283.29,-163.7 285.97,-170.16"/>
</a>
</g>
</g>
<!-- Node4 -->
<g id="Node000004" class="node">
<title>Node4</title>
<g id="a_Node000004"><a xlink:href="update__objects_8c.html#ad33541b9fed7857e59b2d745298f2d44" target="_top" xlink:title=" ">
<polygon fill="white" stroke="#666666" points="743.5,-468.5 618.5,-468.5 618.5,-438.5 743.5,-438.5 743.5,-468.5"/>
<text text-anchor="start" x="626.5" y="-456.5" font-family="Helvetica,sans-Serif" font-size="10.00">set_object_flag_status</text>
<text text-anchor="middle" x="681" y="-445.5" font-family="Helvetica,sans-Serif" font-size="10.00">_false</text>
</a>
</g>
</g>
<!-- Node3&#45;&gt;Node4 -->
<g id="edge3_Node000003_Node000004" class="edge">
<title>Node3&#45;&gt;Node4</title>
<g id="a_edge3_Node000003_Node000004"><a xlink:title=" ">
<path fill="none" stroke="#63b8ff" d="M377.93,-423.06C394.13,-426.46 412.86,-430.06 430,-432.5 489.8,-441.03 558.19,-446.48 608.3,-449.68"/>
<polygon fill="#63b8ff" stroke="#63b8ff" points="608.19,-453.18 618.39,-450.31 608.63,-446.2 608.19,-453.18"/>
</a>
</g>
</g>
<!-- Node5 -->
<g id="Node000005" class="node">
<title>Node5</title>
<g id="a_Node000005"><a xlink:href="update__objects_8c.html#a4b4f00a7df0f9bc44914cd922c3cd51b" target="_top" xlink:title=" ">
<polygon fill="white" stroke="#666666" points="557.5,-423 442.5,-423 442.5,-404 557.5,-404 557.5,-423"/>
<text text-anchor="middle" x="500" y="-411" font-family="Helvetica,sans-Serif" font-size="10.00">set_object_unk_0CB</text>
</a>
</g>
</g>
<!-- Node3&#45;&gt;Node5 -->
<g id="edge4_Node000003_Node000005" class="edge">
<title>Node3&#45;&gt;Node5</title>
<g id="a_edge4_Node000003_Node000005"><a xlink:title=" ">
<path fill="none" stroke="#63b8ff" d="M380.54,-413.5C396.46,-413.5 414.76,-413.5 432.14,-413.5"/>
<polygon fill="#63b8ff" stroke="#63b8ff" points="432.25,-417 442.25,-413.5 432.25,-410 432.25,-417"/>
</a>
</g>
</g>
<!-- Node7 -->
<g id="Node000007" class="node">
<title>Node7</title>
<g id="a_Node000007"><a xlink:href="code__80086E70_8c.html#ad844d2fe27c3f0bb5979715fae72559a" target="_top" xlink:title=" ">
<polygon fill="white" stroke="#666666" points="545.5,-383 454.5,-383 454.5,-364 545.5,-364 545.5,-383"/>
<text text-anchor="middle" x="500" y="-371" font-family="Helvetica,sans-Serif" font-size="10.00">func_80086E70</text>
</a>
</g>
</g>
<!-- Node6&#45;&gt;Node7 -->
<g id="edge6_Node000006_Node000007" class="edge">
<title>Node6&#45;&gt;Node7</title>
<g id="a_edge6_Node000006_Node000007"><a xlink:title=" ">
<path fill="none" stroke="#63b8ff" d="M380.54,-366.96C400.14,-368.04 423.35,-369.32 444.01,-370.46"/>
<polygon fill="#63b8ff" stroke="#63b8ff" points="444.05,-373.97 454.23,-371.03 444.44,-366.98 444.05,-373.97"/>
</a>
</g>
</g>
<!-- Node7&#45;&gt;Node4 -->
<g id="edge7_Node000007_Node000004" class="edge">
<title>Node7&#45;&gt;Node4</title>
<g id="a_edge7_Node000007_Node000004"><a xlink:title=" ">
<path fill="none" stroke="#63b8ff" d="M541.35,-383.03C551.1,-386.23 561.23,-390.33 570,-395.5 588.96,-406.68 587.07,-418.28 606,-429.5 608.85,-431.19 611.83,-432.77 614.89,-434.26"/>
<polygon fill="#63b8ff" stroke="#63b8ff" points="613.7,-437.56 624.26,-438.42 616.54,-431.16 613.7,-437.56"/>
</a>
</g>
</g>
<!-- Node8&#45;&gt;Node4 -->
<g id="edge16_Node000008_Node000004" class="edge">
<title>Node8&#45;&gt;Node4</title>
<g id="a_edge16_Node000008_Node000004"><a xlink:title=" ">
<path fill="none" stroke="#63b8ff" d="M545.67,-342.86C554.42,-345.67 563.02,-349.7 570,-355.5 598.13,-378.88 578.4,-405.5 606,-429.5 607.49,-430.8 609.05,-432.02 610.67,-433.18"/>
<polygon fill="#63b8ff" stroke="#63b8ff" points="608.85,-436.17 619.2,-438.45 612.53,-430.22 608.85,-436.17"/>
</a>
</g>
</g>
<!-- Node9 -->
<g id="Node000009" class="node">
<title>Node9</title>
<g id="a_Node000009"><a xlink:href="math__util_8c.html#aaa39a297477f56051975259f4bddd829" target="_top" xlink:title=" ">
<polygon fill="white" stroke="#666666" points="706,-420 656,-420 656,-401 706,-401 706,-420"/>
<text text-anchor="middle" x="681" y="-408" font-family="Helvetica,sans-Serif" font-size="10.00">atan2s</text>
</a>
</g>
</g>
<!-- Node8&#45;&gt;Node9 -->
<g id="edge9_Node000008_Node000009" class="edge">
<title>Node8&#45;&gt;Node9</title>
<g id="a_edge9_Node000008_Node000009"><a xlink:title=" ">
<path fill="none" stroke="#63b8ff" d="M545.85,-345.12C554.21,-347.75 562.62,-351.14 570,-355.5 589.75,-367.18 586.08,-381.12 606,-392.5 618.05,-399.38 632.66,-403.65 645.7,-406.28"/>
<polygon fill="#63b8ff" stroke="#63b8ff" points="645.28,-409.76 655.74,-408.07 646.51,-402.87 645.28,-409.76"/>
</a>
</g>
</g>
<!-- Node11 -->
<g id="Node000011" class="node">
<title>Node11</title>
<g id="a_Node000011"><a xlink:href="collision_8c.html#afa1243eb9b3a14bc92434a8a19c162be" target="_top" xlink:title=" ">
<polygon fill="white" stroke="#666666" points="727,-383 635,-383 635,-364 727,-364 727,-383"/>
<text text-anchor="middle" x="681" y="-371" font-family="Helvetica,sans-Serif" font-size="10.00">func_802ABE30</text>
</a>
</g>
</g>
<!-- Node8&#45;&gt;Node11 -->
<g id="edge11_Node000008_Node000011" class="edge">
<title>Node8&#45;&gt;Node11</title>
<g id="a_edge11_Node000008_Node000011"><a xlink:title=" ">
<path fill="none" stroke="#63b8ff" d="M545.71,-345.74C569.75,-350.71 599.6,-356.88 625.05,-362.14"/>
<polygon fill="#63b8ff" stroke="#63b8ff" points="624.43,-365.59 634.93,-364.18 625.85,-358.73 624.43,-365.59"/>
</a>
</g>
</g>
<!-- Node12 -->
<g id="Node000012" class="node">
<title>Node12</title>
<g id="a_Node000012"><a xlink:href="collision_8c.html#a365367628b7140a7a880beeecce9c305" target="_top" xlink:title=" ">
<polygon fill="white" stroke="#666666" points="1023.5,-326 928.5,-326 928.5,-307 1023.5,-307 1023.5,-326"/>
<text text-anchor="middle" x="976" y="-314" font-family="Helvetica,sans-Serif" font-size="10.00">func_802ADDC8</text>
</a>
</g>
</g>
<!-- Node8&#45;&gt;Node12 -->
<g id="edge12_Node000008_Node000012" class="edge">
<title>Node8&#45;&gt;Node12</title>
<g id="a_edge12_Node000008_Node000012"><a xlink:title=" ">
<path fill="none" stroke="#63b8ff" d="M545.59,-334.62C632.2,-330.96 823.01,-322.91 918.4,-318.89"/>
<polygon fill="#63b8ff" stroke="#63b8ff" points="918.59,-322.38 928.43,-318.46 918.3,-315.39 918.59,-322.38"/>
</a>
</g>
</g>
<!-- Node16 -->
<g id="Node000016" class="node">
<title>Node16</title>
<g id="a_Node000016"><a xlink:href="update__objects_8c.html#a00a4e96fc9576ef2552de1c51cf2aa7c" target="_top" xlink:title=" ">
<polygon fill="white" stroke="#666666" points="756,-307 606,-307 606,-288 756,-288 756,-307"/>
<text text-anchor="middle" x="681" y="-295" font-family="Helvetica,sans-Serif" font-size="10.00">set_object_flag_status_true</text>
</a>
</g>
</g>
<!-- Node8&#45;&gt;Node16 -->
<g id="edge17_Node000008_Node000016" class="edge">
<title>Node8&#45;&gt;Node16</title>
<g id="a_edge17_Node000008_Node000016"><a xlink:title=" ">
<path fill="none" stroke="#63b8ff" d="M544.79,-326.96C569.37,-321.6 600.23,-314.88 626.27,-309.21"/>
<polygon fill="#63b8ff" stroke="#63b8ff" points="627.33,-312.56 636.35,-307.01 625.84,-305.72 627.33,-312.56"/>
</a>
</g>
</g>
<!-- Node10 -->
<g id="Node000010" class="node">
<title>Node10</title>
<g id="a_Node000010"><a xlink:href="math__util_8c.html#a0273b0ea0783a06996c28669a7438ed9" target="_top" xlink:title=" ">
<polygon fill="white" stroke="#666666" points="874,-420 792,-420 792,-401 874,-401 874,-420"/>
<text text-anchor="middle" x="833" y="-408" font-family="Helvetica,sans-Serif" font-size="10.00">atan2_lookup</text>
</a>
</g>
</g>
<!-- Node9&#45;&gt;Node10 -->
<g id="edge10_Node000009_Node000010" class="edge">
<title>Node9&#45;&gt;Node10</title>
<g id="a_edge10_Node000009_Node000010"><a xlink:title=" ">
<path fill="none" stroke="#63b8ff" d="M706.1,-410.5C726.41,-410.5 756.14,-410.5 781.62,-410.5"/>
<polygon fill="#63b8ff" stroke="#63b8ff" points="781.87,-414 791.87,-410.5 781.87,-407 781.87,-414"/>
</a>
</g>
</g>
<!-- Node13 -->
<g id="Node000013" class="node">
<title>Node13</title>
<g id="a_Node000013"><a xlink:href="collision_8c.html#afce45acb8da354da0a5b501003be1aef" target="_top" xlink:title=" ">
<polygon fill="white" stroke="#666666" points="1200.5,-289 1107.5,-289 1107.5,-270 1200.5,-270 1200.5,-289"/>
<text text-anchor="middle" x="1154" y="-277" font-family="Helvetica,sans-Serif" font-size="10.00">func_802AAE4C</text>
</a>
</g>
</g>
<!-- Node12&#45;&gt;Node13 -->
<g id="edge13_Node000012_Node000013" class="edge">
<title>Node12&#45;&gt;Node13</title>
<g id="a_edge13_Node000012_Node000013"><a xlink:title=" ">
<path fill="none" stroke="#63b8ff" d="M1022.32,-306.97C1045.33,-302.14 1073.47,-296.22 1097.74,-291.12"/>
<polygon fill="#63b8ff" stroke="#63b8ff" points="1098.46,-294.54 1107.52,-289.06 1097.02,-287.69 1098.46,-294.54"/>
</a>
</g>
</g>
<!-- Node14 -->
<g id="Node000014" class="node">
<title>Node14</title>
<g id="a_Node000014"><a xlink:href="collision_8c.html#adcc608ea0eae3bf9a27ab79ec64b4899" target="_top" xlink:title=" ">
<polygon fill="white" stroke="#666666" points="1200,-363 1108,-363 1108,-344 1200,-344 1200,-363"/>
<text text-anchor="middle" x="1154" y="-351" font-family="Helvetica,sans-Serif" font-size="10.00">func_802AB288</text>
</a>
</g>
</g>
<!-- Node12&#45;&gt;Node14 -->
<g id="edge14_Node000012_Node000014" class="edge">
<title>Node12&#45;&gt;Node14</title>
<g id="a_edge14_Node000012_Node000014"><a xlink:title=" ">
<path fill="none" stroke="#63b8ff" d="M1022.32,-326.03C1045.42,-330.88 1073.69,-336.83 1098.02,-341.94"/>
<polygon fill="#63b8ff" stroke="#63b8ff" points="1097.32,-345.37 1107.83,-344 1098.76,-338.52 1097.32,-345.37"/>
</a>
</g>
</g>
<!-- Node15 -->
<g id="Node000015" class="node">
<title>Node15</title>
<g id="a_Node000015"><a xlink:href="collision_8c.html#ab440aa3fc960b7b4b5ad8e4bcaa06b00" target="_top" xlink:title=" ">
<polygon fill="white" stroke="#666666" points="1200.5,-326 1107.5,-326 1107.5,-307 1200.5,-307 1200.5,-326"/>
<text text-anchor="middle" x="1154" y="-314" font-family="Helvetica,sans-Serif" font-size="10.00">func_802AB6C4</text>
</a>
</g>
</g>
<!-- Node12&#45;&gt;Node15 -->
<g id="edge15_Node000012_Node000015" class="edge">
<title>Node12&#45;&gt;Node15</title>
<g id="a_edge15_Node000012_Node000015"><a xlink:title=" ">
<path fill="none" stroke="#63b8ff" d="M1023.7,-316.5C1046.24,-316.5 1073.44,-316.5 1097.07,-316.5"/>
<polygon fill="#63b8ff" stroke="#63b8ff" points="1097.3,-320 1107.3,-316.5 1097.3,-313 1097.3,-320"/>
</a>
</g>
</g>
<!-- Node19 -->
<g id="Node000019" class="node">
<title>Node19</title>
<g id="a_Node000019"><a xlink:href="actors_8c.html#a91fb2e4e37e7c72fea918fe2c1bb4eaf" target="_top" xlink:title=" ">
<polygon fill="white" stroke="#666666" points="570,-175 430,-175 430,-156 570,-156 570,-175"/>
<text text-anchor="middle" x="500" y="-163" font-family="Helvetica,sans-Serif" font-size="10.00">add_actor_to_empty_slot</text>
</a>
</g>
</g>
<!-- Node18&#45;&gt;Node19 -->
<g id="edge20_Node000018_Node000019" class="edge">
<title>Node18&#45;&gt;Node19</title>
<g id="a_edge20_Node000018_Node000019"><a xlink:title=" ">
<path fill="none" stroke="#63b8ff" d="M375.46,-254.88C381.95,-252.39 388.38,-249.3 394,-245.5 414.64,-231.53 410.67,-218.23 430,-202.5 441.17,-193.41 454.92,-185.5 467.2,-179.36"/>
<polygon fill="#63b8ff" stroke="#63b8ff" points="468.74,-182.5 476.23,-175.01 465.7,-176.2 468.74,-182.5"/>
</a>
</g>
</g>
<!-- Node34 -->
<g id="Node000034" class="node">
<title>Node34</title>
<g id="a_Node000034"><a xlink:href="math__util_8c.html#a79fd07a0971ec96a3ff0801963a2fa7f" target="_top" xlink:title=" ">
<polygon fill="white" stroke="#666666" points="1186,-223 1122,-223 1122,-204 1186,-204 1186,-223"/>
<text text-anchor="middle" x="1154" y="-211" font-family="Helvetica,sans-Serif" font-size="10.00">vec3f_set</text>
</a>
</g>
</g>
<!-- Node18&#45;&gt;Node34 -->
<g id="edge43_Node000018_Node000034" class="edge">
<title>Node18&#45;&gt;Node34</title>
<g id="a_edge43_Node000018_Node000034"><a xlink:title=" ">
<path fill="none" stroke="#63b8ff" d="M381.63,-263.42C447.5,-261.94 573.09,-259.5 680,-259.5 680,-259.5 680,-259.5 834,-259.5 926.87,-259.5 950.36,-254.57 1042,-239.5 1065.33,-235.66 1091.06,-229.75 1111.86,-224.53"/>
<polygon fill="#63b8ff" stroke="#63b8ff" points="1112.82,-227.89 1121.65,-222.03 1111.09,-221.11 1112.82,-227.89"/>
</a>
</g>
</g>
<!-- Node38 -->
<g id="Node000038" class="node">
<title>Node38</title>
<g id="a_Node000038"><a xlink:href="math__util_8c.html#a9092c945c52b3a3481228b2724991e3c" target="_top" xlink:title=" ">
<polygon fill="white" stroke="#666666" points="532.5,-231 467.5,-231 467.5,-212 532.5,-212 532.5,-231"/>
<text text-anchor="middle" x="500" y="-219" font-family="Helvetica,sans-Serif" font-size="10.00">vec3s_set</text>
</a>
</g>
</g>
<!-- Node18&#45;&gt;Node38 -->
<g id="edge44_Node000018_Node000038" class="edge">
<title>Node18&#45;&gt;Node38</title>
<g id="a_edge44_Node000018_Node000038"><a xlink:title=" ">
<path fill="none" stroke="#63b8ff" d="M372.17,-254.96C397.46,-248.29 431.27,-239.37 457.63,-232.41"/>
<polygon fill="#63b8ff" stroke="#63b8ff" points="458.55,-235.79 467.33,-229.85 456.77,-229.02 458.55,-235.79"/>
</a>
</g>
</g>
<!-- Node20 -->
<g id="Node000020" class="node">
<title>Node20</title>
<g id="a_Node000020"><a xlink:href="actors_8c.html#a39c023177b5a7686cdd1fc65b8b953e1" target="_top" xlink:title=" ">
<polygon fill="white" stroke="#666666" points="864,-175 802,-175 802,-156 864,-156 864,-175"/>
<text text-anchor="middle" x="833" y="-163" font-family="Helvetica,sans-Serif" font-size="10.00">actor_init</text>
</a>
</g>
</g>
<!-- Node19&#45;&gt;Node20 -->
<g id="edge21_Node000019_Node000020" class="edge">
<title>Node19&#45;&gt;Node20</title>
<g id="a_edge21_Node000019_Node000020"><a xlink:title=" ">
<path fill="none" stroke="#63b8ff" d="M570.39,-165.5C637.53,-165.5 736.97,-165.5 791.89,-165.5"/>
<polygon fill="#63b8ff" stroke="#63b8ff" points="791.93,-169 801.93,-165.5 791.93,-162 791.93,-169"/>
</a>
</g>
</g>
<!-- Node37 -->
<g id="Node000037" class="node">
<title>Node37</title>
<g id="a_Node000037"><a xlink:href="actors_8c.html#a0c9d11d8956bf92c32a5e9bafd7036e6" target="_top" xlink:title=" ">
<polygon fill="white" stroke="#666666" points="726.5,-113 635.5,-113 635.5,-94 726.5,-94 726.5,-113"/>
<text text-anchor="middle" x="681" y="-101" font-family="Helvetica,sans-Serif" font-size="10.00">func_8029E890</text>
</a>
</g>
</g>
<!-- Node19&#45;&gt;Node37 -->
<g id="edge39_Node000019_Node000037" class="edge">
<title>Node19&#45;&gt;Node37</title>
<g id="a_edge39_Node000019_Node000037"><a xlink:title=" ">
<path fill="none" stroke="#63b8ff" d="M528.58,-155.95C559.19,-145.34 608.77,-128.17 642.8,-116.38"/>
<polygon fill="#63b8ff" stroke="#63b8ff" points="644.09,-119.64 652.39,-113.06 641.8,-113.03 644.09,-119.64"/>
</a>
</g>
</g>
<!-- Node20&#45;&gt;Node12 -->
<g id="edge36_Node000020_Node000012" class="edge">
<title>Node20&#45;&gt;Node12</title>
<g id="a_edge36_Node000020_Node000012"><a xlink:title=" ">
<path fill="none" stroke="#63b8ff" d="M843.25,-175.41C866.76,-200.58 929.03,-267.27 958.76,-299.11"/>
<polygon fill="#63b8ff" stroke="#63b8ff" points="956.51,-301.83 965.9,-306.75 961.63,-297.05 956.51,-301.83"/>
</a>
</g>
</g>
<!-- Node21 -->
<g id="Node000021" class="node">
<title>Node21</title>
<g id="a_Node000021"><a xlink:href="actors_8c.html#a1a9bccb586242555a9123ebd4ab70f2a" target="_top" xlink:title=" ">
<polygon fill="white" stroke="#666666" points="1042,-119.5 910,-119.5 910,-89.5 1042,-89.5 1042,-119.5"/>
<text text-anchor="start" x="918" y="-107.5" font-family="Helvetica,sans-Serif" font-size="10.00">cleanup_red_and_green</text>
<text text-anchor="middle" x="976" y="-96.5" font-family="Helvetica,sans-Serif" font-size="10.00">_shells</text>
</a>
</g>
</g>
<!-- Node20&#45;&gt;Node21 -->
<g id="edge22_Node000020_Node000021" class="edge">
<title>Node20&#45;&gt;Node21</title>
<g id="a_edge22_Node000020_Node000021"><a xlink:title=" ">
<path fill="none" stroke="#63b8ff" d="M852.5,-155.85C867.74,-148.06 890.02,-137.03 910,-128.5 914.16,-126.73 918.5,-124.95 922.87,-123.23"/>
<polygon fill="#63b8ff" stroke="#63b8ff" points="924.39,-126.39 932.45,-119.52 921.86,-119.86 924.39,-126.39"/>
</a>
</g>
</g>
<!-- Node33 -->
<g id="Node000033" class="node">
<title>Node33</title>
<g id="a_Node000033"><a xlink:href="collision_8c.html#ad72fef3ffe32191d73b1822f512ebf3f" target="_top" xlink:title=" ">
<polygon fill="white" stroke="#666666" points="1023.5,-194 928.5,-194 928.5,-175 1023.5,-175 1023.5,-194"/>
<text text-anchor="middle" x="976" y="-182" font-family="Helvetica,sans-Serif" font-size="10.00">func_802AAAAC</text>
</a>
</g>
</g>
<!-- Node20&#45;&gt;Node33 -->
<g id="edge34_Node000020_Node000033" class="edge">
<title>Node20&#45;&gt;Node33</title>
<g id="a_edge34_Node000020_Node000033"><a xlink:title=" ">
<path fill="none" stroke="#63b8ff" d="M864.25,-169.58C880.02,-171.7 899.83,-174.37 918.33,-176.86"/>
<polygon fill="#63b8ff" stroke="#63b8ff" points="918.05,-180.36 928.43,-178.22 918.99,-173.42 918.05,-180.36"/>
</a>
</g>
</g>
<!-- Node35 -->
<g id="Node000035" class="node">
<title>Node35</title>
<g id="a_Node000035"><a xlink:href="math__util_8c.html#af7b470ed76fce07b8042a47c96e5690b" target="_top" xlink:title=" ">
<polygon fill="white" stroke="#666666" points="1029.5,-157 922.5,-157 922.5,-138 1029.5,-138 1029.5,-157"/>
<text text-anchor="middle" x="976" y="-145" font-family="Helvetica,sans-Serif" font-size="10.00">vec3f_copy_return</text>
</a>
</g>
</g>
<!-- Node20&#45;&gt;Node35 -->
<g id="edge37_Node000020_Node000035" class="edge">
<title>Node20&#45;&gt;Node35</title>
<g id="a_edge37_Node000020_Node000035"><a xlink:title=" ">
<path fill="none" stroke="#63b8ff" d="M864.25,-161.64C878.25,-159.85 895.45,-157.66 912.07,-155.53"/>
<polygon fill="#63b8ff" stroke="#63b8ff" points="912.84,-158.96 922.31,-154.23 911.95,-152.02 912.84,-158.96"/>
</a>
</g>
</g>
<!-- Node36 -->
<g id="Node000036" class="node">
<title>Node36</title>
<g id="a_Node000036"><a xlink:href="math__util_8c.html#a0e270ee67600c8c9c2f140c647d008a1" target="_top" xlink:title=" ">
<polygon fill="white" stroke="#666666" points="1013,-231 939,-231 939,-212 1013,-212 1013,-231"/>
<text text-anchor="middle" x="976" y="-219" font-family="Helvetica,sans-Serif" font-size="10.00">vec3s_copy</text>
</a>
</g>
</g>
<!-- Node20&#45;&gt;Node36 -->
<g id="edge38_Node000020_Node000036" class="edge">
<title>Node20&#45;&gt;Node36</title>
<g id="a_edge38_Node000020_Node000036"><a xlink:title=" ">
<path fill="none" stroke="#63b8ff" d="M851.44,-175.04C866.6,-183.08 889.33,-194.51 910,-202.5 916.05,-204.84 922.5,-207.05 928.91,-209.08"/>
<polygon fill="#63b8ff" stroke="#63b8ff" points="928.29,-212.55 938.88,-212.11 930.33,-205.85 928.29,-212.55"/>
</a>
</g>
</g>
<!-- Node22 -->
<g id="Node000022" class="node">
<title>Node22</title>
<g id="a_Node000022"><a xlink:href="actors_8c.html#a694ec6ef7548b8618aeb35c038d3a9b9" target="_top" xlink:title=" ">
<polygon fill="white" stroke="#666666" points="1195.5,-117 1112.5,-117 1112.5,-98 1195.5,-98 1195.5,-117"/>
<text text-anchor="middle" x="1154" y="-105" font-family="Helvetica,sans-Serif" font-size="10.00">destroy_actor</text>
</a>
</g>
</g>
<!-- Node21&#45;&gt;Node22 -->
<g id="edge23_Node000021_Node000022" class="edge">
<title>Node21&#45;&gt;Node22</title>
<g id="a_edge23_Node000021_Node000022"><a xlink:title=" ">
<path fill="none" stroke="#63b8ff" d="M1042.04,-105.61C1061.95,-105.95 1083.55,-106.32 1102.35,-106.64"/>
<polygon fill="#63b8ff" stroke="#63b8ff" points="1102.42,-110.14 1112.48,-106.81 1102.54,-103.14 1102.42,-110.14"/>
</a>
</g>
</g>
<!-- Node32 -->
<g id="Node000032" class="node">
<title>Node32</title>
<g id="a_Node000032"><a xlink:href="code__80005FD0_8c.html#acb7b3d384c78d219f4b7040e78f6a2f2" target="_top" xlink:title=" ">
<polygon fill="white" stroke="#666666" points="1230,-79.5 1078,-79.5 1078,-49.5 1230,-49.5 1230,-79.5"/>
<text text-anchor="start" x="1086" y="-67.5" font-family="Helvetica,sans-Serif" font-size="10.00">remove_actor_in_unexpired</text>
<text text-anchor="middle" x="1154" y="-56.5" font-family="Helvetica,sans-Serif" font-size="10.00">_actor_list</text>
</a>
</g>
</g>
<!-- Node21&#45;&gt;Node32 -->
<g id="edge33_Node000021_Node000032" class="edge">
<title>Node21&#45;&gt;Node32</title>
<g id="a_edge33_Node000021_Node000032"><a xlink:title=" ">
<path fill="none" stroke="#63b8ff" d="M1042.04,-89.72C1053.32,-87.15 1065.15,-84.47 1076.7,-81.84"/>
<polygon fill="#63b8ff" stroke="#63b8ff" points="1077.79,-85.18 1086.76,-79.55 1076.23,-78.36 1077.79,-85.18"/>
</a>
</g>
</g>
<!-- Node23 -->
<g id="Node000023" class="node">
<title>Node23</title>
<g id="a_Node000023"><a xlink:href="actors_8c.html#ad5a56c8f7eaf719223099cce9e38ec9f" target="_top" xlink:title=" ">
<polygon fill="white" stroke="#666666" points="1417,-74 1266,-74 1266,-55 1417,-55 1417,-74"/>
<text text-anchor="middle" x="1341.5" y="-62" font-family="Helvetica,sans-Serif" font-size="10.00">play_sound_before_destroy</text>
</a>
</g>
</g>
<!-- Node22&#45;&gt;Node23 -->
<g id="edge24_Node000022_Node000023" class="edge">
<title>Node22&#45;&gt;Node23</title>
<g id="a_edge24_Node000022_Node000023"><a xlink:title=" ">
<path fill="none" stroke="#63b8ff" d="M1195.71,-98.06C1223.18,-91.69 1259.67,-83.24 1289.14,-76.41"/>
<polygon fill="#63b8ff" stroke="#63b8ff" points="1290.29,-79.73 1299.25,-74.06 1288.71,-72.91 1290.29,-79.73"/>
</a>
</g>
</g>
<!-- Node24 -->
<g id="Node000024" class="node">
<title>Node24</title>
<g id="a_Node000024"><a xlink:href="external_8c.html#ae72057869772019e4464c87d4e16c682" target="_top" xlink:title=" ">
<polygon fill="white" stroke="#666666" points="1545,-74 1453,-74 1453,-55 1545,-55 1545,-74"/>
<text text-anchor="middle" x="1499" y="-62" font-family="Helvetica,sans-Serif" font-size="10.00">func_800C99E0</text>
</a>
</g>
</g>
<!-- Node23&#45;&gt;Node24 -->
<g id="edge25_Node000023_Node000024" class="edge">
<title>Node23&#45;&gt;Node24</title>
<g id="a_edge25_Node000023_Node000024"><a xlink:title=" ">
<path fill="none" stroke="#63b8ff" d="M1417.06,-64.5C1425.61,-64.5 1434.21,-64.5 1442.45,-64.5"/>
<polygon fill="#63b8ff" stroke="#63b8ff" points="1442.66,-68 1452.66,-64.5 1442.66,-61 1442.66,-68"/>
</a>
</g>
</g>
<!-- Node25 -->
<g id="Node000025" class="node">
<title>Node25</title>
<g id="a_Node000025"><a xlink:href="external_8c.html#aeb87c527482a244173df36a1f3d4f446" target="_top" xlink:title=" ">
<polygon fill="white" stroke="#666666" points="1673,-93 1581,-93 1581,-74 1673,-74 1673,-93"/>
<text text-anchor="middle" x="1627" y="-81" font-family="Helvetica,sans-Serif" font-size="10.00">func_800C21E8</text>
</a>
</g>
</g>
<!-- Node24&#45;&gt;Node25 -->
<g id="edge26_Node000024_Node000025" class="edge">
<title>Node24&#45;&gt;Node25</title>
<g id="a_edge26_Node000024_Node000025"><a xlink:title=" ">
<path fill="none" stroke="#63b8ff" d="M1545.13,-71.31C1553.46,-72.56 1562.23,-73.88 1570.81,-75.18"/>
<polygon fill="#63b8ff" stroke="#63b8ff" points="1570.35,-78.65 1580.76,-76.68 1571.39,-71.73 1570.35,-78.65"/>
</a>
</g>
</g>
<!-- Node26 -->
<g id="Node000026" class="node">
<title>Node26</title>
<g id="a_Node000026"><a xlink:href="external_8c.html#a028d40421b90c38f68ebfd5acc626f2e" target="_top" xlink:title=" ">
<polygon fill="white" stroke="#666666" points="1673,-56 1581,-56 1581,-37 1673,-37 1673,-56"/>
<text text-anchor="middle" x="1627" y="-44" font-family="Helvetica,sans-Serif" font-size="10.00">func_800C5578</text>
</a>
</g>
</g>
<!-- Node24&#45;&gt;Node26 -->
<g id="edge27_Node000024_Node000026" class="edge">
<title>Node24&#45;&gt;Node26</title>
<g id="a_edge27_Node000024_Node000026"><a xlink:title=" ">
<path fill="none" stroke="#63b8ff" d="M1545.13,-58.05C1553.46,-56.86 1562.23,-55.61 1570.81,-54.38"/>
<polygon fill="#63b8ff" stroke="#63b8ff" points="1571.35,-57.84 1580.76,-52.96 1570.36,-50.91 1571.35,-57.84"/>
</a>
</g>
</g>
<!-- Node27 -->
<g id="Node000027" class="node">
<title>Node27</title>
<g id="a_Node000027"><a xlink:href="external_8c.html#ac0fb767de7e14a03f1bcfa53f0abd23b" target="_top" xlink:title=" ">
<polygon fill="white" stroke="#666666" points="1849,-93 1709,-93 1709,-74 1849,-74 1849,-93"/>
<text text-anchor="middle" x="1779" y="-81" font-family="Helvetica,sans-Serif" font-size="10.00">delete_sound_from_bank</text>
</a>
</g>
</g>
<!-- Node26&#45;&gt;Node27 -->
<g id="edge28_Node000026_Node000027" class="edge">
<title>Node26&#45;&gt;Node27</title>
<g id="a_edge28_Node000026_Node000027"><a xlink:title=" ">
<path fill="none" stroke="#63b8ff" d="M1666.63,-56.03C1685.8,-60.76 1709.16,-66.52 1729.52,-71.54"/>
<polygon fill="#63b8ff" stroke="#63b8ff" points="1728.69,-74.94 1739.24,-73.94 1730.37,-68.15 1728.69,-74.94"/>
</a>
</g>
</g>
<!-- Node29 -->
<g id="Node000029" class="node">
<title>Node29</title>
<g id="a_Node000029"><a xlink:href="external_8c.html#ab83bd36e63f0f1baddcb2482b5ad31b0" target="_top" xlink:title=" ">
<polygon fill="white" stroke="#666666" points="1825.5,-56 1732.5,-56 1732.5,-37 1825.5,-37 1825.5,-56"/>
<text text-anchor="middle" x="1779" y="-44" font-family="Helvetica,sans-Serif" font-size="10.00">func_800C41CC</text>
</a>
</g>
</g>
<!-- Node26&#45;&gt;Node29 -->
<g id="edge30_Node000026_Node000029" class="edge">
<title>Node26&#45;&gt;Node29</title>
<g id="a_edge30_Node000026_Node000029"><a xlink:title=" ">
<path fill="none" stroke="#63b8ff" d="M1673,-46.5C1688.37,-46.5 1705.74,-46.5 1721.86,-46.5"/>
<polygon fill="#63b8ff" stroke="#63b8ff" points="1722.25,-50 1732.25,-46.5 1722.25,-43 1722.25,-50"/>
</a>
</g>
</g>
<!-- Node30 -->
<g id="Node000030" class="node">
<title>Node30</title>
<g id="a_Node000030"><a xlink:href="port__eu_8c.html#aa89dfaecca46c6d071f08c1898d1f7c9" target="_top" xlink:title=" ">
<polygon fill="white" stroke="#666666" points="1825.5,-19 1732.5,-19 1732.5,0 1825.5,0 1825.5,-19"/>
<text text-anchor="middle" x="1779" y="-7" font-family="Helvetica,sans-Serif" font-size="10.00">func_800CBBE8</text>
</a>
</g>
</g>
<!-- Node26&#45;&gt;Node30 -->
<g id="edge31_Node000026_Node000030" class="edge">
<title>Node26&#45;&gt;Node30</title>
<g id="a_edge31_Node000026_Node000030"><a xlink:title=" ">
<path fill="none" stroke="#63b8ff" d="M1666.63,-36.97C1685.8,-32.24 1709.16,-26.48 1729.52,-21.46"/>
<polygon fill="#63b8ff" stroke="#63b8ff" points="1730.37,-24.85 1739.24,-19.06 1728.69,-18.06 1730.37,-24.85"/>
</a>
</g>
</g>
<!-- Node28 -->
<g id="Node000028" class="node">
<title>Node28</title>
<g id="a_Node000028"><a xlink:href="external_8c.html#a358ac55e8ab5262dcae8037334be06d7" target="_top" xlink:title=" ">
<polygon fill="white" stroke="#666666" points="1977.5,-93 1885.5,-93 1885.5,-74 1977.5,-74 1977.5,-93"/>
<text text-anchor="middle" x="1931.5" y="-81" font-family="Helvetica,sans-Serif" font-size="10.00">func_800C40F0</text>
</a>
</g>
</g>
<!-- Node27&#45;&gt;Node28 -->
<g id="edge29_Node000027_Node000028" class="edge">
<title>Node27&#45;&gt;Node28</title>
<g id="a_edge29_Node000027_Node000028"><a xlink:title=" ">
<path fill="none" stroke="#63b8ff" d="M1849.08,-83.5C1857.87,-83.5 1866.78,-83.5 1875.31,-83.5"/>
<polygon fill="#63b8ff" stroke="#63b8ff" points="1875.5,-87 1885.5,-83.5 1875.5,-80 1875.5,-87"/>
</a>
</g>
</g>
<!-- Node31 -->
<g id="Node000031" class="node">
<title>Node31</title>
<g id="a_Node000031"><a xlink:href="port__eu_8c.html#af361a20d2e08f30c53a237ca481ff734" target="_top" xlink:title=" ">
<polygon fill="white" stroke="#666666" points="1978,-19 1885,-19 1885,0 1978,0 1978,-19"/>
<text text-anchor="middle" x="1931.5" y="-7" font-family="Helvetica,sans-Serif" font-size="10.00">func_800CBB48</text>
</a>
</g>
</g>
<!-- Node30&#45;&gt;Node31 -->
<g id="edge32_Node000030_Node000031" class="edge">
<title>Node30&#45;&gt;Node31</title>
<g id="a_edge32_Node000030_Node000031"><a xlink:title=" ">
<path fill="none" stroke="#63b8ff" d="M1825.56,-9.5C1840.96,-9.5 1858.34,-9.5 1874.46,-9.5"/>
<polygon fill="#63b8ff" stroke="#63b8ff" points="1874.83,-13 1884.83,-9.5 1874.83,-6 1874.83,-13"/>
</a>
</g>
</g>
<!-- Node33&#45;&gt;Node34 -->
<g id="edge35_Node000033_Node000034" class="edge">
<title>Node33&#45;&gt;Node34</title>
<g id="a_edge35_Node000033_Node000034"><a xlink:title=" ">
<path fill="none" stroke="#63b8ff" d="M1023.7,-192.2C1051.12,-196.71 1085.46,-202.37 1111.86,-206.72"/>
<polygon fill="#63b8ff" stroke="#63b8ff" points="1111.48,-210.21 1121.92,-208.38 1112.62,-203.3 1111.48,-210.21"/>
</a>
</g>
</g>
<!-- Node37&#45;&gt;Node20 -->
<g id="edge40_Node000037_Node000020" class="edge">
<title>Node37&#45;&gt;Node20</title>
<g id="a_edge40_Node000037_Node000020"><a xlink:title=" ">
<path fill="none" stroke="#63b8ff" d="M705.11,-113.05C730.25,-123.44 770.65,-140.14 799.1,-151.9"/>
<polygon fill="#63b8ff" stroke="#63b8ff" points="798.04,-155.25 808.62,-155.84 800.71,-148.78 798.04,-155.25"/>
</a>
</g>
</g>
<!-- Node37&#45;&gt;Node23 -->
<g id="edge41_Node000037_Node000023" class="edge">
<title>Node37&#45;&gt;Node23</title>
<g id="a_edge41_Node000037_Node000023"><a xlink:title=" ">
<path fill="none" stroke="#63b8ff" d="M717.56,-93.93C804.81,-71.65 1036.47,-19.73 1230,-40.5 1251.87,-42.85 1275.77,-47.74 1295.73,-52.5"/>
<polygon fill="#63b8ff" stroke="#63b8ff" points="1294.94,-55.91 1305.48,-54.89 1296.6,-49.11 1294.94,-55.91"/>
</a>
</g>
</g>
<!-- Node37&#45;&gt;Node32 -->
<g id="edge42_Node000037_Node000032" class="edge">
<title>Node37&#45;&gt;Node32</title>
<g id="a_edge42_Node000037_Node000032"><a xlink:title=" ">
<path fill="none" stroke="#63b8ff" d="M726.52,-98.55C772.45,-93.55 846.17,-85.82 910,-80.5 962.4,-76.13 1021.24,-72.23 1067.9,-69.38"/>
<polygon fill="#63b8ff" stroke="#63b8ff" points="1068.2,-72.86 1077.96,-68.76 1067.77,-65.88 1068.2,-72.86"/>
</a>
</g>
</g>
</g>
</svg>
